%TF.GenerationSoftware,Altium Limited,Altium Designer,23.10.1 (27)*%
G04 Layer_Color=65535*
%FSLAX45Y45*%
%MOMM*%
%TF.SameCoordinates,AAB5F705-4A64-4C07-BC12-B6E9AAE413D5*%
%TF.FilePolarity,Positive*%
%TF.FileFunction,Legend,Top*%
%TF.Part,Single*%
G01*
G75*
%TA.AperFunction,NonConductor*%
%ADD20C,0.50000*%
%ADD21C,0.25000*%
%ADD22C,0.20000*%
%ADD23C,0.25400*%
D20*
X14211501Y4557900D02*
G03*
X14211501Y4557900I-25000J0D01*
G01*
D21*
X13889000Y4570400D02*
G03*
X13889000Y4570400I-12500J0D01*
G01*
D22*
X14103590Y4001990D02*
X14395210D01*
X14103590Y4227610D02*
X14395210D01*
X12928600Y4864100D02*
X13182600D01*
Y3594100D02*
Y4864100D01*
X12928600Y3594100D02*
Y4864100D01*
Y3594100D02*
X13182600D01*
X13285201Y3874600D02*
Y3894600D01*
X13410201Y3874600D02*
Y3894600D01*
X13285201Y4308000D02*
Y4328000D01*
X13410201Y4308000D02*
Y4328000D01*
Y4739800D02*
Y4759800D01*
X13285201Y4739800D02*
Y4759800D01*
X14119000Y4315400D02*
Y4625400D01*
Y4315400D02*
X14328999D01*
Y4625400D01*
X14119000D02*
X14328999D01*
X13081000Y5461000D02*
X13842999D01*
Y5715000D01*
X13081000D02*
X13842999D01*
X13081000Y5461000D02*
Y5715000D01*
Y5156200D02*
X13842999D01*
Y5410200D01*
X13081000D02*
X13842999D01*
X13081000Y5156200D02*
Y5410200D01*
X13152980Y5746822D02*
X13131821Y5767982D01*
Y5810301D01*
X13152980Y5831461D01*
X13174139D01*
X13195299Y5810301D01*
Y5789142D01*
Y5810301D01*
X13216460Y5831461D01*
X13237619D01*
X13258778Y5810301D01*
Y5767982D01*
X13237619Y5746822D01*
X13258778Y5873781D02*
X13237619D01*
Y5894940D01*
X13258778D01*
Y5873781D01*
X13152980Y5979580D02*
X13131821Y6000740D01*
Y6043059D01*
X13152980Y6064219D01*
X13174139D01*
X13195299Y6043059D01*
Y6021900D01*
Y6043059D01*
X13216460Y6064219D01*
X13237619D01*
X13258778Y6043059D01*
Y6000740D01*
X13237619Y5979580D01*
X13131821Y6106539D02*
X13216460D01*
X13258778Y6148858D01*
X13216460Y6191178D01*
X13131821D01*
X13673680Y5833561D02*
X13652521Y5812401D01*
Y5770081D01*
X13673680Y5748921D01*
X13758319D01*
X13779478Y5770081D01*
Y5812401D01*
X13758319Y5833561D01*
X13715999D01*
Y5791241D01*
X13779478Y5875880D02*
X13652521D01*
X13779478Y5960520D01*
X13652521D01*
Y6002839D02*
X13779478D01*
Y6066319D01*
X13758319Y6087479D01*
X13673680D01*
X13652521Y6066319D01*
Y6002839D01*
X14511963Y3225779D02*
X14469643D01*
X14448483Y3204620D01*
Y3119980D01*
X14469643Y3098821D01*
X14511963D01*
X14533122Y3119980D01*
Y3204620D01*
X14511963Y3225779D01*
X14575443D02*
Y3119980D01*
X14596602Y3098821D01*
X14638921D01*
X14660081Y3119980D01*
Y3225779D01*
X14702402D02*
X14787041D01*
X14744720D01*
Y3098821D01*
X14829359D02*
Y3225779D01*
X14892839D01*
X14913998Y3204620D01*
Y3162300D01*
X14892839Y3141140D01*
X14829359D01*
X14956319Y3225779D02*
Y3119980D01*
X14977478Y3098821D01*
X15019798D01*
X15040958Y3119980D01*
Y3225779D01*
X15083276D02*
X15167917D01*
X15125597D01*
Y3098821D01*
X14509842Y5918179D02*
X14552162D01*
X14531001D01*
Y5791221D01*
X14509842D01*
X14552162D01*
X14615642D02*
Y5918179D01*
X14700281Y5791221D01*
Y5918179D01*
X14742599Y5791221D02*
Y5918179D01*
X14806081D01*
X14827240Y5897020D01*
Y5854700D01*
X14806081Y5833540D01*
X14742599D01*
X14869559Y5918179D02*
Y5812380D01*
X14890720Y5791221D01*
X14933038D01*
X14954199Y5812380D01*
Y5918179D01*
X14996518D02*
X15081158D01*
X15038838D01*
Y5791221D01*
D23*
X14249400Y3898883D02*
X14224008Y3924275D01*
X14173225D01*
X14147833Y3898883D01*
Y3797317D01*
X14173225Y3771925D01*
X14224008D01*
X14249400Y3797317D01*
X14300185Y3771925D02*
X14350967D01*
X14325575D01*
Y3924275D01*
X14300185Y3898883D01*
X14122433Y4876775D02*
Y4749817D01*
X14147826Y4724425D01*
X14198608D01*
X14224001Y4749817D01*
Y4876775D01*
X14274783Y4724425D02*
X14325568D01*
X14300175D01*
Y4876775D01*
X14274783Y4851383D01*
X13462025Y4013159D02*
X13614375D01*
Y3936983D01*
X13588983Y3911592D01*
X13538200D01*
X13512808Y3936983D01*
Y4013159D01*
Y3962375D02*
X13462025Y3911592D01*
X13588983Y3860808D02*
X13614375Y3835416D01*
Y3784633D01*
X13588983Y3759241D01*
X13563593D01*
X13538200Y3784633D01*
Y3810025D01*
Y3784633D01*
X13512808Y3759241D01*
X13487418D01*
X13462025Y3784633D01*
Y3835416D01*
X13487418Y3860808D01*
X13474725Y4444959D02*
X13627075D01*
Y4368783D01*
X13601683Y4343392D01*
X13550900D01*
X13525508Y4368783D01*
Y4444959D01*
Y4394175D02*
X13474725Y4343392D01*
Y4191041D02*
Y4292608D01*
X13576292Y4191041D01*
X13601683D01*
X13627075Y4216433D01*
Y4267216D01*
X13601683Y4292608D01*
X13474725Y4851367D02*
X13627075D01*
Y4775192D01*
X13601683Y4749800D01*
X13550900D01*
X13525508Y4775192D01*
Y4851367D01*
Y4800583D02*
X13474725Y4749800D01*
Y4699016D02*
Y4648233D01*
Y4673624D01*
X13627075D01*
X13601683Y4699016D01*
X13970033Y5524525D02*
Y5626092D01*
X14020818Y5676875D01*
X14071600Y5626092D01*
Y5524525D01*
Y5600700D01*
X13970033D01*
X14122385Y5524525D02*
X14173167D01*
X14147775D01*
Y5676875D01*
X14122385Y5651483D01*
X13944641Y5207025D02*
Y5308592D01*
X13995425Y5359375D01*
X14046208Y5308592D01*
Y5207025D01*
Y5283200D01*
X13944641D01*
X14096992Y5333983D02*
X14122385Y5359375D01*
X14173167D01*
X14198560Y5333983D01*
Y5232417D01*
X14173167Y5207025D01*
X14122385D01*
X14096992Y5232417D01*
Y5333983D01*
X12979433Y4902225D02*
Y5054575D01*
X13055608D01*
X13081000Y5029183D01*
Y4978400D01*
X13055608Y4953008D01*
X12979433D01*
X13131784Y4902225D02*
X13182567D01*
X13157176D01*
Y5054575D01*
X13131784Y5029183D01*
%TF.MD5,5deb035b49b0cc3084ac8d1cd7a42e48*%
M02*
