%TF.GenerationSoftware,Altium Limited,Altium Designer,24.10.1 (45)*%
G04 Layer_Color=8421504*
%FSLAX45Y45*%
%MOMM*%
%TF.SameCoordinates,2D35ECAA-621C-4C07-A100-3777A67AA797*%
%TF.FilePolarity,Positive*%
%TF.FileFunction,Paste,Top*%
%TF.Part,Single*%
G01*
G75*
%TA.AperFunction,SMDPad,CuDef*%
%ADD10R,1.35000X1.10000*%
%ADD11R,1.00000X0.66000*%
%ADD12R,0.95000X0.95000*%
%ADD13R,0.85000X0.95000*%
%ADD14R,1.10000X1.20000*%
%ADD15R,1.15000X1.45000*%
D10*
X2960000Y4140000D02*
D03*
Y4000000D02*
D03*
X2700000Y4990000D02*
D03*
Y4850000D02*
D03*
D11*
X3420000Y4165000D02*
D03*
Y3975000D02*
D03*
X3160000D02*
D03*
Y4070000D02*
D03*
Y4165000D02*
D03*
D12*
X3265000Y4340000D02*
D03*
X3415000D02*
D03*
D13*
X3115000D02*
D03*
X2985000D02*
D03*
D14*
X3485000Y5010000D02*
D03*
X3275000D02*
D03*
X3485000Y4800000D02*
D03*
X3275000D02*
D03*
X3485000Y4580000D02*
D03*
X3275000D02*
D03*
D15*
X2922500Y5010000D02*
D03*
X3097500D02*
D03*
X2922500Y4800000D02*
D03*
X3097500D02*
D03*
X2922500Y4580000D02*
D03*
X3097500D02*
D03*
%TF.MD5,2d83bc98668f7d360be2c41a1eae3a54*%
M02*
