%TF.GenerationSoftware,Altium Limited,Altium Designer,24.10.1 (45)*%
G04 Layer_Color=8388736*
%FSLAX45Y45*%
%MOMM*%
%TF.SameCoordinates,0294F9B1-DA14-4278-B2A5-1D656DBEE686*%
%TF.FilePolarity,Negative*%
%TF.FileFunction,Soldermask,Top*%
%TF.Part,Single*%
G01*
G75*
%TA.AperFunction,SMDPad,CuDef*%
%ADD13R,1.10000X1.20000*%
%TA.AperFunction,ComponentPad*%
%ADD17C,3.00000*%
%ADD18C,1.57000*%
%ADD19R,1.57000X1.57000*%
%TA.AperFunction,SMDPad,CuDef*%
%ADD30R,1.15000X1.15000*%
%ADD31R,1.05000X1.15000*%
%ADD32R,1.55000X1.30000*%
%ADD33R,1.35000X1.65000*%
D13*
X3485000Y5010000D02*
D03*
X3275000D02*
D03*
X3485000Y4800000D02*
D03*
X3275000D02*
D03*
X3485000Y4580000D02*
D03*
X3275000D02*
D03*
D17*
X3230000Y3032500D02*
D03*
D18*
X2930000Y3764500D02*
D03*
X3230000D02*
D03*
X3530000D02*
D03*
X2930000Y3464500D02*
D03*
X3230000D02*
D03*
D19*
X3530000D02*
D03*
D30*
X3305000Y4220000D02*
D03*
X3455000D02*
D03*
D31*
X3155000D02*
D03*
X3025000D02*
D03*
D32*
X2700000Y4990000D02*
D03*
Y4850000D02*
D03*
D33*
X2922500Y5010000D02*
D03*
X3097500D02*
D03*
X2922500Y4800000D02*
D03*
X3097500D02*
D03*
X2922500Y4580000D02*
D03*
X3097500D02*
D03*
%TF.MD5,18474d8b5521ebb44a4f4db85c258c73*%
M02*
