%TF.GenerationSoftware,Altium Limited,Altium Designer,24.10.1 (45)*%
G04 Layer_Color=32896*
%FSLAX45Y45*%
%MOMM*%
%TF.SameCoordinates,2D35ECAA-621C-4C07-A100-3777A67AA797*%
%TF.FilePolarity,Positive*%
%TF.FileFunction,Legend,Bot*%
%TF.Part,Single*%
G01*
G75*
%TA.AperFunction,NonConductor*%
%ADD26C,0.20000*%
%ADD27C,0.25400*%
%ADD28C,0.15240*%
%ADD29C,0.18000*%
%ADD30C,0.07620*%
G36*
X3019180Y4794050D02*
X2993780D01*
Y4755950D01*
X3019180D01*
Y4794050D01*
D02*
G37*
D26*
X3643196Y2626521D02*
Y2753479D01*
X3600876Y2711160D01*
X3558557Y2753479D01*
Y2626521D01*
X3431598Y2732320D02*
X3452758Y2753479D01*
X3495078D01*
X3516237Y2732320D01*
Y2647680D01*
X3495078Y2626521D01*
X3452758D01*
X3431598Y2647680D01*
Y2690000D01*
X3473918D01*
X3177680Y2626521D02*
X3262320D01*
X3177680Y2711160D01*
Y2732320D01*
X3198840Y2753479D01*
X3241160D01*
X3262320Y2732320D01*
X3135361D02*
X3114201Y2753479D01*
X3071881D01*
X3050721Y2732320D01*
Y2647680D01*
X3071881Y2626521D01*
X3114201D01*
X3135361Y2647680D01*
Y2732320D01*
X2923763Y2626521D02*
X3008402D01*
X2923763Y2711160D01*
Y2732320D01*
X2944922Y2753479D01*
X2987242D01*
X3008402Y2732320D01*
X2817964Y2626521D02*
Y2753479D01*
X2881443Y2690000D01*
X2796804D01*
D27*
X3301567Y4526175D02*
Y4399216D01*
X3276175Y4373825D01*
X3225392D01*
X3200000Y4399216D01*
Y4526175D01*
X3149216Y4373825D02*
X3098433D01*
X3123824D01*
Y4526175D01*
X3149216Y4500783D01*
D28*
X3350974Y4632360D02*
X3397640D01*
X3062360D02*
Y4679026D01*
Y4967640D02*
X3109026D01*
X3397640Y4920974D02*
Y4967640D01*
Y4632360D02*
Y4679026D01*
X3062360Y4632360D02*
X3109026D01*
X3062360Y4920974D02*
Y4967640D01*
X3350974D02*
X3397640D01*
D29*
X3721508Y5169984D02*
X3788153D01*
Y5070016D01*
X3721508D01*
X3788153Y5120000D02*
X3754831D01*
X3688185Y5070016D02*
Y5136661D01*
X3638202D01*
X3621540Y5120000D01*
Y5070016D01*
X3521573Y5136661D02*
X3571556D01*
X3588218Y5120000D01*
Y5086677D01*
X3571556Y5070016D01*
X3521573D01*
X3471588D02*
X3438266D01*
X3421605Y5086677D01*
Y5120000D01*
X3438266Y5136661D01*
X3471588D01*
X3488250Y5120000D01*
Y5086677D01*
X3471588Y5070016D01*
X3321637Y5169984D02*
Y5070016D01*
X3371621D01*
X3388282Y5086677D01*
Y5120000D01*
X3371621Y5136661D01*
X3321637D01*
X3238330Y5070016D02*
X3271653D01*
X3288314Y5086677D01*
Y5120000D01*
X3271653Y5136661D01*
X3238330D01*
X3221669Y5120000D01*
Y5103339D01*
X3288314D01*
X3188346Y5136661D02*
Y5070016D01*
Y5103339D01*
X3171685Y5120000D01*
X3155024Y5136661D01*
X3138363D01*
X2988411D02*
X2955088Y5070016D01*
X2921766Y5136661D01*
X2821798Y5070016D02*
X2888443D01*
X2821798Y5136661D01*
Y5153322D01*
X2838459Y5169984D01*
X2871782D01*
X2888443Y5153322D01*
X2788475Y5070016D02*
Y5086677D01*
X2771814D01*
Y5070016D01*
X2788475D01*
X2705169D02*
X2671846D01*
X2688507D01*
Y5169984D01*
X2705169Y5153322D01*
D30*
X3510670Y4917299D02*
X3426030Y4832660D01*
X3510670D02*
X3426030Y4917299D01*
X3510670Y4874980D02*
X3426030D01*
X3468350Y4832660D02*
Y4917299D01*
%TF.MD5,2944891714b9455c722eaef1f6e07c2c*%
M02*
