%TF.GenerationSoftware,Altium Limited,Altium Designer,24.10.1 (45)*%
G04 Layer_Color=0*
%FSLAX45Y45*%
%MOMM*%
%TF.SameCoordinates,2D35ECAA-621C-4C07-A100-3777A67AA797*%
%TF.FilePolarity,Positive*%
%TF.FileFunction,Profile,NP*%
%TF.Part,Single*%
G01*
G75*
%TA.AperFunction,Profile*%
%ADD35C,0.02540*%
G36*
X2539999Y4110000D02*
X2524241Y4110000D01*
X2493329Y4116148D01*
X2464211Y4128209D01*
X2438005Y4145719D01*
X2415719Y4168005D01*
X2398209Y4194211D01*
X2386148Y4223329D01*
X2380000Y4254241D01*
X2380000Y4269999D01*
Y4270000D01*
Y4285758D01*
X2386149Y4316670D01*
X2398210Y4345788D01*
X2415720Y4371993D01*
X2438006Y4394279D01*
X2464211Y4411788D01*
X2493329Y4423849D01*
X2524241Y4429998D01*
X2539999Y4429997D01*
X2555758Y4429998D01*
X2586669Y4423850D01*
X2615788Y4411789D01*
X2641994Y4394280D01*
X2664280Y4371994D01*
X2681790Y4345788D01*
X2693851Y4316670D01*
X2700000Y4285759D01*
X2699999Y4270000D01*
X2700000Y4254241D01*
X2693852Y4223329D01*
X2681791Y4194211D01*
X2664280Y4168005D01*
X2641994Y4145719D01*
X2615788Y4128209D01*
X2586670Y4116148D01*
X2555758Y4110000D01*
X2539999Y4110000D01*
X2539999D01*
D02*
G37*
G36*
X3919999Y4110000D02*
X3904240Y4110000D01*
X3873329Y4116149D01*
X3844210Y4128210D01*
X3818005Y4145720D01*
X3795719Y4168006D01*
X3778209Y4194211D01*
X3766148Y4223329D01*
X3760000Y4254241D01*
X3760000Y4269999D01*
Y4270000D01*
X3760000Y4285758D01*
X3766149Y4316670D01*
X3778210Y4345788D01*
X3795720Y4371993D01*
X3818006Y4394279D01*
X3844211Y4411789D01*
X3873329Y4423850D01*
X3904241Y4429998D01*
X3919999Y4429998D01*
X3935758Y4429999D01*
X3966670Y4423850D01*
X3995788Y4411790D01*
X4021994Y4394280D01*
X4044280Y4371994D01*
X4061790Y4345788D01*
X4073851Y4316670D01*
X4080000Y4285759D01*
X4079999Y4270000D01*
X4080000Y4254241D01*
X4073851Y4223329D01*
X4061790Y4194211D01*
X4044280Y4168005D01*
X4021994Y4145719D01*
X3995788Y4128209D01*
X3966669Y4116148D01*
X3935757Y4110000D01*
X3919999Y4110000D01*
D01*
D02*
G37*
D35*
X2540000Y2540000D02*
Y5080000D01*
D02*
G02*
X2840000Y5380000I300000J0D01*
G01*
X3620000D01*
D02*
G02*
X3920000Y5080000I0J-300000D01*
G01*
Y2540000D01*
X2540000D01*
%TF.MD5,a02e4430cb7702f0159131292a0ceee1*%
M02*
