%TF.GenerationSoftware,Altium Limited,Altium Designer,24.10.1 (45)*%
G04 Layer_Physical_Order=2*
G04 Layer_Color=16711680*
%FSLAX45Y45*%
%MOMM*%
%TF.SameCoordinates,0294F9B1-DA14-4278-B2A5-1D656DBEE686*%
%TF.FilePolarity,Positive*%
%TF.FileFunction,Copper,L2,Bot,Signal*%
%TF.Part,Single*%
G01*
G75*
%TA.AperFunction,Conductor*%
%ADD15C,0.25000*%
%ADD16C,0.18000*%
%TA.AperFunction,ComponentPad*%
%ADD17C,3.00000*%
%ADD18C,1.57000*%
%ADD19R,1.57000X1.57000*%
%TA.AperFunction,ViaPad*%
%ADD20C,0.50000*%
%TA.AperFunction,SMDPad,CuDef*%
%ADD21R,0.81280X0.25400*%
%ADD22R,0.25400X0.81280*%
%ADD23R,1.70180X1.70180*%
G36*
X3639621Y5379358D02*
X3678527Y5374235D01*
X3716432Y5364079D01*
X3752687Y5349062D01*
X3786671Y5329441D01*
X3817804Y5305552D01*
X3845552Y5277804D01*
X3869441Y5246671D01*
X3889062Y5212687D01*
X3904079Y5176432D01*
X3914236Y5138527D01*
X3919358Y5099621D01*
X3920000Y5080000D01*
Y4570024D01*
X3903308D01*
X3864319Y4564891D01*
X3826332Y4554713D01*
X3790000Y4539663D01*
X3755942Y4520000D01*
X3724743Y4496060D01*
X3696935Y4468252D01*
X3672995Y4437053D01*
X3653332Y4402995D01*
X3638283Y4366663D01*
X3628104Y4328677D01*
X3622971Y4289687D01*
Y4250361D01*
X3628104Y4211372D01*
X3638283Y4173385D01*
X3653332Y4137053D01*
X3672995Y4102995D01*
X3696935Y4071796D01*
X3724743Y4043988D01*
X3755942Y4020048D01*
X3790000Y4000385D01*
X3826332Y3985336D01*
X3864319Y3975157D01*
X3903308Y3970024D01*
X3920000D01*
Y2540000D01*
X2540000D01*
Y3970000D01*
X2559663D01*
X2598652Y3975133D01*
X2636639Y3985312D01*
X2672971Y4000361D01*
X2707029Y4020024D01*
X2738228Y4043964D01*
X2766036Y4071772D01*
X2789976Y4102971D01*
X2809639Y4137029D01*
X2824688Y4173361D01*
X2834867Y4211347D01*
X2840000Y4250337D01*
Y4289663D01*
X2834867Y4328653D01*
X2824688Y4366639D01*
X2809639Y4402971D01*
X2789976Y4437029D01*
X2766036Y4468228D01*
X2738228Y4496036D01*
X2707029Y4519976D01*
X2672971Y4539639D01*
X2636639Y4554688D01*
X2598652Y4564867D01*
X2559663Y4570000D01*
X2540000D01*
Y5080000D01*
X2540642Y5099621D01*
X2545764Y5138527D01*
X2555921Y5176432D01*
X2570938Y5212687D01*
X2590559Y5246671D01*
X2614448Y5277804D01*
X2642196Y5305552D01*
X2673329Y5329441D01*
X2707313Y5349062D01*
X2743568Y5364079D01*
X2781473Y5374235D01*
X2820379Y5379358D01*
X2840000Y5380000D01*
X3620000D01*
X3639621Y5379358D01*
D02*
G37*
%LPC*%
G36*
X3148951Y5215000D02*
X3131049D01*
X3114510Y5208149D01*
X3101851Y5195490D01*
X3095000Y5178951D01*
Y5161049D01*
X3101851Y5144510D01*
X3114510Y5131851D01*
X3129306Y5125722D01*
Y4944780D01*
X3129600Y4943304D01*
Y4900400D01*
X3031880D01*
Y4847125D01*
X2892501D01*
X2875632Y4863994D01*
Y4873303D01*
X2873948Y4881770D01*
X2869152Y4888948D01*
X2860682Y4897417D01*
X2862554Y4901938D01*
Y4919840D01*
X2855703Y4936379D01*
X2843045Y4949038D01*
X2826505Y4955889D01*
X2808603D01*
X2792064Y4949038D01*
X2779405Y4936379D01*
X2772555Y4919840D01*
Y4901938D01*
X2779405Y4885398D01*
X2792064Y4872740D01*
X2808603Y4865889D01*
X2826505D01*
X2830941Y4855828D01*
X2831504Y4854213D01*
X2833066Y4846363D01*
X2837862Y4839185D01*
X2867691Y4809355D01*
X2874870Y4804559D01*
X2883336Y4802875D01*
X3031880D01*
Y4785000D01*
X3085220D01*
Y4765000D01*
X3031880D01*
Y4699600D01*
X3129600D01*
Y4665220D01*
X3155000D01*
Y4655220D01*
X3165000D01*
Y4601880D01*
X3232875D01*
Y4320160D01*
X2914355Y4001641D01*
X2909559Y3994463D01*
X2907875Y3985996D01*
Y3860546D01*
X2891981Y3856287D01*
X2869520Y3843319D01*
X2851180Y3824980D01*
X2838213Y3802519D01*
X2831500Y3777468D01*
Y3751532D01*
X2838213Y3726480D01*
X2851180Y3704020D01*
X2869520Y3685680D01*
X2891981Y3672713D01*
X2917032Y3666000D01*
X2942968D01*
X2968019Y3672713D01*
X2990480Y3685680D01*
X3008819Y3704020D01*
X3021787Y3726480D01*
X3028500Y3751532D01*
Y3777468D01*
X3021787Y3802519D01*
X3008819Y3824980D01*
X2990480Y3843319D01*
X2968019Y3856287D01*
X2952125Y3860546D01*
Y3976831D01*
X3270645Y4295351D01*
X3275441Y4302529D01*
X3277125Y4310996D01*
Y4601880D01*
X3330400D01*
Y4699600D01*
X3428120D01*
X3437875Y4692490D01*
Y4229165D01*
X3094355Y3885645D01*
X3089559Y3878467D01*
X3087875Y3870000D01*
Y3653665D01*
X2982270Y3548060D01*
X2968019Y3556287D01*
X2942968Y3563000D01*
X2917032D01*
X2891981Y3556287D01*
X2869520Y3543320D01*
X2851180Y3524981D01*
X2838213Y3502520D01*
X2831500Y3477468D01*
Y3451532D01*
X2838213Y3426481D01*
X2851180Y3404020D01*
X2869520Y3385681D01*
X2891981Y3372713D01*
X2917032Y3366000D01*
X2942968D01*
X2968019Y3372713D01*
X2990480Y3385681D01*
X3008819Y3404020D01*
X3021787Y3426481D01*
X3028500Y3451532D01*
Y3477468D01*
X3021787Y3502520D01*
X3013560Y3516770D01*
X3125645Y3628855D01*
X3130441Y3636033D01*
X3132125Y3644500D01*
Y3711624D01*
X3144825Y3715027D01*
X3151180Y3704020D01*
X3169519Y3685680D01*
X3191980Y3672713D01*
X3217032Y3666000D01*
X3242968D01*
X3268019Y3672713D01*
X3290480Y3685680D01*
X3308819Y3704020D01*
X3321787Y3726480D01*
X3328500Y3751532D01*
Y3777468D01*
X3321787Y3802519D01*
X3313560Y3816770D01*
X3525645Y4028855D01*
X3530441Y4036033D01*
X3532125Y4044500D01*
Y4107329D01*
X3544825Y4111535D01*
X3554306Y4102054D01*
Y3870393D01*
X3544231Y3862662D01*
X3542968Y3863000D01*
X3517032D01*
X3491980Y3856287D01*
X3469519Y3843319D01*
X3451180Y3824980D01*
X3438213Y3802519D01*
X3431500Y3777468D01*
Y3751532D01*
X3438213Y3726480D01*
X3451180Y3704020D01*
X3469519Y3685680D01*
X3491980Y3672713D01*
X3517032Y3666000D01*
X3542968D01*
X3568019Y3672713D01*
X3590480Y3685680D01*
X3608819Y3704020D01*
X3621787Y3726480D01*
X3628500Y3751532D01*
Y3777468D01*
X3621787Y3802519D01*
X3608819Y3824980D01*
X3601635Y3832165D01*
X3603738Y3835312D01*
X3605694Y3845145D01*
Y4102054D01*
X3618149Y4114510D01*
X3625000Y4131049D01*
Y4148951D01*
X3618149Y4165491D01*
X3605694Y4177946D01*
Y4873291D01*
X3627402Y4895000D01*
X3638951D01*
X3655491Y4901851D01*
X3668149Y4914510D01*
X3675000Y4931049D01*
Y4948951D01*
X3668149Y4965490D01*
X3655491Y4978149D01*
X3638951Y4985000D01*
X3621049D01*
X3604510Y4978149D01*
X3591851Y4965490D01*
X3585000Y4948951D01*
Y4931049D01*
X3586693Y4926963D01*
X3561832Y4902102D01*
X3556262Y4893767D01*
X3554306Y4883934D01*
Y4177946D01*
X3544825Y4168465D01*
X3532125Y4172671D01*
Y4770000D01*
X3530441Y4778467D01*
X3525645Y4785645D01*
X3474345Y4836945D01*
X3467167Y4841741D01*
X3458700Y4843425D01*
X3428120D01*
Y4900400D01*
X3330400D01*
Y4998120D01*
X3327125D01*
Y5103486D01*
X3338149Y5114509D01*
X3345000Y5131049D01*
Y5148951D01*
X3338149Y5165490D01*
X3325490Y5178149D01*
X3308951Y5185000D01*
X3291049D01*
X3274510Y5178149D01*
X3261851Y5165490D01*
X3255000Y5148951D01*
Y5131049D01*
X3261851Y5114509D01*
X3274510Y5101851D01*
X3282875Y5098386D01*
Y4998120D01*
X3180693D01*
Y5146341D01*
X3180114Y5149254D01*
X3185000Y5161049D01*
Y5178951D01*
X3178149Y5195490D01*
X3165490Y5208149D01*
X3148951Y5215000D01*
D02*
G37*
G36*
X3145000Y4645220D02*
X3129600D01*
Y4601880D01*
X3145000D01*
Y4645220D01*
D02*
G37*
G36*
X3242968Y3563000D02*
X3217032D01*
X3191980Y3556287D01*
X3169519Y3543320D01*
X3151180Y3524981D01*
X3138213Y3502520D01*
X3131500Y3477468D01*
Y3451532D01*
X3138213Y3426481D01*
X3151180Y3404020D01*
X3169519Y3385681D01*
X3191980Y3372713D01*
X3217032Y3366000D01*
X3242968D01*
X3268019Y3372713D01*
X3290480Y3385681D01*
X3308819Y3404020D01*
X3321787Y3426481D01*
X3328500Y3451532D01*
Y3477468D01*
X3321787Y3502520D01*
X3308819Y3524981D01*
X3290480Y3543320D01*
X3268019Y3556287D01*
X3242968Y3563000D01*
D02*
G37*
G36*
X3244774Y3182500D02*
X3215226D01*
X3186247Y3176735D01*
X3158948Y3165428D01*
X3134381Y3149012D01*
X3113487Y3128119D01*
X3097072Y3103552D01*
X3085764Y3076253D01*
X3080000Y3047274D01*
Y3017726D01*
X3085764Y2988747D01*
X3097072Y2961448D01*
X3113487Y2936881D01*
X3134381Y2915987D01*
X3158948Y2899572D01*
X3186247Y2888264D01*
X3215226Y2882500D01*
X3244774D01*
X3273753Y2888264D01*
X3301052Y2899572D01*
X3325619Y2915987D01*
X3346512Y2936881D01*
X3362928Y2961448D01*
X3374235Y2988747D01*
X3380000Y3017726D01*
Y3047274D01*
X3374235Y3076253D01*
X3362928Y3103552D01*
X3346512Y3128119D01*
X3325619Y3149012D01*
X3301052Y3165428D01*
X3273753Y3176735D01*
X3244774Y3182500D01*
D02*
G37*
%LPD*%
G36*
X3477189Y4203780D02*
X3487875Y4199799D01*
Y4053665D01*
X3282270Y3848060D01*
X3268019Y3856287D01*
X3242968Y3863000D01*
X3217032D01*
X3191980Y3856287D01*
X3169519Y3843319D01*
X3151180Y3824980D01*
X3144825Y3813973D01*
X3132125Y3817376D01*
Y3860835D01*
X3475175Y4203885D01*
X3477189Y4203780D01*
D02*
G37*
D15*
X3580000Y3845145D02*
Y4883934D01*
X3530000Y3795145D02*
X3580000Y3845145D01*
X3530000Y3764500D02*
Y3795145D01*
X3630000Y4933934D02*
Y4940000D01*
X3580000Y4883934D02*
X3630000Y4933934D01*
X3140000Y5161341D02*
X3155000Y5146341D01*
X3140000Y5161341D02*
Y5170000D01*
X3155000Y4944780D02*
Y5146341D01*
D16*
X3510000Y4044500D02*
Y4770000D01*
X3110000Y3870000D02*
X3460000Y4220000D01*
Y4734132D01*
X3422832Y4771300D02*
X3460000Y4734132D01*
X3230000Y3764500D02*
X3510000Y4044500D01*
X3110000Y3644500D02*
Y3870000D01*
X2930000Y3464500D02*
X3110000Y3644500D01*
X3378480Y4771300D02*
X3422832D01*
X3374780Y4775000D02*
X3378480Y4771300D01*
X3458700Y4821300D02*
X3510000Y4770000D01*
X3378480Y4821300D02*
X3458700D01*
X3255000Y4310996D02*
Y4655220D01*
X2930000Y3985996D02*
X3255000Y4310996D01*
X3374780Y4825000D02*
X3378480Y4821300D01*
X2930000Y3764500D02*
Y3985996D01*
X3305000Y4944780D02*
Y5135000D01*
X3300000Y5140000D02*
X3305000Y5135000D01*
X2853507Y4854830D02*
X2883336Y4825000D01*
X2853507Y4854830D02*
Y4873303D01*
X2817554Y4909255D02*
X2853507Y4873303D01*
X2817554Y4909255D02*
Y4910889D01*
X2883336Y4825000D02*
X3085220D01*
X2716123Y4756123D02*
X2956122D01*
X2710000Y4750000D02*
X2716123Y4756123D01*
X2975000Y4775000D02*
X3085220D01*
X2956122Y4756123D02*
X2975000Y4775000D01*
X3085220D02*
X3205000D01*
X3155000Y4725000D02*
X3205000Y4775000D01*
X3230000Y4800000D01*
X3155000Y4655220D02*
Y4725000D01*
D17*
X3230000Y3032500D02*
D03*
D18*
X2930000Y3764500D02*
D03*
X3230000D02*
D03*
X3530000D02*
D03*
X2930000Y3464500D02*
D03*
X3230000D02*
D03*
D19*
X3530000D02*
D03*
D20*
X3580000Y4140000D02*
D03*
X2930000Y4220000D02*
D03*
X3630000Y4940000D02*
D03*
X3642900Y4690000D02*
D03*
X3660000Y3940000D02*
D03*
X3300000Y5140000D02*
D03*
X3140000Y5170000D02*
D03*
X2850000Y5250000D02*
D03*
X2930000Y4070000D02*
D03*
X3690000Y5200000D02*
D03*
X2817554Y4910889D02*
D03*
X2710000Y4750000D02*
D03*
D21*
X3374780Y4875000D02*
D03*
Y4825000D02*
D03*
Y4775000D02*
D03*
Y4725000D02*
D03*
X3085220D02*
D03*
Y4775000D02*
D03*
Y4825000D02*
D03*
Y4875000D02*
D03*
D22*
X3305000Y4655220D02*
D03*
X3255000D02*
D03*
X3205000D02*
D03*
X3155000D02*
D03*
Y4944780D02*
D03*
X3205000D02*
D03*
X3255000D02*
D03*
X3305000D02*
D03*
D23*
X3230000Y4800000D02*
D03*
%TF.MD5,cd0b16e7084abaa45bd8a2285da6adda*%
M02*
