%TF.GenerationSoftware,Altium Limited,Altium Designer,24.10.1 (45)*%
G04 Layer_Physical_Order=2*
G04 Layer_Color=16711680*
%FSLAX45Y45*%
%MOMM*%
%TF.SameCoordinates,2D35ECAA-621C-4C07-A100-3777A67AA797*%
%TF.FilePolarity,Positive*%
%TF.FileFunction,Copper,L2,Bot,Signal*%
%TF.Part,Single*%
G01*
G75*
%TA.AperFunction,Conductor*%
%ADD16C,0.25000*%
%ADD17C,0.18000*%
%TA.AperFunction,ComponentPad*%
%ADD18C,3.00000*%
%ADD19C,1.57000*%
%ADD20R,1.57000X1.57000*%
%TA.AperFunction,ViaPad*%
%ADD21C,0.50000*%
%TA.AperFunction,SMDPad,CuDef*%
%ADD22R,0.81280X0.25400*%
%ADD23R,0.25400X0.81280*%
%ADD24R,1.70180X1.70180*%
G36*
X3639621Y5379358D02*
X3678527Y5374235D01*
X3716432Y5364079D01*
X3752687Y5349062D01*
X3786671Y5329441D01*
X3817804Y5305552D01*
X3845552Y5277804D01*
X3869441Y5246671D01*
X3889062Y5212687D01*
X3904079Y5176432D01*
X3914236Y5138527D01*
X3919358Y5099621D01*
X3920000Y5080000D01*
Y4570024D01*
X3903308D01*
X3864319Y4564891D01*
X3826332Y4554713D01*
X3790000Y4539663D01*
X3755942Y4520000D01*
X3724743Y4496060D01*
X3696935Y4468252D01*
X3672995Y4437053D01*
X3653332Y4402995D01*
X3638283Y4366663D01*
X3628104Y4328677D01*
X3622971Y4289687D01*
Y4250361D01*
X3628104Y4211372D01*
X3638283Y4173385D01*
X3653332Y4137053D01*
X3672995Y4102995D01*
X3696935Y4071796D01*
X3724743Y4043988D01*
X3755942Y4020048D01*
X3790000Y4000385D01*
X3826332Y3985336D01*
X3864319Y3975157D01*
X3903308Y3970024D01*
X3920000D01*
Y2540000D01*
X2540000D01*
Y3970000D01*
X2559663D01*
X2598652Y3975133D01*
X2636639Y3985312D01*
X2672971Y4000361D01*
X2707029Y4020024D01*
X2738228Y4043964D01*
X2766036Y4071772D01*
X2789976Y4102971D01*
X2809639Y4137029D01*
X2824688Y4173361D01*
X2834867Y4211347D01*
X2840000Y4250337D01*
Y4289663D01*
X2834867Y4328653D01*
X2824688Y4366639D01*
X2809639Y4402971D01*
X2789976Y4437029D01*
X2766036Y4468228D01*
X2738228Y4496036D01*
X2707029Y4519976D01*
X2672971Y4539639D01*
X2636639Y4554688D01*
X2598652Y4564867D01*
X2559663Y4570000D01*
X2540000D01*
Y5080000D01*
X2540642Y5099621D01*
X2545764Y5138527D01*
X2555921Y5176432D01*
X2570938Y5212687D01*
X2590559Y5246671D01*
X2614448Y5277804D01*
X2642196Y5305552D01*
X2673329Y5329441D01*
X2707313Y5349062D01*
X2743568Y5364079D01*
X2781473Y5374235D01*
X2820379Y5379358D01*
X2840000Y5380000D01*
X3620000D01*
X3639621Y5379358D01*
D02*
G37*
%LPC*%
G36*
X3148951Y5215000D02*
X3131049D01*
X3114510Y5208149D01*
X3101851Y5195490D01*
X3095000Y5178951D01*
Y5161049D01*
X3101851Y5144510D01*
X3114510Y5131851D01*
X3129306Y5125722D01*
Y4944780D01*
X3129600Y4943304D01*
Y4900400D01*
X3031880D01*
Y4847125D01*
X2892501D01*
X2875632Y4863994D01*
Y4873303D01*
X2873948Y4881770D01*
X2869152Y4888948D01*
X2860682Y4897417D01*
X2862554Y4901938D01*
Y4919840D01*
X2855703Y4936379D01*
X2843045Y4949038D01*
X2826505Y4955889D01*
X2808603D01*
X2792064Y4949038D01*
X2779405Y4936379D01*
X2772555Y4919840D01*
Y4901938D01*
X2779405Y4885398D01*
X2792064Y4872740D01*
X2808603Y4865889D01*
X2826505D01*
X2830941Y4855828D01*
X2831504Y4854213D01*
X2833066Y4846363D01*
X2837862Y4839185D01*
X2867691Y4809355D01*
X2874870Y4804559D01*
X2883336Y4802875D01*
X3031880D01*
Y4785000D01*
X3085220D01*
Y4765000D01*
X3031880D01*
Y4699600D01*
X3129600D01*
Y4665220D01*
X3155000D01*
Y4655220D01*
X3165000D01*
Y4601880D01*
X3232875D01*
Y4574164D01*
X2914355Y4255645D01*
X2909559Y4248467D01*
X2907875Y4240000D01*
Y3860546D01*
X2891981Y3856287D01*
X2869520Y3843319D01*
X2851180Y3824980D01*
X2838213Y3802519D01*
X2831500Y3777468D01*
Y3751532D01*
X2838213Y3726480D01*
X2851180Y3704020D01*
X2869520Y3685680D01*
X2891981Y3672713D01*
X2917032Y3666000D01*
X2942968D01*
X2968019Y3672713D01*
X2990480Y3685680D01*
X3008819Y3704020D01*
X3015175Y3715027D01*
X3027875Y3711624D01*
Y3672863D01*
X2940657Y3585645D01*
X2935861Y3578467D01*
X2934176Y3570000D01*
Y3563000D01*
X2917032D01*
X2891981Y3556287D01*
X2869520Y3543320D01*
X2851180Y3524981D01*
X2838213Y3502520D01*
X2831500Y3477468D01*
Y3451532D01*
X2838213Y3426481D01*
X2851180Y3404020D01*
X2869520Y3385681D01*
X2891981Y3372713D01*
X2917032Y3366000D01*
X2942968D01*
X2968019Y3372713D01*
X2990480Y3385681D01*
X3008819Y3404020D01*
X3021787Y3426481D01*
X3028500Y3451532D01*
Y3477468D01*
X3021787Y3502520D01*
X3008819Y3524981D01*
X2990480Y3543320D01*
X2980588Y3549031D01*
X2979556Y3561965D01*
X3065645Y3648054D01*
X3070441Y3655232D01*
X3072125Y3663699D01*
Y4180835D01*
X3424842Y4533552D01*
X3436575Y4528692D01*
Y4002365D01*
X3282270Y3848060D01*
X3268019Y3856287D01*
X3242968Y3863000D01*
X3231096D01*
X3225836Y3875700D01*
X3280645Y3930509D01*
X3285441Y3937687D01*
X3287125Y3946154D01*
Y4190457D01*
X3290490Y4191851D01*
X3303149Y4204509D01*
X3310000Y4221049D01*
Y4238951D01*
X3303149Y4255490D01*
X3290490Y4268149D01*
X3273951Y4275000D01*
X3256049D01*
X3239509Y4268149D01*
X3226851Y4255490D01*
X3220000Y4238951D01*
Y4221049D01*
X3226851Y4204509D01*
X3239509Y4191851D01*
X3242875Y4190457D01*
Y3955318D01*
X3110655Y3823099D01*
X3105859Y3815921D01*
X3104175Y3807454D01*
Y3568200D01*
X3105859Y3559733D01*
X3110655Y3552555D01*
X3146440Y3516770D01*
X3138213Y3502520D01*
X3131500Y3477468D01*
Y3451532D01*
X3138213Y3426481D01*
X3151180Y3404020D01*
X3169519Y3385681D01*
X3191980Y3372713D01*
X3217032Y3366000D01*
X3242968D01*
X3268019Y3372713D01*
X3290480Y3385681D01*
X3308819Y3404020D01*
X3321787Y3426481D01*
X3328500Y3451532D01*
Y3477468D01*
X3321787Y3502520D01*
X3308819Y3524981D01*
X3290480Y3543320D01*
X3268019Y3556287D01*
X3242968Y3563000D01*
X3217032D01*
X3191980Y3556287D01*
X3177730Y3548060D01*
X3148425Y3577365D01*
Y3688814D01*
X3161125Y3694075D01*
X3169519Y3685680D01*
X3191980Y3672713D01*
X3217032Y3666000D01*
X3242968D01*
X3268019Y3672713D01*
X3290480Y3685680D01*
X3308819Y3704020D01*
X3321787Y3726480D01*
X3328500Y3751532D01*
Y3777468D01*
X3321787Y3802519D01*
X3313560Y3816770D01*
X3474345Y3977555D01*
X3479141Y3984733D01*
X3480825Y3993200D01*
Y4119318D01*
X3493525Y4121845D01*
X3496851Y4113816D01*
X3509510Y4101157D01*
X3526049Y4094307D01*
X3543951D01*
X3560490Y4101157D01*
X3573149Y4113816D01*
X3580000Y4130355D01*
Y4148257D01*
X3573149Y4164797D01*
X3560694Y4177252D01*
Y4834357D01*
X3621336Y4895000D01*
X3638951D01*
X3655491Y4901851D01*
X3668149Y4914510D01*
X3675000Y4931049D01*
Y4948951D01*
X3668149Y4965490D01*
X3655491Y4978149D01*
X3638951Y4985000D01*
X3621049D01*
X3604510Y4978149D01*
X3591851Y4965490D01*
X3585000Y4948951D01*
Y4931336D01*
X3516832Y4863168D01*
X3511262Y4854833D01*
X3509306Y4845000D01*
Y4177252D01*
X3496851Y4164797D01*
X3493525Y4156768D01*
X3480825Y4159294D01*
Y4665806D01*
X3488065Y4673045D01*
X3492861Y4680223D01*
X3494545Y4688690D01*
Y4797036D01*
X3492861Y4805503D01*
X3488065Y4812681D01*
X3463801Y4836945D01*
X3456623Y4841741D01*
X3448156Y4843425D01*
X3428120D01*
Y4900400D01*
X3330400D01*
Y4998120D01*
X3327125D01*
Y5103486D01*
X3338149Y5114509D01*
X3345000Y5131049D01*
Y5148951D01*
X3338149Y5165490D01*
X3325490Y5178149D01*
X3308951Y5185000D01*
X3291049D01*
X3274510Y5178149D01*
X3261851Y5165490D01*
X3255000Y5148951D01*
Y5131049D01*
X3261851Y5114509D01*
X3274510Y5101851D01*
X3282875Y5098386D01*
Y4998120D01*
X3180693D01*
Y5146341D01*
X3180114Y5149254D01*
X3185000Y5161049D01*
Y5178951D01*
X3178149Y5195490D01*
X3165490Y5208149D01*
X3148951Y5215000D01*
D02*
G37*
G36*
X3145000Y4645220D02*
X3129600D01*
Y4601880D01*
X3145000D01*
Y4645220D01*
D02*
G37*
G36*
X3542968Y3863000D02*
X3517032D01*
X3491980Y3856287D01*
X3469519Y3843319D01*
X3451180Y3824980D01*
X3438213Y3802519D01*
X3431500Y3777468D01*
Y3751532D01*
X3438213Y3726480D01*
X3451180Y3704020D01*
X3469519Y3685680D01*
X3491980Y3672713D01*
X3517032Y3666000D01*
X3542968D01*
X3568019Y3672713D01*
X3590480Y3685680D01*
X3608819Y3704020D01*
X3621787Y3726480D01*
X3628500Y3751532D01*
Y3777468D01*
X3621787Y3802519D01*
X3608819Y3824980D01*
X3590480Y3843319D01*
X3568019Y3856287D01*
X3542968Y3863000D01*
D02*
G37*
G36*
X3244774Y3182500D02*
X3215226D01*
X3186247Y3176735D01*
X3158948Y3165428D01*
X3134381Y3149012D01*
X3113487Y3128119D01*
X3097072Y3103552D01*
X3085764Y3076253D01*
X3080000Y3047274D01*
Y3017726D01*
X3085764Y2988747D01*
X3097072Y2961448D01*
X3113487Y2936881D01*
X3134381Y2915987D01*
X3158948Y2899572D01*
X3186247Y2888264D01*
X3215226Y2882500D01*
X3244774D01*
X3273753Y2888264D01*
X3301052Y2899572D01*
X3325619Y2915987D01*
X3346512Y2936881D01*
X3362928Y2961448D01*
X3374235Y2988747D01*
X3380000Y3017726D01*
Y3047274D01*
X3374235Y3076253D01*
X3362928Y3103552D01*
X3346512Y3128119D01*
X3325619Y3149012D01*
X3301052Y3165428D01*
X3273753Y3176735D01*
X3244774Y3182500D01*
D02*
G37*
%LPD*%
G36*
X3408641Y4686900D02*
X3408575Y4686568D01*
Y4579865D01*
X3034355Y4205645D01*
X3029559Y4198467D01*
X3027875Y4190000D01*
Y3817376D01*
X3015175Y3813973D01*
X3008819Y3824980D01*
X2990480Y3843319D01*
X2968019Y3856287D01*
X2952125Y3860546D01*
Y4230835D01*
X3270645Y4549355D01*
X3275441Y4556533D01*
X3277125Y4565000D01*
Y4601880D01*
X3330400D01*
Y4699600D01*
X3399198D01*
X3408641Y4686900D01*
D02*
G37*
D16*
X3535000Y4139306D02*
Y4845000D01*
X3630000Y4940000D01*
X3155000Y4944780D02*
Y5146341D01*
D17*
X3448156Y4821300D02*
X3472420Y4797036D01*
X3458700Y4674970D02*
X3472420Y4688690D01*
X3050000Y4190000D02*
X3430700Y4570700D01*
Y4686568D02*
X3444420Y4700288D01*
X3230000Y3764500D02*
X3458700Y3993200D01*
X3430700Y4570700D02*
Y4686568D01*
X3422832Y4771300D02*
X3444420Y4749712D01*
X3378480Y4821300D02*
X3448156D01*
X3458700Y3993200D02*
Y4674970D01*
X3472420Y4688690D02*
Y4797036D01*
X3444420Y4700288D02*
Y4749712D01*
X3050000Y3663699D02*
Y4190000D01*
X2956301Y3570000D02*
X3050000Y3663699D01*
X2930000Y3464500D02*
X2956301Y3490802D01*
X3126300Y3568200D02*
X3230000Y3464500D01*
X3126300Y3568200D02*
Y3807454D01*
X2956301Y3490802D02*
Y3570000D01*
X3126300Y3807454D02*
X3265000Y3946154D01*
Y4230000D01*
X2930000Y3764500D02*
Y4240000D01*
X3255000Y4565000D02*
Y4655220D01*
X2930000Y4240000D02*
X3255000Y4565000D01*
X3378480Y4771300D02*
X3422832D01*
X3374780Y4775000D02*
X3378480Y4771300D01*
X3374780Y4825000D02*
X3378480Y4821300D01*
X3305000Y4944780D02*
Y5135000D01*
X3300000Y5140000D02*
X3305000Y5135000D01*
X2853507Y4854830D02*
X2883336Y4825000D01*
X2853507Y4854830D02*
Y4873303D01*
X2817554Y4909255D02*
X2853507Y4873303D01*
X2817554Y4909255D02*
Y4910889D01*
X2883336Y4825000D02*
X3085220D01*
X2716123Y4756123D02*
X2956122D01*
X2710000Y4750000D02*
X2716123Y4756123D01*
X2975000Y4775000D02*
X3085220D01*
X2956122Y4756123D02*
X2975000Y4775000D01*
X3085220D02*
X3205000D01*
X3155000Y4725000D02*
X3205000Y4775000D01*
X3230000Y4800000D01*
X3155000Y4655220D02*
Y4725000D01*
D18*
X3230000Y3032500D02*
D03*
D19*
X2930000Y3764500D02*
D03*
X3230000D02*
D03*
X3530000D02*
D03*
X2930000Y3464500D02*
D03*
X3230000D02*
D03*
D20*
X3530000D02*
D03*
D21*
X3535000Y4139306D02*
D03*
X3265000Y4230000D02*
D03*
X2890000Y4330000D02*
D03*
X3630000Y4940000D02*
D03*
X3642900Y4690000D02*
D03*
X3660000Y3940000D02*
D03*
X3300000Y5140000D02*
D03*
X3140000Y5170000D02*
D03*
X2850000Y5250000D02*
D03*
X2700000Y3940000D02*
D03*
X3690000Y5200000D02*
D03*
X2817554Y4910889D02*
D03*
X2710000Y4750000D02*
D03*
D22*
X3374780Y4875000D02*
D03*
Y4825000D02*
D03*
Y4775000D02*
D03*
Y4725000D02*
D03*
X3085220D02*
D03*
Y4775000D02*
D03*
Y4825000D02*
D03*
Y4875000D02*
D03*
D23*
X3305000Y4655220D02*
D03*
X3255000D02*
D03*
X3205000D02*
D03*
X3155000D02*
D03*
Y4944780D02*
D03*
X3205000D02*
D03*
X3255000D02*
D03*
X3305000D02*
D03*
D24*
X3230000Y4800000D02*
D03*
%TF.MD5,5485b1444ab2a64a2d40ef42d19fe124*%
M02*
