%TF.GenerationSoftware,Altium Limited,Altium Designer,24.10.1 (45)*%
G04 Layer_Color=65535*
%FSLAX45Y45*%
%MOMM*%
%TF.SameCoordinates,2D35ECAA-621C-4C07-A100-3777A67AA797*%
%TF.FilePolarity,Positive*%
%TF.FileFunction,Legend,Top*%
%TF.Part,Single*%
G01*
G75*
%TA.AperFunction,NonConductor*%
%ADD25C,0.25000*%
%ADD26C,0.20000*%
%ADD27C,0.25400*%
D25*
X3067500Y4165000D02*
G03*
X3067500Y4165000I-12500J0D01*
G01*
X3960000Y3464500D02*
G03*
X3960000Y3464500I-12500J0D01*
G01*
X3177500Y5012500D02*
G03*
X3177500Y5012500I-12500J0D01*
G01*
Y4802500D02*
G03*
X3177500Y4802500I-12500J0D01*
G01*
Y4582500D02*
G03*
X3177500Y4582500I-12500J0D01*
G01*
D26*
X3255000Y3920000D02*
Y4220000D01*
Y3920000D02*
X3325000D01*
Y4220000D01*
X3255000D02*
X3325000D01*
X2560000Y2560000D02*
Y3576000D01*
Y2560000D02*
X3900000D01*
Y3576000D01*
X3646000D02*
X3900000D01*
X2560000D02*
X2814000D01*
X3367500Y4942500D02*
X3392500D01*
X3367500Y5077500D02*
X3392500D01*
X3367500Y4732500D02*
X3392500D01*
X3367500Y4867500D02*
X3392500D01*
X3367500Y4512500D02*
X3392500D01*
X3367500Y4647500D02*
X3392500D01*
X3577680Y4863479D02*
Y4736521D01*
Y4800000D01*
X3662320D01*
Y4863479D01*
Y4736521D01*
X3577680Y4643479D02*
Y4516521D01*
X3662320D01*
X3577680Y4946520D02*
Y5073479D01*
X3641160D01*
X3662320Y5052320D01*
Y5010000D01*
X3641160Y4988840D01*
X3577680D01*
D27*
X2690000Y3826175D02*
X2639216D01*
X2664608D01*
Y3699217D01*
X2639216Y3673825D01*
X2613825D01*
X2588433Y3699217D01*
X2740784Y3673825D02*
X2791567D01*
X2766176D01*
Y3826175D01*
X2740784Y3800784D01*
%TF.MD5,bc90cca382fda0e6b1257d56e2989fe2*%
M02*
