<?xml version="1.0" encoding="UTF-8"?>
<svg id="svg8" xmlns="http://www.w3.org/2000/svg" viewBox="0 0 260.43 240.51">
  <defs>
    <style>
      .cls-1 {
        fill: #fff;
        stroke-width: 0px;
      }
    </style>
  </defs>
  <g>
    <path class="cls-1" d="m214.6,151.44h-.24c-2.15,0-4.08.77-5.6,2.23-1.58,1.47-2.52,3.53-2.57,5.67-.06,2.24.71,4.26,2.23,5.83,1.47,1.64,3.62,2.58,5.9,2.58,2.07,0,4.06-.79,5.6-2.23,1.58-1.47,2.52-3.53,2.57-5.67.06-2.24-.71-4.26-2.23-5.83-1.47-1.58-3.53-2.52-5.67-2.57h.01Zm3.88,12.61c-1.14,1.07-2.62,1.65-4.18,1.65-1.7,0-3.29-.68-4.47-1.92-2.29-2.45-2.17-6.33.27-8.66,1.12-1.07,2.6-1.66,4.16-1.66h.21c1.62.05,3.14.74,4.27,1.92,2.29,2.45,2.17,6.33-.27,8.65v.02Z"/>
    <path class="cls-1" d="m214.32,168.01c-2.35,0-4.57-.97-6.09-2.66-1.56-1.61-2.36-3.69-2.29-6,.05-2.2,1.02-4.33,2.65-5.85,1.56-1.5,3.56-2.3,5.77-2.3h.81l-.04.04c2.01.18,3.92,1.12,5.32,2.62,1.56,1.62,2.36,3.69,2.3,6.01-.05,2.2-1.02,4.33-2.65,5.85-1.58,1.48-3.63,2.3-5.77,2.3Zm-.13-16.31c-2.01.04-3.83.78-5.26,2.16-1.54,1.43-2.44,3.43-2.49,5.5-.06,2.18.69,4.13,2.16,5.65,1.43,1.59,3.51,2.5,5.72,2.5,2.01,0,3.94-.77,5.43-2.16,1.53-1.43,2.44-3.43,2.49-5.49.06-2.18-.69-4.13-2.16-5.65-1.43-1.54-3.43-2.45-5.5-2.49h-.39Zm.11,14.26c-1.77,0-3.42-.71-4.65-2-2.38-2.55-2.26-6.59.28-9.01,1.17-1.12,2.71-1.73,4.33-1.73h.21c1.69.05,3.27.76,4.45,2,2.34,2.51,2.26,6.45-.15,8.87h0s-.13.15-.13.15c-1.18,1.11-2.72,1.72-4.35,1.72Zm.16-12.24h-.2c-1.5,0-2.91.57-3.99,1.59-2.34,2.23-2.45,5.96-.26,8.31,1.13,1.19,2.65,1.84,4.29,1.84,1.44,0,2.8-.52,3.87-1.46v-.02s.13-.13.13-.13c2.34-2.22,2.46-5.95.26-8.3-1.09-1.14-2.55-1.79-4.1-1.84Z"/>
  </g>
  <g>
    <path class="cls-1" d="m159.29,188.62h-.5c-3.18,0-6.19,1.2-8.49,3.37-5.02,4.75-5.29,12.69-.6,17.71,2.39,2.51,5.74,3.96,9.19,3.96,3.18,0,6.22-1.19,8.58-3.35,2.45-2.25,3.89-5.43,3.96-8.72.13-3.37-1.06-6.56-3.36-8.99-2.28-2.42-5.4-3.82-8.78-3.96v-.02Zm6.55,19.94c-1.89,1.77-4.36,2.75-6.96,2.75-2.84,0-5.46-1.13-7.39-3.19-3.83-4.09-3.63-10.53.45-14.35,1.92-1.79,4.33-2.74,6.95-2.74h.32c2.7.06,5.21,1.2,7.08,3.19,1.86,1.99,2.81,4.5,2.74,7.27-.06,2.7-1.2,5.21-3.19,7.08h0Z"/>
    <path class="cls-1" d="m158.89,213.92c-3.51,0-6.93-1.47-9.37-4.04-4.78-5.12-4.51-13.22.61-18.06,2.35-2.22,5.43-3.44,8.66-3.44h.75v.03c3.36.2,6.45,1.62,8.71,4.03,2.34,2.48,3.56,5.73,3.43,9.17-.07,3.36-1.54,6.6-4.04,8.89-2.41,2.2-5.51,3.42-8.75,3.42Zm-.1-25.04c-3.11,0-6.06,1.17-8.32,3.3-4.92,4.65-5.18,12.44-.59,17.36,2.35,2.47,5.63,3.88,9.01,3.88,3.11,0,6.1-1.17,8.41-3.29,2.4-2.2,3.81-5.31,3.88-8.54.13-3.31-1.04-6.44-3.29-8.81-2.23-2.37-5.29-3.74-8.61-3.88l-.49-.02Zm.09,22.69c-2.91,0-5.6-1.16-7.57-3.27-1.9-2.03-2.9-4.67-2.81-7.46.09-2.78,1.25-5.36,3.27-7.25,1.97-1.84,4.43-2.81,7.12-2.81h.32c2.76.06,5.34,1.22,7.26,3.27,1.91,2.04,2.88,4.62,2.81,7.45-.06,2.76-1.22,5.33-3.27,7.26l-.42.4v-.03c-1.88,1.58-4.24,2.44-6.71,2.44Zm0-20.28c-2.56,0-4.9.92-6.78,2.67-1.92,1.8-3.03,4.25-3.11,6.9-.08,2.65.87,5.17,2.67,7.1,1.88,2.01,4.44,3.11,7.21,3.11,2.53,0,4.94-.95,6.79-2.68l.28-.26c1.78-1.8,2.78-4.14,2.83-6.63.07-2.7-.86-5.15-2.67-7.09-1.83-1.95-4.28-3.05-6.9-3.11h-.31Z"/>
  </g>
  <g>
    <path class="cls-1" d="m51.03,99.09h.39c3.2,0,6.25-1.21,8.58-3.42,2.45-2.25,3.89-5.43,3.96-8.72.14-3.37-1.06-6.56-3.35-8.99-2.25-2.45-5.43-3.89-8.72-3.96h-.51c-3.17,0-6.19,1.2-8.48,3.36-2.45,2.25-3.89,5.43-3.96,8.73-.07,3.43,1.12,6.62,3.35,8.98,2.26,2.53,5.36,3.96,8.73,4.03h.01Zm-6.56-19.88c1.92-1.79,4.33-2.74,6.95-2.74h.32c2.7.06,5.21,1.2,7.08,3.19,1.86,1.99,2.81,4.5,2.74,7.27-.06,2.66-1.23,5.24-3.19,7.08-1.89,1.77-4.39,2.75-7.02,2.75h-.25c-2.7-.07-5.21-1.2-7.08-3.19-1.86-1.99-2.81-4.5-2.74-7.27.13-2.81,1.23-5.26,3.19-7.08h0Z"/>
    <path class="cls-1" d="m51.12,99.36h-.1c-3.44-.07-6.6-1.53-8.91-4.12-2.27-2.4-3.48-5.65-3.41-9.15.07-3.37,1.54-6.62,4.04-8.91,2.34-2.21,5.41-3.43,8.65-3.43h.51c3.37.07,6.61,1.54,8.9,4.04,2.34,2.49,3.56,5.74,3.42,9.17-.07,3.36-1.54,6.6-4.04,8.89-2.37,2.25-5.48,3.49-8.75,3.49h-.3Zm.77-25.1h-.5c-3.11,0-6.06,1.17-8.31,3.29-2.4,2.2-3.81,5.32-3.88,8.55-.07,3.36,1.1,6.49,3.28,8.8,2.2,2.46,5.2,3.86,8.47,3.95h.09s.39,0,.39,0c3.14,0,6.13-1.19,8.41-3.35,2.4-2.2,3.81-5.32,3.88-8.54.14-3.29-1.03-6.42-3.28-8.81-2.2-2.4-5.32-3.81-8.54-3.88Zm-.53,22.76h-.25c-2.77-.07-5.35-1.23-7.26-3.27-1.91-2.04-2.88-4.62-2.81-7.45.13-2.85,1.23-5.33,3.19-7.18h0s.08-.08.08-.08c1.97-1.84,4.43-2.81,7.12-2.81h.32c2.76.06,5.34,1.22,7.26,3.27,1.91,2.04,2.88,4.62,2.81,7.45-.06,2.72-1.25,5.36-3.27,7.26-1.94,1.82-4.49,2.82-7.19,2.82Zm-6.63-17.69h0s-.08.08-.08.08c-1.91,1.77-2.98,4.16-3.11,6.91-.07,2.69.86,5.14,2.67,7.09,1.82,1.94,4.27,3.04,6.9,3.11h.24c2.57,0,5-.95,6.85-2.68,1.92-1.8,3.05-4.32,3.11-6.9.07-2.7-.86-5.15-2.67-7.09-1.83-1.95-4.28-3.05-6.9-3.11h-.31c-2.52,0-4.84.9-6.7,2.6Z"/>
  </g>
  <g>
    <path class="cls-1" d="m96.4,41.95c2.07,0,4.06-.79,5.6-2.23,1.58-1.47,2.52-3.53,2.57-5.67.06-2.24-.71-4.26-2.23-5.83-1.47-1.58-3.53-2.52-5.67-2.57h-.24c-2.15,0-4.08.77-5.6,2.23-1.58,1.47-2.52,3.53-2.57,5.67-.06,2.24.71,4.26,2.23,5.83,1.47,1.64,3.62,2.58,5.9,2.58h0Zm-4.22-12.61c1.12-1.07,2.6-1.66,4.16-1.66h.21c1.62.05,3.14.74,4.27,1.92,2.29,2.45,2.17,6.33-.27,8.65-1.14,1.07-2.62,1.65-4.18,1.65-1.7,0-3.29-.68-4.47-1.92-2.29-2.45-2.17-6.33.27-8.66v.02Z"/>
    <path class="cls-1" d="m96.5,42.22h-.1c-2.35,0-4.57-.97-6.09-2.66-1.56-1.61-2.36-3.69-2.29-6,.05-2.2,1.02-4.33,2.65-5.85,1.56-1.5,3.56-2.3,5.77-2.3h.24c2.2.05,4.33,1.02,5.85,2.65,1.56,1.62,2.36,3.69,2.3,6.01-.05,2.2-1.02,4.33-2.65,5.85-1.56,1.46-3.57,2.27-5.67,2.3h-.01Zm.17-16.31h-.23c-2.08,0-3.96.75-5.43,2.16-1.54,1.43-2.45,3.43-2.49,5.5-.06,2.18.69,4.13,2.16,5.65,1.41,1.57,3.45,2.48,5.62,2.5h.11c2.01,0,3.94-.78,5.43-2.17,1.53-1.43,2.44-3.43,2.49-5.49.06-2.18-.69-4.13-2.16-5.65-1.43-1.54-3.43-2.45-5.5-2.49Zm-.29,14.25c-1.77,0-3.43-.71-4.65-2-2.38-2.55-2.26-6.59.28-9.01l.25-.24v.03c1.15-.97,2.58-1.5,4.1-1.5h.21c1.69.05,3.27.76,4.45,2,2.39,2.55,2.26,6.59-.28,9-1.18,1.11-2.73,1.72-4.35,1.72Zm-4.27-10.4c-2.1,2.25-2.13,5.8-.02,8.06,1.13,1.19,2.65,1.84,4.29,1.84,1.5,0,2.92-.56,4.01-1.58,2.34-2.22,2.46-5.95.26-8.3-1.09-1.14-2.55-1.79-4.1-1.84h-.2c-1.5,0-2.91.56-3.99,1.59l-.25.24h0Z"/>
  </g>
  <g>
    <g>
      <polygon id="polygon1057" class="cls-1" points="132.09 116.77 132.09 116.84 128.38 111.41 139.44 94.29 131.04 94.29 118.37 115.45 118.37 94.29 110.95 94.29 110.95 129.64 116.62 129.64 123.9 118.3 130.06 126.86 130.06 126.86 131.88 129.64 140.77 129.64 132.09 116.77"/>
      <path id="path1059" class="cls-1" d="m141.63,129.64h8.14l.34-.89,2.48-5.42h12.42l2.62,6.31h8.07l-16.9-35.45h-.21l-1.66,3.43-15.31,32.02h.01Zm17.32-20.02h.34l3.52,8.3h-7.66l3.79-8.3h.01Z"/>
      <path id="path1061" class="cls-1" d="m103.13,109.99c-2.35-.96-4.76-1.51-7.24-1.92-1.45-.27-2.9-.55-4.28-1.1-.55-.21-1.1-.48-1.52-.96-.76-.96-.83-2.26-.14-3.5.21-.34.48-.69.76-.89.55-.34,1.17-.62,1.79-.75,1.66-.41,3.24-.27,4.9-.07,2.28.34,4.35,1.17,6.21,2.4.41.27.74.2.97-.21.9-1.3,1.86-2.61,2.76-3.98.34-.48.62-.89.9-1.3-.07-.14-.14-.21-.14-.21-1.45-.96-3.03-1.71-4.69-2.26-3.31-1.03-6.69-1.44-10.14-1.17-2.55.21-4.97.82-7.1,2.19-2.48,1.65-4.14,3.84-4.62,6.86-.55,3.84,1.1,7.41,4.62,9.33,1.86.96,3.79,1.65,5.79,2.13,1.66.41,3.31.69,4.97,1.1,1.17.27,2.28.55,3.31,1.23,1.52.96,1.79,2.95.69,4.32-.62.82-1.52,1.23-2.48,1.51-1.31.34-2.69.41-4,.34-3.45-.27-6.62-1.37-9.31-3.57-.14-.14-.34-.27-.55-.41-1.45,1.99-2.83,3.98-4.28,5.9.07.14.14.21.21.27,2.35,1.71,4.9,2.95,7.79,3.57,2.97.69,5.93.96,8.97.69,2.21-.21,4.35-.62,6.35-1.65s3.66-2.4,4.76-4.39c.83-1.44,1.17-3.09,1.17-4.66.07-2.26-.55-4.32-2.14-5.97-1.1-1.37-2.62-2.19-4.28-2.88h-.01Z"/>
      <path class="cls-1" d="m199.62,115.91c.28-.14.48-.21.69-.34,1.86-.96,3.45-2.13,4.69-3.84,1.72-2.54,2.14-5.28,1.66-8.16-.41-2.4-1.59-4.32-3.38-5.83-2.69-2.26-5.79-3.36-9.24-3.43-5.45-.14-10.69-.07-15.93-.07-.21,0-.48,0-.76.07-.21,11.79-.21,23.52,0,35.25,1.86.21,6.9.21,8.07-.07.07-4.05.07-8.09.14-12.21.28,0,.41-.07.62-.07,1.31,0,2.62.07,3.93,0,.62,0,.9.21,1.24.69,2.48,3.77,4.97,7.47,7.45,11.25.21.27.34.41.69.41,2.97.14,5.86.14,8.83,0,.07,0,.14-.07.34-.07-3.04-4.53-6-9.05-9.04-13.58Zm-1.45-8.78c-.28,1.23-.97,2.13-2,2.67-.83.48-1.79.82-2.83.89-2.41.21-4.76.21-7.1.07-.21,0-.34-.07-.62-.07-.14-3.36-.14-6.65,0-9.94.07-.07.21-.07.28-.07,2.48-.14,4.97-.21,7.45.07,1.17.14,2.28.48,3.24,1.23.69.55,1.24,1.3,1.52,2.19.28.96.28,1.92.07,2.95h-.01Z"/>
    </g>
    <g>
      <path class="cls-1" d="m104.48,138.11c-3.96,0-7.19,3.23-7.19,7.21s3.22,7.21,7.19,7.21,7.19-3.23,7.19-7.21-3.22-7.21-7.19-7.21Zm0,12.42c-2.86,0-5.19-2.34-5.19-5.21s2.33-5.21,5.19-5.21,5.19,2.34,5.19,5.21-2.33,5.21-5.19,5.21Z"/>
      <path class="cls-1" d="m122.43,80.74c-.7,0-1.28.58-1.28,1.3s.57,1.3,1.28,1.3,1.28-.58,1.28-1.3-.57-1.3-1.28-1.3Z"/>
      <path class="cls-1" d="m227.41,151.96l-3.42-69.41c-.04-.69-.44-1.32-1.05-1.64l-2.96-1.53c-.59-.31-1.28-.31-1.87,0s-.98.87-1.07,1.54l-.14,1.11c-.73-1.66-1.53-3.31-2.37-4.9-8.4-16-22.03-28.98-40.49-38.59l-.05-.03c-1.43-.65-2.89-1.26-4.34-1.82l5.57-.32c.67-.04,1.25-.39,1.61-.96.35-.57.4-1.25.13-1.86l-1.18-2.73c-.05-.11-.11-.23-.19-.36-.17-.26-.37-.48-.62-.67-.2-.15-.43-.27-.67-.36-.19-.07-.39-.11-.58-.14l-68.73-7.85c-2.37-1.6-5.15-2.51-8.04-2.64h-.5c-3.79,0-7.47,1.45-10.37,4.08-.69.63-2.01,1.99-3.11,4.09-.72,1.39-1.23,2.87-1.5,4.41l-.57,1.08-36.18,34.8c-2.73.97-5.25,2.5-7.29,4.4-6.28,5.89-8.18,15.17-4.75,23.04l11.66,66.33s0,.06-.03.08l-.88.5c-.81.47-1.36,1.26-1.5,2.19-.14.93.14,1.85.78,2.54l35.89,38.64c.64.69,1.55,1.04,2.5.95.94-.09,1.77-.61,2.27-1.41l.64-1.04,65.48,15.87c2.94,1.54,6.2,2.35,9.42,2.35,5.21,0,10.18-1.96,14-5.52,2.07-1.94,3.69-4.28,4.8-6.96l37.13-33.98.4-.43c1.01-.09,2-.28,2.96-.57,2.13-.64,7.37-2.73,9.94-8.4,3.05-6.75-.2-12.96-.72-13.88h-.01Zm-7.84-68.82c.02-.14.1-.26.23-.33.13-.07.28-.07.4,0l.61.31s.09.08.12.12c0,0,.05.08.08.16.06.5,1.22,23.51,3.25,64.8-2.63-2.27-5.96-3.58-9.4-3.7-.21,0-.42-.02-.64-.02-.75,0-1.51.07-2.31.21l7.67-61.56h0Zm-46.97-42.02c5.69,2.94,11.09,6.41,16.05,10.34,10.48,8.28,16.61,16.56,18.76,19.73,1.45,2.14,2.84,4.43,4.13,6.81l-36.31.03c-2.76-.05-5.09,2-5.32,4.74-.23,2.77,1.84,5.27,4.64,5.57h29.51c.5.2.87.64.95,1.17.12.78-.45,1.31-.47,1.33l-.26.24,2.21,1.2.13-.16c.29-.36.94-1.34.88-2.68-.04-.9-.34-1.68-.89-2.32-.56-.65-1.34-1.09-2.24-1.25h-29.63c-1.41-.19-2.47-1.48-2.35-2.89.12-1.42,1.36-2.51,2.79-2.45l37.64-.03c1.22,2.49,2.3,5.03,3.21,7.53l-.86,6.84h-7.28l.33.42c.23.28.46.57.71.86.33.39.67.77.99,1.12l.07.08h4.86l-6.05,48.27c-1.79.69-3.47,1.75-4.86,3.08-2.53,2.4-4.18,5.61-4.65,9.05l-37.69,23.31c-.92-.12-1.86-.19-2.79-.19-4.28,0-8.38,1.3-11.86,3.77l-44.56-11.04.97-1.58c.49-.8.39-1.84-.25-2.52l-5.87-6.32h7.73c11.19.02,22.77.03,28.96-.19,3.2-.11,6.34-1.34,8.84-3.43l9.57-7.06c2-1.47,4.34-2.31,6.77-2.43l34.01-.1c1.47,0,2.84-.58,3.86-1.64.98-1.01,1.51-2.36,1.46-3.71-.09-2.52-2.12-4.64-4.75-4.93h-12.85v2.49h12.65c1.33.17,2.41,1.28,2.45,2.52.03.67-.25,1.35-.76,1.87-.55.56-1.29.88-2.1.88l-34.05.1c-2.96.14-5.8,1.15-8.2,2.92l-9.64,7.11c-2.12,1.77-4.74,2.8-7.38,2.9-6.04.21-17.39.2-28.37.18h-10.56l-16.24-17.46c-.67-.72-1.73-.88-2.58-.4l-1.02.58-3.69-20.74h5.29l.07-.1c.21-.32.42-.65.63-.98s.42-.67.63-1l.24-.38-7.29.02-3.69-20.73v-.03c2.83-3.5,4.42-7.73,4.62-12.26,0-.73,0-1.42-.07-2.05l1.29-1.82h46.23v-2.5h-44.45l17.86-25.14,34.55-.05c3.49,0,6.9.98,9.86,2.83l10.75,6.73c3.35,2.1,7.2,3.21,11.12,3.22h2.14c3.96,0,7.91-.02,11.86-.04,5.3-.03,11.31-.06,17.12-.02h.25v-2.5s-.24,0-.24,0c-5.82-.03-11.83,0-17.14.02-4.47.02-9.23.04-14,.04-3.45,0-6.83-.99-9.79-2.84l-10.75-6.73c-3.36-2.1-7.23-3.21-11.22-3.21l-32.74.05,2.94-4.14c3.58-.27,6.81-1.67,9.33-4.06,1.42-1.35,2.59-2.96,3.39-4.66l51.79-3.14c3.5,1.01,7.08,2.34,10.61,3.95h.06Zm-63.82-16.14s.08-.12.2-.12h.03l63.9,7.33c.14.02.26.11.32.24l.37.85c.02.06.02.12,0,.17s-.09.09-.15.09l-61.99,3.74c-.12.02-.16-.04-.19-.08-.05-.06-.07-.13-.05-.21.18-.83.3-1.69.35-2.58.11-3.31-.84-6.49-2.77-9.21-.08-.11-.03-.21,0-.25v.03Zm-20.67.06h0c2.23-2.11,5.2-3.26,8.36-3.26h.37c3.25.12,6.26,1.48,8.48,3.83,2.23,2.42,3.39,5.52,3.27,8.73-.12,3.25-1.49,6.26-3.83,8.48-2.26,2.12-5.22,3.28-8.33,3.28-3.42,0-6.6-1.37-8.95-3.84-4.54-4.92-4.26-12.64.63-17.21h0Zm-6.63,10.94c.41,3.17,1.76,6.04,3.9,8.31,2.24,2.41,5.2,3.99,8.57,4.57l-22.89,32.25c-.91-3.2-2.51-6.06-4.76-8.49-3.76-3.96-8.83-6.26-14.26-6.46-.23-.01-.45-.02-.68-.02-.41,0-.84.02-1.34.06l31.46-30.21h0Zm-42.02,37.85c3.29-3.04,7.56-4.72,12.04-4.72.76,0,1.49.04,2.6.22,3.78.63,7.1,2.29,9.61,4.79,3.56,3.56,5.42,8.2,5.22,13.06-.19,4.76-2.16,9.1-5.54,12.22-3.26,3.05-7.51,4.73-11.98,4.73-4.81,0-9.47-2-12.77-5.49-3.2-3.45-4.88-7.93-4.72-12.63.16-4.69,2.13-9.02,5.54-12.19h0Zm-2.73,26.92c3.89,4.04,9.12,6.26,14.76,6.26,4.89,0,9.63-1.75,13.35-4.93l7.64,42.87-25.38,14.58-10.36-58.79h-.01Zm44.31,101.86h0c-.06.1-.17.17-.29.18-.11,0-.24-.03-.32-.12l-35.31-38c-.1-.1-.14-.24-.12-.38s.1-.26.23-.33l31.47-18.06c.07-.04.15-.06.23-.06.13,0,.25.05.34.15l23.07,24.83c.14.15.16.38.05.56l-19.36,31.25v-.02Zm4.53-1.8l15.21-24.62,43.55,10.7c-3.58,3.69-5.65,8.53-5.84,13.66-.2,5.29,1.69,10.39,5.33,14.4l-58.24-14.14h0Zm85.35,13.14c-3.26,3.05-7.51,4.73-11.98,4.73-4.81,0-9.47-2-12.77-5.49-3.23-3.49-4.9-7.94-4.71-12.53.19-4.75,2.16-9.09,5.54-12.22,3.22-3.03,7.47-4.71,11.96-4.71,4.85,0,9.51,2.02,12.79,5.54,6.58,7.02,6.21,18.1-.83,24.69h0Zm8.23-10.04c.82-6.11-1.12-12.18-5.32-16.69-2.25-2.36-5.07-4.19-8.17-5.29l33.67-20.77c.32,3.31,1.75,6.44,4.02,8.83,2.12,2.24,4.88,3.79,8,4.48l-32.2,29.44Zm43.56-35.4c-2.26,2.12-5.23,3.28-8.35,3.28-3.38,0-6.64-1.4-8.92-3.85-4.58-4.89-4.32-12.64.57-17.28,2.23-2.11,5.2-3.26,8.35-3.26h.37c3.25.12,6.26,1.49,8.48,3.83,2.25,2.4,3.43,5.52,3.33,8.78-.1,3.26-1.46,6.27-3.83,8.5Z"/>
      <path class="cls-1" d="m132.91,137.69l-6.03-3.58-1.02,1.72,6.03,3.58c2.78,1.65,5.96,2.52,9.19,2.52h31.68v-2h-31.68c-2.87,0-5.7-.77-8.17-2.24h0Z"/>
      <path class="cls-1" d="m176.91,142.05c.61,0,1.1-.5,1.1-1.12s-.49-1.12-1.1-1.12-1.1.5-1.1,1.12.49,1.12,1.1,1.12Z"/>
    </g>
  </g>
</svg>