%TF.GenerationSoftware,Altium Limited,Altium Designer,24.10.1 (45)*%
G04 Layer_Physical_Order=4*
G04 Layer_Color=16711680*
%FSLAX45Y45*%
%MOMM*%
%TF.SameCoordinates,6B7C1C4C-1752-458E-A365-839E3CDA317C*%
%TF.FilePolarity,Positive*%
%TF.FileFunction,Copper,L4,Bot,Signal*%
%TF.Part,Single*%
G01*
G75*
%TA.AperFunction,Conductor*%
%ADD34C,0.18000*%
%TA.AperFunction,ComponentPad*%
%ADD35O,0.60000X1.90000*%
%ADD36C,0.60000*%
%ADD37C,6.50000*%
%ADD38R,1.50000X1.50000*%
%ADD39C,1.50000*%
%TA.AperFunction,ViaPad*%
%ADD40C,0.50000*%
%ADD41C,0.60000*%
G36*
X15889999Y7497021D02*
X15877299Y7493169D01*
X15875645Y7495645D01*
X15710646Y7660644D01*
X15703468Y7665440D01*
X15695001Y7667124D01*
X15653131D01*
X15652911Y7667657D01*
X15641658Y7678909D01*
X15631142Y7683266D01*
Y7696732D01*
X15641658Y7701089D01*
X15652911Y7712341D01*
X15659000Y7727043D01*
Y7728062D01*
X15661275Y7729802D01*
X15678452Y7726955D01*
X15683060Y7720058D01*
X15701384Y7707814D01*
X15710300Y7706040D01*
Y7824999D01*
Y7943958D01*
X15701384Y7942185D01*
X15683060Y7929940D01*
X15670815Y7911615D01*
X15666515Y7889999D01*
Y7873792D01*
X15653815Y7868532D01*
X15650381Y7871965D01*
X15631700Y7879703D01*
Y7824999D01*
X15606300D01*
Y7879703D01*
X15601405Y7877676D01*
X15596400Y7881020D01*
X15587965Y7901381D01*
X15572382Y7916966D01*
X15553700Y7924704D01*
Y7870000D01*
X15528300D01*
Y7924704D01*
X15509619Y7916966D01*
X15502489Y7909836D01*
X15495319Y7910795D01*
X15488033Y7913341D01*
X15476942Y7929940D01*
X15458617Y7942185D01*
X15449699Y7943958D01*
Y7824999D01*
Y7706040D01*
X15458617Y7707814D01*
X15476942Y7720058D01*
X15489186Y7738384D01*
X15493082Y7757972D01*
X15498157Y7759911D01*
X15506087Y7759762D01*
X15507091Y7757342D01*
X15518343Y7746089D01*
X15528860Y7741733D01*
Y7728266D01*
X15518343Y7723910D01*
X15507091Y7712658D01*
X15500999Y7697956D01*
Y7682043D01*
X15501221Y7681510D01*
X15324355Y7504644D01*
X15319559Y7497466D01*
X15317876Y7488999D01*
Y6999543D01*
X15314510Y6998149D01*
X15301851Y6985490D01*
X15295000Y6968951D01*
Y6951049D01*
X15301851Y6934510D01*
X15314510Y6921851D01*
X15317876Y6920457D01*
Y6659165D01*
X15100835Y6442125D01*
X12659709D01*
X12152125Y6949709D01*
Y7000000D01*
X12150441Y7008467D01*
X12145645Y7015645D01*
X12085645Y7075645D01*
X12078467Y7080441D01*
X12070000Y7082125D01*
X11629543D01*
X11628149Y7085491D01*
X11615490Y7098149D01*
X11598951Y7105000D01*
X11581049D01*
X11564510Y7098149D01*
X11551851Y7085491D01*
X11545000Y7068951D01*
Y7051049D01*
X11551851Y7034510D01*
X11564510Y7021851D01*
X11574531Y7017700D01*
X11572005Y7005000D01*
X11561049D01*
X11544510Y6998149D01*
X11531851Y6985490D01*
X11525000Y6968951D01*
Y6951049D01*
X11531851Y6934510D01*
X11544510Y6921851D01*
X11561049Y6915000D01*
X11578951D01*
X11595490Y6921851D01*
X11608149Y6934510D01*
X11609543Y6937875D01*
X11622417D01*
X11630884Y6939559D01*
X11638062Y6944355D01*
X11661581Y6967875D01*
X11697329D01*
X11701535Y6955175D01*
X11691851Y6945490D01*
X11685000Y6928951D01*
Y6911049D01*
X11691851Y6894509D01*
X11704509Y6881851D01*
X11721049Y6875000D01*
X11738951D01*
X11742316Y6876394D01*
X12334355Y6284355D01*
X12341533Y6279559D01*
X12350000Y6277875D01*
X15220000D01*
X15228467Y6279559D01*
X15235645Y6284355D01*
X15875645Y6924355D01*
X15877299Y6926832D01*
X15889999Y6922979D01*
Y5820000D01*
X6790000D01*
X6790000Y8420000D01*
X15889999D01*
Y7497021D01*
D02*
G37*
G36*
X15449701Y7219842D02*
X15456226Y7211892D01*
X15455008Y7208955D01*
Y7191053D01*
X15461859Y7174513D01*
X15474518Y7161855D01*
X15486873Y7156737D01*
Y7143271D01*
X15474518Y7138153D01*
X15461859Y7125494D01*
X15455008Y7108955D01*
Y7091053D01*
X15461859Y7074513D01*
X15474518Y7061855D01*
X15491057Y7055004D01*
X15508958D01*
X15525499Y7061855D01*
X15538158Y7074513D01*
X15543275Y7086869D01*
X15556741D01*
X15561859Y7074513D01*
X15574518Y7061855D01*
X15591057Y7055004D01*
X15608958D01*
X15625499Y7061855D01*
X15638158Y7074513D01*
X15643275Y7086869D01*
X15656741D01*
X15661859Y7074513D01*
X15674518Y7061855D01*
X15691058Y7055004D01*
X15708958D01*
X15720558Y7059808D01*
X15727753Y7049042D01*
X15692316Y7013606D01*
X15688951Y7015000D01*
X15671049D01*
X15654509Y7008149D01*
X15641850Y6995490D01*
X15635001Y6978951D01*
Y6961049D01*
X15641850Y6944510D01*
X15654509Y6931851D01*
X15671049Y6925000D01*
X15688951D01*
X15705490Y6931851D01*
X15718149Y6944510D01*
X15725000Y6961049D01*
Y6978951D01*
X15723605Y6982316D01*
X15785175Y7043885D01*
X15797874Y7038625D01*
Y6979165D01*
X15425996Y6607287D01*
X15416133Y6615383D01*
X15419841Y6620933D01*
X15421526Y6629400D01*
Y7034604D01*
X15419841Y7043071D01*
X15415045Y7050249D01*
X15392125Y7073169D01*
Y7225583D01*
X15404825Y7232372D01*
X15415384Y7225317D01*
X15424301Y7223543D01*
Y7342502D01*
X15449701D01*
Y7219842D01*
D02*
G37*
G36*
X12107875Y6990835D02*
Y6940544D01*
X12109559Y6932078D01*
X12114355Y6924900D01*
X12122522Y6916733D01*
X12117687Y6903607D01*
X12104510Y6898149D01*
X12091851Y6885490D01*
X12085000Y6868951D01*
Y6851049D01*
X12091851Y6834510D01*
X12104510Y6821851D01*
X12121049Y6815000D01*
X12138951D01*
X12142316Y6816394D01*
X12583885Y6374825D01*
X12578625Y6362125D01*
X12409164D01*
X11765645Y7005645D01*
X11758467Y7010441D01*
X11750000Y7012125D01*
X11652417D01*
X11643950Y7010441D01*
X11636772Y7005645D01*
X11620350Y6989222D01*
X11608149Y6985491D01*
X11595490Y6998149D01*
X11585469Y7002300D01*
X11587995Y7015000D01*
X11598951D01*
X11615490Y7021851D01*
X11628149Y7034510D01*
X11629543Y7037875D01*
X12060835D01*
X12107875Y6990835D01*
D02*
G37*
%LPC*%
G36*
X10626000Y8126125D02*
X10197633D01*
X10189166Y8124441D01*
X10181988Y8119645D01*
X10134468Y8072125D01*
X10099543D01*
X10098149Y8075490D01*
X10085490Y8088149D01*
X10068951Y8095000D01*
X10051049D01*
X10034510Y8088149D01*
X10021851Y8075490D01*
X10015000Y8058951D01*
Y8041049D01*
X10016394Y8037684D01*
X9804355Y7825645D01*
X9799559Y7818467D01*
X9797875Y7810000D01*
Y6929543D01*
X9794509Y6928149D01*
X9781851Y6915490D01*
X9775000Y6898951D01*
Y6881049D01*
X9781851Y6864510D01*
X9794509Y6851851D01*
X9811049Y6845000D01*
X9828951D01*
X9845490Y6851851D01*
X9858149Y6864510D01*
X9865000Y6881049D01*
Y6898951D01*
X9858149Y6915490D01*
X9845490Y6928149D01*
X9842125Y6929543D01*
Y7800835D01*
X10047684Y8006394D01*
X10051049Y8005000D01*
X10068951D01*
X10085490Y8011851D01*
X10098149Y8024509D01*
X10099543Y8027875D01*
X10143633D01*
X10152100Y8029559D01*
X10159278Y8034355D01*
X10206797Y8081875D01*
X10616836D01*
X10646394Y8052316D01*
X10645000Y8048951D01*
Y8031049D01*
X10651851Y8014509D01*
X10664510Y8001851D01*
X10681049Y7995000D01*
X10698951D01*
X10715490Y8001851D01*
X10728149Y8014509D01*
X10735000Y8031049D01*
Y8048951D01*
X10728149Y8065490D01*
X10715490Y8078149D01*
X10698951Y8085000D01*
X10681049D01*
X10677684Y8083606D01*
X10641645Y8119645D01*
X10634467Y8124441D01*
X10626000Y8126125D01*
D02*
G37*
G36*
X15735699Y7943958D02*
Y7837699D01*
X15779486D01*
Y7889999D01*
X15775186Y7911615D01*
X15762943Y7929940D01*
X15744617Y7942185D01*
X15735699Y7943958D01*
D02*
G37*
G36*
X15424300D02*
X15415384Y7942185D01*
X15397060Y7929940D01*
X15384814Y7911615D01*
X15380515Y7889999D01*
Y7837699D01*
X15424300D01*
Y7943958D01*
D02*
G37*
G36*
X15308958Y7945004D02*
X15291057D01*
X15274518Y7938153D01*
X15261859Y7925495D01*
X15255008Y7908955D01*
Y7891053D01*
X15261859Y7874514D01*
X15274518Y7861855D01*
X15286873Y7856737D01*
Y7843271D01*
X15274518Y7838153D01*
X15261859Y7825495D01*
X15256741Y7813139D01*
X15243275D01*
X15238158Y7825495D01*
X15225499Y7838153D01*
X15208958Y7845004D01*
X15191057D01*
X15174518Y7838153D01*
X15161859Y7825495D01*
X15156741Y7813139D01*
X15143275D01*
X15138158Y7825495D01*
X15125499Y7838153D01*
X15108958Y7845004D01*
X15091057D01*
X15074518Y7838153D01*
X15061859Y7825495D01*
X15056741Y7813139D01*
X15043275D01*
X15038158Y7825495D01*
X15025499Y7838153D01*
X15008958Y7845004D01*
X14991057D01*
X14974518Y7838153D01*
X14961859Y7825495D01*
X14956741Y7813139D01*
X14943275D01*
X14938158Y7825495D01*
X14925497Y7838153D01*
X14908958Y7845004D01*
X14891057D01*
X14874518Y7838153D01*
X14861859Y7825495D01*
X14856741Y7813139D01*
X14843275D01*
X14838158Y7825495D01*
X14825497Y7838153D01*
X14808958Y7845004D01*
X14791057D01*
X14774518Y7838153D01*
X14761859Y7825495D01*
X14756741Y7813139D01*
X14743275D01*
X14738158Y7825495D01*
X14725497Y7838153D01*
X14708958Y7845004D01*
X14691057D01*
X14674518Y7838153D01*
X14661859Y7825495D01*
X14656741Y7813139D01*
X14643275D01*
X14638158Y7825495D01*
X14625497Y7838153D01*
X14608958Y7845004D01*
X14591057D01*
X14574516Y7838153D01*
X14561859Y7825495D01*
X14556741Y7813139D01*
X14543275D01*
X14538158Y7825495D01*
X14525497Y7838153D01*
X14508958Y7845004D01*
X14491057D01*
X14474516Y7838153D01*
X14461859Y7825495D01*
X14456741Y7813139D01*
X14443275D01*
X14438158Y7825495D01*
X14425497Y7838153D01*
X14408958Y7845004D01*
X14391057D01*
X14374516Y7838153D01*
X14361859Y7825495D01*
X14356741Y7813139D01*
X14343275D01*
X14338158Y7825495D01*
X14325497Y7838153D01*
X14308958Y7845004D01*
X14291057D01*
X14274516Y7838153D01*
X14261859Y7825495D01*
X14256741Y7813139D01*
X14243275D01*
X14238158Y7825495D01*
X14225497Y7838153D01*
X14208958Y7845004D01*
X14191057D01*
X14174516Y7838153D01*
X14161859Y7825495D01*
X14156741Y7813139D01*
X14143274D01*
X14138158Y7825495D01*
X14125497Y7838153D01*
X14108958Y7845004D01*
X14091057D01*
X14074516Y7838153D01*
X14061859Y7825495D01*
X14056741Y7813139D01*
X14043274D01*
X14038158Y7825495D01*
X14025497Y7838153D01*
X14008958Y7845004D01*
X13991057D01*
X13974516Y7838153D01*
X13961859Y7825495D01*
X13956741Y7813139D01*
X13943274D01*
X13938158Y7825495D01*
X13925497Y7838153D01*
X13908958Y7845004D01*
X13891057D01*
X13874516Y7838153D01*
X13861858Y7825495D01*
X13856741Y7813139D01*
X13843274D01*
X13838156Y7825495D01*
X13825497Y7838153D01*
X13808958Y7845004D01*
X13791055D01*
X13774516Y7838153D01*
X13761858Y7825495D01*
X13756741Y7813139D01*
X13743274D01*
X13738156Y7825495D01*
X13725497Y7838153D01*
X13708958Y7845004D01*
X13691055D01*
X13674516Y7838153D01*
X13661858Y7825495D01*
X13656741Y7813139D01*
X13643274D01*
X13638156Y7825495D01*
X13625497Y7838153D01*
X13608958Y7845004D01*
X13591055D01*
X13574516Y7838153D01*
X13561858Y7825495D01*
X13556740Y7813139D01*
X13543274D01*
X13538156Y7825495D01*
X13525497Y7838153D01*
X13508958Y7845004D01*
X13491055D01*
X13474516Y7838153D01*
X13461858Y7825495D01*
X13456740Y7813139D01*
X13443274D01*
X13438156Y7825495D01*
X13425497Y7838153D01*
X13408958Y7845004D01*
X13391055D01*
X13374516Y7838153D01*
X13361858Y7825495D01*
X13356740Y7813139D01*
X13343274D01*
X13338156Y7825495D01*
X13325497Y7838153D01*
X13308958Y7845004D01*
X13291055D01*
X13274516Y7838153D01*
X13261858Y7825495D01*
X13256740Y7813139D01*
X13243274D01*
X13238156Y7825495D01*
X13225497Y7838153D01*
X13208958Y7845004D01*
X13191055D01*
X13174516Y7838153D01*
X13161858Y7825495D01*
X13156740Y7813139D01*
X13143274D01*
X13138156Y7825495D01*
X13125497Y7838153D01*
X13108958Y7845004D01*
X13091055D01*
X13074516Y7838153D01*
X13061858Y7825495D01*
X13056740Y7813139D01*
X13043274D01*
X13038156Y7825495D01*
X13025497Y7838153D01*
X13008958Y7845004D01*
X12991055D01*
X12974516Y7838153D01*
X12961858Y7825495D01*
X12956740Y7813139D01*
X12943274D01*
X12938156Y7825495D01*
X12925497Y7838153D01*
X12908958Y7845004D01*
X12891055D01*
X12874516Y7838153D01*
X12861858Y7825495D01*
X12855006Y7808955D01*
Y7791053D01*
X12861858Y7774514D01*
X12874516Y7761855D01*
X12886871Y7756737D01*
Y7743271D01*
X12874516Y7738153D01*
X12861858Y7725495D01*
X12855006Y7708955D01*
Y7691053D01*
X12861858Y7674514D01*
X12874516Y7661855D01*
X12886871Y7656737D01*
Y7643271D01*
X12874516Y7638153D01*
X12861858Y7625495D01*
X12856740Y7613139D01*
X12843274D01*
X12838156Y7625495D01*
X12825497Y7638153D01*
X12808958Y7645004D01*
X12791056D01*
X12774516Y7638153D01*
X12761858Y7625495D01*
X12756740Y7613139D01*
X12743274D01*
X12738156Y7625495D01*
X12725497Y7638153D01*
X12708958Y7645004D01*
X12691056D01*
X12674516Y7638153D01*
X12661858Y7625495D01*
X12656740Y7613139D01*
X12643274D01*
X12638156Y7625495D01*
X12625497Y7638153D01*
X12608958Y7645004D01*
X12591056D01*
X12574516Y7638153D01*
X12561858Y7625495D01*
X12556740Y7613139D01*
X12543274D01*
X12538156Y7625495D01*
X12525497Y7638153D01*
X12508958Y7645004D01*
X12491056D01*
X12474516Y7638153D01*
X12461858Y7625495D01*
X12456740Y7613139D01*
X12443274D01*
X12438156Y7625495D01*
X12425497Y7638153D01*
X12408958Y7645004D01*
X12391056D01*
X12374516Y7638153D01*
X12361858Y7625495D01*
X12356740Y7613139D01*
X12343274D01*
X12338156Y7625495D01*
X12325497Y7638153D01*
X12308958Y7645004D01*
X12291056D01*
X12274516Y7638153D01*
X12261858Y7625495D01*
X12256740Y7613139D01*
X12243273D01*
X12238156Y7625495D01*
X12225497Y7638153D01*
X12208958Y7645004D01*
X12191056D01*
X12174516Y7638153D01*
X12161858Y7625495D01*
X12156740Y7613139D01*
X12143273D01*
X12138156Y7625495D01*
X12125497Y7638153D01*
X12108957Y7645004D01*
X12091056D01*
X12074516Y7638153D01*
X12061858Y7625495D01*
X12056740Y7613139D01*
X12043273D01*
X12038156Y7625495D01*
X12025497Y7638153D01*
X12008957Y7645004D01*
X11991056D01*
X11974516Y7638153D01*
X11961857Y7625495D01*
X11956740Y7613139D01*
X11943273D01*
X11938155Y7625495D01*
X11925497Y7638153D01*
X11908957Y7645004D01*
X11891055D01*
X11874516Y7638153D01*
X11861857Y7625495D01*
X11855007Y7608955D01*
Y7591053D01*
X11861857Y7574514D01*
X11874516Y7561855D01*
X11891055Y7555004D01*
X11908957D01*
X11925497Y7561855D01*
X11938155Y7574514D01*
X11943273Y7586869D01*
X11956740D01*
X11961857Y7574514D01*
X11974516Y7561855D01*
X11991056Y7555004D01*
X12008957D01*
X12025497Y7561855D01*
X12038156Y7574514D01*
X12043273Y7586869D01*
X12056740D01*
X12061858Y7574514D01*
X12074516Y7561855D01*
X12091056Y7555004D01*
X12108957D01*
X12125497Y7561855D01*
X12138156Y7574514D01*
X12143273Y7586869D01*
X12156740D01*
X12161858Y7574514D01*
X12174516Y7561855D01*
X12191056Y7555004D01*
X12208958D01*
X12225497Y7561855D01*
X12238156Y7574514D01*
X12243273Y7586869D01*
X12256740D01*
X12261858Y7574514D01*
X12274516Y7561855D01*
X12291056Y7555004D01*
X12308958D01*
X12325497Y7561855D01*
X12338156Y7574514D01*
X12343274Y7586869D01*
X12356740D01*
X12361858Y7574514D01*
X12374516Y7561855D01*
X12391056Y7555004D01*
X12408958D01*
X12425497Y7561855D01*
X12438156Y7574514D01*
X12443274Y7586869D01*
X12456740D01*
X12461858Y7574514D01*
X12474516Y7561855D01*
X12491056Y7555004D01*
X12508958D01*
X12525497Y7561855D01*
X12538156Y7574514D01*
X12543274Y7586869D01*
X12556740D01*
X12561858Y7574514D01*
X12574516Y7561855D01*
X12591056Y7555004D01*
X12608958D01*
X12625497Y7561855D01*
X12638156Y7574514D01*
X12643274Y7586869D01*
X12656740D01*
X12661858Y7574514D01*
X12674516Y7561855D01*
X12691056Y7555004D01*
X12708958D01*
X12725497Y7561855D01*
X12738156Y7574514D01*
X12743274Y7586869D01*
X12756740D01*
X12761858Y7574514D01*
X12774516Y7561855D01*
X12791056Y7555004D01*
X12808958D01*
X12825497Y7561855D01*
X12838156Y7574514D01*
X12843274Y7586869D01*
X12856740D01*
X12861858Y7574514D01*
X12874516Y7561855D01*
X12886871Y7556737D01*
Y7543271D01*
X12874516Y7538153D01*
X12861858Y7525494D01*
X12855006Y7508955D01*
Y7491053D01*
X12861858Y7474514D01*
X12874516Y7461855D01*
X12886871Y7456737D01*
Y7443271D01*
X12874516Y7438153D01*
X12861858Y7425494D01*
X12855006Y7408955D01*
Y7391053D01*
X12861858Y7374514D01*
X12874516Y7361855D01*
X12886871Y7356737D01*
Y7343271D01*
X12874516Y7338153D01*
X12861858Y7325494D01*
X12855006Y7308955D01*
Y7291053D01*
X12861858Y7274514D01*
X12874516Y7261855D01*
X12891055Y7255004D01*
X12908958D01*
X12925497Y7261855D01*
X12938156Y7274514D01*
X12943274Y7286869D01*
X12956740D01*
X12961858Y7274514D01*
X12974516Y7261855D01*
X12986871Y7256737D01*
Y7243271D01*
X12974516Y7238153D01*
X12961858Y7225494D01*
X12955006Y7208955D01*
Y7191053D01*
X12961858Y7174513D01*
X12974516Y7161855D01*
X12991055Y7155004D01*
X13008958D01*
X13025497Y7161855D01*
X13038156Y7174513D01*
X13045007Y7191053D01*
Y7208955D01*
X13038156Y7225494D01*
X13025497Y7238153D01*
X13013142Y7243271D01*
Y7256737D01*
X13025497Y7261855D01*
X13038156Y7274514D01*
X13045007Y7291053D01*
Y7308955D01*
X13038156Y7325494D01*
X13025497Y7338153D01*
X13013142Y7343271D01*
Y7356737D01*
X13025497Y7361855D01*
X13038156Y7374514D01*
X13043274Y7386869D01*
X13056740D01*
X13061858Y7374514D01*
X13074516Y7361855D01*
X13091055Y7355004D01*
X13108958D01*
X13125497Y7361855D01*
X13138156Y7374514D01*
X13143274Y7386869D01*
X13156740D01*
X13161858Y7374514D01*
X13174516Y7361855D01*
X13191055Y7355004D01*
X13208958D01*
X13225497Y7361855D01*
X13238156Y7374514D01*
X13243274Y7386869D01*
X13256740D01*
X13261858Y7374514D01*
X13274516Y7361855D01*
X13291055Y7355004D01*
X13308958D01*
X13325497Y7361855D01*
X13338156Y7374514D01*
X13343274Y7386869D01*
X13356740D01*
X13361858Y7374514D01*
X13374516Y7361855D01*
X13386871Y7356737D01*
Y7343271D01*
X13374516Y7338153D01*
X13361858Y7325494D01*
X13355006Y7308955D01*
Y7291053D01*
X13361858Y7274514D01*
X13374516Y7261855D01*
X13386871Y7256737D01*
Y7243271D01*
X13374516Y7238153D01*
X13361858Y7225494D01*
X13355006Y7208955D01*
Y7191053D01*
X13361858Y7174513D01*
X13374516Y7161855D01*
X13386871Y7156737D01*
Y7143271D01*
X13374516Y7138153D01*
X13361858Y7125494D01*
X13355006Y7108955D01*
Y7091053D01*
X13361858Y7074513D01*
X13374516Y7061855D01*
X13391055Y7055004D01*
X13408958D01*
X13425497Y7061855D01*
X13438156Y7074513D01*
X13443274Y7086869D01*
X13456740D01*
X13461858Y7074513D01*
X13474516Y7061855D01*
X13491055Y7055004D01*
X13508958D01*
X13525497Y7061855D01*
X13538156Y7074513D01*
X13545007Y7091053D01*
Y7108955D01*
X13538156Y7125494D01*
X13525497Y7138153D01*
X13513142Y7143271D01*
Y7156737D01*
X13525497Y7161855D01*
X13538156Y7174513D01*
X13545007Y7191053D01*
Y7208955D01*
X13538156Y7225494D01*
X13525497Y7238153D01*
X13513142Y7243271D01*
Y7256737D01*
X13525497Y7261855D01*
X13538156Y7274514D01*
X13545007Y7291053D01*
Y7308955D01*
X13538156Y7325494D01*
X13525497Y7338153D01*
X13513142Y7343271D01*
Y7356737D01*
X13525497Y7361855D01*
X13538156Y7374514D01*
X13543274Y7386869D01*
X13556740D01*
X13561858Y7374514D01*
X13574516Y7361855D01*
X13591055Y7355004D01*
X13608958D01*
X13625497Y7361855D01*
X13638156Y7374514D01*
X13643274Y7386869D01*
X13656741D01*
X13661858Y7374514D01*
X13674516Y7361855D01*
X13691055Y7355004D01*
X13708958D01*
X13725497Y7361855D01*
X13738156Y7374514D01*
X13743274Y7386869D01*
X13756741D01*
X13761858Y7374514D01*
X13774516Y7361855D01*
X13791055Y7355004D01*
X13808958D01*
X13825497Y7361855D01*
X13838156Y7374514D01*
X13843274Y7386869D01*
X13856741D01*
X13861858Y7374514D01*
X13874516Y7361855D01*
X13886871Y7356737D01*
Y7343271D01*
X13874516Y7338153D01*
X13861858Y7325494D01*
X13855008Y7308955D01*
Y7291053D01*
X13861858Y7274514D01*
X13874516Y7261855D01*
X13886871Y7256737D01*
Y7243271D01*
X13874516Y7238153D01*
X13861858Y7225494D01*
X13855008Y7208955D01*
Y7191053D01*
X13861858Y7174513D01*
X13874516Y7161855D01*
X13886871Y7156737D01*
Y7143271D01*
X13874516Y7138153D01*
X13861858Y7125494D01*
X13855008Y7108955D01*
Y7091053D01*
X13861858Y7074513D01*
X13874516Y7061855D01*
X13891057Y7055004D01*
X13908958D01*
X13925497Y7061855D01*
X13938158Y7074513D01*
X13943274Y7086869D01*
X13956741D01*
X13961859Y7074513D01*
X13974516Y7061855D01*
X13991057Y7055004D01*
X14008958D01*
X14025497Y7061855D01*
X14038158Y7074513D01*
X14043274Y7086869D01*
X14056741D01*
X14061859Y7074513D01*
X14074516Y7061855D01*
X14091057Y7055004D01*
X14108958D01*
X14125497Y7061855D01*
X14138158Y7074513D01*
X14145007Y7091053D01*
Y7108955D01*
X14138158Y7125494D01*
X14125497Y7138153D01*
X14113142Y7143271D01*
Y7156737D01*
X14125497Y7161855D01*
X14138158Y7174513D01*
X14145007Y7191053D01*
Y7208955D01*
X14138158Y7225494D01*
X14125497Y7238153D01*
X14113142Y7243271D01*
Y7256737D01*
X14125497Y7261855D01*
X14138158Y7274514D01*
X14145007Y7291053D01*
Y7308955D01*
X14138158Y7325494D01*
X14125497Y7338153D01*
X14113142Y7343271D01*
Y7356737D01*
X14125497Y7361855D01*
X14138158Y7374514D01*
X14143274Y7386869D01*
X14156741D01*
X14161859Y7374514D01*
X14174516Y7361855D01*
X14191057Y7355004D01*
X14208958D01*
X14225497Y7361855D01*
X14238158Y7374514D01*
X14243275Y7386869D01*
X14256741D01*
X14261859Y7374514D01*
X14274516Y7361855D01*
X14291057Y7355004D01*
X14308958D01*
X14325497Y7361855D01*
X14338158Y7374514D01*
X14343275Y7386869D01*
X14356741D01*
X14361859Y7374514D01*
X14374516Y7361855D01*
X14391057Y7355004D01*
X14408958D01*
X14425497Y7361855D01*
X14438158Y7374514D01*
X14443275Y7386869D01*
X14456741D01*
X14461859Y7374514D01*
X14474516Y7361855D01*
X14486873Y7356737D01*
Y7343271D01*
X14474516Y7338153D01*
X14461859Y7325494D01*
X14455008Y7308955D01*
Y7291053D01*
X14461859Y7274514D01*
X14474516Y7261855D01*
X14486873Y7256737D01*
Y7243271D01*
X14474516Y7238153D01*
X14461859Y7225494D01*
X14455008Y7208955D01*
Y7191053D01*
X14461859Y7174513D01*
X14474516Y7161855D01*
X14486873Y7156737D01*
Y7143271D01*
X14474516Y7138153D01*
X14461859Y7125494D01*
X14455008Y7108955D01*
Y7091053D01*
X14461859Y7074513D01*
X14474516Y7061855D01*
X14491057Y7055004D01*
X14508958D01*
X14525497Y7061855D01*
X14538158Y7074513D01*
X14543275Y7086869D01*
X14556741D01*
X14561859Y7074513D01*
X14574516Y7061855D01*
X14591057Y7055004D01*
X14608958D01*
X14625497Y7061855D01*
X14638158Y7074513D01*
X14643275Y7086869D01*
X14656741D01*
X14661859Y7074513D01*
X14674518Y7061855D01*
X14691057Y7055004D01*
X14708958D01*
X14725497Y7061855D01*
X14738158Y7074513D01*
X14745007Y7091053D01*
Y7108955D01*
X14738158Y7125494D01*
X14725497Y7138153D01*
X14713142Y7143271D01*
Y7156737D01*
X14725497Y7161855D01*
X14738158Y7174513D01*
X14745007Y7191053D01*
Y7208955D01*
X14738158Y7225494D01*
X14725497Y7238153D01*
X14713142Y7243271D01*
Y7256737D01*
X14725497Y7261855D01*
X14738158Y7274514D01*
X14745007Y7291053D01*
Y7308955D01*
X14738158Y7325494D01*
X14725497Y7338153D01*
X14713142Y7343271D01*
Y7356737D01*
X14725497Y7361855D01*
X14738158Y7374514D01*
X14743275Y7386869D01*
X14756741D01*
X14761859Y7374514D01*
X14774518Y7361855D01*
X14791057Y7355004D01*
X14808958D01*
X14825497Y7361855D01*
X14838158Y7374514D01*
X14843275Y7386869D01*
X14856741D01*
X14861859Y7374514D01*
X14874518Y7361855D01*
X14891057Y7355004D01*
X14908958D01*
X14925497Y7361855D01*
X14938158Y7374514D01*
X14943275Y7386869D01*
X14956741D01*
X14961859Y7374514D01*
X14974518Y7361855D01*
X14991057Y7355004D01*
X15008958D01*
X15025499Y7361855D01*
X15038158Y7374514D01*
X15043275Y7386869D01*
X15056741D01*
X15061859Y7374514D01*
X15074518Y7361855D01*
X15086873Y7356737D01*
Y7343271D01*
X15074518Y7338153D01*
X15061859Y7325494D01*
X15055008Y7308955D01*
Y7291053D01*
X15061859Y7274514D01*
X15074518Y7261855D01*
X15086873Y7256737D01*
Y7243271D01*
X15074518Y7238153D01*
X15061859Y7225494D01*
X15055008Y7208955D01*
Y7191053D01*
X15061859Y7174513D01*
X15074518Y7161855D01*
X15086873Y7156737D01*
Y7143271D01*
X15074518Y7138153D01*
X15061859Y7125494D01*
X15055008Y7108955D01*
Y7091053D01*
X15061859Y7074513D01*
X15074518Y7061855D01*
X15091057Y7055004D01*
X15108958D01*
X15125499Y7061855D01*
X15138158Y7074513D01*
X15143275Y7086869D01*
X15156741D01*
X15161859Y7074513D01*
X15174518Y7061855D01*
X15191057Y7055004D01*
X15208958D01*
X15225499Y7061855D01*
X15238158Y7074513D01*
X15245007Y7091053D01*
Y7108955D01*
X15238158Y7125494D01*
X15225499Y7138153D01*
X15213142Y7143271D01*
Y7156737D01*
X15225499Y7161855D01*
X15238158Y7174513D01*
X15245007Y7191053D01*
Y7208955D01*
X15238158Y7225494D01*
X15225499Y7238153D01*
X15213142Y7243271D01*
Y7256737D01*
X15225499Y7261855D01*
X15238158Y7274514D01*
X15245007Y7291053D01*
Y7308955D01*
X15238158Y7325494D01*
X15225499Y7338153D01*
X15213142Y7343271D01*
Y7356737D01*
X15225499Y7361855D01*
X15238158Y7374514D01*
X15245007Y7391053D01*
Y7408955D01*
X15238158Y7425494D01*
X15225499Y7438153D01*
X15213142Y7443271D01*
Y7456737D01*
X15225499Y7461855D01*
X15238158Y7474514D01*
X15245007Y7491053D01*
Y7508955D01*
X15238158Y7525494D01*
X15225499Y7538153D01*
X15213142Y7543271D01*
Y7556737D01*
X15225499Y7561855D01*
X15238158Y7574514D01*
X15243275Y7586869D01*
X15256741D01*
X15261859Y7574514D01*
X15274518Y7561855D01*
X15291057Y7555004D01*
X15308958D01*
X15325499Y7561855D01*
X15338158Y7574514D01*
X15345007Y7591053D01*
Y7608955D01*
X15338158Y7625495D01*
X15325499Y7638153D01*
X15313142Y7643271D01*
Y7656737D01*
X15325499Y7661855D01*
X15338158Y7674514D01*
X15345007Y7691053D01*
Y7708955D01*
X15338158Y7725495D01*
X15325499Y7738153D01*
X15313142Y7743271D01*
Y7756737D01*
X15325499Y7761855D01*
X15338158Y7774514D01*
X15345007Y7791053D01*
Y7808955D01*
X15338158Y7825495D01*
X15325499Y7838153D01*
X15313142Y7843271D01*
Y7856737D01*
X15325499Y7861855D01*
X15338158Y7874514D01*
X15345007Y7891053D01*
Y7908955D01*
X15338158Y7925495D01*
X15325499Y7938153D01*
X15308958Y7945004D01*
D02*
G37*
G36*
X8888952Y7845001D02*
X8871050D01*
X8854511Y7838150D01*
X8841852Y7825491D01*
X8835001Y7808952D01*
Y7791050D01*
X8841852Y7774510D01*
X8854511Y7761852D01*
X8871050Y7755001D01*
X8888952D01*
X8905491Y7761852D01*
X8918150Y7774510D01*
X8925001Y7791050D01*
Y7808952D01*
X8918150Y7825491D01*
X8905491Y7838150D01*
X8888952Y7845001D01*
D02*
G37*
G36*
X8528952D02*
X8511050D01*
X8494511Y7838150D01*
X8481852Y7825491D01*
X8475001Y7808952D01*
Y7791050D01*
X8481852Y7774510D01*
X8494511Y7761852D01*
X8511050Y7755001D01*
X8528952D01*
X8545491Y7761852D01*
X8558150Y7774510D01*
X8565001Y7791050D01*
Y7808952D01*
X8558150Y7825491D01*
X8545491Y7838150D01*
X8528952Y7845001D01*
D02*
G37*
G36*
X8408952D02*
X8391050D01*
X8374511Y7838150D01*
X8361852Y7825491D01*
X8355001Y7808952D01*
Y7791050D01*
X8361852Y7774510D01*
X8374511Y7761852D01*
X8391050Y7755001D01*
X8408952D01*
X8425491Y7761852D01*
X8438150Y7774510D01*
X8445001Y7791050D01*
Y7808952D01*
X8438150Y7825491D01*
X8425491Y7838150D01*
X8408952Y7845001D01*
D02*
G37*
G36*
X8048952D02*
X8031050D01*
X8014511Y7838150D01*
X8001852Y7825491D01*
X7995001Y7808952D01*
Y7791050D01*
X8001852Y7774510D01*
X8014511Y7761852D01*
X8031050Y7755001D01*
X8048952D01*
X8065491Y7761852D01*
X8078150Y7774510D01*
X8085001Y7791050D01*
Y7808952D01*
X8078150Y7825491D01*
X8065491Y7838150D01*
X8048952Y7845001D01*
D02*
G37*
G36*
X7928952D02*
X7911050D01*
X7894510Y7838150D01*
X7881852Y7825491D01*
X7875001Y7808952D01*
Y7791050D01*
X7881852Y7774510D01*
X7894510Y7761852D01*
X7911050Y7755001D01*
X7928952D01*
X7945491Y7761852D01*
X7958150Y7774510D01*
X7965001Y7791050D01*
Y7808952D01*
X7958150Y7825491D01*
X7945491Y7838150D01*
X7928952Y7845001D01*
D02*
G37*
G36*
X7808952D02*
X7791050D01*
X7774510Y7838150D01*
X7761852Y7825491D01*
X7755001Y7808952D01*
Y7791050D01*
X7761852Y7774510D01*
X7774510Y7761852D01*
X7791050Y7755001D01*
X7808952D01*
X7825491Y7761852D01*
X7838150Y7774510D01*
X7845001Y7791050D01*
Y7808952D01*
X7838150Y7825491D01*
X7825491Y7838150D01*
X7808952Y7845001D01*
D02*
G37*
G36*
X7688952D02*
X7671050D01*
X7654510Y7838150D01*
X7641852Y7825491D01*
X7635001Y7808952D01*
Y7791050D01*
X7641852Y7774510D01*
X7654510Y7761852D01*
X7671050Y7755001D01*
X7688952D01*
X7705491Y7761852D01*
X7718150Y7774510D01*
X7725001Y7791050D01*
Y7808952D01*
X7718150Y7825491D01*
X7705491Y7838150D01*
X7688952Y7845001D01*
D02*
G37*
G36*
X7568952D02*
X7551050D01*
X7534510Y7838150D01*
X7521852Y7825491D01*
X7515001Y7808952D01*
Y7791050D01*
X7521852Y7774510D01*
X7534510Y7761852D01*
X7551050Y7755001D01*
X7568952D01*
X7585491Y7761852D01*
X7598150Y7774510D01*
X7605001Y7791050D01*
Y7808952D01*
X7598150Y7825491D01*
X7585491Y7838150D01*
X7568952Y7845001D01*
D02*
G37*
G36*
X15424300Y7812299D02*
X15380515D01*
Y7759999D01*
X15384814Y7738384D01*
X15397060Y7720058D01*
X15415384Y7707814D01*
X15424300Y7706040D01*
Y7812299D01*
D02*
G37*
G36*
X15779486D02*
X15735699D01*
Y7706040D01*
X15742308Y7707355D01*
X15750755Y7702893D01*
X15755009Y7699483D01*
Y7691053D01*
X15761861Y7674514D01*
X15774518Y7661855D01*
X15791058Y7655004D01*
X15808958D01*
X15825499Y7661855D01*
X15838158Y7674514D01*
X15845007Y7691053D01*
Y7708955D01*
X15838158Y7725495D01*
X15825499Y7738153D01*
X15808958Y7745004D01*
X15791058D01*
X15787640Y7743589D01*
X15777824Y7751646D01*
X15779486Y7759999D01*
Y7812299D01*
D02*
G37*
G36*
X11708957Y7845004D02*
X11691055D01*
X11674516Y7838153D01*
X11661857Y7825495D01*
X11655006Y7808955D01*
Y7791053D01*
X11661857Y7774514D01*
X11674516Y7761855D01*
X11686871Y7756737D01*
Y7743271D01*
X11674516Y7738153D01*
X11661857Y7725495D01*
X11655006Y7708955D01*
Y7691053D01*
X11661857Y7674514D01*
X11674516Y7661855D01*
X11691055Y7655004D01*
X11708957D01*
X11725497Y7661855D01*
X11738155Y7674514D01*
X11745006Y7691053D01*
Y7708955D01*
X11738155Y7725495D01*
X11725497Y7738153D01*
X11713141Y7743271D01*
Y7756737D01*
X11725497Y7761855D01*
X11738155Y7774514D01*
X11745006Y7791053D01*
Y7808955D01*
X11738155Y7825495D01*
X11725497Y7838153D01*
X11708957Y7845004D01*
D02*
G37*
G36*
X9128952Y7725001D02*
X9111050D01*
X9094511Y7718150D01*
X9081852Y7705491D01*
X9075001Y7688952D01*
Y7671050D01*
X9081852Y7654510D01*
X9094511Y7641852D01*
X9111050Y7635001D01*
X9128952D01*
X9145491Y7641852D01*
X9158150Y7654510D01*
X9165001Y7671050D01*
Y7688952D01*
X9158150Y7705491D01*
X9145491Y7718150D01*
X9128952Y7725001D01*
D02*
G37*
G36*
X9008952D02*
X8991050D01*
X8974511Y7718150D01*
X8961852Y7705491D01*
X8955001Y7688952D01*
Y7671050D01*
X8961852Y7654510D01*
X8974511Y7641852D01*
X8991050Y7635001D01*
X9008952D01*
X9025491Y7641852D01*
X9038150Y7654510D01*
X9045001Y7671050D01*
Y7688952D01*
X9038150Y7705491D01*
X9025491Y7718150D01*
X9008952Y7725001D01*
D02*
G37*
G36*
X8528952D02*
X8511050D01*
X8494511Y7718150D01*
X8481852Y7705491D01*
X8475001Y7688952D01*
Y7671050D01*
X8481852Y7654510D01*
X8494511Y7641852D01*
X8511050Y7635001D01*
X8528952D01*
X8545491Y7641852D01*
X8558150Y7654510D01*
X8565001Y7671050D01*
Y7688952D01*
X8558150Y7705491D01*
X8545491Y7718150D01*
X8528952Y7725001D01*
D02*
G37*
G36*
X8408952D02*
X8391050D01*
X8374511Y7718150D01*
X8361852Y7705491D01*
X8355001Y7688952D01*
Y7671050D01*
X8361852Y7654510D01*
X8374511Y7641852D01*
X8391050Y7635001D01*
X8408952D01*
X8425491Y7641852D01*
X8438150Y7654510D01*
X8445001Y7671050D01*
Y7688952D01*
X8438150Y7705491D01*
X8425491Y7718150D01*
X8408952Y7725001D01*
D02*
G37*
G36*
X7928952D02*
X7911050D01*
X7894510Y7718150D01*
X7881852Y7705491D01*
X7875001Y7688952D01*
Y7671050D01*
X7881852Y7654510D01*
X7894510Y7641852D01*
X7911050Y7635001D01*
X7928952D01*
X7945491Y7641852D01*
X7958150Y7654510D01*
X7965001Y7671050D01*
Y7688952D01*
X7958150Y7705491D01*
X7945491Y7718150D01*
X7928952Y7725001D01*
D02*
G37*
G36*
X7808952D02*
X7791050D01*
X7774510Y7718150D01*
X7761852Y7705491D01*
X7755001Y7688952D01*
Y7671050D01*
X7761852Y7654510D01*
X7774510Y7641852D01*
X7791050Y7635001D01*
X7808952D01*
X7825491Y7641852D01*
X7838150Y7654510D01*
X7845001Y7671050D01*
Y7688952D01*
X7838150Y7705491D01*
X7825491Y7718150D01*
X7808952Y7725001D01*
D02*
G37*
G36*
X7688952D02*
X7671050D01*
X7654510Y7718150D01*
X7641852Y7705491D01*
X7635001Y7688952D01*
Y7671050D01*
X7641852Y7654510D01*
X7654510Y7641852D01*
X7671050Y7635001D01*
X7688952D01*
X7705491Y7641852D01*
X7718150Y7654510D01*
X7725001Y7671050D01*
Y7688952D01*
X7718150Y7705491D01*
X7705491Y7718150D01*
X7688952Y7725001D01*
D02*
G37*
G36*
X7206365Y7950750D02*
X7153635D01*
X7101554Y7942501D01*
X7051404Y7926206D01*
X7004422Y7902267D01*
X6961762Y7871273D01*
X6924476Y7833988D01*
X6893482Y7791328D01*
X6869543Y7744345D01*
X6853249Y7694196D01*
X6845000Y7642115D01*
Y7589385D01*
X6853249Y7537304D01*
X6869543Y7487154D01*
X6893482Y7440172D01*
X6924476Y7397512D01*
X6961762Y7360226D01*
X7004422Y7329232D01*
X7051404Y7305293D01*
X7101554Y7288999D01*
X7153635Y7280750D01*
X7206365D01*
X7258446Y7288999D01*
X7308595Y7305293D01*
X7355578Y7329232D01*
X7398238Y7360226D01*
X7435523Y7397512D01*
X7466517Y7440172D01*
X7490456Y7487154D01*
X7506751Y7537304D01*
X7506805Y7537649D01*
X7519910Y7539200D01*
X7521852Y7534510D01*
X7534510Y7521852D01*
X7551050Y7515001D01*
X7568952D01*
X7585491Y7521852D01*
X7598150Y7534510D01*
X7605001Y7551050D01*
Y7568952D01*
X7598150Y7585491D01*
X7585491Y7598150D01*
X7568952Y7605001D01*
X7551050D01*
X7534510Y7598150D01*
X7527700Y7591339D01*
X7515000Y7596600D01*
Y7642115D01*
X7514757Y7643644D01*
X7526656Y7649707D01*
X7534510Y7641852D01*
X7551050Y7635001D01*
X7568952D01*
X7585491Y7641852D01*
X7598150Y7654510D01*
X7605001Y7671050D01*
Y7688952D01*
X7598150Y7705491D01*
X7585491Y7718150D01*
X7568952Y7725001D01*
X7551050D01*
X7534510Y7718150D01*
X7521852Y7705491D01*
X7518816Y7698162D01*
X7505290Y7698693D01*
X7490456Y7744345D01*
X7466517Y7791328D01*
X7435523Y7833988D01*
X7398238Y7871273D01*
X7355578Y7902267D01*
X7308595Y7926206D01*
X7258446Y7942501D01*
X7206365Y7950750D01*
D02*
G37*
G36*
X11008957Y7745004D02*
X10991055D01*
X10974516Y7738153D01*
X10961857Y7725495D01*
X10955006Y7708955D01*
Y7691053D01*
X10961857Y7674514D01*
X10974516Y7661855D01*
X10986871Y7656737D01*
Y7643271D01*
X10974516Y7638153D01*
X10961857Y7625495D01*
X10956739Y7613139D01*
X10943273D01*
X10938155Y7625495D01*
X10925496Y7638153D01*
X10908957Y7645004D01*
X10891055D01*
X10874515Y7638153D01*
X10861857Y7625495D01*
X10855006Y7608955D01*
Y7591053D01*
X10861857Y7574514D01*
X10874515Y7561855D01*
X10886871Y7556737D01*
Y7543271D01*
X10874515Y7538153D01*
X10861857Y7525494D01*
X10856739Y7513139D01*
X10843273D01*
X10838155Y7525494D01*
X10825496Y7538153D01*
X10808957Y7545004D01*
X10791055D01*
X10774515Y7538153D01*
X10761857Y7525494D01*
X10755006Y7508955D01*
Y7491053D01*
X10761857Y7474514D01*
X10774515Y7461855D01*
X10786871Y7456737D01*
Y7443271D01*
X10774515Y7438153D01*
X10761857Y7425494D01*
X10756739Y7413139D01*
X10743273D01*
X10738155Y7425494D01*
X10725496Y7438153D01*
X10708957Y7445004D01*
X10691055D01*
X10674515Y7438153D01*
X10661857Y7425494D01*
X10655006Y7408955D01*
Y7391053D01*
X10661857Y7374514D01*
X10670698Y7365672D01*
X10674515Y7361855D01*
X10668896Y7350881D01*
X10658951Y7355000D01*
X10641049D01*
X10624510Y7348149D01*
X10611851Y7335491D01*
X10605000Y7318951D01*
Y7301049D01*
X10611851Y7284510D01*
X10624510Y7271851D01*
X10641049Y7265000D01*
X10658951D01*
X10675490Y7271851D01*
X10688149Y7284510D01*
X10695000Y7301049D01*
Y7318951D01*
X10688149Y7335491D01*
X10679307Y7344332D01*
X10675491Y7348149D01*
X10681109Y7359123D01*
X10691055Y7355004D01*
X10708957D01*
X10725496Y7361855D01*
X10738155Y7374514D01*
X10743273Y7386869D01*
X10756739D01*
X10761857Y7374514D01*
X10774515Y7361855D01*
X10791055Y7355004D01*
X10808957D01*
X10825496Y7361855D01*
X10838155Y7374514D01*
X10843273Y7386869D01*
X10856739D01*
X10861857Y7374514D01*
X10874515Y7361855D01*
X10891055Y7355004D01*
X10908957D01*
X10925496Y7361855D01*
X10938155Y7374514D01*
X10943273Y7386869D01*
X10956739D01*
X10961857Y7374514D01*
X10974516Y7361855D01*
X10991055Y7355004D01*
X11008957D01*
X11025496Y7361855D01*
X11038155Y7374514D01*
X11045006Y7391053D01*
Y7408955D01*
X11038155Y7425494D01*
X11025496Y7438153D01*
X11013141Y7443271D01*
Y7456737D01*
X11025496Y7461855D01*
X11038155Y7474514D01*
X11045006Y7491053D01*
Y7508955D01*
X11038155Y7525494D01*
X11025496Y7538153D01*
X11013141Y7543271D01*
Y7556737D01*
X11025496Y7561855D01*
X11038155Y7574514D01*
X11045006Y7591053D01*
Y7608955D01*
X11038155Y7625495D01*
X11025496Y7638153D01*
X11013141Y7643271D01*
Y7656737D01*
X11025496Y7661855D01*
X11038155Y7674514D01*
X11045006Y7691053D01*
Y7708955D01*
X11038155Y7725495D01*
X11025496Y7738153D01*
X11008957Y7745004D01*
D02*
G37*
G36*
X9128952Y7605001D02*
X9111050D01*
X9094511Y7598150D01*
X9081852Y7585491D01*
X9075001Y7568952D01*
Y7551050D01*
X9081852Y7534510D01*
X9094511Y7521852D01*
X9111050Y7515001D01*
X9128952D01*
X9145491Y7521852D01*
X9158150Y7534510D01*
X9165001Y7551050D01*
Y7568952D01*
X9158150Y7585491D01*
X9145491Y7598150D01*
X9128952Y7605001D01*
D02*
G37*
G36*
X9008952D02*
X8991050D01*
X8974511Y7598150D01*
X8961852Y7585491D01*
X8955001Y7568952D01*
Y7551050D01*
X8961852Y7534510D01*
X8974511Y7521852D01*
X8991050Y7515001D01*
X9008952D01*
X9025491Y7521852D01*
X9038150Y7534510D01*
X9045001Y7551050D01*
Y7568952D01*
X9038150Y7585491D01*
X9025491Y7598150D01*
X9008952Y7605001D01*
D02*
G37*
G36*
X8528952D02*
X8511050D01*
X8494511Y7598150D01*
X8481852Y7585491D01*
X8475001Y7568952D01*
Y7551050D01*
X8481852Y7534510D01*
X8494511Y7521852D01*
X8511050Y7515001D01*
X8528952D01*
X8545491Y7521852D01*
X8558150Y7534510D01*
X8565001Y7551050D01*
Y7568952D01*
X8558150Y7585491D01*
X8545491Y7598150D01*
X8528952Y7605001D01*
D02*
G37*
G36*
X8408952D02*
X8391050D01*
X8374511Y7598150D01*
X8361852Y7585491D01*
X8355001Y7568952D01*
Y7551050D01*
X8361852Y7534510D01*
X8374511Y7521852D01*
X8391050Y7515001D01*
X8408952D01*
X8425491Y7521852D01*
X8438150Y7534510D01*
X8445001Y7551050D01*
Y7568952D01*
X8438150Y7585491D01*
X8425491Y7598150D01*
X8408952Y7605001D01*
D02*
G37*
G36*
X7928952D02*
X7911050D01*
X7894510Y7598150D01*
X7881852Y7585491D01*
X7875001Y7568952D01*
Y7551050D01*
X7881852Y7534510D01*
X7894510Y7521852D01*
X7911050Y7515001D01*
X7928952D01*
X7945491Y7521852D01*
X7958150Y7534510D01*
X7965001Y7551050D01*
Y7568952D01*
X7958150Y7585491D01*
X7945491Y7598150D01*
X7928952Y7605001D01*
D02*
G37*
G36*
X7808952D02*
X7791050D01*
X7774510Y7598150D01*
X7761852Y7585491D01*
X7755001Y7568952D01*
Y7551050D01*
X7761852Y7534510D01*
X7774510Y7521852D01*
X7791050Y7515001D01*
X7808952D01*
X7825491Y7521852D01*
X7838150Y7534510D01*
X7845001Y7551050D01*
Y7568952D01*
X7838150Y7585491D01*
X7825491Y7598150D01*
X7808952Y7605001D01*
D02*
G37*
G36*
X7688952D02*
X7671050D01*
X7654510Y7598150D01*
X7641852Y7585491D01*
X7635001Y7568952D01*
Y7551050D01*
X7641852Y7534510D01*
X7654510Y7521852D01*
X7671050Y7515001D01*
X7688952D01*
X7705491Y7521852D01*
X7718150Y7534510D01*
X7725001Y7551050D01*
Y7568952D01*
X7718150Y7585491D01*
X7705491Y7598150D01*
X7688952Y7605001D01*
D02*
G37*
G36*
X10228951Y7645000D02*
X10211049D01*
X10194510Y7638149D01*
X10181851Y7625490D01*
X10175000Y7608951D01*
Y7591049D01*
X10176394Y7587684D01*
X10016734Y7428024D01*
X10014432Y7428618D01*
X10005001Y7434251D01*
Y7448952D01*
X9998150Y7465491D01*
X9985492Y7478150D01*
X9974361Y7482760D01*
X9969217Y7492489D01*
X9969395Y7497517D01*
X9975000Y7511049D01*
Y7528951D01*
X9968149Y7545490D01*
X9955490Y7558149D01*
X9938951Y7565000D01*
X9921049D01*
X9904510Y7558149D01*
X9891851Y7545490D01*
X9885000Y7528951D01*
Y7511049D01*
X9891851Y7494510D01*
X9904510Y7481851D01*
X9915641Y7477240D01*
X9920784Y7467511D01*
X9920606Y7462483D01*
X9915001Y7448952D01*
Y7431050D01*
X9916389Y7427700D01*
X9907903Y7415000D01*
X9901049D01*
X9884510Y7408149D01*
X9871851Y7395490D01*
X9865000Y7378951D01*
Y7361049D01*
X9871851Y7344510D01*
X9884510Y7331851D01*
X9901049Y7325000D01*
X9918951D01*
X9935490Y7331851D01*
X9948149Y7344510D01*
X9955000Y7361049D01*
Y7378951D01*
X9955734Y7379897D01*
X9962350Y7386470D01*
X9964166Y7385078D01*
X9969035Y7375832D01*
X9967875Y7370000D01*
Y6550000D01*
X9969559Y6541533D01*
X9974355Y6534355D01*
X10414355Y6094355D01*
X10421533Y6089559D01*
X10430000Y6087875D01*
X11468836D01*
X11575646Y5981064D01*
X11573000Y5971190D01*
Y5948810D01*
X11578793Y5927191D01*
X11589983Y5907809D01*
X11605809Y5891983D01*
X11625191Y5880793D01*
X11646810Y5875000D01*
X11669191D01*
X11690809Y5880793D01*
X11710191Y5891983D01*
X11726017Y5907809D01*
X11737207Y5927191D01*
X11743000Y5948810D01*
Y5971190D01*
X11737207Y5992809D01*
X11726017Y6012191D01*
X11710191Y6028017D01*
X11690809Y6039207D01*
X11669191Y6045000D01*
X11646810D01*
X11625191Y6039207D01*
X11605809Y6028017D01*
X11598541Y6020749D01*
X11493645Y6125645D01*
X11486467Y6130441D01*
X11478000Y6132125D01*
X10439165D01*
X10012125Y6559165D01*
Y7360835D01*
X10207684Y7556394D01*
X10211049Y7555000D01*
X10228951D01*
X10245491Y7561851D01*
X10258149Y7574510D01*
X10265000Y7591049D01*
Y7608951D01*
X10258149Y7625490D01*
X10245491Y7638149D01*
X10228951Y7645000D01*
D02*
G37*
G36*
X9728952Y7485001D02*
X9711050D01*
X9694511Y7478150D01*
X9681852Y7465491D01*
X9675001Y7448952D01*
Y7431050D01*
X9681852Y7414510D01*
X9694511Y7401852D01*
X9711050Y7395001D01*
X9728952D01*
X9745492Y7401852D01*
X9758150Y7414510D01*
X9765001Y7431050D01*
Y7448952D01*
X9758150Y7465491D01*
X9745492Y7478150D01*
X9728952Y7485001D01*
D02*
G37*
G36*
X9128952D02*
X9111050D01*
X9094511Y7478150D01*
X9081852Y7465491D01*
X9075001Y7448952D01*
Y7431050D01*
X9081852Y7414510D01*
X9094511Y7401852D01*
X9111050Y7395001D01*
X9128952D01*
X9145491Y7401852D01*
X9158150Y7414510D01*
X9165001Y7431050D01*
Y7448952D01*
X9158150Y7465491D01*
X9145491Y7478150D01*
X9128952Y7485001D01*
D02*
G37*
G36*
X9008952D02*
X8991050D01*
X8974511Y7478150D01*
X8961852Y7465491D01*
X8955001Y7448952D01*
Y7431050D01*
X8961852Y7414510D01*
X8974511Y7401852D01*
X8991050Y7395001D01*
X9008952D01*
X9025491Y7401852D01*
X9038150Y7414510D01*
X9045001Y7431050D01*
Y7448952D01*
X9038150Y7465491D01*
X9025491Y7478150D01*
X9008952Y7485001D01*
D02*
G37*
G36*
X8888952D02*
X8871050D01*
X8854511Y7478150D01*
X8841852Y7465491D01*
X8835001Y7448952D01*
Y7431050D01*
X8841852Y7414510D01*
X8854511Y7401852D01*
X8871050Y7395001D01*
X8888952D01*
X8905491Y7401852D01*
X8918150Y7414510D01*
X8925001Y7431050D01*
Y7448952D01*
X8918150Y7465491D01*
X8905491Y7478150D01*
X8888952Y7485001D01*
D02*
G37*
G36*
X8768952D02*
X8751050D01*
X8734511Y7478150D01*
X8721852Y7465491D01*
X8715001Y7448952D01*
Y7431050D01*
X8721852Y7414510D01*
X8734511Y7401852D01*
X8751050Y7395001D01*
X8768952D01*
X8785491Y7401852D01*
X8798150Y7414510D01*
X8805001Y7431050D01*
Y7448952D01*
X8798150Y7465491D01*
X8785491Y7478150D01*
X8768952Y7485001D01*
D02*
G37*
G36*
X8648952D02*
X8631050D01*
X8614511Y7478150D01*
X8601852Y7465491D01*
X8595001Y7448952D01*
Y7431050D01*
X8601852Y7414510D01*
X8614511Y7401852D01*
X8631050Y7395001D01*
X8648952D01*
X8665491Y7401852D01*
X8678150Y7414510D01*
X8685001Y7431050D01*
Y7448952D01*
X8678150Y7465491D01*
X8665491Y7478150D01*
X8648952Y7485001D01*
D02*
G37*
G36*
X8528952D02*
X8511050D01*
X8494511Y7478150D01*
X8481852Y7465491D01*
X8475001Y7448952D01*
Y7431050D01*
X8481852Y7414510D01*
X8494511Y7401852D01*
X8511050Y7395001D01*
X8528952D01*
X8545491Y7401852D01*
X8558150Y7414510D01*
X8565001Y7431050D01*
Y7448952D01*
X8558150Y7465491D01*
X8545491Y7478150D01*
X8528952Y7485001D01*
D02*
G37*
G36*
X8408952D02*
X8391050D01*
X8374511Y7478150D01*
X8361852Y7465491D01*
X8355001Y7448952D01*
Y7431050D01*
X8361852Y7414510D01*
X8374511Y7401852D01*
X8391050Y7395001D01*
X8408952D01*
X8425491Y7401852D01*
X8438150Y7414510D01*
X8445001Y7431050D01*
Y7448952D01*
X8438150Y7465491D01*
X8425491Y7478150D01*
X8408952Y7485001D01*
D02*
G37*
G36*
X8288952D02*
X8271050D01*
X8254511Y7478150D01*
X8241852Y7465491D01*
X8235001Y7448952D01*
Y7431050D01*
X8241852Y7414510D01*
X8254511Y7401852D01*
X8271050Y7395001D01*
X8288952D01*
X8305491Y7401852D01*
X8318150Y7414510D01*
X8325001Y7431050D01*
Y7448952D01*
X8318150Y7465491D01*
X8305491Y7478150D01*
X8288952Y7485001D01*
D02*
G37*
G36*
X8168952D02*
X8151050D01*
X8134511Y7478150D01*
X8121852Y7465491D01*
X8115001Y7448952D01*
Y7431050D01*
X8121852Y7414510D01*
X8134511Y7401852D01*
X8151050Y7395001D01*
X8168952D01*
X8185491Y7401852D01*
X8198150Y7414510D01*
X8205001Y7431050D01*
Y7448952D01*
X8198150Y7465491D01*
X8185491Y7478150D01*
X8168952Y7485001D01*
D02*
G37*
G36*
X8048952D02*
X8031050D01*
X8014511Y7478150D01*
X8001852Y7465491D01*
X7995001Y7448952D01*
Y7431050D01*
X8001852Y7414510D01*
X8014511Y7401852D01*
X8031050Y7395001D01*
X8048952D01*
X8065491Y7401852D01*
X8078150Y7414510D01*
X8085001Y7431050D01*
Y7448952D01*
X8078150Y7465491D01*
X8065491Y7478150D01*
X8048952Y7485001D01*
D02*
G37*
G36*
X7928952D02*
X7911050D01*
X7894510Y7478150D01*
X7881852Y7465491D01*
X7875001Y7448952D01*
Y7431050D01*
X7881852Y7414510D01*
X7894510Y7401852D01*
X7911050Y7395001D01*
X7928952D01*
X7945491Y7401852D01*
X7958150Y7414510D01*
X7965001Y7431050D01*
Y7448952D01*
X7958150Y7465491D01*
X7945491Y7478150D01*
X7928952Y7485001D01*
D02*
G37*
G36*
X7808952D02*
X7791050D01*
X7774510Y7478150D01*
X7761852Y7465491D01*
X7755001Y7448952D01*
Y7431050D01*
X7761852Y7414510D01*
X7774510Y7401852D01*
X7791050Y7395001D01*
X7808952D01*
X7825491Y7401852D01*
X7838150Y7414510D01*
X7845001Y7431050D01*
Y7448952D01*
X7838150Y7465491D01*
X7825491Y7478150D01*
X7808952Y7485001D01*
D02*
G37*
G36*
X7688952D02*
X7671050D01*
X7654510Y7478150D01*
X7641852Y7465491D01*
X7635001Y7448952D01*
Y7431050D01*
X7641852Y7414510D01*
X7654510Y7401852D01*
X7671050Y7395001D01*
X7688952D01*
X7705491Y7401852D01*
X7718150Y7414510D01*
X7725001Y7431050D01*
Y7448952D01*
X7718150Y7465491D01*
X7705491Y7478150D01*
X7688952Y7485001D01*
D02*
G37*
G36*
X7568952D02*
X7551050D01*
X7534510Y7478150D01*
X7521852Y7465491D01*
X7515001Y7448952D01*
Y7431050D01*
X7521852Y7414510D01*
X7534510Y7401852D01*
X7551050Y7395001D01*
X7568952D01*
X7585491Y7401852D01*
X7598150Y7414510D01*
X7605001Y7431050D01*
Y7448952D01*
X7598150Y7465491D01*
X7585491Y7478150D01*
X7568952Y7485001D01*
D02*
G37*
G36*
X11708957Y7545004D02*
X11691055D01*
X11674516Y7538153D01*
X11661857Y7525494D01*
X11655006Y7508955D01*
Y7491053D01*
X11661857Y7474514D01*
X11674516Y7461855D01*
X11686871Y7456737D01*
Y7443271D01*
X11674516Y7438153D01*
X11661857Y7425494D01*
X11655006Y7408955D01*
Y7391053D01*
X11661857Y7374514D01*
X11674516Y7361855D01*
X11691055Y7355004D01*
X11708957D01*
X11725497Y7361855D01*
X11738155Y7374514D01*
X11745006Y7391053D01*
Y7408955D01*
X11738155Y7425494D01*
X11725497Y7438153D01*
X11713141Y7443271D01*
Y7456737D01*
X11725497Y7461855D01*
X11738155Y7474514D01*
X11745006Y7491053D01*
Y7508955D01*
X11738155Y7525494D01*
X11725497Y7538153D01*
X11708957Y7545004D01*
D02*
G37*
G36*
X10378951Y7375000D02*
X10361049D01*
X10344510Y7368149D01*
X10331851Y7355490D01*
X10325000Y7338951D01*
Y7321049D01*
X10331851Y7304510D01*
X10344510Y7291851D01*
X10361049Y7285000D01*
X10378951D01*
X10395491Y7291851D01*
X10408149Y7304510D01*
X10415000Y7321049D01*
Y7338951D01*
X10408149Y7355490D01*
X10395491Y7368149D01*
X10378951Y7375000D01*
D02*
G37*
G36*
X9608952Y7365001D02*
X9591050D01*
X9574511Y7358150D01*
X9561852Y7345491D01*
X9555001Y7328952D01*
Y7311050D01*
X9561852Y7294510D01*
X9574511Y7281852D01*
X9591050Y7275001D01*
X9608952D01*
X9625492Y7281852D01*
X9638150Y7294510D01*
X9645001Y7311050D01*
Y7328952D01*
X9638150Y7345491D01*
X9625492Y7358150D01*
X9608952Y7365001D01*
D02*
G37*
G36*
X9128952D02*
X9111050D01*
X9094511Y7358150D01*
X9081852Y7345491D01*
X9075001Y7328952D01*
Y7311050D01*
X9081852Y7294510D01*
X9094511Y7281852D01*
X9111050Y7275001D01*
X9128952D01*
X9145491Y7281852D01*
X9158150Y7294510D01*
X9165001Y7311050D01*
Y7328952D01*
X9158150Y7345491D01*
X9145491Y7358150D01*
X9128952Y7365001D01*
D02*
G37*
G36*
X9008952D02*
X8991050D01*
X8974511Y7358150D01*
X8961852Y7345491D01*
X8955001Y7328952D01*
Y7311050D01*
X8961852Y7294510D01*
X8974511Y7281852D01*
X8991050Y7275001D01*
X9008952D01*
X9025491Y7281852D01*
X9038150Y7294510D01*
X9045001Y7311050D01*
Y7328952D01*
X9038150Y7345491D01*
X9025491Y7358150D01*
X9008952Y7365001D01*
D02*
G37*
G36*
X8888952D02*
X8871050D01*
X8854511Y7358150D01*
X8841852Y7345491D01*
X8835001Y7328952D01*
Y7311050D01*
X8841852Y7294510D01*
X8854511Y7281852D01*
X8871050Y7275001D01*
X8888952D01*
X8905491Y7281852D01*
X8918150Y7294510D01*
X8925001Y7311050D01*
Y7328952D01*
X8918150Y7345491D01*
X8905491Y7358150D01*
X8888952Y7365001D01*
D02*
G37*
G36*
X8768952D02*
X8751050D01*
X8734511Y7358150D01*
X8721852Y7345491D01*
X8715001Y7328952D01*
Y7311050D01*
X8721852Y7294510D01*
X8734511Y7281852D01*
X8751050Y7275001D01*
X8768952D01*
X8785491Y7281852D01*
X8798150Y7294510D01*
X8805001Y7311050D01*
Y7328952D01*
X8798150Y7345491D01*
X8785491Y7358150D01*
X8768952Y7365001D01*
D02*
G37*
G36*
X8648952D02*
X8631050D01*
X8614511Y7358150D01*
X8601852Y7345491D01*
X8595001Y7328952D01*
Y7311050D01*
X8601852Y7294510D01*
X8614511Y7281852D01*
X8631050Y7275001D01*
X8648952D01*
X8665491Y7281852D01*
X8678150Y7294510D01*
X8685001Y7311050D01*
Y7328952D01*
X8678150Y7345491D01*
X8665491Y7358150D01*
X8648952Y7365001D01*
D02*
G37*
G36*
X8528952D02*
X8511050D01*
X8494511Y7358150D01*
X8481852Y7345491D01*
X8475001Y7328952D01*
Y7311050D01*
X8481852Y7294510D01*
X8494511Y7281852D01*
X8511050Y7275001D01*
X8528952D01*
X8545491Y7281852D01*
X8558150Y7294510D01*
X8565001Y7311050D01*
Y7328952D01*
X8558150Y7345491D01*
X8545491Y7358150D01*
X8528952Y7365001D01*
D02*
G37*
G36*
X8408952D02*
X8391050D01*
X8374511Y7358150D01*
X8361852Y7345491D01*
X8355001Y7328952D01*
Y7311050D01*
X8361852Y7294510D01*
X8374511Y7281852D01*
X8391050Y7275001D01*
X8408952D01*
X8425491Y7281852D01*
X8438150Y7294510D01*
X8445001Y7311050D01*
Y7328952D01*
X8438150Y7345491D01*
X8425491Y7358150D01*
X8408952Y7365001D01*
D02*
G37*
G36*
X8288952D02*
X8271050D01*
X8254511Y7358150D01*
X8241852Y7345491D01*
X8235001Y7328952D01*
Y7311050D01*
X8241852Y7294510D01*
X8254511Y7281852D01*
X8271050Y7275001D01*
X8288952D01*
X8305491Y7281852D01*
X8318150Y7294510D01*
X8325001Y7311050D01*
Y7328952D01*
X8318150Y7345491D01*
X8305491Y7358150D01*
X8288952Y7365001D01*
D02*
G37*
G36*
X8168952D02*
X8151050D01*
X8134511Y7358150D01*
X8121852Y7345491D01*
X8115001Y7328952D01*
Y7311050D01*
X8121852Y7294510D01*
X8134511Y7281852D01*
X8151050Y7275001D01*
X8168952D01*
X8185491Y7281852D01*
X8198150Y7294510D01*
X8205001Y7311050D01*
Y7328952D01*
X8198150Y7345491D01*
X8185491Y7358150D01*
X8168952Y7365001D01*
D02*
G37*
G36*
X8048952D02*
X8031050D01*
X8014511Y7358150D01*
X8001852Y7345491D01*
X7995001Y7328952D01*
Y7311050D01*
X8001852Y7294510D01*
X8014511Y7281852D01*
X8031050Y7275001D01*
X8048952D01*
X8065491Y7281852D01*
X8078150Y7294510D01*
X8085001Y7311050D01*
Y7328952D01*
X8078150Y7345491D01*
X8065491Y7358150D01*
X8048952Y7365001D01*
D02*
G37*
G36*
X7928952D02*
X7911050D01*
X7894510Y7358150D01*
X7881852Y7345491D01*
X7875001Y7328952D01*
Y7311050D01*
X7881852Y7294510D01*
X7894510Y7281852D01*
X7911050Y7275001D01*
X7928952D01*
X7945491Y7281852D01*
X7958150Y7294510D01*
X7965001Y7311050D01*
Y7328952D01*
X7958150Y7345491D01*
X7945491Y7358150D01*
X7928952Y7365001D01*
D02*
G37*
G36*
X7808952D02*
X7791050D01*
X7774510Y7358150D01*
X7761852Y7345491D01*
X7755001Y7328952D01*
Y7311050D01*
X7761852Y7294510D01*
X7774510Y7281852D01*
X7791050Y7275001D01*
X7808952D01*
X7825491Y7281852D01*
X7838150Y7294510D01*
X7845001Y7311050D01*
Y7328952D01*
X7838150Y7345491D01*
X7825491Y7358150D01*
X7808952Y7365001D01*
D02*
G37*
G36*
X9008952Y7245001D02*
X8991050D01*
X8974511Y7238150D01*
X8961852Y7225491D01*
X8955001Y7208952D01*
Y7191050D01*
X8961852Y7174510D01*
X8974511Y7161852D01*
X8991050Y7155001D01*
X9008952D01*
X9025491Y7161852D01*
X9038150Y7174510D01*
X9045001Y7191050D01*
Y7208952D01*
X9038150Y7225491D01*
X9025491Y7238150D01*
X9008952Y7245001D01*
D02*
G37*
G36*
X8528952D02*
X8511050D01*
X8494511Y7238150D01*
X8481852Y7225491D01*
X8475001Y7208952D01*
Y7191050D01*
X8481852Y7174510D01*
X8494511Y7161852D01*
X8511050Y7155001D01*
X8528952D01*
X8545491Y7161852D01*
X8558150Y7174510D01*
X8565001Y7191050D01*
Y7208952D01*
X8558150Y7225491D01*
X8545491Y7238150D01*
X8528952Y7245001D01*
D02*
G37*
G36*
X8408952D02*
X8391050D01*
X8374511Y7238150D01*
X8361852Y7225491D01*
X8355001Y7208952D01*
Y7191050D01*
X8361852Y7174510D01*
X8374511Y7161852D01*
X8391050Y7155001D01*
X8408952D01*
X8425491Y7161852D01*
X8438150Y7174510D01*
X8445001Y7191050D01*
Y7208952D01*
X8438150Y7225491D01*
X8425491Y7238150D01*
X8408952Y7245001D01*
D02*
G37*
G36*
X7928952D02*
X7911050D01*
X7894510Y7238150D01*
X7881852Y7225491D01*
X7875001Y7208952D01*
Y7191050D01*
X7881852Y7174510D01*
X7894510Y7161852D01*
X7911050Y7155001D01*
X7928952D01*
X7945491Y7161852D01*
X7958150Y7174510D01*
X7965001Y7191050D01*
Y7208952D01*
X7958150Y7225491D01*
X7945491Y7238150D01*
X7928952Y7245001D01*
D02*
G37*
G36*
X8528952Y7125001D02*
X8511050D01*
X8494511Y7118150D01*
X8481852Y7105491D01*
X8475001Y7088952D01*
Y7071050D01*
X8481852Y7054510D01*
X8494511Y7041852D01*
X8511050Y7035001D01*
X8528952D01*
X8545491Y7041852D01*
X8558150Y7054510D01*
X8565001Y7071050D01*
Y7088952D01*
X8558150Y7105491D01*
X8545491Y7118150D01*
X8528952Y7125001D01*
D02*
G37*
G36*
X8408952D02*
X8391050D01*
X8374511Y7118150D01*
X8361852Y7105491D01*
X8355001Y7088952D01*
Y7071050D01*
X8361852Y7054510D01*
X8374511Y7041852D01*
X8391050Y7035001D01*
X8408952D01*
X8425491Y7041852D01*
X8438150Y7054510D01*
X8445001Y7071050D01*
Y7088952D01*
X8438150Y7105491D01*
X8425491Y7118150D01*
X8408952Y7125001D01*
D02*
G37*
G36*
X10188951Y6785000D02*
X10171049D01*
X10154510Y6778149D01*
X10141851Y6765490D01*
X10135000Y6748951D01*
Y6731049D01*
X10141851Y6714510D01*
X10154510Y6701851D01*
X10171049Y6695000D01*
X10188951D01*
X10205490Y6701851D01*
X10218149Y6714510D01*
X10225000Y6731049D01*
Y6748951D01*
X10218149Y6765490D01*
X10205490Y6778149D01*
X10188951Y6785000D01*
D02*
G37*
G36*
X11918951Y6525000D02*
X11901049D01*
X11884510Y6518149D01*
X11871851Y6505490D01*
X11865000Y6488951D01*
Y6471049D01*
X11871851Y6454509D01*
X11884510Y6441851D01*
X11901049Y6435000D01*
X11918951D01*
X11935490Y6441851D01*
X11948149Y6454509D01*
X11955000Y6471049D01*
Y6488951D01*
X11948149Y6505490D01*
X11935490Y6518149D01*
X11918951Y6525000D01*
D02*
G37*
G36*
X10728951Y7115000D02*
X10711049D01*
X10694509Y7108149D01*
X10681851Y7095491D01*
X10675000Y7078951D01*
Y7061049D01*
X10681851Y7044510D01*
X10694509Y7031851D01*
X10711049Y7025000D01*
X10728951D01*
X10745490Y7031851D01*
X10758149Y7044510D01*
X10759543Y7047875D01*
X11160836D01*
X11329956Y6878755D01*
X11337134Y6873959D01*
X11345601Y6872275D01*
X11410439D01*
X11432275Y6850439D01*
Y6790544D01*
X11433959Y6782077D01*
X11438755Y6774899D01*
X11449299Y6764355D01*
X11456477Y6759559D01*
X11464944Y6757875D01*
X11677329D01*
X11681535Y6745175D01*
X11671851Y6735490D01*
X11665000Y6718951D01*
Y6701049D01*
X11666394Y6697684D01*
X11340835Y6372125D01*
X11072671D01*
X11068465Y6384825D01*
X11078149Y6394510D01*
X11085000Y6411049D01*
Y6428951D01*
X11078149Y6445491D01*
X11065490Y6458149D01*
X11057125Y6461614D01*
Y6803486D01*
X11068149Y6814510D01*
X11075000Y6831049D01*
Y6848951D01*
X11068149Y6865490D01*
X11055490Y6878149D01*
X11038951Y6885000D01*
X11026241D01*
X11018933Y6888933D01*
X11015000Y6896241D01*
Y6908951D01*
X11008149Y6925490D01*
X10995490Y6938149D01*
X10978951Y6945000D01*
X10961049D01*
X10944509Y6938149D01*
X10931851Y6925490D01*
X10925000Y6908951D01*
Y6891049D01*
X10928930Y6881561D01*
X10924355Y6876985D01*
X10919559Y6869807D01*
X10917875Y6861341D01*
Y6459543D01*
X10914510Y6458149D01*
X10901851Y6445491D01*
X10895000Y6428951D01*
Y6411049D01*
X10901851Y6394510D01*
X10911535Y6384825D01*
X10907329Y6372125D01*
X10699165D01*
X10653606Y6417684D01*
X10655000Y6421049D01*
Y6438951D01*
X10648149Y6455491D01*
X10635491Y6468149D01*
X10618951Y6475000D01*
X10601049D01*
X10584510Y6468149D01*
X10571851Y6455491D01*
X10565000Y6438951D01*
Y6421049D01*
X10571851Y6404510D01*
X10584510Y6391851D01*
X10601049Y6385000D01*
X10618951D01*
X10622316Y6386394D01*
X10674355Y6334355D01*
X10681533Y6329559D01*
X10690000Y6327875D01*
X11350000D01*
X11358467Y6329559D01*
X11365645Y6334355D01*
X11409041Y6377751D01*
X11419807Y6370557D01*
X11415000Y6358951D01*
Y6341049D01*
X11421851Y6324510D01*
X11434510Y6311851D01*
X11451049Y6305000D01*
X11468951D01*
X11485490Y6311851D01*
X11498149Y6324510D01*
X11505000Y6341049D01*
Y6358951D01*
X11498149Y6375490D01*
X11485490Y6388149D01*
X11468951Y6395000D01*
X11451049D01*
X11439443Y6390192D01*
X11432249Y6400959D01*
X11697684Y6666394D01*
X11701049Y6665000D01*
X11718951D01*
X11735490Y6671851D01*
X11748149Y6684510D01*
X11755000Y6701049D01*
Y6718951D01*
X11752591Y6724767D01*
X11761638Y6736113D01*
X11775491Y6741851D01*
X11788149Y6754509D01*
X11795000Y6771049D01*
Y6788951D01*
X11788149Y6805490D01*
X11775491Y6818149D01*
X11758951Y6825000D01*
X11741049D01*
X11724510Y6818149D01*
X11711851Y6805490D01*
X11710457Y6802125D01*
X11476525D01*
Y6859604D01*
X11474841Y6868071D01*
X11470045Y6875249D01*
X11435249Y6910045D01*
X11428071Y6914841D01*
X11419604Y6916525D01*
X11354765D01*
X11185645Y7085645D01*
X11178467Y7090441D01*
X11170000Y7092125D01*
X10759543D01*
X10758149Y7095491D01*
X10745490Y7108149D01*
X10728951Y7115000D01*
D02*
G37*
G36*
X11415191Y6045000D02*
X11392810D01*
X11371191Y6039207D01*
X11351809Y6028017D01*
X11335983Y6012191D01*
X11324793Y5992809D01*
X11319000Y5971190D01*
Y5948810D01*
X11324793Y5927191D01*
X11335983Y5907809D01*
X11351809Y5891983D01*
X11371191Y5880793D01*
X11392810Y5875000D01*
X11415191D01*
X11436809Y5880793D01*
X11456191Y5891983D01*
X11472017Y5907809D01*
X11483207Y5927191D01*
X11489000Y5948810D01*
Y5971190D01*
X11483207Y5992809D01*
X11472017Y6012191D01*
X11456191Y6028017D01*
X11436809Y6039207D01*
X11415191Y6045000D01*
D02*
G37*
G36*
X11161191D02*
X11138810D01*
X11117191Y6039207D01*
X11097809Y6028017D01*
X11081983Y6012191D01*
X11070793Y5992809D01*
X11065000Y5971190D01*
Y5948810D01*
X11070793Y5927191D01*
X11081983Y5907809D01*
X11097809Y5891983D01*
X11117191Y5880793D01*
X11138810Y5875000D01*
X11161191D01*
X11182809Y5880793D01*
X11202191Y5891983D01*
X11218017Y5907809D01*
X11229207Y5927191D01*
X11235000Y5948810D01*
Y5971190D01*
X11229207Y5992809D01*
X11218017Y6012191D01*
X11202191Y6028017D01*
X11182809Y6039207D01*
X11161191Y6045000D01*
D02*
G37*
G36*
X10907191D02*
X10884810D01*
X10863191Y6039207D01*
X10843809Y6028017D01*
X10827983Y6012191D01*
X10816793Y5992809D01*
X10811000Y5971190D01*
Y5948810D01*
X10816793Y5927191D01*
X10827983Y5907809D01*
X10843809Y5891983D01*
X10863191Y5880793D01*
X10884810Y5875000D01*
X10907191D01*
X10928809Y5880793D01*
X10948191Y5891983D01*
X10964017Y5907809D01*
X10975207Y5927191D01*
X10981000Y5948810D01*
Y5971190D01*
X10975207Y5992809D01*
X10964017Y6012191D01*
X10948191Y6028017D01*
X10928809Y6039207D01*
X10907191Y6045000D01*
D02*
G37*
G36*
X10653191D02*
X10630810D01*
X10609191Y6039207D01*
X10589809Y6028017D01*
X10573983Y6012191D01*
X10562793Y5992809D01*
X10557000Y5971190D01*
Y5948810D01*
X10562793Y5927191D01*
X10573983Y5907809D01*
X10589809Y5891983D01*
X10609191Y5880793D01*
X10630810Y5875000D01*
X10653191D01*
X10674809Y5880793D01*
X10694191Y5891983D01*
X10710017Y5907809D01*
X10721207Y5927191D01*
X10727000Y5948810D01*
Y5971190D01*
X10721207Y5992809D01*
X10710017Y6012191D01*
X10694191Y6028017D01*
X10674809Y6039207D01*
X10653191Y6045000D01*
D02*
G37*
%LPD*%
G36*
X15061859Y7774514D02*
X15074518Y7761855D01*
X15086873Y7756737D01*
Y7743271D01*
X15074518Y7738153D01*
X15061859Y7725495D01*
X15055008Y7708955D01*
Y7691053D01*
X15061859Y7674514D01*
X15074518Y7661855D01*
X15086873Y7656737D01*
Y7643271D01*
X15074518Y7638153D01*
X15061859Y7625495D01*
X15055008Y7608955D01*
Y7591053D01*
X15061859Y7574514D01*
X15074518Y7561855D01*
X15086873Y7556737D01*
Y7543271D01*
X15074518Y7538153D01*
X15061859Y7525494D01*
X15055008Y7508955D01*
Y7491053D01*
X15061859Y7474514D01*
X15074518Y7461855D01*
X15086873Y7456737D01*
Y7443271D01*
X15074518Y7438153D01*
X15061859Y7425494D01*
X15056741Y7413139D01*
X15043275D01*
X15038158Y7425494D01*
X15025499Y7438153D01*
X15008958Y7445004D01*
X14991057D01*
X14974518Y7438153D01*
X14961859Y7425494D01*
X14956741Y7413139D01*
X14943275D01*
X14938158Y7425494D01*
X14925497Y7438153D01*
X14908958Y7445004D01*
X14891057D01*
X14874518Y7438153D01*
X14861859Y7425494D01*
X14856741Y7413139D01*
X14843275D01*
X14838158Y7425494D01*
X14825497Y7438153D01*
X14808958Y7445004D01*
X14791057D01*
X14774518Y7438153D01*
X14761859Y7425494D01*
X14756741Y7413139D01*
X14743275D01*
X14738158Y7425494D01*
X14725497Y7438153D01*
X14713142Y7443271D01*
Y7456737D01*
X14725497Y7461855D01*
X14738158Y7474514D01*
X14745007Y7491053D01*
Y7508955D01*
X14738158Y7525494D01*
X14725497Y7538153D01*
X14713142Y7543271D01*
Y7556737D01*
X14725497Y7561855D01*
X14738158Y7574514D01*
X14745007Y7591053D01*
Y7608955D01*
X14738158Y7625495D01*
X14725497Y7638153D01*
X14713142Y7643271D01*
Y7656737D01*
X14725497Y7661855D01*
X14738158Y7674514D01*
X14745007Y7691053D01*
Y7708955D01*
X14738158Y7725495D01*
X14725497Y7738153D01*
X14713142Y7743271D01*
Y7756737D01*
X14725497Y7761855D01*
X14738158Y7774514D01*
X14743275Y7786869D01*
X14756741D01*
X14761859Y7774514D01*
X14774518Y7761855D01*
X14791057Y7755004D01*
X14808958D01*
X14825497Y7761855D01*
X14838158Y7774514D01*
X14843275Y7786869D01*
X14856741D01*
X14861859Y7774514D01*
X14874518Y7761855D01*
X14891057Y7755004D01*
X14908958D01*
X14925497Y7761855D01*
X14938158Y7774514D01*
X14943275Y7786869D01*
X14956741D01*
X14961859Y7774514D01*
X14974518Y7761855D01*
X14991057Y7755004D01*
X15008958D01*
X15025499Y7761855D01*
X15038158Y7774514D01*
X15043275Y7786869D01*
X15056741D01*
X15061859Y7774514D01*
D02*
G37*
G36*
X14461859D02*
X14474516Y7761855D01*
X14486873Y7756737D01*
Y7743271D01*
X14474516Y7738153D01*
X14461859Y7725495D01*
X14455008Y7708955D01*
Y7691053D01*
X14461859Y7674514D01*
X14474516Y7661855D01*
X14486873Y7656737D01*
Y7643271D01*
X14474516Y7638153D01*
X14461859Y7625495D01*
X14455008Y7608955D01*
Y7591053D01*
X14461859Y7574514D01*
X14474516Y7561855D01*
X14486873Y7556737D01*
Y7543271D01*
X14474516Y7538153D01*
X14461859Y7525494D01*
X14455008Y7508955D01*
Y7491053D01*
X14461859Y7474514D01*
X14474516Y7461855D01*
X14486873Y7456737D01*
Y7443271D01*
X14474516Y7438153D01*
X14461859Y7425494D01*
X14456741Y7413139D01*
X14443275D01*
X14438158Y7425494D01*
X14425497Y7438153D01*
X14408958Y7445004D01*
X14391057D01*
X14374516Y7438153D01*
X14361859Y7425494D01*
X14356741Y7413139D01*
X14343275D01*
X14338158Y7425494D01*
X14325497Y7438153D01*
X14308958Y7445004D01*
X14291057D01*
X14274516Y7438153D01*
X14261859Y7425494D01*
X14256741Y7413139D01*
X14243275D01*
X14238158Y7425494D01*
X14225497Y7438153D01*
X14208958Y7445004D01*
X14191057D01*
X14174516Y7438153D01*
X14161859Y7425494D01*
X14156741Y7413139D01*
X14143274D01*
X14138158Y7425494D01*
X14125497Y7438153D01*
X14113142Y7443271D01*
Y7456737D01*
X14125497Y7461855D01*
X14138158Y7474514D01*
X14145007Y7491053D01*
Y7508955D01*
X14138158Y7525494D01*
X14125497Y7538153D01*
X14113142Y7543271D01*
Y7556737D01*
X14125497Y7561855D01*
X14138158Y7574514D01*
X14145007Y7591053D01*
Y7608955D01*
X14138158Y7625495D01*
X14125497Y7638153D01*
X14113142Y7643271D01*
Y7656737D01*
X14125497Y7661855D01*
X14138158Y7674514D01*
X14145007Y7691053D01*
Y7708955D01*
X14138158Y7725495D01*
X14125497Y7738153D01*
X14113142Y7743271D01*
Y7756737D01*
X14125497Y7761855D01*
X14138158Y7774514D01*
X14143274Y7786869D01*
X14156741D01*
X14161859Y7774514D01*
X14174516Y7761855D01*
X14191057Y7755004D01*
X14208958D01*
X14225497Y7761855D01*
X14238158Y7774514D01*
X14243275Y7786869D01*
X14256741D01*
X14261859Y7774514D01*
X14274516Y7761855D01*
X14291057Y7755004D01*
X14308958D01*
X14325497Y7761855D01*
X14338158Y7774514D01*
X14343275Y7786869D01*
X14356741D01*
X14361859Y7774514D01*
X14374516Y7761855D01*
X14391057Y7755004D01*
X14408958D01*
X14425497Y7761855D01*
X14438158Y7774514D01*
X14443275Y7786869D01*
X14456741D01*
X14461859Y7774514D01*
D02*
G37*
G36*
X13861858D02*
X13874516Y7761855D01*
X13886871Y7756737D01*
Y7743271D01*
X13874516Y7738153D01*
X13861858Y7725495D01*
X13855008Y7708955D01*
Y7691053D01*
X13861858Y7674514D01*
X13874516Y7661855D01*
X13886871Y7656737D01*
Y7643271D01*
X13874516Y7638153D01*
X13861858Y7625495D01*
X13855008Y7608955D01*
Y7591053D01*
X13861858Y7574514D01*
X13874516Y7561855D01*
X13886871Y7556737D01*
Y7543271D01*
X13874516Y7538153D01*
X13861858Y7525494D01*
X13855008Y7508955D01*
Y7491053D01*
X13861858Y7474514D01*
X13874516Y7461855D01*
X13886871Y7456737D01*
Y7443271D01*
X13874516Y7438153D01*
X13861858Y7425494D01*
X13856741Y7413139D01*
X13843274D01*
X13838156Y7425494D01*
X13825497Y7438153D01*
X13808958Y7445004D01*
X13791055D01*
X13774516Y7438153D01*
X13761858Y7425494D01*
X13756741Y7413139D01*
X13743274D01*
X13738156Y7425494D01*
X13725497Y7438153D01*
X13708958Y7445004D01*
X13691055D01*
X13674516Y7438153D01*
X13661858Y7425494D01*
X13656741Y7413139D01*
X13643274D01*
X13638156Y7425494D01*
X13625497Y7438153D01*
X13608958Y7445004D01*
X13591055D01*
X13574516Y7438153D01*
X13561858Y7425494D01*
X13556740Y7413139D01*
X13543274D01*
X13538156Y7425494D01*
X13525497Y7438153D01*
X13513142Y7443271D01*
Y7456737D01*
X13525497Y7461855D01*
X13538156Y7474514D01*
X13545007Y7491053D01*
Y7508955D01*
X13538156Y7525494D01*
X13525497Y7538153D01*
X13513142Y7543271D01*
Y7556737D01*
X13525497Y7561855D01*
X13538156Y7574514D01*
X13545007Y7591053D01*
Y7608955D01*
X13538156Y7625495D01*
X13525497Y7638153D01*
X13513142Y7643271D01*
Y7656737D01*
X13525497Y7661855D01*
X13538156Y7674514D01*
X13545007Y7691053D01*
Y7708955D01*
X13538156Y7725495D01*
X13525497Y7738153D01*
X13513142Y7743271D01*
Y7756737D01*
X13525497Y7761855D01*
X13538156Y7774514D01*
X13543274Y7786869D01*
X13556740D01*
X13561858Y7774514D01*
X13574516Y7761855D01*
X13591055Y7755004D01*
X13608958D01*
X13625497Y7761855D01*
X13638156Y7774514D01*
X13643274Y7786869D01*
X13656741D01*
X13661858Y7774514D01*
X13674516Y7761855D01*
X13691055Y7755004D01*
X13708958D01*
X13725497Y7761855D01*
X13738156Y7774514D01*
X13743274Y7786869D01*
X13756741D01*
X13761858Y7774514D01*
X13774516Y7761855D01*
X13791055Y7755004D01*
X13808958D01*
X13825497Y7761855D01*
X13838156Y7774514D01*
X13843274Y7786869D01*
X13856741D01*
X13861858Y7774514D01*
D02*
G37*
G36*
X13361858D02*
X13374516Y7761855D01*
X13386871Y7756737D01*
Y7743271D01*
X13374516Y7738153D01*
X13361858Y7725495D01*
X13355006Y7708955D01*
Y7691053D01*
X13361858Y7674514D01*
X13374516Y7661855D01*
X13386871Y7656737D01*
Y7643271D01*
X13374516Y7638153D01*
X13361858Y7625495D01*
X13355006Y7608955D01*
Y7591053D01*
X13361858Y7574514D01*
X13374516Y7561855D01*
X13386871Y7556737D01*
Y7543271D01*
X13374516Y7538153D01*
X13361858Y7525494D01*
X13355006Y7508955D01*
Y7491053D01*
X13361858Y7474514D01*
X13374516Y7461855D01*
X13386871Y7456737D01*
Y7443271D01*
X13374516Y7438153D01*
X13361858Y7425494D01*
X13356740Y7413139D01*
X13343274D01*
X13338156Y7425494D01*
X13325497Y7438153D01*
X13308958Y7445004D01*
X13291055D01*
X13274516Y7438153D01*
X13261858Y7425494D01*
X13256740Y7413139D01*
X13243274D01*
X13238156Y7425494D01*
X13225497Y7438153D01*
X13208958Y7445004D01*
X13191055D01*
X13174516Y7438153D01*
X13161858Y7425494D01*
X13156740Y7413139D01*
X13143274D01*
X13138156Y7425494D01*
X13125497Y7438153D01*
X13108958Y7445004D01*
X13091055D01*
X13074516Y7438153D01*
X13061858Y7425494D01*
X13056740Y7413139D01*
X13043274D01*
X13038156Y7425494D01*
X13025497Y7438153D01*
X13013142Y7443271D01*
Y7456737D01*
X13025497Y7461855D01*
X13038156Y7474514D01*
X13045007Y7491053D01*
Y7508955D01*
X13038156Y7525494D01*
X13025497Y7538153D01*
X13013142Y7543271D01*
Y7556737D01*
X13025497Y7561855D01*
X13038156Y7574514D01*
X13045007Y7591053D01*
Y7608955D01*
X13038156Y7625495D01*
X13025497Y7638153D01*
X13013142Y7643271D01*
Y7656737D01*
X13025497Y7661855D01*
X13038156Y7674514D01*
X13045007Y7691053D01*
Y7708955D01*
X13038156Y7725495D01*
X13025497Y7738153D01*
X13013142Y7743271D01*
Y7756737D01*
X13025497Y7761855D01*
X13038156Y7774514D01*
X13043274Y7786869D01*
X13056740D01*
X13061858Y7774514D01*
X13074516Y7761855D01*
X13091055Y7755004D01*
X13108958D01*
X13125497Y7761855D01*
X13138156Y7774514D01*
X13143274Y7786869D01*
X13156740D01*
X13161858Y7774514D01*
X13174516Y7761855D01*
X13191055Y7755004D01*
X13208958D01*
X13225497Y7761855D01*
X13238156Y7774514D01*
X13243274Y7786869D01*
X13256740D01*
X13261858Y7774514D01*
X13274516Y7761855D01*
X13291055Y7755004D01*
X13308958D01*
X13325497Y7761855D01*
X13338156Y7774514D01*
X13343274Y7786869D01*
X13356740D01*
X13361858Y7774514D01*
D02*
G37*
G36*
X10981067Y6851067D02*
X10985000Y6843759D01*
Y6831049D01*
X10991851Y6814510D01*
X11004510Y6801851D01*
X11012875Y6798386D01*
Y6456514D01*
X11001851Y6445491D01*
X10996733Y6433135D01*
X10983267D01*
X10978149Y6445491D01*
X10965490Y6458149D01*
X10962125Y6459543D01*
Y6852176D01*
X10964949Y6855000D01*
X10973759D01*
X10981067Y6851067D01*
D02*
G37*
D34*
X12070000Y7060000D02*
X12130000Y7000000D01*
X11590000Y7060000D02*
X12070000D01*
X11478000Y6110000D02*
X11628000Y5960000D01*
X11658000D01*
X9990000Y7370000D02*
X10220000Y7600000D01*
X9990000Y6550000D02*
Y7370000D01*
Y6550000D02*
X10430000Y6110000D01*
X11478000D01*
X12610000Y6380000D02*
X15150000D01*
X12130000Y6860000D02*
X12610000Y6380000D01*
X12650544Y6420000D02*
X15110001D01*
X12130000Y6940544D02*
X12650544Y6420000D01*
X12130000Y6940544D02*
Y7000000D01*
X12350000Y6300000D02*
X15220000D01*
X11730000Y6920000D02*
X12350000Y6300000D01*
X11652417Y6990000D02*
X11750000D01*
X12400000Y6340000D02*
X15189999D01*
X11750000Y6990000D02*
X12400000Y6340000D01*
X10626000Y8104000D02*
X10690000Y8040000D01*
X10197633Y8104000D02*
X10626000D01*
X10143633Y8050000D02*
X10197633Y8104000D01*
X10060000Y8050000D02*
X10143633D01*
X9820000Y6890000D02*
Y7810000D01*
X10060000Y8050000D01*
X15339999Y6650000D02*
Y7488999D01*
X15780000Y7070000D02*
Y7423617D01*
X15680000Y6970000D02*
X15780000Y7070000D01*
X11622417Y6960000D02*
X11652417Y6990000D01*
X15189999Y6340000D02*
X15820000Y6970000D01*
X11570000Y6960000D02*
X11622417D01*
X15860001Y6940000D02*
Y7480000D01*
X15220000Y6300000D02*
X15860001Y6940000D01*
X15619000Y7644999D02*
X15695001D01*
X15860001Y7480000D01*
X15770000Y7500000D02*
X15820000Y7450000D01*
Y6970000D02*
Y7450000D01*
X15673999Y7500000D02*
X15770000D01*
X15619000Y7554999D02*
X15673999Y7500000D01*
X15399400Y6629400D02*
Y7034604D01*
X15150000Y6380000D02*
X15399400Y6629400D01*
X15110001Y6420000D02*
X15339999Y6650000D01*
X15370000Y7064004D02*
Y7413617D01*
Y7064004D02*
X15399400Y7034604D01*
X15370000Y7413617D02*
X15421825Y7465440D01*
X11454400Y6790544D02*
Y6859604D01*
X11464944Y6780000D02*
X11750000D01*
X11454400Y6790544D02*
X11464944Y6780000D01*
X11345601Y6894400D02*
X11419604D01*
X11170000Y7070000D02*
X11345601Y6894400D01*
X10720000Y7070000D02*
X11170000D01*
X11419604Y6894400D02*
X11454400Y6859604D01*
X15624797Y7459202D02*
X15744415D01*
X15619000Y7464999D02*
X15624797Y7459202D01*
X15744415D02*
X15780000Y7423617D01*
X15339999Y7488999D02*
X15541000Y7690000D01*
X15421825Y7465440D02*
X15496442D01*
X15541000Y7509999D01*
X15545695Y7595304D02*
X15578696D01*
X15619000Y7554999D01*
X15541000Y7600000D02*
X15545695Y7595304D01*
X11030000Y6840000D02*
X11035000Y6835000D01*
Y6425000D02*
X11040000Y6420000D01*
X11035000Y6425000D02*
Y6835000D01*
X10940000Y6420000D02*
Y6861341D01*
X10970000Y6891341D01*
Y6900000D01*
X10690000Y6350000D02*
X11350000D01*
X10610000Y6430000D02*
X10690000Y6350000D01*
X11350000D02*
X11710000Y6710000D01*
D35*
X15437000Y7342502D02*
D03*
X15723000D02*
D03*
X15437000Y7824999D02*
D03*
X15723000D02*
D03*
D36*
X15619000Y7284999D02*
D03*
X15541000Y7870000D02*
D03*
Y7780000D02*
D03*
Y7690000D02*
D03*
Y7600000D02*
D03*
Y7509999D02*
D03*
Y7419999D02*
D03*
Y7329999D02*
D03*
X15619000Y7824999D02*
D03*
Y7734999D02*
D03*
Y7644999D02*
D03*
Y7554999D02*
D03*
Y7464999D02*
D03*
Y7374999D02*
D03*
D37*
X7180000Y6884230D02*
D03*
Y7615750D02*
D03*
D38*
X11912000Y5960000D02*
D03*
D39*
X11658000D02*
D03*
X11404000D02*
D03*
X11150000D02*
D03*
X10896000D02*
D03*
X10642000D02*
D03*
D40*
X11590000Y7060000D02*
D03*
X15700008Y8200004D02*
D03*
Y6600004D02*
D03*
X15600008Y6400003D02*
D03*
X15700008Y6200003D02*
D03*
X15600008Y6000003D02*
D03*
X15500008Y8200004D02*
D03*
X15400008Y6400003D02*
D03*
X15500008Y6200003D02*
D03*
X15400008Y6000003D02*
D03*
X15300008Y8200004D02*
D03*
X15200008Y8000004D02*
D03*
Y6800004D02*
D03*
X15300008Y6200003D02*
D03*
X15200008Y6000003D02*
D03*
X15100008Y8200004D02*
D03*
Y6600004D02*
D03*
Y6200003D02*
D03*
X15000008Y6000003D02*
D03*
X14900008Y6200003D02*
D03*
X14800008Y6000003D02*
D03*
X14700008Y8200004D02*
D03*
X14600008Y8000004D02*
D03*
Y6800004D02*
D03*
X14700008Y6600004D02*
D03*
Y6200003D02*
D03*
X14600008Y6000003D02*
D03*
X14500008Y8200004D02*
D03*
Y6600004D02*
D03*
Y6200003D02*
D03*
X14400008Y6000003D02*
D03*
X14300008Y6200003D02*
D03*
X14200008Y6000003D02*
D03*
X14100008Y8200004D02*
D03*
X14000008Y8000004D02*
D03*
Y6800004D02*
D03*
X14100008Y6600004D02*
D03*
Y6200003D02*
D03*
X14000008Y6000003D02*
D03*
X13900008Y8200004D02*
D03*
Y6600004D02*
D03*
Y6200003D02*
D03*
X13800008Y6000003D02*
D03*
X13700008Y6200003D02*
D03*
X13600008Y6000003D02*
D03*
X13500008Y8200004D02*
D03*
X13400008Y8000004D02*
D03*
Y6800004D02*
D03*
X13500008Y6600004D02*
D03*
Y6200003D02*
D03*
X13400008Y6000003D02*
D03*
X13300008Y6200003D02*
D03*
X13200008Y6000003D02*
D03*
X13000008Y8000004D02*
D03*
Y6800004D02*
D03*
X13100008Y6200003D02*
D03*
X13000008Y6000003D02*
D03*
X12900008Y8200004D02*
D03*
Y7000004D02*
D03*
X12800008Y6800004D02*
D03*
X12900008Y6600004D02*
D03*
Y6200003D02*
D03*
X12800008Y6000003D02*
D03*
X12600007Y6800004D02*
D03*
X12700007Y6600004D02*
D03*
Y6200003D02*
D03*
X12600007Y6000003D02*
D03*
X12400007Y6800004D02*
D03*
X12500007Y6200003D02*
D03*
X12400007Y6000003D02*
D03*
X12300007Y6600004D02*
D03*
Y6200003D02*
D03*
X12200007Y6000003D02*
D03*
X12000006Y6400003D02*
D03*
X11800006D02*
D03*
X11900006Y6200003D02*
D03*
X11800006Y6000003D02*
D03*
X11700006Y8200004D02*
D03*
X11600006Y8000004D02*
D03*
Y7200004D02*
D03*
X11700006Y6200003D02*
D03*
X11500006Y8200004D02*
D03*
X11400006Y8000004D02*
D03*
X11500006Y6200003D02*
D03*
X11300006Y8200004D02*
D03*
X11200006Y8000004D02*
D03*
X11100006Y8200004D02*
D03*
X11000006Y8000004D02*
D03*
X11100006Y6600004D02*
D03*
X10900006Y8200004D02*
D03*
X10800006Y8000004D02*
D03*
Y7200004D02*
D03*
X10700006Y8200004D02*
D03*
X10600006Y7600004D02*
D03*
Y7200004D02*
D03*
X10500006Y8200004D02*
D03*
X10400006Y7200004D02*
D03*
X10500006Y6200003D02*
D03*
X10400006Y6000003D02*
D03*
X10300006Y8200004D02*
D03*
Y7000004D02*
D03*
X10100005Y8200004D02*
D03*
X10000005Y6400003D02*
D03*
X10100005Y6200003D02*
D03*
X10000005Y6000003D02*
D03*
X9900005Y8200004D02*
D03*
X9800005Y6800004D02*
D03*
X9900005Y6600004D02*
D03*
Y6200003D02*
D03*
X9800005Y6000003D02*
D03*
X9700005Y8200004D02*
D03*
X9600005Y7200004D02*
D03*
X9700005Y7000004D02*
D03*
X9600005Y6800004D02*
D03*
X9700005Y6600004D02*
D03*
X9600005Y6400003D02*
D03*
X9700005Y6200003D02*
D03*
X9600005Y6000003D02*
D03*
X9500005Y8200004D02*
D03*
X9400005Y6800004D02*
D03*
X9500005Y6600004D02*
D03*
X9400005Y6400003D02*
D03*
X9500005Y6200003D02*
D03*
X9400005Y6000003D02*
D03*
X9300005Y8200004D02*
D03*
X9200005Y6800004D02*
D03*
X9300005Y6600004D02*
D03*
X9200005Y6400003D02*
D03*
X9300005Y6200003D02*
D03*
X9200005Y6000003D02*
D03*
X9100005Y8200004D02*
D03*
X9000005Y8000004D02*
D03*
X9100005Y7800004D02*
D03*
Y7000004D02*
D03*
X9000005Y6800004D02*
D03*
X9100005Y6600004D02*
D03*
X9000005Y6400003D02*
D03*
X9100005Y6200003D02*
D03*
X9000005Y6000003D02*
D03*
X8900005Y8200004D02*
D03*
X8800005Y8000004D02*
D03*
Y6800004D02*
D03*
Y6400003D02*
D03*
X8900005Y6200003D02*
D03*
X8800005Y6000003D02*
D03*
X8600005Y8000004D02*
D03*
Y6800004D02*
D03*
Y6400003D02*
D03*
X8700005Y6200003D02*
D03*
X8600005Y6000003D02*
D03*
X8500005Y8200004D02*
D03*
X8400005Y8000004D02*
D03*
Y6800004D02*
D03*
X8500005Y6600004D02*
D03*
X8400005Y6400003D02*
D03*
X8500005Y6200003D02*
D03*
X8400005Y6000003D02*
D03*
X8200004Y8000004D02*
D03*
Y6800004D02*
D03*
Y6400003D02*
D03*
X8300004Y6200003D02*
D03*
X8200004Y6000003D02*
D03*
X8000004Y8000004D02*
D03*
Y6800004D02*
D03*
Y6400003D02*
D03*
X8100004Y6200003D02*
D03*
X8000004Y6000003D02*
D03*
X7900004Y8200004D02*
D03*
X7800004Y8000004D02*
D03*
X7900004Y7000004D02*
D03*
X7800004Y6800004D02*
D03*
X7900004Y6600004D02*
D03*
X7800004Y6400003D02*
D03*
X7900004Y6200003D02*
D03*
X7800004Y6000003D02*
D03*
X7600004Y7200004D02*
D03*
X7700004Y7000004D02*
D03*
X7600004Y6800004D02*
D03*
X7700004Y6600004D02*
D03*
X7600004Y6400003D02*
D03*
X7700004Y6200003D02*
D03*
X7600004Y6000003D02*
D03*
X7400004Y8000004D02*
D03*
Y7200004D02*
D03*
X7500004Y6600004D02*
D03*
X7400004Y6400003D02*
D03*
X7500004Y6200003D02*
D03*
X7400004Y6000003D02*
D03*
X7200004Y8000004D02*
D03*
Y6400003D02*
D03*
X7300004Y6200003D02*
D03*
X7200004Y6000003D02*
D03*
X7000004Y8000004D02*
D03*
Y7200004D02*
D03*
Y6400003D02*
D03*
X7100004Y6200003D02*
D03*
X7000004Y6000003D02*
D03*
X9930000Y7520000D02*
D03*
X9910000Y7370000D02*
D03*
X10650000Y7310000D02*
D03*
X10370000Y7330000D02*
D03*
X15800009Y7700004D02*
D03*
X15700008Y7200004D02*
D03*
Y7100004D02*
D03*
X15600008Y7200004D02*
D03*
Y7100004D02*
D03*
X15500008Y7200004D02*
D03*
Y7100004D02*
D03*
X15300008Y7900004D02*
D03*
Y7800004D02*
D03*
Y7700004D02*
D03*
Y7600004D02*
D03*
X15200008Y7800004D02*
D03*
Y7700004D02*
D03*
Y7600004D02*
D03*
Y7500004D02*
D03*
Y7400004D02*
D03*
Y7300004D02*
D03*
Y7200004D02*
D03*
Y7100004D02*
D03*
X15100008Y7800004D02*
D03*
Y7700004D02*
D03*
Y7600004D02*
D03*
Y7500004D02*
D03*
Y7400004D02*
D03*
Y7300004D02*
D03*
Y7200004D02*
D03*
Y7100004D02*
D03*
X15000008Y7800004D02*
D03*
Y7400004D02*
D03*
X14900008Y7800004D02*
D03*
Y7400004D02*
D03*
X14800008Y7800004D02*
D03*
Y7400004D02*
D03*
X14700008Y7800004D02*
D03*
Y7700004D02*
D03*
Y7600004D02*
D03*
Y7500004D02*
D03*
Y7400004D02*
D03*
Y7300004D02*
D03*
Y7200004D02*
D03*
Y7100004D02*
D03*
X14600008Y7800004D02*
D03*
Y7700004D02*
D03*
Y7600004D02*
D03*
Y7500004D02*
D03*
Y7400004D02*
D03*
Y7300004D02*
D03*
Y7200004D02*
D03*
Y7100004D02*
D03*
X14500008Y7800004D02*
D03*
Y7700004D02*
D03*
Y7600004D02*
D03*
Y7500004D02*
D03*
Y7400004D02*
D03*
Y7300004D02*
D03*
Y7200004D02*
D03*
Y7100004D02*
D03*
X14400008Y7800004D02*
D03*
Y7400004D02*
D03*
X14300008Y7800004D02*
D03*
Y7400004D02*
D03*
X14200008Y7800004D02*
D03*
Y7400004D02*
D03*
X14100008Y7800004D02*
D03*
Y7700004D02*
D03*
Y7600004D02*
D03*
Y7500004D02*
D03*
Y7400004D02*
D03*
Y7300004D02*
D03*
Y7200004D02*
D03*
Y7100004D02*
D03*
X14000008Y7800004D02*
D03*
Y7700004D02*
D03*
Y7600004D02*
D03*
Y7500004D02*
D03*
Y7400004D02*
D03*
Y7300004D02*
D03*
Y7200004D02*
D03*
Y7100004D02*
D03*
X13900008Y7800004D02*
D03*
Y7700004D02*
D03*
Y7600004D02*
D03*
Y7500004D02*
D03*
Y7400004D02*
D03*
Y7300004D02*
D03*
Y7200004D02*
D03*
Y7100004D02*
D03*
X13800008Y7800004D02*
D03*
Y7400004D02*
D03*
X13700008Y7800004D02*
D03*
Y7400004D02*
D03*
X13600008Y7800004D02*
D03*
Y7400004D02*
D03*
X13500008Y7800004D02*
D03*
Y7700004D02*
D03*
Y7600004D02*
D03*
Y7500004D02*
D03*
Y7400004D02*
D03*
Y7300004D02*
D03*
Y7200004D02*
D03*
Y7100004D02*
D03*
X13400008Y7800004D02*
D03*
Y7700004D02*
D03*
Y7600004D02*
D03*
Y7500004D02*
D03*
Y7400004D02*
D03*
Y7300004D02*
D03*
Y7200004D02*
D03*
Y7100004D02*
D03*
X13300008Y7800004D02*
D03*
Y7400004D02*
D03*
X13200008Y7800004D02*
D03*
Y7400004D02*
D03*
X13100008Y7800004D02*
D03*
Y7400004D02*
D03*
X13000008Y7800004D02*
D03*
Y7700004D02*
D03*
Y7600004D02*
D03*
Y7500004D02*
D03*
Y7400004D02*
D03*
Y7300004D02*
D03*
Y7200004D02*
D03*
X12900008Y7800004D02*
D03*
Y7700004D02*
D03*
Y7600004D02*
D03*
Y7500004D02*
D03*
Y7400004D02*
D03*
Y7300004D02*
D03*
X12800008Y7600004D02*
D03*
X12700007D02*
D03*
X12600007D02*
D03*
X12500007D02*
D03*
X12400007D02*
D03*
X12300007D02*
D03*
X12200007D02*
D03*
X12100007D02*
D03*
X12000006D02*
D03*
X11900006D02*
D03*
X11700006Y7800004D02*
D03*
Y7700004D02*
D03*
Y7500004D02*
D03*
Y7400004D02*
D03*
X11000006Y7700004D02*
D03*
Y7600004D02*
D03*
Y7500004D02*
D03*
Y7400004D02*
D03*
X10900006Y7600004D02*
D03*
Y7500004D02*
D03*
Y7400004D02*
D03*
X10800006Y7500004D02*
D03*
Y7400004D02*
D03*
X10700006D02*
D03*
X9960001Y7440001D02*
D03*
X9720001D02*
D03*
X9600001Y7320001D02*
D03*
X9120001Y7680001D02*
D03*
Y7560001D02*
D03*
Y7440001D02*
D03*
Y7320001D02*
D03*
X9000001Y7680001D02*
D03*
Y7560001D02*
D03*
Y7440001D02*
D03*
Y7320001D02*
D03*
Y7200001D02*
D03*
X8880001Y7800001D02*
D03*
Y7440001D02*
D03*
Y7320001D02*
D03*
X8760001Y7440001D02*
D03*
Y7320001D02*
D03*
X8640001Y7440001D02*
D03*
Y7320001D02*
D03*
X8520001Y7800001D02*
D03*
Y7680001D02*
D03*
Y7560001D02*
D03*
Y7440001D02*
D03*
Y7320001D02*
D03*
Y7200001D02*
D03*
Y7080001D02*
D03*
X8400001Y7800001D02*
D03*
Y7680001D02*
D03*
Y7560001D02*
D03*
Y7440001D02*
D03*
Y7320001D02*
D03*
Y7200001D02*
D03*
Y7080001D02*
D03*
X8280001Y7440001D02*
D03*
Y7320001D02*
D03*
X8160001Y7440001D02*
D03*
Y7320001D02*
D03*
X8040001Y7800001D02*
D03*
Y7440001D02*
D03*
Y7320001D02*
D03*
X7920001Y7800001D02*
D03*
Y7680001D02*
D03*
Y7560001D02*
D03*
Y7440001D02*
D03*
Y7320001D02*
D03*
Y7200001D02*
D03*
X7800001Y7800001D02*
D03*
Y7680001D02*
D03*
Y7560001D02*
D03*
Y7440001D02*
D03*
Y7320001D02*
D03*
X7680001Y7800001D02*
D03*
Y7680001D02*
D03*
Y7560001D02*
D03*
Y7440001D02*
D03*
X7560001Y7800001D02*
D03*
Y7680001D02*
D03*
Y7560001D02*
D03*
Y7440001D02*
D03*
X12130000Y6860000D02*
D03*
X10220000Y7600000D02*
D03*
X15339999Y6960000D02*
D03*
X15680000Y6970000D02*
D03*
X11730000Y6920000D02*
D03*
X11570000Y6960000D02*
D03*
X10310000Y7200000D02*
D03*
X11270000Y6200000D02*
D03*
X11030000Y6840000D02*
D03*
X10970000Y6900000D02*
D03*
X11040000Y6420000D02*
D03*
X10940000D02*
D03*
X11710000Y6710000D02*
D03*
X10610000Y6430000D02*
D03*
X10710000Y6920000D02*
D03*
X10480000Y7180000D02*
D03*
X11750000Y6780000D02*
D03*
X10720000Y7070000D02*
D03*
X10600000Y6230000D02*
D03*
X9920000Y8030000D02*
D03*
X7100000Y8230000D02*
D03*
X11460000Y6350000D02*
D03*
X11910000Y6480000D02*
D03*
X10180000Y6740000D02*
D03*
X9820000Y6890000D02*
D03*
X10060000Y8050000D02*
D03*
X10220000D02*
D03*
X10540000Y8040000D02*
D03*
X10690000D02*
D03*
X11395000Y6725000D02*
D03*
X11285000D02*
D03*
X11395000Y6835000D02*
D03*
X11285000D02*
D03*
D41*
X9240001Y6923981D02*
D03*
X9340001D02*
D03*
X9440001D02*
D03*
X9769999Y8046020D02*
D03*
X9669999D02*
D03*
X9569999D02*
D03*
X9439999D02*
D03*
X9339999D02*
D03*
X9240000D02*
D03*
X11860001Y6963980D02*
D03*
X12540001D02*
D03*
X12640001D02*
D03*
X12740001D02*
D03*
X12200001D02*
D03*
X12300001D02*
D03*
X12400001D02*
D03*
X11960001D02*
D03*
X12060001D02*
D03*
X12059999Y8246019D02*
D03*
X11959999D02*
D03*
X11859999D02*
D03*
X12399999D02*
D03*
X12299999D02*
D03*
X12199999D02*
D03*
X12739999D02*
D03*
X12639999D02*
D03*
X12540000D02*
D03*
X13079362Y8007058D02*
D03*
X13179362D02*
D03*
X13279362D02*
D03*
X13639362D02*
D03*
X13739362D02*
D03*
X13839362D02*
D03*
X14199362D02*
D03*
X14299362D02*
D03*
X14399362D02*
D03*
X14759361D02*
D03*
X14859361D02*
D03*
X14959361D02*
D03*
X14960001Y6770000D02*
D03*
X14859999D02*
D03*
X14760001D02*
D03*
X14399998D02*
D03*
X14299998D02*
D03*
X14200000D02*
D03*
X13839999Y6770000D02*
D03*
X13739999D02*
D03*
X13639999D02*
D03*
X13280000D02*
D03*
X13180000D02*
D03*
X13080000D02*
D03*
X8289999Y6720000D02*
D03*
X8189999D02*
D03*
X8089999D02*
D03*
X8849999D02*
D03*
X8749999D02*
D03*
X8649999D02*
D03*
X8640000Y8100000D02*
D03*
X8740000D02*
D03*
X8840000D02*
D03*
X8080000D02*
D03*
X8180000D02*
D03*
X8280000D02*
D03*
%TF.MD5,bc4e6ae3960aa69bc715c88dccc758ea*%
M02*
