%TF.GenerationSoftware,Altium Limited,Altium Designer,24.10.1 (45)*%
G04 Layer_Physical_Order=2*
G04 Layer_Color=32768*
%FSLAX45Y45*%
%MOMM*%
%TF.SameCoordinates,6B7C1C4C-1752-458E-A365-839E3CDA317C*%
%TF.FilePolarity,Negative*%
%TF.FileFunction,Copper,L2,Inr,Plane*%
%TF.Part,Single*%
G01*
G75*
%TA.AperFunction,ViaPad*%
%ADD41C,0.60000*%
%TA.AperFunction,NonConductor*%
%ADD42C,1.01600*%
%ADD43C,0.20000*%
%TA.AperFunction,ComponentPad*%
%ADD44O,0.80000X2.00000*%
%ADD45C,0.80000*%
%ADD46C,5.35000*%
%ADD47C,1.30000*%
%TA.AperFunction,ViaPad*%
%ADD48C,0.75000*%
%ADD49C,0.80000*%
D41*
X11590000Y7060000D02*
D03*
X12130000Y6860000D02*
D03*
X10220000Y7600000D02*
D03*
X15339999Y6960000D02*
D03*
X15680000Y6970000D02*
D03*
X11730000Y6920000D02*
D03*
X11570000Y6960000D02*
D03*
X11270000Y6200000D02*
D03*
X11030000Y6840000D02*
D03*
X10970000Y6900000D02*
D03*
X11040000Y6420000D02*
D03*
X10940000D02*
D03*
X11710000Y6710000D02*
D03*
X10610000Y6430000D02*
D03*
X10710000Y6920000D02*
D03*
X11750000Y6780000D02*
D03*
X10720000Y7070000D02*
D03*
X10600000Y6230000D02*
D03*
X10060000Y8050000D02*
D03*
X10690000Y8040000D02*
D03*
X11395000Y6725000D02*
D03*
X11285000D02*
D03*
X11395000Y6835000D02*
D03*
X11285000D02*
D03*
D42*
X6740000Y5770000D02*
Y8470000D01*
X15939999D01*
Y5770000D02*
Y8470000D01*
X6740000Y5770000D02*
X15939999D01*
D43*
X10120000Y7250000D02*
Y7320000D01*
X7170000Y7920000D02*
X7200000Y7950000D01*
X8390000D01*
X9190000Y7250000D02*
X10050000D01*
X8990000Y7050000D02*
X9190000Y7250000D01*
X8900000Y6960000D02*
X8990000Y7050000D01*
X8250000Y6960000D02*
X8900000D01*
X8020000D02*
X8250000D01*
X7700000Y7280000D02*
X8020000Y6960000D01*
X7190000Y7280000D02*
X7700000D01*
X7170000Y7300000D02*
X7190000Y7280000D01*
X7170000Y7300000D02*
Y7920000D01*
X8390000Y7950000D02*
X8840000D01*
X8920000Y7870000D01*
X9050000Y7740000D01*
X9570000D01*
X9870000D01*
X9900000Y7710000D01*
X10190000Y7420000D01*
X10200000D01*
X10050000Y7250000D02*
X11140000D01*
X11220000Y7330000D01*
Y7900000D01*
X11030000D02*
X11220000D01*
X10550000Y7420000D02*
X11030000Y7900000D01*
X10200000Y7420000D02*
X10550000D01*
X10120000Y7340000D02*
X10200000Y7420000D01*
X10120000Y7320000D02*
Y7340000D01*
X9730000Y6460000D02*
Y6910000D01*
X9940000Y7120000D01*
X10800000D01*
X9940000Y7120000D02*
Y7120000D01*
X11480000Y7340000D02*
Y7880000D01*
Y7340000D02*
X11530000Y7290000D01*
X12780000D01*
X13039999Y7030000D01*
X15760001D01*
X15880000Y7150000D01*
Y7880000D01*
X15770000Y7990000D02*
X15880000Y7880000D01*
X15300000Y7990000D02*
X15770000D01*
X15189999Y7880000D02*
X15300000Y7990000D01*
X11480000Y7880000D02*
X15189999D01*
X10800000Y7120000D02*
X10910000Y7010000D01*
X11860000D01*
X12110000Y6760000D01*
Y5900000D02*
Y6760000D01*
X12000000Y5790000D02*
X12110000Y5900000D01*
X10400000Y5790000D02*
X12000000D01*
X9730000Y6460000D02*
X10400000Y5790000D01*
D44*
X15437000Y7342502D02*
D03*
X15723000D02*
D03*
X15437000Y7824999D02*
D03*
X15723000D02*
D03*
D45*
X15619000Y7284999D02*
D03*
X15541000Y7870000D02*
D03*
Y7690000D02*
D03*
Y7600000D02*
D03*
Y7509999D02*
D03*
Y7329999D02*
D03*
X15619000Y7824999D02*
D03*
Y7644999D02*
D03*
Y7554999D02*
D03*
Y7464999D02*
D03*
D46*
X7180000Y7615750D02*
D03*
D47*
X11912000Y5960000D02*
D03*
X11658000D02*
D03*
X11404000D02*
D03*
X11150000D02*
D03*
X10896000D02*
D03*
D48*
X12000006Y6400003D02*
D03*
X11800006D02*
D03*
X11900006Y6200003D02*
D03*
X11800006Y6000003D02*
D03*
X11700006Y6200003D02*
D03*
X11500006D02*
D03*
X11100006Y6600004D02*
D03*
X10500006Y6200003D02*
D03*
X10400006Y6000003D02*
D03*
X10300006Y7000004D02*
D03*
X10000005Y6400003D02*
D03*
X10100005Y6200003D02*
D03*
X9800005Y6800004D02*
D03*
X9900005Y6600004D02*
D03*
D49*
X11860001Y6963980D02*
D03*
%TF.MD5,5c7a091719384001d654585252e99c82*%
M02*
