%TF.GenerationSoftware,Altium Limited,Altium Designer,24.10.1 (45)*%
G04 Layer_Physical_Order=3*
G04 Layer_Color=128*
%FSLAX45Y45*%
%MOMM*%
%TF.SameCoordinates,6B7C1C4C-1752-458E-A365-839E3CDA317C*%
%TF.FilePolarity,Negative*%
%TF.FileFunction,Copper,L3,Inr,Plane*%
%TF.Part,Single*%
G01*
G75*
%TA.AperFunction,ViaPad*%
%ADD41C,0.60000*%
%TA.AperFunction,NonConductor*%
%ADD42C,1.01600*%
%TA.AperFunction,ComponentPad*%
%ADD45C,0.80000*%
%ADD46C,5.35000*%
%ADD47C,1.30000*%
%TA.AperFunction,ViaPad*%
%ADD48C,0.75000*%
D41*
X11590000Y7060000D02*
D03*
X12130000Y6860000D02*
D03*
X10220000Y7600000D02*
D03*
X15339999Y6960000D02*
D03*
X15680000Y6970000D02*
D03*
X11730000Y6920000D02*
D03*
X11570000Y6960000D02*
D03*
X11030000Y6840000D02*
D03*
X10970000Y6900000D02*
D03*
X11040000Y6420000D02*
D03*
X10940000D02*
D03*
X11710000Y6710000D02*
D03*
X10610000Y6430000D02*
D03*
X11750000Y6780000D02*
D03*
X10720000Y7070000D02*
D03*
X11460000Y6350000D02*
D03*
X11910000Y6480000D02*
D03*
X10180000Y6740000D02*
D03*
X9820000Y6890000D02*
D03*
X10060000Y8050000D02*
D03*
X10690000Y8040000D02*
D03*
D42*
X6740000Y5770000D02*
Y8470000D01*
X15939999D01*
Y5770000D02*
Y8470000D01*
X6740000Y5770000D02*
X15939999D01*
D45*
X15541000Y7780000D02*
D03*
Y7690000D02*
D03*
Y7600000D02*
D03*
Y7509999D02*
D03*
Y7419999D02*
D03*
X15619000Y7734999D02*
D03*
Y7644999D02*
D03*
Y7554999D02*
D03*
Y7464999D02*
D03*
Y7374999D02*
D03*
D46*
X7180000Y7615750D02*
D03*
D47*
X11658000Y5960000D02*
D03*
X11404000D02*
D03*
X11150000D02*
D03*
X10896000D02*
D03*
X10642000D02*
D03*
D48*
X9930000Y7520000D02*
D03*
X9910000Y7370000D02*
D03*
X10650000Y7310000D02*
D03*
X10370000Y7330000D02*
D03*
X15800009Y7700004D02*
D03*
X15700008Y7200004D02*
D03*
Y7100004D02*
D03*
X15600008Y7200004D02*
D03*
Y7100004D02*
D03*
X15500008Y7200004D02*
D03*
Y7100004D02*
D03*
X15300008Y7900004D02*
D03*
Y7800004D02*
D03*
Y7700004D02*
D03*
Y7600004D02*
D03*
X15200008Y7800004D02*
D03*
Y7700004D02*
D03*
Y7600004D02*
D03*
Y7500004D02*
D03*
Y7400004D02*
D03*
Y7300004D02*
D03*
Y7200004D02*
D03*
Y7100004D02*
D03*
X15100008Y7800004D02*
D03*
Y7700004D02*
D03*
Y7600004D02*
D03*
Y7500004D02*
D03*
Y7400004D02*
D03*
Y7300004D02*
D03*
Y7200004D02*
D03*
Y7100004D02*
D03*
X15000008Y7800004D02*
D03*
Y7400004D02*
D03*
X14900008Y7800004D02*
D03*
Y7400004D02*
D03*
X14800008Y7800004D02*
D03*
Y7400004D02*
D03*
X14700008Y7800004D02*
D03*
Y7700004D02*
D03*
Y7600004D02*
D03*
Y7500004D02*
D03*
Y7400004D02*
D03*
Y7300004D02*
D03*
Y7200004D02*
D03*
Y7100004D02*
D03*
X14600008Y7800004D02*
D03*
Y7700004D02*
D03*
Y7600004D02*
D03*
Y7500004D02*
D03*
Y7400004D02*
D03*
Y7300004D02*
D03*
Y7200004D02*
D03*
Y7100004D02*
D03*
X14500008Y7800004D02*
D03*
Y7700004D02*
D03*
Y7600004D02*
D03*
Y7500004D02*
D03*
Y7400004D02*
D03*
Y7300004D02*
D03*
Y7200004D02*
D03*
Y7100004D02*
D03*
X14400008Y7800004D02*
D03*
Y7400004D02*
D03*
X14300008Y7800004D02*
D03*
Y7400004D02*
D03*
X14200008Y7800004D02*
D03*
Y7400004D02*
D03*
X14100008Y7800004D02*
D03*
Y7700004D02*
D03*
Y7600004D02*
D03*
Y7500004D02*
D03*
Y7400004D02*
D03*
Y7300004D02*
D03*
Y7200004D02*
D03*
Y7100004D02*
D03*
X14000008Y7800004D02*
D03*
Y7700004D02*
D03*
Y7600004D02*
D03*
Y7500004D02*
D03*
Y7400004D02*
D03*
Y7300004D02*
D03*
Y7200004D02*
D03*
Y7100004D02*
D03*
X13900008Y7800004D02*
D03*
Y7700004D02*
D03*
Y7600004D02*
D03*
Y7500004D02*
D03*
Y7400004D02*
D03*
Y7300004D02*
D03*
Y7200004D02*
D03*
Y7100004D02*
D03*
X13800008Y7800004D02*
D03*
Y7400004D02*
D03*
X13700008Y7800004D02*
D03*
Y7400004D02*
D03*
X13600008Y7800004D02*
D03*
Y7400004D02*
D03*
X13500008Y7800004D02*
D03*
Y7700004D02*
D03*
Y7600004D02*
D03*
Y7500004D02*
D03*
Y7400004D02*
D03*
Y7300004D02*
D03*
Y7200004D02*
D03*
Y7100004D02*
D03*
X13400008Y7800004D02*
D03*
Y7700004D02*
D03*
Y7600004D02*
D03*
Y7500004D02*
D03*
Y7400004D02*
D03*
Y7300004D02*
D03*
Y7200004D02*
D03*
Y7100004D02*
D03*
X13300008Y7800004D02*
D03*
Y7400004D02*
D03*
X13200008Y7800004D02*
D03*
Y7400004D02*
D03*
X13100008Y7800004D02*
D03*
Y7400004D02*
D03*
X13000008Y7800004D02*
D03*
Y7700004D02*
D03*
Y7600004D02*
D03*
Y7500004D02*
D03*
Y7400004D02*
D03*
Y7300004D02*
D03*
Y7200004D02*
D03*
X12900008Y7800004D02*
D03*
Y7700004D02*
D03*
Y7600004D02*
D03*
Y7500004D02*
D03*
Y7400004D02*
D03*
Y7300004D02*
D03*
X12800008Y7600004D02*
D03*
X12700007D02*
D03*
X12600007D02*
D03*
X12500007D02*
D03*
X12400007D02*
D03*
X12300007D02*
D03*
X12200007D02*
D03*
X12100007D02*
D03*
X12000006D02*
D03*
X11900006D02*
D03*
X11700006Y7800004D02*
D03*
Y7700004D02*
D03*
Y7500004D02*
D03*
Y7400004D02*
D03*
X11000006Y7700004D02*
D03*
Y7600004D02*
D03*
Y7500004D02*
D03*
Y7400004D02*
D03*
X10900006Y7600004D02*
D03*
Y7500004D02*
D03*
Y7400004D02*
D03*
X10800006Y7500004D02*
D03*
Y7400004D02*
D03*
X10700006D02*
D03*
X9960001Y7440001D02*
D03*
X9720001D02*
D03*
X9600001Y7320001D02*
D03*
X9120001Y7680001D02*
D03*
Y7560001D02*
D03*
Y7440001D02*
D03*
Y7320001D02*
D03*
X9000001Y7680001D02*
D03*
Y7560001D02*
D03*
Y7440001D02*
D03*
Y7320001D02*
D03*
Y7200001D02*
D03*
X8880001Y7800001D02*
D03*
Y7440001D02*
D03*
Y7320001D02*
D03*
X8760001Y7440001D02*
D03*
Y7320001D02*
D03*
X8640001Y7440001D02*
D03*
Y7320001D02*
D03*
X8520001Y7800001D02*
D03*
Y7680001D02*
D03*
Y7560001D02*
D03*
Y7440001D02*
D03*
Y7320001D02*
D03*
Y7200001D02*
D03*
Y7080001D02*
D03*
X8400001Y7800001D02*
D03*
Y7680001D02*
D03*
Y7560001D02*
D03*
Y7440001D02*
D03*
Y7320001D02*
D03*
Y7200001D02*
D03*
Y7080001D02*
D03*
X8280001Y7440001D02*
D03*
Y7320001D02*
D03*
X8160001Y7440001D02*
D03*
Y7320001D02*
D03*
X8040001Y7800001D02*
D03*
Y7440001D02*
D03*
Y7320001D02*
D03*
X7920001Y7800001D02*
D03*
Y7680001D02*
D03*
Y7560001D02*
D03*
Y7440001D02*
D03*
Y7320001D02*
D03*
Y7200001D02*
D03*
X7800001Y7800001D02*
D03*
Y7680001D02*
D03*
Y7560001D02*
D03*
Y7440001D02*
D03*
Y7320001D02*
D03*
X7680001Y7800001D02*
D03*
Y7680001D02*
D03*
Y7560001D02*
D03*
Y7440001D02*
D03*
X7560001Y7800001D02*
D03*
Y7680001D02*
D03*
Y7560001D02*
D03*
Y7440001D02*
D03*
%TF.MD5,274301f445a39d009428ff1c7b05e724*%
M02*
