%TF.GenerationSoftware,Altium Limited,Altium Designer,24.10.1 (45)*%
G04 Layer_Physical_Order=1*
G04 Layer_Color=255*
%FSLAX45Y45*%
%MOMM*%
%TF.SameCoordinates,6B7C1C4C-1752-458E-A365-839E3CDA317C*%
%TF.FilePolarity,Positive*%
%TF.FileFunction,Copper,L1,Top,Signal*%
%TF.Part,Single*%
G01*
G75*
%TA.AperFunction,SMDPad,CuDef*%
%ADD10R,1.45000X5.50000*%
%ADD11R,0.25000X0.70000*%
%ADD12R,0.70000X0.30000*%
%ADD13R,1.50000X0.30000*%
%ADD14R,2.10000X2.10000*%
%ADD15R,0.25000X1.05000*%
%ADD16R,1.05000X0.25000*%
%ADD17C,0.60000*%
%ADD18R,0.95000X0.95000*%
%ADD19R,0.90000X0.70000*%
%ADD20R,0.95000X0.80000*%
%ADD21R,0.80000X0.95000*%
%ADD22R,0.95000X0.95000*%
%ADD23R,1.00000X0.90000*%
%ADD24R,0.85000X0.95000*%
%ADD25R,0.80000X0.60000*%
%ADD26R,0.60000X0.80000*%
%ADD27R,0.95822X1.00650*%
%ADD28R,0.91213X0.95872*%
%ADD29R,1.00650X0.95822*%
%ADD30R,0.96822X1.00650*%
%ADD31R,1.10620X0.75620*%
%ADD32R,2.80415X1.50273*%
%ADD33R,2.33000X1.99000*%
%TA.AperFunction,Conductor*%
%ADD34C,0.18000*%
%TA.AperFunction,ComponentPad*%
%ADD35O,0.60000X1.90000*%
%ADD36C,0.60000*%
%ADD37C,6.50000*%
%ADD38R,1.50000X1.50000*%
%ADD39C,1.50000*%
%TA.AperFunction,ViaPad*%
%ADD40C,0.50000*%
%ADD41C,0.60000*%
G36*
X15889999Y7907401D02*
X15877299Y7902141D01*
X15779720Y7999720D01*
X15770000Y8003747D01*
X15770000Y8003747D01*
X15300000D01*
X15300000Y8003747D01*
X15290280Y7999720D01*
X15184306Y7893746D01*
X11635200D01*
Y7897700D01*
X11464800D01*
Y7322300D01*
X11478259D01*
X11520280Y7280280D01*
X11527875Y7277134D01*
Y7239165D01*
X11510836Y7222125D01*
X11030000D01*
X11021533Y7220441D01*
X11014355Y7215645D01*
X10884355Y7085645D01*
X10879559Y7078467D01*
X10877875Y7070000D01*
Y6919164D01*
X10740836Y6782125D01*
X10670200D01*
Y6820200D01*
X10564800D01*
Y6699800D01*
X10600460D01*
Y6650611D01*
X10559561D01*
Y6529389D01*
X10685611D01*
Y6650611D01*
X10644711D01*
Y6699800D01*
X10670200D01*
Y6737875D01*
X10750000D01*
X10758467Y6739559D01*
X10765645Y6744355D01*
X10912311Y6891021D01*
X10916897Y6891031D01*
X10923867Y6889216D01*
X10926420Y6887621D01*
X10931851Y6874509D01*
X10944509Y6861851D01*
X10961049Y6855000D01*
X10973759D01*
X10981067Y6851067D01*
X10985000Y6843759D01*
Y6831049D01*
X10991851Y6814510D01*
X10992502Y6813858D01*
X10987642Y6802125D01*
X10910000D01*
X10901533Y6800441D01*
X10894355Y6795645D01*
X10794355Y6695645D01*
X10789559Y6688467D01*
X10787875Y6680000D01*
Y6519165D01*
X10647669Y6378958D01*
X10639762Y6379874D01*
X10637172Y6387135D01*
X10636658Y6393018D01*
X10648149Y6404510D01*
X10655000Y6421049D01*
Y6438951D01*
X10648149Y6455491D01*
X10635491Y6468149D01*
X10618951Y6475000D01*
X10601049D01*
X10584510Y6468149D01*
X10571851Y6455491D01*
X10570457Y6452125D01*
X10317700D01*
Y6467700D01*
X10202300D01*
Y6386731D01*
X10189600Y6381690D01*
X10167700Y6403590D01*
Y6467700D01*
X10052300D01*
Y6372300D01*
X10136410D01*
X10168355Y6340355D01*
X10175533Y6335559D01*
X10184000Y6333875D01*
X10656000D01*
X10664467Y6335559D01*
X10671645Y6340355D01*
X10825645Y6494355D01*
X10830441Y6501533D01*
X10832125Y6510000D01*
Y6670835D01*
X10919165Y6757875D01*
X10980409D01*
X10984389Y6747190D01*
X10984495Y6745175D01*
X10970987Y6731667D01*
X10968493Y6732700D01*
X10951506D01*
X10935813Y6726199D01*
X10923801Y6714187D01*
X10917300Y6698494D01*
Y6681507D01*
X10923801Y6665813D01*
X10935813Y6653801D01*
X10951506Y6647300D01*
X10968493D01*
X10984187Y6653801D01*
X10996199Y6665813D01*
X11002700Y6681507D01*
Y6698493D01*
X11010867Y6707875D01*
X11062299D01*
X11066279Y6697189D01*
X11066385Y6695175D01*
X10829355Y6458145D01*
X10824559Y6450967D01*
X10822875Y6442500D01*
Y6300200D01*
X10784800D01*
Y6179800D01*
X10822875D01*
Y6046719D01*
X10824559Y6038252D01*
X10829355Y6031074D01*
X10838111Y6022319D01*
X10827983Y6012191D01*
X10816793Y5992809D01*
X10811000Y5971190D01*
Y5948810D01*
X10816793Y5927191D01*
X10827983Y5907809D01*
X10843809Y5891983D01*
X10863191Y5880793D01*
X10884810Y5875000D01*
X10907191D01*
X10928809Y5880793D01*
X10948191Y5891983D01*
X10964017Y5907809D01*
X10975207Y5927191D01*
X10981000Y5948810D01*
Y5971190D01*
X10975207Y5992809D01*
X10964017Y6012191D01*
X10948191Y6028017D01*
X10928809Y6039207D01*
X10907191Y6045000D01*
X10884810D01*
X10879446Y6043563D01*
X10867125Y6055884D01*
Y6179800D01*
X10905175D01*
X10905200Y6179800D01*
X10917875Y6179739D01*
Y6140000D01*
X10919559Y6131533D01*
X10924355Y6124355D01*
X11067646Y5981064D01*
X11065000Y5971190D01*
Y5948810D01*
X11070793Y5927191D01*
X11081983Y5907809D01*
X11097809Y5891983D01*
X11117191Y5880793D01*
X11138810Y5875000D01*
X11161191D01*
X11182809Y5880793D01*
X11202191Y5891983D01*
X11218017Y5907809D01*
X11229207Y5927191D01*
X11235000Y5948810D01*
Y5963916D01*
X11247700Y5969177D01*
X11272522Y5944355D01*
X11279700Y5939559D01*
X11288167Y5937875D01*
X11321930D01*
X11324793Y5927191D01*
X11335983Y5907809D01*
X11351809Y5891983D01*
X11371191Y5880793D01*
X11392810Y5875000D01*
X11415191D01*
X11436809Y5880793D01*
X11456191Y5891983D01*
X11472017Y5907809D01*
X11483207Y5927191D01*
X11489000Y5948810D01*
Y5971190D01*
X11483207Y5992809D01*
X11472017Y6012191D01*
X11456191Y6028017D01*
X11436809Y6039207D01*
X11415191Y6045000D01*
X11392810D01*
X11371191Y6039207D01*
X11351809Y6028017D01*
X11335983Y6012191D01*
X11324793Y5992809D01*
X11321930Y5982125D01*
X11297331D01*
X11062125Y6217331D01*
Y6380457D01*
X11065490Y6381851D01*
X11078149Y6394510D01*
X11085000Y6411049D01*
Y6428951D01*
X11078149Y6445491D01*
X11065490Y6458149D01*
X11048951Y6465000D01*
X11031049D01*
X11014510Y6458149D01*
X11001851Y6445491D01*
X10996733Y6433135D01*
X10983267D01*
X10978149Y6445491D01*
X10965490Y6458149D01*
X10948951Y6465000D01*
X10931049D01*
X10914510Y6458149D01*
X10901851Y6445491D01*
X10895000Y6428951D01*
Y6411049D01*
X10901851Y6394510D01*
X10914510Y6381851D01*
X10917875Y6380457D01*
Y6300261D01*
X10905200Y6300200D01*
X10905175Y6300200D01*
X10867125D01*
Y6433336D01*
X11082233Y6648443D01*
X11092300Y6654800D01*
X11213272Y6654800D01*
X11214799Y6654799D01*
X11214800Y6653273D01*
X11214800Y6563590D01*
X11164355Y6513145D01*
X11159559Y6505967D01*
X11157875Y6497500D01*
Y6415611D01*
X11119389D01*
Y6289561D01*
X11240611D01*
Y6415611D01*
X11202125D01*
Y6488336D01*
X11246090Y6532300D01*
X11267875D01*
Y6504554D01*
X11269559Y6496087D01*
X11274355Y6488909D01*
X11327875Y6435389D01*
Y6413307D01*
X11291694D01*
Y6292035D01*
X11408307D01*
Y6327875D01*
X11420457D01*
X11421851Y6324510D01*
X11434510Y6311851D01*
X11451049Y6305000D01*
X11468951D01*
X11485490Y6311851D01*
X11498149Y6324510D01*
X11505000Y6341049D01*
Y6358951D01*
X11498149Y6375490D01*
X11485490Y6388149D01*
X11468951Y6395000D01*
X11451049D01*
X11434510Y6388149D01*
X11421851Y6375490D01*
X11420457Y6372125D01*
X11408307D01*
Y6413307D01*
X11372125D01*
Y6444554D01*
X11370441Y6453020D01*
X11365645Y6460198D01*
X11312125Y6513718D01*
Y6532300D01*
X11315200D01*
Y6662700D01*
X11224228Y6662700D01*
X11222701Y6662701D01*
X11222700Y6664226D01*
X11222700Y6704800D01*
Y6804800D01*
Y6895772D01*
X11222700Y6897300D01*
X11224228Y6897300D01*
X11455772D01*
X11457300Y6897300D01*
X11457300Y6895772D01*
Y6854800D01*
Y6754800D01*
X11457300Y6664228D01*
X11457299Y6662701D01*
X11455773Y6662700D01*
X11364800Y6662700D01*
Y6532300D01*
X11367875D01*
Y6520000D01*
X11369559Y6511533D01*
X11374355Y6504355D01*
X11404355Y6474355D01*
X11411533Y6469559D01*
X11420000Y6467875D01*
X11438909D01*
X11529987Y6376797D01*
X11537165Y6372001D01*
X11545632Y6370316D01*
X11623113D01*
Y6355307D01*
X11629614Y6339613D01*
X11641625Y6327602D01*
X11657319Y6321101D01*
X11674306D01*
X11690000Y6327602D01*
X11702012Y6339613D01*
X11708513Y6355307D01*
Y6372294D01*
X11702012Y6387988D01*
X11690000Y6400000D01*
X11674306Y6406501D01*
X11657319D01*
X11653204Y6404796D01*
X11649913Y6408086D01*
X11642735Y6412883D01*
X11634268Y6414567D01*
X11554797D01*
X11463718Y6505645D01*
X11456540Y6510441D01*
X11448074Y6512125D01*
X11430809D01*
X11423754Y6520924D01*
X11428685Y6532300D01*
X11465200D01*
Y6575375D01*
X11483335D01*
X11564355Y6494355D01*
X11571533Y6489559D01*
X11580000Y6487875D01*
X11712947D01*
X11713801Y6485813D01*
X11725813Y6473801D01*
X11741507Y6467300D01*
X11758494D01*
X11774188Y6473801D01*
X11786199Y6485813D01*
X11792700Y6501506D01*
Y6518493D01*
X11786199Y6534187D01*
X11774188Y6546199D01*
X11758494Y6552700D01*
X11741507D01*
X11725813Y6546199D01*
X11713801Y6534187D01*
X11712947Y6532125D01*
X11589165D01*
X11508145Y6613145D01*
X11500967Y6617941D01*
X11492500Y6619625D01*
X11474180D01*
X11465200Y6628605D01*
X11465200Y6653272D01*
X11465201Y6654799D01*
X11466726Y6654800D01*
X11587700Y6654800D01*
Y6657875D01*
X11630836D01*
X11658154Y6630556D01*
X11657300Y6628493D01*
Y6611506D01*
X11663801Y6595813D01*
X11675813Y6583801D01*
X11691506Y6577300D01*
X11708493D01*
X11724187Y6583801D01*
X11736199Y6595813D01*
X11742700Y6611506D01*
Y6628493D01*
X11736199Y6644187D01*
X11726151Y6654236D01*
X11726237Y6663756D01*
X11727539Y6668557D01*
X11735490Y6671851D01*
X11748149Y6684510D01*
X11755000Y6701049D01*
Y6718951D01*
X11752591Y6724767D01*
X11761638Y6736113D01*
X11775491Y6741851D01*
X11788149Y6754509D01*
X11789543Y6757875D01*
X11820835D01*
X11839355Y6739355D01*
X11846533Y6734559D01*
X11849800Y6733909D01*
Y6664800D01*
X11970200D01*
Y6785200D01*
X11856090D01*
X11845645Y6795645D01*
X11838467Y6800441D01*
X11830000Y6802125D01*
X11789543D01*
X11788149Y6805490D01*
X11775491Y6818149D01*
X11758951Y6825000D01*
X11741049D01*
X11724510Y6818149D01*
X11711851Y6805490D01*
X11710457Y6802125D01*
X11671542D01*
X11667561Y6812810D01*
X11667455Y6814825D01*
X11690505Y6837875D01*
X12090457D01*
X12091851Y6834510D01*
X12104510Y6821851D01*
X12121049Y6815000D01*
X12138951D01*
X12155491Y6821851D01*
X12168149Y6834510D01*
X12175000Y6851049D01*
Y6868951D01*
X12168149Y6885490D01*
X12155491Y6898149D01*
X12138951Y6905000D01*
X12121049D01*
X12104510Y6898149D01*
X12091851Y6885490D01*
X12090457Y6882125D01*
X11772358D01*
X11767498Y6893858D01*
X11768149Y6894509D01*
X11775000Y6911049D01*
Y6928951D01*
X11768149Y6945490D01*
X11755490Y6958149D01*
X11738951Y6965000D01*
X11721049D01*
X11704509Y6958149D01*
X11693866Y6947505D01*
X11653158D01*
X11644691Y6945821D01*
X11637513Y6941025D01*
X11600400Y6903912D01*
X11587700Y6905200D01*
X11585951Y6917900D01*
X11595490Y6921851D01*
X11608149Y6934510D01*
X11615000Y6951049D01*
Y6968951D01*
X11608149Y6985490D01*
X11595490Y6998149D01*
X11585469Y7002300D01*
X11587995Y7015000D01*
X11598951D01*
X11615490Y7021851D01*
X11628149Y7034510D01*
X11635000Y7051049D01*
Y7068951D01*
X11628149Y7085491D01*
X11615490Y7098149D01*
X11598951Y7105000D01*
X11581049D01*
X11564510Y7098149D01*
X11551851Y7085491D01*
X11550457Y7082125D01*
X11431488D01*
X11423021Y7080441D01*
X11415843Y7075645D01*
X11377855Y7037657D01*
X11374825Y7033122D01*
X11362125Y7035653D01*
Y7079470D01*
X11369955Y7087300D01*
X11378494D01*
X11394188Y7093801D01*
X11406199Y7105813D01*
X11412700Y7121506D01*
Y7138493D01*
X11406199Y7154187D01*
X11395212Y7165175D01*
X11395752Y7169914D01*
X11399105Y7177875D01*
X11520000D01*
X11528467Y7179559D01*
X11535645Y7184355D01*
X11565645Y7214355D01*
X11570441Y7221533D01*
X11572125Y7230000D01*
Y7276253D01*
X12774306D01*
X13030280Y7020280D01*
X13039999Y7016253D01*
X13040001Y7016253D01*
X15325031D01*
X15327557Y7003553D01*
X15314510Y6998149D01*
X15301851Y6985490D01*
X15295000Y6968951D01*
Y6951049D01*
X15301851Y6934510D01*
X15314510Y6921851D01*
X15331049Y6915000D01*
X15348952D01*
X15365491Y6921851D01*
X15378149Y6934510D01*
X15383685Y6947875D01*
X15640457D01*
X15641850Y6944510D01*
X15654509Y6931851D01*
X15671049Y6925000D01*
X15688951D01*
X15705490Y6931851D01*
X15718149Y6944510D01*
X15725000Y6961049D01*
Y6978951D01*
X15718149Y6995490D01*
X15710086Y7003553D01*
X15715347Y7016253D01*
X15760001D01*
X15769720Y7020280D01*
X15769720Y7020280D01*
X15877299Y7127859D01*
X15889999Y7122599D01*
X15889999Y5820000D01*
X6790000D01*
Y8420000D01*
X15889999D01*
Y7907401D01*
D02*
G37*
G36*
X15880000Y7880000D02*
Y7150000D01*
X15760001Y7030000D01*
X13039999D01*
X12780000Y7290000D01*
X11530000D01*
X11480000Y7340000D01*
Y7880000D01*
X15189999D01*
X15300000Y7990000D01*
X15770000D01*
X15880000Y7880000D01*
D02*
G37*
G36*
X11107875Y7153000D02*
X11109559Y7144533D01*
X11114355Y7137355D01*
X11212332Y7039378D01*
X11214800Y7027700D01*
X11214800Y7027700D01*
X11214800Y7027699D01*
Y6906728D01*
X11214800Y6905200D01*
X11213272Y6905200D01*
X11092300D01*
Y6905200D01*
X11079745Y6905549D01*
X11069649Y6915645D01*
X11062471Y6920441D01*
X11054004Y6922125D01*
X11009543D01*
X11008149Y6925490D01*
X10995490Y6938149D01*
X10978951Y6945000D01*
X10961049D01*
X10944509Y6938149D01*
X10934825Y6928465D01*
X10922125Y6932671D01*
Y7060836D01*
X11039165Y7177875D01*
X11107875D01*
Y7153000D01*
D02*
G37*
G36*
X11001851Y6394510D02*
X11014510Y6381851D01*
X11017875Y6380457D01*
Y6208167D01*
X11019559Y6199700D01*
X11024355Y6192522D01*
X11159177Y6057700D01*
X11153916Y6045000D01*
X11138810D01*
X11117191Y6039207D01*
X11097809Y6028017D01*
X11090541Y6020749D01*
X10962125Y6149165D01*
Y6380457D01*
X10965490Y6381851D01*
X10978149Y6394510D01*
X10983267Y6406865D01*
X10996733D01*
X11001851Y6394510D01*
D02*
G37*
%LPC*%
G36*
X7515200Y8290200D02*
X7394800D01*
Y8252125D01*
X7365200D01*
Y8282700D01*
X7279800D01*
Y8177300D01*
X7365200D01*
Y8207875D01*
X7394800D01*
Y8169800D01*
X7515200D01*
Y8290200D01*
D02*
G37*
G36*
X10698951Y8085000D02*
X10681049D01*
X10664510Y8078149D01*
X10651851Y8065490D01*
X10645000Y8048951D01*
Y8031049D01*
X10651851Y8014509D01*
X10655961Y8010400D01*
X10650700Y7997700D01*
X10632300D01*
Y7902300D01*
X10747700D01*
Y7997700D01*
X10729300D01*
X10724039Y8010400D01*
X10728149Y8014509D01*
X10735000Y8031049D01*
Y8048951D01*
X10728149Y8065490D01*
X10715490Y8078149D01*
X10698951Y8085000D01*
D02*
G37*
G36*
X7665200Y8290200D02*
X7544800D01*
Y8169800D01*
X7582875D01*
Y8049914D01*
X7486707Y7953747D01*
X7170001D01*
X7170000Y7953747D01*
X7162764Y7950750D01*
X7153635D01*
X7101554Y7942501D01*
X7051404Y7926206D01*
X7004422Y7902267D01*
X6961762Y7871273D01*
X6924476Y7833988D01*
X6893482Y7791328D01*
X6869543Y7744345D01*
X6853249Y7694196D01*
X6845000Y7642115D01*
Y7589385D01*
X6853249Y7537304D01*
X6869543Y7487154D01*
X6893482Y7440172D01*
X6924476Y7397512D01*
X6961762Y7360226D01*
X7004422Y7329232D01*
X7051404Y7305293D01*
X7101554Y7288999D01*
X7153635Y7280750D01*
X7159809D01*
X7160280Y7280280D01*
X7170000Y7276253D01*
X7170000Y7276253D01*
X7704306D01*
X8010280Y6970280D01*
X8020000Y6966253D01*
X8020000Y6966254D01*
X8900000D01*
X8909720Y6970280D01*
X8909721Y6970280D01*
X9185694Y7246253D01*
X9849999D01*
X9850000Y7246252D01*
X9859721Y7250279D01*
X9859721Y7250281D01*
X9925694Y7316254D01*
X10070000D01*
X10070000Y7316253D01*
X10079721Y7320280D01*
X10114675Y7355234D01*
X10123250Y7351358D01*
X10126254Y7348852D01*
Y7310000D01*
X10130280Y7300280D01*
X10140000Y7296254D01*
X10294306D01*
X10330280Y7260280D01*
X10340000Y7256253D01*
X10340001Y7256253D01*
X11149999D01*
X11150000Y7256252D01*
X11159721Y7260279D01*
X11159721Y7260281D01*
X11221741Y7322300D01*
X11235200D01*
Y7897700D01*
X11064800D01*
Y7884240D01*
X10574306Y7393746D01*
X10330001D01*
X10330000Y7393747D01*
X10320279Y7389721D01*
X10308466Y7393416D01*
X10307700Y7393734D01*
Y7411410D01*
X10344836Y7448546D01*
X10448889D01*
Y7409560D01*
X10571111D01*
Y7535611D01*
X10448889D01*
Y7492797D01*
X10335671D01*
X10327204Y7491112D01*
X10320026Y7486316D01*
X10256410Y7422700D01*
X10250994D01*
X10240200Y7427300D01*
X10240199Y7435400D01*
Y7452875D01*
X10255000D01*
X10263467Y7454559D01*
X10270645Y7459355D01*
X10554189Y7742899D01*
X10558985Y7750077D01*
X10560670Y7758544D01*
Y7762300D01*
X10597700D01*
Y7787875D01*
X10632300D01*
Y7762300D01*
X10747700D01*
Y7857700D01*
X10632300D01*
Y7832125D01*
X10597700D01*
Y7857700D01*
X10482300D01*
Y7762300D01*
X10494417D01*
X10499277Y7750567D01*
X10252899Y7504189D01*
X10240199Y7509450D01*
Y7522700D01*
X10187125D01*
Y7535835D01*
X10207684Y7556394D01*
X10211049Y7555000D01*
X10228951D01*
X10245491Y7561851D01*
X10258149Y7574510D01*
X10265000Y7591049D01*
Y7608951D01*
X10263606Y7612316D01*
X10395645Y7744355D01*
X10400441Y7751533D01*
X10402125Y7760000D01*
Y7764800D01*
X10440200D01*
Y7870200D01*
X10319800D01*
Y7764800D01*
X10336917D01*
X10341777Y7753067D01*
X10232316Y7643606D01*
X10228951Y7645000D01*
X10211049D01*
X10194510Y7638149D01*
X10181851Y7625490D01*
X10175000Y7608951D01*
Y7591049D01*
X10176394Y7587684D01*
X10149825Y7561115D01*
X10147810Y7561220D01*
X10137125Y7565201D01*
Y7625835D01*
X10235645Y7724355D01*
X10240441Y7731533D01*
X10242125Y7740000D01*
Y7759800D01*
X10280200D01*
Y7865200D01*
X10159800D01*
Y7759800D01*
X10192890D01*
X10195810Y7747100D01*
X10099355Y7650645D01*
X10094825Y7643865D01*
X10093748Y7643631D01*
X10082125Y7645978D01*
Y7757300D01*
X10122700D01*
Y7872700D01*
X9997300D01*
Y7829625D01*
X9972700D01*
Y7850200D01*
X9873125D01*
Y8035839D01*
X9924560Y8087275D01*
X10017042D01*
X10021902Y8075541D01*
X10021851Y8075490D01*
X10015000Y8058951D01*
Y8041049D01*
X10021851Y8024509D01*
X10030961Y8015400D01*
X10025942Y8002700D01*
X9997300D01*
Y7887300D01*
X10122700D01*
Y8002700D01*
X10094058D01*
X10089039Y8015400D01*
X10098149Y8024509D01*
X10105000Y8041049D01*
Y8058951D01*
X10098149Y8075490D01*
X10098098Y8075541D01*
X10102958Y8087275D01*
X10301436D01*
X10332923Y8055787D01*
Y7995200D01*
X10319800D01*
Y7889800D01*
X10440200D01*
Y7995200D01*
X10377173D01*
Y8064952D01*
X10375489Y8073419D01*
X10370693Y8080597D01*
X10326245Y8125045D01*
X10319067Y8129841D01*
X10310600Y8131525D01*
X9915396D01*
X9906929Y8129841D01*
X9899751Y8125045D01*
X9835355Y8060649D01*
X9830559Y8053471D01*
X9828875Y8045004D01*
Y7727160D01*
X9817141Y7722299D01*
X9809720Y7729720D01*
X9800000Y7733747D01*
X9799999Y7733747D01*
X9065694D01*
X8849720Y7949720D01*
X8840000Y7953747D01*
X8839999Y7953747D01*
X7565880D01*
X7561020Y7965480D01*
X7620645Y8025105D01*
X7625441Y8032283D01*
X7627125Y8040750D01*
Y8169800D01*
X7665200D01*
Y8290200D01*
D02*
G37*
G36*
X10670200Y7130200D02*
X10559800D01*
Y7009800D01*
X10670200D01*
Y7039567D01*
X10678040Y7042893D01*
X10682900Y7043461D01*
X10694509Y7031851D01*
X10711049Y7025000D01*
X10728951D01*
X10745490Y7031851D01*
X10758149Y7044510D01*
X10765000Y7061049D01*
Y7078951D01*
X10758149Y7095491D01*
X10745490Y7108149D01*
X10728951Y7115000D01*
X10711049D01*
X10694509Y7108149D01*
X10682900Y7096540D01*
X10678040Y7097107D01*
X10670200Y7100433D01*
Y7130200D01*
D02*
G37*
G36*
X10240199Y7232700D02*
X10039800D01*
Y7137300D01*
X10042875D01*
Y7124164D01*
X9924355Y7005645D01*
X9919559Y6998467D01*
X9917875Y6990000D01*
Y6953306D01*
X9881693D01*
Y6912125D01*
X9859543D01*
X9858149Y6915490D01*
X9845490Y6928149D01*
X9828951Y6935000D01*
X9811049D01*
X9794509Y6928149D01*
X9781851Y6915490D01*
X9775000Y6898951D01*
Y6881049D01*
X9781851Y6864510D01*
X9794509Y6851851D01*
X9811049Y6845000D01*
X9828951D01*
X9845490Y6851851D01*
X9858149Y6864510D01*
X9859543Y6867875D01*
X9881693D01*
Y6832035D01*
X9992104Y6832035D01*
X9992481Y6831860D01*
X10001831Y6820795D01*
X10001375Y6818500D01*
Y6685488D01*
X10003059Y6677021D01*
X10007855Y6669843D01*
X10039599Y6638099D01*
X10046777Y6633303D01*
X10055244Y6631619D01*
X10069091D01*
X10080311Y6620400D01*
X10075050Y6607700D01*
X10052300D01*
Y6512300D01*
X10167700D01*
Y6607700D01*
X10132125D01*
Y6622000D01*
X10130441Y6630467D01*
X10125645Y6637645D01*
X10093901Y6669389D01*
X10089843Y6672100D01*
X10093500Y6684800D01*
X10160200D01*
Y6688064D01*
X10170760Y6695120D01*
X10171049Y6695000D01*
X10188951D01*
X10197100Y6698375D01*
X10209800Y6689890D01*
Y6684800D01*
X10276500D01*
X10280157Y6672100D01*
X10276099Y6669389D01*
X10244355Y6637645D01*
X10239559Y6630467D01*
X10237875Y6622000D01*
Y6607700D01*
X10202300D01*
Y6512300D01*
X10317700D01*
Y6607700D01*
X10294950D01*
X10289690Y6620400D01*
X10300909Y6631619D01*
X10314756D01*
X10323223Y6633303D01*
X10330401Y6638099D01*
X10362145Y6669843D01*
X10366941Y6677021D01*
X10368625Y6685488D01*
Y6818500D01*
X10366941Y6826967D01*
X10362145Y6834145D01*
X10330200Y6866090D01*
Y6955200D01*
X10241090D01*
X10187125Y7009165D01*
Y7137300D01*
X10208910D01*
X10331855Y7014355D01*
X10339033Y7009559D01*
X10347500Y7007875D01*
X10375835D01*
X10434800Y6948910D01*
Y6859800D01*
X10465375D01*
Y6820200D01*
X10429800D01*
Y6699800D01*
X10460375D01*
Y6650611D01*
X10414389D01*
Y6529389D01*
X10540439D01*
Y6650611D01*
X10504625D01*
Y6699800D01*
X10535200D01*
Y6820200D01*
X10509625D01*
Y6859800D01*
X10540200D01*
Y6980200D01*
X10466090D01*
X10400645Y7045645D01*
X10393467Y7050441D01*
X10385000Y7052125D01*
X10356664D01*
X10240199Y7168590D01*
Y7232700D01*
D02*
G37*
G36*
X11970200Y6635200D02*
X11849800D01*
Y6514800D01*
X11864567D01*
X11870447Y6502100D01*
X11865000Y6488951D01*
Y6471049D01*
X11871851Y6454509D01*
X11884510Y6441851D01*
X11901049Y6435000D01*
X11918951D01*
X11935490Y6441851D01*
X11948149Y6454509D01*
X11955000Y6471049D01*
Y6488951D01*
X11949553Y6502100D01*
X11955433Y6514800D01*
X11970200D01*
Y6635200D01*
D02*
G37*
G36*
X11669191Y6045000D02*
X11646810D01*
X11625191Y6039207D01*
X11605809Y6028017D01*
X11589983Y6012191D01*
X11578793Y5992809D01*
X11573000Y5971190D01*
Y5948810D01*
X11578793Y5927191D01*
X11589983Y5907809D01*
X11605809Y5891983D01*
X11625191Y5880793D01*
X11646810Y5875000D01*
X11669191D01*
X11690809Y5880793D01*
X11710191Y5891983D01*
X11726017Y5907809D01*
X11737207Y5927191D01*
X11743000Y5948810D01*
Y5971190D01*
X11737207Y5992809D01*
X11726017Y6012191D01*
X11710191Y6028017D01*
X11690809Y6039207D01*
X11669191Y6045000D01*
D02*
G37*
G36*
X10653191D02*
X10630810D01*
X10609191Y6039207D01*
X10589809Y6028017D01*
X10573983Y6012191D01*
X10562793Y5992809D01*
X10557000Y5971190D01*
Y5948810D01*
X10562793Y5927191D01*
X10573983Y5907809D01*
X10589809Y5891983D01*
X10609191Y5880793D01*
X10630810Y5875000D01*
X10653191D01*
X10674809Y5880793D01*
X10694191Y5891983D01*
X10710017Y5907809D01*
X10721207Y5927191D01*
X10727000Y5948810D01*
Y5971190D01*
X10721207Y5992809D01*
X10710017Y6012191D01*
X10694191Y6028017D01*
X10674809Y6039207D01*
X10653191Y6045000D01*
D02*
G37*
%LPD*%
G36*
X9997300Y7757300D02*
X10037875D01*
Y7519526D01*
X10025175Y7514266D01*
X9873125Y7666316D01*
Y7764800D01*
X9972700D01*
Y7785375D01*
X9997300D01*
Y7757300D01*
D02*
G37*
G36*
X11220000Y7340000D02*
X11150000Y7270000D01*
X10340000D01*
X10300000Y7310000D01*
X10140000D01*
Y7350000D01*
X10300000D01*
X10330000Y7380000D01*
X10580000D01*
X11080000Y7880000D01*
X11220000D01*
Y7340000D01*
D02*
G37*
G36*
X9060000Y7720000D02*
X9800000D01*
X10030000Y7490000D01*
Y7410000D01*
X10140000D01*
Y7380000D01*
X10120000D01*
X10070000Y7330000D01*
X9920000D01*
X9850000Y7260000D01*
X9180000D01*
X8900000Y6980000D01*
X8020000D01*
X7710000Y7290000D01*
X7170000D01*
X7110000Y7350000D01*
Y7880000D01*
X7170000Y7940000D01*
X8840000D01*
X9060000Y7720000D01*
D02*
G37*
G36*
X10132190Y7039280D02*
X10142875Y7035299D01*
Y7000000D01*
X10144559Y6991534D01*
X10149355Y6984356D01*
X10209800Y6923910D01*
Y6834800D01*
X10298910D01*
X10315810Y6817900D01*
X10310550Y6805200D01*
X10209800D01*
Y6790110D01*
X10197100Y6781624D01*
X10188951Y6785000D01*
X10171049D01*
X10170760Y6784880D01*
X10160200Y6791936D01*
Y6805200D01*
X10059451D01*
X10054190Y6817900D01*
X10071090Y6834800D01*
X10160200D01*
Y6955200D01*
X10122125D01*
Y7030224D01*
X10131521Y7039315D01*
X10132190Y7039280D01*
D02*
G37*
%LPC*%
G36*
X15723000Y7930783D02*
X15707393Y7927678D01*
X15694162Y7918838D01*
X15685321Y7905606D01*
X15682217Y7889999D01*
Y7760000D01*
X15669876Y7756940D01*
X15665965Y7766381D01*
X15650381Y7781965D01*
X15650337Y7781984D01*
X15647482Y7796913D01*
X15652911Y7802341D01*
X15659000Y7817043D01*
Y7832956D01*
X15652911Y7847657D01*
X15641658Y7858910D01*
X15626958Y7864999D01*
X15611044D01*
X15596342Y7858910D01*
X15591402Y7853970D01*
X15580637Y7861164D01*
X15581000Y7862043D01*
Y7877956D01*
X15574910Y7892658D01*
X15563658Y7903910D01*
X15548956Y7910000D01*
X15533044D01*
X15518343Y7903910D01*
X15507091Y7892658D01*
X15500999Y7877956D01*
Y7862043D01*
X15507091Y7847342D01*
X15512518Y7841913D01*
X15509663Y7826984D01*
X15509619Y7826966D01*
X15494034Y7811381D01*
X15490485Y7802810D01*
X15477785Y7805336D01*
Y7889999D01*
X15474680Y7905606D01*
X15465839Y7918838D01*
X15452608Y7927678D01*
X15437000Y7930783D01*
X15421393Y7927678D01*
X15408162Y7918838D01*
X15399321Y7905606D01*
X15396217Y7889999D01*
Y7759999D01*
X15399321Y7744392D01*
X15408162Y7731161D01*
X15421393Y7722320D01*
X15437000Y7719216D01*
X15452608Y7722320D01*
X15465839Y7731161D01*
X15474680Y7744392D01*
X15477068Y7756394D01*
X15490141Y7758016D01*
X15494034Y7748618D01*
X15509619Y7733034D01*
X15509663Y7733015D01*
X15512518Y7718086D01*
X15507091Y7712658D01*
X15500999Y7697956D01*
Y7682043D01*
X15507091Y7667342D01*
X15518343Y7656089D01*
X15528860Y7651733D01*
Y7638266D01*
X15518343Y7633910D01*
X15507091Y7622658D01*
X15500999Y7607956D01*
Y7592043D01*
X15507091Y7577341D01*
X15518343Y7566089D01*
X15528860Y7561733D01*
Y7548266D01*
X15518343Y7543910D01*
X15507091Y7532658D01*
X15500999Y7517956D01*
Y7502043D01*
X15507091Y7487341D01*
X15512518Y7481913D01*
X15509663Y7466984D01*
X15509619Y7466965D01*
X15494034Y7451381D01*
X15485600Y7431019D01*
Y7428350D01*
X15472900Y7425772D01*
X15465839Y7436340D01*
X15452608Y7445181D01*
X15437000Y7448286D01*
X15421393Y7445181D01*
X15408162Y7436340D01*
X15399321Y7423109D01*
X15396217Y7407502D01*
Y7277502D01*
X15399321Y7261895D01*
X15408162Y7248664D01*
X15421393Y7239823D01*
X15437000Y7236719D01*
X15452608Y7239823D01*
X15465839Y7248664D01*
X15474680Y7261895D01*
X15477785Y7277502D01*
Y7394663D01*
X15490485Y7397189D01*
X15494034Y7388618D01*
X15509619Y7373034D01*
X15509663Y7373015D01*
X15512518Y7358086D01*
X15507091Y7352657D01*
X15500999Y7337956D01*
Y7322043D01*
X15507091Y7307341D01*
X15518343Y7296089D01*
X15533044Y7289999D01*
X15548956D01*
X15563658Y7296089D01*
X15568597Y7301029D01*
X15579366Y7293835D01*
X15578999Y7292955D01*
Y7277042D01*
X15585091Y7262341D01*
X15596342Y7251089D01*
X15611044Y7244999D01*
X15626958D01*
X15641658Y7251089D01*
X15652911Y7262341D01*
X15659000Y7277042D01*
Y7292955D01*
X15652911Y7307657D01*
X15647482Y7313085D01*
X15650337Y7328015D01*
X15650381Y7328033D01*
X15665965Y7343618D01*
X15669518Y7352190D01*
X15682217Y7349663D01*
Y7277502D01*
X15685321Y7261895D01*
X15694162Y7248664D01*
X15707393Y7239823D01*
X15723000Y7236719D01*
X15738608Y7239823D01*
X15751839Y7248664D01*
X15760680Y7261895D01*
X15763783Y7277502D01*
Y7407502D01*
X15760680Y7423109D01*
X15751839Y7436340D01*
X15738608Y7445181D01*
X15723000Y7448286D01*
X15707393Y7445181D01*
X15694162Y7436340D01*
X15685321Y7423109D01*
X15682217Y7407502D01*
Y7400335D01*
X15669518Y7397808D01*
X15665965Y7406380D01*
X15650381Y7421965D01*
X15650337Y7421983D01*
X15647482Y7436912D01*
X15652911Y7442341D01*
X15659000Y7457042D01*
Y7472956D01*
X15652911Y7487657D01*
X15641658Y7498909D01*
X15631142Y7503266D01*
Y7516732D01*
X15641658Y7521089D01*
X15652911Y7532341D01*
X15659000Y7547043D01*
Y7562956D01*
X15652911Y7577657D01*
X15641658Y7588909D01*
X15631142Y7593266D01*
Y7606732D01*
X15641658Y7611089D01*
X15652911Y7622341D01*
X15659000Y7637043D01*
Y7652956D01*
X15652911Y7667657D01*
X15647482Y7673086D01*
X15650337Y7688015D01*
X15650381Y7688033D01*
X15665965Y7703618D01*
X15674400Y7723979D01*
Y7739153D01*
X15687100Y7741729D01*
X15694162Y7731161D01*
X15707393Y7722320D01*
X15723000Y7719216D01*
X15738608Y7722320D01*
X15751839Y7731161D01*
X15760680Y7744392D01*
X15763783Y7759999D01*
Y7889999D01*
X15760680Y7905606D01*
X15751839Y7918838D01*
X15738608Y7927678D01*
X15723000Y7930783D01*
D02*
G37*
%LPD*%
D10*
X11550000Y7610000D02*
D03*
X11150000D02*
D03*
D11*
X10065000Y7475000D02*
D03*
X10115000D02*
D03*
X10165000D02*
D03*
X10215000D02*
D03*
Y7185000D02*
D03*
X10165000D02*
D03*
X10115000D02*
D03*
X10065000D02*
D03*
D12*
X10260000Y7395000D02*
D03*
Y7265000D02*
D03*
D13*
X10220000Y7330000D02*
D03*
X10062500Y7265000D02*
D03*
Y7395000D02*
D03*
D14*
X11340000Y6780000D02*
D03*
D15*
X11240000Y6962500D02*
D03*
X11290000D02*
D03*
X11340000D02*
D03*
X11390000D02*
D03*
X11440000D02*
D03*
Y6597500D02*
D03*
X11390000D02*
D03*
X11340000D02*
D03*
X11290000D02*
D03*
X11240000D02*
D03*
D16*
X11522500Y6880000D02*
D03*
Y6830000D02*
D03*
Y6780000D02*
D03*
Y6730000D02*
D03*
Y6680000D02*
D03*
X11157500D02*
D03*
Y6730000D02*
D03*
Y6780000D02*
D03*
Y6830000D02*
D03*
Y6880000D02*
D03*
D17*
X11700000Y6620000D02*
D03*
X11665813Y6363801D02*
D03*
X11750000Y6510000D02*
D03*
X11260000Y7130000D02*
D03*
X10960000Y6690000D02*
D03*
X11370000Y7130000D02*
D03*
X11760000Y7600000D02*
D03*
X9590000Y7420000D02*
D03*
D18*
X10695000Y6240000D02*
D03*
X10845000D02*
D03*
X7455000Y8230000D02*
D03*
X7605000D02*
D03*
D19*
X10540000Y7950000D02*
D03*
Y7810000D02*
D03*
X10110000Y6560000D02*
D03*
Y6420000D02*
D03*
X10260000Y6560000D02*
D03*
Y6420000D02*
D03*
X10690000Y7810000D02*
D03*
Y7950000D02*
D03*
D20*
X10220000Y7947500D02*
D03*
Y7812500D02*
D03*
X10380000Y7817500D02*
D03*
Y7942500D02*
D03*
D21*
X10612500Y6920000D02*
D03*
X10487500D02*
D03*
X10482500Y6760000D02*
D03*
X10617500D02*
D03*
D22*
X10100000Y6895000D02*
D03*
Y6745000D02*
D03*
X10270000Y6895000D02*
D03*
Y6745000D02*
D03*
X11910000Y6575000D02*
D03*
Y6725000D02*
D03*
D23*
X10060000Y7815000D02*
D03*
Y7945000D02*
D03*
D24*
X10485000Y7070000D02*
D03*
X10615000D02*
D03*
D25*
X9920000Y7807500D02*
D03*
Y7952500D02*
D03*
D26*
X7322500Y8230000D02*
D03*
X7177500D02*
D03*
D27*
X11180000Y6207415D02*
D03*
Y6352586D02*
D03*
D28*
X11350000Y6207330D02*
D03*
Y6352671D02*
D03*
X9940000Y6747329D02*
D03*
Y6892671D02*
D03*
D29*
X10477414Y6590000D02*
D03*
X10622586D02*
D03*
D30*
X10510000Y7472586D02*
D03*
Y7327414D02*
D03*
D31*
X9780000Y7117500D02*
D03*
Y7302500D02*
D03*
D32*
X9340000Y7094980D02*
D03*
Y7385020D02*
D03*
Y7875020D02*
D03*
Y7584981D02*
D03*
X9670000Y7875020D02*
D03*
Y7584981D02*
D03*
X12640000Y8075019D02*
D03*
Y7784980D02*
D03*
X12300000Y8075019D02*
D03*
Y7784980D02*
D03*
X11960000Y8075019D02*
D03*
Y7784980D02*
D03*
X12640000Y7134980D02*
D03*
Y7425019D02*
D03*
X12300000Y7134980D02*
D03*
Y7425019D02*
D03*
X11960000Y7134980D02*
D03*
Y7425019D02*
D03*
D33*
X8190000Y7151000D02*
D03*
Y6549000D02*
D03*
X8179999Y7669000D02*
D03*
Y8271000D02*
D03*
X8739999Y7669000D02*
D03*
Y8271000D02*
D03*
X8750000Y7151000D02*
D03*
Y6549000D02*
D03*
X14859361Y7576059D02*
D03*
Y8178058D02*
D03*
X14299361Y7576059D02*
D03*
Y8178058D02*
D03*
X13739362Y7576059D02*
D03*
Y8178058D02*
D03*
X13179361Y7576059D02*
D03*
Y8178058D02*
D03*
X14860001Y7201000D02*
D03*
Y6599000D02*
D03*
X14300000Y7201000D02*
D03*
Y6599000D02*
D03*
X13739999Y7201000D02*
D03*
Y6599001D02*
D03*
X13180000Y7201000D02*
D03*
Y6599001D02*
D03*
D34*
X11431488Y7060000D02*
X11590000D01*
X11393500Y7022012D02*
X11431488Y7060000D01*
X10482500Y6595086D02*
Y6760000D01*
X10477414Y6590000D02*
X10482500Y6595086D01*
X10622586Y6590000D02*
Y6754914D01*
X10617500Y6760000D02*
X10622586Y6754914D01*
X11662909Y6363801D02*
X11665813D01*
X11634268Y6392442D02*
X11662909Y6363801D01*
X11448074Y6490000D02*
X11545632Y6392442D01*
X11634268D01*
X11390000Y6520000D02*
Y6597500D01*
Y6520000D02*
X11420000Y6490000D01*
X11448074D01*
X11492500Y6597500D02*
X11580000Y6510000D01*
X11750000D01*
X11440000Y6597500D02*
X11492500D01*
X11855000Y6755000D02*
X11880000D01*
X11910000Y6725000D01*
X11830000Y6780000D02*
X11855000Y6755000D01*
X11750000Y6780000D02*
X11830000D01*
X11040000Y6208167D02*
X11288167Y5960000D01*
X11404000D01*
X11120000D02*
X11150000D01*
X10940000Y6140000D02*
X11120000Y5960000D01*
X10845000Y6046719D02*
Y6240000D01*
X10896000Y5960000D02*
Y5995719D01*
X10845000Y6046719D02*
X10896000Y5995719D01*
X11040000Y6208167D02*
Y6420000D01*
X10940000Y6140000D02*
Y6420000D01*
X10845000Y6240000D02*
Y6442500D01*
X11681341Y6860000D02*
X12130000D01*
X10220000Y7600000D02*
X10380000Y7760000D01*
X10165000Y7545000D02*
X10220000Y7600000D01*
X15346123Y6966123D02*
X15362666D01*
X15366544Y6970000D01*
X15339999Y6960000D02*
X15346123Y6966123D01*
X15366544Y6970000D02*
X15680000D01*
X11607778Y6880000D02*
X11653158Y6925380D01*
X11724620D01*
X11730000Y6920000D01*
X11651340Y6830000D02*
X11681341Y6860000D01*
X11393500Y6966000D02*
Y7022012D01*
X11390000Y6962500D02*
X11393500Y6966000D01*
X11442500Y6960000D02*
X11570000D01*
X11440000Y6962500D02*
X11442500Y6960000D01*
X11522500Y6880000D02*
X11607778D01*
X11522500Y6830000D02*
X11651340D01*
X10310000Y7200000D02*
Y7208659D01*
X10260000Y7265000D02*
X10280000D01*
X10286000Y7259000D01*
Y7232659D02*
X10310000Y7208659D01*
X10286000Y7232659D02*
Y7259000D01*
X10260000Y7395000D02*
X10335671Y7470671D01*
X10508086D01*
X10510000Y7472586D01*
X11342670Y6200000D02*
X11350000Y6207330D01*
X11270000Y6200000D02*
X11342670D01*
X11180000Y6207415D02*
X11187415Y6200000D01*
X11270000D01*
X11074004Y6880000D02*
X11157500D01*
X11038659Y6840000D02*
X11048660Y6830000D01*
X10970000Y6900000D02*
X11054004D01*
X11074004Y6880000D01*
X11048660Y6830000D02*
X11157500D01*
X11030000Y6840000D02*
X11038659D01*
X10910000Y6780000D02*
X11157500D01*
X11340000Y6597500D02*
Y6780000D01*
X11701341Y6710000D02*
X11710000D01*
X11681341Y6730000D02*
X11701341Y6710000D01*
X11522500Y6730000D02*
X11681341D01*
X11522500Y6680000D02*
X11640000D01*
X11700000Y6620000D01*
X11522500Y6780000D02*
X11750000D01*
X10810000Y6680000D02*
X10910000Y6780000D01*
X11000610Y6730000D02*
X11157500D01*
X10960610Y6690000D02*
X11000610Y6730000D01*
X10960000Y6690000D02*
X10960610D01*
X10810000Y6510000D02*
Y6680000D01*
X10656000Y6356000D02*
X10810000Y6510000D01*
X10120000Y6420000D02*
X10184000Y6356000D01*
X10110000Y6420000D02*
X10120000D01*
X10184000Y6356000D02*
X10656000D01*
X10260000Y6420000D02*
X10270000Y6430000D01*
X10610000D01*
X11030000Y7200000D02*
X11520000D01*
X11130000Y7153000D02*
Y7190000D01*
Y7153000D02*
X11240000Y7043000D01*
Y6962500D02*
Y7043000D01*
X10900000Y7070000D02*
X11030000Y7200000D01*
X10900000Y6910000D02*
Y7070000D01*
X10617500Y6760000D02*
X10750000D01*
X10900000Y6910000D01*
X11520000Y7200000D02*
X11550000Y7230000D01*
Y7610000D01*
X10612500Y6920000D02*
X10710000D01*
X10480000Y7075000D02*
Y7180000D01*
Y7075000D02*
X10485000Y7070000D01*
X10487500Y6765000D02*
Y6920000D01*
X10482500Y6760000D02*
X10487500Y6765000D01*
X10347500Y7030000D02*
X10385000D01*
X10487500Y6920000D02*
Y6927500D01*
X10385000Y7030000D02*
X10487500Y6927500D01*
X10215000Y7162500D02*
Y7185000D01*
Y7162500D02*
X10347500Y7030000D01*
X10615000Y7070000D02*
X10720000D01*
X10845000Y6442500D02*
X11082499Y6680000D01*
X11157500D01*
X10685000Y6230000D02*
X10695000Y6240000D01*
X10600000Y6230000D02*
X10685000D01*
X10310600Y8109400D02*
X10355048Y8064952D01*
X9915396Y8109400D02*
X10310600D01*
X10355048Y7967452D02*
Y8064952D01*
Y7967452D02*
X10380000Y7942500D01*
X9851000Y7546500D02*
Y8045004D01*
X9915396Y8109400D01*
X9920000Y7952500D02*
Y8030000D01*
X10002500Y7395000D02*
X10062500D01*
X9851000Y7546500D02*
X10002500Y7395000D01*
X10690000Y7810000D02*
X10690000Y7810000D01*
X10540000Y7810000D02*
X10690000D01*
X10538544Y7758544D02*
Y7808544D01*
X10540000Y7810000D01*
X10255000Y7475000D02*
X10538544Y7758544D01*
X10215000Y7475000D02*
X10255000D01*
X10380000Y7760000D02*
Y7817500D01*
X10165000Y7475000D02*
Y7545000D01*
X10115000Y7635000D02*
X10220000Y7740000D01*
Y7812500D01*
X10115000Y7475000D02*
Y7635000D01*
X10065000Y7475000D02*
Y7497500D01*
X10060000Y7502500D02*
Y7815000D01*
Y7502500D02*
X10065000Y7497500D01*
X10052500Y7807500D02*
X10060000Y7815000D01*
X9920000Y7807500D02*
X10052500D01*
X7605000Y8040750D02*
Y8230000D01*
X7180000Y7615750D02*
X7605000Y8040750D01*
X7100000Y8230000D02*
X7177500D01*
X7322500D02*
X7455000D01*
X11352671Y6350000D02*
X11460000D01*
X11350000Y6352671D02*
X11352671Y6350000D01*
X11910000Y6480000D02*
Y6575000D01*
X10165000Y7000000D02*
X10270000Y6895000D01*
X10165000Y7000000D02*
Y7185000D01*
X10115000Y7055500D02*
Y7185000D01*
X10100000Y6895000D02*
Y7040501D01*
X10115000Y7055500D01*
X10270000Y6895000D02*
X10346500Y6818500D01*
X10291744Y6653744D02*
X10314756D01*
X10260000Y6622000D02*
X10291744Y6653744D01*
X10314756D02*
X10346500Y6685488D01*
Y6818500D01*
X10260000Y6560000D02*
Y6622000D01*
X10265000Y6740000D02*
X10270000Y6745000D01*
X10180000Y6740000D02*
X10265000D01*
X10023500Y6818500D02*
X10100000Y6895000D01*
X10023500Y6685488D02*
Y6818500D01*
Y6685488D02*
X10055244Y6653744D01*
X10078256D02*
X10110000Y6622000D01*
X10055244Y6653744D02*
X10078256D01*
X10110000Y6560000D02*
Y6622000D01*
X10105000Y6740000D02*
X10180000D01*
X10100000Y6745000D02*
X10105000Y6740000D01*
X9820000Y6890000D02*
X9937329D01*
X9940000Y6892671D01*
X10060000Y7945000D02*
Y8050000D01*
X10220000Y7947500D02*
Y8050000D01*
X10540000Y7950000D02*
Y8040000D01*
X10690000Y7950000D02*
Y8040000D01*
X9940000Y6892671D02*
Y6990000D01*
X10065000Y7114999D01*
Y7185000D01*
X11290000Y6504554D02*
Y6597500D01*
Y6504554D02*
X11350000Y6444554D01*
Y6352671D02*
Y6444554D01*
X11180000Y6497500D02*
X11240000Y6557500D01*
Y6597500D01*
X11180000Y6352586D02*
Y6497500D01*
X11340000Y7088635D02*
X11370000Y7118635D01*
X11340000Y6962500D02*
Y7088635D01*
X11370000Y7118635D02*
Y7130000D01*
X11260000Y7118635D02*
X11290000Y7088635D01*
Y6962500D02*
Y7088635D01*
X11260000Y7118635D02*
Y7130000D01*
D35*
X15437000Y7342502D02*
D03*
X15723000D02*
D03*
X15437000Y7824999D02*
D03*
X15723000D02*
D03*
D36*
X15619000Y7284999D02*
D03*
X15541000Y7870000D02*
D03*
Y7780000D02*
D03*
Y7690000D02*
D03*
Y7600000D02*
D03*
Y7509999D02*
D03*
Y7419999D02*
D03*
Y7329999D02*
D03*
X15619000Y7824999D02*
D03*
Y7734999D02*
D03*
Y7644999D02*
D03*
Y7554999D02*
D03*
Y7464999D02*
D03*
Y7374999D02*
D03*
D37*
X7180000Y6884230D02*
D03*
Y7615750D02*
D03*
D38*
X11912000Y5960000D02*
D03*
D39*
X11658000D02*
D03*
X11404000D02*
D03*
X11150000D02*
D03*
X10896000D02*
D03*
X10642000D02*
D03*
D40*
X11590000Y7060000D02*
D03*
X15700008Y8200004D02*
D03*
Y6600004D02*
D03*
X15600008Y6400003D02*
D03*
X15700008Y6200003D02*
D03*
X15600008Y6000003D02*
D03*
X15500008Y8200004D02*
D03*
X15400008Y6400003D02*
D03*
X15500008Y6200003D02*
D03*
X15400008Y6000003D02*
D03*
X15300008Y8200004D02*
D03*
X15200008Y8000004D02*
D03*
Y6800004D02*
D03*
X15300008Y6200003D02*
D03*
X15200008Y6000003D02*
D03*
X15100008Y8200004D02*
D03*
Y6600004D02*
D03*
Y6200003D02*
D03*
X15000008Y6000003D02*
D03*
X14900008Y6200003D02*
D03*
X14800008Y6000003D02*
D03*
X14700008Y8200004D02*
D03*
X14600008Y8000004D02*
D03*
Y6800004D02*
D03*
X14700008Y6600004D02*
D03*
Y6200003D02*
D03*
X14600008Y6000003D02*
D03*
X14500008Y8200004D02*
D03*
Y6600004D02*
D03*
Y6200003D02*
D03*
X14400008Y6000003D02*
D03*
X14300008Y6200003D02*
D03*
X14200008Y6000003D02*
D03*
X14100008Y8200004D02*
D03*
X14000008Y8000004D02*
D03*
Y6800004D02*
D03*
X14100008Y6600004D02*
D03*
Y6200003D02*
D03*
X14000008Y6000003D02*
D03*
X13900008Y8200004D02*
D03*
Y6600004D02*
D03*
Y6200003D02*
D03*
X13800008Y6000003D02*
D03*
X13700008Y6200003D02*
D03*
X13600008Y6000003D02*
D03*
X13500008Y8200004D02*
D03*
X13400008Y8000004D02*
D03*
Y6800004D02*
D03*
X13500008Y6600004D02*
D03*
Y6200003D02*
D03*
X13400008Y6000003D02*
D03*
X13300008Y6200003D02*
D03*
X13200008Y6000003D02*
D03*
X13000008Y8000004D02*
D03*
Y6800004D02*
D03*
X13100008Y6200003D02*
D03*
X13000008Y6000003D02*
D03*
X12900008Y8200004D02*
D03*
Y7000004D02*
D03*
X12800008Y6800004D02*
D03*
X12900008Y6600004D02*
D03*
Y6200003D02*
D03*
X12800008Y6000003D02*
D03*
X12600007Y6800004D02*
D03*
X12700007Y6600004D02*
D03*
Y6200003D02*
D03*
X12600007Y6000003D02*
D03*
X12400007Y6800004D02*
D03*
X12500007Y6200003D02*
D03*
X12400007Y6000003D02*
D03*
X12300007Y6600004D02*
D03*
Y6200003D02*
D03*
X12200007Y6000003D02*
D03*
X12000006Y6400003D02*
D03*
X11800006D02*
D03*
X11900006Y6200003D02*
D03*
X11800006Y6000003D02*
D03*
X11700006Y8200004D02*
D03*
X11600006Y8000004D02*
D03*
Y7200004D02*
D03*
X11700006Y6200003D02*
D03*
X11500006Y8200004D02*
D03*
X11400006Y8000004D02*
D03*
X11500006Y6200003D02*
D03*
X11300006Y8200004D02*
D03*
X11200006Y8000004D02*
D03*
X11100006Y8200004D02*
D03*
X11000006Y8000004D02*
D03*
X11100006Y6600004D02*
D03*
X10900006Y8200004D02*
D03*
X10800006Y8000004D02*
D03*
Y7200004D02*
D03*
X10700006Y8200004D02*
D03*
X10600006Y7600004D02*
D03*
Y7200004D02*
D03*
X10500006Y8200004D02*
D03*
X10400006Y7200004D02*
D03*
X10500006Y6200003D02*
D03*
X10400006Y6000003D02*
D03*
X10300006Y8200004D02*
D03*
Y7000004D02*
D03*
X10100005Y8200004D02*
D03*
X10000005Y6400003D02*
D03*
X10100005Y6200003D02*
D03*
X10000005Y6000003D02*
D03*
X9900005Y8200004D02*
D03*
X9800005Y6800004D02*
D03*
X9900005Y6600004D02*
D03*
Y6200003D02*
D03*
X9800005Y6000003D02*
D03*
X9700005Y8200004D02*
D03*
X9600005Y7200004D02*
D03*
X9700005Y7000004D02*
D03*
X9600005Y6800004D02*
D03*
X9700005Y6600004D02*
D03*
X9600005Y6400003D02*
D03*
X9700005Y6200003D02*
D03*
X9600005Y6000003D02*
D03*
X9500005Y8200004D02*
D03*
X9400005Y6800004D02*
D03*
X9500005Y6600004D02*
D03*
X9400005Y6400003D02*
D03*
X9500005Y6200003D02*
D03*
X9400005Y6000003D02*
D03*
X9300005Y8200004D02*
D03*
X9200005Y6800004D02*
D03*
X9300005Y6600004D02*
D03*
X9200005Y6400003D02*
D03*
X9300005Y6200003D02*
D03*
X9200005Y6000003D02*
D03*
X9100005Y8200004D02*
D03*
X9000005Y8000004D02*
D03*
X9100005Y7800004D02*
D03*
Y7000004D02*
D03*
X9000005Y6800004D02*
D03*
X9100005Y6600004D02*
D03*
X9000005Y6400003D02*
D03*
X9100005Y6200003D02*
D03*
X9000005Y6000003D02*
D03*
X8900005Y8200004D02*
D03*
X8800005Y8000004D02*
D03*
Y6800004D02*
D03*
Y6400003D02*
D03*
X8900005Y6200003D02*
D03*
X8800005Y6000003D02*
D03*
X8600005Y8000004D02*
D03*
Y6800004D02*
D03*
Y6400003D02*
D03*
X8700005Y6200003D02*
D03*
X8600005Y6000003D02*
D03*
X8500005Y8200004D02*
D03*
X8400005Y8000004D02*
D03*
Y6800004D02*
D03*
X8500005Y6600004D02*
D03*
X8400005Y6400003D02*
D03*
X8500005Y6200003D02*
D03*
X8400005Y6000003D02*
D03*
X8200004Y8000004D02*
D03*
Y6800004D02*
D03*
Y6400003D02*
D03*
X8300004Y6200003D02*
D03*
X8200004Y6000003D02*
D03*
X8000004Y8000004D02*
D03*
Y6800004D02*
D03*
Y6400003D02*
D03*
X8100004Y6200003D02*
D03*
X8000004Y6000003D02*
D03*
X7900004Y8200004D02*
D03*
X7800004Y8000004D02*
D03*
X7900004Y7000004D02*
D03*
X7800004Y6800004D02*
D03*
X7900004Y6600004D02*
D03*
X7800004Y6400003D02*
D03*
X7900004Y6200003D02*
D03*
X7800004Y6000003D02*
D03*
X7600004Y7200004D02*
D03*
X7700004Y7000004D02*
D03*
X7600004Y6800004D02*
D03*
X7700004Y6600004D02*
D03*
X7600004Y6400003D02*
D03*
X7700004Y6200003D02*
D03*
X7600004Y6000003D02*
D03*
X7400004Y8000004D02*
D03*
Y7200004D02*
D03*
X7500004Y6600004D02*
D03*
X7400004Y6400003D02*
D03*
X7500004Y6200003D02*
D03*
X7400004Y6000003D02*
D03*
X7200004Y8000004D02*
D03*
Y6400003D02*
D03*
X7300004Y6200003D02*
D03*
X7200004Y6000003D02*
D03*
X7000004Y8000004D02*
D03*
Y7200004D02*
D03*
Y6400003D02*
D03*
X7100004Y6200003D02*
D03*
X7000004Y6000003D02*
D03*
X9930000Y7520000D02*
D03*
X9910000Y7370000D02*
D03*
X10650000Y7310000D02*
D03*
X10370000Y7330000D02*
D03*
X15800009Y7700004D02*
D03*
X15700008Y7200004D02*
D03*
Y7100004D02*
D03*
X15600008Y7200004D02*
D03*
Y7100004D02*
D03*
X15500008Y7200004D02*
D03*
Y7100004D02*
D03*
X15300008Y7900004D02*
D03*
Y7800004D02*
D03*
Y7700004D02*
D03*
Y7600004D02*
D03*
X15200008Y7800004D02*
D03*
Y7700004D02*
D03*
Y7600004D02*
D03*
Y7500004D02*
D03*
Y7400004D02*
D03*
Y7300004D02*
D03*
Y7200004D02*
D03*
Y7100004D02*
D03*
X15100008Y7800004D02*
D03*
Y7700004D02*
D03*
Y7600004D02*
D03*
Y7500004D02*
D03*
Y7400004D02*
D03*
Y7300004D02*
D03*
Y7200004D02*
D03*
Y7100004D02*
D03*
X15000008Y7800004D02*
D03*
Y7400004D02*
D03*
X14900008Y7800004D02*
D03*
Y7400004D02*
D03*
X14800008Y7800004D02*
D03*
Y7400004D02*
D03*
X14700008Y7800004D02*
D03*
Y7700004D02*
D03*
Y7600004D02*
D03*
Y7500004D02*
D03*
Y7400004D02*
D03*
Y7300004D02*
D03*
Y7200004D02*
D03*
Y7100004D02*
D03*
X14600008Y7800004D02*
D03*
Y7700004D02*
D03*
Y7600004D02*
D03*
Y7500004D02*
D03*
Y7400004D02*
D03*
Y7300004D02*
D03*
Y7200004D02*
D03*
Y7100004D02*
D03*
X14500008Y7800004D02*
D03*
Y7700004D02*
D03*
Y7600004D02*
D03*
Y7500004D02*
D03*
Y7400004D02*
D03*
Y7300004D02*
D03*
Y7200004D02*
D03*
Y7100004D02*
D03*
X14400008Y7800004D02*
D03*
Y7400004D02*
D03*
X14300008Y7800004D02*
D03*
Y7400004D02*
D03*
X14200008Y7800004D02*
D03*
Y7400004D02*
D03*
X14100008Y7800004D02*
D03*
Y7700004D02*
D03*
Y7600004D02*
D03*
Y7500004D02*
D03*
Y7400004D02*
D03*
Y7300004D02*
D03*
Y7200004D02*
D03*
Y7100004D02*
D03*
X14000008Y7800004D02*
D03*
Y7700004D02*
D03*
Y7600004D02*
D03*
Y7500004D02*
D03*
Y7400004D02*
D03*
Y7300004D02*
D03*
Y7200004D02*
D03*
Y7100004D02*
D03*
X13900008Y7800004D02*
D03*
Y7700004D02*
D03*
Y7600004D02*
D03*
Y7500004D02*
D03*
Y7400004D02*
D03*
Y7300004D02*
D03*
Y7200004D02*
D03*
Y7100004D02*
D03*
X13800008Y7800004D02*
D03*
Y7400004D02*
D03*
X13700008Y7800004D02*
D03*
Y7400004D02*
D03*
X13600008Y7800004D02*
D03*
Y7400004D02*
D03*
X13500008Y7800004D02*
D03*
Y7700004D02*
D03*
Y7600004D02*
D03*
Y7500004D02*
D03*
Y7400004D02*
D03*
Y7300004D02*
D03*
Y7200004D02*
D03*
Y7100004D02*
D03*
X13400008Y7800004D02*
D03*
Y7700004D02*
D03*
Y7600004D02*
D03*
Y7500004D02*
D03*
Y7400004D02*
D03*
Y7300004D02*
D03*
Y7200004D02*
D03*
Y7100004D02*
D03*
X13300008Y7800004D02*
D03*
Y7400004D02*
D03*
X13200008Y7800004D02*
D03*
Y7400004D02*
D03*
X13100008Y7800004D02*
D03*
Y7400004D02*
D03*
X13000008Y7800004D02*
D03*
Y7700004D02*
D03*
Y7600004D02*
D03*
Y7500004D02*
D03*
Y7400004D02*
D03*
Y7300004D02*
D03*
Y7200004D02*
D03*
X12900008Y7800004D02*
D03*
Y7700004D02*
D03*
Y7600004D02*
D03*
Y7500004D02*
D03*
Y7400004D02*
D03*
Y7300004D02*
D03*
X12800008Y7600004D02*
D03*
X12700007D02*
D03*
X12600007D02*
D03*
X12500007D02*
D03*
X12400007D02*
D03*
X12300007D02*
D03*
X12200007D02*
D03*
X12100007D02*
D03*
X12000006D02*
D03*
X11900006D02*
D03*
X11700006Y7800004D02*
D03*
Y7700004D02*
D03*
Y7500004D02*
D03*
Y7400004D02*
D03*
X11000006Y7700004D02*
D03*
Y7600004D02*
D03*
Y7500004D02*
D03*
Y7400004D02*
D03*
X10900006Y7600004D02*
D03*
Y7500004D02*
D03*
Y7400004D02*
D03*
X10800006Y7500004D02*
D03*
Y7400004D02*
D03*
X10700006D02*
D03*
X9960001Y7440001D02*
D03*
X9720001D02*
D03*
X9600001Y7320001D02*
D03*
X9120001Y7680001D02*
D03*
Y7560001D02*
D03*
Y7440001D02*
D03*
Y7320001D02*
D03*
X9000001Y7680001D02*
D03*
Y7560001D02*
D03*
Y7440001D02*
D03*
Y7320001D02*
D03*
Y7200001D02*
D03*
X8880001Y7800001D02*
D03*
Y7440001D02*
D03*
Y7320001D02*
D03*
X8760001Y7440001D02*
D03*
Y7320001D02*
D03*
X8640001Y7440001D02*
D03*
Y7320001D02*
D03*
X8520001Y7800001D02*
D03*
Y7680001D02*
D03*
Y7560001D02*
D03*
Y7440001D02*
D03*
Y7320001D02*
D03*
Y7200001D02*
D03*
Y7080001D02*
D03*
X8400001Y7800001D02*
D03*
Y7680001D02*
D03*
Y7560001D02*
D03*
Y7440001D02*
D03*
Y7320001D02*
D03*
Y7200001D02*
D03*
Y7080001D02*
D03*
X8280001Y7440001D02*
D03*
Y7320001D02*
D03*
X8160001Y7440001D02*
D03*
Y7320001D02*
D03*
X8040001Y7800001D02*
D03*
Y7440001D02*
D03*
Y7320001D02*
D03*
X7920001Y7800001D02*
D03*
Y7680001D02*
D03*
Y7560001D02*
D03*
Y7440001D02*
D03*
Y7320001D02*
D03*
Y7200001D02*
D03*
X7800001Y7800001D02*
D03*
Y7680001D02*
D03*
Y7560001D02*
D03*
Y7440001D02*
D03*
Y7320001D02*
D03*
X7680001Y7800001D02*
D03*
Y7680001D02*
D03*
Y7560001D02*
D03*
Y7440001D02*
D03*
X7560001Y7800001D02*
D03*
Y7680001D02*
D03*
Y7560001D02*
D03*
Y7440001D02*
D03*
X12130000Y6860000D02*
D03*
X10220000Y7600000D02*
D03*
X15339999Y6960000D02*
D03*
X15680000Y6970000D02*
D03*
X11730000Y6920000D02*
D03*
X11570000Y6960000D02*
D03*
X10310000Y7200000D02*
D03*
X11270000Y6200000D02*
D03*
X11030000Y6840000D02*
D03*
X10970000Y6900000D02*
D03*
X11040000Y6420000D02*
D03*
X10940000D02*
D03*
X11710000Y6710000D02*
D03*
X10610000Y6430000D02*
D03*
X10710000Y6920000D02*
D03*
X10480000Y7180000D02*
D03*
X11750000Y6780000D02*
D03*
X10720000Y7070000D02*
D03*
X10600000Y6230000D02*
D03*
X9920000Y8030000D02*
D03*
X7100000Y8230000D02*
D03*
X11460000Y6350000D02*
D03*
X11910000Y6480000D02*
D03*
X10180000Y6740000D02*
D03*
X9820000Y6890000D02*
D03*
X10060000Y8050000D02*
D03*
X10220000D02*
D03*
X10540000Y8040000D02*
D03*
X10690000D02*
D03*
X11395000Y6725000D02*
D03*
X11285000D02*
D03*
X11395000Y6835000D02*
D03*
X11285000D02*
D03*
D41*
X9240001Y6923981D02*
D03*
X9340001D02*
D03*
X9440001D02*
D03*
X9769999Y8046020D02*
D03*
X9669999D02*
D03*
X9569999D02*
D03*
X9439999D02*
D03*
X9339999D02*
D03*
X9240000D02*
D03*
X11860001Y6963980D02*
D03*
X12540001D02*
D03*
X12640001D02*
D03*
X12740001D02*
D03*
X12200001D02*
D03*
X12300001D02*
D03*
X12400001D02*
D03*
X11960001D02*
D03*
X12060001D02*
D03*
X12059999Y8246019D02*
D03*
X11959999D02*
D03*
X11859999D02*
D03*
X12399999D02*
D03*
X12299999D02*
D03*
X12199999D02*
D03*
X12739999D02*
D03*
X12639999D02*
D03*
X12540000D02*
D03*
X13079362Y8007058D02*
D03*
X13179362D02*
D03*
X13279362D02*
D03*
X13639362D02*
D03*
X13739362D02*
D03*
X13839362D02*
D03*
X14199362D02*
D03*
X14299362D02*
D03*
X14399362D02*
D03*
X14759361D02*
D03*
X14859361D02*
D03*
X14959361D02*
D03*
X14960001Y6770000D02*
D03*
X14859999D02*
D03*
X14760001D02*
D03*
X14399998D02*
D03*
X14299998D02*
D03*
X14200000D02*
D03*
X13839999Y6770000D02*
D03*
X13739999D02*
D03*
X13639999D02*
D03*
X13280000D02*
D03*
X13180000D02*
D03*
X13080000D02*
D03*
X8289999Y6720000D02*
D03*
X8189999D02*
D03*
X8089999D02*
D03*
X8849999D02*
D03*
X8749999D02*
D03*
X8649999D02*
D03*
X8640000Y8100000D02*
D03*
X8740000D02*
D03*
X8840000D02*
D03*
X8080000D02*
D03*
X8180000D02*
D03*
X8280000D02*
D03*
%TF.MD5,4f386211aec6746145134c80cb56b801*%
M02*
