%TF.GenerationSoftware,Altium Limited,Altium Designer,24.10.1 (45)*%
G04 Layer_Color=8388736*
%FSLAX45Y45*%
%MOMM*%
%TF.SameCoordinates,6B7C1C4C-1752-458E-A365-839E3CDA317C*%
%TF.FilePolarity,Negative*%
%TF.FileFunction,Soldermask,Top*%
%TF.Part,Single*%
G01*
G75*
%TA.AperFunction,SMDPad,CuDef*%
%ADD27R,0.95822X1.00650*%
%ADD28R,0.91213X0.95872*%
%ADD29R,1.00650X0.95822*%
%ADD30R,0.96822X1.00650*%
%ADD31R,1.10620X0.75620*%
%ADD32R,2.80415X1.50273*%
%ADD33R,2.33000X1.99000*%
%ADD55R,1.53000X5.58000*%
%ADD56R,0.33000X0.78000*%
%ADD57R,0.78000X0.38000*%
%ADD58R,1.58000X0.38000*%
%ADD59R,2.18000X2.18000*%
%ADD60R,0.33000X1.13000*%
%ADD61R,1.13000X0.33000*%
%ADD62C,0.68000*%
%ADD63R,1.03000X1.03000*%
%ADD64R,0.98000X0.78000*%
%ADD65R,1.03000X0.88000*%
%ADD66R,0.88000X1.03000*%
%ADD67R,1.03000X1.03000*%
%ADD68R,1.08000X0.98000*%
%ADD69R,0.93000X1.03000*%
%ADD70R,0.88000X0.68000*%
%ADD71R,0.68000X0.88000*%
%TA.AperFunction,ComponentPad*%
%ADD72O,0.68000X1.98000*%
%ADD73C,0.68000*%
%ADD74C,6.58000*%
%ADD75R,1.58000X1.58000*%
%ADD76C,1.58000*%
D27*
X11180000Y6207415D02*
D03*
Y6352586D02*
D03*
D28*
X11350000Y6207330D02*
D03*
Y6352671D02*
D03*
X9940000Y6747329D02*
D03*
Y6892671D02*
D03*
D29*
X10477414Y6590000D02*
D03*
X10622586D02*
D03*
D30*
X10510000Y7472586D02*
D03*
Y7327414D02*
D03*
D31*
X9780000Y7117500D02*
D03*
Y7302500D02*
D03*
D32*
X9340000Y7094980D02*
D03*
Y7385020D02*
D03*
Y7875020D02*
D03*
Y7584981D02*
D03*
X9670000Y7875020D02*
D03*
Y7584981D02*
D03*
X12640000Y8075019D02*
D03*
Y7784980D02*
D03*
X12300000Y8075019D02*
D03*
Y7784980D02*
D03*
X11960000Y8075019D02*
D03*
Y7784980D02*
D03*
X12640000Y7134980D02*
D03*
Y7425019D02*
D03*
X12300000Y7134980D02*
D03*
Y7425019D02*
D03*
X11960000Y7134980D02*
D03*
Y7425019D02*
D03*
D33*
X8190000Y7151000D02*
D03*
Y6549000D02*
D03*
X8179999Y7669000D02*
D03*
Y8271000D02*
D03*
X8739999Y7669000D02*
D03*
Y8271000D02*
D03*
X8750000Y7151000D02*
D03*
Y6549000D02*
D03*
X14859361Y7576059D02*
D03*
Y8178058D02*
D03*
X14299361Y7576059D02*
D03*
Y8178058D02*
D03*
X13739362Y7576059D02*
D03*
Y8178058D02*
D03*
X13179361Y7576059D02*
D03*
Y8178058D02*
D03*
X14860001Y7201000D02*
D03*
Y6599000D02*
D03*
X14300000Y7201000D02*
D03*
Y6599000D02*
D03*
X13739999Y7201000D02*
D03*
Y6599001D02*
D03*
X13180000Y7201000D02*
D03*
Y6599001D02*
D03*
D55*
X11550000Y7610000D02*
D03*
X11150000D02*
D03*
D56*
X10065000Y7475000D02*
D03*
X10115000D02*
D03*
X10165000D02*
D03*
X10215000D02*
D03*
Y7185000D02*
D03*
X10165000D02*
D03*
X10115000D02*
D03*
X10065000D02*
D03*
D57*
X10260000Y7395000D02*
D03*
Y7265000D02*
D03*
D58*
X10220000Y7330000D02*
D03*
X10062500Y7265000D02*
D03*
Y7395000D02*
D03*
D59*
X11340000Y6780000D02*
D03*
D60*
X11240000Y6962500D02*
D03*
X11290000D02*
D03*
X11340000D02*
D03*
X11390000D02*
D03*
X11440000D02*
D03*
Y6597500D02*
D03*
X11390000D02*
D03*
X11340000D02*
D03*
X11290000D02*
D03*
X11240000D02*
D03*
D61*
X11522500Y6880000D02*
D03*
Y6830000D02*
D03*
Y6780000D02*
D03*
Y6730000D02*
D03*
Y6680000D02*
D03*
X11157500D02*
D03*
Y6730000D02*
D03*
Y6780000D02*
D03*
Y6830000D02*
D03*
Y6880000D02*
D03*
D62*
X11700000Y6620000D02*
D03*
X11665813Y6363801D02*
D03*
X11750000Y6510000D02*
D03*
X11260000Y7130000D02*
D03*
X10960000Y6690000D02*
D03*
X11370000Y7130000D02*
D03*
X11760000Y7600000D02*
D03*
X9590000Y7420000D02*
D03*
D63*
X10695000Y6240000D02*
D03*
X10845000D02*
D03*
X7455000Y8230000D02*
D03*
X7605000D02*
D03*
D64*
X10540000Y7950000D02*
D03*
Y7810000D02*
D03*
X10110000Y6560000D02*
D03*
Y6420000D02*
D03*
X10260000Y6560000D02*
D03*
Y6420000D02*
D03*
X10690000Y7810000D02*
D03*
Y7950000D02*
D03*
D65*
X10220000Y7947500D02*
D03*
Y7812500D02*
D03*
X10380000Y7817500D02*
D03*
Y7942500D02*
D03*
D66*
X10612500Y6920000D02*
D03*
X10487500D02*
D03*
X10482500Y6760000D02*
D03*
X10617500D02*
D03*
D67*
X10100000Y6895000D02*
D03*
Y6745000D02*
D03*
X10270000Y6895000D02*
D03*
Y6745000D02*
D03*
X11910000Y6575000D02*
D03*
Y6725000D02*
D03*
D68*
X10060000Y7815000D02*
D03*
Y7945000D02*
D03*
D69*
X10485000Y7070000D02*
D03*
X10615000D02*
D03*
D70*
X9920000Y7807500D02*
D03*
Y7952500D02*
D03*
D71*
X7322500Y8230000D02*
D03*
X7177500D02*
D03*
D72*
X15437000Y7342502D02*
D03*
X15723000D02*
D03*
X15437000Y7824999D02*
D03*
X15723000D02*
D03*
D73*
X15619000Y7284999D02*
D03*
X15541000Y7870000D02*
D03*
Y7780000D02*
D03*
Y7690000D02*
D03*
Y7600000D02*
D03*
Y7509999D02*
D03*
Y7419999D02*
D03*
Y7329999D02*
D03*
X15619000Y7824999D02*
D03*
Y7734999D02*
D03*
Y7644999D02*
D03*
Y7554999D02*
D03*
Y7464999D02*
D03*
Y7374999D02*
D03*
D74*
X7180000Y6884230D02*
D03*
Y7615750D02*
D03*
D75*
X11912000Y5960000D02*
D03*
D76*
X11658000D02*
D03*
X11404000D02*
D03*
X11150000D02*
D03*
X10896000D02*
D03*
X10642000D02*
D03*
%TF.MD5,12502dd98dd3f735d9f6a6f196c78c5e*%
M02*
