%TF.GenerationSoftware,Altium Limited,Altium Designer,24.10.1 (45)*%
G04 Layer_Color=65535*
%FSLAX45Y45*%
%MOMM*%
%TF.SameCoordinates,6B7C1C4C-1752-458E-A365-839E3CDA317C*%
%TF.FilePolarity,Positive*%
%TF.FileFunction,Legend,Top*%
%TF.Part,Single*%
G01*
G75*
%TA.AperFunction,NonConductor*%
%ADD43C,0.20000*%
%ADD50C,0.25000*%
%ADD51C,0.05000*%
%ADD52C,0.40000*%
%ADD53C,0.15000*%
%ADD54C,0.15300*%
D43*
X15780000Y7145000D02*
Y8355000D01*
X15380000Y7145000D02*
Y8355000D01*
Y7145000D02*
X15780000D01*
X15380000Y8355000D02*
X15780000D01*
X11017500Y7267500D02*
Y7952500D01*
X11682500D01*
Y7267500D02*
Y7952500D01*
X11017500Y7267500D02*
X11682500D01*
X9995000Y7160000D02*
X10012500D01*
X9995000D02*
Y7212500D01*
X10267500Y7160000D02*
X10285000D01*
Y7212500D01*
Y7447500D02*
Y7500000D01*
X10267500D02*
X10285000D01*
X9995000D02*
X10012500D01*
X9995000Y7447500D02*
Y7500000D01*
X11120000Y6560000D02*
X11187500D01*
X11120000D02*
Y6627500D01*
X11492500Y6560000D02*
X11560000D01*
Y6627500D01*
Y6932500D02*
Y7000000D01*
X11492500D02*
X11560000D01*
X11120000D02*
X11187500D01*
X11120000Y6932500D02*
Y7000000D01*
X10515000Y5833000D02*
Y6087000D01*
X12039000Y5833000D02*
Y6087000D01*
X10515000Y5833000D02*
X12039000D01*
X10515000Y6087000D02*
X12039000D01*
X11267911Y6157089D02*
Y6402912D01*
X11092089Y6157089D02*
Y6402912D01*
X11435607Y6159394D02*
Y6400607D01*
X11264394Y6159394D02*
Y6400607D01*
X10025607Y6699394D02*
Y6940607D01*
X9854393Y6699394D02*
Y6940607D01*
X10427089Y6502089D02*
X10672911D01*
X10427089Y6677911D02*
X10672911D01*
X10421589Y7277089D02*
Y7522911D01*
X10598411Y7277089D02*
Y7522911D01*
X9835310Y7185310D02*
Y7234690D01*
X9724690Y7185310D02*
Y7234690D01*
X9480208Y7200117D02*
Y7279883D01*
X9199793Y7200117D02*
Y7279883D01*
Y7690117D02*
Y7769883D01*
X9480208Y7690117D02*
Y7769883D01*
X9529792Y7690117D02*
Y7769883D01*
X9810207Y7690117D02*
Y7769883D01*
X8165000Y7320000D02*
X8215000D01*
X8190000Y7295000D02*
Y7345000D01*
X7960000Y6470000D02*
X8036000D01*
X8344000D02*
X8420000D01*
Y7230000D01*
X7960000D02*
X8036000D01*
X8344000D02*
X8420000D01*
X7960000Y6470000D02*
Y7230000D01*
X8154999Y7500000D02*
X8204999D01*
X8179999Y7475000D02*
Y7525000D01*
X8333999Y8350000D02*
X8409999D01*
X7949999D02*
X8025999D01*
X7949999Y7590000D02*
Y8350000D01*
X8333999Y7590000D02*
X8409999D01*
X7949999D02*
X8025999D01*
X8409999D02*
Y8350000D01*
X8714999Y7500000D02*
X8764999D01*
X8739999Y7475000D02*
Y7525000D01*
X8893999Y8350000D02*
X8969999D01*
X8509999D02*
X8585999D01*
X8509999Y7590000D02*
Y8350000D01*
X8893999Y7590000D02*
X8969999D01*
X8509999D02*
X8585999D01*
X8969999D02*
Y8350000D01*
X8725000Y7320000D02*
X8775000D01*
X8750000Y7295000D02*
Y7345000D01*
X8520000Y6470000D02*
X8596000D01*
X8904000D02*
X8980000D01*
Y7230000D01*
X8520000D02*
X8596000D01*
X8904000D02*
X8980000D01*
X8520000Y6470000D02*
Y7230000D01*
X12499793Y7890117D02*
Y7969883D01*
X12780208Y7890117D02*
Y7969883D01*
X12159793Y7890117D02*
Y7969883D01*
X12440208Y7890117D02*
Y7969883D01*
X11819792Y7890117D02*
Y7969883D01*
X12100207Y7890117D02*
Y7969883D01*
X14834361Y7407058D02*
X14884361D01*
X14859361Y7382058D02*
Y7432058D01*
X15013361Y8257058D02*
X15089362D01*
X14629361D02*
X14705360D01*
X14629361Y7497058D02*
Y8257058D01*
X15013361Y7497058D02*
X15089362D01*
X14629361D02*
X14705360D01*
X15089362D02*
Y8257058D01*
X14274361Y7407058D02*
X14324361D01*
X14299361Y7382058D02*
Y7432058D01*
X14453362Y8257058D02*
X14529361D01*
X14069360D02*
X14145361D01*
X14069360Y7497058D02*
Y8257058D01*
X14453362Y7497058D02*
X14529361D01*
X14069360D02*
X14145361D01*
X14529361D02*
Y8257058D01*
X13714362Y7407058D02*
X13764362D01*
X13739362Y7382058D02*
Y7432058D01*
X13893361Y8257058D02*
X13969360D01*
X13509361D02*
X13585361D01*
X13509361Y7497058D02*
Y8257058D01*
X13893361Y7497058D02*
X13969360D01*
X13509361D02*
X13585361D01*
X13969360D02*
Y8257058D01*
X13154361Y7407058D02*
X13204361D01*
X13179361Y7382058D02*
Y7432058D01*
X13333360Y8257058D02*
X13409361D01*
X12949361D02*
X13025362D01*
X12949361Y7497058D02*
Y8257058D01*
X13333360Y7497058D02*
X13409361D01*
X12949361D02*
X13025362D01*
X13409361D02*
Y8257058D01*
X12780208Y7240117D02*
Y7319883D01*
X12499793Y7240117D02*
Y7319883D01*
X12440208Y7240117D02*
Y7319883D01*
X12159793Y7240117D02*
Y7319883D01*
X12100207Y7240117D02*
Y7319883D01*
X11819792Y7240117D02*
Y7319883D01*
X14835001Y7370000D02*
X14885001D01*
X14860001Y7345000D02*
Y7395000D01*
X14630000Y6520000D02*
X14706000D01*
X15014000D02*
X15089999D01*
Y7280000D01*
X14630000D02*
X14706000D01*
X15014000D02*
X15089999D01*
X14630000Y6520000D02*
Y7280000D01*
X14275000Y7370000D02*
X14325000D01*
X14300000Y7345000D02*
Y7395000D01*
X14070000Y6520000D02*
X14146001D01*
X14453999D02*
X14530000D01*
Y7280000D01*
X14070000D02*
X14146001D01*
X14453999D02*
X14530000D01*
X14070000Y6520000D02*
Y7280000D01*
X13715001Y7370000D02*
X13764999D01*
X13739999Y7345001D02*
Y7395000D01*
X13510001Y6520000D02*
X13586002D01*
X13894000D02*
X13970001D01*
Y7280000D01*
X13510001D02*
X13586002D01*
X13894000D02*
X13970001D01*
X13510001Y6520000D02*
Y7280000D01*
X13155000Y7370000D02*
X13205000D01*
X13180000Y7345001D02*
Y7395000D01*
X12950000Y6520000D02*
X13025999D01*
X13334000D02*
X13410001D01*
Y7280000D01*
X12950000D02*
X13025999D01*
X13334000D02*
X13410001D01*
X12950000Y6520000D02*
Y7280000D01*
D50*
X11162500Y7220000D02*
G03*
X11162500Y7220000I-12500J0D01*
G01*
X9942500Y7485000D02*
G03*
X9942500Y7485000I-12500J0D01*
G01*
X11067500Y6985000D02*
G03*
X11067500Y6985000I-12500J0D01*
G01*
D51*
X6776140Y6775170D02*
Y8055170D01*
X7036140Y6475170D02*
X7336140D01*
X6776140Y6775170D02*
X7036140Y6475170D01*
X6776140Y8055170D02*
X7596140D01*
Y6775170D02*
Y8055170D01*
X7336140Y6475170D02*
X7596140Y6775170D01*
D52*
X9880000Y8032500D02*
X9960000D01*
X7097500Y8190000D02*
Y8270000D01*
D53*
X12241768Y5875000D02*
Y5941645D01*
X12208445Y5908322D02*
X12275091D01*
X12191784Y6041613D02*
Y5974967D01*
X12241768D01*
X12225107Y6008290D01*
Y6024951D01*
X12241768Y6041613D01*
X12275091D01*
X12291752Y6024951D01*
Y5991629D01*
X12275091Y5974967D01*
X12347745Y5875000D02*
Y5908322D01*
Y5891661D01*
X12447712D01*
Y5875000D01*
Y5908322D01*
Y6024951D02*
Y5958306D01*
X12381067Y6024951D01*
X12364406D01*
X12347745Y6008290D01*
Y5974967D01*
X12364406Y5958306D01*
Y6124919D02*
X12347745Y6108258D01*
Y6074935D01*
X12364406Y6058274D01*
X12431051D01*
X12447712Y6074935D01*
Y6108258D01*
X12431051Y6124919D01*
X12464374Y6158242D02*
Y6224887D01*
X12447712Y6258209D02*
X12347745D01*
X12381067Y6291532D01*
X12347745Y6324855D01*
X12447712D01*
X12347745Y6408161D02*
Y6374839D01*
X12364406Y6358177D01*
X12431051D01*
X12447712Y6374839D01*
Y6408161D01*
X12431051Y6424822D01*
X12364406D01*
X12347745Y6408161D01*
Y6458145D02*
X12447712D01*
Y6508129D01*
X12431051Y6524790D01*
X12364406D01*
X12347745Y6508129D01*
Y6458145D01*
Y6624758D02*
Y6558113D01*
X12447712D01*
Y6624758D01*
X12397729Y6558113D02*
Y6591435D01*
X12537028Y5941645D02*
X12520367Y5924984D01*
Y5891661D01*
X12537028Y5875000D01*
X12553689D01*
X12570351Y5891661D01*
Y5924984D01*
X12587012Y5941645D01*
X12603673D01*
X12620334Y5924984D01*
Y5891661D01*
X12603673Y5875000D01*
X12520367Y5974967D02*
X12620334D01*
Y6024951D01*
X12603673Y6041613D01*
X12537028D01*
X12520367Y6024951D01*
Y5974967D01*
X12620334Y6074935D02*
X12553689D01*
X12520367Y6108258D01*
X12553689Y6141580D01*
X12620334D01*
X12570351D01*
Y6074935D01*
X12692989Y5941645D02*
X12676327Y5924984D01*
Y5891661D01*
X12692989Y5875000D01*
X12709650D01*
X12726311Y5891661D01*
Y5924984D01*
X12742972Y5941645D01*
X12759634D01*
X12776295Y5924984D01*
Y5891661D01*
X12759634Y5875000D01*
X12692989Y6041613D02*
X12676327Y6024951D01*
Y5991629D01*
X12692989Y5974967D01*
X12759634D01*
X12776295Y5991629D01*
Y6024951D01*
X12759634Y6041613D01*
X12676327Y6074935D02*
X12776295D01*
Y6141580D01*
X12832288Y5941645D02*
Y5875000D01*
X12932256D01*
Y5941645D01*
X12882272Y5875000D02*
Y5908322D01*
X12932256Y5974967D02*
X12832288D01*
X12932256Y6041613D01*
X12832288D01*
X13004910Y5941645D02*
X12988248Y5924984D01*
Y5891661D01*
X13004910Y5875000D01*
X13071555D01*
X13088216Y5891661D01*
Y5924984D01*
X13071555Y5941645D01*
X13038232D01*
Y5908322D01*
X13088216Y5974967D02*
X12988248D01*
X13088216Y6041613D01*
X12988248D01*
Y6074935D02*
X13088216D01*
Y6124919D01*
X13071555Y6141580D01*
X13004910D01*
X12988248Y6124919D01*
Y6074935D01*
X7415000Y6050016D02*
Y6149984D01*
X7448322Y6116661D01*
X7481645Y6149984D01*
Y6050016D01*
X7581612Y6133323D02*
X7564951Y6149984D01*
X7531629D01*
X7514967Y6133323D01*
Y6066677D01*
X7531629Y6050016D01*
X7564951D01*
X7581612Y6066677D01*
Y6100000D01*
X7548290D01*
X7781548Y6050016D02*
X7714903D01*
X7781548Y6116661D01*
Y6133323D01*
X7764887Y6149984D01*
X7731564D01*
X7714903Y6133323D01*
X7814871D02*
X7831532Y6149984D01*
X7864855D01*
X7881516Y6133323D01*
Y6066677D01*
X7864855Y6050016D01*
X7831532D01*
X7814871Y6066677D01*
Y6133323D01*
X7981484Y6050016D02*
X7914839D01*
X7981484Y6116661D01*
Y6133323D01*
X7964823Y6149984D01*
X7931500D01*
X7914839Y6133323D01*
X8064790Y6050016D02*
Y6149984D01*
X8014806Y6100000D01*
X8081451D01*
X7415000Y6250016D02*
Y6349984D01*
X7448322Y6316661D01*
X7481645Y6349984D01*
Y6250016D01*
X7514967D02*
Y6349984D01*
X7564951D01*
X7581612Y6333323D01*
Y6300000D01*
X7564951Y6283339D01*
X7514967D01*
X7681580Y6333323D02*
X7664919Y6349984D01*
X7631597D01*
X7614935Y6333323D01*
Y6316661D01*
X7631597Y6300000D01*
X7664919D01*
X7681580Y6283339D01*
Y6266678D01*
X7664919Y6250016D01*
X7631597D01*
X7614935Y6266678D01*
X7814871Y6250016D02*
Y6349984D01*
X7864855D01*
X7881516Y6333323D01*
Y6300000D01*
X7864855Y6283339D01*
X7814871D01*
X7981484Y6333323D02*
X7964823Y6349984D01*
X7931500D01*
X7914839Y6333323D01*
Y6316661D01*
X7931500Y6300000D01*
X7964823D01*
X7981484Y6283339D01*
Y6266678D01*
X7964823Y6250016D01*
X7931500D01*
X7914839Y6266678D01*
X8014806Y6349984D02*
Y6266678D01*
X8031468Y6250016D01*
X8064790D01*
X8081451Y6266678D01*
Y6349984D01*
X8281387D02*
X8214742D01*
Y6250016D01*
X8281387D01*
X8214742Y6300000D02*
X8248065D01*
X8314710Y6349984D02*
Y6283339D01*
X8348032Y6250016D01*
X8381355Y6283339D01*
Y6349984D01*
X8414678Y6250016D02*
Y6316661D01*
X8448000Y6349984D01*
X8481323Y6316661D01*
Y6250016D01*
Y6300000D01*
X8414678D01*
X8514645Y6349984D02*
Y6250016D01*
X8581290D01*
D54*
X10286694Y5910016D02*
Y6009984D01*
X10336678D01*
X10353339Y5993323D01*
Y5960000D01*
X10336678Y5943339D01*
X10286694D01*
X10453306Y5910016D02*
X10386661D01*
X10453306Y5976661D01*
Y5993323D01*
X10436645Y6009984D01*
X10403323D01*
X10386661Y5993323D01*
X7083355Y6330016D02*
Y6429984D01*
X7133339D01*
X7150000Y6413322D01*
Y6380000D01*
X7133339Y6363339D01*
X7083355D01*
X7183323Y6330016D02*
X7216645D01*
X7199984D01*
Y6429984D01*
X7183323Y6413322D01*
X10635040Y6340016D02*
Y6439984D01*
X10685024D01*
X10701685Y6423322D01*
Y6390000D01*
X10685024Y6373339D01*
X10635040D01*
X10668363D02*
X10701685Y6340016D01*
X10735008D02*
X10768331D01*
X10751670D01*
Y6439984D01*
X10735008Y6423322D01*
X10884960Y6439984D02*
X10818315D01*
Y6390000D01*
X10851637Y6406661D01*
X10868299D01*
X10884960Y6390000D01*
Y6356677D01*
X10868299Y6340016D01*
X10834976D01*
X10818315Y6356677D01*
X10599984Y8135040D02*
X10500016D01*
Y8185024D01*
X10516677Y8201685D01*
X10550000D01*
X10566661Y8185024D01*
Y8135040D01*
Y8168363D02*
X10599984Y8201685D01*
Y8235008D02*
Y8268331D01*
Y8251670D01*
X10500016D01*
X10516677Y8235008D01*
X10599984Y8368298D02*
X10500016D01*
X10550000Y8318315D01*
Y8384960D01*
X10269984Y8135040D02*
X10170016D01*
Y8185024D01*
X10186677Y8201685D01*
X10220000D01*
X10236661Y8185024D01*
Y8135040D01*
Y8168363D02*
X10269984Y8201685D01*
Y8235008D02*
Y8268330D01*
Y8251669D01*
X10170016D01*
X10186677Y8235008D01*
Y8318314D02*
X10170016Y8334976D01*
Y8368298D01*
X10186677Y8384959D01*
X10203338D01*
X10220000Y8368298D01*
Y8351637D01*
Y8368298D01*
X10236661Y8384959D01*
X10253322D01*
X10269984Y8368298D01*
Y8334976D01*
X10253322Y8318314D01*
X9599984Y5905040D02*
X9500016D01*
Y5955024D01*
X9516677Y5971685D01*
X9550000D01*
X9566661Y5955024D01*
Y5905040D01*
Y5938363D02*
X9599984Y5971685D01*
Y6005008D02*
Y6038331D01*
Y6021669D01*
X9500016D01*
X9516677Y6005008D01*
X9599984Y6154959D02*
Y6088314D01*
X9533339Y6154959D01*
X9516677D01*
X9500016Y6138298D01*
Y6104976D01*
X9516677Y6088314D01*
X9769984Y5901702D02*
X9670016D01*
Y5951686D01*
X9686677Y5968347D01*
X9720000D01*
X9736661Y5951686D01*
Y5901702D01*
Y5935024D02*
X9769984Y5968347D01*
Y6001669D02*
Y6034992D01*
Y6018331D01*
X9670016D01*
X9686677Y6001669D01*
X9769984Y6084976D02*
Y6118298D01*
Y6101637D01*
X9670016D01*
X9686677Y6084976D01*
X10749984Y8135040D02*
X10650016D01*
Y8185024D01*
X10666677Y8201685D01*
X10700000D01*
X10716661Y8185024D01*
Y8135040D01*
Y8168363D02*
X10749984Y8201685D01*
Y8235008D02*
Y8268330D01*
Y8251669D01*
X10650016D01*
X10666677Y8235008D01*
Y8318314D02*
X10650016Y8334976D01*
Y8368298D01*
X10666677Y8384959D01*
X10733322D01*
X10749984Y8368298D01*
Y8334976D01*
X10733322Y8318314D01*
X10666677D01*
X9846694Y6260016D02*
Y6359984D01*
X9896677D01*
X9913339Y6343323D01*
Y6310000D01*
X9896677Y6293339D01*
X9846694D01*
X9880016D02*
X9913339Y6260016D01*
X9946661Y6276678D02*
X9963323Y6260016D01*
X9996645D01*
X10013306Y6276678D01*
Y6343323D01*
X9996645Y6359984D01*
X9963323D01*
X9946661Y6343323D01*
Y6326661D01*
X9963323Y6310000D01*
X10013306D01*
X9599984Y6226694D02*
X9500016D01*
Y6276678D01*
X9516677Y6293339D01*
X9550000D01*
X9566661Y6276678D01*
Y6226694D01*
Y6260016D02*
X9599984Y6293339D01*
X9516677Y6326661D02*
X9500016Y6343323D01*
Y6376645D01*
X9516677Y6393306D01*
X9533339D01*
X9550000Y6376645D01*
X9566661Y6393306D01*
X9583322D01*
X9599984Y6376645D01*
Y6343323D01*
X9583322Y6326661D01*
X9566661D01*
X9550000Y6343323D01*
X9533339Y6326661D01*
X9516677D01*
X9550000Y6343323D02*
Y6376645D01*
X9769984Y6226694D02*
X9670016D01*
Y6276678D01*
X9686678Y6293339D01*
X9720000D01*
X9736662Y6276678D01*
Y6226694D01*
Y6260016D02*
X9769984Y6293339D01*
X9670016Y6326661D02*
Y6393306D01*
X9686678D01*
X9753323Y6326661D01*
X9769984D01*
X9846694Y6090016D02*
Y6189984D01*
X9896677D01*
X9913339Y6173322D01*
Y6140000D01*
X9896677Y6123339D01*
X9846694D01*
X9880016D02*
X9913339Y6090016D01*
X10013306Y6189984D02*
X9979984Y6173322D01*
X9946661Y6140000D01*
Y6106677D01*
X9963323Y6090016D01*
X9996645D01*
X10013306Y6106677D01*
Y6123339D01*
X9996645Y6140000D01*
X9946661D01*
X10119984Y8136694D02*
X10020016D01*
Y8186678D01*
X10036677Y8203339D01*
X10070000D01*
X10086661Y8186678D01*
Y8136694D01*
Y8170016D02*
X10119984Y8203339D01*
X10020016Y8303307D02*
Y8236662D01*
X10070000D01*
X10053339Y8269984D01*
Y8286646D01*
X10070000Y8303307D01*
X10103322D01*
X10119984Y8286646D01*
Y8253323D01*
X10103322Y8236662D01*
X10439983Y8136694D02*
X10340016D01*
Y8186678D01*
X10356677Y8203339D01*
X10390000D01*
X10406661Y8186678D01*
Y8136694D01*
Y8170016D02*
X10439983Y8203339D01*
Y8286645D02*
X10340016D01*
X10390000Y8236661D01*
Y8303306D01*
X7466693Y8310016D02*
Y8409984D01*
X7516677D01*
X7533339Y8393323D01*
Y8360000D01*
X7516677Y8343339D01*
X7466693D01*
X7500016D02*
X7533339Y8310016D01*
X7566661Y8393323D02*
X7583323Y8409984D01*
X7616645D01*
X7633306Y8393323D01*
Y8376661D01*
X7616645Y8360000D01*
X7599984D01*
X7616645D01*
X7633306Y8343339D01*
Y8326678D01*
X7616645Y8310016D01*
X7583323D01*
X7566661Y8326678D01*
X9846694Y6410016D02*
Y6509984D01*
X9896677D01*
X9913339Y6493323D01*
Y6460000D01*
X9896677Y6443339D01*
X9846694D01*
X9880016D02*
X9913339Y6410016D01*
X10013306D02*
X9946661D01*
X10013306Y6476661D01*
Y6493323D01*
X9996645Y6509984D01*
X9963323D01*
X9946661Y6493323D01*
X11843355Y6300016D02*
Y6399984D01*
X11893339D01*
X11910000Y6383323D01*
Y6350000D01*
X11893339Y6333339D01*
X11843355D01*
X11876678D02*
X11910000Y6300016D01*
X11943323D02*
X11976645D01*
X11959984D01*
Y6399984D01*
X11943323Y6383323D01*
X11293355Y8099984D02*
Y8000016D01*
X11360000D01*
X11393323D02*
X11426645D01*
X11409984D01*
Y8099984D01*
X11393323Y8083322D01*
X9870016Y8136709D02*
X9969984D01*
Y8186693D01*
X9953322Y8203354D01*
X9886677D01*
X9870016Y8186693D01*
Y8136709D01*
X9886677Y8303322D02*
X9870016Y8286661D01*
Y8253339D01*
X9886677Y8236677D01*
X9903339D01*
X9920000Y8253339D01*
Y8286661D01*
X9936661Y8303322D01*
X9953322D01*
X9969984Y8286661D01*
Y8253339D01*
X9953322Y8236677D01*
X9969984Y8403290D02*
Y8336645D01*
X9903339Y8403290D01*
X9886677D01*
X9870016Y8386629D01*
Y8353306D01*
X9886677Y8336645D01*
X7133371Y8409984D02*
Y8310016D01*
X7183355D01*
X7200016Y8326678D01*
Y8393323D01*
X7183355Y8409984D01*
X7133371D01*
X7299984Y8393323D02*
X7283323Y8409984D01*
X7250000D01*
X7233339Y8393323D01*
Y8376661D01*
X7250000Y8360000D01*
X7283323D01*
X7299984Y8343339D01*
Y8326678D01*
X7283323Y8310016D01*
X7250000D01*
X7233339Y8326678D01*
X7333307Y8310016D02*
X7366629D01*
X7349968D01*
Y8409984D01*
X7333307Y8393323D01*
X10956677Y6223355D02*
X10940016Y6206694D01*
Y6173371D01*
X10956677Y6156710D01*
X11023322D01*
X11039984Y6173371D01*
Y6206694D01*
X11023322Y6223355D01*
X11039984Y6323323D02*
Y6256678D01*
X10973339Y6323323D01*
X10956677D01*
X10940016Y6306662D01*
Y6273339D01*
X10956677Y6256678D01*
X10940016Y6356646D02*
Y6423291D01*
X10956677D01*
X11023322Y6356646D01*
X11039984D01*
X11496678Y6213355D02*
X11480016Y6196693D01*
Y6163371D01*
X11496678Y6146710D01*
X11563323D01*
X11579984Y6163371D01*
Y6196693D01*
X11563323Y6213355D01*
X11579984Y6313322D02*
Y6246677D01*
X11513339Y6313322D01*
X11496678D01*
X11480016Y6296661D01*
Y6263339D01*
X11496678Y6246677D01*
X11480016Y6413290D02*
X11496678Y6379968D01*
X11530000Y6346645D01*
X11563323D01*
X11579984Y6363307D01*
Y6396629D01*
X11563323Y6413290D01*
X11546661D01*
X11530000Y6396629D01*
Y6346645D01*
X9366677Y6293355D02*
X9350016Y6276694D01*
Y6243371D01*
X9366677Y6226710D01*
X9433322D01*
X9449983Y6243371D01*
Y6276694D01*
X9433322Y6293355D01*
X9449983Y6393322D02*
Y6326677D01*
X9383338Y6393322D01*
X9366677D01*
X9350016Y6376661D01*
Y6343339D01*
X9366677Y6326677D01*
X9350016Y6493290D02*
Y6426645D01*
X9399999D01*
X9383338Y6459968D01*
Y6476629D01*
X9399999Y6493290D01*
X9433322D01*
X9449983Y6476629D01*
Y6443307D01*
X9433322Y6426645D01*
X9913355Y6013322D02*
X9896694Y6029984D01*
X9863371D01*
X9846710Y6013322D01*
Y5946677D01*
X9863371Y5930016D01*
X9896694D01*
X9913355Y5946677D01*
X10013323Y5930016D02*
X9946678D01*
X10013323Y5996661D01*
Y6013322D01*
X9996661Y6029984D01*
X9963339D01*
X9946678Y6013322D01*
X10096629Y5930016D02*
Y6029984D01*
X10046645Y5980000D01*
X10113290D01*
X10676677Y7333355D02*
X10660016Y7316694D01*
Y7283371D01*
X10676677Y7266710D01*
X10743322D01*
X10759983Y7283371D01*
Y7316694D01*
X10743322Y7333355D01*
X10759983Y7433322D02*
Y7366677D01*
X10693338Y7433322D01*
X10676677D01*
X10660016Y7416661D01*
Y7383339D01*
X10676677Y7366677D01*
Y7466645D02*
X10660016Y7483307D01*
Y7516629D01*
X10676677Y7533290D01*
X10693338D01*
X10709999Y7516629D01*
Y7499968D01*
Y7516629D01*
X10726661Y7533290D01*
X10743322D01*
X10759983Y7516629D01*
Y7483307D01*
X10743322Y7466645D01*
X9586677Y6843355D02*
X9570016Y6826693D01*
Y6793371D01*
X9586677Y6776710D01*
X9653322D01*
X9669983Y6793371D01*
Y6826693D01*
X9653322Y6843355D01*
X9669983Y6943322D02*
Y6876677D01*
X9603338Y6943322D01*
X9586677D01*
X9570016Y6926661D01*
Y6893339D01*
X9586677Y6876677D01*
X9669983Y7043290D02*
Y6976645D01*
X9603338Y7043290D01*
X9586677D01*
X9570016Y7026629D01*
Y6993307D01*
X9586677Y6976645D01*
X9300016Y6843323D02*
X9283355Y6859984D01*
X9250033D01*
X9233371Y6843323D01*
Y6776678D01*
X9250033Y6760016D01*
X9283355D01*
X9300016Y6776678D01*
X9399984Y6760016D02*
X9333339D01*
X9399984Y6826661D01*
Y6843323D01*
X9383323Y6859984D01*
X9350000D01*
X9333339Y6843323D01*
X9433307Y6760016D02*
X9466629D01*
X9449968D01*
Y6859984D01*
X9433307Y6843323D01*
X9253355Y8203322D02*
X9236693Y8219984D01*
X9203371D01*
X9186710Y8203322D01*
Y8136677D01*
X9203371Y8120016D01*
X9236693D01*
X9253355Y8136677D01*
X9353322Y8120016D02*
X9286677D01*
X9353322Y8186661D01*
Y8203322D01*
X9336661Y8219984D01*
X9303339D01*
X9286677Y8203322D01*
X9386645D02*
X9403307Y8219984D01*
X9436629D01*
X9453290Y8203322D01*
Y8136677D01*
X9436629Y8120016D01*
X9403307D01*
X9386645Y8136677D01*
Y8203322D01*
X9611685D02*
X9595024Y8219984D01*
X9561702D01*
X9545040Y8203322D01*
Y8136677D01*
X9561702Y8120016D01*
X9595024D01*
X9611685Y8136677D01*
X9645008Y8120016D02*
X9678331D01*
X9661670D01*
Y8219984D01*
X9645008Y8203322D01*
X9728315Y8136677D02*
X9744976Y8120016D01*
X9778298D01*
X9794960Y8136677D01*
Y8203322D01*
X9778298Y8219984D01*
X9744976D01*
X9728315Y8203322D01*
Y8186661D01*
X9744976Y8170000D01*
X9794960D01*
X7806677Y7961685D02*
X7790016Y7945024D01*
Y7911701D01*
X7806677Y7895040D01*
X7873322D01*
X7889984Y7911701D01*
Y7945024D01*
X7873322Y7961685D01*
X7889984Y7995008D02*
Y8028330D01*
Y8011669D01*
X7790016D01*
X7806677Y7995008D01*
Y8078314D02*
X7790016Y8094976D01*
Y8128298D01*
X7806677Y8144959D01*
X7823339D01*
X7840000Y8128298D01*
X7856661Y8144959D01*
X7873322D01*
X7889984Y8128298D01*
Y8094976D01*
X7873322Y8078314D01*
X7856661D01*
X7840000Y8094976D01*
X7823339Y8078314D01*
X7806677D01*
X7840000Y8094976D02*
Y8128298D01*
X7826677Y6781685D02*
X7810016Y6765024D01*
Y6731702D01*
X7826677Y6715040D01*
X7893322D01*
X7909983Y6731702D01*
Y6765024D01*
X7893322Y6781685D01*
X7909983Y6815008D02*
Y6848331D01*
Y6831670D01*
X7810016D01*
X7826677Y6815008D01*
X7810016Y6898315D02*
Y6964960D01*
X7826677D01*
X7893322Y6898315D01*
X7909983D01*
X9046677Y6711685D02*
X9030016Y6695024D01*
Y6661702D01*
X9046677Y6645040D01*
X9113322D01*
X9129984Y6661702D01*
Y6695024D01*
X9113322Y6711685D01*
X9129984Y6745008D02*
Y6778331D01*
Y6761669D01*
X9030016D01*
X9046677Y6745008D01*
X9030016Y6894960D02*
X9046677Y6861637D01*
X9080000Y6828315D01*
X9113322D01*
X9129984Y6844976D01*
Y6878298D01*
X9113322Y6894960D01*
X9096661D01*
X9080000Y6878298D01*
Y6828315D01*
X9036677Y7901685D02*
X9020016Y7885024D01*
Y7851702D01*
X9036677Y7835040D01*
X9103322D01*
X9119984Y7851702D01*
Y7885024D01*
X9103322Y7901685D01*
X9119984Y7935008D02*
Y7968331D01*
Y7951670D01*
X9020016D01*
X9036677Y7935008D01*
X9020016Y8084960D02*
Y8018315D01*
X9070000D01*
X9053339Y8051637D01*
Y8068299D01*
X9070000Y8084960D01*
X9103322D01*
X9119984Y8068299D01*
Y8034976D01*
X9103322Y8018315D01*
X12581686Y8393323D02*
X12565024Y8409984D01*
X12531702D01*
X12515041Y8393323D01*
Y8326678D01*
X12531702Y8310016D01*
X12565024D01*
X12581686Y8326678D01*
X12615008Y8310016D02*
X12648331D01*
X12631670D01*
Y8409984D01*
X12615008Y8393323D01*
X12748299Y8310016D02*
Y8409984D01*
X12698315Y8360000D01*
X12764960D01*
X12241685Y8393323D02*
X12225024Y8409984D01*
X12191702D01*
X12175040Y8393323D01*
Y8326678D01*
X12191702Y8310016D01*
X12225024D01*
X12241685Y8326678D01*
X12275008Y8310016D02*
X12308331D01*
X12291670D01*
Y8409984D01*
X12275008Y8393323D01*
X12358315D02*
X12374976Y8409984D01*
X12408299D01*
X12424960Y8393323D01*
Y8376661D01*
X12408299Y8360000D01*
X12391637D01*
X12408299D01*
X12424960Y8343339D01*
Y8326678D01*
X12408299Y8310016D01*
X12374976D01*
X12358315Y8326678D01*
X11891685Y8393323D02*
X11875024Y8409984D01*
X11841701D01*
X11825040Y8393323D01*
Y8326678D01*
X11841701Y8310016D01*
X11875024D01*
X11891685Y8326678D01*
X11925008Y8310016D02*
X11958330D01*
X11941669D01*
Y8409984D01*
X11925008Y8393323D01*
X12074959Y8310016D02*
X12008314D01*
X12074959Y8376661D01*
Y8393323D01*
X12058298Y8409984D01*
X12024976D01*
X12008314Y8393323D01*
X14808347Y8403323D02*
X14791685Y8419984D01*
X14758363D01*
X14741702Y8403323D01*
Y8336678D01*
X14758363Y8320016D01*
X14791685D01*
X14808347Y8336678D01*
X14841670Y8320016D02*
X14874992D01*
X14858331D01*
Y8419984D01*
X14841670Y8403323D01*
X14924976Y8320016D02*
X14958299D01*
X14941638D01*
Y8419984D01*
X14924976Y8403323D01*
X14251685D02*
X14235023Y8419984D01*
X14201701D01*
X14185040Y8403323D01*
Y8336678D01*
X14201701Y8320016D01*
X14235023D01*
X14251685Y8336678D01*
X14285008Y8320016D02*
X14318330D01*
X14301669D01*
Y8419984D01*
X14285008Y8403323D01*
X14368314D02*
X14384976Y8419984D01*
X14418298D01*
X14434959Y8403323D01*
Y8336678D01*
X14418298Y8320016D01*
X14384976D01*
X14368314Y8336678D01*
Y8403323D01*
X13733339D02*
X13716676Y8419984D01*
X13683356D01*
X13666695Y8403323D01*
Y8336678D01*
X13683356Y8320016D01*
X13716676D01*
X13733339Y8336678D01*
X13766661D02*
X13783324Y8320016D01*
X13816644D01*
X13833305Y8336678D01*
Y8403323D01*
X13816644Y8419984D01*
X13783324D01*
X13766661Y8403323D01*
Y8386661D01*
X13783324Y8370000D01*
X13833305D01*
X13163339Y8403323D02*
X13146678Y8419984D01*
X13113354D01*
X13096693Y8403323D01*
Y8336678D01*
X13113354Y8320016D01*
X13146678D01*
X13163339Y8336678D01*
X13196661Y8403323D02*
X13213322Y8419984D01*
X13246645D01*
X13263306Y8403323D01*
Y8386661D01*
X13246645Y8370000D01*
X13263306Y8353339D01*
Y8336678D01*
X13246645Y8320016D01*
X13213322D01*
X13196661Y8336678D01*
Y8353339D01*
X13213322Y8370000D01*
X13196661Y8386661D01*
Y8403323D01*
X13213322Y8370000D02*
X13246645D01*
X12603339Y6913322D02*
X12586677Y6929984D01*
X12553355D01*
X12536693Y6913322D01*
Y6846677D01*
X12553355Y6830016D01*
X12586677D01*
X12603339Y6846677D01*
X12636661Y6929984D02*
X12703306D01*
Y6913322D01*
X12636661Y6846677D01*
Y6830016D01*
X12283339Y6913322D02*
X12266678Y6929984D01*
X12233355D01*
X12216694Y6913322D01*
Y6846677D01*
X12233355Y6830016D01*
X12266678D01*
X12283339Y6846677D01*
X12383306Y6929984D02*
X12349984Y6913322D01*
X12316661Y6880000D01*
Y6846677D01*
X12333323Y6830016D01*
X12366645D01*
X12383306Y6846677D01*
Y6863339D01*
X12366645Y6880000D01*
X12316661D01*
X11933339Y6903322D02*
X11916677Y6919984D01*
X11883355D01*
X11866694Y6903322D01*
Y6836677D01*
X11883355Y6820016D01*
X11916677D01*
X11933339Y6836677D01*
X12033306Y6919984D02*
X11966661D01*
Y6870000D01*
X11999984Y6886661D01*
X12016645D01*
X12033306Y6870000D01*
Y6836677D01*
X12016645Y6820016D01*
X11983323D01*
X11966661Y6836677D01*
X14843340Y6443322D02*
X14826677Y6459984D01*
X14793355D01*
X14776694Y6443322D01*
Y6376677D01*
X14793355Y6360016D01*
X14826677D01*
X14843340Y6376677D01*
X14926645Y6360016D02*
Y6459984D01*
X14876662Y6410000D01*
X14943306D01*
X14283339Y6433322D02*
X14266678Y6449984D01*
X14233356D01*
X14216695Y6433322D01*
Y6366677D01*
X14233356Y6350016D01*
X14266678D01*
X14283339Y6366677D01*
X14316661Y6433322D02*
X14333324Y6449984D01*
X14366644D01*
X14383307Y6433322D01*
Y6416661D01*
X14366644Y6400000D01*
X14349985D01*
X14366644D01*
X14383307Y6383339D01*
Y6366677D01*
X14366644Y6350016D01*
X14333324D01*
X14316661Y6366677D01*
X13733339Y6443323D02*
X13716678Y6459984D01*
X13683356D01*
X13666695Y6443323D01*
Y6376678D01*
X13683356Y6360016D01*
X13716678D01*
X13733339Y6376678D01*
X13833307Y6360016D02*
X13766663D01*
X13833307Y6426661D01*
Y6443323D01*
X13816646Y6459984D01*
X13783324D01*
X13766663Y6443323D01*
X13180000Y6453323D02*
X13163339Y6469984D01*
X13130016D01*
X13113354Y6453323D01*
Y6386678D01*
X13130016Y6370016D01*
X13163339D01*
X13180000Y6386678D01*
X13213322Y6370016D02*
X13246645D01*
X13229984D01*
Y6469984D01*
X13213322Y6453323D01*
X15539999Y7029984D02*
X15506677D01*
X15523338D01*
Y6946677D01*
X15506677Y6930016D01*
X15490016D01*
X15473355Y6946677D01*
X15573323Y6930016D02*
X15606645D01*
X15589984D01*
Y7029984D01*
X15573323Y7013323D01*
X10943355Y7189984D02*
Y7106677D01*
X10960016Y7090016D01*
X10993339D01*
X11010000Y7106677D01*
Y7189984D01*
X11043323Y7090016D02*
X11076645D01*
X11059984D01*
Y7189984D01*
X11043323Y7173322D01*
X9966694Y7689984D02*
Y7606677D01*
X9983355Y7590016D01*
X10016677D01*
X10033339Y7606677D01*
Y7689984D01*
X10133306Y7590016D02*
X10066661D01*
X10133306Y7656661D01*
Y7673322D01*
X10116645Y7689984D01*
X10083323D01*
X10066661Y7673322D01*
%TF.MD5,0723f55998fca448c938dedf9c7493cf*%
M02*
