%TF.GenerationSoftware,Altium Limited,Altium Designer,24.10.1 (45)*%
G04 Layer_Color=8421504*
%FSLAX45Y45*%
%MOMM*%
%TF.SameCoordinates,6B7C1C4C-1752-458E-A365-839E3CDA317C*%
%TF.FilePolarity,Positive*%
%TF.FileFunction,Paste,Top*%
%TF.Part,Single*%
G01*
G75*
%TA.AperFunction,SMDPad,CuDef*%
%ADD10R,1.45000X5.50000*%
%ADD11R,0.25000X0.70000*%
%ADD12R,0.70000X0.30000*%
%ADD13R,1.50000X0.30000*%
%ADD14R,2.10000X2.10000*%
%ADD15R,0.25000X1.05000*%
%ADD16R,1.05000X0.25000*%
%ADD18R,0.95000X0.95000*%
%ADD19R,0.90000X0.70000*%
%ADD20R,0.95000X0.80000*%
%ADD21R,0.80000X0.95000*%
%ADD22R,0.95000X0.95000*%
%ADD23R,1.00000X0.90000*%
%ADD24R,0.85000X0.95000*%
%ADD25R,0.80000X0.60000*%
%ADD26R,0.60000X0.80000*%
%ADD27R,0.95822X1.00650*%
%ADD28R,0.91213X0.95872*%
%ADD29R,1.00650X0.95822*%
%ADD30R,0.96822X1.00650*%
%ADD31R,1.10620X0.75620*%
%ADD32R,2.80415X1.50273*%
%ADD33R,2.33000X1.99000*%
D10*
X11550000Y7610000D02*
D03*
X11150000D02*
D03*
D11*
X10065000Y7475000D02*
D03*
X10115000D02*
D03*
X10165000D02*
D03*
X10215000D02*
D03*
Y7185000D02*
D03*
X10165000D02*
D03*
X10115000D02*
D03*
X10065000D02*
D03*
D12*
X10260000Y7395000D02*
D03*
Y7265000D02*
D03*
D13*
X10220000Y7330000D02*
D03*
X10062500Y7265000D02*
D03*
Y7395000D02*
D03*
D14*
X11340000Y6780000D02*
D03*
D15*
X11240000Y6962500D02*
D03*
X11290000D02*
D03*
X11340000D02*
D03*
X11390000D02*
D03*
X11440000D02*
D03*
Y6597500D02*
D03*
X11390000D02*
D03*
X11340000D02*
D03*
X11290000D02*
D03*
X11240000D02*
D03*
D16*
X11522500Y6880000D02*
D03*
Y6830000D02*
D03*
Y6780000D02*
D03*
Y6730000D02*
D03*
Y6680000D02*
D03*
X11157500D02*
D03*
Y6730000D02*
D03*
Y6780000D02*
D03*
Y6830000D02*
D03*
Y6880000D02*
D03*
D18*
X10695000Y6240000D02*
D03*
X10845000D02*
D03*
X7455000Y8230000D02*
D03*
X7605000D02*
D03*
D19*
X10540000Y7950000D02*
D03*
Y7810000D02*
D03*
X10110000Y6560000D02*
D03*
Y6420000D02*
D03*
X10260000Y6560000D02*
D03*
Y6420000D02*
D03*
X10690000Y7810000D02*
D03*
Y7950000D02*
D03*
D20*
X10220000Y7947500D02*
D03*
Y7812500D02*
D03*
X10380000Y7817500D02*
D03*
Y7942500D02*
D03*
D21*
X10612500Y6920000D02*
D03*
X10487500D02*
D03*
X10482500Y6760000D02*
D03*
X10617500D02*
D03*
D22*
X10100000Y6895000D02*
D03*
Y6745000D02*
D03*
X10270000Y6895000D02*
D03*
Y6745000D02*
D03*
X11910000Y6575000D02*
D03*
Y6725000D02*
D03*
D23*
X10060000Y7815000D02*
D03*
Y7945000D02*
D03*
D24*
X10485000Y7070000D02*
D03*
X10615000D02*
D03*
D25*
X9920000Y7807500D02*
D03*
Y7952500D02*
D03*
D26*
X7322500Y8230000D02*
D03*
X7177500D02*
D03*
D27*
X11180000Y6207415D02*
D03*
Y6352586D02*
D03*
D28*
X11350000Y6207330D02*
D03*
Y6352671D02*
D03*
X9940000Y6747329D02*
D03*
Y6892671D02*
D03*
D29*
X10477414Y6590000D02*
D03*
X10622586D02*
D03*
D30*
X10510000Y7472586D02*
D03*
Y7327414D02*
D03*
D31*
X9780000Y7117500D02*
D03*
Y7302500D02*
D03*
D32*
X9340000Y7094980D02*
D03*
Y7385020D02*
D03*
Y7875020D02*
D03*
Y7584981D02*
D03*
X9670000Y7875020D02*
D03*
Y7584981D02*
D03*
X12640000Y8075019D02*
D03*
Y7784980D02*
D03*
X12300000Y8075019D02*
D03*
Y7784980D02*
D03*
X11960000Y8075019D02*
D03*
Y7784980D02*
D03*
X12640000Y7134980D02*
D03*
Y7425019D02*
D03*
X12300000Y7134980D02*
D03*
Y7425019D02*
D03*
X11960000Y7134980D02*
D03*
Y7425019D02*
D03*
D33*
X8190000Y7151000D02*
D03*
Y6549000D02*
D03*
X8179999Y7669000D02*
D03*
Y8271000D02*
D03*
X8739999Y7669000D02*
D03*
Y8271000D02*
D03*
X8750000Y7151000D02*
D03*
Y6549000D02*
D03*
X14859361Y7576059D02*
D03*
Y8178058D02*
D03*
X14299361Y7576059D02*
D03*
Y8178058D02*
D03*
X13739362Y7576059D02*
D03*
Y8178058D02*
D03*
X13179361Y7576059D02*
D03*
Y8178058D02*
D03*
X14860001Y7201000D02*
D03*
Y6599000D02*
D03*
X14300000Y7201000D02*
D03*
Y6599000D02*
D03*
X13739999Y7201000D02*
D03*
Y6599001D02*
D03*
X13180000Y7201000D02*
D03*
Y6599001D02*
D03*
%TF.MD5,eccca9bb6e757df696f7735d6c39b014*%
M02*
