%TF.GenerationSoftware,Altium Limited,Altium Designer,23.7.1 (13)*%
G04 Layer_Color=0*
%FSLAX45Y45*%
%MOMM*%
%TF.SameCoordinates,25FEA040-87FC-4766-ABD7-6AF3FFDF4EEB*%
%TF.FilePolarity,Positive*%
%TF.FileFunction,Plated,1,2,PTH,Drill*%
%TF.Part,Single*%
G01*
G75*
%TA.AperFunction,ComponentDrill*%
%ADD26C,0.90000*%
%ADD27C,1.10000*%
%TA.AperFunction,ViaDrill,NotFilled*%
%ADD28C,0.71120*%
D26*
X6096000Y6858000D02*
D03*
X6350000D02*
D03*
X6096000Y6604000D02*
D03*
X6350000D02*
D03*
X6096000Y6350000D02*
D03*
X6350000D02*
D03*
X6096000Y6096000D02*
D03*
X6350000D02*
D03*
X6096000Y5842000D02*
D03*
X6350000D02*
D03*
X6096000Y5588000D02*
D03*
X6350000D02*
D03*
X6096000Y5334000D02*
D03*
X6350000D02*
D03*
X6096000Y5080000D02*
D03*
X6350000D02*
D03*
X6096000Y4826000D02*
D03*
X6350000D02*
D03*
X6096000Y4572000D02*
D03*
X6350000D02*
D03*
X6096000Y4318000D02*
D03*
X6350000D02*
D03*
X6604000Y6858000D02*
D03*
Y6604000D02*
D03*
Y6350000D02*
D03*
Y6096000D02*
D03*
Y5842000D02*
D03*
D27*
X5080000Y6858000D02*
D03*
Y6604000D02*
D03*
X5334000Y6858000D02*
D03*
Y6604000D02*
D03*
X5080000Y6350000D02*
D03*
X5334000D02*
D03*
X5080000Y6096000D02*
D03*
X5334000D02*
D03*
X5080000Y5842000D02*
D03*
X5334000D02*
D03*
X5080000Y4826000D02*
D03*
Y4572000D02*
D03*
X5334000Y4826000D02*
D03*
Y4572000D02*
D03*
X5080000Y4318000D02*
D03*
X5334000D02*
D03*
X5080000Y4064000D02*
D03*
X5334000D02*
D03*
X5080000Y3810000D02*
D03*
X5334000D02*
D03*
D28*
X5709920Y4693920D02*
D03*
%TF.MD5,3069145bfc23bfbf5c5725f7bf7c7d70*%
M02*
