%TF.GenerationSoftware,Altium Limited,Altium Designer,23.7.1 (13)*%
G04 Layer_Physical_Order=2*
G04 Layer_Color=16711680*
%FSLAX45Y45*%
%MOMM*%
%TF.SameCoordinates,25FEA040-87FC-4766-ABD7-6AF3FFDF4EEB*%
%TF.FilePolarity,Positive*%
%TF.FileFunction,Copper,L2,Bot,Signal*%
%TF.Part,Single*%
G01*
G75*
%TA.AperFunction,Conductor*%
%ADD10C,0.50800*%
%TA.AperFunction,ComponentPad*%
%ADD11C,1.50000*%
%ADD12R,1.50000X1.50000*%
%ADD13C,1.60000*%
%ADD14R,1.60000X1.60000*%
%TA.AperFunction,ViaPad*%
%ADD15C,1.27000*%
D10*
X5080000Y5842000D02*
X5207000Y5715000D01*
X5229158D01*
X5232958Y5711200D02*
X5435042D01*
X5438842Y5715000D02*
X6223000D01*
X5229158D02*
X5232958Y5711200D01*
X5435042D02*
X5438842Y5715000D01*
X6223000D02*
X6350000Y5842000D01*
X5969000Y5461000D02*
X6540500D01*
X6731000Y5651500D02*
Y6477000D01*
X6540500Y5461000D02*
X6731000Y5651500D01*
X6350000Y5588000D02*
X6477000Y5715000D01*
Y6451600D01*
X6451600Y6477000D02*
X6477000Y6451600D01*
X5461000Y6477000D02*
X6451600D01*
X5334000Y6604000D02*
X5461000Y6477000D01*
X5334000Y4318000D02*
X5709920Y4693920D01*
X5334000Y4826000D02*
X5969000Y5461000D01*
X6604000Y6604000D02*
X6731000Y6477000D01*
X5334000Y4572000D02*
X5969000Y5207000D01*
X6223000D01*
X6350000Y5334000D01*
X6477000Y6985000D02*
X6604000Y6858000D01*
X5461000Y6985000D02*
X6477000D01*
X5334000Y6858000D02*
X5461000Y6985000D01*
X5334000Y6096000D02*
X6096000D01*
D11*
Y6858000D02*
D03*
X6350000D02*
D03*
X6096000Y6604000D02*
D03*
X6350000D02*
D03*
X6096000Y6350000D02*
D03*
X6350000D02*
D03*
X6096000Y6096000D02*
D03*
X6350000D02*
D03*
X6096000Y5842000D02*
D03*
X6350000D02*
D03*
X6096000Y5588000D02*
D03*
X6350000D02*
D03*
X6096000Y5334000D02*
D03*
X6350000D02*
D03*
X6096000Y5080000D02*
D03*
X6350000D02*
D03*
X6096000Y4826000D02*
D03*
X6350000D02*
D03*
X6096000Y4572000D02*
D03*
X6350000D02*
D03*
X6096000Y4318000D02*
D03*
X6604000Y6858000D02*
D03*
Y6604000D02*
D03*
Y6350000D02*
D03*
Y6096000D02*
D03*
D12*
X6350000Y4318000D02*
D03*
X6604000Y5842000D02*
D03*
D13*
X5080000Y6858000D02*
D03*
Y6604000D02*
D03*
X5334000Y6858000D02*
D03*
Y6604000D02*
D03*
X5080000Y6350000D02*
D03*
X5334000D02*
D03*
X5080000Y6096000D02*
D03*
X5334000D02*
D03*
X5080000Y5842000D02*
D03*
Y4826000D02*
D03*
Y4572000D02*
D03*
X5334000Y4826000D02*
D03*
Y4572000D02*
D03*
X5080000Y4318000D02*
D03*
X5334000D02*
D03*
X5080000Y4064000D02*
D03*
X5334000D02*
D03*
X5080000Y3810000D02*
D03*
D14*
X5334000Y5842000D02*
D03*
Y3810000D02*
D03*
D15*
X5709920Y4693920D02*
D03*
%TF.MD5,81ad6d7f54f1ccb148cf0b67f76eb618*%
M02*
