%TF.GenerationSoftware,Altium Limited,Altium Designer,23.7.1 (13)*%
G04 Layer_Color=32896*
%FSLAX45Y45*%
%MOMM*%
%TF.SameCoordinates,25FEA040-87FC-4766-ABD7-6AF3FFDF4EEB*%
%TF.FilePolarity,Positive*%
%TF.FileFunction,Legend,Bot*%
%TF.Part,Single*%
G01*
G75*
%TA.AperFunction,NonConductor*%
%ADD16C,0.20000*%
D16*
X5782596Y5105421D02*
Y5232379D01*
X5740277Y5190060D01*
X5697957Y5232379D01*
Y5105421D01*
X5570998Y5211220D02*
X5592158Y5232379D01*
X5634478D01*
X5655637Y5211220D01*
Y5126580D01*
X5634478Y5105421D01*
X5592158D01*
X5570998Y5126580D01*
Y5168900D01*
X5613318D01*
X5317080Y5105421D02*
X5401720D01*
X5317080Y5190060D01*
Y5211220D01*
X5338240Y5232379D01*
X5380560D01*
X5401720Y5211220D01*
X5274761D02*
X5253601Y5232379D01*
X5211281D01*
X5190121Y5211220D01*
Y5126580D01*
X5211281Y5105421D01*
X5253601D01*
X5274761Y5126580D01*
Y5211220D01*
X5063163Y5105421D02*
X5147802D01*
X5063163Y5190060D01*
Y5211220D01*
X5084323Y5232379D01*
X5126642D01*
X5147802Y5211220D01*
X5020843D02*
X4999683Y5232379D01*
X4957364D01*
X4936204Y5211220D01*
Y5190060D01*
X4957364Y5168900D01*
X4978523D01*
X4957364D01*
X4936204Y5147740D01*
Y5126580D01*
X4957364Y5105421D01*
X4999683D01*
X5020843Y5126580D01*
X5761436Y5317081D02*
Y5401720D01*
X5719117Y5444039D01*
X5676797Y5401720D01*
Y5317081D01*
Y5380560D01*
X5761436D01*
X5549838Y5444039D02*
Y5317081D01*
X5613318D01*
X5634477Y5338240D01*
Y5380560D01*
X5613318Y5401720D01*
X5549838D01*
X5486359D02*
X5444039D01*
X5422879Y5380560D01*
Y5317081D01*
X5486359D01*
X5507519Y5338240D01*
X5486359Y5359400D01*
X5422879D01*
X5380560Y5274761D02*
Y5401720D01*
X5317080D01*
X5295920Y5380560D01*
Y5338240D01*
X5317080Y5317081D01*
X5380560D01*
X5232441Y5422880D02*
Y5401720D01*
X5253601D01*
X5211281D01*
X5232441D01*
Y5338240D01*
X5211281Y5317081D01*
X5084322D02*
X5126642D01*
X5147802Y5338240D01*
Y5380560D01*
X5126642Y5401720D01*
X5084322D01*
X5063162Y5380560D01*
Y5359400D01*
X5147802D01*
X5020843Y5401720D02*
Y5317081D01*
Y5359400D01*
X4999683Y5380560D01*
X4978523Y5401720D01*
X4957363D01*
X5835496Y5499121D02*
Y5626079D01*
X5772016D01*
X5750856Y5604920D01*
Y5562600D01*
X5772016Y5541440D01*
X5835496D01*
X5793176D02*
X5750856Y5499121D01*
X5687377D02*
X5645058D01*
X5623898Y5520280D01*
Y5562600D01*
X5645058Y5583760D01*
X5687377D01*
X5708537Y5562600D01*
Y5520280D01*
X5687377Y5499121D01*
X5581578Y5626079D02*
Y5499121D01*
X5518099D01*
X5496939Y5520280D01*
Y5541440D01*
Y5562600D01*
X5518099Y5583760D01*
X5581578D01*
X5433460Y5499121D02*
X5391140D01*
X5369980Y5520280D01*
Y5562600D01*
X5391140Y5583760D01*
X5433460D01*
X5454619Y5562600D01*
Y5520280D01*
X5433460Y5499121D01*
X5243021Y5583760D02*
X5306501D01*
X5327660Y5562600D01*
Y5520280D01*
X5306501Y5499121D01*
X5243021D01*
X5200702D02*
X5158382D01*
X5179542D01*
Y5626079D01*
X5200702D01*
X5073743Y5583760D02*
X5031423D01*
X5010263Y5562600D01*
Y5499121D01*
X5073743D01*
X5094902Y5520280D01*
X5073743Y5541440D01*
X5010263D01*
X4967944Y5583760D02*
Y5520280D01*
X4946784Y5499121D01*
X4925624Y5520280D01*
X4904464Y5499121D01*
X4883304Y5520280D01*
Y5583760D01*
%TF.MD5,558ce6ec8e7c489eed0118214ffbffd0*%
M02*
