%TF.GenerationSoftware,Altium Limited,Altium Designer,23.7.1 (13)*%
G04 Layer_Color=16711935*
%FSLAX45Y45*%
%MOMM*%
%TF.SameCoordinates,25FEA040-87FC-4766-ABD7-6AF3FFDF4EEB*%
%TF.FilePolarity,Negative*%
%TF.FileFunction,Soldermask,Bot*%
%TF.Part,Single*%
G01*
G75*
%TA.AperFunction,ComponentPad*%
%ADD20C,1.70320*%
%ADD21R,1.70320X1.70320*%
%ADD22C,1.80320*%
%ADD23R,1.80320X1.80320*%
%TA.AperFunction,ViaPad*%
%ADD24C,1.47320*%
D20*
X6096000Y6858000D02*
D03*
X6350000D02*
D03*
X6096000Y6604000D02*
D03*
X6350000D02*
D03*
X6096000Y6350000D02*
D03*
X6350000D02*
D03*
X6096000Y6096000D02*
D03*
X6350000D02*
D03*
X6096000Y5842000D02*
D03*
X6350000D02*
D03*
X6096000Y5588000D02*
D03*
X6350000D02*
D03*
X6096000Y5334000D02*
D03*
X6350000D02*
D03*
X6096000Y5080000D02*
D03*
X6350000D02*
D03*
X6096000Y4826000D02*
D03*
X6350000D02*
D03*
X6096000Y4572000D02*
D03*
X6350000D02*
D03*
X6096000Y4318000D02*
D03*
X6604000Y6858000D02*
D03*
Y6604000D02*
D03*
Y6350000D02*
D03*
Y6096000D02*
D03*
D21*
X6350000Y4318000D02*
D03*
X6604000Y5842000D02*
D03*
D22*
X5080000Y6858000D02*
D03*
Y6604000D02*
D03*
X5334000Y6858000D02*
D03*
Y6604000D02*
D03*
X5080000Y6350000D02*
D03*
X5334000D02*
D03*
X5080000Y6096000D02*
D03*
X5334000D02*
D03*
X5080000Y5842000D02*
D03*
Y4826000D02*
D03*
Y4572000D02*
D03*
X5334000Y4826000D02*
D03*
Y4572000D02*
D03*
X5080000Y4318000D02*
D03*
X5334000D02*
D03*
X5080000Y4064000D02*
D03*
X5334000D02*
D03*
X5080000Y3810000D02*
D03*
D23*
X5334000Y5842000D02*
D03*
Y3810000D02*
D03*
D24*
X5709920Y4693920D02*
D03*
%TF.MD5,2cb47561b81d60389b0068c14e14fe5c*%
M02*
