M48
;Layer_Color=9474304
;FILE_FORMAT=2:5
INCH,LZ
;TYPE=PLATED
T1F00S00C0.01181
T2F00S00C0.01968
T3F00S00C0.03543
T4F00S00C0.04134
T5F00S00C0.11811
T6F00S00C0.16929
T7F00S00C0.19488
;TYPE=NON_PLATED
T8F00S00C0.01968
%
T01
X0035433Y0048425
X0046063Y0046457
X0054724Y0050787
X0050787Y0059055
X0051181Y0066142
X0044676Y0069104
X0042126Y0070866
X0043307Y0077165
X0042913Y0082677
Y0086614
X0048425Y0087008
X0051181Y0084646
X0066142
Y0081496
Y0078347
Y0075197
Y0072047
X0066535Y0064642
X0042904Y0063789
X0040157Y0058268
X006811Y0041732
X0080618Y0057587
X0086221Y0059449
X01Y0065748
X0101287Y0068413
X0102362Y0081496
X0093701Y0077559
X0081496Y0088583
X0118898Y0087205
X0148335Y0088642
X0147941Y0084161
X0145374Y0081299
X0158465Y0081693
X0162402
X0166339
X0170276
Y008563
X0166339
X0162402
X0158465
Y0077756
X0162402
X0166339
X0170276
Y0073819
Y0069882
Y0065945
X0166339
Y0069882
Y0073819
X0162402
Y0069882
Y0065945
X0158465
Y0069882
Y0073819
X0148215Y0066719
X0144095Y0065354
X0148031Y0054724
X0150787
X015315
X0157175Y0055512
X0166783Y0053937
X016592Y0050787
X0166783Y0047638
X0161866Y0046856
X0172835Y0051575
X0172441Y0054331
X0176287Y0057784
X0180315Y005748
X0183858
X0187995Y0059068
X0187492Y0064502
X0184161Y0066839
X0180799Y0063469
X018613Y0072218
X0184022Y0074458
X0181012Y0079049
X0181771Y0083796
X019685Y0082284
Y0075984
X0197638Y0062598
X0197244Y0056693
X0196436Y0052382
X0195973Y0041081
X0204724Y0038189
X0215157Y0043897
X0217519
X0219881
X0221062Y004626
X02187
X0216338
X0213976
X0215157Y0048622
X0217519
X0219881
X0221062Y0050984
X02187
X0216338
X0213976
X0221654Y0062598
X0227165Y0061811
X0208268Y0065354
X0203937Y0064173
X0207087Y0071653
X0211024Y0079921
Y0083465
X022874Y0086221
X0226772Y0035433
X022126Y0031299
X0196366Y0029831
X0176772Y0034252
X0174016Y004252
X0140945Y0038976
X0135433Y0037008
X0131102Y0038976
X0128347Y0035827
X0115748Y0035957
Y0027953
X0114173Y0044094
X0119685Y0055905
X0153543Y0012598
X0231102Y0011614
X0244094Y0018504
X0254528Y002815
X0258858
X0263189
X026752
X027185
X0276181
X0280512
Y003248
X0276181
X027185
X026752
X0263189
X0258858
X026063Y0045079
X0266535
X0272441
X0269488Y0050984
X0263583
X0257677
X0251771
X0254724Y0045079
X0254528Y0058465
X0258858
X0263189
X026752
X027185
X0276181
X0280512
Y0062795
X0276181
X027185
X026752
X0263189
X0258858
X0257677Y0074606
X0263583
X0269488
X0272441Y0080512
X0266535
X026063
X0254724
X0254528Y008878
X0258858
X0263189
X026752
X027185
X0276181
X0280512
X0287205Y0086417
X029311
X0299016
X0304921
X0310827
X0322638
X0328543
X0334449
X0340354
X0337401Y0074606
X0331496
X032559
X0319685
X0313779
X0307874
X0301968
X0296063
X0290157
X0284252
X029311Y0068701
X0299016
X0304921
X0310827
X0316732
X0322638
X0328543
X0334449
X0337401Y0062795
X0331496
X032559
X0319685
X0313779
X0307874
X0301968
X0296063
X029311Y005689
X0299016
X0304921
X0310827
X0316732
X0322638
X0328543
X0334449
X0337401Y0045079
X0343307
X0349213
X0355118
X0361023
X0358071Y0039173
X0352165
X034626
X0340354
X0334449
X0328543
X0322638
X0319685Y0043307
X0315354
X0312205Y0045472
X0306299
X0300394
X0294488
X0288583
X0282677
X028563Y0039567
X0291535
X0297441
X0303346
X0309252
X0300394Y0033661
X0294488
X0291535Y0027756
X0301969Y0024803
X0301181Y0015748
X0312598Y0011417
X0315354Y0022047
X0319685
X0312912Y0026976
X0332283Y0017717
X033937Y0011614
X0349213
X0359055
X0368898
X0373819Y0021457
X0383661
X0388583Y0031299
Y0050984
Y0070669
X0363976Y0021457
X0354134
X0344291
X0331496Y0045079
X032559
X0240945Y0050984
X0236024Y0041142
X0234252Y0072835
X0240158Y0086221
X0270079Y0008268
X027185Y009311
X0276181
X0280512
X0290157Y0092323
X0296063
X0301968
X0307874
X0304921Y0098228
X0310827
X0314961Y0103543
X0319291
X0319685Y0110039
X0316929Y0115748
X0312992Y0121653
X0309842Y0129724
X0319685
X0329528
X033937
X0349213
X0359055
X0361516Y0135433
X0364469
X0367422
X0370375
X0373327
X037628
X0379233
X0382186
Y0138386
X0385138
Y0141339
Y0144292
Y0147244
Y0150197
Y015315
Y0156103
Y0159055
X0382186
Y0156103
X0379233Y0159055
X037628
X0373327
X0370375
X0367422
X0364469
Y0156103
X0361516
Y0159055
Y015315
Y0150197
Y0147244
Y0144292
Y0141339
Y0138386
X0364469
X0368898Y0129724
X037874
X0388583
X0385138Y0135433
X0383661Y0119882
X0373819
X0363976
X0354134
X0344291
X0334449
X0332677Y0114961
X0337008Y0108268
X033937Y0110039
X0349213
X0359055
X0368898
X037874
X0388583
Y0090354
X0337401Y0092323
X0331496
X032559
X0319291Y0090551
X0314961
X0322638Y0098228
X0328543
X0334449
X0340354
X0327165Y0120866
X0324606Y0139567
X0319685Y0149409
X0329528
X0324606Y0159252
X0319685Y0169095
X0329528
X033937
X0344291Y0178937
X0354134
X0363976
X0334449
X0324606
X0308464Y0178543
X0306102
X0303739
X0304921Y0176181
X0307283
X0309645
X0308464Y0173818
X0306102
X0303739
X0304921Y0171456
X0307283
X0309645
X0304921Y0159252
X0295079
X0285236
X0275394
X0265551
X0255709
X0245866
X0236024
X0240945Y0169095
X0250787
X0262401Y0171456
X0264763
X0265944Y0173818
X0263582
X026122
X0262401Y0176181
X0264763
X0265944Y0178543
X0263582
X026122
X0275394Y0178937
X0285236
X0295079
X0290158Y0169095
X0280315
Y0149409
X0270472
X0275394Y0139567
X0285236
X0295079
X03Y0129724
X0295079Y0119882
X0285236
X0275394
X0265551
X0255709
X0257677Y0110039
X0263583
X0269488
X0266535Y0104134
X026063
X0258858Y009311
X0263189
X026752
X0254528
X0251771Y0110039
X0281299
X0287205
X029311
X0296063Y0104134
X0290157
X0284252
X029311Y0098228
X0299016
X0305512Y0114173
X03Y0149409
X0290158
X0250787
X0240945
X0245866Y0139567
X0255709
X0238583Y0126772
X0236024Y0178937
X0245866
X0388583Y0169095
X02192Y015424
X021487Y015424
X0213006Y0151091
X02174Y0151459
X0221671Y0151091
X022559Y0147638
X0227342Y0140903
X0228346Y0127953
X0215158Y0130118
Y0134055
Y0137992
X0211221
Y0134055
Y0130118
X0207284
Y0134055
Y0137992
X0206996Y0151091
X020886Y015424
X0205028
X0202665Y0152061
X0198767Y0152414
X0198031Y0159449
X0202362Y0158268
X0211024Y015748
X0187402Y0150787
X0188189Y0141165
X0193187Y0143307
X0178347Y0132283
X0173228Y0133071
X0172047Y0136221
X0167323Y0133457
X0169291Y0145276
X0162598Y0157874
X0150787
X0152756Y0151968
X0140945
X0138976Y0157874
X0136207Y0147558
X0133441Y0140403
X0135827Y0137008
X013189Y0132283
X0127559
X0125197Y0122441
X0131496Y0119291
X0132677Y0108268
X0137008Y0105118
X0141732Y010748
X015Y010315
X014902Y0098638
X0147244Y0096486
X0146309Y0090538
X0143753Y0091611
X0141549Y0093427
X0136614Y009453
X0128847Y0098925
X0126772Y0102362
X0126378Y0107087
X0116535Y0101181
X0114173Y0098032
X0102362Y0097638
X0100811Y0099935
X0100394Y0114173
X0102756Y0117717
X0107087Y0114961
X011063
X0114469Y0114862
X0144488Y0125591
X0145669Y0135433
X0154724Y0137402
X0175723Y0128067
X0182752Y0124966
X0174319Y0107783
X0176287Y010424
X0178441Y0102104
X0170521Y0104717
X0170079Y0110031
X0164854Y0108571
X0160327Y0108571
X0163156Y0104717
X0162402Y0093504
X0166339
X0170276
Y0089567
X0166339
X0162402
X0158465
Y0093504
X0166839Y0114083
X019252Y0099213
X0206693Y0106299
X0214961Y0109449
X0218504Y0112992
X012874Y0163386
X0122835Y0162598
X011811Y0161417
X0103937Y0157874
X0105905Y0151969
X0093701
X0092126Y0157874
X0080315
X0081102Y0151969
X0098441Y01453
X0094095Y0089764
X0089764Y0092913
X004252Y0091732
X0042726Y0111623
X0045276Y0114173
X0039764Y0114567
X0042323Y0117126
X003682Y0117529
X003937Y0120079
X0033867Y0120482
X0033465Y0114173
X0036417Y0111221
X005Y0112795
X0048228Y0117126
X0045276Y0120079
X0066142Y0141339
X0075197Y0143307
X0069685Y0156299
X0057087Y0163779
X0029134Y0162598
T02
X0220079Y0170472
X0223622
T03
X0085276Y0029764
X0095276
Y0039764
X0105276
Y0029764
X0117795Y0020079
Y0010079
X0127795
X0137795
X0147795
Y0020079
X0137795
X0127795
X0162835Y0010236
X0172835
X0182835
X0182677Y0021654
X0172677
X0085276Y0039764
X0190551Y0177165
X0200551
X0062205Y0176378
X0052205
X0042205
T04
X0047244Y0011811
X0057087
X0066929
X0076772
X0086614
X0096457
X009685Y0176772
X0106693
X0116535
X0134252
X0144095
X0153937
X0163779
X0173622
X0087008
X0077165
X0024016Y0156693
Y014685
Y0137008
Y0127165
T05
X0011811Y0011811
X038189
Y0177165
X0011811
T06
X0352756Y0065551
X0373622Y0068898
Y0047244
Y0090551
X0352756Y0093898
T07
X0344488Y0147244
X0373288
T08
X0015551Y0036319
Y0052658
M30
