%TF.GenerationSoftware,Altium Limited,Altium Designer,24.2.2 (26)*%
G04 Layer_Color=65535*
%FSLAX45Y45*%
%MOMM*%
%TF.SameCoordinates,ED05C265-6832-4B09-BD0A-DE9E8D978F3E*%
%TF.FilePolarity,Positive*%
%TF.FileFunction,Legend,Top*%
%TF.Part,Single*%
G01*
G75*
%TA.AperFunction,NonConductor*%
%ADD20C,0.20000*%
%ADD21C,0.25000*%
%ADD22C,0.38100*%
%ADD23C,0.25400*%
D20*
X6789983Y2594001D02*
G03*
X6760000Y2625000I-29983J999D01*
G01*
Y3875000D02*
G03*
X6789983Y3906000I0J30000D01*
G01*
X6759999Y2684996D02*
X6789999Y2685004D01*
X6760000Y2525000D02*
X6790000D01*
X6760000D02*
Y2595000D01*
X6789983Y2594001D02*
X6790000Y2525000D01*
X6759999Y2684996D02*
X6760000Y2625000D01*
X6759999Y3815004D02*
X6760000Y3875000D01*
X6759999Y3815004D02*
X6789999D01*
X6789983Y3906000D02*
X6790000Y3975000D01*
X6760000Y3905000D02*
Y3975000D01*
X6790000D01*
X5390000Y2595000D02*
Y3905000D01*
X6789999Y2685004D02*
Y3815004D01*
X5390000Y2595000D02*
X5560000D01*
X5964000D02*
X6760000D01*
X5964000Y3905000D02*
X6760000D01*
X5390000D02*
X5560000D01*
X4994500Y4258800D02*
Y4339992D01*
X4994530Y3870470D02*
Y3991200D01*
X4981399Y3870470D02*
X4994530D01*
X4245469Y3869998D02*
X4258499D01*
X4245469Y3870000D02*
Y3991200D01*
Y4258800D02*
Y4340000D01*
X4245500Y4339992D02*
X4994500D01*
X4100013Y2354993D02*
X5100019Y2354990D01*
X4040013Y2517493D02*
Y2602493D01*
X4100013Y2594993D01*
X4040013Y2517493D02*
X4100013Y2524993D01*
Y2354993D02*
Y2524993D01*
Y3104991D02*
X5100019D01*
X4100013Y2594993D02*
Y3104991D01*
X5160019Y2919991D02*
Y3014991D01*
X5100019Y3009991D02*
X5160019Y3014991D01*
X5100019Y2924991D02*
X5160019Y2919991D01*
X5100019Y3009991D02*
Y3104991D01*
Y2354990D02*
Y2924991D01*
D21*
X4762500Y3732500D02*
G03*
X4762500Y3732500I-12500J0D01*
G01*
D22*
X4080721Y3330000D02*
X4419278D01*
X4790721D02*
X5129279D01*
X4960000Y3499278D02*
Y3160721D01*
D23*
X5188308Y3770675D02*
X5137525D01*
X5162917D01*
Y3643717D01*
X5137525Y3618325D01*
X5112133D01*
X5086741Y3643717D01*
X5340659Y3618325D02*
X5239092D01*
X5340659Y3719892D01*
Y3745284D01*
X5315267Y3770675D01*
X5264484D01*
X5239092Y3745284D01*
X5253375Y3985299D02*
Y4036083D01*
Y4010691D01*
X5126416D01*
X5101025Y4036083D01*
Y4061475D01*
X5126416Y4086867D01*
X5101025Y3934516D02*
Y3883732D01*
Y3909124D01*
X5253375D01*
X5227983Y3934516D01*
X4194608Y3606175D02*
X4143825D01*
X4169216D01*
Y3479217D01*
X4143825Y3453825D01*
X4118433D01*
X4093041Y3479217D01*
X4245392Y3580784D02*
X4270784Y3606175D01*
X4321567D01*
X4346959Y3580784D01*
Y3555392D01*
X4321567Y3530000D01*
X4296175D01*
X4321567D01*
X4346959Y3504608D01*
Y3479217D01*
X4321567Y3453825D01*
X4270784D01*
X4245392Y3479217D01*
%TF.MD5,c5e6c817a8723518e999e369c1bcf1be*%
M02*
