%TF.GenerationSoftware,Altium Limited,Altium Designer,24.2.2 (26)*%
G04 Layer_Color=8388736*
%FSLAX45Y45*%
%MOMM*%
%TF.SameCoordinates,ED05C265-6832-4B09-BD0A-DE9E8D978F3E*%
%TF.FilePolarity,Negative*%
%TF.FileFunction,Soldermask,Top*%
%TF.Part,Single*%
G01*
G75*
%TA.AperFunction,Conductor*%
%ADD24C,0.70000*%
%TA.AperFunction,ConnectorPad*%
%ADD25R,0.60000X1.55000*%
%ADD26R,1.70000X2.10000*%
%TA.AperFunction,ComponentPad*%
%ADD27C,1.62000*%
G04:AMPARAMS|DCode=28|XSize=1.62mm|YSize=1.62mm|CornerRadius=0.455mm|HoleSize=0mm|Usage=FLASHONLY|Rotation=90.000|XOffset=0mm|YOffset=0mm|HoleType=Round|Shape=RoundedRectangle|*
%AMROUNDEDRECTD28*
21,1,1.62000,0.71000,0,0,90.0*
21,1,0.71000,1.62000,0,0,90.0*
1,1,0.91000,0.35500,0.35500*
1,1,0.91000,0.35500,-0.35500*
1,1,0.91000,-0.35500,-0.35500*
1,1,0.91000,-0.35500,0.35500*
%
%ADD28ROUNDEDRECTD28*%
%ADD29C,3.65000*%
%ADD30C,1.65000*%
G04:AMPARAMS|DCode=31|XSize=2.15mm|YSize=2.15mm|CornerRadius=0.5875mm|HoleSize=0mm|Usage=FLASHONLY|Rotation=0.000|XOffset=0mm|YOffset=0mm|HoleType=Round|Shape=RoundedRectangle|*
%AMROUNDEDRECTD31*
21,1,2.15000,0.97500,0,0,0.0*
21,1,0.97500,2.15000,0,0,0.0*
1,1,1.17500,0.48750,-0.48750*
1,1,1.17500,-0.48750,-0.48750*
1,1,1.17500,-0.48750,0.48750*
1,1,1.17500,0.48750,0.48750*
%
%ADD31ROUNDEDRECTD31*%
%ADD32C,2.15000*%
G36*
X4391308Y4229935D02*
X4392593Y4229680D01*
X4393834Y4229258D01*
X4395010Y4228679D01*
X4396100Y4227950D01*
X4397086Y4227086D01*
X4397950Y4226101D01*
X4398678Y4225011D01*
X4399258Y4223835D01*
X4399680Y4222594D01*
X4399935Y4221308D01*
X4400021Y4220000D01*
Y4030000D01*
X4399935Y4028692D01*
X4399680Y4027406D01*
X4399258Y4026165D01*
X4398678Y4024989D01*
X4397950Y4023899D01*
X4397086Y4022914D01*
X4396100Y4022049D01*
X4395010Y4021321D01*
X4393834Y4020741D01*
X4392593Y4020320D01*
X4391308Y4020064D01*
X4390000Y4019978D01*
X4260000D01*
X4258692Y4020064D01*
X4257406Y4020320D01*
X4256165Y4020741D01*
X4254989Y4021321D01*
X4253899Y4022049D01*
X4252914Y4022914D01*
X4252049Y4023899D01*
X4251321Y4024989D01*
X4250741Y4026165D01*
X4250320Y4027406D01*
X4250064Y4028692D01*
X4249978Y4030000D01*
Y4069976D01*
X4210002D01*
X4208694Y4070062D01*
X4207408Y4070317D01*
X4206167Y4070739D01*
X4205587Y4071024D01*
X4204991Y4071318D01*
X4203901Y4072046D01*
X4202916Y4072911D01*
Y4072911D01*
X4202916D01*
X4202051Y4073897D01*
X4201323Y4074987D01*
X4201029Y4075582D01*
X4200743Y4076162D01*
X4200322Y4077403D01*
X4200066Y4078689D01*
X4199980Y4079997D01*
X4199978Y4170000D01*
Y4170000D01*
D01*
X4200064Y4171308D01*
X4200320Y4172593D01*
X4200741Y4173835D01*
X4201027Y4174414D01*
X4201321Y4175010D01*
X4202049Y4176100D01*
X4202913Y4177086D01*
X4202913D01*
Y4177086D01*
X4203899Y4177950D01*
X4204989Y4178678D01*
X4205584Y4178972D01*
X4206164Y4179258D01*
X4207406Y4179680D01*
X4208691Y4179935D01*
X4209999Y4180021D01*
D01*
X4209999D01*
X4249978D01*
Y4220000D01*
X4250064Y4221308D01*
X4250320Y4222594D01*
X4250741Y4223835D01*
X4251321Y4225011D01*
X4252049Y4226101D01*
X4252914Y4227086D01*
X4253899Y4227950D01*
X4254989Y4228679D01*
X4256165Y4229258D01*
X4257406Y4229680D01*
X4258692Y4229935D01*
X4260000Y4230021D01*
X4390000D01*
X4391308Y4229935D01*
D02*
G37*
G36*
X4981308D02*
X4982593Y4229680D01*
X4983835Y4229258D01*
X4985010Y4228679D01*
X4986100Y4227950D01*
X4987086Y4227086D01*
X4987950Y4226101D01*
X4988678Y4225011D01*
X4989258Y4223835D01*
X4989680Y4222594D01*
X4989935Y4221308D01*
X4990021Y4220000D01*
Y4180024D01*
X5029998D01*
X5031306Y4179938D01*
X5032591Y4179683D01*
X5033832Y4179261D01*
X5034412Y4178975D01*
X5035008Y4178682D01*
X5036098Y4177953D01*
X5037083Y4177089D01*
Y4177089D01*
X5037084D01*
X5037948Y4176103D01*
X5038676Y4175013D01*
X5038970Y4174418D01*
X5039256Y4173838D01*
X5039677Y4172596D01*
X5039933Y4171311D01*
X5040019Y4170003D01*
X5040021Y4080000D01*
Y4080000D01*
D01*
X5039935Y4078692D01*
X5039680Y4077406D01*
X5039258Y4076165D01*
X5038973Y4075585D01*
X5038679Y4074990D01*
X5037951Y4073900D01*
X5037086Y4072914D01*
X5037086D01*
Y4072914D01*
X5036100Y4072050D01*
X5035011Y4071321D01*
X5034415Y4071027D01*
X5033835Y4070741D01*
X5032594Y4070320D01*
X5031308Y4070065D01*
X5030000Y4069979D01*
D01*
X5030000D01*
X4990021D01*
Y4030000D01*
X4989935Y4028692D01*
X4989680Y4027406D01*
X4989258Y4026165D01*
X4988678Y4024989D01*
X4987950Y4023899D01*
X4987086Y4022914D01*
X4986100Y4022049D01*
X4985010Y4021321D01*
X4983835Y4020741D01*
X4982593Y4020320D01*
X4981308Y4020064D01*
X4980000Y4019978D01*
X4850000D01*
X4848692Y4020064D01*
X4847406Y4020320D01*
X4846165Y4020741D01*
X4844989Y4021321D01*
X4843899Y4022049D01*
X4842914Y4022914D01*
X4842049Y4023899D01*
X4841321Y4024989D01*
X4840741Y4026165D01*
X4840320Y4027406D01*
X4840064Y4028692D01*
X4839978Y4030000D01*
Y4220000D01*
X4840064Y4221308D01*
X4840320Y4222594D01*
X4840741Y4223835D01*
X4841321Y4225011D01*
X4842049Y4226101D01*
X4842914Y4227086D01*
X4843899Y4227950D01*
X4844989Y4228679D01*
X4846165Y4229258D01*
X4847406Y4229680D01*
X4848692Y4229935D01*
X4850000Y4230021D01*
X4980000D01*
X4981308Y4229935D01*
D02*
G37*
D24*
X5005000Y4170000D02*
G03*
X5005000Y4170000I-25000J0D01*
G01*
Y4080000D02*
G03*
X5005000Y4080000I-25000J0D01*
G01*
X4285000Y4170000D02*
G03*
X4285000Y4170000I-25000J0D01*
G01*
Y4080000D02*
G03*
X4285000Y4080000I-25000J0D01*
G01*
D25*
X4750000Y3855000D02*
D03*
X4685000D02*
D03*
X4620000D02*
D03*
X4555000D02*
D03*
X4490000D02*
D03*
D26*
X4720000Y4125000D02*
D03*
X4520000D02*
D03*
D27*
X5491000Y3350000D02*
D03*
Y3150000D02*
D03*
Y3600000D02*
D03*
D28*
Y2900000D02*
D03*
D29*
X5762000Y2593000D02*
D03*
Y3907000D02*
D03*
D30*
X4370000Y3855000D02*
D03*
X4870000D02*
D03*
D31*
X4350000Y2684998D02*
D03*
D32*
X4849999D02*
D03*
%TF.MD5,54b11d33cc1faf60e0d5ca699f95e99b*%
M02*
