%TF.GenerationSoftware,Altium Limited,Altium Designer,25.4.2 (15)*%
G04 Layer_Color=0*
%FSLAX45Y45*%
%MOMM*%
%TF.SameCoordinates,CEA3B553-39D9-45E3-89D3-1F66C04990E3*%
%TF.FilePolarity,Positive*%
%TF.FileFunction,Plated,1,2,PTH,Drill*%
%TF.Part,Single*%
G01*
G75*
%TA.AperFunction,OtherDrill,Free Pad (118mm,43mm)*%
%ADD27C,3.40000*%
%TA.AperFunction,OtherDrill,Free Pad (162.5mm,61.5mm)*%
%ADD28C,3.40000*%
%TA.AperFunction,ComponentDrill*%
%ADD29C,1.02000*%
%TA.AperFunction,ViaDrill,NotFilled*%
%ADD30C,0.30000*%
D27*
X11800000Y4300000D02*
D03*
D28*
X16250000Y6150000D02*
D03*
D29*
X11750000Y6270000D02*
D03*
X12004000D02*
D03*
X12258000D02*
D03*
X12512000D02*
D03*
X12766000D02*
D03*
X13020000D02*
D03*
X13274001D02*
D03*
X13528000D02*
D03*
X13782001D02*
D03*
X14036000D02*
D03*
X14289999D02*
D03*
X14544000D02*
D03*
D30*
X14250000Y5600000D02*
D03*
X13650000D02*
D03*
X15550000D02*
D03*
Y6200000D02*
D03*
X14250000Y4950000D02*
D03*
X16250000Y5600000D02*
D03*
X12500000D02*
D03*
X11800000D02*
D03*
Y4950000D02*
D03*
X12450000Y5200000D02*
D03*
X14350000D02*
D03*
X15900000Y5190000D02*
D03*
X13650000D02*
D03*
%TF.MD5,c9a66018dce1b262613ad76df3c4671d*%
M02*
