%TF.GenerationSoftware,Altium Limited,Altium Designer,25.4.2 (15)*%
G04 Layer_Physical_Order=2*
G04 Layer_Color=16711680*
%FSLAX45Y45*%
%MOMM*%
%TF.SameCoordinates,CEA3B553-39D9-45E3-89D3-1F66C04990E3*%
%TF.FilePolarity,Positive*%
%TF.FileFunction,Copper,L2,Bot,Signal*%
%TF.Part,Single*%
G01*
G75*
%TA.AperFunction,Conductor*%
%ADD12C,0.50000*%
%TA.AperFunction,ViaPad*%
%ADD13C,4.50000*%
%TA.AperFunction,ComponentPad*%
%ADD14R,1.37000X1.37000*%
%ADD15C,1.37000*%
%TA.AperFunction,ViaPad*%
%ADD16C,0.70000*%
G36*
X16187160Y6387300D02*
X16178535Y6385585D01*
X16133949Y6367116D01*
X16093822Y6340304D01*
X16059695Y6306178D01*
X16032884Y6266051D01*
X16014415Y6221464D01*
X16005000Y6174130D01*
Y6125869D01*
X16014415Y6078536D01*
X16032884Y6033949D01*
X16059695Y5993821D01*
X16093822Y5959696D01*
X16133949Y5932884D01*
X16178535Y5914415D01*
X16225870Y5905000D01*
X16274130D01*
X16321465Y5914415D01*
X16366051Y5932884D01*
X16406178Y5959696D01*
X16440305Y5993821D01*
X16467116Y6033949D01*
X16485585Y6078536D01*
X16487300Y6087159D01*
X16500000Y6085908D01*
Y4000000D01*
X11500000D01*
Y6400000D01*
X16185909D01*
X16187160Y6387300D01*
D02*
G37*
%LPC*%
G36*
X14556700Y6363809D02*
Y6282700D01*
X14637810D01*
X14631500Y6306244D01*
X14619139Y6327656D01*
X14601656Y6345139D01*
X14580244Y6357501D01*
X14556700Y6363809D01*
D02*
G37*
G36*
X14531300D02*
X14507756Y6357501D01*
X14486343Y6345139D01*
X14468861Y6327656D01*
X14456499Y6306244D01*
X14450191Y6282700D01*
X14531300D01*
Y6363809D01*
D02*
G37*
G36*
X13032700D02*
Y6282700D01*
X13113811D01*
X13107501Y6306244D01*
X13095139Y6327656D01*
X13077657Y6345139D01*
X13056244Y6357501D01*
X13032700Y6363809D01*
D02*
G37*
G36*
X13007300D02*
X12983755Y6357501D01*
X12962344Y6345139D01*
X12944861Y6327656D01*
X12932500Y6306244D01*
X12926192Y6282700D01*
X13007300D01*
Y6363809D01*
D02*
G37*
G36*
X14301651Y6358500D02*
X14278349D01*
X14255840Y6352469D01*
X14235660Y6340818D01*
X14219182Y6324340D01*
X14207532Y6304160D01*
X14201500Y6281651D01*
Y6258349D01*
X14207532Y6235840D01*
X14219182Y6215660D01*
X14235660Y6199182D01*
X14255840Y6187531D01*
X14278349Y6181500D01*
X14301651D01*
X14324159Y6187531D01*
X14344341Y6199182D01*
X14360818Y6215660D01*
X14372469Y6235840D01*
X14378500Y6258349D01*
Y6281651D01*
X14372469Y6304160D01*
X14360818Y6324340D01*
X14344341Y6340818D01*
X14324159Y6352469D01*
X14301651Y6358500D01*
D02*
G37*
G36*
X14047652D02*
X14024348D01*
X14001840Y6352469D01*
X13981660Y6340818D01*
X13965182Y6324340D01*
X13953531Y6304160D01*
X13947501Y6281651D01*
Y6258349D01*
X13953531Y6235840D01*
X13965182Y6215660D01*
X13981660Y6199182D01*
X14001840Y6187531D01*
X14024348Y6181500D01*
X14047652D01*
X14070160Y6187531D01*
X14090340Y6199182D01*
X14106818Y6215660D01*
X14118469Y6235840D01*
X14124500Y6258349D01*
Y6281651D01*
X14118469Y6304160D01*
X14106818Y6324340D01*
X14090340Y6340818D01*
X14070160Y6352469D01*
X14047652Y6358500D01*
D02*
G37*
G36*
X13793651D02*
X13770349D01*
X13747839Y6352469D01*
X13727660Y6340818D01*
X13711182Y6324340D01*
X13699532Y6304160D01*
X13693500Y6281651D01*
Y6258349D01*
X13699532Y6235840D01*
X13711182Y6215660D01*
X13727660Y6199182D01*
X13747839Y6187531D01*
X13770349Y6181500D01*
X13793651D01*
X13816161Y6187531D01*
X13836340Y6199182D01*
X13852818Y6215660D01*
X13864468Y6235840D01*
X13870500Y6258349D01*
Y6281651D01*
X13864468Y6304160D01*
X13852818Y6324340D01*
X13836340Y6340818D01*
X13816161Y6352469D01*
X13793651Y6358500D01*
D02*
G37*
G36*
X13539651D02*
X13516348D01*
X13493840Y6352469D01*
X13473660Y6340818D01*
X13457182Y6324340D01*
X13445531Y6304160D01*
X13439500Y6281651D01*
Y6258349D01*
X13445531Y6235840D01*
X13457182Y6215660D01*
X13473660Y6199182D01*
X13493840Y6187531D01*
X13516348Y6181500D01*
X13539651D01*
X13562160Y6187531D01*
X13582339Y6199182D01*
X13598817Y6215660D01*
X13610469Y6235840D01*
X13616499Y6258349D01*
Y6281651D01*
X13610469Y6304160D01*
X13598817Y6324340D01*
X13582339Y6340818D01*
X13562160Y6352469D01*
X13539651Y6358500D01*
D02*
G37*
G36*
X13285651D02*
X13262349D01*
X13239841Y6352469D01*
X13219659Y6340818D01*
X13203181Y6324340D01*
X13191531Y6304160D01*
X13185500Y6281651D01*
Y6258349D01*
X13191531Y6235840D01*
X13203181Y6215660D01*
X13219659Y6199182D01*
X13239841Y6187531D01*
X13262349Y6181500D01*
X13285651D01*
X13308160Y6187531D01*
X13328340Y6199182D01*
X13344818Y6215660D01*
X13356470Y6235840D01*
X13362500Y6258349D01*
Y6281651D01*
X13356470Y6304160D01*
X13344818Y6324340D01*
X13328340Y6340818D01*
X13308160Y6352469D01*
X13285651Y6358500D01*
D02*
G37*
G36*
X12777651D02*
X12754349D01*
X12731840Y6352469D01*
X12711660Y6340818D01*
X12695182Y6324340D01*
X12683531Y6304160D01*
X12677500Y6281651D01*
Y6258349D01*
X12683531Y6235840D01*
X12695182Y6215660D01*
X12711660Y6199182D01*
X12731840Y6187531D01*
X12754349Y6181500D01*
X12777651D01*
X12800160Y6187531D01*
X12820340Y6199182D01*
X12836818Y6215660D01*
X12848470Y6235840D01*
X12854500Y6258349D01*
Y6281651D01*
X12848470Y6304160D01*
X12836818Y6324340D01*
X12820340Y6340818D01*
X12800160Y6352469D01*
X12777651Y6358500D01*
D02*
G37*
G36*
X12523651D02*
X12500349D01*
X12477840Y6352469D01*
X12457660Y6340818D01*
X12441182Y6324340D01*
X12429531Y6304160D01*
X12423500Y6281651D01*
Y6258349D01*
X12429531Y6235840D01*
X12441182Y6215660D01*
X12457660Y6199182D01*
X12477840Y6187531D01*
X12500349Y6181500D01*
X12523651D01*
X12546160Y6187531D01*
X12566340Y6199182D01*
X12582818Y6215660D01*
X12594469Y6235840D01*
X12600500Y6258349D01*
Y6281651D01*
X12594469Y6304160D01*
X12582818Y6324340D01*
X12566340Y6340818D01*
X12546160Y6352469D01*
X12523651Y6358500D01*
D02*
G37*
G36*
X12269651D02*
X12246349D01*
X12223840Y6352469D01*
X12203660Y6340818D01*
X12187182Y6324340D01*
X12175531Y6304160D01*
X12169500Y6281651D01*
Y6258349D01*
X12175531Y6235840D01*
X12187182Y6215660D01*
X12203660Y6199182D01*
X12223840Y6187531D01*
X12246349Y6181500D01*
X12269651D01*
X12292160Y6187531D01*
X12312340Y6199182D01*
X12328818Y6215660D01*
X12340469Y6235840D01*
X12346500Y6258349D01*
Y6281651D01*
X12340469Y6304160D01*
X12328818Y6324340D01*
X12312340Y6340818D01*
X12292160Y6352469D01*
X12269651Y6358500D01*
D02*
G37*
G36*
X12015651D02*
X11992349D01*
X11969840Y6352469D01*
X11949660Y6340818D01*
X11933182Y6324340D01*
X11921531Y6304160D01*
X11915500Y6281651D01*
Y6258349D01*
X11921531Y6235840D01*
X11933182Y6215660D01*
X11949660Y6199182D01*
X11969840Y6187531D01*
X11992349Y6181500D01*
X12015651D01*
X12038160Y6187531D01*
X12058340Y6199182D01*
X12074818Y6215660D01*
X12086469Y6235840D01*
X12092500Y6258349D01*
Y6281651D01*
X12086469Y6304160D01*
X12074818Y6324340D01*
X12058340Y6340818D01*
X12038160Y6352469D01*
X12015651Y6358500D01*
D02*
G37*
G36*
X11838500D02*
X11661500D01*
Y6181500D01*
X11838500D01*
Y6358500D01*
D02*
G37*
G36*
X14637810Y6257300D02*
X14556700D01*
Y6176190D01*
X14580244Y6182499D01*
X14601656Y6194861D01*
X14619139Y6212344D01*
X14631500Y6233756D01*
X14637810Y6257300D01*
D02*
G37*
G36*
X14531300D02*
X14450191D01*
X14456499Y6233756D01*
X14468861Y6212344D01*
X14486343Y6194861D01*
X14507756Y6182499D01*
X14531300Y6176190D01*
Y6257300D01*
D02*
G37*
G36*
X13113811D02*
X13032700D01*
Y6176190D01*
X13056244Y6182499D01*
X13077657Y6194861D01*
X13095139Y6212344D01*
X13107501Y6233756D01*
X13113811Y6257300D01*
D02*
G37*
G36*
X13007300D02*
X12926192D01*
X12932500Y6233756D01*
X12944861Y6212344D01*
X12962344Y6194861D01*
X12983755Y6182499D01*
X13007300Y6176190D01*
Y6257300D01*
D02*
G37*
G36*
X14269836Y5313839D02*
X14269836Y5313839D01*
X12530164D01*
X12530163Y5313839D01*
X12515454Y5310913D01*
X12502983Y5302580D01*
X12502982Y5302580D01*
X12455402Y5255000D01*
X12439060D01*
X12418845Y5246627D01*
X12403373Y5231155D01*
X12395000Y5210940D01*
Y5189060D01*
X12403373Y5168845D01*
X12418845Y5153373D01*
X12439060Y5145000D01*
X12460940D01*
X12481155Y5153373D01*
X12496627Y5168845D01*
X12505000Y5189060D01*
Y5195876D01*
X12546085Y5236962D01*
X14253915D01*
X14295000Y5195877D01*
Y5189060D01*
X14303374Y5168845D01*
X14318845Y5153373D01*
X14339059Y5145000D01*
X14360941D01*
X14381155Y5153373D01*
X14396626Y5168845D01*
X14405000Y5189060D01*
Y5210940D01*
X14396626Y5231155D01*
X14381155Y5246627D01*
X14360941Y5255000D01*
X14344597D01*
X14297017Y5302580D01*
X14284547Y5310913D01*
X14282106Y5311398D01*
X14269836Y5313839D01*
D02*
G37*
G36*
X11824131Y4545000D02*
X11775870D01*
X11728536Y4535585D01*
X11683949Y4517116D01*
X11643822Y4490304D01*
X11609696Y4456179D01*
X11582884Y4416051D01*
X11564415Y4371464D01*
X11555000Y4324131D01*
Y4275870D01*
X11564415Y4228536D01*
X11582884Y4183949D01*
X11609696Y4143822D01*
X11643822Y4109696D01*
X11683949Y4082884D01*
X11728536Y4064415D01*
X11775870Y4055000D01*
X11824131D01*
X11871464Y4064415D01*
X11916051Y4082884D01*
X11956179Y4109696D01*
X11990304Y4143822D01*
X12017116Y4183949D01*
X12035585Y4228536D01*
X12045000Y4275870D01*
Y4324131D01*
X12035585Y4371464D01*
X12017116Y4416051D01*
X11990304Y4456179D01*
X11956179Y4490304D01*
X11916051Y4517116D01*
X11871464Y4535585D01*
X11824131Y4545000D01*
D02*
G37*
%LPD*%
D12*
X14269836Y5275400D02*
X14345238Y5200000D01*
X12530163Y5275400D02*
X14269836D01*
X14345238Y5200000D02*
X14350000D01*
X12450000D02*
X12454763D01*
X12530163Y5275400D01*
D13*
X11800000Y4300000D02*
D03*
X16250000Y6150000D02*
D03*
D14*
X11750000Y6270000D02*
D03*
D15*
X12004000D02*
D03*
X12258000D02*
D03*
X12512000D02*
D03*
X12766000D02*
D03*
X13020000D02*
D03*
X13274001D02*
D03*
X13528000D02*
D03*
X13782001D02*
D03*
X14036000D02*
D03*
X14289999D02*
D03*
X14544000D02*
D03*
D16*
X14250000Y5600000D02*
D03*
X13650000D02*
D03*
X15550000D02*
D03*
Y6200000D02*
D03*
X14250000Y4950000D02*
D03*
X16250000Y5600000D02*
D03*
X12500000D02*
D03*
X11800000D02*
D03*
Y4950000D02*
D03*
X12450000Y5200000D02*
D03*
X14350000D02*
D03*
X15900000Y5190000D02*
D03*
X13650000D02*
D03*
%TF.MD5,f9cf0342451483d760f50337d7f2af69*%
M02*
