%TF.GenerationSoftware,Altium Limited,Altium Designer,23.7.1 (13)*%
G04 Layer_Color=8421504*
%FSLAX45Y45*%
%MOMM*%
%TF.SameCoordinates,324F84FA-45DE-4E37-BCC6-85F6FB8D9206*%
%TF.FilePolarity,Positive*%
%TF.FileFunction,Paste,Top*%
%TF.Part,Single*%
G01*
G75*
%TA.AperFunction,SMDPad,CuDef*%
%ADD10R,1.20000X1.20000*%
%ADD11R,1.35000X0.85000*%
%ADD12R,0.85000X1.35000*%
%ADD13R,0.40000X2.00000*%
G04:AMPARAMS|DCode=14|XSize=1.9mm|YSize=0.6mm|CornerRadius=0.3mm|HoleSize=0mm|Usage=FLASHONLY|Rotation=270.000|XOffset=0mm|YOffset=0mm|HoleType=Round|Shape=RoundedRectangle|*
%AMROUNDEDRECTD14*
21,1,1.90000,0.00000,0,0,270.0*
21,1,1.30000,0.60000,0,0,270.0*
1,1,0.60000,0.00000,-0.65000*
1,1,0.60000,0.00000,0.65000*
1,1,0.60000,0.00000,0.65000*
1,1,0.60000,0.00000,-0.65000*
%
%ADD14ROUNDEDRECTD14*%
%ADD15R,1.55000X0.60000*%
D10*
X3960000Y6415000D02*
D03*
Y6204998D02*
D03*
D11*
X5449999Y6207500D02*
D03*
Y6372499D02*
D03*
D12*
X5035001Y3050002D02*
D03*
X5200000D02*
D03*
D13*
X4520001Y4600001D02*
D03*
X4400001D02*
D03*
X4280002D02*
D03*
D14*
X5208001Y3379998D02*
D03*
X5081001D02*
D03*
X4954001D02*
D03*
X4827001D02*
D03*
X4700001D02*
D03*
X4573001D02*
D03*
X4446001D02*
D03*
X4319001D02*
D03*
X4192001D02*
D03*
Y4320002D02*
D03*
X4319001D02*
D03*
X4446001D02*
D03*
X4573001D02*
D03*
X4700001D02*
D03*
X4827001D02*
D03*
X4954001D02*
D03*
X5081001D02*
D03*
X5208001D02*
D03*
D15*
X5120000Y5290500D02*
D03*
Y5163500D02*
D03*
Y5036500D02*
D03*
Y4909500D02*
D03*
X4580001D02*
D03*
Y5036500D02*
D03*
Y5163500D02*
D03*
Y5290500D02*
D03*
%TF.MD5,024491670771141a1ee5d137dbe4532c*%
M02*
