%TF.GenerationSoftware,Altium Limited,Altium Designer,23.7.1 (13)*%
G04 Layer_Color=0*
%FSLAX45Y45*%
%MOMM*%
%TF.SameCoordinates,324F84FA-45DE-4E37-BCC6-85F6FB8D9206*%
%TF.FilePolarity,Positive*%
%TF.FileFunction,Plated,1,2,PTH,Drill*%
%TF.Part,Single*%
G01*
G75*
%TA.AperFunction,ComponentDrill*%
%ADD33C,1.10000*%
%ADD34C,1.05000*%
%TA.AperFunction,ViaDrill,NotFilled*%
%ADD35C,0.35000*%
D33*
X5459500Y3090500D02*
D03*
X3935500Y5884500D02*
D03*
Y5630500D02*
D03*
Y5376500D02*
D03*
Y5122500D02*
D03*
Y4868500D02*
D03*
Y4614500D02*
D03*
Y4360500D02*
D03*
Y4106500D02*
D03*
Y3852500D02*
D03*
Y3598500D02*
D03*
Y3344500D02*
D03*
X5459500D02*
D03*
Y3598500D02*
D03*
Y3852500D02*
D03*
Y4106500D02*
D03*
Y4360500D02*
D03*
Y4614500D02*
D03*
Y4868500D02*
D03*
Y5122500D02*
D03*
Y5376500D02*
D03*
Y5630500D02*
D03*
Y5884500D02*
D03*
X3935500Y3090500D02*
D03*
D34*
X5050003Y5799999D02*
D03*
X4800001D02*
D03*
X4549999D02*
D03*
X4300002D02*
D03*
D35*
X4720000Y4650000D02*
D03*
X4446001Y3611880D02*
D03*
X4968240Y5036500D02*
D03*
X4954001Y3535680D02*
D03*
%TF.MD5,2383f26ab2f1963f8b05c58f5979ac8b*%
M02*
