%TF.GenerationSoftware,Altium Limited,Altium Designer,23.7.1 (13)*%
G04 Layer_Color=32896*
%FSLAX45Y45*%
%MOMM*%
%TF.SameCoordinates,324F84FA-45DE-4E37-BCC6-85F6FB8D9206*%
%TF.FilePolarity,Positive*%
%TF.FileFunction,Legend,Bot*%
%TF.Part,Single*%
G01*
G75*
%TA.AperFunction,NonConductor*%
%ADD23C,0.20000*%
G36*
X4938110Y5644252D02*
X4953228D01*
Y5639212D01*
X4963307D01*
Y5634173D01*
X4968346D01*
Y5629134D01*
X4978425D01*
Y5624094D01*
X4983465D01*
Y5619055D01*
X4988504D01*
Y5614016D01*
X4993543D01*
Y5603937D01*
X4998583D01*
Y5593858D01*
X5003622D01*
Y5583780D01*
X5008661D01*
Y5558583D01*
X5018740D01*
Y5553543D01*
X5023780D01*
Y5548504D01*
X5028819D01*
Y5543464D01*
X5033858D01*
Y5538425D01*
X5038898D01*
Y5533386D01*
X5048976D01*
Y5528346D01*
X5054016D01*
Y5523307D01*
X5059055D01*
Y5518268D01*
X5064095D01*
Y5513228D01*
X5069134D01*
Y5508189D01*
X5074173D01*
Y5503150D01*
X5079213D01*
Y5498110D01*
X5084252D01*
Y5493071D01*
X5089291D01*
Y5488031D01*
X5094331D01*
Y5482992D01*
X5099370D01*
Y5477953D01*
X5104409D01*
Y5472913D01*
X5109449D01*
Y5467874D01*
X5114488D01*
Y5462835D01*
X5119527D01*
Y5457795D01*
X5124567D01*
Y5452756D01*
X5129606D01*
Y5447717D01*
X5134646D01*
Y5442677D01*
X5139685D01*
Y5437638D01*
X5144725D01*
Y5432598D01*
X5149764D01*
Y5427559D01*
X5154803D01*
Y5422520D01*
X5159843D01*
Y5417480D01*
X5164882D01*
Y5412441D01*
X5169921D01*
Y5407401D01*
X5174961D01*
Y5402362D01*
X5185039D01*
Y5397323D01*
X5190079D01*
Y5392283D01*
X5195118D01*
Y5387244D01*
X5200157D01*
Y5382205D01*
X5205197D01*
Y5377165D01*
X5210236D01*
Y5372126D01*
X5215276D01*
Y5367087D01*
X5220315D01*
Y5362047D01*
X5225354D01*
Y5357008D01*
X5230394D01*
Y5351968D01*
X5235433D01*
Y5346929D01*
X5240472D01*
Y5341890D01*
X5245512D01*
Y5336850D01*
X5250551D01*
Y5331811D01*
X5260630D01*
Y5326772D01*
X5275748D01*
Y5321732D01*
X5280788D01*
Y5316693D01*
X5285827D01*
Y5311654D01*
X5295906D01*
Y5306614D01*
X5300945D01*
Y5301575D01*
X5305984D01*
Y5291496D01*
X5311024D01*
Y5286457D01*
X5316063D01*
Y5281417D01*
X5321102D01*
Y5271338D01*
X5326142D01*
Y5256220D01*
X5331181D01*
Y5241102D01*
X5336220D01*
Y5185669D01*
X5331181D01*
Y5165512D01*
X5326142D01*
Y5145354D01*
X5321102D01*
Y5115118D01*
X5316063D01*
Y5084882D01*
X5311024D01*
Y5059685D01*
X5305984D01*
Y5029449D01*
X5300945D01*
Y4999213D01*
X5295906D01*
Y4974016D01*
X5290866D01*
Y4943780D01*
X5285827D01*
Y4913543D01*
X5280788D01*
Y4888346D01*
X5275748D01*
Y4858110D01*
X5270709D01*
Y4827874D01*
X5265669D01*
Y4797638D01*
X5260630D01*
Y4772441D01*
X5255590D01*
Y4742205D01*
X5250551D01*
Y4727087D01*
X5255590D01*
Y4722047D01*
X5265669D01*
Y4717008D01*
X5270709D01*
Y4711968D01*
X5275748D01*
Y4706929D01*
X5270709D01*
Y4701890D01*
X5265669D01*
Y4696850D01*
X5260630D01*
Y4691811D01*
X5255590D01*
Y4686772D01*
X5250551D01*
Y4681732D01*
X5245512D01*
Y4676693D01*
X5240472D01*
Y4671654D01*
X5235433D01*
Y4666614D01*
X5230394D01*
Y4661575D01*
X5225354D01*
Y4651496D01*
X5220315D01*
Y4646457D01*
X5215276D01*
Y4641417D01*
X5210236D01*
Y4636378D01*
X5205197D01*
Y4631338D01*
X5200157D01*
Y4626299D01*
X5195118D01*
Y4621260D01*
X5190079D01*
Y4616220D01*
X5185039D01*
Y4611181D01*
X5180000D01*
Y4606142D01*
X5174961D01*
Y4601102D01*
X5169921D01*
Y4596063D01*
X5164882D01*
Y4591024D01*
X5159843D01*
Y4580945D01*
X5154803D01*
Y4575906D01*
X5149764D01*
Y4570866D01*
X5144725D01*
Y4565827D01*
X5139685D01*
Y4560787D01*
X5134646D01*
Y4555748D01*
X5129606D01*
Y4550709D01*
X5124567D01*
Y4545669D01*
X5119527D01*
Y4540630D01*
X5114488D01*
Y4535591D01*
X5109449D01*
Y4530551D01*
X5104409D01*
Y4525512D01*
X5099370D01*
Y4520472D01*
X5094331D01*
Y4510394D01*
X5089291D01*
Y4505354D01*
X5084252D01*
Y4500315D01*
X5079213D01*
Y4495275D01*
X5074173D01*
Y4490236D01*
X5069134D01*
Y4485197D01*
X5064095D01*
Y4480157D01*
X5059055D01*
Y4475118D01*
X5054016D01*
Y4470079D01*
X5048976D01*
Y4465039D01*
X5043937D01*
Y4460000D01*
X5038898D01*
Y4454961D01*
X5033858D01*
Y4449921D01*
X5028819D01*
Y4439843D01*
X5023780D01*
Y4434803D01*
X5018740D01*
Y4429764D01*
X5008661D01*
Y4439843D01*
X5003622D01*
Y4449921D01*
X4998583D01*
Y4454961D01*
X4983465D01*
Y4449921D01*
X4963307D01*
Y4444882D01*
X4943150D01*
Y4439843D01*
X4922992D01*
Y4434803D01*
X4902835D01*
Y4429764D01*
X4882677D01*
Y4424724D01*
X4857480D01*
Y4419685D01*
X4837323D01*
Y4414646D01*
X4817165D01*
Y4409606D01*
X4797008D01*
Y4404567D01*
X4776850D01*
Y4399527D01*
X4756693D01*
Y4394488D01*
X4736535D01*
Y4389449D01*
X4716378D01*
Y4384409D01*
X4691181D01*
Y4379370D01*
X4671024D01*
Y4374331D01*
X4650866D01*
Y4369291D01*
X4630709D01*
Y4364252D01*
X4610551D01*
Y4359213D01*
X4590394D01*
Y4354173D01*
X4570236D01*
Y4349134D01*
X4555118D01*
Y4344094D01*
X4540000D01*
Y4339055D01*
X4479527D01*
Y4344094D01*
X4459370D01*
Y4349134D01*
X4449291D01*
Y4354173D01*
X4439213D01*
Y4359213D01*
X4434173D01*
Y4364252D01*
X4429134D01*
Y4369291D01*
X4419055D01*
Y4379370D01*
X4414016D01*
Y4384409D01*
X4408976D01*
Y4389449D01*
X4403937D01*
Y4394488D01*
X4398898D01*
Y4404567D01*
X4393858D01*
Y4414646D01*
X4388819D01*
Y4419685D01*
X4383780D01*
Y4424724D01*
X4378740D01*
Y4429764D01*
X4373701D01*
Y4434803D01*
X4368661D01*
Y4439843D01*
X4363622D01*
Y4444882D01*
X4358583D01*
Y4449921D01*
X4353543D01*
Y4454961D01*
X4343465D01*
Y4460000D01*
X4338425D01*
Y4465039D01*
X4333386D01*
Y4470079D01*
X4328346D01*
Y4475118D01*
X4323307D01*
Y4480157D01*
X4318268D01*
Y4485197D01*
X4313228D01*
Y4490236D01*
X4308189D01*
Y4495275D01*
X4303150D01*
Y4500315D01*
X4298110D01*
Y4505354D01*
X4293071D01*
Y4510394D01*
X4282992D01*
Y4515433D01*
X4277953D01*
Y4520472D01*
X4272913D01*
Y4525512D01*
X4267874D01*
Y4530551D01*
X4262835D01*
Y4535591D01*
X4257795D01*
Y4540630D01*
X4252756D01*
Y4545669D01*
X4247716D01*
Y4550709D01*
X4242677D01*
Y4555748D01*
X4237638D01*
Y4560787D01*
X4232598D01*
Y4565827D01*
X4222520D01*
Y4570866D01*
X4217480D01*
Y4575906D01*
X4212441D01*
Y4580945D01*
X4207402D01*
Y4585984D01*
X4202362D01*
Y4591024D01*
X4197323D01*
Y4596063D01*
X4192283D01*
Y4601102D01*
X4187244D01*
Y4606142D01*
X4182205D01*
Y4611181D01*
X4177165D01*
Y4616220D01*
X4172126D01*
Y4621260D01*
X4162047D01*
Y4626299D01*
X4157008D01*
Y4631338D01*
X4151969D01*
Y4641417D01*
X4131811D01*
Y4646457D01*
X4111653D01*
Y4651496D01*
X4101575D01*
Y4656535D01*
X4096535D01*
Y4661575D01*
X4091496D01*
Y4666614D01*
X4081417D01*
Y4671654D01*
X4076378D01*
Y4681732D01*
X4071339D01*
Y4686772D01*
X4066299D01*
Y4696850D01*
X4061260D01*
Y4711968D01*
X4056220D01*
Y4767401D01*
X4061260D01*
Y4777480D01*
X4066299D01*
Y4812756D01*
X4071339D01*
Y4817795D01*
Y4822835D01*
Y4913543D01*
X4076378D01*
Y5014331D01*
X4081417D01*
Y5115118D01*
X4086457D01*
Y5215905D01*
X4091496D01*
Y5246142D01*
X4096535D01*
Y5251181D01*
X4106614D01*
Y5256220D01*
X4116693D01*
Y5261260D01*
X4131811D01*
Y5236063D01*
X4136851D01*
Y5246142D01*
X4141890D01*
Y5256220D01*
X4146929D01*
Y5266299D01*
X4151969D01*
Y5276378D01*
X4157008D01*
Y5286457D01*
X4162047D01*
Y5296535D01*
X4167087D01*
Y5301575D01*
X4172126D01*
Y5311654D01*
X4177165D01*
Y5321732D01*
X4182205D01*
Y5331811D01*
X4187244D01*
Y5346929D01*
X4182205D01*
Y5367087D01*
X4187244D01*
Y5372126D01*
X4192283D01*
Y5377165D01*
X4197323D01*
Y5387244D01*
X4202362D01*
Y5392283D01*
X4207402D01*
Y5397323D01*
X4212441D01*
Y5402362D01*
X4217480D01*
Y5407401D01*
X4222520D01*
Y5412441D01*
X4227559D01*
Y5417480D01*
X4232598D01*
Y5422520D01*
X4237638D01*
Y5427559D01*
X4242677D01*
Y5437638D01*
X4247716D01*
Y5442677D01*
X4252756D01*
Y5447717D01*
X4257795D01*
Y5452756D01*
X4262835D01*
Y5457795D01*
X4267874D01*
Y5462835D01*
X4272913D01*
Y5467874D01*
X4277953D01*
Y5472913D01*
X4282992D01*
Y5477953D01*
X4288032D01*
Y5482992D01*
X4293071D01*
Y5488031D01*
X4298110D01*
Y5493071D01*
X4303150D01*
Y5498110D01*
X4308189D01*
Y5503150D01*
X4313228D01*
Y5508189D01*
X4318268D01*
Y5513228D01*
X4328346D01*
Y5518268D01*
X4338425D01*
Y5523307D01*
X4348504D01*
Y5528346D01*
X4363622D01*
Y5523307D01*
X4373701D01*
Y5518268D01*
X4403937D01*
Y5523307D01*
X4424095D01*
Y5528346D01*
X4434173D01*
Y5533386D01*
X4449291D01*
Y5538425D01*
X4393858D01*
Y5543464D01*
X4388819D01*
Y5548504D01*
X4393858D01*
Y5558583D01*
X4398898D01*
Y5568661D01*
X4403937D01*
Y5578740D01*
X4408976D01*
Y5583780D01*
X4449291D01*
Y5588819D01*
X4494646D01*
Y5593858D01*
X4534961D01*
Y5598898D01*
X4580315D01*
Y5603937D01*
X4625669D01*
Y5608976D01*
X4671024D01*
Y5614016D01*
X4711339D01*
Y5619055D01*
X4756693D01*
Y5624094D01*
X4802047D01*
Y5629134D01*
X4847402D01*
Y5634173D01*
X4867559D01*
Y5639212D01*
X4877638D01*
Y5644252D01*
X4887716D01*
Y5649291D01*
X4938110D01*
Y5644252D01*
D02*
G37*
%LPC*%
G36*
X4837323Y5614016D02*
X4802047D01*
Y5608976D01*
X4756693D01*
Y5603937D01*
X4716378D01*
Y5598898D01*
X4671024D01*
Y5593858D01*
X4625669D01*
Y5588819D01*
X4580315D01*
Y5583780D01*
X4540000D01*
Y5578740D01*
X4494646D01*
Y5573701D01*
X4449291D01*
Y5568661D01*
X4414016D01*
Y5558583D01*
X4408976D01*
Y5553543D01*
X4469449D01*
Y5548504D01*
X4555118D01*
Y5543464D01*
X4640788D01*
Y5538425D01*
X4721417D01*
Y5533386D01*
X4807087D01*
Y5528346D01*
X4822205D01*
Y5543464D01*
X4817165D01*
Y5568661D01*
X4822205D01*
Y5588819D01*
X4827244D01*
Y5598898D01*
X4832283D01*
Y5608976D01*
X4837323D01*
Y5614016D01*
D02*
G37*
G36*
X4938110Y5634173D02*
X4892756D01*
Y5629134D01*
X4877638D01*
Y5624094D01*
X4867559D01*
Y5619055D01*
X4862520D01*
Y5614016D01*
X4857480D01*
Y5608976D01*
X4852441D01*
Y5603937D01*
X4847402D01*
Y5593858D01*
X4842362D01*
Y5583780D01*
X4837323D01*
Y5568661D01*
X4832283D01*
Y5543464D01*
X4837323D01*
Y5523307D01*
X4842362D01*
Y5513228D01*
X4847402D01*
Y5503150D01*
X4852441D01*
Y5498110D01*
X4857480D01*
Y5493071D01*
X4862520D01*
Y5488031D01*
X4872598D01*
Y5482992D01*
X4882677D01*
Y5477953D01*
X4897795D01*
Y5472913D01*
X4933071D01*
Y5477953D01*
X4948189D01*
Y5482992D01*
X4958268D01*
Y5488031D01*
X4963307D01*
Y5493071D01*
X4973386D01*
Y5498110D01*
X4978425D01*
Y5508189D01*
X4983465D01*
Y5513228D01*
X4988504D01*
Y5518268D01*
Y5523307D01*
X4993543D01*
Y5583780D01*
X4988504D01*
Y5593858D01*
X4983465D01*
Y5603937D01*
X4978425D01*
Y5608976D01*
X4973386D01*
Y5614016D01*
X4968346D01*
Y5619055D01*
X4958268D01*
Y5624094D01*
X4953228D01*
Y5629134D01*
X4938110D01*
Y5634173D01*
D02*
G37*
G36*
X4358583Y5513228D02*
X4353543D01*
Y5508189D01*
X4338425D01*
Y5503150D01*
X4333386D01*
Y5498110D01*
X4323307D01*
Y5493071D01*
X4318268D01*
Y5488031D01*
X4313228D01*
Y5482992D01*
X4308189D01*
Y5477953D01*
X4303150D01*
Y5472913D01*
X4298110D01*
Y5467874D01*
X4293071D01*
Y5462835D01*
X4288032D01*
Y5457795D01*
X4282992D01*
Y5452756D01*
X4277953D01*
Y5447717D01*
X4272913D01*
Y5442677D01*
X4267874D01*
Y5437638D01*
X4262835D01*
Y5432598D01*
X4257795D01*
Y5422520D01*
X4252756D01*
Y5417480D01*
X4247716D01*
Y5412441D01*
X4242677D01*
Y5407401D01*
X4237638D01*
Y5402362D01*
X4232598D01*
Y5397323D01*
X4227559D01*
Y5392283D01*
X4222520D01*
Y5387244D01*
X4217480D01*
Y5382205D01*
X4212441D01*
Y5372126D01*
X4207402D01*
Y5367087D01*
X4202362D01*
Y5362047D01*
X4222520D01*
Y5367087D01*
X4232598D01*
Y5372126D01*
X4242677D01*
Y5377165D01*
X4252756D01*
Y5382205D01*
X4257795D01*
Y5387244D01*
X4262835D01*
Y5392283D01*
X4267874D01*
Y5397323D01*
X4272913D01*
Y5402362D01*
X4277953D01*
Y5407401D01*
X4282992D01*
Y5412441D01*
X4288032D01*
Y5417480D01*
X4298110D01*
Y5422520D01*
X4303150D01*
Y5427559D01*
X4308189D01*
Y5432598D01*
X4318268D01*
Y5437638D01*
X4323307D01*
Y5442677D01*
X4328346D01*
Y5447717D01*
X4333386D01*
Y5452756D01*
X4338425D01*
Y5457795D01*
X4343465D01*
Y5462835D01*
X4348504D01*
Y5467874D01*
X4353543D01*
Y5477953D01*
X4358583D01*
Y5488031D01*
X4363622D01*
Y5508189D01*
X4358583D01*
Y5513228D01*
D02*
G37*
G36*
X5013701Y5543464D02*
X5008661D01*
Y5523307D01*
X5003622D01*
Y5513228D01*
X4998583D01*
Y5503150D01*
X4993543D01*
Y5498110D01*
X4988504D01*
Y5488031D01*
X4983465D01*
Y5482992D01*
X4978425D01*
Y5477953D01*
X4968346D01*
Y5472913D01*
X4963307D01*
Y5467874D01*
X4953228D01*
Y5462835D01*
X4933071D01*
Y5457795D01*
X4928032D01*
Y5452756D01*
X4933071D01*
Y5447717D01*
X4938110D01*
Y5437638D01*
X4943150D01*
Y5432598D01*
X4948189D01*
Y5427559D01*
X4953228D01*
Y5417480D01*
X4958268D01*
Y5412441D01*
X4963307D01*
Y5402362D01*
X4968346D01*
Y5397323D01*
X4973386D01*
Y5392283D01*
X4978425D01*
Y5382205D01*
X4983465D01*
Y5377165D01*
X4988504D01*
Y5367087D01*
X4993543D01*
Y5362047D01*
X4998583D01*
Y5357008D01*
X5003622D01*
Y5346929D01*
X5008661D01*
Y5341890D01*
X5013701D01*
Y5331811D01*
X5018740D01*
Y5326772D01*
X5023780D01*
Y5316693D01*
X5028819D01*
Y5311654D01*
X5033858D01*
Y5306614D01*
X5038898D01*
Y5296535D01*
X5043937D01*
Y5291496D01*
X5048976D01*
Y5281417D01*
X5054016D01*
Y5276378D01*
X5059055D01*
Y5271338D01*
X5064095D01*
Y5261260D01*
X5069134D01*
Y5256220D01*
X5074173D01*
Y5246142D01*
X5084252D01*
Y5261260D01*
X5089291D01*
Y5271338D01*
X5094331D01*
Y5281417D01*
X5099370D01*
Y5291496D01*
X5104409D01*
Y5296535D01*
X5109449D01*
Y5301575D01*
X5114488D01*
Y5306614D01*
X5119527D01*
Y5311654D01*
X5124567D01*
Y5316693D01*
X5134646D01*
Y5321732D01*
X5139685D01*
Y5326772D01*
X5149764D01*
Y5331811D01*
X5159843D01*
Y5336850D01*
X5180000D01*
Y5341890D01*
X5220315D01*
Y5346929D01*
X5215276D01*
Y5351968D01*
X5210236D01*
Y5357008D01*
X5205197D01*
Y5362047D01*
X5200157D01*
Y5367087D01*
X5195118D01*
Y5372126D01*
X5185039D01*
Y5377165D01*
X5180000D01*
Y5382205D01*
X5174961D01*
Y5387244D01*
X5169921D01*
Y5392283D01*
X5164882D01*
Y5397323D01*
X5159843D01*
Y5402362D01*
X5154803D01*
Y5407401D01*
X5149764D01*
Y5412441D01*
X5144725D01*
Y5417480D01*
X5139685D01*
Y5422520D01*
X5134646D01*
Y5427559D01*
X5129606D01*
Y5432598D01*
X5124567D01*
Y5437638D01*
X5119527D01*
Y5442677D01*
X5114488D01*
Y5447717D01*
X5109449D01*
Y5452756D01*
X5104409D01*
Y5457795D01*
X5099370D01*
Y5462835D01*
X5094331D01*
Y5467874D01*
X5089291D01*
Y5472913D01*
X5084252D01*
Y5477953D01*
X5079213D01*
Y5482992D01*
X5074173D01*
Y5488031D01*
X5069134D01*
Y5493071D01*
X5064095D01*
Y5498110D01*
X5059055D01*
Y5503150D01*
X5048976D01*
Y5508189D01*
X5043937D01*
Y5513228D01*
X5038898D01*
Y5518268D01*
X5033858D01*
Y5523307D01*
X5028819D01*
Y5528346D01*
X5023780D01*
Y5533386D01*
X5018740D01*
Y5538425D01*
X5013701D01*
Y5543464D01*
D02*
G37*
G36*
X5235433Y5326772D02*
X5180000D01*
Y5321732D01*
X5164882D01*
Y5316693D01*
X5154803D01*
Y5311654D01*
X5144725D01*
Y5306614D01*
X5134646D01*
Y5301575D01*
X5129606D01*
Y5296535D01*
X5124567D01*
Y5291496D01*
X5119527D01*
Y5286457D01*
X5114488D01*
Y5276378D01*
X5109449D01*
Y5271338D01*
X5104409D01*
Y5261260D01*
X5099370D01*
Y5246142D01*
X5094331D01*
Y5215905D01*
X5089291D01*
Y5205827D01*
X5094331D01*
Y5175591D01*
X5099370D01*
Y5165512D01*
X5104409D01*
Y5155433D01*
X5109449D01*
Y5145354D01*
X5114488D01*
Y5140315D01*
X5119527D01*
Y5135275D01*
X5124567D01*
Y5130236D01*
X5129606D01*
Y5125197D01*
X5134646D01*
Y5120157D01*
X5139685D01*
Y5115118D01*
X5149764D01*
Y5110079D01*
X5159843D01*
Y5105039D01*
X5169921D01*
Y5100000D01*
X5195118D01*
Y5094961D01*
X5220315D01*
Y5100000D01*
X5240472D01*
Y5105039D01*
X5255590D01*
Y5110079D01*
X5265669D01*
Y5115118D01*
X5275748D01*
Y5120157D01*
X5280788D01*
Y5125197D01*
X5285827D01*
Y5130236D01*
X5290866D01*
Y5135275D01*
X5295906D01*
Y5140315D01*
X5300945D01*
Y5150394D01*
X5305984D01*
Y5155433D01*
X5311024D01*
Y5165512D01*
X5316063D01*
Y5185669D01*
X5321102D01*
Y5241102D01*
X5316063D01*
Y5256220D01*
X5311024D01*
Y5266299D01*
X5305984D01*
Y5276378D01*
X5300945D01*
Y5281417D01*
X5295906D01*
Y5286457D01*
X5290866D01*
Y5296535D01*
X5285827D01*
Y5301575D01*
X5275748D01*
Y5306614D01*
X5270709D01*
Y5311654D01*
X5260630D01*
Y5316693D01*
X5250551D01*
Y5321732D01*
X5235433D01*
Y5326772D01*
D02*
G37*
G36*
X5305984Y5125197D02*
X5300945D01*
Y5120157D01*
X5295906D01*
Y5115118D01*
X5290866D01*
Y5110079D01*
X5285827D01*
Y5105039D01*
X5275748D01*
Y5100000D01*
X5270709D01*
Y5094961D01*
X5260630D01*
Y5089921D01*
X5245512D01*
Y5084882D01*
X5220315D01*
Y5079843D01*
X5195118D01*
Y5084882D01*
X5169921D01*
Y5089921D01*
X5154803D01*
Y5094961D01*
X5144725D01*
Y5100000D01*
X5134646D01*
Y5105039D01*
X5129606D01*
Y5110079D01*
X5124567D01*
Y5115118D01*
X5119527D01*
Y5105039D01*
X5114488D01*
Y5074803D01*
X5109449D01*
Y5049606D01*
X5104409D01*
Y5019370D01*
X5099370D01*
Y4994173D01*
X5094331D01*
Y4963937D01*
X5089291D01*
Y4933701D01*
X5084252D01*
Y4908504D01*
X5079213D01*
Y4878268D01*
X5074173D01*
Y4853071D01*
X5069134D01*
Y4827874D01*
X5079213D01*
Y4822835D01*
X5089291D01*
Y4817795D01*
X5099370D01*
Y4812756D01*
X5104409D01*
Y4807717D01*
X5114488D01*
Y4802677D01*
X5124567D01*
Y4797638D01*
X5134646D01*
Y4792598D01*
X5139685D01*
Y4787559D01*
X5149764D01*
Y4782520D01*
X5159843D01*
Y4777480D01*
X5164882D01*
Y4772441D01*
X5174961D01*
Y4767401D01*
X5185039D01*
Y4762362D01*
X5195118D01*
Y4757323D01*
X5200157D01*
Y4752283D01*
X5210236D01*
Y4747244D01*
X5220315D01*
Y4742205D01*
X5230394D01*
Y4737165D01*
X5235433D01*
Y4742205D01*
X5240472D01*
Y4772441D01*
X5245512D01*
Y4802677D01*
X5250551D01*
Y4827874D01*
X5255590D01*
Y4858110D01*
X5260630D01*
Y4888346D01*
X5265669D01*
Y4913543D01*
X5270709D01*
Y4943780D01*
X5275748D01*
Y4974016D01*
X5280788D01*
Y4999213D01*
X5285827D01*
Y5029449D01*
X5290866D01*
Y5059685D01*
X5295906D01*
Y5089921D01*
X5300945D01*
Y5115118D01*
X5305984D01*
Y5125197D01*
D02*
G37*
G36*
X4555118Y5533386D02*
X4479527D01*
Y5528346D01*
X4464409D01*
Y5523307D01*
X4449291D01*
Y5518268D01*
X4434173D01*
Y5513228D01*
X4424095D01*
Y5508189D01*
X4408976D01*
Y5503150D01*
X4378740D01*
Y5488031D01*
X4373701D01*
Y5472913D01*
X4368661D01*
Y5467874D01*
X4363622D01*
Y5457795D01*
X4358583D01*
Y5452756D01*
X4353543D01*
Y5447717D01*
X4348504D01*
Y5442677D01*
X4343465D01*
Y5437638D01*
X4338425D01*
Y5432598D01*
X4333386D01*
Y5427559D01*
X4328346D01*
Y5422520D01*
X4318268D01*
Y5417480D01*
X4313228D01*
Y5412441D01*
X4308189D01*
Y5407401D01*
X4303150D01*
Y5402362D01*
X4293071D01*
Y5397323D01*
X4288032D01*
Y5392283D01*
X4282992D01*
Y5387244D01*
X4277953D01*
Y5377165D01*
X4267874D01*
Y5372126D01*
X4262835D01*
Y5367087D01*
X4257795D01*
Y5362047D01*
X4247716D01*
Y5357008D01*
X4237638D01*
Y5351968D01*
X4222520D01*
Y5346929D01*
X4202362D01*
Y5331811D01*
X4197323D01*
Y5321732D01*
X4192283D01*
Y5306614D01*
X4187244D01*
Y5301575D01*
X4182205D01*
Y5291496D01*
X4177165D01*
Y5281417D01*
X4172126D01*
Y5276378D01*
X4167087D01*
Y5266299D01*
X4162047D01*
Y5256220D01*
X4157008D01*
Y5241102D01*
X4151969D01*
Y5231024D01*
X4146929D01*
Y5220945D01*
X4141890D01*
Y5205827D01*
X4136851D01*
Y5185669D01*
X4141890D01*
Y5145354D01*
X4146929D01*
Y5105039D01*
X4151969D01*
Y5064724D01*
X4157008D01*
Y5024409D01*
X4162047D01*
Y4984094D01*
X4167087D01*
Y4943780D01*
X4172126D01*
Y4903464D01*
X4177165D01*
Y4863150D01*
X4182205D01*
Y4827874D01*
X4187244D01*
Y4822835D01*
X4197323D01*
Y4817795D01*
X4207402D01*
Y4812756D01*
X4212441D01*
Y4807717D01*
X4217480D01*
Y4802677D01*
X4222520D01*
Y4797638D01*
X4227559D01*
Y4792598D01*
X4232598D01*
Y4782520D01*
X4237638D01*
Y4772441D01*
X4242677D01*
Y4752283D01*
X4247716D01*
Y4747244D01*
X4252756D01*
Y4742205D01*
X4262835D01*
Y4737165D01*
X4267874D01*
Y4732126D01*
X4277953D01*
Y4727087D01*
X4282992D01*
Y4722047D01*
X4293071D01*
Y4717008D01*
X4303150D01*
Y4711968D01*
X4308189D01*
Y4706929D01*
X4318268D01*
Y4701890D01*
X4328346D01*
Y4696850D01*
X4333386D01*
Y4691811D01*
X4343465D01*
Y4686772D01*
X4348504D01*
Y4681732D01*
X4358583D01*
Y4676693D01*
X4368661D01*
Y4671654D01*
X4373701D01*
Y4666614D01*
X4383780D01*
Y4661575D01*
X4388819D01*
Y4656535D01*
X4398898D01*
Y4651496D01*
X4408976D01*
Y4646457D01*
X4414016D01*
Y4641417D01*
X4424095D01*
Y4636378D01*
X4434173D01*
Y4631338D01*
X4439213D01*
Y4626299D01*
X4449291D01*
Y4621260D01*
X4454331D01*
Y4616220D01*
X4464409D01*
Y4611181D01*
X4474488D01*
Y4606142D01*
X4479527D01*
Y4601102D01*
X4489606D01*
Y4596063D01*
X4545039D01*
Y4591024D01*
X4560158D01*
Y4585984D01*
X4570236D01*
Y4580945D01*
X4575276D01*
Y4575906D01*
X4605512D01*
Y4580945D01*
X4625669D01*
Y4585984D01*
X4645827D01*
Y4591024D01*
X4665984D01*
Y4596063D01*
X4686142D01*
Y4601102D01*
X4706299D01*
Y4606142D01*
X4726457D01*
Y4611181D01*
X4746614D01*
Y4616220D01*
X4771811D01*
Y4621260D01*
X4791969D01*
Y4626299D01*
X4812126D01*
Y4631338D01*
X4832283D01*
Y4636378D01*
X4852441D01*
Y4641417D01*
X4872598D01*
Y4646457D01*
X4877638D01*
Y4651496D01*
X4872598D01*
Y4661575D01*
X4867559D01*
Y4666614D01*
X4872598D01*
Y4676693D01*
X4877638D01*
Y4681732D01*
X4882677D01*
Y4686772D01*
X4887716D01*
Y4691811D01*
X4892756D01*
Y4696850D01*
X4897795D01*
Y4701890D01*
X4902835D01*
Y4706929D01*
X4907874D01*
Y4711968D01*
X4912913D01*
Y4717008D01*
X4917953D01*
Y4722047D01*
X4922992D01*
Y4727087D01*
X4928032D01*
Y4732126D01*
X4933071D01*
Y4737165D01*
X4938110D01*
Y4747244D01*
X4943150D01*
Y4752283D01*
X4948189D01*
Y4757323D01*
X4953228D01*
Y4762362D01*
X4958268D01*
Y4767401D01*
X4963307D01*
Y4772441D01*
X4968346D01*
Y4777480D01*
X4973386D01*
Y4782520D01*
X4978425D01*
Y4787559D01*
X4983465D01*
Y4792598D01*
X4988504D01*
Y4797638D01*
X4993543D01*
Y4802677D01*
X4998583D01*
Y4807717D01*
X5003622D01*
Y4817795D01*
X5008661D01*
Y4822835D01*
X5013701D01*
Y4827874D01*
X5018740D01*
Y4832913D01*
X5023780D01*
Y4837953D01*
X5028819D01*
Y4842992D01*
X5033858D01*
Y4848031D01*
X5043937D01*
Y4842992D01*
X5054016D01*
Y4848031D01*
X5059055D01*
Y4878268D01*
X5064095D01*
Y4903464D01*
X5069134D01*
Y4933701D01*
X5074173D01*
Y4963937D01*
X5079213D01*
Y4989134D01*
X5084252D01*
Y5019370D01*
X5089291D01*
Y5049606D01*
X5094331D01*
Y5074803D01*
X5099370D01*
Y5105039D01*
X5104409D01*
Y5135275D01*
X5099370D01*
Y5140315D01*
X5094331D01*
Y5150394D01*
X5089291D01*
Y5160472D01*
X5084252D01*
Y5175591D01*
X5079213D01*
Y5205827D01*
X5074173D01*
Y5231024D01*
X5069134D01*
Y5236063D01*
X5064095D01*
Y5241102D01*
X5059055D01*
Y5251181D01*
X5054016D01*
Y5256220D01*
X5048976D01*
Y5266299D01*
X5043937D01*
Y5271338D01*
X5038898D01*
Y5281417D01*
X5033858D01*
Y5286457D01*
X5028819D01*
Y5291496D01*
X5023780D01*
Y5301575D01*
X5018740D01*
Y5306614D01*
X5013701D01*
Y5316693D01*
X5008661D01*
Y5321732D01*
X5003622D01*
Y5326772D01*
X4998583D01*
Y5336850D01*
X4993543D01*
Y5341890D01*
X4988504D01*
Y5351968D01*
X4983465D01*
Y5357008D01*
X4978425D01*
Y5362047D01*
X4973386D01*
Y5372126D01*
X4968346D01*
Y5377165D01*
X4963307D01*
Y5387244D01*
X4958268D01*
Y5392283D01*
X4953228D01*
Y5402362D01*
X4948189D01*
Y5407401D01*
X4943150D01*
Y5412441D01*
X4938110D01*
Y5422520D01*
X4933071D01*
Y5427559D01*
X4928032D01*
Y5437638D01*
X4922992D01*
Y5442677D01*
X4917953D01*
Y5447717D01*
X4912913D01*
Y5457795D01*
X4892756D01*
Y5462835D01*
X4877638D01*
Y5467874D01*
X4867559D01*
Y5472913D01*
X4857480D01*
Y5477953D01*
X4852441D01*
Y5482992D01*
X4847402D01*
Y5488031D01*
X4842362D01*
Y5493071D01*
X4837323D01*
Y5503150D01*
X4832283D01*
Y5508189D01*
X4827244D01*
Y5513228D01*
X4802047D01*
Y5518268D01*
X4721417D01*
Y5523307D01*
X4635748D01*
Y5528346D01*
X4555118D01*
Y5533386D01*
D02*
G37*
G36*
X4116693Y5241102D02*
X4111653D01*
Y5236063D01*
X4106614D01*
Y5210866D01*
X4101575D01*
Y5110079D01*
X4096535D01*
Y5009291D01*
X4091496D01*
Y4908504D01*
X4086457D01*
Y4812756D01*
X4091496D01*
Y4817795D01*
X4101575D01*
Y4822835D01*
X4111653D01*
Y4827874D01*
X4126772D01*
Y4832913D01*
X4167087D01*
Y4863150D01*
X4162047D01*
Y4903464D01*
X4157008D01*
Y4918583D01*
Y4923622D01*
Y4943780D01*
X4151969D01*
Y4984094D01*
X4146929D01*
Y5024409D01*
X4141890D01*
Y5064724D01*
X4136851D01*
Y5105039D01*
X4131811D01*
Y5145354D01*
X4126772D01*
Y5185669D01*
X4121732D01*
Y5225984D01*
X4116693D01*
Y5241102D01*
D02*
G37*
G36*
X4172126Y4817795D02*
X4126772D01*
Y4812756D01*
X4111653D01*
Y4807717D01*
X4106614D01*
Y4802677D01*
X4096535D01*
Y4797638D01*
X4091496D01*
Y4792598D01*
X4086457D01*
Y4782520D01*
X4081417D01*
Y4777480D01*
X4076378D01*
Y4762362D01*
X4071339D01*
Y4757323D01*
Y4711968D01*
X4076378D01*
Y4701890D01*
X4081417D01*
Y4691811D01*
X4086457D01*
Y4686772D01*
X4091496D01*
Y4676693D01*
X4101575D01*
Y4671654D01*
X4106614D01*
Y4666614D01*
X4116693D01*
Y4661575D01*
X4131811D01*
Y4656535D01*
X4172126D01*
Y4661575D01*
X4182205D01*
Y4666614D01*
X4192283D01*
Y4671654D01*
X4202362D01*
Y4676693D01*
X4207402D01*
Y4681732D01*
X4212441D01*
Y4686772D01*
X4217480D01*
Y4696850D01*
X4222520D01*
Y4706929D01*
X4227559D01*
Y4722047D01*
X4232598D01*
Y4752283D01*
X4227559D01*
Y4767401D01*
X4222520D01*
Y4777480D01*
X4217480D01*
Y4787559D01*
X4212441D01*
Y4792598D01*
X4207402D01*
Y4797638D01*
X4202362D01*
Y4802677D01*
X4197323D01*
Y4807717D01*
X4187244D01*
Y4812756D01*
X4172126D01*
Y4817795D01*
D02*
G37*
G36*
X5043937Y4832913D02*
X5038898D01*
Y4827874D01*
X5033858D01*
Y4822835D01*
X5028819D01*
Y4817795D01*
X5023780D01*
Y4812756D01*
X5018740D01*
Y4802677D01*
X5013701D01*
Y4797638D01*
X5008661D01*
Y4792598D01*
X5003622D01*
Y4787559D01*
X4998583D01*
Y4782520D01*
X4993543D01*
Y4777480D01*
X4988504D01*
Y4772441D01*
X4983465D01*
Y4767401D01*
X4978425D01*
Y4762362D01*
X4973386D01*
Y4757323D01*
X4968346D01*
Y4752283D01*
X4963307D01*
Y4747244D01*
X4958268D01*
Y4742205D01*
X4953228D01*
Y4732126D01*
X4948189D01*
Y4727087D01*
X4943150D01*
Y4722047D01*
X4938110D01*
Y4717008D01*
X4933071D01*
Y4711968D01*
X4928032D01*
Y4706929D01*
X4922992D01*
Y4701890D01*
X4917953D01*
Y4696850D01*
X4912913D01*
Y4691811D01*
X4907874D01*
Y4686772D01*
X4902835D01*
Y4681732D01*
X4897795D01*
Y4676693D01*
X4892756D01*
Y4666614D01*
X4887716D01*
Y4656535D01*
X4892756D01*
Y4646457D01*
X4897795D01*
Y4641417D01*
X4902835D01*
Y4631338D01*
X4907874D01*
Y4621260D01*
X4912913D01*
Y4616220D01*
X4917953D01*
Y4606142D01*
X4922992D01*
Y4601102D01*
X4928032D01*
Y4591024D01*
X4933071D01*
Y4580945D01*
X4938110D01*
Y4575906D01*
X4943150D01*
Y4565827D01*
X4948189D01*
Y4560787D01*
X4953228D01*
Y4550709D01*
X4958268D01*
Y4540630D01*
X4963307D01*
Y4535591D01*
X4968346D01*
Y4525512D01*
X4973386D01*
Y4515433D01*
X4978425D01*
Y4510394D01*
X4983465D01*
Y4500315D01*
X4988504D01*
Y4495275D01*
X4993543D01*
Y4485197D01*
X4998583D01*
Y4475118D01*
X5003622D01*
Y4470079D01*
X5008661D01*
Y4460000D01*
X5013701D01*
Y4454961D01*
X5018740D01*
Y4460000D01*
X5023780D01*
Y4465039D01*
X5028819D01*
Y4470079D01*
X5033858D01*
Y4475118D01*
X5038898D01*
Y4480157D01*
X5043937D01*
Y4485197D01*
X5048976D01*
Y4490236D01*
X5054016D01*
Y4495275D01*
X5059055D01*
Y4500315D01*
X5064095D01*
Y4505354D01*
X5069134D01*
Y4510394D01*
X5074173D01*
Y4515433D01*
X5079213D01*
Y4525512D01*
X5084252D01*
Y4530551D01*
X5089291D01*
Y4535591D01*
X5094331D01*
Y4540630D01*
X5099370D01*
Y4545669D01*
X5104409D01*
Y4550709D01*
X5109449D01*
Y4555748D01*
X5114488D01*
Y4560787D01*
X5119527D01*
Y4565827D01*
X5124567D01*
Y4570866D01*
X5129606D01*
Y4575906D01*
X5134646D01*
Y4580945D01*
X5139685D01*
Y4585984D01*
X5144725D01*
Y4596063D01*
X5149764D01*
Y4601102D01*
X5154803D01*
Y4606142D01*
X5159843D01*
Y4611181D01*
X5164882D01*
Y4616220D01*
X5169921D01*
Y4621260D01*
X5174961D01*
Y4626299D01*
X5180000D01*
Y4631338D01*
X5185039D01*
Y4636378D01*
X5190079D01*
Y4641417D01*
X5195118D01*
Y4646457D01*
X5200157D01*
Y4651496D01*
X5205197D01*
Y4661575D01*
X5210236D01*
Y4666614D01*
X5215276D01*
Y4671654D01*
X5220315D01*
Y4676693D01*
X5225354D01*
Y4681732D01*
X5230394D01*
Y4686772D01*
X5235433D01*
Y4691811D01*
X5240472D01*
Y4696850D01*
X5245512D01*
Y4701890D01*
X5250551D01*
Y4711968D01*
X5245512D01*
Y4717008D01*
X5235433D01*
Y4722047D01*
X5225354D01*
Y4727087D01*
X5215276D01*
Y4732126D01*
X5210236D01*
Y4737165D01*
X5200157D01*
Y4742205D01*
X5190079D01*
Y4747244D01*
X5180000D01*
Y4752283D01*
X5174961D01*
Y4757323D01*
X5164882D01*
Y4762362D01*
X5154803D01*
Y4767401D01*
X5144725D01*
Y4772441D01*
X5139685D01*
Y4777480D01*
X5129606D01*
Y4782520D01*
X5119527D01*
Y4787559D01*
X5109449D01*
Y4792598D01*
X5104409D01*
Y4797638D01*
X5094331D01*
Y4802677D01*
X5084252D01*
Y4807717D01*
X5079213D01*
Y4812756D01*
X5069134D01*
Y4817795D01*
X5059055D01*
Y4822835D01*
X5048976D01*
Y4827874D01*
X5043937D01*
Y4832913D01*
D02*
G37*
G36*
X4257795Y4727087D02*
X4242677D01*
Y4706929D01*
X4237638D01*
Y4691811D01*
X4232598D01*
Y4686772D01*
X4227559D01*
Y4676693D01*
X4222520D01*
Y4671654D01*
X4217480D01*
Y4666614D01*
X4212441D01*
Y4661575D01*
X4202362D01*
Y4656535D01*
X4197323D01*
Y4651496D01*
X4187244D01*
Y4646457D01*
X4172126D01*
Y4641417D01*
X4167087D01*
Y4636378D01*
X4177165D01*
Y4631338D01*
X4182205D01*
Y4626299D01*
X4187244D01*
Y4621260D01*
X4192283D01*
Y4616220D01*
X4197323D01*
Y4611181D01*
X4202362D01*
Y4606142D01*
X4207402D01*
Y4601102D01*
X4212441D01*
Y4596063D01*
X4217480D01*
Y4591024D01*
X4222520D01*
Y4585984D01*
X4227559D01*
Y4580945D01*
X4237638D01*
Y4575906D01*
X4242677D01*
Y4570866D01*
X4247716D01*
Y4565827D01*
X4252756D01*
Y4560787D01*
X4257795D01*
Y4555748D01*
X4262835D01*
Y4550709D01*
X4267874D01*
Y4545669D01*
X4272913D01*
Y4540630D01*
X4277953D01*
Y4535591D01*
X4282992D01*
Y4530551D01*
X4288032D01*
Y4525512D01*
X4298110D01*
Y4520472D01*
X4303150D01*
Y4515433D01*
X4308189D01*
Y4510394D01*
X4313228D01*
Y4505354D01*
X4318268D01*
Y4500315D01*
X4323307D01*
Y4495275D01*
X4328346D01*
Y4490236D01*
X4333386D01*
Y4485197D01*
X4338425D01*
Y4480157D01*
X4343465D01*
Y4475118D01*
X4348504D01*
Y4470079D01*
X4358583D01*
Y4465039D01*
X4363622D01*
Y4460000D01*
X4368661D01*
Y4454961D01*
X4373701D01*
Y4449921D01*
X4378740D01*
Y4444882D01*
X4383780D01*
Y4449921D01*
X4378740D01*
Y4485197D01*
X4383780D01*
Y4510394D01*
X4388819D01*
Y4520472D01*
X4393858D01*
Y4530551D01*
X4398898D01*
Y4540630D01*
X4403937D01*
Y4545669D01*
X4408976D01*
Y4550709D01*
X4414016D01*
Y4560787D01*
X4419055D01*
Y4565827D01*
X4424095D01*
Y4570866D01*
X4434173D01*
Y4575906D01*
X4439213D01*
Y4580945D01*
X4449291D01*
Y4585984D01*
X4459370D01*
Y4591024D01*
X4469449D01*
Y4596063D01*
X4459370D01*
Y4601102D01*
X4454331D01*
Y4606142D01*
X4444252D01*
Y4611181D01*
X4439213D01*
Y4616220D01*
X4429134D01*
Y4621260D01*
X4419055D01*
Y4626299D01*
X4414016D01*
Y4631338D01*
X4403937D01*
Y4636378D01*
X4398898D01*
Y4641417D01*
X4388819D01*
Y4646457D01*
X4378740D01*
Y4651496D01*
X4373701D01*
Y4656535D01*
X4363622D01*
Y4661575D01*
X4353543D01*
Y4666614D01*
X4348504D01*
Y4671654D01*
X4338425D01*
Y4676693D01*
X4333386D01*
Y4681732D01*
X4323307D01*
Y4686772D01*
X4313228D01*
Y4691811D01*
X4308189D01*
Y4696850D01*
X4298110D01*
Y4701890D01*
X4288032D01*
Y4706929D01*
X4282992D01*
Y4711968D01*
X4272913D01*
Y4717008D01*
X4267874D01*
Y4722047D01*
X4257795D01*
Y4727087D01*
D02*
G37*
G36*
X4887716Y4631338D02*
X4872598D01*
Y4626299D01*
X4852441D01*
Y4621260D01*
X4832283D01*
Y4616220D01*
X4812126D01*
Y4611181D01*
X4791969D01*
Y4606142D01*
X4771811D01*
Y4601102D01*
X4751653D01*
Y4596063D01*
X4731496D01*
Y4591024D01*
X4706299D01*
Y4585984D01*
X4686142D01*
Y4580945D01*
X4665984D01*
Y4575906D01*
X4645827D01*
Y4570866D01*
X4625669D01*
Y4565827D01*
X4605512D01*
Y4550709D01*
X4610551D01*
Y4545669D01*
X4615590D01*
Y4540630D01*
X4620630D01*
Y4530551D01*
X4625669D01*
Y4520472D01*
X4630709D01*
Y4510394D01*
X4635748D01*
Y4490236D01*
X4640788D01*
Y4444882D01*
X4635748D01*
Y4424724D01*
X4630709D01*
Y4414646D01*
X4625669D01*
Y4404567D01*
X4620630D01*
Y4394488D01*
X4615590D01*
Y4389449D01*
X4610551D01*
Y4384409D01*
X4605512D01*
Y4374331D01*
X4610551D01*
Y4379370D01*
X4630709D01*
Y4384409D01*
X4650866D01*
Y4389449D01*
X4671024D01*
Y4394488D01*
X4691181D01*
Y4399527D01*
X4711339D01*
Y4404567D01*
X4731496D01*
Y4409606D01*
X4751653D01*
Y4414646D01*
X4776850D01*
Y4419685D01*
X4797008D01*
Y4424724D01*
X4817165D01*
Y4429764D01*
X4837323D01*
Y4434803D01*
X4857480D01*
Y4439843D01*
X4877638D01*
Y4444882D01*
X4897795D01*
Y4449921D01*
X4917953D01*
Y4454961D01*
X4938110D01*
Y4460000D01*
X4963307D01*
Y4465039D01*
X4983465D01*
Y4470079D01*
X4988504D01*
Y4475118D01*
X4983465D01*
Y4480157D01*
X4978425D01*
Y4490236D01*
X4973386D01*
Y4500315D01*
X4968346D01*
Y4505354D01*
X4963307D01*
Y4515433D01*
X4958268D01*
Y4520472D01*
X4953228D01*
Y4530551D01*
X4948189D01*
Y4540630D01*
X4943150D01*
Y4545669D01*
X4938110D01*
Y4555748D01*
X4933071D01*
Y4560787D01*
X4928032D01*
Y4570866D01*
X4922992D01*
Y4580945D01*
X4917953D01*
Y4585984D01*
X4912913D01*
Y4596063D01*
X4907874D01*
Y4606142D01*
X4902835D01*
Y4611181D01*
X4897795D01*
Y4621260D01*
X4892756D01*
Y4626299D01*
X4887716D01*
Y4631338D01*
D02*
G37*
G36*
X4545039Y4580945D02*
X4474488D01*
Y4575906D01*
X4464409D01*
Y4570866D01*
X4454331D01*
Y4565827D01*
X4444252D01*
Y4560787D01*
X4439213D01*
Y4555748D01*
X4434173D01*
Y4550709D01*
X4424095D01*
Y4540630D01*
X4419055D01*
Y4535591D01*
X4414016D01*
Y4530551D01*
X4408976D01*
Y4520472D01*
X4403937D01*
Y4510394D01*
X4398898D01*
Y4490236D01*
X4393858D01*
Y4449921D01*
X4398898D01*
Y4429764D01*
X4403937D01*
Y4414646D01*
X4408976D01*
Y4409606D01*
X4414016D01*
Y4399527D01*
X4419055D01*
Y4394488D01*
X4424095D01*
Y4389449D01*
X4429134D01*
Y4384409D01*
X4434173D01*
Y4379370D01*
X4439213D01*
Y4374331D01*
X4444252D01*
Y4369291D01*
X4454331D01*
Y4364252D01*
X4464409D01*
Y4359213D01*
X4479527D01*
Y4354173D01*
X4540000D01*
Y4359213D01*
X4555118D01*
Y4364252D01*
X4565197D01*
Y4369291D01*
X4575276D01*
Y4374331D01*
X4580315D01*
Y4379370D01*
X4585354D01*
Y4384409D01*
X4590394D01*
Y4389449D01*
X4595433D01*
Y4394488D01*
X4600472D01*
Y4399527D01*
X4605512D01*
Y4404567D01*
X4610551D01*
Y4414646D01*
X4615590D01*
Y4429764D01*
X4620630D01*
Y4444882D01*
X4625669D01*
Y4490236D01*
X4620630D01*
Y4505354D01*
X4615590D01*
Y4520472D01*
X4610551D01*
Y4530551D01*
X4605512D01*
Y4535591D01*
X4600472D01*
Y4540630D01*
X4595433D01*
Y4550709D01*
X4590394D01*
Y4555748D01*
X4580315D01*
Y4560787D01*
X4575276D01*
Y4565827D01*
X4565197D01*
Y4570866D01*
X4555118D01*
Y4575906D01*
X4545039D01*
Y4580945D01*
D02*
G37*
%LPD*%
G36*
X4938110Y5608976D02*
X4948189D01*
Y5603937D01*
X4953228D01*
Y5598898D01*
X4958268D01*
Y5593858D01*
X4963307D01*
Y5588819D01*
X4968346D01*
Y5578740D01*
X4973386D01*
Y5563622D01*
X4978425D01*
Y5543464D01*
X4973386D01*
Y5528346D01*
X4968346D01*
Y5518268D01*
X4963307D01*
Y5513228D01*
X4958268D01*
Y5508189D01*
X4953228D01*
Y5503150D01*
X4948189D01*
Y5498110D01*
X4933071D01*
Y5493071D01*
X4892756D01*
Y5498110D01*
X4882677D01*
Y5503150D01*
X4877638D01*
Y5508189D01*
X4872598D01*
Y5513228D01*
X4867559D01*
Y5518268D01*
X4862520D01*
Y5528346D01*
X4857480D01*
Y5538425D01*
X4852441D01*
Y5568661D01*
X4857480D01*
Y5583780D01*
X4862520D01*
Y5588819D01*
X4867559D01*
Y5598898D01*
X4877638D01*
Y5603937D01*
X4882677D01*
Y5608976D01*
X4892756D01*
Y5614016D01*
X4938110D01*
Y5608976D01*
D02*
G37*
%LPC*%
G36*
X4933071Y5598898D02*
X4892756D01*
Y5593858D01*
X4887716D01*
Y5588819D01*
X4882677D01*
Y5583780D01*
X4877638D01*
Y5578740D01*
X4872598D01*
Y5573701D01*
Y5568661D01*
X4867559D01*
Y5543464D01*
X4872598D01*
Y5528346D01*
X4877638D01*
Y5523307D01*
X4882677D01*
Y5518268D01*
X4887716D01*
Y5513228D01*
X4897795D01*
Y5508189D01*
X4933071D01*
Y5513228D01*
X4943150D01*
Y5518268D01*
X4948189D01*
Y5523307D01*
X4953228D01*
Y5533386D01*
X4958268D01*
Y5548504D01*
X4963307D01*
Y5558583D01*
X4958268D01*
Y5578740D01*
X4953228D01*
Y5583780D01*
X4948189D01*
Y5588819D01*
X4943150D01*
Y5593858D01*
X4933071D01*
Y5598898D01*
D02*
G37*
%LPD*%
G36*
X5230394Y5286457D02*
X5245512D01*
Y5281417D01*
X5250551D01*
Y5276378D01*
X5260630D01*
Y5271338D01*
X5265669D01*
Y5266299D01*
X5270709D01*
Y5256220D01*
X5275748D01*
Y5251181D01*
X5280788D01*
Y5241102D01*
Y5236063D01*
X5285827D01*
Y5185669D01*
X5280788D01*
Y5175591D01*
X5275748D01*
Y5165512D01*
X5270709D01*
Y5160472D01*
X5265669D01*
Y5155433D01*
X5260630D01*
Y5150394D01*
X5255590D01*
Y5145354D01*
X5250551D01*
Y5140315D01*
X5240472D01*
Y5135275D01*
X5225354D01*
Y5130236D01*
X5190079D01*
Y5135275D01*
X5174961D01*
Y5140315D01*
X5164882D01*
Y5145354D01*
X5159843D01*
Y5150394D01*
X5149764D01*
Y5155433D01*
X5144725D01*
Y5165512D01*
X5139685D01*
Y5170551D01*
X5134646D01*
Y5180630D01*
X5129606D01*
Y5200787D01*
X5124567D01*
Y5225984D01*
X5129606D01*
Y5241102D01*
X5134646D01*
Y5251181D01*
X5139685D01*
Y5261260D01*
X5144725D01*
Y5266299D01*
X5149764D01*
Y5271338D01*
X5154803D01*
Y5276378D01*
X5159843D01*
Y5281417D01*
X5169921D01*
Y5286457D01*
X5180000D01*
Y5291496D01*
X5230394D01*
Y5286457D01*
D02*
G37*
%LPC*%
G36*
Y5276378D02*
X5185039D01*
Y5271338D01*
X5174961D01*
Y5266299D01*
X5164882D01*
Y5261260D01*
X5159843D01*
Y5256220D01*
X5154803D01*
Y5251181D01*
X5149764D01*
Y5241102D01*
X5144725D01*
Y5225984D01*
X5139685D01*
Y5200787D01*
X5144725D01*
Y5185669D01*
X5149764D01*
Y5175591D01*
X5154803D01*
Y5170551D01*
X5159843D01*
Y5165512D01*
X5164882D01*
Y5160472D01*
X5169921D01*
Y5155433D01*
X5180000D01*
Y5150394D01*
X5195118D01*
Y5145354D01*
X5220315D01*
Y5150394D01*
X5235433D01*
Y5155433D01*
X5245512D01*
Y5160472D01*
X5250551D01*
Y5165512D01*
X5255590D01*
Y5170551D01*
X5260630D01*
Y5175591D01*
X5265669D01*
Y5185669D01*
X5270709D01*
Y5236063D01*
X5265669D01*
Y5246142D01*
X5260630D01*
Y5256220D01*
X5255590D01*
Y5261260D01*
X5250551D01*
Y5266299D01*
X5240472D01*
Y5271338D01*
X5230394D01*
Y5276378D01*
D02*
G37*
%LPD*%
G36*
X4650866Y5503150D02*
X4665984D01*
Y5498110D01*
X4676063D01*
Y5493071D01*
X4681102D01*
Y5477953D01*
X4676063D01*
Y5472913D01*
X4665984D01*
Y5467874D01*
X4620630D01*
Y5472913D01*
X4605512D01*
Y5477953D01*
X4600472D01*
Y5482992D01*
X4595433D01*
Y5498110D01*
X4600472D01*
Y5503150D01*
X4610551D01*
Y5508189D01*
X4650866D01*
Y5503150D01*
D02*
G37*
G36*
X4434173Y5387244D02*
X4444252D01*
Y5372126D01*
Y5367087D01*
X4439213D01*
Y5362047D01*
X4434173D01*
Y5357008D01*
X4429134D01*
Y5351968D01*
X4393858D01*
Y5357008D01*
X4388819D01*
Y5372126D01*
X4393858D01*
Y5382205D01*
X4398898D01*
Y5387244D01*
X4408976D01*
Y5392283D01*
X4434173D01*
Y5387244D01*
D02*
G37*
G36*
X4756693Y5427559D02*
X4771811D01*
Y5422520D01*
X4781890D01*
Y5417480D01*
X4786929D01*
Y5412441D01*
X4797008D01*
Y5407401D01*
X4802047D01*
Y5402362D01*
X4807087D01*
Y5397323D01*
X4817165D01*
Y5392283D01*
X4822205D01*
Y5382205D01*
X4827244D01*
Y5377165D01*
X4832283D01*
Y5372126D01*
X4837323D01*
Y5362047D01*
X4842362D01*
Y5351968D01*
X4847402D01*
Y5346929D01*
Y5336850D01*
X4852441D01*
Y5321732D01*
X4857480D01*
Y5311654D01*
X4852441D01*
Y5281417D01*
X4847402D01*
Y5261260D01*
X4832283D01*
Y5276378D01*
X4837323D01*
Y5286457D01*
X4827244D01*
Y5281417D01*
X4812126D01*
Y5276378D01*
X4731496D01*
Y5281417D01*
X4716378D01*
Y5286457D01*
X4706299D01*
Y5291496D01*
X4696220D01*
Y5296535D01*
X4686142D01*
Y5301575D01*
X4676063D01*
Y5306614D01*
X4671024D01*
Y5311654D01*
X4660945D01*
Y5316693D01*
X4655906D01*
Y5321732D01*
X4650866D01*
Y5326772D01*
X4645827D01*
Y5331811D01*
X4640788D01*
Y5341890D01*
X4635748D01*
Y5351968D01*
X4630709D01*
Y5362047D01*
X4625669D01*
Y5357008D01*
X4615590D01*
Y5351968D01*
X4610551D01*
Y5357008D01*
X4605512D01*
Y5367087D01*
X4615590D01*
Y5372126D01*
X4620630D01*
Y5377165D01*
X4625669D01*
Y5382205D01*
X4630709D01*
Y5387244D01*
X4635748D01*
Y5392283D01*
X4640788D01*
Y5397323D01*
X4645827D01*
Y5402362D01*
X4650866D01*
Y5407401D01*
X4660945D01*
Y5412441D01*
X4671024D01*
Y5417480D01*
X4686142D01*
Y5422520D01*
X4701260D01*
Y5427559D01*
X4721417D01*
Y5432598D01*
X4756693D01*
Y5427559D01*
D02*
G37*
G36*
X4434173Y5286457D02*
X4444252D01*
Y5276378D01*
X4449291D01*
Y5261260D01*
X4444252D01*
Y5251181D01*
X4439213D01*
Y5246142D01*
X4434173D01*
Y5241102D01*
X4429134D01*
Y5236063D01*
X4424095D01*
Y5231024D01*
X4419055D01*
Y5225984D01*
X4414016D01*
Y5220945D01*
X4408976D01*
Y5215905D01*
X4398898D01*
Y5210866D01*
X4388819D01*
Y5205827D01*
X4373701D01*
Y5200787D01*
X4353543D01*
Y5205827D01*
X4343465D01*
Y5215905D01*
X4338425D01*
Y5220945D01*
Y5231024D01*
X4343465D01*
Y5241102D01*
X4348504D01*
Y5246142D01*
X4353543D01*
Y5251181D01*
X4358583D01*
Y5261260D01*
X4368661D01*
Y5266299D01*
X4373701D01*
Y5271338D01*
X4378740D01*
Y5276378D01*
X4388819D01*
Y5281417D01*
X4398898D01*
Y5286457D01*
X4414016D01*
Y5291496D01*
X4434173D01*
Y5286457D01*
D02*
G37*
G36*
X4968346Y5220945D02*
X4978425D01*
Y5215905D01*
X4988504D01*
Y5210866D01*
X4993543D01*
Y5200787D01*
X4998583D01*
Y5190709D01*
Y5185669D01*
Y5180630D01*
X4993543D01*
Y5175591D01*
X4973386D01*
Y5180630D01*
X4963307D01*
Y5185669D01*
X4958268D01*
Y5190709D01*
X4953228D01*
Y5195748D01*
X4948189D01*
Y5215905D01*
X4953228D01*
Y5220945D01*
X4963307D01*
Y5225984D01*
X4968346D01*
Y5220945D01*
D02*
G37*
G36*
X4812126Y4923622D02*
X4771811D01*
Y4928661D01*
X4766772D01*
Y4938740D01*
X4761732D01*
Y4943780D01*
X4756693D01*
Y4953858D01*
X4751653D01*
Y4958898D01*
X4746614D01*
Y4968976D01*
X4741575D01*
Y4974016D01*
X4736535D01*
Y4984094D01*
X4731496D01*
Y4989134D01*
X4726457D01*
Y4984094D01*
X4721417D01*
Y4974016D01*
X4716378D01*
Y4968976D01*
X4711339D01*
Y4958898D01*
X4706299D01*
Y4953858D01*
X4701260D01*
Y4948819D01*
X4696220D01*
Y4938740D01*
X4691181D01*
Y4933701D01*
X4686142D01*
Y4923622D01*
X4625669D01*
Y4928661D01*
X4630709D01*
Y4933701D01*
X4635748D01*
Y4943780D01*
X4640788D01*
Y4948819D01*
X4645827D01*
Y4958898D01*
X4650866D01*
Y4963937D01*
X4655906D01*
Y4974016D01*
X4660945D01*
Y4979055D01*
X4665984D01*
Y4989134D01*
X4671024D01*
Y4994173D01*
X4676063D01*
Y4999213D01*
Y5004252D01*
X4681102D01*
Y5009291D01*
X4686142D01*
Y5014331D01*
X4691181D01*
Y5024409D01*
X4696220D01*
Y5029449D01*
X4701260D01*
Y5039527D01*
X4696220D01*
Y5044567D01*
X4691181D01*
Y5054646D01*
X4686142D01*
Y5059685D01*
X4681102D01*
Y5069764D01*
X4676063D01*
Y5079843D01*
X4671024D01*
Y5084882D01*
X4665984D01*
Y5094961D01*
X4660945D01*
Y5100000D01*
X4655906D01*
Y5110079D01*
X4650866D01*
Y5115118D01*
X4645827D01*
Y5125197D01*
X4640788D01*
Y5135275D01*
X4635748D01*
Y5140315D01*
X4691181D01*
Y5130236D01*
X4696220D01*
Y5120157D01*
X4701260D01*
Y5115118D01*
X4706299D01*
Y5105039D01*
X4711339D01*
Y5094961D01*
X4716378D01*
Y5084882D01*
X4721417D01*
Y5079843D01*
X4726457D01*
Y5069764D01*
X4731496D01*
Y5059685D01*
X4736535D01*
Y5054646D01*
X4741575D01*
Y5044567D01*
X4746614D01*
Y5034488D01*
X4751653D01*
Y5029449D01*
X4756693D01*
Y5019370D01*
X4761732D01*
Y5140315D01*
X4812126D01*
Y4923622D01*
D02*
G37*
G36*
X4948189Y5135275D02*
X4958268D01*
Y5130236D01*
X4968346D01*
Y5125197D01*
X4973386D01*
Y5120157D01*
X4978425D01*
Y5115118D01*
X4983465D01*
Y5110079D01*
X4988504D01*
Y5105039D01*
X4993543D01*
Y5089921D01*
X4998583D01*
Y5064724D01*
X4993543D01*
Y5049606D01*
X4988504D01*
Y5039527D01*
X4983465D01*
Y5034488D01*
X4978425D01*
Y5029449D01*
X4968346D01*
Y5024409D01*
X4958268D01*
Y5019370D01*
X4948189D01*
Y5014331D01*
X4933071D01*
Y5009291D01*
X4907874D01*
Y5004252D01*
X4887716D01*
Y4999213D01*
X4882677D01*
Y4994173D01*
X4877638D01*
Y4989134D01*
X4872598D01*
Y4979055D01*
X4877638D01*
Y4968976D01*
X4887716D01*
Y4963937D01*
X4938110D01*
Y4968976D01*
X4953228D01*
Y4974016D01*
X4963307D01*
Y4979055D01*
X4968346D01*
Y4984094D01*
X4983465D01*
Y4974016D01*
X4988504D01*
Y4968976D01*
X4993543D01*
Y4958898D01*
X4998583D01*
Y4953858D01*
X5003622D01*
Y4943780D01*
X4993543D01*
Y4938740D01*
X4983465D01*
Y4933701D01*
X4978425D01*
Y4928661D01*
X4963307D01*
Y4923622D01*
X4938110D01*
Y4918583D01*
X4887716D01*
Y4923622D01*
X4867559D01*
Y4928661D01*
X4857480D01*
Y4933701D01*
X4847402D01*
Y4938740D01*
X4842362D01*
Y4943780D01*
X4837323D01*
Y4948819D01*
X4832283D01*
Y4958898D01*
X4827244D01*
Y4968976D01*
X4822205D01*
Y5009291D01*
X4827244D01*
Y5014331D01*
Y5019370D01*
X4832283D01*
Y5024409D01*
X4837323D01*
Y5029449D01*
X4842362D01*
Y5034488D01*
X4847402D01*
Y5039527D01*
X4857480D01*
Y5044567D01*
X4872598D01*
Y5049606D01*
X4892756D01*
Y5054646D01*
X4912913D01*
Y5059685D01*
X4933071D01*
Y5064724D01*
X4943150D01*
Y5089921D01*
X4938110D01*
Y5094961D01*
X4928032D01*
Y5100000D01*
X4897795D01*
Y5094961D01*
X4877638D01*
Y5089921D01*
X4867559D01*
Y5084882D01*
X4852441D01*
Y5089921D01*
X4847402D01*
Y5094961D01*
X4842362D01*
Y5105039D01*
X4837323D01*
Y5110079D01*
X4832283D01*
Y5125197D01*
X4842362D01*
Y5130236D01*
X4857480D01*
Y5135275D01*
X4872598D01*
Y5140315D01*
X4948189D01*
Y5135275D01*
D02*
G37*
G36*
X4519843D02*
X4524882D01*
Y5125197D01*
X4529921D01*
Y5115118D01*
X4534961D01*
Y5100000D01*
X4540000D01*
Y5089921D01*
X4545039D01*
Y5079843D01*
X4550079D01*
Y5069764D01*
X4555118D01*
Y5059685D01*
X4560158D01*
Y5049606D01*
X4565197D01*
Y5039527D01*
X4570236D01*
Y5029449D01*
X4575276D01*
Y5019370D01*
X4580315D01*
Y5009291D01*
X4585354D01*
Y4999213D01*
X4590394D01*
Y4984094D01*
X4595433D01*
Y4974016D01*
X4600472D01*
Y4963937D01*
X4605512D01*
Y4953858D01*
X4610551D01*
Y4943780D01*
X4615590D01*
Y4933701D01*
X4620630D01*
Y4918583D01*
X4570236D01*
Y4928661D01*
X4565197D01*
Y4938740D01*
X4560158D01*
Y4948819D01*
X4555118D01*
Y4958898D01*
X4479527D01*
Y4953858D01*
X4474488D01*
Y4943780D01*
X4469449D01*
Y4928661D01*
X4464409D01*
Y4918583D01*
X4414016D01*
Y4933701D01*
X4419055D01*
Y4943780D01*
X4424095D01*
Y4953858D01*
X4429134D01*
Y4958898D01*
Y4963937D01*
X4434173D01*
Y4974016D01*
X4439213D01*
Y4989134D01*
X4444252D01*
Y4999213D01*
X4449291D01*
Y5009291D01*
X4454331D01*
Y5019370D01*
X4459370D01*
Y5029449D01*
X4464409D01*
Y5039527D01*
X4469449D01*
Y5049606D01*
X4474488D01*
Y5059685D01*
X4479527D01*
Y5069764D01*
X4484567D01*
Y5084882D01*
X4489606D01*
Y5094961D01*
X4494646D01*
Y5105039D01*
X4499685D01*
Y5115118D01*
X4504725D01*
Y5125197D01*
X4509764D01*
Y5135275D01*
X4514803D01*
Y5140315D01*
X4519843D01*
Y5135275D01*
D02*
G37*
G36*
X4398898Y5140315D02*
X4403937D01*
Y4918583D01*
X4353543D01*
Y4999213D01*
X4323307D01*
Y4994173D01*
X4318268D01*
Y4989134D01*
X4313228D01*
Y4979055D01*
X4308189D01*
Y4974016D01*
X4303150D01*
Y4963937D01*
X4298110D01*
Y4958898D01*
X4293071D01*
Y4948819D01*
X4288032D01*
Y4943780D01*
X4282992D01*
Y4933701D01*
X4277953D01*
Y4928661D01*
X4272913D01*
Y4923622D01*
X4267874D01*
Y4918583D01*
X4212441D01*
Y4928661D01*
X4217480D01*
Y4938740D01*
X4222520D01*
Y4943780D01*
X4227559D01*
Y4953858D01*
X4232598D01*
Y4958898D01*
X4237638D01*
Y4968976D01*
X4242677D01*
Y4974016D01*
X4247716D01*
Y4984094D01*
X4252756D01*
Y4989134D01*
X4257795D01*
Y4999213D01*
X4262835D01*
Y5009291D01*
X4257795D01*
Y5014331D01*
X4247716D01*
Y5019370D01*
X4242677D01*
Y5024409D01*
X4237638D01*
Y5029449D01*
X4232598D01*
Y5039527D01*
X4227559D01*
Y5049606D01*
X4222520D01*
Y5089921D01*
X4227559D01*
Y5105039D01*
X4232598D01*
Y5110079D01*
X4237638D01*
Y5115118D01*
X4242677D01*
Y5120157D01*
X4247716D01*
Y5125197D01*
X4252756D01*
Y5130236D01*
X4262835D01*
Y5135275D01*
X4272913D01*
Y5140315D01*
X4303150D01*
Y5145354D01*
X4398898D01*
Y5140315D01*
D02*
G37*
G36*
X4887716Y4837953D02*
X4897795D01*
Y4812756D01*
X4892756D01*
Y4807717D01*
Y4802677D01*
X4887716D01*
Y4797638D01*
X4882677D01*
Y4792598D01*
X4872598D01*
Y4787559D01*
X4862520D01*
Y4782520D01*
X4847402D01*
Y4787559D01*
X4837323D01*
Y4812756D01*
X4842362D01*
Y4817795D01*
X4847402D01*
Y4822835D01*
X4852441D01*
Y4827874D01*
X4857480D01*
Y4832913D01*
X4862520D01*
Y4837953D01*
X4872598D01*
Y4842992D01*
X4887716D01*
Y4837953D01*
D02*
G37*
G36*
X4378740Y4827874D02*
X4393858D01*
Y4822835D01*
X4398898D01*
Y4817795D01*
X4403937D01*
Y4812756D01*
X4408976D01*
Y4807717D01*
X4414016D01*
Y4802677D01*
X4419055D01*
Y4782520D01*
X4414016D01*
Y4777480D01*
X4408976D01*
Y4772441D01*
X4393858D01*
Y4767401D01*
X4388819D01*
Y4772441D01*
X4368661D01*
Y4777480D01*
X4358583D01*
Y4782520D01*
X4348504D01*
Y4787559D01*
X4343465D01*
Y4792598D01*
X4338425D01*
Y4802677D01*
X4333386D01*
Y4822835D01*
X4338425D01*
Y4827874D01*
X4343465D01*
Y4832913D01*
X4378740D01*
Y4827874D01*
D02*
G37*
G36*
X4761732Y4727087D02*
X4766772D01*
Y4722047D01*
X4761732D01*
Y4717008D01*
X4756693D01*
Y4681732D01*
X4751653D01*
Y4671654D01*
X4746614D01*
Y4661575D01*
X4741575D01*
Y4656535D01*
X4731496D01*
Y4651496D01*
X4721417D01*
Y4646457D01*
X4711339D01*
Y4641417D01*
X4696220D01*
Y4636378D01*
X4686142D01*
Y4631338D01*
X4671024D01*
Y4626299D01*
X4650866D01*
Y4621260D01*
X4620630D01*
Y4616220D01*
X4615590D01*
Y4621260D01*
X4585354D01*
Y4626299D01*
X4570236D01*
Y4631338D01*
X4560158D01*
Y4636378D01*
X4550079D01*
Y4641417D01*
X4540000D01*
Y4646457D01*
X4534961D01*
Y4661575D01*
X4529921D01*
Y4676693D01*
X4524882D01*
Y4691811D01*
X4529921D01*
Y4686772D01*
X4545039D01*
Y4691811D01*
X4550079D01*
Y4696850D01*
X4555118D01*
Y4701890D01*
X4565197D01*
Y4706929D01*
X4570236D01*
Y4711968D01*
X4585354D01*
Y4717008D01*
X4595433D01*
Y4722047D01*
X4615590D01*
Y4727087D01*
X4635748D01*
Y4732126D01*
X4691181D01*
Y4727087D01*
X4706299D01*
Y4722047D01*
X4726457D01*
Y4717008D01*
X4736535D01*
Y4711968D01*
X4741575D01*
Y4722047D01*
X4746614D01*
Y4727087D01*
X4751653D01*
Y4732126D01*
X4761732D01*
Y4727087D01*
D02*
G37*
%LPC*%
G36*
X4650866Y5493071D02*
X4615590D01*
Y5488031D01*
X4620630D01*
Y5482992D01*
X4665984D01*
Y5488031D01*
X4650866D01*
Y5493071D01*
D02*
G37*
G36*
X4429134Y5377165D02*
X4414016D01*
Y5372126D01*
X4403937D01*
Y5367087D01*
X4424095D01*
Y5372126D01*
X4429134D01*
Y5377165D01*
D02*
G37*
G36*
X4756693Y5417480D02*
X4721417D01*
Y5412441D01*
X4706299D01*
Y5407401D01*
X4691181D01*
Y5402362D01*
X4676063D01*
Y5397323D01*
X4665984D01*
Y5392283D01*
X4655906D01*
Y5387244D01*
X4650866D01*
Y5377165D01*
X4645827D01*
Y5357008D01*
X4650866D01*
Y5346929D01*
X4655906D01*
Y5336850D01*
X4660945D01*
Y5331811D01*
X4665984D01*
Y5326772D01*
X4676063D01*
Y5321732D01*
X4681102D01*
Y5316693D01*
X4686142D01*
Y5311654D01*
X4696220D01*
Y5306614D01*
X4706299D01*
Y5301575D01*
X4716378D01*
Y5296535D01*
X4731496D01*
Y5291496D01*
X4812126D01*
Y5296535D01*
X4827244D01*
Y5301575D01*
X4832283D01*
Y5306614D01*
X4837323D01*
Y5316693D01*
X4842362D01*
Y5321732D01*
X4837323D01*
Y5336850D01*
X4832283D01*
Y5346929D01*
X4827244D01*
Y5357008D01*
X4822205D01*
Y5367087D01*
X4817165D01*
Y5372126D01*
X4812126D01*
Y5377165D01*
X4807087D01*
Y5382205D01*
X4802047D01*
Y5387244D01*
X4797008D01*
Y5392283D01*
X4791969D01*
Y5397323D01*
X4786929D01*
Y5402362D01*
X4776850D01*
Y5407401D01*
X4766772D01*
Y5412441D01*
X4756693D01*
Y5417480D01*
D02*
G37*
G36*
X4434173Y5276378D02*
X4414016D01*
Y5271338D01*
X4398898D01*
Y5266299D01*
X4393858D01*
Y5261260D01*
X4383780D01*
Y5256220D01*
X4378740D01*
Y5251181D01*
X4373701D01*
Y5246142D01*
X4368661D01*
Y5241102D01*
X4363622D01*
Y5236063D01*
X4358583D01*
Y5225984D01*
X4353543D01*
Y5220945D01*
X4358583D01*
Y5215905D01*
X4368661D01*
Y5220945D01*
X4383780D01*
Y5225984D01*
X4393858D01*
Y5231024D01*
X4403937D01*
Y5236063D01*
X4408976D01*
Y5241102D01*
X4414016D01*
Y5246142D01*
X4419055D01*
Y5251181D01*
X4424095D01*
Y5256220D01*
X4429134D01*
Y5266299D01*
X4434173D01*
Y5276378D01*
D02*
G37*
G36*
X4978425Y5205827D02*
X4963307D01*
Y5200787D01*
X4968346D01*
Y5195748D01*
X4973386D01*
Y5190709D01*
X4983465D01*
Y5200787D01*
X4978425D01*
Y5205827D01*
D02*
G37*
G36*
X4519843Y5039527D02*
X4509764D01*
Y5024409D01*
X4504725D01*
Y5014331D01*
X4499685D01*
Y5004252D01*
X4494646D01*
Y4994173D01*
X4534961D01*
Y5004252D01*
X4529921D01*
Y5019370D01*
X4524882D01*
Y5029449D01*
X4519843D01*
Y5034488D01*
Y5039527D01*
D02*
G37*
G36*
X4353543Y5100000D02*
X4298110D01*
Y5094961D01*
X4288032D01*
Y5089921D01*
X4282992D01*
Y5084882D01*
X4277953D01*
Y5054646D01*
X4282992D01*
Y5049606D01*
X4288032D01*
Y5044567D01*
X4298110D01*
Y5039527D01*
X4353543D01*
Y5100000D01*
D02*
G37*
G36*
X4882677Y4827874D02*
X4877638D01*
Y4822835D01*
X4867559D01*
Y4817795D01*
X4862520D01*
Y4812756D01*
X4857480D01*
Y4807717D01*
X4852441D01*
Y4797638D01*
X4862520D01*
Y4802677D01*
X4872598D01*
Y4807717D01*
X4877638D01*
Y4812756D01*
X4882677D01*
Y4827874D01*
D02*
G37*
G36*
X4378740Y4817795D02*
X4348504D01*
Y4807717D01*
X4353543D01*
Y4797638D01*
X4363622D01*
Y4792598D01*
X4368661D01*
Y4787559D01*
X4388819D01*
Y4782520D01*
X4393858D01*
Y4787559D01*
X4403937D01*
Y4797638D01*
X4398898D01*
Y4802677D01*
X4393858D01*
Y4807717D01*
X4388819D01*
Y4812756D01*
X4378740D01*
Y4817795D01*
D02*
G37*
G36*
X4686142Y4717008D02*
X4635748D01*
Y4711968D01*
X4615590D01*
Y4706929D01*
X4600472D01*
Y4701890D01*
X4585354D01*
Y4696850D01*
X4575276D01*
Y4691811D01*
X4565197D01*
Y4686772D01*
X4560158D01*
Y4681732D01*
X4555118D01*
Y4676693D01*
X4550079D01*
Y4666614D01*
X4545039D01*
Y4656535D01*
X4550079D01*
Y4651496D01*
X4560158D01*
Y4646457D01*
X4570236D01*
Y4641417D01*
X4585354D01*
Y4636378D01*
X4650866D01*
Y4641417D01*
X4665984D01*
Y4646457D01*
X4681102D01*
Y4651496D01*
X4696220D01*
Y4656535D01*
X4711339D01*
Y4661575D01*
X4721417D01*
Y4666614D01*
X4731496D01*
Y4671654D01*
X4736535D01*
Y4681732D01*
X4741575D01*
Y4696850D01*
X4736535D01*
Y4701890D01*
X4726457D01*
Y4706929D01*
X4706299D01*
Y4711968D01*
X4686142D01*
Y4717008D01*
D02*
G37*
%LPD*%
G36*
X4172126Y4792598D02*
X4182205D01*
Y4787559D01*
X4192283D01*
Y4782520D01*
X4197323D01*
Y4777480D01*
X4202362D01*
Y4767401D01*
X4207402D01*
Y4752283D01*
X4212441D01*
Y4722047D01*
X4207402D01*
Y4706929D01*
X4202362D01*
Y4701890D01*
X4197323D01*
Y4696850D01*
X4192283D01*
Y4691811D01*
X4187244D01*
Y4686772D01*
X4182205D01*
Y4681732D01*
X4172126D01*
Y4676693D01*
X4131811D01*
Y4681732D01*
X4121732D01*
Y4686772D01*
X4111653D01*
Y4691811D01*
X4106614D01*
Y4696850D01*
X4101575D01*
Y4701890D01*
X4096535D01*
Y4711968D01*
X4091496D01*
Y4717008D01*
Y4722047D01*
Y4732126D01*
X4086457D01*
Y4747244D01*
X4091496D01*
Y4762362D01*
X4096535D01*
Y4772441D01*
X4101575D01*
Y4777480D01*
X4106614D01*
Y4782520D01*
X4111653D01*
Y4787559D01*
X4116693D01*
Y4792598D01*
X4126772D01*
Y4797638D01*
X4172126D01*
Y4792598D01*
D02*
G37*
%LPC*%
G36*
Y4782520D02*
X4131811D01*
Y4777480D01*
X4121732D01*
Y4772441D01*
X4116693D01*
Y4767401D01*
X4111653D01*
Y4762362D01*
Y4757323D01*
X4106614D01*
Y4742205D01*
X4101575D01*
Y4732126D01*
X4106614D01*
Y4717008D01*
X4111653D01*
Y4706929D01*
X4116693D01*
Y4701890D01*
X4121732D01*
Y4696850D01*
X4131811D01*
Y4691811D01*
X4167087D01*
Y4696850D01*
X4177165D01*
Y4701890D01*
X4182205D01*
Y4706929D01*
X4187244D01*
Y4711968D01*
X4192283D01*
Y4722047D01*
X4197323D01*
Y4752283D01*
X4192283D01*
Y4762362D01*
X4187244D01*
Y4767401D01*
X4182205D01*
Y4772441D01*
X4177165D01*
Y4777480D01*
X4172126D01*
Y4782520D01*
D02*
G37*
%LPD*%
G36*
X4519843Y4545669D02*
X4540000D01*
Y4540630D01*
X4550079D01*
Y4535591D01*
X4555118D01*
Y4530551D01*
X4565197D01*
Y4525512D01*
X4570236D01*
Y4520472D01*
X4575276D01*
Y4510394D01*
X4580315D01*
Y4500315D01*
X4585354D01*
Y4490236D01*
X4590394D01*
Y4444882D01*
X4585354D01*
Y4434803D01*
X4580315D01*
Y4424724D01*
X4575276D01*
Y4419685D01*
X4570236D01*
Y4409606D01*
X4560158D01*
Y4404567D01*
X4555118D01*
Y4399527D01*
X4550079D01*
Y4394488D01*
X4534961D01*
Y4389449D01*
X4484567D01*
Y4394488D01*
X4469449D01*
Y4399527D01*
X4464409D01*
Y4404567D01*
X4459370D01*
Y4409606D01*
X4449291D01*
Y4419685D01*
X4444252D01*
Y4424724D01*
X4439213D01*
Y4434803D01*
X4434173D01*
Y4444882D01*
X4429134D01*
Y4490236D01*
X4434173D01*
Y4500315D01*
X4439213D01*
Y4510394D01*
X4444252D01*
Y4515433D01*
X4449291D01*
Y4525512D01*
X4454331D01*
Y4530551D01*
X4464409D01*
Y4535591D01*
X4469449D01*
Y4540630D01*
X4479527D01*
Y4545669D01*
X4499685D01*
Y4550709D01*
X4519843D01*
Y4545669D01*
D02*
G37*
%LPC*%
G36*
Y4535591D02*
X4499685D01*
Y4530551D01*
X4484567D01*
Y4525512D01*
X4474488D01*
Y4520472D01*
X4464409D01*
Y4515433D01*
X4459370D01*
Y4505354D01*
X4454331D01*
Y4500315D01*
X4449291D01*
Y4485197D01*
X4444252D01*
Y4449921D01*
X4449291D01*
Y4434803D01*
X4454331D01*
Y4429764D01*
X4459370D01*
Y4424724D01*
X4464409D01*
Y4419685D01*
X4469449D01*
Y4414646D01*
X4474488D01*
Y4409606D01*
X4484567D01*
Y4404567D01*
X4534961D01*
Y4409606D01*
X4545039D01*
Y4414646D01*
X4550079D01*
Y4419685D01*
X4560158D01*
Y4429764D01*
X4565197D01*
Y4434803D01*
X4570236D01*
Y4449921D01*
X4575276D01*
Y4485197D01*
X4570236D01*
Y4500315D01*
X4565197D01*
Y4505354D01*
X4560158D01*
Y4515433D01*
X4555118D01*
Y4520472D01*
X4545039D01*
Y4525512D01*
X4540000D01*
Y4530551D01*
X4519843D01*
Y4535591D01*
D02*
G37*
%LPD*%
D23*
X5207835Y4162320D02*
X5228995Y4183479D01*
X5271315D01*
X5292475Y4162320D01*
Y4077680D01*
X5271315Y4056520D01*
X5228995D01*
X5207835Y4077680D01*
X5165516Y4056520D02*
Y4141160D01*
X5123196Y4183479D01*
X5080877Y4141160D01*
Y4056520D01*
Y4120000D01*
X5165516D01*
X5038557Y4056520D02*
Y4183479D01*
X4953918Y4056520D01*
Y4183479D01*
X4700000Y4162320D02*
X4721160Y4183479D01*
X4763480D01*
X4784639Y4162320D01*
Y4141160D01*
X4763480Y4120000D01*
X4721160D01*
X4700000Y4098840D01*
Y4077680D01*
X4721160Y4056520D01*
X4763480D01*
X4784639Y4077680D01*
X4657681Y4183479D02*
Y4056520D01*
Y4120000D01*
X4636521Y4141160D01*
X4594201D01*
X4573041Y4120000D01*
Y4056520D01*
X4530722D02*
X4488402D01*
X4509562D01*
Y4141160D01*
X4530722D01*
X4361443Y4056520D02*
X4403763D01*
X4424923Y4077680D01*
Y4120000D01*
X4403763Y4141160D01*
X4361443D01*
X4340283Y4120000D01*
Y4098840D01*
X4424923D01*
X4297964Y4056520D02*
X4255644D01*
X4276804D01*
Y4183479D01*
X4297964D01*
X4107525D02*
Y4056520D01*
X4171005D01*
X4192165Y4077680D01*
Y4120000D01*
X4171005Y4141160D01*
X4107525D01*
X5163196Y3856521D02*
Y3983479D01*
X5120876Y3941160D01*
X5078557Y3983479D01*
Y3856521D01*
X4951598Y3962320D02*
X4972758Y3983479D01*
X5015078D01*
X5036237Y3962320D01*
Y3877680D01*
X5015078Y3856521D01*
X4972758D01*
X4951598Y3877680D01*
Y3920000D01*
X4993918D01*
X4697680Y3856521D02*
X4782320D01*
X4697680Y3941160D01*
Y3962320D01*
X4718840Y3983479D01*
X4761160D01*
X4782320Y3962320D01*
X4655361D02*
X4634201Y3983479D01*
X4591881D01*
X4570721Y3962320D01*
Y3877680D01*
X4591881Y3856521D01*
X4634201D01*
X4655361Y3877680D01*
Y3962320D01*
X4443763Y3856521D02*
X4528402D01*
X4443763Y3941160D01*
Y3962320D01*
X4464922Y3983479D01*
X4507242D01*
X4528402Y3962320D01*
X4401443D02*
X4380283Y3983479D01*
X4337964D01*
X4316804Y3962320D01*
Y3941160D01*
X4337964Y3920000D01*
X4359123D01*
X4337964D01*
X4316804Y3898840D01*
Y3877680D01*
X4337964Y3856521D01*
X4380283D01*
X4401443Y3877680D01*
%TF.MD5,4c0f85eb2acfe16bcfa35285e569642e*%
M02*
