%TF.GenerationSoftware,Altium Limited,Altium Designer,23.7.1 (13)*%
G04 Layer_Color=8388736*
%FSLAX45Y45*%
%MOMM*%
%TF.SameCoordinates,324F84FA-45DE-4E37-BCC6-85F6FB8D9206*%
%TF.FilePolarity,Negative*%
%TF.FileFunction,Soldermask,Top*%
%TF.Part,Single*%
G01*
G75*
%TA.AperFunction,SMDPad,CuDef*%
G04:AMPARAMS|DCode=14|XSize=1.9mm|YSize=0.6mm|CornerRadius=0.3mm|HoleSize=0mm|Usage=FLASHONLY|Rotation=270.000|XOffset=0mm|YOffset=0mm|HoleType=Round|Shape=RoundedRectangle|*
%AMROUNDEDRECTD14*
21,1,1.90000,0.00000,0,0,270.0*
21,1,1.30000,0.60000,0,0,270.0*
1,1,0.60000,0.00000,-0.65000*
1,1,0.60000,0.00000,0.65000*
1,1,0.60000,0.00000,0.65000*
1,1,0.60000,0.00000,-0.65000*
%
%ADD14ROUNDEDRECTD14*%
%ADD15R,1.55000X0.60000*%
%ADD25R,1.40320X1.40320*%
%ADD26R,1.55320X1.05320*%
%ADD27R,1.05320X1.55320*%
%ADD28R,0.60320X2.20320*%
%TA.AperFunction,ComponentPad*%
%ADD29C,1.80320*%
%ADD30R,1.77820X1.77820*%
%ADD31C,1.77820*%
D14*
X5208001Y3379998D02*
D03*
X5081001D02*
D03*
X4954001D02*
D03*
X4827001D02*
D03*
X4700001D02*
D03*
X4573001D02*
D03*
X4446001D02*
D03*
X4319001D02*
D03*
X4192001D02*
D03*
Y4320002D02*
D03*
X4319001D02*
D03*
X4446001D02*
D03*
X4573001D02*
D03*
X4700001D02*
D03*
X4827001D02*
D03*
X4954001D02*
D03*
X5081001D02*
D03*
X5208001D02*
D03*
D15*
X5120000Y5290500D02*
D03*
Y5163500D02*
D03*
Y5036500D02*
D03*
Y4909500D02*
D03*
X4580001D02*
D03*
Y5036500D02*
D03*
Y5163500D02*
D03*
Y5290500D02*
D03*
D25*
X3960000Y6415000D02*
D03*
Y6204998D02*
D03*
D26*
X5449999Y6207500D02*
D03*
Y6372499D02*
D03*
D27*
X5035001Y3050002D02*
D03*
X5200000D02*
D03*
D28*
X4520001Y4600001D02*
D03*
X4400001D02*
D03*
X4280002D02*
D03*
D29*
X5459500Y3090500D02*
D03*
X3935500Y5884500D02*
D03*
Y5630500D02*
D03*
Y5376500D02*
D03*
Y5122500D02*
D03*
Y4868500D02*
D03*
Y4614500D02*
D03*
Y4360500D02*
D03*
Y4106500D02*
D03*
Y3852500D02*
D03*
Y3598500D02*
D03*
Y3344500D02*
D03*
X5459500D02*
D03*
Y3598500D02*
D03*
Y3852500D02*
D03*
Y4106500D02*
D03*
Y4360500D02*
D03*
Y4614500D02*
D03*
Y4868500D02*
D03*
Y5122500D02*
D03*
Y5376500D02*
D03*
Y5630500D02*
D03*
Y5884500D02*
D03*
X3935500Y3090500D02*
D03*
D30*
X5050003Y5799999D02*
D03*
D31*
X4800001D02*
D03*
X4549999D02*
D03*
X4300002D02*
D03*
%TF.MD5,bdb903e8abe43f6708114c6ed5625e07*%
M02*
