%TF.GenerationSoftware,Altium Limited,Altium Designer,23.7.1 (13)*%
G04 Layer_Physical_Order=1*
G04 Layer_Color=255*
%FSLAX45Y45*%
%MOMM*%
%TF.SameCoordinates,324F84FA-45DE-4E37-BCC6-85F6FB8D9206*%
%TF.FilePolarity,Positive*%
%TF.FileFunction,Copper,L1,Top,Signal*%
%TF.Part,Single*%
G01*
G75*
%TA.AperFunction,SMDPad,CuDef*%
%ADD10R,1.20000X1.20000*%
%ADD11R,1.35000X0.85000*%
%ADD12R,0.85000X1.35000*%
%ADD13R,0.40000X2.00000*%
G04:AMPARAMS|DCode=14|XSize=1.9mm|YSize=0.6mm|CornerRadius=0.3mm|HoleSize=0mm|Usage=FLASHONLY|Rotation=270.000|XOffset=0mm|YOffset=0mm|HoleType=Round|Shape=RoundedRectangle|*
%AMROUNDEDRECTD14*
21,1,1.90000,0.00000,0,0,270.0*
21,1,1.30000,0.60000,0,0,270.0*
1,1,0.60000,0.00000,-0.65000*
1,1,0.60000,0.00000,0.65000*
1,1,0.60000,0.00000,0.65000*
1,1,0.60000,0.00000,-0.65000*
%
%ADD14ROUNDEDRECTD14*%
%ADD15R,1.55000X0.60000*%
%TA.AperFunction,Conductor*%
%ADD16C,0.30480*%
%TA.AperFunction,ComponentPad*%
%ADD17C,1.60000*%
%ADD18R,1.57500X1.57500*%
%ADD19C,1.57500*%
%TA.AperFunction,ViaPad*%
%ADD20C,0.70000*%
G36*
X5650000Y2900000D02*
X3750000D01*
Y6500000D01*
X3886334D01*
X3887300Y6487700D01*
X3887300Y6487300D01*
Y6342300D01*
X4032700D01*
Y6344011D01*
X5369799D01*
Y6317299D01*
X5530199D01*
Y6427699D01*
X5369799D01*
Y6400986D01*
X4032700D01*
Y6487300D01*
X4032700Y6487700D01*
X4033665Y6500000D01*
X5650000D01*
Y2900000D01*
D02*
G37*
%LPC*%
G36*
X4045400Y6290398D02*
X3972700D01*
Y6217697D01*
X4045400D01*
Y6290398D01*
D02*
G37*
G36*
X3947300D02*
X3874600D01*
Y6217697D01*
X3947300D01*
Y6290398D01*
D02*
G37*
G36*
X4045400Y6192297D02*
X3972700D01*
Y6119598D01*
X4045400D01*
Y6192297D01*
D02*
G37*
G36*
X3947300D02*
X3874600D01*
Y6119598D01*
X3947300D01*
Y6192297D01*
D02*
G37*
G36*
X5154153Y5904148D02*
X5062703D01*
Y5812699D01*
X5154153D01*
Y5904148D01*
D02*
G37*
G36*
X5037303D02*
X4945853D01*
Y5812699D01*
X5037303D01*
Y5904148D01*
D02*
G37*
G36*
X3948665Y5984500D02*
X3922335D01*
X3896902Y5977685D01*
X3874099Y5964520D01*
X3855480Y5945901D01*
X3842315Y5923098D01*
X3835500Y5897665D01*
Y5871335D01*
X3842315Y5845902D01*
X3855480Y5823099D01*
X3874099Y5804480D01*
X3896902Y5791315D01*
X3922335Y5784500D01*
X3948665D01*
X3974098Y5791315D01*
X3996901Y5804480D01*
X4015520Y5823099D01*
X4028685Y5845902D01*
X4035500Y5871335D01*
Y5897665D01*
X4028685Y5923098D01*
X4015520Y5945901D01*
X3996901Y5964520D01*
X3974098Y5977685D01*
X3948665Y5984500D01*
D02*
G37*
G36*
X5530199Y6262700D02*
X5369799D01*
Y6192588D01*
X5316396Y6139185D01*
X5310221Y6129943D01*
X5308052Y6119041D01*
X5308053Y6119040D01*
Y4787955D01*
X5295353Y4782695D01*
X5210200Y4867848D01*
Y4952200D01*
X5029800D01*
Y4937987D01*
X4924160D01*
X4805504Y5056644D01*
X4796262Y5062819D01*
X4785360Y5064988D01*
X4785359Y5064987D01*
X4670201D01*
Y5079200D01*
X4489801D01*
Y5079200D01*
X4482760Y5076284D01*
X4328489Y5230555D01*
Y5705398D01*
X4338118Y5707978D01*
X4360635Y5720979D01*
X4379021Y5739365D01*
X4386033Y5751509D01*
X4398733Y5748106D01*
Y5333681D01*
X4398732Y5333680D01*
X4400901Y5322778D01*
X4407076Y5313536D01*
X4450256Y5270357D01*
X4450256Y5270356D01*
X4459498Y5264181D01*
X4470400Y5262013D01*
X4489801D01*
Y5247800D01*
X4670201D01*
Y5333200D01*
X4489801D01*
Y5329347D01*
X4477101Y5324086D01*
X4455707Y5345480D01*
Y5740415D01*
X4468407Y5743819D01*
X4470979Y5739365D01*
X4489365Y5720979D01*
X4511883Y5707978D01*
X4536998Y5701249D01*
X4562999D01*
X4588115Y5707978D01*
X4610632Y5720979D01*
X4629018Y5739365D01*
X4642019Y5761883D01*
X4648748Y5786998D01*
Y5812999D01*
X4642019Y5838115D01*
X4629018Y5860632D01*
X4610632Y5879018D01*
X4588115Y5892019D01*
X4562999Y5898748D01*
X4536998D01*
X4511883Y5892019D01*
X4489365Y5879018D01*
X4470979Y5860632D01*
X4468407Y5856179D01*
X4455707Y5859582D01*
Y5862319D01*
X4455708Y5862320D01*
X4453539Y5873222D01*
X4447364Y5882464D01*
X4447363Y5882464D01*
X4388944Y5940884D01*
X4379702Y5947059D01*
X4368800Y5949228D01*
X4368799Y5949227D01*
X4170740D01*
X4159838Y5947059D01*
X4150596Y5940884D01*
X4150596Y5940883D01*
X4099736Y5890024D01*
X4093561Y5880782D01*
X4091392Y5869880D01*
X4091393Y5869879D01*
Y4170681D01*
X4091392Y4170680D01*
X4093561Y4159778D01*
X4099736Y4150536D01*
X4125136Y4125137D01*
X4125136Y4125136D01*
X4134378Y4118961D01*
X4145280Y4116793D01*
X5136879D01*
X5136881Y4116792D01*
X5147782Y4118961D01*
X5157024Y4125136D01*
X5228144Y4196256D01*
X5228144Y4196256D01*
X5234320Y4205498D01*
X5235828Y4213079D01*
X5239473Y4216244D01*
X5250193Y4211883D01*
X5252173Y4209681D01*
Y3478607D01*
X5239473Y3474755D01*
X5238786Y3475783D01*
X5224661Y3485221D01*
X5208001Y3488535D01*
X5191340Y3485221D01*
X5177216Y3475783D01*
X5167778Y3461659D01*
X5164464Y3444998D01*
Y3314998D01*
X5167778Y3298338D01*
X5175513Y3286763D01*
Y3130202D01*
X5144800D01*
Y2969802D01*
X5255200D01*
Y3130202D01*
X5232488D01*
Y3280005D01*
X5238786Y3284214D01*
X5248223Y3298338D01*
X5251537Y3314998D01*
Y3338088D01*
X5255260Y3349712D01*
X5266162Y3351881D01*
X5275404Y3358056D01*
X5300803Y3383456D01*
X5300804Y3383456D01*
X5306979Y3392698D01*
X5309147Y3403600D01*
Y3944605D01*
X5321847Y3949866D01*
X5371549Y3900164D01*
X5366315Y3891098D01*
X5359500Y3865665D01*
Y3839335D01*
X5366315Y3813902D01*
X5379480Y3791099D01*
X5398099Y3772480D01*
X5420902Y3759315D01*
X5446335Y3752500D01*
X5472665D01*
X5498098Y3759315D01*
X5520901Y3772480D01*
X5539520Y3791099D01*
X5552685Y3813902D01*
X5559500Y3839335D01*
Y3865665D01*
X5552685Y3891098D01*
X5539520Y3913901D01*
X5520901Y3932520D01*
X5498098Y3945685D01*
X5472665Y3952500D01*
X5446335D01*
X5420902Y3945685D01*
X5411837Y3940451D01*
X5365027Y3987261D01*
Y4044732D01*
X5377727Y4048135D01*
X5379480Y4045099D01*
X5398099Y4026480D01*
X5420902Y4013315D01*
X5446335Y4006500D01*
X5472665D01*
X5498098Y4013315D01*
X5520901Y4026480D01*
X5539520Y4045099D01*
X5552685Y4067902D01*
X5559500Y4093335D01*
Y4119665D01*
X5552685Y4145098D01*
X5539520Y4167901D01*
X5520901Y4186520D01*
X5498098Y4199685D01*
X5472665Y4206500D01*
X5446335D01*
X5420902Y4199685D01*
X5398099Y4186520D01*
X5379480Y4167901D01*
X5377727Y4164865D01*
X5365027Y4168268D01*
Y4298732D01*
X5377727Y4302135D01*
X5379480Y4299099D01*
X5398099Y4280480D01*
X5420902Y4267315D01*
X5446335Y4260500D01*
X5472665D01*
X5498098Y4267315D01*
X5520901Y4280480D01*
X5539520Y4299099D01*
X5552685Y4321902D01*
X5559500Y4347335D01*
Y4373665D01*
X5552685Y4399098D01*
X5539520Y4421901D01*
X5520901Y4440520D01*
X5498098Y4453685D01*
X5472665Y4460500D01*
X5446335D01*
X5420902Y4453685D01*
X5398099Y4440520D01*
X5379480Y4421901D01*
X5377727Y4418865D01*
X5365027Y4422268D01*
Y4552732D01*
X5377727Y4556135D01*
X5379480Y4553099D01*
X5398099Y4534480D01*
X5420902Y4521315D01*
X5446335Y4514500D01*
X5472665D01*
X5498098Y4521315D01*
X5520901Y4534480D01*
X5539520Y4553099D01*
X5552685Y4575902D01*
X5559500Y4601335D01*
Y4627665D01*
X5552685Y4653098D01*
X5539520Y4675901D01*
X5520901Y4694520D01*
X5498098Y4707685D01*
X5472665Y4714500D01*
X5446335D01*
X5420902Y4707685D01*
X5398099Y4694520D01*
X5379480Y4675901D01*
X5377727Y4672865D01*
X5365027Y4676268D01*
Y4806732D01*
X5377727Y4810135D01*
X5379480Y4807099D01*
X5398099Y4788480D01*
X5420902Y4775315D01*
X5446335Y4768500D01*
X5472665D01*
X5498098Y4775315D01*
X5520901Y4788480D01*
X5539520Y4807099D01*
X5552685Y4829902D01*
X5559500Y4855335D01*
Y4881665D01*
X5552685Y4907098D01*
X5539520Y4929901D01*
X5520901Y4948520D01*
X5498098Y4961685D01*
X5472665Y4968500D01*
X5446335D01*
X5420902Y4961685D01*
X5398099Y4948520D01*
X5379480Y4929901D01*
X5377727Y4926865D01*
X5365027Y4930268D01*
Y5051582D01*
X5377727Y5055214D01*
X5394783Y5038159D01*
X5418817Y5024283D01*
X5445624Y5017100D01*
X5446800D01*
Y5122501D01*
Y5227900D01*
X5445624D01*
X5418817Y5220717D01*
X5394783Y5206841D01*
X5377727Y5189786D01*
X5365027Y5193418D01*
Y5305582D01*
X5377727Y5309214D01*
X5394783Y5292159D01*
X5418817Y5278283D01*
X5445624Y5271100D01*
X5446800D01*
Y5376501D01*
Y5481900D01*
X5445624D01*
X5418817Y5474717D01*
X5394783Y5460841D01*
X5377727Y5443786D01*
X5365027Y5447418D01*
Y5568732D01*
X5377727Y5572135D01*
X5379480Y5569099D01*
X5398099Y5550480D01*
X5420902Y5537315D01*
X5446335Y5530500D01*
X5472665D01*
X5498098Y5537315D01*
X5520901Y5550480D01*
X5539520Y5569099D01*
X5552685Y5591902D01*
X5559500Y5617335D01*
Y5643665D01*
X5552685Y5669098D01*
X5539520Y5691901D01*
X5520901Y5710520D01*
X5498098Y5723685D01*
X5472665Y5730500D01*
X5446335D01*
X5420902Y5723685D01*
X5398099Y5710520D01*
X5379480Y5691901D01*
X5377727Y5688865D01*
X5365027Y5692268D01*
Y5822732D01*
X5377727Y5826135D01*
X5379480Y5823099D01*
X5398099Y5804480D01*
X5420902Y5791315D01*
X5446335Y5784500D01*
X5472665D01*
X5498098Y5791315D01*
X5520901Y5804480D01*
X5539520Y5823099D01*
X5552685Y5845902D01*
X5559500Y5871335D01*
Y5897665D01*
X5552685Y5923098D01*
X5539520Y5945901D01*
X5520901Y5964520D01*
X5498098Y5977685D01*
X5472665Y5984500D01*
X5446335D01*
X5420902Y5977685D01*
X5398099Y5964520D01*
X5379480Y5945901D01*
X5377727Y5942865D01*
X5365027Y5946268D01*
Y6107241D01*
X5410087Y6152300D01*
X5530199D01*
Y6262700D01*
D02*
G37*
G36*
X5154153Y5787299D02*
X5062703D01*
Y5695849D01*
X5154153D01*
Y5787299D01*
D02*
G37*
G36*
X3949376Y5735900D02*
X3948200D01*
Y5643201D01*
X4040900D01*
Y5644376D01*
X4033717Y5671183D01*
X4019841Y5695217D01*
X4000217Y5714841D01*
X3976183Y5728717D01*
X3949376Y5735900D01*
D02*
G37*
G36*
X3922800D02*
X3921624D01*
X3894817Y5728717D01*
X3870783Y5714841D01*
X3851159Y5695217D01*
X3837283Y5671183D01*
X3830100Y5644376D01*
Y5643201D01*
X3922800D01*
Y5735900D01*
D02*
G37*
G36*
X4040900Y5617801D02*
X3948200D01*
Y5525100D01*
X3949376D01*
X3976183Y5532283D01*
X4000217Y5546159D01*
X4019841Y5565783D01*
X4033717Y5589817D01*
X4040900Y5616624D01*
Y5617801D01*
D02*
G37*
G36*
X3922800D02*
X3830100D01*
Y5616624D01*
X3837283Y5589817D01*
X3851159Y5565783D01*
X3870783Y5546159D01*
X3894817Y5532283D01*
X3921624Y5525100D01*
X3922800D01*
Y5617801D01*
D02*
G37*
G36*
X5473376Y5481900D02*
X5472200D01*
Y5389201D01*
X5564900D01*
Y5390376D01*
X5557717Y5417183D01*
X5543841Y5441217D01*
X5524217Y5460841D01*
X5500183Y5474717D01*
X5473376Y5481900D01*
D02*
G37*
G36*
X5107300Y5345900D02*
X5017100D01*
Y5303200D01*
X5107300D01*
Y5345900D01*
D02*
G37*
G36*
X3948665Y5476500D02*
X3922335D01*
X3896902Y5469685D01*
X3874099Y5456520D01*
X3855480Y5437901D01*
X3842315Y5415098D01*
X3835500Y5389665D01*
Y5363335D01*
X3842315Y5337902D01*
X3855480Y5315099D01*
X3874099Y5296480D01*
X3896902Y5283315D01*
X3922335Y5276500D01*
X3948665D01*
X3974098Y5283315D01*
X3996901Y5296480D01*
X4015520Y5315099D01*
X4028685Y5337902D01*
X4035500Y5363335D01*
Y5389665D01*
X4028685Y5415098D01*
X4015520Y5437901D01*
X3996901Y5456520D01*
X3974098Y5469685D01*
X3948665Y5476500D01*
D02*
G37*
G36*
X5564900Y5363801D02*
X5472200D01*
Y5271100D01*
X5473376D01*
X5500183Y5278283D01*
X5524217Y5292159D01*
X5543841Y5311783D01*
X5557717Y5335817D01*
X5564900Y5362624D01*
Y5363801D01*
D02*
G37*
G36*
X5107300Y5277800D02*
X5017100D01*
Y5235100D01*
X5107300D01*
Y5277800D01*
D02*
G37*
G36*
X4682901Y5218900D02*
X4592701D01*
Y5176200D01*
X4682901D01*
Y5218900D01*
D02*
G37*
G36*
X4567301D02*
X4477101D01*
Y5176200D01*
X4567301D01*
Y5218900D01*
D02*
G37*
G36*
X5473376Y5227900D02*
X5472200D01*
Y5135201D01*
X5564900D01*
Y5136376D01*
X5557717Y5163183D01*
X5543841Y5187217D01*
X5524217Y5206841D01*
X5500183Y5220717D01*
X5473376Y5227900D01*
D02*
G37*
G36*
X4813001Y5898748D02*
X4787000D01*
X4761885Y5892019D01*
X4739367Y5879018D01*
X4720981Y5860632D01*
X4707980Y5838115D01*
X4701251Y5812999D01*
Y5786998D01*
X4707980Y5761883D01*
X4720981Y5739365D01*
X4739367Y5720979D01*
X4761885Y5707978D01*
X4787000Y5701249D01*
X4813001D01*
X4838117Y5707978D01*
X4846749Y5712962D01*
X5201112Y5358600D01*
X5195851Y5345900D01*
X5132700D01*
Y5290500D01*
Y5235100D01*
X5211533D01*
Y5208320D01*
X5209413Y5206200D01*
X5029800D01*
Y5120800D01*
X5210200D01*
Y5135649D01*
X5217902Y5137181D01*
X5227144Y5143356D01*
X5260163Y5176376D01*
X5260164Y5176376D01*
X5266339Y5185618D01*
X5268508Y5196520D01*
X5268507Y5196521D01*
Y5359978D01*
X5268508Y5359979D01*
X5266339Y5370881D01*
X5260164Y5380123D01*
X4957138Y5683149D01*
X4962399Y5695849D01*
X5037303D01*
Y5787299D01*
X4945853D01*
Y5712394D01*
X4933153Y5707134D01*
X4887037Y5753250D01*
X4892021Y5761883D01*
X4898750Y5786998D01*
Y5812999D01*
X4892021Y5838115D01*
X4879020Y5860632D01*
X4860634Y5879018D01*
X4838117Y5892019D01*
X4813001Y5898748D01*
D02*
G37*
G36*
X4682901Y5150800D02*
X4592701D01*
Y5108100D01*
X4682901D01*
Y5150800D01*
D02*
G37*
G36*
X4567301D02*
X4477101D01*
Y5108100D01*
X4567301D01*
Y5150800D01*
D02*
G37*
G36*
X3948665Y5222500D02*
X3922335D01*
X3896902Y5215685D01*
X3874099Y5202520D01*
X3855480Y5183901D01*
X3842315Y5161098D01*
X3835500Y5135665D01*
Y5109335D01*
X3842315Y5083902D01*
X3855480Y5061099D01*
X3874099Y5042480D01*
X3896902Y5029315D01*
X3922335Y5022500D01*
X3948665D01*
X3974098Y5029315D01*
X3996901Y5042480D01*
X4015520Y5061099D01*
X4028685Y5083902D01*
X4035500Y5109335D01*
Y5135665D01*
X4028685Y5161098D01*
X4015520Y5183901D01*
X3996901Y5202520D01*
X3974098Y5215685D01*
X3948665Y5222500D01*
D02*
G37*
G36*
X5564900Y5109801D02*
X5472200D01*
Y5017100D01*
X5473376D01*
X5500183Y5024283D01*
X5524217Y5038159D01*
X5543841Y5057783D01*
X5557717Y5081817D01*
X5564900Y5108624D01*
Y5109801D01*
D02*
G37*
G36*
X4979180Y5091500D02*
X4957300D01*
X4937085Y5083126D01*
X4921613Y5067655D01*
X4913240Y5047440D01*
Y5025560D01*
X4921613Y5005345D01*
X4937085Y4989873D01*
X4957300Y4981500D01*
X4979180D01*
X4999395Y4989873D01*
X5014867Y5005345D01*
X5015971Y5008013D01*
X5029800D01*
Y4993800D01*
X5210200D01*
Y5079200D01*
X5029800D01*
Y5064987D01*
X5015971D01*
X5014867Y5067655D01*
X4999395Y5083126D01*
X4979180Y5091500D01*
D02*
G37*
G36*
X3948665Y4968500D02*
X3922335D01*
X3896902Y4961685D01*
X3874099Y4948520D01*
X3855480Y4929901D01*
X3842315Y4907098D01*
X3835500Y4881665D01*
Y4855335D01*
X3842315Y4829902D01*
X3855480Y4807099D01*
X3874099Y4788480D01*
X3896902Y4775315D01*
X3922335Y4768500D01*
X3948665D01*
X3974098Y4775315D01*
X3996901Y4788480D01*
X4015520Y4807099D01*
X4028685Y4829902D01*
X4035500Y4855335D01*
Y4881665D01*
X4028685Y4907098D01*
X4015520Y4929901D01*
X3996901Y4948520D01*
X3974098Y4961685D01*
X3948665Y4968500D01*
D02*
G37*
G36*
Y4714500D02*
X3922335D01*
X3896902Y4707685D01*
X3874099Y4694520D01*
X3855480Y4675901D01*
X3842315Y4653098D01*
X3835500Y4627665D01*
Y4601335D01*
X3842315Y4575902D01*
X3855480Y4553099D01*
X3874099Y4534480D01*
X3896902Y4521315D01*
X3922335Y4514500D01*
X3948665D01*
X3974098Y4521315D01*
X3996901Y4534480D01*
X4015520Y4553099D01*
X4028685Y4575902D01*
X4035500Y4601335D01*
Y4627665D01*
X4028685Y4653098D01*
X4015520Y4675901D01*
X3996901Y4694520D01*
X3974098Y4707685D01*
X3948665Y4714500D01*
D02*
G37*
G36*
Y4460500D02*
X3922335D01*
X3896902Y4453685D01*
X3874099Y4440520D01*
X3855480Y4421901D01*
X3842315Y4399098D01*
X3835500Y4373665D01*
Y4347335D01*
X3842315Y4321902D01*
X3855480Y4299099D01*
X3874099Y4280480D01*
X3896902Y4267315D01*
X3922335Y4260500D01*
X3948665D01*
X3974098Y4267315D01*
X3996901Y4280480D01*
X4015520Y4299099D01*
X4028685Y4321902D01*
X4035500Y4347335D01*
Y4373665D01*
X4028685Y4399098D01*
X4015520Y4421901D01*
X3996901Y4440520D01*
X3974098Y4453685D01*
X3948665Y4460500D01*
D02*
G37*
G36*
Y4206500D02*
X3922335D01*
X3896902Y4199685D01*
X3874099Y4186520D01*
X3855480Y4167901D01*
X3842315Y4145098D01*
X3835500Y4119665D01*
Y4093335D01*
X3842315Y4067902D01*
X3855480Y4045099D01*
X3874099Y4026480D01*
X3896902Y4013315D01*
X3922335Y4006500D01*
X3948665D01*
X3974098Y4013315D01*
X3996901Y4026480D01*
X4015520Y4045099D01*
X4028685Y4067902D01*
X4035500Y4093335D01*
Y4119665D01*
X4028685Y4145098D01*
X4015520Y4167901D01*
X3996901Y4186520D01*
X3974098Y4199685D01*
X3948665Y4206500D01*
D02*
G37*
G36*
X5472665Y3698500D02*
X5446335D01*
X5420902Y3691685D01*
X5398099Y3678520D01*
X5379480Y3659901D01*
X5366315Y3637098D01*
X5359500Y3611665D01*
Y3585335D01*
X5366315Y3559902D01*
X5379480Y3537099D01*
X5398099Y3518480D01*
X5420902Y3505315D01*
X5446335Y3498500D01*
X5472665D01*
X5498098Y3505315D01*
X5520901Y3518480D01*
X5539520Y3537099D01*
X5552685Y3559902D01*
X5559500Y3585335D01*
Y3611665D01*
X5552685Y3637098D01*
X5539520Y3659901D01*
X5520901Y3678520D01*
X5498098Y3691685D01*
X5472665Y3698500D01*
D02*
G37*
G36*
X3948665D02*
X3922335D01*
X3896902Y3691685D01*
X3874099Y3678520D01*
X3855480Y3659901D01*
X3842315Y3637098D01*
X3835500Y3611665D01*
Y3585335D01*
X3842315Y3559902D01*
X3847550Y3550835D01*
X3792396Y3495682D01*
X3786221Y3486440D01*
X3784052Y3475538D01*
X3784053Y3475537D01*
Y2997201D01*
X3784052Y2997200D01*
X3786221Y2986298D01*
X3792396Y2977056D01*
X3820336Y2949117D01*
X3820336Y2949116D01*
X3829578Y2942941D01*
X3840480Y2940773D01*
X4551679D01*
X4551680Y2940772D01*
X4562582Y2942941D01*
X4571824Y2949116D01*
X4847144Y3224437D01*
X4847144Y3224437D01*
X4853320Y3233679D01*
X4855488Y3244581D01*
X4855488Y3244582D01*
Y3282678D01*
X4857786Y3284214D01*
X4867223Y3298338D01*
X4870537Y3314998D01*
Y3444998D01*
X4867223Y3461659D01*
X4857786Y3475783D01*
X4843661Y3485221D01*
X4827001Y3488535D01*
X4810340Y3485221D01*
X4796216Y3475783D01*
X4786778Y3461659D01*
X4783464Y3444998D01*
Y3314998D01*
X4786778Y3298338D01*
X4796216Y3284214D01*
X4798513Y3282678D01*
Y3256381D01*
X4539880Y2997747D01*
X3999382D01*
X3996094Y3010015D01*
X3996901Y3010480D01*
X4015520Y3029099D01*
X4028685Y3051902D01*
X4035500Y3077335D01*
Y3103665D01*
X4028685Y3129098D01*
X4015520Y3151901D01*
X3996901Y3170520D01*
X3974098Y3183685D01*
X3948665Y3190500D01*
X3922335D01*
X3896902Y3183685D01*
X3874099Y3170520D01*
X3855480Y3151901D01*
X3853727Y3148865D01*
X3841027Y3152268D01*
Y3282732D01*
X3853727Y3286135D01*
X3855480Y3283099D01*
X3874099Y3264480D01*
X3896902Y3251315D01*
X3922335Y3244500D01*
X3948665D01*
X3974098Y3251315D01*
X3983164Y3256549D01*
X4030516Y3209198D01*
X4030516Y3209197D01*
X4039758Y3203022D01*
X4050660Y3200853D01*
X4050661Y3200853D01*
X4673599D01*
X4673600Y3200853D01*
X4684502Y3203022D01*
X4693744Y3209197D01*
X4720144Y3235597D01*
X4720144Y3235598D01*
X4726320Y3244840D01*
X4728488Y3255742D01*
Y3282678D01*
X4730786Y3284214D01*
X4740223Y3298338D01*
X4743537Y3314998D01*
Y3444998D01*
X4740223Y3461659D01*
X4730786Y3475783D01*
X4716661Y3485221D01*
X4700001Y3488535D01*
X4683340Y3485221D01*
X4669216Y3475783D01*
X4659778Y3461659D01*
X4656464Y3444998D01*
Y3314998D01*
X4659778Y3298338D01*
X4669216Y3284214D01*
X4671513Y3282678D01*
Y3267541D01*
X4661800Y3257828D01*
X4062460D01*
X4023451Y3296837D01*
X4028685Y3305902D01*
X4035500Y3331335D01*
Y3357665D01*
X4028685Y3383098D01*
X4015520Y3405901D01*
X3996901Y3424520D01*
X3974098Y3437685D01*
X3948665Y3444500D01*
X3922335D01*
X3896902Y3437685D01*
X3874099Y3424520D01*
X3855480Y3405901D01*
X3853727Y3402865D01*
X3841027Y3406268D01*
Y3463738D01*
X3887838Y3510548D01*
X3896902Y3505315D01*
X3922335Y3498500D01*
X3948665D01*
X3974098Y3505315D01*
X3996901Y3518480D01*
X4015520Y3537099D01*
X4028685Y3559902D01*
X4035500Y3585335D01*
Y3611665D01*
X4028685Y3637098D01*
X4015520Y3659901D01*
X3996901Y3678520D01*
X3974098Y3691685D01*
X3948665Y3698500D01*
D02*
G37*
G36*
X4964941Y3590680D02*
X4943061D01*
X4922846Y3582307D01*
X4907374Y3566835D01*
X4899001Y3546620D01*
Y3524740D01*
X4907374Y3504525D01*
X4922846Y3489053D01*
X4923340Y3488849D01*
X4923863Y3476215D01*
X4923216Y3475783D01*
X4913778Y3461659D01*
X4910464Y3444998D01*
Y3314998D01*
X4913778Y3298338D01*
X4923216Y3284214D01*
X4937340Y3274776D01*
X4954001Y3271462D01*
X4970661Y3274776D01*
X4984786Y3284214D01*
X4994223Y3298338D01*
X4997537Y3314998D01*
Y3444998D01*
X4994223Y3461659D01*
X4984786Y3475783D01*
X4984139Y3476215D01*
X4984662Y3488849D01*
X4985156Y3489053D01*
X5000627Y3504525D01*
X5009001Y3524740D01*
Y3546620D01*
X5000627Y3566835D01*
X4985156Y3582307D01*
X4964941Y3590680D01*
D02*
G37*
G36*
X3948665Y3952500D02*
X3922335D01*
X3896902Y3945685D01*
X3874099Y3932520D01*
X3855480Y3913901D01*
X3842315Y3891098D01*
X3835500Y3865665D01*
Y3839335D01*
X3842315Y3813902D01*
X3855480Y3791099D01*
X3874099Y3772480D01*
X3896902Y3759315D01*
X3922335Y3752500D01*
X3948665D01*
X3974098Y3759315D01*
X3996901Y3772480D01*
X4015520Y3791099D01*
X4028685Y3813902D01*
X4031394Y3824012D01*
X4465701D01*
X4544513Y3745200D01*
Y3477318D01*
X4542216Y3475783D01*
X4532778Y3461659D01*
X4529464Y3444998D01*
Y3314998D01*
X4532778Y3298338D01*
X4542216Y3284214D01*
X4556340Y3274776D01*
X4573001Y3271462D01*
X4589661Y3274776D01*
X4603786Y3284214D01*
X4613223Y3298338D01*
X4616537Y3314998D01*
Y3444998D01*
X4613223Y3461659D01*
X4603786Y3475783D01*
X4601488Y3477318D01*
Y3756998D01*
X4601488Y3756999D01*
X4599320Y3767901D01*
X4593144Y3777143D01*
X4593144Y3777144D01*
X4497645Y3872643D01*
X4488403Y3878818D01*
X4477501Y3880987D01*
X4477500Y3880987D01*
X4031394D01*
X4028685Y3891098D01*
X4015520Y3913901D01*
X3996901Y3932520D01*
X3974098Y3945685D01*
X3948665Y3952500D01*
D02*
G37*
G36*
X4456941Y3666880D02*
X4435061D01*
X4414846Y3658507D01*
X4399374Y3643035D01*
X4391001Y3622820D01*
Y3600940D01*
X4399374Y3580725D01*
X4414846Y3565253D01*
X4417513Y3564149D01*
Y3477318D01*
X4415216Y3475783D01*
X4405778Y3461659D01*
X4402464Y3444998D01*
Y3314998D01*
X4405778Y3298338D01*
X4415216Y3284214D01*
X4429340Y3274776D01*
X4446001Y3271462D01*
X4462661Y3274776D01*
X4476786Y3284214D01*
X4486223Y3298338D01*
X4489537Y3314998D01*
Y3444998D01*
X4486223Y3461659D01*
X4476786Y3475783D01*
X4474488Y3477318D01*
Y3564149D01*
X4477156Y3565253D01*
X4492627Y3580725D01*
X4501001Y3600940D01*
Y3622820D01*
X4492627Y3643035D01*
X4477156Y3658507D01*
X4456941Y3666880D01*
D02*
G37*
G36*
X4319001Y3488535D02*
X4302340Y3485221D01*
X4288216Y3475783D01*
X4278778Y3461659D01*
X4275464Y3444998D01*
Y3314998D01*
X4278778Y3298338D01*
X4288216Y3284214D01*
X4302340Y3274776D01*
X4319001Y3271462D01*
X4335661Y3274776D01*
X4349786Y3284214D01*
X4359223Y3298338D01*
X4362537Y3314998D01*
Y3444998D01*
X4359223Y3461659D01*
X4349786Y3475783D01*
X4335661Y3485221D01*
X4319001Y3488535D01*
D02*
G37*
G36*
X4192001D02*
X4175340Y3485221D01*
X4161216Y3475783D01*
X4151778Y3461659D01*
X4148464Y3444998D01*
Y3314998D01*
X4151778Y3298338D01*
X4161216Y3284214D01*
X4175340Y3274776D01*
X4192001Y3271462D01*
X4208661Y3274776D01*
X4222786Y3284214D01*
X4232223Y3298338D01*
X4235537Y3314998D01*
Y3444998D01*
X4232223Y3461659D01*
X4222786Y3475783D01*
X4208661Y3485221D01*
X4192001Y3488535D01*
D02*
G37*
G36*
X5472665Y3444500D02*
X5446335D01*
X5420902Y3437685D01*
X5398099Y3424520D01*
X5379480Y3405901D01*
X5366315Y3383098D01*
X5359500Y3357665D01*
Y3331335D01*
X5366315Y3305902D01*
X5379480Y3283099D01*
X5398099Y3264480D01*
X5420902Y3251315D01*
X5446335Y3244500D01*
X5472665D01*
X5498098Y3251315D01*
X5520901Y3264480D01*
X5539520Y3283099D01*
X5552685Y3305902D01*
X5559500Y3331335D01*
Y3357665D01*
X5552685Y3383098D01*
X5539520Y3405901D01*
X5520901Y3424520D01*
X5498098Y3437685D01*
X5472665Y3444500D01*
D02*
G37*
G36*
Y3190500D02*
X5446335D01*
X5420902Y3183685D01*
X5398099Y3170520D01*
X5379480Y3151901D01*
X5366315Y3129098D01*
X5359500Y3103665D01*
Y3077335D01*
X5366315Y3051902D01*
X5379480Y3029099D01*
X5398099Y3010480D01*
X5420902Y2997315D01*
X5446335Y2990500D01*
X5472665D01*
X5498098Y2997315D01*
X5520901Y3010480D01*
X5539520Y3029099D01*
X5552685Y3051902D01*
X5559500Y3077335D01*
Y3103665D01*
X5552685Y3129098D01*
X5539520Y3151901D01*
X5520901Y3170520D01*
X5498098Y3183685D01*
X5472665Y3190500D01*
D02*
G37*
G36*
X5081001Y3488535D02*
X5064340Y3485221D01*
X5050216Y3475783D01*
X5040778Y3461659D01*
X5037464Y3444998D01*
Y3314998D01*
X5040778Y3298338D01*
X5050216Y3284214D01*
X5052513Y3282678D01*
Y3248039D01*
X5014858Y3210384D01*
X5008682Y3201142D01*
X5006514Y3190240D01*
X5006514Y3190239D01*
Y3130202D01*
X4979801D01*
Y2969802D01*
X5090201D01*
Y3130202D01*
X5063489D01*
Y3178440D01*
X5101144Y3216096D01*
X5107320Y3225338D01*
X5109488Y3236239D01*
X5109488Y3236241D01*
Y3282678D01*
X5111786Y3284214D01*
X5121223Y3298338D01*
X5124537Y3314998D01*
Y3444998D01*
X5121223Y3461659D01*
X5111786Y3475783D01*
X5097661Y3485221D01*
X5081001Y3488535D01*
D02*
G37*
%LPD*%
G36*
X4240293Y5879553D02*
X4239368Y5879018D01*
X4220982Y5860632D01*
X4207981Y5838115D01*
X4201252Y5812999D01*
Y5786998D01*
X4207981Y5761883D01*
X4220982Y5739365D01*
X4239368Y5720979D01*
X4261886Y5707978D01*
X4271514Y5705398D01*
Y5218756D01*
X4271514Y5218755D01*
X4273683Y5207853D01*
X4279858Y5198611D01*
X4462112Y5016357D01*
X4462113Y5016356D01*
X4471355Y5010181D01*
X4482256Y5008012D01*
X4489801Y4998941D01*
Y4993800D01*
X4670201D01*
Y5008013D01*
X4773560D01*
X4892216Y4889357D01*
X4892216Y4889356D01*
X4901458Y4883181D01*
X4912360Y4881012D01*
X4912361Y4881013D01*
X5029800D01*
Y4866800D01*
X5130672D01*
X5252173Y4745300D01*
Y4418611D01*
X5239473Y4414758D01*
X5238786Y4415786D01*
X5224661Y4425224D01*
X5208001Y4428538D01*
X5191340Y4425224D01*
X5177216Y4415786D01*
X5167778Y4401662D01*
X5164464Y4385001D01*
Y4255002D01*
X5167778Y4238341D01*
X5176541Y4225227D01*
X5125081Y4173767D01*
X4157080D01*
X4148367Y4182480D01*
Y4202253D01*
X4161067Y4209042D01*
X4170385Y4202816D01*
X4179301Y4201043D01*
Y4320002D01*
Y4438960D01*
X4170385Y4437187D01*
X4161067Y4430961D01*
X4148367Y4437750D01*
Y5858080D01*
X4182540Y5892253D01*
X4236890D01*
X4240293Y5879553D01*
D02*
G37*
%LPC*%
G36*
X4732700Y4710116D02*
Y4662700D01*
X4780116D01*
X4771205Y4684214D01*
X4754214Y4701205D01*
X4732700Y4710116D01*
D02*
G37*
G36*
X4707300D02*
X4685786Y4701205D01*
X4668795Y4684214D01*
X4659884Y4662700D01*
X4707300D01*
Y4710116D01*
D02*
G37*
G36*
X4445401Y4725401D02*
X4412701D01*
Y4612701D01*
X4445401D01*
Y4725401D01*
D02*
G37*
G36*
X4387301D02*
X4354601D01*
Y4612701D01*
X4387301D01*
Y4725401D01*
D02*
G37*
G36*
X4780116Y4637300D02*
X4732700D01*
Y4589884D01*
X4754214Y4598795D01*
X4771205Y4615786D01*
X4780116Y4637300D01*
D02*
G37*
G36*
X4707300D02*
X4659884D01*
X4668795Y4615786D01*
X4685786Y4598795D01*
X4707300Y4589884D01*
Y4637300D01*
D02*
G37*
G36*
X4387301Y4587301D02*
X4354601D01*
Y4474601D01*
X4387301D01*
Y4587301D01*
D02*
G37*
G36*
X4552701Y4712701D02*
X4487301D01*
Y4503728D01*
X4458050Y4474476D01*
X4445402Y4479789D01*
X4445401Y4485977D01*
Y4587301D01*
X4412701D01*
Y4474601D01*
X4434026D01*
X4440213Y4474600D01*
X4445526Y4461952D01*
X4425857Y4442284D01*
X4419682Y4433042D01*
X4417513Y4422140D01*
X4417513Y4422139D01*
Y4417321D01*
X4415216Y4415786D01*
X4405778Y4401662D01*
X4402464Y4385001D01*
Y4255002D01*
X4405778Y4238341D01*
X4415216Y4224217D01*
X4429340Y4214779D01*
X4446001Y4211465D01*
X4462661Y4214779D01*
X4476786Y4224217D01*
X4486223Y4238341D01*
X4489537Y4255002D01*
Y4385001D01*
X4486223Y4401662D01*
X4478047Y4413899D01*
X4540145Y4475997D01*
X4546320Y4485239D01*
X4546730Y4487301D01*
X4552701D01*
Y4712701D01*
D02*
G37*
G36*
X4204701Y4438960D02*
Y4332702D01*
X4248486D01*
Y4385001D01*
X4244186Y4406617D01*
X4231942Y4424943D01*
X4213617Y4437187D01*
X4204701Y4438960D01*
D02*
G37*
G36*
X4670201Y4952200D02*
X4489801D01*
Y4866800D01*
X4670201D01*
Y4881013D01*
X4698700D01*
X5052513Y4527199D01*
Y4417321D01*
X5050216Y4415786D01*
X5040778Y4401662D01*
X5037464Y4385001D01*
Y4255002D01*
X5040778Y4238341D01*
X5050216Y4224217D01*
X5064340Y4214779D01*
X5081001Y4211465D01*
X5097661Y4214779D01*
X5111786Y4224217D01*
X5121223Y4238341D01*
X5124537Y4255002D01*
Y4385001D01*
X5121223Y4401662D01*
X5111786Y4415786D01*
X5109488Y4417321D01*
Y4538999D01*
X5107320Y4549901D01*
X5101144Y4559143D01*
X5101144Y4559144D01*
X4730644Y4929644D01*
X4721402Y4935819D01*
X4710500Y4937988D01*
X4710499Y4937987D01*
X4670201D01*
Y4952200D01*
D02*
G37*
G36*
X4954001Y4428538D02*
X4937340Y4425224D01*
X4923216Y4415786D01*
X4913778Y4401662D01*
X4910464Y4385001D01*
Y4255002D01*
X4913778Y4238341D01*
X4923216Y4224217D01*
X4937340Y4214779D01*
X4954001Y4211465D01*
X4970661Y4214779D01*
X4984786Y4224217D01*
X4994223Y4238341D01*
X4997537Y4255002D01*
Y4385001D01*
X4994223Y4401662D01*
X4984786Y4415786D01*
X4970661Y4425224D01*
X4954001Y4428538D01*
D02*
G37*
G36*
X4827001D02*
X4810340Y4425224D01*
X4796216Y4415786D01*
X4786778Y4401662D01*
X4783464Y4385001D01*
Y4255002D01*
X4786778Y4238341D01*
X4796216Y4224217D01*
X4810340Y4214779D01*
X4827001Y4211465D01*
X4843661Y4214779D01*
X4857786Y4224217D01*
X4867223Y4238341D01*
X4870537Y4255002D01*
Y4385001D01*
X4867223Y4401662D01*
X4857786Y4415786D01*
X4843661Y4425224D01*
X4827001Y4428538D01*
D02*
G37*
G36*
X4700001D02*
X4683340Y4425224D01*
X4669216Y4415786D01*
X4659778Y4401662D01*
X4656464Y4385001D01*
Y4255002D01*
X4659778Y4238341D01*
X4669216Y4224217D01*
X4683340Y4214779D01*
X4700001Y4211465D01*
X4716661Y4214779D01*
X4730786Y4224217D01*
X4740223Y4238341D01*
X4743537Y4255002D01*
Y4385001D01*
X4740223Y4401662D01*
X4730786Y4415786D01*
X4716661Y4425224D01*
X4700001Y4428538D01*
D02*
G37*
G36*
X4573001D02*
X4556340Y4425224D01*
X4542216Y4415786D01*
X4532778Y4401662D01*
X4529464Y4385001D01*
Y4255002D01*
X4532778Y4238341D01*
X4542216Y4224217D01*
X4556340Y4214779D01*
X4573001Y4211465D01*
X4589661Y4214779D01*
X4603786Y4224217D01*
X4613223Y4238341D01*
X4616537Y4255002D01*
Y4385001D01*
X4613223Y4401662D01*
X4603786Y4415786D01*
X4589661Y4425224D01*
X4573001Y4428538D01*
D02*
G37*
G36*
X4312702Y4712701D02*
X4247302D01*
Y4487301D01*
X4247301D01*
X4251987Y4476542D01*
X4253683Y4468017D01*
X4259858Y4458775D01*
X4289542Y4429091D01*
X4288757Y4416148D01*
X4288216Y4415786D01*
X4278778Y4401662D01*
X4275464Y4385001D01*
Y4255002D01*
X4278778Y4238341D01*
X4288216Y4224217D01*
X4302340Y4214779D01*
X4319001Y4211465D01*
X4335661Y4214779D01*
X4349786Y4224217D01*
X4359223Y4238341D01*
X4362537Y4255002D01*
Y4385001D01*
X4359223Y4401662D01*
X4349786Y4415786D01*
X4347488Y4417321D01*
Y4439920D01*
X4345320Y4450822D01*
X4339144Y4460064D01*
X4339144Y4460064D01*
X4320671Y4478537D01*
X4312702Y4487301D01*
X4312702D01*
X4312702Y4487301D01*
Y4712701D01*
D02*
G37*
G36*
X4248486Y4307302D02*
X4204701D01*
Y4201043D01*
X4213617Y4202816D01*
X4231942Y4215060D01*
X4244186Y4233386D01*
X4248486Y4255002D01*
Y4307302D01*
D02*
G37*
%LPD*%
D10*
X3960000Y6415000D02*
D03*
Y6204998D02*
D03*
D11*
X5449999Y6207500D02*
D03*
Y6372499D02*
D03*
D12*
X5035001Y3050002D02*
D03*
X5200000D02*
D03*
D13*
X4520001Y4600001D02*
D03*
X4400001D02*
D03*
X4280002D02*
D03*
D14*
X5208001Y3379998D02*
D03*
X5081001D02*
D03*
X4954001D02*
D03*
X4827001D02*
D03*
X4700001D02*
D03*
X4573001D02*
D03*
X4446001D02*
D03*
X4319001D02*
D03*
X4192001D02*
D03*
Y4320002D02*
D03*
X4319001D02*
D03*
X4446001D02*
D03*
X4573001D02*
D03*
X4700001D02*
D03*
X4827001D02*
D03*
X4954001D02*
D03*
X5081001D02*
D03*
X5208001D02*
D03*
D15*
X5120000Y5290500D02*
D03*
Y5163500D02*
D03*
Y5036500D02*
D03*
Y4909500D02*
D03*
X4580001D02*
D03*
Y5036500D02*
D03*
Y5163500D02*
D03*
Y5290500D02*
D03*
D16*
X5336540Y3975461D02*
Y6119041D01*
Y3975461D02*
X5459501Y3852499D01*
X5336540Y6119041D02*
X5424999Y6207500D01*
X5280660Y3403600D02*
Y4757100D01*
X5208001Y3378200D02*
X5255260D01*
X5280660Y3403600D01*
X5204000Y3054002D02*
Y3374200D01*
X5200000Y3050002D02*
X5204000Y3054002D01*
Y3374200D02*
X5208001Y3378200D01*
X3935501Y3852499D02*
X4477501D01*
X4573001Y3379998D02*
Y3756999D01*
X4477501Y3852499D02*
X4573001Y3756999D01*
X4170740Y5920740D02*
X4368800D01*
X4119880Y4170680D02*
Y5869880D01*
X4170740Y5920740D01*
X4710500Y4909500D02*
X5081001Y4538999D01*
Y4320002D02*
Y4538999D01*
X4580001Y4909500D02*
X4710500D01*
X3950000Y6410000D02*
X3960000D01*
Y6415000D02*
X4002501Y6372499D01*
X5449999D01*
X5424999Y6207500D02*
X5449999D01*
X4446001Y3379998D02*
Y3611880D01*
X4827001Y3244581D02*
Y3379998D01*
X4551680Y2969260D02*
X4827001Y3244581D01*
X3840480Y2969260D02*
X4551680D01*
X3812540Y2997200D02*
X3840480Y2969260D01*
X3812540Y2997200D02*
Y3475538D01*
X3935501Y3598499D01*
X4482257Y5036500D02*
X4580001D01*
X4300002Y5218755D02*
X4482257Y5036500D01*
X4300002Y5218755D02*
Y5799999D01*
X5208001Y4216400D02*
Y4320002D01*
X5136881Y4145280D02*
X5208001Y4216400D01*
X4145280Y4145280D02*
X5136881D01*
X4119880Y4170680D02*
X4145280Y4145280D01*
X4368800Y5920740D02*
X4427220Y5862320D01*
Y5333680D02*
Y5862320D01*
Y5333680D02*
X4470400Y5290500D01*
X4580001D01*
X4968240Y5036500D02*
X5120000D01*
X4800001Y5799999D02*
X5240020Y5359979D01*
Y5196520D02*
Y5359979D01*
X5207000Y5163500D02*
X5240020Y5196520D01*
X5120000Y5163500D02*
X5207000D01*
X4954001Y3379998D02*
Y3535680D01*
X3935501Y3344499D02*
X4050660Y3229341D01*
X4673600D01*
X4700001Y3255742D01*
Y3379998D01*
X5128260Y4909500D02*
X5280660Y4757100D01*
X5120000Y4909500D02*
X5128260D01*
X4912360D02*
X5120000D01*
X4785360Y5036500D02*
X4912360Y4909500D01*
X4580001Y5036500D02*
X4785360D01*
X4912360Y5290500D02*
X5120000D01*
X4785360Y5163500D02*
X4912360Y5290500D01*
X4580001Y5163500D02*
X4785360D01*
X5081001Y3236239D02*
Y3379998D01*
X5035001Y3190240D02*
X5081001Y3236239D01*
X5035001Y3050002D02*
Y3190240D01*
X4520001Y4496140D02*
Y4600001D01*
X4446001Y4422140D02*
X4520001Y4496140D01*
X4446001Y4320002D02*
Y4422140D01*
X4280002Y4478919D02*
Y4600001D01*
Y4478919D02*
X4319001Y4439920D01*
Y4320002D02*
Y4439920D01*
D17*
X5459500Y3090500D02*
D03*
X3935500Y5884500D02*
D03*
Y5630500D02*
D03*
Y5376500D02*
D03*
Y5122500D02*
D03*
Y4868500D02*
D03*
Y4614500D02*
D03*
Y4360500D02*
D03*
Y4106500D02*
D03*
Y3852500D02*
D03*
Y3598500D02*
D03*
Y3344500D02*
D03*
X5459500D02*
D03*
Y3598500D02*
D03*
Y3852500D02*
D03*
Y4106500D02*
D03*
Y4360500D02*
D03*
Y4614500D02*
D03*
Y4868500D02*
D03*
Y5122500D02*
D03*
Y5376500D02*
D03*
Y5630500D02*
D03*
Y5884500D02*
D03*
X3935500Y3090500D02*
D03*
D18*
X5050003Y5799999D02*
D03*
D19*
X4800001D02*
D03*
X4549999D02*
D03*
X4300002D02*
D03*
D20*
X4720000Y4650000D02*
D03*
X4446001Y3611880D02*
D03*
X4968240Y5036500D02*
D03*
X4954001Y3535680D02*
D03*
%TF.MD5,4f59bf5574703f33314d149813990ffe*%
M02*
