%TF.GenerationSoftware,Altium Limited,Altium Designer,23.7.1 (13)*%
G04 Layer_Physical_Order=2*
G04 Layer_Color=16711680*
%FSLAX45Y45*%
%MOMM*%
%TF.SameCoordinates,324F84FA-45DE-4E37-BCC6-85F6FB8D9206*%
%TF.FilePolarity,Positive*%
%TF.FileFunction,Copper,L2,Bot,Signal*%
%TF.Part,Single*%
G01*
G75*
%TA.AperFunction,Conductor*%
%ADD16C,0.30480*%
%TA.AperFunction,ComponentPad*%
%ADD17C,1.60000*%
%ADD18R,1.57500X1.57500*%
%ADD19C,1.57500*%
%TA.AperFunction,ViaPad*%
%ADD20C,0.70000*%
G36*
X5650000Y2900000D02*
X3750000D01*
Y6500000D01*
X5650000D01*
Y2900000D01*
D02*
G37*
%LPC*%
G36*
X5154153Y5904148D02*
X5062703D01*
Y5812699D01*
X5154153D01*
Y5904148D01*
D02*
G37*
G36*
X5037303D02*
X4945853D01*
Y5812699D01*
X5037303D01*
Y5904148D01*
D02*
G37*
G36*
X5472665Y5984500D02*
X5446335D01*
X5420902Y5977685D01*
X5398099Y5964520D01*
X5379480Y5945901D01*
X5366315Y5923098D01*
X5359500Y5897665D01*
Y5871335D01*
X5366315Y5845902D01*
X5379480Y5823099D01*
X5398099Y5804480D01*
X5420902Y5791315D01*
X5446335Y5784500D01*
X5472665D01*
X5498098Y5791315D01*
X5520901Y5804480D01*
X5539520Y5823099D01*
X5552685Y5845902D01*
X5559500Y5871335D01*
Y5897665D01*
X5552685Y5923098D01*
X5539520Y5945901D01*
X5520901Y5964520D01*
X5498098Y5977685D01*
X5472665Y5984500D01*
D02*
G37*
G36*
X4813001Y5898748D02*
X4787000D01*
X4761885Y5892019D01*
X4739367Y5879018D01*
X4720981Y5860632D01*
X4707980Y5838115D01*
X4701251Y5812999D01*
Y5786998D01*
X4707980Y5761883D01*
X4720981Y5739365D01*
X4739367Y5720979D01*
X4761885Y5707978D01*
X4787000Y5701249D01*
X4813001D01*
X4838117Y5707978D01*
X4860634Y5720979D01*
X4879020Y5739365D01*
X4892021Y5761883D01*
X4898750Y5786998D01*
Y5812999D01*
X4892021Y5838115D01*
X4879020Y5860632D01*
X4860634Y5879018D01*
X4838117Y5892019D01*
X4813001Y5898748D01*
D02*
G37*
G36*
X3948665Y5984500D02*
X3922335D01*
X3896902Y5977685D01*
X3874099Y5964520D01*
X3855480Y5945901D01*
X3842315Y5923098D01*
X3835500Y5897665D01*
Y5871335D01*
X3842315Y5845902D01*
X3855480Y5823099D01*
X3874099Y5804480D01*
X3896902Y5791315D01*
X3922335Y5784500D01*
X3948665D01*
X3974098Y5791315D01*
X3983164Y5796549D01*
X3999858Y5779856D01*
X3999858Y5779855D01*
X4009100Y5773680D01*
X4020002Y5771511D01*
X4020003Y5771511D01*
X4205401D01*
X4207981Y5761883D01*
X4220982Y5739365D01*
X4239368Y5720979D01*
X4261886Y5707978D01*
X4287001Y5701249D01*
X4313002D01*
X4338118Y5707978D01*
X4360635Y5720979D01*
X4379021Y5739365D01*
X4392022Y5761883D01*
X4398751Y5786998D01*
Y5812999D01*
X4392022Y5838115D01*
X4379021Y5860632D01*
X4360635Y5879018D01*
X4338118Y5892019D01*
X4313002Y5898748D01*
X4287001D01*
X4261886Y5892019D01*
X4239368Y5879018D01*
X4220982Y5860632D01*
X4207981Y5838115D01*
X4205401Y5828486D01*
X4031842D01*
X4024127Y5838007D01*
X4028685Y5845902D01*
X4035500Y5871335D01*
Y5897665D01*
X4028685Y5923098D01*
X4015520Y5945901D01*
X3996901Y5964520D01*
X3974098Y5977685D01*
X3948665Y5984500D01*
D02*
G37*
G36*
X5154153Y5787299D02*
X5062703D01*
Y5695849D01*
X5154153D01*
Y5787299D01*
D02*
G37*
G36*
X5037303D02*
X4945853D01*
Y5695849D01*
X5037303D01*
Y5787299D01*
D02*
G37*
G36*
X3949376Y5735900D02*
X3948200D01*
Y5643201D01*
X4040900D01*
Y5644376D01*
X4033717Y5671183D01*
X4019841Y5695217D01*
X4000217Y5714841D01*
X3976183Y5728717D01*
X3949376Y5735900D01*
D02*
G37*
G36*
X3922800D02*
X3921624D01*
X3894817Y5728717D01*
X3870783Y5714841D01*
X3851159Y5695217D01*
X3837283Y5671183D01*
X3830100Y5644376D01*
Y5643201D01*
X3922800D01*
Y5735900D01*
D02*
G37*
G36*
X5472665Y5730500D02*
X5446335D01*
X5420902Y5723685D01*
X5398099Y5710520D01*
X5379480Y5691901D01*
X5366315Y5669098D01*
X5359500Y5643665D01*
Y5617335D01*
X5366315Y5591902D01*
X5379480Y5569099D01*
X5398099Y5550480D01*
X5420902Y5537315D01*
X5446335Y5530500D01*
X5472665D01*
X5498098Y5537315D01*
X5520901Y5550480D01*
X5539520Y5569099D01*
X5552685Y5591902D01*
X5559500Y5617335D01*
Y5643665D01*
X5552685Y5669098D01*
X5539520Y5691901D01*
X5520901Y5710520D01*
X5498098Y5723685D01*
X5472665Y5730500D01*
D02*
G37*
G36*
X4040900Y5617801D02*
X3948200D01*
Y5525100D01*
X3949376D01*
X3976183Y5532283D01*
X4000217Y5546159D01*
X4019841Y5565783D01*
X4033717Y5589817D01*
X4040900Y5616624D01*
Y5617801D01*
D02*
G37*
G36*
X3922800D02*
X3830100D01*
Y5616624D01*
X3837283Y5589817D01*
X3851159Y5565783D01*
X3870783Y5546159D01*
X3894817Y5532283D01*
X3921624Y5525100D01*
X3922800D01*
Y5617801D01*
D02*
G37*
G36*
X5473376Y5481900D02*
X5472200D01*
Y5389201D01*
X5564900D01*
Y5390376D01*
X5557717Y5417183D01*
X5543841Y5441217D01*
X5524217Y5460841D01*
X5500183Y5474717D01*
X5473376Y5481900D01*
D02*
G37*
G36*
X5446800D02*
X5445624D01*
X5418817Y5474717D01*
X5394783Y5460841D01*
X5375159Y5441217D01*
X5361283Y5417183D01*
X5354100Y5390376D01*
Y5389201D01*
X5446800D01*
Y5481900D01*
D02*
G37*
G36*
X3948665Y5476500D02*
X3922335D01*
X3896902Y5469685D01*
X3874099Y5456520D01*
X3855480Y5437901D01*
X3842315Y5415098D01*
X3835500Y5389665D01*
Y5363335D01*
X3842315Y5337902D01*
X3855480Y5315099D01*
X3874099Y5296480D01*
X3896902Y5283315D01*
X3922335Y5276500D01*
X3948665D01*
X3974098Y5283315D01*
X3996901Y5296480D01*
X4015520Y5315099D01*
X4028685Y5337902D01*
X4035500Y5363335D01*
Y5389665D01*
X4028685Y5415098D01*
X4015520Y5437901D01*
X3996901Y5456520D01*
X3974098Y5469685D01*
X3948665Y5476500D01*
D02*
G37*
G36*
X5564900Y5363801D02*
X5472200D01*
Y5271100D01*
X5473376D01*
X5500183Y5278283D01*
X5524217Y5292159D01*
X5543841Y5311783D01*
X5557717Y5335817D01*
X5564900Y5362624D01*
Y5363801D01*
D02*
G37*
G36*
X5446800D02*
X5354100D01*
Y5362624D01*
X5361283Y5335817D01*
X5375159Y5311783D01*
X5394783Y5292159D01*
X5418817Y5278283D01*
X5445624Y5271100D01*
X5446800D01*
Y5363801D01*
D02*
G37*
G36*
X5473376Y5227900D02*
X5472200D01*
Y5135201D01*
X5564900D01*
Y5136376D01*
X5557717Y5163183D01*
X5543841Y5187217D01*
X5524217Y5206841D01*
X5500183Y5220717D01*
X5473376Y5227900D01*
D02*
G37*
G36*
X5446800D02*
X5445624D01*
X5418817Y5220717D01*
X5394783Y5206841D01*
X5375159Y5187217D01*
X5361283Y5163183D01*
X5354100Y5136376D01*
Y5135201D01*
X5446800D01*
Y5227900D01*
D02*
G37*
G36*
X3948665Y5222500D02*
X3922335D01*
X3896902Y5215685D01*
X3874099Y5202520D01*
X3855480Y5183901D01*
X3842315Y5161098D01*
X3835500Y5135665D01*
Y5109335D01*
X3842315Y5083902D01*
X3855480Y5061099D01*
X3874099Y5042480D01*
X3896902Y5029315D01*
X3922335Y5022500D01*
X3948665D01*
X3974098Y5029315D01*
X3996901Y5042480D01*
X4015520Y5061099D01*
X4028685Y5083902D01*
X4035500Y5109335D01*
Y5135665D01*
X4028685Y5161098D01*
X4015520Y5183901D01*
X3996901Y5202520D01*
X3974098Y5215685D01*
X3948665Y5222500D01*
D02*
G37*
G36*
X5564900Y5109801D02*
X5472200D01*
Y5017100D01*
X5473376D01*
X5500183Y5024283D01*
X5524217Y5038159D01*
X5543841Y5057783D01*
X5557717Y5081817D01*
X5564900Y5108624D01*
Y5109801D01*
D02*
G37*
G36*
X5446800D02*
X5354100D01*
Y5108624D01*
X5361283Y5081817D01*
X5375159Y5057783D01*
X5394783Y5038159D01*
X5418817Y5024283D01*
X5445624Y5017100D01*
X5446800D01*
Y5109801D01*
D02*
G37*
G36*
X4562999Y5898748D02*
X4536998D01*
X4511883Y5892019D01*
X4489365Y5879018D01*
X4470979Y5860632D01*
X4457978Y5838115D01*
X4451249Y5812999D01*
Y5786998D01*
X4457978Y5761883D01*
X4470979Y5739365D01*
X4489365Y5720979D01*
X4511883Y5707978D01*
X4536998Y5701249D01*
X4562999D01*
X4588115Y5707978D01*
X4596747Y5712962D01*
X4939753Y5369957D01*
Y5084231D01*
X4937085Y5083126D01*
X4921613Y5067655D01*
X4913240Y5047440D01*
Y5025560D01*
X4921613Y5005345D01*
X4937085Y4989873D01*
X4957300Y4981500D01*
X4979180D01*
X4999395Y4989873D01*
X5014867Y5005345D01*
X5023240Y5025560D01*
Y5047440D01*
X5014867Y5067655D01*
X4999395Y5083126D01*
X4996727Y5084231D01*
Y5381757D01*
X4994559Y5392659D01*
X4988384Y5401901D01*
X4988383Y5401901D01*
X4637035Y5753250D01*
X4642019Y5761883D01*
X4648748Y5786998D01*
Y5812999D01*
X4642019Y5838115D01*
X4629018Y5860632D01*
X4610632Y5879018D01*
X4588115Y5892019D01*
X4562999Y5898748D01*
D02*
G37*
G36*
X5472665Y4968500D02*
X5446335D01*
X5420902Y4961685D01*
X5398099Y4948520D01*
X5379480Y4929901D01*
X5366315Y4907098D01*
X5359500Y4881665D01*
Y4855335D01*
X5366315Y4829902D01*
X5379480Y4807099D01*
X5398099Y4788480D01*
X5420902Y4775315D01*
X5446335Y4768500D01*
X5472665D01*
X5498098Y4775315D01*
X5520901Y4788480D01*
X5539520Y4807099D01*
X5552685Y4829902D01*
X5559500Y4855335D01*
Y4881665D01*
X5552685Y4907098D01*
X5539520Y4929901D01*
X5520901Y4948520D01*
X5498098Y4961685D01*
X5472665Y4968500D01*
D02*
G37*
G36*
X3948665D02*
X3922335D01*
X3896902Y4961685D01*
X3874099Y4948520D01*
X3855480Y4929901D01*
X3842315Y4907098D01*
X3835500Y4881665D01*
Y4855335D01*
X3842315Y4829902D01*
X3855480Y4807099D01*
X3874099Y4788480D01*
X3896902Y4775315D01*
X3922335Y4768500D01*
X3948665D01*
X3974098Y4775315D01*
X3996901Y4788480D01*
X4015520Y4807099D01*
X4028685Y4829902D01*
X4035500Y4855335D01*
Y4881665D01*
X4028685Y4907098D01*
X4015520Y4929901D01*
X3996901Y4948520D01*
X3974098Y4961685D01*
X3948665Y4968500D01*
D02*
G37*
G36*
X4732700Y4710116D02*
Y4662700D01*
X4780116D01*
X4771205Y4684214D01*
X4754214Y4701205D01*
X4732700Y4710116D01*
D02*
G37*
G36*
X4707300D02*
X4685786Y4701205D01*
X4668795Y4684214D01*
X4659884Y4662700D01*
X4707300D01*
Y4710116D01*
D02*
G37*
G36*
X4780116Y4637300D02*
X4732700D01*
Y4589884D01*
X4754214Y4598795D01*
X4771205Y4615786D01*
X4780116Y4637300D01*
D02*
G37*
G36*
X4707300D02*
X4659884D01*
X4668795Y4615786D01*
X4685786Y4598795D01*
X4707300Y4589884D01*
Y4637300D01*
D02*
G37*
G36*
X5472665Y4714500D02*
X5446335D01*
X5420902Y4707685D01*
X5398099Y4694520D01*
X5379480Y4675901D01*
X5366315Y4653098D01*
X5359500Y4627665D01*
Y4601335D01*
X5366315Y4575902D01*
X5379480Y4553099D01*
X5398099Y4534480D01*
X5420902Y4521315D01*
X5446335Y4514500D01*
X5472665D01*
X5498098Y4521315D01*
X5520901Y4534480D01*
X5539520Y4553099D01*
X5552685Y4575902D01*
X5559500Y4601335D01*
Y4627665D01*
X5552685Y4653098D01*
X5539520Y4675901D01*
X5520901Y4694520D01*
X5498098Y4707685D01*
X5472665Y4714500D01*
D02*
G37*
G36*
X3948665D02*
X3922335D01*
X3896902Y4707685D01*
X3874099Y4694520D01*
X3855480Y4675901D01*
X3842315Y4653098D01*
X3835500Y4627665D01*
Y4601335D01*
X3842315Y4575902D01*
X3855480Y4553099D01*
X3874099Y4534480D01*
X3896902Y4521315D01*
X3922335Y4514500D01*
X3948665D01*
X3974098Y4521315D01*
X3996901Y4534480D01*
X4015520Y4553099D01*
X4028685Y4575902D01*
X4035500Y4601335D01*
Y4627665D01*
X4028685Y4653098D01*
X4015520Y4675901D01*
X3996901Y4694520D01*
X3974098Y4707685D01*
X3948665Y4714500D01*
D02*
G37*
G36*
X5472665Y4460500D02*
X5446335D01*
X5420902Y4453685D01*
X5398099Y4440520D01*
X5379480Y4421901D01*
X5366315Y4399098D01*
X5359500Y4373665D01*
Y4347335D01*
X5366315Y4321902D01*
X5379480Y4299099D01*
X5398099Y4280480D01*
X5420902Y4267315D01*
X5446335Y4260500D01*
X5472665D01*
X5498098Y4267315D01*
X5520901Y4280480D01*
X5539520Y4299099D01*
X5552685Y4321902D01*
X5559500Y4347335D01*
Y4373665D01*
X5552685Y4399098D01*
X5539520Y4421901D01*
X5520901Y4440520D01*
X5498098Y4453685D01*
X5472665Y4460500D01*
D02*
G37*
G36*
X3948665D02*
X3922335D01*
X3896902Y4453685D01*
X3874099Y4440520D01*
X3855480Y4421901D01*
X3842315Y4399098D01*
X3835500Y4373665D01*
Y4347335D01*
X3842315Y4321902D01*
X3855480Y4299099D01*
X3874099Y4280480D01*
X3896902Y4267315D01*
X3922335Y4260500D01*
X3948665D01*
X3974098Y4267315D01*
X3996901Y4280480D01*
X4015520Y4299099D01*
X4028685Y4321902D01*
X4035500Y4347335D01*
Y4373665D01*
X4028685Y4399098D01*
X4015520Y4421901D01*
X3996901Y4440520D01*
X3974098Y4453685D01*
X3948665Y4460500D01*
D02*
G37*
G36*
X5472665Y4206500D02*
X5446335D01*
X5420902Y4199685D01*
X5398099Y4186520D01*
X5379480Y4167901D01*
X5366315Y4145098D01*
X5359500Y4119665D01*
Y4093335D01*
X5366315Y4067902D01*
X5379480Y4045099D01*
X5398099Y4026480D01*
X5420902Y4013315D01*
X5446335Y4006500D01*
X5472665D01*
X5498098Y4013315D01*
X5520901Y4026480D01*
X5539520Y4045099D01*
X5552685Y4067902D01*
X5559500Y4093335D01*
Y4119665D01*
X5552685Y4145098D01*
X5539520Y4167901D01*
X5520901Y4186520D01*
X5498098Y4199685D01*
X5472665Y4206500D01*
D02*
G37*
G36*
X3948665D02*
X3922335D01*
X3896902Y4199685D01*
X3874099Y4186520D01*
X3855480Y4167901D01*
X3842315Y4145098D01*
X3835500Y4119665D01*
Y4093335D01*
X3842315Y4067902D01*
X3855480Y4045099D01*
X3874099Y4026480D01*
X3896902Y4013315D01*
X3922335Y4006500D01*
X3948665D01*
X3974098Y4013315D01*
X3996901Y4026480D01*
X4015520Y4045099D01*
X4028685Y4067902D01*
X4035500Y4093335D01*
Y4119665D01*
X4028685Y4145098D01*
X4015520Y4167901D01*
X3996901Y4186520D01*
X3974098Y4199685D01*
X3948665Y4206500D01*
D02*
G37*
G36*
X5472665Y3952500D02*
X5446335D01*
X5420902Y3945685D01*
X5398099Y3932520D01*
X5379480Y3913901D01*
X5366315Y3891098D01*
X5359500Y3865665D01*
Y3839335D01*
X5366315Y3813902D01*
X5379480Y3791099D01*
X5398099Y3772480D01*
X5420902Y3759315D01*
X5446335Y3752500D01*
X5472665D01*
X5498098Y3759315D01*
X5520901Y3772480D01*
X5539520Y3791099D01*
X5552685Y3813902D01*
X5559500Y3839335D01*
Y3865665D01*
X5552685Y3891098D01*
X5539520Y3913901D01*
X5520901Y3932520D01*
X5498098Y3945685D01*
X5472665Y3952500D01*
D02*
G37*
G36*
X3948665D02*
X3922335D01*
X3896902Y3945685D01*
X3874099Y3932520D01*
X3855480Y3913901D01*
X3842315Y3891098D01*
X3835500Y3865665D01*
Y3839335D01*
X3842315Y3813902D01*
X3855480Y3791099D01*
X3874099Y3772480D01*
X3896902Y3759315D01*
X3922335Y3752500D01*
X3948665D01*
X3974098Y3759315D01*
X3996901Y3772480D01*
X4015520Y3791099D01*
X4028685Y3813902D01*
X4035500Y3839335D01*
Y3865665D01*
X4028685Y3891098D01*
X4015520Y3913901D01*
X3996901Y3932520D01*
X3974098Y3945685D01*
X3948665Y3952500D01*
D02*
G37*
G36*
X5472665Y3698500D02*
X5446335D01*
X5420902Y3691685D01*
X5398099Y3678520D01*
X5379480Y3659901D01*
X5368202Y3640367D01*
X4493732D01*
X4492627Y3643035D01*
X4477156Y3658507D01*
X4456941Y3666880D01*
X4435061D01*
X4414846Y3658507D01*
X4399374Y3643035D01*
X4391001Y3622820D01*
Y3600940D01*
X4399374Y3580725D01*
X4414846Y3565253D01*
X4435061Y3556880D01*
X4456941D01*
X4477156Y3565253D01*
X4492627Y3580725D01*
X4493732Y3583393D01*
X4905971D01*
X4911232Y3570693D01*
X4907374Y3566835D01*
X4899001Y3546620D01*
Y3524740D01*
X4907374Y3504525D01*
X4922846Y3489053D01*
X4943061Y3480680D01*
X4964941D01*
X4967608Y3481785D01*
X5125037Y3324356D01*
X5125038Y3324356D01*
X5134280Y3318180D01*
X5145181Y3316012D01*
X5363606D01*
X5366315Y3305902D01*
X5379480Y3283099D01*
X5398099Y3264480D01*
X5420902Y3251315D01*
X5446335Y3244500D01*
X5472665D01*
X5498098Y3251315D01*
X5520901Y3264480D01*
X5539520Y3283099D01*
X5552685Y3305902D01*
X5559500Y3331335D01*
Y3357665D01*
X5552685Y3383098D01*
X5539520Y3405901D01*
X5520901Y3424520D01*
X5498098Y3437685D01*
X5472665Y3444500D01*
X5446335D01*
X5420902Y3437685D01*
X5398099Y3424520D01*
X5379480Y3405901D01*
X5366315Y3383098D01*
X5363605Y3372987D01*
X5156981D01*
X5007896Y3522072D01*
X5009001Y3524740D01*
Y3546620D01*
X5000627Y3566835D01*
X4996770Y3570693D01*
X5002030Y3583393D01*
X5360021D01*
X5366315Y3559902D01*
X5379480Y3537099D01*
X5398099Y3518480D01*
X5420902Y3505315D01*
X5446335Y3498500D01*
X5472665D01*
X5498098Y3505315D01*
X5520901Y3518480D01*
X5539520Y3537099D01*
X5552685Y3559902D01*
X5559500Y3585335D01*
Y3611665D01*
X5552685Y3637098D01*
X5539520Y3659901D01*
X5520901Y3678520D01*
X5498098Y3691685D01*
X5472665Y3698500D01*
D02*
G37*
G36*
X3948665D02*
X3922335D01*
X3896902Y3691685D01*
X3874099Y3678520D01*
X3855480Y3659901D01*
X3842315Y3637098D01*
X3835500Y3611665D01*
Y3585335D01*
X3842315Y3559902D01*
X3855480Y3537099D01*
X3874099Y3518480D01*
X3896902Y3505315D01*
X3922335Y3498500D01*
X3948665D01*
X3974098Y3505315D01*
X3996901Y3518480D01*
X4015520Y3537099D01*
X4028685Y3559902D01*
X4035500Y3585335D01*
Y3611665D01*
X4028685Y3637098D01*
X4015520Y3659901D01*
X3996901Y3678520D01*
X3974098Y3691685D01*
X3948665Y3698500D01*
D02*
G37*
G36*
Y3444500D02*
X3922335D01*
X3896902Y3437685D01*
X3874099Y3424520D01*
X3855480Y3405901D01*
X3842315Y3383098D01*
X3835500Y3357665D01*
Y3331335D01*
X3842315Y3305902D01*
X3855480Y3283099D01*
X3874099Y3264480D01*
X3896902Y3251315D01*
X3922335Y3244500D01*
X3948665D01*
X3974098Y3251315D01*
X3996901Y3264480D01*
X4015520Y3283099D01*
X4028685Y3305902D01*
X4035500Y3331335D01*
Y3357665D01*
X4028685Y3383098D01*
X4015520Y3405901D01*
X3996901Y3424520D01*
X3974098Y3437685D01*
X3948665Y3444500D01*
D02*
G37*
G36*
X5472665Y3190500D02*
X5446335D01*
X5420902Y3183685D01*
X5398099Y3170520D01*
X5379480Y3151901D01*
X5366315Y3129098D01*
X5359500Y3103665D01*
Y3077335D01*
X5366315Y3051902D01*
X5379480Y3029099D01*
X5398099Y3010480D01*
X5420902Y2997315D01*
X5446335Y2990500D01*
X5472665D01*
X5498098Y2997315D01*
X5520901Y3010480D01*
X5539520Y3029099D01*
X5552685Y3051902D01*
X5559500Y3077335D01*
Y3103665D01*
X5552685Y3129098D01*
X5539520Y3151901D01*
X5520901Y3170520D01*
X5498098Y3183685D01*
X5472665Y3190500D01*
D02*
G37*
G36*
X3948665D02*
X3922335D01*
X3896902Y3183685D01*
X3874099Y3170520D01*
X3855480Y3151901D01*
X3842315Y3129098D01*
X3835500Y3103665D01*
Y3077335D01*
X3842315Y3051902D01*
X3855480Y3029099D01*
X3874099Y3010480D01*
X3896902Y2997315D01*
X3922335Y2990500D01*
X3948665D01*
X3974098Y2997315D01*
X3996901Y3010480D01*
X4015520Y3029099D01*
X4028685Y3051902D01*
X4035500Y3077335D01*
Y3103665D01*
X4028685Y3129098D01*
X4015520Y3151901D01*
X3996901Y3170520D01*
X3974098Y3183685D01*
X3948665Y3190500D01*
D02*
G37*
%LPD*%
D16*
X4020002Y5799999D02*
X4300002D01*
X3935501Y5884499D02*
X4020002Y5799999D01*
X4446001Y3611880D02*
X5446121D01*
X5459501Y3598499D01*
X4968240Y5036500D02*
Y5381757D01*
X4549999Y5799999D02*
X4968240Y5381757D01*
X5145181Y3344499D02*
X5459501D01*
X4954001Y3535680D02*
X5145181Y3344499D01*
D17*
X5459500Y3090500D02*
D03*
X3935500Y5884500D02*
D03*
Y5630500D02*
D03*
Y5376500D02*
D03*
Y5122500D02*
D03*
Y4868500D02*
D03*
Y4614500D02*
D03*
Y4360500D02*
D03*
Y4106500D02*
D03*
Y3852500D02*
D03*
Y3598500D02*
D03*
Y3344500D02*
D03*
X5459500D02*
D03*
Y3598500D02*
D03*
Y3852500D02*
D03*
Y4106500D02*
D03*
Y4360500D02*
D03*
Y4614500D02*
D03*
Y4868500D02*
D03*
Y5122500D02*
D03*
Y5376500D02*
D03*
Y5630500D02*
D03*
Y5884500D02*
D03*
X3935500Y3090500D02*
D03*
D18*
X5050003Y5799999D02*
D03*
D19*
X4800001D02*
D03*
X4549999D02*
D03*
X4300002D02*
D03*
D20*
X4720000Y4650000D02*
D03*
X4446001Y3611880D02*
D03*
X4968240Y5036500D02*
D03*
X4954001Y3535680D02*
D03*
%TF.MD5,d58308d671ebaa663ebc292e874b7e07*%
M02*
