<?xml version="1.0" encoding="UTF-8" standalone="no"?>
<!-- Created with Inkscape (http://www.inkscape.org/) -->

<svg
   width="162mm"
   height="112mm"
   viewBox="0 0 162 112"
   version="1.1"
   id="svg5"
   xml:space="preserve"
   inkscape:version="1.2.2 (b0a8486541, 2022-12-01)"
   sodipodi:docname="skarduino.svg"
   xmlns:inkscape="http://www.inkscape.org/namespaces/inkscape"
   xmlns:sodipodi="http://sodipodi.sourceforge.net/DTD/sodipodi-0.dtd"
   xmlns="http://www.w3.org/2000/svg"
   xmlns:svg="http://www.w3.org/2000/svg"><sodipodi:namedview
     id="namedview7"
     pagecolor="#505050"
     bordercolor="#eeeeee"
     borderopacity="1"
     inkscape:showpageshadow="0"
     inkscape:pageopacity="0"
     inkscape:pagecheckerboard="0"
     inkscape:deskcolor="#505050"
     inkscape:document-units="mm"
     showgrid="false"
     inkscape:zoom="0.5946522"
     inkscape:cx="295.1305"
     inkscape:cy="613.80417"
     inkscape:window-width="1920"
     inkscape:window-height="1050"
     inkscape:window-x="1080"
     inkscape:window-y="399"
     inkscape:window-maximized="1"
     inkscape:current-layer="layer1" /><defs
     id="defs2"><rect
       x="309.46881"
       y="585.26727"
       width="347.88336"
       height="95.334724"
       id="rect453" /><rect
       x="410.47818"
       y="785.98944"
       width="299.88153"
       height="93.955933"
       id="rect1198" /></defs><g
     inkscape:label="Layer 1"
     inkscape:groupmode="layer"
     id="layer1"><path
       d="m 68.608454,30.645036 v 35.84314 h 2.242168 82.971588 v -33.54572 l 0.005,-2.29747 z m 86.500366,0 v 2.29747 34.83228 H 70.850622 68.608454 v 1.51935 h 88.074276 v -38.6491 z m -81.277839,1.51475 c 0.953877,0 1.603758,0.3038 2.187611,0.90409 l -0.789627,0.91331 c -0.320715,-0.37827 -0.781259,-0.67442 -1.397984,-0.67442 -1.11016,0 -1.833525,0.83051 -1.833525,1.98177 0,1.15126 0.723365,1.99023 1.833525,1.99023 0.62496,0 1.094187,-0.30485 1.414869,-0.69133 l 0.781192,0.9133 c -0.600305,0.65785 -1.316199,0.92099 -2.196061,0.92099 -1.817354,0 -3.100181,-1.34052 -3.100181,-3.13319 0,-1.78444 1.282827,-3.12475 3.100181,-3.12475 z m 5.222493,0 h 0.03221 l 2.919643,6.15041 H 80.62348 l -0.394813,-0.93713 h -2.318955 l -0.394066,0.93713 h -1.381864 z m 3.593282,0 h 0.03304 l 3.568727,3.47808 v -3.37131 h 1.258189 v 6.15117 h -0.03304 l -3.568727,-3.47884 v 3.37131 h -1.25819 z m 7.927079,0.10676 h 1.2582 v 6.04361 h -1.2582 z m 2.45876,0 h 1.92418 c 2.06402,0 3.30602,1.11019 3.30602,3.01798 0,1.90779 -1.22553,3.02563 -3.30602,3.02563 h -1.92418 z m 1.25819,1.15141 v 3.74925 h 0.62528 c 1.36504,0 2.07164,-0.69009 2.07164,-1.87423 0,-1.19229 -0.71482,-1.87502 -2.07164,-1.87502 z m 5.2133,0.64138 c 0.40293,0 0.698995,0.29553 0.698995,0.70668 0,0.40294 -0.296065,0.69901 -0.698995,0.69901 -0.41117,0 -0.70668,-0.29607 -0.70668,-0.69901 0,-0.41115 0.29551,-0.70668 0.70668,-0.70668 z m -20.43449,0.52618 -0.765054,1.80895 h 1.530125 z m 20.43449,2.40119 c 0.40293,0 0.698995,0.29627 0.698995,0.70742 0,0.40295 -0.296065,0.69901 -0.698995,0.69901 -0.41117,0 -0.70668,-0.29606 -0.70668,-0.69901 0,-0.41115 0.29551,-0.70742 0.70668,-0.70742 z"
       style="display:inline;fill:#ffffff;stroke-width:0.911896;stroke-linecap:round;stroke-linejoin:round;paint-order:markers fill stroke"
       id="path1117" /><path
       d="m 106.33745,3.6407953 v 8.8459407 c -0.53654,-0.82836 -1.52044,-1.65696 -3.13003,-1.65696 -3.01799,0 -5.052145,3.31376 -5.052145,7.81059 0,4.49685 2.034155,7.781 5.052145,7.781 1.63194,0 2.72764,-0.88792 3.30889,-1.95297 l 0.17885,1.65699 h 2.95055 V 3.6407953 Z m 21.19291,0.20718 c -1.11778,0 -1.92274,1.0651 -1.92274,2.54434 0,1.47922 0.80496,2.5443305 1.92274,2.5443305 1.11777,0 1.92272,-1.0651105 1.92272,-2.5443305 0,-1.47924 -0.80495,-2.54434 -1.92272,-2.54434 z m -68.788304,0.148 c -4.940561,0 -8.427776,4.8224605 -8.427776,11.2423107 0,6.44943 3.487215,11.27188 8.427776,11.27188 2.392049,0 4.337158,-0.94716 5.969111,-3.31394 l -2.123638,-3.28368 c -0.871869,1.39046 -2.146452,2.48513 -3.845473,2.48513 -3.017995,0 -4.984748,-3.01758 -4.984748,-7.15939 0,-4.14185 1.966753,-7.1298007 4.984748,-7.1298007 1.676656,0 2.9289,1.0650305 3.800756,2.4259307 l 2.146316,-3.2843407 c -1.587249,-2.15967 -3.353843,-3.2541 -5.947072,-3.2541 z m 14.195983,0 -7.935918,22.1294107 h 3.755413 l 1.073158,-3.37252 h 6.30415 l 1.07314,3.37252 h 3.75543 L 73.027474,3.9959753 Z m 9.769253,0 V 26.125386 h 3.42036 v -12.12968 l 9.702453,12.51446 h 0.0894 V 4.3807753 h -3.42036 V 16.510446 L 82.796682,3.9959753 Z m 55.799578,6.8337907 c -1.56488,0 -2.66057,0.85834 -3.21947,1.95296 l -0.15618,-1.65695 h -2.95117 v 14.9996 h 3.28621 v -9.43736 c 0.42476,-0.9171 1.11796,-1.77535 2.14631,-1.77535 1.16249,0 1.85536,1.15401 1.85536,2.81072 v 8.40199 h 3.28621 v -8.63878 c 0,-4.05309 -1.49755,-6.65683 -4.24727,-6.65683 z m 12.04968,0 c -3.44275,0 -5.94643,3.34335 -5.94643,7.8402 0,4.49684 2.50368,7.75138 5.94643,7.75138 3.44273,0 5.99115,-3.25454 5.99115,-7.75138 0,-4.49685 -2.54842,-7.8402 -5.99115,-7.8402 z m -38.16119,0.29601 v 8.69794 c 0,4.0235 1.40842,6.59763 4.09107,6.59763 1.63195,0 2.68263,-0.82873 3.28621,-1.92335 l 0.15683,1.62738 h 2.95055 v -14.99959 h -3.28623 v 9.43731 c -0.44711,0.91713 -1.09528,1.77538 -2.16836,1.77538 -1.11776,0 -1.74387,-1.12439 -1.74387,-2.75153 v -8.46116 z m 13.48055,0 v 14.9996 h 3.2862 v -14.99959 z m -52.893153,1.59777 2.078935,6.50882 h -4.157856 z m 31.029523,1.89311 c 1.14013,0 1.83335,0.82873 2.32517,1.89377 v 4.25987 c -0.49182,1.06504 -1.18504,1.86415 -2.32517,1.86415 -1.49781,0 -2.54873,-1.53858 -2.54873,-3.99409 0,-2.48509 1.05092,-4.0237 2.54873,-4.0237 z m 46.54427,0 c 1.54253,0 2.66022,1.74572 2.66022,4.05331 0,2.27801 -1.11769,3.96448 -2.66022,3.96448 -1.52018,0 -2.63816,-1.68647 -2.63816,-3.96448 0,-2.30759 1.11798,-4.05331 2.63816,-4.05331 z"
       style="display:inline;fill:#ffffff;stroke-width:0.74766;stroke-linecap:round;stroke-linejoin:round;paint-order:markers fill stroke"
       id="path1089" /><path
       id="rect363"
       style="display:inline;fill:#ffffff;stroke-width:0.998871;stroke-linecap:round;stroke-linejoin:round;paint-order:markers fill stroke"
       d="m 35.486254,21.159996 v 8.2e-4 c -1.094685,0.0345 -2.164654,0.41445 -2.86577,1.30334 -3.2505,1.5854 -6.204201,3.80263 -8.374331,6.72015 -1.00057,1.54867 -2.385817,2.95085 -2.705077,4.8447 -0.290016,1.20688 -0.736416,2.42728 -0.938138,3.62303 -0.658305,0.75221 -0.402916,1.9043 -0.700043,2.69665 -0.901238,0.5826 -1.564454,1.43824 -2.534253,1.87966 -1.05433,1.66554 -2.467128,3.09384 -3.467372,4.81526 -0.84446,1.33468 -1.15359,2.92828 -1.652475,4.40971 -0.384767,3.38508 -0.07311,6.81375 -0.05311,10.21449 0.08184,3.83688 0.457748,7.70407 1.779525,11.33349 0.31002,1.86482 1.293588,3.63863 1.84434,5.34871 -0.703044,1.03528 -1.207094,2.17832 -2.047954,3.12237 -1.035943,1.50412 -1.637634,3.26834 -2.782477,4.6916 -0.449601,1.88269 -1.8242075,3.40377 -2.6806525,5.09374 -1.175395,1.18073 -1.209549,3.01633 -2.105149,4.38283 -0.421067,1.11816 -0.544442,2.34229 -0.699189,3.500985 -0.60462,1.300429 -0.282759,2.841489 -0.912913,4.162349 -0.474552,1.72438 -0.400461,3.60831 -1.304154,5.18716 -0.15331,0.43227 -0.170405,0.90666 -0.07329,1.34873 h 1.837593 c -0.185026,-0.0553 -0.249897,-0.19302 -0.249897,-0.47369 0,-0.27723 0.06656,-0.57067 0.148036,-0.65207 0.307966,-0.30797 0.723777,-1.80883 0.847279,-3.05759 0.07055,-0.71313 0.313513,-1.83735 0.539313,-2.49895 0.225819,-0.6616 0.410609,-1.65871 0.410609,-2.21537 0,-0.55663 0.0973,-1.012189 0.216235,-1.012189 0.118756,0 0.216234,-0.38703 0.216234,-0.86075 0,-0.842145 0.420521,-2.814475 0.646193,-3.028985 0.13076,-0.12421 0.979203,-2.2476 1.1872,-2.97095 0.07693,-0.2674 0.233693,-0.4863 0.347484,-0.4863 0.113846,0 0.297345,-0.24001 0.408918,-0.53346 0.111481,-0.29343 0.7420345,-1.38179 1.4000675,-2.41897 0.658033,-1.03718 1.196455,-2.09822 1.196455,-2.35758 0,-0.25932 0.160403,-0.60505 0.357596,-0.76818 0.197103,-0.16313 0.618151,-0.83137 0.935628,-1.48505 0.851753,-1.75386 1.32836,-2.54646 2.096729,-3.48757 0.37911,-0.46431 0.754711,-1.06042 0.834658,-1.3252 0.08001,-0.26471 0.398588,-0.75281 0.708446,-1.08369 0.445398,-0.47557 0.516034,-0.6786 0.334881,-0.97181 -0.450928,-0.72968 -1.778871,-4.05887 -1.915012,-4.80094 -0.07638,-0.41598 -0.216471,-0.99946 -0.311312,-1.29659 -0.09475,-0.29713 -0.288597,-0.90311 -0.430796,-1.34622 -0.829275,-2.58436 -1.132385,-5.64021 -1.235156,-12.45591 -0.0882,-5.84688 -0.07111,-6.18774 0.366853,-7.34784 0.252516,-0.66904 0.514089,-1.45969 0.581397,-1.7568 0.06729,-0.29716 0.285451,-0.78325 0.485482,-1.08038 0.20003,-0.29713 0.642302,-0.96211 0.981893,-1.47831 0.339611,-0.51623 0.93741,-1.28857 1.328561,-1.71562 0.391131,-0.42701 0.767077,-0.95228 0.835493,-1.16783 0.06838,-0.21554 0.252807,-0.39207 0.41061,-0.39207 0.157856,0 0.516052,-0.24959 0.795939,-0.55449 0.279905,-0.30491 0.873594,-0.79202 1.319304,-1.08286 0.770005,-0.50246 0.810251,-0.58701 0.810251,-1.68868 0,-0.7669 0.110391,-1.24987 0.324788,-1.42783 0.178226,-0.14805 0.323933,-0.54723 0.323933,-0.88683 0,-0.33961 0.139307,-0.9839 0.309621,-1.43203 0.170224,-0.44808 0.415793,-1.34263 0.546078,-1.98818 0.157676,-0.78124 0.487629,-1.48069 0.986932,-2.09004 0.412609,-0.50352 0.750528,-0.97104 0.750528,-1.03911 0,-0.26341 1.58084,-2.17632 2.707588,-3.27636 1.81746,-1.7851 3.108302,-2.50494 5.808941,-3.96126 0.129304,-0.0478 0.449218,-0.31495 0.710955,-0.594 0.456984,-0.48718 0.600656,-0.50737 3.607042,-0.50737 1.722019,0 3.184576,0.0864 3.250282,0.19267 0.06565,0.10641 0.484973,0.2446 0.93141,0.30712 1.307009,0.18283 3.118304,0.58703 4.096724,0.91373 1.000371,0.33401 2.734503,1.87426 2.969269,2.63775 0.11712,0.38082 0.310149,0.48633 0.891017,0.48633 0.680148,0 0.742109,0.0542 0.742109,0.64872 0,0.4074 0.111118,0.64786 0.29869,0.64786 0.164223,0 0.571903,0.36457 0.906185,0.81027 0.617532,0.8234 0.75442,0.98866 2.126172,2.5654 l 0.774935,0.89101 v 3.14932 c 0,2.94476 0.0351,3.21663 0.540167,4.16656 0.297127,0.55884 0.540168,1.33641 0.540168,1.72819 0,0.52499 0.134033,0.78678 0.509888,0.99454 0.989805,0.54702 2.196298,1.42382 2.65541,1.93014 0.622916,0.68699 1.585932,1.48505 1.792164,1.48505 0.09184,0 0.390422,0.6076 0.663017,1.35043 0.611057,1.66509 0.811306,4.56466 0.839695,12.15555 0.01637,4.51394 -0.03583,5.50875 -0.318878,6.05041 -0.186336,0.35659 -0.393824,1.1348 -0.461094,1.72907 -0.06729,0.59428 -0.247242,1.32929 -0.40048,1.63397 -0.15331,0.30468 -0.347066,1.18031 -0.429959,1.94531 -0.08293,0.76498 -0.267483,1.53645 -0.41059,1.71472 -0.4801,0.59806 -1.348293,2.25941 -1.7501,3.34959 -0.219017,0.59425 -0.462076,1.12945 -0.540167,1.18886 -0.232567,0.17696 -0.4474,1.68244 -0.251571,1.7627 0.0993,0.0408 0.533276,0.60842 0.964217,1.26211 0.430959,0.65371 1.081973,1.52245 1.446352,1.93012 0.364398,0.40769 0.662179,0.90746 0.662179,1.11064 0,0.20318 0.338137,0.74443 0.751365,1.2032 0.413229,0.45881 0.753621,0.95625 0.756403,1.10474 0.0018,0.14858 0.09184,0.27008 0.19772,0.27008 0.106026,0 0.256681,0.25474 0.334881,0.56624 0.0782,0.3115 0.282779,0.7077 0.455185,0.88013 0.172405,0.17239 0.31384,0.48871 0.31384,0.70338 0,0.21465 0.145672,0.51163 0.323934,0.65964 0.178225,0.14803 0.323932,0.38401 0.323932,0.52502 0,0.24474 1.388302,3.11865 1.834229,3.79719 0.365089,0.55551 1.189509,2.68192 1.190562,3.07108 6.55e-4,0.20381 0.180226,0.46654 0.399662,0.58394 0.238767,0.12784 0.59489,0.84649 0.886816,1.790435 0.268229,0.86733 0.638101,1.695889 0.822055,1.840969 0.264464,0.20848 0.369926,1.02199 0.505668,3.88972 0.212234,4.48395 0.26461,5.29027 -0.02019,5.432 h 1.76103 c 0.0036,-0.0449 0.0091,-0.0897 0.0091,-0.13622 0.09221,-2.88028 -0.120574,-5.78129 -0.37189,-8.65283 -0.119301,-1.191219 -1.068333,-2.030969 -1.273874,-3.212404 -0.286124,-1.2294 -1.309027,-2.03262 -1.540575,-3.26628 -0.769769,-2.16888 -2.170747,-4.05932 -2.896905,-6.2431 -0.529492,-0.58012 -0.558464,-1.4276 -1.122401,-2.00586 -0.407754,-1.55972 -1.919777,-2.51049 -2.388709,-4.02606 -0.877686,-1.26958 -1.886715,-2.45074 -2.734521,-3.74668 0.729196,-1.80956 1.532702,-3.62936 2.591486,-5.28477 0.428104,-1.44232 0.434342,-2.97709 1.027323,-4.37607 0.112572,-1.26138 0.627697,-2.41217 0.864119,-3.63647 0.232002,-4.61019 0.11512,-9.24232 -0.08839,-13.85346 -0.206633,-2.18489 -0.379292,-4.68525 -1.925087,-6.36511 -1.486326,-0.90408 -2.530216,-2.41965 -4.11944,-3.21324 -0.489773,-0.59222 -0.428068,-1.65484 -0.926371,-2.3601 -0.681474,-1.57792 -0.223454,-3.39267 -0.362634,-5.06854 -0.0511,-1.05265 0.301638,-2.25569 -0.721084,-2.944 -1.169703,-1.32826 -2.371359,-2.7743 -3.418559,-4.11608 -0.135489,-0.97985 -1.059204,-1.61348 -1.975573,-1.65671 -1.323376,-1.97273 -3.48203,-3.2447 -5.819036,-3.58683 -1.18978,-0.2364 -2.380288,-0.40912 -3.513655,-0.80184 -1.6418,-0.17513 -3.29764,-0.1213 -4.945678,-0.12039 -0.156402,-0.008 -0.313094,-0.0109 -0.469477,-0.008 z m 1.722329,2.75638 c -0.727541,8.2e-4 -1.258907,0.0474 -1.359695,0.14803 -0.127304,0.12731 -0.404371,0.23222 -0.615895,0.23222 -0.211525,0 -0.895292,0.38556 -1.518698,0.85739 -3.093335,2.26174 -5.017385,2.11997 -7.023909,5.51447 -0.51409,0.57973 -2.528907,4.54559 -2.855678,5.62131 -0.1444,0.47542 -0.340901,1.05887 -0.43667,1.29656 -0.09584,0.23774 -0.283688,0.70417 -0.417339,1.0366 -0.32075,0.79785 -0.308747,1.44877 0.02691,1.44551 0.148581,-8.2e-4 0.659614,-0.14347 1.13502,-0.31469 0.475408,-0.17131 1.515225,-0.31653 2.310455,-0.32138 0.795229,-0.006 1.505822,-0.10694 1.579293,-0.22551 0.07347,-0.11876 0.364762,-0.21623 0.647867,-0.21623 0.283087,0 0.57525,-0.0973 0.648703,-0.21626 0.07347,-0.11875 0.77859,-0.2154 1.566673,-0.2154 0.788083,0 1.997669,-0.1173 2.688237,-0.25997 l 1.255342,-0.25915 c 2.67576,0.11002 -0.0036,0.0857 2.430773,0.0824 1.771324,-0.006 13.798998,0.21947 15.28887,0.28525 l 0.972638,0.0429 0.06237,-2.12872 c 0.05874,-2.01255 0.02801,-2.19043 -0.569629,-3.24185 -0.347665,-0.61177 -1.020812,-1.51683 -1.495127,-2.01176 -1.865055,-1.98465 -2.182786,-3.67602 -5.09966,-5.05844 -0.491266,-0.22603 -1.039217,-0.49794 -1.217497,-0.60411 -0.551335,-0.32808 -2.503901,-0.9159 -3.821585,-1.15017 -1.211968,-0.21553 -2.969159,-0.34072 -4.181692,-0.33909 z m -8.159788,6.31041 c 0.99848,0 1.864146,0.28507 2.444233,0.732 l -0.751347,1.19814 c -0.427941,-0.34233 -0.960398,-0.60831 -1.702142,-0.60831 -0.618114,0 -0.998734,0.24708 -0.998734,0.76063 0,0.39939 0.266537,0.59876 1.312574,0.79846 1.806785,0.38036 2.376925,1.03648 2.376925,2.11103 0,1.34083 -0.998516,2.24483 -2.643644,2.24483 -1.06506,0 -2.015927,-0.33317 -2.710114,-0.93226 l 0.789228,-1.20738 c 0.465968,0.49447 1.255632,0.81784 1.968842,0.81784 0.732215,0 1.150172,-0.27574 1.150172,-0.78924 0,-0.40893 -0.313894,-0.63748 -1.350419,-0.83721 -1.806805,-0.38988 -2.348318,-1.1126 -2.348318,-2.13962 0,-1.25527 0.960251,-2.14891 2.462744,-2.14891 z m 13.01628,0 h 0.03782 l 3.375641,7.1131 h -1.597789 l -0.456039,-1.08456 H 40.7432 l -0.456874,1.08456 h -1.596953 z m -9.432807,0.12367 h 1.455591 v 4.07904 l 2.31971,-4.07904 h 1.702979 l -2.063921,3.35629 2.53931,3.63312 h -1.740842 l -1.616303,-2.3399 -1.492618,2.3399 h -1.103906 z m 13.577471,0 h 2.738721 c 1.340837,0 2.482096,0.81789 2.482096,2.26335 0,0.97945 -0.532712,1.67363 -1.283966,2.01594 l 1.626413,2.71012 h -1.692866 l -1.464012,-2.46276 h -0.96087 v 2.46278 h -1.445516 z m 1.445516,1.25534 v 2.01598 h 1.160282 c 0.684677,0 1.140914,-0.35185 1.140914,-1.00797 0,-0.64665 -0.456237,-1.00801 -1.140914,-1.00801 z m -5.571685,1.42617 -0.884288,2.09169 h 1.768594 z m -1.193927,6.41391 c -8.374822,0.008 -9.544124,0.0695 -11.993139,0.62682 -0.594254,0.1353 -1.605646,0.23869 -2.247347,0.23054 -0.641702,-0.008 -1.297571,0.0938 -1.458119,0.22719 -0.367108,0.30465 -0.382366,1.25616 -0.02182,1.36555 0.148581,0.0451 0.744836,0.21182 1.325177,0.37105 0.712391,0.19538 1.12702,0.44773 1.27722,0.77661 0.312949,0.68522 0.130758,0.76172 -0.953287,0.39963 -0.520963,-0.17403 -1.336089,-0.38581 -1.811514,-0.47031 -0.475406,-0.0846 -1.056257,-0.28542 -1.290679,-0.44676 -0.578467,-0.39827 -1.054292,-0.36979 -1.967169,0.11948 -1.736696,0.93078 -5.196847,4.90748 -5.716392,6.56956 -0.155492,0.49761 -0.514326,1.40957 -0.796794,2.02693 -0.50887,1.11213 -0.512543,1.17599 -0.416484,6.91537 0.10148,6.06968 0.211761,7.88835 0.555318,9.14168 0.318532,1.16212 0.654031,2.55297 1.016392,4.21451 0.181499,0.83196 0.419685,1.60429 0.529238,1.71728 0.109482,0.11293 0.199412,0.40769 0.199412,0.6546 0,0.24693 0.134579,0.64128 0.299529,0.87672 0.164948,0.23544 0.426467,0.86537 0.581395,1.39923 0.154947,0.53379 0.506378,1.20226 0.780808,1.48588 0.631355,0.65247 0.628736,1.00523 -0.01091,1.602 -0.280923,0.26175 -0.769224,0.98646 -1.084536,1.61042 -0.315332,0.62398 -0.653396,1.13421 -0.751365,1.13421 -0.09802,0 -0.452857,0.51022 -0.789229,1.13419 -0.336391,0.62399 -0.680948,1.18331 -0.765659,1.24271 -0.08475,0.0595 -0.390569,0.59462 -0.679002,1.1889 -0.288434,0.59422 -0.632864,1.27511 -0.765659,1.51282 -0.13276,0.23769 -0.448618,0.88776 -0.701716,1.44465 -0.253099,0.55688 -0.745819,1.37234 -1.095503,1.81236 -0.349668,0.44 -0.636083,0.89036 -0.636083,1.00123 0,0.11093 -0.288379,0.62018 -0.640301,1.13169 -0.351904,0.5115 -0.8774325,1.55004 -1.1678485,2.30791 -0.290415,0.7579 -0.69315,1.70043 -0.895236,2.09424 -0.341191,0.66488 -0.60262,2.029865 -0.896909,4.685674 -0.06583,0.59426 -0.303401,1.65621 -0.528401,2.35925 -0.225001,0.70305 -0.409755,1.65105 -0.409755,2.10685 0,0.45577 -0.08857,0.82875 -0.196884,0.82875 -0.10839,0 -0.260263,0.41284 -0.337391,0.91796 -0.203504,1.3329 -0.459985,1.94092 -0.901984,2.07654 h 2.050481 59.8950425 1.804785 c -0.243259,-0.08 -0.294872,-0.37406 -0.393768,-1.42784 -0.07529,-0.80227 -0.186155,-2.70217 -0.246515,-4.22208 -0.0973,-2.44831 -0.168586,-2.84959 -0.622642,-3.51868 -0.281887,-0.41539 -0.578723,-1.068219 -0.659653,-1.450549 -0.08092,-0.38233 -0.32024,-1.035405 -0.531747,-1.451405 -0.211506,-0.41598 -0.513798,-1.18741 -0.672255,-1.71474 -0.158402,-0.52731 -0.488082,-1.20817 -0.732033,-1.51282 -0.562282,-0.70223 -1.405106,-2.43837 -1.405106,-2.89352 0,-0.1908 -0.194774,-0.45089 -0.432468,-0.57804 -0.237712,-0.1273 -0.432468,-0.38821 -0.432468,-0.58056 0,-0.50601 -1.054621,-2.66046 -1.302483,-2.66046 -0.1153,0 -0.210341,-0.18132 -0.210341,-0.40303 0,-0.22167 -0.193938,-0.65026 -0.431633,-0.95247 -0.237694,-0.30218 -0.432487,-0.64083 -0.432487,-0.7522 0,-0.11129 -0.194756,-0.37889 -0.432469,-0.594 -0.237694,-0.21515 -0.431632,-0.5852 -0.431632,-0.82288 0,-0.23771 -0.389531,-0.80227 -0.864938,-1.2545 -0.475407,-0.45225 -0.864102,-0.9722 -0.864102,-1.15525 0,-0.18303 -0.08128,-0.33234 -0.180044,-0.33234 -0.09875,0 -0.499993,-0.49491 -0.891871,-1.09968 -0.992206,-1.53117 -0.877741,-2.45961 0.717702,-5.81485 0.254153,-0.53451 0.668363,-1.31552 0.920478,-1.73495 0.252116,-0.41945 0.562373,-1.19734 0.689096,-1.72905 0.541823,-2.27341 0.722485,-2.90715 0.887671,-3.11903 0.09639,-0.12349 0.235984,-0.83687 0.310458,-1.58515 0.07457,-0.74834 0.236657,-1.55066 0.36096,-1.78291 0.14749,-0.27546 0.191065,-2.16963 0.124575,-5.44718 -0.137669,-6.78475 -0.403916,-10.51179 -0.79763,-11.18288 -0.381421,-0.65013 -2.53158,-2.80938 -2.797608,-2.80938 -0.103844,0 -0.420394,-0.23193 -0.704245,-0.51577 -0.882761,-0.88273 -2.32102,-1.68936 -2.710951,-1.52041 -0.333026,0.14422 -2.691928,0.47459 -6.841339,0.95751 -0.950814,0.11075 -2.458181,0.30516 -3.349562,0.43247 -0.891399,0.12731 -2.203991,0.28017 -2.917092,0.33992 -0.713119,0.0598 -1.502094,0.21119 -1.753445,0.33657 -0.27985,0.14021 -1.662242,0.19912 -3.565813,0.15313 -2.426355,-0.0587 -3.270215,-0.1584 -3.844301,-0.45353 -0.404535,-0.20789 -0.872557,-0.37774 -1.039962,-0.37774 -0.167313,0 -0.791865,-0.15987 -1.388284,-0.3551 -2.338188,-0.76478 0.621642,-1.01406 3.276362,-0.27597 1.315175,0.3656 1.998922,0.42747 3.669293,0.33318 1.916213,-0.1082 2.69262,-0.19492 7.076925,-0.79595 0.921096,-0.12639 2.987781,-0.29809 4.592299,-0.38115 1.634326,-0.0846 3.12467,-0.2682 3.389098,-0.41817 0.259609,-0.14713 0.706136,-0.26758 0.992006,-0.26758 0.34623,0 0.602383,-0.18297 0.768187,-0.54687 0.136942,-0.30047 0.396205,-0.60257 0.575504,-0.67144 0.532147,-0.20421 0.374327,-0.87066 -0.268393,-1.13418 -1.24654,-0.51102 -4.119294,-0.65855 -12.588012,-0.6504 z m -10.874939,7.97723 c 0.421284,-0.002 0.933863,0.20481 1.329396,0.53763 0.541096,0.45524 0.668071,0.75683 0.796794,1.89059 0.0842,0.74202 0.227547,1.44613 0.318041,1.565 0.09057,0.11876 0.225346,0.89708 0.299546,1.72905 0.220926,2.47732 0.462912,3.69597 0.850643,4.28771 0.20145,0.30746 0.365999,0.75347 0.365999,0.99117 0,0.37153 0.558026,0.88008 0.965908,0.88008 0.07129,0 0.07329,-0.46192 0.0054,-1.0265 -0.121848,-1.0085 0.136943,-1.82679 0.472025,-1.49178 0.09366,0.0936 0.206959,0.8928 0.251569,1.77618 0.08947,1.76942 0.174044,1.67271 -1.478323,1.69877 -0.838331,0.0127 -0.982093,0.0824 -1.041635,0.50147 -0.08439,0.59386 -0.687403,0.65314 -0.687403,0.0673 0,-0.60863 -0.372764,-0.74494 -0.645358,-0.23561 -0.298691,0.5579 -0.905675,0.5612 -1.407633,0.008 -0.586325,-0.64792 -1.188745,-0.56516 -1.184689,0.1624 0.0054,1.06349 0.248005,1.21491 1.703833,1.06268 1.069932,-0.11185 1.317593,-0.0786 1.317593,0.17586 0,0.44364 -0.696606,0.76128 -1.660058,0.7564 -0.623589,-0.002 -0.952468,-0.1475 -1.347892,-0.594 v -8.2e-4 c -0.628699,-0.70987 -0.858392,-2.70832 -0.37611,-3.273 0.16113,-0.18862 0.346921,-0.49463 0.412282,-0.68072 0.07039,-0.20043 0.634136,-0.45997 1.383246,-0.63608 0.695534,-0.16349 1.325323,-0.38576 1.399232,-0.49388 0.07383,-0.1082 0.03928,-0.55165 -0.07656,-0.98525 -0.115665,-0.43364 -0.293562,-1.80022 -0.395441,-3.03744 -0.101843,-1.23722 -0.286943,-2.35077 -0.41061,-2.47451 -0.123666,-0.12366 -0.224655,-0.48243 -0.224655,-0.79679 0,-0.55828 -0.571502,-1.2865 -1.009663,-1.2865 -0.120758,0 -0.395715,0.19476 -0.61084,0.43249 -0.215125,0.23769 -0.518309,0.43161 -0.673946,0.43161 -0.155674,0 -0.790138,0.78984 -1.409326,1.75516 -1.039925,1.62114 -1.148443,1.72404 -1.421964,1.35041 -0.926061,-1.26507 2.204519,-5.0344 4.190966,-5.04578 z m 7.490878,4.61584 c 0.05856,8.2e-4 0.06456,0.0865 0.0091,0.23056 -0.14367,0.37433 -0.29869,0.44296 -0.29869,0.13221 0,-0.11185 0.09621,-0.26225 0.213706,-0.33487 0.03055,-0.0198 0.05619,-0.0283 0.07566,-0.0277 z m 11.229173,1.21412 c 0.56601,0 1.111651,0.19263 1.680244,0.59402 0.90364,0.63791 1.154355,1.07964 0.936483,1.64744 -0.123303,0.32132 -0.215907,0.30961 -0.923006,-0.11949 -0.432415,-0.26238 -0.864157,-0.60476 -0.959179,-0.75977 -0.330827,-0.5398 -1.032016,-0.27518 -2.047118,0.7724 -0.561863,0.57985 -1.246575,1.17038 -1.521225,1.31172 -0.639737,0.32917 -0.502521,0.74796 0.264193,0.8069 0.778989,0.0598 1.208239,0.43445 1.208239,1.0551 0,0.27557 0.09656,0.56096 0.215398,0.63438 0.118938,0.0734 0.216234,0.54228 0.216234,1.04167 0,0.71434 -0.149309,1.08052 -0.701716,1.71726 -0.619024,0.71338 -0.818091,0.81011 -1.675208,0.80524 -0.534821,-0.002 -1.070025,-0.0769 -1.188872,-0.16405 -0.453491,-0.33317 -0.971818,-1.55312 -0.971818,-2.28602 0,-0.42038 -0.07329,-0.80455 -0.162403,-0.85405 -0.08911,-0.0495 -0.648467,-0.031 -1.242721,0.0413 -1.037398,0.12621 -1.08479,0.1615 -1.191418,0.88767 -0.08656,0.59018 -0.146035,0.66896 -0.270083,0.36011 -0.215998,-0.53744 -0.200922,-1.22504 0.02691,-1.22504 0.102389,0 0.239895,-0.59091 0.30542,-1.31342 0.129123,-1.42445 0.212852,-1.61964 0.594017,-1.38407 0.156948,0.0971 0.19894,0.42644 0.112756,0.88596 -0.177135,0.94424 0.224927,0.97132 1.214113,0.0832 2.249166,-2.01918 2.684745,-2.37693 2.889322,-2.37693 0.124031,0 0.703699,-0.48694 1.289022,-1.08118 0.913897,-0.92796 1.182743,-1.08032 1.902373,-1.08032 z m -7.984783,1.57508 c 0.04746,0.0182 0.0742,0.0917 0.0993,0.21793 0.136943,0.69252 -0.964399,1.86429 -1.892297,2.01259 -0.817672,0.13076 -0.834968,0.15168 -0.972637,1.25368 -0.08456,0.67698 -0.328517,1.34581 -0.615896,1.68699 -0.261827,0.31081 -0.645503,0.76786 -0.852317,1.01554 -0.473605,0.56724 -0.811942,0.57651 -0.811942,0.0228 0,-0.23495 0.227691,-0.57623 0.506504,-0.75893 0.642412,-0.42084 1.005463,-1.21349 1.005463,-2.19351 0,-0.57023 0.10548,-0.79373 0.409755,-0.87335 0.339938,-0.089 0.38955,-0.25008 0.295327,-0.95248 -0.136397,-1.0166 0.317204,-1.18977 0.515779,-0.19687 0.14931,0.74703 0.41752,0.84124 0.615896,0.21624 0.07547,-0.23772 0.259226,-0.43247 0.408062,-0.43247 0.148765,0 0.504815,-0.26718 0.79092,-0.59402 0.281688,-0.32179 0.418867,-0.45286 0.498085,-0.42407 z m -1.290677,3.045 c 0.07365,0.0146 0.20996,0.25649 0.326461,0.59066 0.314385,0.9019 0.164404,1.05189 -0.191846,0.19183 -0.150764,-0.36418 -0.224055,-0.71238 -0.162403,-0.77408 0.0073,-0.008 0.01637,-0.009 0.02783,-0.008 z m -8.289365,0.4678 c -0.160038,0.002 -0.334699,0.0913 -0.638609,0.2642 -0.362526,0.20634 -0.659725,0.44759 -0.660489,0.53681 -6.54e-4,0.0891 0.533512,0.1624 1.187199,0.1624 0.653705,0 1.188034,-0.0867 1.188034,-0.19187 0,-0.10511 -0.23713,-0.34649 -0.527547,-0.53675 -0.243441,-0.1595 -0.38864,-0.23803 -0.548588,-0.23479 z m 14.275841,0.2827 c -0.17186,8.3e-4 -0.316076,0.0283 -0.39546,0.09 -0.50525,0.3942 -0.27272,0.59064 0.701717,0.59064 0.534839,0 0.972655,-0.0947 0.972655,-0.21033 0,-0.2399 -0.763241,-0.4736 -1.278912,-0.47036 z m 1.404269,1.43037 c -0.444581,0.009 -1.205711,0.46044 -1.205711,0.76735 0,0.35731 -0.487592,0.23483 -1.007137,-0.25328 -0.441489,-0.41472 -0.508996,-0.42629 -0.631881,-0.10602 -0.201521,0.52519 0.88809,1.86704 1.51617,1.86704 0.281323,0 0.801504,-0.30403 1.177959,-0.68911 0.742981,-0.75991 0.863684,-1.3526 0.318877,-1.56159 -0.04746,-0.0182 -0.104752,-0.0258 -0.168223,-0.0245 z m -4.152246,3.25448 c 0.220289,-0.0327 0.864101,0.36018 1.467374,0.92723 0.315841,0.29683 0.524746,0.67021 0.463604,0.8296 -0.161494,0.42106 -0.346793,0.36235 -0.997043,-0.31635 -0.319369,-0.33335 -0.580541,-0.72281 -0.580541,-0.86498 0,-0.14203 -0.0973,-0.25828 -0.216253,-0.25828 -0.118937,0 -0.216234,-0.10093 -0.216234,-0.22382 0,-0.0558 0.02837,-0.0853 0.07911,-0.0933 z m -9.126533,0.14059 c 0.161857,8.2e-4 0.04238,0.38254 -0.366853,1.11483 -0.628043,1.12364 -0.86561,1.34573 -1.015556,0.95161 -0.155129,-0.40783 0.162585,-1.07363 0.789229,-1.65586 0.297853,-0.27675 0.496065,-0.41183 0.59318,-0.41058 z m 18.893366,1.25788 c 1.01972,0 2.942352,0.63939 2.840528,0.94485 -0.04437,0.13276 -0.455457,0.30255 -0.91375,0.37695 -0.458294,0.0744 -0.990241,0.33081 -1.182998,0.56881 -0.192756,0.23804 -0.643138,0.58341 -1.000407,0.76816 -0.357251,0.18476 -0.924007,0.73244 -1.259543,1.21664 -0.335554,0.4842 -0.912532,1.06903 -1.282295,1.29996 -0.369743,0.23094 -1.207457,0.96344 -1.861144,1.62808 -0.653687,0.66462 -1.559161,1.4047 -2.012598,1.64409 -0.453439,0.23938 -1.134295,0.73121 -1.512824,1.09297 -1.442969,1.37902 -2.059811,1.54472 -5.982256,1.6087 -1.96106,0.032 -3.760572,0.009 -3.998284,-0.0471 v -8.1e-4 c -0.475061,-0.1164 -1.881549,-0.76946 -2.052991,-0.95332 -0.317677,-0.34069 -4.741827,-3.14894 -5.294016,-3.36049 -1.441533,-0.55223 -2.209975,-0.94535 -2.47704,-1.26714 -0.154582,-0.18634 -0.803159,-0.49097 -1.441297,-0.67647 -0.638155,-0.18551 -1.160282,-0.41149 -1.160282,-0.50314 0,-0.0917 -0.388695,-0.28328 -0.864101,-0.42576 -0.475407,-0.1424 -0.864102,-0.38583 -0.864102,-0.54101 0,-0.28642 0.667981,-0.99704 0.937301,-0.99704 0.08111,0 0.5597,-0.18477 1.063514,-0.41059 0.817835,-0.36658 2.260678,-0.886 2.461071,-0.886 0.04165,0 0.07384,0.12167 0.07148,0.27008 -0.0018,0.1484 -0.488464,0.55729 -1.080354,0.9087 -0.59189,0.35141 -1.076135,0.70074 -1.076135,0.77661 0,0.37093 0.930754,0.90266 1.766085,1.00883 0.514343,0.0653 1.032161,0.18828 1.151008,0.27261 0.230383,0.16349 1.737859,0.5607 2.809412,0.74042 0.356559,0.0598 1.133949,0.20519 1.728202,0.32225 0.594253,0.11712 1.735259,0.21896 2.535108,0.22548 0.79985,0.008 1.836266,0.16586 2.30287,0.35256 1.374972,0.55014 5.98604,0.1635 8.954054,-0.75051 0.377928,-0.1164 1.270056,-0.32521 1.983156,-0.46361 1.323668,-0.25698 1.935799,-0.46165 2.950737,-0.98864 0.315476,-0.16386 0.733342,-0.29788 0.928899,-0.29788 0.594454,0 1.694576,-0.66642 2.549403,-1.54477 0.445563,-0.4578 0.907511,-0.83213 1.026504,-0.83213 0.118938,0 0.216235,-0.0891 0.216235,-0.19772 0,-0.10839 -0.388714,-0.26218 -0.864101,-0.34245 -1.071953,-0.18113 -1.135314,-0.54016 -0.09511,-0.54016 z m -4.288554,4.85389 c -0.203504,-0.0233 -0.57334,0.11948 -1.050056,0.435 -1.068551,0.70716 -3.395063,1.38208 -5.695351,1.65249 -2.328312,0.27371 -9.157831,0.1184 -9.79544,-0.22296 -0.730469,-0.39095 -1.644947,-0.2208 -1.722329,0.32056 -0.0522,0.36473 0.237258,0.59738 1.549851,1.24611 0.88747,0.43862 2.063575,0.88084 2.613345,0.98356 0.54977,0.10259 1.059603,0.24766 1.133349,0.32144 0.07365,0.0736 1.666169,0.13385 3.538879,0.13385 3.398338,0 3.406866,-8.3e-4 4.11522,-0.59403 0.39035,-0.32684 0.976457,-0.85496 1.303319,-1.1729 0.326843,-0.31789 1.182542,-0.84133 1.900699,-1.16364 0.718139,-0.32227 1.305827,-0.6698 1.305827,-0.7724 0,-0.10256 0.142217,-0.18678 0.316368,-0.18678 0.174042,0 0.417666,-0.18853 0.541004,-0.419 0.186628,-0.3487 0.148764,-0.5379 -0.05474,-0.56121 z m -19.946786,1.2217 c -0.369108,5.1e-4 -0.397533,0.22761 -0.04546,0.5797 0.387111,0.38708 0.863409,0.31493 0.780789,-0.11857 -0.03964,-0.20798 -0.289943,-0.4097 -0.556154,-0.44762 -0.06656,-0.009 -0.126393,-0.0127 -0.179134,-0.0127 z m 53.293527,1.59022 c -0.270744,-0.009 -0.542205,-0.003 -0.807745,0.002 -2.294268,0.12603 -4.695284,0.76487 -6.480359,2.26671 -1.637125,-0.87557 -3.958746,-0.76818 -5.002891,0.95749 -0.933791,1.36373 -2.068103,2.80119 -1.967169,4.5578 -0.02492,1.34466 -0.106572,2.8967 0.921315,3.90741 0.580941,1.50858 1.018866,3.09321 1.993249,4.4072 0.339428,1.05573 0.144034,2.4408 1.323504,3.05004 1.876311,1.1536 4.085594,1.55015 6.175791,2.08916 1.882919,1.09812 4.183859,1.31331 6.228793,0.55617 2.098313,-0.63804 4.189671,-1.28118 6.316293,-1.82499 1.75849,-0.51036 3.36207,-1.48986 4.85315,-2.47368 0.8548,-0.61327 1.64177,-1.37726 2.75384,-1.48925 1.78573,-0.63075 3.102475,-2.18004 3.685305,-3.9806 0.75751,-1.50866 0.58252,-3.65013 -1.07446,-4.47115 -1.902615,-1.15886 -4.434055,-1.51533 -6.332295,-0.1464 -5.067089,3.44027 -1.62605,-2.13372 -3.50691,-5.18546 -1.1546,-1.60965 -3.41076,-1.14066 -5.095441,-0.92553 -0.767695,0.50023 -1.254781,0.11693 -1.741679,-0.54186 -0.6237,-0.57241 -1.430134,-0.72678 -2.242291,-0.75559 z m -0.711809,1.62556 c 1.545063,-9e-5 1.574656,0.009 2.377758,0.86411 0.864736,0.91902 1.348507,1.03752 2.217054,0.54102 0.566115,-0.32367 3.182849,-0.44036 3.565811,-0.15895 0.712077,0.52314 0.864097,1.27501 0.864097,4.265 0,1.66396 0.079,3.14621 0.17496,3.29487 0.26551,0.41025 1.58179,0.32336 2.48126,-0.16403 0.44095,-0.23898 1.4194,-0.82244 2.17414,-1.29659 1.55411,-0.9763 2.36439,-1.07836 3.91414,-0.49136 1.838575,0.69641 2.078615,1.20364 1.40931,2.97851 -0.48718,1.29203 -1.15774,2.26925 -1.55741,2.26925 -0.15967,0 -0.34411,0.1402 -0.40975,0.31128 -0.0657,0.17096 -0.42718,0.37208 -0.80353,0.44763 -0.98532,0.1978 -1.94274,0.66676 -2.40385,1.17626 -0.22012,0.24326 -0.51855,0.44173 -0.66384,0.44173 -0.14531,0 -0.39256,0.15367 -0.5486,0.34159 -0.27579,0.33236 -0.90618,0.69535 -2.68655,1.54649 -0.4754,0.22727 -1.769904,0.62802 -2.876702,0.8902 -1.106807,0.26215 -2.176338,0.56097 -2.37692,0.66469 -0.200557,0.10348 -0.80212,0.30248 -1.336961,0.44089 -0.53484,0.13858 -1.270674,0.34195 -1.635672,0.45266 -0.86048,0.2612 -2.21801,0.23378 -2.901942,-0.0589 -0.297128,-0.1273 -0.952614,-0.41217 -1.456428,-0.63358 -0.503828,-0.22144 -1.147495,-0.40218 -1.430363,-0.40218 -0.621845,0 -3.217732,-0.84603 -4.190951,-1.36559 -0.588562,-0.3142 -0.701734,-0.49768 -0.701734,-1.13585 0,-0.75738 -0.433743,-1.83913 -0.994516,-2.48129 -0.161493,-0.18495 -0.485354,-0.93591 -0.719374,-1.66845 -0.481154,-1.50614 -0.835113,-2.24586 -1.182161,-2.47115 -0.140397,-0.0913 -0.235476,-0.84658 -0.23222,-1.84349 0.0036,-1.39392 0.08947,-1.80705 0.486318,-2.36431 0.264428,-0.37134 0.480426,-0.73832 0.480426,-0.81615 0,-0.0779 0.308439,-0.52522 0.684895,-0.99367 0.550879,-0.68551 0.825674,-0.85147 1.407651,-0.85147 0.397697,0 0.891618,0.0838 1.098013,0.18679 0.206378,0.10293 0.694715,0.29031 1.085392,0.41647 0.620243,0.20024 0.743759,0.17478 0.972638,-0.20446 0.602635,-0.99875 3.633991,-2.1277 5.715553,-2.12784 z m 0.09422,1.07952 c -0.426574,0 -0.965291,0.0476 -1.63818,0.13967 -0.814145,0.11167 -1.233791,0.34415 -2.137118,1.18467 -0.618223,0.57525 -1.26975,1.0646 -1.44803,1.08708 -0.178223,0.0225 -0.470444,0.0578 -0.648724,0.0791 -0.178222,0.0212 -0.589868,0.11238 -0.914582,0.20191 -0.46746,0.12876 -0.72956,0.0453 -1.260399,-0.40135 -0.368744,-0.31031 -0.783645,-0.49494 -0.922151,-0.41061 -0.375982,0.22899 -1.034271,1.10496 -1.465702,1.9512 -0.704317,1.3815 -0.703008,1.87024 0.0091,3.41098 0.364506,0.78758 0.662997,1.50802 0.662997,1.60033 0,0.18601 0.564701,1.45658 0.872522,1.96295 0.10839,0.17823 0.551516,1.06817 0.98444,1.97811 0.844315,1.77468 1.048892,1.94076 3.250275,2.63944 0.610206,0.19368 1.38845,0.35517 1.729043,0.35843 0.340609,0.002 1.007972,0.18982 1.483363,0.41481 0.979873,0.46368 2.192023,0.53728 3.458111,0.21033 0.475409,-0.12276 1.204529,-0.31032 1.620505,-0.41649 0.415993,-0.1062 1.068824,-0.34869 1.450555,-0.53929 0.381748,-0.19067 1.159147,-0.42669 1.728215,-0.5242 1.65655,-0.28383 6.18402,-2.62159 6.7656,-3.49344 0.17768,-0.26639 1.26465,-0.6278 1.90069,-0.63105 0.38327,-8.3e-4 0.84567,-0.27739 1.36221,-0.81026 1.49196,-1.53911 1.64165,-2.37976 0.54353,-3.05846 -0.99551,-0.61529 -1.96958,-0.58143 -2.64193,0.0907 -0.29716,0.29715 -0.67338,0.54016 -0.83635,0.54016 -0.16295,0 -0.32894,0.078 -0.36855,0.17422 -0.0394,0.0961 -0.61831,0.48568 -1.28645,0.86495 -1.69269,0.96124 -2.90177,0.95681 -3.852746,-0.0127 -0.668776,-0.68186 -0.684688,-0.74308 -0.557823,-2.10684 0.131852,-1.41778 0.183496,-3.19552 0.130397,-4.47955 -0.04812,-1.167 -1.04485,-1.44896 -2.500583,-0.70676 -0.46627,0.23771 -1.122819,0.43249 -1.458975,0.43249 -0.740412,0 -2.324347,-0.775 -2.713477,-1.32772 -0.190626,-0.27076 -0.589818,-0.40136 -1.300786,-0.40134 z m -50.442904,1.99914 c 0.474279,-0.0164 1.220679,0.22727 2.136284,0.71685 1.784907,0.95436 2.356028,1.14755 4.185911,1.41689 0.772551,0.11366 1.766793,0.26192 2.209483,0.32899 0.484355,0.0734 1.20913,-0.0163 1.820771,-0.22465 0.559008,-0.19047 1.099686,-0.34582 1.20151,-0.34582 0.224656,0 -1.004662,1.06304 -1.828354,1.58097 -0.326844,0.20552 -0.594017,0.54979 -0.594017,0.76567 0,0.21589 -0.24837,0.50576 -0.551098,0.64366 -0.661106,0.30123 -3.338631,0.33702 -3.338631,0.0445 0,-0.11348 0.361651,-0.27453 0.804359,-0.35757 0.895818,-0.16805 1.521171,-0.65435 1.223389,-0.9516 -0.105298,-0.10493 -0.77448,-0.35176 -1.487581,-0.54774 -0.713119,-0.19599 -1.880039,-0.51752 -2.593159,-0.71433 -1.565345,-0.43201 -3.844027,-1.68051 -3.72567,-2.04123 0.06601,-0.20119 0.252261,-0.30491 0.536803,-0.31468 z m 53.368418,2.09084 c 0.04618,0.0127 0.09457,0.0902 0.143121,0.23896 0.243205,0.74644 0.404247,1.95185 0.498105,3.72314 0.08966,1.69118 0.05889,1.90437 -0.292798,2.01426 -0.216434,0.0676 -0.562643,0.21289 -0.769023,0.3231 -0.484918,0.25888 -0.45031,0.26941 -0.761476,-0.22886 -0.269539,-0.43161 -0.373583,-1.51532 -0.145487,-1.51532 0.0673,0 0.310274,0.10076 0.540168,0.22381 0.400569,0.21438 0.418442,0.13076 0.421534,-1.99914 0.0016,-1.70279 0.166041,-2.83871 0.366004,-2.77995 z m -9.082776,0.10857 c 0.348774,0.0202 0.408298,0.52798 0.284377,1.85358 -0.08329,0.8914 -0.16604,1.46154 -0.183427,1.26715 -0.01823,-0.19442 -0.176589,-0.63223 -0.354209,-0.97264 -0.401883,-0.77057 -0.422343,-1.94017 -0.03621,-2.08833 0.11257,-0.0433 0.208935,-0.0646 0.289432,-0.0598 z m -36.780451,3.3664 c 0.507124,0 0.636429,0.47952 0.212871,0.78923 -0.443327,0.32421 -0.610676,0.35611 -0.811944,0.15477 -0.209596,-0.20961 0.256354,-0.94404 0.599073,-0.94404 z m 37.511609,0.42734 c 0.136036,0.0127 0.234842,0.23191 0.15658,0.46696 -0.07308,0.21961 -0.123845,0.21945 -0.259988,-8.2e-4 v -8.3e-4 c -0.09311,-0.15057 -0.11093,-0.3317 -0.03942,-0.40303 0.04841,-0.0476 0.09766,-0.0671 0.143129,-0.0624 z m 1.201494,1.38493 c 0.02639,-8.3e-4 0.05476,0.008 0.08492,0.026 0.120762,0.0747 0.1635,0.22669 0.09512,0.33743 -0.185225,0.29977 -0.314679,0.2433 -0.314679,-0.13622 0,-0.13893 0.056,-0.22392 0.134576,-0.22718 z"
       sodipodi:nodetypes="ccccccccccccccccccccccscsssssssssssssscssscsssssssssssssscsssccssccssssssccssscssscsssssssssssscsssssssccsssccccccccccccccccccccccccccccsccsssccccscscccsccscccsccsccsscssccsscssccccccccccccccccccccccssccccccccccssscccccssccscssccssscssssssscsssssssssssssssssccccsssssssscssssssssssssssccsssssscscccsscsscscsscssscsscsssscsccsscccsscccsssccssssssssccccsccccsssssssssscccsscccsscssscccccssssscssscsssccscscccscssscscssssssssssssscssssssccccsscscsssssssssccsssssssssscsscssscsssssssscsscsscsscsssssssscccssccccccccccccccccccccccccccscscssssssssscssccccssssssccsssssccccccssscssscssssccssssscssssscssssssccsssccssscsscsssssccsssssscccsscccssssssscscccccsccsss" /></g></svg>
