%TF.GenerationSoftware,Altium Limited,Altium Designer,23.10.1 (27)*%
G04 Layer_Color=16711935*
%FSLAX45Y45*%
%MOMM*%
%TF.SameCoordinates,A038C99E-A49E-49FA-BA90-4B12FE75E0D5*%
%TF.FilePolarity,Negative*%
%TF.FileFunction,Soldermask,Bot*%
%TF.Part,Single*%
G01*
G75*
%TA.AperFunction,SMDPad,CuDef*%
%ADD11R,1.30464X1.45620*%
%ADD22R,2.35283X0.49493*%
G04:AMPARAMS|DCode=23|XSize=2.35283mm|YSize=0.49493mm|CornerRadius=0.24746mm|HoleSize=0mm|Usage=FLASHONLY|Rotation=0.000|XOffset=0mm|YOffset=0mm|HoleType=Round|Shape=RoundedRectangle|*
%AMROUNDEDRECTD23*
21,1,2.35283,0.00000,0,0,0.0*
21,1,1.85790,0.49493,0,0,0.0*
1,1,0.49493,0.92895,0.00000*
1,1,0.49493,-0.92895,0.00000*
1,1,0.49493,-0.92895,0.00000*
1,1,0.49493,0.92895,0.00000*
%
%ADD23ROUNDEDRECTD23*%
%TA.AperFunction,ComponentPad*%
%ADD33R,6.70000X6.70000*%
%ADD34R,6.70000X6.70000*%
%ADD35R,1.70000X1.70000*%
%ADD36C,1.70000*%
%TA.AperFunction,SMDPad,CuDef*%
%ADD37R,1.40000X1.65000*%
D11*
X9910378Y9652000D02*
D03*
X9749222D02*
D03*
D22*
X9126686Y9827900D02*
D03*
D23*
Y9892900D02*
D03*
Y9957900D02*
D03*
Y10022900D02*
D03*
Y10087900D02*
D03*
Y10152900D02*
D03*
Y10217900D02*
D03*
Y10282900D02*
D03*
Y10347900D02*
D03*
Y10412900D02*
D03*
Y10477900D02*
D03*
Y10542900D02*
D03*
X9821714D02*
D03*
Y10477900D02*
D03*
Y10412900D02*
D03*
Y10347900D02*
D03*
Y10282900D02*
D03*
Y10217900D02*
D03*
Y10152900D02*
D03*
Y10087900D02*
D03*
Y10022900D02*
D03*
Y9957900D02*
D03*
Y9892900D02*
D03*
Y9827900D02*
D03*
D33*
X7091680Y8534400D02*
D03*
X7823200D02*
D03*
D34*
X8864600Y11460480D02*
D03*
Y12192000D02*
D03*
X7594600Y11460480D02*
D03*
Y12192000D02*
D03*
X6324600Y11460480D02*
D03*
Y12192000D02*
D03*
X5054600Y11460480D02*
D03*
Y12192000D02*
D03*
X13944600Y11460480D02*
D03*
Y12192000D02*
D03*
X12674600Y11460480D02*
D03*
Y12192000D02*
D03*
X11404600Y11460480D02*
D03*
Y12192000D02*
D03*
X10134600Y11460480D02*
D03*
Y12192000D02*
D03*
D35*
X8890000Y8534400D02*
D03*
X11811000Y8509000D02*
D03*
D36*
X9144000Y8534400D02*
D03*
X9398000D02*
D03*
X9652000D02*
D03*
X9906000D02*
D03*
X10160000D02*
D03*
X10414000D02*
D03*
X10668000D02*
D03*
X12573000Y8509000D02*
D03*
X12319000D02*
D03*
X12065000D02*
D03*
D37*
X5027600Y10820400D02*
D03*
X4827600D02*
D03*
X5027600Y10566400D02*
D03*
X4827600D02*
D03*
X10133000Y10668000D02*
D03*
X9933000D02*
D03*
X7567600Y10820400D02*
D03*
X7367600D02*
D03*
X6297600D02*
D03*
X6097600D02*
D03*
X8837600Y10566400D02*
D03*
X8637600D02*
D03*
X7567600D02*
D03*
X7367600D02*
D03*
X6297600D02*
D03*
X6097600D02*
D03*
X11379200D02*
D03*
X11179200D02*
D03*
X12647600D02*
D03*
X12447600D02*
D03*
X13917599D02*
D03*
X13717599D02*
D03*
X13917599Y10820400D02*
D03*
X13717599D02*
D03*
X10133000Y10922000D02*
D03*
X9933000D02*
D03*
X8837600Y10820400D02*
D03*
X8637600D02*
D03*
X11377600D02*
D03*
X11177600D02*
D03*
X12649200D02*
D03*
X12449200D02*
D03*
%TF.MD5,f96544a6e31e43db9bffb015c9d524ad*%
M02*
