%TF.GenerationSoftware,Altium Limited,Altium Designer,23.10.1 (27)*%
G04 Layer_Color=65535*
%FSLAX45Y45*%
%MOMM*%
%TF.SameCoordinates,A038C99E-A49E-49FA-BA90-4B12FE75E0D5*%
%TF.FilePolarity,Positive*%
%TF.FileFunction,Legend,Top*%
%TF.Part,Single*%
G01*
G75*
%TA.AperFunction,NonConductor*%
%ADD25C,0.25000*%
%ADD26C,0.20000*%
%ADD27C,0.25400*%
%ADD28R,2.00000X2.00000*%
%ADD29R,2.00000X2.00000*%
%ADD30R,0.20000X1.20000*%
D25*
X9059000Y9655489D02*
G03*
X9059000Y9655489I-12500J0D01*
G01*
X7789000D02*
G03*
X7789000Y9655489I-12500J0D01*
G01*
X6519000D02*
G03*
X6519000Y9655489I-12500J0D01*
G01*
X5249000D02*
G03*
X5249000Y9655489I-12500J0D01*
G01*
X14139000D02*
G03*
X14139000Y9655489I-12500J0D01*
G01*
X12869000D02*
G03*
X12869000Y9655489I-12500J0D01*
G01*
X11599000D02*
G03*
X11599000Y9655489I-12500J0D01*
G01*
X10329000D02*
G03*
X10329000Y9655489I-12500J0D01*
G01*
D26*
X5000000Y8500000D02*
X5250000D01*
X5000000Y8750000D02*
X5250000D01*
Y8500000D02*
Y8750000D01*
X5000000Y8500000D02*
Y8750000D01*
Y8250000D02*
X5250000D01*
X5000000Y8500000D02*
X5250000D01*
Y8250000D02*
Y8500000D01*
X5000000Y8250000D02*
Y8500000D01*
X5250000D02*
X5500000D01*
X5250000Y8750000D02*
X5500000D01*
Y8500000D02*
Y8750000D01*
X5250000Y8500000D02*
Y8750000D01*
Y8250000D02*
X5500000D01*
X5250000Y8500000D02*
X5500000D01*
Y8250000D02*
Y8500000D01*
X5250000Y8250000D02*
Y8500000D01*
X5750000D02*
X6000000D01*
X5750000Y8750000D02*
X6000000D01*
Y8500000D02*
Y8750000D01*
X5750000Y8500000D02*
Y8750000D01*
X5500000Y8500000D02*
X5750000D01*
X5500000Y8750000D02*
X5750000D01*
Y8500000D02*
Y8750000D01*
X5500000Y8500000D02*
Y8750000D01*
Y8250000D02*
X5750000D01*
X5500000Y8500000D02*
X5750000D01*
Y8250000D02*
Y8500000D01*
X5500000Y8250000D02*
Y8500000D01*
X5750000Y8250000D02*
X6000000D01*
X5750000Y8500000D02*
X6000000D01*
Y8250000D02*
Y8500000D01*
X5750000Y8250000D02*
Y8500000D01*
X8998190Y9599710D02*
X9289810D01*
X8998190Y9374090D02*
X9289810D01*
X7728190Y9599710D02*
X8019810D01*
X7728190Y9374090D02*
X8019810D01*
X6458190Y9599710D02*
X6749810D01*
X6458190Y9374090D02*
X6749810D01*
X5188190Y9599710D02*
X5479810D01*
X5188190Y9374090D02*
X5479810D01*
X9294000Y9973639D02*
Y10143161D01*
X8994000Y9973639D02*
Y10143161D01*
X8024000Y9973639D02*
Y10143161D01*
X7724000Y9973639D02*
Y10143161D01*
X6754000Y9973639D02*
Y10143161D01*
X6454000Y9973639D02*
Y10143161D01*
X5484000Y9973639D02*
Y10143161D01*
X5184000Y9973639D02*
Y10143161D01*
X8468500Y9875900D02*
Y10240900D01*
X8803500Y9875900D02*
Y10240900D01*
X7198500Y9875900D02*
Y10240900D01*
X7533500Y9875900D02*
Y10240900D01*
X5928500Y9875900D02*
Y10240900D01*
X6263500Y9875900D02*
Y10240900D01*
X4658500Y9875900D02*
Y10240900D01*
X4993500Y9875900D02*
Y10240900D01*
X14078191Y9599710D02*
X14369810D01*
X14078191Y9374090D02*
X14369810D01*
X12808189Y9599710D02*
X13099809D01*
X12808189Y9374090D02*
X13099809D01*
X11538190Y9599710D02*
X11829810D01*
X11538190Y9374090D02*
X11829810D01*
X10268190Y9599710D02*
X10559810D01*
X10268190Y9374090D02*
X10559810D01*
X14374001Y9973639D02*
Y10143161D01*
X14074001Y9973639D02*
Y10143161D01*
X13103999Y9973639D02*
Y10143161D01*
X12803999Y9973639D02*
Y10143161D01*
X11834000Y9973639D02*
Y10143161D01*
X11534000Y9973639D02*
Y10143161D01*
X10564000Y9973639D02*
Y10143161D01*
X10264000Y9973639D02*
Y10143161D01*
X13548500Y9875900D02*
Y10240900D01*
X13883501Y9875900D02*
Y10240900D01*
X12278500Y9875900D02*
Y10240900D01*
X12613500Y9875900D02*
Y10240900D01*
X11008500Y9875900D02*
Y10240900D01*
X11343500Y9875900D02*
Y10240900D01*
X9738500Y9875900D02*
Y10240900D01*
X10073500Y9875900D02*
Y10240900D01*
X10795000Y8407400D02*
Y8661400D01*
X8763000Y8407400D02*
X10795000D01*
X8763000D02*
Y8661400D01*
X10795000D01*
X11684000Y8382000D02*
Y8636000D01*
X12700000D01*
X11684000Y8382000D02*
X12700000D01*
Y8636000D01*
X12557680Y8065361D02*
X12536520Y8044201D01*
Y8001881D01*
X12557680Y7980721D01*
X12642319D01*
X12663479Y8001881D01*
Y8044201D01*
X12642319Y8065361D01*
X12600000D01*
Y8023041D01*
X12663479Y8107680D02*
X12536520D01*
X12663479Y8192319D01*
X12536520D01*
Y8234639D02*
X12663479D01*
Y8298118D01*
X12642319Y8319278D01*
X12557680D01*
X12536520Y8298118D01*
Y8234639D01*
X12282680Y7991302D02*
X12261520Y8012461D01*
Y8054781D01*
X12282680Y8075941D01*
X12303840D01*
X12325000Y8054781D01*
Y8033621D01*
Y8054781D01*
X12346159Y8075941D01*
X12367319D01*
X12388479Y8054781D01*
Y8012461D01*
X12367319Y7991302D01*
X12388479Y8118260D02*
X12367319D01*
Y8139420D01*
X12388479D01*
Y8118260D01*
X12282680Y8224059D02*
X12261520Y8245219D01*
Y8287539D01*
X12282680Y8308699D01*
X12303840D01*
X12325000Y8287539D01*
Y8266379D01*
Y8287539D01*
X12346159Y8308699D01*
X12367319D01*
X12388479Y8287539D01*
Y8245219D01*
X12367319Y8224059D01*
X12007680Y8065361D02*
X11986520Y8044201D01*
Y8001881D01*
X12007680Y7980721D01*
X12028840D01*
X12050000Y8001881D01*
Y8044201D01*
X12071159Y8065361D01*
X12092319D01*
X12113479Y8044201D01*
Y8001881D01*
X12092319Y7980721D01*
X12007680Y8192319D02*
X11986520Y8171159D01*
Y8128840D01*
X12007680Y8107680D01*
X12092319D01*
X12113479Y8128840D01*
Y8171159D01*
X12092319Y8192319D01*
X11986520Y8234639D02*
X12113479D01*
Y8319278D01*
X11732680Y8065361D02*
X11711521Y8044201D01*
Y8001881D01*
X11732680Y7980721D01*
X11753840D01*
X11775000Y8001881D01*
Y8044201D01*
X11796160Y8065361D01*
X11817320D01*
X11838479Y8044201D01*
Y8001881D01*
X11817320Y7980721D01*
X11711521Y8107680D02*
X11838479D01*
Y8171160D01*
X11817320Y8192320D01*
X11732680D01*
X11711521Y8171160D01*
Y8107680D01*
X11838479Y8234639D02*
X11753840D01*
X11711521Y8276959D01*
X11753840Y8319279D01*
X11838479D01*
X11775000D01*
Y8234639D01*
X5938479Y7940361D02*
Y7855722D01*
X5853840Y7940361D01*
X5832680D01*
X5811520Y7919201D01*
Y7876881D01*
X5832680Y7855722D01*
Y7982681D02*
X5811520Y8003840D01*
Y8046160D01*
X5832680Y8067320D01*
X5917319D01*
X5938479Y8046160D01*
Y8003840D01*
X5917319Y7982681D01*
X5832680D01*
Y8109639D02*
X5811520Y8130799D01*
Y8173119D01*
X5832680Y8194279D01*
X5917319D01*
X5938479Y8173119D01*
Y8130799D01*
X5917319Y8109639D01*
X5832680D01*
X5688479Y7866301D02*
Y7908621D01*
Y7887461D01*
X5561520D01*
X5582680Y7866301D01*
Y7972100D02*
X5561520Y7993260D01*
Y8035580D01*
X5582680Y8056740D01*
X5667320D01*
X5688479Y8035580D01*
Y7993260D01*
X5667320Y7972100D01*
X5582680D01*
Y8099059D02*
X5561520Y8120219D01*
Y8162539D01*
X5582680Y8183699D01*
X5667320D01*
X5688479Y8162539D01*
Y8120219D01*
X5667320Y8099059D01*
X5582680D01*
X5311520Y8053841D02*
Y7969201D01*
X5375000D01*
X5353840Y8011521D01*
Y8032681D01*
X5375000Y8053841D01*
X5417319D01*
X5438479Y8032681D01*
Y7990361D01*
X5417319Y7969201D01*
X5332680Y8096160D02*
X5311520Y8117320D01*
Y8159640D01*
X5332680Y8180799D01*
X5417319D01*
X5438479Y8159640D01*
Y8117320D01*
X5417319Y8096160D01*
X5332680D01*
X5188479Y8053841D02*
Y7969201D01*
X5103840Y8053841D01*
X5082680D01*
X5061520Y8032681D01*
Y7990361D01*
X5082680Y7969201D01*
X5061520Y8180799D02*
Y8096160D01*
X5125000D01*
X5103840Y8138480D01*
Y8159640D01*
X5125000Y8180799D01*
X5167319D01*
X5188479Y8159640D01*
Y8117320D01*
X5167319Y8096160D01*
D27*
X13525562Y10896575D02*
Y10744225D01*
X13601736D01*
X13627129Y10769617D01*
Y10871183D01*
X13601736Y10896575D01*
X13525562D01*
X13677911Y10744225D02*
X13728696D01*
X13703304D01*
Y10896575D01*
X13677911Y10871183D01*
X13906439Y10896575D02*
X13855655Y10871183D01*
X13804871Y10820400D01*
Y10769617D01*
X13830263Y10744225D01*
X13881047D01*
X13906439Y10769617D01*
Y10795008D01*
X13881047Y10820400D01*
X13804871D01*
X13525562Y10617175D02*
Y10464825D01*
X13601736D01*
X13627129Y10490217D01*
Y10591783D01*
X13601736Y10617175D01*
X13525562D01*
X13677911Y10464825D02*
X13728696D01*
X13703304D01*
Y10617175D01*
X13677911Y10591783D01*
X13906439Y10617175D02*
X13804871D01*
Y10541000D01*
X13855655Y10566392D01*
X13881047D01*
X13906439Y10541000D01*
Y10490217D01*
X13881047Y10464825D01*
X13830263D01*
X13804871Y10490217D01*
X12255562Y10896575D02*
Y10744225D01*
X12331737D01*
X12357129Y10769617D01*
Y10871183D01*
X12331737Y10896575D01*
X12255562D01*
X12407912Y10744225D02*
X12458696D01*
X12433304D01*
Y10896575D01*
X12407912Y10871183D01*
X12611047Y10744225D02*
Y10896575D01*
X12534871Y10820400D01*
X12636439D01*
X12255562Y10642575D02*
Y10490225D01*
X12331737D01*
X12357129Y10515617D01*
Y10617183D01*
X12331737Y10642575D01*
X12255562D01*
X12407912Y10490225D02*
X12458696D01*
X12433304D01*
Y10642575D01*
X12407912Y10617183D01*
X12534871D02*
X12560263Y10642575D01*
X12611047D01*
X12636439Y10617183D01*
Y10591792D01*
X12611047Y10566400D01*
X12585655D01*
X12611047D01*
X12636439Y10541008D01*
Y10515617D01*
X12611047Y10490225D01*
X12560263D01*
X12534871Y10515617D01*
X10985562Y10921975D02*
Y10769625D01*
X11061737D01*
X11087129Y10795017D01*
Y10896583D01*
X11061737Y10921975D01*
X10985562D01*
X11137912Y10769625D02*
X11188696D01*
X11163304D01*
Y10921975D01*
X11137912Y10896583D01*
X11366439Y10769625D02*
X11264871D01*
X11366439Y10871192D01*
Y10896583D01*
X11341047Y10921975D01*
X11290263D01*
X11264871Y10896583D01*
X10985554Y10667975D02*
Y10515625D01*
X11061729D01*
X11087121Y10541017D01*
Y10642583D01*
X11061729Y10667975D01*
X10985554D01*
X11137904Y10515625D02*
X11188688D01*
X11163296D01*
Y10667975D01*
X11137904Y10642583D01*
X11264863Y10515625D02*
X11315647D01*
X11290255D01*
Y10667975D01*
X11264863Y10642583D01*
X9715562Y10896575D02*
Y10744225D01*
X9791737D01*
X9817129Y10769617D01*
Y10871183D01*
X9791737Y10896575D01*
X9715562D01*
X9867912Y10744225D02*
X9918696D01*
X9893304D01*
Y10896575D01*
X9867912Y10871183D01*
X9994871D02*
X10020263Y10896575D01*
X10071047D01*
X10096439Y10871183D01*
Y10769617D01*
X10071047Y10744225D01*
X10020263D01*
X9994871Y10769617D01*
Y10871183D01*
X9779041Y10642575D02*
Y10490225D01*
X9855217D01*
X9880608Y10515617D01*
Y10617183D01*
X9855217Y10642575D01*
X9779041D01*
X9931392Y10515617D02*
X9956784Y10490225D01*
X10007567D01*
X10032959Y10515617D01*
Y10617183D01*
X10007567Y10642575D01*
X9956784D01*
X9931392Y10617183D01*
Y10591792D01*
X9956784Y10566400D01*
X10032959D01*
X8534441Y10896575D02*
Y10744225D01*
X8610617D01*
X8636008Y10769617D01*
Y10871183D01*
X8610617Y10896575D01*
X8534441D01*
X8686792Y10871183D02*
X8712184Y10896575D01*
X8762967D01*
X8788359Y10871183D01*
Y10845792D01*
X8762967Y10820400D01*
X8788359Y10795008D01*
Y10769617D01*
X8762967Y10744225D01*
X8712184D01*
X8686792Y10769617D01*
Y10795008D01*
X8712184Y10820400D01*
X8686792Y10845792D01*
Y10871183D01*
X8712184Y10820400D02*
X8762967D01*
X8534441Y10642575D02*
Y10490225D01*
X8610617D01*
X8636008Y10515617D01*
Y10617183D01*
X8610617Y10642575D01*
X8534441D01*
X8686792D02*
X8788359D01*
Y10617183D01*
X8686792Y10515617D01*
Y10490225D01*
X7239041Y10896575D02*
Y10744225D01*
X7315217D01*
X7340608Y10769617D01*
Y10871183D01*
X7315217Y10896575D01*
X7239041D01*
X7492959D02*
X7442175Y10871183D01*
X7391392Y10820400D01*
Y10769617D01*
X7416784Y10744225D01*
X7467567D01*
X7492959Y10769617D01*
Y10795008D01*
X7467567Y10820400D01*
X7391392D01*
X7239041Y10642575D02*
Y10490225D01*
X7315217D01*
X7340608Y10515617D01*
Y10617183D01*
X7315217Y10642575D01*
X7239041D01*
X7492959D02*
X7391392D01*
Y10566400D01*
X7442175Y10591792D01*
X7467567D01*
X7492959Y10566400D01*
Y10515617D01*
X7467567Y10490225D01*
X7416784D01*
X7391392Y10515617D01*
X5969041Y10896575D02*
Y10744225D01*
X6045217D01*
X6070608Y10769617D01*
Y10871183D01*
X6045217Y10896575D01*
X5969041D01*
X6197567Y10744225D02*
Y10896575D01*
X6121392Y10820400D01*
X6222959D01*
X5969041Y10642575D02*
Y10490225D01*
X6045217D01*
X6070608Y10515617D01*
Y10617183D01*
X6045217Y10642575D01*
X5969041D01*
X6121392Y10617183D02*
X6146784Y10642575D01*
X6197567D01*
X6222959Y10617183D01*
Y10591792D01*
X6197567Y10566400D01*
X6172175D01*
X6197567D01*
X6222959Y10541008D01*
Y10515617D01*
X6197567Y10490225D01*
X6146784D01*
X6121392Y10515617D01*
X4699041Y10896575D02*
Y10744225D01*
X4775217D01*
X4800608Y10769617D01*
Y10871183D01*
X4775217Y10896575D01*
X4699041D01*
X4952959Y10744225D02*
X4851392D01*
X4952959Y10845792D01*
Y10871183D01*
X4927567Y10896575D01*
X4876784D01*
X4851392Y10871183D01*
X4724433Y10642575D02*
Y10490225D01*
X4800608D01*
X4826000Y10515617D01*
Y10617183D01*
X4800608Y10642575D01*
X4724433D01*
X4876784Y10490225D02*
X4927567D01*
X4902176D01*
Y10642575D01*
X4876784Y10617183D01*
X14097041Y10134575D02*
Y10007617D01*
X14122433Y9982225D01*
X14173216D01*
X14198608Y10007617D01*
Y10134575D01*
X14249393Y10109183D02*
X14274783Y10134575D01*
X14325568D01*
X14350958Y10109183D01*
Y10083792D01*
X14325568Y10058400D01*
X14350958Y10033008D01*
Y10007617D01*
X14325568Y9982225D01*
X14274783D01*
X14249393Y10007617D01*
Y10033008D01*
X14274783Y10058400D01*
X14249393Y10083792D01*
Y10109183D01*
X14274783Y10058400D02*
X14325568D01*
X12827042Y10134575D02*
Y10007617D01*
X12852432Y9982225D01*
X12903217D01*
X12928609Y10007617D01*
Y10134575D01*
X12979391D02*
X13080959D01*
Y10109183D01*
X12979391Y10007617D01*
Y9982225D01*
X11557041Y10134575D02*
Y10007617D01*
X11582433Y9982225D01*
X11633217D01*
X11658608Y10007617D01*
Y10134575D01*
X11810959D02*
X11760175Y10109183D01*
X11709392Y10058400D01*
Y10007617D01*
X11734784Y9982225D01*
X11785567D01*
X11810959Y10007617D01*
Y10033008D01*
X11785567Y10058400D01*
X11709392D01*
X10287041Y10134575D02*
Y10007617D01*
X10312433Y9982225D01*
X10363217D01*
X10388608Y10007617D01*
Y10134575D01*
X10540959D02*
X10439392D01*
Y10058400D01*
X10490175Y10083792D01*
X10515567D01*
X10540959Y10058400D01*
Y10007617D01*
X10515567Y9982225D01*
X10464784D01*
X10439392Y10007617D01*
X9017041Y10134575D02*
Y10007617D01*
X9042433Y9982225D01*
X9093217D01*
X9118608Y10007617D01*
Y10134575D01*
X9245567Y9982225D02*
Y10134575D01*
X9169392Y10058400D01*
X9270959D01*
X7747041Y10134575D02*
Y10007617D01*
X7772433Y9982225D01*
X7823217D01*
X7848608Y10007617D01*
Y10134575D01*
X7899392Y10109183D02*
X7924784Y10134575D01*
X7975567D01*
X8000959Y10109183D01*
Y10083792D01*
X7975567Y10058400D01*
X7950175D01*
X7975567D01*
X8000959Y10033008D01*
Y10007617D01*
X7975567Y9982225D01*
X7924784D01*
X7899392Y10007617D01*
X6477041Y10134575D02*
Y10007617D01*
X6502433Y9982225D01*
X6553217D01*
X6578608Y10007617D01*
Y10134575D01*
X6730959Y9982225D02*
X6629392D01*
X6730959Y10083792D01*
Y10109183D01*
X6705567Y10134575D01*
X6654784D01*
X6629392Y10109183D01*
X5232433Y10134575D02*
Y10007617D01*
X5257825Y9982225D01*
X5308608D01*
X5334000Y10007617D01*
Y10134575D01*
X5384784Y9982225D02*
X5435567D01*
X5410176D01*
Y10134575D01*
X5384784Y10109183D01*
X13589041Y9982225D02*
Y10134575D01*
X13665218D01*
X13690608Y10109183D01*
Y10058400D01*
X13665218Y10033008D01*
X13589041D01*
X13639825D02*
X13690608Y9982225D01*
X13741393Y10109183D02*
X13766785Y10134575D01*
X13817567D01*
X13842960Y10109183D01*
Y10083792D01*
X13817567Y10058400D01*
X13842960Y10033008D01*
Y10007617D01*
X13817567Y9982225D01*
X13766785D01*
X13741393Y10007617D01*
Y10033008D01*
X13766785Y10058400D01*
X13741393Y10083792D01*
Y10109183D01*
X13766785Y10058400D02*
X13817567D01*
X12319041Y9982225D02*
Y10134575D01*
X12395217D01*
X12420608Y10109183D01*
Y10058400D01*
X12395217Y10033008D01*
X12319041D01*
X12369825D02*
X12420608Y9982225D01*
X12471392Y10134575D02*
X12572959D01*
Y10109183D01*
X12471392Y10007617D01*
Y9982225D01*
X11049041D02*
Y10134575D01*
X11125217D01*
X11150608Y10109183D01*
Y10058400D01*
X11125217Y10033008D01*
X11049041D01*
X11099825D02*
X11150608Y9982225D01*
X11302959Y10134575D02*
X11252175Y10109183D01*
X11201392Y10058400D01*
Y10007617D01*
X11226784Y9982225D01*
X11277567D01*
X11302959Y10007617D01*
Y10033008D01*
X11277567Y10058400D01*
X11201392D01*
X9779041Y9956825D02*
Y10109175D01*
X9855217D01*
X9880608Y10083783D01*
Y10033000D01*
X9855217Y10007608D01*
X9779041D01*
X9829825D02*
X9880608Y9956825D01*
X10032959Y10109175D02*
X9931392D01*
Y10033000D01*
X9982175Y10058392D01*
X10007567D01*
X10032959Y10033000D01*
Y9982217D01*
X10007567Y9956825D01*
X9956784D01*
X9931392Y9982217D01*
X8509041Y9982225D02*
Y10134575D01*
X8585217D01*
X8610608Y10109183D01*
Y10058400D01*
X8585217Y10033008D01*
X8509041D01*
X8559825D02*
X8610608Y9982225D01*
X8737567D02*
Y10134575D01*
X8661392Y10058400D01*
X8762959D01*
X7239041Y9982225D02*
Y10134575D01*
X7315217D01*
X7340608Y10109183D01*
Y10058400D01*
X7315217Y10033008D01*
X7239041D01*
X7289825D02*
X7340608Y9982225D01*
X7391392Y10109183D02*
X7416784Y10134575D01*
X7467567D01*
X7492959Y10109183D01*
Y10083792D01*
X7467567Y10058400D01*
X7442175D01*
X7467567D01*
X7492959Y10033008D01*
Y10007617D01*
X7467567Y9982225D01*
X7416784D01*
X7391392Y10007617D01*
X5969041Y9982225D02*
Y10134575D01*
X6045217D01*
X6070608Y10109183D01*
Y10058400D01*
X6045217Y10033008D01*
X5969041D01*
X6019825D02*
X6070608Y9982225D01*
X6222959D02*
X6121392D01*
X6222959Y10083792D01*
Y10109183D01*
X6197567Y10134575D01*
X6146784D01*
X6121392Y10109183D01*
X4724433Y9982225D02*
Y10134575D01*
X4800608D01*
X4826000Y10109183D01*
Y10058400D01*
X4800608Y10033008D01*
X4724433D01*
X4775217D02*
X4826000Y9982225D01*
X4876784D02*
X4927567D01*
X4902176D01*
Y10134575D01*
X4876784Y10109183D01*
X12763554Y8432825D02*
Y8585175D01*
X12839729D01*
X12865121Y8559783D01*
Y8509000D01*
X12839729Y8483608D01*
X12763554D01*
X12915904Y8432825D02*
X12966689D01*
X12941296D01*
Y8585175D01*
X12915904Y8559783D01*
X13042863Y8432825D02*
X13093646D01*
X13068256D01*
Y8585175D01*
X13042863Y8559783D01*
X10845841Y8458225D02*
Y8610575D01*
X10922017D01*
X10947408Y8585183D01*
Y8534400D01*
X10922017Y8509008D01*
X10845841D01*
X10998192Y8483617D02*
X11023584Y8458225D01*
X11074367D01*
X11099759Y8483617D01*
Y8585183D01*
X11074367Y8610575D01*
X11023584D01*
X10998192Y8585183D01*
Y8559792D01*
X11023584Y8534400D01*
X11099759D01*
X14198608Y9296383D02*
X14173216Y9321775D01*
X14122433D01*
X14097041Y9296383D01*
Y9194817D01*
X14122433Y9169425D01*
X14173216D01*
X14198608Y9194817D01*
X14249393Y9296383D02*
X14274783Y9321775D01*
X14325568D01*
X14350958Y9296383D01*
Y9270992D01*
X14325568Y9245600D01*
X14350958Y9220208D01*
Y9194817D01*
X14325568Y9169425D01*
X14274783D01*
X14249393Y9194817D01*
Y9220208D01*
X14274783Y9245600D01*
X14249393Y9270992D01*
Y9296383D01*
X14274783Y9245600D02*
X14325568D01*
X12928609Y9296383D02*
X12903217Y9321775D01*
X12852432D01*
X12827042Y9296383D01*
Y9194817D01*
X12852432Y9169425D01*
X12903217D01*
X12928609Y9194817D01*
X12979391Y9321775D02*
X13080959D01*
Y9296383D01*
X12979391Y9194817D01*
Y9169425D01*
X11658608Y9296383D02*
X11633217Y9321775D01*
X11582433D01*
X11557041Y9296383D01*
Y9194817D01*
X11582433Y9169425D01*
X11633217D01*
X11658608Y9194817D01*
X11810959Y9321775D02*
X11760175Y9296383D01*
X11709392Y9245600D01*
Y9194817D01*
X11734784Y9169425D01*
X11785567D01*
X11810959Y9194817D01*
Y9220208D01*
X11785567Y9245600D01*
X11709392D01*
X10388608Y9296383D02*
X10363217Y9321775D01*
X10312433D01*
X10287041Y9296383D01*
Y9194817D01*
X10312433Y9169425D01*
X10363217D01*
X10388608Y9194817D01*
X10540959Y9321775D02*
X10439392D01*
Y9245600D01*
X10490175Y9270992D01*
X10515567D01*
X10540959Y9245600D01*
Y9194817D01*
X10515567Y9169425D01*
X10464784D01*
X10439392Y9194817D01*
X9118608Y9296383D02*
X9093217Y9321775D01*
X9042433D01*
X9017041Y9296383D01*
Y9194817D01*
X9042433Y9169425D01*
X9093217D01*
X9118608Y9194817D01*
X9245567Y9169425D02*
Y9321775D01*
X9169392Y9245600D01*
X9270959D01*
X7848608Y9296383D02*
X7823217Y9321775D01*
X7772433D01*
X7747041Y9296383D01*
Y9194817D01*
X7772433Y9169425D01*
X7823217D01*
X7848608Y9194817D01*
X7899392Y9296383D02*
X7924784Y9321775D01*
X7975567D01*
X8000959Y9296383D01*
Y9270992D01*
X7975567Y9245600D01*
X7950175D01*
X7975567D01*
X8000959Y9220208D01*
Y9194817D01*
X7975567Y9169425D01*
X7924784D01*
X7899392Y9194817D01*
X6578608Y9296383D02*
X6553217Y9321775D01*
X6502433D01*
X6477041Y9296383D01*
Y9194817D01*
X6502433Y9169425D01*
X6553217D01*
X6578608Y9194817D01*
X6730959Y9169425D02*
X6629392D01*
X6730959Y9270992D01*
Y9296383D01*
X6705567Y9321775D01*
X6654784D01*
X6629392Y9296383D01*
X5334000D02*
X5308608Y9321775D01*
X5257825D01*
X5232433Y9296383D01*
Y9194817D01*
X5257825Y9169425D01*
X5308608D01*
X5334000Y9194817D01*
X5384784Y9169425D02*
X5435567D01*
X5410176D01*
Y9321775D01*
X5384784Y9296383D01*
D28*
X5875000Y8625000D02*
D03*
Y8375000D02*
D03*
D29*
X5625000D02*
D03*
X5375000Y8625000D02*
D03*
D30*
X12764000Y10566400D02*
D03*
X10224000D02*
D03*
X7684000D02*
D03*
X5144000D02*
D03*
X12764000Y10820400D02*
D03*
X10224000D02*
D03*
X7684000D02*
D03*
X5144000D02*
D03*
X14034000Y10566400D02*
D03*
X11494000D02*
D03*
X8954000D02*
D03*
X6414000D02*
D03*
X14034000Y10820400D02*
D03*
X11494000D02*
D03*
X8954000D02*
D03*
X6414000D02*
D03*
%TF.MD5,2da848ffd92d59179539d5011333190e*%
M02*
