%TF.GenerationSoftware,Altium Limited,Altium Designer,23.10.1 (27)*%
G04 Layer_Color=32896*
%FSLAX45Y45*%
%MOMM*%
%TF.SameCoordinates,A038C99E-A49E-49FA-BA90-4B12FE75E0D5*%
%TF.FilePolarity,Positive*%
%TF.FileFunction,Legend,Bot*%
%TF.Part,Single*%
G01*
G75*
%TA.AperFunction,NonConductor*%
%ADD25C,0.25000*%
%ADD26C,0.20000*%
%ADD27C,0.25400*%
%ADD31C,0.50000*%
D25*
X8971544Y9827900D02*
G03*
X8971544Y9827900I-12500J0D01*
G01*
D26*
X9294328Y9775400D02*
X9654072D01*
Y10595400D01*
X9294328D02*
X9654072D01*
X9294328Y9775400D02*
Y10595400D01*
X4917600Y10882900D02*
X4937600D01*
X4917600Y10757900D02*
X4937600D01*
X4917600Y10628900D02*
X4937600D01*
X4917600Y10503900D02*
X4937600D01*
X10023000Y10730500D02*
X10043000D01*
X10023000Y10605500D02*
X10043000D01*
X7457600Y10882900D02*
X7477600D01*
X7457600Y10757900D02*
X7477600D01*
X6187600Y10882900D02*
X6207600D01*
X6187600Y10757900D02*
X6207600D01*
X8727600Y10628900D02*
X8747600D01*
X8727600Y10503900D02*
X8747600D01*
X7457600Y10628900D02*
X7477600D01*
X7457600Y10503900D02*
X7477600D01*
X6187600Y10628900D02*
X6207600D01*
X6187600Y10503900D02*
X6207600D01*
X11269200Y10628900D02*
X11289200D01*
X11269200Y10503900D02*
X11289200D01*
X12537600Y10628900D02*
X12557600D01*
X12537600Y10503900D02*
X12557600D01*
X13807600Y10628900D02*
X13827600D01*
X13807600Y10503900D02*
X13827600D01*
X13807600Y10882900D02*
X13827600D01*
X13807600Y10757900D02*
X13827600D01*
X10023000Y10984500D02*
X10043000D01*
X10023000Y10859500D02*
X10043000D01*
X8727600Y10882900D02*
X8747600D01*
X8727600Y10757900D02*
X8747600D01*
X11267600Y10882900D02*
X11287600D01*
X11267600Y10757900D02*
X11287600D01*
X12539200Y10882900D02*
X12559200D01*
X12539200Y10757900D02*
X12559200D01*
X9683990Y9539190D02*
X9975610D01*
X9683990Y9764810D02*
X9975610D01*
D27*
X14427135Y10744225D02*
Y10896575D01*
X14350958D01*
X14325568Y10871183D01*
Y10820400D01*
X14350958Y10795008D01*
X14427135D01*
X14376350D02*
X14325568Y10744225D01*
X14173216D02*
X14274783D01*
X14173216Y10845792D01*
Y10871183D01*
X14198608Y10896575D01*
X14249393D01*
X14274783Y10871183D01*
X14046257Y10744225D02*
Y10896575D01*
X14122433Y10820400D01*
X14020866D01*
X14427135Y10490225D02*
Y10642575D01*
X14350958D01*
X14325568Y10617183D01*
Y10566400D01*
X14350958Y10541008D01*
X14427135D01*
X14376350D02*
X14325568Y10490225D01*
X14173216D02*
X14274783D01*
X14173216Y10591792D01*
Y10617183D01*
X14198608Y10642575D01*
X14249393D01*
X14274783Y10617183D01*
X14122433D02*
X14097041Y10642575D01*
X14046257D01*
X14020866Y10617183D01*
Y10591792D01*
X14046257Y10566400D01*
X14071649D01*
X14046257D01*
X14020866Y10541008D01*
Y10515617D01*
X14046257Y10490225D01*
X14097041D01*
X14122433Y10515617D01*
X13157133Y10744225D02*
Y10896575D01*
X13080959D01*
X13055566Y10871183D01*
Y10820400D01*
X13080959Y10795008D01*
X13157133D01*
X13106351D02*
X13055566Y10744225D01*
X12903217D02*
X13004784D01*
X12903217Y10845792D01*
Y10871183D01*
X12928609Y10896575D01*
X12979391D01*
X13004784Y10871183D01*
X12750866Y10744225D02*
X12852432D01*
X12750866Y10845792D01*
Y10871183D01*
X12776257Y10896575D01*
X12827042D01*
X12852432Y10871183D01*
X13157143Y10490225D02*
Y10642575D01*
X13080968D01*
X13055576Y10617183D01*
Y10566400D01*
X13080968Y10541008D01*
X13157143D01*
X13106358D02*
X13055576Y10490225D01*
X12903224D02*
X13004791D01*
X12903224Y10591792D01*
Y10617183D01*
X12928616Y10642575D01*
X12979401D01*
X13004791Y10617183D01*
X12852441Y10490225D02*
X12801657D01*
X12827049D01*
Y10642575D01*
X12852441Y10617183D01*
X11887134Y10744225D02*
Y10896575D01*
X11810959D01*
X11785567Y10871183D01*
Y10820400D01*
X11810959Y10795008D01*
X11887134D01*
X11836351D02*
X11785567Y10744225D01*
X11633216D02*
X11734783D01*
X11633216Y10845792D01*
Y10871183D01*
X11658608Y10896575D01*
X11709392D01*
X11734783Y10871183D01*
X11582433D02*
X11557041Y10896575D01*
X11506257D01*
X11480866Y10871183D01*
Y10769617D01*
X11506257Y10744225D01*
X11557041D01*
X11582433Y10769617D01*
Y10871183D01*
X11874438Y10490225D02*
Y10642575D01*
X11798263D01*
X11772871Y10617183D01*
Y10566400D01*
X11798263Y10541008D01*
X11874438D01*
X11823655D02*
X11772871Y10490225D01*
X11722088D02*
X11671304D01*
X11696696D01*
Y10642575D01*
X11722088Y10617183D01*
X11595129Y10515617D02*
X11569737Y10490225D01*
X11518953D01*
X11493561Y10515617D01*
Y10617183D01*
X11518953Y10642575D01*
X11569737D01*
X11595129Y10617183D01*
Y10591792D01*
X11569737Y10566400D01*
X11493561D01*
X10629838Y10845825D02*
Y10998175D01*
X10553663D01*
X10528271Y10972783D01*
Y10922000D01*
X10553663Y10896608D01*
X10629838D01*
X10579055D02*
X10528271Y10845825D01*
X10477488D02*
X10426704D01*
X10452096D01*
Y10998175D01*
X10477488Y10972783D01*
X10350529D02*
X10325137Y10998175D01*
X10274353D01*
X10248961Y10972783D01*
Y10947392D01*
X10274353Y10922000D01*
X10248961Y10896608D01*
Y10871217D01*
X10274353Y10845825D01*
X10325137D01*
X10350529Y10871217D01*
Y10896608D01*
X10325137Y10922000D01*
X10350529Y10947392D01*
Y10972783D01*
X10325137Y10922000D02*
X10274353D01*
X10629838Y10591825D02*
Y10744175D01*
X10553663D01*
X10528271Y10718783D01*
Y10668000D01*
X10553663Y10642608D01*
X10629838D01*
X10579055D02*
X10528271Y10591825D01*
X10477488D02*
X10426704D01*
X10452096D01*
Y10744175D01*
X10477488Y10718783D01*
X10350529Y10744175D02*
X10248961D01*
Y10718783D01*
X10350529Y10617217D01*
Y10591825D01*
X9334438Y10744225D02*
Y10896575D01*
X9258263D01*
X9232871Y10871183D01*
Y10820400D01*
X9258263Y10795008D01*
X9334438D01*
X9283655D02*
X9232871Y10744225D01*
X9182088D02*
X9131304D01*
X9156696D01*
Y10896575D01*
X9182088Y10871183D01*
X8953561Y10896575D02*
X9004345Y10871183D01*
X9055129Y10820400D01*
Y10769617D01*
X9029737Y10744225D01*
X8978953D01*
X8953561Y10769617D01*
Y10795008D01*
X8978953Y10820400D01*
X9055129D01*
X8902638Y10287025D02*
Y10439375D01*
X8826463D01*
X8801071Y10413983D01*
Y10363200D01*
X8826463Y10337808D01*
X8902638D01*
X8851855D02*
X8801071Y10287025D01*
X8750288D02*
X8699504D01*
X8724896D01*
Y10439375D01*
X8750288Y10413983D01*
X8521761Y10439375D02*
X8623329D01*
Y10363200D01*
X8572545Y10388592D01*
X8547153D01*
X8521761Y10363200D01*
Y10312417D01*
X8547153Y10287025D01*
X8597937D01*
X8623329Y10312417D01*
X8089838Y10744225D02*
Y10896575D01*
X8013663D01*
X7988271Y10871183D01*
Y10820400D01*
X8013663Y10795008D01*
X8089838D01*
X8039055D02*
X7988271Y10744225D01*
X7937488D02*
X7886704D01*
X7912096D01*
Y10896575D01*
X7937488Y10871183D01*
X7734353Y10744225D02*
Y10896575D01*
X7810529Y10820400D01*
X7708961D01*
X8089838Y10490225D02*
Y10642575D01*
X8013663D01*
X7988271Y10617183D01*
Y10566400D01*
X8013663Y10541008D01*
X8089838D01*
X8039055D02*
X7988271Y10490225D01*
X7937488D02*
X7886704D01*
X7912096D01*
Y10642575D01*
X7937488Y10617183D01*
X7810529D02*
X7785137Y10642575D01*
X7734353D01*
X7708961Y10617183D01*
Y10591792D01*
X7734353Y10566400D01*
X7759745D01*
X7734353D01*
X7708961Y10541008D01*
Y10515617D01*
X7734353Y10490225D01*
X7785137D01*
X7810529Y10515617D01*
X6819838Y10744225D02*
Y10896575D01*
X6743663D01*
X6718271Y10871183D01*
Y10820400D01*
X6743663Y10795008D01*
X6819838D01*
X6769055D02*
X6718271Y10744225D01*
X6667488D02*
X6616704D01*
X6642096D01*
Y10896575D01*
X6667488Y10871183D01*
X6438961Y10744225D02*
X6540529D01*
X6438961Y10845792D01*
Y10871183D01*
X6464353Y10896575D01*
X6515137D01*
X6540529Y10871183D01*
X6819846Y10490225D02*
Y10642575D01*
X6743671D01*
X6718279Y10617183D01*
Y10566400D01*
X6743671Y10541008D01*
X6819846D01*
X6769063D02*
X6718279Y10490225D01*
X6667496D02*
X6616712D01*
X6642104D01*
Y10642575D01*
X6667496Y10617183D01*
X6540537Y10490225D02*
X6489753D01*
X6515145D01*
Y10642575D01*
X6540537Y10617183D01*
X5549838Y10744225D02*
Y10896575D01*
X5473663D01*
X5448271Y10871183D01*
Y10820400D01*
X5473663Y10795008D01*
X5549838D01*
X5499055D02*
X5448271Y10744225D01*
X5397488D02*
X5346704D01*
X5372096D01*
Y10896575D01*
X5397488Y10871183D01*
X5270529D02*
X5245137Y10896575D01*
X5194353D01*
X5168961Y10871183D01*
Y10769617D01*
X5194353Y10744225D01*
X5245137D01*
X5270529Y10769617D01*
Y10871183D01*
X5460959Y10490225D02*
Y10642575D01*
X5384783D01*
X5359392Y10617183D01*
Y10566400D01*
X5384783Y10541008D01*
X5460959D01*
X5410175D02*
X5359392Y10490225D01*
X5308608Y10515617D02*
X5283216Y10490225D01*
X5232433D01*
X5207041Y10515617D01*
Y10617183D01*
X5232433Y10642575D01*
X5283216D01*
X5308608Y10617183D01*
Y10591792D01*
X5283216Y10566400D01*
X5207041D01*
X9524959Y9702775D02*
Y9575817D01*
X9499567Y9550425D01*
X9448783D01*
X9423392Y9575817D01*
Y9702775D01*
X9372608Y9575817D02*
X9347216Y9550425D01*
X9296433D01*
X9271041Y9575817D01*
Y9677383D01*
X9296433Y9702775D01*
X9347216D01*
X9372608Y9677383D01*
Y9651992D01*
X9347216Y9626600D01*
X9271041D01*
X9880592Y9474183D02*
X9905983Y9499575D01*
X9956767D01*
X9982159Y9474183D01*
Y9372617D01*
X9956767Y9347225D01*
X9905983D01*
X9880592Y9372617D01*
X9829808D02*
X9804416Y9347225D01*
X9753633D01*
X9728241Y9372617D01*
Y9474183D01*
X9753633Y9499575D01*
X9804416D01*
X9829808Y9474183D01*
Y9448792D01*
X9804416Y9423400D01*
X9728241D01*
D31*
X9394327Y9850400D02*
G03*
X9394327Y9850400I-25000J0D01*
G01*
%TF.MD5,2c03ce0499148299e0691b6977684694*%
M02*
