%TF.GenerationSoftware,Altium Limited,Altium Designer,23.10.1 (27)*%
G04 Layer_Physical_Order=2*
G04 Layer_Color=16711680*
%FSLAX45Y45*%
%MOMM*%
%TF.SameCoordinates,A038C99E-A49E-49FA-BA90-4B12FE75E0D5*%
%TF.FilePolarity,Positive*%
%TF.FileFunction,Copper,L2,Bot,Signal*%
%TF.Part,Single*%
G01*
G75*
%TA.AperFunction,SMDPad,CuDef*%
%ADD11R,1.30464X1.45620*%
%TA.AperFunction,Conductor*%
%ADD15C,0.38100*%
%TA.AperFunction,ComponentPad*%
%ADD16R,6.50000X6.50000*%
%ADD17R,6.50000X6.50000*%
%ADD18R,1.50000X1.50000*%
%ADD19C,1.50000*%
%TA.AperFunction,ViaPad*%
%ADD20C,0.45000*%
%ADD21C,0.50000*%
%TA.AperFunction,SMDPad,CuDef*%
%ADD22R,2.35283X0.49493*%
G04:AMPARAMS|DCode=23|XSize=2.35283mm|YSize=0.49493mm|CornerRadius=0.24746mm|HoleSize=0mm|Usage=FLASHONLY|Rotation=0.000|XOffset=0mm|YOffset=0mm|HoleType=Round|Shape=RoundedRectangle|*
%AMROUNDEDRECTD23*
21,1,2.35283,0.00000,0,0,0.0*
21,1,1.85790,0.49493,0,0,0.0*
1,1,0.49493,0.92895,0.00000*
1,1,0.49493,-0.92895,0.00000*
1,1,0.49493,-0.92895,0.00000*
1,1,0.49493,0.92895,0.00000*
%
%ADD23ROUNDEDRECTD23*%
%ADD24R,1.20000X1.45000*%
G36*
X14500000Y7700000D02*
X4500000D01*
Y12700000D01*
X14500000D01*
Y7700000D01*
D02*
G37*
%LPC*%
G36*
X14289600Y11805480D02*
X13599600D01*
Y11115480D01*
X14289600D01*
Y11805480D01*
D02*
G37*
G36*
X13019600D02*
X12329600D01*
Y11115480D01*
X13019600D01*
Y11805480D01*
D02*
G37*
G36*
X11749600D02*
X11059600D01*
Y11115480D01*
X11749600D01*
Y11805480D01*
D02*
G37*
G36*
X10479600D02*
X9789600D01*
Y11115480D01*
X10479600D01*
Y11805480D01*
D02*
G37*
G36*
X9209600D02*
X8519600D01*
Y11115480D01*
X9209600D01*
Y11805480D01*
D02*
G37*
G36*
X7939600D02*
X7249600D01*
Y11115480D01*
X7939600D01*
Y11805480D01*
D02*
G37*
G36*
X6669600D02*
X5979600D01*
Y11115480D01*
X6669600D01*
Y11805480D01*
D02*
G37*
G36*
X5399600D02*
X4709600D01*
Y11115480D01*
X5399600D01*
Y11805480D01*
D02*
G37*
G36*
X10013000Y11014500D02*
X9943000D01*
Y10932000D01*
X10013000D01*
Y11014500D01*
D02*
G37*
G36*
X9923000D02*
X9853000D01*
Y10932000D01*
X9923000D01*
Y11014500D01*
D02*
G37*
G36*
X12529200Y10912900D02*
X12459200D01*
Y10830400D01*
X12529200D01*
Y10912900D01*
D02*
G37*
G36*
X12439200D02*
X12369200D01*
Y10830400D01*
X12439200D01*
Y10912900D01*
D02*
G37*
G36*
X13797600D02*
X13727600D01*
Y10830400D01*
X13797600D01*
Y10912900D01*
D02*
G37*
G36*
X11257600D02*
X11187600D01*
Y10830400D01*
X11257600D01*
Y10912900D01*
D02*
G37*
G36*
X8717600D02*
X8647600D01*
Y10830400D01*
X8717600D01*
Y10912900D01*
D02*
G37*
G36*
X7447600D02*
X7377600D01*
Y10830400D01*
X7447600D01*
Y10912900D01*
D02*
G37*
G36*
X6177600D02*
X6107600D01*
Y10830400D01*
X6177600D01*
Y10912900D01*
D02*
G37*
G36*
X4907600D02*
X4837600D01*
Y10830400D01*
X4907600D01*
Y10912900D01*
D02*
G37*
G36*
X13707600D02*
X13637601D01*
Y10830400D01*
X13707600D01*
Y10912900D01*
D02*
G37*
G36*
X11167600D02*
X11097600D01*
Y10830400D01*
X11167600D01*
Y10912900D01*
D02*
G37*
G36*
X8627600D02*
X8557600D01*
Y10830400D01*
X8627600D01*
Y10912900D01*
D02*
G37*
G36*
X7357600D02*
X7287600D01*
Y10830400D01*
X7357600D01*
Y10912900D01*
D02*
G37*
G36*
X6087600D02*
X6017600D01*
Y10830400D01*
X6087600D01*
Y10912900D01*
D02*
G37*
G36*
X4817600D02*
X4747600D01*
Y10830400D01*
X4817600D01*
Y10912900D01*
D02*
G37*
G36*
X10013000Y10912000D02*
X9943000D01*
Y10829500D01*
X10013000D01*
Y10912000D01*
D02*
G37*
G36*
X9923000D02*
X9853000D01*
Y10829500D01*
X9923000D01*
Y10912000D01*
D02*
G37*
G36*
X13990300Y10905600D02*
X13844901D01*
Y10735200D01*
X13990300D01*
Y10788028D01*
X14094669D01*
X14098326Y10784370D01*
X14113947Y10777900D01*
X14130853D01*
X14146474Y10784370D01*
X14158430Y10796326D01*
X14164900Y10811946D01*
Y10828854D01*
X14158430Y10844474D01*
X14146474Y10856430D01*
X14130853Y10862900D01*
X14113947D01*
X14098326Y10856430D01*
X14094669Y10852772D01*
X13990300D01*
Y10905600D01*
D02*
G37*
G36*
X12721900D02*
X12576500D01*
Y10735200D01*
X12721900D01*
Y10788028D01*
X12824667D01*
X12828326Y10784370D01*
X12843945Y10777900D01*
X12860854D01*
X12876474Y10784370D01*
X12888429Y10796326D01*
X12894901Y10811946D01*
Y10828854D01*
X12888429Y10844474D01*
X12876474Y10856430D01*
X12860854Y10862900D01*
X12843945D01*
X12828326Y10856430D01*
X12824667Y10852772D01*
X12721900D01*
Y10905600D01*
D02*
G37*
G36*
X11450300D02*
X11304900D01*
Y10735200D01*
X11450300D01*
Y10788028D01*
X11554668D01*
X11558326Y10784370D01*
X11573946Y10777900D01*
X11590854D01*
X11606474Y10784370D01*
X11618430Y10796326D01*
X11624900Y10811946D01*
Y10828854D01*
X11618430Y10844474D01*
X11606474Y10856430D01*
X11590854Y10862900D01*
X11573946D01*
X11558326Y10856430D01*
X11554668Y10852772D01*
X11450300D01*
Y10905600D01*
D02*
G37*
G36*
X10205700Y11007200D02*
X10060300D01*
Y10836800D01*
X10170823D01*
X10173950Y10836178D01*
X10248974D01*
X10269900Y10815251D01*
Y10811946D01*
X10276370Y10796326D01*
X10288326Y10784370D01*
X10303946Y10777900D01*
X10320854D01*
X10336474Y10784370D01*
X10348430Y10796326D01*
X10354900Y10811946D01*
Y10828854D01*
X10348430Y10844474D01*
X10336474Y10856430D01*
X10320854Y10862900D01*
X10313814D01*
X10285273Y10891440D01*
X10274771Y10898458D01*
X10262383Y10900922D01*
X10205700D01*
Y11007200D01*
D02*
G37*
G36*
X8910300Y10905600D02*
X8764900D01*
Y10735200D01*
X8910300D01*
Y10788028D01*
X9014668D01*
X9018326Y10784370D01*
X9033946Y10777900D01*
X9050854D01*
X9066474Y10784370D01*
X9078430Y10796326D01*
X9084900Y10811946D01*
Y10828854D01*
X9078430Y10844474D01*
X9066474Y10856430D01*
X9050854Y10862900D01*
X9033946D01*
X9018326Y10856430D01*
X9014668Y10852772D01*
X8910300D01*
Y10905600D01*
D02*
G37*
G36*
X7640300D02*
X7494900D01*
Y10735200D01*
X7640300D01*
Y10788028D01*
X7744668D01*
X7748326Y10784370D01*
X7763946Y10777900D01*
X7780854D01*
X7796474Y10784370D01*
X7808430Y10796326D01*
X7814900Y10811946D01*
Y10828854D01*
X7808430Y10844474D01*
X7796474Y10856430D01*
X7780854Y10862900D01*
X7763946D01*
X7748326Y10856430D01*
X7744668Y10852772D01*
X7640300D01*
Y10905600D01*
D02*
G37*
G36*
X6370300D02*
X6224900D01*
Y10735200D01*
X6370300D01*
Y10788028D01*
X6474668D01*
X6478326Y10784370D01*
X6493946Y10777900D01*
X6510854D01*
X6526474Y10784370D01*
X6538430Y10796326D01*
X6544900Y10811946D01*
Y10828854D01*
X6538430Y10844474D01*
X6526474Y10856430D01*
X6510854Y10862900D01*
X6493946D01*
X6478326Y10856430D01*
X6474668Y10852772D01*
X6370300D01*
Y10905600D01*
D02*
G37*
G36*
X5100300D02*
X4954900D01*
Y10735200D01*
X5100300D01*
Y10788028D01*
X5204668D01*
X5208326Y10784370D01*
X5223946Y10777900D01*
X5240854D01*
X5256474Y10784370D01*
X5268430Y10796326D01*
X5274900Y10811946D01*
Y10828854D01*
X5268430Y10844474D01*
X5256474Y10856430D01*
X5240854Y10862900D01*
X5223946D01*
X5208326Y10856430D01*
X5204668Y10852772D01*
X5100300D01*
Y10905600D01*
D02*
G37*
G36*
X10625654Y10888300D02*
X10608746D01*
X10593126Y10881830D01*
X10581170Y10869874D01*
X10574700Y10854254D01*
Y10837346D01*
X10581170Y10821726D01*
X10593126Y10809770D01*
X10608746Y10803300D01*
X10625654D01*
X10635316Y10807303D01*
X10661028Y10781591D01*
Y10756887D01*
X10648328Y10751626D01*
X10641274Y10758680D01*
X10625654Y10765150D01*
X10608746D01*
X10593126Y10758680D01*
X10581170Y10746724D01*
X10574700Y10731104D01*
Y10714197D01*
X10581170Y10698576D01*
X10584828Y10694918D01*
Y10579809D01*
X10580291Y10575272D01*
X10348536D01*
X10343276Y10587972D01*
X10348430Y10593126D01*
X10354900Y10608746D01*
Y10625654D01*
X10348430Y10641274D01*
X10336474Y10653230D01*
X10320854Y10659700D01*
X10313814D01*
X10282623Y10690890D01*
X10272121Y10697908D01*
X10259733Y10700372D01*
X10205700D01*
Y10753200D01*
X10060300D01*
Y10582800D01*
X10050718Y10575272D01*
X10025606D01*
X10013000Y10575500D01*
Y10658000D01*
X9933000D01*
X9853000D01*
Y10581080D01*
X9728819D01*
X9714208Y10578174D01*
X9701822Y10569897D01*
X9693545Y10557511D01*
X9690639Y10542900D01*
X9693545Y10528289D01*
X9699850Y10518854D01*
X9701044Y10510400D01*
X9699850Y10501946D01*
X9693545Y10492511D01*
X9690639Y10477900D01*
X9693545Y10463289D01*
X9701822Y10450903D01*
Y10439897D01*
X9693545Y10427511D01*
X9690639Y10412900D01*
X9693545Y10398289D01*
X9699850Y10388854D01*
X9701044Y10380400D01*
X9699850Y10371946D01*
X9693545Y10362511D01*
X9690639Y10347900D01*
X9693545Y10333289D01*
X9701822Y10320903D01*
Y10309897D01*
X9693545Y10297511D01*
X9690639Y10282900D01*
X9693545Y10268289D01*
X9699850Y10258854D01*
X9701044Y10250400D01*
X9699850Y10241946D01*
X9693545Y10232511D01*
X9690639Y10217900D01*
X9693545Y10203289D01*
X9699850Y10193854D01*
X9701044Y10185400D01*
X9699850Y10176946D01*
X9693545Y10167511D01*
X9690639Y10152900D01*
X9693545Y10138289D01*
X9699850Y10128854D01*
X9701044Y10120400D01*
X9699850Y10111946D01*
X9693545Y10102511D01*
X9690639Y10087900D01*
X9693545Y10073289D01*
X9701822Y10060903D01*
X9697802Y10055991D01*
X9696559Y10055160D01*
X9686669Y10040359D01*
X9685185Y10032900D01*
X9958243D01*
X9956759Y10040359D01*
X9955110Y10042828D01*
X9961898Y10055528D01*
X14329700D01*
X14342088Y10057992D01*
X14352591Y10065010D01*
X14450090Y10162510D01*
X14457108Y10173012D01*
X14459572Y10185400D01*
Y10766900D01*
X14463229Y10770557D01*
X14469701Y10786178D01*
Y10803085D01*
X14463229Y10818706D01*
X14451274Y10830661D01*
X14435654Y10837131D01*
X14418745D01*
X14403127Y10830661D01*
X14391170Y10818706D01*
X14384700Y10803085D01*
Y10786178D01*
X14391170Y10770557D01*
X14394827Y10766900D01*
Y10198809D01*
X14316290Y10120272D01*
X14298196D01*
X14297412Y10121276D01*
X14293553Y10132972D01*
X14348489Y10187910D01*
X14355508Y10198412D01*
X14357973Y10210800D01*
Y10640268D01*
X14361630Y10643926D01*
X14368100Y10659546D01*
Y10676454D01*
X14361630Y10692074D01*
X14349673Y10704030D01*
X14334055Y10710500D01*
X14317146D01*
X14301526Y10704030D01*
X14289571Y10692074D01*
X14283099Y10676454D01*
Y10659546D01*
X14289571Y10643926D01*
X14293228Y10640268D01*
Y10224209D01*
X14254291Y10185272D01*
X13245596D01*
X13244810Y10186277D01*
X13240953Y10197972D01*
X13307091Y10264110D01*
X13314108Y10274612D01*
X13316573Y10287000D01*
Y10744200D01*
X13314108Y10756588D01*
X13307091Y10767090D01*
X13230890Y10843290D01*
X13220387Y10850308D01*
X13208000Y10852772D01*
X13184932D01*
X13181274Y10856430D01*
X13165654Y10862900D01*
X13148746D01*
X13133125Y10856430D01*
X13121170Y10844474D01*
X13114700Y10828854D01*
Y10811946D01*
X13121170Y10796326D01*
X13133125Y10784370D01*
X13148746Y10777900D01*
X13165654D01*
X13181274Y10784370D01*
X13184932Y10788028D01*
X13194591D01*
X13251828Y10730791D01*
Y10300409D01*
X13201691Y10250272D01*
X13132796D01*
X13132011Y10251276D01*
X13128152Y10262972D01*
X13180090Y10314910D01*
X13187108Y10325412D01*
X13189572Y10337800D01*
Y10538668D01*
X13193230Y10542326D01*
X13199699Y10557946D01*
Y10574854D01*
X13193230Y10590474D01*
X13181274Y10602430D01*
X13165654Y10608900D01*
X13148746D01*
X13133125Y10602430D01*
X13121170Y10590474D01*
X13114700Y10574854D01*
Y10557946D01*
X13121170Y10542326D01*
X13124828Y10538668D01*
Y10351209D01*
X13088892Y10315272D01*
X12003996D01*
X12003211Y10316277D01*
X11999353Y10327972D01*
X12037090Y10365710D01*
X12044108Y10376212D01*
X12046572Y10388600D01*
Y10744200D01*
X12044108Y10756588D01*
X12037090Y10767090D01*
X11962211Y10841970D01*
X11951708Y10848988D01*
X11939320Y10851452D01*
X11916252D01*
X11911274Y10856430D01*
X11895654Y10862900D01*
X11878746D01*
X11863126Y10856430D01*
X11851170Y10844474D01*
X11844700Y10828854D01*
Y10811946D01*
X11851170Y10796326D01*
X11863126Y10784370D01*
X11878746Y10777900D01*
X11895654D01*
X11911274Y10784370D01*
X11913612Y10786708D01*
X11925911D01*
X11981828Y10730791D01*
Y10402009D01*
X11960091Y10380272D01*
X11865796D01*
X11865012Y10381276D01*
X11861153Y10392972D01*
X11910090Y10441910D01*
X11917108Y10452412D01*
X11919572Y10464800D01*
Y10564068D01*
X11923230Y10567726D01*
X11929700Y10583346D01*
Y10600254D01*
X11923230Y10615874D01*
X11911274Y10627830D01*
X11895654Y10634300D01*
X11878746D01*
X11863126Y10627830D01*
X11851170Y10615874D01*
X11844700Y10600254D01*
Y10583346D01*
X11851170Y10567726D01*
X11854828Y10564068D01*
Y10478209D01*
X11821891Y10445272D01*
X10686196D01*
X10685411Y10446277D01*
X10681553Y10457972D01*
X10716290Y10492710D01*
X10723308Y10503212D01*
X10725772Y10515600D01*
Y10795000D01*
X10723308Y10807388D01*
X10716290Y10817890D01*
X10666811Y10867370D01*
X10656308Y10874388D01*
X10646831Y10876273D01*
X10641274Y10881830D01*
X10625654Y10888300D01*
D02*
G37*
G36*
X13797600Y10810400D02*
X13727600D01*
Y10727900D01*
X13797600D01*
Y10810400D01*
D02*
G37*
G36*
X13707600D02*
X13637601D01*
Y10727900D01*
X13707600D01*
Y10810400D01*
D02*
G37*
G36*
X12529200Y10810401D02*
X12459200D01*
Y10727900D01*
X12529200D01*
Y10810401D01*
D02*
G37*
G36*
X12439200D02*
X12369200D01*
Y10727900D01*
X12439200D01*
Y10810401D01*
D02*
G37*
G36*
X11257600Y10810400D02*
X11187600D01*
Y10727900D01*
X11257600D01*
Y10810400D01*
D02*
G37*
G36*
X11167600D02*
X11097600D01*
Y10727900D01*
X11167600D01*
Y10810400D01*
D02*
G37*
G36*
X8717600D02*
X8647600D01*
Y10727900D01*
X8717600D01*
Y10810400D01*
D02*
G37*
G36*
X8627600D02*
X8557600D01*
Y10727900D01*
X8627600D01*
Y10810400D01*
D02*
G37*
G36*
X7447600D02*
X7377600D01*
Y10727900D01*
X7447600D01*
Y10810400D01*
D02*
G37*
G36*
X7357600D02*
X7287600D01*
Y10727900D01*
X7357600D01*
Y10810400D01*
D02*
G37*
G36*
X6177600D02*
X6107600D01*
Y10727900D01*
X6177600D01*
Y10810400D01*
D02*
G37*
G36*
X6087600D02*
X6017600D01*
Y10727900D01*
X6087600D01*
Y10810400D01*
D02*
G37*
G36*
X4907600D02*
X4837600D01*
Y10727900D01*
X4907600D01*
Y10810400D01*
D02*
G37*
G36*
X4817600D02*
X4747600D01*
Y10727900D01*
X4817600D01*
Y10810400D01*
D02*
G37*
G36*
X10013000Y10760500D02*
X9943000D01*
Y10678000D01*
X10013000D01*
Y10760500D01*
D02*
G37*
G36*
X9923000D02*
X9853000D01*
Y10678000D01*
X9923000D01*
Y10760500D01*
D02*
G37*
G36*
X9355654Y10862900D02*
X9338746D01*
X9323126Y10856430D01*
X9311170Y10844474D01*
X9304700Y10828854D01*
Y10823681D01*
X9260487Y10779468D01*
X9253469Y10768966D01*
X9251005Y10756577D01*
Y10589189D01*
X9239805Y10583203D01*
X9237040Y10585050D01*
X9219581Y10588523D01*
X9136686D01*
Y10542900D01*
X9116686D01*
Y10588523D01*
X9064870D01*
X9056383Y10601223D01*
X9059500Y10608746D01*
Y10625654D01*
X9053030Y10641274D01*
X9041074Y10653230D01*
X9025454Y10659700D01*
X9008546D01*
X8992926Y10653230D01*
X8980970Y10641274D01*
X8974500Y10625654D01*
Y10622349D01*
X8950924Y10598772D01*
X8910300D01*
Y10651600D01*
X8764900D01*
Y10481200D01*
X8910300D01*
Y10534028D01*
X8964333D01*
X8976721Y10536492D01*
X8990632Y10530513D01*
X8991641Y10525441D01*
X9001530Y10510640D01*
X9002773Y10509809D01*
X9006793Y10504897D01*
X8998517Y10492511D01*
X8995611Y10477900D01*
X8998517Y10463289D01*
X9004821Y10453854D01*
X9006016Y10445400D01*
X9004821Y10436946D01*
X8998517Y10427511D01*
X8995611Y10412900D01*
X8998517Y10398289D01*
X9002069Y10392972D01*
X8995281Y10380272D01*
X8258309D01*
X8211172Y10427409D01*
Y10617200D01*
X8208708Y10629588D01*
X8201690Y10640090D01*
X8109572Y10732209D01*
Y10792668D01*
X8113230Y10796326D01*
X8119700Y10811946D01*
Y10828854D01*
X8113230Y10844474D01*
X8101274Y10856430D01*
X8085654Y10862900D01*
X8068746D01*
X8053126Y10856430D01*
X8041170Y10844474D01*
X8034700Y10828854D01*
Y10811946D01*
X8041170Y10796326D01*
X8044828Y10792668D01*
Y10718800D01*
X8047292Y10706412D01*
X8054310Y10695910D01*
X8146428Y10603791D01*
Y10548137D01*
X8133728Y10546886D01*
X8132508Y10553020D01*
X8125490Y10563522D01*
X8119700Y10569313D01*
Y10574854D01*
X8113230Y10590474D01*
X8101274Y10602430D01*
X8085654Y10608900D01*
X8068746D01*
X8053126Y10602430D01*
X8041170Y10590474D01*
X8034700Y10574854D01*
Y10557946D01*
X8041170Y10542326D01*
X8053126Y10530370D01*
X8068746Y10523900D01*
X8070228D01*
Y10363200D01*
X8072692Y10350812D01*
X8079710Y10340310D01*
X8157047Y10262972D01*
X8153188Y10251276D01*
X8152404Y10250272D01*
X7067509D01*
X6966572Y10351209D01*
Y10693400D01*
X6964108Y10705788D01*
X6957090Y10716290D01*
X6849700Y10823681D01*
Y10828854D01*
X6843230Y10844474D01*
X6831274Y10856430D01*
X6815654Y10862900D01*
X6798746D01*
X6783126Y10856430D01*
X6771170Y10844474D01*
X6764700Y10828854D01*
Y10811946D01*
X6771170Y10796326D01*
X6783126Y10784370D01*
X6798746Y10777900D01*
X6803919D01*
X6901828Y10679991D01*
Y10521238D01*
X6889128Y10519988D01*
X6887908Y10526121D01*
X6880890Y10536623D01*
X6849700Y10567814D01*
Y10574854D01*
X6843230Y10590474D01*
X6831274Y10602430D01*
X6815654Y10608900D01*
X6798746D01*
X6783126Y10602430D01*
X6771170Y10590474D01*
X6764700Y10574854D01*
Y10557946D01*
X6771170Y10542326D01*
X6783126Y10530370D01*
X6798746Y10523900D01*
X6802051D01*
X6825628Y10500324D01*
Y10185400D01*
X6828092Y10173012D01*
X6835110Y10162510D01*
X6864647Y10132972D01*
X6860788Y10121276D01*
X6860004Y10120272D01*
X5775109D01*
X5696572Y10198809D01*
Y10566400D01*
X5694108Y10578788D01*
X5687090Y10589290D01*
X5569572Y10706809D01*
Y10792668D01*
X5573230Y10796326D01*
X5579700Y10811946D01*
Y10828854D01*
X5573230Y10844474D01*
X5561274Y10856430D01*
X5545654Y10862900D01*
X5528746D01*
X5513126Y10856430D01*
X5501170Y10844474D01*
X5494700Y10828854D01*
Y10811946D01*
X5501170Y10796326D01*
X5504828Y10792668D01*
Y10693400D01*
X5507292Y10681012D01*
X5514310Y10670510D01*
X5631828Y10552991D01*
Y10185400D01*
X5634292Y10173012D01*
X5641310Y10162510D01*
X5734643Y10069176D01*
X5729383Y10056476D01*
X5632624D01*
X5592736Y10096363D01*
Y10524754D01*
X5590272Y10537143D01*
X5583255Y10547645D01*
X5570459Y10560440D01*
Y10565613D01*
X5563989Y10581233D01*
X5552033Y10593189D01*
X5536413Y10599659D01*
X5519506D01*
X5503885Y10593189D01*
X5491930Y10581233D01*
X5485459Y10565613D01*
Y10548706D01*
X5491930Y10533085D01*
X5503885Y10521130D01*
X5519506Y10514659D01*
X5524678D01*
X5527992Y10511346D01*
Y10082954D01*
X5530456Y10070566D01*
X5537474Y10060064D01*
X5596324Y10001213D01*
X5606826Y9994196D01*
X5619215Y9991732D01*
X8987306D01*
X8994094Y9979032D01*
X8991641Y9975359D01*
X8990157Y9967900D01*
X9263215D01*
X9261731Y9975359D01*
X9251841Y9990160D01*
X9250598Y9990991D01*
X9246578Y9995903D01*
X9254855Y10008289D01*
X9257761Y10022900D01*
X9254855Y10037511D01*
X9248550Y10046946D01*
X9247356Y10055400D01*
X9248550Y10063854D01*
X9254855Y10073289D01*
X9257761Y10087900D01*
X9254855Y10102511D01*
X9248550Y10111946D01*
X9247356Y10120400D01*
X9248550Y10128854D01*
X9254855Y10138289D01*
X9257761Y10152900D01*
X9254855Y10167511D01*
X9248550Y10176946D01*
X9247356Y10185400D01*
X9248550Y10193854D01*
X9254855Y10203289D01*
X9257761Y10217900D01*
X9254855Y10232511D01*
X9248550Y10241946D01*
X9247356Y10250400D01*
X9248550Y10258854D01*
X9254855Y10268289D01*
X9257761Y10282900D01*
X9254855Y10297511D01*
X9248550Y10306946D01*
X9247356Y10315400D01*
X9248550Y10323854D01*
X9254855Y10333289D01*
X9257761Y10347900D01*
X9254855Y10362511D01*
X9250498Y10369032D01*
X9257286Y10381732D01*
X9296504D01*
X9308892Y10384196D01*
X9319394Y10391213D01*
X9368770Y10440589D01*
X9375788Y10451092D01*
X9376357Y10453955D01*
X9380235Y10459759D01*
X9382700Y10472147D01*
Y10538668D01*
X9386357Y10542326D01*
X9392827Y10557946D01*
Y10574854D01*
X9386357Y10590474D01*
X9374402Y10602430D01*
X9358781Y10608900D01*
X9341874D01*
X9328449Y10603339D01*
X9315749Y10608519D01*
Y10743169D01*
X9350481Y10777900D01*
X9355654D01*
X9371274Y10784370D01*
X9383230Y10796326D01*
X9389700Y10811946D01*
Y10828854D01*
X9383230Y10844474D01*
X9371274Y10856430D01*
X9355654Y10862900D01*
D02*
G37*
G36*
X11259200Y10658900D02*
X11189200D01*
Y10576400D01*
X11259200D01*
Y10658900D01*
D02*
G37*
G36*
X11169200D02*
X11099200D01*
Y10576400D01*
X11169200D01*
Y10658900D01*
D02*
G37*
G36*
X13797600D02*
X13727600D01*
Y10576400D01*
X13797600D01*
Y10658900D01*
D02*
G37*
G36*
X12527600D02*
X12457600D01*
Y10576400D01*
X12527600D01*
Y10658900D01*
D02*
G37*
G36*
X8717600D02*
X8647600D01*
Y10576400D01*
X8717600D01*
Y10658900D01*
D02*
G37*
G36*
X7447600D02*
X7377600D01*
Y10576400D01*
X7447600D01*
Y10658900D01*
D02*
G37*
G36*
X6177600D02*
X6107600D01*
Y10576400D01*
X6177600D01*
Y10658900D01*
D02*
G37*
G36*
X4907600D02*
X4837600D01*
Y10576400D01*
X4907600D01*
Y10658900D01*
D02*
G37*
G36*
X7357600D02*
X7287600D01*
Y10576400D01*
X7357600D01*
Y10658900D01*
D02*
G37*
G36*
X6087600D02*
X6017600D01*
Y10576400D01*
X6087600D01*
Y10658900D01*
D02*
G37*
G36*
X4817600D02*
X4747600D01*
Y10576400D01*
X4817600D01*
Y10658900D01*
D02*
G37*
G36*
X13707600D02*
X13637601D01*
Y10576400D01*
X13707600D01*
Y10658900D01*
D02*
G37*
G36*
X12437600D02*
X12367600D01*
Y10576400D01*
X12437600D01*
Y10658900D01*
D02*
G37*
G36*
X8627600D02*
X8557600D01*
Y10576400D01*
X8627600D01*
Y10658900D01*
D02*
G37*
G36*
X13990300Y10651600D02*
X13844901D01*
Y10481200D01*
X13990300D01*
Y10534028D01*
X14094669D01*
X14098326Y10530370D01*
X14113947Y10523900D01*
X14130853D01*
X14146474Y10530370D01*
X14158430Y10542326D01*
X14164900Y10557946D01*
Y10574854D01*
X14158430Y10590474D01*
X14146474Y10602430D01*
X14130853Y10608900D01*
X14113947D01*
X14098326Y10602430D01*
X14094669Y10598772D01*
X13990300D01*
Y10651600D01*
D02*
G37*
G36*
X12720300D02*
X12574900D01*
Y10481200D01*
X12720300D01*
Y10534028D01*
X12824667D01*
X12828326Y10530370D01*
X12843945Y10523900D01*
X12860854D01*
X12876474Y10530370D01*
X12888429Y10542326D01*
X12894901Y10557946D01*
Y10574854D01*
X12888429Y10590474D01*
X12876474Y10602430D01*
X12860854Y10608900D01*
X12843945D01*
X12828326Y10602430D01*
X12824667Y10598772D01*
X12720300D01*
Y10651600D01*
D02*
G37*
G36*
X11451900D02*
X11306500D01*
Y10481200D01*
X11451900D01*
Y10534028D01*
X11554668D01*
X11558326Y10530370D01*
X11573946Y10523900D01*
X11590854D01*
X11606474Y10530370D01*
X11618430Y10542326D01*
X11624900Y10557946D01*
Y10574854D01*
X11618430Y10590474D01*
X11606474Y10602430D01*
X11590854Y10608900D01*
X11573946D01*
X11558326Y10602430D01*
X11554668Y10598772D01*
X11451900D01*
Y10651600D01*
D02*
G37*
G36*
X7640300D02*
X7494900D01*
Y10481200D01*
X7640300D01*
Y10534028D01*
X7744668D01*
X7748326Y10530370D01*
X7763946Y10523900D01*
X7780854D01*
X7796474Y10530370D01*
X7808430Y10542326D01*
X7814900Y10557946D01*
Y10574854D01*
X7808430Y10590474D01*
X7796474Y10602430D01*
X7780854Y10608900D01*
X7763946D01*
X7748326Y10602430D01*
X7744668Y10598772D01*
X7640300D01*
Y10651600D01*
D02*
G37*
G36*
X6370300D02*
X6224900D01*
Y10481200D01*
X6370300D01*
Y10534028D01*
X6474668D01*
X6478326Y10530370D01*
X6493946Y10523900D01*
X6510854D01*
X6526474Y10530370D01*
X6538430Y10542326D01*
X6544900Y10557946D01*
Y10574854D01*
X6538430Y10590474D01*
X6526474Y10602430D01*
X6510854Y10608900D01*
X6493946D01*
X6478326Y10602430D01*
X6474668Y10598772D01*
X6370300D01*
Y10651600D01*
D02*
G37*
G36*
X5100300D02*
X4954900D01*
Y10481200D01*
X5100300D01*
Y10534028D01*
X5204668D01*
X5208326Y10530370D01*
X5223946Y10523900D01*
X5240854D01*
X5256474Y10530370D01*
X5268430Y10542326D01*
X5274900Y10557946D01*
Y10574854D01*
X5268430Y10590474D01*
X5256474Y10602430D01*
X5240854Y10608900D01*
X5223946D01*
X5208326Y10602430D01*
X5204668Y10598772D01*
X5100300D01*
Y10651600D01*
D02*
G37*
G36*
X13797600Y10556400D02*
X13727600D01*
Y10473900D01*
X13797600D01*
Y10556400D01*
D02*
G37*
G36*
X13707600D02*
X13637601D01*
Y10473900D01*
X13707600D01*
Y10556400D01*
D02*
G37*
G36*
X12527600D02*
X12457600D01*
Y10473900D01*
X12527600D01*
Y10556400D01*
D02*
G37*
G36*
X12437600D02*
X12367600D01*
Y10473900D01*
X12437600D01*
Y10556400D01*
D02*
G37*
G36*
X11259200Y10556401D02*
X11189200D01*
Y10473900D01*
X11259200D01*
Y10556401D01*
D02*
G37*
G36*
X11169200D02*
X11099200D01*
Y10473900D01*
X11169200D01*
Y10556401D01*
D02*
G37*
G36*
X8717600Y10556400D02*
X8647600D01*
Y10473900D01*
X8717600D01*
Y10556400D01*
D02*
G37*
G36*
X8627600D02*
X8557600D01*
Y10473900D01*
X8627600D01*
Y10556400D01*
D02*
G37*
G36*
X7447600D02*
X7377600D01*
Y10473900D01*
X7447600D01*
Y10556400D01*
D02*
G37*
G36*
X7357600D02*
X7287600D01*
Y10473900D01*
X7357600D01*
Y10556400D01*
D02*
G37*
G36*
X6177600D02*
X6107600D01*
Y10473900D01*
X6177600D01*
Y10556400D01*
D02*
G37*
G36*
X6087600D02*
X6017600D01*
Y10473900D01*
X6087600D01*
Y10556400D01*
D02*
G37*
G36*
X4907600D02*
X4837600D01*
Y10473900D01*
X4907600D01*
Y10556400D01*
D02*
G37*
G36*
X4817600D02*
X4747600D01*
Y10473900D01*
X4817600D01*
Y10556400D01*
D02*
G37*
G36*
X9263215Y9947900D02*
X8990157D01*
X8991641Y9940441D01*
X9001530Y9925640D01*
Y9925160D01*
X8991641Y9910359D01*
X8990157Y9902900D01*
X9263215D01*
X9261731Y9910359D01*
X9251841Y9925160D01*
Y9925640D01*
X9261731Y9940441D01*
X9263215Y9947900D01*
D02*
G37*
G36*
Y9882900D02*
X8990157D01*
X8991641Y9875441D01*
X8991643Y9875437D01*
X8992269Y9874386D01*
X8996344Y9865346D01*
Y9790454D01*
X9257027D01*
Y9865346D01*
X9261103Y9874386D01*
X9261728Y9875437D01*
X9261731Y9875441D01*
X9263215Y9882900D01*
D02*
G37*
G36*
X9739222Y9744810D02*
X9663990D01*
Y9662000D01*
X9739222D01*
Y9744810D01*
D02*
G37*
G36*
Y9642000D02*
X9663990D01*
Y9559190D01*
X9739222D01*
Y9642000D01*
D02*
G37*
G36*
X8060254Y9821500D02*
X8043346D01*
X8027726Y9815030D01*
X8015770Y9803074D01*
X8009300Y9787454D01*
Y9770546D01*
X8015770Y9754926D01*
X8019428Y9751268D01*
Y9575800D01*
X8021892Y9563412D01*
X8028910Y9552910D01*
X8282910Y9298910D01*
X8293412Y9291892D01*
X8299545Y9290672D01*
X8298294Y9277972D01*
X6871409D01*
X6814172Y9335209D01*
Y9751268D01*
X6817830Y9754926D01*
X6824300Y9770546D01*
Y9787454D01*
X6817830Y9803074D01*
X6805874Y9815030D01*
X6790254Y9821500D01*
X6773346D01*
X6757726Y9815030D01*
X6745770Y9803074D01*
X6739300Y9787454D01*
Y9770546D01*
X6745770Y9754926D01*
X6749428Y9751268D01*
Y9321800D01*
X6751892Y9309412D01*
X6758910Y9298910D01*
X6831307Y9226512D01*
X6826046Y9213812D01*
X5589369D01*
X5544172Y9259009D01*
Y9751268D01*
X5547830Y9754926D01*
X5554300Y9770546D01*
Y9787454D01*
X5547830Y9803074D01*
X5535874Y9815030D01*
X5520254Y9821500D01*
X5503346D01*
X5487726Y9815030D01*
X5475770Y9803074D01*
X5469300Y9787454D01*
Y9770546D01*
X5475770Y9754926D01*
X5479428Y9751268D01*
Y9245600D01*
X5481892Y9233212D01*
X5488910Y9222710D01*
X5553069Y9158550D01*
X5563572Y9151532D01*
X5575960Y9149068D01*
X8356551D01*
X8857628Y8647991D01*
Y8629400D01*
X8795000D01*
Y8439400D01*
X8985000D01*
Y8629400D01*
X8922372D01*
Y8661400D01*
X8919908Y8673788D01*
X8912890Y8684290D01*
X8396653Y9200528D01*
X8401914Y9213228D01*
X8419391D01*
X9057698Y8574921D01*
X9055474Y8571068D01*
X9049000Y8546907D01*
Y8521893D01*
X9055474Y8497732D01*
X9067981Y8476069D01*
X9085669Y8458381D01*
X9107332Y8445874D01*
X9131493Y8439400D01*
X9156507D01*
X9180668Y8445874D01*
X9202331Y8458381D01*
X9220019Y8476069D01*
X9232526Y8497732D01*
X9239000Y8521893D01*
Y8546907D01*
X9232526Y8571068D01*
X9220019Y8592731D01*
X9202331Y8610419D01*
X9180668Y8622926D01*
X9156507Y8629400D01*
X9131493D01*
X9107332Y8622926D01*
X9103479Y8620702D01*
X8455690Y9268490D01*
X8445188Y9275508D01*
X8439055Y9276728D01*
X8440306Y9289428D01*
X8495591D01*
X9095710Y8689310D01*
X9106212Y8682292D01*
X9118600Y8679828D01*
X9257591D01*
X9333335Y8604084D01*
X9321981Y8592731D01*
X9309474Y8571068D01*
X9303000Y8546907D01*
Y8521893D01*
X9309474Y8497732D01*
X9321981Y8476069D01*
X9339669Y8458381D01*
X9361332Y8445874D01*
X9385493Y8439400D01*
X9410507D01*
X9434668Y8445874D01*
X9456331Y8458381D01*
X9474019Y8476069D01*
X9486526Y8497732D01*
X9493000Y8521893D01*
Y8546907D01*
X9486526Y8571068D01*
X9474019Y8592731D01*
X9456331Y8610419D01*
X9434668Y8622926D01*
X9410507Y8629400D01*
X9399547D01*
X9399480Y8629501D01*
X9293890Y8735090D01*
X9283388Y8742108D01*
X9271000Y8744572D01*
X9132009D01*
X8531890Y9344690D01*
X8521388Y9351708D01*
X8509000Y9354172D01*
X8319209D01*
X8084172Y9589209D01*
Y9751268D01*
X8087830Y9754926D01*
X8094300Y9770546D01*
Y9787454D01*
X8087830Y9803074D01*
X8075874Y9815030D01*
X8060254Y9821500D01*
D02*
G37*
G36*
X14384854D02*
X14367946D01*
X14352325Y9815030D01*
X14340370Y9803074D01*
X14333900Y9787454D01*
Y9770546D01*
X14340370Y9754926D01*
X14344028Y9751268D01*
Y9208209D01*
X14286790Y9150972D01*
X13100914D01*
X13095653Y9163672D01*
X13129289Y9197310D01*
X13136308Y9207812D01*
X13138773Y9220200D01*
Y9751268D01*
X13142430Y9754926D01*
X13148900Y9770546D01*
Y9787454D01*
X13142430Y9803074D01*
X13130473Y9815030D01*
X13114854Y9821500D01*
X13097946D01*
X13082326Y9815030D01*
X13070370Y9803074D01*
X13063901Y9787454D01*
Y9770546D01*
X13070370Y9754926D01*
X13074028Y9751268D01*
Y9233609D01*
X13052237Y9211818D01*
X11815049D01*
X11811754Y9217290D01*
X11810299Y9224518D01*
X11859290Y9273510D01*
X11866308Y9284012D01*
X11868772Y9296400D01*
Y9751268D01*
X11872430Y9754926D01*
X11878900Y9770546D01*
Y9787454D01*
X11872430Y9803074D01*
X11860474Y9815030D01*
X11844854Y9821500D01*
X11827946D01*
X11812326Y9815030D01*
X11800370Y9803074D01*
X11793900Y9787454D01*
Y9770546D01*
X11800370Y9754926D01*
X11804028Y9751268D01*
Y9309809D01*
X11772191Y9277972D01*
X11023600D01*
X11011212Y9275508D01*
X11000710Y9268490D01*
X10634514Y8902295D01*
X10622810Y8908551D01*
X10624172Y8915400D01*
Y9751268D01*
X10627830Y9754926D01*
X10634300Y9770546D01*
Y9787454D01*
X10627830Y9803074D01*
X10615874Y9815030D01*
X10600254Y9821500D01*
X10583346D01*
X10567726Y9815030D01*
X10555770Y9803074D01*
X10549300Y9787454D01*
Y9770546D01*
X10555770Y9754926D01*
X10559428Y9751268D01*
Y8928809D01*
X10451391Y8820772D01*
X10160000D01*
X10147612Y8818308D01*
X10137110Y8811290D01*
X9946521Y8620702D01*
X9942668Y8622926D01*
X9918507Y8629400D01*
X9893493D01*
X9869332Y8622926D01*
X9847669Y8610419D01*
X9829981Y8592731D01*
X9817474Y8571068D01*
X9811000Y8546907D01*
Y8521893D01*
X9817474Y8497732D01*
X9829981Y8476069D01*
X9847669Y8458381D01*
X9869332Y8445874D01*
X9893493Y8439400D01*
X9918507D01*
X9942668Y8445874D01*
X9964331Y8458381D01*
X9982019Y8476069D01*
X9994526Y8497732D01*
X10001000Y8521893D01*
Y8546907D01*
X9994526Y8571068D01*
X9992302Y8574921D01*
X10173409Y8756028D01*
X10293853D01*
X10298714Y8744295D01*
X10181428Y8627009D01*
X10172507Y8629400D01*
X10147493D01*
X10123332Y8622926D01*
X10101669Y8610419D01*
X10083981Y8592731D01*
X10071474Y8571068D01*
X10065000Y8546907D01*
Y8521893D01*
X10071474Y8497732D01*
X10083981Y8476069D01*
X10101669Y8458381D01*
X10123332Y8445874D01*
X10147493Y8439400D01*
X10172507D01*
X10196668Y8445874D01*
X10218331Y8458381D01*
X10236019Y8476069D01*
X10248526Y8497732D01*
X10255000Y8521893D01*
Y8546907D01*
X10248526Y8571068D01*
X10237004Y8591023D01*
X10351209Y8705228D01*
X10497053D01*
X10501914Y8693495D01*
X10435428Y8627009D01*
X10426507Y8629400D01*
X10401493D01*
X10377332Y8622926D01*
X10355669Y8610419D01*
X10337981Y8592731D01*
X10325474Y8571068D01*
X10319000Y8546907D01*
Y8521893D01*
X10325474Y8497732D01*
X10337981Y8476069D01*
X10355669Y8458381D01*
X10377332Y8445874D01*
X10401493Y8439400D01*
X10426507D01*
X10450668Y8445874D01*
X10472331Y8458381D01*
X10490019Y8476069D01*
X10502526Y8497732D01*
X10509000Y8521893D01*
Y8546907D01*
X10502526Y8571068D01*
X10491004Y8591023D01*
X10623895Y8723914D01*
X10635628Y8719053D01*
Y8624077D01*
X10631332Y8622926D01*
X10609669Y8610419D01*
X10591981Y8592731D01*
X10579474Y8571068D01*
X10573000Y8546907D01*
Y8521893D01*
X10579474Y8497732D01*
X10591981Y8476069D01*
X10609669Y8458381D01*
X10631332Y8445874D01*
X10655493Y8439400D01*
X10680507D01*
X10704668Y8445874D01*
X10726331Y8458381D01*
X10744019Y8476069D01*
X10756526Y8497732D01*
X10763000Y8521893D01*
Y8546907D01*
X10756526Y8571068D01*
X10744019Y8592731D01*
X10726331Y8610419D01*
X10704668Y8622926D01*
X10700372Y8624077D01*
Y8724191D01*
X11062409Y9086228D01*
X14300200D01*
X14312589Y9088692D01*
X14323090Y9095710D01*
X14399290Y9171910D01*
X14406308Y9182412D01*
X14408772Y9194800D01*
Y9751268D01*
X14412430Y9754926D01*
X14418900Y9770546D01*
Y9787454D01*
X14412430Y9803074D01*
X14400475Y9815030D01*
X14384854Y9821500D01*
D02*
G37*
G36*
X9635054Y10050100D02*
X9618146D01*
X9602526Y10043630D01*
X9590570Y10031674D01*
X9584100Y10016054D01*
Y9999146D01*
X9590570Y9983526D01*
X9594228Y9979868D01*
Y9904897D01*
X9596692Y9892509D01*
X9603710Y9882007D01*
X9679503Y9806213D01*
X9690006Y9799196D01*
X9702394Y9796731D01*
X9708064D01*
X9714208Y9792626D01*
X9728819Y9789720D01*
X9856362D01*
Y9768322D01*
X9858826Y9755934D01*
X9862650Y9750210D01*
X9857573Y9737510D01*
X9834454D01*
Y9744810D01*
X9759222D01*
Y9652000D01*
Y9559190D01*
X9834454D01*
Y9566490D01*
X9988310D01*
Y9737510D01*
X9929786D01*
Y9759642D01*
X9927322Y9772030D01*
X9922866Y9778699D01*
X9926218Y9792029D01*
X9929220Y9792626D01*
X9941607Y9800903D01*
X9949883Y9813289D01*
X9950848Y9818141D01*
X9964629Y9822321D01*
X10076828Y9710122D01*
Y8917732D01*
X10073170Y8914074D01*
X10066700Y8898454D01*
Y8881546D01*
X10073170Y8865926D01*
X10085126Y8853970D01*
X10100746Y8847500D01*
X10117654D01*
X10133274Y8853970D01*
X10139003Y8859700D01*
X10147300Y8864682D01*
X10155597Y8859700D01*
X10161326Y8853970D01*
X10176946Y8847500D01*
X10193854D01*
X10209474Y8853970D01*
X10221430Y8865926D01*
X10227900Y8881546D01*
Y8898454D01*
X10221430Y8914074D01*
X10217772Y8917732D01*
Y9728200D01*
X10215308Y9740588D01*
X10208290Y9751090D01*
X9979794Y9979587D01*
X9969292Y9986604D01*
X9960602Y9988333D01*
X9955245Y9997177D01*
X9954306Y10001768D01*
X9956759Y10005441D01*
X9958243Y10012900D01*
X9685185D01*
X9686669Y10005441D01*
X9696559Y9990640D01*
X9697802Y9989809D01*
X9701822Y9984897D01*
X9693545Y9972511D01*
X9690639Y9957900D01*
X9693545Y9943289D01*
X9699850Y9933854D01*
X9701044Y9925400D01*
X9699850Y9916946D01*
X9693545Y9907511D01*
X9692580Y9902659D01*
X9678800Y9898479D01*
X9658972Y9918306D01*
Y9979868D01*
X9662630Y9983526D01*
X9669100Y9999146D01*
Y10016054D01*
X9662630Y10031674D01*
X9650674Y10043630D01*
X9635054Y10050100D01*
D02*
G37*
G36*
X9330254Y9821500D02*
X9313346D01*
X9297726Y9815030D01*
X9285770Y9803074D01*
X9279300Y9787454D01*
Y9770546D01*
X9285770Y9754926D01*
X9289428Y9751268D01*
Y8788400D01*
X9291892Y8776012D01*
X9298910Y8765510D01*
X9375826Y8688593D01*
X9386328Y8681576D01*
X9398716Y8679112D01*
X9461507D01*
X9565698Y8574921D01*
X9563474Y8571068D01*
X9557000Y8546907D01*
Y8521893D01*
X9563474Y8497732D01*
X9575981Y8476069D01*
X9593669Y8458381D01*
X9615332Y8445874D01*
X9639493Y8439400D01*
X9664507D01*
X9688668Y8445874D01*
X9710331Y8458381D01*
X9728019Y8476069D01*
X9740526Y8497732D01*
X9747000Y8521893D01*
Y8546907D01*
X9740526Y8571068D01*
X9728019Y8592731D01*
X9710331Y8610419D01*
X9688668Y8622926D01*
X9664507Y8629400D01*
X9639493D01*
X9615332Y8622926D01*
X9611479Y8620702D01*
X9497807Y8734374D01*
X9487305Y8741392D01*
X9474916Y8743856D01*
X9412125D01*
X9354172Y8801809D01*
Y9751268D01*
X9357830Y9754926D01*
X9364300Y9770546D01*
Y9787454D01*
X9357830Y9803074D01*
X9345874Y9815030D01*
X9330254Y9821500D01*
D02*
G37*
G36*
X14232454Y8957900D02*
X14215546D01*
X14199927Y8951430D01*
X14187970Y8939474D01*
X14181500Y8923854D01*
Y8918681D01*
X14083591Y8820772D01*
X12471400D01*
X12459012Y8818308D01*
X12448510Y8811290D01*
X12296110Y8658890D01*
X12289092Y8648388D01*
X12286628Y8636000D01*
Y8598677D01*
X12282332Y8597526D01*
X12260669Y8585019D01*
X12242981Y8567331D01*
X12230474Y8545668D01*
X12224000Y8521507D01*
Y8496493D01*
X12230474Y8472332D01*
X12242981Y8450669D01*
X12260669Y8432981D01*
X12282332Y8420474D01*
X12306493Y8414000D01*
X12331507D01*
X12355668Y8420474D01*
X12377331Y8432981D01*
X12395019Y8450669D01*
X12407526Y8472332D01*
X12414000Y8496493D01*
Y8521507D01*
X12407526Y8545668D01*
X12395019Y8567331D01*
X12377331Y8585019D01*
X12355668Y8597526D01*
X12351372Y8598677D01*
Y8622591D01*
X12484809Y8756028D01*
X14097000D01*
X14109389Y8758492D01*
X14119890Y8765510D01*
X14227281Y8872900D01*
X14232454D01*
X14248074Y8879370D01*
X14260030Y8891326D01*
X14266499Y8906946D01*
Y8923854D01*
X14260030Y8939474D01*
X14248074Y8951430D01*
X14232454Y8957900D01*
D02*
G37*
G36*
X12077507Y8604000D02*
X12052493D01*
X12028332Y8597526D01*
X12006669Y8585019D01*
X11988981Y8567331D01*
X11976474Y8545668D01*
X11970000Y8521507D01*
Y8496493D01*
X11976474Y8472332D01*
X11988981Y8450669D01*
X12006669Y8432981D01*
X12028332Y8420474D01*
X12052493Y8414000D01*
X12077507D01*
X12101668Y8420474D01*
X12123331Y8432981D01*
X12141019Y8450669D01*
X12153526Y8472332D01*
X12160000Y8496493D01*
Y8521507D01*
X12153526Y8545668D01*
X12141019Y8567331D01*
X12123331Y8585019D01*
X12101668Y8597526D01*
X12077507Y8604000D01*
D02*
G37*
G36*
X11906000D02*
X11716000D01*
Y8414000D01*
X11906000D01*
Y8604000D01*
D02*
G37*
G36*
X8168200Y8879400D02*
X7478200D01*
Y8189400D01*
X8168200D01*
Y8879400D01*
D02*
G37*
%LPD*%
D11*
X9910378Y9652000D02*
D03*
X9749222D02*
D03*
D15*
X9702394Y9829104D02*
X9820511D01*
X9626600Y9904897D02*
Y10007600D01*
X9820511Y9829104D02*
X9821714Y9827900D01*
X9626600Y9904897D02*
X9702394Y9829104D01*
X8051800Y9575800D02*
X8305800Y9321800D01*
X8509000D02*
X9118600Y8712200D01*
X8305800Y9321800D02*
X8509000D01*
X8051800Y9575800D02*
Y9779000D01*
X10185400Y8890000D02*
Y9728200D01*
X9956904Y9956696D02*
X10185400Y9728200D01*
X9821714Y9957900D02*
X9822918Y9956696D01*
X9956904D01*
X9321800Y8788400D02*
Y9779000D01*
X9821714Y9892900D02*
X9822918Y9891696D01*
X9941034D02*
X10109200Y9723531D01*
X9822918Y9891696D02*
X9941034D01*
X10109200Y8890000D02*
Y9723531D01*
X9906000Y8534400D02*
X10160000Y8788400D01*
X10464800D01*
X9321800D02*
X9398716Y8711484D01*
X9474916D01*
X9652000Y8534400D01*
X14097000Y8788400D02*
X14224001Y8915400D01*
X12471400Y8788400D02*
X14097000D01*
X12319000Y8636000D02*
X12471400Y8788400D01*
X5027600Y10566400D02*
X5232400D01*
X5027600Y10820400D02*
X5232400D01*
X6297600Y10566400D02*
X6502400D01*
X6297600Y10820400D02*
X6502400D01*
X7567600Y10566400D02*
X7772400D01*
X7567600Y10820400D02*
X7772400D01*
X8837600Y10566400D02*
X8964333D01*
X9015133Y10617200D01*
X9017000D01*
X8837600Y10820400D02*
X9042400D01*
X10133000Y10909500D02*
X10173950Y10868550D01*
X10262383D01*
X10310533Y10820400D01*
X10133000Y10909500D02*
Y10922000D01*
X10310533Y10820400D02*
X10312400D01*
X10310533Y10617200D02*
X10312400D01*
X10259733Y10668000D02*
X10310533Y10617200D01*
X10133000Y10668000D02*
X10259733D01*
X9821714Y10542900D02*
X10593700D01*
X9821714Y10477900D02*
X10655700D01*
X11379200Y10566400D02*
X11582400D01*
X11377600Y10820400D02*
X11582400D01*
X12647600Y10566400D02*
X12852400D01*
X12649200Y10820400D02*
X12852400D01*
X13917599Y10566400D02*
X14122400D01*
X13917599Y10820400D02*
X14122400D01*
X9118600Y8712200D02*
X9271000D01*
X5511800Y9245600D02*
X5575960Y9181440D01*
X8369960D01*
X5511800Y9245600D02*
Y9779000D01*
X6781800Y9321800D02*
Y9779000D01*
Y9321800D02*
X6858000Y9245600D01*
X8432800D01*
X10591800Y8915400D02*
Y9779000D01*
X10464800Y8788400D02*
X10591800Y8915400D01*
X11836400Y9296400D02*
Y9779000D01*
X11785600Y9245600D02*
X11836400Y9296400D01*
X13106400Y9220200D02*
Y9779000D01*
X13065646Y9179446D02*
X13106400Y9220200D01*
X10337800Y8737600D02*
X10515600D01*
X10160000Y8534400D02*
Y8559800D01*
X10337800Y8737600D01*
X9376589Y8555811D02*
X9398000Y8534400D01*
X9376589Y8555811D02*
Y8606611D01*
X9271000Y8712200D02*
X9376589Y8606611D01*
X10515600Y8737600D02*
X11023600Y9245600D01*
X11785600D01*
X14300200Y9118600D02*
X14376401Y9194800D01*
X11049000Y9118600D02*
X14300200D01*
X10668000Y8737600D02*
X11049000Y9118600D01*
X10668000Y8534400D02*
Y8737600D01*
X11033646Y9179446D02*
X13065646D01*
X10414000Y8559800D02*
X11033646Y9179446D01*
X10414000Y8534400D02*
Y8559800D01*
X14376401Y9194800D02*
Y9779000D01*
X8432800Y9245600D02*
X9144000Y8534400D01*
X8369960Y9181440D02*
X8890000Y8661400D01*
Y8534400D02*
Y8661400D01*
X5761700Y10087900D02*
X9126686D01*
X5619215Y10024104D02*
X9125482D01*
X5664200Y10185400D02*
Y10566400D01*
X5560364Y10082954D02*
Y10524754D01*
Y10082954D02*
X5619215Y10024104D01*
X5664200Y10185400D02*
X5761700Y10087900D01*
X5527959Y10557159D02*
X5560364Y10524754D01*
X5537200Y10693400D02*
Y10820400D01*
Y10693400D02*
X5664200Y10566400D01*
X12319000Y8509000D02*
Y8636000D01*
X9888734Y9768322D02*
X9897414Y9759642D01*
Y9664964D02*
X9910378Y9652000D01*
X9897414Y9664964D02*
Y9759642D01*
X9888734Y9768322D02*
Y9822637D01*
X9883471Y9827900D02*
X9888734Y9822637D01*
X9821714Y9827900D02*
X9883471D01*
X10617200Y10566400D02*
Y10722650D01*
X10593700Y10542900D02*
X10617200Y10566400D01*
X10693400Y10515600D02*
Y10795000D01*
X10655700Y10477900D02*
X10693400Y10515600D01*
X11887200Y10464800D02*
Y10591800D01*
X9821714Y10412900D02*
X11835300D01*
X11887200Y10464800D01*
X12014200Y10388600D02*
Y10744200D01*
X11973500Y10347900D02*
X12014200Y10388600D01*
X9821714Y10347900D02*
X11973500D01*
X9821714Y10282900D02*
X13102299D01*
X13157201Y10337800D02*
Y10566400D01*
X13102299Y10282900D02*
X13157201Y10337800D01*
X13284200Y10287000D02*
Y10744200D01*
X9821714Y10217900D02*
X13215100D01*
X13284200Y10287000D01*
X14325600Y10210800D02*
Y10668000D01*
X9821714Y10152900D02*
X14267700D01*
X14325600Y10210800D01*
X9821714Y10087900D02*
X14329700D01*
X14427200Y10185400D02*
Y10794631D01*
X14329700Y10087900D02*
X14427200Y10185400D01*
X9283377Y10756577D02*
X9347200Y10820400D01*
X9127889Y10479104D02*
X9246006D01*
X9345880Y10467699D02*
X9350328Y10472147D01*
X9126686Y10477900D02*
X9127889Y10479104D01*
X9345880Y10463480D02*
Y10467699D01*
X9350328Y10472147D02*
Y10566400D01*
X9246006Y10479104D02*
X9283377Y10516475D01*
Y10756577D01*
X9296504Y10414104D02*
X9345880Y10463480D01*
X9127890Y10414104D02*
X9296504D01*
X9126686Y10412900D02*
X9127890Y10414104D01*
X8244900Y10347900D02*
X9126686D01*
X8178800Y10414000D02*
Y10617200D01*
X8077200Y10718800D02*
X8178800Y10617200D01*
Y10414000D02*
X8244900Y10347900D01*
X8077200Y10718800D02*
Y10820400D01*
Y10566031D02*
Y10566400D01*
Y10566031D02*
X8102600Y10540631D01*
Y10363200D02*
Y10540631D01*
X8182900Y10282900D02*
X9126686D01*
X8102600Y10363200D02*
X8182900Y10282900D01*
X7054100Y10217900D02*
X9126686D01*
X6934200Y10337800D02*
Y10693400D01*
X6807200Y10820400D02*
X6934200Y10693400D01*
Y10337800D02*
X7054100Y10217900D01*
X6890500Y10152900D02*
X9126686D01*
X6858000Y10185400D02*
X6890500Y10152900D01*
X6807200Y10564533D02*
Y10566400D01*
Y10564533D02*
X6858000Y10513733D01*
Y10185400D02*
Y10513733D01*
X9125482Y10024104D02*
X9126686Y10022900D01*
X10617200Y10845800D02*
X10618520Y10844480D01*
X10643920D01*
X10693400Y10795000D01*
X13157201Y10820400D02*
X13208000D01*
X13284200Y10744200D01*
X11887200Y10820400D02*
X11888520Y10819080D01*
X11939320D01*
X12014200Y10744200D01*
D16*
X7091680Y8534400D02*
D03*
X7823200D02*
D03*
D17*
X8864600Y11460480D02*
D03*
Y12192000D02*
D03*
X7594600Y11460480D02*
D03*
Y12192000D02*
D03*
X6324600Y11460480D02*
D03*
Y12192000D02*
D03*
X5054600Y11460480D02*
D03*
Y12192000D02*
D03*
X13944600Y11460480D02*
D03*
Y12192000D02*
D03*
X12674600Y11460480D02*
D03*
Y12192000D02*
D03*
X11404600Y11460480D02*
D03*
Y12192000D02*
D03*
X10134600Y11460480D02*
D03*
Y12192000D02*
D03*
D18*
X8890000Y8534400D02*
D03*
X11811000Y8509000D02*
D03*
D19*
X9144000Y8534400D02*
D03*
X9398000D02*
D03*
X9652000D02*
D03*
X9906000D02*
D03*
X10160000D02*
D03*
X10414000D02*
D03*
X10668000D02*
D03*
X12573000Y8509000D02*
D03*
X12319000D02*
D03*
X12065000D02*
D03*
D20*
X9626600Y10007600D02*
D03*
X10185400Y8890000D02*
D03*
X9321800Y9779000D02*
D03*
X10109200Y8890000D02*
D03*
X14224001Y8915400D02*
D03*
X5232400Y10566400D02*
D03*
Y10820400D02*
D03*
X6502400Y10566400D02*
D03*
Y10820400D02*
D03*
X7772400Y10566400D02*
D03*
Y10820400D02*
D03*
X9017000Y10617200D02*
D03*
X9042400Y10820400D02*
D03*
X10312400D02*
D03*
Y10617200D02*
D03*
X11582400Y10566400D02*
D03*
Y10820400D02*
D03*
X12852400Y10566400D02*
D03*
Y10820400D02*
D03*
X14122400Y10566400D02*
D03*
Y10820400D02*
D03*
X5511800Y9779000D02*
D03*
X6781800D02*
D03*
X8051800D02*
D03*
X10591800D02*
D03*
X11836400D02*
D03*
X13106400D02*
D03*
X14376401D02*
D03*
X9347200Y10820400D02*
D03*
X9350328Y10566400D02*
D03*
X8077200D02*
D03*
X5527959Y10557159D02*
D03*
X10617200Y10722650D02*
D03*
Y10845800D02*
D03*
X11887200Y10591800D02*
D03*
Y10820400D02*
D03*
X13157201Y10566400D02*
D03*
Y10820400D02*
D03*
X14325600Y10668000D02*
D03*
X14427200Y10794631D02*
D03*
X8077200Y10820400D02*
D03*
X6807200D02*
D03*
Y10566400D02*
D03*
X5537200Y10820400D02*
D03*
D21*
X8196158Y9529658D02*
D03*
X5778500Y9525000D02*
D03*
X5651500D02*
D03*
Y9652000D02*
D03*
X5778500D02*
D03*
X7048500Y9525000D02*
D03*
X6921500D02*
D03*
Y9652000D02*
D03*
X7048500D02*
D03*
X8318500D02*
D03*
X9588500D02*
D03*
X9461500D02*
D03*
Y9525000D02*
D03*
X9588500D02*
D03*
X10858500Y9652000D02*
D03*
X10731500D02*
D03*
Y9525000D02*
D03*
X10858500D02*
D03*
X12128500Y9652000D02*
D03*
X12001500D02*
D03*
Y9525000D02*
D03*
X12128500D02*
D03*
X13271500Y9652000D02*
D03*
X13398500D02*
D03*
X13271500Y9525000D02*
D03*
X13398500D02*
D03*
D22*
X9126686Y9827900D02*
D03*
D23*
Y9892900D02*
D03*
Y9957900D02*
D03*
Y10022900D02*
D03*
Y10087900D02*
D03*
Y10152900D02*
D03*
Y10217900D02*
D03*
Y10282900D02*
D03*
Y10347900D02*
D03*
Y10412900D02*
D03*
Y10477900D02*
D03*
Y10542900D02*
D03*
X9821714D02*
D03*
Y10477900D02*
D03*
Y10412900D02*
D03*
Y10347900D02*
D03*
Y10282900D02*
D03*
Y10217900D02*
D03*
Y10152900D02*
D03*
Y10087900D02*
D03*
Y10022900D02*
D03*
Y9957900D02*
D03*
Y9892900D02*
D03*
Y9827900D02*
D03*
D24*
X5027600Y10820400D02*
D03*
X4827600D02*
D03*
X5027600Y10566400D02*
D03*
X4827600D02*
D03*
X10133000Y10668000D02*
D03*
X9933000D02*
D03*
X7567600Y10820400D02*
D03*
X7367600D02*
D03*
X6297600D02*
D03*
X6097600D02*
D03*
X8837600Y10566400D02*
D03*
X8637600D02*
D03*
X7567600D02*
D03*
X7367600D02*
D03*
X6297600D02*
D03*
X6097600D02*
D03*
X11379200D02*
D03*
X11179200D02*
D03*
X12647600D02*
D03*
X12447600D02*
D03*
X13917599D02*
D03*
X13717599D02*
D03*
X13917599Y10820400D02*
D03*
X13717599D02*
D03*
X10133000Y10922000D02*
D03*
X9933000D02*
D03*
X8837600Y10820400D02*
D03*
X8637600D02*
D03*
X11377600D02*
D03*
X11177600D02*
D03*
X12649200D02*
D03*
X12449200D02*
D03*
%TF.MD5,946b7dfb9044b3d377834c93c95f3c69*%
M02*
