%TF.GenerationSoftware,Altium Limited,Altium Designer,23.10.1 (27)*%
G04 Layer_Physical_Order=1*
G04 Layer_Color=255*
%FSLAX45Y45*%
%MOMM*%
%TF.SameCoordinates,A038C99E-A49E-49FA-BA90-4B12FE75E0D5*%
%TF.FilePolarity,Positive*%
%TF.FileFunction,Copper,L1,Top,Signal*%
%TF.Part,Single*%
G01*
G75*
%TA.AperFunction,SMDPad,CuDef*%
%ADD10R,1.10000X1.30000*%
%ADD11R,1.30464X1.45620*%
G04:AMPARAMS|DCode=12|XSize=1.8565mm|YSize=0.49798mm|CornerRadius=0.24899mm|HoleSize=0mm|Usage=FLASHONLY|Rotation=90.000|XOffset=0mm|YOffset=0mm|HoleType=Round|Shape=RoundedRectangle|*
%AMROUNDEDRECTD12*
21,1,1.85650,0.00000,0,0,90.0*
21,1,1.35852,0.49798,0,0,90.0*
1,1,0.49798,0.00000,0.67926*
1,1,0.49798,0.00000,-0.67926*
1,1,0.49798,0.00000,-0.67926*
1,1,0.49798,0.00000,0.67926*
%
%ADD12ROUNDEDRECTD12*%
%ADD13R,0.49798X1.85650*%
%ADD14R,4.00000X1.80000*%
%TA.AperFunction,Conductor*%
%ADD15C,0.38100*%
%TA.AperFunction,ComponentPad*%
%ADD16R,6.50000X6.50000*%
%ADD17R,6.50000X6.50000*%
%ADD18R,1.50000X1.50000*%
%ADD19C,1.50000*%
%TA.AperFunction,ViaPad*%
%ADD20C,0.45000*%
%ADD21C,0.50000*%
G36*
X14500000Y7700000D02*
X4500000D01*
Y12700000D01*
X14500000D01*
Y7700000D01*
D02*
G37*
%LPC*%
G36*
X10586700Y10898100D02*
X10451300D01*
Y10788481D01*
X10402059Y10739240D01*
X10395042Y10728738D01*
X10392578Y10716350D01*
Y10485225D01*
X10395042Y10472837D01*
X10402059Y10462334D01*
X10414128Y10450266D01*
Y10388884D01*
X10401428Y10382096D01*
X10399019Y10383706D01*
X10391500Y10385201D01*
Y10273485D01*
Y10161770D01*
X10399019Y10163266D01*
X10413870Y10173189D01*
X10428566Y10172323D01*
X10431830Y10170142D01*
X10446500Y10167224D01*
X10461171Y10170142D01*
X10470504Y10176379D01*
X10479000Y10177647D01*
X10487496Y10176379D01*
X10496829Y10170142D01*
X10511500Y10167224D01*
X10526170Y10170142D01*
X10538607Y10178452D01*
X10546917Y10190889D01*
X10549836Y10205560D01*
Y10341412D01*
X10546917Y10356082D01*
X10546110Y10357290D01*
Y10488700D01*
X10586700D01*
Y10598319D01*
X10638770Y10650389D01*
X10645788Y10660892D01*
X10648252Y10673280D01*
Y10693598D01*
X10653230Y10698576D01*
X10659700Y10714197D01*
Y10731104D01*
X10653230Y10746724D01*
X10641274Y10758680D01*
X10625654Y10765150D01*
X10608746D01*
X10599400Y10761279D01*
X10586700Y10768847D01*
Y10799603D01*
X10599400Y10807171D01*
X10608746Y10803300D01*
X10625654D01*
X10641274Y10809770D01*
X10653230Y10821726D01*
X10659700Y10837346D01*
Y10854254D01*
X10653230Y10869874D01*
X10641274Y10881830D01*
X10625654Y10888300D01*
X10608746D01*
X10599400Y10884429D01*
X10586700Y10891997D01*
Y10898100D01*
D02*
G37*
G36*
X13126700D02*
X12991299D01*
Y10788481D01*
X12942059Y10739240D01*
X12935042Y10728738D01*
X12932578Y10716350D01*
Y10485225D01*
X12935042Y10472837D01*
X12942059Y10462334D01*
X12954128Y10450266D01*
Y10388884D01*
X12941428Y10382096D01*
X12939018Y10383706D01*
X12931500Y10385201D01*
Y10273485D01*
Y10161770D01*
X12939018Y10163266D01*
X12953870Y10173189D01*
X12968565Y10172323D01*
X12971831Y10170142D01*
X12986501Y10167224D01*
X13001170Y10170142D01*
X13013606Y10178452D01*
X13024393D01*
X13036829Y10170142D01*
X13051500Y10167224D01*
X13066170Y10170142D01*
X13078607Y10178452D01*
X13086917Y10190889D01*
X13089836Y10205560D01*
Y10341412D01*
X13086917Y10356082D01*
X13086110Y10357290D01*
Y10488700D01*
X13126700D01*
Y10520203D01*
X13139400Y10527771D01*
X13148746Y10523900D01*
X13165654D01*
X13181274Y10530370D01*
X13193230Y10542326D01*
X13199699Y10557946D01*
Y10574854D01*
X13193230Y10590474D01*
X13181274Y10602430D01*
X13165654Y10608900D01*
X13148746D01*
X13139400Y10605029D01*
X13126700Y10612597D01*
Y10644100D01*
X12997322D01*
Y10702941D01*
X13037080Y10742700D01*
X13126700D01*
Y10774203D01*
X13139400Y10781771D01*
X13148746Y10777900D01*
X13165654D01*
X13181274Y10784370D01*
X13193230Y10796326D01*
X13199699Y10811946D01*
Y10828854D01*
X13193230Y10844474D01*
X13181274Y10856430D01*
X13165654Y10862900D01*
X13148746D01*
X13139400Y10859029D01*
X13126700Y10866597D01*
Y10898100D01*
D02*
G37*
G36*
X11856700D02*
X11721300D01*
Y10788481D01*
X11672059Y10739240D01*
X11665042Y10728738D01*
X11662578Y10716350D01*
Y10485225D01*
X11665042Y10472837D01*
X11672059Y10462334D01*
X11684128Y10450266D01*
Y10388884D01*
X11671428Y10382096D01*
X11669019Y10383706D01*
X11661500Y10385201D01*
Y10273485D01*
Y10161770D01*
X11669019Y10163266D01*
X11683870Y10173189D01*
X11698566Y10172323D01*
X11701830Y10170142D01*
X11716500Y10167224D01*
X11731171Y10170142D01*
X11743607Y10178452D01*
X11754393D01*
X11766829Y10170142D01*
X11781500Y10167224D01*
X11796170Y10170142D01*
X11808607Y10178452D01*
X11816917Y10190889D01*
X11819836Y10205560D01*
Y10341412D01*
X11816917Y10356082D01*
X11816110Y10357290D01*
Y10488700D01*
X11856700D01*
Y10545603D01*
X11869400Y10553171D01*
X11878746Y10549300D01*
X11895654D01*
X11911274Y10555770D01*
X11923230Y10567726D01*
X11929700Y10583346D01*
Y10600254D01*
X11923230Y10615874D01*
X11911274Y10627830D01*
X11895654Y10634300D01*
X11878746D01*
X11869400Y10630429D01*
X11856700Y10637997D01*
Y10644100D01*
X11727322D01*
Y10702941D01*
X11767081Y10742700D01*
X11856700D01*
Y10774203D01*
X11869400Y10781771D01*
X11878746Y10777900D01*
X11895654D01*
X11911274Y10784370D01*
X11923230Y10796326D01*
X11929700Y10811946D01*
Y10828854D01*
X11923230Y10844474D01*
X11911274Y10856430D01*
X11895654Y10862900D01*
X11878746D01*
X11869400Y10859029D01*
X11856700Y10866597D01*
Y10898100D01*
D02*
G37*
G36*
X9316700D02*
X9181300D01*
Y10788481D01*
X9132059Y10739240D01*
X9125042Y10728738D01*
X9122578Y10716350D01*
Y10485225D01*
X9125042Y10472837D01*
X9132059Y10462334D01*
X9144128Y10450266D01*
Y10388884D01*
X9131428Y10382096D01*
X9129019Y10383706D01*
X9121500Y10385201D01*
Y10273485D01*
Y10161770D01*
X9129019Y10163266D01*
X9143870Y10173189D01*
X9158566Y10172323D01*
X9161830Y10170142D01*
X9176500Y10167224D01*
X9191171Y10170142D01*
X9200504Y10176379D01*
X9209000Y10177647D01*
X9217496Y10176379D01*
X9226829Y10170142D01*
X9241500Y10167224D01*
X9256170Y10170142D01*
X9268607Y10178452D01*
X9276917Y10190889D01*
X9279836Y10205560D01*
Y10341412D01*
X9276917Y10356082D01*
X9276110Y10357290D01*
Y10488700D01*
X9316700D01*
Y10521963D01*
X9319892Y10524772D01*
X9329400Y10529067D01*
X9341874Y10523900D01*
X9358781D01*
X9374402Y10530370D01*
X9386357Y10542326D01*
X9392827Y10557946D01*
Y10574854D01*
X9386357Y10590474D01*
X9374402Y10602430D01*
X9358781Y10608900D01*
X9341874D01*
X9329400Y10603733D01*
X9319892Y10608028D01*
X9316700Y10610837D01*
Y10644100D01*
X9187322D01*
Y10702941D01*
X9227081Y10742700D01*
X9316700D01*
Y10774203D01*
X9329400Y10781771D01*
X9338746Y10777900D01*
X9355654D01*
X9371274Y10784370D01*
X9383230Y10796326D01*
X9389700Y10811946D01*
Y10828854D01*
X9383230Y10844474D01*
X9371274Y10856430D01*
X9355654Y10862900D01*
X9338746D01*
X9329400Y10859029D01*
X9316700Y10866597D01*
Y10898100D01*
D02*
G37*
G36*
X8046700D02*
X7911300D01*
Y10788481D01*
X7862059Y10739240D01*
X7855042Y10728738D01*
X7852578Y10716350D01*
Y10485225D01*
X7855042Y10472837D01*
X7862059Y10462334D01*
X7874128Y10450266D01*
Y10388884D01*
X7861428Y10382096D01*
X7859019Y10383706D01*
X7851500Y10385201D01*
Y10273485D01*
Y10161770D01*
X7859019Y10163266D01*
X7873870Y10173189D01*
X7888566Y10172323D01*
X7891830Y10170142D01*
X7906500Y10167224D01*
X7921171Y10170142D01*
X7933607Y10178452D01*
X7944393D01*
X7956829Y10170142D01*
X7971500Y10167224D01*
X7986170Y10170142D01*
X7998607Y10178452D01*
X8006917Y10190889D01*
X8009836Y10205560D01*
Y10341412D01*
X8006917Y10356082D01*
X8006110Y10357290D01*
Y10488700D01*
X8046700D01*
Y10520203D01*
X8059400Y10527771D01*
X8068746Y10523900D01*
X8085654D01*
X8101274Y10530370D01*
X8113230Y10542326D01*
X8119700Y10557946D01*
Y10574854D01*
X8113230Y10590474D01*
X8101274Y10602430D01*
X8085654Y10608900D01*
X8068746D01*
X8059400Y10605029D01*
X8046700Y10612597D01*
Y10644100D01*
X7917322D01*
Y10702941D01*
X7957081Y10742700D01*
X8046700D01*
Y10774203D01*
X8059400Y10781771D01*
X8068746Y10777900D01*
X8085654D01*
X8101274Y10784370D01*
X8113230Y10796326D01*
X8119700Y10811946D01*
Y10828854D01*
X8113230Y10844474D01*
X8101274Y10856430D01*
X8085654Y10862900D01*
X8068746D01*
X8059400Y10859029D01*
X8046700Y10866597D01*
Y10898100D01*
D02*
G37*
G36*
X6776700D02*
X6641300D01*
Y10788481D01*
X6592059Y10739240D01*
X6585042Y10728738D01*
X6582578Y10716350D01*
Y10485225D01*
X6585042Y10472837D01*
X6592059Y10462334D01*
X6604128Y10450266D01*
Y10388884D01*
X6591428Y10382096D01*
X6589019Y10383706D01*
X6581500Y10385201D01*
Y10273485D01*
Y10161770D01*
X6589019Y10163266D01*
X6603870Y10173189D01*
X6618566Y10172323D01*
X6621830Y10170142D01*
X6636500Y10167224D01*
X6651171Y10170142D01*
X6663607Y10178452D01*
X6674393D01*
X6686829Y10170142D01*
X6701500Y10167224D01*
X6716170Y10170142D01*
X6728607Y10178452D01*
X6736917Y10190889D01*
X6739836Y10205560D01*
Y10341412D01*
X6736917Y10356082D01*
X6736110Y10357290D01*
Y10488700D01*
X6776700D01*
Y10520203D01*
X6789400Y10527771D01*
X6798746Y10523900D01*
X6815654D01*
X6831274Y10530370D01*
X6843230Y10542326D01*
X6849700Y10557946D01*
Y10574854D01*
X6843230Y10590474D01*
X6831274Y10602430D01*
X6815654Y10608900D01*
X6798746D01*
X6789400Y10605029D01*
X6776700Y10612597D01*
Y10644100D01*
X6647322D01*
Y10702941D01*
X6687081Y10742700D01*
X6776700D01*
Y10774203D01*
X6789400Y10781771D01*
X6798746Y10777900D01*
X6815654D01*
X6831274Y10784370D01*
X6843230Y10796326D01*
X6849700Y10811946D01*
Y10828854D01*
X6843230Y10844474D01*
X6831274Y10856430D01*
X6815654Y10862900D01*
X6798746D01*
X6789400Y10859029D01*
X6776700Y10866597D01*
Y10898100D01*
D02*
G37*
G36*
X5506700D02*
X5371300D01*
Y10788481D01*
X5322059Y10739240D01*
X5315042Y10728738D01*
X5312578Y10716350D01*
Y10485225D01*
X5315042Y10472837D01*
X5322059Y10462334D01*
X5334128Y10450266D01*
Y10388884D01*
X5321428Y10382096D01*
X5319019Y10383706D01*
X5311500Y10385201D01*
Y10273485D01*
Y10161770D01*
X5319019Y10163266D01*
X5333870Y10173189D01*
X5348566Y10172323D01*
X5351830Y10170142D01*
X5366500Y10167224D01*
X5381171Y10170142D01*
X5393607Y10178452D01*
X5404393D01*
X5416829Y10170142D01*
X5431500Y10167224D01*
X5446170Y10170142D01*
X5458607Y10178452D01*
X5466917Y10190889D01*
X5469836Y10205560D01*
Y10341412D01*
X5466917Y10356082D01*
X5466110Y10357290D01*
Y10488700D01*
X5506700D01*
Y10508534D01*
X5517260Y10515590D01*
X5519506Y10514659D01*
X5536413D01*
X5552033Y10521130D01*
X5563989Y10533085D01*
X5570459Y10548706D01*
Y10565613D01*
X5563989Y10581233D01*
X5552033Y10593189D01*
X5536413Y10599659D01*
X5519506D01*
X5517260Y10598729D01*
X5506700Y10605784D01*
Y10644100D01*
X5377322D01*
Y10702941D01*
X5417081Y10742700D01*
X5506700D01*
Y10774203D01*
X5519400Y10781771D01*
X5528746Y10777900D01*
X5545654D01*
X5561274Y10784370D01*
X5573230Y10796326D01*
X5579700Y10811946D01*
Y10828854D01*
X5573230Y10844474D01*
X5561274Y10856430D01*
X5545654Y10862900D01*
X5528746D01*
X5519400Y10859029D01*
X5506700Y10866597D01*
Y10898100D01*
D02*
G37*
G36*
X14396700D02*
X14261301D01*
Y10788481D01*
X14212059Y10739240D01*
X14205042Y10728738D01*
X14202579Y10716350D01*
Y10485225D01*
X14205042Y10472837D01*
X14212059Y10462334D01*
X14224129Y10450266D01*
Y10388884D01*
X14211427Y10382096D01*
X14209019Y10383706D01*
X14201500Y10385201D01*
Y10273485D01*
Y10161770D01*
X14209019Y10163266D01*
X14223869Y10173189D01*
X14238567Y10172323D01*
X14241830Y10170142D01*
X14256500Y10167224D01*
X14271172Y10170142D01*
X14283607Y10178452D01*
X14294392D01*
X14306828Y10170142D01*
X14321500Y10167224D01*
X14336169Y10170142D01*
X14348607Y10178452D01*
X14356917Y10190889D01*
X14359836Y10205560D01*
Y10341412D01*
X14356917Y10356082D01*
X14356110Y10357290D01*
Y10488700D01*
X14396700D01*
Y10644100D01*
X14373132D01*
X14366077Y10654660D01*
X14368100Y10659546D01*
Y10676454D01*
X14361630Y10692074D01*
X14349673Y10704030D01*
X14334055Y10710500D01*
X14317146D01*
X14301526Y10704030D01*
X14289571Y10692074D01*
X14283099Y10676454D01*
Y10659546D01*
X14283215Y10659268D01*
X14274872Y10648318D01*
X14267322Y10650216D01*
Y10702941D01*
X14307082Y10742700D01*
X14396700D01*
Y10748434D01*
X14409399Y10756003D01*
X14418745Y10752132D01*
X14435654D01*
X14451274Y10758602D01*
X14463229Y10770557D01*
X14469701Y10786178D01*
Y10803085D01*
X14463229Y10818706D01*
X14451274Y10830661D01*
X14435654Y10837131D01*
X14418745D01*
X14409399Y10833260D01*
X14396700Y10840829D01*
Y10898100D01*
D02*
G37*
G36*
X14186700D02*
X14051300D01*
Y10742700D01*
X14186700D01*
Y10898100D01*
D02*
G37*
G36*
X12916701D02*
X12781300D01*
Y10742700D01*
X12916701D01*
Y10898100D01*
D02*
G37*
G36*
X11646700D02*
X11511300D01*
Y10742700D01*
X11646700D01*
Y10898100D01*
D02*
G37*
G36*
X10376700D02*
X10241300D01*
Y10742700D01*
X10376700D01*
Y10898100D01*
D02*
G37*
G36*
X9106700D02*
X8971300D01*
Y10742700D01*
X9106700D01*
Y10898100D01*
D02*
G37*
G36*
X7836700D02*
X7701300D01*
Y10742700D01*
X7836700D01*
Y10898100D01*
D02*
G37*
G36*
X6566700D02*
X6431300D01*
Y10742700D01*
X6566700D01*
Y10898100D01*
D02*
G37*
G36*
X5296700D02*
X5161300D01*
Y10742700D01*
X5296700D01*
Y10898100D01*
D02*
G37*
G36*
X14186700Y10644100D02*
X14051300D01*
Y10488700D01*
X14186700D01*
Y10644100D01*
D02*
G37*
G36*
X12916701D02*
X12781300D01*
Y10488700D01*
X12916701D01*
Y10644100D01*
D02*
G37*
G36*
X11646700D02*
X11511300D01*
Y10488700D01*
X11646700D01*
Y10644100D01*
D02*
G37*
G36*
X10320854Y10659700D02*
X10303946D01*
X10288326Y10653230D01*
X10279196Y10644100D01*
X10241300D01*
Y10488700D01*
X10376700D01*
Y10644100D01*
X10345604D01*
X10336474Y10653230D01*
X10320854Y10659700D01*
D02*
G37*
G36*
X9025454D02*
X9008546D01*
X8992926Y10653230D01*
X8983796Y10644100D01*
X8971300D01*
Y10488700D01*
X9106700D01*
Y10644100D01*
X9050204D01*
X9041074Y10653230D01*
X9025454Y10659700D01*
D02*
G37*
G36*
X7836700Y10644100D02*
X7701300D01*
Y10488700D01*
X7836700D01*
Y10644100D01*
D02*
G37*
G36*
X6566700D02*
X6431300D01*
Y10488700D01*
X6566700D01*
Y10644100D01*
D02*
G37*
G36*
X5296700D02*
X5161300D01*
Y10488700D01*
X5296700D01*
Y10644100D01*
D02*
G37*
G36*
X6669600Y11805480D02*
X5979600D01*
Y11155241D01*
X5883080Y11058720D01*
X5879053Y11049000D01*
X5879054Y11048999D01*
Y10287000D01*
X5883080Y10277280D01*
X5883300Y10277188D01*
Y10265700D01*
X6063628D01*
Y10233118D01*
X6066092Y10220730D01*
X6073110Y10210228D01*
X6095428Y10187910D01*
X6105930Y10180892D01*
X6118318Y10178428D01*
X6479429D01*
X6491830Y10170142D01*
X6506500Y10167224D01*
X6521171Y10170142D01*
X6524434Y10172323D01*
X6539130Y10173189D01*
X6553981Y10163266D01*
X6561500Y10161770D01*
Y10273485D01*
Y10385201D01*
X6553981Y10383706D01*
X6539130Y10373782D01*
X6524434Y10374649D01*
X6521171Y10376829D01*
X6506500Y10379747D01*
X6491830Y10376829D01*
X6479393Y10368519D01*
X6471083Y10356082D01*
X6468164Y10341412D01*
Y10243172D01*
X6131727D01*
X6128372Y10246527D01*
Y10265700D01*
X6308700D01*
Y10277188D01*
X6308920Y10277280D01*
X6312946Y10287000D01*
Y10814706D01*
X6482694Y10984454D01*
X6654800D01*
X6664520Y10988480D01*
X6668546Y10998200D01*
Y11115480D01*
X6669600D01*
Y11805480D01*
D02*
G37*
G36*
X5399600D02*
X4709600D01*
Y11155241D01*
X4613080Y11058720D01*
X4609053Y11049000D01*
X4609054Y11048999D01*
Y10287000D01*
X4613080Y10277280D01*
X4613300Y10277188D01*
Y10265700D01*
X4793628D01*
Y10236200D01*
X4796092Y10223812D01*
X4803110Y10213310D01*
X4828510Y10187910D01*
X4839012Y10180892D01*
X4851400Y10178428D01*
X5209429D01*
X5221830Y10170142D01*
X5236500Y10167224D01*
X5251171Y10170142D01*
X5254434Y10172323D01*
X5269130Y10173189D01*
X5283981Y10163266D01*
X5291500Y10161770D01*
Y10273485D01*
Y10385201D01*
X5283981Y10383706D01*
X5269130Y10373782D01*
X5254434Y10374649D01*
X5251171Y10376829D01*
X5236500Y10379747D01*
X5221830Y10376829D01*
X5209393Y10368519D01*
X5201083Y10356082D01*
X5198164Y10341412D01*
Y10243172D01*
X4864809D01*
X4858372Y10249609D01*
Y10265700D01*
X5038700D01*
Y10277188D01*
X5038920Y10277280D01*
X5042946Y10287000D01*
Y10814706D01*
X5212694Y10984454D01*
X5384800D01*
X5394520Y10988480D01*
X5398546Y10998200D01*
Y11115480D01*
X5399600D01*
Y11805480D01*
D02*
G37*
G36*
X14289600D02*
X13599600D01*
Y11155241D01*
X13503081Y11058720D01*
X13499052Y11049000D01*
X13499054Y11048999D01*
Y10287000D01*
X13503081Y10277280D01*
X13503300Y10277188D01*
Y10265700D01*
X13683627D01*
Y10233118D01*
X13686092Y10220730D01*
X13693111Y10210228D01*
X13715428Y10187910D01*
X13725929Y10180892D01*
X13738318Y10178428D01*
X14099429D01*
X14111830Y10170142D01*
X14126500Y10167224D01*
X14141171Y10170142D01*
X14144434Y10172323D01*
X14159129Y10173189D01*
X14173981Y10163266D01*
X14181500Y10161770D01*
Y10273485D01*
Y10385201D01*
X14173981Y10383706D01*
X14159129Y10373782D01*
X14144434Y10374649D01*
X14141171Y10376829D01*
X14126500Y10379747D01*
X14111830Y10376829D01*
X14099393Y10368519D01*
X14091083Y10356082D01*
X14088164Y10341412D01*
Y10243172D01*
X13751727D01*
X13748372Y10246527D01*
Y10265700D01*
X13928700D01*
Y10277188D01*
X13928920Y10277280D01*
X13932945Y10287000D01*
Y10814706D01*
X14102695Y10984454D01*
X14274800D01*
X14284520Y10988480D01*
X14288547Y10998200D01*
Y11115480D01*
X14289600D01*
Y11805480D01*
D02*
G37*
G36*
X13019600D02*
X12329600D01*
Y11155241D01*
X12233080Y11058720D01*
X12229053Y11049000D01*
X12229054Y11048999D01*
Y10287000D01*
X12233080Y10277280D01*
X12233300Y10277188D01*
Y10265700D01*
X12413628D01*
Y10233118D01*
X12416092Y10220730D01*
X12423110Y10210228D01*
X12445428Y10187910D01*
X12455930Y10180892D01*
X12468318Y10178428D01*
X12829430D01*
X12841830Y10170142D01*
X12856500Y10167224D01*
X12871172Y10170142D01*
X12874434Y10172323D01*
X12889130Y10173189D01*
X12903981Y10163266D01*
X12911501Y10161770D01*
Y10273485D01*
Y10385201D01*
X12903981Y10383706D01*
X12889130Y10373782D01*
X12874434Y10374649D01*
X12871172Y10376829D01*
X12856500Y10379747D01*
X12841830Y10376829D01*
X12829393Y10368519D01*
X12821083Y10356082D01*
X12818164Y10341412D01*
Y10243172D01*
X12481727D01*
X12478372Y10246527D01*
Y10265700D01*
X12658700D01*
Y10277188D01*
X12658920Y10277280D01*
X12662946Y10287000D01*
Y10814706D01*
X12832693Y10984454D01*
X13004800D01*
X13014520Y10988480D01*
X13018546Y10998200D01*
Y11115480D01*
X13019600D01*
Y11805480D01*
D02*
G37*
G36*
X11749600D02*
X11059600D01*
Y11155241D01*
X10963080Y11058720D01*
X10959053Y11049000D01*
X10959054Y11048999D01*
Y10287000D01*
X10963080Y10277280D01*
X10963300Y10277188D01*
Y10265700D01*
X11143628D01*
Y10233118D01*
X11146092Y10220730D01*
X11153110Y10210228D01*
X11175428Y10187910D01*
X11185930Y10180892D01*
X11198318Y10178428D01*
X11559429D01*
X11571830Y10170142D01*
X11586500Y10167224D01*
X11601171Y10170142D01*
X11604434Y10172323D01*
X11619130Y10173189D01*
X11633981Y10163266D01*
X11641500Y10161770D01*
Y10273485D01*
Y10385201D01*
X11633981Y10383706D01*
X11619130Y10373782D01*
X11604434Y10374649D01*
X11601171Y10376829D01*
X11586500Y10379747D01*
X11571830Y10376829D01*
X11559393Y10368519D01*
X11551083Y10356082D01*
X11548164Y10341412D01*
Y10243172D01*
X11211727D01*
X11208372Y10246527D01*
Y10265700D01*
X11388700D01*
Y10277188D01*
X11388920Y10277280D01*
X11392946Y10287000D01*
Y10814706D01*
X11562694Y10984454D01*
X11734800D01*
X11744520Y10988480D01*
X11748546Y10998200D01*
Y11115480D01*
X11749600D01*
Y11805480D01*
D02*
G37*
G36*
X10479600D02*
X9789600D01*
Y11155241D01*
X9693080Y11058720D01*
X9689053Y11049000D01*
X9689054Y11048999D01*
Y10287000D01*
X9693080Y10277280D01*
X9693300Y10277188D01*
Y10265700D01*
X9873628D01*
Y10233118D01*
X9876092Y10220730D01*
X9883110Y10210228D01*
X9905428Y10187910D01*
X9915930Y10180892D01*
X9928318Y10178428D01*
X10289429D01*
X10301830Y10170142D01*
X10316500Y10167224D01*
X10331171Y10170142D01*
X10334434Y10172323D01*
X10349130Y10173189D01*
X10363981Y10163266D01*
X10371500Y10161770D01*
Y10273485D01*
Y10385201D01*
X10363981Y10383706D01*
X10349130Y10373782D01*
X10334434Y10374649D01*
X10331171Y10376829D01*
X10316500Y10379747D01*
X10301830Y10376829D01*
X10289393Y10368519D01*
X10281083Y10356082D01*
X10278164Y10341412D01*
Y10243172D01*
X9941727D01*
X9938372Y10246527D01*
Y10265700D01*
X10118700D01*
Y10277188D01*
X10118920Y10277280D01*
X10122946Y10287000D01*
Y10814706D01*
X10292694Y10984454D01*
X10464800D01*
X10474520Y10988480D01*
X10478546Y10998200D01*
Y11115480D01*
X10479600D01*
Y11805480D01*
D02*
G37*
G36*
X9209600D02*
X8519600D01*
Y11155241D01*
X8423080Y11058720D01*
X8419053Y11049000D01*
X8419054Y11048999D01*
Y10287000D01*
X8423080Y10277280D01*
X8423300Y10277188D01*
Y10265700D01*
X8603628D01*
Y10233118D01*
X8606092Y10220730D01*
X8613110Y10210228D01*
X8635428Y10187910D01*
X8645930Y10180892D01*
X8658318Y10178428D01*
X9019429D01*
X9031830Y10170142D01*
X9046500Y10167224D01*
X9061171Y10170142D01*
X9064434Y10172323D01*
X9079130Y10173189D01*
X9093981Y10163266D01*
X9101500Y10161770D01*
Y10273485D01*
Y10385201D01*
X9093981Y10383706D01*
X9079130Y10373782D01*
X9064434Y10374649D01*
X9061171Y10376829D01*
X9046500Y10379747D01*
X9031830Y10376829D01*
X9019393Y10368519D01*
X9011083Y10356082D01*
X9008164Y10341412D01*
Y10243172D01*
X8671727D01*
X8668372Y10246527D01*
Y10265700D01*
X8848700D01*
Y10277188D01*
X8848920Y10277280D01*
X8852946Y10287000D01*
Y10814706D01*
X9022694Y10984454D01*
X9194800D01*
X9204520Y10988480D01*
X9208546Y10998200D01*
Y11115480D01*
X9209600D01*
Y11805480D01*
D02*
G37*
G36*
X7939600D02*
X7249600D01*
Y11155241D01*
X7153080Y11058720D01*
X7149053Y11049000D01*
X7149054Y11048999D01*
Y10287000D01*
X7153080Y10277280D01*
X7153300Y10277188D01*
Y10265700D01*
X7333628D01*
Y10233118D01*
X7336092Y10220730D01*
X7343110Y10210228D01*
X7362346Y10190991D01*
X7372849Y10183974D01*
X7385237Y10181509D01*
X7747350D01*
X7749393Y10178452D01*
X7761830Y10170142D01*
X7776500Y10167224D01*
X7791171Y10170142D01*
X7794434Y10172323D01*
X7809130Y10173189D01*
X7823981Y10163266D01*
X7831500Y10161770D01*
Y10273485D01*
Y10385201D01*
X7823981Y10383706D01*
X7809130Y10373782D01*
X7794434Y10374649D01*
X7791171Y10376829D01*
X7776500Y10379747D01*
X7761830Y10376829D01*
X7749393Y10368519D01*
X7741083Y10356082D01*
X7738164Y10341412D01*
Y10246254D01*
X7398646D01*
X7398372Y10246527D01*
Y10265700D01*
X7578700D01*
Y10277188D01*
X7578920Y10277280D01*
X7582946Y10287000D01*
Y10814706D01*
X7752694Y10984454D01*
X7924800D01*
X7934520Y10988480D01*
X7938546Y10998200D01*
Y11115480D01*
X7939600D01*
Y11805480D01*
D02*
G37*
G36*
X9635054Y10050100D02*
X9618146D01*
X9602526Y10043630D01*
X9598868Y10039972D01*
X5388819D01*
X5376430Y10037508D01*
X5365928Y10030490D01*
X5343610Y10008172D01*
X5336592Y9997670D01*
X5334128Y9985282D01*
Y9958713D01*
X5321428Y9951924D01*
X5319019Y9953534D01*
X5311501Y9955030D01*
Y9843315D01*
Y9731599D01*
X5319019Y9733094D01*
X5321428Y9734704D01*
X5334128Y9727916D01*
Y9679887D01*
X5336592Y9667498D01*
X5343610Y9656996D01*
X5382206Y9618400D01*
Y9572410D01*
X5338654D01*
Y9579710D01*
X5263422D01*
Y9486900D01*
X5253422D01*
Y9476900D01*
X5168190D01*
Y9394090D01*
X5158698Y9386346D01*
X5042946D01*
Y9829800D01*
X5038920Y9839520D01*
X5038700Y9839612D01*
Y9851100D01*
X4858372D01*
Y9870273D01*
X4858646Y9870546D01*
X5198901D01*
Y9737789D01*
X5274099D01*
X5282877Y9733802D01*
X5283971Y9733101D01*
X5283981Y9733094D01*
X5291501Y9731599D01*
Y9843315D01*
Y9955030D01*
X5283981Y9953534D01*
X5283971Y9953527D01*
X5282877Y9952827D01*
X5274099Y9948839D01*
X5198901D01*
Y9935291D01*
X4845237D01*
X4832849Y9932826D01*
X4822346Y9925809D01*
X4803110Y9906572D01*
X4796092Y9896070D01*
X4793628Y9883682D01*
Y9851100D01*
X4613300D01*
Y9839612D01*
X4613080Y9839520D01*
X4609054Y9829800D01*
Y9372600D01*
Y9118600D01*
Y8940800D01*
X4613080Y8931080D01*
X4622800Y8927054D01*
X7484214D01*
X7484232Y8885434D01*
X7478200Y8879400D01*
X7478200D01*
Y8189400D01*
X8168200D01*
Y8879400D01*
X8161925D01*
Y8927054D01*
X10068189D01*
X10073450Y8914354D01*
X10073170Y8914074D01*
X10066700Y8898454D01*
Y8881546D01*
X10073170Y8865926D01*
X10080445Y8858652D01*
X10080612Y8857810D01*
X10087630Y8847308D01*
X10144028Y8790910D01*
X10154530Y8783892D01*
X10166918Y8781428D01*
X11492791D01*
X11716000Y8558219D01*
Y8414000D01*
X11906000D01*
Y8604000D01*
X11761781D01*
X11529090Y8836690D01*
X11518588Y8843708D01*
X11512455Y8844928D01*
X11513706Y8857628D01*
X11670591D01*
X11978698Y8549521D01*
X11976474Y8545668D01*
X11970000Y8521507D01*
Y8496493D01*
X11976474Y8472332D01*
X11988981Y8450669D01*
X12006669Y8432981D01*
X12028332Y8420474D01*
X12052493Y8414000D01*
X12077507D01*
X12101668Y8420474D01*
X12123331Y8432981D01*
X12141019Y8450669D01*
X12153526Y8472332D01*
X12160000Y8496493D01*
Y8521507D01*
X12153526Y8545668D01*
X12141019Y8567331D01*
X12123331Y8585019D01*
X12101668Y8597526D01*
X12077507Y8604000D01*
X12052493D01*
X12028332Y8597526D01*
X12024479Y8595302D01*
X11706890Y8912890D01*
X11704701Y8914354D01*
X11708554Y8927054D01*
X13919200D01*
X13928920Y8931080D01*
X13932945Y8940800D01*
Y9372600D01*
Y9829800D01*
X13928920Y9839520D01*
X13928700Y9839612D01*
Y9851100D01*
X13748372D01*
Y9870273D01*
X13751727Y9873628D01*
X14088901D01*
Y9737789D01*
X14164099D01*
X14172878Y9733802D01*
X14173972Y9733101D01*
X14173981Y9733094D01*
X14181500Y9731599D01*
Y9843315D01*
Y9955030D01*
X14173981Y9953534D01*
X14173972Y9953527D01*
X14172878Y9952827D01*
X14164099Y9948839D01*
X14088901D01*
Y9938372D01*
X13738318D01*
X13725929Y9935908D01*
X13715428Y9928890D01*
X13693111Y9906572D01*
X13686092Y9896070D01*
X13683627Y9883682D01*
Y9851100D01*
X13503300D01*
Y9839612D01*
X13503081Y9839520D01*
X13499054Y9829800D01*
Y9386346D01*
X12977921D01*
X12968962Y9399047D01*
X12969797Y9401390D01*
X13112511D01*
Y9572410D01*
X13066949D01*
Y9631809D01*
X13064487Y9644197D01*
X13057469Y9654699D01*
X13018872Y9693296D01*
Y9736695D01*
X13031572Y9743484D01*
X13036829Y9739971D01*
X13051500Y9737053D01*
X13066170Y9739971D01*
X13077654Y9747643D01*
X13082326Y9742970D01*
X13097946Y9736500D01*
X13114854D01*
X13130473Y9742970D01*
X13142430Y9754926D01*
X13148900Y9770546D01*
Y9787454D01*
X13142430Y9803074D01*
X13130473Y9815030D01*
X13114854Y9821500D01*
X13097948D01*
X13089836Y9826919D01*
Y9911240D01*
X13086917Y9925911D01*
X13078607Y9938348D01*
X13066170Y9946658D01*
X13051500Y9949576D01*
X13036829Y9946658D01*
X13031572Y9943145D01*
X13018872Y9949933D01*
Y9975228D01*
X14220773D01*
X14224129Y9971873D01*
Y9958713D01*
X14211427Y9951924D01*
X14209019Y9953534D01*
X14201501Y9955030D01*
Y9843315D01*
Y9731599D01*
X14209019Y9733094D01*
X14211427Y9734704D01*
X14224129Y9727916D01*
Y9679887D01*
X14226591Y9667498D01*
X14233611Y9656996D01*
X14272206Y9618400D01*
Y9572410D01*
X14228654D01*
Y9579710D01*
X14153423D01*
Y9486900D01*
Y9394090D01*
X14228654D01*
Y9401390D01*
X14272206D01*
Y9009387D01*
X14220718Y8957900D01*
X14215546D01*
X14199927Y8951430D01*
X14187970Y8939474D01*
X14181500Y8923854D01*
Y8906946D01*
X14187970Y8891326D01*
X14199927Y8879370D01*
X14215546Y8872900D01*
X14232454D01*
X14248074Y8879370D01*
X14260030Y8891326D01*
X14266499Y8906946D01*
Y8912119D01*
X14327469Y8973088D01*
X14334486Y8983590D01*
X14336951Y8995978D01*
Y9401390D01*
X14382510D01*
Y9572410D01*
X14336951D01*
Y9631809D01*
X14334486Y9644197D01*
X14327469Y9654699D01*
X14288872Y9693296D01*
Y9736695D01*
X14301572Y9743484D01*
X14306828Y9739971D01*
X14321500Y9737053D01*
X14336169Y9739971D01*
X14347653Y9747643D01*
X14352325Y9742970D01*
X14367946Y9736500D01*
X14384854D01*
X14400475Y9742970D01*
X14412430Y9754926D01*
X14418900Y9770546D01*
Y9787454D01*
X14412430Y9803074D01*
X14400475Y9815030D01*
X14384854Y9821500D01*
X14367947D01*
X14359836Y9826919D01*
Y9911240D01*
X14356917Y9925911D01*
X14348607Y9938348D01*
X14336169Y9946658D01*
X14321500Y9949576D01*
X14306828Y9946658D01*
X14301572Y9943145D01*
X14288872Y9949933D01*
Y9985282D01*
X14286407Y9997670D01*
X14279391Y10008172D01*
X14257072Y10030490D01*
X14246570Y10037508D01*
X14234183Y10039972D01*
X9654332D01*
X9650674Y10043630D01*
X9635054Y10050100D01*
D02*
G37*
G36*
X14133421Y9579710D02*
X14058189D01*
Y9496900D01*
X14133421D01*
Y9579710D01*
D02*
G37*
G36*
X5243422D02*
X5168190D01*
Y9496900D01*
X5243422D01*
Y9579710D01*
D02*
G37*
G36*
X14133421Y9476900D02*
X14058189D01*
Y9394090D01*
X14133421D01*
Y9476900D01*
D02*
G37*
G36*
X10680507Y8629400D02*
X10655493D01*
X10631332Y8622926D01*
X10609669Y8610419D01*
X10591981Y8592731D01*
X10579474Y8571068D01*
X10573000Y8546907D01*
Y8521893D01*
X10579474Y8497732D01*
X10591981Y8476069D01*
X10609669Y8458381D01*
X10631332Y8445874D01*
X10655493Y8439400D01*
X10680507D01*
X10704668Y8445874D01*
X10726331Y8458381D01*
X10744019Y8476069D01*
X10756526Y8497732D01*
X10763000Y8521893D01*
Y8546907D01*
X10756526Y8571068D01*
X10744019Y8592731D01*
X10726331Y8610419D01*
X10704668Y8622926D01*
X10680507Y8629400D01*
D02*
G37*
G36*
X10426507D02*
X10401493D01*
X10377332Y8622926D01*
X10355669Y8610419D01*
X10337981Y8592731D01*
X10325474Y8571068D01*
X10319000Y8546907D01*
Y8521893D01*
X10325474Y8497732D01*
X10337981Y8476069D01*
X10355669Y8458381D01*
X10377332Y8445874D01*
X10401493Y8439400D01*
X10426507D01*
X10450668Y8445874D01*
X10472331Y8458381D01*
X10490019Y8476069D01*
X10502526Y8497732D01*
X10509000Y8521893D01*
Y8546907D01*
X10502526Y8571068D01*
X10490019Y8592731D01*
X10472331Y8610419D01*
X10450668Y8622926D01*
X10426507Y8629400D01*
D02*
G37*
G36*
X10172507D02*
X10147493D01*
X10123332Y8622926D01*
X10101669Y8610419D01*
X10083981Y8592731D01*
X10071474Y8571068D01*
X10065000Y8546907D01*
Y8521893D01*
X10071474Y8497732D01*
X10083981Y8476069D01*
X10101669Y8458381D01*
X10123332Y8445874D01*
X10147493Y8439400D01*
X10172507D01*
X10196668Y8445874D01*
X10218331Y8458381D01*
X10236019Y8476069D01*
X10248526Y8497732D01*
X10255000Y8521893D01*
Y8546907D01*
X10248526Y8571068D01*
X10236019Y8592731D01*
X10218331Y8610419D01*
X10196668Y8622926D01*
X10172507Y8629400D01*
D02*
G37*
G36*
X9918507D02*
X9893493D01*
X9869332Y8622926D01*
X9847669Y8610419D01*
X9829981Y8592731D01*
X9817474Y8571068D01*
X9811000Y8546907D01*
Y8521893D01*
X9817474Y8497732D01*
X9829981Y8476069D01*
X9847669Y8458381D01*
X9869332Y8445874D01*
X9893493Y8439400D01*
X9918507D01*
X9942668Y8445874D01*
X9964331Y8458381D01*
X9982019Y8476069D01*
X9994526Y8497732D01*
X10001000Y8521893D01*
Y8546907D01*
X9994526Y8571068D01*
X9982019Y8592731D01*
X9964331Y8610419D01*
X9942668Y8622926D01*
X9918507Y8629400D01*
D02*
G37*
G36*
X9664507D02*
X9639493D01*
X9615332Y8622926D01*
X9593669Y8610419D01*
X9575981Y8592731D01*
X9563474Y8571068D01*
X9557000Y8546907D01*
Y8521893D01*
X9563474Y8497732D01*
X9575981Y8476069D01*
X9593669Y8458381D01*
X9615332Y8445874D01*
X9639493Y8439400D01*
X9664507D01*
X9688668Y8445874D01*
X9710331Y8458381D01*
X9728019Y8476069D01*
X9740526Y8497732D01*
X9747000Y8521893D01*
Y8546907D01*
X9740526Y8571068D01*
X9728019Y8592731D01*
X9710331Y8610419D01*
X9688668Y8622926D01*
X9664507Y8629400D01*
D02*
G37*
G36*
X9410507D02*
X9385493D01*
X9361332Y8622926D01*
X9339669Y8610419D01*
X9321981Y8592731D01*
X9309474Y8571068D01*
X9303000Y8546907D01*
Y8521893D01*
X9309474Y8497732D01*
X9321981Y8476069D01*
X9339669Y8458381D01*
X9361332Y8445874D01*
X9385493Y8439400D01*
X9410507D01*
X9434668Y8445874D01*
X9456331Y8458381D01*
X9474019Y8476069D01*
X9486526Y8497732D01*
X9493000Y8521893D01*
Y8546907D01*
X9486526Y8571068D01*
X9474019Y8592731D01*
X9456331Y8610419D01*
X9434668Y8622926D01*
X9410507Y8629400D01*
D02*
G37*
G36*
X9156507D02*
X9131493D01*
X9107332Y8622926D01*
X9085669Y8610419D01*
X9067981Y8592731D01*
X9055474Y8571068D01*
X9049000Y8546907D01*
Y8521893D01*
X9055474Y8497732D01*
X9067981Y8476069D01*
X9085669Y8458381D01*
X9107332Y8445874D01*
X9131493Y8439400D01*
X9156507D01*
X9180668Y8445874D01*
X9202331Y8458381D01*
X9220019Y8476069D01*
X9232526Y8497732D01*
X9239000Y8521893D01*
Y8546907D01*
X9232526Y8571068D01*
X9220019Y8592731D01*
X9202331Y8610419D01*
X9180668Y8622926D01*
X9156507Y8629400D01*
D02*
G37*
G36*
X8985000D02*
X8795000D01*
Y8439400D01*
X8985000D01*
Y8629400D01*
D02*
G37*
G36*
X12331507Y8604000D02*
X12306493D01*
X12282332Y8597526D01*
X12260669Y8585019D01*
X12242981Y8567331D01*
X12230474Y8545668D01*
X12224000Y8521507D01*
Y8496493D01*
X12230474Y8472332D01*
X12242981Y8450669D01*
X12260669Y8432981D01*
X12282332Y8420474D01*
X12306493Y8414000D01*
X12331507D01*
X12355668Y8420474D01*
X12377331Y8432981D01*
X12395019Y8450669D01*
X12407526Y8472332D01*
X12414000Y8496493D01*
Y8521507D01*
X12407526Y8545668D01*
X12395019Y8567331D01*
X12377331Y8585019D01*
X12355668Y8597526D01*
X12331507Y8604000D01*
D02*
G37*
%LPD*%
G36*
X6654800Y10998200D02*
X6477000D01*
X6299200Y10820400D01*
Y10287000D01*
X5892800D01*
Y11049000D01*
X5994400Y11150600D01*
Y11785600D01*
X6654800D01*
Y10998200D01*
D02*
G37*
G36*
X5384800D02*
X5207000D01*
X5029200Y10820400D01*
Y10287000D01*
X4622800D01*
Y11049000D01*
X4724400Y11150600D01*
Y11785600D01*
X5384800D01*
Y10998200D01*
D02*
G37*
G36*
X14274800D02*
X14097000D01*
X13919200Y10820400D01*
Y10287000D01*
X13512801D01*
Y11049000D01*
X13614400Y11150600D01*
Y11785600D01*
X14274800D01*
Y10998200D01*
D02*
G37*
G36*
X13004800D02*
X12827000D01*
X12649200Y10820400D01*
Y10287000D01*
X12242800D01*
Y11049000D01*
X12344400Y11150600D01*
Y11785600D01*
X13004800D01*
Y10998200D01*
D02*
G37*
G36*
X11734800D02*
X11557000D01*
X11379200Y10820400D01*
Y10287000D01*
X10972800D01*
Y11049000D01*
X11074400Y11150600D01*
Y11785600D01*
X11734800D01*
Y10998200D01*
D02*
G37*
G36*
X10464800D02*
X10287000D01*
X10109200Y10820400D01*
Y10287000D01*
X9702800D01*
Y11049000D01*
X9804400Y11150600D01*
Y11785600D01*
X10464800D01*
Y10998200D01*
D02*
G37*
G36*
X9194800D02*
X9017000D01*
X8839200Y10820400D01*
Y10287000D01*
X8432800D01*
Y11049000D01*
X8534400Y11150600D01*
Y11785600D01*
X9194800D01*
Y10998200D01*
D02*
G37*
G36*
X7924800D02*
X7747000D01*
X7569200Y10820400D01*
Y10287000D01*
X7162800D01*
Y11049000D01*
X7264400Y11150600D01*
Y11785600D01*
X7924800D01*
Y10998200D01*
D02*
G37*
G36*
X10414128Y9958713D02*
X10401428Y9951924D01*
X10399019Y9953534D01*
X10391501Y9955030D01*
Y9843315D01*
Y9731599D01*
X10399019Y9733094D01*
X10401428Y9734704D01*
X10414128Y9727916D01*
Y9679886D01*
X10416592Y9667498D01*
X10423610Y9656996D01*
X10462206Y9618399D01*
Y9572410D01*
X10418654D01*
Y9579710D01*
X10343422D01*
Y9486900D01*
X10333422D01*
Y9476900D01*
X10248190D01*
Y9394090D01*
X10238698Y9386346D01*
X10122946D01*
Y9829800D01*
X10118920Y9839520D01*
X10118700Y9839612D01*
Y9851100D01*
X9938372D01*
Y9870273D01*
X9941727Y9873628D01*
X10278901D01*
Y9737789D01*
X10354099D01*
X10362877Y9733802D01*
X10363971Y9733101D01*
X10363981Y9733094D01*
X10371501Y9731599D01*
Y9843315D01*
Y9955030D01*
X10363981Y9953534D01*
X10363971Y9953527D01*
X10362877Y9952827D01*
X10354099Y9948839D01*
X10278901D01*
Y9938372D01*
X9928318D01*
X9915930Y9935908D01*
X9905428Y9928890D01*
X9883110Y9906572D01*
X9876092Y9896070D01*
X9873628Y9883682D01*
Y9851100D01*
X9693300D01*
Y9839612D01*
X9693080Y9839520D01*
X9689054Y9829800D01*
Y9386346D01*
X9167920D01*
X9158962Y9399047D01*
X9159797Y9401390D01*
X9302510D01*
Y9572410D01*
X9256950D01*
Y9631809D01*
X9254486Y9644197D01*
X9247469Y9654699D01*
X9208872Y9693296D01*
Y9736695D01*
X9221572Y9743484D01*
X9226829Y9739971D01*
X9241500Y9737053D01*
X9256170Y9739971D01*
X9268109Y9747948D01*
X9292748D01*
X9297726Y9742970D01*
X9313346Y9736500D01*
X9330254D01*
X9345874Y9742970D01*
X9357830Y9754926D01*
X9364300Y9770546D01*
Y9787454D01*
X9357830Y9803074D01*
X9345874Y9815030D01*
X9330254Y9821500D01*
X9313346D01*
X9297726Y9815030D01*
X9295388Y9812692D01*
X9279836D01*
Y9911240D01*
X9276917Y9925911D01*
X9268607Y9938348D01*
X9256170Y9946658D01*
X9241500Y9949576D01*
X9226829Y9946658D01*
X9221572Y9943145D01*
X9208872Y9949933D01*
Y9975228D01*
X9598868D01*
X9602526Y9971570D01*
X9618146Y9965100D01*
X9635054D01*
X9650674Y9971570D01*
X9654332Y9975228D01*
X10414128D01*
Y9958713D01*
D02*
G37*
G36*
X12954128D02*
X12941428Y9951924D01*
X12939018Y9953534D01*
X12931500Y9955030D01*
Y9843315D01*
Y9731599D01*
X12939018Y9733094D01*
X12941428Y9734704D01*
X12954128Y9727916D01*
Y9679887D01*
X12956592Y9667498D01*
X12963609Y9656996D01*
X13002206Y9618400D01*
Y9572410D01*
X12958653D01*
Y9579710D01*
X12883421D01*
Y9486900D01*
X12873422D01*
Y9476900D01*
X12788190D01*
Y9394090D01*
X12778698Y9386346D01*
X12662946D01*
Y9829800D01*
X12658920Y9839520D01*
X12658700Y9839612D01*
Y9851100D01*
X12478372D01*
Y9870273D01*
X12481727Y9873628D01*
X12818901D01*
Y9737789D01*
X12894099D01*
X12902876Y9733802D01*
X12903970Y9733101D01*
X12903981Y9733094D01*
X12911501Y9731599D01*
Y9843315D01*
Y9955030D01*
X12903981Y9953534D01*
X12903970Y9953527D01*
X12902876Y9952827D01*
X12894099Y9948839D01*
X12818901D01*
Y9938372D01*
X12468318D01*
X12455930Y9935908D01*
X12445428Y9928890D01*
X12423110Y9906572D01*
X12416092Y9896070D01*
X12413628Y9883682D01*
Y9851100D01*
X12233300D01*
Y9839612D01*
X12233080Y9839520D01*
X12229054Y9829800D01*
Y9386346D01*
X11707920D01*
X11698962Y9399047D01*
X11699797Y9401390D01*
X11842510D01*
Y9572410D01*
X11796950D01*
Y9631809D01*
X11794486Y9644197D01*
X11787469Y9654699D01*
X11748872Y9693296D01*
Y9736695D01*
X11761572Y9743484D01*
X11766829Y9739971D01*
X11781500Y9737053D01*
X11796170Y9739971D01*
X11807653Y9747643D01*
X11812326Y9742970D01*
X11827946Y9736500D01*
X11844854D01*
X11860474Y9742970D01*
X11872430Y9754926D01*
X11878900Y9770546D01*
Y9787454D01*
X11872430Y9803074D01*
X11860474Y9815030D01*
X11844854Y9821500D01*
X11827947D01*
X11819836Y9826919D01*
Y9911240D01*
X11816917Y9925911D01*
X11808607Y9938348D01*
X11796170Y9946658D01*
X11781500Y9949576D01*
X11766829Y9946658D01*
X11761572Y9943145D01*
X11748872Y9949933D01*
Y9975228D01*
X12954128D01*
Y9958713D01*
D02*
G37*
G36*
X11684128D02*
X11671428Y9951924D01*
X11669019Y9953534D01*
X11661501Y9955030D01*
Y9843315D01*
Y9731599D01*
X11669019Y9733094D01*
X11671428Y9734704D01*
X11684128Y9727916D01*
Y9679887D01*
X11686592Y9667498D01*
X11693610Y9656996D01*
X11732206Y9618400D01*
Y9572410D01*
X11688654D01*
Y9579710D01*
X11613422D01*
Y9486900D01*
X11603422D01*
Y9476900D01*
X11518190D01*
Y9394090D01*
X11508698Y9386346D01*
X11392946D01*
Y9829800D01*
X11388920Y9839520D01*
X11388700Y9839612D01*
Y9851100D01*
X11208372D01*
Y9870273D01*
X11211727Y9873628D01*
X11548901D01*
Y9737789D01*
X11624099D01*
X11632877Y9733802D01*
X11633971Y9733101D01*
X11633981Y9733094D01*
X11641501Y9731599D01*
Y9843315D01*
Y9955030D01*
X11633981Y9953534D01*
X11633971Y9953527D01*
X11632877Y9952827D01*
X11624099Y9948839D01*
X11548901D01*
Y9938372D01*
X11198318D01*
X11185930Y9935908D01*
X11175428Y9928890D01*
X11153110Y9906572D01*
X11146092Y9896070D01*
X11143628Y9883682D01*
Y9851100D01*
X10963300D01*
Y9839612D01*
X10963080Y9839520D01*
X10959054Y9829800D01*
Y9386346D01*
X10437920D01*
X10428962Y9399047D01*
X10429797Y9401390D01*
X10572510D01*
Y9572410D01*
X10526950D01*
Y9631808D01*
X10524486Y9644197D01*
X10517469Y9654699D01*
X10478872Y9693295D01*
Y9736695D01*
X10491572Y9743484D01*
X10496829Y9739971D01*
X10511500Y9737053D01*
X10526170Y9739971D01*
X10538109Y9747948D01*
X10562748D01*
X10567726Y9742970D01*
X10583346Y9736500D01*
X10600254D01*
X10615874Y9742970D01*
X10627830Y9754926D01*
X10634300Y9770546D01*
Y9787454D01*
X10627830Y9803074D01*
X10615874Y9815030D01*
X10600254Y9821500D01*
X10583346D01*
X10567726Y9815030D01*
X10565388Y9812692D01*
X10549836D01*
Y9911240D01*
X10546917Y9925911D01*
X10538607Y9938348D01*
X10526170Y9946658D01*
X10511500Y9949576D01*
X10496829Y9946658D01*
X10491572Y9943145D01*
X10478872Y9949933D01*
Y9975228D01*
X11684128D01*
Y9958713D01*
D02*
G37*
G36*
X9144128D02*
X9131428Y9951924D01*
X9129019Y9953534D01*
X9121501Y9955030D01*
Y9843315D01*
Y9731599D01*
X9129019Y9733094D01*
X9131428Y9734704D01*
X9144128Y9727916D01*
Y9679887D01*
X9146592Y9667498D01*
X9153610Y9656996D01*
X9192206Y9618400D01*
Y9572410D01*
X9148654D01*
Y9579710D01*
X9073422D01*
Y9486900D01*
X9063422D01*
Y9476900D01*
X8978190D01*
Y9394090D01*
X8968698Y9386346D01*
X8852946D01*
Y9829800D01*
X8848920Y9839520D01*
X8848700Y9839612D01*
Y9851100D01*
X8668372D01*
Y9870273D01*
X8671727Y9873628D01*
X9008901D01*
Y9737789D01*
X9084099D01*
X9092877Y9733802D01*
X9093971Y9733101D01*
X9093981Y9733094D01*
X9101501Y9731599D01*
Y9843315D01*
Y9955030D01*
X9093981Y9953534D01*
X9093971Y9953527D01*
X9092877Y9952827D01*
X9084099Y9948839D01*
X9008901D01*
Y9938372D01*
X8658318D01*
X8645930Y9935908D01*
X8635428Y9928890D01*
X8613110Y9906572D01*
X8606092Y9896070D01*
X8603628Y9883682D01*
Y9851100D01*
X8423300D01*
Y9839612D01*
X8423080Y9839520D01*
X8419054Y9829800D01*
Y9386346D01*
X7897920D01*
X7888962Y9399047D01*
X7889797Y9401390D01*
X8032510D01*
Y9572410D01*
X7986950D01*
Y9631809D01*
X7984486Y9644197D01*
X7977469Y9654699D01*
X7938872Y9693296D01*
Y9736695D01*
X7951572Y9743484D01*
X7956829Y9739971D01*
X7971500Y9737053D01*
X7986170Y9739971D01*
X7998109Y9747948D01*
X8022748D01*
X8027726Y9742970D01*
X8043346Y9736500D01*
X8060254D01*
X8075874Y9742970D01*
X8087830Y9754926D01*
X8094300Y9770546D01*
Y9787454D01*
X8087830Y9803074D01*
X8075874Y9815030D01*
X8060254Y9821500D01*
X8043346D01*
X8027726Y9815030D01*
X8025388Y9812692D01*
X8009836D01*
Y9911240D01*
X8006917Y9925911D01*
X7998607Y9938348D01*
X7986170Y9946658D01*
X7971500Y9949576D01*
X7956829Y9946658D01*
X7951572Y9943145D01*
X7938872Y9949933D01*
Y9975228D01*
X9144128D01*
Y9958713D01*
D02*
G37*
G36*
X7874128D02*
X7861428Y9951924D01*
X7859019Y9953534D01*
X7851501Y9955030D01*
Y9843315D01*
Y9731599D01*
X7859019Y9733094D01*
X7861428Y9734704D01*
X7874128Y9727916D01*
Y9679887D01*
X7876592Y9667498D01*
X7883610Y9656996D01*
X7922206Y9618400D01*
Y9572410D01*
X7878654D01*
Y9579710D01*
X7803422D01*
Y9486900D01*
X7793422D01*
Y9476900D01*
X7708190D01*
Y9394090D01*
X7698698Y9386346D01*
X7582946D01*
Y9829800D01*
X7578920Y9839520D01*
X7578700Y9839612D01*
Y9851100D01*
X7398372D01*
Y9870273D01*
X7401727Y9873628D01*
X7738901D01*
Y9737789D01*
X7814099D01*
X7822877Y9733802D01*
X7823971Y9733101D01*
X7823981Y9733094D01*
X7831501Y9731599D01*
Y9843315D01*
Y9955030D01*
X7823981Y9953534D01*
X7823971Y9953527D01*
X7822877Y9952827D01*
X7814099Y9948839D01*
X7738901D01*
Y9938372D01*
X7388318D01*
X7375930Y9935908D01*
X7365428Y9928890D01*
X7343110Y9906572D01*
X7336092Y9896070D01*
X7333628Y9883682D01*
Y9851100D01*
X7153300D01*
Y9839612D01*
X7153080Y9839520D01*
X7149054Y9829800D01*
Y9386346D01*
X6627920D01*
X6618962Y9399047D01*
X6619797Y9401390D01*
X6762510D01*
Y9572410D01*
X6716950D01*
Y9631809D01*
X6714486Y9644197D01*
X6707469Y9654699D01*
X6668872Y9693296D01*
Y9736695D01*
X6681572Y9743484D01*
X6686829Y9739971D01*
X6701500Y9737053D01*
X6716170Y9739971D01*
X6728109Y9747948D01*
X6752748D01*
X6757726Y9742970D01*
X6773346Y9736500D01*
X6790254D01*
X6805874Y9742970D01*
X6817830Y9754926D01*
X6824300Y9770546D01*
Y9787454D01*
X6817830Y9803074D01*
X6805874Y9815030D01*
X6790254Y9821500D01*
X6773346D01*
X6757726Y9815030D01*
X6755388Y9812692D01*
X6739836D01*
Y9911240D01*
X6736917Y9925911D01*
X6728607Y9938348D01*
X6716170Y9946658D01*
X6701500Y9949576D01*
X6686829Y9946658D01*
X6681572Y9943145D01*
X6668872Y9949933D01*
Y9975228D01*
X7874128D01*
Y9958713D01*
D02*
G37*
G36*
X6604128D02*
X6591428Y9951924D01*
X6589019Y9953534D01*
X6581501Y9955030D01*
Y9843315D01*
Y9731599D01*
X6589019Y9733094D01*
X6591428Y9734704D01*
X6604128Y9727916D01*
Y9679887D01*
X6606592Y9667498D01*
X6613610Y9656996D01*
X6652206Y9618400D01*
Y9572410D01*
X6608654D01*
Y9579710D01*
X6533422D01*
Y9486900D01*
X6523422D01*
Y9476900D01*
X6438190D01*
Y9394090D01*
X6428698Y9386346D01*
X6312946D01*
Y9829800D01*
X6308920Y9839520D01*
X6308700Y9839612D01*
Y9851100D01*
X6128372D01*
Y9870273D01*
X6131727Y9873628D01*
X6468901D01*
Y9737789D01*
X6544099D01*
X6552877Y9733802D01*
X6553971Y9733101D01*
X6553981Y9733094D01*
X6561501Y9731599D01*
Y9843315D01*
Y9955030D01*
X6553981Y9953534D01*
X6553971Y9953527D01*
X6552877Y9952827D01*
X6544099Y9948839D01*
X6468901D01*
Y9938372D01*
X6118318D01*
X6105930Y9935908D01*
X6095428Y9928890D01*
X6073110Y9906572D01*
X6066092Y9896070D01*
X6063628Y9883682D01*
Y9851100D01*
X5883300D01*
Y9839612D01*
X5883080Y9839520D01*
X5879054Y9829800D01*
Y9386346D01*
X5357920D01*
X5348962Y9399047D01*
X5349797Y9401390D01*
X5492510D01*
Y9572410D01*
X5446950D01*
Y9631809D01*
X5444486Y9644197D01*
X5437469Y9654699D01*
X5398872Y9693296D01*
Y9736695D01*
X5411572Y9743484D01*
X5416829Y9739971D01*
X5431500Y9737053D01*
X5446170Y9739971D01*
X5458109Y9747948D01*
X5482748D01*
X5487726Y9742970D01*
X5503346Y9736500D01*
X5520254D01*
X5535874Y9742970D01*
X5547830Y9754926D01*
X5554300Y9770546D01*
Y9787454D01*
X5547830Y9803074D01*
X5535874Y9815030D01*
X5520254Y9821500D01*
X5503346D01*
X5487726Y9815030D01*
X5485388Y9812692D01*
X5469836D01*
Y9911240D01*
X5466917Y9925911D01*
X5458607Y9938348D01*
X5446170Y9946658D01*
X5431500Y9949576D01*
X5416829Y9946658D01*
X5411572Y9943145D01*
X5398872Y9949933D01*
Y9971873D01*
X5402227Y9975228D01*
X6604128D01*
Y9958713D01*
D02*
G37*
G36*
X13919200Y9118600D02*
Y8940800D01*
X8148178D01*
Y8209376D01*
X8148175Y8209374D01*
X7498270D01*
X7497954Y8940800D01*
X4622800D01*
Y9118600D01*
Y9829800D01*
X5029200D01*
Y9372600D01*
X5892800D01*
Y9829800D01*
X6299200D01*
Y9372600D01*
X7162800D01*
Y9829800D01*
X7569200D01*
Y9372600D01*
X8432800D01*
Y9829800D01*
X8839200D01*
Y9372600D01*
X9702800D01*
Y9829800D01*
X10109200D01*
Y9372600D01*
X10972800D01*
Y9829800D01*
X11379200D01*
Y9372600D01*
X12242800D01*
Y9829800D01*
X12649200D01*
Y9372600D01*
X13512801D01*
Y9829800D01*
X13919200D01*
Y9118600D01*
D02*
G37*
%LPC*%
G36*
X10323422Y9579710D02*
X10248190D01*
Y9496900D01*
X10323422D01*
Y9579710D01*
D02*
G37*
G36*
X12863422D02*
X12788190D01*
Y9496900D01*
X12863422D01*
Y9579710D01*
D02*
G37*
G36*
X11593422D02*
X11518190D01*
Y9496900D01*
X11593422D01*
Y9579710D01*
D02*
G37*
G36*
X9053422D02*
X8978190D01*
Y9496900D01*
X9053422D01*
Y9579710D01*
D02*
G37*
G36*
X7783422D02*
X7708190D01*
Y9496900D01*
X7783422D01*
Y9579710D01*
D02*
G37*
G36*
X6513422D02*
X6438190D01*
Y9496900D01*
X6513422D01*
Y9579710D01*
D02*
G37*
%LPD*%
D10*
X12849001Y10566400D02*
D03*
X13059000D02*
D03*
X10309000D02*
D03*
X10519000D02*
D03*
X7769000D02*
D03*
X7979000D02*
D03*
X5229000D02*
D03*
X5439000D02*
D03*
X12849001Y10820400D02*
D03*
X13059000D02*
D03*
X10309000D02*
D03*
X10519000D02*
D03*
X7769000D02*
D03*
X7979000D02*
D03*
X5229000D02*
D03*
X5439000D02*
D03*
X14119000Y10566400D02*
D03*
X14328999D02*
D03*
X11579000D02*
D03*
X11789000D02*
D03*
X9039000D02*
D03*
X9249000D02*
D03*
X6499000D02*
D03*
X6709000D02*
D03*
X14119000Y10820400D02*
D03*
X14328999D02*
D03*
X11579000D02*
D03*
X11789000D02*
D03*
X9039000D02*
D03*
X9249000D02*
D03*
X6499000D02*
D03*
X6709000D02*
D03*
D11*
X9224578Y9486900D02*
D03*
X9063422D02*
D03*
X7954578D02*
D03*
X7793422D02*
D03*
X6684578D02*
D03*
X6523422D02*
D03*
X5414578D02*
D03*
X5253422D02*
D03*
X14304578D02*
D03*
X14143422D02*
D03*
X13034578D02*
D03*
X12873422D02*
D03*
X11764578D02*
D03*
X11603422D02*
D03*
X10494578D02*
D03*
X10333422D02*
D03*
D12*
X9046500Y10273486D02*
D03*
X9111500D02*
D03*
X9176500D02*
D03*
X9241500D02*
D03*
Y9843314D02*
D03*
X9176500D02*
D03*
X9111500D02*
D03*
X7776500Y10273486D02*
D03*
X7841500D02*
D03*
X7906500D02*
D03*
X7971500D02*
D03*
Y9843314D02*
D03*
X7906500D02*
D03*
X7841500D02*
D03*
X6506500Y10273486D02*
D03*
X6571500D02*
D03*
X6636500D02*
D03*
X6701500D02*
D03*
Y9843314D02*
D03*
X6636500D02*
D03*
X6571500D02*
D03*
X5236500Y10273486D02*
D03*
X5301500D02*
D03*
X5366500D02*
D03*
X5431500D02*
D03*
Y9843314D02*
D03*
X5366500D02*
D03*
X5301500D02*
D03*
X14126500Y10273486D02*
D03*
X14191499D02*
D03*
X14256500D02*
D03*
X14321500D02*
D03*
Y9843314D02*
D03*
X14256500D02*
D03*
X14191499D02*
D03*
X12856500Y10273486D02*
D03*
X12921500D02*
D03*
X12986501D02*
D03*
X13051500D02*
D03*
Y9843314D02*
D03*
X12986501D02*
D03*
X12921500D02*
D03*
X11586500Y10273486D02*
D03*
X11651500D02*
D03*
X11716500D02*
D03*
X11781500D02*
D03*
Y9843314D02*
D03*
X11716500D02*
D03*
X11651500D02*
D03*
X10316500Y10273486D02*
D03*
X10381500D02*
D03*
X10446500D02*
D03*
X10511500D02*
D03*
Y9843314D02*
D03*
X10446500D02*
D03*
X10381500D02*
D03*
D13*
X9046500D02*
D03*
X7776500D02*
D03*
X6506500D02*
D03*
X5236500D02*
D03*
X14126500D02*
D03*
X12856500D02*
D03*
X11586500D02*
D03*
X10316500D02*
D03*
D14*
X8636000Y9748400D02*
D03*
Y10368400D02*
D03*
X7366000Y9748400D02*
D03*
Y10368400D02*
D03*
X6096000Y9748400D02*
D03*
Y10368400D02*
D03*
X4826000Y9748400D02*
D03*
Y10368400D02*
D03*
X13716000Y9748400D02*
D03*
Y10368400D02*
D03*
X12446000Y9748400D02*
D03*
Y10368400D02*
D03*
X11176000Y9748400D02*
D03*
Y10368400D02*
D03*
X9906000Y9748400D02*
D03*
Y10368400D02*
D03*
D15*
X9626600Y10007600D02*
X10439400D01*
X9169400D02*
X9626600D01*
X10166918Y8813800D02*
X11506200D01*
X11811000Y8509000D01*
X10110520Y8870198D02*
X10166918Y8813800D01*
X10185400Y8890000D02*
X11684000D01*
X12065000Y8509000D01*
X10109200Y8890000D02*
X10110520Y8888680D01*
Y8870198D02*
Y8888680D01*
X9320480Y9780320D02*
X9321800Y9779000D01*
X9241500Y9785724D02*
Y9843314D01*
X9246904Y9780320D02*
X9320480D01*
X9241500Y9785724D02*
X9246904Y9780320D01*
X14304578Y8995978D02*
Y9486900D01*
X14224001Y8915400D02*
X14304578Y8995978D01*
X5436904Y9780320D02*
X5510480D01*
X5511800Y9779000D01*
X5431500Y9785724D02*
Y9843314D01*
Y9785724D02*
X5436904Y9780320D01*
X5253422Y9486900D02*
Y9631809D01*
X5301500Y9679887D01*
X6780480Y9780320D02*
X6781800Y9779000D01*
X6701500Y9785724D02*
Y9843314D01*
Y9785724D02*
X6706904Y9780320D01*
X6780480D01*
X7971500Y9785724D02*
X7976904Y9780320D01*
X8050480D01*
X7971500Y9785724D02*
Y9843314D01*
X8050480Y9780320D02*
X8051800Y9779000D01*
X10511500Y9785724D02*
X10516904Y9780320D01*
X10590480D01*
X10591800Y9779000D01*
X10511500Y9785724D02*
Y9843314D01*
X11835080Y9780320D02*
X11836400Y9779000D01*
X11786904Y9780320D02*
X11835080D01*
X11781500Y9785724D02*
Y9843314D01*
Y9785724D02*
X11786904Y9780320D01*
X13056905D02*
X13105080D01*
X13106400Y9779000D01*
X13051500Y9785724D02*
Y9843314D01*
Y9785724D02*
X13056905Y9780320D01*
X14321500Y9785724D02*
X14326904Y9780320D01*
X14321500Y9785724D02*
Y9843314D01*
X14326904Y9780320D02*
X14375079D01*
X14376401Y9779000D01*
X11709400Y10007600D02*
X12979401D01*
X9249000Y10566400D02*
X9350328D01*
X7979000D02*
X8077200D01*
X5439000D02*
X5448241Y10557159D01*
X5527959D01*
X10494578Y9486900D02*
Y9631808D01*
X10446500Y9679886D02*
X10494578Y9631808D01*
X10446500Y9679886D02*
Y9842264D01*
X10448396Y9440718D02*
X10494578Y9486900D01*
X10445449Y9843314D02*
X10446500Y9842264D01*
Y9843314D02*
Y10000500D01*
X5439000Y10820400D02*
X5537200D01*
X6709000Y10566400D02*
X6807200D01*
X6709000Y10820400D02*
X6807200D01*
X7979000D02*
X8077200D01*
X9249000D02*
X9347200D01*
X10513738Y10275724D02*
Y10571138D01*
X10615880Y10673280D01*
Y10721330D01*
X10617200Y10722650D01*
X10424950Y10716350D02*
X10554400Y10845800D01*
X10617200D01*
X11789000Y10566400D02*
X11814400Y10591800D01*
X11887200D01*
X11694950Y10716350D02*
X11799000Y10820400D01*
X11887200D01*
X13059000D02*
X13157201D01*
X13059000Y10566400D02*
X13157201D01*
X14326920Y10564320D02*
Y10666680D01*
X14323738Y10561138D02*
X14326920Y10564320D01*
X14325600Y10668000D02*
X14326920Y10666680D01*
X14344769Y10794631D02*
X14427200D01*
X14328999Y10810400D02*
X14344769Y10794631D01*
X6644109Y10007600D02*
X7899400D01*
X5388819D02*
X6644109D01*
X6636500Y9843314D02*
Y9999991D01*
X6644109Y10007600D01*
X7899400D02*
X9169400D01*
X7899400D02*
X7906500Y10000500D01*
Y9843314D02*
Y10000500D01*
X9176500Y9843314D02*
Y10000500D01*
X9169400Y10007600D02*
X9176500Y10000500D01*
X10439400Y10007600D02*
X11709400D01*
X10439400D02*
X10446500Y10000500D01*
X11716500Y9843314D02*
Y10000500D01*
X11709400Y10007600D02*
X11716500Y10000500D01*
X12979401Y10007600D02*
X14234183D01*
X12979401D02*
X12986501Y10000500D01*
Y9843314D02*
Y10000500D01*
X14234183Y10007600D02*
X14256500Y9985282D01*
Y9843314D02*
Y9985282D01*
X5366500D02*
X5388819Y10007600D01*
X5366500Y9843314D02*
Y9985282D01*
X11694950Y10485225D02*
Y10716350D01*
X9906000Y10233118D02*
X9928318Y10210800D01*
X10311096D01*
X9906000Y10233118D02*
Y10368400D01*
X7366000Y10233118D02*
Y10368400D01*
Y10233118D02*
X7385237Y10213882D01*
X7771096D01*
X14234950Y10485225D02*
X14256500Y10463675D01*
Y10273486D02*
Y10463675D01*
X14234950Y10485225D02*
Y10716350D01*
X14328999Y10810400D01*
X14321500Y10273486D02*
X14323738Y10275724D01*
Y10561138D01*
X13059000Y10810400D02*
Y10820400D01*
X12964951Y10716350D02*
X13059000Y10810400D01*
X12964951Y10485225D02*
Y10716350D01*
Y10485225D02*
X12986501Y10463675D01*
Y10273486D02*
Y10463675D01*
X13053738Y10561138D02*
X13059000Y10566400D01*
X13051500Y10273486D02*
X13053738Y10275724D01*
Y10561138D01*
X11694950Y10485225D02*
X11716500Y10463675D01*
Y10273486D02*
Y10463675D01*
X11783738Y10275724D02*
Y10561138D01*
X11781500Y10273486D02*
X11783738Y10275724D01*
Y10561138D02*
X11789000Y10566400D01*
X10424950Y10485225D02*
Y10716350D01*
Y10485225D02*
X10446500Y10463675D01*
Y10273486D02*
Y10463675D01*
X10511500Y10273486D02*
X10513738Y10275724D01*
X9154950Y10485225D02*
Y10716350D01*
X9176500Y10273486D02*
Y10463675D01*
X9154950Y10485225D02*
X9176500Y10463675D01*
X9154950Y10716350D02*
X9249000Y10810400D01*
Y10820400D01*
X9243738Y10561138D02*
X9249000Y10566400D01*
X9241500Y10273486D02*
X9243738Y10275724D01*
Y10561138D01*
X7884950Y10485225D02*
Y10716350D01*
X7906500Y10273486D02*
Y10463675D01*
X7884950Y10485225D02*
X7906500Y10463675D01*
X7884950Y10716350D02*
X7979000Y10810400D01*
Y10820400D01*
X7973738Y10275724D02*
Y10561138D01*
X7971500Y10273486D02*
X7973738Y10275724D01*
Y10561138D02*
X7979000Y10566400D01*
X6614950Y10485225D02*
X6636500Y10463675D01*
X6614950Y10485225D02*
Y10716350D01*
X6636500Y10273486D02*
Y10463675D01*
X6614950Y10716350D02*
X6709000Y10810400D01*
Y10820400D01*
X6701500Y10273486D02*
X6703738Y10275724D01*
Y10561138D01*
X6709000Y10566400D01*
X5344950Y10485225D02*
Y10716350D01*
X5439000Y10810400D01*
Y10820400D01*
X5366500Y10273486D02*
Y10463675D01*
X5344950Y10485225D02*
X5366500Y10463675D01*
X5433738Y10561138D02*
X5439000Y10566400D01*
X5431500Y10273486D02*
X5433738Y10275724D01*
Y10561138D01*
X14256500Y9679887D02*
X14304578Y9631809D01*
X14256500Y9679887D02*
Y9843314D01*
X14304578Y9486900D02*
Y9631809D01*
X14143422Y9486900D02*
Y9631809D01*
X14191499Y9679887D01*
Y9843314D01*
X13034578Y9486900D02*
Y9631809D01*
X12986501Y9679887D02*
X13034578Y9631809D01*
X12986501Y9679887D02*
Y9843314D01*
X12873422Y9631809D02*
X12921500Y9679887D01*
X12873422Y9486900D02*
Y9631809D01*
X12921500Y9679887D02*
Y9843314D01*
X11716500Y9679887D02*
X11764578Y9631809D01*
Y9486900D02*
Y9631809D01*
X11716500Y9679887D02*
Y9843314D01*
X11603422Y9631809D02*
X11651500Y9679887D01*
Y9843314D01*
X11603422Y9486900D02*
Y9631809D01*
X10381500Y9679887D02*
Y9843314D01*
X10333422Y9631809D02*
X10381500Y9679887D01*
X10333422Y9486900D02*
Y9631809D01*
X9176500Y9679887D02*
Y9843314D01*
X9224578Y9486900D02*
Y9631809D01*
X9176500Y9679887D02*
X9224578Y9631809D01*
X9063422D02*
X9111500Y9679887D01*
X9063422Y9486900D02*
Y9631809D01*
X9111500Y9679887D02*
Y9843314D01*
X7906500Y9679887D02*
X7954578Y9631809D01*
Y9486900D02*
Y9631809D01*
X7906500Y9679887D02*
Y9843314D01*
X7793422Y9631809D02*
X7841500Y9679887D01*
X7793422Y9486900D02*
Y9631809D01*
X7841500Y9679887D02*
Y9843314D01*
X6636500Y9679887D02*
Y9843314D01*
X6684578Y9486900D02*
Y9631809D01*
X6636500Y9679887D02*
X6684578Y9631809D01*
X6571500Y9679887D02*
Y9843314D01*
X6523422Y9486900D02*
Y9631809D01*
X6571500Y9679887D01*
X5366500D02*
X5414578Y9631809D01*
X5366500Y9679887D02*
Y9843314D01*
X5414578Y9486900D02*
Y9631809D01*
X5301500Y9679887D02*
Y9843314D01*
X14120651Y9906000D02*
X14126500Y9900151D01*
X13738318Y9906000D02*
X14120651D01*
X13716000Y9883682D02*
X13738318Y9906000D01*
X13716000Y9748400D02*
Y9883682D01*
X14126500Y9843314D02*
Y9900151D01*
X14121095Y10210800D02*
X14126500Y10216204D01*
X13716000Y10233118D02*
X13738318Y10210800D01*
X13716000Y10233118D02*
Y10368400D01*
X14126500Y10216204D02*
Y10273486D01*
X13738318Y10210800D02*
X14121095D01*
X12856500Y9843314D02*
Y9900151D01*
X12468318Y9906000D02*
X12850652D01*
X12446000Y9748400D02*
Y9883682D01*
X12850652Y9906000D02*
X12856500Y9900151D01*
X12446000Y9883682D02*
X12468318Y9906000D01*
X12851096Y10210800D02*
X12856500Y10216204D01*
X12468318Y10210800D02*
X12851096D01*
X12446000Y10233118D02*
Y10368400D01*
X12856500Y10216204D02*
Y10273486D01*
X12446000Y10233118D02*
X12468318Y10210800D01*
X11586500Y9843314D02*
Y9900151D01*
X11580651Y9906000D02*
X11586500Y9900151D01*
X11176000Y9883682D02*
X11198318Y9906000D01*
X11176000Y9748400D02*
Y9883682D01*
X11198318Y9906000D02*
X11580651D01*
X11581096Y10210800D02*
X11586500Y10216204D01*
X11198318Y10210800D02*
X11581096D01*
X11176000Y10233118D02*
X11198318Y10210800D01*
X11176000Y10233118D02*
Y10368400D01*
X11586500Y10216204D02*
Y10273486D01*
X10310651Y9906000D02*
X10316500Y9900151D01*
X9906000Y9883682D02*
X9928318Y9906000D01*
X9906000Y9748400D02*
Y9883682D01*
X10316500Y9843314D02*
Y9900151D01*
X9928318Y9906000D02*
X10310651D01*
X10316500Y10216204D02*
Y10273486D01*
X10311096Y10210800D02*
X10316500Y10216204D01*
X9046500Y9843314D02*
Y9900151D01*
X8636000Y9883682D02*
X8658318Y9906000D01*
X8636000Y9748400D02*
Y9883682D01*
X9040651Y9906000D02*
X9046500Y9900151D01*
X8658318Y9906000D02*
X9040651D01*
X8658318Y10210800D02*
X9041096D01*
X8636000Y10233118D02*
Y10368400D01*
X9046500Y10216204D02*
Y10273486D01*
X9041096Y10210800D02*
X9046500Y10216204D01*
X8636000Y10233118D02*
X8658318Y10210800D01*
X7776500Y9843314D02*
Y9900151D01*
X7388318Y9906000D02*
X7770651D01*
X7366000Y9883682D02*
X7388318Y9906000D01*
X7366000Y9748400D02*
Y9883682D01*
X7770651Y9906000D02*
X7776500Y9900151D01*
X7771096Y10213882D02*
X7776500Y10219286D01*
Y10273486D01*
X6506500Y9843314D02*
Y9900151D01*
X6118318Y9906000D02*
X6500651D01*
X6096000Y9748400D02*
Y9883682D01*
X6500651Y9906000D02*
X6506500Y9900151D01*
X6096000Y9883682D02*
X6118318Y9906000D01*
X6506500Y10216204D02*
Y10273486D01*
X6501096Y10210800D02*
X6506500Y10216204D01*
X6118318Y10210800D02*
X6501096D01*
X6096000Y10233118D02*
X6118318Y10210800D01*
X6096000Y10233118D02*
Y10368400D01*
X5230651Y9902918D02*
X5236500Y9897069D01*
X4826000Y9883682D02*
X4845237Y9902918D01*
X4826000Y9748400D02*
Y9883682D01*
X5236500Y9843314D02*
Y9897069D01*
X4845237Y9902918D02*
X5230651D01*
X5231096Y10210800D02*
X5236500Y10216204D01*
Y10273486D01*
X4851400Y10210800D02*
X5231096D01*
X4826000Y10236200D02*
Y10368400D01*
Y10236200D02*
X4851400Y10210800D01*
D16*
X7091680Y8534400D02*
D03*
X7823200D02*
D03*
D17*
X8864600Y11460480D02*
D03*
Y12192000D02*
D03*
X7594600Y11460480D02*
D03*
Y12192000D02*
D03*
X6324600Y11460480D02*
D03*
Y12192000D02*
D03*
X5054600Y11460480D02*
D03*
Y12192000D02*
D03*
X13944600Y11460480D02*
D03*
Y12192000D02*
D03*
X12674600Y11460480D02*
D03*
Y12192000D02*
D03*
X11404600Y11460480D02*
D03*
Y12192000D02*
D03*
X10134600Y11460480D02*
D03*
Y12192000D02*
D03*
D18*
X8890000Y8534400D02*
D03*
X11811000Y8509000D02*
D03*
D19*
X9144000Y8534400D02*
D03*
X9398000D02*
D03*
X9652000D02*
D03*
X9906000D02*
D03*
X10160000D02*
D03*
X10414000D02*
D03*
X10668000D02*
D03*
X12573000Y8509000D02*
D03*
X12319000D02*
D03*
X12065000D02*
D03*
D20*
X9626600Y10007600D02*
D03*
X10185400Y8890000D02*
D03*
X9321800Y9779000D02*
D03*
X10109200Y8890000D02*
D03*
X14224001Y8915400D02*
D03*
X5232400Y10566400D02*
D03*
Y10820400D02*
D03*
X6502400Y10566400D02*
D03*
Y10820400D02*
D03*
X7772400Y10566400D02*
D03*
Y10820400D02*
D03*
X9017000Y10617200D02*
D03*
X9042400Y10820400D02*
D03*
X10312400D02*
D03*
Y10617200D02*
D03*
X11582400Y10566400D02*
D03*
Y10820400D02*
D03*
X12852400Y10566400D02*
D03*
Y10820400D02*
D03*
X14122400Y10566400D02*
D03*
Y10820400D02*
D03*
X5511800Y9779000D02*
D03*
X6781800D02*
D03*
X8051800D02*
D03*
X10591800D02*
D03*
X11836400D02*
D03*
X13106400D02*
D03*
X14376401D02*
D03*
X9347200Y10820400D02*
D03*
X9350328Y10566400D02*
D03*
X8077200D02*
D03*
X5527959Y10557159D02*
D03*
X10617200Y10722650D02*
D03*
Y10845800D02*
D03*
X11887200Y10591800D02*
D03*
Y10820400D02*
D03*
X13157201Y10566400D02*
D03*
Y10820400D02*
D03*
X14325600Y10668000D02*
D03*
X14427200Y10794631D02*
D03*
X8077200Y10820400D02*
D03*
X6807200D02*
D03*
Y10566400D02*
D03*
X5537200Y10820400D02*
D03*
D21*
X8196158Y9529658D02*
D03*
X5778500Y9525000D02*
D03*
X5651500D02*
D03*
Y9652000D02*
D03*
X5778500D02*
D03*
X7048500Y9525000D02*
D03*
X6921500D02*
D03*
Y9652000D02*
D03*
X7048500D02*
D03*
X8318500D02*
D03*
X9588500D02*
D03*
X9461500D02*
D03*
Y9525000D02*
D03*
X9588500D02*
D03*
X10858500Y9652000D02*
D03*
X10731500D02*
D03*
Y9525000D02*
D03*
X10858500D02*
D03*
X12128500Y9652000D02*
D03*
X12001500D02*
D03*
Y9525000D02*
D03*
X12128500D02*
D03*
X13271500Y9652000D02*
D03*
X13398500D02*
D03*
X13271500Y9525000D02*
D03*
X13398500D02*
D03*
%TF.MD5,9dbf7044ea0da19d8291517a0661fb89*%
M02*
