%TF.GenerationSoftware,Altium Limited,Altium Designer,23.10.1 (27)*%
G04 Layer_Color=8388736*
%FSLAX45Y45*%
%MOMM*%
%TF.SameCoordinates,A038C99E-A49E-49FA-BA90-4B12FE75E0D5*%
%TF.FilePolarity,Negative*%
%TF.FileFunction,Soldermask,Top*%
%TF.Part,Single*%
G01*
G75*
%TA.AperFunction,SMDPad,CuDef*%
%ADD11R,1.30464X1.45620*%
G04:AMPARAMS|DCode=12|XSize=1.8565mm|YSize=0.49798mm|CornerRadius=0.24899mm|HoleSize=0mm|Usage=FLASHONLY|Rotation=90.000|XOffset=0mm|YOffset=0mm|HoleType=Round|Shape=RoundedRectangle|*
%AMROUNDEDRECTD12*
21,1,1.85650,0.00000,0,0,90.0*
21,1,1.35852,0.49798,0,0,90.0*
1,1,0.49798,0.00000,0.67926*
1,1,0.49798,0.00000,-0.67926*
1,1,0.49798,0.00000,-0.67926*
1,1,0.49798,0.00000,0.67926*
%
%ADD12ROUNDEDRECTD12*%
%ADD13R,0.49798X1.85650*%
%ADD14R,4.00000X1.80000*%
%ADD32R,1.30000X1.50000*%
%TA.AperFunction,ComponentPad*%
%ADD33R,6.70000X6.70000*%
%ADD34R,6.70000X6.70000*%
%ADD35R,1.70000X1.70000*%
%ADD36C,1.70000*%
D11*
X9224578Y9486900D02*
D03*
X9063422D02*
D03*
X7954578D02*
D03*
X7793422D02*
D03*
X6684578D02*
D03*
X6523422D02*
D03*
X5414578D02*
D03*
X5253422D02*
D03*
X14304578D02*
D03*
X14143422D02*
D03*
X13034578D02*
D03*
X12873422D02*
D03*
X11764578D02*
D03*
X11603422D02*
D03*
X10494578D02*
D03*
X10333422D02*
D03*
D12*
X9046500Y10273486D02*
D03*
X9111500D02*
D03*
X9176500D02*
D03*
X9241500D02*
D03*
Y9843314D02*
D03*
X9176500D02*
D03*
X9111500D02*
D03*
X7776500Y10273486D02*
D03*
X7841500D02*
D03*
X7906500D02*
D03*
X7971500D02*
D03*
Y9843314D02*
D03*
X7906500D02*
D03*
X7841500D02*
D03*
X6506500Y10273486D02*
D03*
X6571500D02*
D03*
X6636500D02*
D03*
X6701500D02*
D03*
Y9843314D02*
D03*
X6636500D02*
D03*
X6571500D02*
D03*
X5236500Y10273486D02*
D03*
X5301500D02*
D03*
X5366500D02*
D03*
X5431500D02*
D03*
Y9843314D02*
D03*
X5366500D02*
D03*
X5301500D02*
D03*
X14126500Y10273486D02*
D03*
X14191499D02*
D03*
X14256500D02*
D03*
X14321500D02*
D03*
Y9843314D02*
D03*
X14256500D02*
D03*
X14191499D02*
D03*
X12856500Y10273486D02*
D03*
X12921500D02*
D03*
X12986501D02*
D03*
X13051500D02*
D03*
Y9843314D02*
D03*
X12986501D02*
D03*
X12921500D02*
D03*
X11586500Y10273486D02*
D03*
X11651500D02*
D03*
X11716500D02*
D03*
X11781500D02*
D03*
Y9843314D02*
D03*
X11716500D02*
D03*
X11651500D02*
D03*
X10316500Y10273486D02*
D03*
X10381500D02*
D03*
X10446500D02*
D03*
X10511500D02*
D03*
Y9843314D02*
D03*
X10446500D02*
D03*
X10381500D02*
D03*
D13*
X9046500D02*
D03*
X7776500D02*
D03*
X6506500D02*
D03*
X5236500D02*
D03*
X14126500D02*
D03*
X12856500D02*
D03*
X11586500D02*
D03*
X10316500D02*
D03*
D14*
X8636000Y9748400D02*
D03*
Y10368400D02*
D03*
X7366000Y9748400D02*
D03*
Y10368400D02*
D03*
X6096000Y9748400D02*
D03*
Y10368400D02*
D03*
X4826000Y9748400D02*
D03*
Y10368400D02*
D03*
X13716000Y9748400D02*
D03*
Y10368400D02*
D03*
X12446000Y9748400D02*
D03*
Y10368400D02*
D03*
X11176000Y9748400D02*
D03*
Y10368400D02*
D03*
X9906000Y9748400D02*
D03*
Y10368400D02*
D03*
D32*
X12849001Y10566400D02*
D03*
X13059000D02*
D03*
X10309000D02*
D03*
X10519000D02*
D03*
X7769000D02*
D03*
X7979000D02*
D03*
X5229000D02*
D03*
X5439000D02*
D03*
X12849001Y10820400D02*
D03*
X13059000D02*
D03*
X10309000D02*
D03*
X10519000D02*
D03*
X7769000D02*
D03*
X7979000D02*
D03*
X5229000D02*
D03*
X5439000D02*
D03*
X14119000Y10566400D02*
D03*
X14328999D02*
D03*
X11579000D02*
D03*
X11789000D02*
D03*
X9039000D02*
D03*
X9249000D02*
D03*
X6499000D02*
D03*
X6709000D02*
D03*
X14119000Y10820400D02*
D03*
X14328999D02*
D03*
X11579000D02*
D03*
X11789000D02*
D03*
X9039000D02*
D03*
X9249000D02*
D03*
X6499000D02*
D03*
X6709000D02*
D03*
D33*
X7091680Y8534400D02*
D03*
X7823200D02*
D03*
D34*
X8864600Y11460480D02*
D03*
Y12192000D02*
D03*
X7594600Y11460480D02*
D03*
Y12192000D02*
D03*
X6324600Y11460480D02*
D03*
Y12192000D02*
D03*
X5054600Y11460480D02*
D03*
Y12192000D02*
D03*
X13944600Y11460480D02*
D03*
Y12192000D02*
D03*
X12674600Y11460480D02*
D03*
Y12192000D02*
D03*
X11404600Y11460480D02*
D03*
Y12192000D02*
D03*
X10134600Y11460480D02*
D03*
Y12192000D02*
D03*
D35*
X8890000Y8534400D02*
D03*
X11811000Y8509000D02*
D03*
D36*
X9144000Y8534400D02*
D03*
X9398000D02*
D03*
X9652000D02*
D03*
X9906000D02*
D03*
X10160000D02*
D03*
X10414000D02*
D03*
X10668000D02*
D03*
X12573000Y8509000D02*
D03*
X12319000D02*
D03*
X12065000D02*
D03*
%TF.MD5,fbaeec6ecf351968a7f2b96cd2b338c7*%
M02*
