%TF.GenerationSoftware,Altium Limited,Altium Designer,24.0.1 (36)*%
G04 Layer_Color=16711935*
%FSLAX45Y45*%
%MOMM*%
%TF.SameCoordinates,9BE18756-9D8A-4005-A41C-0EF74CF4EEEB*%
%TF.FilePolarity,Negative*%
%TF.FileFunction,Soldermask,Bot*%
%TF.Part,Single*%
G01*
G75*
%TA.AperFunction,ComponentPad*%
%ADD12R,1.57000X1.57000*%
%ADD13C,1.57000*%
%ADD14C,1.02000*%
%ADD20R,1.70320X1.70320*%
%ADD21C,1.70320*%
%TA.AperFunction,ViaPad*%
%ADD22C,0.20320*%
D12*
X14491499Y3650000D02*
D03*
X12391500D02*
D03*
X10291500D02*
D03*
X8191500D02*
D03*
X6091500D02*
D03*
X3991500D02*
D03*
D13*
X14491499Y3350000D02*
D03*
X14191499Y3650000D02*
D03*
Y3350000D02*
D03*
X12391500D02*
D03*
X12091500Y3650000D02*
D03*
Y3350000D02*
D03*
X10291500D02*
D03*
X9991500Y3650000D02*
D03*
Y3350000D02*
D03*
X8191500D02*
D03*
X7891500Y3650000D02*
D03*
Y3350000D02*
D03*
X6091500D02*
D03*
X5791500Y3650000D02*
D03*
Y3350000D02*
D03*
X3991500D02*
D03*
X3691500Y3650000D02*
D03*
Y3350000D02*
D03*
D14*
X14097501Y3050000D02*
D03*
Y3950000D02*
D03*
X11997500Y3050000D02*
D03*
Y3950000D02*
D03*
X9897500Y3050000D02*
D03*
Y3950000D02*
D03*
X7797500Y3050000D02*
D03*
Y3950000D02*
D03*
X5697500Y3050000D02*
D03*
Y3950000D02*
D03*
X3597500Y3050000D02*
D03*
Y3950000D02*
D03*
D20*
X3300000Y2800000D02*
D03*
D21*
X3554000D02*
D03*
X3808000D02*
D03*
X4062000D02*
D03*
D22*
X15100000Y4200000D02*
D03*
Y2800000D02*
D03*
X2800000D02*
D03*
Y4200000D02*
D03*
%TF.MD5,1876a585b0a0b925fcb1c9f40c7857d6*%
M02*
