%TF.GenerationSoftware,Altium Limited,Altium Designer,24.0.1 (36)*%
G04 Layer_Physical_Order=1*
G04 Layer_Color=255*
%FSLAX45Y45*%
%MOMM*%
%TF.SameCoordinates,9BE18756-9D8A-4005-A41C-0EF74CF4EEEB*%
%TF.FilePolarity,Positive*%
%TF.FileFunction,Copper,L1,Top,Signal*%
%TF.Part,Single*%
G01*
G75*
%TA.AperFunction,Conductor*%
%ADD10C,0.50800*%
%ADD11C,1.27000*%
%TA.AperFunction,ComponentPad*%
%ADD12R,1.57000X1.57000*%
%ADD13C,1.57000*%
%ADD14C,1.02000*%
%ADD15R,1.50000X1.50000*%
%ADD16C,1.50000*%
D10*
X3492520Y3517877D02*
X3522278Y3547635D01*
X3492520Y3011013D02*
Y3517877D01*
Y3011013D02*
X3552333Y2951200D01*
Y2801667D02*
Y2951200D01*
Y2801667D02*
X3554000Y2800000D01*
X3522278Y3547635D02*
X3575087D01*
X3677452Y3650000D02*
X3691500D01*
X3575087Y3547635D02*
X3677452Y3650000D01*
X3691500Y3646100D02*
X3816900Y3520700D01*
X3691500Y3646100D02*
Y3650000D01*
X3816900Y3520700D02*
X5778500D01*
X7988300D02*
Y3552263D01*
X7891500Y3649063D02*
X7988300Y3552263D01*
X7891500Y3649063D02*
Y3650000D01*
X10162200Y3531200D02*
X10172700Y3520700D01*
X10162200Y3531200D02*
Y3552263D01*
X10117563Y3596900D02*
X10162200Y3552263D01*
X10073338Y3596900D02*
X10117563D01*
X10020238Y3650000D02*
X10073338Y3596900D01*
X9991500Y3650000D02*
X10020238D01*
X12382500Y3520700D02*
X14062199D01*
X14191499Y3650000D01*
X10172700Y3520700D02*
X12382500D01*
X7988300D02*
X10172700D01*
X5778500D02*
X7988300D01*
X5778500D02*
Y3637000D01*
X5791500Y3650000D01*
D11*
X3200000Y3129001D02*
X3288500Y3040501D01*
Y2811500D02*
Y3040501D01*
Y2811500D02*
X3300000Y2800000D01*
X3200000Y3129001D02*
Y3850349D01*
X3451751Y4102100D02*
X3911600D01*
X3200000Y3850349D02*
X3451751Y4102100D01*
X3991500Y2876724D02*
Y3350000D01*
Y2876724D02*
X4062000Y2806224D01*
Y2800000D02*
Y2806224D01*
X3891500Y3877000D02*
Y4082000D01*
Y3877000D02*
X3976500Y3792000D01*
Y3665000D02*
Y3792000D01*
Y3665000D02*
X3991500Y3650000D01*
X3891500Y4082000D02*
X3911600Y4102100D01*
X8291500Y2924400D02*
Y3241882D01*
X8191500Y3341882D02*
X8291500Y3241882D01*
X8191500Y3341882D02*
Y3350000D01*
X8291500Y2924400D02*
X8305800Y2910100D01*
X8291500Y3877000D02*
Y4100500D01*
X8206500Y3792000D02*
X8291500Y3877000D01*
X8206500Y3665000D02*
Y3792000D01*
X8191500Y3650000D02*
X8206500Y3665000D01*
X8291500Y4100500D02*
X8293100Y4102100D01*
X10491500Y2911400D02*
Y3150000D01*
X10291500Y3350000D02*
X10491500Y3150000D01*
X10490200Y2910100D02*
X10491500Y2911400D01*
Y3850000D02*
Y4090700D01*
X10291500Y3650000D02*
X10491500Y3850000D01*
Y4090700D02*
X10502900Y4102100D01*
X12691500Y2939700D02*
Y3060105D01*
X12586950Y3164655D02*
X12691500Y3060105D01*
X12584963Y3164655D02*
X12586950D01*
X12399618Y3350000D02*
X12584963Y3164655D01*
X12391500Y3350000D02*
X12399618D01*
X12661900Y2910100D02*
X12691500Y2939700D01*
Y3724395D02*
Y4072500D01*
X12617105Y3650000D02*
X12691500Y3724395D01*
X12391500Y3650000D02*
X12617105D01*
X12661900Y4102100D02*
X12691500Y4072500D01*
X14639999Y2910100D02*
X14714394Y2984495D01*
Y3127107D01*
X14491499Y3350000D02*
X14714394Y3127107D01*
X12661900Y2910100D02*
X14639999D01*
X14671155Y4102100D02*
X14834895Y3938360D01*
Y3724395D02*
Y3938360D01*
X14760500Y3650000D02*
X14834895Y3724395D01*
X14491499Y3650000D02*
X14760500D01*
X12661900Y4102100D02*
X14671155D01*
X6091500Y3650000D02*
Y4084900D01*
X6108700Y4102100D01*
X3911600D02*
X6108700D01*
X8293100D01*
X10502900D01*
X12661900D01*
X6091500Y2914600D02*
Y3350000D01*
Y2914600D02*
X6096000Y2910100D01*
X4078324D02*
X6096000D01*
X10490200D02*
X12661900D01*
X8305800D02*
X10490200D01*
X6096000D02*
X8305800D01*
D12*
X14491499Y3650000D02*
D03*
X12391500D02*
D03*
X10291500D02*
D03*
X8191500D02*
D03*
X6091500D02*
D03*
X3991500D02*
D03*
D13*
X14491499Y3350000D02*
D03*
X14191499Y3650000D02*
D03*
Y3350000D02*
D03*
X12391500D02*
D03*
X12091500Y3650000D02*
D03*
Y3350000D02*
D03*
X10291500D02*
D03*
X9991500Y3650000D02*
D03*
Y3350000D02*
D03*
X8191500D02*
D03*
X7891500Y3650000D02*
D03*
Y3350000D02*
D03*
X6091500D02*
D03*
X5791500Y3650000D02*
D03*
Y3350000D02*
D03*
X3991500D02*
D03*
X3691500Y3650000D02*
D03*
Y3350000D02*
D03*
D14*
X14097501Y3050000D02*
D03*
Y3950000D02*
D03*
X11997500Y3050000D02*
D03*
Y3950000D02*
D03*
X9897500Y3050000D02*
D03*
Y3950000D02*
D03*
X7797500Y3050000D02*
D03*
Y3950000D02*
D03*
X5697500Y3050000D02*
D03*
Y3950000D02*
D03*
X3597500Y3050000D02*
D03*
Y3950000D02*
D03*
D15*
X3300000Y2800000D02*
D03*
D16*
X3554000D02*
D03*
X3808000D02*
D03*
X4062000D02*
D03*
%TF.MD5,ae13aecb59db5c3ff78dd6092fc01d2b*%
M02*
