%TF.GenerationSoftware,Altium Limited,Altium Designer,24.0.1 (36)*%
G04 Layer_Color=65535*
%FSLAX45Y45*%
%MOMM*%
%TF.SameCoordinates,9BE18756-9D8A-4005-A41C-0EF74CF4EEEB*%
%TF.FilePolarity,Positive*%
%TF.FileFunction,Legend,Top*%
%TF.Part,Single*%
G01*
G75*
%TA.AperFunction,NonConductor*%
%ADD17C,0.25000*%
%ADD18C,0.20000*%
%ADD19C,0.25400*%
D17*
X14503999Y4080000D02*
G03*
X14503999Y4080000I-12500J0D01*
G01*
X12404000D02*
G03*
X12404000Y4080000I-12500J0D01*
G01*
X10304000D02*
G03*
X10304000Y4080000I-12500J0D01*
G01*
X8204000D02*
G03*
X8204000Y4080000I-12500J0D01*
G01*
X6104000D02*
G03*
X6104000Y4080000I-12500J0D01*
G01*
X4004000D02*
G03*
X4004000Y4080000I-12500J0D01*
G01*
D18*
X13836501Y2980000D02*
Y4020000D01*
X14186000D02*
X14763499D01*
X13836501D02*
X14009000D01*
X14763499Y2980000D02*
Y4020000D01*
X14186000Y2980000D02*
X14763499D01*
X13836501D02*
X14009000D01*
X11736500D02*
Y4020000D01*
X12086000D02*
X12663500D01*
X11736500D02*
X11909000D01*
X12663500Y2980000D02*
Y4020000D01*
X12086000Y2980000D02*
X12663500D01*
X11736500D02*
X11909000D01*
X9636500D02*
Y4020000D01*
X9986000D02*
X10563500D01*
X9636500D02*
X9809000D01*
X10563500Y2980000D02*
Y4020000D01*
X9986000Y2980000D02*
X10563500D01*
X9636500D02*
X9809000D01*
X7536500D02*
Y4020000D01*
X7886000D02*
X8463500D01*
X7536500D02*
X7709000D01*
X8463500Y2980000D02*
Y4020000D01*
X7886000Y2980000D02*
X8463500D01*
X7536500D02*
X7709000D01*
X5436500D02*
Y4020000D01*
X5786000D02*
X6363500D01*
X5436500D02*
X5609000D01*
X6363500Y2980000D02*
Y4020000D01*
X5786000Y2980000D02*
X6363500D01*
X5436500D02*
X5609000D01*
X3336500D02*
Y4020000D01*
X3686000D02*
X4263500D01*
X3336500D02*
X3509000D01*
X4263500Y2980000D02*
Y4020000D01*
X3686000Y2980000D02*
X4263500D01*
X3336500D02*
X3509000D01*
D19*
X13587579Y3087217D02*
Y3036434D01*
Y3061825D01*
X13714539D01*
X13739931Y3036434D01*
Y3011042D01*
X13714539Y2985650D01*
X13587579Y3239568D02*
X13612971Y3188784D01*
X13663754Y3138001D01*
X13714539D01*
X13739931Y3163393D01*
Y3214176D01*
X13714539Y3239568D01*
X13689146D01*
X13663754Y3214176D01*
Y3138001D01*
X11487579Y3087217D02*
Y3036434D01*
Y3061825D01*
X11614538D01*
X11639930Y3036434D01*
Y3011042D01*
X11614538Y2985650D01*
X11487579Y3239568D02*
Y3138001D01*
X11563755D01*
X11538363Y3188784D01*
Y3214176D01*
X11563755Y3239568D01*
X11614538D01*
X11639930Y3214176D01*
Y3163393D01*
X11614538Y3138001D01*
X9387579Y3087217D02*
Y3036434D01*
Y3061825D01*
X9514538D01*
X9539930Y3036434D01*
Y3011042D01*
X9514538Y2985650D01*
X9539930Y3214176D02*
X9387579D01*
X9463755Y3138001D01*
Y3239568D01*
X7287579Y3087217D02*
Y3036434D01*
Y3061825D01*
X7414538D01*
X7439930Y3036434D01*
Y3011042D01*
X7414538Y2985650D01*
X7312971Y3138001D02*
X7287579Y3163393D01*
Y3214176D01*
X7312971Y3239568D01*
X7338363D01*
X7363755Y3214176D01*
Y3188784D01*
Y3214176D01*
X7389147Y3239568D01*
X7414538D01*
X7439930Y3214176D01*
Y3163393D01*
X7414538Y3138001D01*
X5187579Y3087217D02*
Y3036434D01*
Y3061825D01*
X5314538D01*
X5339930Y3036434D01*
Y3011042D01*
X5314538Y2985650D01*
X5339930Y3239568D02*
Y3138001D01*
X5238363Y3239568D01*
X5212971D01*
X5187579Y3214176D01*
Y3163393D01*
X5212971Y3138001D01*
X3087579Y3087217D02*
Y3036434D01*
Y3061825D01*
X3214538D01*
X3239930Y3036434D01*
Y3011042D01*
X3214538Y2985650D01*
X3239930Y3138001D02*
Y3188784D01*
Y3163393D01*
X3087579D01*
X3112971Y3138001D01*
%TF.MD5,ba9d9bf631a79f2028ced080e48278ec*%
M02*
