%TF.GenerationSoftware,Altium Limited,Altium Designer,24.0.1 (36)*%
G04 Layer_Color=32896*
%FSLAX45Y45*%
%MOMM*%
%TF.SameCoordinates,9BE18756-9D8A-4005-A41C-0EF74CF4EEEB*%
%TF.FilePolarity,Positive*%
%TF.FileFunction,Legend,Bot*%
%TF.Part,Single*%
G01*
G75*
%TA.AperFunction,NonConductor*%
%ADD18C,0.20000*%
%ADD19C,0.25400*%
D18*
X4189000Y2673000D02*
Y2927000D01*
X3173000D02*
X4189000D01*
X3173000Y2673000D02*
X4189000D01*
X3173000D02*
Y2927000D01*
X14095361Y4363480D02*
X14116521Y4384639D01*
X14158839D01*
X14180000Y4363480D01*
Y4278840D01*
X14158839Y4257681D01*
X14116521D01*
X14095361Y4278840D01*
X14053041Y4257681D02*
Y4342320D01*
X14010722Y4384639D01*
X13968402Y4342320D01*
Y4257681D01*
Y4321160D01*
X14053041D01*
X13926082Y4257681D02*
Y4384639D01*
X13841443Y4257681D01*
Y4384639D01*
X13672165D02*
Y4257681D01*
X13608685D01*
X13587524Y4278840D01*
Y4363480D01*
X13608685Y4384639D01*
X13672165D01*
X13524046Y4342320D02*
X13481726D01*
X13460567Y4321160D01*
Y4257681D01*
X13524046D01*
X13545206Y4278840D01*
X13524046Y4300000D01*
X13460567D01*
X13418246Y4342320D02*
Y4278840D01*
X13397087Y4257681D01*
X13333607D01*
Y4342320D01*
X13248969Y4215361D02*
X13227809D01*
X13206648Y4236521D01*
Y4342320D01*
X13270128D01*
X13291289Y4321160D01*
Y4278840D01*
X13270128Y4257681D01*
X13206648D01*
X13164330Y4384639D02*
Y4257681D01*
Y4321160D01*
X13143170Y4342320D01*
X13100850D01*
X13079691Y4321160D01*
Y4257681D01*
X13016211Y4363480D02*
Y4342320D01*
X13037370D01*
X12995052D01*
X13016211D01*
Y4278840D01*
X12995052Y4257681D01*
X12868092D02*
X12910413D01*
X12931570Y4278840D01*
Y4321160D01*
X12910413Y4342320D01*
X12868092D01*
X12846931Y4321160D01*
Y4300000D01*
X12931570D01*
X12804613Y4342320D02*
Y4257681D01*
Y4300000D01*
X12783453Y4321160D01*
X12762293Y4342320D01*
X12741133D01*
X12677654Y4384639D02*
Y4257681D01*
X12614174D01*
X12593014Y4278840D01*
Y4300000D01*
Y4321160D01*
X12614174Y4342320D01*
X12677654D01*
X12529535Y4257681D02*
X12487215D01*
X12466055Y4278840D01*
Y4321160D01*
X12487215Y4342320D01*
X12529535D01*
X12550695Y4321160D01*
Y4278840D01*
X12529535Y4257681D01*
X12402576Y4342320D02*
X12360256D01*
X12339096Y4321160D01*
Y4257681D01*
X12402576D01*
X12423736Y4278840D01*
X12402576Y4300000D01*
X12339096D01*
X12296777Y4342320D02*
Y4257681D01*
Y4300000D01*
X12275617Y4321160D01*
X12254457Y4342320D01*
X12233298D01*
X12085179Y4384639D02*
Y4257681D01*
X12148658D01*
X12169818Y4278840D01*
Y4321160D01*
X12148658Y4342320D01*
X12085179D01*
X13480000Y2636521D02*
Y2763479D01*
X13437680Y2721160D01*
X13395361Y2763479D01*
Y2636521D01*
X13268402Y2742320D02*
X13289561Y2763479D01*
X13331882D01*
X13353041Y2742320D01*
Y2657680D01*
X13331882Y2636521D01*
X13289561D01*
X13268402Y2657680D01*
Y2700000D01*
X13310721D01*
X13014484Y2636521D02*
X13099123D01*
X13014484Y2721160D01*
Y2742320D01*
X13035645Y2763479D01*
X13077963D01*
X13099123Y2742320D01*
X12972165D02*
X12951006Y2763479D01*
X12908685D01*
X12887524Y2742320D01*
Y2657680D01*
X12908685Y2636521D01*
X12951006D01*
X12972165Y2657680D01*
Y2742320D01*
X12760566Y2636521D02*
X12845206D01*
X12760566Y2721160D01*
Y2742320D01*
X12781726Y2763479D01*
X12824046D01*
X12845206Y2742320D01*
X12718247D02*
X12697087Y2763479D01*
X12654767D01*
X12633607Y2742320D01*
Y2721160D01*
X12654767Y2700000D01*
X12675927D01*
X12654767D01*
X12633607Y2678840D01*
Y2657680D01*
X12654767Y2636521D01*
X12697087D01*
X12718247Y2657680D01*
D19*
X4274090Y2689510D02*
X4426441D01*
Y2765685D01*
X4401049Y2791077D01*
X4350265D01*
X4324873Y2765685D01*
Y2689510D01*
X4274090Y2841861D02*
Y2892644D01*
Y2867253D01*
X4426441D01*
X4401049Y2841861D01*
%TF.MD5,ba669e2156fbd5127144e6dd3ceb088c*%
M02*
