%TF.GenerationSoftware,Altium Limited,Altium Designer,24.2.2 (26)*%
G04 Layer_Color=65535*
%FSLAX45Y45*%
%MOMM*%
%TF.SameCoordinates,E0A11F65-F641-4799-B4C3-4BD4810D80D2*%
%TF.FilePolarity,Positive*%
%TF.FileFunction,Legend,Top*%
%TF.Part,Single*%
G01*
G75*
%TA.AperFunction,NonConductor*%
%ADD61C,0.25000*%
%ADD62C,0.10000*%
%ADD63C,0.15000*%
%ADD64C,0.20000*%
G36*
X8956974Y10519602D02*
X8763026D01*
Y10905399D01*
X8956974D01*
Y10519602D01*
D02*
G37*
G36*
X8956974Y10991703D02*
X8763026D01*
Y11443297D01*
X8956974D01*
Y10991703D01*
D02*
G37*
G36*
Y9830282D02*
X8763026D01*
Y10494718D01*
X8956974D01*
Y9830282D01*
D02*
G37*
G36*
X8956975Y11514203D02*
X8763026D01*
Y11965796D01*
X8956975D01*
Y11514203D01*
D02*
G37*
G36*
X4626449Y11858750D02*
X4393552D01*
Y12656250D01*
X4626449D01*
Y11858750D01*
D02*
G37*
G36*
X6407161Y11273027D02*
X4592839D01*
Y11566973D01*
X6407161D01*
Y11273027D01*
D02*
G37*
G36*
X7526448Y12176875D02*
X7293551D01*
Y12603125D01*
X7526448D01*
Y12176875D01*
D02*
G37*
%LPC*%
G36*
X8925229Y10885115D02*
X8794944D01*
X8798587D01*
X8798067Y10884942D01*
X8797720Y10884768D01*
X8797546Y10884595D01*
X8797026Y10884074D01*
X8796505Y10883380D01*
X8796332Y10882860D01*
X8796158Y10882686D01*
X8795638Y10881645D01*
X8795465Y10880431D01*
X8795291Y10879564D01*
Y10879217D01*
X8795118Y10877308D01*
X8794944Y10875574D01*
Y10778424D01*
D01*
Y10871063D01*
X8795118Y10869155D01*
Y10868461D01*
X8795291Y10867940D01*
Y10867593D01*
X8795465Y10866032D01*
X8795811Y10864818D01*
X8795985Y10864124D01*
X8796158Y10863777D01*
X8796505Y10862909D01*
X8797026Y10862389D01*
X8797373Y10862042D01*
X8797546Y10861869D01*
X8798067Y10861522D01*
X8798587Y10861348D01*
X8799108D01*
X8799281D01*
X8860000D01*
X8865204D01*
X8867633D01*
X8869888D01*
X8871797D01*
X8873184D01*
X8874225D01*
X8874399D01*
X8874572D01*
X8877348D01*
X8879950Y10861522D01*
X8882379D01*
X8884634Y10861695D01*
X8886369D01*
X8887757Y10861869D01*
X8888624D01*
X8888971D01*
Y10861695D01*
X8886022Y10860481D01*
X8884634Y10859787D01*
X8883420Y10859266D01*
X8882379Y10858746D01*
X8881685Y10858399D01*
X8881165Y10858225D01*
X8880991Y10858052D01*
X8878042Y10856664D01*
X8876654Y10855970D01*
X8875440Y10855276D01*
X8874399Y10854756D01*
X8873531Y10854409D01*
X8873011Y10854235D01*
X8872837Y10854062D01*
X8869715Y10852674D01*
X8868500Y10851980D01*
X8867113Y10851286D01*
X8866245Y10850766D01*
X8865378Y10850419D01*
X8864857Y10850245D01*
X8864684Y10850072D01*
X8861561Y10848510D01*
X8860173Y10847817D01*
X8858785Y10847123D01*
X8857745Y10846602D01*
X8856877Y10846082D01*
X8856357Y10845908D01*
X8856183Y10845735D01*
X8808823Y10820580D01*
X8806220Y10819365D01*
X8805179Y10818672D01*
X8804139Y10818151D01*
X8803445Y10817631D01*
X8802924Y10817284D01*
X8802577Y10817110D01*
X8802404Y10816937D01*
X8800495Y10815549D01*
X8799281Y10814334D01*
X8798414Y10813467D01*
X8798240Y10813294D01*
Y10813120D01*
X8797199Y10811559D01*
X8796505Y10809997D01*
X8796158Y10808957D01*
X8795985Y10808610D01*
Y10808436D01*
X8795638Y10806354D01*
X8795291Y10804273D01*
Y10787792D01*
X8795465Y10786404D01*
X8795638Y10785016D01*
X8795985Y10783975D01*
X8796505Y10782934D01*
X8797026Y10782067D01*
X8797373Y10781546D01*
X8797546Y10781199D01*
X8797720Y10781026D01*
X8798761Y10780159D01*
X8799802Y10779465D01*
X8801016Y10779118D01*
X8802230Y10778771D01*
X8803271Y10778597D01*
X8804139Y10778424D01*
X8794944D01*
X8921065D01*
X8922280Y10778597D01*
X8922627Y10778771D01*
X8922800D01*
X8923321Y10779291D01*
X8923841Y10779812D01*
X8924015Y10780332D01*
X8924188Y10780505D01*
X8924535Y10781720D01*
X8924709Y10782934D01*
X8924882Y10783802D01*
Y10784149D01*
X8925056Y10786057D01*
X8925229Y10787965D01*
Y10795945D01*
Y10792476D01*
X8925056Y10794384D01*
Y10795078D01*
X8924882Y10795598D01*
Y10795945D01*
X8924709Y10797507D01*
X8924535Y10798721D01*
X8924188Y10799415D01*
Y10799589D01*
X8923668Y10800456D01*
X8923321Y10801150D01*
X8922974Y10801323D01*
X8922800Y10801497D01*
X8922106Y10801844D01*
X8921586Y10802191D01*
X8921239D01*
X8921065D01*
X8853407D01*
X8850632D01*
X8847856D01*
X8845427D01*
X8843172D01*
X8841264Y10802017D01*
X8839876D01*
X8839008D01*
X8838662D01*
X8833457Y10801844D01*
X8831028Y10801670D01*
X8828773D01*
X8826865Y10801497D01*
X8825477D01*
X8824609Y10801323D01*
X8824263D01*
Y10801670D01*
X8828600Y10803405D01*
X8830681Y10804273D01*
X8832590Y10804966D01*
X8834151Y10805660D01*
X8835365Y10806181D01*
X8836059Y10806528D01*
X8836406Y10806701D01*
X8838662Y10807742D01*
X8840917Y10808783D01*
X8842825Y10809824D01*
X8844560Y10810691D01*
X8846121Y10811385D01*
X8847162Y10811906D01*
X8848030Y10812253D01*
X8848203Y10812426D01*
X8908575Y10844520D01*
X8910310Y10845388D01*
X8912044Y10846255D01*
X8913432Y10846949D01*
X8914473Y10847643D01*
X8915514Y10848163D01*
X8916208Y10848510D01*
X8916555Y10848857D01*
X8916728D01*
X8918810Y10850419D01*
X8920372Y10851807D01*
X8921412Y10852674D01*
X8921586Y10852847D01*
X8921759Y10853021D01*
X8922800Y10854756D01*
X8923668Y10856144D01*
X8924015Y10857358D01*
X8924188Y10857531D01*
Y10857705D01*
X8924535Y10859787D01*
X8924709Y10861869D01*
X8924882Y10862736D01*
Y10875053D01*
X8924709Y10876441D01*
X8924535Y10877655D01*
X8924362Y10878523D01*
Y10878870D01*
X8923841Y10880084D01*
X8923321Y10881125D01*
X8922800Y10881819D01*
X8922627Y10881992D01*
X8921586Y10882860D01*
X8920719Y10883727D01*
X8920025Y10884074D01*
X8919678Y10884248D01*
X8918290Y10884768D01*
X8916902Y10884942D01*
X8915861Y10885115D01*
X8925229D01*
D01*
D02*
G37*
G36*
Y10761596D02*
X8794771D01*
X8920719D01*
X8918810Y10761249D01*
X8917075Y10760902D01*
X8916208Y10760555D01*
X8915514Y10760382D01*
X8915167Y10760208D01*
X8914994D01*
X8800322Y10720307D01*
X8799108Y10719787D01*
X8798067Y10719266D01*
X8797546Y10718919D01*
X8797373Y10718746D01*
X8796679Y10718052D01*
X8796158Y10717185D01*
X8795985Y10716317D01*
X8795811Y10716144D01*
Y10715970D01*
X8795291Y10714409D01*
X8795118Y10712501D01*
X8794944Y10711807D01*
Y10709204D01*
X8794771Y10707643D01*
Y10642761D01*
Y10695152D01*
X8794944Y10694111D01*
Y10692897D01*
X8795118Y10690815D01*
X8795465Y10689427D01*
X8795638Y10688387D01*
X8795811Y10688213D01*
Y10688040D01*
X8796332Y10686825D01*
X8796852Y10686131D01*
X8797199Y10685611D01*
X8797373Y10685437D01*
X8798240Y10684917D01*
X8799108Y10684570D01*
X8799628Y10684396D01*
X8799975Y10684223D01*
X8914647Y10644322D01*
X8917075Y10643628D01*
X8918810Y10643108D01*
X8919504Y10642934D01*
X8920025Y10642761D01*
X8921759D01*
X8922800Y10643108D01*
X8923494Y10643281D01*
X8923668Y10643455D01*
X8924362Y10644496D01*
X8924709Y10645710D01*
X8924882Y10646751D01*
Y10647098D01*
X8925056Y10648139D01*
Y10649353D01*
X8925229Y10651782D01*
Y10643628D01*
Y10657160D01*
X8925056Y10658374D01*
Y10660109D01*
X8924882Y10660629D01*
Y10661150D01*
X8924709Y10663058D01*
X8924535Y10664273D01*
X8924362Y10665140D01*
Y10665313D01*
X8923841Y10666354D01*
X8923494Y10666875D01*
X8923147Y10667222D01*
X8922974Y10667395D01*
X8922106Y10667916D01*
X8921412Y10668263D01*
X8920719Y10668436D01*
X8920545D01*
X8895217Y10676590D01*
Y10725338D01*
X8921239Y10733839D01*
X8922106Y10734186D01*
X8922800Y10734533D01*
X8923147Y10734880D01*
X8923321D01*
X8923841Y10735574D01*
X8924188Y10736268D01*
X8924535Y10736788D01*
Y10736962D01*
X8924709Y10738349D01*
X8924882Y10739737D01*
X8925056Y10740778D01*
Y10742513D01*
X8925229Y10743727D01*
Y10752575D01*
X8925056Y10753789D01*
Y10755698D01*
X8924882Y10756391D01*
Y10756912D01*
X8924709Y10757953D01*
Y10758820D01*
X8924362Y10760035D01*
X8924015Y10760729D01*
X8923841Y10760902D01*
X8922974Y10761422D01*
X8921933Y10761596D01*
X8925229D01*
D01*
D02*
G37*
G36*
X8926790Y10635475D02*
X8793209D01*
D01*
X8902850D01*
X8900942Y10635301D01*
X8900421D01*
X8899901Y10635128D01*
X8899727D01*
X8899554D01*
X8897992Y10634954D01*
X8896951Y10634781D01*
X8896258Y10634607D01*
X8896084D01*
X8895390Y10634260D01*
X8894870Y10633913D01*
X8894523Y10633740D01*
Y10633566D01*
X8894176Y10633046D01*
X8894002Y10632525D01*
Y10632005D01*
X8894349Y10630791D01*
X8894870Y10629576D01*
X8895390Y10628535D01*
X8895737Y10628362D01*
Y10628188D01*
X8896951Y10626280D01*
X8898166Y10624372D01*
X8898686Y10623504D01*
X8899033Y10622984D01*
X8899207Y10622463D01*
X8899380Y10622290D01*
X8900768Y10619341D01*
X8901982Y10616565D01*
X8902329Y10615351D01*
X8902676Y10614483D01*
X8903023Y10613789D01*
Y10613616D01*
X8903544Y10611708D01*
X8903891Y10609626D01*
X8904238Y10607544D01*
X8904411Y10605809D01*
Y10604074D01*
X8904585Y10602860D01*
Y10601646D01*
X8904411Y10598870D01*
X8904238Y10596268D01*
X8903717Y10593839D01*
X8903197Y10591757D01*
X8902850Y10590022D01*
X8902329Y10588808D01*
X8902156Y10588114D01*
X8901982Y10587767D01*
X8900942Y10585512D01*
X8899554Y10583603D01*
X8898339Y10581869D01*
X8896951Y10580307D01*
X8895911Y10579093D01*
X8894870Y10578052D01*
X8894176Y10577532D01*
X8894002Y10577358D01*
X8891920Y10575797D01*
X8889665Y10574409D01*
X8887236Y10573368D01*
X8885155Y10572327D01*
X8883246Y10571633D01*
X8881685Y10571113D01*
X8880644Y10570766D01*
X8880471Y10570592D01*
X8880297D01*
X8877001Y10569898D01*
X8873531Y10569378D01*
X8870235Y10568857D01*
X8867113Y10568684D01*
X8864337Y10568510D01*
X8863296Y10568337D01*
X8862255D01*
X8861388D01*
X8860867D01*
X8860520D01*
X8860347D01*
X8856530Y10568510D01*
X8853061Y10568684D01*
X8849764Y10569031D01*
X8846989Y10569378D01*
X8844733Y10569725D01*
X8842999Y10570072D01*
X8842478Y10570245D01*
X8841958Y10570419D01*
X8841784D01*
X8841611D01*
X8838662Y10571286D01*
X8835886Y10572327D01*
X8833457Y10573368D01*
X8831375Y10574409D01*
X8829814Y10575450D01*
X8828600Y10576144D01*
X8827732Y10576664D01*
X8827559Y10576838D01*
X8825477Y10578572D01*
X8823569Y10580307D01*
X8822181Y10582042D01*
X8820793Y10583603D01*
X8819752Y10584991D01*
X8819058Y10586032D01*
X8818711Y10586900D01*
X8818538Y10587073D01*
X8817497Y10589502D01*
X8816629Y10591757D01*
X8816109Y10594186D01*
X8815588Y10596268D01*
X8815415Y10598176D01*
X8815241Y10599564D01*
Y10603380D01*
X8815588Y10605809D01*
X8815762Y10607717D01*
X8816109Y10609626D01*
X8816456Y10611014D01*
X8816803Y10612054D01*
X8816976Y10612748D01*
X8817150Y10612922D01*
X8817844Y10614830D01*
X8818538Y10616392D01*
X8819058Y10617953D01*
X8819752Y10619167D01*
X8820272Y10620208D01*
X8820619Y10620902D01*
X8820793Y10621422D01*
X8820966Y10621596D01*
X8822354Y10624025D01*
X8823569Y10625933D01*
X8824089Y10626627D01*
X8824436Y10627147D01*
X8824783Y10627321D01*
Y10627494D01*
X8825824Y10629056D01*
X8826344Y10630270D01*
X8826518Y10631137D01*
Y10631311D01*
X8826344Y10632005D01*
X8826171Y10632352D01*
X8825997Y10632699D01*
Y10632872D01*
X8825477Y10633393D01*
X8824956Y10633740D01*
X8824436Y10634087D01*
X8824263D01*
X8823048Y10634434D01*
X8822007Y10634607D01*
X8821140Y10634781D01*
X8820793D01*
X8819058Y10634954D01*
X8817323Y10635128D01*
X8816629D01*
X8816109D01*
X8815762D01*
X8815588D01*
X8813680D01*
X8812119D01*
X8811251Y10634954D01*
X8810904D01*
X8809517Y10634781D01*
X8808476Y10634607D01*
X8807782Y10634434D01*
X8807608D01*
X8806741Y10634087D01*
X8805873Y10633913D01*
X8805526Y10633740D01*
X8805353Y10633566D01*
X8804486Y10633219D01*
X8803792Y10632525D01*
X8803271Y10632005D01*
X8803098Y10631831D01*
X8802577Y10631311D01*
X8802057Y10630444D01*
X8800842Y10628882D01*
X8800495Y10628188D01*
X8800149Y10627494D01*
X8799802Y10627147D01*
Y10626974D01*
X8798414Y10624372D01*
X8797373Y10621943D01*
X8797026Y10620902D01*
X8796679Y10620035D01*
X8796505Y10619514D01*
Y10619341D01*
X8795638Y10616218D01*
X8795118Y10614657D01*
X8794771Y10613269D01*
X8794597Y10611881D01*
X8794424Y10611014D01*
X8794250Y10610320D01*
Y10610146D01*
X8793556Y10606330D01*
X8793383Y10604595D01*
Y10603033D01*
X8793209Y10601646D01*
Y10599737D01*
X8793383Y10594880D01*
X8793903Y10590369D01*
X8794597Y10586206D01*
X8795465Y10582736D01*
X8795811Y10581001D01*
X8796332Y10579613D01*
X8796679Y10578399D01*
X8797026Y10577358D01*
X8797373Y10576491D01*
X8797546Y10575970D01*
X8797720Y10575623D01*
Y10575450D01*
X8799628Y10571460D01*
X8801710Y10567817D01*
X8803965Y10564520D01*
X8806047Y10561745D01*
X8807955Y10559489D01*
X8809690Y10557755D01*
X8810731Y10556714D01*
X8810904Y10556540D01*
X8811078Y10556367D01*
X8814548Y10553591D01*
X8818017Y10551162D01*
X8821660Y10549081D01*
X8825130Y10547346D01*
X8828079Y10545958D01*
X8829293Y10545437D01*
X8830508Y10545090D01*
X8831375Y10544743D01*
X8832069Y10544396D01*
X8832416Y10544223D01*
X8832590D01*
X8837447Y10542835D01*
X8842478Y10541794D01*
X8847336Y10540927D01*
X8851846Y10540406D01*
X8853928Y10540233D01*
X8855836Y10540059D01*
X8857571D01*
X8858959Y10539886D01*
X8861735D01*
X8867633Y10540059D01*
X8873011Y10540580D01*
X8877868Y10541100D01*
X8880124Y10541447D01*
X8882032Y10541968D01*
X8883940Y10542315D01*
X8885502Y10542662D01*
X8886890Y10543009D01*
X8888104Y10543182D01*
X8888971Y10543529D01*
X8889665Y10543703D01*
X8890012Y10543876D01*
X8890186D01*
X8894523Y10545437D01*
X8898513Y10547346D01*
X8901982Y10549254D01*
X8904932Y10551162D01*
X8907187Y10552724D01*
X8909095Y10554111D01*
X8909616Y10554632D01*
X8910136Y10554979D01*
X8910310Y10555326D01*
X8910483D01*
X8913432Y10558275D01*
X8915861Y10561224D01*
X8917943Y10564347D01*
X8919678Y10567123D01*
X8921065Y10569551D01*
X8921933Y10571633D01*
X8922280Y10572327D01*
X8922627Y10572848D01*
X8922800Y10573194D01*
Y10573368D01*
X8924188Y10577532D01*
X8925056Y10581695D01*
X8925749Y10585685D01*
X8926270Y10589502D01*
X8926617Y10592624D01*
Y10594012D01*
X8926790Y10595227D01*
Y10549254D01*
Y10599911D01*
X8926617Y10602339D01*
X8926443Y10604421D01*
X8926270Y10606330D01*
X8926096Y10607891D01*
X8925923Y10608932D01*
X8925749Y10609799D01*
Y10609973D01*
X8925403Y10612054D01*
X8924882Y10614136D01*
X8924535Y10615871D01*
X8924015Y10617432D01*
X8923668Y10618647D01*
X8923321Y10619514D01*
X8923147Y10620208D01*
Y10620382D01*
X8922453Y10622116D01*
X8921933Y10623504D01*
X8921239Y10624892D01*
X8920719Y10626107D01*
X8920372Y10626974D01*
X8920025Y10627668D01*
X8919678Y10628015D01*
Y10628188D01*
X8918984Y10629229D01*
X8918463Y10630097D01*
X8917422Y10631484D01*
X8916728Y10632178D01*
X8916555Y10632352D01*
X8915688Y10633046D01*
X8914994Y10633566D01*
X8914647Y10633913D01*
X8914473D01*
X8913085Y10634607D01*
X8912565Y10634781D01*
X8912391D01*
X8911350Y10634954D01*
X8910483Y10635128D01*
X8909789Y10635301D01*
X8909442D01*
X8908054Y10635475D01*
X8926790D01*
D02*
G37*
%LPD*%
G36*
X8875093Y10682488D02*
X8820099Y10700704D01*
Y10700877D01*
X8875093Y10719093D01*
Y10682488D01*
D02*
G37*
%LPC*%
G36*
X8926964Y11431144D02*
D01*
Y11383609D01*
X8926791Y11388293D01*
X8926270Y11392631D01*
X8925403Y11396274D01*
X8924536Y11399570D01*
X8923842Y11402172D01*
X8923321Y11403213D01*
X8922974Y11404080D01*
X8922627Y11404774D01*
X8922454Y11405295D01*
X8922280Y11405468D01*
Y11405642D01*
X8920372Y11408938D01*
X8918290Y11411887D01*
X8916035Y11414316D01*
X8913780Y11416398D01*
X8911871Y11418132D01*
X8910310Y11419347D01*
X8909269Y11420214D01*
X8909096Y11420388D01*
X8908922D01*
X8905453Y11422469D01*
X8901809Y11424031D01*
X8898340Y11425419D01*
X8894870Y11426633D01*
X8891921Y11427500D01*
X8890707Y11427847D01*
X8889666Y11428021D01*
X8888798Y11428368D01*
X8888104D01*
X8887757Y11428541D01*
X8887584D01*
X8882726Y11429409D01*
X8877869Y11430103D01*
X8873185Y11430450D01*
X8868848Y11430797D01*
X8866940Y11430970D01*
X8865205D01*
X8863643Y11431144D01*
X8926964D01*
X8793036D01*
D01*
X8853928D01*
X8848724Y11430797D01*
X8843866Y11430450D01*
X8841785Y11430276D01*
X8839876Y11430103D01*
X8837968Y11429929D01*
X8836407Y11429756D01*
X8835019Y11429582D01*
X8833805Y11429409D01*
X8832937Y11429235D01*
X8832243D01*
X8831896Y11429062D01*
X8831723D01*
X8827212Y11428194D01*
X8823222Y11427153D01*
X8819579Y11425939D01*
X8816456Y11424725D01*
X8814028Y11423684D01*
X8812293Y11422816D01*
X8811599Y11422469D01*
X8811078Y11422122D01*
X8810905Y11421949D01*
X8810731D01*
X8807782Y11419867D01*
X8805180Y11417612D01*
X8802925Y11415357D01*
X8801016Y11413101D01*
X8799629Y11411193D01*
X8798588Y11409458D01*
X8797894Y11408417D01*
X8797720Y11408244D01*
Y11408070D01*
X8796159Y11404601D01*
X8794945Y11400958D01*
X8794251Y11397315D01*
X8793557Y11393845D01*
X8793210Y11390722D01*
Y11389334D01*
X8793036Y11388293D01*
Y11338678D01*
Y11386038D01*
X8793210Y11381354D01*
X8793730Y11377191D01*
X8794598Y11373374D01*
X8795465Y11370078D01*
X8796332Y11367476D01*
X8796679Y11366435D01*
X8797200Y11365567D01*
X8797373Y11364873D01*
X8797720Y11364353D01*
X8797894Y11364179D01*
Y11364006D01*
X8799802Y11360710D01*
X8802057Y11357934D01*
X8804313Y11355332D01*
X8806394Y11353250D01*
X8808303Y11351515D01*
X8810037Y11350301D01*
X8811078Y11349607D01*
X8811252Y11349260D01*
X8811425D01*
X8814895Y11347352D01*
X8818365Y11345617D01*
X8822008Y11344229D01*
X8825304Y11343188D01*
X8828253Y11342147D01*
X8829641Y11341800D01*
X8830682Y11341627D01*
X8831549Y11341453D01*
X8832243Y11341280D01*
X8832590Y11341106D01*
X8832764D01*
X8837621Y11340239D01*
X8842305Y11339718D01*
X8846989Y11339198D01*
X8851326Y11339025D01*
X8853235Y11338851D01*
X8854969D01*
X8856531Y11338678D01*
X8860521D01*
X8866246Y11338851D01*
X8871450Y11339025D01*
X8876308Y11339372D01*
X8878389Y11339545D01*
X8880471Y11339718D01*
X8882206Y11339892D01*
X8883767Y11340065D01*
X8885329D01*
X8886370Y11340239D01*
X8887410Y11340412D01*
X8888104Y11340586D01*
X8888451D01*
X8888625D01*
X8893135Y11341453D01*
X8897125Y11342668D01*
X8900595Y11343709D01*
X8903718Y11344923D01*
X8906147Y11345964D01*
X8907881Y11346831D01*
X8908575Y11347178D01*
X8909096Y11347525D01*
X8909269Y11347699D01*
X8909443D01*
X8912392Y11349780D01*
X8914994Y11352036D01*
X8917249Y11354464D01*
X8919158Y11356546D01*
X8920546Y11358628D01*
X8921586Y11360189D01*
X8922280Y11361230D01*
X8922454Y11361404D01*
Y11361577D01*
X8924015Y11365047D01*
X8925056Y11368690D01*
X8925923Y11372333D01*
X8926444Y11375803D01*
X8926791Y11378925D01*
Y11380313D01*
X8926964Y11381354D01*
Y11343188D01*
Y11431144D01*
D02*
G37*
G36*
X8926791Y11328095D02*
D01*
Y11292531D01*
X8926617Y11294960D01*
X8926444Y11297042D01*
X8926270Y11298950D01*
X8926097Y11300512D01*
X8925923Y11301552D01*
X8925750Y11302420D01*
Y11302593D01*
X8925403Y11304675D01*
X8924883Y11306757D01*
X8924536Y11308492D01*
X8924015Y11310053D01*
X8923668Y11311267D01*
X8923321Y11312135D01*
X8923148Y11312829D01*
Y11313002D01*
X8922454Y11314737D01*
X8921933Y11316125D01*
X8921239Y11317513D01*
X8920719Y11318727D01*
X8920372Y11319595D01*
X8920025Y11320289D01*
X8919678Y11320635D01*
Y11320809D01*
X8918984Y11321850D01*
X8918464Y11322717D01*
X8917423Y11324105D01*
X8916729Y11324799D01*
X8916555Y11324973D01*
X8915688Y11325666D01*
X8914994Y11326187D01*
X8914647Y11326534D01*
X8914474D01*
X8913086Y11327228D01*
X8912565Y11327401D01*
X8912392D01*
X8911351Y11327575D01*
X8910484Y11327748D01*
X8909790Y11327922D01*
X8909443D01*
X8908055Y11328095D01*
X8926791D01*
X8793210D01*
D01*
X8902850D01*
X8900942Y11327922D01*
X8900422D01*
X8899901Y11327748D01*
X8899728D01*
X8899554D01*
X8897993Y11327575D01*
X8896952Y11327401D01*
X8896258Y11327228D01*
X8896085D01*
X8895391Y11326881D01*
X8894870Y11326534D01*
X8894523Y11326360D01*
Y11326187D01*
X8894176Y11325666D01*
X8894003Y11325146D01*
Y11324626D01*
X8894350Y11323411D01*
X8894870Y11322197D01*
X8895391Y11321156D01*
X8895738Y11320982D01*
Y11320809D01*
X8896952Y11318901D01*
X8898166Y11316992D01*
X8898687Y11316125D01*
X8899034Y11315604D01*
X8899207Y11315084D01*
X8899381Y11314911D01*
X8900769Y11311961D01*
X8901983Y11309186D01*
X8902330Y11307971D01*
X8902677Y11307104D01*
X8903024Y11306410D01*
Y11306236D01*
X8903544Y11304328D01*
X8903891Y11302246D01*
X8904238Y11300165D01*
X8904412Y11298430D01*
Y11296695D01*
X8904585Y11295481D01*
Y11294266D01*
X8904412Y11291490D01*
X8904238Y11288888D01*
X8903718Y11286460D01*
X8903197Y11284378D01*
X8902850Y11282643D01*
X8902330Y11281429D01*
X8902156Y11280735D01*
X8901983Y11280388D01*
X8900942Y11278132D01*
X8899554Y11276224D01*
X8898340Y11274489D01*
X8896952Y11272928D01*
X8895911Y11271714D01*
X8894870Y11270673D01*
X8894176Y11270152D01*
X8894003Y11269979D01*
X8891921Y11268417D01*
X8889666Y11267030D01*
X8887237Y11265989D01*
X8885155Y11264948D01*
X8883247Y11264254D01*
X8881686Y11263733D01*
X8880645Y11263386D01*
X8880471Y11263213D01*
X8880298D01*
X8877002Y11262519D01*
X8873532Y11261999D01*
X8870236Y11261478D01*
X8867113Y11261305D01*
X8864337Y11261131D01*
X8863296Y11260958D01*
X8862256D01*
X8861388D01*
X8860868D01*
X8860521D01*
X8860347D01*
X8856531Y11261131D01*
X8853061Y11261305D01*
X8849765Y11261652D01*
X8846989Y11261999D01*
X8844734Y11262346D01*
X8842999Y11262692D01*
X8842479Y11262866D01*
X8841958Y11263039D01*
X8841785D01*
X8841611D01*
X8838662Y11263907D01*
X8835886Y11264948D01*
X8833458Y11265989D01*
X8831376Y11267030D01*
X8829814Y11268070D01*
X8828600Y11268764D01*
X8827733Y11269285D01*
X8827559Y11269458D01*
X8825477Y11271193D01*
X8823569Y11272928D01*
X8822181Y11274663D01*
X8820793Y11276224D01*
X8819752Y11277612D01*
X8819059Y11278653D01*
X8818712Y11279520D01*
X8818538Y11279694D01*
X8817497Y11282122D01*
X8816630Y11284378D01*
X8816109Y11286806D01*
X8815589Y11288888D01*
X8815415Y11290797D01*
X8815242Y11292184D01*
Y11296001D01*
X8815589Y11298430D01*
X8815762Y11300338D01*
X8816109Y11302246D01*
X8816456Y11303634D01*
X8816803Y11304675D01*
X8816977Y11305369D01*
X8817150Y11305543D01*
X8817844Y11307451D01*
X8818538Y11309012D01*
X8819059Y11310574D01*
X8819752Y11311788D01*
X8820273Y11312829D01*
X8820620Y11313523D01*
X8820793Y11314043D01*
X8820967Y11314217D01*
X8822355Y11316645D01*
X8823569Y11318554D01*
X8824090Y11319248D01*
X8824437Y11319768D01*
X8824783Y11319942D01*
Y11320115D01*
X8825824Y11321676D01*
X8826345Y11322891D01*
X8826518Y11323758D01*
Y11323932D01*
X8826345Y11324626D01*
X8826171Y11324973D01*
X8825998Y11325319D01*
Y11325493D01*
X8825477Y11326013D01*
X8824957Y11326360D01*
X8824437Y11326707D01*
X8824263D01*
X8823049Y11327054D01*
X8822008Y11327228D01*
X8821140Y11327401D01*
X8820793D01*
X8819059Y11327575D01*
X8817324Y11327748D01*
X8816630D01*
X8816109D01*
X8815762D01*
X8815589D01*
X8813681D01*
X8812119D01*
X8811252Y11327575D01*
X8810905D01*
X8809517Y11327401D01*
X8808476Y11327228D01*
X8807782Y11327054D01*
X8807609D01*
X8806741Y11326707D01*
X8805874Y11326534D01*
X8805527Y11326360D01*
X8805353Y11326187D01*
X8804486Y11325840D01*
X8803792Y11325146D01*
X8803272Y11324626D01*
X8803098Y11324452D01*
X8802578Y11323932D01*
X8802057Y11323064D01*
X8800843Y11321503D01*
X8800496Y11320809D01*
X8800149Y11320115D01*
X8799802Y11319768D01*
Y11319595D01*
X8798414Y11316992D01*
X8797373Y11314564D01*
X8797026Y11313523D01*
X8796679Y11312655D01*
X8796506Y11312135D01*
Y11311961D01*
X8795638Y11308839D01*
X8795118Y11307277D01*
X8794771Y11305890D01*
X8794598Y11304502D01*
X8794424Y11303634D01*
X8794251Y11302940D01*
Y11302767D01*
X8793557Y11298950D01*
X8793383Y11297215D01*
Y11295654D01*
X8793210Y11294266D01*
Y11292358D01*
X8793383Y11287500D01*
X8793904Y11282990D01*
X8794598Y11278826D01*
X8795465Y11275357D01*
X8795812Y11273622D01*
X8796332Y11272234D01*
X8796679Y11271020D01*
X8797026Y11269979D01*
X8797373Y11269111D01*
X8797547Y11268591D01*
X8797720Y11268244D01*
Y11268070D01*
X8799629Y11264080D01*
X8801710Y11260437D01*
X8803966Y11257141D01*
X8806047Y11254365D01*
X8807956Y11252110D01*
X8809691Y11250375D01*
X8810731Y11249334D01*
X8810905Y11249161D01*
X8811078Y11248987D01*
X8814548Y11246212D01*
X8818018Y11243783D01*
X8821661Y11241701D01*
X8825130Y11239966D01*
X8828080Y11238578D01*
X8829294Y11238058D01*
X8830508Y11237711D01*
X8831376Y11237364D01*
X8832070Y11237017D01*
X8832417Y11236844D01*
X8832590D01*
X8837448Y11235456D01*
X8842479Y11234415D01*
X8847336Y11233548D01*
X8851847Y11233027D01*
X8853928Y11232854D01*
X8855837Y11232680D01*
X8857572D01*
X8858959Y11232507D01*
X8861735D01*
X8867634Y11232680D01*
X8873011Y11233201D01*
X8877869Y11233721D01*
X8880124Y11234068D01*
X8882033Y11234588D01*
X8883941Y11234935D01*
X8885502Y11235282D01*
X8886890Y11235629D01*
X8888104Y11235803D01*
X8888972Y11236150D01*
X8889666Y11236323D01*
X8890013Y11236497D01*
X8890186D01*
X8894523Y11238058D01*
X8898513Y11239966D01*
X8901983Y11241875D01*
X8904932Y11243783D01*
X8907187Y11245344D01*
X8909096Y11246732D01*
X8909616Y11247253D01*
X8910137Y11247600D01*
X8910310Y11247947D01*
X8910484D01*
X8913433Y11250896D01*
X8915862Y11253845D01*
X8917943Y11256968D01*
X8919678Y11259743D01*
X8921066Y11262172D01*
X8921933Y11264254D01*
X8922280Y11264948D01*
X8922627Y11265468D01*
X8922801Y11265815D01*
Y11265989D01*
X8924189Y11270152D01*
X8925056Y11274316D01*
X8925750Y11278306D01*
X8926270Y11282122D01*
X8926617Y11285245D01*
Y11286633D01*
X8926791Y11287847D01*
Y11234068D01*
Y11328095D01*
D02*
G37*
G36*
X8925230Y11210474D02*
X8794945D01*
X8798588D01*
X8798067Y11210301D01*
X8797720Y11210127D01*
X8797547Y11209954D01*
X8797026Y11209434D01*
X8796506Y11208740D01*
X8796332Y11208219D01*
X8796159Y11208046D01*
X8795638Y11207005D01*
X8795465Y11205790D01*
X8795292Y11204923D01*
Y11204576D01*
X8795118Y11202668D01*
X8794945Y11200933D01*
Y11196422D01*
X8795118Y11194514D01*
Y11193820D01*
X8795292Y11193300D01*
Y11192953D01*
X8795465Y11191391D01*
X8795812Y11190177D01*
X8795985Y11189483D01*
X8796159Y11189136D01*
X8796506Y11188269D01*
X8797026Y11187748D01*
X8797373Y11187401D01*
X8797547Y11187228D01*
X8798067Y11186881D01*
X8798588Y11186707D01*
X8799108D01*
X8799282D01*
X8860000D01*
X8865205D01*
X8867634D01*
X8869889D01*
X8871797D01*
X8873185D01*
X8874226D01*
X8874399D01*
X8874573D01*
X8877349D01*
X8879951Y11186881D01*
X8882379D01*
X8884635Y11187054D01*
X8886370D01*
X8887757Y11187228D01*
X8888625D01*
X8888972D01*
Y11187054D01*
X8886023Y11185840D01*
X8884635Y11185146D01*
X8883420Y11184626D01*
X8882379Y11184105D01*
X8881686Y11183758D01*
X8881165Y11183585D01*
X8880992Y11183411D01*
X8878042Y11182023D01*
X8876655Y11181329D01*
X8875440Y11180636D01*
X8874399Y11180115D01*
X8873532Y11179768D01*
X8873011Y11179595D01*
X8872838Y11179421D01*
X8869715Y11178033D01*
X8868501Y11177339D01*
X8867113Y11176645D01*
X8866246Y11176125D01*
X8865378Y11175778D01*
X8864858Y11175605D01*
X8864684Y11175431D01*
X8861562Y11173870D01*
X8860174Y11173176D01*
X8858786Y11172482D01*
X8857745Y11171961D01*
X8856878Y11171441D01*
X8856357Y11171267D01*
X8856184Y11171094D01*
X8808823Y11145939D01*
X8806221Y11144725D01*
X8805180Y11144031D01*
X8804139Y11143510D01*
X8803445Y11142990D01*
X8802925Y11142643D01*
X8802578Y11142469D01*
X8802404Y11142296D01*
X8800496Y11140908D01*
X8799282Y11139694D01*
X8798414Y11138826D01*
X8798241Y11138653D01*
Y11138479D01*
X8797200Y11136918D01*
X8796506Y11135357D01*
X8796159Y11134316D01*
X8795985Y11133969D01*
Y11133795D01*
X8795638Y11131714D01*
X8795292Y11129632D01*
Y11113151D01*
X8795465Y11111763D01*
X8795638Y11110375D01*
X8795985Y11109334D01*
X8796506Y11108294D01*
X8797026Y11107426D01*
X8797373Y11106906D01*
X8797547Y11106559D01*
X8797720Y11106385D01*
X8798761Y11105518D01*
X8799802Y11104824D01*
X8801016Y11104477D01*
X8802231Y11104130D01*
X8803272Y11103956D01*
X8804139Y11103783D01*
X8794945D01*
X8921066D01*
X8922280Y11103956D01*
X8922627Y11104130D01*
X8922801D01*
X8923321Y11104650D01*
X8923842Y11105171D01*
X8924015Y11105691D01*
X8924189Y11105865D01*
X8924536Y11107079D01*
X8924709Y11108294D01*
X8924883Y11109161D01*
Y11109508D01*
X8925056Y11111416D01*
X8925230Y11113324D01*
Y11210474D01*
D02*
G37*
G36*
X8924709Y11080536D02*
D01*
Y11076546D01*
X8924536Y11077240D01*
X8924362Y11077587D01*
X8924189Y11077934D01*
Y11078108D01*
X8923668Y11078628D01*
X8923148Y11079149D01*
X8922627Y11079322D01*
X8922454Y11079495D01*
X8921413Y11079842D01*
X8920372Y11080016D01*
X8919678Y11080189D01*
X8919331D01*
X8917770Y11080363D01*
X8916208Y11080536D01*
X8924709D01*
X8795292D01*
X8912392D01*
X8911004Y11080363D01*
X8909963Y11080189D01*
X8909616D01*
X8908402Y11080016D01*
X8907361Y11079842D01*
X8906667Y11079669D01*
X8906493Y11079495D01*
X8905626Y11079149D01*
X8905106Y11078628D01*
X8904932Y11078281D01*
X8904759Y11078108D01*
X8904412Y11077587D01*
X8904065Y11077067D01*
Y11030053D01*
X8867634D01*
Y11069087D01*
X8867460Y11070127D01*
X8867287Y11070474D01*
Y11070648D01*
X8866766Y11071168D01*
X8866246Y11071689D01*
X8865725Y11071862D01*
X8865552Y11072036D01*
X8864511Y11072383D01*
X8863643Y11072556D01*
X8862950Y11072730D01*
X8862603D01*
X8861041Y11072903D01*
X8859480Y11073077D01*
X8858786D01*
X8858265D01*
X8857919D01*
X8857745D01*
X8855837D01*
X8854275Y11072903D01*
X8853408Y11072730D01*
X8853061D01*
X8851673Y11072556D01*
X8850632Y11072383D01*
X8850112Y11072209D01*
X8849938Y11072036D01*
X8849071Y11071689D01*
X8848551Y11071168D01*
X8848377Y11070821D01*
X8848204Y11070648D01*
X8847857Y11070127D01*
X8847510Y11069607D01*
Y11030053D01*
X8815936D01*
Y11076199D01*
X8815762Y11076893D01*
X8815589Y11077240D01*
X8815415Y11077587D01*
Y11077761D01*
X8814895Y11078281D01*
X8814375Y11078628D01*
X8813854Y11078975D01*
X8813681D01*
X8812640Y11079322D01*
X8811599Y11079495D01*
X8810905Y11079669D01*
X8810558D01*
X8808997Y11079842D01*
X8807435Y11080016D01*
X8806915D01*
X8806394D01*
X8806047D01*
X8805874D01*
X8803792D01*
X8802231Y11079842D01*
X8801190Y11079669D01*
X8800843D01*
X8799629Y11079495D01*
X8798588Y11079322D01*
X8797894Y11079149D01*
X8797720Y11078975D01*
X8796853Y11078628D01*
X8796159Y11078108D01*
X8795985Y11077934D01*
X8795812Y11077761D01*
X8795465Y11077240D01*
X8795292Y11076720D01*
Y11010276D01*
X8795638Y11009235D01*
X8796332Y11007500D01*
X8796679Y11006807D01*
X8797026Y11006286D01*
X8797200Y11006113D01*
X8797373Y11005939D01*
X8798241Y11005245D01*
X8799108Y11004725D01*
X8801190Y11004204D01*
X8802057Y11004031D01*
X8802925Y11003857D01*
X8916555D01*
X8918117Y11004031D01*
X8919331Y11004204D01*
X8920372Y11004551D01*
X8921239Y11004898D01*
X8921933Y11005245D01*
X8922454Y11005592D01*
X8922627Y11005939D01*
X8922801D01*
X8923495Y11006807D01*
X8923842Y11007847D01*
X8924536Y11009582D01*
Y11010276D01*
X8924709Y11010970D01*
Y11003857D01*
D01*
Y11080536D01*
D02*
G37*
%LPD*%
G36*
X8868674Y11404427D02*
X8870756D01*
X8872491Y11404254D01*
X8873705D01*
X8874573Y11404080D01*
X8874920D01*
X8877175Y11403907D01*
X8879257Y11403733D01*
X8881165Y11403560D01*
X8882900Y11403386D01*
X8884288Y11403213D01*
X8885329Y11403039D01*
X8886023Y11402866D01*
X8886196D01*
X8889666Y11402172D01*
X8891054Y11401652D01*
X8892268Y11401305D01*
X8893482Y11400958D01*
X8894176Y11400784D01*
X8894697Y11400437D01*
X8894870D01*
X8897472Y11399223D01*
X8898513Y11398529D01*
X8899554Y11398008D01*
X8900248Y11397488D01*
X8900769Y11396968D01*
X8901116Y11396794D01*
X8901289Y11396621D01*
X8902850Y11394886D01*
X8904065Y11393151D01*
X8904412Y11392457D01*
X8904759Y11391937D01*
X8904932Y11391590D01*
Y11391416D01*
X8905626Y11389161D01*
X8905973Y11386906D01*
X8906147Y11386038D01*
Y11384650D01*
X8905973Y11382742D01*
X8905800Y11381007D01*
X8905453Y11379446D01*
X8905106Y11378231D01*
X8904759Y11377191D01*
X8904412Y11376323D01*
X8904065Y11375803D01*
Y11375629D01*
X8903197Y11374241D01*
X8901983Y11373201D01*
X8899554Y11371292D01*
X8898340Y11370598D01*
X8897472Y11370078D01*
X8896778Y11369731D01*
X8896605Y11369557D01*
X8894523Y11368690D01*
X8892094Y11368170D01*
X8889666Y11367476D01*
X8887410Y11367129D01*
X8885329Y11366782D01*
X8883767Y11366435D01*
X8883073D01*
X8882553Y11366261D01*
X8882379D01*
X8882206D01*
X8878563Y11365914D01*
X8874746Y11365741D01*
X8870930Y11365394D01*
X8867287D01*
X8864164Y11365220D01*
X8862776D01*
X8861562D01*
X8860694D01*
X8860000D01*
X8859480D01*
X8859306D01*
X8855143D01*
X8851500Y11365394D01*
X8848030Y11365567D01*
X8845254Y11365741D01*
X8842826D01*
X8841091Y11365914D01*
X8840397Y11366088D01*
X8839876D01*
X8839703D01*
X8839529D01*
X8836407Y11366435D01*
X8833631Y11366955D01*
X8831202Y11367476D01*
X8829294Y11367996D01*
X8827559Y11368517D01*
X8826345Y11368863D01*
X8825477Y11369037D01*
X8825304Y11369210D01*
X8823222Y11370078D01*
X8821487Y11371119D01*
X8820099Y11372160D01*
X8818885Y11373027D01*
X8818018Y11373894D01*
X8817324Y11374588D01*
X8816977Y11375109D01*
X8816803Y11375282D01*
X8815762Y11376844D01*
X8815068Y11378405D01*
X8814548Y11379966D01*
X8814201Y11381528D01*
X8814028Y11382916D01*
X8813854Y11383956D01*
Y11384997D01*
X8814028Y11387426D01*
X8814375Y11389334D01*
X8814548Y11390028D01*
X8814722Y11390549D01*
X8814895Y11390896D01*
Y11391069D01*
X8815762Y11393151D01*
X8816803Y11394712D01*
X8817671Y11395753D01*
X8817844Y11395927D01*
X8818018Y11396100D01*
X8819752Y11397661D01*
X8821661Y11398876D01*
X8822528Y11399223D01*
X8823049Y11399570D01*
X8823569Y11399917D01*
X8823743D01*
X8826518Y11400958D01*
X8829294Y11401825D01*
X8830508Y11402172D01*
X8831549Y11402345D01*
X8832243Y11402519D01*
X8832417D01*
X8834498Y11402866D01*
X8836580Y11403213D01*
X8838662Y11403560D01*
X8840570Y11403733D01*
X8842132Y11403907D01*
X8843520D01*
X8844387Y11404080D01*
X8844734D01*
X8847336Y11404254D01*
X8850112Y11404427D01*
X8852888D01*
X8855316Y11404601D01*
X8857572D01*
X8859306D01*
X8860000D01*
X8860521D01*
X8860694D01*
X8860868D01*
X8863643D01*
X8866246D01*
X8868674Y11404427D01*
D02*
G37*
G36*
X8925230Y11117835D02*
X8925056Y11119743D01*
Y11120437D01*
X8924883Y11120958D01*
Y11121305D01*
X8924709Y11122866D01*
X8924536Y11124080D01*
X8924189Y11124774D01*
Y11124948D01*
X8923668Y11125815D01*
X8923321Y11126509D01*
X8922974Y11126683D01*
X8922801Y11126856D01*
X8922107Y11127203D01*
X8921586Y11127550D01*
X8921239D01*
X8921066D01*
X8853408D01*
X8850632D01*
X8847857D01*
X8845428D01*
X8843173D01*
X8841264Y11127377D01*
X8839876D01*
X8839009D01*
X8838662D01*
X8833458Y11127203D01*
X8831029Y11127030D01*
X8828774D01*
X8826865Y11126856D01*
X8825477D01*
X8824610Y11126683D01*
X8824263D01*
Y11127030D01*
X8828600Y11128764D01*
X8830682Y11129632D01*
X8832590Y11130326D01*
X8834151Y11131020D01*
X8835366Y11131540D01*
X8836060Y11131887D01*
X8836407Y11132061D01*
X8838662Y11133101D01*
X8840917Y11134142D01*
X8842826Y11135183D01*
X8844560Y11136051D01*
X8846122Y11136745D01*
X8847163Y11137265D01*
X8848030Y11137612D01*
X8848204Y11137785D01*
X8908575Y11169880D01*
X8910310Y11170747D01*
X8912045Y11171614D01*
X8913433Y11172308D01*
X8914474Y11173002D01*
X8915515Y11173523D01*
X8916208Y11173870D01*
X8916555Y11174217D01*
X8916729D01*
X8918811Y11175778D01*
X8920372Y11177166D01*
X8921413Y11178033D01*
X8921586Y11178207D01*
X8921760Y11178380D01*
X8922801Y11180115D01*
X8923668Y11181503D01*
X8924015Y11182717D01*
X8924189Y11182891D01*
Y11183064D01*
X8924536Y11185146D01*
X8924709Y11187228D01*
X8924883Y11188095D01*
Y11200412D01*
X8924709Y11201800D01*
X8924536Y11203015D01*
X8924362Y11203882D01*
Y11204229D01*
X8923842Y11205443D01*
X8923321Y11206484D01*
X8922801Y11207178D01*
X8922627Y11207352D01*
X8921586Y11208219D01*
X8920719Y11209087D01*
X8920025Y11209434D01*
X8919678Y11209607D01*
X8918290Y11210127D01*
X8916902Y11210301D01*
X8915862Y11210474D01*
X8925230D01*
Y11117835D01*
D02*
G37*
%LPC*%
G36*
X8921933Y10476937D02*
X8920545D01*
X8919678Y10476763D01*
X8918984Y10476590D01*
X8918637Y10476416D01*
X8917943Y10476243D01*
X8917076Y10475896D01*
X8915167Y10475202D01*
X8914300Y10474855D01*
X8913779Y10474508D01*
X8913259Y10474335D01*
X8913086D01*
X8887584Y10463405D01*
X8884288Y10462017D01*
X8882900Y10461324D01*
X8881685Y10460630D01*
X8880644Y10460109D01*
X8879950Y10459762D01*
X8879430Y10459589D01*
X8879257Y10459415D01*
X8876654Y10458027D01*
X8874746Y10456639D01*
X8873879Y10456119D01*
X8873358Y10455599D01*
X8873011Y10455425D01*
X8872838Y10455252D01*
X8870756Y10453517D01*
X8869368Y10451955D01*
X8868674Y10451262D01*
X8868327Y10450915D01*
X8867980Y10450568D01*
Y10450394D01*
X8866592Y10448486D01*
X8865378Y10446751D01*
X8865031Y10446057D01*
X8864684Y10445537D01*
X8864511Y10445190D01*
Y10445016D01*
X8863817Y10447098D01*
X8862949Y10449180D01*
X8862082Y10450915D01*
X8861388Y10452476D01*
X8860694Y10453864D01*
X8860174Y10454731D01*
X8859827Y10455425D01*
X8859653Y10455599D01*
X8858439Y10457333D01*
X8857224Y10458895D01*
X8856010Y10460283D01*
X8854796Y10461497D01*
X8853928Y10462364D01*
X8853061Y10463058D01*
X8852540Y10463405D01*
X8852367Y10463579D01*
X8849071Y10465661D01*
X8847509Y10466528D01*
X8845948Y10467222D01*
X8844734Y10467742D01*
X8843693Y10468089D01*
X8842999Y10468436D01*
X8842825D01*
X8838662Y10469477D01*
X8836753Y10469824D01*
X8834845Y10469998D01*
X8833284Y10470171D01*
X8831896D01*
X8831202D01*
X8830855D01*
X8828079Y10469998D01*
X8825477Y10469824D01*
X8823222Y10469477D01*
X8821140Y10468957D01*
X8819579Y10468436D01*
X8818364Y10468089D01*
X8817670Y10467916D01*
X8817323Y10467742D01*
X8815068Y10466875D01*
X8813160Y10465834D01*
X8811425Y10464620D01*
X8809864Y10463579D01*
X8808649Y10462711D01*
X8807608Y10461844D01*
X8807088Y10461324D01*
X8806915Y10461150D01*
X8805353Y10459415D01*
X8803965Y10457680D01*
X8802751Y10455946D01*
X8801884Y10454211D01*
X8801016Y10452823D01*
X8800496Y10451609D01*
X8800149Y10450915D01*
X8799975Y10450568D01*
X8798240Y10445710D01*
X8797547Y10443455D01*
X8797026Y10441200D01*
X8796679Y10439291D01*
X8796332Y10437903D01*
X8796159Y10436863D01*
Y10436516D01*
X8795985Y10434434D01*
X8795812Y10432525D01*
X8795638Y10431658D01*
Y10430444D01*
X8795465Y10427841D01*
X8795291Y10425066D01*
Y10380828D01*
X8925229D01*
X8921066D01*
X8921760Y10381001D01*
X8922454Y10381175D01*
X8922801Y10381348D01*
X8922974D01*
X8923494Y10381869D01*
X8923841Y10382563D01*
X8924015Y10383257D01*
X8924188Y10383430D01*
X8924535Y10384644D01*
X8924709Y10386032D01*
X8924882Y10387073D01*
Y10387420D01*
X8925056Y10389502D01*
X8925229Y10391584D01*
Y10396615D01*
X8925056Y10397656D01*
Y10399217D01*
X8924882Y10399737D01*
Y10400258D01*
X8924709Y10401993D01*
X8924535Y10403207D01*
X8924188Y10404074D01*
Y10404248D01*
X8923841Y10405289D01*
X8923321Y10405983D01*
X8923148Y10406330D01*
X8922974Y10406503D01*
X8922280Y10406850D01*
X8921760Y10407197D01*
X8921239D01*
X8921066D01*
X8871797D01*
Y10415351D01*
X8871970Y10418300D01*
X8872144Y10419514D01*
X8872491Y10420555D01*
X8872664Y10421423D01*
X8873011Y10422117D01*
X8873185Y10422464D01*
Y10422637D01*
X8874226Y10424892D01*
X8875613Y10426801D01*
X8876134Y10427495D01*
X8876654Y10428015D01*
X8876828Y10428188D01*
X8877001Y10428362D01*
X8879083Y10430097D01*
X8881165Y10431485D01*
X8882032Y10432005D01*
X8882726Y10432352D01*
X8883247Y10432699D01*
X8883420D01*
X8886369Y10434260D01*
X8887757Y10434954D01*
X8889145Y10435648D01*
X8890359Y10436169D01*
X8891227Y10436689D01*
X8891921Y10436863D01*
X8892094Y10437036D01*
X8920892Y10448659D01*
X8921760Y10449006D01*
X8922454Y10449180D01*
X8922801Y10449527D01*
X8922974D01*
X8923494Y10450221D01*
X8924015Y10450915D01*
X8924188Y10451435D01*
X8924362Y10451609D01*
X8924535Y10452823D01*
X8924709Y10454037D01*
X8924882Y10455078D01*
Y10455425D01*
X8925056Y10457507D01*
X8925229Y10459762D01*
Y10454731D01*
Y10465487D01*
X8925056Y10466875D01*
Y10468957D01*
X8924882Y10469651D01*
Y10470171D01*
X8924709Y10472079D01*
X8924535Y10473467D01*
X8924362Y10474335D01*
Y10474508D01*
X8924015Y10475549D01*
X8923494Y10476069D01*
X8923321Y10476416D01*
X8923148D01*
X8922627Y10476763D01*
X8921933Y10476937D01*
D02*
G37*
G36*
X8916208Y10357581D02*
X8912392D01*
X8911004Y10357408D01*
X8909963Y10357234D01*
X8909616D01*
X8908402Y10357061D01*
X8907361Y10356887D01*
X8906667Y10356714D01*
X8906493Y10356540D01*
X8905626Y10356193D01*
X8905105Y10355673D01*
X8904932Y10355326D01*
X8904758Y10355153D01*
X8904411Y10354632D01*
X8904064Y10354112D01*
Y10307098D01*
X8867633D01*
Y10346131D01*
X8867460Y10347172D01*
X8867286Y10347519D01*
Y10347693D01*
X8866766Y10348213D01*
X8866245Y10348734D01*
X8865725Y10348907D01*
X8865551Y10349081D01*
X8864511Y10349428D01*
X8863643Y10349601D01*
X8862949Y10349775D01*
X8862602D01*
X8861041Y10349948D01*
X8859480Y10350122D01*
X8858786D01*
X8858265D01*
X8857918D01*
X8857745D01*
X8855836D01*
X8854275Y10349948D01*
X8853408Y10349775D01*
X8853061D01*
X8851673Y10349601D01*
X8850632Y10349428D01*
X8850112Y10349254D01*
X8849938Y10349081D01*
X8849071Y10348734D01*
X8848550Y10348213D01*
X8848377Y10347866D01*
X8848203Y10347693D01*
X8847856Y10347172D01*
X8847509Y10346652D01*
Y10307098D01*
X8815936D01*
Y10353244D01*
X8815762Y10353938D01*
X8815589Y10354285D01*
X8815415Y10354632D01*
Y10354806D01*
X8814895Y10355326D01*
X8814374Y10355673D01*
X8813854Y10356020D01*
X8813680D01*
X8812639Y10356367D01*
X8811599Y10356540D01*
X8810905Y10356714D01*
X8810558D01*
X8808996Y10356887D01*
X8807435Y10357061D01*
X8806915D01*
X8806394D01*
X8806047D01*
X8805874D01*
X8803792D01*
X8802231Y10356887D01*
X8801190Y10356714D01*
X8800843D01*
X8799628Y10356540D01*
X8798587Y10356367D01*
X8797894Y10356193D01*
X8797720Y10356020D01*
X8796853Y10355673D01*
X8796159Y10355153D01*
X8795985Y10354979D01*
X8795812Y10354806D01*
X8795465Y10354285D01*
X8795291Y10353765D01*
Y10355326D01*
Y10353765D01*
D01*
Y10287321D01*
X8795638Y10286280D01*
X8796332Y10284545D01*
X8796679Y10283851D01*
X8797026Y10283331D01*
X8797200Y10283157D01*
X8797373Y10282984D01*
X8798240Y10282290D01*
X8799108Y10281770D01*
X8801190Y10281249D01*
X8802057Y10281076D01*
X8802924Y10280902D01*
X8795291D01*
Y10287321D01*
Y10280902D01*
D01*
X8924709D01*
Y10353591D01*
X8924535Y10354285D01*
X8924362Y10354632D01*
X8924188Y10354979D01*
Y10355153D01*
X8923668Y10355673D01*
X8923148Y10356193D01*
X8922627Y10356367D01*
X8922454Y10356540D01*
X8921413Y10356887D01*
X8920372Y10357061D01*
X8919678Y10357234D01*
X8919331D01*
X8917770Y10357408D01*
X8916208Y10357581D01*
D02*
G37*
G36*
X8800149Y10262340D02*
X8798414D01*
X8797373Y10261819D01*
X8796679Y10261472D01*
X8796506Y10261299D01*
X8795812Y10260258D01*
X8795291Y10259217D01*
X8795118Y10258176D01*
Y10257829D01*
X8794944Y10256788D01*
Y10255747D01*
X8794771Y10253492D01*
Y10262340D01*
D01*
Y10085735D01*
X8925229D01*
X8799628D01*
X8801363Y10085908D01*
X8803098Y10086255D01*
X8803965Y10086429D01*
X8804659Y10086602D01*
X8805006Y10086776D01*
X8805180D01*
X8917943Y10116094D01*
X8919504Y10116615D01*
X8920892Y10117135D01*
X8921586Y10117482D01*
X8921933Y10117656D01*
X8922801Y10118523D01*
X8923494Y10119390D01*
X8923841Y10120084D01*
X8924015Y10120431D01*
X8924362Y10122166D01*
X8924709Y10124074D01*
Y10124768D01*
X8924882Y10125462D01*
Y10125983D01*
X8925056Y10127371D01*
Y10128932D01*
X8925229Y10131881D01*
Y10138994D01*
X8925056Y10140382D01*
Y10142637D01*
X8924882Y10143504D01*
Y10144025D01*
X8924709Y10146280D01*
X8924362Y10147842D01*
X8924188Y10148882D01*
X8924015Y10149229D01*
X8923321Y10150617D01*
X8922627Y10151485D01*
X8921933Y10152005D01*
X8921760Y10152179D01*
X8920545Y10152699D01*
X8919331Y10153219D01*
X8918290Y10153393D01*
X8918117Y10153566D01*
X8917943D01*
X8836060Y10173170D01*
Y10173343D01*
X8917943Y10194161D01*
X8919504Y10194508D01*
X8920892Y10194855D01*
X8921586Y10195202D01*
X8921933Y10195376D01*
X8922801Y10196243D01*
X8923494Y10197284D01*
X8923841Y10197978D01*
X8924015Y10198325D01*
X8924362Y10200060D01*
X8924709Y10201968D01*
Y10202662D01*
X8924882Y10203356D01*
Y10203876D01*
X8925056Y10205264D01*
Y10206825D01*
X8925229Y10209775D01*
Y10216540D01*
X8925056Y10217928D01*
Y10220010D01*
X8924882Y10220877D01*
Y10221398D01*
X8924709Y10223653D01*
X8924362Y10225388D01*
X8924188Y10225908D01*
Y10226429D01*
X8924015Y10226602D01*
Y10226776D01*
X8923321Y10228164D01*
X8922627Y10229205D01*
X8922107Y10229725D01*
X8921933Y10229899D01*
X8920719Y10230592D01*
X8919331Y10231113D01*
X8918290Y10231460D01*
X8918117Y10231633D01*
X8917943D01*
X8805527Y10261299D01*
X8803098Y10261819D01*
X8801363Y10262166D01*
X8800669D01*
X8800149Y10262340D01*
D02*
G37*
G36*
X8861388Y10073418D02*
X8793036D01*
X8858612D01*
X8852540Y10073244D01*
X8846989Y10072724D01*
X8844387Y10072550D01*
X8841958Y10072203D01*
X8839703Y10071856D01*
X8837794Y10071509D01*
X8835886Y10070989D01*
X8834325Y10070642D01*
X8832763Y10070295D01*
X8831722Y10070122D01*
X8830682Y10069775D01*
X8829988Y10069601D01*
X8829641Y10069428D01*
X8829467D01*
X8825130Y10067866D01*
X8821140Y10065958D01*
X8817497Y10064050D01*
X8814548Y10062315D01*
X8812293Y10060580D01*
X8810384Y10059192D01*
X8809864Y10058672D01*
X8809343Y10058325D01*
X8809170Y10058151D01*
X8808996Y10057978D01*
X8806221Y10055029D01*
X8803618Y10051906D01*
X8801537Y10048783D01*
X8799975Y10045834D01*
X8798587Y10043232D01*
X8798240Y10042018D01*
X8797720Y10041150D01*
X8797373Y10040283D01*
X8797200Y10039762D01*
X8797026Y10039415D01*
Y10039242D01*
X8795638Y10034905D01*
X8794771Y10030394D01*
X8794077Y10026057D01*
X8793556Y10022067D01*
X8793383Y10020332D01*
X8793209Y10018597D01*
Y10017036D01*
X8793036Y10015822D01*
Y9950939D01*
D01*
Y10013393D01*
X8793209Y10007842D01*
X8793730Y10002637D01*
X8794597Y9998127D01*
X8794944Y9996045D01*
X8795465Y9994136D01*
X8795985Y9992402D01*
X8796332Y9990840D01*
X8796679Y9989452D01*
X8797200Y9988412D01*
X8797373Y9987544D01*
X8797720Y9986850D01*
X8797894Y9986503D01*
Y9986330D01*
X8799802Y9982166D01*
X8802057Y9978350D01*
X8804312Y9975053D01*
X8806394Y9972104D01*
X8808302Y9969849D01*
X8810037Y9968114D01*
X8810558Y9967594D01*
X8811078Y9967073D01*
X8811252Y9966900D01*
X8811425Y9966726D01*
X8814895Y9963951D01*
X8818364Y9961522D01*
X8822008Y9959614D01*
X8825304Y9957879D01*
X8828253Y9956664D01*
X8829641Y9956144D01*
X8830682Y9955623D01*
X8831549Y9955277D01*
X8832243Y9955103D01*
X8832590Y9954930D01*
X8832763D01*
X8837621Y9953542D01*
X8842478Y9952674D01*
X8847162Y9951980D01*
X8851499Y9951460D01*
X8853408Y9951286D01*
X8855316Y9951113D01*
X8856877D01*
X8858265Y9950939D01*
X8793036D01*
X8926964D01*
D01*
X8860867D01*
X8867113Y9951113D01*
X8872664Y9951460D01*
X8875266Y9951807D01*
X8877869Y9952154D01*
X8880124Y9952501D01*
X8882206Y9952848D01*
X8883941Y9953021D01*
X8885675Y9953368D01*
X8887063Y9953715D01*
X8888278Y9954062D01*
X8889319Y9954236D01*
X8890012Y9954409D01*
X8890359Y9954583D01*
X8890533D01*
X8895043Y9956144D01*
X8899034Y9957879D01*
X8902503Y9959787D01*
X8905452Y9961695D01*
X8907881Y9963257D01*
X8909616Y9964645D01*
X8910310Y9965165D01*
X8910830Y9965512D01*
X8911004Y9965859D01*
X8911177D01*
X8913953Y9968808D01*
X8916382Y9971931D01*
X8918463Y9975053D01*
X8920198Y9978003D01*
X8921413Y9980605D01*
X8921933Y9981819D01*
X8922454Y9982687D01*
X8922801Y9983554D01*
X8922974Y9984075D01*
X8923148Y9984421D01*
Y9984595D01*
X8924362Y9988932D01*
X8925403Y9993443D01*
X8926097Y9997953D01*
X8926444Y10001943D01*
X8926617Y10003851D01*
X8926791Y10005586D01*
Y10007148D01*
X8926964Y10008362D01*
Y10010964D01*
X8926791Y10016516D01*
X8926270Y10021547D01*
X8925576Y10026231D01*
X8925056Y10028312D01*
X8924709Y10030221D01*
X8924362Y10031782D01*
X8923841Y10033343D01*
X8923494Y10034731D01*
X8923148Y10035772D01*
X8922801Y10036640D01*
X8922627Y10037333D01*
X8922454Y10037680D01*
Y10037854D01*
X8920545Y10042018D01*
X8918290Y10045834D01*
X8916035Y10049130D01*
X8913953Y10051906D01*
X8912045Y10054161D01*
X8910310Y10055896D01*
X8909269Y10056937D01*
X8909095Y10057284D01*
X8908922D01*
X8905452Y10060060D01*
X8901809Y10062488D01*
X8898166Y10064570D01*
X8894870Y10066305D01*
X8891921Y10067519D01*
X8890533Y10068040D01*
X8889492Y10068560D01*
X8888625Y10068907D01*
X8887931Y10069081D01*
X8887584Y10069254D01*
X8887410D01*
X8882553Y10070642D01*
X8877522Y10071683D01*
X8872664Y10072377D01*
X8868327Y10072897D01*
X8866245Y10073071D01*
X8864337Y10073244D01*
X8862776D01*
X8861388Y10073418D01*
D02*
G37*
G36*
X8836580Y9936540D02*
X8834672D01*
X8831722Y9936367D01*
X8829120Y9936193D01*
X8826692Y9935847D01*
X8824610Y9935500D01*
X8822875Y9934979D01*
X8821487Y9934632D01*
X8820793Y9934459D01*
X8820446Y9934285D01*
X8818191Y9933418D01*
X8815936Y9932377D01*
X8814027Y9931336D01*
X8812466Y9930295D01*
X8811078Y9929254D01*
X8810211Y9928560D01*
X8809517Y9928040D01*
X8809343Y9927866D01*
X8807608Y9926305D01*
X8806221Y9924570D01*
X8804833Y9922835D01*
X8803618Y9921274D01*
X8802751Y9919713D01*
X8802057Y9918672D01*
X8801710Y9917978D01*
X8801537Y9917631D01*
X8800496Y9915376D01*
X8799628Y9913294D01*
X8798761Y9911386D01*
X8798240Y9909651D01*
X8797894Y9908089D01*
X8797547Y9907049D01*
X8797373Y9906355D01*
Y9906008D01*
X8797026Y9903926D01*
X8796679Y9902018D01*
X8796332Y9900283D01*
X8796159Y9898895D01*
X8795985Y9897680D01*
X8795812Y9896813D01*
Y9896119D01*
X8795465Y9892996D01*
Y9891435D01*
X8795291Y9890221D01*
Y9936540D01*
Y9848065D01*
X8925229D01*
X8921066D01*
X8921760Y9848238D01*
X8922454Y9848412D01*
X8922801Y9848585D01*
X8922974D01*
X8923494Y9849106D01*
X8923841Y9849799D01*
X8924015Y9850493D01*
X8924188Y9850667D01*
X8924535Y9851881D01*
X8924709Y9853269D01*
X8924882Y9854310D01*
Y9854657D01*
X8925056Y9856739D01*
X8925229Y9858821D01*
Y9863851D01*
X8925056Y9864892D01*
Y9866454D01*
X8924882Y9866974D01*
Y9867495D01*
X8924709Y9869229D01*
X8924535Y9870444D01*
X8924188Y9871311D01*
Y9871485D01*
X8923841Y9872526D01*
X8923321Y9873220D01*
X8923148Y9873566D01*
X8922974Y9873740D01*
X8922280Y9874087D01*
X8921760Y9874434D01*
X8921239D01*
X8921066D01*
X8879777D01*
Y9885190D01*
X8879604Y9889700D01*
X8879257Y9894037D01*
X8878910Y9897680D01*
X8878216Y9900977D01*
X8877695Y9903579D01*
X8877522Y9904620D01*
X8877348Y9905487D01*
X8877175Y9906355D01*
X8877001Y9906875D01*
X8876828Y9907049D01*
Y9907222D01*
X8875613Y9910692D01*
X8874226Y9913814D01*
X8872838Y9916417D01*
X8871450Y9918845D01*
X8870062Y9920580D01*
X8869021Y9921968D01*
X8868327Y9922835D01*
X8868154Y9923182D01*
X8865898Y9925438D01*
X8863470Y9927519D01*
X8861214Y9929081D01*
X8858959Y9930469D01*
X8857051Y9931683D01*
X8855490Y9932377D01*
X8854449Y9932897D01*
X8854275Y9933071D01*
X8854102D01*
X8850806Y9934285D01*
X8847509Y9935153D01*
X8844213Y9935673D01*
X8841264Y9936193D01*
X8838488Y9936367D01*
X8837447D01*
X8836580Y9936540D01*
D02*
G37*
%LPD*%
G36*
Y10442761D02*
X8837794Y10442414D01*
X8839009Y10442240D01*
X8839876Y10441894D01*
X8840570Y10441547D01*
X8841091Y10441373D01*
X8841264D01*
X8843519Y10440159D01*
X8845428Y10438771D01*
X8846121Y10438250D01*
X8846468Y10437730D01*
X8846815Y10437383D01*
X8846989Y10437210D01*
X8848550Y10434954D01*
X8849765Y10432699D01*
X8850285Y10431658D01*
X8850459Y10430964D01*
X8850806Y10430444D01*
Y10430270D01*
X8851499Y10426974D01*
X8851673Y10425413D01*
X8851846Y10423851D01*
X8852020Y10422464D01*
Y10407197D01*
X8815415D01*
Y10421770D01*
X8815589Y10422984D01*
Y10424892D01*
X8815762Y10425413D01*
Y10425933D01*
X8816109Y10427668D01*
X8816283Y10429229D01*
X8816456Y10430097D01*
X8816630Y10430444D01*
X8817323Y10432699D01*
X8818364Y10434781D01*
X8819405Y10436342D01*
X8820446Y10437730D01*
X8821314Y10438771D01*
X8822181Y10439465D01*
X8822701Y10439812D01*
X8822875Y10439985D01*
X8824610Y10441026D01*
X8826345Y10441720D01*
X8828253Y10442240D01*
X8829814Y10442587D01*
X8831376Y10442761D01*
X8832590Y10442934D01*
X8833284D01*
X8833631D01*
X8836580Y10442761D01*
D02*
G37*
G36*
X8795638Y10386206D02*
X8796332Y10384471D01*
X8796679Y10383777D01*
X8797026Y10383257D01*
X8797200Y10383083D01*
X8797373Y10382910D01*
X8798240Y10382216D01*
X8799108Y10381695D01*
X8801190Y10381175D01*
X8802057Y10381001D01*
X8802924Y10380828D01*
X8795291D01*
Y10387247D01*
X8795638Y10386206D01*
D02*
G37*
G36*
X8924709Y10280902D02*
X8916555D01*
X8918117Y10281076D01*
X8919331Y10281249D01*
X8920372Y10281596D01*
X8921239Y10281943D01*
X8921933Y10282290D01*
X8922454Y10282637D01*
X8922627Y10282984D01*
X8922801D01*
X8923494Y10283851D01*
X8923841Y10284892D01*
X8924535Y10286627D01*
Y10287321D01*
X8924709Y10288015D01*
Y10280902D01*
D02*
G37*
G36*
X8794944Y10246726D02*
Y10244818D01*
X8795118Y10244298D01*
Y10243777D01*
X8795291Y10242042D01*
X8795638Y10240654D01*
X8795812Y10239960D01*
X8795985Y10239614D01*
X8796506Y10238746D01*
X8797200Y10238226D01*
X8797720Y10237879D01*
X8797894Y10237705D01*
X8798761Y10237532D01*
X8799628Y10237185D01*
X8800149Y10237011D01*
X8800496D01*
X8899207Y10214285D01*
Y10214112D01*
X8801016Y10189651D01*
X8799628Y10189304D01*
X8798587Y10188957D01*
X8797894Y10188783D01*
X8797720Y10188610D01*
X8796853Y10187916D01*
X8796332Y10187222D01*
X8796159Y10186701D01*
X8795985Y10186355D01*
X8795465Y10184967D01*
X8795291Y10183579D01*
X8795118Y10182885D01*
Y10181844D01*
X8794944Y10180803D01*
Y10179415D01*
X8794771Y10176987D01*
Y10247941D01*
X8794944Y10246726D01*
D02*
G37*
G36*
Y10169874D02*
Y10167965D01*
X8795118Y10167445D01*
Y10166925D01*
X8795291Y10165190D01*
X8795638Y10163802D01*
X8795812Y10163108D01*
X8795985Y10162761D01*
X8796506Y10161720D01*
X8797200Y10161026D01*
X8797720Y10160679D01*
X8797894Y10160506D01*
X8798934Y10160159D01*
X8799975Y10159812D01*
X8800669Y10159638D01*
X8800843D01*
X8801016D01*
X8899207Y10136045D01*
Y10135871D01*
X8800322Y10113319D01*
X8799108Y10112972D01*
X8798067Y10112798D01*
X8797547Y10112625D01*
X8797373Y10112451D01*
X8796679Y10111931D01*
X8796159Y10111410D01*
X8795985Y10110716D01*
X8795812Y10110543D01*
X8795291Y10109329D01*
X8795118Y10107941D01*
X8794944Y10106900D01*
Y10105338D01*
X8794771Y10104124D01*
Y10171262D01*
X8794944Y10169874D01*
D02*
G37*
G36*
Y10094236D02*
Y10092154D01*
X8795118Y10091460D01*
Y10090939D01*
X8795465Y10089205D01*
X8795812Y10087990D01*
X8796332Y10087123D01*
X8796506Y10086949D01*
X8797373Y10086255D01*
X8798414Y10085908D01*
X8799281Y10085735D01*
X8794771D01*
Y10095623D01*
X8794944Y10094236D01*
D02*
G37*
G36*
X8866592Y10045487D02*
X8869542Y10045314D01*
X8872144Y10044967D01*
X8874399Y10044620D01*
X8876134Y10044446D01*
X8877175Y10044099D01*
X8877348D01*
X8877522D01*
X8880471Y10043405D01*
X8883247Y10042538D01*
X8885675Y10041497D01*
X8887757Y10040630D01*
X8889492Y10039762D01*
X8890880Y10039068D01*
X8891574Y10038548D01*
X8891921Y10038374D01*
X8894176Y10036813D01*
X8896084Y10035078D01*
X8897819Y10033343D01*
X8899207Y10031609D01*
X8900248Y10030047D01*
X8901115Y10028833D01*
X8901636Y10028139D01*
X8901809Y10027792D01*
X8903024Y10025190D01*
X8903891Y10022588D01*
X8904411Y10019812D01*
X8904758Y10017383D01*
X8905105Y10015128D01*
X8905279Y10013219D01*
Y10011658D01*
X8905105Y10008189D01*
X8904758Y10005066D01*
X8904238Y10002464D01*
X8903718Y10000035D01*
X8903197Y9998300D01*
X8902677Y9996912D01*
X8902330Y9996045D01*
X8902156Y9995698D01*
X8900942Y9993443D01*
X8899380Y9991361D01*
X8897993Y9989626D01*
X8896431Y9988238D01*
X8895217Y9987024D01*
X8894176Y9986156D01*
X8893309Y9985636D01*
X8893135Y9985462D01*
X8890706Y9984075D01*
X8888278Y9983034D01*
X8885849Y9982166D01*
X8883594Y9981299D01*
X8881685Y9980778D01*
X8880124Y9980431D01*
X8879083Y9980084D01*
X8878910D01*
X8878736D01*
X8875440Y9979564D01*
X8872144Y9979217D01*
X8868848Y9978870D01*
X8865898Y9978697D01*
X8863296D01*
X8862255Y9978523D01*
X8861214D01*
X8860521D01*
X8860000D01*
X8859653D01*
X8859480D01*
X8856183D01*
X8853061Y9978697D01*
X8850112Y9979044D01*
X8847509Y9979391D01*
X8845428Y9979564D01*
X8843693Y9979911D01*
X8842652Y9980084D01*
X8842478D01*
X8842305D01*
X8839356Y9980778D01*
X8836580Y9981646D01*
X8834151Y9982687D01*
X8832069Y9983554D01*
X8830508Y9984421D01*
X8829120Y9985115D01*
X8828426Y9985636D01*
X8828079Y9985809D01*
X8825998Y9987371D01*
X8823916Y9989105D01*
X8822354Y9990840D01*
X8820967Y9992575D01*
X8819752Y9993963D01*
X8819058Y9995177D01*
X8818538Y9995871D01*
X8818364Y9996218D01*
X8817150Y9998820D01*
X8816109Y10001596D01*
X8815415Y10004198D01*
X8815068Y10006801D01*
X8814721Y10009056D01*
X8814548Y10010964D01*
Y10012526D01*
X8814721Y10015995D01*
X8815068Y10019118D01*
X8815589Y10021720D01*
X8816109Y10024149D01*
X8816803Y10025884D01*
X8817323Y10027272D01*
X8817670Y10028139D01*
X8817844Y10028486D01*
X8819232Y10030741D01*
X8820620Y10032823D01*
X8822181Y10034558D01*
X8823742Y10035946D01*
X8825130Y10037160D01*
X8826171Y10038027D01*
X8826865Y10038548D01*
X8827212Y10038721D01*
X8829467Y10040109D01*
X8831896Y10041150D01*
X8834325Y10042191D01*
X8836580Y10042885D01*
X8838488Y10043405D01*
X8840050Y10043752D01*
X8841091Y10044099D01*
X8841264D01*
X8841437D01*
X8844560Y10044620D01*
X8847856Y10045140D01*
X8850979Y10045487D01*
X8853755Y10045661D01*
X8856357Y10045834D01*
X8858265D01*
X8858959D01*
X8859480D01*
X8859827D01*
X8860000D01*
X8863470D01*
X8866592Y10045487D01*
D02*
G37*
G36*
X8840223Y9908957D02*
X8841784Y9908610D01*
X8843172Y9908436D01*
X8844387Y9908089D01*
X8845254Y9907742D01*
X8845775Y9907569D01*
X8845948D01*
X8848897Y9906355D01*
X8850112Y9905661D01*
X8851152Y9904967D01*
X8852020Y9904446D01*
X8852714Y9903926D01*
X8853061Y9903579D01*
X8853234Y9903405D01*
X8855143Y9901324D01*
X8856704Y9899068D01*
X8857224Y9898027D01*
X8857571Y9897334D01*
X8857918Y9896813D01*
Y9896640D01*
X8858439Y9895078D01*
X8858786Y9893170D01*
X8859133Y9891435D01*
X8859306Y9889874D01*
Y9888312D01*
X8859480Y9887098D01*
Y9874434D01*
X8815589D01*
Y9885537D01*
X8815762Y9888486D01*
Y9889700D01*
X8815936Y9890915D01*
X8816109Y9891956D01*
Y9892650D01*
X8816283Y9893170D01*
Y9893343D01*
X8816977Y9896119D01*
X8817323Y9897507D01*
X8817844Y9898548D01*
X8818191Y9899415D01*
X8818538Y9900283D01*
X8818711Y9900630D01*
X8818885Y9900803D01*
X8819752Y9902018D01*
X8820793Y9903232D01*
X8822875Y9905140D01*
X8823916Y9905834D01*
X8824783Y9906355D01*
X8825304Y9906528D01*
X8825477Y9906702D01*
X8827212Y9907569D01*
X8829120Y9908089D01*
X8830855Y9908610D01*
X8832590Y9908783D01*
X8834151Y9908957D01*
X8835366Y9909130D01*
X8836233D01*
X8836580D01*
X8840223Y9908957D01*
D02*
G37*
G36*
X8795465Y9855524D02*
X8795638Y9854310D01*
X8795985Y9853096D01*
X8796506Y9852228D01*
X8797026Y9851534D01*
X8797373Y9851014D01*
X8797547Y9850667D01*
X8797720Y9850493D01*
X8798761Y9849626D01*
X8799802Y9849106D01*
X8802231Y9848412D01*
X8803271Y9848238D01*
X8804139Y9848065D01*
X8795291D01*
Y9856912D01*
X8795465Y9855524D01*
D02*
G37*
%LPC*%
G36*
X8916382Y11951735D02*
X8912739D01*
X8911351Y11951561D01*
X8910310Y11951388D01*
X8909963D01*
X8908749Y11951214D01*
X8907708Y11950867D01*
X8907014Y11950694D01*
X8906840Y11950520D01*
X8905973Y11950173D01*
X8905453Y11949653D01*
X8905279Y11949480D01*
X8905106Y11949306D01*
X8904759Y11948786D01*
X8904412Y11948265D01*
Y11926580D01*
X8797547D01*
X8797026D01*
X8796506Y11926406D01*
X8796332Y11926233D01*
X8796159Y11926059D01*
X8795638Y11925712D01*
X8795292Y11925192D01*
X8795118Y11924672D01*
Y11924498D01*
X8794945Y11923457D01*
X8794771Y11922243D01*
X8794598Y11921202D01*
Y11920855D01*
X8794424Y11918947D01*
Y11951735D01*
D01*
Y11872107D01*
X8924709D01*
D01*
X8827212D01*
X8828080Y11872280D01*
X8828774D01*
X8829294D01*
X8829467D01*
X8829641D01*
X8831029Y11872627D01*
X8831896Y11872974D01*
X8832417Y11873321D01*
X8832590Y11873494D01*
X8833111Y11874188D01*
X8833284Y11874882D01*
Y11875750D01*
X8832937Y11876964D01*
X8832417Y11878178D01*
X8831896Y11879219D01*
X8831723Y11879393D01*
Y11879566D01*
X8820273Y11900384D01*
X8904412D01*
Y11876270D01*
X8904585Y11875750D01*
X8904759Y11875229D01*
X8904932Y11874882D01*
X8905106Y11874709D01*
X8905626Y11874188D01*
X8906147Y11873841D01*
X8906667Y11873494D01*
X8906840Y11873321D01*
X8907881Y11872974D01*
X8908922Y11872800D01*
X8909616Y11872627D01*
X8909790D01*
X8909963D01*
X8911524Y11872454D01*
X8913086D01*
X8913780D01*
X8914300D01*
X8914647D01*
X8914821D01*
X8916729D01*
X8918117Y11872627D01*
X8919158D01*
X8919331D01*
X8919505D01*
X8920719Y11872974D01*
X8921760Y11873147D01*
X8922454Y11873494D01*
X8922627D01*
X8923321Y11873841D01*
X8924015Y11874362D01*
X8924189Y11874535D01*
X8924362Y11874709D01*
X8924709Y11875750D01*
Y11948265D01*
X8924536Y11948786D01*
X8924362Y11949133D01*
Y11949306D01*
X8923842Y11949826D01*
X8923321Y11950173D01*
X8922801Y11950520D01*
X8922627D01*
X8921586Y11950867D01*
X8920546Y11951214D01*
X8919852Y11951388D01*
X8919505D01*
X8917943Y11951561D01*
X8916382Y11951735D01*
D02*
G37*
G36*
X8908055Y11852503D02*
X8902850D01*
X8900942Y11852330D01*
X8900422D01*
X8899901Y11852156D01*
X8899728D01*
X8899554D01*
X8897993Y11851983D01*
X8896952Y11851809D01*
X8896258Y11851636D01*
X8896085D01*
X8895391Y11851289D01*
X8894870Y11850942D01*
X8894523Y11850768D01*
Y11850595D01*
X8894176Y11850074D01*
X8894003Y11849554D01*
Y11849033D01*
X8894350Y11847819D01*
X8894870Y11846605D01*
X8895391Y11845564D01*
X8895738Y11845390D01*
Y11845217D01*
X8896952Y11843309D01*
X8898166Y11841400D01*
X8898687Y11840533D01*
X8899034Y11840012D01*
X8899207Y11839492D01*
X8899381Y11839318D01*
X8900769Y11836369D01*
X8901983Y11833594D01*
X8902330Y11832379D01*
X8902677Y11831512D01*
X8903024Y11830818D01*
Y11830644D01*
X8903544Y11828736D01*
X8903891Y11826654D01*
X8904238Y11824572D01*
X8904412Y11822838D01*
Y11821103D01*
X8904585Y11819888D01*
Y11818674D01*
X8904412Y11815898D01*
X8904238Y11813296D01*
X8903718Y11810867D01*
X8903197Y11808786D01*
X8902850Y11807051D01*
X8902330Y11805836D01*
X8902156Y11805143D01*
X8901983Y11804796D01*
X8900942Y11802540D01*
X8899554Y11800632D01*
X8898340Y11798897D01*
X8896952Y11797336D01*
X8895911Y11796121D01*
X8894870Y11795081D01*
X8894176Y11794560D01*
X8894003Y11794387D01*
X8891921Y11792825D01*
X8889666Y11791437D01*
X8887237Y11790397D01*
X8885155Y11789356D01*
X8883247Y11788662D01*
X8881686Y11788141D01*
X8880645Y11787794D01*
X8880471Y11787621D01*
X8880298D01*
X8877002Y11786927D01*
X8873532Y11786406D01*
X8870236Y11785886D01*
X8867113Y11785713D01*
X8864337Y11785539D01*
X8863296Y11785366D01*
X8862256D01*
X8861388D01*
X8860868D01*
X8860521D01*
X8860347D01*
X8856531Y11785539D01*
X8853061Y11785713D01*
X8849765Y11786059D01*
X8846989Y11786406D01*
X8844734Y11786753D01*
X8842999Y11787100D01*
X8842479Y11787274D01*
X8841958Y11787447D01*
X8841785D01*
X8841611D01*
X8838662Y11788315D01*
X8835886Y11789356D01*
X8833458Y11790397D01*
X8831376Y11791437D01*
X8829814Y11792478D01*
X8828600Y11793172D01*
X8827733Y11793693D01*
X8827559Y11793866D01*
X8825477Y11795601D01*
X8823569Y11797336D01*
X8822181Y11799071D01*
X8820793Y11800632D01*
X8819752Y11802020D01*
X8819059Y11803061D01*
X8818712Y11803928D01*
X8818538Y11804102D01*
X8817497Y11806530D01*
X8816630Y11808786D01*
X8816109Y11811214D01*
X8815589Y11813296D01*
X8815415Y11815204D01*
X8815242Y11816592D01*
Y11820409D01*
X8815589Y11822838D01*
X8815762Y11824746D01*
X8816109Y11826654D01*
X8816456Y11828042D01*
X8816803Y11829083D01*
X8816977Y11829777D01*
X8817150Y11829950D01*
X8817844Y11831859D01*
X8818538Y11833420D01*
X8819059Y11834981D01*
X8819752Y11836196D01*
X8820273Y11837237D01*
X8820620Y11837931D01*
X8820793Y11838451D01*
X8820967Y11838625D01*
X8822355Y11841053D01*
X8823569Y11842962D01*
X8824090Y11843656D01*
X8824437Y11844176D01*
X8824783Y11844349D01*
Y11844523D01*
X8825824Y11846084D01*
X8826345Y11847299D01*
X8826518Y11848166D01*
Y11848340D01*
X8826345Y11849033D01*
X8826171Y11849380D01*
X8825998Y11849727D01*
Y11849901D01*
X8825477Y11850421D01*
X8824957Y11850768D01*
X8824437Y11851115D01*
X8824263D01*
X8823049Y11851462D01*
X8822008Y11851636D01*
X8821140Y11851809D01*
X8820793D01*
X8819059Y11851983D01*
X8817324Y11852156D01*
X8816630D01*
X8816109D01*
X8815762D01*
X8815589D01*
X8813681D01*
X8812119D01*
X8811252Y11851983D01*
X8810905D01*
X8809517Y11851809D01*
X8808476Y11851636D01*
X8807782Y11851462D01*
X8807609D01*
X8806741Y11851115D01*
X8805874Y11850942D01*
X8805527Y11850768D01*
X8805353Y11850595D01*
X8804486Y11850248D01*
X8803792Y11849554D01*
X8803272Y11849033D01*
X8803098Y11848860D01*
X8802578Y11848340D01*
X8802057Y11847472D01*
X8800843Y11845911D01*
X8800496Y11845217D01*
X8800149Y11844523D01*
X8799802Y11844176D01*
Y11844002D01*
X8798414Y11841400D01*
X8797373Y11838971D01*
X8797026Y11837931D01*
X8796679Y11837063D01*
X8796506Y11836543D01*
Y11836369D01*
X8795638Y11833247D01*
X8795118Y11831685D01*
X8794771Y11830297D01*
X8794598Y11828910D01*
X8794424Y11828042D01*
X8794251Y11827348D01*
Y11827175D01*
X8793557Y11823358D01*
X8793383Y11821623D01*
Y11820062D01*
X8793210Y11818674D01*
Y11852503D01*
D01*
Y11756915D01*
D01*
Y11816766D01*
X8793383Y11811908D01*
X8793904Y11807398D01*
X8794598Y11803234D01*
X8795465Y11799765D01*
X8795812Y11798030D01*
X8796332Y11796642D01*
X8796679Y11795428D01*
X8797026Y11794387D01*
X8797373Y11793519D01*
X8797547Y11792999D01*
X8797720Y11792652D01*
Y11792478D01*
X8799629Y11788488D01*
X8801710Y11784845D01*
X8803966Y11781549D01*
X8806047Y11778773D01*
X8807956Y11776518D01*
X8809691Y11774783D01*
X8810731Y11773742D01*
X8810905Y11773569D01*
X8811078Y11773395D01*
X8814548Y11770620D01*
X8818018Y11768191D01*
X8821661Y11766109D01*
X8825130Y11764374D01*
X8828080Y11762986D01*
X8829294Y11762466D01*
X8830508Y11762119D01*
X8831376Y11761772D01*
X8832070Y11761425D01*
X8832417Y11761252D01*
X8832590D01*
X8837448Y11759864D01*
X8842479Y11758823D01*
X8847336Y11757955D01*
X8851847Y11757435D01*
X8853928Y11757261D01*
X8855837Y11757088D01*
X8857572D01*
X8858959Y11756915D01*
X8793210D01*
X8861735D01*
X8867634Y11757088D01*
X8873011Y11757608D01*
X8877869Y11758129D01*
X8880124Y11758476D01*
X8882033Y11758996D01*
X8883941Y11759343D01*
X8885502Y11759690D01*
X8886890Y11760037D01*
X8888104Y11760211D01*
X8888972Y11760558D01*
X8889666Y11760731D01*
X8890013Y11760905D01*
X8890186D01*
X8894523Y11762466D01*
X8898513Y11764374D01*
X8901983Y11766283D01*
X8904932Y11768191D01*
X8907187Y11769752D01*
X8909096Y11771140D01*
X8909616Y11771660D01*
X8910137Y11772007D01*
X8910310Y11772354D01*
X8910484D01*
X8913433Y11775304D01*
X8915862Y11778253D01*
X8917943Y11781375D01*
X8919678Y11784151D01*
X8921066Y11786580D01*
X8921933Y11788662D01*
X8922280Y11789356D01*
X8922627Y11789876D01*
X8922801Y11790223D01*
Y11790397D01*
X8924189Y11794560D01*
X8925056Y11798724D01*
X8925750Y11802714D01*
X8926270Y11806530D01*
X8926617Y11809653D01*
Y11811041D01*
X8926791Y11812255D01*
Y11816939D01*
X8926617Y11819368D01*
X8926444Y11821450D01*
X8926270Y11823358D01*
X8926097Y11824919D01*
X8925923Y11825960D01*
X8925750Y11826828D01*
Y11827001D01*
X8925403Y11829083D01*
X8924883Y11831165D01*
X8924536Y11832900D01*
X8924015Y11834461D01*
X8923668Y11835675D01*
X8923321Y11836543D01*
X8923148Y11837237D01*
Y11837410D01*
X8922454Y11839145D01*
X8921933Y11840533D01*
X8921239Y11841921D01*
X8920719Y11843135D01*
X8920372Y11844002D01*
X8920025Y11844696D01*
X8919678Y11845043D01*
Y11845217D01*
X8918984Y11846258D01*
X8918464Y11847125D01*
X8917423Y11848513D01*
X8916729Y11849207D01*
X8916555Y11849380D01*
X8915688Y11850074D01*
X8914994Y11850595D01*
X8914647Y11850942D01*
X8914474D01*
X8913086Y11851636D01*
X8912565Y11851809D01*
X8912392D01*
X8911351Y11851983D01*
X8910484Y11852156D01*
X8909790Y11852330D01*
X8909443D01*
X8908055Y11852503D01*
D02*
G37*
G36*
X8926791Y11756915D02*
X8863781D01*
X8926791D01*
D01*
D02*
G37*
G36*
X8925230Y11734882D02*
X8798588D01*
X8798067Y11734709D01*
X8797720Y11734535D01*
X8797547Y11734362D01*
X8797026Y11733841D01*
X8796506Y11733147D01*
X8796332Y11732627D01*
X8796159Y11732454D01*
X8795638Y11731413D01*
X8795465Y11730198D01*
X8795292Y11729331D01*
Y11728984D01*
X8795118Y11727076D01*
X8794945Y11725341D01*
Y11628191D01*
X8925230D01*
X8921066D01*
X8922280Y11628364D01*
X8922627Y11628538D01*
X8922801D01*
X8923321Y11629058D01*
X8923842Y11629579D01*
X8924015Y11630099D01*
X8924189Y11630273D01*
X8924536Y11631487D01*
X8924709Y11632701D01*
X8924883Y11633569D01*
Y11633916D01*
X8925056Y11635824D01*
X8925230Y11637732D01*
Y11645713D01*
Y11642243D01*
X8925056Y11644151D01*
Y11644845D01*
X8924883Y11645366D01*
Y11645713D01*
X8924709Y11647274D01*
X8924536Y11648488D01*
X8924189Y11649182D01*
Y11649356D01*
X8923668Y11650223D01*
X8923321Y11650917D01*
X8922974Y11651090D01*
X8922801Y11651264D01*
X8922107Y11651611D01*
X8921586Y11651958D01*
X8921239D01*
X8921066D01*
X8853408D01*
X8850632D01*
X8847857D01*
X8845428D01*
X8843173D01*
X8841264Y11651784D01*
X8839876D01*
X8839009D01*
X8838662D01*
X8833458Y11651611D01*
X8831029Y11651437D01*
X8828774D01*
X8826865Y11651264D01*
X8825477D01*
X8824610Y11651090D01*
X8824263D01*
Y11651437D01*
X8828600Y11653172D01*
X8830682Y11654040D01*
X8832590Y11654734D01*
X8834151Y11655428D01*
X8835366Y11655948D01*
X8836060Y11656295D01*
X8836407Y11656468D01*
X8838662Y11657509D01*
X8840917Y11658550D01*
X8842826Y11659591D01*
X8844560Y11660459D01*
X8846122Y11661152D01*
X8847163Y11661673D01*
X8848030Y11662020D01*
X8848204Y11662193D01*
X8908575Y11694288D01*
X8910310Y11695155D01*
X8912045Y11696022D01*
X8913433Y11696716D01*
X8914474Y11697410D01*
X8915515Y11697931D01*
X8916208Y11698278D01*
X8916555Y11698625D01*
X8916729D01*
X8918811Y11700186D01*
X8920372Y11701574D01*
X8921413Y11702441D01*
X8921586Y11702615D01*
X8921760Y11702788D01*
X8922801Y11704523D01*
X8923668Y11705911D01*
X8924015Y11707125D01*
X8924189Y11707299D01*
Y11707472D01*
X8924536Y11709554D01*
X8924709Y11711636D01*
X8924883Y11712503D01*
Y11724820D01*
X8924709Y11726208D01*
X8924536Y11727423D01*
X8924362Y11728290D01*
Y11728637D01*
X8923842Y11729851D01*
X8923321Y11730892D01*
X8922801Y11731586D01*
X8922627Y11731760D01*
X8921586Y11732627D01*
X8920719Y11733494D01*
X8920025Y11733841D01*
X8919678Y11734015D01*
X8918290Y11734535D01*
X8916902Y11734709D01*
X8915862Y11734882D01*
X8925230D01*
D02*
G37*
G36*
X8916208Y11604944D02*
X8912392D01*
X8911004Y11604771D01*
X8909963Y11604597D01*
X8909616D01*
X8908402Y11604424D01*
X8907361Y11604250D01*
X8906667Y11604077D01*
X8906493Y11603903D01*
X8905626Y11603556D01*
X8905106Y11603036D01*
X8904932Y11602689D01*
X8904759Y11602516D01*
X8904412Y11601995D01*
X8904065Y11601475D01*
Y11554461D01*
X8867634D01*
Y11593494D01*
X8867460Y11594535D01*
X8867287Y11594882D01*
Y11595056D01*
X8866766Y11595576D01*
X8866246Y11596097D01*
X8865725Y11596270D01*
X8865552Y11596444D01*
X8864511Y11596791D01*
X8863643Y11596964D01*
X8862950Y11597138D01*
X8862603D01*
X8861041Y11597311D01*
X8859480Y11597485D01*
X8858786D01*
X8858265D01*
X8857919D01*
X8857745D01*
X8855837D01*
X8854275Y11597311D01*
X8853408Y11597138D01*
X8853061D01*
X8851673Y11596964D01*
X8850632Y11596791D01*
X8850112Y11596617D01*
X8849938Y11596444D01*
X8849071Y11596097D01*
X8848551Y11595576D01*
X8848377Y11595229D01*
X8848204Y11595056D01*
X8847857Y11594535D01*
X8847510Y11594015D01*
Y11554461D01*
X8815936D01*
Y11600607D01*
X8815762Y11601301D01*
X8815589Y11601648D01*
X8815415Y11601995D01*
Y11602169D01*
X8814895Y11602689D01*
X8814375Y11603036D01*
X8813854Y11603383D01*
X8813681D01*
X8812640Y11603730D01*
X8811599Y11603903D01*
X8810905Y11604077D01*
X8810558D01*
X8808997Y11604250D01*
X8807435Y11604424D01*
X8806915D01*
X8806394D01*
X8806047D01*
X8805874D01*
X8803792D01*
X8802231Y11604250D01*
X8801190Y11604077D01*
X8800843D01*
X8799629Y11603903D01*
X8798588Y11603730D01*
X8797894Y11603556D01*
X8797720Y11603383D01*
X8796853Y11603036D01*
X8796159Y11602516D01*
X8795985Y11602342D01*
X8795812Y11602169D01*
X8795465Y11601648D01*
X8795292Y11601128D01*
Y11604944D01*
D01*
Y11528265D01*
X8924709D01*
D01*
X8916555D01*
X8918117Y11528439D01*
X8919331Y11528612D01*
X8920372Y11528959D01*
X8921239Y11529306D01*
X8921933Y11529653D01*
X8922454Y11530000D01*
X8922627Y11530347D01*
X8922801D01*
X8923495Y11531214D01*
X8923842Y11532255D01*
X8924536Y11533990D01*
Y11534684D01*
X8924709Y11535378D01*
Y11600954D01*
X8924536Y11601648D01*
X8924362Y11601995D01*
X8924189Y11602342D01*
Y11602516D01*
X8923668Y11603036D01*
X8923148Y11603556D01*
X8922627Y11603730D01*
X8922454Y11603903D01*
X8921413Y11604250D01*
X8920372Y11604424D01*
X8919678Y11604597D01*
X8919331D01*
X8917770Y11604771D01*
X8916208Y11604944D01*
D02*
G37*
%LPD*%
G36*
X8794598Y11910099D02*
Y11907497D01*
X8794771Y11906803D01*
Y11906629D01*
X8794945Y11905762D01*
X8795118Y11905068D01*
X8795292Y11904721D01*
Y11904548D01*
X8795638Y11903680D01*
X8795812Y11903507D01*
Y11903333D01*
X8813854Y11875576D01*
X8814375Y11874709D01*
X8814722Y11874188D01*
X8815068Y11873841D01*
X8815242Y11873668D01*
X8815762Y11873147D01*
X8816456Y11872974D01*
X8816977Y11872627D01*
X8817150D01*
X8818018Y11872454D01*
X8818885Y11872280D01*
X8819406Y11872107D01*
X8794424D01*
Y11911140D01*
X8794598Y11910099D01*
D02*
G37*
G36*
X8795118Y11718922D02*
Y11718228D01*
X8795292Y11717708D01*
Y11717361D01*
X8795465Y11715799D01*
X8795812Y11714585D01*
X8795985Y11713891D01*
X8796159Y11713544D01*
X8796506Y11712677D01*
X8797026Y11712156D01*
X8797373Y11711809D01*
X8797547Y11711636D01*
X8798067Y11711289D01*
X8798588Y11711115D01*
X8799108D01*
X8799282D01*
X8860000D01*
X8865205D01*
X8867634D01*
X8869889D01*
X8871797D01*
X8873185D01*
X8874226D01*
X8874399D01*
X8874573D01*
X8877349D01*
X8879951Y11711289D01*
X8882379D01*
X8884635Y11711462D01*
X8886370D01*
X8887757Y11711636D01*
X8888625D01*
X8888972D01*
Y11711462D01*
X8886023Y11710248D01*
X8884635Y11709554D01*
X8883420Y11709033D01*
X8882379Y11708513D01*
X8881686Y11708166D01*
X8881165Y11707993D01*
X8880992Y11707819D01*
X8878042Y11706431D01*
X8876655Y11705737D01*
X8875440Y11705043D01*
X8874399Y11704523D01*
X8873532Y11704176D01*
X8873011Y11704002D01*
X8872838Y11703829D01*
X8869715Y11702441D01*
X8868501Y11701747D01*
X8867113Y11701053D01*
X8866246Y11700533D01*
X8865378Y11700186D01*
X8864858Y11700012D01*
X8864684Y11699839D01*
X8861562Y11698278D01*
X8860174Y11697584D01*
X8858786Y11696890D01*
X8857745Y11696369D01*
X8856878Y11695849D01*
X8856357Y11695675D01*
X8856184Y11695502D01*
X8808823Y11670347D01*
X8806221Y11669133D01*
X8805180Y11668439D01*
X8804139Y11667918D01*
X8803445Y11667398D01*
X8802925Y11667051D01*
X8802578Y11666877D01*
X8802404Y11666704D01*
X8800496Y11665316D01*
X8799282Y11664102D01*
X8798414Y11663234D01*
X8798241Y11663061D01*
Y11662887D01*
X8797200Y11661326D01*
X8796506Y11659765D01*
X8796159Y11658724D01*
X8795985Y11658377D01*
Y11658203D01*
X8795638Y11656121D01*
X8795292Y11654040D01*
Y11637559D01*
X8795465Y11636171D01*
X8795638Y11634783D01*
X8795985Y11633742D01*
X8796506Y11632701D01*
X8797026Y11631834D01*
X8797373Y11631314D01*
X8797547Y11630967D01*
X8797720Y11630793D01*
X8798761Y11629926D01*
X8799802Y11629232D01*
X8801016Y11628885D01*
X8802231Y11628538D01*
X8803272Y11628364D01*
X8804139Y11628191D01*
X8794945D01*
Y11720830D01*
X8795118Y11718922D01*
D02*
G37*
G36*
X8795638Y11533643D02*
X8796332Y11531908D01*
X8796679Y11531214D01*
X8797026Y11530694D01*
X8797200Y11530521D01*
X8797373Y11530347D01*
X8798241Y11529653D01*
X8799108Y11529133D01*
X8801190Y11528612D01*
X8802057Y11528439D01*
X8802925Y11528265D01*
X8795292D01*
Y11534684D01*
X8795638Y11533643D01*
D02*
G37*
%LPC*%
G36*
X4578524Y12541802D02*
X4432312D01*
X4442101D01*
X4440227Y12541594D01*
X4438769Y12541385D01*
X4437519Y12540969D01*
X4436478Y12540552D01*
X4435644Y12540136D01*
X4435020Y12539719D01*
X4434811Y12539303D01*
X4434603D01*
X4433770Y12538261D01*
X4433353Y12537012D01*
X4432520Y12534929D01*
Y12534096D01*
X4432312Y12533262D01*
Y12449742D01*
Y12454533D01*
X4432520Y12453700D01*
X4432728Y12453283D01*
X4432937Y12452866D01*
Y12452658D01*
X4433562Y12452033D01*
X4434186Y12451408D01*
X4434811Y12451200D01*
X4435020Y12450992D01*
X4436269Y12450575D01*
X4437519Y12450367D01*
X4438352Y12450159D01*
X4438769D01*
X4440643Y12449950D01*
X4442518Y12449742D01*
X4587689D01*
X4447100D01*
X4448766Y12449950D01*
X4450016Y12450159D01*
X4450432D01*
X4451890Y12450367D01*
X4453140Y12450575D01*
X4453973Y12450784D01*
X4454181Y12450992D01*
X4455223Y12451408D01*
X4455848Y12452033D01*
X4456056Y12452450D01*
X4456264Y12452658D01*
X4456681Y12453283D01*
X4457097Y12453908D01*
Y12510352D01*
X4500836D01*
Y12463489D01*
X4501044Y12462239D01*
X4501253Y12461822D01*
Y12461614D01*
X4501877Y12460989D01*
X4502502Y12460364D01*
X4503127Y12460156D01*
X4503335Y12459948D01*
X4504585Y12459531D01*
X4505626Y12459323D01*
X4506460Y12459115D01*
X4506876D01*
X4508751Y12458907D01*
X4510625Y12458698D01*
X4511458D01*
X4512083D01*
X4512500D01*
X4512708D01*
X4514999D01*
X4516874Y12458907D01*
X4517915Y12459115D01*
X4518332D01*
X4519998Y12459323D01*
X4521247Y12459531D01*
X4521872Y12459740D01*
X4522081Y12459948D01*
X4523122Y12460364D01*
X4523747Y12460989D01*
X4523955Y12461406D01*
X4524163Y12461614D01*
X4524580Y12462239D01*
X4524997Y12462864D01*
Y12510352D01*
X4562903D01*
Y12454949D01*
X4563112Y12454116D01*
X4563320Y12453700D01*
X4563528Y12453283D01*
Y12453075D01*
X4564153Y12452450D01*
X4564778Y12452033D01*
X4565403Y12451617D01*
X4565611D01*
X4566861Y12451200D01*
X4568110Y12450992D01*
X4568944Y12450784D01*
X4569360D01*
X4571235Y12450575D01*
X4573109Y12450367D01*
X4573734D01*
X4574359D01*
X4574775D01*
X4574984D01*
X4577483D01*
X4579358Y12450575D01*
X4580607Y12450784D01*
X4581024D01*
X4582482Y12450992D01*
X4583731Y12451200D01*
X4584565Y12451408D01*
X4584773Y12451617D01*
X4585814Y12452033D01*
X4586647Y12452658D01*
X4586856Y12452866D01*
X4587064Y12453075D01*
X4587481Y12453700D01*
X4587689Y12454324D01*
Y12534096D01*
X4587272Y12535345D01*
X4586439Y12537428D01*
X4586023Y12538261D01*
X4585606Y12538886D01*
X4585398Y12539094D01*
X4585189Y12539303D01*
X4584148Y12540136D01*
X4583107Y12540761D01*
X4580607Y12541385D01*
X4579566Y12541594D01*
X4578524Y12541802D01*
D02*
G37*
G36*
X4588105Y12421833D02*
D01*
Y12310611D01*
X4587897Y12312902D01*
Y12313735D01*
X4587689Y12314360D01*
Y12314777D01*
X4587481Y12316651D01*
X4587064Y12318109D01*
X4586856Y12318942D01*
X4586647Y12319359D01*
X4586231Y12320400D01*
X4585606Y12321025D01*
X4585189Y12321442D01*
X4584981Y12321650D01*
X4584356Y12322067D01*
X4583731Y12322275D01*
X4583107D01*
X4582898D01*
X4510000D01*
X4503752D01*
X4500836D01*
X4498128D01*
X4495837D01*
X4494171D01*
X4492921D01*
X4492713D01*
X4492505D01*
X4489172D01*
X4486048Y12322067D01*
X4483132D01*
X4480425Y12321858D01*
X4478342D01*
X4476676Y12321650D01*
X4475634D01*
X4475218D01*
Y12321858D01*
X4478758Y12323316D01*
X4480425Y12324149D01*
X4481883Y12324774D01*
X4483132Y12325399D01*
X4483965Y12325816D01*
X4484590Y12326024D01*
X4484798Y12326232D01*
X4488339Y12327898D01*
X4490005Y12328732D01*
X4491463Y12329565D01*
X4492713Y12330189D01*
X4493755Y12330606D01*
X4494379Y12330814D01*
X4494588Y12331023D01*
X4498337Y12332689D01*
X4499795Y12333522D01*
X4501461Y12334355D01*
X4502502Y12334980D01*
X4503544Y12335396D01*
X4504169Y12335605D01*
X4504377Y12335813D01*
X4508126Y12337688D01*
X4509792Y12338521D01*
X4511458Y12339354D01*
X4512708Y12339979D01*
X4513749Y12340603D01*
X4514374Y12340812D01*
X4514583Y12341020D01*
X4571443Y12371221D01*
X4574567Y12372679D01*
X4575817Y12373512D01*
X4577067Y12374137D01*
X4577900Y12374761D01*
X4578524Y12375178D01*
X4578941Y12375386D01*
X4579149Y12375595D01*
X4581440Y12377261D01*
X4582898Y12378719D01*
X4583940Y12379760D01*
X4584148Y12379968D01*
Y12380177D01*
X4585398Y12382051D01*
X4586231Y12383926D01*
X4586647Y12385175D01*
X4586856Y12385592D01*
Y12385800D01*
X4587272Y12388300D01*
X4587689Y12390799D01*
Y12410586D01*
X4587481Y12412252D01*
X4587272Y12413918D01*
X4586856Y12415168D01*
X4586231Y12416417D01*
X4585606Y12417459D01*
X4585189Y12418084D01*
X4584981Y12418500D01*
X4584773Y12418708D01*
X4583523Y12419750D01*
X4582274Y12420583D01*
X4580816Y12421000D01*
X4579358Y12421416D01*
X4578108Y12421624D01*
X4577067Y12421833D01*
X4436686D01*
X4435228Y12421624D01*
X4434811Y12421416D01*
X4434603D01*
X4433978Y12420791D01*
X4433353Y12420166D01*
X4433145Y12419542D01*
X4432937Y12419333D01*
X4432520Y12417875D01*
X4432312Y12416417D01*
X4432104Y12415376D01*
Y12414959D01*
X4431895Y12412668D01*
X4431687Y12410377D01*
Y12404962D01*
X4431895Y12402671D01*
Y12401838D01*
X4432104Y12401213D01*
Y12400796D01*
X4432312Y12398922D01*
X4432520Y12397464D01*
X4432937Y12396631D01*
Y12396423D01*
X4433562Y12395381D01*
X4433978Y12394548D01*
X4434395Y12394340D01*
X4434603Y12394131D01*
X4435436Y12393715D01*
X4436061Y12393298D01*
X4436478D01*
X4436686D01*
X4517915D01*
X4521247D01*
X4524580D01*
X4527496D01*
X4530204D01*
X4532495Y12393507D01*
X4534161D01*
X4535202D01*
X4535619D01*
X4541867Y12393715D01*
X4544783Y12393923D01*
X4547491D01*
X4549782Y12394131D01*
X4551448D01*
X4552489Y12394340D01*
X4552906D01*
Y12393923D01*
X4547699Y12391840D01*
X4545200Y12390799D01*
X4542909Y12389966D01*
X4541034Y12389133D01*
X4539576Y12388508D01*
X4538743Y12388091D01*
X4538326Y12387883D01*
X4535619Y12386633D01*
X4532911Y12385384D01*
X4530620Y12384134D01*
X4528537Y12383093D01*
X4526663Y12382259D01*
X4525413Y12381635D01*
X4524372Y12381218D01*
X4524163Y12381010D01*
X4451682Y12342478D01*
X4449599Y12341437D01*
X4447516Y12340395D01*
X4445850Y12339562D01*
X4444600Y12338729D01*
X4443351Y12338104D01*
X4442518Y12337688D01*
X4442101Y12337271D01*
X4441893D01*
X4439393Y12335396D01*
X4437519Y12333730D01*
X4436269Y12332689D01*
X4436061Y12332481D01*
X4435853Y12332272D01*
X4434603Y12330189D01*
X4433562Y12328523D01*
X4433145Y12327065D01*
X4432937Y12326857D01*
Y12326649D01*
X4432520Y12324149D01*
X4432312Y12321650D01*
X4432104Y12320609D01*
Y12305821D01*
X4432312Y12304154D01*
X4432520Y12302697D01*
X4432728Y12301655D01*
Y12301239D01*
X4433353Y12299781D01*
X4433978Y12298531D01*
X4434603Y12297698D01*
X4434811Y12297490D01*
X4436061Y12296448D01*
X4437102Y12295407D01*
X4437935Y12294990D01*
X4438352Y12294782D01*
X4440018Y12294157D01*
X4441685Y12293949D01*
X4442934Y12293740D01*
X4431687D01*
D01*
X4588105D01*
Y12421833D01*
D02*
G37*
G36*
X4590188Y12267289D02*
D01*
Y12195432D01*
X4589980Y12201264D01*
X4589355Y12206679D01*
X4588522Y12211678D01*
X4587481Y12215844D01*
X4587064Y12217927D01*
X4586439Y12219593D01*
X4586023Y12221051D01*
X4585606Y12222300D01*
X4585189Y12223342D01*
X4584981Y12223967D01*
X4584773Y12224383D01*
Y12224592D01*
X4582482Y12229382D01*
X4579982Y12233756D01*
X4577275Y12237713D01*
X4574775Y12241046D01*
X4572484Y12243753D01*
X4570402Y12245836D01*
X4569152Y12247086D01*
X4568944Y12247294D01*
X4568735Y12247502D01*
X4564570Y12250835D01*
X4560404Y12253751D01*
X4556030Y12256250D01*
X4551865Y12258333D01*
X4548324Y12259999D01*
X4546866Y12260624D01*
X4545408Y12261041D01*
X4544367Y12261457D01*
X4543533Y12261874D01*
X4543117Y12262082D01*
X4542909D01*
X4537077Y12263748D01*
X4531037Y12264998D01*
X4525205Y12266039D01*
X4519790Y12266664D01*
X4517290Y12266872D01*
X4514999Y12267081D01*
X4512916D01*
X4511250Y12267289D01*
X4507918D01*
X4500836Y12267081D01*
X4494379Y12266456D01*
X4488548Y12265831D01*
X4485840Y12265414D01*
X4483549Y12264790D01*
X4481258Y12264373D01*
X4479383Y12263956D01*
X4477717Y12263540D01*
X4476259Y12263332D01*
X4475218Y12262915D01*
X4474384Y12262707D01*
X4473968Y12262498D01*
X4473760D01*
X4468553Y12260624D01*
X4463762Y12258333D01*
X4459597Y12256042D01*
X4456056Y12253751D01*
X4453348Y12251876D01*
X4451057Y12250210D01*
X4450432Y12249585D01*
X4449807Y12249169D01*
X4449599Y12248752D01*
X4449391D01*
X4445850Y12245211D01*
X4442934Y12241670D01*
X4440435Y12237921D01*
X4438352Y12234589D01*
X4436686Y12231673D01*
X4435644Y12229174D01*
X4435228Y12228341D01*
X4434811Y12227716D01*
X4434603Y12227299D01*
Y12227091D01*
X4432937Y12222092D01*
X4431895Y12217093D01*
X4431062Y12212303D01*
X4430437Y12207721D01*
X4430021Y12203972D01*
Y12202306D01*
X4429813Y12200848D01*
Y12195224D01*
X4430021Y12192308D01*
X4430229Y12189809D01*
X4430437Y12187518D01*
X4430646Y12185643D01*
X4430854Y12184393D01*
X4431062Y12183352D01*
Y12183144D01*
X4431479Y12180644D01*
X4432104Y12178145D01*
X4432520Y12176062D01*
X4433145Y12174188D01*
X4433562Y12172730D01*
X4433978Y12171688D01*
X4434186Y12170855D01*
Y12170647D01*
X4435020Y12168564D01*
X4435644Y12166898D01*
X4436478Y12165232D01*
X4437102Y12163774D01*
X4437519Y12162732D01*
X4437935Y12161899D01*
X4438352Y12161483D01*
Y12161274D01*
X4439185Y12160025D01*
X4439810Y12158983D01*
X4441060Y12157317D01*
X4441893Y12156484D01*
X4442101Y12156276D01*
X4443142Y12155443D01*
X4443976Y12154818D01*
X4444392Y12154401D01*
X4444600D01*
X4446267Y12153568D01*
X4446892Y12153360D01*
X4447100D01*
X4448349Y12153151D01*
X4449391Y12152943D01*
X4450224Y12152735D01*
X4450641D01*
X4452307Y12152527D01*
X4429813D01*
D01*
X4590188D01*
Y12267289D01*
D02*
G37*
G36*
X4590396Y12084211D02*
Y12027350D01*
X4590188Y12032974D01*
X4589563Y12037973D01*
X4588522Y12042555D01*
X4587481Y12046512D01*
X4586439Y12049636D01*
X4586023Y12050886D01*
X4585398Y12051927D01*
X4585189Y12052761D01*
X4584773Y12053385D01*
X4584565Y12053594D01*
Y12053802D01*
X4582274Y12057759D01*
X4579566Y12061092D01*
X4576858Y12064216D01*
X4574359Y12066715D01*
X4572068Y12068798D01*
X4569985Y12070256D01*
X4568735Y12071089D01*
X4568527Y12071506D01*
X4568319D01*
X4564153Y12073797D01*
X4559988Y12075880D01*
X4555614Y12077546D01*
X4551656Y12078796D01*
X4548116Y12080045D01*
X4546449Y12080462D01*
X4545200Y12080670D01*
X4544158Y12080878D01*
X4543325Y12081087D01*
X4542909Y12081295D01*
X4542700D01*
X4536868Y12082336D01*
X4531245Y12082961D01*
X4525621Y12083586D01*
X4520414Y12083794D01*
X4518123Y12084003D01*
X4516040D01*
X4514166Y12084211D01*
X4509376D01*
X4502502Y12084003D01*
X4496254Y12083794D01*
X4490422Y12083378D01*
X4487923Y12083169D01*
X4485423Y12082961D01*
X4483341Y12082753D01*
X4481466Y12082545D01*
X4479591D01*
X4478342Y12082336D01*
X4477092Y12082128D01*
X4476259Y12081920D01*
X4475842D01*
X4475634D01*
X4470219Y12080878D01*
X4465428Y12079420D01*
X4461263Y12078171D01*
X4457514Y12076713D01*
X4454598Y12075463D01*
X4452515Y12074422D01*
X4451682Y12074005D01*
X4451057Y12073589D01*
X4450849Y12073380D01*
X4450641D01*
X4447100Y12070881D01*
X4443976Y12068173D01*
X4441268Y12065257D01*
X4438977Y12062758D01*
X4437311Y12060259D01*
X4436061Y12058384D01*
X4435228Y12057134D01*
X4435020Y12056926D01*
Y12056718D01*
X4433145Y12052552D01*
X4431895Y12048178D01*
X4430854Y12043804D01*
X4430229Y12039639D01*
X4429813Y12035890D01*
Y12034224D01*
X4429604Y12032974D01*
Y12034640D01*
Y12032974D01*
Y12030266D01*
X4429813Y12024643D01*
X4430437Y12019436D01*
X4431479Y12015062D01*
X4432520Y12011105D01*
X4433353Y12007980D01*
X4433978Y12006731D01*
X4434395Y12005689D01*
X4434811Y12004856D01*
X4435020Y12004231D01*
X4435228Y12004023D01*
Y12003815D01*
X4437519Y11999857D01*
X4440018Y11996317D01*
X4442726Y11993401D01*
X4445434Y11990901D01*
X4447725Y11988819D01*
X4449599Y11987361D01*
X4450849Y11986319D01*
X4451057Y11986111D01*
X4451265D01*
X4455431Y11983612D01*
X4459805Y11981737D01*
X4463970Y11980071D01*
X4468136Y11978613D01*
X4471677Y11977571D01*
X4473135Y11977155D01*
X4474384Y11976947D01*
X4475426Y11976530D01*
X4476259D01*
X4476676Y11976322D01*
X4476884D01*
X4482716Y11975280D01*
X4488548Y11974447D01*
X4494171Y11974031D01*
X4499378Y11973614D01*
X4501669Y11973406D01*
X4503752D01*
X4505626Y11973198D01*
X4429604D01*
X4517290D01*
X4523539Y11973614D01*
X4529370Y11974031D01*
X4531870Y11974239D01*
X4534161Y11974447D01*
X4536452Y11974656D01*
X4538326Y11974864D01*
X4539993Y11975072D01*
X4541451Y11975280D01*
X4542492Y11975489D01*
X4543325D01*
X4543742Y11975697D01*
X4543950D01*
X4549365Y11976738D01*
X4554156Y11977988D01*
X4558530Y11979446D01*
X4562279Y11980904D01*
X4565195Y11982154D01*
X4567277Y11983195D01*
X4568110Y11983612D01*
X4568735Y11984028D01*
X4568944Y11984236D01*
X4569152D01*
X4572693Y11986736D01*
X4575817Y11989443D01*
X4578524Y11992151D01*
X4580816Y11994859D01*
X4582482Y11997150D01*
X4583731Y11999233D01*
X4584565Y12000482D01*
X4584773Y12000691D01*
Y12000899D01*
X4586647Y12005064D01*
X4588105Y12009438D01*
X4588938Y12013812D01*
X4589772Y12017978D01*
X4590188Y12021727D01*
Y12023393D01*
X4590396Y12024643D01*
Y11973198D01*
D01*
Y12084211D01*
D02*
G37*
%LPD*%
G36*
X4588105Y12293740D02*
X4583731D01*
X4584356Y12293949D01*
X4584773Y12294157D01*
X4584981Y12294365D01*
X4585606Y12294990D01*
X4586231Y12295823D01*
X4586439Y12296448D01*
X4586647Y12296656D01*
X4587272Y12297906D01*
X4587481Y12299364D01*
X4587689Y12300405D01*
Y12300822D01*
X4587897Y12303113D01*
X4588105Y12305196D01*
Y12293740D01*
D02*
G37*
G36*
X4514166Y12232923D02*
X4518332Y12232714D01*
X4522289Y12232298D01*
X4525621Y12231881D01*
X4528329Y12231465D01*
X4530412Y12231048D01*
X4531037Y12230840D01*
X4531661Y12230632D01*
X4531870D01*
X4532078D01*
X4535619Y12229590D01*
X4538951Y12228341D01*
X4541867Y12227091D01*
X4544367Y12225841D01*
X4546241Y12224592D01*
X4547699Y12223758D01*
X4548740Y12223134D01*
X4548949Y12222925D01*
X4551448Y12220842D01*
X4553739Y12218760D01*
X4555405Y12216677D01*
X4557072Y12214802D01*
X4558321Y12213136D01*
X4559154Y12211886D01*
X4559571Y12210845D01*
X4559779Y12210637D01*
X4561029Y12207721D01*
X4562070Y12205013D01*
X4562695Y12202097D01*
X4563320Y12199598D01*
X4563528Y12197307D01*
X4563737Y12195641D01*
Y12191058D01*
X4563320Y12188143D01*
X4563112Y12185851D01*
X4562695Y12183560D01*
X4562279Y12181894D01*
X4561862Y12180644D01*
X4561654Y12179811D01*
X4561446Y12179603D01*
X4560612Y12177312D01*
X4559779Y12175437D01*
X4559154Y12173563D01*
X4558321Y12172105D01*
X4557696Y12170855D01*
X4557280Y12170022D01*
X4557072Y12169397D01*
X4556863Y12169189D01*
X4555197Y12166273D01*
X4553739Y12163982D01*
X4553114Y12163149D01*
X4552698Y12162524D01*
X4552281Y12162316D01*
Y12162108D01*
X4551032Y12160233D01*
X4550407Y12158775D01*
X4550198Y12157734D01*
Y12157525D01*
X4550407Y12156692D01*
X4550615Y12156276D01*
X4550823Y12155859D01*
Y12155651D01*
X4551448Y12155026D01*
X4552073Y12154609D01*
X4552698Y12154193D01*
X4552906D01*
X4554364Y12153776D01*
X4555614Y12153568D01*
X4556655Y12153360D01*
X4557072D01*
X4559154Y12153151D01*
X4561237Y12152943D01*
X4562070D01*
X4562695D01*
X4563112D01*
X4563320D01*
X4565611D01*
X4567486D01*
X4568527Y12153151D01*
X4568944D01*
X4570610Y12153360D01*
X4571860Y12153568D01*
X4572693Y12153776D01*
X4572901D01*
X4573942Y12154193D01*
X4574984Y12154401D01*
X4575400Y12154609D01*
X4575609Y12154818D01*
X4576650Y12155234D01*
X4577483Y12156067D01*
X4578108Y12156692D01*
X4578316Y12156901D01*
X4578941Y12157525D01*
X4579566Y12158567D01*
X4581024Y12160441D01*
X4581440Y12161274D01*
X4581857Y12162108D01*
X4582274Y12162524D01*
Y12162732D01*
X4583940Y12165857D01*
X4585189Y12168772D01*
X4585606Y12170022D01*
X4586023Y12171064D01*
X4586231Y12171688D01*
Y12171897D01*
X4587272Y12175646D01*
X4587897Y12177520D01*
X4588314Y12179186D01*
X4588522Y12180853D01*
X4588730Y12181894D01*
X4588938Y12182727D01*
Y12182936D01*
X4589772Y12187518D01*
X4589980Y12189600D01*
Y12191475D01*
X4590188Y12193141D01*
Y12152527D01*
X4458555D01*
X4460846Y12152735D01*
X4461471D01*
X4462096Y12152943D01*
X4462304D01*
X4462513D01*
X4464387Y12153151D01*
X4465637Y12153360D01*
X4466470Y12153568D01*
X4466678D01*
X4467511Y12153985D01*
X4468136Y12154401D01*
X4468553Y12154609D01*
Y12154818D01*
X4468969Y12155443D01*
X4469177Y12156067D01*
Y12156692D01*
X4468761Y12158150D01*
X4468136Y12159608D01*
X4467511Y12160858D01*
X4467095Y12161066D01*
Y12161274D01*
X4465637Y12163565D01*
X4464179Y12165857D01*
X4463554Y12166898D01*
X4463137Y12167523D01*
X4462929Y12168148D01*
X4462721Y12168356D01*
X4461055Y12171897D01*
X4459597Y12175229D01*
X4459180Y12176687D01*
X4458763Y12177729D01*
X4458347Y12178562D01*
Y12178770D01*
X4457722Y12181061D01*
X4457306Y12183560D01*
X4456889Y12186060D01*
X4456681Y12188143D01*
Y12190225D01*
X4456472Y12191683D01*
Y12193141D01*
X4456681Y12196474D01*
X4456889Y12199598D01*
X4457514Y12202514D01*
X4458139Y12205013D01*
X4458555Y12207096D01*
X4459180Y12208554D01*
X4459388Y12209387D01*
X4459597Y12209804D01*
X4460846Y12212511D01*
X4462513Y12214802D01*
X4463970Y12216885D01*
X4465637Y12218760D01*
X4466886Y12220218D01*
X4468136Y12221467D01*
X4468969Y12222092D01*
X4469177Y12222300D01*
X4471677Y12224175D01*
X4474384Y12225841D01*
X4477300Y12227091D01*
X4479800Y12228341D01*
X4482091Y12229174D01*
X4483965Y12229799D01*
X4485215Y12230215D01*
X4485423Y12230423D01*
X4485632D01*
X4489589Y12231256D01*
X4493755Y12231881D01*
X4497712Y12232506D01*
X4501461Y12232714D01*
X4504793Y12232923D01*
X4506043Y12233131D01*
X4507293D01*
X4508334D01*
X4508959D01*
X4509376D01*
X4509584D01*
X4514166Y12232923D01*
D02*
G37*
G36*
X4520206Y12052136D02*
X4524372Y12051927D01*
X4527704Y12051719D01*
X4530620D01*
X4532703Y12051511D01*
X4533536Y12051303D01*
X4534161D01*
X4534369D01*
X4534577D01*
X4538326Y12050886D01*
X4541659Y12050261D01*
X4544575Y12049636D01*
X4546866Y12049011D01*
X4548949Y12048387D01*
X4550407Y12047970D01*
X4551448Y12047762D01*
X4551656Y12047554D01*
X4554156Y12046512D01*
X4556239Y12045262D01*
X4557905Y12044013D01*
X4559363Y12042971D01*
X4560404Y12041930D01*
X4561237Y12041097D01*
X4561654Y12040472D01*
X4561862Y12040264D01*
X4563112Y12038389D01*
X4563945Y12036515D01*
X4564570Y12034640D01*
X4564986Y12032766D01*
X4565195Y12031099D01*
X4565403Y12029850D01*
Y12028600D01*
X4565195Y12025684D01*
X4564778Y12023393D01*
X4564570Y12022560D01*
X4564361Y12021935D01*
X4564153Y12021519D01*
Y12021310D01*
X4563112Y12018811D01*
X4561862Y12016936D01*
X4560821Y12015687D01*
X4560612Y12015478D01*
X4560404Y12015270D01*
X4558321Y12013396D01*
X4556030Y12011938D01*
X4554989Y12011521D01*
X4554364Y12011105D01*
X4553739Y12010688D01*
X4553531D01*
X4550198Y12009438D01*
X4546866Y12008397D01*
X4545408Y12007980D01*
X4544158Y12007772D01*
X4543325Y12007564D01*
X4543117D01*
X4540618Y12007147D01*
X4538118Y12006731D01*
X4535619Y12006314D01*
X4533328Y12006106D01*
X4531453Y12005898D01*
X4529787D01*
X4528746Y12005689D01*
X4528329D01*
X4525205Y12005481D01*
X4521872Y12005273D01*
X4518540D01*
X4515624Y12005064D01*
X4512916D01*
X4510833D01*
X4510000D01*
X4509376D01*
X4509167D01*
X4508959D01*
X4505626D01*
X4502502D01*
X4499586Y12005273D01*
X4497087D01*
X4495004Y12005481D01*
X4493546D01*
X4492505Y12005689D01*
X4492088D01*
X4489381Y12005898D01*
X4486881Y12006106D01*
X4484590Y12006314D01*
X4482507Y12006522D01*
X4480841Y12006731D01*
X4479591Y12006939D01*
X4478758Y12007147D01*
X4478550D01*
X4474384Y12007980D01*
X4472718Y12008605D01*
X4471260Y12009022D01*
X4469802Y12009438D01*
X4468969Y12009647D01*
X4468344Y12010063D01*
X4468136D01*
X4465012Y12011521D01*
X4463762Y12012354D01*
X4462513Y12012979D01*
X4461679Y12013604D01*
X4461055Y12014229D01*
X4460638Y12014437D01*
X4460430Y12014645D01*
X4458555Y12016728D01*
X4457097Y12018811D01*
X4456681Y12019644D01*
X4456264Y12020269D01*
X4456056Y12020685D01*
Y12020894D01*
X4455223Y12023601D01*
X4454806Y12026309D01*
X4454598Y12027350D01*
Y12029017D01*
X4454806Y12031308D01*
X4455014Y12033390D01*
X4455431Y12035265D01*
X4455848Y12036723D01*
X4456264Y12037973D01*
X4456681Y12039014D01*
X4457097Y12039639D01*
Y12039847D01*
X4458139Y12041513D01*
X4459597Y12042763D01*
X4462513Y12045054D01*
X4463970Y12045887D01*
X4465012Y12046512D01*
X4465845Y12046929D01*
X4466053Y12047137D01*
X4468553Y12048178D01*
X4471469Y12048803D01*
X4474384Y12049636D01*
X4477092Y12050053D01*
X4479591Y12050469D01*
X4481466Y12050886D01*
X4482299D01*
X4482924Y12051094D01*
X4483132D01*
X4483341D01*
X4487714Y12051511D01*
X4492297Y12051719D01*
X4496879Y12052136D01*
X4501253D01*
X4505002Y12052344D01*
X4506668D01*
X4508126D01*
X4509167D01*
X4510000D01*
X4510625D01*
X4510833D01*
X4515832D01*
X4520206Y12052136D01*
D02*
G37*
%LPC*%
G36*
X5210378Y11494477D02*
Y11439126D01*
X5182174D01*
Y11494477D01*
X5047147D01*
Y11345347D01*
X5210378D01*
Y11494477D01*
D02*
G37*
G36*
X6357759Y11494653D02*
X6199639D01*
Y11345347D01*
X6247234D01*
Y11424319D01*
X6357759Y11345347D01*
Y11494477D01*
X6310693D01*
Y11416387D01*
X6199639Y11494653D01*
X6357759D01*
D02*
G37*
G36*
X6164384Y11494477D02*
X5995512D01*
Y11345347D01*
Y11386420D01*
X6047161Y11345347D01*
X6164384D01*
Y11494477D01*
D02*
G37*
G36*
X5979471D02*
X5814476D01*
Y11345347D01*
X5979471D01*
Y11494477D01*
D02*
G37*
G36*
X5797906D02*
X5613698D01*
X5633088Y11469093D01*
X5735857D01*
X5613698Y11345347D01*
X5797906D01*
X5778516Y11370731D01*
X5686500D01*
X5797730Y11494477D01*
X5797906D01*
D02*
G37*
G36*
X5593602D02*
X5451348D01*
X5430547Y11470327D01*
Y11345347D01*
X5597657D01*
Y11438597D01*
Y11432780D01*
X5482020D01*
Y11459927D01*
X5490128Y11469093D01*
X5574212D01*
X5593602Y11494477D01*
D02*
G37*
G36*
X5395292D02*
X5226420Y11494477D01*
Y11345347D01*
X5395292Y11345347D01*
Y11494477D01*
D02*
G37*
G36*
X5011892Y11494477D02*
X4843019D01*
Y11345347D01*
X5011892D01*
Y11494477D01*
D02*
G37*
G36*
X4826449D02*
X4642241D01*
Y11345347D01*
X4690364D01*
Y11469093D01*
X4766163D01*
Y11438597D01*
X4692832D01*
X4772156Y11345347D01*
X4826449D01*
D01*
X4767221Y11413037D01*
X4813229D01*
Y11494477D01*
X4826449D01*
D02*
G37*
%LPD*%
G36*
X5162784Y11439126D02*
X5094741D01*
Y11469093D01*
X5162784D01*
Y11439126D01*
D02*
G37*
G36*
Y11370731D02*
X5094741D01*
Y11413742D01*
X5162784D01*
Y11370731D01*
D02*
G37*
G36*
X6116790Y11370731D02*
X6066551D01*
X6043106Y11397349D01*
Y11469093D01*
X6116790D01*
Y11370731D01*
D02*
G37*
G36*
X5931700Y11422204D02*
X5861718D01*
Y11469093D01*
X5931700D01*
Y11422204D01*
D02*
G37*
G36*
X5979471Y11345347D02*
X5862247D01*
Y11396644D01*
X5979471D01*
Y11345347D01*
D02*
G37*
G36*
X5597657D02*
X5563283D01*
X5597657Y11368263D01*
Y11345347D01*
D02*
G37*
G36*
X5545127Y11378311D02*
X5538604Y11370731D01*
X5434425D01*
X5454168Y11345347D01*
X5430547D01*
Y11407220D01*
X5545127D01*
Y11378311D01*
D02*
G37*
G36*
X5347697Y11370731D02*
X5297459Y11370731D01*
X5274014Y11397349D01*
Y11469093D01*
X5347697Y11469093D01*
Y11370731D01*
D02*
G37*
G36*
X5278068Y11345347D02*
X5226420D01*
Y11386419D01*
X5278068Y11345347D01*
D02*
G37*
G36*
X4964297Y11370731D02*
X4914058D01*
X4890614Y11397349D01*
Y11469093D01*
X4964297D01*
Y11370731D01*
D02*
G37*
G36*
X4894668Y11345347D02*
X4843019D01*
Y11386419D01*
X4894668Y11345347D01*
D02*
G37*
%LPC*%
G36*
X7487689Y12547876D02*
D01*
Y12536212D01*
X7487480Y12538087D01*
X7487272Y12539753D01*
X7486647Y12541211D01*
X7486022Y12542461D01*
X7485398Y12543502D01*
X7484981Y12544127D01*
X7484564Y12544544D01*
X7484356Y12544752D01*
X7483106Y12545793D01*
X7481440Y12546626D01*
X7479982Y12547043D01*
X7478524Y12547460D01*
X7477066Y12547668D01*
X7476025Y12547876D01*
X7336686D01*
X7335852Y12547668D01*
X7335019Y12547460D01*
X7334603Y12547251D01*
X7334395D01*
X7333770Y12546626D01*
X7333353Y12545793D01*
X7333145Y12545168D01*
X7332937Y12544960D01*
X7332520Y12543502D01*
X7332312Y12542044D01*
X7332103Y12540795D01*
Y12540378D01*
X7331895Y12538087D01*
X7331687Y12535588D01*
Y12530172D01*
X7331895Y12527881D01*
Y12527048D01*
X7332103Y12526423D01*
Y12526007D01*
X7332312Y12524132D01*
X7332520Y12522674D01*
X7332937Y12521633D01*
Y12521425D01*
X7333353Y12520175D01*
X7333978Y12519550D01*
X7334186Y12519133D01*
X7334395Y12518925D01*
X7335228Y12518509D01*
X7335852Y12518092D01*
X7336477D01*
X7336686D01*
X7463112D01*
Y12517884D01*
X7336686Y12474353D01*
X7335852Y12474145D01*
X7335019Y12473728D01*
X7334603Y12473312D01*
X7334395Y12473104D01*
X7333770Y12472062D01*
X7333353Y12471021D01*
X7333145Y12470188D01*
X7332937Y12469979D01*
X7332520Y12468521D01*
X7332312Y12467063D01*
X7332103Y12465814D01*
Y12465397D01*
X7331895Y12463106D01*
X7331687Y12460815D01*
Y12455608D01*
X7331895Y12453317D01*
Y12451442D01*
X7332103Y12449360D01*
X7332312Y12447902D01*
X7332520Y12447069D01*
Y12446652D01*
X7333145Y12445402D01*
X7333561Y12444569D01*
X7333978Y12443944D01*
X7334186Y12443736D01*
X7335852Y12442486D01*
X7336477Y12442278D01*
X7336686Y12442070D01*
X7463112Y12397081D01*
Y12396665D01*
X7336686D01*
X7335852Y12396457D01*
X7335019Y12396248D01*
X7334603Y12396040D01*
X7334395D01*
X7333770Y12395415D01*
X7333353Y12394582D01*
X7333145Y12393957D01*
X7332937Y12393749D01*
X7332520Y12392291D01*
X7332312Y12390833D01*
X7332103Y12389583D01*
Y12389167D01*
X7331895Y12386876D01*
X7331687Y12384376D01*
Y12378961D01*
X7331895Y12376670D01*
Y12375837D01*
X7332103Y12375004D01*
Y12374587D01*
X7332312Y12372713D01*
X7332520Y12371255D01*
X7332937Y12370213D01*
Y12370005D01*
X7333353Y12368964D01*
X7333978Y12368130D01*
X7334186Y12367922D01*
X7334395Y12367714D01*
X7335228Y12367297D01*
X7335852Y12366881D01*
X7331687D01*
D01*
X7487689D01*
Y12547876D01*
D02*
G37*
G36*
X7414166Y12343137D02*
X7409375D01*
X7402502Y12342929D01*
X7396254Y12342720D01*
X7390422Y12342304D01*
X7387922Y12342095D01*
X7385423Y12341887D01*
X7383340Y12341679D01*
X7381466Y12341471D01*
X7379591D01*
X7378342Y12341262D01*
X7377092Y12341054D01*
X7376259Y12340846D01*
X7375842D01*
X7375634D01*
X7370219Y12339804D01*
X7365428Y12338346D01*
X7361263Y12337097D01*
X7357514Y12335639D01*
X7354598Y12334389D01*
X7352515Y12333348D01*
X7351682Y12332931D01*
X7351057Y12332515D01*
X7350849Y12332306D01*
X7350640D01*
X7347100Y12329807D01*
X7343975Y12327099D01*
X7341268Y12324183D01*
X7338977Y12321684D01*
X7337310Y12319185D01*
X7336061Y12317310D01*
X7335228Y12316060D01*
X7335019Y12315852D01*
Y12315644D01*
X7333145Y12311478D01*
X7331895Y12307104D01*
X7330854Y12302731D01*
X7330229Y12298565D01*
X7329812Y12294816D01*
Y12293150D01*
X7329604Y12291900D01*
Y12289192D01*
X7329812Y12283569D01*
X7330437Y12278362D01*
X7331479Y12273988D01*
X7332520Y12270031D01*
X7333353Y12266906D01*
X7333978Y12265657D01*
X7334395Y12264615D01*
X7334811Y12263782D01*
X7335019Y12263157D01*
X7335228Y12262949D01*
Y12262741D01*
X7337519Y12258783D01*
X7340018Y12255243D01*
X7342726Y12252327D01*
X7345433Y12249827D01*
X7347724Y12247745D01*
X7349599Y12246287D01*
X7350849Y12245245D01*
X7351057Y12245037D01*
X7351265D01*
X7355431Y12242538D01*
X7359805Y12240663D01*
X7363970Y12238997D01*
X7368136Y12237539D01*
X7371677Y12236497D01*
X7373135Y12236081D01*
X7374384Y12235873D01*
X7375426Y12235456D01*
X7376259D01*
X7376675Y12235248D01*
X7376884D01*
X7382715Y12234206D01*
X7388547Y12233373D01*
X7394171Y12232957D01*
X7399378Y12232540D01*
X7401669Y12232332D01*
X7403752D01*
X7405626Y12232124D01*
X7329604D01*
X7417290D01*
X7423538Y12232540D01*
X7429370Y12232957D01*
X7431870Y12233165D01*
X7434161Y12233373D01*
X7436452Y12233582D01*
X7438326Y12233790D01*
X7439992Y12233998D01*
X7441450Y12234206D01*
X7442492Y12234415D01*
X7443325D01*
X7443742Y12234623D01*
X7443950D01*
X7449365Y12235664D01*
X7454156Y12236914D01*
X7458529Y12238372D01*
X7462278Y12239830D01*
X7465194Y12241080D01*
X7467277Y12242121D01*
X7468110Y12242538D01*
X7468735Y12242954D01*
X7468943Y12243162D01*
X7469152D01*
X7472692Y12245662D01*
X7475817Y12248369D01*
X7478524Y12251077D01*
X7480815Y12253785D01*
X7482482Y12256076D01*
X7483731Y12258159D01*
X7484564Y12259408D01*
X7484773Y12259617D01*
Y12259825D01*
X7486647Y12263990D01*
X7488105Y12268364D01*
X7488938Y12272738D01*
X7489771Y12276904D01*
X7490188Y12280653D01*
Y12282319D01*
X7490396Y12283569D01*
Y12235873D01*
Y12286276D01*
X7490188Y12291900D01*
X7489563Y12296899D01*
X7488522Y12301481D01*
X7487480Y12305438D01*
X7486439Y12308562D01*
X7486022Y12309812D01*
X7485398Y12310853D01*
X7485189Y12311687D01*
X7484773Y12312311D01*
X7484564Y12312520D01*
Y12312728D01*
X7482273Y12316685D01*
X7479566Y12320018D01*
X7476858Y12323142D01*
X7474359Y12325641D01*
X7472068Y12327724D01*
X7469985Y12329182D01*
X7468735Y12330015D01*
X7468527Y12330432D01*
X7468319D01*
X7464153Y12332723D01*
X7459987Y12334806D01*
X7455613Y12336472D01*
X7451656Y12337722D01*
X7448115Y12338971D01*
X7446449Y12339388D01*
X7445199Y12339596D01*
X7444158Y12339804D01*
X7443325Y12340013D01*
X7442908Y12340221D01*
X7442700D01*
X7436868Y12341262D01*
X7431245Y12341887D01*
X7425621Y12342512D01*
X7420414Y12342720D01*
X7418123Y12342929D01*
X7416040D01*
X7414166Y12343137D01*
D02*
G37*
%LPD*%
G36*
X7487689Y12400622D02*
X7487480Y12403746D01*
X7487272Y12406246D01*
X7487064Y12407079D01*
X7486855Y12407912D01*
X7486647Y12408328D01*
Y12408537D01*
X7485814Y12410828D01*
X7484773Y12412702D01*
X7483940Y12413952D01*
X7483731Y12414160D01*
X7483523Y12414369D01*
X7481857Y12416035D01*
X7479982Y12417285D01*
X7479149Y12417909D01*
X7478524Y12418118D01*
X7478108Y12418534D01*
X7477899D01*
X7475192Y12419784D01*
X7472484Y12420825D01*
X7471234Y12421242D01*
X7470401Y12421658D01*
X7469777Y12421867D01*
X7469568D01*
X7377092Y12456858D01*
Y12457274D01*
X7469777Y12491016D01*
X7473109Y12492265D01*
X7474567Y12492682D01*
X7475817Y12493307D01*
X7476858Y12493723D01*
X7477483Y12494140D01*
X7477899Y12494556D01*
X7478108D01*
X7480399Y12496014D01*
X7482273Y12497681D01*
X7483315Y12498930D01*
X7483731Y12499139D01*
Y12499347D01*
X7484981Y12501430D01*
X7486022Y12503721D01*
X7486231Y12504554D01*
X7486439Y12505387D01*
X7486647Y12505804D01*
Y12506012D01*
X7487272Y12509136D01*
X7487480Y12512260D01*
X7487689Y12513510D01*
Y12400622D01*
D02*
G37*
G36*
Y12366881D02*
X7474984D01*
X7477066Y12367089D01*
X7478733Y12367297D01*
X7479774Y12367506D01*
X7480191Y12367714D01*
X7481857Y12368339D01*
X7483106Y12369172D01*
X7483940Y12369797D01*
X7484148Y12370005D01*
X7485189Y12371255D01*
X7486022Y12372504D01*
X7486439Y12373546D01*
X7486647Y12373754D01*
Y12373962D01*
X7487272Y12375837D01*
X7487480Y12377503D01*
X7487689Y12378753D01*
Y12366881D01*
D02*
G37*
G36*
X7420206Y12311062D02*
X7424371Y12310853D01*
X7427704Y12310645D01*
X7430620D01*
X7432703Y12310437D01*
X7433536Y12310229D01*
X7434161D01*
X7434369D01*
X7434577D01*
X7438326Y12309812D01*
X7441659Y12309187D01*
X7444575Y12308562D01*
X7446866Y12307938D01*
X7448949Y12307313D01*
X7450406Y12306896D01*
X7451448Y12306688D01*
X7451656Y12306480D01*
X7454156Y12305438D01*
X7456238Y12304188D01*
X7457905Y12302939D01*
X7459363Y12301897D01*
X7460404Y12300856D01*
X7461237Y12300023D01*
X7461654Y12299398D01*
X7461862Y12299190D01*
X7463112Y12297315D01*
X7463945Y12295441D01*
X7464570Y12293566D01*
X7464986Y12291692D01*
X7465194Y12290025D01*
X7465403Y12288776D01*
Y12287526D01*
X7465194Y12284610D01*
X7464778Y12282319D01*
X7464570Y12281486D01*
X7464361Y12280861D01*
X7464153Y12280445D01*
Y12280236D01*
X7463112Y12277737D01*
X7461862Y12275862D01*
X7460820Y12274613D01*
X7460612Y12274404D01*
X7460404Y12274196D01*
X7458321Y12272322D01*
X7456030Y12270864D01*
X7454989Y12270447D01*
X7454364Y12270031D01*
X7453739Y12269614D01*
X7453531D01*
X7450198Y12268364D01*
X7446866Y12267323D01*
X7445408Y12266906D01*
X7444158Y12266698D01*
X7443325Y12266490D01*
X7443117D01*
X7440617Y12266073D01*
X7438118Y12265657D01*
X7435619Y12265240D01*
X7433328Y12265032D01*
X7431453Y12264824D01*
X7429787D01*
X7428745Y12264615D01*
X7428329D01*
X7425205Y12264407D01*
X7421872Y12264199D01*
X7418540D01*
X7415624Y12263990D01*
X7412916D01*
X7410833D01*
X7410000D01*
X7409375D01*
X7409167D01*
X7408959D01*
X7405626D01*
X7402502D01*
X7399586Y12264199D01*
X7397087D01*
X7395004Y12264407D01*
X7393546D01*
X7392505Y12264615D01*
X7392088D01*
X7389380Y12264824D01*
X7386881Y12265032D01*
X7384590Y12265240D01*
X7382507Y12265448D01*
X7380841Y12265657D01*
X7379591Y12265865D01*
X7378758Y12266073D01*
X7378550D01*
X7374384Y12266906D01*
X7372718Y12267531D01*
X7371260Y12267948D01*
X7369802Y12268364D01*
X7368969Y12268573D01*
X7368344Y12268989D01*
X7368136D01*
X7365012Y12270447D01*
X7363762Y12271280D01*
X7362512Y12271905D01*
X7361679Y12272530D01*
X7361054Y12273155D01*
X7360638Y12273363D01*
X7360430Y12273571D01*
X7358555Y12275654D01*
X7357097Y12277737D01*
X7356680Y12278570D01*
X7356264Y12279195D01*
X7356056Y12279611D01*
Y12279820D01*
X7355223Y12282527D01*
X7354806Y12285235D01*
X7354598Y12286276D01*
Y12287943D01*
X7354806Y12290234D01*
X7355014Y12292317D01*
X7355431Y12294191D01*
X7355847Y12295649D01*
X7356264Y12296899D01*
X7356680Y12297940D01*
X7357097Y12298565D01*
Y12298773D01*
X7358138Y12300439D01*
X7359596Y12301689D01*
X7362512Y12303980D01*
X7363970Y12304813D01*
X7365012Y12305438D01*
X7365845Y12305855D01*
X7366053Y12306063D01*
X7368552Y12307104D01*
X7371468Y12307729D01*
X7374384Y12308562D01*
X7377092Y12308979D01*
X7379591Y12309395D01*
X7381466Y12309812D01*
X7382299D01*
X7382924Y12310020D01*
X7383132D01*
X7383340D01*
X7387714Y12310437D01*
X7392296Y12310645D01*
X7396879Y12311062D01*
X7401252D01*
X7405001Y12311270D01*
X7406668D01*
X7408126D01*
X7409167D01*
X7410000D01*
X7410625D01*
X7410833D01*
X7415832D01*
X7420206Y12311062D01*
D02*
G37*
D61*
X4595500Y11170000D02*
G03*
X4595500Y11170000I-12500J0D01*
G01*
X6720000Y11682500D02*
G03*
X6720000Y11682500I-12500J0D01*
G01*
X6692500Y10500000D02*
G03*
X6692500Y10500000I-12500J0D01*
G01*
X9302500Y11415000D02*
G03*
X9302500Y11415000I-12500J0D01*
G01*
X9292500Y10895000D02*
G03*
X9292500Y10895000I-12500J0D01*
G01*
Y10375000D02*
G03*
X9292500Y10375000I-12500J0D01*
G01*
X9292500Y9855000D02*
G03*
X9292500Y9855000I-12500J0D01*
G01*
X5112500Y10785000D02*
G03*
X5112500Y10785000I-12500J0D01*
G01*
X6312500Y9850000D02*
G03*
X6312500Y9850000I-12500J0D01*
G01*
X6692500Y9750000D02*
G03*
X6692500Y9750000I-12500J0D01*
G01*
D62*
X6375000Y11615000D02*
G03*
X6375000Y11625000I0J5000D01*
G01*
D02*
G03*
X6375000Y11615000I0J-5000D01*
G01*
X3695000Y9995000D02*
G03*
X3705000Y9995000I5000J0D01*
G01*
D02*
G03*
X3695000Y9995000I-5000J0D01*
G01*
X3700000Y12195000D02*
G03*
X3710000Y12195000I5000J0D01*
G01*
D02*
G03*
X3700000Y12195000I-5000J0D01*
G01*
X8400000Y11700000D02*
G03*
X8400000Y11710000I0J5000D01*
G01*
D02*
G03*
X8400000Y11700000I0J-5000D01*
G01*
X4810000Y11935000D02*
X5000000D01*
X6500000D02*
X6690000D01*
X4810000Y12685000D02*
X6690000D01*
X2635000Y9405000D02*
Y10245000D01*
X3385000Y10095000D02*
Y10285000D01*
Y9405000D02*
Y9595000D01*
X2640000Y11130000D02*
Y12510000D01*
X3390000Y12320000D02*
Y12510000D01*
Y11130000D02*
Y11320000D01*
D63*
X9550000Y11730000D02*
G03*
X9550000Y11730000I-260000J0D01*
G01*
X9540000Y11210000D02*
G03*
X9540000Y11210000I-260000J0D01*
G01*
Y10690000D02*
G03*
X9540000Y10690000I-260000J0D01*
G01*
X9540000Y10170000D02*
G03*
X9540000Y10170000I-260000J0D01*
G01*
D64*
X4580000Y10910000D02*
Y10935000D01*
X3920000Y10910000D02*
Y10935000D01*
X4580000D01*
X6557500Y10630000D02*
Y10650000D01*
X6442500Y10630000D02*
Y10650000D01*
X6372810Y10494190D02*
Y10785810D01*
X6147190Y10494190D02*
Y10785810D01*
X6900000Y10895000D02*
X7350000D01*
X6900000Y11755000D02*
X7350000D01*
X7677500Y10230000D02*
Y10250000D01*
X7802500Y10230000D02*
Y10250000D01*
X6810000Y10840000D02*
X7390000D01*
X7490000Y10620000D02*
Y10740000D01*
Y10260000D02*
Y10380000D01*
X6810000Y10160000D02*
X7390000D01*
X7490000Y10260000D01*
X7390000Y10840000D02*
X7490000Y10740000D01*
X6810000Y10617500D02*
Y10840000D01*
Y10160000D02*
Y10382500D01*
X5719000Y9848000D02*
Y10102000D01*
X6735000D01*
X5719000Y9848000D02*
X6735000D01*
Y10102000D01*
X7825000Y11714502D02*
Y11935502D01*
X8025000Y11714502D02*
Y11935502D01*
X8500000Y9412500D02*
X8520000D01*
X8500000Y9287500D02*
X8520000D01*
X8500000Y9602500D02*
X8520000D01*
X8500000Y9477500D02*
X8520000D01*
X7589502Y10800000D02*
X7810502D01*
X7589502Y10600000D02*
X7810502D01*
X8500000Y9792500D02*
X8520000D01*
X8500000Y9667500D02*
X8520000D01*
X5315000Y10350000D02*
X5335000D01*
X5315000Y10850000D02*
X5335000D01*
X5165000Y10555000D02*
Y10645000D01*
X5485000Y10555000D02*
Y10645000D01*
X5237500Y10140000D02*
X5412500D01*
X5236967Y10310300D02*
X5411967D01*
X6497000Y9281500D02*
Y9738500D01*
X6103000Y9281500D02*
X6153500D01*
X6446500D02*
X6497000D01*
X6103000D02*
Y9738500D01*
X6153500D01*
X6446500D02*
X6497000D01*
X6810000Y9410000D02*
Y9632500D01*
Y9867500D02*
Y10090000D01*
X7390000D02*
X7490000Y9990000D01*
X7390000Y9410000D02*
X7490000Y9510000D01*
X6810000Y9410000D02*
X7390000D01*
X7490000Y9510000D02*
Y9630000D01*
Y9870000D02*
Y9990000D01*
X6810000Y10090000D02*
X7390000D01*
X8500000Y9982500D02*
X8520000D01*
X8500000Y9857500D02*
X8520000D01*
X8000000Y12680000D02*
Y13200000D01*
X8550000D01*
Y12680000D02*
Y13200000D01*
X7532190Y11719612D02*
Y12050232D01*
X7767810Y11719612D02*
Y12050232D01*
X6979190Y11737190D02*
X7270810D01*
X6979190Y11962810D02*
X7270810D01*
X6147190Y10854190D02*
Y11145810D01*
X6372810Y10854190D02*
Y11145810D01*
X6557500Y10990000D02*
Y11010000D01*
X6442500Y10990000D02*
Y11010000D01*
X5237500Y11060000D02*
X5412500D01*
X5238033Y10889700D02*
X5413033D01*
X4463500Y9801500D02*
X5436500D01*
Y9298500D02*
Y9322000D01*
Y9778000D02*
Y9801500D01*
X4463500Y9298500D02*
X5436500D01*
X4463500D02*
Y9322000D01*
Y9778000D02*
Y9801500D01*
X4046690Y11367190D02*
X4338310D01*
X4046690Y11592810D02*
X4338310D01*
X4862810Y10404690D02*
Y10695310D01*
X4637190Y10404690D02*
Y10695310D01*
X6519020Y11414201D02*
X6624819D01*
X6645979Y11435361D01*
Y11477680D01*
X6624819Y11498840D01*
X6519020D01*
X6645979Y11625799D02*
Y11541160D01*
X6561339Y11625799D01*
X6540180D01*
X6519020Y11604639D01*
Y11562320D01*
X6540180Y11541160D01*
X7625941Y10932320D02*
X7604781Y10953479D01*
X7562461D01*
X7541301Y10932320D01*
Y10847680D01*
X7562461Y10826521D01*
X7604781D01*
X7625941Y10847680D01*
X7668260Y10826521D02*
X7710580D01*
X7689420D01*
Y10953479D01*
X7668260Y10932320D01*
X7774059D02*
X7795219Y10953479D01*
X7837539D01*
X7858699Y10932320D01*
Y10847680D01*
X7837539Y10826521D01*
X7795219D01*
X7774059Y10847680D01*
Y10932320D01*
X7644201Y9906521D02*
Y10033480D01*
X7707680D01*
X7728840Y10012320D01*
Y9970000D01*
X7707680Y9948840D01*
X7644201D01*
X7686521D02*
X7728840Y9906521D01*
X7771160Y10012320D02*
X7792319Y10033480D01*
X7834639D01*
X7855799Y10012320D01*
Y9991160D01*
X7834639Y9970000D01*
X7813479D01*
X7834639D01*
X7855799Y9948840D01*
Y9927680D01*
X7834639Y9906521D01*
X7792319D01*
X7771160Y9927680D01*
X5895361Y9753479D02*
Y9626520D01*
X5958840D01*
X5980000Y9647680D01*
Y9732320D01*
X5958840Y9753479D01*
X5895361D01*
X6022320Y9626520D02*
X6064639D01*
X6043479D01*
Y9753479D01*
X6022320Y9732320D01*
X8002461Y9856521D02*
Y9983479D01*
X8065941D01*
X8087101Y9962320D01*
Y9920000D01*
X8065941Y9898840D01*
X8002461D01*
X8044781D02*
X8087101Y9856521D01*
X8129420D02*
X8171740D01*
X8150580D01*
Y9983479D01*
X8129420Y9962320D01*
X8235219Y9856521D02*
X8277539D01*
X8256379D01*
Y9983479D01*
X8235219Y9962320D01*
X8104201Y9476521D02*
Y9603479D01*
X8167680D01*
X8188840Y9582320D01*
Y9540000D01*
X8167680Y9518840D01*
X8104201D01*
X8146521D02*
X8188840Y9476521D01*
X8231160Y9497680D02*
X8252320Y9476521D01*
X8294639D01*
X8315799Y9497680D01*
Y9582320D01*
X8294639Y9603479D01*
X8252320D01*
X8231160Y9582320D01*
Y9561160D01*
X8252320Y9540000D01*
X8315799D01*
X8104201Y9286521D02*
Y9413480D01*
X8167680D01*
X8188840Y9392320D01*
Y9350000D01*
X8167680Y9328840D01*
X8104201D01*
X8146521D02*
X8188840Y9286521D01*
X8231160Y9392320D02*
X8252320Y9413480D01*
X8294639D01*
X8315799Y9392320D01*
Y9371160D01*
X8294639Y9350000D01*
X8315799Y9328840D01*
Y9307680D01*
X8294639Y9286521D01*
X8252320D01*
X8231160Y9307680D01*
Y9328840D01*
X8252320Y9350000D01*
X8231160Y9371160D01*
Y9392320D01*
X8252320Y9350000D02*
X8294639D01*
X4930000Y9953479D02*
X4845361D01*
Y9890000D01*
X4887681D01*
X4845361D01*
Y9826521D01*
X4972320D02*
X5014639D01*
X4993479D01*
Y9953479D01*
X4972320Y9932320D01*
X6115941Y10442320D02*
X6094781Y10463479D01*
X6052461D01*
X6031301Y10442320D01*
Y10357680D01*
X6052461Y10336521D01*
X6094781D01*
X6115941Y10357680D01*
X6158260Y10336521D02*
X6200580D01*
X6179420D01*
Y10463479D01*
X6158260Y10442320D01*
X6264059Y10357680D02*
X6285219Y10336521D01*
X6327539D01*
X6348699Y10357680D01*
Y10442320D01*
X6327539Y10463479D01*
X6285219D01*
X6264059Y10442320D01*
Y10421160D01*
X6285219Y10400000D01*
X6348699D01*
X5997680Y10958840D02*
X5976520Y10937680D01*
Y10895360D01*
X5997680Y10874201D01*
X6082320D01*
X6103479Y10895360D01*
Y10937680D01*
X6082320Y10958840D01*
Y11001159D02*
X6103479Y11022319D01*
Y11064639D01*
X6082320Y11085799D01*
X5997680D01*
X5976520Y11064639D01*
Y11022319D01*
X5997680Y11001159D01*
X6018840D01*
X6040000Y11022319D01*
Y11085799D01*
X8118840Y11632320D02*
X8097680Y11653479D01*
X8055361D01*
X8034201Y11632320D01*
Y11547680D01*
X8055361Y11526521D01*
X8097680D01*
X8118840Y11547680D01*
X8161160Y11632320D02*
X8182319Y11653479D01*
X8224639D01*
X8245799Y11632320D01*
Y11611160D01*
X8224639Y11590000D01*
X8245799Y11568840D01*
Y11547680D01*
X8224639Y11526521D01*
X8182319D01*
X8161160Y11547680D01*
Y11568840D01*
X8182319Y11590000D01*
X8161160Y11611160D01*
Y11632320D01*
X8182319Y11590000D02*
X8224639D01*
X6677680Y10788841D02*
X6656520Y10767681D01*
Y10725361D01*
X6677680Y10704201D01*
X6762319D01*
X6783479Y10725361D01*
Y10767681D01*
X6762319Y10788841D01*
X6783479Y10915799D02*
Y10831160D01*
X6698840Y10915799D01*
X6677680D01*
X6656520Y10894639D01*
Y10852320D01*
X6677680Y10831160D01*
X7140000Y9352320D02*
X7118840Y9373479D01*
X7076521D01*
X7055361Y9352320D01*
Y9267680D01*
X7076521Y9246520D01*
X7118840D01*
X7140000Y9267680D01*
X7182320Y9246520D02*
X7224639D01*
X7203479D01*
Y9373479D01*
X7182320Y9352320D01*
X4935361Y11003479D02*
X5020000Y10876521D01*
Y11003479D02*
X4935361Y10876521D01*
X5062320D02*
X5104640D01*
X5083480D01*
Y11003479D01*
X5062320Y10982320D01*
X3794201Y11493479D02*
Y11387680D01*
X3815361Y11366521D01*
X3857680D01*
X3878840Y11387680D01*
Y11493479D01*
X4005799D02*
X3921160D01*
Y11430000D01*
X3963480Y11451160D01*
X3984639D01*
X4005799Y11430000D01*
Y11387680D01*
X3984639Y11366521D01*
X3942320D01*
X3921160Y11387680D01*
X8001301Y9656521D02*
Y9783480D01*
X8064781D01*
X8085941Y9762320D01*
Y9720000D01*
X8064781Y9698840D01*
X8001301D01*
X8043621D02*
X8085941Y9656521D01*
X8128260D02*
X8170580D01*
X8149420D01*
Y9783480D01*
X8128260Y9762320D01*
X8234059D02*
X8255219Y9783480D01*
X8297539D01*
X8318699Y9762320D01*
Y9677680D01*
X8297539Y9656521D01*
X8255219D01*
X8234059Y9677680D01*
Y9762320D01*
X6444201Y10336520D02*
Y10463479D01*
X6507680D01*
X6528840Y10442319D01*
Y10400000D01*
X6507680Y10378840D01*
X6444201D01*
X6486521D02*
X6528840Y10336520D01*
X6571160Y10463479D02*
X6655799D01*
Y10442319D01*
X6571160Y10357680D01*
Y10336520D01*
X6464201Y11216521D02*
Y11343479D01*
X6527680D01*
X6548840Y11322320D01*
Y11280000D01*
X6527680Y11258840D01*
X6464201D01*
X6506521D02*
X6548840Y11216521D01*
X6675799D02*
X6591160D01*
X6675799Y11301160D01*
Y11322320D01*
X6654639Y11343479D01*
X6612320D01*
X6591160Y11322320D01*
X4687680Y10815361D02*
X4666520Y10794201D01*
Y10751881D01*
X4687680Y10730722D01*
X4772319D01*
X4793479Y10751881D01*
Y10794201D01*
X4772319Y10815361D01*
X4793479Y10942320D02*
Y10857681D01*
X4708840Y10942320D01*
X4687680D01*
X4666520Y10921160D01*
Y10878840D01*
X4687680Y10857681D01*
Y10984639D02*
X4666520Y11005799D01*
Y11048119D01*
X4687680Y11069279D01*
X4708840D01*
X4730000Y11048119D01*
X4751159Y11069279D01*
X4772319D01*
X4793479Y11048119D01*
Y11005799D01*
X4772319Y10984639D01*
X4751159D01*
X4730000Y11005799D01*
X4708840Y10984639D01*
X4687680D01*
X4730000Y11005799D02*
Y11048119D01*
X4067861Y11729820D02*
X4046701Y11750980D01*
X4004381D01*
X3983221Y11729820D01*
Y11645180D01*
X4004381Y11624021D01*
X4046701D01*
X4067861Y11645180D01*
X4194820Y11624021D02*
X4110180D01*
X4194820Y11708660D01*
Y11729820D01*
X4173660Y11750980D01*
X4131340D01*
X4110180Y11729820D01*
X4237139Y11750980D02*
X4321779D01*
Y11729820D01*
X4237139Y11645180D01*
Y11624021D01*
X5565941Y10282320D02*
X5544781Y10303480D01*
X5502461D01*
X5481301Y10282320D01*
Y10197680D01*
X5502461Y10176521D01*
X5544781D01*
X5565941Y10197680D01*
X5608260Y10176521D02*
X5650580D01*
X5629420D01*
Y10303480D01*
X5608260Y10282320D01*
X5798699Y10176521D02*
X5714059D01*
X5798699Y10261160D01*
Y10282320D01*
X5777539Y10303480D01*
X5735219D01*
X5714059Y10282320D01*
X5577101Y11042320D02*
X5555941Y11063480D01*
X5513621D01*
X5492461Y11042320D01*
Y10957680D01*
X5513621Y10936521D01*
X5555941D01*
X5577101Y10957680D01*
X5619420Y10936521D02*
X5661740D01*
X5640580D01*
Y11063480D01*
X5619420Y11042320D01*
X5725219Y10936521D02*
X5767539D01*
X5746379D01*
Y11063480D01*
X5725219Y11042320D01*
X7728840Y11392320D02*
X7707680Y11413479D01*
X7665361D01*
X7644201Y11392320D01*
Y11307680D01*
X7665361Y11286520D01*
X7707680D01*
X7728840Y11307680D01*
X7771160Y11413479D02*
X7855799D01*
Y11392320D01*
X7771160Y11307680D01*
Y11286520D01*
X7600180Y12178840D02*
X7579021Y12157680D01*
Y12115361D01*
X7600180Y12094201D01*
X7684820D01*
X7705980Y12115361D01*
Y12157680D01*
X7684820Y12178840D01*
X7579021Y12305799D02*
X7600180Y12263479D01*
X7642500Y12221160D01*
X7684820D01*
X7705980Y12242319D01*
Y12284639D01*
X7684820Y12305799D01*
X7663660D01*
X7642500Y12284639D01*
Y12221160D01*
X6761340Y11897320D02*
X6740180Y11918479D01*
X6697861D01*
X6676701Y11897320D01*
Y11812680D01*
X6697861Y11791520D01*
X6740180D01*
X6761340Y11812680D01*
X6888299Y11918479D02*
X6803660D01*
Y11855000D01*
X6845979Y11876160D01*
X6867139D01*
X6888299Y11855000D01*
Y11812680D01*
X6867139Y11791520D01*
X6824819D01*
X6803660Y11812680D01*
%TF.MD5,89b44e8fd1c2597e10b1e0f26df25d91*%
M02*
