%TF.GenerationSoftware,Altium Limited,Altium Designer,23.3.1 (30)*%
G04 Layer_Color=128*
%FSLAX45Y45*%
%MOMM*%
%TF.SameCoordinates,B976926E-EB95-44A8-8F59-24342913D157*%
%TF.FilePolarity,Positive*%
%TF.FileFunction,Drillmap*%
%TF.Part,Single*%
G01*
G75*
%TA.AperFunction,NonConductor*%
%ADD24C,0.12700*%
D24*
X200000Y1500000D02*
X500000D01*
X350000Y1350000D02*
Y1650000D01*
X3200000Y1500000D02*
X3500000D01*
X3350000Y1350000D02*
Y1650000D01*
X3499999Y2250002D02*
X3599999D01*
X3549999Y2200002D02*
Y2300002D01*
X3250002Y2250002D02*
X3350002D01*
X3300002Y2200002D02*
Y2300002D01*
X3000000Y2250002D02*
X3100000D01*
X3050000Y2200002D02*
Y2300002D01*
X2749998Y2250002D02*
X2849998D01*
X2799998Y2200002D02*
Y2300002D01*
X2200002Y2250002D02*
X2300002D01*
X2250002Y2200002D02*
Y2300002D01*
X1950000Y2250002D02*
X2050000D01*
X2000000Y2200002D02*
Y2300002D01*
X1699998Y2250002D02*
X1799998D01*
X1749998Y2200002D02*
Y2300002D01*
X1450001Y2250002D02*
X1550001D01*
X1500001Y2200002D02*
Y2300002D01*
X899999Y2250002D02*
X999999D01*
X949999Y2200002D02*
Y2300002D01*
X650003Y2250002D02*
X750002D01*
X700002Y2200002D02*
Y2300002D01*
X400000Y2250002D02*
X500000D01*
X450000Y2200002D02*
Y2300002D01*
X149998Y2250002D02*
X249998D01*
X199998Y2200002D02*
Y2300002D01*
X2339999Y800002D02*
X2459999D01*
X2399999Y740002D02*
Y860002D01*
X2090002Y800002D02*
X2210002D01*
X2150002Y740002D02*
Y860002D01*
X1840000Y800002D02*
X1960000D01*
X1900000Y740002D02*
Y860002D01*
X1589998Y800002D02*
X1709998D01*
X1649998Y740002D02*
Y860002D01*
X2339999Y299998D02*
X2459999D01*
X2399999Y239998D02*
Y359998D01*
X2090002Y299998D02*
X2210002D01*
X2150002Y239998D02*
Y359998D01*
X1840000Y299998D02*
X1960000D01*
X1900000Y239998D02*
Y359998D01*
X1589998Y299998D02*
X1709998D01*
X1649998Y239998D02*
Y359998D01*
%TF.MD5,3da098abe4e9a54664d84ccdb14cea29*%
M02*
