%TF.GenerationSoftware,Altium Limited,Altium Designer,23.3.1 (30)*%
G04 Layer_Color=65535*
%FSLAX45Y45*%
%MOMM*%
%TF.SameCoordinates,B976926E-EB95-44A8-8F59-24342913D157*%
%TF.FilePolarity,Positive*%
%TF.FileFunction,Legend,Top*%
%TF.Part,Single*%
G01*
G75*
%TA.AperFunction,NonConductor*%
%ADD13C,0.20000*%
%ADD14C,0.25400*%
D13*
X2650001Y2060000D02*
X3689999D01*
X2650001D02*
Y2810001D01*
X3689999D01*
Y2060000D02*
Y2810001D01*
X1349999Y2060000D02*
X2390002D01*
X1349999D02*
Y2810001D01*
X2390002D01*
Y2060000D02*
Y2810001D01*
X50001Y2060000D02*
X1089999D01*
X50001D02*
Y2810001D01*
X1089999D01*
Y2060000D02*
Y2810001D01*
X2450001Y900002D02*
Y1069999D01*
Y410000D02*
Y690000D01*
Y19999D02*
Y199998D01*
X1409998Y19999D02*
Y1069999D01*
X2450001D01*
X1409998Y19999D02*
X2450001D01*
D14*
X1526777Y1309601D02*
X1475993D01*
X1501385D01*
Y1182642D01*
X1475993Y1157250D01*
X1450602D01*
X1425210Y1182642D01*
X1653736Y1157250D02*
Y1309601D01*
X1577561Y1233425D01*
X1679128D01*
X3591943Y1822059D02*
X3642727D01*
X3617335D01*
Y1949018D01*
X3642727Y1974410D01*
X3668118D01*
X3693510Y1949018D01*
X3541159Y1847451D02*
X3515767Y1822059D01*
X3464984D01*
X3439592Y1847451D01*
Y1872843D01*
X3464984Y1898234D01*
X3490376D01*
X3464984D01*
X3439592Y1923626D01*
Y1949018D01*
X3464984Y1974410D01*
X3515767D01*
X3541159Y1949018D01*
X2291943Y1822059D02*
X2342727D01*
X2317335D01*
Y1949018D01*
X2342727Y1974410D01*
X2368118D01*
X2393510Y1949018D01*
X2139592Y1974410D02*
X2241159D01*
X2139592Y1872843D01*
Y1847451D01*
X2164984Y1822059D01*
X2215767D01*
X2241159Y1847451D01*
X991943Y1822059D02*
X1042726D01*
X1017335D01*
Y1949018D01*
X1042726Y1974410D01*
X1068118D01*
X1093510Y1949018D01*
X941159Y1974410D02*
X890376D01*
X915767D01*
Y1822059D01*
X941159Y1847451D01*
%TF.MD5,859d561999ed3ae86aaa7ee6dafd61c8*%
M02*
