%TF.GenerationSoftware,Altium Limited,Altium Designer,24.10.1 (45)*%
G04 Layer_Color=8388736*
%FSLAX45Y45*%
%MOMM*%
%TF.SameCoordinates,CCCF952C-884B-4702-A857-54D5FC670F4C*%
%TF.FilePolarity,Negative*%
%TF.FileFunction,Soldermask,Top*%
%TF.Part,Single*%
G01*
G75*
%TA.AperFunction,SMDPad,CuDef*%
%ADD11R,1.10000X1.20000*%
%TA.AperFunction,ComponentPad*%
%ADD14C,3.00000*%
%ADD15C,1.57000*%
%ADD16R,1.57000X1.57000*%
%TA.AperFunction,SMDPad,CuDef*%
%ADD26R,1.55000X1.30000*%
%ADD27R,1.35000X1.65000*%
D11*
X3485000Y5010000D02*
D03*
X3275000D02*
D03*
X3485000Y4800000D02*
D03*
X3275000D02*
D03*
X3485000Y4580000D02*
D03*
X3275000D02*
D03*
D14*
X3230000Y3032500D02*
D03*
D15*
X2930000Y3764500D02*
D03*
X3230000D02*
D03*
X3530000D02*
D03*
X2930000Y3464500D02*
D03*
X3230000D02*
D03*
D16*
X3530000D02*
D03*
D26*
X2700000Y4990000D02*
D03*
Y4850000D02*
D03*
D27*
X2922500Y5010000D02*
D03*
X3097500D02*
D03*
X2922500Y4800000D02*
D03*
X3097500D02*
D03*
X2922500Y4580000D02*
D03*
X3097500D02*
D03*
%TF.MD5,c9b177e0a58cec001d6cdaff49ca92aa*%
M02*
