%TF.GenerationSoftware,Altium Limited,Altium Designer,24.10.1 (45)*%
G04 Layer_Color=16711935*
%FSLAX45Y45*%
%MOMM*%
%TF.SameCoordinates,CCCF952C-884B-4702-A857-54D5FC670F4C*%
%TF.FilePolarity,Negative*%
%TF.FileFunction,Soldermask,Bot*%
%TF.Part,Single*%
G01*
G75*
%TA.AperFunction,ComponentPad*%
%ADD14C,3.00000*%
%ADD15C,1.57000*%
%ADD16R,1.57000X1.57000*%
%TA.AperFunction,SMDPad,CuDef*%
%ADD18R,0.81280X0.25400*%
%ADD19R,0.25400X0.81280*%
%ADD20R,1.70180X1.70180*%
D14*
X3230000Y3032500D02*
D03*
D15*
X2930000Y3764500D02*
D03*
X3230000D02*
D03*
X3530000D02*
D03*
X2930000Y3464500D02*
D03*
X3230000D02*
D03*
D16*
X3530000D02*
D03*
D18*
X3374780Y4875000D02*
D03*
Y4825000D02*
D03*
Y4775000D02*
D03*
Y4725000D02*
D03*
X3085220D02*
D03*
Y4775000D02*
D03*
Y4825000D02*
D03*
Y4875000D02*
D03*
D19*
X3305000Y4655220D02*
D03*
X3255000D02*
D03*
X3205000D02*
D03*
X3155000D02*
D03*
Y4944780D02*
D03*
X3205000D02*
D03*
X3255000D02*
D03*
X3305000D02*
D03*
D20*
X3230000Y4800000D02*
D03*
%TF.MD5,49dda841b2d3629bf46cf9456d1cd988*%
M02*
