%TF.GenerationSoftware,Altium Limited,Altium Designer,24.10.1 (45)*%
G04 Layer_Physical_Order=1*
G04 Layer_Color=255*
%FSLAX45Y45*%
%MOMM*%
%TF.SameCoordinates,CCCF952C-884B-4702-A857-54D5FC670F4C*%
%TF.FilePolarity,Positive*%
%TF.FileFunction,Copper,L1,Top,Signal*%
%TF.Part,Single*%
G01*
G75*
%TA.AperFunction,SMDPad,CuDef*%
%ADD10R,1.35000X1.10000*%
%ADD11R,1.10000X1.20000*%
%ADD12R,1.15000X1.45000*%
%TA.AperFunction,Conductor*%
%ADD13C,0.18000*%
%TA.AperFunction,ComponentPad*%
%ADD14C,3.00000*%
%ADD15C,1.57000*%
%ADD16R,1.57000X1.57000*%
%TA.AperFunction,ViaPad*%
%ADD17C,0.50000*%
G36*
X3620008Y5379999D02*
X3639607Y5379358D01*
X3639621Y5379357D01*
X3678527Y5374235D01*
X3704411Y5367299D01*
Y5367299D01*
X3704411Y5367299D01*
X3716431Y5364079D01*
X3752686Y5349061D01*
X3786671Y5329440D01*
X3817803Y5305551D01*
X3845552Y5277803D01*
X3869441Y5246671D01*
X3889062Y5212686D01*
X3904079Y5176431D01*
X3914235Y5138527D01*
X3919357Y5099620D01*
X3920000Y5080006D01*
X3920000Y4570168D01*
X3900337D01*
X3861347Y4565035D01*
X3823361Y4554857D01*
X3787029Y4539808D01*
X3752971Y4520144D01*
X3721772Y4496204D01*
X3693964Y4468396D01*
X3670024Y4437197D01*
X3650361Y4403140D01*
X3635311Y4366807D01*
X3625133Y4328821D01*
X3620000Y4289831D01*
Y4250505D01*
X3625133Y4211516D01*
X3635311Y4173530D01*
X3650361Y4137197D01*
X3670024Y4103140D01*
X3693964Y4071940D01*
X3721772Y4044133D01*
X3752971Y4020192D01*
X3787029Y4000529D01*
X3823361Y3985480D01*
X3861347Y3975301D01*
X3900337Y3970169D01*
X3920000D01*
X3920000Y2540000D01*
X2540000D01*
Y3970000D01*
X2559663D01*
X2598652Y3975133D01*
X2636639Y3985312D01*
X2672971Y4000361D01*
X2707029Y4020024D01*
X2738228Y4043964D01*
X2766036Y4071772D01*
X2789976Y4102971D01*
X2809639Y4137029D01*
X2824688Y4173361D01*
X2834867Y4211347D01*
X2840000Y4250337D01*
Y4289663D01*
X2834867Y4328653D01*
X2824688Y4366639D01*
X2809639Y4402971D01*
X2789976Y4437029D01*
X2766036Y4468228D01*
X2738228Y4496036D01*
X2707029Y4519976D01*
X2672971Y4539639D01*
X2636639Y4554688D01*
X2598652Y4564867D01*
X2559663Y4570000D01*
X2540000D01*
Y5080000D01*
X2540642Y5099621D01*
X2545764Y5138527D01*
X2555921Y5176432D01*
X2570938Y5212687D01*
X2590559Y5246671D01*
X2614448Y5277804D01*
X2642196Y5305552D01*
X2673329Y5329441D01*
X2707313Y5349062D01*
X2743568Y5364079D01*
X2781473Y5374235D01*
X2820379Y5379358D01*
X2840000Y5380000D01*
X3607300D01*
X3620008Y5379999D01*
D02*
G37*
%LPC*%
G36*
X3330600Y5221525D02*
X3269330D01*
X3260863Y5219841D01*
X3253685Y5215045D01*
X3230766Y5192125D01*
X3179543D01*
X3178149Y5195490D01*
X3165490Y5208149D01*
X3148951Y5215000D01*
X3131049D01*
X3114510Y5208149D01*
X3101851Y5195490D01*
X3100457Y5192125D01*
X2810000D01*
X2801533Y5190441D01*
X2794355Y5185645D01*
X2714355Y5105645D01*
X2709559Y5098467D01*
X2707875Y5090000D01*
Y5057700D01*
X2619800D01*
Y4922301D01*
X2619799Y4922300D01*
Y4917699D01*
X2619800D01*
X2619800Y4909600D01*
Y4860000D01*
X2700000D01*
X2788668D01*
X2792900Y4862262D01*
X2795429Y4860572D01*
Y4852445D01*
X2797114Y4843979D01*
X2801910Y4836801D01*
X2807875Y4830835D01*
Y4482976D01*
X2809559Y4474509D01*
X2814355Y4467331D01*
X2857331Y4424355D01*
X2864509Y4419559D01*
X2872976Y4417875D01*
X3128512D01*
X3136979Y4419559D01*
X3144157Y4424355D01*
X3187677Y4467875D01*
X3400000D01*
X3408467Y4469559D01*
X3415645Y4474355D01*
X3448590Y4507300D01*
X3552700D01*
Y4652700D01*
X3417300D01*
Y4538590D01*
X3390835Y4512125D01*
X3342700D01*
Y4652700D01*
X3207300D01*
Y4602125D01*
X3167700D01*
Y4665200D01*
X3027300D01*
Y4494800D01*
X3135429D01*
X3140289Y4483067D01*
X3119348Y4462125D01*
X2882141D01*
X2862166Y4482100D01*
X2867426Y4494800D01*
X2912500D01*
Y4580000D01*
Y4665200D01*
X2852300Y4665200D01*
X2852125Y4677828D01*
Y4702172D01*
X2852300Y4714800D01*
X2912500D01*
Y4800000D01*
Y4885200D01*
X2869368D01*
X2860882Y4897900D01*
X2862554Y4901938D01*
Y4919840D01*
X2865869Y4924800D01*
X2912500D01*
Y5000000D01*
X2852300D01*
Y4956376D01*
X2839600Y4950465D01*
X2826505Y4955889D01*
X2808603D01*
X2792064Y4949038D01*
X2791933Y4948907D01*
X2780200Y4953767D01*
Y5057700D01*
X2752125D01*
Y5080835D01*
X2819165Y5147875D01*
X3100457D01*
X3101851Y5144510D01*
X3114510Y5131851D01*
X3131049Y5125000D01*
X3148951D01*
X3165490Y5131851D01*
X3178149Y5144510D01*
X3179543Y5147875D01*
X3239930D01*
X3242300Y5148346D01*
X3253994Y5140532D01*
X3255000Y5138909D01*
Y5131049D01*
X3261851Y5114509D01*
X3274510Y5101851D01*
X3291049Y5095000D01*
X3290084Y5082700D01*
X3207300D01*
Y5032125D01*
X3167700D01*
Y5095200D01*
X3027300D01*
Y4924800D01*
X3167700D01*
Y4987875D01*
X3207300D01*
Y4937300D01*
X3342700D01*
Y5047360D01*
X3354531Y5052527D01*
X3362128Y5046390D01*
Y4954735D01*
X3363812Y4946268D01*
X3368608Y4939090D01*
X3410849Y4896849D01*
X3418027Y4892053D01*
X3426494Y4890369D01*
X3443686D01*
X3447381Y4885400D01*
X3440998Y4872700D01*
X3417300D01*
Y4727300D01*
X3552700D01*
Y4872700D01*
X3507125D01*
Y4887000D01*
X3505441Y4895467D01*
X3500645Y4902645D01*
X3478690Y4924600D01*
X3483695Y4937300D01*
X3552700D01*
Y4992394D01*
X3617657D01*
X3655000Y4955051D01*
Y4941049D01*
X3661851Y4924510D01*
X3674510Y4911851D01*
X3691049Y4905000D01*
X3708951D01*
X3725490Y4911851D01*
X3738149Y4924510D01*
X3745000Y4941049D01*
Y4958951D01*
X3738149Y4975490D01*
X3725490Y4988149D01*
X3708951Y4995000D01*
X3691049D01*
X3681561Y4991070D01*
X3642467Y5030164D01*
X3635289Y5034960D01*
X3626822Y5036644D01*
X3552700D01*
Y5082700D01*
X3461125D01*
Y5091000D01*
X3459441Y5099467D01*
X3454645Y5106645D01*
X3346245Y5215045D01*
X3339067Y5219841D01*
X3330600Y5221525D01*
D02*
G37*
G36*
X2992700Y5095200D02*
X2932500D01*
Y5020000D01*
X2992700D01*
Y5095200D01*
D02*
G37*
G36*
X2912500D02*
X2852300D01*
Y5020000D01*
X2912500D01*
Y5095200D01*
D02*
G37*
G36*
X2992700Y5000000D02*
X2932500D01*
Y4924800D01*
X2992700D01*
Y5000000D01*
D02*
G37*
G36*
Y4885200D02*
X2932500D01*
Y4810000D01*
X2992700D01*
Y4885200D01*
D02*
G37*
G36*
X2780200Y4840000D02*
X2710000D01*
Y4782300D01*
X2780200D01*
Y4840000D01*
D02*
G37*
G36*
X2690000D02*
X2619800D01*
Y4782300D01*
X2690000D01*
Y4840000D01*
D02*
G37*
G36*
X3167700Y4885200D02*
X3027300D01*
Y4714800D01*
X3167700D01*
Y4777875D01*
X3207300D01*
Y4727300D01*
X3342700D01*
Y4872700D01*
X3207300D01*
Y4822125D01*
X3167700D01*
Y4885200D01*
D02*
G37*
G36*
X2992700Y4790000D02*
X2932500D01*
Y4714800D01*
X2992700D01*
Y4790000D01*
D02*
G37*
G36*
X2932500Y4665200D02*
Y4590000D01*
X2992700D01*
Y4665200D01*
X2932500D01*
D02*
G37*
G36*
X2992700Y4570000D02*
X2932500D01*
Y4494800D01*
X2992700D01*
Y4570000D01*
D02*
G37*
G36*
X3388951Y4455000D02*
X3371049D01*
X3354510Y4448149D01*
X3341851Y4435490D01*
X3340457Y4432125D01*
X3316038D01*
X3307571Y4430441D01*
X3300393Y4425645D01*
X3114355Y4239607D01*
X3109559Y4232429D01*
X3107875Y4223962D01*
Y3807010D01*
X3107675Y3806004D01*
Y3722996D01*
X3107875Y3721990D01*
Y3673665D01*
X2982270Y3548060D01*
X2968019Y3556287D01*
X2942968Y3563000D01*
X2917032D01*
X2891981Y3556287D01*
X2869520Y3543320D01*
X2851180Y3524981D01*
X2838213Y3502520D01*
X2831500Y3477468D01*
Y3451532D01*
X2838213Y3426481D01*
X2851180Y3404020D01*
X2869520Y3385681D01*
X2891981Y3372713D01*
X2917032Y3366000D01*
X2942968D01*
X2968019Y3372713D01*
X2990480Y3385681D01*
X3008819Y3404020D01*
X3021787Y3426481D01*
X3028500Y3451532D01*
Y3477468D01*
X3021787Y3502520D01*
X3013560Y3516770D01*
X3145645Y3648855D01*
X3150441Y3656033D01*
X3152125Y3664500D01*
Y3686481D01*
X3163859Y3691341D01*
X3169519Y3685680D01*
X3191980Y3672713D01*
X3217032Y3666000D01*
X3225321D01*
X3230181Y3654267D01*
X3214355Y3638441D01*
X3209559Y3631263D01*
X3207875Y3622796D01*
Y3560546D01*
X3191980Y3556287D01*
X3169519Y3543320D01*
X3151180Y3524981D01*
X3138213Y3502520D01*
X3131500Y3477468D01*
Y3451532D01*
X3138213Y3426481D01*
X3151180Y3404020D01*
X3169519Y3385681D01*
X3191980Y3372713D01*
X3217032Y3366000D01*
X3242968D01*
X3268019Y3372713D01*
X3290480Y3385681D01*
X3308819Y3404020D01*
X3321787Y3426481D01*
X3328500Y3451532D01*
Y3477468D01*
X3321787Y3502520D01*
X3308819Y3524981D01*
X3290480Y3543320D01*
X3268019Y3556287D01*
X3252125Y3560546D01*
Y3613631D01*
X3385645Y3747151D01*
X3390441Y3754329D01*
X3392125Y3762796D01*
Y4190000D01*
X3390441Y4198467D01*
X3385645Y4205645D01*
X3335645Y4255645D01*
X3328467Y4260441D01*
X3320000Y4262125D01*
X3269555D01*
X3268170Y4265469D01*
X3255511Y4278128D01*
X3238972Y4284978D01*
X3238900D01*
X3234040Y4296712D01*
X3325203Y4387875D01*
X3340457D01*
X3341851Y4384510D01*
X3354510Y4371851D01*
X3371049Y4365000D01*
X3388951D01*
X3405491Y4371851D01*
X3418149Y4384510D01*
X3425000Y4401049D01*
Y4418951D01*
X3418149Y4435490D01*
X3405491Y4448149D01*
X3388951Y4455000D01*
D02*
G37*
G36*
X3542968Y3863000D02*
X3517032D01*
X3491980Y3856287D01*
X3469519Y3843319D01*
X3451180Y3824980D01*
X3438213Y3802519D01*
X3431500Y3777468D01*
Y3751532D01*
X3438213Y3726480D01*
X3451180Y3704020D01*
X3469519Y3685680D01*
X3491980Y3672713D01*
X3517032Y3666000D01*
X3542968D01*
X3568019Y3672713D01*
X3590480Y3685680D01*
X3608819Y3704020D01*
X3621787Y3726480D01*
X3628500Y3751532D01*
Y3777468D01*
X3621787Y3802519D01*
X3608819Y3824980D01*
X3590480Y3843319D01*
X3568019Y3856287D01*
X3542968Y3863000D01*
D02*
G37*
G36*
X2942968D02*
X2917032D01*
X2891981Y3856287D01*
X2869520Y3843319D01*
X2851180Y3824980D01*
X2838213Y3802519D01*
X2831500Y3777468D01*
Y3751532D01*
X2838213Y3726480D01*
X2851180Y3704020D01*
X2869520Y3685680D01*
X2891981Y3672713D01*
X2917032Y3666000D01*
X2942968D01*
X2968019Y3672713D01*
X2990480Y3685680D01*
X3008819Y3704020D01*
X3021787Y3726480D01*
X3028500Y3751532D01*
Y3777468D01*
X3021787Y3802519D01*
X3008819Y3824980D01*
X2990480Y3843319D01*
X2968019Y3856287D01*
X2942968Y3863000D01*
D02*
G37*
G36*
X3244774Y3182500D02*
X3215226D01*
X3186247Y3176735D01*
X3158948Y3165428D01*
X3134381Y3149012D01*
X3113487Y3128119D01*
X3097072Y3103552D01*
X3085764Y3076253D01*
X3080000Y3047274D01*
Y3017726D01*
X3085764Y2988747D01*
X3097072Y2961448D01*
X3113487Y2936881D01*
X3134381Y2915987D01*
X3158948Y2899572D01*
X3186247Y2888264D01*
X3215226Y2882500D01*
X3244774D01*
X3273753Y2888264D01*
X3301052Y2899572D01*
X3325619Y2915987D01*
X3346512Y2936881D01*
X3362928Y2961448D01*
X3374235Y2988747D01*
X3380000Y3017726D01*
Y3047274D01*
X3374235Y3076253D01*
X3362928Y3103552D01*
X3346512Y3128119D01*
X3325619Y3149012D01*
X3301052Y3165428D01*
X3273753Y3176735D01*
X3244774Y3182500D01*
D02*
G37*
%LPD*%
G36*
X3185021Y4231099D02*
Y4231028D01*
X3191872Y4214488D01*
X3204531Y4201830D01*
X3221070Y4194979D01*
X3238972D01*
X3255511Y4201830D01*
X3268170Y4214488D01*
X3269573Y4217875D01*
X3310836D01*
X3347875Y4180835D01*
Y3773271D01*
X3340397Y3767240D01*
X3328500Y3772446D01*
Y3777468D01*
X3321787Y3802519D01*
X3308819Y3824980D01*
X3290480Y3843319D01*
X3268019Y3856287D01*
X3242968Y3863000D01*
X3217032D01*
X3191980Y3856287D01*
X3169519Y3843319D01*
X3163859Y3837659D01*
X3152125Y3842519D01*
Y4214797D01*
X3173288Y4235960D01*
X3185021Y4231099D01*
D02*
G37*
D10*
X2700000Y4990000D02*
D03*
Y4850000D02*
D03*
D11*
X3485000Y5010000D02*
D03*
X3275000D02*
D03*
X3485000Y4800000D02*
D03*
X3275000D02*
D03*
X3485000Y4580000D02*
D03*
X3275000D02*
D03*
D12*
X2922500Y5010000D02*
D03*
X3097500D02*
D03*
X2922500Y4800000D02*
D03*
X3097500D02*
D03*
X2922500Y4580000D02*
D03*
X3097500D02*
D03*
D13*
X3439000Y5056000D02*
Y5091000D01*
X3269330Y5199400D02*
X3330600D01*
X3439000Y5091000D01*
X3300000Y5140000D02*
X3301012D01*
X3384253Y5056760D01*
X3239930Y5170000D02*
X3269330Y5199400D01*
X2730000Y5090000D02*
X2810000Y5170000D01*
X3239930D01*
X3691341Y4950000D02*
X3700000D01*
X3626822Y5014519D02*
X3691341Y4950000D01*
X3489519Y5014519D02*
X3626822D01*
X2830000Y4482976D02*
X2872976Y4440000D01*
X2830000Y4482976D02*
Y4840000D01*
X2872976Y4440000D02*
X3128512D01*
X2817554Y4852445D02*
X2830000Y4840000D01*
X2817554Y4852445D02*
Y4910889D01*
X3128512Y4440000D02*
X3178512Y4490000D01*
X2700000Y4990000D02*
X2710000D01*
X2730000Y5010000D02*
Y5090000D01*
X2710000Y4990000D02*
X2730000Y5010000D01*
X2710000Y4750000D02*
Y4840000D01*
X3400000Y4490000D02*
X3485000Y4575000D01*
X3178512Y4490000D02*
X3400000D01*
X3485000Y4575000D02*
Y4580000D01*
X3316038Y4410000D02*
X3380000D01*
X3130000Y4223962D02*
X3316038Y4410000D01*
X3384253Y4954735D02*
X3426494Y4912494D01*
X3459506D02*
X3485000Y4887000D01*
X3426494Y4912494D02*
X3459506D01*
X3384253Y4954735D02*
Y5056760D01*
X3485000Y4800000D02*
Y4887000D01*
X3439000Y5056000D02*
X3485000Y5010000D01*
X3097500D02*
X3275000D01*
X3097500Y4800000D02*
X3275000D01*
X3097500Y4580000D02*
X3275000D01*
X3230000Y3622796D02*
X3370000Y3762796D01*
Y4190000D01*
X3320000Y4240000D02*
X3370000Y4190000D01*
X3230042Y4240000D02*
X3320000D01*
X3230021Y4239979D02*
X3230042Y4240000D01*
X3230000Y3464500D02*
Y3622796D01*
X3129800Y3722996D02*
X3130000Y3722796D01*
X3129800Y3722996D02*
Y3806004D01*
X3130000Y3806204D01*
Y4223962D01*
X2930000Y3464500D02*
X3130000Y3664500D01*
Y3722796D01*
X3485000Y5010000D02*
X3489519Y5014519D01*
X2700000Y4850000D02*
X2710000Y4840000D01*
D14*
X3230000Y3032500D02*
D03*
D15*
X2930000Y3764500D02*
D03*
X3230000D02*
D03*
X3530000D02*
D03*
X2930000Y3464500D02*
D03*
X3230000D02*
D03*
D16*
X3530000D02*
D03*
D17*
X3300000Y5140000D02*
D03*
X3140000Y5170000D02*
D03*
X2850000Y5250000D02*
D03*
X3700000Y4950000D02*
D03*
X3660000Y3940000D02*
D03*
X2930000Y4070000D02*
D03*
X3640000Y4690000D02*
D03*
X3690000Y5200000D02*
D03*
X2817554Y4910889D02*
D03*
X2710000Y4750000D02*
D03*
X3380000Y4410000D02*
D03*
X3230021Y4239979D02*
D03*
%TF.MD5,41688ee2cf87aecc85872d5e937f3d3e*%
M02*
