%TF.GenerationSoftware,Altium Limited,Altium Designer,24.10.1 (45)*%
G04 Layer_Color=32896*
%FSLAX45Y45*%
%MOMM*%
%TF.SameCoordinates,CCCF952C-884B-4702-A857-54D5FC670F4C*%
%TF.FilePolarity,Positive*%
%TF.FileFunction,Legend,Bot*%
%TF.Part,Single*%
G01*
G75*
%TA.AperFunction,NonConductor*%
%ADD22C,0.20000*%
%ADD23C,0.25400*%
%ADD24C,0.15240*%
%ADD25C,0.07620*%
G36*
X3019180Y4794050D02*
X2993780D01*
Y4755950D01*
X3019180D01*
Y4794050D01*
D02*
G37*
D22*
X3643196Y2626521D02*
Y2753479D01*
X3600876Y2711160D01*
X3558557Y2753479D01*
Y2626521D01*
X3431598Y2732320D02*
X3452758Y2753479D01*
X3495078D01*
X3516237Y2732320D01*
Y2647680D01*
X3495078Y2626521D01*
X3452758D01*
X3431598Y2647680D01*
Y2690000D01*
X3473918D01*
X3177680Y2626521D02*
X3262320D01*
X3177680Y2711160D01*
Y2732320D01*
X3198840Y2753479D01*
X3241160D01*
X3262320Y2732320D01*
X3135361D02*
X3114201Y2753479D01*
X3071881D01*
X3050721Y2732320D01*
Y2647680D01*
X3071881Y2626521D01*
X3114201D01*
X3135361Y2647680D01*
Y2732320D01*
X2923763Y2626521D02*
X3008402D01*
X2923763Y2711160D01*
Y2732320D01*
X2944922Y2753479D01*
X2987242D01*
X3008402Y2732320D01*
X2817964Y2626521D02*
Y2753479D01*
X2881443Y2690000D01*
X2796804D01*
X3758995Y5183479D02*
X3843634D01*
Y5056520D01*
X3758995D01*
X3843634Y5120000D02*
X3801315D01*
X3716676Y5056520D02*
Y5141160D01*
X3653196D01*
X3632036Y5120000D01*
Y5056520D01*
X3505077Y5141160D02*
X3568557D01*
X3589717Y5120000D01*
Y5077680D01*
X3568557Y5056520D01*
X3505077D01*
X3441598D02*
X3399278D01*
X3378118Y5077680D01*
Y5120000D01*
X3399278Y5141160D01*
X3441598D01*
X3462758Y5120000D01*
Y5077680D01*
X3441598Y5056520D01*
X3251160Y5183479D02*
Y5056520D01*
X3314639D01*
X3335799Y5077680D01*
Y5120000D01*
X3314639Y5141160D01*
X3251160D01*
X3145361Y5056520D02*
X3187680D01*
X3208840Y5077680D01*
Y5120000D01*
X3187680Y5141160D01*
X3145361D01*
X3124201Y5120000D01*
Y5098840D01*
X3208840D01*
X3081881Y5141160D02*
Y5056520D01*
Y5098840D01*
X3060722Y5120000D01*
X3039562Y5141160D01*
X3018402D01*
X2827964D02*
X2785644Y5056520D01*
X2743324Y5141160D01*
X2616365Y5056520D02*
X2701005D01*
X2616365Y5141160D01*
Y5162320D01*
X2637525Y5183479D01*
X2679845D01*
X2701005Y5162320D01*
D23*
X3301567Y4526175D02*
Y4399216D01*
X3276175Y4373825D01*
X3225392D01*
X3200000Y4399216D01*
Y4526175D01*
X3149216Y4373825D02*
X3098433D01*
X3123824D01*
Y4526175D01*
X3149216Y4500783D01*
D24*
X3350974Y4632360D02*
X3397640D01*
X3062360D02*
Y4679026D01*
Y4967640D02*
X3109026D01*
X3397640Y4920974D02*
Y4967640D01*
Y4632360D02*
Y4679026D01*
X3062360Y4632360D02*
X3109026D01*
X3062360Y4920974D02*
Y4967640D01*
X3350974D02*
X3397640D01*
D25*
X3510670Y4917299D02*
X3426030Y4832660D01*
X3510670D02*
X3426030Y4917299D01*
X3510670Y4874980D02*
X3426030D01*
X3468350Y4832660D02*
Y4917299D01*
%TF.MD5,4abacb72ad746089db581ace9e0f53e1*%
M02*
