%TF.GenerationSoftware,Altium Limited,Altium Designer,25.4.2 (15)*%
G04 Layer_Color=8388736*
%FSLAX45Y45*%
%MOMM*%
%TF.SameCoordinates,097E4B88-3495-4510-8411-AFE0114F90DD*%
%TF.FilePolarity,Negative*%
%TF.FileFunction,Soldermask,Top*%
%TF.Part,Single*%
G01*
G75*
%TA.AperFunction,SMDPad,CuDef*%
%ADD10R,0.85872X0.91213*%
%TA.AperFunction,ComponentPad*%
%ADD29R,1.57000X1.57000*%
%ADD30C,1.57000*%
%ADD31C,1.27000*%
%TA.AperFunction,ConnectorPad*%
%ADD52R,1.49000X2.74000*%
%ADD53R,1.98000X2.74000*%
%ADD54R,1.95000X5.70000*%
%TA.AperFunction,SMDPad,CuDef*%
%ADD55R,1.30000X1.50000*%
%TA.AperFunction,ComponentPad*%
%ADD56C,2.00000*%
%TA.AperFunction,ViaPad*%
%ADD57C,6.20320*%
%TA.AperFunction,ComponentPad*%
%ADD58C,1.75000*%
%ADD59R,1.75000X1.75000*%
%ADD60O,2.60000X1.40000*%
%ADD61R,3.91600X3.91600*%
%ADD62C,3.91600*%
%TA.AperFunction,ViaPad*%
%ADD63C,0.65000*%
D10*
X7854241Y2306100D02*
D03*
X7698900D02*
D03*
X7850071Y1836200D02*
D03*
X7694729D02*
D03*
X7862771Y1379000D02*
D03*
X7707429D02*
D03*
D29*
X7234200Y3938300D02*
D03*
X8673126Y3931700D02*
D03*
X6681174Y515400D02*
D03*
X8120100Y509900D02*
D03*
D30*
X6934200Y3938300D02*
D03*
X6634200D02*
D03*
X8373126Y3931700D02*
D03*
X8073126D02*
D03*
X6981174Y515400D02*
D03*
X7281174D02*
D03*
X8420100Y509900D02*
D03*
X8720100D02*
D03*
D31*
X6334200Y3742300D02*
D03*
X7534200D02*
D03*
X7773126Y3735700D02*
D03*
X8973126D02*
D03*
X7581174Y711400D02*
D03*
X6381174D02*
D03*
X9020100Y705900D02*
D03*
X7820100D02*
D03*
D52*
X5397768Y3943957D02*
D03*
X1384300Y3944400D02*
D03*
Y426500D02*
D03*
X5397500D02*
D03*
D53*
X5168339Y3943421D02*
D03*
X4916452Y3944437D02*
D03*
X4661518Y3945453D02*
D03*
X4406900Y3944400D02*
D03*
X4152900D02*
D03*
X3898900D02*
D03*
X3644900D02*
D03*
X3390900D02*
D03*
X3136900D02*
D03*
X2882900D02*
D03*
X2628900D02*
D03*
X2374900Y3946940D02*
D03*
X2120900Y3944400D02*
D03*
X1866900D02*
D03*
X1615440D02*
D03*
X1612900Y426500D02*
D03*
X1866900D02*
D03*
X2120900D02*
D03*
X2374900D02*
D03*
X2628900D02*
D03*
X2882900D02*
D03*
X3136900D02*
D03*
X3390900D02*
D03*
X3644900D02*
D03*
X3898900D02*
D03*
X4152900D02*
D03*
X4406900D02*
D03*
X4660900D02*
D03*
X4914900D02*
D03*
X5168900D02*
D03*
D54*
X910500Y3758300D02*
D03*
X5873000Y3760800D02*
D03*
X910500Y613300D02*
D03*
X5873000Y615800D02*
D03*
D55*
X7432900Y2306100D02*
D03*
X7222900D02*
D03*
X7432900Y1391700D02*
D03*
X7222900D02*
D03*
X7432900Y1836200D02*
D03*
X7222900D02*
D03*
D56*
X1196340Y3893600D02*
D03*
X1197900Y479840D02*
D03*
X5582920D02*
D03*
Y3893600D02*
D03*
D57*
X9500000Y3900000D02*
D03*
Y400000D02*
D03*
X400000Y3900000D02*
D03*
Y400000D02*
D03*
D58*
X6832625Y2141000D02*
D03*
X6578625D02*
D03*
X6324625D02*
D03*
X6832625Y1887000D02*
D03*
X6578625D02*
D03*
D59*
X6324625D02*
D03*
D60*
X1054100Y1826300D02*
D03*
Y3176300D02*
D03*
D61*
X1654100Y2141300D02*
D03*
D62*
Y2861300D02*
D03*
D63*
X6680000Y2530000D02*
D03*
X3977800Y1901007D02*
D03*
X3880000Y3040000D02*
D03*
X2570000Y2920000D02*
D03*
X2655600Y3040000D02*
D03*
X2610000Y3270000D02*
D03*
X2790000Y3720000D02*
D03*
X4350000Y1575000D02*
D03*
X5207700Y794500D02*
D03*
X2467700Y784500D02*
D03*
X2311400Y3449100D02*
D03*
X2046600Y665900D02*
D03*
X1752600Y744000D02*
D03*
X5219700Y934500D02*
D03*
X5357525Y665900D02*
D03*
X6565900Y2395000D02*
D03*
X5880100Y2712500D02*
D03*
X4457700Y3118900D02*
D03*
X3924300Y2585500D02*
D03*
X2616200Y185200D02*
D03*
%TF.MD5,db47d75270b1d7a38a31d34984cf28c3*%
M02*
