%TF.GenerationSoftware,Altium Limited,Altium Designer,25.4.2 (15)*%
G04 Layer_Color=32896*
%FSLAX45Y45*%
%MOMM*%
%TF.SameCoordinates,B4779AD4-EA5A-4B61-8BD4-7CBBBCF1F94B*%
%TF.FilePolarity,Positive*%
%TF.FileFunction,Legend,Bot*%
%TF.Part,Single*%
G01*
G75*
%TA.AperFunction,NonConductor*%
%ADD44C,0.25000*%
%ADD45C,0.20000*%
%ADD46C,0.25400*%
%ADD48C,0.15240*%
%ADD49C,0.15000*%
%ADD50C,0.12700*%
%ADD51C,0.07620*%
G36*
X8642724Y2862047D02*
X8653213Y2860549D01*
X8663701Y2857552D01*
X8680184Y2850060D01*
X8683181Y2848561D01*
X8692171Y2842568D01*
X8695168Y2841070D01*
X8699663Y2836574D01*
X8702660Y2835076D01*
X8706406Y2831330D01*
X8707904Y2828333D01*
X8713898Y2822340D01*
X8715396Y2819343D01*
X8717644Y2817095D01*
X8726634Y2802111D01*
X8729631Y2794619D01*
X8733377Y2784880D01*
X8736374Y2772893D01*
X8740120Y2764651D01*
X8743117Y2763153D01*
X8780577Y2725693D01*
X8783573Y2724194D01*
X8821033Y2686735D01*
X8824030Y2685236D01*
X8859992Y2649275D01*
X8862988Y2647776D01*
X8901198Y2609567D01*
X8901947Y2608818D01*
X8903445D01*
X8940905Y2571358D01*
X8943902Y2569860D01*
X8979863Y2533898D01*
X8982860Y2532400D01*
X8999343Y2515917D01*
X9002339Y2514419D01*
X9027812Y2502432D01*
X9038301Y2494940D01*
X9041298Y2493441D01*
X9047291Y2487448D01*
X9050288Y2485949D01*
X9056282Y2479956D01*
X9063025Y2471715D01*
X9073513Y2458229D01*
X9086250Y2435004D01*
X9092992Y2416274D01*
X9094491Y2410280D01*
X9095989Y2405785D01*
X9097488Y2389303D01*
X9098986Y2384808D01*
X9097488Y2360833D01*
X9094491Y2342853D01*
X9092243Y2334611D01*
X9090745Y2328618D01*
X9086250Y2316631D01*
X9084751Y2309139D01*
X9081755Y2291158D01*
X9080256Y2283666D01*
X9077259Y2265685D01*
X9075761Y2258193D01*
X9072764Y2240212D01*
X9071266Y2232720D01*
X9066771Y2205749D01*
X9065272Y2198257D01*
X9062275Y2180276D01*
X9060777Y2172784D01*
X9057780Y2154804D01*
X9056282Y2147312D01*
X9053285Y2129331D01*
X9051787Y2121839D01*
X9047291Y2094868D01*
X9045793Y2087376D01*
X9042796Y2069395D01*
X9041298Y2061903D01*
X9038301Y2043922D01*
X9036803Y2036430D01*
X9033806Y2018449D01*
X9032307Y2010957D01*
X9027812Y1983986D01*
X9026314Y1976494D01*
X9023317Y1958513D01*
X9021819Y1951021D01*
X9018822Y1933041D01*
X9017323Y1925549D01*
X9014327Y1907568D01*
X9012828Y1900076D01*
X9008333Y1873105D01*
X9006835Y1865613D01*
X9005336Y1856623D01*
X9003089Y1842388D01*
X9005336Y1840140D01*
X9008333Y1838642D01*
X9018073Y1828902D01*
X9019571Y1813918D01*
X9016574Y1806426D01*
X9015076Y1803429D01*
X8998593Y1786947D01*
X8997095Y1783950D01*
X8979114Y1765970D01*
X8977616Y1762973D01*
X8959635Y1744992D01*
X8958137Y1741995D01*
X8940156Y1724014D01*
X8938658Y1721018D01*
X8920677Y1703037D01*
X8919178Y1700040D01*
X8901198Y1682059D01*
X8899699Y1679062D01*
X8881718Y1661082D01*
X8880220Y1658085D01*
X8862239Y1640104D01*
X8860741Y1637107D01*
X8842760Y1619127D01*
X8841262Y1616130D01*
X8823281Y1598149D01*
X8821782Y1595152D01*
X8803802Y1577171D01*
X8802303Y1574175D01*
X8784323Y1556194D01*
X8782824Y1553197D01*
X8764843Y1535216D01*
X8763345Y1532219D01*
X8756602Y1525477D01*
X8751358Y1521731D01*
X8741618Y1517985D01*
X8729631Y1520981D01*
X8722888Y1527724D01*
X8717644Y1535965D01*
X8713898Y1535216D01*
X8707904Y1533718D01*
X8700412Y1532219D01*
X8658457Y1521731D01*
X8650965Y1520232D01*
X8609010Y1509743D01*
X8601518Y1508245D01*
X8559563Y1497756D01*
X8552071Y1496258D01*
X8510116Y1485769D01*
X8502624Y1484271D01*
X8460669Y1473782D01*
X8453177Y1472284D01*
X8411222Y1461795D01*
X8403730Y1460297D01*
X8361774Y1449808D01*
X8354283Y1448309D01*
X8312328Y1437821D01*
X8304835Y1436322D01*
X8268874Y1427332D01*
X8259134Y1425084D01*
X8247147Y1422087D01*
X8238906Y1418341D01*
X8224671Y1413097D01*
X8217179Y1410100D01*
X8208189Y1408602D01*
X8203694Y1407103D01*
X8175224Y1405605D01*
X8155745Y1407103D01*
X8143758Y1410100D01*
X8128774Y1414595D01*
X8106298Y1425084D01*
X8103301Y1426583D01*
X8094311Y1432576D01*
X8091314Y1434075D01*
X8085320Y1440068D01*
X8082323Y1441567D01*
X8068089Y1455801D01*
X8066590Y1458798D01*
X8063593Y1461795D01*
X8062095Y1464792D01*
X8059098Y1467789D01*
X8045613Y1493261D01*
X8031378Y1507496D01*
X8028381Y1508994D01*
X8013397Y1523978D01*
X8010400Y1525477D01*
X7995416Y1540461D01*
X7992420Y1541959D01*
X7977436Y1556943D01*
X7974439Y1558441D01*
X7959455Y1573425D01*
X7956458Y1574924D01*
X7942972Y1588409D01*
X7939976Y1589908D01*
X7924992Y1604892D01*
X7921995Y1606390D01*
X7907011Y1621374D01*
X7904014Y1622873D01*
X7889030Y1637857D01*
X7886034Y1639355D01*
X7871050Y1654339D01*
X7868053Y1655837D01*
X7854567Y1669323D01*
X7851570Y1670821D01*
X7836586Y1685805D01*
X7833589Y1687304D01*
X7818605Y1702288D01*
X7815609Y1703786D01*
X7800625Y1718770D01*
X7797628Y1720268D01*
X7782644Y1735252D01*
X7779647Y1736751D01*
X7775152Y1741246D01*
X7757171Y1745741D01*
X7744435Y1749487D01*
X7734695Y1753233D01*
X7722708Y1760725D01*
X7719711Y1762224D01*
X7716715Y1765220D01*
X7713718Y1766719D01*
X7696486Y1783950D01*
X7694988Y1786947D01*
X7692740Y1789195D01*
X7685248Y1801182D01*
X7677756Y1817664D01*
X7676258Y1823658D01*
X7674010Y1833397D01*
X7672512Y1843886D01*
X7674010Y1867861D01*
X7677007Y1879848D01*
X7680004Y1890337D01*
X7683001Y1897829D01*
X7686747Y1906070D01*
X7688245Y1927047D01*
X7704727Y2261190D01*
X7709223Y2352592D01*
X7711470Y2402788D01*
X7714467Y2413277D01*
X7716715Y2415525D01*
X7745184Y2430509D01*
X7754174Y2429010D01*
X7760917Y2422267D01*
X7762416Y2413277D01*
X7764663Y2412528D01*
X7789387Y2462724D01*
X7799875Y2479207D01*
X7801374Y2482203D01*
X7807367Y2491194D01*
X7808866Y2494191D01*
X7823850Y2515168D01*
X7825348Y2518165D01*
X7828345Y2521162D01*
X7829843Y2524159D01*
X7832840Y2527155D01*
X7834339Y2530152D01*
X7838834Y2534647D01*
X7840332Y2537644D01*
X7844828Y2542139D01*
X7846326Y2545136D01*
X7852320Y2551130D01*
X7853818Y2554126D01*
X7862808Y2563117D01*
X7864307Y2566114D01*
X7908509Y2610316D01*
X7911506Y2611815D01*
X7920496Y2620805D01*
X7923493Y2622304D01*
X7930985Y2629796D01*
X7933982Y2631294D01*
X7938477Y2635789D01*
X7941474Y2637288D01*
X7945969Y2641783D01*
X7948966Y2643281D01*
X7951214Y2645529D01*
X7980432Y2667256D01*
X7983429Y2668754D01*
X7993918Y2676246D01*
X7996915Y2677744D01*
X8007404Y2685236D01*
X8010400Y2686735D01*
X8019391Y2692728D01*
X8032876Y2700220D01*
X8044864Y2707712D01*
X8076330Y2724194D01*
X8086819Y2728690D01*
X8099555Y2733934D01*
X8067339Y2736182D01*
X8056851Y2737680D01*
X8050108Y2744423D01*
X8048610Y2754912D01*
X8056101Y2771394D01*
X8057600Y2777388D01*
X8065841Y2785629D01*
X8071085Y2787877D01*
X8095060Y2790873D01*
X8135517Y2795369D01*
X8147504Y2796867D01*
X8187961Y2801362D01*
X8199948Y2802861D01*
X8240404Y2807356D01*
X8252391Y2808854D01*
X8292848Y2813349D01*
X8304835Y2814848D01*
X8345292Y2819343D01*
X8357279Y2820841D01*
X8397736Y2825336D01*
X8409723Y2826835D01*
X8463666Y2832828D01*
X8475653Y2834327D01*
X8516109Y2838822D01*
X8528097Y2840320D01*
X8541582Y2841819D01*
X8563309Y2844066D01*
X8588782Y2856053D01*
X8596274Y2859050D01*
X8602267Y2860549D01*
X8606763Y2862047D01*
X8636731Y2863545D01*
X8642724Y2862047D01*
D02*
G37*
%LPC*%
G36*
X8537836Y2818594D02*
X8525100Y2817845D01*
X8511614Y2816346D01*
X8499627Y2814848D01*
X8472656Y2811851D01*
X8460669Y2810353D01*
X8433698Y2807356D01*
X8421710Y2805857D01*
X8381254Y2801362D01*
X8369266Y2799864D01*
X8342295Y2796867D01*
X8330308Y2795369D01*
X8303337Y2792372D01*
X8291350Y2790873D01*
X8250893Y2786378D01*
X8238906Y2784880D01*
X8211935Y2781883D01*
X8199948Y2780385D01*
X8172977Y2777388D01*
X8160989Y2775889D01*
X8120533Y2771394D01*
X8088317Y2767648D01*
X8077828Y2766150D01*
X8074082Y2759407D01*
X8074831Y2758658D01*
X8098057Y2756410D01*
X8123529Y2754912D01*
X8147504Y2753413D01*
X8172977Y2751915D01*
X8196951Y2750417D01*
X8222423Y2748918D01*
X8246398Y2747420D01*
X8297343Y2744423D01*
X8321318Y2742924D01*
X8346791Y2741426D01*
X8370765Y2739928D01*
X8396238Y2738429D01*
X8420212Y2736931D01*
X8445685Y2735432D01*
X8488389Y2733185D01*
X8491386D01*
X8495881Y2731686D01*
X8522103Y2732436D01*
X8520605Y2733934D01*
X8519106Y2757909D01*
X8520605Y2772893D01*
X8525100Y2790873D01*
X8535589Y2813349D01*
X8538585Y2816346D01*
X8537836Y2818594D01*
D02*
G37*
G36*
X8621747Y2841070D02*
X8603766Y2838073D01*
X8581290Y2827584D01*
X8578293Y2826086D01*
X8575296Y2823089D01*
X8572299Y2821590D01*
X8565557Y2814848D01*
X8555068Y2801362D01*
X8548325Y2788626D01*
X8544579Y2778886D01*
X8543081Y2774391D01*
X8541582Y2751915D01*
X8543081Y2736931D01*
X8546827Y2724194D01*
X8547576Y2723445D01*
Y2721947D01*
X8550573Y2714455D01*
X8556566Y2705464D01*
X8558065Y2702468D01*
X8562560Y2697973D01*
X8564058Y2694976D01*
X8567804Y2691230D01*
X8570801Y2689731D01*
X8574547Y2685985D01*
X8586534Y2678493D01*
X8595525Y2673998D01*
X8603017Y2671002D01*
X8609010Y2669503D01*
X8627740Y2667256D01*
X8642724Y2668754D01*
X8654711Y2671751D01*
X8677187Y2682239D01*
X8680184Y2683738D01*
X8693669Y2697223D01*
X8700412Y2705464D01*
X8706406Y2715953D01*
X8707904Y2718950D01*
X8710901Y2726442D01*
X8712399Y2730937D01*
X8715396Y2750417D01*
X8713898Y2769896D01*
X8711650Y2778137D01*
X8710152Y2784131D01*
X8706406Y2793870D01*
X8700412Y2802861D01*
X8698914Y2805857D01*
X8695917Y2808854D01*
X8694419Y2811851D01*
X8687676Y2818594D01*
X8684679Y2820092D01*
X8680933Y2823838D01*
X8665949Y2832828D01*
X8656210Y2836574D01*
X8648718Y2839571D01*
X8621747Y2841070D01*
D02*
G37*
G36*
X8157243Y2730188D02*
X8146755Y2727191D01*
X8134018Y2723445D01*
X8119783Y2718201D01*
X8097307Y2709210D01*
X8071835Y2697223D01*
X8049359Y2685236D01*
X8040368Y2679243D01*
X8037372Y2677744D01*
X8025384Y2670252D01*
X8022388Y2668754D01*
X8011899Y2661262D01*
X8008902Y2659764D01*
X7998413Y2652272D01*
X7995416Y2650773D01*
X7992420Y2647776D01*
X7989423Y2646278D01*
X7986426Y2643281D01*
X7983429Y2641783D01*
X7980432Y2638786D01*
X7977436Y2637288D01*
X7974439Y2634291D01*
X7971442Y2632792D01*
X7968445Y2629796D01*
X7965448Y2628297D01*
X7960953Y2623802D01*
X7957956Y2622304D01*
X7951963Y2616310D01*
X7948966Y2614812D01*
X7941474Y2607320D01*
X7938477Y2605821D01*
X7924992Y2592336D01*
X7921995Y2590837D01*
X7888281Y2557123D01*
X7886783Y2554126D01*
X7874796Y2542139D01*
X7873297Y2539142D01*
X7865805Y2531651D01*
X7864307Y2528654D01*
X7858313Y2522660D01*
X7856815Y2519663D01*
X7854567Y2517416D01*
X7832840Y2488197D01*
X7831342Y2485200D01*
X7823850Y2474711D01*
X7822351Y2471715D01*
X7816358Y2462724D01*
X7810364Y2452235D01*
X7802872Y2438750D01*
X8067339Y2438001D01*
X8073333Y2436502D01*
X8083822Y2432007D01*
X8086819Y2430509D01*
X8092063Y2425264D01*
X8099555Y2411779D01*
X8101053Y2396795D01*
X8096558Y2381811D01*
X8093561Y2378814D01*
X8092063Y2375817D01*
X8085320Y2370573D01*
X8074831Y2364579D01*
X7854567Y2363081D01*
X7850821Y2359335D01*
X7849323Y2353341D01*
X7850821Y2347348D01*
X7853818Y2344351D01*
X7853069Y2343602D01*
X7850072Y2342103D01*
X7838085Y2334611D01*
X7834339Y2339856D01*
X7831342Y2347348D01*
X7829843Y2351843D01*
X7831342Y2362332D01*
X7834339Y2369824D01*
X7838085Y2373570D01*
X7848574Y2381062D01*
X8067339Y2382560D01*
X8073333Y2384058D01*
X8080076Y2390801D01*
X8081574Y2404287D01*
X8078577Y2411779D01*
X8070336Y2418521D01*
X7793133Y2420020D01*
X7786390Y2405785D01*
X7780396Y2392300D01*
X7774403Y2377316D01*
X7769907Y2366827D01*
X7775901Y2317380D01*
X7828345Y2315881D01*
X7822351Y2309888D01*
X7820853Y2306891D01*
X7813361Y2299399D01*
X7778898Y2297901D01*
X7779647Y2288161D01*
X7808117Y2060405D01*
X7810364Y2040176D01*
X7811863Y2034183D01*
X7814110Y2013954D01*
X7818605Y1977993D01*
X7820853Y1954767D01*
X7823101Y1952520D01*
X7839583Y1943530D01*
X7842580Y1942031D01*
X7845577Y1939034D01*
X7848574Y1937536D01*
X7853069Y1933041D01*
X7856066Y1931542D01*
X7858313Y1929295D01*
X7859812Y1926298D01*
X7862808Y1923301D01*
X7873297Y1909816D01*
X7880789Y1896330D01*
X7886034Y1883594D01*
X7888281Y1873854D01*
X7890529Y1865613D01*
X7915252Y1849880D01*
X7930236Y1840889D01*
X7946718Y1830401D01*
X7961702Y1821410D01*
X7978185Y1810921D01*
X7993169Y1801931D01*
X8009651Y1791442D01*
X8024635Y1782452D01*
X8060597Y1759976D01*
X8075581Y1750986D01*
X8092063Y1740497D01*
X8107047Y1731506D01*
X8123529Y1721018D01*
X8138513Y1712027D01*
X8150501Y1704535D01*
X8159491Y1698542D01*
X8185713Y1699291D01*
X8205941Y1697043D01*
X8213433Y1695545D01*
X8225420Y1692548D01*
X8235160Y1688802D01*
X8254639Y1679812D01*
X8265128Y1672320D01*
X8268874Y1673069D01*
X8436694Y1715024D01*
X8444186Y1716522D01*
X8582039Y1750986D01*
X8583537Y1753982D01*
X8577544Y1762973D01*
X8576045Y1771963D01*
X8577544Y1777957D01*
X8580541Y1780954D01*
X8582039Y1783950D01*
X8600020Y1801931D01*
X8601518Y1804928D01*
X8620997Y1824407D01*
X8528846Y1825156D01*
X8361025Y1826655D01*
X8340048Y1829651D01*
X8325064Y1834147D01*
X8314575Y1838642D01*
X8303337Y1845385D01*
X8274118Y1867111D01*
X8268874Y1870857D01*
X8250144Y1885092D01*
X8247147Y1886591D01*
X8244150Y1889587D01*
X8241153Y1891086D01*
X8238157Y1894083D01*
X8235160Y1895581D01*
X8232912Y1897829D01*
X8214932Y1909816D01*
X8207440Y1912813D01*
X8197700Y1916559D01*
X8193205Y1918057D01*
X8154247Y1919555D01*
X7927988Y1921054D01*
X7921995Y1922552D01*
X7911506Y1927047D01*
X7903265Y1935288D01*
X7897271Y1945777D01*
X7895773Y1963758D01*
X7897271Y1969751D01*
X7900268Y1977243D01*
X7903265Y1980240D01*
X7904763Y1983237D01*
X7907011Y1983986D01*
X7910008Y1986983D01*
X7918249Y1992227D01*
X7926490Y1994475D01*
X7930985Y1995973D01*
X8021638Y1995224D01*
X8023137Y1977243D01*
X7930985Y1976494D01*
X7923493Y1973497D01*
X7920496Y1971999D01*
X7916001Y1966005D01*
X7913754Y1957764D01*
X7918249Y1947276D01*
X7926490Y1940533D01*
X8181218Y1939034D01*
X8187211Y1937536D01*
X8197700Y1936038D01*
X8210436Y1932292D01*
X8220176Y1928546D01*
X8238906Y1917308D01*
X8268125Y1895581D01*
X8273369Y1891835D01*
X8313077Y1862616D01*
X8330308Y1852877D01*
X8337800Y1849880D01*
X8346041Y1847632D01*
X8350537Y1846134D01*
X8639727Y1844635D01*
X8641975Y1846883D01*
X8643473Y1849880D01*
X8661454Y1867861D01*
X8662952Y1870857D01*
X8680933Y1888838D01*
X8682431Y1891835D01*
X8700412Y1909816D01*
X8701911Y1912813D01*
X8719891Y1930793D01*
X8721390Y1933790D01*
X8739371Y1951771D01*
X8740869Y1954767D01*
X8758850Y1972748D01*
X8767091Y1974996D01*
X8773085Y1973497D01*
X8780577Y1969002D01*
X8782075Y1971999D01*
X8783573Y1980989D01*
X8785072Y1988481D01*
X8788069Y2006462D01*
X8789567Y2013954D01*
X8792564Y2031935D01*
X8794062Y2039427D01*
X8795561Y2048417D01*
X8797059Y2055909D01*
X8800056Y2073890D01*
X8801554Y2081382D01*
X8804551Y2099363D01*
X8806798Y2112099D01*
X8808297Y2116594D01*
X8770088Y2117344D01*
X8758850Y2134575D01*
X8810544Y2135324D01*
X8812043Y2141318D01*
X8813541Y2148810D01*
X8816538Y2166791D01*
X8818036Y2174283D01*
X8819535Y2183273D01*
X8821033Y2190765D01*
X8824030Y2208746D01*
X8825528Y2216238D01*
X8828525Y2234219D01*
X8830024Y2241711D01*
X8831522Y2250701D01*
X8833020Y2258193D01*
X8834519Y2267183D01*
X8836766Y2281418D01*
X8834519Y2288161D01*
X8824779Y2302396D01*
X8818036Y2315132D01*
X8815040Y2322624D01*
X8810544Y2334611D01*
X8807548Y2346599D01*
X8806049Y2355589D01*
X8803802Y2378814D01*
X8805300Y2384808D01*
X8800805Y2392300D01*
X8799307Y2395296D01*
X8797059Y2397544D01*
X8464415Y2399042D01*
X8463666Y2417772D01*
X8781326Y2419271D01*
X8712399Y2516667D01*
X8710901Y2519663D01*
X8707904Y2522660D01*
X8706406Y2525657D01*
X8661454Y2588590D01*
X8659956Y2591586D01*
X8656959Y2594583D01*
X8655460Y2597580D01*
X8404479Y2598329D01*
X8389495Y2596831D01*
X8379006Y2595332D01*
X8373012Y2593834D01*
X8362524Y2590837D01*
X8355032Y2587840D01*
X8333305Y2576602D01*
X8285356Y2546634D01*
X8268874Y2536146D01*
X8243401Y2521162D01*
X8235909Y2518165D01*
X8219427Y2512171D01*
X8209687Y2509924D01*
X8205192Y2508425D01*
X7999912Y2506927D01*
X7998413D01*
X7954210Y2507676D01*
X7952712Y2530152D01*
X7954960Y2532400D01*
X7955709Y2527155D01*
X8173726Y2524908D01*
X8193205Y2526406D01*
X8203694Y2527905D01*
X8221674Y2532400D01*
X8253141Y2547384D01*
X8263629Y2554876D01*
X8266626Y2556374D01*
X8275617Y2562368D01*
X8278613Y2563866D01*
X8287604Y2569860D01*
X8290601Y2571358D01*
X8299591Y2577352D01*
X8302588Y2578850D01*
X8319070Y2589339D01*
X8340797Y2602075D01*
X8348289Y2605072D01*
X8364771Y2611066D01*
X8376758Y2614062D01*
X8385749Y2615561D01*
X8405228Y2617059D01*
X8639727Y2616310D01*
X8640476Y2618558D01*
X8621747Y2644780D01*
X8617251Y2646278D01*
X8606763Y2647776D01*
X8594775Y2650773D01*
X8569303Y2662760D01*
X8566306Y2664259D01*
X8563309Y2667256D01*
X8560312Y2668754D01*
X8544579Y2684487D01*
X8543081Y2687484D01*
X8540833Y2689731D01*
X8531843Y2704715D01*
X8526598Y2708461D01*
X8502624Y2709960D01*
X8477151Y2711458D01*
X8453177Y2712956D01*
X8427704Y2714455D01*
X8403730Y2715953D01*
X8352784Y2718950D01*
X8328810Y2720448D01*
X8303337Y2721947D01*
X8279363Y2723445D01*
X8253890Y2724944D01*
X8229915Y2726442D01*
X8204443Y2727940D01*
X8157243Y2730188D01*
D02*
G37*
G36*
X8735625Y2737680D02*
X8734875Y2733934D01*
X8733377Y2727940D01*
X8728882Y2712956D01*
X8724387Y2702468D01*
X8718393Y2693477D01*
X8716895Y2690481D01*
X8712399Y2685985D01*
X8710901Y2682989D01*
X8703409Y2675497D01*
X8695168Y2668754D01*
X8689923Y2665008D01*
X8674939Y2656018D01*
X8659956Y2650024D01*
X8653962Y2648526D01*
X8646470Y2647027D01*
X8650965Y2641034D01*
X8652464Y2638037D01*
X8655460Y2635040D01*
X8656959Y2632043D01*
X8709403Y2558622D01*
X8710901Y2555625D01*
X8713898Y2552628D01*
X8715396Y2549631D01*
X8782824Y2455232D01*
X8784323Y2452235D01*
X8787319Y2449239D01*
Y2447740D01*
X8800805Y2429759D01*
X8802303Y2426763D01*
X8805300Y2423766D01*
X8806798Y2420769D01*
X8810544Y2417023D01*
X8814290Y2428261D01*
X8823281Y2447740D01*
X8824779Y2450737D01*
X8830773Y2459727D01*
X8832271Y2462724D01*
X8836766Y2467219D01*
X8838265Y2470216D01*
X8853249Y2485200D01*
X8871979Y2499435D01*
X8897452Y2512921D01*
X8904944Y2515917D01*
X8913185Y2518165D01*
X8922924Y2520413D01*
X8927420Y2521911D01*
X8959635Y2524159D01*
X8948397Y2535397D01*
X8945400Y2536895D01*
X8910937Y2571358D01*
X8907940Y2572856D01*
X8873477Y2607320D01*
X8870480Y2608818D01*
X8834519Y2644780D01*
X8831522Y2646278D01*
X8797059Y2680741D01*
X8794062Y2682239D01*
X8758101Y2718201D01*
X8755104Y2719699D01*
X8738621Y2736182D01*
X8735625Y2737680D01*
D02*
G37*
G36*
X8940905Y2500933D02*
X8930416Y2499435D01*
X8918429Y2496438D01*
X8907940Y2493441D01*
X8892956Y2487448D01*
X8880969Y2479956D01*
X8877972Y2478457D01*
X8874976Y2475461D01*
X8871979Y2473962D01*
X8859242Y2461226D01*
X8848754Y2447740D01*
X8837516Y2429010D01*
X8832271Y2414775D01*
X8829274Y2407283D01*
X8827776Y2395296D01*
X8826278Y2390801D01*
X8827027Y2361583D01*
X8828525Y2352592D01*
X8830024Y2345100D01*
X8832271Y2336859D01*
X8835268Y2329367D01*
X8842760Y2312885D01*
X8848754Y2303894D01*
X8850252Y2300897D01*
X8854747Y2296402D01*
X8856246Y2293405D01*
X8860741Y2288910D01*
X8868982Y2282167D01*
X8882468Y2271678D01*
X8904944Y2259691D01*
X8914683Y2255945D01*
X8924423Y2253698D01*
X8928918Y2252199D01*
X8961883Y2250701D01*
X8967876Y2252199D01*
X8978365Y2253698D01*
X8993349Y2258193D01*
X9021819Y2271678D01*
X9024815Y2274675D01*
X9027812Y2276174D01*
X9030809Y2279170D01*
X9033806Y2280669D01*
X9045044Y2291907D01*
X9046542Y2294904D01*
X9049539Y2297901D01*
X9053285Y2303145D01*
X9062275Y2318129D01*
X9066771Y2327119D01*
X9072015Y2341354D01*
X9073513Y2347348D01*
X9075012Y2351843D01*
X9076510Y2381811D01*
X9075012Y2396795D01*
X9072015Y2408782D01*
X9069018Y2419271D01*
X9064523Y2429759D01*
Y2431258D01*
X9060028Y2438750D01*
X9054034Y2449239D01*
X9049539Y2453734D01*
X9048041Y2456731D01*
X9035304Y2469467D01*
X9032307Y2470965D01*
X9029311Y2473962D01*
X9024066Y2477708D01*
X9007584Y2488197D01*
X9000092Y2491194D01*
X8988105Y2495689D01*
X8979863Y2497937D01*
X8975368Y2499435D01*
X8940905Y2500933D01*
D02*
G37*
G36*
X9054783Y2271678D02*
X9050288Y2267183D01*
X9047291Y2265685D01*
X9044295Y2262688D01*
X9039050Y2258942D01*
X9024815Y2249203D01*
X9012079Y2242460D01*
X9004587Y2239463D01*
X8992600Y2234968D01*
X8982860Y2232720D01*
X8978365Y2231222D01*
X8945400Y2229724D01*
X8925921Y2231222D01*
X8913934Y2234219D01*
X8898950Y2238714D01*
X8879471Y2247704D01*
X8876474Y2249203D01*
X8867484Y2255196D01*
X8864487Y2256694D01*
X8861490Y2259691D01*
X8858493Y2261190D01*
X8855496Y2264186D01*
X8852500Y2249203D01*
X8849503Y2231222D01*
X8848004Y2223730D01*
X8845008Y2205749D01*
X8843509Y2198257D01*
X8842011Y2189267D01*
X8840512Y2181775D01*
X8837516Y2163794D01*
X8836017Y2156302D01*
X8834519Y2147312D01*
X8833020Y2139820D01*
X8830024Y2121839D01*
X8828525Y2114347D01*
X8825528Y2096366D01*
X8824030Y2088874D01*
X8822532Y2079884D01*
X8821033Y2072392D01*
X8818036Y2054411D01*
X8816538Y2046919D01*
X8815040Y2037929D01*
X8813541Y2030437D01*
X8810544Y2012456D01*
X8809046Y2004964D01*
X8807548Y1995973D01*
X8806049Y1988481D01*
X8803052Y1970501D01*
X8800805Y1957764D01*
X8805300Y1954767D01*
X8847255Y1930793D01*
X8875725Y1914311D01*
X8917680Y1890337D01*
X8974619Y1857372D01*
X8975368Y1856623D01*
X8981362Y1853626D01*
X8982860Y1856623D01*
X8985857Y1874603D01*
X8987355Y1882095D01*
X8991851Y1909067D01*
X8993349Y1916559D01*
X8996346Y1934539D01*
X8997844Y1942031D01*
X9000841Y1960012D01*
X9002339Y1967504D01*
X9005336Y1985485D01*
X9006835Y1992977D01*
X9009831Y2010957D01*
X9011330Y2018449D01*
X9014327Y2036430D01*
X9015825Y2043922D01*
X9018822Y2061903D01*
X9020320Y2069395D01*
X9023317Y2087376D01*
X9024815Y2094868D01*
X9027812Y2112848D01*
X9029311Y2120340D01*
X9032307Y2138321D01*
X9033806Y2145813D01*
X9036803Y2163794D01*
X9038301Y2171286D01*
X9041298Y2189267D01*
X9042796Y2196759D01*
X9045793Y2214740D01*
X9047291Y2222232D01*
X9050288Y2240212D01*
X9051787Y2247704D01*
X9054034Y2261939D01*
X9055533Y2266434D01*
X9054783Y2271678D01*
D02*
G37*
G36*
X7742187Y2403537D02*
X7735445Y2401290D01*
X7733946Y2392300D01*
Y2390801D01*
X7733197Y2382560D01*
X7731699Y2355589D01*
X7730200Y2324123D01*
X7728702Y2295653D01*
X7713718Y1992977D01*
X7711470Y1936787D01*
X7715216Y1937536D01*
X7718213Y1940533D01*
X7738441Y1951771D01*
X7752676Y1957015D01*
X7757171Y1958513D01*
X7775152Y1960012D01*
X7781145Y1961510D01*
X7785641Y1960012D01*
X7798377Y1960761D01*
X7797628Y1966005D01*
X7796129Y1977993D01*
X7794631Y1991478D01*
X7746683Y2375068D01*
X7744435Y2396795D01*
X7742187Y2403537D01*
D02*
G37*
G36*
X7788637Y1939034D02*
X7781145D01*
X7766162Y1937536D01*
X7760168Y1936038D01*
X7751927Y1933790D01*
X7742187Y1930044D01*
X7733197Y1924051D01*
X7730200Y1922552D01*
X7727203Y1919555D01*
X7724207Y1918057D01*
X7718962Y1912813D01*
X7715216Y1907568D01*
X7708473Y1899327D01*
X7701731Y1886591D01*
X7698734Y1879099D01*
X7696486Y1870857D01*
X7694988Y1866362D01*
X7695737Y1835645D01*
X7697985Y1825905D01*
X7703978Y1810921D01*
X7709972Y1801931D01*
X7711470Y1798934D01*
X7725705Y1784700D01*
X7730949Y1780954D01*
X7742937Y1773462D01*
X7752676Y1769716D01*
X7760168Y1766719D01*
X7788637Y1765220D01*
X7806618Y1768217D01*
X7829094Y1778706D01*
X7832091Y1780204D01*
X7835088Y1783201D01*
X7838085Y1784700D01*
X7842580Y1789195D01*
X7856815Y1807925D01*
X7863558Y1822159D01*
X7865805Y1830401D01*
X7867304Y1836394D01*
X7868802Y1846883D01*
X7867304Y1866362D01*
X7865805Y1872356D01*
X7862808Y1882845D01*
X7858313Y1893333D01*
X7852320Y1902324D01*
X7850821Y1905321D01*
X7835088Y1921054D01*
X7824599Y1927047D01*
X7822351Y1929295D01*
X7814859Y1932292D01*
X7805120Y1936038D01*
X7799126Y1937536D01*
X7788637Y1939034D01*
D02*
G37*
G36*
X8765593Y1949523D02*
X8764843Y1947276D01*
X8746863Y1929295D01*
X8745364Y1926298D01*
X8740869Y1921803D01*
X8740120Y1921054D01*
X8727383Y1908317D01*
X8725885Y1905321D01*
X8707904Y1887340D01*
X8706406Y1884343D01*
X8688425Y1866362D01*
X8686927Y1863365D01*
X8668946Y1845385D01*
X8667447Y1842388D01*
X8649467Y1824407D01*
X8647968Y1821410D01*
X8629988Y1803429D01*
X8628489Y1800433D01*
X8610509Y1782452D01*
X8609010Y1779455D01*
X8601518Y1771963D01*
X8600020Y1768966D01*
X8603766Y1760725D01*
X8614255Y1744243D01*
X8623245Y1729259D01*
X8633734Y1712776D01*
X8642724Y1697792D01*
X8650216Y1685805D01*
X8660705Y1669323D01*
X8669695Y1654339D01*
X8680184Y1637857D01*
X8689174Y1622873D01*
X8699663Y1606390D01*
X8708653Y1591406D01*
X8719142Y1574924D01*
X8728133Y1559940D01*
X8738621Y1543457D01*
X8741618Y1541959D01*
X8757351Y1557692D01*
X8758850Y1560689D01*
X8776831Y1578670D01*
X8778329Y1581667D01*
X8796310Y1599647D01*
X8797808Y1602644D01*
X8815789Y1620625D01*
X8817287Y1623622D01*
X8835268Y1641603D01*
X8836766Y1644599D01*
X8854747Y1662580D01*
X8856246Y1665577D01*
X8874226Y1683558D01*
X8875725Y1686554D01*
X8893706Y1704535D01*
X8895204Y1707532D01*
X8913185Y1725513D01*
X8914683Y1728510D01*
X8932664Y1746490D01*
X8934162Y1749487D01*
X8952143Y1767468D01*
X8953641Y1770465D01*
X8971622Y1788445D01*
X8973121Y1791442D01*
X8991101Y1809423D01*
X8992600Y1812420D01*
X8995597Y1815417D01*
X8997095Y1818413D01*
X8994847Y1820661D01*
X8963381Y1838642D01*
X8946899Y1847632D01*
X8934912Y1855124D01*
X8882468Y1885092D01*
X8865985Y1894083D01*
X8853998Y1901575D01*
X8801554Y1931542D01*
X8785072Y1940533D01*
X8773085Y1948025D01*
X8765593Y1949523D01*
D02*
G37*
G36*
X7890529Y1840140D02*
X7889779Y1839391D01*
X7888281Y1830401D01*
X7885284Y1818413D01*
X7873297Y1792941D01*
X7871799Y1789944D01*
X7868802Y1786947D01*
X7867304Y1783950D01*
X7850072Y1766719D01*
X7847075Y1765220D01*
X7836586Y1757728D01*
X7822351Y1750986D01*
X7810364Y1746490D01*
X7804371Y1744992D01*
X7818605Y1730757D01*
X7821602Y1729259D01*
X7832840Y1718021D01*
X7841082Y1711278D01*
X7841831Y1710529D01*
X7854567Y1697792D01*
X7857564Y1696294D01*
X7871050Y1682808D01*
X7874046Y1681310D01*
X7889030Y1666326D01*
X7892027Y1664828D01*
X7907011Y1649844D01*
X7910008Y1648345D01*
X7923493Y1634860D01*
X7926490Y1633361D01*
X7941474Y1618377D01*
X7944471Y1616879D01*
X7959455Y1601895D01*
X7962452Y1600397D01*
X7975937Y1586911D01*
X7978934Y1585413D01*
X7993918Y1570429D01*
X7996915Y1568930D01*
X8011899Y1553946D01*
X8014896Y1552448D01*
X8031378Y1535965D01*
X8033626Y1536715D01*
X8032127Y1550200D01*
X8035124Y1580168D01*
X8038121Y1592155D01*
X8041118Y1602644D01*
X8044114Y1610136D01*
X8051606Y1626619D01*
X8059098Y1637107D01*
X8060597Y1640104D01*
X8063593Y1643101D01*
X8065092Y1646098D01*
X8080825Y1661831D01*
X8094311Y1672320D01*
X8113041Y1683558D01*
X8122031Y1688053D01*
X8129523Y1691050D01*
X8127275Y1693297D01*
X8124279Y1694796D01*
X8115288Y1700789D01*
X8112291Y1702288D01*
X8095809Y1712776D01*
X8092812Y1714275D01*
X8076330Y1724764D01*
X8073333Y1726262D01*
X8056851Y1736751D01*
X8053854Y1738249D01*
X8044864Y1744243D01*
X8041867Y1745741D01*
X8025384Y1756230D01*
X8022388Y1757728D01*
X8005905Y1768217D01*
X8002908Y1769716D01*
X7986426Y1780204D01*
X7983429Y1781703D01*
X7974439Y1787696D01*
X7971442Y1789195D01*
X7954960Y1799683D01*
X7951963Y1801182D01*
X7935480Y1811670D01*
X7932484Y1813169D01*
X7916001Y1823658D01*
X7913004Y1825156D01*
X7896522Y1835645D01*
X7893525Y1837143D01*
X7890529Y1840140D01*
D02*
G37*
G36*
X8596274Y1732256D02*
X8594026Y1731506D01*
X8546077Y1719519D01*
X8538585Y1718021D01*
X8454675Y1697043D01*
X8447183Y1695545D01*
X8369266Y1676066D01*
X8359527Y1673818D01*
X8293597Y1657336D01*
X8285356Y1655088D01*
X8287604Y1652840D01*
X8301839Y1634111D01*
X8313077Y1613882D01*
X8316074Y1606390D01*
X8320569Y1594403D01*
X8323566Y1582416D01*
X8325064Y1573425D01*
X8326562Y1558441D01*
X8325813Y1536715D01*
X8324315Y1526226D01*
X8321318Y1514239D01*
X8318321Y1503750D01*
X8307832Y1481274D01*
X8306334Y1478277D01*
X8300340Y1469287D01*
X8298842Y1466290D01*
X8294347Y1461795D01*
X8292848Y1458798D01*
X8289851Y1455801D01*
X8290601Y1455052D01*
X8292848Y1455801D01*
X8322816Y1463293D01*
X8330308Y1464792D01*
X8378257Y1476779D01*
X8385749Y1478277D01*
X8427704Y1488766D01*
X8435196Y1490264D01*
X8477151Y1500753D01*
X8486891Y1503001D01*
X8498878Y1505997D01*
X8500376D01*
X8502624Y1506747D01*
X8538585Y1515737D01*
X8546077Y1517235D01*
X8588033Y1527724D01*
X8595525Y1529223D01*
X8643473Y1541210D01*
X8650965Y1542708D01*
X8686927Y1551699D01*
X8704158Y1555445D01*
X8704907Y1557692D01*
X8694419Y1574175D01*
X8692920Y1577171D01*
X8686927Y1586162D01*
X8685428Y1589159D01*
X8674939Y1605641D01*
X8673441Y1608638D01*
X8662952Y1625120D01*
X8661454Y1628117D01*
X8655460Y1637107D01*
X8653962Y1640104D01*
X8643473Y1656586D01*
X8641975Y1659583D01*
X8635981Y1668574D01*
X8634483Y1671570D01*
X8623994Y1688053D01*
X8622496Y1691050D01*
X8612007Y1707532D01*
X8610509Y1710529D01*
X8600020Y1727011D01*
X8598521Y1730008D01*
X8596274Y1732256D01*
D02*
G37*
G36*
X8179719Y1678313D02*
X8164735Y1676815D01*
X8154247Y1675316D01*
X8148253Y1673818D01*
X8137764Y1670821D01*
X8109295Y1657336D01*
X8106298Y1654339D01*
X8103301Y1652840D01*
X8100304Y1649844D01*
X8097307Y1648345D01*
X8088317Y1639355D01*
X8074082Y1620625D01*
X8065092Y1604143D01*
X8060597Y1593654D01*
X8057600Y1583165D01*
X8056101Y1578670D01*
X8054603Y1545705D01*
X8056101Y1530721D01*
X8060597Y1512740D01*
X8063593Y1505248D01*
X8069587Y1491763D01*
X8075581Y1482772D01*
X8077079Y1479776D01*
X8081574Y1475281D01*
X8083073Y1472284D01*
X8093561Y1461795D01*
X8101803Y1455052D01*
X8107047Y1451306D01*
X8123529Y1440817D01*
X8131021Y1437821D01*
X8145256Y1432576D01*
X8151250Y1431078D01*
X8155745Y1429579D01*
X8181218Y1428081D01*
X8200697Y1429579D01*
X8206690Y1431078D01*
X8221674Y1435573D01*
X8250144Y1449059D01*
X8253141Y1452055D01*
X8256137Y1453554D01*
X8262131Y1459547D01*
X8265128Y1461046D01*
X8270372Y1466290D01*
X8271871Y1469287D01*
X8277864Y1475281D01*
X8279363Y1478277D01*
X8286855Y1488766D01*
X8293597Y1501502D01*
X8300340Y1520232D01*
X8301839Y1524727D01*
Y1526226D01*
X8303337Y1538213D01*
X8304835Y1542708D01*
X8304086Y1559940D01*
X8302588Y1573425D01*
X8301089Y1580917D01*
X8298842Y1590657D01*
X8295845Y1598149D01*
X8291350Y1608638D01*
X8282359Y1625120D01*
X8277864Y1629615D01*
X8276366Y1632612D01*
X8260633Y1648345D01*
X8257636Y1649844D01*
X8254639Y1652840D01*
X8251642Y1654339D01*
X8248645Y1657336D01*
X8238157Y1663329D01*
X8226919Y1668574D01*
X8214932Y1673069D01*
X8208938Y1674567D01*
X8201446Y1676066D01*
X8179719Y1678313D01*
D02*
G37*
%LPD*%
G36*
X8640476Y2814848D02*
X8648718Y2812600D01*
X8659206Y2808105D01*
X8662203Y2805108D01*
X8665200Y2803610D01*
X8676438Y2792372D01*
X8686927Y2772893D01*
X8688425Y2748918D01*
X8686927Y2738429D01*
X8679435Y2721947D01*
X8674939Y2717452D01*
X8673441Y2714455D01*
X8671193Y2712207D01*
X8668197Y2710709D01*
X8664451Y2706963D01*
X8655460Y2700969D01*
X8647968Y2697973D01*
X8639727Y2695725D01*
X8635232Y2694227D01*
X8617251Y2695725D01*
X8606763Y2698722D01*
X8596274Y2703217D01*
X8593277Y2706214D01*
X8590280Y2707712D01*
X8585785Y2712207D01*
X8579042Y2720448D01*
X8570052Y2736931D01*
X8568553Y2745921D01*
X8567055Y2751915D01*
X8568553Y2766899D01*
X8570052Y2772893D01*
X8577544Y2789375D01*
X8582039Y2793870D01*
X8583537Y2796867D01*
X8588033Y2799864D01*
X8596274Y2806607D01*
X8597023Y2807356D01*
X8608261Y2812600D01*
X8615753Y2815597D01*
X8640476Y2814848D01*
D02*
G37*
%LPC*%
G36*
X8631486Y2796867D02*
X8618750Y2796118D01*
X8608261Y2791623D01*
X8605264Y2790124D01*
X8602267Y2787127D01*
X8599271Y2785629D01*
X8589531Y2771394D01*
X8587283Y2757159D01*
X8588033Y2747420D01*
X8591029Y2736931D01*
X8597023Y2727940D01*
X8605264Y2721198D01*
X8615753Y2715204D01*
X8629239Y2713706D01*
X8639727Y2715204D01*
X8653213Y2721198D01*
X8659956Y2727940D01*
X8665200Y2736182D01*
X8668946Y2745921D01*
X8670444Y2750417D01*
X8669695Y2760156D01*
X8668946Y2760905D01*
Y2765401D01*
X8662952Y2778886D01*
X8661454Y2781883D01*
X8653213Y2788626D01*
X8647968Y2792372D01*
X8640476Y2795369D01*
X8631486Y2796867D01*
D02*
G37*
%LPD*%
G36*
X8448682Y2414775D02*
X8450929Y2409531D01*
X8449431Y2403537D01*
X8441939Y2399042D01*
X8435945Y2400541D01*
X8433698Y2402788D01*
X8432199Y2408782D01*
X8433698Y2414775D01*
X8434447Y2415525D01*
X8435945Y2417023D01*
X8444936Y2418521D01*
X8448682Y2414775D01*
D02*
G37*
G36*
X8525100Y2320377D02*
X8524351Y2067897D01*
X8483894Y2066398D01*
X8481646Y2068646D01*
X8480148Y2071643D01*
X8474154Y2080633D01*
X8472656Y2083630D01*
X8465164Y2094118D01*
Y2095617D01*
X8464415Y2096366D01*
X8458421Y2105356D01*
X8450929Y2117344D01*
X8444936Y2126334D01*
X8437444Y2138321D01*
X8431450Y2147312D01*
X8428453Y2144315D01*
X8422460Y2135324D01*
X8385749Y2085128D01*
X8384250Y2082131D01*
X8378257Y2073141D01*
X8376758Y2070144D01*
X8374511Y2067897D01*
X8310080Y2066398D01*
X8312328Y2071643D01*
X8313826Y2074639D01*
X8328810Y2095617D01*
X8330308Y2098614D01*
X8337800Y2109102D01*
X8339299Y2112099D01*
X8346791Y2122588D01*
X8348289Y2125585D01*
X8355781Y2136074D01*
X8357279Y2139070D01*
X8379755Y2170537D01*
X8381254Y2173534D01*
X8388746Y2184022D01*
X8390244Y2187019D01*
X8397736Y2197508D01*
X8392492Y2207248D01*
X8382003Y2223730D01*
X8376009Y2232720D01*
X8368517Y2244707D01*
X8337800Y2291907D01*
X8336302Y2294904D01*
X8328810Y2305393D01*
X8322816Y2315881D01*
X8319820Y2318878D01*
X8320569Y2321126D01*
X8379755Y2320377D01*
X8468910Y2172784D01*
X8470408Y2321126D01*
X8525100Y2320377D01*
D02*
G37*
G36*
X8650216Y2322624D02*
X8665200Y2321126D01*
X8671193Y2319627D01*
X8681682Y2316631D01*
X8701161Y2307640D01*
X8704158Y2306142D01*
X8707155Y2303145D01*
X8710152Y2301647D01*
X8716145Y2295653D01*
X8722888Y2287412D01*
X8731879Y2270929D01*
X8734875Y2263437D01*
X8736374Y2245457D01*
X8734875Y2234968D01*
X8731879Y2224479D01*
X8725885Y2210994D01*
X8721390Y2206498D01*
X8719891Y2203502D01*
X8717644Y2201254D01*
X8714647Y2199756D01*
X8710901Y2196010D01*
X8695917Y2187019D01*
X8688425Y2184022D01*
X8667447Y2176530D01*
X8655460Y2173534D01*
X8647968Y2172035D01*
X8641975Y2170537D01*
X8634483Y2169038D01*
X8622496Y2166042D01*
X8612756Y2163794D01*
X8602267Y2159299D01*
X8594775Y2151807D01*
X8591029Y2142067D01*
X8594026Y2130080D01*
X8600769Y2123337D01*
X8608261Y2118842D01*
X8615753Y2115845D01*
X8639727Y2114347D01*
X8660705Y2117344D01*
X8666698Y2118842D01*
X8677187Y2121839D01*
X8693669Y2129331D01*
X8702660Y2135324D01*
X8705657Y2136823D01*
X8711650Y2142816D01*
X8714647Y2141318D01*
X8720641Y2132328D01*
X8742367Y2103109D01*
X8743866Y2100112D01*
X8735625Y2093369D01*
X8715396Y2082131D01*
X8707904Y2079135D01*
X8698165Y2075389D01*
X8689923Y2073141D01*
X8682431Y2071643D01*
X8669695Y2069395D01*
X8665200Y2067897D01*
X8636731Y2066398D01*
X8606763Y2069395D01*
X8600769Y2070893D01*
X8590280Y2073890D01*
X8567804Y2084379D01*
X8564807Y2085877D01*
X8561811Y2088874D01*
X8558814Y2090373D01*
X8552820Y2096366D01*
X8546077Y2104607D01*
X8538585Y2118093D01*
X8535589Y2125585D01*
X8534090Y2149559D01*
X8535589Y2164543D01*
X8541582Y2178029D01*
X8543081Y2181026D01*
X8546077Y2184022D01*
X8547576Y2187019D01*
X8550573Y2190016D01*
X8558814Y2196759D01*
X8571550Y2205000D01*
X8579042Y2207997D01*
X8600020Y2215489D01*
X8606013Y2216987D01*
X8645721Y2225228D01*
X8660705Y2229724D01*
X8671193Y2234219D01*
X8677936Y2246955D01*
X8677187Y2253698D01*
X8674939Y2261939D01*
X8671193Y2265685D01*
X8665949Y2269431D01*
X8656210Y2273177D01*
X8650216Y2274675D01*
X8648718D01*
X8622496Y2273926D01*
X8615004Y2272428D01*
X8605264Y2270180D01*
X8594775Y2265685D01*
X8588782Y2264186D01*
X8576795Y2256694D01*
X8572299Y2255196D01*
X8552071Y2282916D01*
X8550573Y2285913D01*
X8543081Y2296402D01*
X8545328Y2298650D01*
X8564807Y2309139D01*
X8579791Y2315132D01*
X8585785Y2316631D01*
X8594026Y2318878D01*
X8612007Y2321875D01*
X8629988Y2323373D01*
X8650216Y2322624D01*
D02*
G37*
G36*
X8189459Y2306891D02*
X8205941Y2272428D01*
X8210436Y2261939D01*
X8211186Y2261190D01*
X8222423Y2237965D01*
X8271871Y2134575D01*
X8303337Y2070144D01*
X8302588Y2066398D01*
X8244899Y2067147D01*
X8243401Y2070144D01*
X8240404Y2077636D01*
X8225420Y2110601D01*
X8136266Y2111350D01*
X8131021Y2100112D01*
X8125028Y2085128D01*
X8120533Y2074639D01*
X8116787Y2066398D01*
X8059098Y2067147D01*
X8063593Y2077636D01*
X8171478Y2303894D01*
X8178970Y2320377D01*
X8181218Y2322624D01*
X8189459Y2306891D01*
D02*
G37*
G36*
X8047111Y2320377D02*
X8048610Y2110601D01*
X8046362Y2066398D01*
X7991670Y2067147D01*
X7990921Y2067897D01*
X7989423D01*
X7987924Y2138321D01*
X7986426Y2154804D01*
X7956458Y2156302D01*
X7950464Y2154804D01*
X7946718Y2151058D01*
X7945220Y2148061D01*
X7937728Y2137572D01*
X7931734Y2127083D01*
X7924242Y2116594D01*
X7922744Y2113598D01*
X7915252Y2103109D01*
X7913754Y2100112D01*
X7906262Y2089623D01*
X7904763Y2086627D01*
X7897271Y2076138D01*
X7895773Y2073141D01*
X7890529Y2067897D01*
X7829094Y2066398D01*
X7822351Y2068646D01*
X7828345Y2077636D01*
X7829843Y2080633D01*
X7837335Y2091122D01*
X7838834Y2094118D01*
X7846326Y2104607D01*
X7847824Y2107604D01*
X7855316Y2118093D01*
X7856815Y2121090D01*
X7864307Y2131578D01*
X7865805Y2134575D01*
X7873297Y2145064D01*
X7874796Y2148061D01*
X7882288Y2158550D01*
X7883786Y2161546D01*
X7886783Y2164543D01*
X7886034Y2165292D01*
X7883037Y2166791D01*
X7871050Y2174283D01*
X7868053Y2175781D01*
X7865056Y2178778D01*
X7862059Y2180276D01*
X7853818Y2188518D01*
X7852320Y2191514D01*
X7849323Y2194511D01*
X7837335Y2216987D01*
X7835837Y2230473D01*
X7834339Y2234968D01*
X7835837Y2251450D01*
X7838834Y2263437D01*
X7846326Y2279920D01*
X7847824Y2282916D01*
X7850821Y2285913D01*
X7852320Y2288910D01*
X7857564Y2294155D01*
X7860561Y2295653D01*
X7863558Y2298650D01*
X7868802Y2302396D01*
X7883786Y2311386D01*
X7900268Y2317380D01*
X7911506Y2319627D01*
X7916001Y2321126D01*
X8047111Y2320377D01*
D02*
G37*
G36*
X8415717Y2025192D02*
X8417215Y2022195D01*
X8410472Y2018449D01*
X8407476Y2016951D01*
X8395488Y2009459D01*
X8392492Y2007961D01*
X8380504Y2000469D01*
X8358778Y1989231D01*
X8342295Y1983237D01*
X8332556Y1980989D01*
X8328061Y1979491D01*
X8080825Y1977993D01*
X8080076Y1992227D01*
X8295096Y1992977D01*
X8319070Y1994475D01*
X8329559Y1995973D01*
X8335553Y1997472D01*
X8350537Y2001967D01*
X8367768Y2010208D01*
X8397736Y2028189D01*
X8398485Y2028938D01*
X8408974Y2034932D01*
X8415717Y2025192D01*
D02*
G37*
G36*
X8055352Y1992977D02*
X8059098Y1986234D01*
X8057600Y1981739D01*
X8055352Y1979491D01*
X8046362Y1977993D01*
X8043365Y1980989D01*
X8042616Y1981739D01*
Y1989231D01*
X8046362Y1992977D01*
X8049359Y1994475D01*
X8055352Y1992977D01*
D02*
G37*
G36*
X8582788Y2004964D02*
X8599271Y1997472D01*
X8602267Y1995973D01*
X8610509Y1987732D01*
X8620997Y1968253D01*
X8622496Y1950272D01*
X8618001Y1932292D01*
X8617251Y1931542D01*
X8613505Y1924800D01*
X8609010Y1920305D01*
X8607512Y1917308D01*
X8605264Y1916559D01*
X8600769Y1912063D01*
X8588033Y1905321D01*
X8571550Y1902324D01*
X8561811Y1903073D01*
X8555817Y1904571D01*
X8542331Y1910565D01*
X8539335Y1912063D01*
X8530344Y1921054D01*
X8524351Y1930044D01*
X8519855Y1942031D01*
X8518357Y1954018D01*
X8520605Y1969751D01*
X8526598Y1983237D01*
X8529595Y1986234D01*
X8533341Y1991478D01*
X8536338Y1992977D01*
X8539335Y1995973D01*
X8555817Y2004964D01*
X8572299Y2006462D01*
X8582788Y2004964D01*
D02*
G37*
%LPC*%
G36*
X8176723Y2210244D02*
X8175973Y2207997D01*
X8172977Y2200505D01*
X8159491Y2169038D01*
X8151999Y2152556D01*
X8152748Y2151807D01*
X8205941Y2152556D01*
X8201446Y2161546D01*
X8193954Y2178029D01*
X8185713Y2195260D01*
X8184964Y2196010D01*
X8179719Y2208746D01*
X8176723Y2210244D01*
D02*
G37*
G36*
X7933982Y2274675D02*
X7921995Y2271678D01*
X7914503Y2268682D01*
X7911506Y2267183D01*
X7909259Y2264936D01*
X7908509Y2264186D01*
X7906262Y2261939D01*
X7898770Y2251450D01*
X7897271Y2230473D01*
X7901767Y2219984D01*
X7903265Y2216987D01*
X7905513Y2214740D01*
X7924992Y2204251D01*
X7986426Y2202752D01*
X7987924Y2234219D01*
X7987175Y2273926D01*
X7933982Y2274675D01*
D02*
G37*
G36*
X8570801Y1991478D02*
X8560312Y1989980D01*
X8549823Y1985485D01*
X8546077Y1981739D01*
X8535589Y1968253D01*
X8534090Y1948774D01*
X8537087Y1938285D01*
X8543081Y1929295D01*
X8557315Y1919555D01*
X8578293Y1918057D01*
X8588782Y1922552D01*
X8591779Y1924051D01*
X8598521Y1930793D01*
X8606013Y1944279D01*
X8607512Y1956266D01*
X8606013Y1962259D01*
X8603017Y1972748D01*
X8600020Y1975745D01*
X8598521Y1978742D01*
X8594775Y1982488D01*
X8593277D01*
X8591779Y1983986D01*
X8581290Y1989980D01*
X8570801Y1991478D01*
D02*
G37*
%LPD*%
G36*
X8966378Y2467969D02*
X8978365Y2464972D01*
X9000841Y2454483D01*
X9003838Y2452985D01*
X9006835Y2449988D01*
X9009831Y2448489D01*
X9018073Y2440248D01*
X9028561Y2426763D01*
X9035304Y2414026D01*
X9040549Y2399791D01*
X9042047Y2393798D01*
X9043545Y2378814D01*
X9041298Y2358586D01*
X9039050Y2348846D01*
X9033057Y2333862D01*
X9027063Y2324872D01*
X9025565Y2321875D01*
X9021069Y2317380D01*
X9019571Y2314383D01*
X9012828Y2307640D01*
X9009831Y2306142D01*
X9005336Y2301647D01*
X8982860Y2289659D01*
X8975368Y2286663D01*
X8963381Y2285164D01*
X8958886Y2283666D01*
X8947648Y2284415D01*
X8934162Y2285913D01*
X8924423Y2288161D01*
X8901947Y2298650D01*
X8898950Y2300148D01*
X8895953Y2303145D01*
X8892956Y2304643D01*
X8881718Y2315881D01*
X8880220Y2318878D01*
X8874976Y2325621D01*
X8868982Y2334611D01*
X8865985Y2342103D01*
X8862239Y2351843D01*
X8860741Y2356338D01*
X8859242Y2377316D01*
Y2378814D01*
Y2383309D01*
X8860741Y2393798D01*
X8862239Y2399791D01*
X8865236Y2410280D01*
X8869731Y2420769D01*
X8875725Y2429759D01*
X8877223Y2432756D01*
X8890709Y2446242D01*
X8898950Y2452985D01*
X8915432Y2461975D01*
X8922924Y2464972D01*
X8927420Y2466470D01*
X8940905Y2467969D01*
X8945400Y2469467D01*
X8966378Y2467969D01*
D02*
G37*
%LPC*%
G36*
X8957387Y2446991D02*
X8937908Y2445493D01*
X8931915Y2443994D01*
X8912436Y2435004D01*
X8909439Y2433505D01*
X8895204Y2419271D01*
X8883217Y2396795D01*
X8881718Y2384808D01*
X8880220Y2380312D01*
X8881718Y2363830D01*
X8887712Y2344351D01*
X8893706Y2335361D01*
X8895204Y2332364D01*
X8904194Y2323373D01*
X8918429Y2313634D01*
X8921426Y2312135D01*
X8931915Y2307640D01*
X8963381Y2306142D01*
X8982860Y2312135D01*
X8991851Y2318129D01*
X8994847Y2319627D01*
X9002339Y2327119D01*
X9009082Y2335361D01*
X9016574Y2348846D01*
X9019571Y2356338D01*
X9021069Y2372821D01*
X9021819Y2373570D01*
X9021069Y2386306D01*
X9018073Y2398293D01*
X9010581Y2414775D01*
X9009082Y2417772D01*
X8997844Y2429010D01*
X8992600Y2432756D01*
X8980613Y2440248D01*
X8973121Y2443245D01*
X8961883Y2445493D01*
X8957387Y2446991D01*
D02*
G37*
%LPD*%
G36*
X7793882Y1911314D02*
X7802123Y1909067D01*
X7812612Y1904571D01*
X7817107Y1900076D01*
X7818605D01*
X7829843Y1888838D01*
X7840332Y1869359D01*
X7841831Y1843886D01*
X7838834Y1831899D01*
X7834339Y1821410D01*
X7826097Y1810172D01*
X7823101Y1808674D01*
X7817856Y1803429D01*
X7808866Y1797436D01*
X7801374Y1794439D01*
X7785641Y1790693D01*
X7770657Y1792191D01*
X7760168Y1795188D01*
X7749679Y1799683D01*
X7746683Y1802680D01*
X7743686Y1804179D01*
X7737692Y1810172D01*
X7730949Y1818413D01*
X7724207Y1831150D01*
X7722708Y1837143D01*
X7720461Y1848381D01*
X7721959Y1863365D01*
X7723457Y1869359D01*
X7729451Y1882845D01*
X7730949Y1885841D01*
X7733946Y1888838D01*
X7737692Y1894083D01*
X7740689Y1895581D01*
X7744435Y1899327D01*
X7756422Y1906819D01*
X7766162Y1910565D01*
X7770657Y1912063D01*
X7793882Y1911314D01*
D02*
G37*
%LPC*%
G36*
X7784142Y1894083D02*
X7773653Y1892584D01*
X7763165Y1889587D01*
X7752676Y1882095D01*
X7742937Y1867861D01*
X7741438Y1858870D01*
X7739940Y1854375D01*
X7741438Y1843886D01*
X7742937Y1837893D01*
X7746683Y1829651D01*
X7747432Y1828902D01*
X7748930Y1827404D01*
X7750428Y1824407D01*
X7755673Y1819163D01*
X7769158Y1811670D01*
X7782644Y1810172D01*
X7793133Y1811670D01*
X7806618Y1817664D01*
X7812612Y1823658D01*
X7820104Y1835645D01*
X7822351Y1843886D01*
X7823850Y1848381D01*
X7822351Y1860369D01*
X7819355Y1870857D01*
X7811863Y1881346D01*
X7797628Y1891086D01*
X7788637Y1892584D01*
X7784142Y1894083D01*
D02*
G37*
%LPD*%
G36*
X8197700Y1643850D02*
X8202195Y1642352D01*
X8205192D01*
X8230665Y1630365D01*
X8233661Y1628866D01*
X8238157Y1624371D01*
X8241153Y1622873D01*
X8244150Y1619876D01*
X8250893Y1611635D01*
X8254639Y1606390D01*
X8263629Y1591406D01*
X8268874Y1577171D01*
X8270372Y1572676D01*
X8271871Y1551699D01*
X8270372Y1536715D01*
X8268874Y1530721D01*
X8265877Y1520232D01*
X8261382Y1509743D01*
X8255388Y1500753D01*
X8253890Y1497756D01*
X8241903Y1485769D01*
X8233661Y1479027D01*
X8220925Y1470785D01*
X8202195Y1464043D01*
X8197700Y1462544D01*
X8179719Y1461046D01*
X8164735Y1462544D01*
X8158742Y1464043D01*
X8139263Y1470036D01*
X8127275Y1477528D01*
X8124279Y1479027D01*
X8119783Y1483522D01*
X8116787Y1485020D01*
X8113041Y1488766D01*
X8109295Y1494010D01*
X8102552Y1502252D01*
X8095809Y1514988D01*
X8092063Y1524727D01*
X8089066Y1532219D01*
X8087568Y1559191D01*
X8089066Y1569679D01*
X8092063Y1581667D01*
X8102552Y1604143D01*
X8106298Y1609387D01*
X8113041Y1617628D01*
X8121282Y1624371D01*
X8126526Y1628117D01*
X8138513Y1635609D01*
X8146005Y1638606D01*
X8155745Y1642352D01*
X8160240Y1643850D01*
X8182716Y1645349D01*
X8197700Y1643850D01*
D02*
G37*
%LPC*%
G36*
X8181967Y1623622D02*
X8167732Y1622873D01*
X8148253Y1616879D01*
X8139263Y1610885D01*
X8136266Y1609387D01*
X8128774Y1601895D01*
X8122031Y1593654D01*
X8113041Y1577171D01*
X8111542Y1572676D01*
X8110044Y1560689D01*
Y1559191D01*
X8109295Y1555445D01*
X8110044Y1541210D01*
X8113041Y1529223D01*
X8119034Y1515737D01*
X8122031Y1512740D01*
X8123529Y1509743D01*
X8133269Y1500004D01*
X8136266Y1498506D01*
X8139263Y1495509D01*
X8152748Y1488017D01*
X8160240Y1485020D01*
X8170729Y1483522D01*
X8175224Y1482023D01*
X8188710Y1483522D01*
X8199198Y1485020D01*
X8218677Y1494010D01*
X8221674Y1495509D01*
X8235160Y1508994D01*
X8244150Y1523978D01*
X8247147Y1531470D01*
X8249395Y1541210D01*
X8250893Y1551699D01*
X8247896Y1572676D01*
X8238906Y1592155D01*
X8237407Y1595152D01*
X8228417Y1604143D01*
X8220176Y1610885D01*
X8211935Y1616130D01*
X8195452Y1622123D01*
X8181967Y1623622D01*
D02*
G37*
%LPD*%
D44*
X3808200Y2567600D02*
G03*
X3808200Y2567600I-12500J0D01*
G01*
D45*
X4125000Y1405000D02*
X4275000D01*
X4125000Y1590000D02*
X4275000D01*
X3905293Y2624919D02*
X4146507D01*
X3905293Y2796132D02*
X4146507D01*
X4086723Y1764393D02*
X4327936D01*
X4086723Y1935607D02*
X4327936D01*
X3465207Y2530107D02*
Y2569893D01*
X3174792Y2530107D02*
Y2569893D01*
X3465207Y1950107D02*
Y1989893D01*
X3174792Y1950107D02*
Y1989893D01*
X2457190Y3374190D02*
Y3665810D01*
X2682810Y3374190D02*
Y3665810D01*
X4885310Y2299792D02*
Y2760208D01*
X4524690Y2299792D02*
Y2760208D01*
Y1739792D02*
Y2200207D01*
X4885310Y1739792D02*
Y2200207D01*
D46*
X3966959Y1323825D02*
Y1476175D01*
X3890783D01*
X3865392Y1450783D01*
Y1400000D01*
X3890783Y1374608D01*
X3966959D01*
X3916175D02*
X3865392Y1323825D01*
X3738433D02*
Y1476175D01*
X3814608Y1400000D01*
X3713041D01*
X3966959Y1523825D02*
Y1676175D01*
X3890783D01*
X3865392Y1650784D01*
Y1600000D01*
X3890783Y1574608D01*
X3966959D01*
X3916175D02*
X3865392Y1523825D01*
X3713041D02*
X3814608D01*
X3713041Y1625392D01*
Y1650784D01*
X3738433Y1676175D01*
X3789216D01*
X3814608Y1650784D01*
X3216959Y3606175D02*
Y3479217D01*
X3191567Y3453825D01*
X3140783D01*
X3115392Y3479217D01*
Y3606175D01*
X3064608Y3580784D02*
X3039216Y3606175D01*
X2988433D01*
X2963041Y3580784D01*
Y3555392D01*
X2988433Y3530000D01*
X3013825D01*
X2988433D01*
X2963041Y3504608D01*
Y3479217D01*
X2988433Y3453825D01*
X3039216D01*
X3064608Y3479217D01*
X3966959Y3273825D02*
Y3426175D01*
X3890783D01*
X3865392Y3400783D01*
Y3350000D01*
X3890783Y3324608D01*
X3966959D01*
X3916175D02*
X3865392Y3273825D01*
X3814608Y3400783D02*
X3789216Y3426175D01*
X3738433D01*
X3713041Y3400783D01*
Y3375392D01*
X3738433Y3350000D01*
X3713041Y3324608D01*
Y3299216D01*
X3738433Y3273825D01*
X3789216D01*
X3814608Y3299216D01*
Y3324608D01*
X3789216Y3350000D01*
X3814608Y3375392D01*
Y3400783D01*
X3789216Y3350000D02*
X3738433D01*
X2560000Y3860783D02*
X2585392Y3886175D01*
X2636175D01*
X2661567Y3860783D01*
Y3759217D01*
X2636175Y3733825D01*
X2585392D01*
X2560000Y3759217D01*
X2509216Y3733825D02*
X2458433D01*
X2483824D01*
Y3886175D01*
X2509216Y3860783D01*
X3335392Y1570783D02*
X3360783Y1596175D01*
X3411567D01*
X3436959Y1570783D01*
Y1469217D01*
X3411567Y1443825D01*
X3360783D01*
X3335392Y1469217D01*
X3183041Y1443825D02*
X3284608D01*
X3183041Y1545392D01*
Y1570783D01*
X3208433Y1596175D01*
X3259216D01*
X3284608Y1570783D01*
X4735392Y3010783D02*
X4760783Y3036175D01*
X4811567D01*
X4836959Y3010783D01*
Y2909216D01*
X4811567Y2883825D01*
X4760783D01*
X4735392Y2909216D01*
X4684608Y3010783D02*
X4659216Y3036175D01*
X4608433D01*
X4583041Y3010783D01*
Y2985392D01*
X4608433Y2960000D01*
X4633825D01*
X4608433D01*
X4583041Y2934608D01*
Y2909216D01*
X4608433Y2883825D01*
X4659216D01*
X4684608Y2909216D01*
X4755392Y1570783D02*
X4780783Y1596175D01*
X4831567D01*
X4856959Y1570783D01*
Y1469217D01*
X4831567Y1443825D01*
X4780783D01*
X4755392Y1469217D01*
X4628433Y1443825D02*
Y1596175D01*
X4704608Y1520000D01*
X4603041D01*
X3345392Y3000783D02*
X3370783Y3026175D01*
X3421567D01*
X3446959Y3000783D01*
Y2899216D01*
X3421567Y2873825D01*
X3370783D01*
X3345392Y2899216D01*
X3193041Y3026175D02*
X3294608D01*
Y2950000D01*
X3243825Y2975392D01*
X3218433D01*
X3193041Y2950000D01*
Y2899216D01*
X3218433Y2873825D01*
X3269216D01*
X3294608Y2899216D01*
X2075213Y3532491D02*
X2125997D01*
X2100605D01*
Y3405532D01*
X2125997Y3380140D01*
X2151388D01*
X2176780Y3405532D01*
X2024429Y3380140D02*
X1973646D01*
X1999037D01*
Y3532491D01*
X2024429Y3507099D01*
X3961567Y1723825D02*
Y1876175D01*
X3885392D01*
X3860000Y1850783D01*
Y1800000D01*
X3885392Y1774608D01*
X3961567D01*
X3910783D02*
X3860000Y1723825D01*
X3809216D02*
X3758433D01*
X3783824D01*
Y1876175D01*
X3809216Y1850783D01*
X4236959Y2853825D02*
Y3006175D01*
X4160783D01*
X4135392Y2980783D01*
Y2930000D01*
X4160783Y2904608D01*
X4236959D01*
X4186175D02*
X4135392Y2853825D01*
X4084608Y2980783D02*
X4059216Y3006175D01*
X4008433D01*
X3983041Y2980783D01*
Y2955392D01*
X4008433Y2930000D01*
X4033825D01*
X4008433D01*
X3983041Y2904608D01*
Y2879216D01*
X4008433Y2853825D01*
X4059216D01*
X4084608Y2879216D01*
X2456959Y2873825D02*
Y3026175D01*
X2380783D01*
X2355392Y3000783D01*
Y2950000D01*
X2380783Y2924608D01*
X2456959D01*
X2406175D02*
X2355392Y2873825D01*
X2304608Y2899216D02*
X2279216Y2873825D01*
X2228433D01*
X2203041Y2899216D01*
Y3000783D01*
X2228433Y3026175D01*
X2279216D01*
X2304608Y3000783D01*
Y2975392D01*
X2279216Y2950000D01*
X2203041D01*
X3670238Y3538025D02*
Y3690375D01*
X3594063D01*
X3568671Y3664984D01*
Y3614200D01*
X3594063Y3588808D01*
X3670238D01*
X3619455D02*
X3568671Y3538025D01*
X3517888D02*
X3467104D01*
X3492496D01*
Y3690375D01*
X3517888Y3664984D01*
X3390929D02*
X3365537Y3690375D01*
X3314753D01*
X3289361Y3664984D01*
Y3563417D01*
X3314753Y3538025D01*
X3365537D01*
X3390929Y3563417D01*
Y3664984D01*
X3701567Y2546175D02*
Y2419216D01*
X3676175Y2393825D01*
X3625392D01*
X3600000Y2419216D01*
Y2546175D01*
X3549216Y2393825D02*
X3498433D01*
X3523824D01*
Y2546175D01*
X3549216Y2520783D01*
D48*
X2937625Y3365280D02*
G03*
X2998585Y3365280I30480J0D01*
G01*
X2823325D02*
X3112885D01*
X2823325Y3050320D02*
X3112885D01*
D49*
X4303200Y1987600D02*
Y2497600D01*
X3723200Y1987600D02*
Y2497600D01*
X9748355Y1249283D02*
X9765016Y1265944D01*
X9798339D01*
X9815000Y1249283D01*
Y1232622D01*
X9798339Y1215960D01*
X9765016D01*
X9748355Y1199299D01*
Y1182638D01*
X9765016Y1165977D01*
X9798339D01*
X9815000Y1182638D01*
X9665048Y1165977D02*
X9698371D01*
X9715032Y1182638D01*
Y1215960D01*
X9698371Y1232622D01*
X9665048D01*
X9648387Y1215960D01*
Y1199299D01*
X9715032D01*
X9615065Y1232622D02*
Y1165977D01*
Y1199299D01*
X9598403Y1215960D01*
X9581742Y1232622D01*
X9565081D01*
X9515097D02*
X9481774Y1165977D01*
X9448452Y1232622D01*
X9398468Y1165977D02*
X9365145D01*
X9348484Y1182638D01*
Y1215960D01*
X9365145Y1232622D01*
X9398468D01*
X9415129Y1215960D01*
Y1182638D01*
X9398468Y1165977D01*
X9215193Y1265944D02*
Y1165977D01*
X9165210D01*
X9148548Y1182638D01*
Y1199299D01*
X9165210Y1215960D01*
X9215193D01*
X9165210D01*
X9148548Y1232622D01*
Y1249283D01*
X9165210Y1265944D01*
X9215193D01*
X9098564Y1165977D02*
X9065242D01*
X9048581Y1182638D01*
Y1215960D01*
X9065242Y1232622D01*
X9098564D01*
X9115226Y1215960D01*
Y1182638D01*
X9098564Y1165977D01*
X8998596Y1232622D02*
X8965274D01*
X8948613Y1215960D01*
Y1165977D01*
X8998596D01*
X9015258Y1182638D01*
X8998596Y1199299D01*
X8948613D01*
X8915290Y1232622D02*
Y1165977D01*
Y1199299D01*
X8898629Y1215960D01*
X8881968Y1232622D01*
X8865306D01*
X8748677Y1265944D02*
Y1165977D01*
X8798661D01*
X8815322Y1182638D01*
Y1215960D01*
X8798661Y1232622D01*
X8748677D01*
X9815000Y1010016D02*
Y1109984D01*
X9781678Y1076661D01*
X9748355Y1109984D01*
Y1010016D01*
X9715032Y1109984D02*
Y1010016D01*
X9665048D01*
X9648387Y1026677D01*
Y1043339D01*
X9665048Y1060000D01*
X9715032D01*
X9665048D01*
X9648387Y1076661D01*
Y1093322D01*
X9665048Y1109984D01*
X9715032D01*
X9615065Y1060000D02*
X9548420D01*
X9581742Y1093322D02*
Y1026677D01*
X9515097Y1010016D02*
Y1109984D01*
X9481774Y1076661D01*
X9448452Y1109984D01*
Y1010016D01*
X9348484Y1093322D02*
X9365145Y1109984D01*
X9398468D01*
X9415129Y1093322D01*
Y1026677D01*
X9398468Y1010016D01*
X9365145D01*
X9348484Y1026677D01*
Y1060000D01*
X9381806D01*
X9748355Y854055D02*
X9815000D01*
X9748355Y920700D01*
Y937362D01*
X9765016Y954023D01*
X9798339D01*
X9815000Y937362D01*
X9715032D02*
X9698371Y954023D01*
X9665048D01*
X9648387Y937362D01*
Y870717D01*
X9665048Y854055D01*
X9698371D01*
X9715032Y870717D01*
Y937362D01*
X9548420Y854055D02*
X9615065D01*
X9548420Y920700D01*
Y937362D01*
X9565081Y954023D01*
X9598403D01*
X9615065Y937362D01*
X9448452Y954023D02*
X9515097D01*
Y904039D01*
X9481774Y920700D01*
X9465113D01*
X9448452Y904039D01*
Y870717D01*
X9465113Y854055D01*
X9498435D01*
X9515097Y870717D01*
D50*
X1943100Y2120300D02*
X2070100D01*
Y2247300D01*
Y2120300D02*
X2197100D01*
X2070100Y1993300D02*
Y2120300D01*
X19100Y1726300D02*
Y3276300D01*
Y1726300D02*
X1839100D01*
X19100Y3276300D02*
X1839100D01*
Y2359100D02*
Y2643500D01*
Y1726300D02*
Y1923500D01*
Y3079100D02*
Y3276300D01*
D51*
X3194800Y3433959D02*
X3110160Y3349320D01*
X3194800D02*
X3110160Y3433959D01*
X3194800Y3391639D02*
X3110160D01*
X3152480Y3349320D02*
Y3433959D01*
%TF.MD5,2c8787616a8531020080a40091dc2852*%
M02*
