%TF.GenerationSoftware,Altium Limited,Altium Designer,25.4.2 (15)*%
G04 Layer_Color=16711935*
%FSLAX45Y45*%
%MOMM*%
%TF.SameCoordinates,2A578F6B-C5BA-4798-A6F5-255D53479D73*%
%TF.FilePolarity,Negative*%
%TF.FileFunction,Soldermask,Bot*%
%TF.Part,Single*%
G01*
G75*
%TA.AperFunction,SMDPad,CuDef*%
%ADD10R,0.85872X0.91213*%
%TA.AperFunction,ComponentPad*%
%ADD29R,1.57000X1.57000*%
%ADD30C,1.57000*%
%ADD31C,1.27000*%
%TA.AperFunction,SMDPad,CuDef*%
%ADD33R,0.93504X0.96213*%
%ADD37R,2.90415X1.85263*%
%ADD38R,0.50000X1.40000*%
%ADD39R,0.25000X0.90000*%
%ADD40R,0.87500X1.58000*%
%ADD41R,1.45620X1.30464*%
%ADD42R,2.80620X2.10292*%
%TA.AperFunction,ComponentPad*%
%ADD56C,2.00000*%
%TA.AperFunction,ViaPad*%
%ADD57C,6.20320*%
%TA.AperFunction,ComponentPad*%
%ADD58C,1.75000*%
%ADD59R,1.75000X1.75000*%
%ADD60O,2.60000X1.40000*%
%ADD61R,3.91600X3.91600*%
%ADD62C,3.91600*%
%TA.AperFunction,ViaPad*%
%ADD63C,0.65000*%
%TA.AperFunction,SMDPad,CuDef*%
%ADD64R,0.90000X1.10000*%
%ADD65R,1.10000X0.90000*%
D10*
X4103571Y2710525D02*
D03*
X3948229D02*
D03*
X4285000Y1850000D02*
D03*
X4129659D02*
D03*
D29*
X7234200Y3938300D02*
D03*
X8673126Y3931700D02*
D03*
X6681174Y515400D02*
D03*
X8120100Y509900D02*
D03*
D30*
X6934200Y3938300D02*
D03*
X6634200D02*
D03*
X8373126Y3931700D02*
D03*
X8073126D02*
D03*
X6981174Y515400D02*
D03*
X7281174D02*
D03*
X8420100Y509900D02*
D03*
X8720100D02*
D03*
D31*
X6334200Y3742300D02*
D03*
X7534200D02*
D03*
X7773126Y3735700D02*
D03*
X8973126D02*
D03*
X7581174Y711400D02*
D03*
X6381174D02*
D03*
X9020100Y705900D02*
D03*
X7820100D02*
D03*
D33*
X4128461Y1500000D02*
D03*
X4271539D02*
D03*
D37*
X3320000Y2692525D02*
D03*
Y2407476D02*
D03*
Y2112525D02*
D03*
Y1827476D02*
D03*
D38*
X3795700Y2442600D02*
D03*
X4225700D02*
D03*
Y2042600D02*
D03*
X3795700D02*
D03*
D39*
X3888200Y2467600D02*
D03*
X3938200D02*
D03*
X3988200D02*
D03*
X4038200D02*
D03*
X4088200D02*
D03*
X4138200D02*
D03*
Y2017600D02*
D03*
X4088200D02*
D03*
X4038200D02*
D03*
X3988200D02*
D03*
X3938200D02*
D03*
X3888200D02*
D03*
D40*
X3851900Y2242600D02*
D03*
X3959400D02*
D03*
X4067000D02*
D03*
X4174500D02*
D03*
D41*
X2570000Y3439422D02*
D03*
Y3600578D02*
D03*
D42*
X4705000Y2655061D02*
D03*
Y2404939D02*
D03*
Y1844939D02*
D03*
Y2095061D02*
D03*
D56*
X1196340Y3893600D02*
D03*
X1197900Y479840D02*
D03*
X5582920D02*
D03*
Y3893600D02*
D03*
D57*
X9500000Y3900000D02*
D03*
Y400000D02*
D03*
X400000Y3900000D02*
D03*
Y400000D02*
D03*
D58*
X6832625Y2141000D02*
D03*
X6578625D02*
D03*
X6324625D02*
D03*
X6832625Y1887000D02*
D03*
X6578625D02*
D03*
D59*
X6324625D02*
D03*
D60*
X1054100Y1826300D02*
D03*
Y3176300D02*
D03*
D61*
X1654100Y2141300D02*
D03*
D62*
Y2861300D02*
D03*
D63*
X6680000Y2530000D02*
D03*
X3977800Y1901007D02*
D03*
X3880000Y3040000D02*
D03*
X2570000Y2920000D02*
D03*
X2655600Y3040000D02*
D03*
X2610000Y3270000D02*
D03*
X2790000Y3720000D02*
D03*
X4350000Y1575000D02*
D03*
X5207700Y794500D02*
D03*
X2467700Y784500D02*
D03*
X7023100Y1840900D02*
D03*
X2311400Y3449100D02*
D03*
X2046600Y665900D02*
D03*
X1752600Y744000D02*
D03*
X5219700Y934500D02*
D03*
X5357525Y665900D02*
D03*
X6565900Y2395000D02*
D03*
X5880100Y2712500D02*
D03*
X4457700Y3118900D02*
D03*
X3924300Y2585500D02*
D03*
X2616200Y185200D02*
D03*
D64*
X4270000Y1675000D02*
D03*
X4130000D02*
D03*
X3511700Y3411000D02*
D03*
X3371700D02*
D03*
X2460000Y3150000D02*
D03*
X2320000D02*
D03*
D65*
X3780000Y3190000D02*
D03*
Y3050000D02*
D03*
%TF.MD5,5de9af2489513a2fd0f984ecc9fe5703*%
M02*
