%TF.GenerationSoftware,Altium Limited,Altium Designer,25.4.2 (15)*%
G04 Layer_Physical_Order=1*
G04 Layer_Color=255*
%FSLAX45Y45*%
%MOMM*%
%TF.SameCoordinates,2A578F6B-C5BA-4798-A6F5-255D53479D73*%
%TF.FilePolarity,Positive*%
%TF.FileFunction,Copper,L1,Top,Signal*%
%TF.Part,Single*%
G01*
G75*
%TA.AperFunction,SMDPad,CuDef*%
%ADD10R,0.85872X0.91213*%
%TA.AperFunction,ConnectorPad*%
%ADD11R,1.29000X2.54000*%
%ADD12R,1.78000X2.54000*%
%ADD13R,1.75000X5.50000*%
%TA.AperFunction,SMDPad,CuDef*%
%ADD14R,1.10000X1.30000*%
%TA.AperFunction,Conductor*%
%ADD15C,0.25400*%
%ADD16C,0.25000*%
%ADD17C,0.20000*%
%TA.AperFunction,NonConductor*%
%ADD18R,1.30463X2.55634*%
%ADD19R,1.77800X2.54000*%
%TA.AperFunction,Conductor*%
%ADD20R,1.77800X2.54000*%
%TA.AperFunction,NonConductor*%
%ADD21R,1.28800X2.54000*%
%TA.AperFunction,ComponentPad*%
%ADD22C,1.80000*%
%TA.AperFunction,ViaPad*%
%ADD23C,6.00000*%
%TA.AperFunction,ComponentPad*%
%ADD24C,1.55000*%
%ADD25R,1.55000X1.55000*%
%ADD26O,2.40000X1.20000*%
%ADD27R,3.71600X3.71600*%
%ADD28C,3.71600*%
%ADD29R,1.57000X1.57000*%
%ADD30C,1.57000*%
%ADD31C,1.27000*%
%TA.AperFunction,ViaPad*%
%ADD32C,0.45000*%
G36*
X9893300Y4293300D02*
Y0D01*
X0D01*
Y4291017D01*
X8983Y4299994D01*
X9893300Y4293300D01*
D02*
G37*
%LPC*%
G36*
X1447800Y4085147D02*
X1319000D01*
X1316473Y4084100D01*
X1307100D01*
Y4075859D01*
X1305253Y4071400D01*
Y3961156D01*
X1292553Y3957754D01*
X1288683Y3964457D01*
X1267197Y3985943D01*
X1240883Y4001136D01*
X1211533Y4009000D01*
X1181147D01*
X1151797Y4001136D01*
X1125483Y3985943D01*
X1103997Y3964457D01*
X1088805Y3938143D01*
X1080940Y3908793D01*
Y3878407D01*
X1088805Y3849057D01*
X1103997Y3822743D01*
X1125483Y3801257D01*
X1151797Y3786065D01*
X1181147Y3778200D01*
X1211533D01*
X1240883Y3786065D01*
X1267197Y3801257D01*
X1288683Y3822743D01*
X1292553Y3829446D01*
X1305253Y3826044D01*
Y3817400D01*
X1307100Y3812941D01*
Y3804700D01*
X1316473D01*
X1319000Y3803654D01*
X1447800D01*
X1450327Y3804700D01*
X1461500D01*
Y3817288D01*
X1461546Y3817400D01*
Y4071400D01*
X1461500Y4071512D01*
Y4084100D01*
X1450327D01*
X1447800Y4085147D01*
D02*
G37*
G36*
X6947168Y4036800D02*
X6921232D01*
X6896181Y4030087D01*
X6873720Y4017119D01*
X6855380Y3998780D01*
X6842413Y3976319D01*
X6835700Y3951268D01*
Y3925332D01*
X6842413Y3900280D01*
X6855380Y3877820D01*
X6873720Y3859480D01*
X6896181Y3846513D01*
X6921232Y3839800D01*
X6947168D01*
X6972219Y3846513D01*
X6994680Y3859480D01*
X7013020Y3877820D01*
X7025987Y3900280D01*
X7032700Y3925332D01*
Y3951268D01*
X7025987Y3976319D01*
X7013020Y3998780D01*
X6994680Y4017119D01*
X6972219Y4030087D01*
X6947168Y4036800D01*
D02*
G37*
G36*
X6647168D02*
X6621232D01*
X6596181Y4030087D01*
X6573720Y4017119D01*
X6555381Y3998780D01*
X6542413Y3976319D01*
X6535700Y3951268D01*
Y3925332D01*
X6542413Y3900280D01*
X6555381Y3877820D01*
X6573720Y3859480D01*
X6596181Y3846513D01*
X6621232Y3839800D01*
X6647168D01*
X6672220Y3846513D01*
X6694681Y3859480D01*
X6713020Y3877820D01*
X6725987Y3900280D01*
X6732700Y3925332D01*
Y3951268D01*
X6725987Y3976319D01*
X6713020Y3998780D01*
X6694681Y4017119D01*
X6672220Y4030087D01*
X6647168Y4036800D01*
D02*
G37*
G36*
X8386093Y4030200D02*
X8360158D01*
X8335106Y4023487D01*
X8312645Y4010520D01*
X8294306Y3992180D01*
X8281339Y3969720D01*
X8274626Y3944668D01*
Y3918732D01*
X8281339Y3893681D01*
X8294306Y3871220D01*
X8312645Y3852881D01*
X8335106Y3839913D01*
X8360158Y3833200D01*
X8386093D01*
X8411145Y3839913D01*
X8433606Y3852881D01*
X8451945Y3871220D01*
X8464913Y3893681D01*
X8471626Y3918732D01*
Y3944668D01*
X8464913Y3969720D01*
X8451945Y3992180D01*
X8433606Y4010520D01*
X8411145Y4023487D01*
X8386093Y4030200D01*
D02*
G37*
G36*
X8086094D02*
X8060158D01*
X8035106Y4023487D01*
X8012645Y4010520D01*
X7994306Y3992180D01*
X7981339Y3969720D01*
X7974626Y3944668D01*
Y3918732D01*
X7981339Y3893681D01*
X7994306Y3871220D01*
X8012645Y3852881D01*
X8035106Y3839913D01*
X8060158Y3833200D01*
X8086094D01*
X8111145Y3839913D01*
X8133606Y3852881D01*
X8151945Y3871220D01*
X8164913Y3893681D01*
X8171626Y3918732D01*
Y3944668D01*
X8164913Y3969720D01*
X8151945Y3992180D01*
X8133606Y4010520D01*
X8111145Y4023487D01*
X8086094Y4030200D01*
D02*
G37*
G36*
X1955800Y4085147D02*
X1778000D01*
X1775473Y4084100D01*
X1765200D01*
Y4073686D01*
X1764254Y4071400D01*
Y3817400D01*
X1765200Y3815115D01*
Y3804700D01*
X1775473D01*
X1778000Y3803654D01*
X1955800D01*
X1958327Y3804700D01*
X1968600D01*
Y3815115D01*
X1969546Y3817400D01*
Y4071400D01*
X1968600Y4073686D01*
Y4084100D01*
X1958327D01*
X1955800Y4085147D01*
D02*
G37*
G36*
X2209800D02*
X2032000D01*
X2029473Y4084100D01*
X2019200D01*
Y4073686D01*
X2018254Y4071400D01*
Y3817400D01*
X2019200Y3815115D01*
Y3804700D01*
X2029473D01*
X2032000Y3803654D01*
X2095002D01*
Y3655898D01*
X1710727D01*
X1641338Y3725287D01*
Y3803654D01*
X1701800D01*
X1704327Y3804700D01*
X1717140D01*
Y4084100D01*
X1704327D01*
X1701800Y4085147D01*
X1524000D01*
X1521473Y4084100D01*
X1513740D01*
Y4079818D01*
X1510254Y4071400D01*
Y3817400D01*
X1513740Y3808982D01*
Y3804700D01*
X1521473D01*
X1524000Y3803654D01*
X1589542D01*
Y3714560D01*
X1591514Y3704649D01*
X1597128Y3696248D01*
X1681688Y3611688D01*
X1690089Y3606074D01*
X1700000Y3604103D01*
X2119773D01*
X2268900Y3454975D01*
Y3440646D01*
X2275370Y3425026D01*
X2287326Y3413070D01*
X2302946Y3406600D01*
X2319854D01*
X2335474Y3413070D01*
X2345606Y3423202D01*
X3460173D01*
X3837500Y3045875D01*
Y3031546D01*
X3843970Y3015926D01*
X3855926Y3003970D01*
X3871546Y2997500D01*
X3888454D01*
X3904074Y3003970D01*
X3916030Y3015926D01*
X3922500Y3031546D01*
Y3045875D01*
X4140727Y3264102D01*
X5729273D01*
X6298728Y2694648D01*
Y2280000D01*
Y2235000D01*
X6286991Y2231855D01*
X6264759Y2219019D01*
X6246606Y2200866D01*
X6233770Y2178634D01*
X6227125Y2153836D01*
Y2128164D01*
X6233770Y2103366D01*
X6246606Y2081134D01*
X6263746Y2063994D01*
X6262812Y2055715D01*
X6261627Y2051294D01*
X6254626D01*
X6244794Y2049338D01*
X6236458Y2043768D01*
X5212056Y1019365D01*
X5206486Y1011030D01*
X5204530Y1001197D01*
Y974218D01*
X5195626Y970530D01*
X5183670Y958574D01*
X5177200Y942954D01*
Y926046D01*
X5183670Y910426D01*
X5195626Y898470D01*
X5211246Y892000D01*
X5228154D01*
X5243774Y898470D01*
X5255730Y910426D01*
X5262200Y926046D01*
Y942954D01*
X5255917Y958121D01*
Y990555D01*
X6215392Y1950029D01*
X6227125Y1945169D01*
Y1825836D01*
X5232006Y830717D01*
X5231321D01*
X5216154Y837000D01*
X5199246D01*
X5183626Y830530D01*
X5171670Y818574D01*
X5165200Y802954D01*
Y786046D01*
X5171670Y770426D01*
X5183626Y758470D01*
X5199246Y752000D01*
X5216154D01*
X5231774Y758470D01*
X5243730Y770426D01*
X5247846Y780364D01*
X5252481Y781286D01*
X5260817Y786856D01*
X6263461Y1789500D01*
X6422125D01*
Y1984500D01*
X6278801D01*
X6272013Y1997200D01*
X6273821Y1999906D01*
X6463225D01*
X6473058Y2001862D01*
X6481393Y2007432D01*
X6530286Y2056325D01*
X6540991Y2050145D01*
X6565789Y2043500D01*
X6591461D01*
X6616259Y2050145D01*
X6638491Y2062981D01*
X6656645Y2081134D01*
X6669480Y2103366D01*
X6676125Y2128164D01*
Y2153836D01*
X6669480Y2178634D01*
X6656645Y2200866D01*
X6638491Y2219019D01*
X6616259Y2231855D01*
X6591461Y2238500D01*
X6565789D01*
X6540991Y2231855D01*
X6518759Y2219019D01*
X6500606Y2200866D01*
X6487770Y2178634D01*
X6481125Y2153836D01*
Y2128164D01*
X6487770Y2103366D01*
X6493950Y2092661D01*
X6452582Y2051294D01*
X6387623D01*
X6386438Y2055715D01*
X6385504Y2063994D01*
X6402645Y2081134D01*
X6415480Y2103366D01*
X6422125Y2128164D01*
Y2153836D01*
X6415480Y2178634D01*
X6402645Y2200866D01*
X6384491Y2219019D01*
X6362259Y2231855D01*
X6350523Y2235000D01*
Y2254102D01*
X6949273D01*
X7171688Y2031688D01*
X7180090Y2026074D01*
X7190000Y2024102D01*
X7836873D01*
Y1894506D01*
X7794435D01*
Y1777894D01*
X7836873D01*
Y1437306D01*
X7807135D01*
Y1320694D01*
X7918406D01*
Y1437306D01*
X7888668D01*
Y1777894D01*
X7905706D01*
Y1894506D01*
X7888668D01*
Y2050000D01*
Y2247794D01*
X7909877D01*
Y2364406D01*
X7798606D01*
Y2247794D01*
X7836873D01*
Y2075898D01*
X7200727D01*
X6978312Y2298312D01*
X6969911Y2303926D01*
X6960000Y2305898D01*
X6350523D01*
Y2705375D01*
X6348551Y2715285D01*
X6342938Y2723687D01*
X5758312Y3308312D01*
X5749911Y3313926D01*
X5740000Y3315898D01*
X4130000D01*
X4120090Y3313926D01*
X4111688Y3308312D01*
X3885875Y3082500D01*
X3874125D01*
X3489212Y3467412D01*
X3480811Y3473026D01*
X3470900Y3474998D01*
X2345606D01*
X2335474Y3485130D01*
X2319854Y3491600D01*
X2305525D01*
X2148812Y3648312D01*
X2146798Y3649659D01*
Y3803654D01*
X2209800D01*
X2212327Y3804700D01*
X2222600D01*
Y3815115D01*
X2223546Y3817400D01*
Y4071400D01*
X2222600Y4073686D01*
Y4084100D01*
X2212327D01*
X2209800Y4085147D01*
D02*
G37*
G36*
X7545904Y3831200D02*
X7522496D01*
X7499886Y3825142D01*
X7479614Y3813438D01*
X7463062Y3796886D01*
X7451358Y3776614D01*
X7445300Y3754004D01*
Y3730596D01*
X7451358Y3707986D01*
X7463062Y3687714D01*
X7479614Y3671162D01*
X7499886Y3659459D01*
X7522496Y3653400D01*
X7545904D01*
X7568514Y3659459D01*
X7588786Y3671162D01*
X7605338Y3687714D01*
X7617042Y3707986D01*
X7623100Y3730596D01*
Y3754004D01*
X7617042Y3776614D01*
X7605338Y3796886D01*
X7588786Y3813438D01*
X7568514Y3825142D01*
X7545904Y3831200D01*
D02*
G37*
G36*
X6345904D02*
X6322496D01*
X6299886Y3825142D01*
X6279614Y3813438D01*
X6263062Y3796886D01*
X6251358Y3776614D01*
X6245300Y3754004D01*
Y3730596D01*
X6251358Y3707986D01*
X6263062Y3687714D01*
X6279614Y3671162D01*
X6299886Y3659459D01*
X6322496Y3653400D01*
X6345904D01*
X6368514Y3659459D01*
X6388786Y3671162D01*
X6405338Y3687714D01*
X6417042Y3707986D01*
X6423100Y3730596D01*
Y3754004D01*
X6417042Y3776614D01*
X6405338Y3796886D01*
X6388786Y3813438D01*
X6368514Y3825142D01*
X6345904Y3831200D01*
D02*
G37*
G36*
X8984830Y3824600D02*
X8961422D01*
X8938812Y3818542D01*
X8918540Y3806838D01*
X8901988Y3790286D01*
X8890284Y3770014D01*
X8884226Y3747404D01*
Y3723996D01*
X8890284Y3701386D01*
X8901988Y3681114D01*
X8918540Y3664562D01*
X8938812Y3652859D01*
X8961422Y3646800D01*
X8984830D01*
X9007440Y3652859D01*
X9027712Y3664562D01*
X9044264Y3681114D01*
X9055967Y3701386D01*
X9062026Y3723996D01*
Y3747404D01*
X9055967Y3770014D01*
X9044264Y3790286D01*
X9027712Y3806838D01*
X9007440Y3818542D01*
X8984830Y3824600D01*
D02*
G37*
G36*
X7784829D02*
X7761422D01*
X7738812Y3818542D01*
X7718540Y3806838D01*
X7701988Y3790286D01*
X7690284Y3770014D01*
X7684226Y3747404D01*
Y3723996D01*
X7690284Y3701386D01*
X7701988Y3681114D01*
X7718540Y3664562D01*
X7738812Y3652859D01*
X7761422Y3646800D01*
X7784829D01*
X7807440Y3652859D01*
X7827712Y3664562D01*
X7844263Y3681114D01*
X7855967Y3701386D01*
X7862026Y3723996D01*
Y3747404D01*
X7855967Y3770014D01*
X7844263Y3790286D01*
X7827712Y3806838D01*
X7807440Y3818542D01*
X7784829Y3824600D01*
D02*
G37*
G36*
X9525185Y4220000D02*
X9474815D01*
X9425066Y4212121D01*
X9377163Y4196556D01*
X9332284Y4173689D01*
X9291534Y4144082D01*
X9255918Y4108466D01*
X9226311Y4067717D01*
X9203444Y4022838D01*
X9187880Y3974934D01*
X9180000Y3925185D01*
Y3874815D01*
X9187880Y3825067D01*
X9203444Y3777163D01*
X9226311Y3732284D01*
X9255918Y3691534D01*
X9291534Y3655918D01*
X9332284Y3626312D01*
X9377163Y3603444D01*
X9425066Y3587880D01*
X9474815Y3580000D01*
X9525185D01*
X9574934Y3587880D01*
X9622837Y3603444D01*
X9667717Y3626312D01*
X9708466Y3655918D01*
X9744082Y3691534D01*
X9773689Y3732284D01*
X9796556Y3777163D01*
X9812121Y3825067D01*
X9820000Y3874815D01*
Y3925185D01*
X9812121Y3974934D01*
X9796556Y4022838D01*
X9773689Y4067717D01*
X9744082Y4108466D01*
X9708466Y4144082D01*
X9667717Y4173689D01*
X9622837Y4196556D01*
X9574934Y4212121D01*
X9525185Y4220000D01*
D02*
G37*
G36*
X425185D02*
X374815D01*
X325066Y4212121D01*
X277163Y4196556D01*
X232284Y4173689D01*
X191534Y4144082D01*
X155918Y4108466D01*
X126311Y4067717D01*
X103444Y4022838D01*
X87879Y3974934D01*
X80000Y3925185D01*
Y3874815D01*
X87879Y3825067D01*
X103444Y3777163D01*
X126311Y3732284D01*
X155918Y3691534D01*
X191534Y3655918D01*
X232284Y3626312D01*
X277163Y3603444D01*
X325066Y3587880D01*
X374815Y3580000D01*
X425185D01*
X474934Y3587880D01*
X522837Y3603444D01*
X567716Y3626312D01*
X608466Y3655918D01*
X644082Y3691534D01*
X673689Y3732284D01*
X696556Y3777163D01*
X712120Y3825067D01*
X720000Y3874815D01*
Y3925185D01*
X712120Y3974934D01*
X696556Y4022838D01*
X673689Y4067717D01*
X644082Y4108466D01*
X608466Y4144082D01*
X567716Y4173689D01*
X522837Y4196556D01*
X474934Y4212121D01*
X425185Y4220000D01*
D02*
G37*
G36*
X1010700Y4046000D02*
X810300D01*
Y3470600D01*
X1010700D01*
Y4046000D01*
D02*
G37*
G36*
X1114100Y3256990D02*
X994100D01*
X973216Y3254241D01*
X953755Y3246180D01*
X937043Y3233356D01*
X924220Y3216645D01*
X916159Y3197184D01*
X913410Y3176300D01*
X916159Y3155416D01*
X924220Y3135955D01*
X937043Y3119243D01*
X953755Y3106420D01*
X973216Y3098359D01*
X994100Y3095610D01*
X1114100D01*
X1134984Y3098359D01*
X1154445Y3106420D01*
X1171157Y3119243D01*
X1183980Y3135955D01*
X1192041Y3155416D01*
X1194790Y3176300D01*
X1192041Y3197184D01*
X1183980Y3216645D01*
X1171157Y3233356D01*
X1154445Y3246180D01*
X1134984Y3254241D01*
X1114100Y3256990D01*
D02*
G37*
G36*
X2618454Y3312500D02*
X2601546D01*
X2585926Y3306030D01*
X2573970Y3294074D01*
X2567500Y3278454D01*
Y3261546D01*
X2573970Y3245926D01*
X2585926Y3233970D01*
X2601546Y3227500D01*
X2616164D01*
X2707806Y3135858D01*
Y3058207D01*
X2695106Y3055680D01*
X2691630Y3064074D01*
X2679674Y3076030D01*
X2664054Y3082500D01*
X2647146D01*
X2631526Y3076030D01*
X2619570Y3064074D01*
X2613100Y3048454D01*
Y3031546D01*
X2619570Y3015926D01*
X2624102Y3011394D01*
Y2933629D01*
X2611402Y2931103D01*
X2606030Y2944074D01*
X2594074Y2956030D01*
X2578454Y2962500D01*
X2561546D01*
X2545926Y2956030D01*
X2533970Y2944074D01*
X2527500Y2928454D01*
Y2911546D01*
X2533970Y2895926D01*
X2544102Y2885794D01*
Y1539400D01*
X2546074Y1529489D01*
X2551688Y1521088D01*
X3494777Y577998D01*
X3494548Y577560D01*
X3494548Y577560D01*
X3492150Y572971D01*
X3482899Y566594D01*
X3481072Y566720D01*
X3479800Y567247D01*
X3469337Y567247D01*
X3302000D01*
X3299473Y566200D01*
X3289200D01*
Y555786D01*
X3288254Y553500D01*
Y299500D01*
X3289200Y297215D01*
Y286800D01*
X3299473D01*
X3302000Y285754D01*
X3479800D01*
X3482327Y286800D01*
X3492600D01*
Y297215D01*
X3493546Y299500D01*
Y542901D01*
X3493547Y553500D01*
X3493076Y554636D01*
X3492970Y556335D01*
X3499278Y565702D01*
X3504398Y568377D01*
X3542254Y530522D01*
Y299500D01*
X3543200Y297215D01*
Y286800D01*
X3553473D01*
X3556000Y285754D01*
X3711022D01*
X3817188Y179588D01*
X3825590Y173974D01*
X3835500Y172002D01*
X6111100D01*
X6121011Y173974D01*
X6129412Y179588D01*
X6276012Y326188D01*
X6281626Y334589D01*
X6283598Y344500D01*
Y683009D01*
X6296298Y684681D01*
X6298333Y677086D01*
X6310036Y656814D01*
X6326588Y640262D01*
X6346860Y628558D01*
X6369470Y622500D01*
X6392878D01*
X6415488Y628558D01*
X6435760Y640262D01*
X6452312Y656814D01*
X6464016Y677086D01*
X6470074Y699696D01*
Y723104D01*
X6464016Y745714D01*
X6452312Y765986D01*
X6435760Y782538D01*
X6415488Y794241D01*
X6392878Y800300D01*
X6369470D01*
X6346860Y794241D01*
X6326588Y782538D01*
X6310036Y765986D01*
X6298333Y745714D01*
X6296298Y738119D01*
X6283598Y739791D01*
Y774061D01*
X6875543Y1366006D01*
X7155200D01*
Y1314000D01*
X7290600D01*
Y1469400D01*
X7155200D01*
Y1417394D01*
X6864900D01*
X6855068Y1415438D01*
X6846732Y1409868D01*
X6240257Y803393D01*
X6239388Y802812D01*
X6233774Y794410D01*
X6231802Y784500D01*
Y355227D01*
X6100373Y223798D01*
X6033457D01*
X6032206Y236498D01*
X6033864Y236828D01*
X6042266Y242441D01*
X6106012Y306188D01*
X6111626Y314589D01*
X6113598Y324500D01*
Y783773D01*
X6276012Y946188D01*
X6276593Y947057D01*
X6880568Y1551032D01*
X6973425D01*
X6983258Y1552987D01*
X6991593Y1558557D01*
X7191536Y1758500D01*
X7290600D01*
Y1913900D01*
X7155200D01*
Y1794836D01*
X6962783Y1602419D01*
X6869925D01*
X6860093Y1600463D01*
X6851757Y1594893D01*
X6240257Y983394D01*
X6239388Y982812D01*
X6069388Y812812D01*
X6063774Y804411D01*
X6061802Y794500D01*
Y335227D01*
X6013227Y286651D01*
X5487339D01*
X5485464Y286674D01*
X5477327Y298809D01*
Y407398D01*
X5489595Y410685D01*
X5490577Y408983D01*
X5512063Y387497D01*
X5538377Y372305D01*
X5567727Y364440D01*
X5598113D01*
X5627463Y372305D01*
X5653777Y387497D01*
X5675263Y408983D01*
X5690455Y435297D01*
X5698320Y464647D01*
Y495033D01*
X5690455Y524383D01*
X5675263Y550697D01*
X5653777Y572183D01*
X5627463Y587376D01*
X5598113Y595240D01*
X5567727D01*
X5538377Y587376D01*
X5512063Y572183D01*
X5490577Y550697D01*
X5489595Y548995D01*
X5477327Y552282D01*
Y554443D01*
X5474700Y560786D01*
Y566200D01*
X5468384D01*
X5463581Y568189D01*
X5333118D01*
X5328315Y566200D01*
X5320300D01*
Y556684D01*
X5319372Y554443D01*
Y298809D01*
X5313656Y286722D01*
X5307661Y286651D01*
X5283238D01*
X5276599Y286730D01*
X5271485Y299351D01*
X5271546Y299500D01*
Y553500D01*
X5270600Y555786D01*
Y566200D01*
X5260327D01*
X5257800Y567247D01*
X5080000D01*
X5077473Y566200D01*
X5067200D01*
Y555786D01*
X5066254Y553500D01*
Y299500D01*
X5066315Y299351D01*
X5061201Y286730D01*
X5054562Y286651D01*
X5029238D01*
X5022599Y286730D01*
X5017485Y299351D01*
X5017546Y299500D01*
Y553500D01*
X5016600Y555786D01*
Y566200D01*
X5006327D01*
X5003800Y567247D01*
X4940594D01*
Y645100D01*
X4938638Y654932D01*
X4933068Y663268D01*
X4828168Y768168D01*
X4819832Y773738D01*
X4810000Y775694D01*
X3835643D01*
X2759194Y1852143D01*
Y3146500D01*
X2757238Y3156333D01*
X2751668Y3164668D01*
X2652500Y3263836D01*
Y3278454D01*
X2646030Y3294074D01*
X2634074Y3306030D01*
X2618454Y3312500D01*
D02*
G37*
G36*
X5051400Y2833947D02*
X5051399Y2833947D01*
X4326401D01*
X4326400Y2833947D01*
X4316680Y2829920D01*
X4291680Y2804920D01*
X4287653Y2795200D01*
X4287654Y2795200D01*
Y2545200D01*
X4291680Y2535480D01*
X4512653Y2314506D01*
Y2150894D01*
X4316680Y1954920D01*
X4312653Y1945200D01*
X4312654Y1945200D01*
Y1645200D01*
X4316680Y1635480D01*
X4326400Y1631454D01*
X5101400D01*
X5111120Y1635480D01*
X5115146Y1645200D01*
Y1870200D01*
X5111120Y1879920D01*
X5111120Y1879921D01*
X5036120Y1954920D01*
X5026400Y1958947D01*
X5026399Y1958947D01*
X4865146Y1958947D01*
Y2481454D01*
X5026400D01*
X5026400Y2481453D01*
X5036120Y2485480D01*
X5111120Y2560480D01*
X5115147Y2570200D01*
X5115146Y2570200D01*
Y2770200D01*
X5111120Y2779920D01*
X5111120Y2779921D01*
X5061120Y2829920D01*
X5051400Y2833947D01*
D02*
G37*
G36*
X4466154Y3161400D02*
X4449246D01*
X4433626Y3154930D01*
X4421670Y3142974D01*
X4415200Y3127354D01*
Y3110446D01*
X4421670Y3094826D01*
X4433626Y3082870D01*
X4449246Y3076400D01*
X4466154D01*
X4481774Y3082870D01*
X4492110Y3093206D01*
X5463057D01*
X5837600Y2718664D01*
Y2704046D01*
X5844070Y2688426D01*
X5856026Y2676470D01*
X5871646Y2670000D01*
X5888554D01*
X5904174Y2676470D01*
X5916130Y2688426D01*
X5922600Y2704046D01*
Y2720954D01*
X5916130Y2736574D01*
X5904174Y2748530D01*
X5888554Y2755000D01*
X5873936D01*
X5491868Y3137068D01*
X5483533Y3142638D01*
X5473700Y3144594D01*
X4492110D01*
X4481774Y3154930D01*
X4466154Y3161400D01*
D02*
G37*
G36*
X5547128Y4136450D02*
X2500513D01*
X2490602Y4134479D01*
X2482200Y4128865D01*
X2477287Y4121512D01*
X2442415Y4086640D01*
X2273200D01*
Y4073686D01*
X2272254Y4071400D01*
Y3817400D01*
X2273200Y3815115D01*
Y3807240D01*
X2277341D01*
X2286000Y3803654D01*
X2463800D01*
X2472459Y3807240D01*
X2476600D01*
Y3815115D01*
X2477546Y3817400D01*
Y4048522D01*
X2513680Y4084655D01*
X2768730D01*
X2775696Y4084345D01*
X2780483Y4071955D01*
X2780254Y4071400D01*
Y3817400D01*
X2781200Y3815115D01*
Y3804700D01*
X2791473D01*
X2794000Y3803654D01*
X2971800D01*
X2974327Y3804700D01*
X2984600D01*
Y3815115D01*
X2985546Y3817400D01*
Y4071400D01*
X2985317Y4071955D01*
X2990104Y4084345D01*
X2997070Y4084655D01*
X3022730D01*
X3029696Y4084345D01*
X3034483Y4071955D01*
X3034254Y4071400D01*
Y3817400D01*
X3035200Y3815115D01*
Y3804700D01*
X3045473D01*
X3048000Y3803654D01*
X3225800D01*
X3228327Y3804700D01*
X3238600D01*
Y3815115D01*
X3239546Y3817400D01*
Y4071400D01*
X3239317Y4071955D01*
X3244104Y4084345D01*
X3251070Y4084655D01*
X3276730D01*
X3283696Y4084345D01*
X3288483Y4071955D01*
X3288254Y4071400D01*
Y3817400D01*
X3289200Y3815115D01*
Y3804700D01*
X3299473D01*
X3302000Y3803654D01*
X3479800D01*
X3482327Y3804700D01*
X3492600D01*
Y3815115D01*
X3493546Y3817400D01*
Y4071400D01*
X3493317Y4071955D01*
X3498104Y4084345D01*
X3505070Y4084655D01*
X3530730D01*
X3537696Y4084345D01*
X3542483Y4071955D01*
X3542254Y4071400D01*
Y3817400D01*
X3543200Y3815115D01*
Y3804700D01*
X3553473D01*
X3556000Y3803654D01*
X3733800D01*
X3736327Y3804700D01*
X3746600D01*
Y3815115D01*
X3747546Y3817400D01*
Y4071400D01*
X3747317Y4071955D01*
X3752104Y4084345D01*
X3759070Y4084655D01*
X3784730D01*
X3791696Y4084345D01*
X3796483Y4071955D01*
X3796254Y4071400D01*
Y3817400D01*
X3797200Y3815115D01*
Y3804700D01*
X3807473D01*
X3810000Y3803654D01*
X3987800D01*
X3990327Y3804700D01*
X4000600D01*
Y3815115D01*
X4001546Y3817400D01*
Y4071400D01*
X4001317Y4071955D01*
X4006104Y4084345D01*
X4013070Y4084655D01*
X4038730D01*
X4045696Y4084345D01*
X4050483Y4071955D01*
X4050254Y4071400D01*
Y3817400D01*
X4051200Y3815115D01*
Y3804700D01*
X4061473D01*
X4064000Y3803654D01*
X4241800D01*
X4244327Y3804700D01*
X4254600D01*
Y3815115D01*
X4255546Y3817400D01*
Y4071400D01*
X4255317Y4071955D01*
X4260104Y4084345D01*
X4267070Y4084655D01*
X4292730D01*
X4299696Y4084345D01*
X4304483Y4071955D01*
X4304254Y4071400D01*
Y3817400D01*
X4305200Y3815115D01*
Y3804700D01*
X4315473D01*
X4318000Y3803654D01*
X4495800D01*
X4498327Y3804700D01*
X4508600D01*
Y3815115D01*
X4509546Y3817400D01*
Y4071400D01*
X4509317Y4071955D01*
X4514104Y4084345D01*
X4521070Y4084655D01*
X4552702D01*
X4558483Y4071955D01*
X4558254Y4071400D01*
Y3817400D01*
X4559818Y3813623D01*
Y3805753D01*
X4566932D01*
X4572000Y3803654D01*
X4749800D01*
X4754868Y3805753D01*
X4763218D01*
Y3816606D01*
X4763546Y3817400D01*
Y4071400D01*
X4763218Y4072194D01*
Y4084655D01*
X4802267D01*
X4805455Y4084523D01*
X4812483Y4071955D01*
X4812254Y4071400D01*
Y3817400D01*
X4814753Y3811367D01*
Y3804737D01*
X4823385D01*
X4826000Y3803654D01*
X5003800D01*
X5006415Y3804737D01*
X5018152D01*
Y4084136D01*
X5030638Y4084655D01*
X5054575D01*
X5061490Y4083775D01*
X5066254Y4071400D01*
Y3817400D01*
X5066639Y3816469D01*
Y3803721D01*
X5079838D01*
X5080000Y3803654D01*
X5257800D01*
X5257962Y3803721D01*
X5270039D01*
Y3813760D01*
X5271546Y3817400D01*
Y4071400D01*
X5271317Y4071955D01*
X5276709Y4083969D01*
X5282103Y4084655D01*
X5308281D01*
X5313608Y4084222D01*
X5319372Y4072343D01*
Y3816709D01*
X5320568Y3813820D01*
Y3804257D01*
X5329993D01*
X5333118Y3802963D01*
X5463581D01*
X5466706Y3804257D01*
X5474968D01*
Y3811014D01*
X5477327Y3816709D01*
Y3821158D01*
X5489595Y3824445D01*
X5490577Y3822743D01*
X5512063Y3801257D01*
X5538377Y3786065D01*
X5567727Y3778200D01*
X5598113D01*
X5627463Y3786065D01*
X5653777Y3801257D01*
X5672422Y3819903D01*
X5685122Y3815886D01*
Y3491562D01*
X5687094Y3481651D01*
X5692708Y3473250D01*
X6637500Y2528457D01*
Y2521546D01*
X6643970Y2505926D01*
X6655926Y2493970D01*
X6671546Y2487500D01*
X6688454D01*
X6704074Y2493970D01*
X6716030Y2505926D01*
X6722500Y2521546D01*
Y2538454D01*
X6716030Y2554074D01*
X6704074Y2566030D01*
X6688454Y2572500D01*
X6671546D01*
X6668124Y2571082D01*
X5778807Y3460400D01*
X5784067Y3473100D01*
X5973200D01*
Y4048500D01*
X5772800D01*
Y3484367D01*
X5760100Y3479107D01*
X5736918Y3502289D01*
Y3946661D01*
X5734946Y3956571D01*
X5729332Y3964973D01*
X5565440Y4128865D01*
X5557039Y4134479D01*
X5547128Y4136450D01*
D02*
G37*
G36*
X7500600Y2383800D02*
X7365200D01*
Y2228400D01*
X7500600D01*
Y2280406D01*
X7643264D01*
Y2247794D01*
X7754536D01*
Y2364406D01*
X7643264D01*
Y2331794D01*
X7500600D01*
Y2383800D01*
D02*
G37*
G36*
X6574354Y2437500D02*
X6557446D01*
X6541826Y2431030D01*
X6529870Y2419074D01*
X6523400Y2403454D01*
Y2386546D01*
X6529870Y2370926D01*
X6541826Y2358970D01*
X6557446Y2352500D01*
X6574354D01*
X6589974Y2358970D01*
X6600310Y2369306D01*
X7123357D01*
X7155200Y2337464D01*
Y2228400D01*
X7290600D01*
Y2383800D01*
X7181536D01*
X7152168Y2413168D01*
X7143833Y2418738D01*
X7134000Y2420694D01*
X6600310D01*
X6589974Y2431030D01*
X6574354Y2437500D01*
D02*
G37*
G36*
X3700000Y2863746D02*
X2925000D01*
X2915280Y2859720D01*
X2911254Y2850000D01*
Y2625000D01*
X2915280Y2615280D01*
X2915280Y2615280D01*
X2990280Y2540280D01*
X3000000Y2536253D01*
X3000001Y2536253D01*
X3161254Y2536253D01*
Y2013747D01*
X3000000D01*
X3000000Y2013747D01*
X2990280Y2009720D01*
X2915280Y1934721D01*
X2911253Y1925000D01*
X2911254Y1925000D01*
Y1725000D01*
X2915280Y1715280D01*
X2915280Y1715280D01*
X2965280Y1665280D01*
X2975000Y1661253D01*
X2975001Y1661253D01*
X3699999D01*
X3700000Y1661253D01*
X3709720Y1665280D01*
X3734720Y1690280D01*
X3738747Y1700000D01*
X3738746Y1700000D01*
Y1950000D01*
X3734720Y1959720D01*
X3513747Y2180694D01*
Y2344306D01*
X3709720Y2540280D01*
X3713747Y2550000D01*
X3713746Y2550000D01*
Y2850000D01*
X3709720Y2859720D01*
X3700000Y2863746D01*
D02*
G37*
G36*
X1859900Y2347100D02*
X1448300D01*
Y1935500D01*
X1859900D01*
Y2347100D01*
D02*
G37*
G36*
X3932754Y2628000D02*
X3915846D01*
X3900226Y2621530D01*
X3888270Y2609574D01*
X3881800Y2593954D01*
Y2579336D01*
X3770832Y2468368D01*
X3765262Y2460033D01*
X3763306Y2450200D01*
Y2009600D01*
X3765262Y1999767D01*
X3770832Y1991432D01*
X3879425Y1882839D01*
X3887761Y1877269D01*
X3897593Y1875313D01*
X3943390D01*
X3953726Y1864977D01*
X3969346Y1858507D01*
X3986254D01*
X4001874Y1864977D01*
X4013830Y1876933D01*
X4020300Y1892553D01*
Y1909460D01*
X4013830Y1925081D01*
X4001874Y1937037D01*
X3986254Y1943507D01*
X3969346D01*
X3953726Y1937037D01*
X3943390Y1926700D01*
X3908236D01*
X3814694Y2020243D01*
Y2439557D01*
X3918136Y2543000D01*
X3932754D01*
X3948374Y2549470D01*
X3960330Y2561426D01*
X3966800Y2577046D01*
Y2593954D01*
X3960330Y2609574D01*
X3948374Y2621530D01*
X3932754Y2628000D01*
D02*
G37*
G36*
X6845461Y1984500D02*
X6819789D01*
X6794991Y1977855D01*
X6772759Y1965019D01*
X6754606Y1946866D01*
X6741770Y1924634D01*
X6735125Y1899836D01*
Y1874164D01*
X6741770Y1849366D01*
X6754606Y1827134D01*
X6772759Y1808981D01*
X6794991Y1796145D01*
X6819789Y1789500D01*
X6845461D01*
X6870259Y1796145D01*
X6892491Y1808981D01*
X6910645Y1827134D01*
X6923480Y1849366D01*
X6930125Y1874164D01*
Y1899836D01*
X6923480Y1924634D01*
X6910645Y1946866D01*
X6892491Y1965019D01*
X6870259Y1977855D01*
X6845461Y1984500D01*
D02*
G37*
G36*
X6591461D02*
X6565789D01*
X6540991Y1977855D01*
X6518759Y1965019D01*
X6500606Y1946866D01*
X6487770Y1924634D01*
X6481125Y1899836D01*
Y1874164D01*
X6487770Y1849366D01*
X6493950Y1838661D01*
X5363689Y708400D01*
X5349071D01*
X5333451Y701930D01*
X5321495Y689974D01*
X5315025Y674353D01*
Y657446D01*
X5321495Y641826D01*
X5333451Y629870D01*
X5349071Y623400D01*
X5365979D01*
X5381599Y629870D01*
X5393555Y641826D01*
X5400025Y657446D01*
Y672063D01*
X6530286Y1802325D01*
X6540991Y1796145D01*
X6565789Y1789500D01*
X6591461D01*
X6616259Y1796145D01*
X6638491Y1808981D01*
X6656645Y1827134D01*
X6669480Y1849366D01*
X6676125Y1874164D01*
Y1899836D01*
X6669480Y1924634D01*
X6656645Y1946866D01*
X6638491Y1965019D01*
X6616259Y1977855D01*
X6591461Y1984500D01*
D02*
G37*
G36*
X7500600Y1913900D02*
X7365200D01*
Y1758500D01*
X7500600D01*
Y1810506D01*
X7639094D01*
Y1777894D01*
X7750365D01*
Y1894506D01*
X7639094D01*
Y1861894D01*
X7500600D01*
Y1913900D01*
D02*
G37*
G36*
X1114100Y1906990D02*
X994100D01*
X973216Y1904241D01*
X953755Y1896180D01*
X937043Y1883357D01*
X924220Y1866645D01*
X916159Y1847184D01*
X913410Y1826300D01*
X916159Y1805416D01*
X924220Y1785955D01*
X937043Y1769244D01*
X953755Y1756420D01*
X973216Y1748359D01*
X994100Y1745610D01*
X1114100D01*
X1134984Y1748359D01*
X1154445Y1756420D01*
X1171157Y1769244D01*
X1183980Y1785955D01*
X1192041Y1805416D01*
X1194790Y1826300D01*
X1192041Y1847184D01*
X1183980Y1866645D01*
X1171157Y1883357D01*
X1154445Y1896180D01*
X1134984Y1904241D01*
X1114100Y1906990D01*
D02*
G37*
G36*
X7500600Y1469400D02*
X7365200D01*
Y1314000D01*
X7500600D01*
Y1366006D01*
X7651794D01*
Y1320694D01*
X7763065D01*
Y1437306D01*
X7651794D01*
Y1417394D01*
X7500600D01*
Y1469400D01*
D02*
G37*
G36*
X2476154Y827000D02*
X2459246D01*
X2443626Y820530D01*
X2431670Y808574D01*
X2427887Y799440D01*
X2420543Y797979D01*
X2412141Y792365D01*
X2187022Y567247D01*
X2032000D01*
X2029473Y566200D01*
X2019200D01*
Y555786D01*
X2018254Y553500D01*
Y299500D01*
X2019200Y297215D01*
Y286800D01*
X2029473D01*
X2032000Y285754D01*
X2209800D01*
X2212327Y286800D01*
X2222600D01*
Y297215D01*
X2223546Y299500D01*
Y530522D01*
X2261402Y568377D01*
X2261840Y568148D01*
X2261840Y568148D01*
X2266522Y565702D01*
X2272830Y556335D01*
X2272724Y554636D01*
X2272253Y553500D01*
X2272254Y542901D01*
Y299500D01*
X2273200Y297215D01*
Y286800D01*
X2283473D01*
X2286000Y285754D01*
X2463800D01*
X2466327Y286800D01*
X2476600D01*
Y297215D01*
X2477546Y299500D01*
Y553500D01*
X2476600Y555786D01*
Y566200D01*
X2466327D01*
X2463800Y567247D01*
X2296463D01*
X2286000Y567247D01*
X2284728Y566720D01*
X2282901Y566594D01*
X2273650Y572971D01*
X2271023Y577998D01*
X2441180Y748155D01*
X2444386D01*
X2459246Y742000D01*
X2476154D01*
X2491774Y748470D01*
X2503730Y760426D01*
X2510200Y776046D01*
Y792954D01*
X2503730Y808574D01*
X2491774Y820530D01*
X2476154Y827000D01*
D02*
G37*
G36*
X1761054Y786500D02*
X1744146D01*
X1728526Y780030D01*
X1716570Y768074D01*
X1710100Y752454D01*
Y735546D01*
X1710485Y734617D01*
X1596534Y620666D01*
X1591517Y613157D01*
X1589755Y604300D01*
Y567247D01*
X1524000D01*
X1521473Y566200D01*
X1511200D01*
Y555786D01*
X1510254Y553500D01*
Y299500D01*
X1511200Y297215D01*
Y286800D01*
X1521473D01*
X1524000Y285754D01*
X1701800D01*
X1704327Y286800D01*
X1714600D01*
Y297215D01*
X1715546Y299500D01*
Y553500D01*
X1714600Y555786D01*
Y566200D01*
X1704327D01*
X1701800Y567247D01*
X1636045D01*
Y594713D01*
X1743217Y701885D01*
X1744146Y701500D01*
X1761054D01*
X1776674Y707970D01*
X1788630Y719926D01*
X1795100Y735546D01*
Y752454D01*
X1788630Y768074D01*
X1776674Y780030D01*
X1761054Y786500D01*
D02*
G37*
G36*
X2055054Y708400D02*
X2038147D01*
X2022526Y701930D01*
X2010571Y689974D01*
X2010185Y689045D01*
X1969100D01*
X1960243Y687283D01*
X1952734Y682266D01*
X1858618Y588150D01*
X1853601Y580641D01*
X1851839Y571784D01*
Y567247D01*
X1778000D01*
X1775473Y566200D01*
X1765200D01*
Y555786D01*
X1764254Y553500D01*
Y299500D01*
X1765200Y297215D01*
Y286800D01*
X1775473D01*
X1778000Y285754D01*
X1955800D01*
X1958327Y286800D01*
X1968600D01*
Y297215D01*
X1969546Y299500D01*
Y553500D01*
X1968600Y555786D01*
Y566200D01*
X1958327D01*
X1955800Y567247D01*
X1919771D01*
X1914911Y578980D01*
X1978686Y642755D01*
X2010185D01*
X2010571Y641826D01*
X2022526Y629870D01*
X2038147Y623400D01*
X2055054D01*
X2070674Y629870D01*
X2082630Y641826D01*
X2089100Y657446D01*
Y674353D01*
X2082630Y689974D01*
X2070674Y701930D01*
X2055054Y708400D01*
D02*
G37*
G36*
X7592878Y800300D02*
X7569471D01*
X7546860Y794241D01*
X7526588Y782538D01*
X7510037Y765986D01*
X7498333Y745714D01*
X7492274Y723104D01*
Y699696D01*
X7498333Y677086D01*
X7510037Y656814D01*
X7526588Y640262D01*
X7546860Y628558D01*
X7569471Y622500D01*
X7592878D01*
X7615488Y628558D01*
X7635760Y640262D01*
X7652312Y656814D01*
X7664016Y677086D01*
X7670074Y699696D01*
Y723104D01*
X7664016Y745714D01*
X7652312Y765986D01*
X7635760Y782538D01*
X7615488Y794241D01*
X7592878Y800300D01*
D02*
G37*
G36*
X9031804Y794800D02*
X9008396D01*
X8985786Y788742D01*
X8965514Y777038D01*
X8948962Y760486D01*
X8937258Y740214D01*
X8931200Y717604D01*
Y694196D01*
X8937258Y671586D01*
X8948962Y651314D01*
X8965514Y634762D01*
X8985786Y623058D01*
X9008396Y617000D01*
X9031804D01*
X9054414Y623058D01*
X9074686Y634762D01*
X9091238Y651314D01*
X9102942Y671586D01*
X9109000Y694196D01*
Y717604D01*
X9102942Y740214D01*
X9091238Y760486D01*
X9074686Y777038D01*
X9054414Y788742D01*
X9031804Y794800D01*
D02*
G37*
G36*
X7831804D02*
X7808396D01*
X7785786Y788742D01*
X7765514Y777038D01*
X7748962Y760486D01*
X7737258Y740214D01*
X7731200Y717604D01*
Y694196D01*
X7737258Y671586D01*
X7748962Y651314D01*
X7765514Y634762D01*
X7785786Y623058D01*
X7808396Y617000D01*
X7831804D01*
X7854414Y623058D01*
X7874686Y634762D01*
X7891238Y651314D01*
X7902942Y671586D01*
X7909000Y694196D01*
Y717604D01*
X7902942Y740214D01*
X7891238Y760486D01*
X7874686Y777038D01*
X7854414Y788742D01*
X7831804Y794800D01*
D02*
G37*
G36*
X7316911Y619405D02*
X7307079Y617449D01*
X7299585Y612441D01*
X7294142Y613900D01*
X7268206D01*
X7243155Y607187D01*
X7220694Y594220D01*
X7202355Y575880D01*
X7189387Y553420D01*
X7182674Y528368D01*
Y502432D01*
X7189387Y477381D01*
X7202355Y454920D01*
X7220694Y436581D01*
X7243155Y423613D01*
X7268206Y416900D01*
X7294142D01*
X7319194Y423613D01*
X7341655Y436581D01*
X7359994Y454920D01*
X7372961Y477381D01*
X7379674Y502432D01*
Y528368D01*
X7372961Y553420D01*
X7359994Y575880D01*
X7342605Y593269D01*
Y593711D01*
X7340649Y603544D01*
X7335079Y611879D01*
X7326744Y617449D01*
X7316911Y619405D01*
D02*
G37*
G36*
X2743300Y578900D02*
X2641600D01*
Y439200D01*
X2743300D01*
Y578900D01*
D02*
G37*
G36*
X2616200D02*
X2514500D01*
Y439200D01*
X2616200D01*
Y578900D01*
D02*
G37*
G36*
X6994142Y613900D02*
X6968207D01*
X6943155Y607187D01*
X6920694Y594220D01*
X6902355Y575880D01*
X6889387Y553420D01*
X6882674Y528368D01*
Y502432D01*
X6889387Y477381D01*
X6902355Y454920D01*
X6920694Y436581D01*
X6943155Y423613D01*
X6968207Y416900D01*
X6994142D01*
X7019194Y423613D01*
X7041655Y436581D01*
X7059994Y454920D01*
X7072961Y477381D01*
X7079674Y502432D01*
Y528368D01*
X7072961Y553420D01*
X7059994Y575880D01*
X7041655Y594220D01*
X7019194Y607187D01*
X6994142Y613900D01*
D02*
G37*
G36*
X8733068Y608400D02*
X8707132D01*
X8682080Y601687D01*
X8659619Y588720D01*
X8641280Y570381D01*
X8628313Y547920D01*
X8621600Y522868D01*
Y496932D01*
X8628313Y471881D01*
X8641280Y449420D01*
X8659619Y431081D01*
X8682080Y418113D01*
X8707132Y411400D01*
X8733068D01*
X8758119Y418113D01*
X8780580Y431081D01*
X8798919Y449420D01*
X8811887Y471881D01*
X8818600Y496932D01*
Y522868D01*
X8811887Y547920D01*
X8798919Y570381D01*
X8780580Y588720D01*
X8758119Y601687D01*
X8733068Y608400D01*
D02*
G37*
G36*
X8433068D02*
X8407132D01*
X8382081Y601687D01*
X8359620Y588720D01*
X8341280Y570381D01*
X8328313Y547920D01*
X8321600Y522868D01*
Y496932D01*
X8328313Y471881D01*
X8341280Y449420D01*
X8359620Y431081D01*
X8382081Y418113D01*
X8407132Y411400D01*
X8433068D01*
X8458119Y418113D01*
X8480580Y431081D01*
X8498920Y449420D01*
X8511887Y471881D01*
X8518600Y496932D01*
Y522868D01*
X8511887Y547920D01*
X8498920Y570381D01*
X8480580Y588720D01*
X8458119Y601687D01*
X8433068Y608400D01*
D02*
G37*
G36*
X5973200Y903500D02*
X5772800D01*
Y328100D01*
X5973200D01*
Y903500D01*
D02*
G37*
G36*
X1010700Y901000D02*
X810300D01*
Y325600D01*
X1010700D01*
Y901000D01*
D02*
G37*
G36*
X3225800Y567247D02*
X3048000D01*
X3045473Y566200D01*
X3035200D01*
Y555786D01*
X3034254Y553500D01*
Y299500D01*
X3035200Y297215D01*
Y286800D01*
X3045473D01*
X3048000Y285754D01*
X3225800D01*
X3228327Y286800D01*
X3238600D01*
Y297215D01*
X3239546Y299500D01*
Y553500D01*
X3238600Y555786D01*
Y566200D01*
X3228327D01*
X3225800Y567247D01*
D02*
G37*
G36*
X2971800D02*
X2794000D01*
X2791473Y566200D01*
X2781200D01*
Y555786D01*
X2780254Y553500D01*
Y299500D01*
X2781200Y297215D01*
Y286800D01*
X2791473D01*
X2794000Y285754D01*
X2971800D01*
X2974327Y286800D01*
X2984600D01*
Y297215D01*
X2985546Y299500D01*
Y553500D01*
X2984600Y555786D01*
Y566200D01*
X2974327D01*
X2971800Y567247D01*
D02*
G37*
G36*
X1213093Y595240D02*
X1182707D01*
X1153357Y587376D01*
X1127043Y572183D01*
X1105557Y550697D01*
X1090365Y524383D01*
X1082500Y495033D01*
Y464647D01*
X1090365Y435297D01*
X1105557Y408983D01*
X1127043Y387497D01*
X1153357Y372305D01*
X1182707Y364440D01*
X1213093D01*
X1242443Y372305D01*
X1268757Y387497D01*
X1290243Y408983D01*
X1292986Y413734D01*
X1305253Y410447D01*
Y299500D01*
X1307100Y295041D01*
Y286800D01*
X1316473D01*
X1319000Y285754D01*
X1447800D01*
X1450327Y286800D01*
X1461500D01*
Y299388D01*
X1461546Y299500D01*
Y553500D01*
X1461500Y553612D01*
Y566200D01*
X1450327D01*
X1447800Y567247D01*
X1319000D01*
X1316473Y566200D01*
X1307100D01*
Y557959D01*
X1305253Y553500D01*
Y549233D01*
X1292986Y545946D01*
X1290243Y550697D01*
X1268757Y572183D01*
X1242443Y587376D01*
X1213093Y595240D01*
D02*
G37*
G36*
X2743300Y413800D02*
X2641600D01*
Y274100D01*
X2743300D01*
Y413800D01*
D02*
G37*
G36*
X2616200D02*
X2514500D01*
Y274100D01*
X2616200D01*
Y413800D01*
D02*
G37*
G36*
X9525185Y720000D02*
X9474815D01*
X9425066Y712120D01*
X9377163Y696556D01*
X9332284Y673689D01*
X9291534Y644082D01*
X9255918Y608466D01*
X9226311Y567716D01*
X9203444Y522837D01*
X9187880Y474934D01*
X9180000Y425185D01*
Y374815D01*
X9187880Y325066D01*
X9203444Y277163D01*
X9226311Y232284D01*
X9255918Y191534D01*
X9291534Y155918D01*
X9332284Y126311D01*
X9377163Y103444D01*
X9425066Y87879D01*
X9474815Y80000D01*
X9525185D01*
X9574934Y87879D01*
X9622837Y103444D01*
X9667717Y126311D01*
X9708466Y155918D01*
X9744082Y191534D01*
X9773689Y232284D01*
X9796556Y277163D01*
X9812121Y325066D01*
X9820000Y374815D01*
Y425185D01*
X9812121Y474934D01*
X9796556Y522837D01*
X9773689Y567716D01*
X9744082Y608466D01*
X9708466Y644082D01*
X9667717Y673689D01*
X9622837Y696556D01*
X9574934Y712120D01*
X9525185Y720000D01*
D02*
G37*
G36*
X425185D02*
X374815D01*
X325066Y712120D01*
X277163Y696556D01*
X232284Y673689D01*
X191534Y644082D01*
X155918Y608466D01*
X126311Y567716D01*
X103444Y522837D01*
X87879Y474934D01*
X80000Y425185D01*
Y374815D01*
X87879Y325066D01*
X103444Y277163D01*
X126311Y232284D01*
X155918Y191534D01*
X191534Y155918D01*
X232284Y126311D01*
X277163Y103444D01*
X325066Y87879D01*
X374815Y80000D01*
X425185D01*
X474934Y87879D01*
X522837Y103444D01*
X567716Y126311D01*
X608466Y155918D01*
X644082Y191534D01*
X673689Y232284D01*
X696556Y277163D01*
X712120Y325066D01*
X720000Y374815D01*
Y425185D01*
X712120Y474934D01*
X696556Y522837D01*
X673689Y567716D01*
X644082Y608466D01*
X608466Y644082D01*
X567716Y673689D01*
X522837Y696556D01*
X474934Y712120D01*
X425185Y720000D01*
D02*
G37*
%LPD*%
G36*
X2624102Y2906371D02*
Y1690000D01*
X2626074Y1680090D01*
X2631688Y1671688D01*
X3723429Y579947D01*
X3718168Y567247D01*
X3578778D01*
X2595898Y1550127D01*
Y2885794D01*
X2606030Y2895926D01*
X2611402Y2908897D01*
X2624102Y2906371D01*
D02*
G37*
G36*
X2707806Y3021793D02*
Y1841500D01*
X2709762Y1831667D01*
X2715332Y1823332D01*
X3806832Y731832D01*
X3815167Y726262D01*
X3825000Y724306D01*
X4799357D01*
X4889206Y634457D01*
Y567247D01*
X4826000D01*
X4823473Y566200D01*
X4813200D01*
Y555786D01*
X4812254Y553500D01*
Y299500D01*
X4812315Y299351D01*
X4807201Y286730D01*
X4800562Y286651D01*
X4775238D01*
X4768599Y286730D01*
X4763485Y299351D01*
X4763546Y299500D01*
Y553500D01*
X4762600Y555786D01*
Y566200D01*
X4752327D01*
X4749800Y567247D01*
X4572000D01*
X4569473Y566200D01*
X4559200D01*
Y555786D01*
X4558254Y553500D01*
Y299500D01*
X4558315Y299351D01*
X4553201Y286730D01*
X4546562Y286651D01*
X4521238D01*
X4514599Y286730D01*
X4509485Y299351D01*
X4509546Y299500D01*
Y553500D01*
X4508600Y555786D01*
Y566200D01*
X4498327D01*
X4495800Y567247D01*
X4318000D01*
X4315473Y566200D01*
X4305200D01*
Y555786D01*
X4304254Y553500D01*
Y299500D01*
X4304315Y299351D01*
X4299201Y286730D01*
X4292562Y286651D01*
X4267238D01*
X4260599Y286730D01*
X4255485Y299351D01*
X4255546Y299500D01*
Y553500D01*
X4254600Y555786D01*
Y566200D01*
X4244327D01*
X4241800Y567247D01*
X4064000D01*
X4061473Y566200D01*
X4051200D01*
Y555786D01*
X4050254Y553500D01*
Y299500D01*
X4041342Y291731D01*
X4033438Y290587D01*
X4001546Y322478D01*
Y553500D01*
X4000600Y555786D01*
Y566200D01*
X3990327D01*
X3987800Y567247D01*
X3810000D01*
X3809561Y567064D01*
X2675898Y1700727D01*
Y3002406D01*
X2679674Y3003970D01*
X2691630Y3015926D01*
X2695106Y3024320D01*
X2707806Y3021793D01*
D02*
G37*
G36*
X5101400Y2770200D02*
Y2570200D01*
X5026400Y2495200D01*
X4851400D01*
Y1945200D01*
X5026400Y1945200D01*
X5101400Y1870200D01*
Y1645200D01*
X4326400D01*
Y1945200D01*
X4526400Y2145200D01*
Y2320200D01*
X4301400Y2545200D01*
Y2795200D01*
X4326400Y2820200D01*
X5051400D01*
X5101400Y2770200D01*
D02*
G37*
G36*
X3700000Y2550000D02*
X3500000Y2350000D01*
Y2175000D01*
X3725000Y1950000D01*
Y1700000D01*
X3700000Y1675000D01*
X2975000D01*
X2925000Y1725000D01*
Y1925000D01*
X3000000Y2000000D01*
X3175000D01*
Y2550000D01*
X3000000Y2550000D01*
X2925000Y2625000D01*
Y2850000D01*
X3700000D01*
Y2550000D01*
D02*
G37*
D10*
X7854241Y2306100D02*
D03*
X7698900D02*
D03*
X7850071Y1836200D02*
D03*
X7694729D02*
D03*
X7862771Y1379000D02*
D03*
X7707429D02*
D03*
D11*
X5397768Y3943957D02*
D03*
X1384300Y3944400D02*
D03*
Y426500D02*
D03*
X5397500D02*
D03*
D12*
X5168339Y3943421D02*
D03*
X4916452Y3944437D02*
D03*
X4661518Y3945453D02*
D03*
X4406900Y3944400D02*
D03*
X4152900D02*
D03*
X3898900D02*
D03*
X3644900D02*
D03*
X3390900D02*
D03*
X3136900D02*
D03*
X2882900D02*
D03*
X2628900D02*
D03*
X2374900Y3946940D02*
D03*
X2120900Y3944400D02*
D03*
X1866900D02*
D03*
X1615440D02*
D03*
X1612900Y426500D02*
D03*
X1866900D02*
D03*
X2120900D02*
D03*
X2374900D02*
D03*
X2628900D02*
D03*
X2882900D02*
D03*
X3136900D02*
D03*
X3390900D02*
D03*
X3644900D02*
D03*
X3898900D02*
D03*
X4152900D02*
D03*
X4406900D02*
D03*
X4660900D02*
D03*
X4914900D02*
D03*
X5168900D02*
D03*
D13*
X910500Y3758300D02*
D03*
X5873000Y3760800D02*
D03*
X910500Y613300D02*
D03*
X5873000Y615800D02*
D03*
D14*
X7432900Y2306100D02*
D03*
X7222900D02*
D03*
X7432900Y1391700D02*
D03*
X7222900D02*
D03*
X7432900Y1836200D02*
D03*
X7222900D02*
D03*
D15*
X1700000Y3630000D02*
X2130500D01*
X2120900D02*
Y3944400D01*
X3822600Y540800D02*
X3898900Y464500D01*
X3799200Y540800D02*
X3822600D01*
X2650000Y1690000D02*
X3799200Y540800D01*
X2650000Y1690000D02*
Y3034400D01*
X3898900Y388500D02*
Y464500D01*
Y388500D02*
X4026646Y260754D01*
X6662782Y2539800D02*
X6664896D01*
X5711020Y3491562D02*
X6662782Y2539800D01*
X6664896D02*
X6674696Y2530000D01*
X6680000D01*
X5711020Y3491562D02*
Y3946661D01*
X7862771Y1379000D02*
Y1836200D01*
Y2050000D01*
X6324625Y2280000D02*
X6960000D01*
X7190000Y2050000D01*
X7862771D01*
X6324625Y2141000D02*
Y2280000D01*
Y2705375D01*
X5740000Y3290000D02*
X6324625Y2705375D01*
X4130000Y3290000D02*
X5740000D01*
X3880000Y3040000D02*
X4130000Y3290000D01*
X3470900Y3449100D02*
X3880000Y3040000D01*
X2311400Y3449100D02*
X3470900D01*
X2130500Y3630000D02*
X2311400Y3449100D01*
X1615440Y3714560D02*
X1700000Y3630000D01*
X1615440Y3714560D02*
Y3944400D01*
X7862771Y2050000D02*
Y2297571D01*
X7854241Y2306100D02*
X7862771Y2297571D01*
X2570000Y1539400D02*
Y2920000D01*
Y1539400D02*
X3644900Y464500D01*
X2650000Y3034400D02*
X2655600Y3040000D01*
X3644900Y388500D02*
Y464500D01*
X2374900Y3946940D02*
Y3982500D01*
X2500513Y4108113D01*
Y4110553D01*
X6087700Y324500D02*
Y794500D01*
X6257700Y964500D01*
Y344500D02*
Y784500D01*
X4026646Y260754D02*
X6023954D01*
X6087700Y324500D01*
X6111100Y197900D02*
X6257700Y344500D01*
X3835500Y197900D02*
X6111100D01*
X2457253Y774053D02*
X2467700Y784500D01*
X2430453Y774053D02*
X2457253D01*
X2120900Y464500D02*
X2430453Y774053D01*
X2500513Y4110553D02*
X5547128D01*
X5711020Y3946661D01*
X2120900Y426500D02*
Y464500D01*
X3644900Y388500D02*
X3835500Y197900D01*
X7840071Y1836200D02*
X7846421Y1829850D01*
Y1385350D02*
X7852771Y1379000D01*
D16*
X4810000Y750000D02*
X4914900Y645100D01*
Y426500D02*
Y645100D01*
X3825000Y750000D02*
X4810000D01*
X2733500Y1841500D02*
X3825000Y750000D01*
X6463225Y2025600D02*
X6578625Y2141000D01*
X6254626Y2025600D02*
X6463225D01*
X6565900Y2395000D02*
X7134000D01*
X7222900Y2306100D01*
X3897593Y1901007D02*
X3977800D01*
X2733500Y1841500D02*
Y3146500D01*
X5473700Y3118900D02*
X5880100Y2712500D01*
X4457700Y3118900D02*
X5473700D01*
X2610000Y3270000D02*
X2733500Y3146500D01*
X2779476Y3730524D02*
Y3755824D01*
X2628900Y3906400D02*
Y3944400D01*
Y3906400D02*
X2779476Y3755824D01*
Y3730524D02*
X2790000Y3720000D01*
X7281174Y551119D02*
X7316911Y586856D01*
X7281174Y515400D02*
Y551119D01*
X7316911Y586856D02*
Y593711D01*
X6869925Y1576725D02*
X6973425D01*
X6257700Y964500D02*
X6869925Y1576725D01*
X6257700Y784500D02*
X6864900Y1391700D01*
X7222900D01*
X5207700Y794500D02*
X5218224Y805024D01*
X5242649D01*
X6324625Y1887000D01*
X3789000Y2009600D02*
Y2450200D01*
X3924300Y2585500D01*
X7432900Y1391700D02*
X7704729D01*
X7432900Y1836200D02*
X7704729D01*
X6973425Y1576725D02*
X7222900Y1826200D01*
Y1836200D01*
X7432900Y2306100D02*
X7708900D01*
X5219700Y934500D02*
X5230224Y945024D01*
Y1001197D01*
X6254626Y2025600D01*
X5357525Y665900D02*
X6578625Y1887000D01*
X2616200Y413800D02*
X2628900Y426500D01*
X2616200Y185200D02*
Y413800D01*
X3789000Y2009600D02*
X3897593Y1901007D01*
D17*
X1612900Y426500D02*
Y604300D01*
X1752600Y744000D01*
X1969100Y665900D02*
X2046600D01*
X1866900Y426500D02*
Y464500D01*
X1874984Y472584D01*
Y571784D01*
X1969100Y665900D01*
D18*
X5398349Y3944526D02*
D03*
Y426626D02*
D03*
D19*
X5168900Y3944400D02*
D03*
X4914900D02*
D03*
X4660900D02*
D03*
X4406900D02*
D03*
X4152900D02*
D03*
X3898900D02*
D03*
X3644900D02*
D03*
X3390900D02*
D03*
X3136900D02*
D03*
X2882900D02*
D03*
X1866900D02*
D03*
X2374900Y426500D02*
D03*
X4152900D02*
D03*
X2882900D02*
D03*
X3136900D02*
D03*
X3390900D02*
D03*
X4406900D02*
D03*
X4660900D02*
D03*
X5168900D02*
D03*
D20*
X2628900Y3944400D02*
D03*
X2374900D02*
D03*
X2120900D02*
D03*
X1612900D02*
D03*
X2120900Y426500D02*
D03*
X3644900D02*
D03*
X3898900D02*
D03*
X1612900D02*
D03*
X1866900D02*
D03*
X2628900D02*
D03*
X4914900D02*
D03*
D21*
X1383400Y3944400D02*
D03*
Y426500D02*
D03*
D22*
X1196340Y3893600D02*
D03*
X1197900Y479840D02*
D03*
X5582920D02*
D03*
Y3893600D02*
D03*
D23*
X9500000Y3900000D02*
D03*
Y400000D02*
D03*
X400000Y3900000D02*
D03*
Y400000D02*
D03*
D24*
X6832625Y2141000D02*
D03*
X6578625D02*
D03*
X6324625D02*
D03*
X6832625Y1887000D02*
D03*
X6578625D02*
D03*
D25*
X6324625D02*
D03*
D26*
X1054100Y1826300D02*
D03*
Y3176300D02*
D03*
D27*
X1654100Y2141300D02*
D03*
D28*
Y2861300D02*
D03*
D29*
X7234200Y3938300D02*
D03*
X8673126Y3931700D02*
D03*
X6681174Y515400D02*
D03*
X8120100Y509900D02*
D03*
D30*
X6934200Y3938300D02*
D03*
X6634200D02*
D03*
X8373126Y3931700D02*
D03*
X8073126D02*
D03*
X6981174Y515400D02*
D03*
X7281174D02*
D03*
X8420100Y509900D02*
D03*
X8720100D02*
D03*
D31*
X6334200Y3742300D02*
D03*
X7534200D02*
D03*
X7773126Y3735700D02*
D03*
X8973126D02*
D03*
X7581174Y711400D02*
D03*
X6381174D02*
D03*
X9020100Y705900D02*
D03*
X7820100D02*
D03*
D32*
X6680000Y2530000D02*
D03*
X5026400Y1710200D02*
D03*
X4951400D02*
D03*
X5026400Y1785200D02*
D03*
X4951400D02*
D03*
X5026400Y1860200D02*
D03*
X4951400D02*
D03*
X4461400Y2590200D02*
D03*
X4386400D02*
D03*
X4461400Y2665200D02*
D03*
X4386400D02*
D03*
X4461400Y2740200D02*
D03*
X4386400D02*
D03*
X4461400Y1725151D02*
D03*
X4386400D02*
D03*
X4461400Y1800151D02*
D03*
X4386400D02*
D03*
X4461400Y1875151D02*
D03*
X4386400D02*
D03*
X4951400Y2175249D02*
D03*
X5026400D02*
D03*
X4951400Y2100249D02*
D03*
X5026400D02*
D03*
X4951400Y2025249D02*
D03*
X5026400D02*
D03*
X4950000Y2445000D02*
D03*
X5025000D02*
D03*
X4950000Y2370000D02*
D03*
X5025000D02*
D03*
X4950000Y2295000D02*
D03*
X5025000D02*
D03*
X4420000Y2175000D02*
D03*
X4345000D02*
D03*
X4420000Y2250000D02*
D03*
X4345000D02*
D03*
X4420000Y2325000D02*
D03*
X4345000D02*
D03*
X4951400Y2575249D02*
D03*
Y2650249D02*
D03*
X5026400Y2575249D02*
D03*
Y2650249D02*
D03*
X4951400Y2725249D02*
D03*
X5026400D02*
D03*
X3977800Y1901007D02*
D03*
X3000000Y1759951D02*
D03*
X3075000D02*
D03*
X3000000Y1834951D02*
D03*
Y1909951D02*
D03*
X3075000Y1834951D02*
D03*
Y1909951D02*
D03*
X3680000Y2165000D02*
D03*
X3605000D02*
D03*
X3680000Y2240000D02*
D03*
X3605000D02*
D03*
X3680000Y2315000D02*
D03*
X3605000D02*
D03*
X3000000Y2195000D02*
D03*
X3075000D02*
D03*
X3000000Y2120000D02*
D03*
X3075000D02*
D03*
X3000000Y2045000D02*
D03*
X3075000D02*
D03*
X3000000Y2459951D02*
D03*
X3075000D02*
D03*
X3000000Y2384951D02*
D03*
X3075000D02*
D03*
X3000000Y2309951D02*
D03*
X3075000D02*
D03*
X3640000Y2610049D02*
D03*
X3565000D02*
D03*
X3640000Y2685049D02*
D03*
X3565000D02*
D03*
X3640000Y2760049D02*
D03*
X3565000D02*
D03*
X3640000Y1745000D02*
D03*
X3565000D02*
D03*
X3640000Y1820000D02*
D03*
X3565000D02*
D03*
X3640000Y1895000D02*
D03*
X3565000D02*
D03*
X3075000Y2625000D02*
D03*
X3000000D02*
D03*
X3075000Y2700000D02*
D03*
X3000000D02*
D03*
X3075000Y2775000D02*
D03*
X3000000D02*
D03*
X3880000Y3040000D02*
D03*
X2570000Y2920000D02*
D03*
X2655600Y3040000D02*
D03*
X2610000Y3270000D02*
D03*
X2790000Y3720000D02*
D03*
X4350000Y1575000D02*
D03*
X5207700Y794500D02*
D03*
X2467700Y784500D02*
D03*
X3851900Y2292600D02*
D03*
Y2192600D02*
D03*
X3959400Y2292600D02*
D03*
Y2192600D02*
D03*
X4067000Y2292600D02*
D03*
Y2192600D02*
D03*
X4174500Y2292600D02*
D03*
Y2192600D02*
D03*
X7023100Y1840900D02*
D03*
X2311400Y3449100D02*
D03*
X2046600Y665900D02*
D03*
X1752600Y744000D02*
D03*
X5219700Y934500D02*
D03*
X5357525Y665900D02*
D03*
X6565900Y2395000D02*
D03*
X5880100Y2712500D02*
D03*
X4457700Y3118900D02*
D03*
X3924300Y2585500D02*
D03*
X2616200Y185200D02*
D03*
%TF.MD5,a16eb790af06fe55c66b847cd91adfd9*%
M02*
