%TF.GenerationSoftware,Altium Limited,Altium Designer,25.4.2 (15)*%
G04 Layer_Color=0*
%FSLAX45Y45*%
%MOMM*%
%TF.SameCoordinates,2A578F6B-C5BA-4798-A6F5-255D53479D73*%
%TF.FilePolarity,Positive*%
%TF.FileFunction,Plated,1,2,PTH,Drill*%
%TF.Part,Single*%
G01*
G75*
%TA.AperFunction,OtherDrill,Free Pad (95mm,39mm)*%
%ADD69C,3.60000*%
%TA.AperFunction,OtherDrill,Free Pad (95mm,4mm)*%
%ADD70C,3.60000*%
%TA.AperFunction,OtherDrill,Free Pad (4mm,39mm)*%
%ADD71C,3.60000*%
%TA.AperFunction,OtherDrill,Free Pad (4mm,4mm)*%
%ADD72C,3.60000*%
%TA.AperFunction,ComponentDrill*%
%ADD73C,1.02000*%
%ADD74R,1.70000X0.60000*%
%ADD75C,2.70000*%
%TA.AperFunction,ViaDrill,NotFilled*%
%ADD76C,0.30000*%
D69*
X9500000Y3900000D02*
D03*
D70*
Y400000D02*
D03*
D71*
X400000Y3900000D02*
D03*
D72*
Y400000D02*
D03*
D73*
X6832625Y2141000D02*
D03*
X6578625D02*
D03*
X6324625D02*
D03*
X6832625Y1887000D02*
D03*
X6578625D02*
D03*
X6324625D02*
D03*
X7234200Y3938300D02*
D03*
X6934200D02*
D03*
X6634200D02*
D03*
X8673126Y3931700D02*
D03*
X8373126D02*
D03*
X8073126D02*
D03*
X6681174Y515400D02*
D03*
X6981174D02*
D03*
X7281174D02*
D03*
X8120100Y509900D02*
D03*
X8420100D02*
D03*
X8720100D02*
D03*
D74*
X1054100Y1826300D02*
D03*
Y3176300D02*
D03*
D75*
X1654100Y2141300D02*
D03*
Y2861300D02*
D03*
D76*
X6680000Y2530000D02*
D03*
X5026400Y1710200D02*
D03*
X4951400D02*
D03*
X5026400Y1785200D02*
D03*
X4951400D02*
D03*
X5026400Y1860200D02*
D03*
X4951400D02*
D03*
X4461400Y2590200D02*
D03*
X4386400D02*
D03*
X4461400Y2665200D02*
D03*
X4386400D02*
D03*
X4461400Y2740200D02*
D03*
X4386400D02*
D03*
X4461400Y1725151D02*
D03*
X4386400D02*
D03*
X4461400Y1800151D02*
D03*
X4386400D02*
D03*
X4461400Y1875151D02*
D03*
X4386400D02*
D03*
X4951400Y2175249D02*
D03*
X5026400D02*
D03*
X4951400Y2100249D02*
D03*
X5026400D02*
D03*
X4951400Y2025249D02*
D03*
X5026400D02*
D03*
X4950000Y2445000D02*
D03*
X5025000D02*
D03*
X4950000Y2370000D02*
D03*
X5025000D02*
D03*
X4950000Y2295000D02*
D03*
X5025000D02*
D03*
X4420000Y2175000D02*
D03*
X4345000D02*
D03*
X4420000Y2250000D02*
D03*
X4345000D02*
D03*
X4420000Y2325000D02*
D03*
X4345000D02*
D03*
X4951400Y2575249D02*
D03*
Y2650249D02*
D03*
X5026400Y2575249D02*
D03*
Y2650249D02*
D03*
X4951400Y2725249D02*
D03*
X5026400D02*
D03*
X3977800Y1901007D02*
D03*
X3000000Y1759951D02*
D03*
X3075000D02*
D03*
X3000000Y1834951D02*
D03*
Y1909951D02*
D03*
X3075000Y1834951D02*
D03*
Y1909951D02*
D03*
X3680000Y2165000D02*
D03*
X3605000D02*
D03*
X3680000Y2240000D02*
D03*
X3605000D02*
D03*
X3680000Y2315000D02*
D03*
X3605000D02*
D03*
X3000000Y2195000D02*
D03*
X3075000D02*
D03*
X3000000Y2120000D02*
D03*
X3075000D02*
D03*
X3000000Y2045000D02*
D03*
X3075000D02*
D03*
X3000000Y2459951D02*
D03*
X3075000D02*
D03*
X3000000Y2384951D02*
D03*
X3075000D02*
D03*
X3000000Y2309951D02*
D03*
X3075000D02*
D03*
X3640000Y2610049D02*
D03*
X3565000D02*
D03*
X3640000Y2685049D02*
D03*
X3565000D02*
D03*
X3640000Y2760049D02*
D03*
X3565000D02*
D03*
X3640000Y1745000D02*
D03*
X3565000D02*
D03*
X3640000Y1820000D02*
D03*
X3565000D02*
D03*
X3640000Y1895000D02*
D03*
X3565000D02*
D03*
X3075000Y2625000D02*
D03*
X3000000D02*
D03*
X3075000Y2700000D02*
D03*
X3000000D02*
D03*
X3075000Y2775000D02*
D03*
X3000000D02*
D03*
X3880000Y3040000D02*
D03*
X2570000Y2920000D02*
D03*
X2655600Y3040000D02*
D03*
X2610000Y3270000D02*
D03*
X2790000Y3720000D02*
D03*
X4350000Y1575000D02*
D03*
X5207700Y794500D02*
D03*
X2467700Y784500D02*
D03*
X3851900Y2292600D02*
D03*
Y2192600D02*
D03*
X3959400Y2292600D02*
D03*
Y2192600D02*
D03*
X4067000Y2292600D02*
D03*
Y2192600D02*
D03*
X4174500Y2292600D02*
D03*
Y2192600D02*
D03*
X7023100Y1840900D02*
D03*
X2311400Y3449100D02*
D03*
X2046600Y665900D02*
D03*
X1752600Y744000D02*
D03*
X5219700Y934500D02*
D03*
X5357525Y665900D02*
D03*
X6565900Y2395000D02*
D03*
X5880100Y2712500D02*
D03*
X4457700Y3118900D02*
D03*
X3924300Y2585500D02*
D03*
X2616200Y185200D02*
D03*
%TF.MD5,bb6c8f5ab7cae7386af851d8b252b757*%
M02*
