<?xml version="1.0" encoding="UTF-8" standalone="no"?>
<svg
   version="1.0"
   width="159.99883mm"
   height="159.99883mm"
   id="svg1"
   sodipodi:docname="s94aJctqVZM7lz2.wmf"
   xmlns:inkscape="http://www.inkscape.org/namespaces/inkscape"
   xmlns:sodipodi="http://sodipodi.sourceforge.net/DTD/sodipodi-0.dtd"
   xmlns="http://www.w3.org/2000/svg"
   xmlns:svg="http://www.w3.org/2000/svg">
  <sodipodi:namedview
     id="namedview1"
     pagecolor="#ffffff"
     bordercolor="#000000"
     borderopacity="0.25"
     inkscape:showpageshadow="2"
     inkscape:pageopacity="0.0"
     inkscape:pagecheckerboard="0"
     inkscape:deskcolor="#d1d1d1"
     inkscape:document-units="mm" />
  <defs
     id="defs1">
    <pattern
       id="WMFhbasepattern"
       patternUnits="userSpaceOnUse"
       width="6"
       height="6"
       x="0"
       y="0" />
  </defs>
  <path
     style="fill:#000000;fill-rule:nonzero;fill-opacity:1;stroke:none;"
     d="  M 322.8,57.68   L 324.72,57.68   L 328.48,58.32   L 332.08,59.44   L 335.52,61.04   L 337.04,62   L 404.88,62   L 409.92,62   L 420.48,61.92   L 425.04,62.4   L 426.96,62.64   L 430.72,63.68   L 434.24,65.28   L 437.44,67.44   L 438.88,68.8   L 438.64,68.64   L 442.96,72.96   L 442.96,72.96   L 461.44,91.44   L 463.76,92.24   L 468,94.32   L 471.92,97.04   L 475.36,100.32   L 478.32,104   L 480.72,108.08   L 482.56,112.48   L 483.68,117.2   L 483.92,119.68   L 483.92,119.68   L 484.08,120.88   L 484.16,122.16   L 484.16,122.16   L 484.16,122.16   L 484.16,122.64   L 484.16,122.64   L 484.16,123.12   L 484.16,123.68   L 484.16,132.32   L 484.16,133.68   L 483.76,136.24   L 482.56,140   L 479.76,144.32   L 476.88,147.04   L 474.72,148.48   L 473.52,149.04   L 471.76,152.88   L 467.44,160.16   L 464.88,163.52   L 466.08,165.68   L 467.36,170.48   L 467.52,172.96   L 467.44,175.2   L 466.88,179.6   L 465.84,183.92   L 464.24,188.16   L 463.2,190.16   L 464.8,189.76   L 468.16,189.36   L 469.84,189.28   L 469.92,189.28   L 473.92,189.28   L 478,189.28   L 478,189.28   L 481.28,189.36   L 486.8,190.24   L 490.64,191.28   L 494.64,192.8   L 498.64,194.88   L 502.64,197.6   L 506.48,200.96   L 508.4,202.96   L 509.36,204.08   L 511.04,206.72   L 512.24,209.52   L 512.96,212.4   L 513.2,215.36   L 512.96,218.32   L 512.24,221.28   L 510.96,224.08   L 510.16,225.44   L 511.36,227.28   L 513.52,231.04   L 515.28,235.04   L 516.64,239.12   L 517.6,243.28   L 518.08,247.6   L 518.24,251.92   L 517.84,256.24   L 517.44,258.32   L 517.92,259.92   L 518.24,263.2   L 518.16,264.8   L 517.92,267.92   L 517.2,273.76   L 516.56,276.8   L 515.6,280   L 512.4,286.32   L 510.48,288.88   L 510.48,288.96   L 510.4,288.96   L 507.84,292.16   L 504.8,295.84   L 504.8,295.84   L 502.72,298.08   L 498,301.68   L 495.36,303.12   L 497.12,304.48   L 499.92,307.76   L 501.84,311.6   L 502.88,315.76   L 502.96,318   L 502.96,318   L 502.88,320.16   L 501.84,324.4   L 500.88,326.4   L 502.64,328   L 505.68,331.6   L 506.96,333.6   L 507.04,333.68   L 509.04,337.12   L 511.12,340.64   L 511.12,340.64   L 512.64,343.52   L 514.64,348.72   L 515.68,352.64   L 516.32,356.8   L 516.56,361.36   L 516.16,366.16   L 515.2,371.2   L 514.4,373.76   L 513.92,375.28   L 512.48,378   L 510.72,380.4   L 508.56,382.48   L 506.08,384.16   L 503.36,385.44   L 500.48,386.32   L 497.44,386.64   L 495.84,386.64   L 494.88,388.56   L 492.64,392.32   L 490.08,395.76   L 487.2,399.04   L 484.08,401.92   L 480.64,404.56   L 476.96,406.8   L 473.04,408.64   L 470.96,409.36   L 469.84,410.48   L 467.2,412.48   L 465.76,413.2   L 462.88,414.56   L 457.52,416.88   L 454.56,417.84   L 452.08,418.4   L 446.72,418.8   L 444.08,418.72   L 446.16,422.96   L 449.36,431.76   L 450.48,436.4   L 452.4,436.4   L 454.8,436.48   L 459.52,437.52   L 464.08,439.52   L 468.08,442.32   L 469.76,444   L 471.2,445.84   L 473.44,449.6   L 474.88,453.52   L 475.52,457.52   L 475.6,459.44   L 475.6,477.36   L 475.52,479.36   L 474.88,483.36   L 473.44,487.28   L 471.2,491.04   L 469.76,492.88   L 468.08,494.56   L 464.08,497.36   L 459.52,499.36   L 454.8,500.4   L 452.4,500.48   L 451.2,500.48   L 449.76,500.48   L 448.4,504.64   L 444.64,512.56   L 439.68,519.84   L 433.68,526.32   L 426.72,531.84   L 420.88,535.28   L 416.8,537.12   L 412.48,538.72   L 407.92,539.92   L 403.2,540.72   L 398.4,541.12   L 395.84,541.2   L 374.72,541.2   L 367.44,541.12   L 353.92,540   L 341.52,537.84   L 330.32,535.04   L 325.28,533.44   L 315.92,542.72   L 314.64,544   L 311.6,546   L 308.24,547.36   L 304.72,548.08   L 302.88,548.16   L 291.52,548.16   L 290.24,549.12   L 287.44,550.8   L 284.4,551.92   L 281.2,552.48   L 279.52,552.56   L 261.68,552.56   L 259.76,552.48   L 256.16,551.76   L 252.88,550.32   L 249.92,548.32   L 247.36,545.84   L 245.36,542.88   L 244,539.52   L 243.28,535.92   L 243.2,534   L 243.2,532.96   L 241.2,532.4   L 239.36,531.44   L 213.68,517.92   L 181.44,501.68   L 178.48,501.52   L 172.96,500.16   L 170.32,498.96   L 167.76,500.32   L 162.4,501.68   L 159.76,501.76   L 157.92,501.68   L 154.16,501.12   L 150.4,499.76   L 146.88,497.6   L 145.2,496.16   L 143.92,494.96   L 141.84,492.24   L 140.24,489.12   L 139.04,485.84   L 138.64,484.08   L 138.32,484.16   L 137.92,484.16   L 135.28,484.08   L 130.24,483.04   L 125.6,481.04   L 121.44,478.24   L 117.92,474.64   L 115.04,470.48   L 113.04,465.84   L 112,460.8   L 111.92,458.16   L 111.92,458.16   L 112,456.16   L 112.56,452.32   L 113.76,448.64   L 115.36,445.2   L 116.4,443.6   L 116.4,440.48   L 116.48,438.88   L 116.96,435.76   L 118,432.88   L 119.6,430.08   L 120.56,428.88   L 118.88,428.24   L 115.68,426.56   L 112.88,424.48   L 110.4,421.92   L 108.32,419.12   L 106.64,416   L 105.52,412.56   L 104.88,409.04   L 104.8,407.2   L 104.8,353.2   L 104.88,350.88   L 105.84,346.4   L 107.68,342.24   L 110.16,338.56   L 113.36,335.44   L 117.04,332.88   L 121.2,331.12   L 125.68,330.24   L 128,330.16   L 140.64,330.16   L 142.08,327.52   L 143.68,324.88   L 141.92,324.08   L 138.72,322.16   L 135.84,319.76   L 133.36,316.96   L 131.28,313.84   L 129.6,310.48   L 128.48,306.8   L 127.84,302.96   L 127.84,301.04   L 127.84,301.04   L 127.92,298   L 128.56,295.12   L 127.28,294.48   L 124.72,292.8   L 123.44,291.76   L 121.84,290.24   L 119.2,286.4   L 117.36,282   L 116.48,277.52   L 116.4,275.36   L 116.4,275.76   L 116.4,264   L 116.48,262.4   L 116.96,259.36   L 118,256.4   L 119.52,253.68   L 120.48,252.4   L 118.8,251.76   L 115.68,250.08   L 112.88,248   L 110.4,245.52   L 108.24,242.64   L 106.64,239.52   L 105.52,236.16   L 104.88,232.56   L 104.8,230.72   L 104.72,176.96   L 104.72,174.64   L 105.68,170.08   L 107.44,165.92   L 110,162.16   L 113.2,158.96   L 116.96,156.48   L 121.12,154.72   L 125.68,153.76   L 128.08,153.76   L 127.92,153.76   L 128.08,153.76   L 128.08,153.76   L 128.08,153.76   L 128.16,153.76   L 128.16,153.76   L 140.64,153.76   L 143.04,149.36   L 148.64,141.2   L 155.36,133.84   L 162.88,127.44   L 171.2,122.08   L 180.24,117.84   L 189.84,114.88   L 200,113.12   L 205.28,112.88   L 206.32,112.72   L 207.36,112.72   L 208.16,112.72   L 206.32,110.64   L 203.12,105.92   L 200.88,100.72   L 199.76,95.04   L 199.68,92.08   L 199.76,89.04   L 200.96,83.28   L 203.28,77.92   L 206.48,73.2   L 210.56,69.12   L 215.28,65.84   L 220.64,63.6   L 226.4,62.4   L 229.44,62.24   L 229.44,62.24   L 231.68,62.32   L 236,63.04   L 240.08,64.4   L 243.92,66.24   L 245.76,67.44   L 302.72,67.44   L 304.56,65.28   L 309.04,61.68   L 314.16,59.12   L 319.76,57.76   L 322.72,57.68   L 322.8,57.68  z    M 322.8,76.16   L 321.2,76.32   L 318.56,77.44   L 316.48,79.44   L 315.36,82.16   L 315.28,83.68   L 315.36,85.2   L 316.48,87.92   L 318.56,90   L 321.2,91.12   L 322.8,91.2   L 323.92,91.12   L 326,90.48   L 327.84,89.28   L 329.2,87.6   L 329.68,86.56   L 402.4,86.56   L 433.52,117.76   L 377.44,117.76   L 377.36,115.28   L 376.56,110.8   L 375.12,106.96   L 372.96,103.68   L 370.24,100.96   L 366.96,98.88   L 363.28,97.52   L 359.12,96.8   L 356.88,96.72   L 335.12,96.72   L 331.6,96.8   L 324.8,97.92   L 318.24,100.16   L 312.16,103.36   L 309.28,105.36   L 289.92,85.92   L 238.88,85.92   L 238.08,84.8   L 236,82.88   L 233.52,81.52   L 230.88,80.88   L 229.44,80.8   L 228.24,80.8   L 226.08,81.28   L 224.08,82.16   L 222.24,83.36   L 220.72,84.88   L 219.52,86.64   L 218.64,88.72   L 218.16,90.88   L 218.16,92.08   L 218.16,93.2   L 218.64,95.44   L 219.52,97.44   L 220.72,99.2   L 222.24,100.72   L 224.08,102   L 226.08,102.8   L 228.24,103.28   L 229.44,103.28   L 230.88,103.28   L 233.6,102.56   L 236.08,101.2   L 238.08,99.2   L 238.96,98.08   L 284.88,98.08   L 300.72,113.84   L 300.72,113.92   L 300.64,114   L 264,114   L 264,114   L 264,114.08   L 264.08,117.76   L 264.8,125.12   L 266.32,132.16   L 268.4,139.04   L 271.2,145.52   L 274.48,151.76   L 278.4,157.52   L 282.8,162.96   L 287.68,167.92   L 292.96,172.48   L 298.72,176.48   L 304.88,179.92   L 311.36,182.8   L 318.08,185.04   L 325.2,186.64   L 332.48,187.6   L 336.16,187.76   L 336.32,187.84   L 435.68,187.84   L 437.04,187.76   L 439.68,187.28   L 442.08,186.32   L 444.24,184.96   L 446,183.04   L 447.44,180.72   L 448.4,178   L 448.96,174.72   L 448.96,172.96   L 441.92,172.96   L 441.12,170.88   L 439.36,166.8   L 437.2,162.88   L 434.72,159.2   L 433.36,157.44   L 432.96,161.44   L 431.12,169.28   L 429.68,172.96   L 419.52,172.96   L 418,169.28   L 414.08,162.4   L 411.6,159.2   L 411.28,162.72   L 409.76,169.6   L 408.64,172.96   L 403.36,172.96   L 400.64,170.08   L 395.2,164.72   L 389.6,160.08   L 383.84,156.08   L 377.84,152.8   L 371.52,150.32   L 364.64,148.56   L 357.28,147.6   L 353.36,147.44   L 355.28,143.84   L 358,136.24   L 358.88,132.32   L 396.48,132.32   L 397.52,134.48   L 399.2,138.88   L 400.4,143.52   L 401.2,148.24   L 401.36,150.64   L 403.04,148.56   L 405.84,144.24   L 408.16,139.6   L 410.08,134.8   L 410.8,132.32   L 420.08,132.32   L 421.2,134.64   L 423.12,139.36   L 424.56,144.32   L 425.44,149.44   L 425.68,152   L 427.44,149.84   L 430.4,145.12   L 432.88,140.16   L 434.72,134.96   L 435.44,132.32   L 443.6,132.32   L 444.88,134.72   L 447.04,139.68   L 448.56,144.88   L 449.52,150.16   L 449.76,152.88   L 451.52,150.64   L 454.64,145.76   L 457.12,140.56   L 459.04,135.12   L 459.68,132.32   L 465.68,132.32   L 465.68,123.68   L 465.68,123.12   L 465.68,122.64   L 465.68,122.16   L 465.68,122.16   L 465.6,120.72   L 465.04,118.08   L 464.08,115.6   L 462.56,113.44   L 460.72,111.52   L 458.64,110.08   L 456.16,108.96   L 453.52,108.4   L 452.16,108.32   L 429.92,86.08   L 425.6,81.76   L 425.12,81.36   L 424.08,80.88   L 423.52,80.8   L 422.48,80.88   L 421.04,81.92   L 420.32,83.52   L 420.64,85.28   L 421.28,86   L 425.6,90.32   L 445.2,109.92   L 443.52,110.96   L 440.8,113.68   L 439.68,115.36   L 404.88,80.56   L 329.6,80.56   L 329.04,79.6   L 327.68,78   L 325.92,76.88   L 323.84,76.24   L 322.8,76.16  z    M 229.44,86.4   L 230.56,86.48   L 232.56,87.36   L 234.08,88.88   L 234.96,90.88   L 235.04,92.08   L 234.96,93.2   L 234.08,95.2   L 232.56,96.72   L 230.56,97.6   L 229.44,97.68   L 228.24,97.6   L 226.24,96.72   L 224.72,95.2   L 223.92,93.2   L 223.84,92.08   L 223.92,90.88   L 224.72,88.88   L 226.24,87.36   L 228.24,86.48  z    M 359.12,105.04   L 360.16,105.12   L 362.08,105.52   L 364.72,106.72   L 367.44,109.36   L 368.64,112   L 369.04,113.92   L 369.04,114.96   L 369.04,116   L 368.64,117.92   L 367.44,120.56   L 364.72,123.2   L 362.08,124.4   L 360.16,124.8   L 359.12,124.88   L 358.16,124.8   L 356.24,124.4   L 353.6,123.2   L 350.88,120.56   L 349.68,117.92   L 349.28,116   L 349.28,114.96   L 349.28,113.92   L 349.68,112   L 350.88,109.36   L 353.6,106.72   L 356.24,105.52   L 358.16,105.12  z    M 452.24,115.36   L 453.44,115.44   L 455.44,116.24   L 456.96,117.76   L 457.84,119.76   L 457.92,120.96   L 457.84,122.08   L 456.96,124.08   L 455.44,125.6   L 453.44,126.48   L 452.24,126.56   L 451.12,126.48   L 449.12,125.6   L 447.6,124.08   L 446.72,122.08   L 446.64,120.96   L 446.72,119.76   L 447.6,117.76   L 449.12,116.24   L 451.12,115.44  z    M 256.08,131.28   L 207.36,131.28   L 207.36,131.28   L 204.88,131.36   L 200.16,131.76   L 195.6,132.48   L 191.04,133.68   L 184.64,136   L 176.64,140.24   L 169.52,145.76   L 163.36,152.24   L 158.24,159.68   L 154.32,167.84   L 152.96,172.24   L 127.92,172.24   L 127.84,172.24   L 127.84,172.24   L 126.72,172.32   L 124.96,173.04   L 123.84,174.32   L 123.28,175.92   L 123.28,177.68   L 123.84,179.28   L 125.04,180.56   L 126.8,181.28   L 127.92,181.28   L 151.12,181.28   L 150.8,184.56   L 150.72,187.92   L 150.8,188.56   L 150.8,189.2   L 150.8,190.4   L 127.92,190.4   L 126.8,190.48   L 125.12,191.2   L 124,192.48   L 123.44,194.08   L 123.44,195.76   L 124,197.36   L 125.12,198.64   L 126.8,199.36   L 127.92,199.44   L 150.8,199.44   L 150.8,208.32   L 127.92,208.32   L 126.8,208.4   L 125.12,209.12   L 124,210.4   L 123.44,212   L 123.44,213.68   L 124,215.28   L 125.12,216.56   L 126.8,217.28   L 127.92,217.36   L 150.8,217.36   L 150.8,218.32   L 150.8,218.88   L 150.72,219.44   L 150.8,222.88   L 151.2,226.24   L 127.92,226.24   L 126.8,226.24   L 125.12,227.04   L 124,228.32   L 123.44,229.92   L 123.44,231.6   L 124,233.2   L 125.12,234.48   L 126.8,235.2   L 127.92,235.28   L 153.04,235.28   L 154.32,239.2   L 155.92,242.96   L 134.96,264   L 134.96,275.76   L 134.96,276.48   L 135.44,277.6   L 136.32,278.4   L 137.36,278.8   L 138.56,278.8   L 139.6,278.4   L 140.48,277.6   L 140.96,276.48   L 140.96,275.76   L 140.96,266.48   L 158.88,248.56   L 160.16,250.64   L 162.96,254.48   L 164.48,256.32   L 150.88,270   L 150.88,294.16   L 149.84,294.64   L 148.16,296   L 147.04,297.84   L 146.4,299.92   L 146.32,301.04   L 146.4,302.56   L 147.6,305.28   L 149.6,307.28   L 152.32,308.4   L 153.84,308.56   L 155.36,308.4   L 158.08,307.28   L 160.08,305.28   L 161.28,302.56   L 161.36,301.04   L 161.28,299.92   L 160.64,297.84   L 159.52,296.08   L 157.84,294.64   L 156.88,294.16   L 156.88,272.48   L 168.64,260.72   L 170.56,262.48   L 174.72,265.68   L 179.12,268.48   L 183.76,270.88   L 188.64,272.88   L 193.76,274.4   L 199.04,275.44   L 204.56,275.92   L 207.36,276   L 207.36,276   L 207.36,276   L 315.84,276   L 301.12,261.2   L 230.56,261.2   L 229.92,262.4   L 228.16,264.4   L 225.92,265.84   L 223.36,266.64   L 221.92,266.72   L 220.96,266.64   L 219.12,266.32   L 216.64,265.12   L 214,262.56   L 212.88,260   L 212.48,258.16   L 212.48,257.2   L 212.48,256.24   L 212.88,254.32   L 214,251.84   L 216.64,249.28   L 219.12,248.08   L 220.96,247.68   L 221.92,247.68   L 223.28,247.76   L 225.76,248.48   L 228,249.84   L 229.76,251.76   L 230.4,252.88   L 304.56,252.88   L 327.52,276   L 340.4,276   L 324.72,260.32   L 324.24,259.76   L 323.6,258.64   L 323.36,256.88   L 324.32,254.64   L 325.76,253.52   L 327.04,253.2   L 327.68,253.2   L 328.48,253.2   L 330,253.84   L 330.56,254.4   L 352.16,276   L 377.12,276   L 377.12,307.68   L 362,307.68   L 362,307.68   L 362,307.6   L 361.92,306.24   L 361.44,303.68   L 360.4,301.36   L 359.04,299.28   L 357.2,297.52   L 355.12,296.08   L 352.8,295.12   L 350.24,294.56   L 348.88,294.56   L 347.52,294.56   L 345.04,295.12   L 342.64,296.08   L 340.56,297.52   L 338.8,299.28   L 337.36,301.36   L 336.4,303.68   L 335.84,306.24   L 335.84,307.6   L 335.84,307.68   L 335.84,307.68   L 320.64,307.68   L 320.64,307.68   L 320.64,307.6   L 320.64,306.24   L 320.08,303.68   L 319.12,301.36   L 317.68,299.28   L 315.92,297.52   L 313.84,296.08   L 311.52,295.12   L 308.96,294.56   L 307.6,294.56   L 306.24,294.56   L 303.68,295.12   L 301.36,296.08   L 299.28,297.52   L 297.44,299.28   L 296.08,301.36   L 295.04,303.68   L 294.56,306.24   L 294.48,307.6   L 294.48,307.68   L 294.48,307.68   L 279.36,307.68   L 279.36,307.68   L 279.36,307.6   L 279.28,306.24   L 278.8,303.68   L 277.76,301.36   L 276.4,299.28   L 274.64,297.52   L 272.48,296.08   L 270.16,295.12   L 267.6,294.56   L 266.24,294.56   L 264.96,294.56   L 262.4,295.12   L 260,296.08   L 257.92,297.52   L 256.16,299.28   L 254.72,301.36   L 253.76,303.68   L 253.2,306.24   L 253.2,307.6   L 253.2,307.68   L 253.2,307.68   L 238,307.68   L 238,307.68   L 238,307.6   L 238,306.24   L 237.44,303.68   L 236.48,301.36   L 235.04,299.28   L 233.28,297.52   L 231.2,296.08   L 228.88,295.12   L 226.32,294.56   L 224.96,294.56   L 223.6,294.56   L 221.04,295.12   L 218.72,296.08   L 216.64,297.52   L 214.8,299.28   L 213.44,301.36   L 212.4,303.68   L 211.92,306.24   L 211.84,307.6   L 211.84,307.68   L 211.84,307.68   L 207.36,307.68   L 207.36,307.76   L 207.36,307.76   L 204.88,307.76   L 200.16,308.16   L 195.6,308.96   L 191.04,310.08   L 184.64,312.4   L 176.64,316.72   L 169.52,322.16   L 163.36,328.64   L 158.24,336.08   L 154.32,344.32   L 152.96,348.64   L 127.92,348.64   L 126.8,348.72   L 125.12,349.44   L 124,350.72   L 123.44,352.32   L 123.44,354.08   L 124,355.68   L 125.12,356.96   L 126.8,357.68   L 127.92,357.76   L 151.12,357.76   L 150.8,360.96   L 150.72,364.32   L 150.8,364.96   L 150.8,365.6   L 150.8,366.8   L 127.92,366.8   L 126.8,366.88   L 125.12,367.6   L 124,368.88   L 123.44,370.48   L 123.44,372.16   L 124,373.76   L 125.12,375.04   L 126.8,375.84   L 127.92,375.84   L 150.8,375.84   L 150.8,384.72   L 127.92,384.72   L 127.84,384.72   L 127.84,384.72   L 126.72,384.8   L 124.96,385.52   L 123.84,386.8   L 123.28,388.4   L 123.28,390.16   L 123.84,391.76   L 125.04,393.04   L 126.8,393.76   L 127.92,393.76   L 150.8,393.76   L 150.8,394.88   L 150.8,395.36   L 150.72,395.92   L 150.8,399.36   L 151.2,402.64   L 127.92,402.64   L 126.8,402.72   L 125.12,403.44   L 124,404.72   L 123.44,406.32   L 123.44,408   L 124,409.6   L 125.12,410.88   L 126.8,411.6   L 127.92,411.68   L 152.96,411.68   L 154.24,415.68   L 155.92,419.52   L 134.96,440.48   L 134.96,451.28   L 133.92,451.76   L 132.32,453.2   L 131.12,454.96   L 130.48,457.04   L 130.48,458.16   L 130.56,459.68   L 131.68,462.4   L 133.76,464.4   L 136.4,465.6   L 137.92,465.68   L 139.52,465.6   L 142.16,464.4   L 144.24,462.4   L 145.36,459.68   L 145.44,458.16   L 145.44,457.04   L 144.8,454.96   L 143.6,453.2   L 142,451.76   L 140.96,451.28   L 140.96,442.96   L 158.88,425.12   L 160.16,427.28   L 163.2,431.36   L 164.88,433.36   L 156.72,441.44   L 156.72,480.16   L 156.72,480.88   L 157.2,482.08   L 158.08,482.8   L 159.2,483.2   L 160.32,483.2   L 161.44,482.8   L 162.24,482.08   L 162.72,480.88   L 162.8,480.16   L 162.8,444   L 169.12,437.68   L 171.28,439.6   L 175.92,443.04   L 178.4,444.56   L 178.4,468.72   L 177.44,469.2   L 175.76,470.64   L 174.56,472.4   L 174,474.48   L 173.92,475.6   L 174,477.12   L 175.12,479.84   L 177.2,481.84   L 179.92,483.04   L 181.44,483.12   L 182.96,483.04   L 185.68,481.84   L 187.68,479.84   L 188.8,477.12   L 188.96,475.6   L 188.88,474.48   L 188.24,472.4   L 187.12,470.64   L 185.44,469.28   L 184.48,468.72   L 184.48,447.68   L 187.12,448.8   L 192.64,450.64   L 198.32,451.84   L 204.32,452.48   L 207.36,452.56   L 207.36,452.56   L 207.36,452.48   L 207.36,452.48   L 293.2,452.48   L 318.64,427.04   L 319.28,426.48   L 320.8,425.84   L 321.6,425.76   L 322.32,425.76   L 323.52,426.16   L 324.96,427.28   L 325.84,429.44   L 325.6,431.28   L 325.04,432.4   L 324.56,432.88   L 304.96,452.48   L 317.2,452.48   L 342.64,427.04   L 343.28,426.48   L 344.8,425.84   L 345.6,425.76   L 346.32,425.76   L 347.52,426.16   L 348.96,427.28   L 349.84,429.44   L 349.6,431.28   L 349.04,432.4   L 348.56,432.88   L 328.96,452.48   L 341.68,452.48   L 368.64,425.44   L 385.76,425.44   L 386.48,424.32   L 388.24,422.4   L 390.4,421.04   L 392.96,420.32   L 394.24,420.24   L 395.28,420.32   L 397.12,420.72   L 399.6,421.84   L 402.24,424.4   L 403.36,426.96   L 403.76,428.8   L 403.76,429.76   L 403.76,430.72   L 403.36,432.64   L 402.24,435.12   L 399.6,437.68   L 397.12,438.88   L 395.28,439.28   L 394.24,439.28   L 392.88,439.2   L 390.32,438.48   L 388.08,437.04   L 386.32,435.04   L 385.68,433.76   L 372.08,433.76   L 353.44,452.48   L 377.12,452.48   L 377.12,484.08   L 369.52,484.24   L 355.6,485.44   L 343.36,487.52   L 332.64,490.16   L 327.84,491.68   L 309.6,473.44   L 292.8,473.44   L 292.08,471.92   L 290,469.28   L 287.36,467.44   L 284.16,466.4   L 282.48,466.32   L 281.28,466.4   L 279.12,466.8   L 277.2,467.68   L 275.44,468.88   L 273.92,470.32   L 272.72,472.08   L 271.92,474.08   L 271.44,476.24   L 271.44,477.36   L 271.44,478.48   L 271.92,480.64   L 272.72,482.64   L 273.92,484.4   L 275.44,485.92   L 277.2,487.12   L 279.12,487.92   L 281.28,488.4   L 282.48,488.4   L 284.08,488.32   L 287.12,487.44   L 289.76,485.68   L 291.84,483.28   L 292.56,481.76   L 306.16,481.76   L 319.2,494.8   L 316,496.16   L 313.04,497.44   L 248.08,497.44   L 248.08,487.84   L 222.4,501.6   L 248,515.12   L 248,505.76   L 308.08,505.76   L 310.24,506.88   L 312.64,508.08   L 299.44,521.28   L 279.52,521.28   L 279.52,516.16   L 261.68,516.16   L 261.68,534   L 279.52,534   L 279.52,529.6   L 302.88,529.6   L 320.64,511.84   L 325.68,514   L 337.28,517.84   L 347.28,520.16   L 354.48,521.36   L 362.16,522.24   L 370.32,522.64   L 374.64,522.72   L 395.84,522.64   L 398,522.64   L 402.16,522.16   L 406,521.36   L 409.76,520.16   L 413.2,518.56   L 416.4,516.72   L 420.88,513.36   L 425.76,508   L 429.6,501.76   L 432.24,494.96   L 433.6,487.76   L 433.68,484.08   L 433.68,481.92   L 445.52,481.92   L 452.48,481.92   L 453.6,481.84   L 455.28,481.12   L 456.48,479.84   L 457.04,478.24   L 457.04,476.56   L 456.48,474.96   L 455.28,473.68   L 453.6,472.88   L 452.48,472.88   L 433.68,472.88   L 433.68,464   L 452.48,464   L 453.6,463.92   L 455.28,463.2   L 456.48,461.92   L 457.04,460.32   L 457.04,458.64   L 456.48,457.04   L 455.28,455.76   L 453.6,455.04   L 452.48,454.96   L 433.68,454.96   L 433.68,453.68   L 433.76,453.12   L 433.76,452.56   L 433.68,449.6   L 433.12,443.92   L 432,438.4   L 430.32,433.04   L 428.24,428   L 425.6,423.2   L 422.56,418.64   L 419.04,414.48   L 415.2,410.64   L 411.04,407.2   L 406.56,404.08   L 401.76,401.52   L 396.64,399.36   L 391.36,397.68   L 385.84,396.56   L 380.08,396   L 377.2,395.92   L 377.12,395.92   L 372.72,395.92   L 372.72,395.84   L 372.72,395.84   L 372.64,394.48   L 372.16,391.92   L 371.12,389.6   L 369.76,387.52   L 368,385.68   L 365.84,384.32   L 363.52,383.28   L 360.96,382.8   L 359.6,382.72   L 358.32,382.8   L 355.76,383.28   L 353.36,384.32   L 351.28,385.68   L 349.52,387.52   L 348.08,389.6   L 347.12,391.92   L 346.56,394.48   L 346.56,395.84   L 346.56,395.84   L 346.56,395.92   L 331.36,395.92   L 331.36,395.84   L 331.36,395.84   L 331.36,394.48   L 330.8,391.92   L 329.84,389.6   L 328.4,387.52   L 326.64,385.68   L 324.56,384.32   L 322.24,383.28   L 319.68,382.8   L 318.32,382.72   L 316.96,382.8   L 314.4,383.28   L 312.08,384.32   L 310,385.68   L 308.24,387.52   L 306.8,389.6   L 305.76,391.92   L 305.28,394.48   L 305.2,395.84   L 305.2,395.84   L 305.2,395.92   L 290.08,395.92   L 290.08,395.84   L 290.08,395.84   L 290,394.48   L 289.52,391.92   L 288.48,389.6   L 287.12,387.52   L 285.36,385.68   L 283.28,384.32   L 280.88,383.28   L 278.32,382.8   L 276.96,382.72   L 275.68,382.8   L 273.12,383.28   L 270.72,384.32   L 268.64,385.68   L 266.88,387.52   L 265.44,389.6   L 264.48,391.92   L 263.92,394.48   L 263.92,395.84   L 263.92,395.84   L 263.92,395.92   L 248.8,395.92   L 248.8,395.84   L 248.8,395.84   L 248.72,394.48   L 248.16,391.92   L 247.2,389.6   L 245.76,387.52   L 244,385.68   L 241.92,384.32   L 239.6,383.28   L 237.04,382.8   L 235.68,382.72   L 234.32,382.8   L 231.76,383.28   L 229.44,384.32   L 227.36,385.68   L 225.6,387.52   L 224.16,389.6   L 223.2,391.92   L 222.64,394.48   L 222.56,395.84   L 222.56,395.84   L 222.56,395.92   L 207.36,395.92   L 207.36,364.24   L 244.88,364.24   L 244.88,346.72   L 244.88,345.68   L 245.68,343.92   L 246.96,342.8   L 248.56,342.24   L 250.24,342.24   L 251.84,342.8   L 253.12,343.92   L 253.84,345.68   L 253.92,346.72   L 253.92,364.24   L 262.8,364.24   L 262.8,346.72   L 262.8,345.6   L 263.52,343.92   L 264.8,342.72   L 266.4,342.08   L 268.08,342.08   L 269.76,342.64   L 271.04,343.84   L 271.76,345.52   L 271.84,346.64   L 271.84,346.64   L 271.84,346.72   L 271.84,346.72   L 271.84,364.24   L 280.64,364.24   L 280.64,346.72   L 280.72,345.68   L 281.44,343.92   L 282.72,342.8   L 284.32,342.24   L 286.08,342.24   L 287.68,342.8   L 288.96,343.92   L 289.68,345.68   L 289.76,346.72   L 289.76,364.24   L 298.8,364.24   L 298.8,346.72   L 298.88,345.68   L 299.6,343.92   L 300.88,342.8   L 302.48,342.24   L 304.16,342.24   L 305.76,342.8   L 307.04,343.92   L 307.84,345.68   L 307.92,346.72   L 307.92,364.24   L 377.12,364.24   L 377.2,364.16   L 380.08,364.16   L 385.84,363.6   L 391.36,362.4   L 396.64,360.8   L 401.76,358.64   L 406.56,356   L 411.04,352.96   L 415.28,349.52   L 419.04,345.68   L 422.56,341.52   L 425.6,336.96   L 428.24,332.16   L 430.32,327.12   L 432,321.76   L 433.12,316.24   L 433.68,310.56   L 433.76,307.6   L 433.76,306.96   L 433.68,306.32   L 433.68,276   L 433.68,273.12   L 433.04,267.44   L 431.92,261.92   L 430.32,256.56   L 428.16,251.52   L 425.52,246.72   L 422.48,242.16   L 419.04,238   L 415.2,234.16   L 410.96,230.72   L 406.48,227.6   L 401.68,225.04   L 396.56,222.88   L 391.28,221.2   L 385.76,220.08   L 380.08,219.52   L 377.12,219.44   L 372.72,219.44   L 372.72,219.44   L 372.72,219.44   L 372.64,218.08   L 372.16,215.52   L 371.12,213.12   L 369.76,211.04   L 368,209.28   L 365.84,207.84   L 363.52,206.88   L 360.96,206.4   L 359.6,206.32   L 358.32,206.4   L 355.76,206.88   L 353.36,207.92   L 351.28,209.28   L 349.52,211.04   L 348.08,213.12   L 347.12,215.52   L 346.56,218.08   L 346.56,219.44   L 346.56,219.44   L 346.56,219.44   L 331.36,219.44   L 331.36,219.44   L 331.36,219.44   L 331.36,218.08   L 330.8,215.52   L 329.84,213.12   L 328.4,211.04   L 326.64,209.28   L 324.56,207.92   L 322.24,206.88   L 319.68,206.4   L 318.32,206.32   L 316.96,206.4   L 314.4,206.88   L 312.08,207.84   L 310,209.28   L 308.24,211.04   L 306.8,213.12   L 305.76,215.52   L 305.28,218.08   L 305.2,219.44   L 305.2,219.44   L 305.2,219.44   L 290.08,219.44   L 290.08,219.44   L 290.08,219.44   L 290,218.08   L 289.52,215.52   L 288.48,213.12   L 287.12,211.04   L 285.36,209.28   L 283.28,207.92   L 280.88,206.88   L 278.32,206.4   L 276.96,206.32   L 275.68,206.4   L 273.12,206.88   L 270.72,207.84   L 268.64,209.28   L 266.88,211.04   L 265.44,213.12   L 264.48,215.52   L 263.92,218.08   L 263.92,219.44   L 263.92,219.44   L 263.92,219.44   L 248.8,219.44   L 248.8,219.44   L 248.8,219.44   L 248.72,218.08   L 248.16,215.52   L 247.2,213.12   L 245.76,211.04   L 244,209.28   L 241.92,207.92   L 239.6,206.88   L 237.04,206.4   L 235.68,206.32   L 234.32,206.4   L 231.76,206.88   L 229.44,207.84   L 227.36,209.28   L 225.6,211.04   L 224.16,213.12   L 223.2,215.52   L 222.64,218.08   L 222.56,219.44   L 222.56,219.44   L 222.56,219.44   L 207.36,219.44   L 207.36,187.84   L 298.64,187.84   L 295.6,186.16   L 289.68,182.4   L 284.08,178.16   L 278.88,173.44   L 276.48,170.88   L 228.56,170.88   L 227.76,172.08   L 225.68,174   L 223.2,175.36   L 220.48,176.08   L 219.04,176.16   L 217.92,176.08   L 215.68,175.68   L 213.68,174.8   L 211.84,173.6   L 210.32,172.08   L 209.12,170.24   L 208.24,168.24   L 207.84,166   L 207.76,164.88   L 207.84,163.76   L 208.24,161.52   L 209.12,159.52   L 210.32,157.68   L 211.84,156.16   L 213.68,154.96   L 215.68,154.08   L 217.92,153.68   L 219.04,153.6   L 220.48,153.68   L 223.2,154.4   L 225.6,155.68   L 227.68,157.6   L 228.48,158.8   L 267.12,158.8   L 265.2,155.6   L 261.76,148.96   L 259.04,142   L 256.88,134.88   L 256.08,131.28  z    M 219.04,161.04   L 218.32,161.12   L 216.96,161.68   L 215.92,162.72   L 215.36,164.08   L 215.28,164.8   L 215.36,165.6   L 215.92,166.96   L 216.96,167.92   L 218.32,168.48   L 219.04,168.56   L 219.84,168.48   L 221.2,167.92   L 222.16,166.96   L 222.72,165.6   L 222.8,164.8   L 222.72,164.08   L 222.16,162.72   L 221.2,161.68   L 219.84,161.12  z    M 445.04,201.04   L 443.2,202.8   L 440.24,206.64   L 438.24,210.56   L 437.2,214.16   L 437.12,215.68   L 437.12,223.2   L 437.2,230.72   L 437.2,232.16   L 438,234.96   L 439.36,237.44   L 441.28,239.44   L 442.48,240.32   L 446.08,242   L 453.76,244.96   L 457.44,246.56   L 457.76,246.64   L 458.08,246.72   L 458.24,266.8   L 443.92,272.48   L 443.92,288.88   L 467.6,279.6   L 471.28,282.48   L 475.04,285.44   L 476.56,286.48   L 479.92,287.68   L 481.68,287.84   L 482.96,287.84   L 485.44,287.36   L 487.76,286.32   L 489.76,284.8   L 490.64,283.84   L 493.44,280.56   L 496.16,277.2   L 496.96,276.08   L 498.16,273.76   L 499.28,268.8   L 499.68,263.52   L 494.72,265.28   L 490.4,267.28   L 488.4,268.96   L 487.44,270.08   L 482.08,276.56   L 482.08,276.56   L 482,276.56   L 473.52,269.92   L 473.28,246.4   L 473.52,246.24   L 473.76,246.16   L 484,240.16   L 488.72,246.48   L 490.64,248.32   L 494.48,251.52   L 497.04,255.36   L 498.32,258.4   L 498.88,256.88   L 499.6,253.76   L 499.84,250.48   L 499.6,247.28   L 498.96,244   L 497.76,240.88   L 496.16,237.76   L 494.08,234.72   L 492.88,233.28   L 492.16,232.48   L 490.64,231.12   L 488,229.6   L 484,228.88   L 481.04,229.28   L 479.04,230   L 478.16,230.56   L 473.92,232.96   L 469.68,235.52   L 469.84,219.04   L 478.16,219.04   L 479.52,218.88   L 482.32,217.92   L 485.84,216.56   L 491.04,215.52   L 494.64,215.36   L 492.48,213.2   L 487.92,210.16   L 483.52,208.48   L 479.68,207.84   L 478.08,207.76   L 474,207.84   L 469.84,207.84   L 468.72,207.84   L 466.48,208.32   L 464.48,209.12   L 462.72,210.4   L 461.12,211.92   L 459.92,213.68   L 459.04,215.76   L 458.64,217.92   L 458.56,219.12   L 458.48,226.96   L 458.4,234.8   L 448.48,230.72   L 448.48,230.72   L 448.4,230.72   L 448.32,215.68   L 448.24,214.32   L 447.28,211.76   L 446,208.64   L 445.12,204.16   L 445.04,201.04  z    M 506.72,221.04   L 506.96,221.28   L 507.2,221.6   L 507.36,221.76   L 507.44,221.84  z    M 476,316.72   L 473.52,316.8   L 469.28,317.68   L 467.76,318.48   L 461.2,322.24   L 454.72,326   L 453.52,326.8   L 451.52,328.8   L 450.08,331.2   L 449.28,334   L 449.12,335.44   L 449.44,339.36   L 450.72,347.44   L 451.2,351.52   L 451.28,351.84   L 451.28,352.08   L 434,362.32   L 424.32,354.64   L 421.52,357.36   L 415.36,362.24   L 412,364.32   L 427.68,376.8   L 427.04,381.44   L 426.32,386.16   L 426.16,388   L 426.8,391.52   L 427.52,393.12   L 428.16,394.24   L 429.84,396.16   L 431.92,397.6   L 434.24,398.64   L 435.52,398.88   L 439.76,399.6   L 444,400.32   L 445.36,400.48   L 448,400.32   L 452.8,398.88   L 457.6,396.56   L 453.68,393.12   L 449.68,390.4   L 447.2,389.52   L 445.84,389.2   L 437.52,387.84   L 437.52,387.84   L 437.44,387.84   L 438.96,377.12   L 459.28,365.12   L 459.52,365.28   L 459.76,365.44   L 470,371.28   L 466.88,378.48   L 466.24,381.12   L 465.44,386   L 463.36,390.24   L 461.36,392.8   L 462.96,392.56   L 466.08,391.6   L 468.96,390.24   L 471.68,388.4   L 474.08,386.16   L 476.32,383.6   L 478.16,380.64   L 479.76,377.28   L 480.4,375.52   L 480.8,374.56   L 481.2,372.48   L 481.12,369.44   L 479.84,365.68   L 477.92,363.28   L 476.32,362   L 475.44,361.44   L 471.2,358.96   L 466.88,356.56   L 481.2,348.48   L 485.36,355.68   L 486.16,356.8   L 488.4,358.72   L 491.36,361.12   L 494.88,365.04   L 496.8,368.08   L 497.6,365.2   L 497.92,359.76   L 497.2,355.04   L 495.84,351.36   L 495.12,350   L 493.04,346.48   L 490.96,342.88   L 490.32,341.92   L 488.88,340.24   L 487.12,338.88   L 485.12,337.92   L 483.04,337.36   L 480.88,337.2   L 478.72,337.52   L 476.56,338.24   L 475.52,338.72   L 468.72,342.64   L 461.84,346.48   L 460.4,335.84   L 460.4,335.76   L 460.4,335.76   L 473.36,328.16   L 474.48,327.36   L 476.24,325.28   L 478.32,322.64   L 481.76,319.6   L 484.4,318   L 484.4,318   L 482.32,317.36   L 478,316.72   L 476,316.72  z    M 497.92,381.44   L 497.84,381.76   L 497.68,382.08   L 497.6,382.24   L 497.6,382.48  z   "
     id="path1" />
</svg>
