%TF.GenerationSoftware,Altium Limited,Altium Designer,23.3.1 (30)*%
G04 Layer_Color=65535*
%FSLAX43Y43*%
%MOMM*%
%TF.SameCoordinates,FBF7E1D4-C1B8-4771-B9F0-462779BE4FB5*%
%TF.FilePolarity,Positive*%
%TF.FileFunction,Legend,Top*%
%TF.Part,Single*%
G01*
G75*
%TA.AperFunction,NonConductor*%
%ADD16C,0.200*%
%ADD17C,0.254*%
D16*
X26500Y20600D02*
X36900D01*
X26500D02*
Y28100D01*
X36900D01*
Y20600D02*
Y28100D01*
X13500Y20600D02*
X23900D01*
X13500D02*
Y28100D01*
X23900D01*
Y20600D02*
Y28100D01*
X500Y20600D02*
X10900D01*
X500D02*
Y28100D01*
X10900D01*
Y20600D02*
Y28100D01*
X24500Y9000D02*
Y10700D01*
Y4100D02*
Y6900D01*
Y200D02*
Y2000D01*
X14100Y200D02*
Y10700D01*
X24500D01*
X14100Y200D02*
X24500D01*
D17*
X15268Y13096D02*
X14760D01*
X15014D01*
Y11826D01*
X14760Y11573D01*
X14506D01*
X14252Y11826D01*
X16537Y11573D02*
Y13096D01*
X15776Y12334D01*
X16791D01*
X35919Y18221D02*
X36427D01*
X36173D01*
Y19490D01*
X36427Y19744D01*
X36681D01*
X36935Y19490D01*
X35412Y18475D02*
X35158Y18221D01*
X34650D01*
X34396Y18475D01*
Y18728D01*
X34650Y18982D01*
X34904D01*
X34650D01*
X34396Y19236D01*
Y19490D01*
X34650Y19744D01*
X35158D01*
X35412Y19490D01*
X22919Y18221D02*
X23427D01*
X23173D01*
Y19490D01*
X23427Y19744D01*
X23681D01*
X23935Y19490D01*
X21396Y19744D02*
X22412D01*
X21396Y18728D01*
Y18475D01*
X21650Y18221D01*
X22158D01*
X22412Y18475D01*
X9919Y18221D02*
X10427D01*
X10173D01*
Y19490D01*
X10427Y19744D01*
X10681D01*
X10935Y19490D01*
X9412Y19744D02*
X8904D01*
X9158D01*
Y18221D01*
X9412Y18475D01*
%TF.MD5,f401740ddb97dfe62aae6a6cdd24227a*%
M02*
