%TF.GenerationSoftware,Altium Limited,Altium Designer,23.3.1 (30)*%
G04 Layer_Physical_Order=2*
G04 Layer_Color=16711680*
%FSLAX43Y43*%
%MOMM*%
%TF.SameCoordinates,FBF7E1D4-C1B8-4771-B9F0-462779BE4FB5*%
%TF.FilePolarity,Positive*%
%TF.FileFunction,Copper,L2,Bot,Signal*%
%TF.Part,Single*%
G01*
G75*
%TA.AperFunction,Conductor*%
%ADD10C,1.000*%
%TA.AperFunction,ComponentPad*%
%ADD11C,1.300*%
%ADD12C,1.500*%
D10*
X30033Y6906D02*
Y16533D01*
X35443Y22443D02*
X35500Y22500D01*
X30033Y16533D02*
X35443Y21943D01*
Y22443D01*
X27533Y8283D02*
Y18783D01*
X30443Y22443D02*
X30500Y22500D01*
X27533Y18783D02*
X30443Y21693D01*
Y22443D01*
X26000Y26000D02*
X32500D01*
X35443Y22557D02*
X35500Y22500D01*
X35443Y22557D02*
Y23057D01*
X32500Y26000D02*
X35443Y23057D01*
X21485Y21096D02*
X23596D01*
X27000Y24500D02*
X30919D01*
X23596Y21096D02*
X27000Y24500D01*
X6581D02*
X10500D01*
X13904Y21096D02*
X16015D01*
X10500Y24500D02*
X13904Y21096D01*
X4581Y22500D02*
X6581Y24500D01*
X11496Y26004D02*
X15000Y22500D01*
X5504Y26004D02*
X11496D01*
X2000Y22500D02*
X5504Y26004D01*
X30919Y24500D02*
X32919Y22500D01*
X22500D02*
X26000Y26000D01*
X21500Y5500D02*
Y8000D01*
X24750Y5500D02*
X27533Y8283D01*
X21500Y5500D02*
X24750D01*
X21500Y3000D02*
Y5500D01*
X16500Y3000D02*
Y8000D01*
X19000D02*
Y21419D01*
Y3000D02*
Y8000D01*
Y21419D02*
X20000Y22419D01*
X16635Y3000D02*
X18139Y1496D01*
X24000Y18500D02*
X28000Y22500D01*
X24000Y8000D02*
Y18500D01*
X16015Y21096D02*
X17419Y22500D01*
X4500D02*
X4581D01*
X17419D02*
X17500D01*
X32919D02*
X33000D01*
X20081D02*
X21485Y21096D01*
X20000Y22419D02*
Y22500D01*
X20081D01*
X9500Y15000D02*
X16500Y8000D01*
X9500Y15000D02*
Y22500D01*
X16500Y3000D02*
X16635D01*
X18139Y1496D02*
X24623D01*
X30033Y6906D01*
D11*
X35500Y22500D02*
D03*
X33000D02*
D03*
X30500D02*
D03*
X28000D02*
D03*
X22500D02*
D03*
X20000D02*
D03*
X17500D02*
D03*
X15000D02*
D03*
X9500D02*
D03*
X7000D02*
D03*
X4500D02*
D03*
X2000D02*
D03*
D12*
X24000Y8000D02*
D03*
X21500D02*
D03*
X19000D02*
D03*
X16500D02*
D03*
X24000Y3000D02*
D03*
X21500D02*
D03*
X19000D02*
D03*
X16500D02*
D03*
%TF.MD5,38b9a6fae97a1ea12bed642bab3a1beb*%
M02*
