%TF.GenerationSoftware,Altium Limited,Altium Designer,25.2.1 (25)*%
G04 Layer_Physical_Order=2*
G04 Layer_Color=16711680*
%FSLAX45Y45*%
%MOMM*%
%TF.SameCoordinates,918F7520-6D5E-4649-A0F8-73A0CF3CBC90*%
%TF.FilePolarity,Positive*%
%TF.FileFunction,Copper,L2,Bot,Signal*%
%TF.Part,Single*%
G01*
G75*
%TA.AperFunction,Conductor*%
%ADD16C,0.19691*%
%TA.AperFunction,ComponentPad*%
%ADD21C,1.40000*%
%ADD22C,2.45000*%
%ADD23C,3.20000*%
%ADD24R,1.40000X1.40000*%
%ADD25C,1.05000*%
%ADD26R,1.05000X1.05000*%
%ADD27C,1.80000*%
%ADD28C,2.28600*%
%ADD29C,2.70000*%
%ADD30C,4.00000*%
%TA.AperFunction,ViaPad*%
%ADD31C,5.50000*%
%TA.AperFunction,ComponentPad*%
%ADD32C,2.00000*%
%TA.AperFunction,ViaPad*%
%ADD33C,0.45000*%
%TA.AperFunction,Conductor*%
%ADD34C,2.00000*%
G36*
X9411991Y7792100D02*
X9382921Y7782654D01*
X9340145Y7760859D01*
X9301306Y7732641D01*
X9267359Y7698694D01*
X9239141Y7659855D01*
X9217346Y7617079D01*
X9202510Y7571421D01*
X9195000Y7524004D01*
Y7475996D01*
X9202510Y7428579D01*
X9217346Y7382921D01*
X9239141Y7340145D01*
X9267359Y7301306D01*
X9301306Y7267359D01*
X9340145Y7239141D01*
X9382921Y7217345D01*
X9428579Y7202510D01*
X9474734Y7195200D01*
Y804800D01*
X9428579Y797490D01*
X9382921Y782655D01*
X9340145Y760859D01*
X9301306Y732641D01*
X9267359Y698694D01*
X9239141Y659855D01*
X9217346Y617079D01*
X9202510Y571421D01*
X9195000Y524004D01*
Y475996D01*
X9202510Y428579D01*
X9217346Y382921D01*
X9239141Y340145D01*
X9267359Y301306D01*
X9301306Y267359D01*
X9340145Y239141D01*
X9382921Y217346D01*
X9428579Y202510D01*
X9474734Y195200D01*
Y152500D01*
X500000D01*
Y195000D01*
X524004D01*
X571421Y202510D01*
X617079Y217346D01*
X659855Y239141D01*
X698694Y267359D01*
X732641Y301306D01*
X760859Y340145D01*
X782655Y382921D01*
X797490Y428579D01*
X805000Y475996D01*
Y524004D01*
X797490Y571421D01*
X782655Y617079D01*
X760859Y659855D01*
X732641Y698694D01*
X698694Y732641D01*
X659855Y760859D01*
X617079Y782655D01*
X571421Y797490D01*
X524004Y805000D01*
X500000D01*
Y7195000D01*
X524004D01*
X571421Y7202510D01*
X617079Y7217345D01*
X659855Y7239141D01*
X698694Y7267359D01*
X732641Y7301306D01*
X760859Y7340145D01*
X782655Y7382921D01*
X797490Y7428579D01*
X805000Y7475996D01*
Y7524004D01*
X797490Y7571421D01*
X782655Y7617079D01*
X760859Y7659855D01*
X732641Y7698694D01*
X698694Y7732641D01*
X659855Y7760859D01*
X617079Y7782654D01*
X588009Y7792100D01*
X590021Y7804800D01*
X7295482D01*
X7298008Y7792100D01*
X7283443Y7786067D01*
X7259219Y7769881D01*
X7238619Y7749281D01*
X7222433Y7725057D01*
X7211284Y7698141D01*
X7205600Y7669567D01*
Y7667700D01*
X7353500D01*
X7501400D01*
Y7669567D01*
X7495716Y7698141D01*
X7484567Y7725057D01*
X7468381Y7749281D01*
X7447781Y7769881D01*
X7423557Y7786067D01*
X7408992Y7792100D01*
X7411519Y7804800D01*
X8845482D01*
X8848008Y7792100D01*
X8833443Y7786067D01*
X8809219Y7769881D01*
X8788619Y7749281D01*
X8772433Y7725057D01*
X8761284Y7698141D01*
X8755600Y7669567D01*
Y7667700D01*
X8903501D01*
X9051400D01*
Y7669567D01*
X9045716Y7698141D01*
X9034567Y7725057D01*
X9018381Y7749281D01*
X8997781Y7769881D01*
X8973557Y7786067D01*
X8958992Y7792100D01*
X8961519Y7804800D01*
X9409979D01*
X9411991Y7792100D01*
D02*
G37*
%LPC*%
G36*
X9051400Y7642300D02*
X8916201D01*
Y7507100D01*
X8918067D01*
X8946641Y7512784D01*
X8973557Y7523933D01*
X8997781Y7540119D01*
X9018381Y7560719D01*
X9034567Y7584943D01*
X9045716Y7611859D01*
X9051400Y7640433D01*
Y7642300D01*
D02*
G37*
G36*
X8890801D02*
X8755600D01*
Y7640433D01*
X8761284Y7611859D01*
X8772433Y7584943D01*
X8788619Y7560719D01*
X8809219Y7540119D01*
X8833443Y7523933D01*
X8860359Y7512784D01*
X8888933Y7507100D01*
X8890801D01*
Y7642300D01*
D02*
G37*
G36*
X7501400D02*
X7366200D01*
Y7507100D01*
X7368067D01*
X7396641Y7512784D01*
X7423557Y7523933D01*
X7447781Y7540119D01*
X7468381Y7560719D01*
X7484567Y7584943D01*
X7495716Y7611859D01*
X7501400Y7640433D01*
Y7642300D01*
D02*
G37*
G36*
X7340800D02*
X7205600D01*
Y7640433D01*
X7211284Y7611859D01*
X7222433Y7584943D01*
X7238619Y7560719D01*
X7259219Y7540119D01*
X7283443Y7523933D01*
X7310359Y7512784D01*
X7338933Y7507100D01*
X7340800D01*
Y7642300D01*
D02*
G37*
G36*
X6085398Y7567300D02*
X6047403D01*
X6010702Y7557466D01*
X5977798Y7538469D01*
X5950931Y7511602D01*
X5931934Y7478698D01*
X5922100Y7441997D01*
Y7404002D01*
X5931934Y7367302D01*
X5950931Y7334398D01*
X5977798Y7307531D01*
X6010702Y7288534D01*
X6047403Y7278700D01*
X6085398D01*
X6122098Y7288534D01*
X6155002Y7307531D01*
X6181869Y7334398D01*
X6200866Y7367302D01*
X6210700Y7404002D01*
Y7441997D01*
X6200866Y7478698D01*
X6181869Y7511602D01*
X6155002Y7538469D01*
X6122098Y7557466D01*
X6085398Y7567300D01*
D02*
G37*
G36*
X5577398D02*
X5539403D01*
X5502702Y7557466D01*
X5469798Y7538469D01*
X5442931Y7511602D01*
X5423934Y7478698D01*
X5414100Y7441997D01*
Y7404002D01*
X5423934Y7367302D01*
X5442931Y7334398D01*
X5469798Y7307531D01*
X5502702Y7288534D01*
X5539403Y7278700D01*
X5577398D01*
X5614098Y7288534D01*
X5647002Y7307531D01*
X5673869Y7334398D01*
X5692866Y7367302D01*
X5702700Y7404002D01*
Y7441997D01*
X5692866Y7478698D01*
X5673869Y7511602D01*
X5647002Y7538469D01*
X5614098Y7557466D01*
X5577398Y7567300D01*
D02*
G37*
G36*
X5069398D02*
X5031403D01*
X4994702Y7557466D01*
X4961798Y7538469D01*
X4934931Y7511602D01*
X4915934Y7478698D01*
X4906100Y7441997D01*
Y7404002D01*
X4915934Y7367302D01*
X4934931Y7334398D01*
X4961798Y7307531D01*
X4994702Y7288534D01*
X5031403Y7278700D01*
X5069398D01*
X5106098Y7288534D01*
X5139002Y7307531D01*
X5165869Y7334398D01*
X5184866Y7367302D01*
X5194700Y7404002D01*
Y7441997D01*
X5184866Y7478698D01*
X5165869Y7511602D01*
X5139002Y7538469D01*
X5106098Y7557466D01*
X5069398Y7567300D01*
D02*
G37*
G36*
X4561398D02*
X4523403D01*
X4486702Y7557466D01*
X4453798Y7538469D01*
X4426931Y7511602D01*
X4407934Y7478698D01*
X4398100Y7441997D01*
Y7404002D01*
X4407934Y7367302D01*
X4426931Y7334398D01*
X4453798Y7307531D01*
X4486702Y7288534D01*
X4523403Y7278700D01*
X4561398D01*
X4598098Y7288534D01*
X4631002Y7307531D01*
X4657869Y7334398D01*
X4676866Y7367302D01*
X4686700Y7404002D01*
Y7441997D01*
X4676866Y7478698D01*
X4657869Y7511602D01*
X4631002Y7538469D01*
X4598098Y7557466D01*
X4561398Y7567300D01*
D02*
G37*
G36*
X4053398D02*
X4015403D01*
X3978702Y7557466D01*
X3945798Y7538469D01*
X3918931Y7511602D01*
X3899934Y7478698D01*
X3890100Y7441997D01*
Y7404002D01*
X3899934Y7367302D01*
X3918931Y7334398D01*
X3945798Y7307531D01*
X3978702Y7288534D01*
X4015403Y7278700D01*
X4053398D01*
X4090098Y7288534D01*
X4123002Y7307531D01*
X4149869Y7334398D01*
X4168866Y7367302D01*
X4178700Y7404002D01*
Y7441997D01*
X4168866Y7478698D01*
X4149869Y7511602D01*
X4123002Y7538469D01*
X4090098Y7557466D01*
X4053398Y7567300D01*
D02*
G37*
G36*
X8716941Y7522000D02*
X8683060D01*
X8649830Y7515390D01*
X8618528Y7502424D01*
X8590356Y7483601D01*
X8566399Y7459644D01*
X8547576Y7431473D01*
X8534610Y7400171D01*
X8528000Y7366941D01*
Y7333060D01*
X8534610Y7299829D01*
X8547576Y7268528D01*
X8566399Y7240356D01*
X8590356Y7216399D01*
X8618528Y7197576D01*
X8649830Y7184610D01*
X8683060Y7178000D01*
X8716941D01*
X8750171Y7184610D01*
X8781473Y7197576D01*
X8809644Y7216399D01*
X8833601Y7240356D01*
X8852425Y7268528D01*
X8865390Y7299829D01*
X8872000Y7333060D01*
Y7366941D01*
X8865390Y7400171D01*
X8852425Y7431473D01*
X8833601Y7459644D01*
X8809644Y7483601D01*
X8781473Y7502424D01*
X8750171Y7515390D01*
X8716941Y7522000D01*
D02*
G37*
G36*
X7573941D02*
X7540060D01*
X7506830Y7515390D01*
X7475528Y7502424D01*
X7447356Y7483601D01*
X7423399Y7459644D01*
X7404576Y7431473D01*
X7391610Y7400171D01*
X7385000Y7366941D01*
Y7333060D01*
X7391610Y7299829D01*
X7404576Y7268528D01*
X7423399Y7240356D01*
X7447356Y7216399D01*
X7475528Y7197576D01*
X7506830Y7184610D01*
X7540060Y7178000D01*
X7573941D01*
X7607171Y7184610D01*
X7638473Y7197576D01*
X7666644Y7216399D01*
X7690601Y7240356D01*
X7709425Y7268528D01*
X7722390Y7299829D01*
X7729000Y7333060D01*
Y7366941D01*
X7722390Y7400171D01*
X7709425Y7431473D01*
X7690601Y7459644D01*
X7666644Y7483601D01*
X7638473Y7502424D01*
X7607171Y7515390D01*
X7573941Y7522000D01*
D02*
G37*
G36*
X6656900Y6849300D02*
X6491900D01*
Y6849071D01*
X6480901Y6842721D01*
X6479244Y6843678D01*
X6458261Y6849300D01*
X6436539D01*
X6415556Y6843678D01*
X6396744Y6832816D01*
X6381384Y6817457D01*
X6380082Y6817285D01*
X6368232Y6829135D01*
X6350468Y6839391D01*
X6333100Y6844045D01*
Y6766800D01*
Y6689555D01*
X6350468Y6694209D01*
X6368232Y6704465D01*
X6380082Y6716315D01*
X6381384Y6716144D01*
X6396744Y6700784D01*
X6415556Y6689922D01*
X6436539Y6684300D01*
X6458261D01*
X6479244Y6689922D01*
X6480901Y6690879D01*
X6491900Y6684529D01*
Y6684300D01*
X6656900D01*
Y6849300D01*
D02*
G37*
G36*
X5869500D02*
X5704500D01*
Y6849071D01*
X5693501Y6842721D01*
X5691844Y6843678D01*
X5670861Y6849300D01*
X5649139D01*
X5628156Y6843678D01*
X5609344Y6832816D01*
X5593984Y6817457D01*
X5592682Y6817285D01*
X5580832Y6829135D01*
X5563068Y6839391D01*
X5545700Y6844045D01*
Y6766800D01*
Y6689555D01*
X5563068Y6694209D01*
X5580832Y6704465D01*
X5592682Y6716315D01*
X5593984Y6716144D01*
X5609344Y6700784D01*
X5628156Y6689922D01*
X5649139Y6684300D01*
X5670861D01*
X5691844Y6689922D01*
X5693501Y6690879D01*
X5704500Y6684529D01*
Y6684300D01*
X5869500D01*
Y6849300D01*
D02*
G37*
G36*
X5056700D02*
X4891700D01*
Y6849071D01*
X4880701Y6842721D01*
X4879044Y6843678D01*
X4858061Y6849300D01*
X4836339D01*
X4815356Y6843678D01*
X4796544Y6832816D01*
X4781184Y6817457D01*
X4779882Y6817285D01*
X4768032Y6829135D01*
X4750268Y6839391D01*
X4732900Y6844045D01*
Y6766800D01*
Y6689555D01*
X4750268Y6694209D01*
X4768032Y6704465D01*
X4779882Y6716315D01*
X4781184Y6716144D01*
X4796544Y6700784D01*
X4815356Y6689922D01*
X4836339Y6684300D01*
X4858061D01*
X4879044Y6689922D01*
X4880701Y6690879D01*
X4891700Y6684529D01*
Y6684300D01*
X5056700D01*
Y6849300D01*
D02*
G37*
G36*
X4243900D02*
X4078900D01*
Y6849071D01*
X4067901Y6842721D01*
X4066244Y6843678D01*
X4045261Y6849300D01*
X4023539D01*
X4002556Y6843678D01*
X3983744Y6832816D01*
X3968384Y6817457D01*
X3967082Y6817285D01*
X3955232Y6829135D01*
X3937468Y6839391D01*
X3920100Y6844045D01*
Y6766800D01*
Y6689555D01*
X3937468Y6694209D01*
X3955232Y6704465D01*
X3967082Y6716315D01*
X3968384Y6716144D01*
X3983744Y6700784D01*
X4002556Y6689922D01*
X4023539Y6684300D01*
X4045261D01*
X4066244Y6689922D01*
X4067901Y6690879D01*
X4078900Y6684529D01*
Y6684300D01*
X4243900D01*
Y6849300D01*
D02*
G37*
G36*
X3380300D02*
X3215300D01*
Y6849071D01*
X3204301Y6842721D01*
X3202644Y6843678D01*
X3181661Y6849300D01*
X3159939D01*
X3138956Y6843678D01*
X3120144Y6832816D01*
X3104784Y6817457D01*
X3103482Y6817285D01*
X3091632Y6829135D01*
X3073868Y6839391D01*
X3056500Y6844045D01*
Y6766800D01*
Y6689555D01*
X3073868Y6694209D01*
X3091632Y6704465D01*
X3103482Y6716315D01*
X3104784Y6716144D01*
X3120144Y6700784D01*
X3138956Y6689922D01*
X3159939Y6684300D01*
X3181661D01*
X3202644Y6689922D01*
X3204301Y6690879D01*
X3215300Y6684529D01*
Y6684300D01*
X3380300D01*
Y6849300D01*
D02*
G37*
G36*
X6307700Y6844045D02*
X6290332Y6839391D01*
X6272568Y6829135D01*
X6258065Y6814632D01*
X6247809Y6796868D01*
X6243155Y6779500D01*
X6307700D01*
Y6844045D01*
D02*
G37*
G36*
X5520300D02*
X5502932Y6839391D01*
X5485168Y6829135D01*
X5470665Y6814632D01*
X5460409Y6796868D01*
X5455755Y6779500D01*
X5520300D01*
Y6844045D01*
D02*
G37*
G36*
X4707500D02*
X4690132Y6839391D01*
X4672368Y6829135D01*
X4657865Y6814632D01*
X4647609Y6796868D01*
X4642955Y6779500D01*
X4707500D01*
Y6844045D01*
D02*
G37*
G36*
X3894700D02*
X3877332Y6839391D01*
X3859568Y6829135D01*
X3845065Y6814632D01*
X3834809Y6796868D01*
X3830155Y6779500D01*
X3894700D01*
Y6844045D01*
D02*
G37*
G36*
X3031100D02*
X3013732Y6839391D01*
X2995968Y6829135D01*
X2981465Y6814632D01*
X2971209Y6796868D01*
X2966555Y6779500D01*
X3031100D01*
Y6844045D01*
D02*
G37*
G36*
X6307700Y6754100D02*
X6243155D01*
X6247809Y6736732D01*
X6258065Y6718968D01*
X6272568Y6704465D01*
X6290332Y6694209D01*
X6307700Y6689555D01*
Y6754100D01*
D02*
G37*
G36*
X5520300D02*
X5455755D01*
X5460409Y6736732D01*
X5470665Y6718968D01*
X5485168Y6704465D01*
X5502932Y6694209D01*
X5520300Y6689555D01*
Y6754100D01*
D02*
G37*
G36*
X4707500D02*
X4642955D01*
X4647609Y6736732D01*
X4657865Y6718968D01*
X4672368Y6704465D01*
X4690132Y6694209D01*
X4707500Y6689555D01*
Y6754100D01*
D02*
G37*
G36*
X3894700D02*
X3830155D01*
X3834809Y6736732D01*
X3845065Y6718968D01*
X3859568Y6704465D01*
X3877332Y6694209D01*
X3894700Y6689555D01*
Y6754100D01*
D02*
G37*
G36*
X3031100D02*
X2966555D01*
X2971209Y6736732D01*
X2981465Y6718968D01*
X2995968Y6704465D01*
X3013732Y6694209D01*
X3031100Y6689555D01*
Y6754100D01*
D02*
G37*
G36*
X7824165Y6815000D02*
X7797835D01*
X7772402Y6808185D01*
X7749599Y6795020D01*
X7730980Y6776401D01*
X7717815Y6753598D01*
X7711000Y6728165D01*
Y6701835D01*
X7714004Y6690624D01*
X7702974Y6682720D01*
X7701429Y6683752D01*
X7685882Y6686845D01*
X7642737D01*
X7627190Y6683752D01*
X7614010Y6674946D01*
X7502536Y6563472D01*
X7493729Y6550292D01*
X7490637Y6534745D01*
Y4871256D01*
X7493729Y4855709D01*
X7502536Y4842530D01*
X7559994Y4785071D01*
X7573174Y4776264D01*
X7587158Y4773483D01*
X7589359Y4771282D01*
Y4680676D01*
X7592451Y4665129D01*
X7601258Y4651949D01*
X7728624Y4524583D01*
X7723679Y4516018D01*
X7714820Y4482955D01*
Y4448725D01*
X7723679Y4415662D01*
X7740795Y4386018D01*
X7764998Y4361814D01*
X7794642Y4344699D01*
X7827705Y4335840D01*
X7861935D01*
X7894998Y4344699D01*
X7924642Y4361814D01*
X7948846Y4386018D01*
X7965961Y4415662D01*
X7974820Y4448725D01*
Y4482955D01*
X7965961Y4516018D01*
X7948846Y4545662D01*
X7924642Y4569866D01*
X7894998Y4586981D01*
X7861935Y4595840D01*
X7827705D01*
X7794642Y4586981D01*
X7786078Y4582036D01*
X7670610Y4697503D01*
Y4788110D01*
X7667518Y4803657D01*
X7658711Y4816837D01*
Y4828996D01*
X7667518Y4842176D01*
X7670610Y4857723D01*
Y4934177D01*
X7786078Y5049644D01*
X7794642Y5044699D01*
X7827705Y5035840D01*
X7861935D01*
X7894998Y5044699D01*
X7924642Y5061814D01*
X7948846Y5086018D01*
X7965961Y5115662D01*
X7974820Y5148725D01*
Y5182955D01*
X7965961Y5216018D01*
X7948846Y5245662D01*
X7924642Y5269866D01*
X7894998Y5286981D01*
X7861935Y5295840D01*
X7827705D01*
X7794642Y5286981D01*
X7764998Y5269866D01*
X7740795Y5245662D01*
X7723679Y5216018D01*
X7714820Y5182955D01*
Y5148725D01*
X7723679Y5115662D01*
X7728624Y5107097D01*
X7616012Y4994485D01*
X7604279Y4999346D01*
Y6382707D01*
X7616012Y6387567D01*
X7622599Y6380980D01*
X7645402Y6367815D01*
X7670835Y6361000D01*
X7697165D01*
X7722598Y6367815D01*
X7745401Y6380980D01*
X7764020Y6399599D01*
X7777185Y6422402D01*
X7784000Y6447835D01*
Y6474165D01*
X7777185Y6499598D01*
X7764020Y6522401D01*
X7745401Y6541020D01*
X7724626Y6553015D01*
Y6586062D01*
X7737754Y6588673D01*
X7750933Y6597480D01*
X7774663Y6621209D01*
X7797835Y6615000D01*
X7824165D01*
X7849598Y6621815D01*
X7872401Y6634980D01*
X7891020Y6653599D01*
X7904185Y6676402D01*
X7911000Y6701835D01*
Y6728165D01*
X7904185Y6753598D01*
X7891020Y6776401D01*
X7872401Y6795020D01*
X7849598Y6808185D01*
X7824165Y6815000D01*
D02*
G37*
G36*
X8673000D02*
X8473000D01*
Y6615000D01*
X8673000D01*
Y6815000D01*
D02*
G37*
G36*
X1233300Y6441700D02*
X1227608D01*
X1192078Y6432180D01*
X1160222Y6413788D01*
X1134212Y6387778D01*
X1125350Y6372428D01*
X1112650D01*
X1103788Y6387778D01*
X1077778Y6413788D01*
X1045922Y6432180D01*
X1010392Y6441700D01*
X1004700D01*
Y6302000D01*
Y6162300D01*
X1010392D01*
X1045922Y6171821D01*
X1077778Y6190212D01*
X1103788Y6216222D01*
X1112650Y6231572D01*
X1125350D01*
X1134212Y6216222D01*
X1160222Y6190212D01*
X1192078Y6171821D01*
X1227608Y6162300D01*
X1233300D01*
Y6302000D01*
Y6441700D01*
D02*
G37*
G36*
X3545398Y7567300D02*
X3507403D01*
X3470702Y7557466D01*
X3455431Y7548649D01*
X2215028D01*
X2181091Y7544182D01*
X2149467Y7531082D01*
X2122310Y7510245D01*
X2122310Y7510244D01*
X1661283Y7049217D01*
X1661282Y7049216D01*
X1412755Y6800689D01*
X1391917Y6773533D01*
X1378818Y6741909D01*
X1374350Y6707972D01*
X1374351Y6707970D01*
Y6384491D01*
X1361651Y6381088D01*
X1357788Y6387778D01*
X1331778Y6413788D01*
X1299922Y6432180D01*
X1264392Y6441700D01*
X1258700D01*
Y6302000D01*
Y6162300D01*
X1264392D01*
X1299922Y6171821D01*
X1331778Y6190212D01*
X1357788Y6216222D01*
X1363994Y6226972D01*
X1376694D01*
X1384531Y6213398D01*
X1411398Y6186531D01*
X1444302Y6167534D01*
X1481003Y6157700D01*
X1518997D01*
X1555698Y6167534D01*
X1588602Y6186531D01*
X1615469Y6213398D01*
X1620650Y6222372D01*
X1633350D01*
X1638531Y6213398D01*
X1665398Y6186531D01*
X1698302Y6167534D01*
X1735003Y6157700D01*
X1772997D01*
X1809698Y6167534D01*
X1842602Y6186531D01*
X1869469Y6213398D01*
X1888466Y6246302D01*
X1898300Y6283003D01*
Y6320998D01*
X1888466Y6357698D01*
X1885122Y6363490D01*
Y6902188D01*
X2269340Y7286406D01*
X3395278D01*
Y7114660D01*
X3395278Y7114658D01*
X3399746Y7080721D01*
X3412845Y7049097D01*
X3433683Y7021940D01*
X3550840Y6904783D01*
X3577997Y6883945D01*
X3609621Y6870846D01*
X3643558Y6866378D01*
X3643560Y6866378D01*
X9066030D01*
X9106378Y6826030D01*
Y5124312D01*
X8929027Y4946962D01*
X8594820D01*
X8586300Y4945840D01*
X8577705D01*
X8569403Y4943615D01*
X8565133Y4943053D01*
X8559176Y4955056D01*
X8611697Y5007577D01*
X8620503Y5020757D01*
X8623596Y5036304D01*
Y5038965D01*
X8644998Y5044699D01*
X8674642Y5061814D01*
X8698846Y5086018D01*
X8715961Y5115662D01*
X8724820Y5148725D01*
Y5182955D01*
X8715961Y5216018D01*
X8698846Y5245662D01*
X8674642Y5269866D01*
X8644998Y5286981D01*
X8611935Y5295840D01*
X8577705D01*
X8544642Y5286981D01*
X8514998Y5269866D01*
X8490795Y5245662D01*
X8473680Y5216018D01*
X8464820Y5182955D01*
Y5148725D01*
X8473680Y5115662D01*
X8490795Y5086018D01*
X8514998Y5061814D01*
X8528806Y5053843D01*
X8530464Y5041251D01*
X8430284Y4941071D01*
X8364553Y5006802D01*
Y6383065D01*
X8377253Y6388326D01*
X8384599Y6380980D01*
X8407402Y6367815D01*
X8432835Y6361000D01*
X8459165D01*
X8484598Y6367815D01*
X8507401Y6380980D01*
X8526020Y6399599D01*
X8539185Y6422402D01*
X8546000Y6447835D01*
Y6474165D01*
X8539185Y6499598D01*
X8526020Y6522401D01*
X8507401Y6541020D01*
X8484598Y6554185D01*
X8459165Y6561000D01*
X8432835D01*
X8407402Y6554185D01*
X8384599Y6541020D01*
X8377253Y6533674D01*
X8364553Y6538935D01*
Y6545372D01*
X8361461Y6560919D01*
X8352654Y6574099D01*
X8323486Y6603267D01*
X8328346Y6615000D01*
X8332165D01*
X8357598Y6621815D01*
X8380401Y6634980D01*
X8399020Y6653599D01*
X8412185Y6676402D01*
X8419000Y6701835D01*
Y6728165D01*
X8412185Y6753598D01*
X8399020Y6776401D01*
X8380401Y6795020D01*
X8357598Y6808185D01*
X8332165Y6815000D01*
X8305835D01*
X8280402Y6808185D01*
X8257599Y6795020D01*
X8238980Y6776401D01*
X8225815Y6753598D01*
X8219000Y6728165D01*
Y6701835D01*
X8221681Y6691829D01*
X8213950Y6681753D01*
X8185027D01*
X8172077Y6679177D01*
X8164769Y6684469D01*
X8161445Y6688566D01*
X8165000Y6701835D01*
Y6728165D01*
X8158185Y6753598D01*
X8145020Y6776401D01*
X8126401Y6795020D01*
X8103598Y6808185D01*
X8078165Y6815000D01*
X8051835D01*
X8026402Y6808185D01*
X8003599Y6795020D01*
X7984980Y6776401D01*
X7971815Y6753598D01*
X7965000Y6728165D01*
Y6701835D01*
X7971815Y6676402D01*
X7984980Y6653599D01*
X8003599Y6634980D01*
X8026402Y6621815D01*
X8051835Y6615000D01*
X8078165D01*
X8101337Y6621209D01*
X8125067Y6597480D01*
X8138247Y6588673D01*
X8146283Y6587075D01*
Y6550075D01*
X8130599Y6541020D01*
X8111980Y6522401D01*
X8098815Y6499598D01*
X8092000Y6474165D01*
Y6447835D01*
X8098815Y6422402D01*
X8111980Y6399599D01*
X8130599Y6380980D01*
X8153402Y6367815D01*
X8178835Y6361000D01*
X8205165D01*
X8230598Y6367815D01*
X8239912Y6373192D01*
X8250911Y6366842D01*
Y4976558D01*
X8254003Y4961011D01*
X8262810Y4947831D01*
X8323870Y4886771D01*
X8318610Y4874071D01*
X8305536D01*
X8286241Y4866078D01*
X8271472Y4851309D01*
X8263480Y4832014D01*
Y4811128D01*
X8271472Y4791832D01*
X8286241Y4777064D01*
X8287075Y4776718D01*
Y4343736D01*
X7625155Y3681816D01*
X7616349Y3668636D01*
X7613256Y3653089D01*
Y1436077D01*
X7616349Y1420530D01*
X7625155Y1407350D01*
X7664042Y1368464D01*
X7677222Y1359657D01*
X7684000Y1358309D01*
Y1185000D01*
X7884000D01*
Y1341230D01*
X7884780Y1345155D01*
Y1385656D01*
X7881688Y1401202D01*
X7873680Y1413187D01*
X7899492Y1439000D01*
X7924165D01*
X7949598Y1445815D01*
X7972401Y1458980D01*
X7991020Y1477599D01*
X8004185Y1500402D01*
X8011000Y1525835D01*
Y1552165D01*
X8004185Y1577598D01*
X7991020Y1600401D01*
X7972401Y1619020D01*
X7949598Y1632185D01*
X7924165Y1639000D01*
X7897835D01*
X7872402Y1632185D01*
X7849599Y1619020D01*
X7830980Y1600401D01*
X7817815Y1577598D01*
X7811000Y1552165D01*
Y1525835D01*
X7817815Y1500402D01*
X7828127Y1482541D01*
X7815792Y1470207D01*
X7726899D01*
Y3622845D01*
X8388818Y4284765D01*
X8397625Y4297945D01*
X8400718Y4313492D01*
Y4584172D01*
X8403173Y4586151D01*
X8420185Y4583550D01*
X8421248Y4581959D01*
X8478624Y4524583D01*
X8473680Y4516018D01*
X8464820Y4482955D01*
Y4448725D01*
X8473680Y4415662D01*
X8490795Y4386018D01*
X8514998Y4361814D01*
X8544642Y4344699D01*
X8577705Y4335840D01*
X8611935D01*
X8644998Y4344699D01*
X8674642Y4361814D01*
X8698846Y4386018D01*
X8715961Y4415662D01*
X8724820Y4448725D01*
Y4482955D01*
X8715961Y4516018D01*
X8698846Y4545662D01*
X8674642Y4569866D01*
X8644998Y4586981D01*
X8611935Y4595840D01*
X8577705D01*
X8544642Y4586981D01*
X8536078Y4582036D01*
X8490600Y4627513D01*
Y4717251D01*
X8498264Y4721163D01*
X8503300Y4722204D01*
X8508923Y4717890D01*
X8514998Y4711814D01*
X8522441Y4707517D01*
X8529260Y4702285D01*
X8537199Y4698997D01*
X8544642Y4694699D01*
X8552945Y4692475D01*
X8560884Y4689186D01*
X8569403Y4688065D01*
X8577705Y4685840D01*
X8586300D01*
X8594820Y4684718D01*
X8983338D01*
X8983340Y4684718D01*
X9017277Y4689186D01*
X9048901Y4702285D01*
X9076057Y4723123D01*
X9330216Y4977282D01*
X9330217Y4977283D01*
X9351055Y5004439D01*
X9364154Y5036063D01*
X9368622Y5070000D01*
X9368622Y5070002D01*
Y6880341D01*
X9368622Y6880343D01*
X9364154Y6914279D01*
X9351055Y6945903D01*
X9330217Y6973060D01*
X9213060Y7090217D01*
X9185903Y7111055D01*
X9154279Y7124154D01*
X9120342Y7128622D01*
X9120340Y7128622D01*
X3697870D01*
X3657522Y7168970D01*
Y7361510D01*
X3660866Y7367302D01*
X3670700Y7404002D01*
Y7441997D01*
X3660866Y7478698D01*
X3641869Y7511602D01*
X3615002Y7538469D01*
X3582098Y7557466D01*
X3545398Y7567300D01*
D02*
G37*
G36*
X7951165Y6561000D02*
X7924835D01*
X7899402Y6554185D01*
X7876599Y6541020D01*
X7857980Y6522401D01*
X7844815Y6499598D01*
X7838000Y6474165D01*
Y6447835D01*
X7844815Y6422402D01*
X7857980Y6399599D01*
X7876599Y6380980D01*
X7899402Y6367815D01*
X7924835Y6361000D01*
X7951165D01*
X7976598Y6367815D01*
X7999401Y6380980D01*
X8018020Y6399599D01*
X8031185Y6422402D01*
X8038000Y6447835D01*
Y6474165D01*
X8031185Y6499598D01*
X8018020Y6522401D01*
X7999401Y6541020D01*
X7976598Y6554185D01*
X7951165Y6561000D01*
D02*
G37*
G36*
X979300Y6441700D02*
X973608D01*
X938078Y6432180D01*
X906222Y6413788D01*
X880212Y6387778D01*
X861820Y6355922D01*
X852300Y6320392D01*
Y6314700D01*
X979300D01*
Y6441700D01*
D02*
G37*
G36*
Y6289300D02*
X852300D01*
Y6283608D01*
X861820Y6248078D01*
X880212Y6216222D01*
X906222Y6190212D01*
X938078Y6171821D01*
X973608Y6162300D01*
X979300D01*
Y6289300D01*
D02*
G37*
G36*
X6726294Y5054127D02*
X6699437D01*
X6673495Y5047176D01*
X6650236Y5033747D01*
X6631245Y5014756D01*
X6617817Y4991498D01*
X6610866Y4965555D01*
Y4938699D01*
X6617817Y4912756D01*
X6631245Y4889498D01*
X6650236Y4870507D01*
X6673495Y4857078D01*
X6699437Y4850127D01*
X6726294D01*
X6752236Y4857078D01*
X6775495Y4870507D01*
X6794486Y4889498D01*
X6807914Y4912756D01*
X6814865Y4938699D01*
Y4965555D01*
X6807914Y4991498D01*
X6794486Y5014756D01*
X6775495Y5033747D01*
X6752236Y5047176D01*
X6726294Y5054127D01*
D02*
G37*
G36*
X3312534D02*
X3285677D01*
X3259735Y5047176D01*
X3236476Y5033747D01*
X3217485Y5014756D01*
X3204057Y4991498D01*
X3197106Y4965555D01*
Y4938699D01*
X3204057Y4912756D01*
X3217485Y4889498D01*
X3236476Y4870507D01*
X3259735Y4857078D01*
X3285677Y4850127D01*
X3312534D01*
X3338476Y4857078D01*
X3361735Y4870507D01*
X3380726Y4889498D01*
X3394154Y4912756D01*
X3401105Y4938699D01*
Y4965555D01*
X3394154Y4991498D01*
X3380726Y5014756D01*
X3361735Y5033747D01*
X3338476Y5047176D01*
X3312534Y5054127D01*
D02*
G37*
G36*
X7861329Y4941240D02*
X7857520D01*
Y4828540D01*
X7970220D01*
Y4832349D01*
X7961674Y4864242D01*
X7945165Y4892837D01*
X7921818Y4916185D01*
X7893223Y4932694D01*
X7861329Y4941240D01*
D02*
G37*
G36*
X7832120D02*
X7828311D01*
X7796418Y4932694D01*
X7767823Y4916185D01*
X7744475Y4892837D01*
X7727966Y4864242D01*
X7719420Y4832349D01*
Y4828540D01*
X7832120D01*
Y4941240D01*
D02*
G37*
G36*
X7970220Y4803140D02*
X7857520D01*
Y4690440D01*
X7861329D01*
X7893223Y4698986D01*
X7921818Y4715495D01*
X7945165Y4738843D01*
X7961674Y4767438D01*
X7970220Y4799331D01*
Y4803140D01*
D02*
G37*
G36*
X7832120D02*
X7719420D01*
Y4799331D01*
X7727966Y4767438D01*
X7744475Y4738843D01*
X7767823Y4715495D01*
X7796418Y4698986D01*
X7828311Y4690440D01*
X7832120D01*
Y4803140D01*
D02*
G37*
G36*
X8297122Y3343521D02*
X8276236D01*
X8256940Y3335529D01*
X8242171Y3320760D01*
X8234179Y3301464D01*
Y3280578D01*
X8240204Y3266033D01*
X7907746Y2933575D01*
X7898940Y2920395D01*
X7895847Y2904848D01*
Y2597419D01*
X7891180Y2595486D01*
X7876411Y2580717D01*
X7868419Y2561422D01*
Y2540536D01*
X7876411Y2521240D01*
X7891180Y2506471D01*
X7910476Y2498479D01*
X7931362D01*
X7950657Y2506471D01*
X7952669Y2508483D01*
X7954680Y2506471D01*
X7973976Y2498479D01*
X7994862D01*
X8014157Y2506471D01*
X8028926Y2521240D01*
X8036918Y2540536D01*
Y2561422D01*
X8028926Y2580717D01*
X8014157Y2595486D01*
X8009490Y2597419D01*
Y2874604D01*
X8316751Y3181865D01*
X8331297Y3175840D01*
X8352183D01*
X8371479Y3183833D01*
X8386247Y3198601D01*
X8394240Y3217897D01*
Y3238783D01*
X8386247Y3258079D01*
X8371479Y3272847D01*
X8352183Y3280840D01*
X8339178D01*
Y3301464D01*
X8331186Y3320760D01*
X8316417Y3335529D01*
X8297122Y3343521D01*
D02*
G37*
G36*
X1772997Y3144300D02*
X1735003D01*
X1698302Y3134466D01*
X1665398Y3115469D01*
X1638531Y3088602D01*
X1633350Y3079628D01*
X1620650D01*
X1615469Y3088602D01*
X1588602Y3115469D01*
X1555698Y3134466D01*
X1518997Y3144300D01*
X1481003D01*
X1444302Y3134466D01*
X1411398Y3115469D01*
X1384531Y3088602D01*
X1376694Y3075028D01*
X1363994D01*
X1357788Y3085778D01*
X1331778Y3111788D01*
X1299922Y3130180D01*
X1264392Y3139700D01*
X1258700D01*
Y3000000D01*
Y2860300D01*
X1264392D01*
X1299922Y2869821D01*
X1331778Y2888212D01*
X1356178Y2912613D01*
X1368878Y2910336D01*
Y2085002D01*
X1368878Y2085000D01*
X1373346Y2051063D01*
X1386445Y2019439D01*
X1407283Y1992283D01*
X1661282Y1738284D01*
X1661283Y1738283D01*
X1908636Y1490930D01*
X1905000Y1472653D01*
Y1427347D01*
X1913839Y1382912D01*
X1931177Y1341054D01*
X1956348Y1303384D01*
X1988384Y1271348D01*
X2026054Y1246177D01*
X2067912Y1228839D01*
X2112347Y1220000D01*
X2157653D01*
X2202089Y1228839D01*
X2243946Y1246177D01*
X2281616Y1271348D01*
X2313652Y1303384D01*
X2338823Y1341054D01*
X2356161Y1382912D01*
X2365000Y1427347D01*
Y1472653D01*
X2356161Y1517089D01*
X2338823Y1558946D01*
X2313652Y1596616D01*
X2281616Y1628653D01*
X2243946Y1653823D01*
X2202089Y1671161D01*
X2157653Y1680000D01*
X2112347D01*
X2094070Y1676364D01*
X1885122Y1885313D01*
Y2938510D01*
X1888466Y2944302D01*
X1898300Y2981003D01*
Y3018998D01*
X1888466Y3055698D01*
X1869469Y3088602D01*
X1842602Y3115469D01*
X1809698Y3134466D01*
X1772997Y3144300D01*
D02*
G37*
G36*
X1233300Y3139700D02*
X1227608D01*
X1192078Y3130180D01*
X1160222Y3111788D01*
X1134212Y3085778D01*
X1125350Y3070428D01*
X1112650D01*
X1103788Y3085778D01*
X1077778Y3111788D01*
X1045922Y3130180D01*
X1010392Y3139700D01*
X1004700D01*
Y3000000D01*
Y2860300D01*
X1010392D01*
X1045922Y2869821D01*
X1077778Y2888212D01*
X1103788Y2914222D01*
X1112650Y2929572D01*
X1125350D01*
X1134212Y2914222D01*
X1160222Y2888212D01*
X1192078Y2869821D01*
X1227608Y2860300D01*
X1233300D01*
Y3000000D01*
Y3139700D01*
D02*
G37*
G36*
X979300D02*
X973608D01*
X938078Y3130180D01*
X906222Y3111788D01*
X880212Y3085778D01*
X861820Y3053922D01*
X852300Y3018392D01*
Y3012700D01*
X979300D01*
Y3139700D01*
D02*
G37*
G36*
Y2987300D02*
X852300D01*
Y2981608D01*
X861820Y2946078D01*
X880212Y2914222D01*
X906222Y2888212D01*
X938078Y2869821D01*
X973608Y2860300D01*
X979300D01*
Y2987300D01*
D02*
G37*
G36*
X8874797Y3330626D02*
X8853911D01*
X8834615Y3322634D01*
X8819846Y3307865D01*
X8811854Y3288569D01*
Y3267684D01*
X8819846Y3248388D01*
X8834615Y3233619D01*
X8840160Y3231323D01*
Y3027983D01*
X8841843Y3019521D01*
Y2893141D01*
X8124537Y2175835D01*
X8115731Y2162656D01*
X8112638Y2147109D01*
Y1852418D01*
X8115731Y1836871D01*
X8124537Y1823691D01*
X8223911Y1724318D01*
Y1633158D01*
X8212912Y1626808D01*
X8203598Y1632185D01*
X8178165Y1639000D01*
X8151835D01*
X8126402Y1632185D01*
X8103599Y1619020D01*
X8084980Y1600401D01*
X8071815Y1577598D01*
X8065000Y1552165D01*
Y1525835D01*
X8071815Y1500402D01*
X8084980Y1477599D01*
X8103599Y1458980D01*
X8126402Y1445815D01*
X8151835Y1439000D01*
X8178165D01*
X8201337Y1445209D01*
X8225067Y1421480D01*
X8238246Y1412673D01*
X8251374Y1410062D01*
Y1377015D01*
X8230599Y1365020D01*
X8211980Y1346401D01*
X8198815Y1323598D01*
X8192000Y1298165D01*
Y1271835D01*
X8198815Y1246402D01*
X8211980Y1223599D01*
X8230599Y1204980D01*
X8253402Y1191815D01*
X8278835Y1185000D01*
X8305165D01*
X8330598Y1191815D01*
X8353401Y1204980D01*
X8372020Y1223599D01*
X8385185Y1246402D01*
X8392000Y1271835D01*
Y1298165D01*
X8385185Y1323598D01*
X8372020Y1346401D01*
X8353401Y1365020D01*
X8332626Y1377015D01*
Y1409466D01*
X8342758Y1419598D01*
X8351564Y1432778D01*
X8354245Y1446252D01*
X8359824Y1450367D01*
X8367357Y1453346D01*
X8380402Y1445815D01*
X8405835Y1439000D01*
X8432165D01*
X8457598Y1445815D01*
X8480401Y1458980D01*
X8499020Y1477599D01*
X8512185Y1500402D01*
X8519000Y1525835D01*
Y1552165D01*
X8512185Y1577598D01*
X8499020Y1600401D01*
X8480401Y1619020D01*
X8457598Y1632185D01*
X8432165Y1639000D01*
X8405835D01*
X8380402Y1632185D01*
X8357599Y1619020D01*
X8350253Y1611674D01*
X8337553Y1616935D01*
Y1754562D01*
X8334461Y1770109D01*
X8325654Y1783289D01*
X8226280Y1882662D01*
Y2116865D01*
X8943586Y2834170D01*
X8952393Y2847350D01*
X8955485Y2862897D01*
Y3039716D01*
X8953802Y3048179D01*
Y3222560D01*
X8964553Y3227013D01*
X8979321Y3241781D01*
X8987314Y3261077D01*
Y3281963D01*
X8979321Y3301259D01*
X8964553Y3316027D01*
X8945257Y3324020D01*
X8924371D01*
X8905075Y3316027D01*
X8902887Y3313839D01*
X8894092Y3322634D01*
X8874797Y3330626D01*
D02*
G37*
G36*
X1437200Y1675400D02*
X1427700D01*
Y1462700D01*
X1640400D01*
Y1472200D01*
X1631738Y1515747D01*
X1614747Y1556767D01*
X1590080Y1593684D01*
X1558684Y1625080D01*
X1521767Y1649747D01*
X1480747Y1666738D01*
X1437200Y1675400D01*
D02*
G37*
G36*
X1402300D02*
X1392800D01*
X1349253Y1666738D01*
X1308233Y1649747D01*
X1271316Y1625080D01*
X1239920Y1593684D01*
X1215253Y1556767D01*
X1198262Y1515747D01*
X1189600Y1472200D01*
Y1462700D01*
X1402300D01*
Y1675400D01*
D02*
G37*
G36*
X8686165Y1639000D02*
X8659835D01*
X8634402Y1632185D01*
X8611599Y1619020D01*
X8592980Y1600401D01*
X8579815Y1577598D01*
X8573000Y1552165D01*
Y1525835D01*
X8579815Y1500402D01*
X8592980Y1477599D01*
X8611599Y1458980D01*
X8634402Y1445815D01*
X8659835Y1439000D01*
X8686165D01*
X8711598Y1445815D01*
X8734401Y1458980D01*
X8753020Y1477599D01*
X8766185Y1500402D01*
X8773000Y1525835D01*
Y1552165D01*
X8766185Y1577598D01*
X8753020Y1600401D01*
X8734401Y1619020D01*
X8711598Y1632185D01*
X8686165Y1639000D01*
D02*
G37*
G36*
X1640400Y1437300D02*
X1427700D01*
Y1224600D01*
X1437200D01*
X1480747Y1233262D01*
X1521767Y1250253D01*
X1558684Y1274920D01*
X1590080Y1306316D01*
X1614747Y1343233D01*
X1631738Y1384254D01*
X1640400Y1427800D01*
Y1437300D01*
D02*
G37*
G36*
X1402300D02*
X1189600D01*
Y1427800D01*
X1198262Y1384254D01*
X1215253Y1343233D01*
X1239920Y1306316D01*
X1271316Y1274920D01*
X1308233Y1250253D01*
X1349253Y1233262D01*
X1392800Y1224600D01*
X1402300D01*
Y1437300D01*
D02*
G37*
G36*
X8559165Y1385000D02*
X8532835D01*
X8507402Y1378185D01*
X8484599Y1365020D01*
X8465980Y1346401D01*
X8452815Y1323598D01*
X8446000Y1298165D01*
Y1271835D01*
X8452815Y1246402D01*
X8465980Y1223599D01*
X8484599Y1204980D01*
X8507402Y1191815D01*
X8532835Y1185000D01*
X8559165D01*
X8584598Y1191815D01*
X8607401Y1204980D01*
X8626020Y1223599D01*
X8639185Y1246402D01*
X8646000Y1271835D01*
Y1298165D01*
X8639185Y1323598D01*
X8626020Y1346401D01*
X8607401Y1365020D01*
X8584598Y1378185D01*
X8559165Y1385000D01*
D02*
G37*
G36*
X8051165D02*
X8024835D01*
X7999402Y1378185D01*
X7976599Y1365020D01*
X7957980Y1346401D01*
X7944815Y1323598D01*
X7938000Y1298165D01*
Y1271835D01*
X7944815Y1246402D01*
X7957980Y1223599D01*
X7976599Y1204980D01*
X7999402Y1191815D01*
X8024835Y1185000D01*
X8051165D01*
X8076598Y1191815D01*
X8099401Y1204980D01*
X8118020Y1223599D01*
X8131185Y1246402D01*
X8138000Y1271835D01*
Y1298165D01*
X8131185Y1323598D01*
X8118020Y1346401D01*
X8099401Y1365020D01*
X8076598Y1378185D01*
X8051165Y1385000D01*
D02*
G37*
G36*
X2466251Y1015000D02*
X2433749D01*
X2401871Y1008659D01*
X2371843Y996221D01*
X2344819Y978164D01*
X2321836Y955181D01*
X2303779Y928157D01*
X2291341Y898129D01*
X2285000Y866251D01*
Y833749D01*
X2291341Y801871D01*
X2303779Y771843D01*
X2321836Y744819D01*
X2344819Y721836D01*
X2371843Y703779D01*
X2401871Y691341D01*
X2433749Y685000D01*
X2466251D01*
X2498129Y691341D01*
X2528157Y703779D01*
X2555181Y721836D01*
X2578164Y744819D01*
X2596221Y771843D01*
X2608659Y801871D01*
X2615000Y833749D01*
Y866251D01*
X2608659Y898129D01*
X2596221Y928157D01*
X2578164Y955181D01*
X2555181Y978164D01*
X2528157Y996221D01*
X2498129Y1008659D01*
X2466251Y1015000D01*
D02*
G37*
G36*
X1116251D02*
X1083749D01*
X1051871Y1008659D01*
X1021843Y996221D01*
X994819Y978164D01*
X971836Y955181D01*
X953779Y928157D01*
X941341Y898129D01*
X935000Y866251D01*
Y833749D01*
X941341Y801871D01*
X953779Y771843D01*
X971836Y744819D01*
X994819Y721836D01*
X1021843Y703779D01*
X1051871Y691341D01*
X1083749Y685000D01*
X1116251D01*
X1148129Y691341D01*
X1178157Y703779D01*
X1205181Y721836D01*
X1228164Y744819D01*
X1246221Y771843D01*
X1258659Y801871D01*
X1265000Y833749D01*
Y866251D01*
X1258659Y898129D01*
X1246221Y928157D01*
X1228164Y955181D01*
X1205181Y978164D01*
X1178157Y996221D01*
X1148129Y1008659D01*
X1116251Y1015000D01*
D02*
G37*
G36*
X8816940Y822000D02*
X8783059D01*
X8749829Y815390D01*
X8718527Y802424D01*
X8690356Y783601D01*
X8666399Y759644D01*
X8647576Y731473D01*
X8634610Y700171D01*
X8628000Y666941D01*
Y633059D01*
X8634610Y599829D01*
X8647576Y568527D01*
X8666399Y540356D01*
X8690356Y516399D01*
X8718527Y497576D01*
X8749829Y484610D01*
X8783059Y478000D01*
X8816940D01*
X8850171Y484610D01*
X8881472Y497576D01*
X8909644Y516399D01*
X8933601Y540356D01*
X8952424Y568527D01*
X8965390Y599829D01*
X8972000Y633059D01*
Y666941D01*
X8965390Y700171D01*
X8952424Y731473D01*
X8933601Y759644D01*
X8909644Y783601D01*
X8881472Y802424D01*
X8850171Y815390D01*
X8816940Y822000D01*
D02*
G37*
G36*
X7673940D02*
X7640059D01*
X7606829Y815390D01*
X7575527Y802424D01*
X7547356Y783601D01*
X7523399Y759644D01*
X7504576Y731473D01*
X7491610Y700171D01*
X7485000Y666941D01*
Y633059D01*
X7491610Y599829D01*
X7504576Y568527D01*
X7523399Y540356D01*
X7547356Y516399D01*
X7575527Y497576D01*
X7606829Y484610D01*
X7640059Y478000D01*
X7673940D01*
X7707171Y484610D01*
X7738472Y497576D01*
X7766644Y516399D01*
X7790601Y540356D01*
X7809424Y568527D01*
X7822390Y599829D01*
X7829000Y633059D01*
Y666941D01*
X7822390Y700171D01*
X7809424Y731473D01*
X7790601Y759644D01*
X7766644Y783601D01*
X7738472Y802424D01*
X7707171Y815390D01*
X7673940Y822000D01*
D02*
G37*
G36*
X6726294Y669107D02*
X6699437D01*
X6673495Y662156D01*
X6650236Y648727D01*
X6631245Y629736D01*
X6617817Y606478D01*
X6610866Y580536D01*
Y553679D01*
X6617817Y527737D01*
X6631245Y504478D01*
X6650236Y485487D01*
X6673495Y472058D01*
X6699437Y465107D01*
X6726294D01*
X6752236Y472058D01*
X6775495Y485487D01*
X6794486Y504478D01*
X6807914Y527737D01*
X6814865Y553679D01*
Y580536D01*
X6807914Y606478D01*
X6794486Y629736D01*
X6775495Y648727D01*
X6752236Y662156D01*
X6726294Y669107D01*
D02*
G37*
G36*
X3312534Y667547D02*
X3285677D01*
X3259735Y660596D01*
X3236476Y647167D01*
X3217485Y628176D01*
X3204057Y604918D01*
X3197106Y578975D01*
Y552119D01*
X3204057Y526176D01*
X3217485Y502918D01*
X3236476Y483927D01*
X3259735Y470498D01*
X3285677Y463547D01*
X3312534D01*
X3338476Y470498D01*
X3361735Y483927D01*
X3380726Y502918D01*
X3394154Y526176D01*
X3401105Y552119D01*
Y578975D01*
X3394154Y604918D01*
X3380726Y628176D01*
X3361735Y647167D01*
X3338476Y660596D01*
X3312534Y667547D01*
D02*
G37*
G36*
X9018067Y492900D02*
X9016200D01*
Y357700D01*
X9151400D01*
Y359567D01*
X9145716Y388141D01*
X9134567Y415057D01*
X9118381Y439281D01*
X9097781Y459881D01*
X9073557Y476067D01*
X9046641Y487216D01*
X9018067Y492900D01*
D02*
G37*
G36*
X8990800D02*
X8988933D01*
X8960359Y487216D01*
X8933443Y476067D01*
X8909219Y459881D01*
X8888619Y439281D01*
X8872433Y415057D01*
X8861284Y388141D01*
X8855600Y359567D01*
Y357700D01*
X8990800D01*
Y492900D01*
D02*
G37*
G36*
X7468067D02*
X7466200D01*
Y357700D01*
X7601400D01*
Y359567D01*
X7595716Y388141D01*
X7584567Y415057D01*
X7568381Y439281D01*
X7547781Y459881D01*
X7523557Y476067D01*
X7496641Y487216D01*
X7468067Y492900D01*
D02*
G37*
G36*
X7440800D02*
X7438933D01*
X7410359Y487216D01*
X7383443Y476067D01*
X7359219Y459881D01*
X7338619Y439281D01*
X7322433Y415057D01*
X7311284Y388141D01*
X7305600Y359567D01*
Y357700D01*
X7440800D01*
Y492900D01*
D02*
G37*
G36*
X9151400Y332300D02*
X9016200D01*
Y197100D01*
X9018067D01*
X9046641Y202784D01*
X9073557Y213933D01*
X9097781Y230119D01*
X9118381Y250719D01*
X9134567Y274943D01*
X9145716Y301859D01*
X9151400Y330433D01*
Y332300D01*
D02*
G37*
G36*
X8990800D02*
X8855600D01*
Y330433D01*
X8861284Y301859D01*
X8872433Y274943D01*
X8888619Y250719D01*
X8909219Y230119D01*
X8933443Y213933D01*
X8960359Y202784D01*
X8988933Y197100D01*
X8990800D01*
Y332300D01*
D02*
G37*
G36*
X7601400D02*
X7466200D01*
Y197100D01*
X7468067D01*
X7496641Y202784D01*
X7523557Y213933D01*
X7547781Y230119D01*
X7568381Y250719D01*
X7584567Y274943D01*
X7595716Y301859D01*
X7601400Y330433D01*
Y332300D01*
D02*
G37*
G36*
X7440800D02*
X7305600D01*
Y330433D01*
X7311284Y301859D01*
X7322433Y274943D01*
X7338619Y250719D01*
X7359219Y230119D01*
X7383443Y213933D01*
X7410359Y202784D01*
X7438933Y197100D01*
X7440800D01*
Y332300D01*
D02*
G37*
%LPD*%
D16*
X7629984Y4857723D02*
Y4951004D01*
X7531262Y4871256D02*
X7588721Y4813798D01*
X7604297D02*
X7629984Y4788110D01*
X8291537Y4976558D02*
Y6531955D01*
X7588721Y4813798D02*
X7604297D01*
X7563653Y4884673D02*
Y6521328D01*
X7629984Y4680676D02*
X7844820Y4465840D01*
X7531262Y4871256D02*
Y6534745D01*
X7629984Y4680676D02*
Y4788110D01*
X8323927Y4989974D02*
Y6545372D01*
X7629984Y4951004D02*
X7844820Y5165840D01*
X7618450Y4846188D02*
X7629984Y4857723D01*
X7602137Y4846188D02*
X7618450D01*
X7563653Y4884673D02*
X7602137Y4846188D01*
X7722207Y6626207D02*
X7811000Y6715000D01*
X7531262Y6534745D02*
X7642737Y6646219D01*
X7685882D02*
X7705894Y6626207D01*
X7722207D01*
X7642737Y6646219D02*
X7685882D01*
X7672465Y6613828D02*
X7684000Y6602294D01*
Y6461000D02*
Y6602294D01*
X7563653Y6521328D02*
X7656153Y6613828D01*
X7672465D01*
X8186908Y6466092D02*
X8192000Y6461000D01*
X8186908Y6466092D02*
Y6597202D01*
X8198443Y6608737D01*
X8214755D01*
X8291537Y6531955D01*
Y4976558D02*
X8408711Y4859383D01*
X8065000Y6715000D02*
X8153793Y6626207D01*
X8170106D01*
X8185027Y6641127D02*
X8228172D01*
X8323927Y6545372D01*
X8170106Y6626207D02*
X8185027Y6641127D01*
X8323927Y4989974D02*
X8422128Y4891774D01*
X7832620Y1397190D02*
X7844154Y1385656D01*
X7653882Y1436077D02*
X7692768Y1397190D01*
X7653882Y1436077D02*
Y3653089D01*
X7844154Y1345155D02*
Y1385656D01*
X7692768Y1397190D02*
X7832620D01*
X7784000Y1285000D02*
X7844154Y1345155D01*
X7653882Y3653089D02*
X8327701Y4326908D01*
X7706185Y1429581D02*
X7832620D01*
X7911000Y1507961D02*
Y1539000D01*
X7686273Y1449493D02*
X7706185Y1429581D01*
X7686273Y1449493D02*
Y3639673D01*
X7832620Y1429581D02*
X7911000Y1507961D01*
X8153264Y1852418D02*
X8264536Y1741145D01*
X8153264Y1852418D02*
Y2147109D01*
X8264536Y1495158D02*
Y1741145D01*
X8253793Y1450207D02*
X8270106D01*
X8281640Y1461741D01*
X8165000Y1539000D02*
X8253793Y1450207D01*
X8281640Y1461741D02*
Y1478054D01*
X8264536Y1495158D02*
X8281640Y1478054D01*
X8153264Y2147109D02*
X8882469Y2876314D01*
X8185655Y1865834D02*
X8296927Y1754562D01*
X8185655Y1865834D02*
Y2133692D01*
X8296927Y1508575D02*
X8314031Y1491471D01*
X8296927Y1508575D02*
Y1754562D01*
X8292000Y1426294D02*
X8314031Y1448325D01*
X8292000Y1285000D02*
Y1426294D01*
X8314031Y1448325D02*
Y1491471D01*
X8880785Y3027983D02*
Y3254846D01*
X8913176Y3247331D02*
X8934814Y3268969D01*
X8880785Y3027983D02*
X8882469Y3026300D01*
X8913176Y3041400D02*
Y3247331D01*
Y3041400D02*
X8914859Y3039716D01*
X8882469Y2876314D02*
Y3026300D01*
X8864354Y3271278D02*
X8880785Y3254846D01*
X8864354Y3271278D02*
Y3278127D01*
X8185655Y2133692D02*
X8914859Y2862897D01*
Y3039716D01*
X8934814Y3268969D02*
Y3271520D01*
X7968864Y2573382D02*
Y2891432D01*
X7920919Y2550979D02*
Y2557827D01*
X7968864Y2573382D02*
X7984419Y2557827D01*
X7920919D02*
X7936473Y2573382D01*
Y2904848D02*
X8287558Y3255933D01*
X7984419Y2550979D02*
Y2557827D01*
X7968864Y2891432D02*
X8306652Y3229219D01*
X7936473Y2573382D02*
Y2904848D01*
X8408711Y4859383D02*
X8410593D01*
X8449975Y4610685D02*
X8594820Y4465840D01*
X8410593Y4859383D02*
X8449975Y4820002D01*
Y4610685D02*
Y4820002D01*
X8422128Y4891774D02*
X8438440D01*
X8582970Y5036304D02*
Y5153990D01*
X8438440Y4891774D02*
X8582970Y5036304D01*
Y5153990D02*
X8594820Y5165840D01*
X8327701Y4326908D02*
Y4792339D01*
X7686273Y3639673D02*
X8360092Y4313492D01*
Y4790314D01*
X8320822Y4799218D02*
X8327701Y4792339D01*
X8315979Y4821571D02*
X8320822Y4816728D01*
Y4799218D02*
Y4816728D01*
X8360092Y4790314D02*
X8379223Y4809445D01*
Y4814845D01*
X8287558Y3255933D02*
Y3290142D01*
X8286679Y3291021D02*
X8287558Y3290142D01*
X8340861Y3229219D02*
X8341740Y3228340D01*
X8306652Y3229219D02*
X8340861D01*
D21*
X8673000Y1539000D02*
D03*
X8419000D02*
D03*
X8546000Y1285000D02*
D03*
X8292000D02*
D03*
X8165000Y1539000D02*
D03*
X7911000D02*
D03*
X8038000Y1285000D02*
D03*
X7684000Y6461000D02*
D03*
X7938000D02*
D03*
X8192000D02*
D03*
X8446000D02*
D03*
X7811000Y6715000D02*
D03*
X8065000D02*
D03*
X8319000D02*
D03*
D22*
X9003500Y345000D02*
D03*
X7453500D02*
D03*
X7353500Y7655000D02*
D03*
X8903500D02*
D03*
D23*
X8800000Y650000D02*
D03*
X7657000D02*
D03*
X7557000Y7350000D02*
D03*
X8700000D02*
D03*
D24*
X7784000Y1285000D02*
D03*
X8573000Y6715000D02*
D03*
D25*
X3170800Y6766800D02*
D03*
X3043800D02*
D03*
X4034400D02*
D03*
X3907400D02*
D03*
X5660000D02*
D03*
X5533000D02*
D03*
X6447400D02*
D03*
X6320400D02*
D03*
X4847200D02*
D03*
X4720200D02*
D03*
D26*
X3297800D02*
D03*
X4161400D02*
D03*
X5787000D02*
D03*
X6574400D02*
D03*
X4974200D02*
D03*
D27*
X6712865Y4952127D02*
D03*
Y567107D02*
D03*
X3299105Y4952127D02*
D03*
Y565547D02*
D03*
D28*
X3526400Y7423000D02*
D03*
X4034400D02*
D03*
X5558400D02*
D03*
X6066400D02*
D03*
X4542400D02*
D03*
X5050400D02*
D03*
X1754000Y6302000D02*
D03*
X1500000D02*
D03*
X992000D02*
D03*
X1246000D02*
D03*
X992000Y3000000D02*
D03*
X1246000D02*
D03*
X1754000D02*
D03*
X1500000D02*
D03*
D29*
X1100000Y850000D02*
D03*
X2450000D02*
D03*
D30*
X2135000Y1450000D02*
D03*
X1415000D02*
D03*
D31*
X9500000Y7500000D02*
D03*
X500000D02*
D03*
Y500000D02*
D03*
X9500000D02*
D03*
D32*
X7844820Y5165840D02*
D03*
Y4815840D02*
D03*
Y4465840D02*
D03*
X8594820Y5165840D02*
D03*
Y4815840D02*
D03*
Y4465840D02*
D03*
D33*
X8934814Y3271520D02*
D03*
X8864354Y3278127D02*
D03*
X7984419Y2550979D02*
D03*
X7920919D02*
D03*
X8315979Y4821571D02*
D03*
X8379223Y4814845D02*
D03*
X8286679Y3291021D02*
D03*
X8341740Y3228340D02*
D03*
D34*
X1505472Y6707972D02*
X1754000Y6956500D01*
X1505472Y6307472D02*
Y6707972D01*
X1500000Y6302000D02*
X1505472Y6307472D01*
X1754000Y1831000D02*
Y2992261D01*
Y1831000D02*
X2135000Y1450000D01*
X1500000Y2085000D02*
X1754000Y1831000D01*
X1500000Y2085000D02*
Y3000000D01*
X3526400Y7114658D02*
X3643558Y6997500D01*
X9120342D01*
X3526400Y7114658D02*
Y7423000D01*
X1754000Y6302000D02*
Y6956500D01*
X2215028Y7417528D02*
X3520928D01*
X1754000Y6956500D02*
X2215028Y7417528D01*
X3520928D02*
X3526400Y7423000D01*
X8983340Y4815840D02*
X9237500Y5070000D01*
Y6880343D01*
X8594820Y4815840D02*
X8983340D01*
X9120342Y6997500D02*
X9237500Y6880343D01*
%TF.MD5,a5542654c9a16942c785383a30f7b7bb*%
M02*
