%TF.GenerationSoftware,Altium Limited,Altium Designer,25.2.1 (25)*%
G04 Layer_Color=0*
%FSLAX45Y45*%
%MOMM*%
%TF.SameCoordinates,918F7520-6D5E-4649-A0F8-73A0CF3CBC90*%
%TF.FilePolarity,Positive*%
%TF.FileFunction,Plated,1,2,PTH,Drill*%
%TF.Part,Single*%
G01*
G75*
%TA.AperFunction,ComponentDrill*%
%ADD54C,0.90000*%
%ADD55C,1.60000*%
%ADD56C,0.80000*%
%ADD57C,1.27000*%
%ADD58C,1.80000*%
%ADD59C,2.70000*%
%TA.AperFunction,OtherDrill,Free Pad (95mm,75mm)*%
%ADD60C,3.60000*%
%TA.AperFunction,OtherDrill,Free Pad (5mm,75mm)*%
%ADD61C,3.60000*%
%TA.AperFunction,OtherDrill,Free Pad (5mm,5mm)*%
%ADD62C,3.60000*%
%TA.AperFunction,OtherDrill,Free Pad (95mm,5mm)*%
%ADD63C,3.60000*%
%TA.AperFunction,ComponentDrill*%
%ADD64C,1.00000*%
%ADD65C,1.01600*%
%TA.AperFunction,ViaDrill,NotFilled*%
%ADD66C,0.30000*%
D54*
X8673000Y1539000D02*
D03*
X8419000D02*
D03*
X8546000Y1285000D02*
D03*
X8292000D02*
D03*
X8165000Y1539000D02*
D03*
X7911000D02*
D03*
X8038000Y1285000D02*
D03*
X7784000D02*
D03*
X7684000Y6461000D02*
D03*
X7938000D02*
D03*
X8192000D02*
D03*
X8446000D02*
D03*
X7811000Y6715000D02*
D03*
X8065000D02*
D03*
X8319000D02*
D03*
X8573000D02*
D03*
D55*
X9003500Y345000D02*
D03*
X7453500D02*
D03*
X7353500Y7655000D02*
D03*
X8903500D02*
D03*
D56*
X3170800Y6766800D02*
D03*
X3297800D02*
D03*
X3043800D02*
D03*
X4034400D02*
D03*
X4161400D02*
D03*
X3907400D02*
D03*
X5660000D02*
D03*
X5787000D02*
D03*
X5533000D02*
D03*
X6447400D02*
D03*
X6574400D02*
D03*
X6320400D02*
D03*
X4847200D02*
D03*
X4974200D02*
D03*
X4720200D02*
D03*
D57*
X3526400Y7423000D02*
D03*
X4034400D02*
D03*
X5558400D02*
D03*
X6066400D02*
D03*
X4542400D02*
D03*
X5050400D02*
D03*
D58*
X1100000Y850000D02*
D03*
X2450000D02*
D03*
D59*
X2135000Y1450000D02*
D03*
X1415000D02*
D03*
D60*
X9500000Y7500000D02*
D03*
D61*
X500000D02*
D03*
D62*
Y500000D02*
D03*
D63*
X9500000D02*
D03*
D64*
X7844820Y5165840D02*
D03*
Y4815840D02*
D03*
Y4465840D02*
D03*
X8594820Y5165840D02*
D03*
Y4815840D02*
D03*
Y4465840D02*
D03*
D65*
X1754000Y6302000D02*
D03*
X1500000D02*
D03*
X992000D02*
D03*
X1246000D02*
D03*
X992000Y3000000D02*
D03*
X1246000D02*
D03*
X1754000D02*
D03*
X1500000D02*
D03*
D66*
X8934814Y3271520D02*
D03*
X8864354Y3278127D02*
D03*
X7984419Y2550979D02*
D03*
X7920919D02*
D03*
X8315979Y4821571D02*
D03*
X8379223Y4814845D02*
D03*
X8286679Y3291021D02*
D03*
X8341740Y3228340D02*
D03*
%TF.MD5,551c92971b8933fa71cfbff2b6593324*%
M02*
