G04*
G04 #@! TF.GenerationSoftware,Altium Limited,Altium Designer,23.4.1 (23)*
G04*
G04 Layer_Color=65535*
%FSLAX25Y25*%
%MOIN*%
G70*
G04*
G04 #@! TF.SameCoordinates,99A001A7-D63A-4E88-881B-6C0508A0781D*
G04*
G04*
G04 #@! TF.FilePolarity,Positive*
G04*
G01*
G75*
%ADD10C,0.00984*%
%ADD11C,0.00787*%
%ADD12C,0.02362*%
%ADD13C,0.01000*%
%ADD14C,0.01575*%
%ADD15C,0.00600*%
%ADD16C,0.00300*%
G36*
X194533Y129474D02*
X193533D01*
Y130974D01*
X194533D01*
Y129474D01*
D02*
G37*
G36*
X204278Y150561D02*
X205778D01*
Y151561D01*
X204278D01*
Y150561D01*
D02*
G37*
G36*
X212152Y117761D02*
X213652D01*
Y116761D01*
X212152D01*
Y117761D01*
D02*
G37*
G36*
X227333Y141285D02*
X228333D01*
Y142785D01*
X227333D01*
Y141285D01*
D02*
G37*
D10*
X125394Y131299D02*
G03*
X125394Y131299I-492J0D01*
G01*
X19272Y105512D02*
G03*
X19272Y105512I-492J0D01*
G01*
X18996Y92913D02*
G03*
X18996Y92913I-492J0D01*
G01*
X19272Y99213D02*
G03*
X19272Y99213I-492J0D01*
G01*
X18996Y86614D02*
G03*
X18996Y86614I-492J0D01*
G01*
X44783Y143110D02*
G03*
X44783Y143110I-492J0D01*
G01*
X123721Y138179D02*
G03*
X123721Y138179I-492J0D01*
G01*
X142124Y143610D02*
G03*
X142124Y143610I-492J0D01*
G01*
X218209Y3445D02*
G03*
X218209Y3445I-492J0D01*
G01*
X306791Y129429D02*
G03*
X306791Y129429I-492J0D01*
G01*
X263484D02*
G03*
X263484Y129429I-492J0D01*
G01*
X68315Y47547D02*
G03*
X68315Y47547I-492J0D01*
G01*
X154732Y54610D02*
G03*
X154732Y54610I-492J0D01*
G01*
D11*
X32039Y32795D02*
G03*
X32039Y32795I-1000J0D01*
G01*
X38976Y1969D02*
Y19291D01*
X121358Y152060D02*
X132972D01*
X38976Y1969D02*
X104724Y1969D01*
X102362Y21654D02*
X104724Y19291D01*
X91109Y24764D02*
X110276D01*
X121358Y148727D02*
Y152060D01*
X132972Y148727D02*
Y152060D01*
X49630Y102445D02*
Y110335D01*
X121358Y148727D02*
X132972D01*
X152180Y145480D02*
X155513D01*
X41339Y21654D02*
X102362Y21654D01*
X104724Y1969D02*
Y19291D01*
X185551Y172165D02*
Y182165D01*
Y172165D02*
X205551D01*
X30315Y51181D02*
X37402D01*
X38803Y132063D02*
Y141559D01*
X22244Y96260D02*
X28937D01*
X205551Y172165D02*
Y182165D01*
X122441Y186614D02*
X124803Y184252D01*
X38976Y19291D02*
X41339Y21654D01*
X185551Y182165D02*
X205551D01*
X157835Y5236D02*
Y15236D01*
X187835D01*
X67205Y171378D02*
Y181378D01*
X37205Y171378D02*
X67205D01*
X128347Y186614D02*
X179528D01*
X125984Y166929D02*
X181890D01*
X125984D02*
Y184252D01*
X181890Y166929D02*
Y184252D01*
X179528Y186614D02*
X181890Y184252D01*
X125984D02*
X128347Y186614D01*
X71260D02*
X122441D01*
X68898Y166929D02*
X124803D01*
X68898D02*
Y184252D01*
X155513Y133866D02*
Y145480D01*
X22343Y102264D02*
X28839D01*
X42889Y102445D02*
Y111941D01*
X22343Y108760D02*
X28839D01*
X112795Y5079D02*
Y25079D01*
X152795Y5079D02*
Y25079D01*
X80276Y24764D02*
Y44764D01*
X112795Y25079D02*
X152795D01*
X110276Y24764D02*
Y44764D01*
X112795Y5079D02*
X152795D01*
X80276Y44764D02*
X110276D01*
X80276Y24764D02*
X110276D01*
X241330Y42945D02*
X251008D01*
X241330Y29118D02*
X251008D01*
X123524Y113976D02*
Y125787D01*
X97539D02*
X123524D01*
X97539Y113976D02*
X123524D01*
X241330Y36055D02*
X251008D01*
X68898Y184252D02*
X71260Y186614D01*
X157835Y5236D02*
X187835D01*
X37992Y119980D02*
Y121752D01*
X175205Y140854D02*
Y143217D01*
X180520Y140854D02*
Y143217D01*
X346063Y165374D02*
X364173D01*
X241330Y36008D02*
X251008D01*
X28539Y51295D02*
X41539D01*
X346063Y176358D02*
X364173D01*
X190756Y140854D02*
Y143217D01*
X167677Y16654D02*
X187677D01*
Y26654D01*
X-6693Y118898D02*
X-394D01*
X28539Y34295D02*
Y51295D01*
X394Y118898D02*
X22835D01*
X187835Y5236D02*
Y15236D01*
X10827Y59055D02*
X17126D01*
X167677Y16654D02*
Y26654D01*
X187677D01*
X22244Y89567D02*
X28937D01*
X30315Y57480D02*
X37402D01*
X30905Y119980D02*
Y121752D01*
X32063Y132063D02*
Y141559D01*
X34449Y109449D02*
Y111417D01*
X185441Y140854D02*
Y143217D01*
X-6693Y118898D02*
Y164961D01*
X394D02*
X24016D01*
X-6693D02*
X-394D01*
X88681Y132480D02*
X89370D01*
X28539Y34295D02*
X41539D01*
X33465Y110433D02*
X35433D01*
X17126Y29921D02*
Y34252D01*
X41539Y34295D02*
Y51295D01*
X17126Y54725D02*
Y59055D01*
X97539Y113976D02*
Y125787D01*
X10827Y29921D02*
X17126D01*
X74803Y108071D02*
Y132480D01*
X88681Y108071D02*
X89370D01*
X74803Y132480D02*
X75492D01*
X89370Y108071D02*
Y132480D01*
X124803Y166929D02*
Y184252D01*
X22343Y95964D02*
X28839D01*
X49803Y116732D02*
X62402D01*
X54315Y34728D02*
X63796D01*
X46063Y166339D02*
X58268D01*
X46063Y146654D02*
X58268D01*
X54315Y47162D02*
X63796D01*
X77646Y146645D02*
X87324D01*
X184653Y127665D02*
X191543D01*
X102259Y146645D02*
X111937D01*
X162191Y152874D02*
X169081D01*
X241921Y60811D02*
X251599D01*
X74803Y108071D02*
X75492D01*
X119390Y58153D02*
X120784D01*
X111106Y86729D02*
X120784D01*
X22244Y83268D02*
X28937D01*
X22343Y102461D02*
X28839D01*
X22244Y89961D02*
X28937D01*
X110803Y46433D02*
X120299D01*
X62402Y116732D02*
Y143110D01*
X49803D02*
X62402D01*
X49803Y116732D02*
Y143110D01*
X67889Y47268D02*
X77386D01*
X67889Y40527D02*
X77386D01*
X144791Y120382D02*
X151878D01*
X274204Y19709D02*
X285457D01*
X274204Y12393D02*
X285457D01*
X89952Y146645D02*
X99630D01*
X143413Y120677D02*
X154043D01*
X184633Y134370D02*
X191522D01*
X241330Y105937D02*
X251008D01*
X241921Y67748D02*
X251599D01*
X185441Y118807D02*
Y121169D01*
X90830Y108350D02*
Y118028D01*
X97752Y112810D02*
Y118028D01*
X144791Y126681D02*
X151878D01*
X90437Y122523D02*
Y132201D01*
X123130Y65945D02*
Y78543D01*
X97359Y122523D02*
Y127820D01*
X190756Y118807D02*
Y121169D01*
X37205Y171378D02*
Y181378D01*
X267437Y98733D02*
Y100299D01*
X241327Y92110D02*
X251005D01*
X256397Y98733D02*
Y100299D01*
X37205Y181378D02*
X67205D01*
X150381Y152874D02*
X157270D01*
X228823Y108941D02*
Y118437D01*
X241921Y67700D02*
X251599D01*
X162213Y146169D02*
X169102D01*
X241921Y74638D02*
X251599D01*
X256397Y35740D02*
Y37307D01*
X152180Y133866D02*
X155513D01*
X235563Y108941D02*
Y118437D01*
X241327Y99047D02*
X251005D01*
X256397Y67237D02*
Y68803D01*
X267437Y67237D02*
Y68803D01*
X150401Y146169D02*
X157291D01*
X210515Y108398D02*
X220012D01*
X138569Y152874D02*
X145459D01*
X319687Y101484D02*
Y113295D01*
X314385D02*
X319687D01*
X195555Y107956D02*
X205051D01*
X314385Y31602D02*
X319687D01*
X314385Y19791D02*
Y31602D01*
X229307Y145693D02*
X239197D01*
X51599Y62771D02*
Y72268D01*
X119390Y53174D02*
X120299D01*
X44858Y62771D02*
Y72268D01*
X130397Y94875D02*
Y104371D01*
X195555Y114697D02*
X205051D01*
X319687Y19791D02*
Y31602D01*
X267437Y35740D02*
Y37307D01*
X152180Y133866D02*
Y145480D01*
X147351Y104339D02*
X154043D01*
X138590Y146169D02*
X145480D01*
X314385Y101484D02*
X319687D01*
X210515Y101657D02*
X220012D01*
X229200Y132260D02*
X239090D01*
X314385Y19791D02*
X319687D01*
X314385Y101484D02*
Y113295D01*
X241330Y99000D02*
X251008D01*
X223622Y51181D02*
X233858D01*
X201575D02*
X211811D01*
X233858D02*
X237795Y47244D01*
X197638D02*
X201575Y51181D01*
X197638Y11024D02*
Y47244D01*
X237795Y11024D02*
Y47244D01*
X197638Y11024D02*
X212303D01*
X223130D02*
X237795D01*
X312205Y177165D02*
X322441D01*
X290158D02*
X300394D01*
X322441D02*
X326378Y173228D01*
X286221D02*
X290158Y177165D01*
X286221Y137008D02*
Y173228D01*
X326378Y137008D02*
Y173228D01*
X286221Y137008D02*
X300886D01*
X311713D02*
X326378D01*
X268898Y177165D02*
X279134D01*
X246850D02*
X257087D01*
X279134D02*
X283071Y173228D01*
X242913D02*
X246850Y177165D01*
X242913Y137008D02*
Y173228D01*
X283071Y137008D02*
Y173228D01*
X242913Y137008D02*
X257579D01*
X268406D02*
X283071D01*
X63689Y55421D02*
X65264D01*
X101878D02*
X103453D01*
Y93610D02*
Y95185D01*
Y55421D02*
Y56996D01*
X63689Y95185D02*
X65264D01*
X101878D02*
X103453D01*
X63689Y93610D02*
Y95185D01*
Y55421D02*
Y56996D01*
X151681Y59555D02*
X152665D01*
X151681D02*
Y60539D01*
X176287Y59555D02*
X177272D01*
Y60539D01*
X151681Y100894D02*
X152665D01*
X151681Y99909D02*
Y100894D01*
X176287D02*
X177272D01*
Y99909D02*
Y100894D01*
X315175Y50315D02*
X319885D01*
X315175Y36511D02*
X319885D01*
X314680Y97559D02*
X319391D01*
X314680Y83755D02*
X319391D01*
X3941Y92913D02*
X7090D01*
X5515Y94488D02*
Y91339D01*
X11813Y95275D02*
X8664D01*
Y92913D01*
X10238Y93700D01*
X11025D01*
X11813Y92913D01*
Y91339D01*
X11025Y90552D01*
X9451D01*
X8664Y91339D01*
X13387Y95275D02*
Y92126D01*
X14961Y90552D01*
X16535Y92126D01*
Y95275D01*
X12992Y64566D02*
X13779Y65354D01*
X15354D01*
X16141Y64566D01*
Y63779D01*
X15354Y62992D01*
X14566D01*
X15354D01*
X16141Y62205D01*
Y61418D01*
X15354Y60631D01*
X13779D01*
X12992Y61418D01*
X16141Y66536D02*
X12992D01*
X16141Y69685D01*
Y70472D01*
X15354Y71259D01*
X13779D01*
X12992Y70472D01*
X14566Y72442D02*
X16141D01*
X15354D01*
Y77165D01*
X14566Y76377D01*
X12992Y82283D02*
X13779Y83070D01*
X15354D01*
X16141Y82283D01*
Y79134D01*
X15354Y78347D01*
X13779D01*
X12992Y79134D01*
Y82283D01*
X3939Y86614D02*
X7088D01*
X5513Y88188D02*
Y85040D01*
X8662Y88188D02*
X9449Y88976D01*
X11023D01*
X11811Y88188D01*
Y87401D01*
X11023Y86614D01*
X10236D01*
X11023D01*
X11811Y85827D01*
Y85040D01*
X11023Y84253D01*
X9449D01*
X8662Y85040D01*
X13385Y88976D02*
Y85827D01*
X14959Y84253D01*
X16533Y85827D01*
Y88976D01*
X7088Y101574D02*
X3939D01*
Y99213D01*
X5513D01*
X3939D01*
Y96851D01*
X8662Y101574D02*
Y96851D01*
X11811D01*
X13385Y101574D02*
X16533D01*
X14959D01*
Y96851D01*
X11811Y107086D02*
X11023Y107873D01*
X9449D01*
X8662Y107086D01*
Y106299D01*
X9449Y105512D01*
X11023D01*
X11811Y104725D01*
Y103937D01*
X11023Y103150D01*
X9449D01*
X8662Y103937D01*
X13385Y107873D02*
X16533D01*
X14959D01*
Y103150D01*
D12*
X120768Y121850D02*
G03*
X120768Y121850I-1181J0D01*
G01*
D13*
X373228Y28740D02*
G03*
X391732Y46850I197J18307D01*
G01*
X355512Y47244D02*
G03*
X373622Y28740I18307J-197D01*
G01*
X373228Y109055D02*
G03*
X368879Y108579I-197J-18307D01*
G01*
X391732Y90551D02*
G03*
X373622Y109055I-18307J197D01*
G01*
X368701Y108465D02*
Y110630D01*
X336811Y48819D02*
X355512D01*
Y47244D02*
Y48819D01*
X336811D02*
Y110630D01*
X368701D01*
X391732Y46850D02*
Y90551D01*
D14*
X19094Y73228D02*
Y76378D01*
Y67323D02*
Y70472D01*
Y79134D02*
Y82284D01*
Y61417D02*
Y64567D01*
D15*
X222586Y119861D02*
X225233D01*
X222586Y148461D02*
X225233D01*
X196633Y145814D02*
Y148461D01*
Y119861D02*
X201249D01*
X225233D02*
Y122509D01*
Y145814D02*
Y148461D01*
X196633D02*
X199281D01*
X196633Y119861D02*
Y122509D01*
X286234Y37798D02*
Y38499D01*
X273034Y37798D02*
X282134D01*
X273034Y50296D02*
Y50998D01*
X281694Y37798D02*
X286234D01*
X273034D02*
Y38499D01*
Y50998D02*
X277574D01*
X286234Y50296D02*
Y50998D01*
X277574D02*
X286234D01*
X273034Y22050D02*
X281694D01*
X273034D02*
Y22751D01*
X281694Y22050D02*
X286234D01*
Y34548D02*
Y35250D01*
X273034D02*
X277574D01*
X286234Y22050D02*
Y22751D01*
X277134Y35250D02*
X286234D01*
X273034Y34548D02*
Y35250D01*
X286234Y69294D02*
Y69995D01*
X273034Y69294D02*
X282134D01*
X273034Y81792D02*
Y82494D01*
X281694Y69294D02*
X286234D01*
X273034D02*
Y69995D01*
Y82494D02*
X277574D01*
X286234Y81792D02*
Y82494D01*
X277574D02*
X286234D01*
X273034Y66044D02*
Y66746D01*
X277134D02*
X286234D01*
Y53546D02*
Y54247D01*
X273034Y66746D02*
X277574D01*
X286234Y66044D02*
Y66746D01*
X281694Y53546D02*
X286234D01*
X273034D02*
Y54247D01*
Y53546D02*
X281694D01*
X286234Y100790D02*
Y101491D01*
X273034Y100790D02*
X282134D01*
X273034Y113288D02*
Y113990D01*
X281694Y100790D02*
X286234D01*
X273034D02*
Y101491D01*
Y113990D02*
X277574D01*
X286234Y113288D02*
Y113990D01*
X277574D02*
X286234D01*
X273034Y97540D02*
Y98242D01*
X277134D02*
X286234D01*
Y85042D02*
Y85743D01*
X273034Y98242D02*
X277574D01*
X286234Y97540D02*
Y98242D01*
X281694Y85042D02*
X286234D01*
X273034D02*
Y85743D01*
Y85042D02*
X281694D01*
D16*
X232283Y121425D02*
X228951Y124758D01*
X232283D02*
X228951Y121425D01*
X232283Y123091D02*
X228951D01*
X230617Y124758D02*
Y121425D01*
M02*
