G04*
G04 #@! TF.GenerationSoftware,Altium Limited,Altium Designer,23.4.1 (23)*
G04*
G04 Layer_Color=16711935*
%FSLAX25Y25*%
%MOIN*%
G70*
G04*
G04 #@! TF.SameCoordinates,99A001A7-D63A-4E88-881B-6C0508A0781D*
G04*
G04*
G04 #@! TF.FilePolarity,Negative*
G04*
G01*
G75*
%ADD97R,0.27559X0.27559*%
%ADD98R,0.06693X0.06693*%
%ADD99C,0.06693*%
%ADD100C,0.06988*%
%ADD101R,0.06988X0.06988*%
G04:AMPARAMS|DCode=102|XSize=204.72mil|YSize=204.72mil|CornerRadius=53.15mil|HoleSize=0mil|Usage=FLASHONLY|Rotation=270.000|XOffset=0mil|YOffset=0mil|HoleType=Round|Shape=RoundedRectangle|*
%AMROUNDEDRECTD102*
21,1,0.20472,0.09843,0,0,270.0*
21,1,0.09843,0.20472,0,0,270.0*
1,1,0.10630,-0.04921,-0.04921*
1,1,0.10630,-0.04921,0.04921*
1,1,0.10630,0.04921,0.04921*
1,1,0.10630,0.04921,-0.04921*
%
%ADD102ROUNDEDRECTD102*%
%ADD103R,0.06988X0.06988*%
%ADD104C,0.02756*%
%ADD105C,0.02559*%
%ADD106C,0.16548*%
D97*
X373288Y147244D02*
D03*
X344488D02*
D03*
D98*
X147795Y20079D02*
D03*
X85276Y29764D02*
D03*
X190551Y177165D02*
D03*
X42205Y176378D02*
D03*
X182835Y10236D02*
D03*
X182677Y21654D02*
D03*
D99*
X117795Y10079D02*
D03*
X147795D02*
D03*
X137795Y20079D02*
D03*
Y10079D02*
D03*
X127795Y20079D02*
D03*
Y10079D02*
D03*
X117795Y20079D02*
D03*
X95276Y29764D02*
D03*
Y39764D02*
D03*
X105276Y29764D02*
D03*
Y39764D02*
D03*
X85276D02*
D03*
X52205Y176378D02*
D03*
X62205D02*
D03*
X172835Y10236D02*
D03*
X162835D02*
D03*
X200551Y177165D02*
D03*
X172677Y21654D02*
D03*
D100*
X86614Y11811D02*
D03*
X76772D02*
D03*
X66929D02*
D03*
X57087D02*
D03*
X96457D02*
D03*
X173622Y176772D02*
D03*
X163779D02*
D03*
X153937D02*
D03*
X144095D02*
D03*
X116535D02*
D03*
X106693D02*
D03*
X96850D02*
D03*
X87008D02*
D03*
X24016Y146850D02*
D03*
Y137008D02*
D03*
Y127165D02*
D03*
D101*
X47244Y11811D02*
D03*
X134252Y176772D02*
D03*
X77165D02*
D03*
D102*
X373622Y68898D02*
D03*
Y47244D02*
D03*
Y90551D02*
D03*
X352756Y65551D02*
D03*
Y93898D02*
D03*
D103*
X24016Y156693D02*
D03*
D104*
X15551Y52658D02*
D03*
Y36319D02*
D03*
D105*
X382186Y138386D02*
D03*
X385138D02*
D03*
Y141339D02*
D03*
Y159055D02*
D03*
Y156103D02*
D03*
Y153150D02*
D03*
Y150197D02*
D03*
Y147244D02*
D03*
Y144292D02*
D03*
Y135433D02*
D03*
X382186Y159055D02*
D03*
Y156103D02*
D03*
Y135433D02*
D03*
X379233Y159055D02*
D03*
Y135433D02*
D03*
X376280Y159055D02*
D03*
Y135433D02*
D03*
X373327Y159055D02*
D03*
Y135433D02*
D03*
X370375Y159055D02*
D03*
Y135433D02*
D03*
X367422Y159055D02*
D03*
Y135433D02*
D03*
X364469Y159055D02*
D03*
Y156103D02*
D03*
Y138386D02*
D03*
Y135433D02*
D03*
X361516Y159055D02*
D03*
Y156103D02*
D03*
Y153150D02*
D03*
Y150197D02*
D03*
Y147244D02*
D03*
Y144292D02*
D03*
Y141339D02*
D03*
Y138386D02*
D03*
Y135433D02*
D03*
X170276Y93504D02*
D03*
Y89567D02*
D03*
Y85630D02*
D03*
Y81693D02*
D03*
Y77756D02*
D03*
Y73819D02*
D03*
Y69882D02*
D03*
Y65945D02*
D03*
X166339Y93504D02*
D03*
Y89567D02*
D03*
Y85630D02*
D03*
Y81693D02*
D03*
Y77756D02*
D03*
Y73819D02*
D03*
Y69882D02*
D03*
Y65945D02*
D03*
X162402Y93504D02*
D03*
Y89567D02*
D03*
Y85630D02*
D03*
Y81693D02*
D03*
Y77756D02*
D03*
Y73819D02*
D03*
Y69882D02*
D03*
Y65945D02*
D03*
X158465Y93504D02*
D03*
Y89567D02*
D03*
Y85630D02*
D03*
Y81693D02*
D03*
Y77756D02*
D03*
Y73819D02*
D03*
Y69882D02*
D03*
Y65945D02*
D03*
X215158Y137992D02*
D03*
Y134055D02*
D03*
Y130118D02*
D03*
X211221Y137992D02*
D03*
Y134055D02*
D03*
Y130118D02*
D03*
X207284Y137992D02*
D03*
Y134055D02*
D03*
Y130118D02*
D03*
D106*
X381890Y11811D02*
D03*
Y177165D02*
D03*
X11811D02*
D03*
Y11811D02*
D03*
M02*
