G04*
G04 #@! TF.GenerationSoftware,Altium Limited,Altium Designer,23.4.1 (23)*
G04*
G04 Layer_Color=16711935*
%FSLAX25Y25*%
%MOIN*%
G70*
G04*
G04 #@! TF.SameCoordinates,99A001A7-D63A-4E88-881B-6C0508A0781D*
G04*
G04*
G04 #@! TF.FilePolarity,Positive*
G04*
G01*
G75*
%ADD11C,0.00787*%
%ADD16C,0.00300*%
%ADD131C,0.00394*%
%ADD132C,0.00100*%
D11*
X22244Y107283D02*
X28937D01*
Y103740D02*
Y107283D01*
X22244Y103740D02*
X28937D01*
X22244D02*
Y107283D01*
X47835Y104043D02*
Y110343D01*
X44685Y104043D02*
X47835D01*
X44685D02*
Y110343D01*
X47835D01*
X197638Y11024D02*
X237795D01*
Y51181D01*
X197638D02*
X237795D01*
X197638Y11024D02*
Y51181D01*
X286221Y137008D02*
X326378D01*
Y177165D01*
X286221D02*
X326378D01*
X286221Y137008D02*
Y177165D01*
X242913Y137008D02*
X283071D01*
Y177165D01*
X242913D02*
X283071D01*
X242913Y137008D02*
Y177165D01*
X121358Y144882D02*
X132972D01*
Y155905D01*
X121358D02*
X132972D01*
X121358Y144882D02*
Y155905D01*
X148335Y145480D02*
X159358D01*
Y133866D02*
Y145480D01*
X148335Y133866D02*
X159358D01*
X148335D02*
Y145480D01*
X138590Y147646D02*
X145480D01*
X138590D02*
Y151386D01*
X145480D01*
Y147646D02*
Y151386D01*
X150401Y147646D02*
X157291D01*
X150401D02*
Y151386D01*
X157291D01*
Y147646D02*
Y151386D01*
X37992Y114173D02*
Y127559D01*
X30905Y114173D02*
X37992D01*
X30905D02*
Y127559D01*
X37992D01*
X33858Y133661D02*
Y139961D01*
X37008D01*
Y133661D02*
Y139961D01*
X33858Y133661D02*
X37008D01*
X346063Y165374D02*
Y176358D01*
Y165374D02*
X364173D01*
Y176358D01*
X346063D02*
X364173D01*
X243020Y41051D02*
X249319D01*
Y37901D02*
Y41051D01*
X243020Y37901D02*
X249319D01*
X243020D02*
Y41051D01*
X243020Y34161D02*
X249319D01*
Y31012D02*
Y34161D01*
X243020Y31012D02*
X249319D01*
X243020D02*
Y34161D01*
X22244Y91142D02*
Y94685D01*
Y91142D02*
X28937D01*
Y94685D01*
X22244D02*
X28937D01*
X30315Y52362D02*
X37402D01*
X30315D02*
Y56299D01*
X37402D01*
Y52362D02*
Y56299D01*
X74803Y108071D02*
Y132480D01*
X89370D01*
Y108071D02*
Y132480D01*
X74803Y108071D02*
X89370D01*
X60039Y146654D02*
Y166339D01*
X44291D02*
X60039D01*
X44291Y146654D02*
Y166339D01*
Y146654D02*
X60039D01*
X56004Y42126D02*
Y45276D01*
Y42126D02*
X62106D01*
Y45276D01*
X56004D02*
X62106D01*
X56004Y36614D02*
Y39764D01*
Y36614D02*
X62106D01*
Y39764D01*
X56004D02*
X62106D01*
X22244Y97441D02*
Y100984D01*
Y97441D02*
X28937D01*
Y100984D01*
X22244D02*
X28937D01*
X22244Y88386D02*
X28937D01*
Y84842D02*
Y88386D01*
X22244Y84842D02*
X28937D01*
X22244D02*
Y88386D01*
X46654Y64370D02*
X49803D01*
Y70669D01*
X46654D02*
X49803D01*
X46654Y64370D02*
Y70669D01*
X112401Y48228D02*
Y51378D01*
Y48228D02*
X118701D01*
Y51378D01*
X112401D02*
X118701D01*
X69488Y42323D02*
Y45472D01*
Y42323D02*
X75787D01*
Y45472D01*
X69488D02*
X75787D01*
X119095Y60039D02*
Y63189D01*
X112795D02*
X119095D01*
X112795Y60039D02*
Y63189D01*
Y60039D02*
X119095D01*
X112795Y81693D02*
Y84842D01*
Y81693D02*
X119095D01*
Y84842D01*
X112795D02*
X119095D01*
X92323Y124213D02*
Y130512D01*
X95472D01*
Y124213D02*
Y130512D01*
X92323Y124213D02*
X95472D01*
X92716Y110039D02*
Y116339D01*
X95866D01*
Y110039D02*
Y116339D01*
X92716Y110039D02*
X95866D01*
X110827Y78740D02*
X121063D01*
X110827Y65748D02*
Y78740D01*
Y65748D02*
X121063D01*
Y78740D01*
X63689Y55421D02*
X103453D01*
Y95185D01*
X63689D02*
X103453D01*
X63689Y55421D02*
Y95185D01*
X151681Y59555D02*
X177272D01*
Y100894D01*
X151681D02*
X177272D01*
X151681Y59555D02*
Y100894D01*
X276681Y14476D02*
Y17626D01*
Y14476D02*
X282980D01*
Y17626D01*
X276681D02*
X282980D01*
X144791Y121563D02*
Y125500D01*
Y121563D02*
X151878D01*
Y125500D01*
X144791D02*
X151878D01*
X97941Y148531D02*
Y151681D01*
X91642D02*
X97941D01*
X91642Y148531D02*
Y151681D01*
Y148531D02*
X97941D01*
X110248Y148531D02*
Y151681D01*
X103948D02*
X110248D01*
X103948Y148531D02*
Y151681D01*
Y148531D02*
X110248D01*
X85634D02*
Y151681D01*
X79335D02*
X85634D01*
X79335Y148531D02*
Y151681D01*
Y148531D02*
X85634D01*
X169102Y147646D02*
Y151386D01*
X162213D02*
X169102D01*
X162213Y147646D02*
Y151386D01*
Y147646D02*
X169102D01*
X132193Y102772D02*
X135343D01*
X132193Y96473D02*
Y102772D01*
Y96473D02*
X135343D01*
Y102772D01*
X230995Y134252D02*
Y137402D01*
Y134252D02*
X237295D01*
Y137402D01*
X230995D02*
X237295D01*
X231102Y140551D02*
Y143701D01*
Y140551D02*
X237402D01*
Y143701D01*
X231102D02*
X237402D01*
X197153Y109752D02*
Y112902D01*
Y109752D02*
X203453D01*
Y112902D01*
X197153D02*
X203453D01*
X218413Y103453D02*
Y106602D01*
X212114D02*
X218413D01*
X212114Y103453D02*
Y106602D01*
Y103453D02*
X218413D01*
X191543Y129142D02*
Y132882D01*
X184653D02*
X191543D01*
X184653Y129142D02*
Y132882D01*
Y129142D02*
X191543D01*
X230618Y116839D02*
X233768D01*
X230618Y110539D02*
Y116839D01*
Y110539D02*
X233768D01*
Y116839D01*
X143413Y119201D02*
X154043D01*
X143413Y105815D02*
Y119201D01*
Y105815D02*
X154043D01*
Y119201D01*
X304932Y37114D02*
Y49713D01*
Y37114D02*
X330129D01*
Y49713D01*
X304932D02*
X330129D01*
X243610Y69594D02*
Y72744D01*
Y69594D02*
X249909D01*
Y72744D01*
X243610D02*
X249909D01*
X243610Y62705D02*
Y65854D01*
Y62705D02*
X249909D01*
Y65854D01*
X243610D02*
X249909D01*
X304437Y84358D02*
Y96957D01*
Y84358D02*
X329634D01*
Y96957D01*
X304437D02*
X329634D01*
X243020Y100894D02*
Y104043D01*
Y100894D02*
X249319D01*
Y104043D01*
X243020D02*
X249319D01*
X243016Y94004D02*
Y97154D01*
Y94004D02*
X249316D01*
Y97154D01*
X243016D02*
X249316D01*
X256996Y93216D02*
X266839D01*
Y105815D01*
X256996D02*
X266839D01*
X256996Y93216D02*
Y105815D01*
X256996Y61721D02*
X266839D01*
Y74319D01*
X256996D02*
X266839D01*
X256996Y61721D02*
Y74319D01*
X256996Y30224D02*
X266839D01*
Y42823D01*
X256996D02*
X266839D01*
X256996Y30224D02*
Y42823D01*
X322941Y19791D02*
Y31602D01*
X311130D02*
X322941D01*
X311130Y19791D02*
Y31602D01*
Y19791D02*
X322941D01*
X322941Y101484D02*
Y113295D01*
X311130D02*
X322941D01*
X311130Y101484D02*
Y113295D01*
Y101484D02*
X322941D01*
D16*
X224183Y121669D02*
X220851Y125002D01*
X224183D02*
X220851Y121669D01*
X224183Y123335D02*
X220851D01*
X222517Y125002D02*
Y121669D01*
D131*
X121949Y125197D02*
G03*
X121949Y125197I-1969J0D01*
G01*
X32776Y61122D02*
Y64862D01*
X39665Y61122D02*
Y64862D01*
X32776D02*
X39665D01*
X32776Y61122D02*
X39665D01*
X32776Y67028D02*
Y70768D01*
X39665Y67028D02*
Y70768D01*
X32776D02*
X39665D01*
X32776Y67028D02*
X39665D01*
X32776Y72933D02*
Y76673D01*
X39665Y72933D02*
Y76673D01*
X32776D02*
X39665D01*
X32776Y72933D02*
X39665D01*
X32776Y78839D02*
Y82579D01*
X39665Y78839D02*
Y82579D01*
X32776D02*
X39665D01*
X32776Y78839D02*
X39665D01*
X56791Y111417D02*
Y114961D01*
X50098Y111417D02*
Y114961D01*
Y111417D02*
X56791D01*
X50098Y114961D02*
X56791D01*
X22441Y61417D02*
X28740D01*
X22441Y64567D02*
X28740D01*
Y61417D02*
Y64567D01*
X22441Y61417D02*
Y64567D01*
Y67323D02*
X28740D01*
X22441Y70472D02*
X28740D01*
Y67323D02*
Y70472D01*
X22441Y67323D02*
Y70472D01*
Y79134D02*
X28740D01*
X22441Y82284D02*
X28740D01*
Y79134D02*
Y82284D01*
X22441Y79134D02*
Y82284D01*
Y73228D02*
X28740D01*
X22441Y76378D02*
X28740D01*
Y73228D02*
Y76378D01*
X22441Y73228D02*
Y76378D01*
X166543Y155520D02*
Y162409D01*
X170283Y155520D02*
Y162409D01*
X166543Y155520D02*
X170283D01*
X166543Y162409D02*
X170283D01*
X160638Y162409D02*
X164378D01*
X160638Y155520D02*
X164378D01*
Y162409D01*
X160638Y155520D02*
Y162409D01*
X154732Y155520D02*
Y162409D01*
X158473Y155520D02*
Y162409D01*
X154732Y155520D02*
X158473D01*
X154732Y162409D02*
X158473D01*
X148827Y162409D02*
X152567D01*
X148827Y155520D02*
X152567D01*
Y162409D01*
X148827Y155520D02*
Y162409D01*
X142921Y155421D02*
Y162311D01*
X146661Y155421D02*
Y162311D01*
X142921Y155421D02*
X146661D01*
X142921Y162311D02*
X146661D01*
X137016Y162409D02*
X140756D01*
X137016Y155520D02*
X140756D01*
Y162409D01*
X137016Y155520D02*
Y162409D01*
X90166Y155716D02*
Y162606D01*
X93906Y155716D02*
Y162606D01*
X90166Y155716D02*
X93906D01*
X90166Y162606D02*
X93906D01*
X190953Y137705D02*
Y146366D01*
X185244Y137705D02*
Y146366D01*
X190953D01*
X185244Y137705D02*
X190953D01*
X175008D02*
X180717D01*
X175008Y146366D02*
X180717D01*
X175008Y137705D02*
Y146366D01*
X180717Y137705D02*
Y146366D01*
X97539Y128740D02*
X123524D01*
X97539Y111024D02*
X123524D01*
Y128740D01*
X97539Y111024D02*
Y128740D01*
X32776Y97343D02*
X39665D01*
X32776Y101083D02*
X39665D01*
Y97343D02*
Y101083D01*
X32776Y97343D02*
Y101083D01*
X191437Y93799D02*
Y97539D01*
X198327Y93799D02*
Y97539D01*
X191437D02*
X198327D01*
X191437Y93799D02*
X198327D01*
X202854D02*
Y97539D01*
X209744Y93799D02*
Y97539D01*
X202854D02*
X209744D01*
X202854Y93799D02*
X209744D01*
X299516Y18413D02*
Y25106D01*
X303059Y18413D02*
Y25106D01*
X299516Y18413D02*
X303059D01*
X299516Y25106D02*
X303059D01*
Y108965D02*
Y115657D01*
X299516Y108965D02*
Y115657D01*
X303059D01*
X299516Y108965D02*
X303059D01*
X67323Y149606D02*
X70866D01*
X67323Y156299D02*
X70866D01*
X67323Y149606D02*
Y156299D01*
X70866Y149606D02*
Y156299D01*
X31693Y168701D02*
X35236D01*
X31693Y162008D02*
X35236D01*
Y168701D01*
X31693Y162008D02*
Y168701D01*
X127165Y112598D02*
X133858D01*
X127165Y109055D02*
X133858D01*
X127165D02*
Y112598D01*
X133858Y109055D02*
Y112598D01*
X-4921Y29429D02*
X-4429Y28740D01*
X-4921Y29429D02*
X-2559Y30906D01*
X-4429Y28740D02*
X-2559Y29921D01*
X17126D01*
Y59055D01*
X-2559D02*
X17126D01*
X-4429Y60236D02*
X-2559Y59055D01*
X-4921Y59547D02*
X-2559Y58071D01*
X-4921Y59547D02*
X-4429Y60236D01*
X-4921Y32283D02*
Y56693D01*
Y32283D02*
X-2559D01*
Y30906D02*
Y32283D01*
X-4921Y56693D02*
X-2559D01*
Y58071D01*
X17126Y44980D02*
X18307D01*
Y43996D02*
Y44980D01*
X17126Y43996D02*
X18307D01*
X17126Y46555D02*
X18307D01*
Y47539D01*
X17126D02*
X18307D01*
X17126Y49114D02*
X18307D01*
Y50099D01*
X17126D02*
X18307D01*
X17126Y41437D02*
X18307D01*
Y42421D01*
X17126D02*
X18307D01*
X17126Y38878D02*
X18307D01*
Y39862D01*
X17126D02*
X18307D01*
X48819Y116732D02*
Y143110D01*
X63386Y116732D02*
Y143110D01*
X48819D02*
X63386D01*
X48819Y116732D02*
X63386D01*
X32776Y103642D02*
Y107382D01*
X39665Y103642D02*
Y107382D01*
X32776D02*
X39665D01*
X32776Y103642D02*
X39665D01*
X127067Y114469D02*
X133957D01*
X127067Y118209D02*
X133957D01*
Y114469D02*
Y118209D01*
X127067Y114469D02*
Y118209D01*
X32776Y84744D02*
X39665D01*
X32776Y88484D02*
X39665D01*
Y84744D02*
Y88484D01*
X32776Y84744D02*
Y88484D01*
X32776Y91043D02*
X39665D01*
X32776Y94784D02*
X39665D01*
Y91043D02*
Y94784D01*
X32776Y91043D02*
Y94784D01*
X105610Y99606D02*
X112303D01*
X105610Y96063D02*
X112303D01*
X105610D02*
Y99606D01*
X112303Y96063D02*
Y99606D01*
X52756Y66043D02*
Y72736D01*
X56299Y66043D02*
Y72736D01*
X52756Y66043D02*
X56299D01*
X52756Y72736D02*
X56299D01*
X56299Y84252D02*
Y90945D01*
X52756Y84252D02*
Y90945D01*
X56299D01*
X52756Y84252D02*
X56299D01*
X48819Y77559D02*
X55512D01*
X48819Y81102D02*
X55512D01*
Y77559D02*
Y81102D01*
X48819Y77559D02*
Y81102D01*
X246555Y17028D02*
X253445D01*
X246555Y20768D02*
X253445D01*
Y17028D02*
Y20768D01*
X246555Y17028D02*
Y20768D01*
X258079Y12016D02*
X264969D01*
X258079Y15756D02*
X264969D01*
Y12016D02*
Y15756D01*
X258079Y12016D02*
Y15756D01*
X184260Y29535D02*
Y36425D01*
X188000Y29535D02*
Y36425D01*
X184260Y29535D02*
X188000D01*
X184260Y36425D02*
X188000D01*
X193906Y29535D02*
Y36425D01*
X190165Y29535D02*
Y36425D01*
X193906D01*
X190165Y29535D02*
X193906D01*
X192134Y153945D02*
X195874D01*
X192134Y160835D02*
X195874D01*
X192134Y153945D02*
Y160835D01*
X195874Y153945D02*
Y160835D01*
X145313Y95116D02*
Y98856D01*
X138423Y95116D02*
Y98856D01*
Y95116D02*
X145313D01*
X138423Y98856D02*
X145313D01*
X88000Y155717D02*
Y162606D01*
X84260Y155717D02*
Y162606D01*
X88000D01*
X84260Y155717D02*
X88000D01*
X111622Y155717D02*
Y162606D01*
X107882Y155717D02*
Y162606D01*
X111622D01*
X107882Y155717D02*
X111622D01*
X99811Y155717D02*
Y162606D01*
X96071Y155717D02*
Y162606D01*
X99811D01*
X96071Y155717D02*
X99811D01*
X101977Y155716D02*
Y162606D01*
X105717Y155716D02*
Y162606D01*
X101977Y155716D02*
X105717D01*
X101977Y162606D02*
X105717D01*
X78355Y155716D02*
Y162606D01*
X82095Y155716D02*
Y162606D01*
X78355Y155716D02*
X82095D01*
X78355Y162606D02*
X82095D01*
X246563Y12114D02*
X253256D01*
X246563Y15657D02*
X253256D01*
Y12114D02*
Y15657D01*
X246563Y12114D02*
Y15657D01*
X185539Y43413D02*
X192232D01*
X185539Y39870D02*
X192232D01*
X185539D02*
Y43413D01*
X192232Y39870D02*
Y43413D01*
X118701Y152953D02*
Y159646D01*
X115157Y152953D02*
Y159646D01*
X118701D01*
X115157Y152953D02*
X118701D01*
X167429Y136327D02*
Y143020D01*
X170973Y136327D02*
Y143020D01*
X167429Y136327D02*
X170973D01*
X167429Y143020D02*
X170973D01*
X137901Y110343D02*
Y117035D01*
X141445Y110343D02*
Y117035D01*
X137901Y110343D02*
X141445D01*
X137901Y117035D02*
X141445D01*
X190756Y64969D02*
X197646D01*
X190756Y68709D02*
X197646D01*
Y64969D02*
Y68709D01*
X190756Y64969D02*
Y68709D01*
X189862Y55709D02*
X193603D01*
X189862Y62598D02*
X193603D01*
X189862Y55709D02*
Y62598D01*
X193603Y55709D02*
Y62598D01*
X306701Y13000D02*
Y16740D01*
X313591Y13000D02*
Y16740D01*
X306701D02*
X313591D01*
X306701Y13000D02*
X313591D01*
X306701Y116347D02*
Y120087D01*
X313591Y116347D02*
Y120087D01*
X306701D02*
X313591D01*
X306701Y116347D02*
X313591D01*
X190264Y74909D02*
X196957D01*
X190264Y71366D02*
X196957D01*
X190264D02*
Y74909D01*
X196957Y71366D02*
Y74909D01*
X205224Y157587D02*
X211917D01*
X205224Y161130D02*
X211917D01*
Y157587D02*
Y161130D01*
X205224Y157587D02*
Y161130D01*
X150401Y42429D02*
Y51091D01*
X144693Y42429D02*
Y51091D01*
X150401D01*
X144693Y42429D02*
X150401D01*
X168217Y107587D02*
Y114280D01*
X171760Y107587D02*
Y114280D01*
X168217Y107587D02*
X171760D01*
X168217Y114280D02*
X171760D01*
X138689Y100106D02*
X145382D01*
X138689Y103650D02*
X145382D01*
Y100106D02*
Y103650D01*
X138689Y100106D02*
Y103650D01*
X138189Y85039D02*
X144882D01*
X138189Y88583D02*
X144882D01*
Y85039D02*
Y88583D01*
X138189Y85039D02*
Y88583D01*
X157283Y45079D02*
Y51772D01*
X153740Y45079D02*
Y51772D01*
X157283D01*
X153740Y45079D02*
X157283D01*
X138583Y66535D02*
X145275D01*
X138583Y70079D02*
X145275D01*
Y66535D02*
Y70079D01*
X138583Y66535D02*
Y70079D01*
X178150Y46654D02*
Y53346D01*
X174606Y46654D02*
Y53346D01*
X178150D01*
X174606Y46654D02*
X178150D01*
X190953Y115657D02*
Y124319D01*
X185244Y115657D02*
Y124319D01*
X190953D01*
X185244Y115657D02*
X190953D01*
X185933Y80815D02*
X192626D01*
X185933Y77272D02*
X192626D01*
X185933D02*
Y80815D01*
X192626Y77272D02*
Y80815D01*
X198728Y84260D02*
X207390D01*
X198728Y78551D02*
X207390D01*
X198728D02*
Y84260D01*
X207390Y78551D02*
Y84260D01*
X186327Y55224D02*
Y61917D01*
X182783Y55224D02*
Y61917D01*
X186327D01*
X182783Y55224D02*
X186327D01*
X162311Y107587D02*
Y114279D01*
X165854Y107587D02*
Y114279D01*
X162311Y107587D02*
X165854D01*
X162311Y114279D02*
X165854D01*
X138091Y79528D02*
X144783D01*
X138091Y83071D02*
X144783D01*
Y79528D02*
Y83071D01*
X138091Y79528D02*
Y83071D01*
X320480Y16740D02*
X327370D01*
X320480Y13000D02*
X327370D01*
X320480D02*
Y16740D01*
X327370Y13000D02*
Y16740D01*
X331012Y22350D02*
Y29043D01*
X334555Y22350D02*
Y29043D01*
X331012Y22350D02*
X334555D01*
X331012Y29043D02*
X334555D01*
X320283Y120087D02*
X327173D01*
X320283Y116346D02*
X327173D01*
X320283D02*
Y120087D01*
X327173Y116346D02*
Y120087D01*
X331012Y104043D02*
Y110736D01*
X334555Y104043D02*
Y110736D01*
X331012Y104043D02*
X334555D01*
X331012Y110736D02*
X334555D01*
X110925Y53839D02*
Y57579D01*
X117815Y53839D02*
Y57579D01*
X110925D02*
X117815D01*
X110925Y53839D02*
X117815D01*
X56299Y53150D02*
Y59843D01*
X52756Y53150D02*
Y59843D01*
X56299D01*
X52756Y53150D02*
X56299D01*
D132*
X219733Y120361D02*
X224733Y125361D01*
X200590Y120361D02*
X201590D01*
X200590D02*
X201590D01*
X202559D02*
X203559D01*
X202559D02*
X203559D01*
X204527D02*
X205527D01*
X204527D02*
X205527D01*
X206496D02*
X207496D01*
X206496D02*
X207496D01*
X208465D02*
X209465D01*
X208465D02*
X209465D01*
X210433D02*
X211433D01*
X210433D02*
X211433D01*
X212402D02*
X213402D01*
X212402D02*
X213402D01*
X214370D02*
X215370D01*
X214370D02*
X215370D01*
X216339D02*
X217339D01*
X216339D02*
X217339D01*
X218307D02*
X219307D01*
X218307D02*
X219307D01*
X220276D02*
X221276D01*
X220276D02*
X221276D01*
X224733Y123819D02*
Y124819D01*
Y123819D02*
Y124819D01*
Y125787D02*
Y126787D01*
Y125787D02*
Y126787D01*
Y129724D02*
Y130724D01*
Y129724D02*
Y130724D01*
Y131693D02*
Y132693D01*
Y131693D02*
Y132693D01*
Y133661D02*
Y134661D01*
Y133661D02*
Y134661D01*
Y135630D02*
Y136630D01*
Y135630D02*
Y136630D01*
Y137598D02*
Y138598D01*
Y137598D02*
Y138598D01*
Y139567D02*
Y140567D01*
Y139567D02*
Y140567D01*
Y141535D02*
Y142535D01*
Y141535D02*
Y142535D01*
Y143504D02*
Y144504D01*
Y143504D02*
Y144504D01*
X220276Y147961D02*
X221276D01*
X220276D02*
X221276D01*
X218307D02*
X219307D01*
X218307D02*
X219307D01*
X216339D02*
X217339D01*
X216339D02*
X217339D01*
X214370D02*
X215370D01*
X214370D02*
X215370D01*
X212402D02*
X213402D01*
X212402D02*
X213402D01*
X210433D02*
X211433D01*
X210433D02*
X211433D01*
X208465D02*
X209465D01*
X208465D02*
X209465D01*
X206496D02*
X207496D01*
X206496D02*
X207496D01*
X204527D02*
X205527D01*
X204527D02*
X205527D01*
X202559D02*
X203559D01*
X202559D02*
X203559D01*
X200590D02*
X201590D01*
X200590D02*
X201590D01*
X197133Y143504D02*
Y144504D01*
Y143504D02*
Y144504D01*
Y141535D02*
Y142535D01*
Y141535D02*
Y142535D01*
Y139567D02*
Y140567D01*
Y139567D02*
Y140567D01*
Y137598D02*
Y138598D01*
Y137598D02*
Y138598D01*
Y135630D02*
Y136630D01*
Y135630D02*
Y136630D01*
Y133661D02*
Y134661D01*
Y133661D02*
Y134661D01*
Y131693D02*
Y132693D01*
Y131693D02*
Y132693D01*
Y129724D02*
Y130724D01*
Y129724D02*
Y130724D01*
Y127756D02*
Y128756D01*
Y127756D02*
Y128756D01*
Y125787D02*
Y126787D01*
Y125787D02*
Y126787D01*
Y123819D02*
Y124819D01*
Y123819D02*
Y124819D01*
Y147961D02*
X224733D01*
X197133Y120361D02*
Y147961D01*
Y120361D02*
X224733D01*
Y147961D01*
Y127756D02*
Y128756D01*
Y127756D02*
Y128756D01*
X285734Y38298D02*
Y50498D01*
X273534Y38298D02*
X285734D01*
X273534D02*
Y50498D01*
X285734D01*
X272534Y39809D02*
X273534D01*
X272534D02*
Y41309D01*
X273534D01*
Y39809D02*
Y41309D01*
X272534Y42368D02*
X273534D01*
X272534D02*
Y43868D01*
X273534D01*
Y42368D02*
Y43868D01*
X272534Y44927D02*
X273534D01*
X272534D02*
Y46427D01*
X273534D01*
Y44927D02*
Y46427D01*
X272534Y47486D02*
X273534D01*
X272534D02*
Y48986D01*
X273534D01*
Y47486D02*
Y48986D01*
X285734D02*
X286734D01*
Y47486D02*
Y48986D01*
X285734Y47486D02*
X286734D01*
X285734D02*
Y48986D01*
Y46427D02*
X286734D01*
Y44927D02*
Y46427D01*
X285734Y44927D02*
X286734D01*
X285734D02*
Y46427D01*
Y43868D02*
X286734D01*
Y42368D02*
Y43868D01*
X285734Y42368D02*
X286734D01*
X285734D02*
Y43868D01*
Y41309D02*
X286734D01*
Y39809D02*
Y41309D01*
X285734Y39809D02*
X286734D01*
X285734D02*
Y41309D01*
X280734Y38298D02*
X285734Y43298D01*
X273534Y29750D02*
X278534Y34749D01*
X273534Y31738D02*
Y33238D01*
X272534D02*
X273534D01*
X272534Y31738D02*
Y33238D01*
Y31738D02*
X273534D01*
Y29179D02*
Y30679D01*
X272534D02*
X273534D01*
X272534Y29179D02*
Y30679D01*
Y29179D02*
X273534D01*
Y26620D02*
Y28120D01*
X272534D02*
X273534D01*
X272534Y26620D02*
Y28120D01*
Y26620D02*
X273534D01*
Y24061D02*
Y25561D01*
X272534D02*
X273534D01*
X272534Y24061D02*
Y25561D01*
Y24061D02*
X273534D01*
X285734D02*
Y25561D01*
Y24061D02*
X286734D01*
Y25561D01*
X285734D02*
X286734D01*
X285734Y26620D02*
Y28120D01*
Y26620D02*
X286734D01*
Y28120D01*
X285734D02*
X286734D01*
X285734Y29179D02*
Y30679D01*
Y29179D02*
X286734D01*
Y30679D01*
X285734D02*
X286734D01*
X285734Y31738D02*
Y33238D01*
Y31738D02*
X286734D01*
Y33238D01*
X285734D02*
X286734D01*
X273534Y22549D02*
X285734D01*
Y34749D01*
X273534D02*
X285734D01*
X273534Y22549D02*
Y34749D01*
X285734Y69794D02*
Y81994D01*
X273534Y69794D02*
X285734D01*
X273534D02*
Y81994D01*
X285734D01*
X272534Y71305D02*
X273534D01*
X272534D02*
Y72805D01*
X273534D01*
Y71305D02*
Y72805D01*
X272534Y73864D02*
X273534D01*
X272534D02*
Y75364D01*
X273534D01*
Y73864D02*
Y75364D01*
X272534Y76423D02*
X273534D01*
X272534D02*
Y77923D01*
X273534D01*
Y76423D02*
Y77923D01*
X272534Y78982D02*
X273534D01*
X272534D02*
Y80482D01*
X273534D01*
Y78982D02*
Y80482D01*
X285734D02*
X286734D01*
Y78982D02*
Y80482D01*
X285734Y78982D02*
X286734D01*
X285734D02*
Y80482D01*
Y77923D02*
X286734D01*
Y76423D02*
Y77923D01*
X285734Y76423D02*
X286734D01*
X285734D02*
Y77923D01*
Y75364D02*
X286734D01*
Y73864D02*
Y75364D01*
X285734Y73864D02*
X286734D01*
X285734D02*
Y75364D01*
Y72805D02*
X286734D01*
Y71305D02*
Y72805D01*
X285734Y71305D02*
X286734D01*
X285734D02*
Y72805D01*
X280734Y69794D02*
X285734Y74794D01*
X273534Y54046D02*
Y66246D01*
X285734D01*
Y54046D02*
Y66246D01*
X273534Y54046D02*
X285734D01*
Y64734D02*
X286734D01*
Y63234D02*
Y64734D01*
X285734Y63234D02*
X286734D01*
X285734D02*
Y64734D01*
Y62175D02*
X286734D01*
Y60675D02*
Y62175D01*
X285734Y60675D02*
X286734D01*
X285734D02*
Y62175D01*
Y59616D02*
X286734D01*
Y58116D02*
Y59616D01*
X285734Y58116D02*
X286734D01*
X285734D02*
Y59616D01*
Y57057D02*
X286734D01*
Y55557D02*
Y57057D01*
X285734Y55557D02*
X286734D01*
X285734D02*
Y57057D01*
X272534Y55557D02*
X273534D01*
X272534D02*
Y57057D01*
X273534D01*
Y55557D02*
Y57057D01*
X272534Y58116D02*
X273534D01*
X272534D02*
Y59616D01*
X273534D01*
Y58116D02*
Y59616D01*
X272534Y60675D02*
X273534D01*
X272534D02*
Y62175D01*
X273534D01*
Y60675D02*
Y62175D01*
X272534Y63234D02*
X273534D01*
X272534D02*
Y64734D01*
X273534D01*
Y63234D02*
Y64734D01*
Y61246D02*
X278534Y66246D01*
X285734Y101290D02*
Y113490D01*
X273534Y101290D02*
X285734D01*
X273534D02*
Y113490D01*
X285734D01*
X272534Y102801D02*
X273534D01*
X272534D02*
Y104301D01*
X273534D01*
Y102801D02*
Y104301D01*
X272534Y105360D02*
X273534D01*
X272534D02*
Y106860D01*
X273534D01*
Y105360D02*
Y106860D01*
X272534Y107919D02*
X273534D01*
X272534D02*
Y109419D01*
X273534D01*
Y107919D02*
Y109419D01*
X272534Y110478D02*
X273534D01*
X272534D02*
Y111978D01*
X273534D01*
Y110478D02*
Y111978D01*
X285734D02*
X286734D01*
Y110478D02*
Y111978D01*
X285734Y110478D02*
X286734D01*
X285734D02*
Y111978D01*
Y109419D02*
X286734D01*
Y107919D02*
Y109419D01*
X285734Y107919D02*
X286734D01*
X285734D02*
Y109419D01*
Y106860D02*
X286734D01*
Y105360D02*
Y106860D01*
X285734Y105360D02*
X286734D01*
X285734D02*
Y106860D01*
Y104301D02*
X286734D01*
Y102801D02*
Y104301D01*
X285734Y102801D02*
X286734D01*
X285734D02*
Y104301D01*
X280734Y101290D02*
X285734Y106290D01*
X273534Y85542D02*
Y97742D01*
X285734D01*
Y85542D02*
Y97742D01*
X273534Y85542D02*
X285734D01*
Y96230D02*
X286734D01*
Y94730D02*
Y96230D01*
X285734Y94730D02*
X286734D01*
X285734D02*
Y96230D01*
Y93671D02*
X286734D01*
Y92171D02*
Y93671D01*
X285734Y92171D02*
X286734D01*
X285734D02*
Y93671D01*
Y91112D02*
X286734D01*
Y89612D02*
Y91112D01*
X285734Y89612D02*
X286734D01*
X285734D02*
Y91112D01*
Y88553D02*
X286734D01*
Y87053D02*
Y88553D01*
X285734Y87053D02*
X286734D01*
X285734D02*
Y88553D01*
X272534Y87053D02*
X273534D01*
X272534D02*
Y88553D01*
X273534D01*
Y87053D02*
Y88553D01*
X272534Y89612D02*
X273534D01*
X272534D02*
Y91112D01*
X273534D01*
Y89612D02*
Y91112D01*
X272534Y92171D02*
X273534D01*
X272534D02*
Y93671D01*
X273534D01*
Y92171D02*
Y93671D01*
X272534Y94730D02*
X273534D01*
X272534D02*
Y96230D01*
X273534D01*
Y94730D02*
Y96230D01*
Y92742D02*
X278534Y97742D01*
M02*
