G04*
G04 #@! TF.GenerationSoftware,Altium Limited,Altium Designer,23.4.1 (23)*
G04*
G04 Layer_Color=32768*
%FSLAX25Y25*%
%MOIN*%
G70*
G04*
G04 #@! TF.SameCoordinates,99A001A7-D63A-4E88-881B-6C0508A0781D*
G04*
G04*
G04 #@! TF.FilePolarity,Positive*
G04*
G01*
G75*
%ADD11C,0.00787*%
%ADD15C,0.00600*%
%ADD131C,0.00394*%
%ADD133C,0.00197*%
%ADD134C,0.00400*%
D11*
X20669Y107677D02*
X30512D01*
Y103347D02*
Y107677D01*
X20669Y103347D02*
X30512D01*
X20669D02*
Y107677D01*
X49040Y101460D02*
Y112925D01*
X43480Y101460D02*
X49040D01*
X43480D02*
Y112925D01*
X49040D01*
X196653Y4921D02*
X238779D01*
Y57284D01*
X196653D02*
X238779D01*
X196653Y4921D02*
Y57284D01*
X285236Y130905D02*
X327362D01*
Y183268D01*
X285236D02*
X327362D01*
X285236Y130905D02*
Y183268D01*
X241929Y130905D02*
X284055D01*
Y183268D01*
X241929D02*
X284055D01*
X241929Y130905D02*
Y183268D01*
X120374Y139655D02*
X133957D01*
Y161132D01*
X120374D02*
X133957D01*
X120374Y139655D02*
Y161132D01*
X143108Y146465D02*
X164585D01*
Y132882D02*
Y146465D01*
X143108Y132882D02*
X164585D01*
X143108D02*
Y146465D01*
X137311Y147153D02*
X146760D01*
X137311D02*
Y151878D01*
X146760D01*
Y147153D02*
Y151878D01*
X149122Y147154D02*
X158571D01*
X149122D02*
Y151878D01*
X158571D01*
Y147154D02*
Y151878D01*
X38386Y112599D02*
Y129134D01*
X30512Y112599D02*
X38386D01*
X30512D02*
Y129134D01*
X38386D01*
X32653Y131079D02*
Y142543D01*
X38213D01*
Y131079D02*
Y142543D01*
X32653Y131079D02*
X38213D01*
X341929Y164980D02*
Y176752D01*
Y164980D02*
X368307D01*
Y176752D01*
X341929D02*
X368307D01*
X240346Y42355D02*
X251993D01*
Y36598D02*
Y42355D01*
X240346Y36598D02*
X251993D01*
X240346D02*
Y42355D01*
X240346Y35465D02*
X251993D01*
Y29708D02*
Y35465D01*
X240346Y29708D02*
X251993D01*
X240346D02*
Y35465D01*
X20669Y90748D02*
Y95079D01*
Y90748D02*
X30512D01*
Y95079D01*
X20669D02*
X30512D01*
X28346Y51968D02*
X39370D01*
X28346D02*
Y56693D01*
X39370D01*
Y51968D02*
Y56693D01*
X74409Y107677D02*
Y132874D01*
X89764D01*
Y107677D02*
Y132874D01*
X74409Y107677D02*
X89764D01*
X66240Y145669D02*
Y167323D01*
X38091D02*
X66240D01*
X38091Y145669D02*
Y167323D01*
Y145669D02*
X66240D01*
X53330Y40830D02*
Y46571D01*
Y40830D02*
X64780D01*
Y46571D01*
X53330D02*
X64780D01*
X53330Y35318D02*
Y41059D01*
Y35318D02*
X64780D01*
Y41059D01*
X53330D02*
X64780D01*
X20669Y97047D02*
Y101378D01*
Y97047D02*
X30512D01*
Y101378D01*
X20669D02*
X30512D01*
X20669Y88779D02*
X30512D01*
Y84449D02*
Y88779D01*
X20669Y84449D02*
X30512D01*
X20669D02*
Y88779D01*
X45449Y61787D02*
X51008D01*
Y73252D01*
X45449D02*
X51008D01*
X45449Y61787D02*
Y73252D01*
X109819Y47023D02*
Y52583D01*
Y47023D02*
X121284D01*
Y52583D01*
X109819D02*
X121284D01*
X66905Y41118D02*
Y46677D01*
Y41118D02*
X78370D01*
Y46677D01*
X66905D02*
X78370D01*
X121768Y58744D02*
Y64485D01*
X110122D02*
X121768D01*
X110122Y58744D02*
Y64485D01*
Y58744D02*
X121768D01*
X110122Y80397D02*
Y86138D01*
Y80397D02*
X121768D01*
Y86138D01*
X110122D02*
X121768D01*
X91027Y121539D02*
Y133186D01*
X96768D01*
Y121539D02*
Y133186D01*
X91027Y121539D02*
X96768D01*
X91421Y107366D02*
Y119012D01*
X97162D01*
Y107366D02*
Y119012D01*
X91421Y107366D02*
X97162D01*
X109843Y79724D02*
X122047D01*
X109843Y64764D02*
Y79724D01*
Y64764D02*
X122047D01*
Y79724D01*
X57784Y49516D02*
X109358D01*
Y101091D01*
X57784D02*
X109358D01*
X57784Y49516D02*
Y101091D01*
X147917Y55791D02*
X181036D01*
Y104658D01*
X147917D02*
X181036D01*
X147917Y55791D02*
Y104658D01*
X272236Y11999D02*
Y20103D01*
Y11999D02*
X287426D01*
Y20103D01*
X272236D02*
X287426D01*
X142823Y121169D02*
Y125894D01*
Y121169D02*
X153847D01*
Y125894D01*
X142823D02*
X153847D01*
X100615Y147236D02*
Y152977D01*
X88968D02*
X100615D01*
X88968Y147236D02*
Y152977D01*
Y147236D02*
X100615D01*
X112921Y147236D02*
Y152977D01*
X101275D02*
X112921D01*
X101275Y147236D02*
Y152977D01*
Y147236D02*
X112921D01*
X88308D02*
Y152977D01*
X76662D02*
X88308D01*
X76662Y147236D02*
Y152977D01*
Y147236D02*
X88308D01*
X170382Y147154D02*
Y151878D01*
X160933D02*
X170382D01*
X160933Y147154D02*
Y151878D01*
Y147154D02*
X170382D01*
X130988Y105355D02*
X136548D01*
X130988Y93890D02*
Y105355D01*
Y93890D02*
X136548D01*
Y105355D01*
X228216Y132850D02*
Y138803D01*
Y132850D02*
X240074D01*
Y138803D01*
X228216D02*
X240074D01*
X228323Y139149D02*
Y145103D01*
Y139149D02*
X240181D01*
Y145103D01*
X228323D02*
X240181D01*
X194571Y108547D02*
Y114107D01*
Y108547D02*
X206036D01*
Y114107D01*
X194571D02*
X206036D01*
X220996Y102248D02*
Y107807D01*
X209531D02*
X220996D01*
X209531Y102248D02*
Y107807D01*
Y102248D02*
X220996D01*
X192823Y128649D02*
Y133374D01*
X183374D02*
X192823D01*
X183374Y128649D02*
Y133374D01*
Y128649D02*
X192823D01*
X229413Y119422D02*
X234973D01*
X229413Y107956D02*
Y119422D01*
Y107956D02*
X234973D01*
Y119422D01*
X142921Y119595D02*
X154535D01*
X142921Y105421D02*
Y119595D01*
Y105421D02*
X154535D01*
Y119595D01*
X300392Y34543D02*
Y52284D01*
Y34543D02*
X334668D01*
Y52284D01*
X300392D02*
X334668D01*
X240937Y68291D02*
Y74047D01*
Y68291D02*
X252583D01*
Y74047D01*
X240937D02*
X252583D01*
X240936Y61401D02*
Y67158D01*
Y61401D02*
X252583D01*
Y67158D01*
X240936D02*
X252583D01*
X299897Y81787D02*
Y99528D01*
Y81787D02*
X334174D01*
Y99528D01*
X299897D02*
X334174D01*
X240346Y99590D02*
Y105347D01*
Y99590D02*
X251993D01*
Y105347D01*
X240346D02*
X251993D01*
X240343Y92700D02*
Y98457D01*
Y92700D02*
X251989D01*
Y98457D01*
X240343D02*
X251989D01*
X255413Y90061D02*
X268422D01*
Y108971D01*
X255413D02*
X268422D01*
X255413Y90061D02*
Y108971D01*
X255413Y58565D02*
X268422D01*
Y77474D01*
X255413D02*
X268422D01*
X255413Y58565D02*
Y77474D01*
X255413Y27069D02*
X268422D01*
Y45979D01*
X255413D02*
X268422D01*
X255413Y27069D02*
Y45979D01*
X329545Y18807D02*
Y32587D01*
X304526D02*
X329545D01*
X304526Y18807D02*
Y32587D01*
Y18807D02*
X329545D01*
X329545Y100500D02*
Y114279D01*
X304526D02*
X329545D01*
X304526Y100500D02*
Y114279D01*
Y100500D02*
X329545D01*
D15*
X226733Y146404D02*
Y149961D01*
Y146404D02*
X228333D01*
Y121919D02*
Y146404D01*
X226733Y121919D02*
X228333D01*
X226733Y118361D02*
Y121919D01*
X223176Y118361D02*
X226733D01*
X223176Y116761D02*
Y118361D01*
X198690Y116761D02*
X223176D01*
X198690D02*
Y118361D01*
X195133D02*
X198690D01*
X195133D02*
Y121919D01*
X193533D02*
X195133D01*
X193533D02*
Y146404D01*
X195133D01*
Y149961D01*
X198690D01*
Y151561D01*
X223176D01*
Y149961D02*
Y151561D01*
Y149961D02*
X226733D01*
X272534Y51498D02*
X278354D01*
X272534Y49516D02*
Y51498D01*
X270834Y49516D02*
X272534D01*
X270834Y39280D02*
Y49516D01*
Y39280D02*
X272534D01*
Y37298D02*
Y39280D01*
Y37298D02*
X278354D01*
X280913D01*
X278354Y51498D02*
X286734D01*
X280913Y37298D02*
X286734D01*
Y39280D01*
X288434D01*
Y49516D01*
X286734D02*
X288434D01*
X286734D02*
Y51498D01*
X272534Y21550D02*
Y23531D01*
X270834D02*
X272534D01*
X270834D02*
Y33768D01*
X272534D01*
Y35750D01*
X278354D01*
X272534Y21550D02*
X280913D01*
X278354Y35750D02*
X280913D01*
X286734D01*
Y33768D02*
Y35750D01*
Y33768D02*
X288434D01*
Y23531D02*
Y33768D01*
X286734Y23531D02*
X288434D01*
X286734Y21550D02*
Y23531D01*
X280913Y21550D02*
X286734D01*
X272534Y82994D02*
X278354D01*
X272534Y81012D02*
Y82994D01*
X270834Y81012D02*
X272534D01*
X270834Y70776D02*
Y81012D01*
Y70776D02*
X272534D01*
Y68794D02*
Y70776D01*
Y68794D02*
X278354D01*
X280913D01*
X278354Y82994D02*
X286734D01*
X280913Y68794D02*
X286734D01*
Y70776D01*
X288434D01*
Y81012D01*
X286734D02*
X288434D01*
X286734D02*
Y82994D01*
X280913Y53046D02*
X286734D01*
Y55028D01*
X288434D01*
Y65264D01*
X286734D02*
X288434D01*
X286734D02*
Y67246D01*
X280913D02*
X286734D01*
X278354D02*
X280913D01*
X272534Y53046D02*
X280913D01*
X272534Y67246D02*
X278354D01*
X272534Y65264D02*
Y67246D01*
X270834Y65264D02*
X272534D01*
X270834Y55028D02*
Y65264D01*
Y55028D02*
X272534D01*
Y53046D02*
Y55028D01*
X272534Y114490D02*
X278354D01*
X272534Y112508D02*
Y114490D01*
X270834Y112508D02*
X272534D01*
X270834Y102272D02*
Y112508D01*
Y102272D02*
X272534D01*
Y100290D02*
Y102272D01*
Y100290D02*
X278354D01*
X280913D01*
X278354Y114490D02*
X286734D01*
X280913Y100290D02*
X286734D01*
Y102272D01*
X288434D01*
Y112508D01*
X286734D02*
X288434D01*
X286734D02*
Y114490D01*
X280913Y84542D02*
X286734D01*
Y86524D01*
X288434D01*
Y96760D01*
X286734D02*
X288434D01*
X286734D02*
Y98742D01*
X280913D02*
X286734D01*
X278354D02*
X280913D01*
X272534Y84542D02*
X280913D01*
X272534Y98742D02*
X278354D01*
X272534Y96760D02*
Y98742D01*
X270834Y96760D02*
X272534D01*
X270834Y86524D02*
Y96760D01*
Y86524D02*
X272534D01*
Y84542D02*
Y86524D01*
D131*
X34350Y62992D02*
X38091D01*
X36220Y61122D02*
Y64862D01*
X34350Y68898D02*
X38091D01*
X36220Y67028D02*
Y70768D01*
X34350Y74803D02*
X38091D01*
X36220Y72933D02*
Y76673D01*
X34350Y80709D02*
X38091D01*
X36220Y78839D02*
Y82579D01*
X51673Y113189D02*
X55217D01*
X53445Y111417D02*
Y114961D01*
X104724Y1969D02*
Y21654D01*
X38976D02*
X104724D01*
X38976Y1969D02*
X104724D01*
X38976D02*
Y21654D01*
X24606Y62992D02*
X26575D01*
X25591Y62008D02*
Y63976D01*
X24606Y68898D02*
X26575D01*
X25591Y67913D02*
Y69882D01*
X24606Y80709D02*
X26575D01*
X25591Y79724D02*
Y81693D01*
X24606Y74803D02*
X26575D01*
X25591Y73819D02*
Y75787D01*
X166543Y158965D02*
X170283D01*
X168413Y157095D02*
Y160835D01*
X162508Y157094D02*
Y160835D01*
X160638Y158965D02*
X164378D01*
X154732Y158965D02*
X158473D01*
X156602Y157095D02*
Y160835D01*
X150697Y157094D02*
Y160835D01*
X148827Y158965D02*
X152567D01*
X142921Y158866D02*
X146661D01*
X144791Y156996D02*
Y160736D01*
X138886Y157094D02*
Y160835D01*
X137016Y158965D02*
X140756D01*
X90166Y159161D02*
X93906D01*
X92036Y157291D02*
Y161031D01*
X181890Y166929D02*
Y186614D01*
X125984D02*
X181890D01*
X125984Y166929D02*
X181890D01*
X125984D02*
Y186614D01*
X124803Y166929D02*
Y186614D01*
X68898D02*
X124803D01*
X68898Y166929D02*
X124803D01*
X68898D02*
Y186614D01*
X186130Y142035D02*
X190067D01*
X188099Y140067D02*
Y144004D01*
X177862Y140067D02*
Y144004D01*
X175894Y142035D02*
X179831D01*
X110531Y117913D02*
Y121850D01*
X108563Y119882D02*
X112500D01*
X36220Y97343D02*
Y101083D01*
X34350Y99213D02*
X38091D01*
X193012Y95669D02*
X196752D01*
X194882Y93799D02*
Y97539D01*
X204429Y95669D02*
X208169D01*
X206299Y93799D02*
Y97539D01*
X299516Y21760D02*
X303059D01*
X301287Y19988D02*
Y23531D01*
X299516Y112311D02*
X303059D01*
X301287Y110539D02*
Y114083D01*
X33102Y42717D02*
X37039D01*
X35039Y40780D02*
Y44717D01*
X28539Y51295D02*
X41138D01*
X28539Y34295D02*
X41138D01*
X69095Y151181D02*
Y154725D01*
X67323Y152953D02*
X70866D01*
X33465Y163583D02*
Y167126D01*
X31693Y165354D02*
X35236D01*
X130512Y109055D02*
Y112598D01*
X128740Y110827D02*
X132283D01*
X22835Y118898D02*
Y164961D01*
X-6693Y118898D02*
X22835D01*
X-6693D02*
Y164961D01*
X22835D01*
X54134Y129921D02*
X58071D01*
X56102Y127953D02*
Y131890D01*
X34350Y105512D02*
X38091D01*
X36220Y103642D02*
Y107382D01*
X130512Y114469D02*
Y118209D01*
X128642Y116339D02*
X132382D01*
X36220Y84744D02*
Y88484D01*
X34350Y86614D02*
X38091D01*
X36220Y91043D02*
Y94784D01*
X34350Y92913D02*
X38091D01*
X108957Y96063D02*
Y99606D01*
X107185Y97835D02*
X110728D01*
X52756Y69390D02*
X56299D01*
X54528Y67618D02*
Y71162D01*
X52756Y87599D02*
X56299D01*
X54528Y85827D02*
Y89370D01*
X52165Y77559D02*
Y81102D01*
X50394Y79331D02*
X53937D01*
X250000Y17028D02*
Y20768D01*
X248130Y18898D02*
X251870D01*
X261524Y12016D02*
Y15756D01*
X259654Y13886D02*
X263394D01*
X184260Y32980D02*
X188000D01*
X186130Y31110D02*
Y34850D01*
X190165Y32980D02*
X193906D01*
X192035Y31110D02*
Y34850D01*
X194004Y155520D02*
Y159260D01*
X192134Y157390D02*
X195874D01*
X139998Y96986D02*
X143738D01*
X141868Y95116D02*
Y98856D01*
X84260Y159161D02*
X88000D01*
X86130Y157291D02*
Y161031D01*
X107882Y159161D02*
X111622D01*
X109752Y157291D02*
Y161031D01*
X96071Y159161D02*
X99811D01*
X97941Y157291D02*
Y161031D01*
X101977Y159161D02*
X105717D01*
X103847Y157291D02*
Y161031D01*
X78355Y159161D02*
X82095D01*
X80225Y157291D02*
Y161031D01*
X249909Y12114D02*
Y15657D01*
X248138Y13886D02*
X251681D01*
X188886Y39870D02*
Y43413D01*
X187114Y41642D02*
X190658D01*
X115157Y156299D02*
X118701D01*
X116929Y154527D02*
Y158071D01*
X167429Y139673D02*
X170973D01*
X169201Y137902D02*
Y141445D01*
X137901Y113689D02*
X141445D01*
X139673Y111917D02*
Y115461D01*
X194201Y64969D02*
Y68709D01*
X192331Y66839D02*
X196071D01*
X191732Y57283D02*
Y61024D01*
X189862Y59153D02*
X193603D01*
X308276Y14870D02*
X312016D01*
X310146Y13000D02*
Y16740D01*
X308276Y118217D02*
X312016D01*
X310146Y116347D02*
Y120087D01*
X193610Y71366D02*
Y74909D01*
X191839Y73138D02*
X195382D01*
X208571Y157587D02*
Y161130D01*
X206799Y159358D02*
X210343D01*
X145579Y46760D02*
X149516D01*
X147547Y44791D02*
Y48728D01*
X168217Y110933D02*
X171760D01*
X169988Y109161D02*
Y112705D01*
X142035Y100106D02*
Y103650D01*
X140264Y101878D02*
X143807D01*
X141535Y85039D02*
Y88583D01*
X139764Y86811D02*
X143307D01*
X153740Y48425D02*
X157283D01*
X155512Y46654D02*
Y50197D01*
X141929Y66535D02*
Y70079D01*
X140157Y68307D02*
X143701D01*
X174606Y50000D02*
X178150D01*
X176378Y48228D02*
Y51772D01*
X186130Y119988D02*
X190067D01*
X188099Y118020D02*
Y121957D01*
X189280Y77272D02*
Y80815D01*
X187508Y79043D02*
X191051D01*
X203059Y79437D02*
Y83374D01*
X201091Y81406D02*
X205028D01*
X182783Y58571D02*
X186327D01*
X184555Y56799D02*
Y60343D01*
X162311Y110933D02*
X165854D01*
X164083Y109161D02*
Y112705D01*
X141437Y79528D02*
Y83071D01*
X139665Y81299D02*
X143209D01*
X323925Y13000D02*
Y16740D01*
X322055Y14870D02*
X325795D01*
X331012Y25697D02*
X334555D01*
X332783Y23925D02*
Y27468D01*
X323728Y116346D02*
Y120087D01*
X321858Y118217D02*
X325598D01*
X331012Y107390D02*
X334555D01*
X332783Y105618D02*
Y109161D01*
X112500Y55709D02*
X116240D01*
X114370Y53839D02*
Y57579D01*
X52756Y56496D02*
X56299D01*
X54528Y54724D02*
Y58268D01*
D133*
X29528Y58858D02*
Y67126D01*
X42913Y58858D02*
Y67126D01*
X29528D02*
X42913D01*
X29528Y58858D02*
X42913D01*
X29528Y64764D02*
Y73032D01*
X42913Y64764D02*
Y73032D01*
X29528D02*
X42913D01*
X29528Y64764D02*
X42913D01*
X29528Y70669D02*
Y78937D01*
X42913Y70669D02*
Y78937D01*
X29528D02*
X42913D01*
X29528Y70669D02*
X42913D01*
X29528Y76575D02*
Y84842D01*
X42913Y76575D02*
Y84842D01*
X29528D02*
X42913D01*
X29528Y76575D02*
X42913D01*
X58760Y110236D02*
Y116142D01*
X48130Y110236D02*
Y116142D01*
Y110236D02*
X58760D01*
X48130Y116142D02*
X58760D01*
X30512Y61024D02*
Y64961D01*
X20669Y61024D02*
X30512D01*
X20669Y64961D02*
X30512D01*
X20669Y61024D02*
Y64961D01*
X30512Y66929D02*
Y70866D01*
X20669Y66929D02*
X30512D01*
X20669Y70866D02*
X30512D01*
X20669Y66929D02*
Y70866D01*
X30512Y78740D02*
Y82677D01*
X20669Y78740D02*
X30512D01*
X20669Y82677D02*
X30512D01*
X20669Y78740D02*
Y82677D01*
X30512Y72835D02*
Y76772D01*
X20669Y72835D02*
X30512D01*
X20669Y76772D02*
X30512D01*
X20669Y72835D02*
Y76772D01*
X164280Y152272D02*
Y165657D01*
X172547Y152272D02*
Y165657D01*
X164280Y152272D02*
X172547D01*
X164280Y165657D02*
X172547D01*
X159555Y164870D02*
X165461D01*
X159555Y153059D02*
X165461D01*
Y164870D01*
X159555Y153059D02*
Y164870D01*
X152469Y152272D02*
Y165657D01*
X160736Y152272D02*
Y165657D01*
X152469Y152272D02*
X160736D01*
X152469Y165657D02*
X160736D01*
X147744Y164870D02*
X153650D01*
X147744Y153059D02*
X153650D01*
Y164870D01*
X147744Y153059D02*
Y164870D01*
X140658Y152173D02*
Y165559D01*
X148925Y152173D02*
Y165559D01*
X140658Y152173D02*
X148925D01*
X140658Y165559D02*
X148925D01*
X135933Y164870D02*
X141839D01*
X135933Y153059D02*
X141839D01*
Y164870D01*
X135933Y153059D02*
Y164870D01*
X89083Y153256D02*
Y165067D01*
X94988Y153256D02*
Y165067D01*
X89083Y153256D02*
X94988D01*
X89083Y165067D02*
X94988D01*
X193217Y133571D02*
Y150500D01*
X182980Y133571D02*
Y150500D01*
X193217D01*
X182980Y133571D02*
X193217D01*
X172744D02*
X182980D01*
X172744Y150500D02*
X182980D01*
X172744Y133571D02*
Y150500D01*
X182980Y133571D02*
Y150500D01*
X95571Y137205D02*
X125492D01*
X95571Y102559D02*
X125492D01*
Y137205D01*
X95571Y102559D02*
Y137205D01*
X29528Y95079D02*
X42913D01*
X29528Y103346D02*
X42913D01*
Y95079D02*
Y103346D01*
X29528Y95079D02*
Y103346D01*
X188189Y91535D02*
Y99803D01*
X201575Y91535D02*
Y99803D01*
X188189D02*
X201575D01*
X188189Y91535D02*
X201575D01*
X199606D02*
Y99803D01*
X212992Y91535D02*
Y99803D01*
X199606D02*
X212992D01*
X199606Y91535D02*
X212992D01*
X298335Y16445D02*
Y27075D01*
X304240Y16445D02*
Y27075D01*
X298335Y16445D02*
X304240D01*
X298335Y27075D02*
X304240D01*
X304240Y106996D02*
Y117626D01*
X298335Y106996D02*
Y117626D01*
X304240D01*
X298335Y106996D02*
X304240D01*
X66142Y147638D02*
X72047D01*
X66142Y158268D02*
X72047D01*
X66142Y147638D02*
Y158268D01*
X72047Y147638D02*
Y158268D01*
X30512Y170669D02*
X36417D01*
X30512Y160039D02*
X36417D01*
Y170669D01*
X30512Y160039D02*
Y170669D01*
X125197Y113779D02*
X135827D01*
X125197Y107874D02*
X135827D01*
X125197D02*
Y113779D01*
X135827Y107874D02*
Y113779D01*
X3937Y44488D02*
X7874D01*
X5906Y42520D02*
Y46457D01*
X38976Y115748D02*
Y144095D01*
X73228Y115748D02*
Y144095D01*
X38976D02*
X73228D01*
X38976Y115748D02*
X73228D01*
X29528Y101378D02*
Y109646D01*
X42913Y101378D02*
Y109646D01*
X29528D02*
X42913D01*
X29528Y101378D02*
X42913D01*
X125984Y113976D02*
X135039D01*
X125984Y118701D02*
X135039D01*
Y113976D02*
Y118701D01*
X125984Y113976D02*
Y118701D01*
X29528Y82480D02*
X42913D01*
X29528Y90748D02*
X42913D01*
Y82480D02*
Y90748D01*
X29528Y82480D02*
Y90748D01*
X29528Y88779D02*
X42913D01*
X29528Y97047D02*
X42913D01*
Y88779D02*
Y97047D01*
X29528Y88779D02*
Y97047D01*
X103642Y100787D02*
X114272D01*
X103642Y94882D02*
X114272D01*
X103642D02*
Y100787D01*
X114272Y94882D02*
Y100787D01*
X51575Y64075D02*
Y74705D01*
X57480Y64075D02*
Y74705D01*
X51575Y64075D02*
X57480D01*
X51575Y74705D02*
X57480D01*
X57480Y82284D02*
Y92914D01*
X51575Y82284D02*
Y92914D01*
X57480D01*
X51575Y82284D02*
X57480D01*
X46850Y76378D02*
X57480D01*
X46850Y82284D02*
X57480D01*
Y76378D02*
Y82284D01*
X46850Y76378D02*
Y82284D01*
X244095Y15945D02*
X255906D01*
X244095Y21850D02*
X255906D01*
Y15945D02*
Y21850D01*
X244095Y15945D02*
Y21850D01*
X255618Y10933D02*
X267429D01*
X255618Y16839D02*
X267429D01*
Y10933D02*
Y16839D01*
X255618Y10933D02*
Y16839D01*
X183177Y27075D02*
Y38886D01*
X189083Y27075D02*
Y38886D01*
X183177Y27075D02*
X189083D01*
X183177Y38886D02*
X189083D01*
X194988Y27075D02*
Y38886D01*
X189083Y27075D02*
Y38886D01*
X194988D01*
X189083Y27075D02*
X194988D01*
X189870Y150697D02*
X198138D01*
X189870Y164083D02*
X198138D01*
X189870Y150697D02*
Y164083D01*
X198138Y150697D02*
Y164083D01*
X146396Y94624D02*
Y99348D01*
X137340Y94624D02*
Y99348D01*
Y94624D02*
X146396D01*
X137340Y99348D02*
X146396D01*
X89083Y153256D02*
Y165067D01*
X83177Y153256D02*
Y165067D01*
X89083D01*
X83177Y153256D02*
X89083D01*
X112705Y153256D02*
Y165067D01*
X106799Y153256D02*
Y165067D01*
X112705D01*
X106799Y153256D02*
X112705D01*
X100894Y153256D02*
Y165067D01*
X94988Y153256D02*
Y165067D01*
X100894D01*
X94988Y153256D02*
X100894D01*
X100894Y153256D02*
Y165067D01*
X106799Y153256D02*
Y165067D01*
X100894Y153256D02*
X106799D01*
X100894Y165067D02*
X106799D01*
X77272Y153256D02*
Y165067D01*
X83177Y153256D02*
Y165067D01*
X77272Y153256D02*
X83177D01*
X77272Y165067D02*
X83177D01*
X244595Y10933D02*
X255224D01*
X244595Y16839D02*
X255224D01*
Y10933D02*
Y16839D01*
X244595Y10933D02*
Y16839D01*
X183571Y44594D02*
X194201D01*
X183571Y38689D02*
X194201D01*
X183571D02*
Y44594D01*
X194201Y38689D02*
Y44594D01*
X119882Y150984D02*
Y161614D01*
X113977Y150984D02*
Y161614D01*
X119882D01*
X113977Y150984D02*
X119882D01*
X166248Y134358D02*
Y144988D01*
X172153Y134358D02*
Y144988D01*
X166248Y134358D02*
X172153D01*
X166248Y144988D02*
X172153D01*
X136721Y108374D02*
Y119004D01*
X142626Y108374D02*
Y119004D01*
X136721Y108374D02*
X142626D01*
X136721Y119004D02*
X142626D01*
X188295Y63886D02*
X200106D01*
X188295Y69791D02*
X200106D01*
Y63886D02*
Y69791D01*
X188295Y63886D02*
Y69791D01*
X187599Y52461D02*
X195866D01*
X187599Y65846D02*
X195866D01*
X187599Y52461D02*
Y65846D01*
X195866Y52461D02*
Y65846D01*
X303453Y10736D02*
Y19004D01*
X316839Y10736D02*
Y19004D01*
X303453D02*
X316839D01*
X303453Y10736D02*
X316839D01*
X303453Y114083D02*
Y122350D01*
X316839Y114083D02*
Y122350D01*
X303453D02*
X316839D01*
X303453Y114083D02*
X316839D01*
X188295Y76091D02*
X198925D01*
X188295Y70185D02*
X198925D01*
X188295D02*
Y76091D01*
X198925Y70185D02*
Y76091D01*
X203256Y156406D02*
X213886D01*
X203256Y162311D02*
X213886D01*
Y156406D02*
Y162311D01*
X203256Y156406D02*
Y162311D01*
X152665Y38295D02*
Y55225D01*
X142429Y38295D02*
Y55225D01*
X152665D01*
X142429Y38295D02*
X152665D01*
X167035Y105618D02*
Y116248D01*
X172941Y105618D02*
Y116248D01*
X167035Y105618D02*
X172941D01*
X167035Y116248D02*
X172941D01*
X136721Y98925D02*
X147350D01*
X136721Y104831D02*
X147350D01*
Y98925D02*
Y104831D01*
X136721Y98925D02*
Y104831D01*
X136220Y83858D02*
X146850D01*
X136220Y89764D02*
X146850D01*
Y83858D02*
Y89764D01*
X136220Y83858D02*
Y89764D01*
X158465Y43110D02*
Y53740D01*
X152559Y43110D02*
Y53740D01*
X158465D01*
X152559Y43110D02*
X158465D01*
X136614Y65354D02*
X147244D01*
X136614Y71260D02*
X147244D01*
Y65354D02*
Y71260D01*
X136614Y65354D02*
Y71260D01*
X179331Y44685D02*
Y55315D01*
X173425Y44685D02*
Y55315D01*
X179331D01*
X173425Y44685D02*
X179331D01*
X193217Y111524D02*
Y128453D01*
X182980Y111524D02*
Y128453D01*
X193217D01*
X182980Y111524D02*
X193217D01*
X183965Y81996D02*
X194595D01*
X183965Y76091D02*
X194595D01*
X183965D02*
Y81996D01*
X194595Y76091D02*
Y81996D01*
X194595Y86524D02*
X211524D01*
X194595Y76287D02*
X211524D01*
X194595D02*
Y86524D01*
X211524Y76287D02*
Y86524D01*
X187508Y53256D02*
Y63886D01*
X181602Y53256D02*
Y63886D01*
X187508D01*
X181602Y53256D02*
X187508D01*
X161130Y105618D02*
Y116248D01*
X167035Y105618D02*
Y116248D01*
X161130Y105618D02*
X167035D01*
X161130Y116248D02*
X167035D01*
X136122Y78346D02*
X146752D01*
X136122Y84252D02*
X146752D01*
Y78346D02*
Y84252D01*
X136122Y78346D02*
Y84252D01*
X317232Y19004D02*
X330618D01*
X317232Y10736D02*
X330618D01*
X317232D02*
Y19004D01*
X330618Y10736D02*
Y19004D01*
X329831Y20382D02*
Y31012D01*
X335736Y20382D02*
Y31012D01*
X329831Y20382D02*
X335736D01*
X329831Y31012D02*
X335736D01*
X317035Y122350D02*
X330421D01*
X317035Y114083D02*
X330421D01*
X317035D02*
Y122350D01*
X330421Y114083D02*
Y122350D01*
X329831Y102075D02*
Y112705D01*
X335736Y102075D02*
Y112705D01*
X329831Y102075D02*
X335736D01*
X329831Y112705D02*
X335736D01*
X109843Y53347D02*
Y58071D01*
X118898Y53347D02*
Y58071D01*
X109843D02*
X118898D01*
X109843Y53347D02*
X118898D01*
X57480Y51181D02*
Y61811D01*
X51575Y51181D02*
Y61811D01*
X57480D01*
X51575Y51181D02*
X57480D01*
D134*
X41138Y34295D02*
Y51295D01*
X28539Y34295D02*
Y51295D01*
M02*
