%TF.GenerationSoftware,Altium Limited,Altium Designer,24.10.1 (45)*%
G04 Layer_Physical_Order=1*
G04 Layer_Color=255*
%FSLAX45Y45*%
%MOMM*%
%TF.SameCoordinates,D2505BA3-E522-476C-ACF0-F4815D070146*%
%TF.FilePolarity,Positive*%
%TF.FileFunction,Copper,L1,Top,Signal*%
%TF.Part,Single*%
G01*
G75*
%TA.AperFunction,SMDPad,CuDef*%
%ADD10R,0.96822X1.00650*%
%ADD11R,0.81213X0.85776*%
%ADD12R,1.15000X0.60000*%
%ADD13R,1.15000X0.30000*%
%ADD14R,2.80000X2.80000*%
%ADD15O,0.25000X0.70000*%
%ADD16O,0.70000X0.25000*%
G04:AMPARAMS|DCode=17|XSize=0.85mm|YSize=0.25mm|CornerRadius=0.125mm|HoleSize=0mm|Usage=FLASHONLY|Rotation=270.000|XOffset=0mm|YOffset=0mm|HoleType=Round|Shape=RoundedRectangle|*
%AMROUNDEDRECTD17*
21,1,0.85000,0.00000,0,0,270.0*
21,1,0.60000,0.25000,0,0,270.0*
1,1,0.25000,0.00000,-0.30000*
1,1,0.25000,0.00000,0.30000*
1,1,0.25000,0.00000,0.30000*
1,1,0.25000,0.00000,-0.30000*
%
%ADD17ROUNDEDRECTD17*%
%ADD18R,1.60000X1.50000*%
%ADD19R,0.65872X0.81213*%
%ADD20R,1.00650X0.96822*%
%ADD21R,0.85776X0.81213*%
%ADD22R,0.90000X0.75000*%
%ADD23R,0.75000X0.90000*%
%ADD24R,0.80000X0.80000*%
%ADD25R,0.91213X0.85872*%
%ADD26R,0.85490X0.90620*%
%TA.AperFunction,ConnectorPad*%
%ADD27R,2.92000X1.27000*%
%TA.AperFunction,SMDPad,CuDef*%
%ADD28R,0.85000X0.85000*%
%ADD29R,1.40000X1.15000*%
%ADD30R,5.30000X5.30000*%
%ADD31O,0.25000X1.05000*%
%ADD32O,1.05000X0.25000*%
%ADD33R,1.00000X1.00000*%
%ADD34R,0.83000X0.63000*%
%ADD35R,1.00000X0.75000*%
%ADD36R,0.80000X0.90000*%
%ADD37R,0.90000X0.80000*%
%ADD38R,0.86213X0.66370*%
%ADD39R,0.80000X1.70000*%
%ADD40R,0.80000X1.10000*%
%TA.AperFunction,Conductor*%
%ADD41C,0.25400*%
%TA.AperFunction,ComponentPad*%
G04:AMPARAMS|DCode=42|XSize=1.8mm|YSize=1mm|CornerRadius=0.25mm|HoleSize=0mm|Usage=FLASHONLY|Rotation=0.000|XOffset=0mm|YOffset=0mm|HoleType=Round|Shape=RoundedRectangle|*
%AMROUNDEDRECTD42*
21,1,1.80000,0.50000,0,0,0.0*
21,1,1.30000,1.00000,0,0,0.0*
1,1,0.50000,0.65000,-0.25000*
1,1,0.50000,-0.65000,-0.25000*
1,1,0.50000,-0.65000,0.25000*
1,1,0.50000,0.65000,0.25000*
%
%ADD42ROUNDEDRECTD42*%
%ADD43O,2.10000X1.00000*%
%ADD44C,0.65000*%
%AMCUSTOMSHAPE45*
4,1,7,0.75000,0.75000,0.75000,0.00000,0.75000,-1.50000,0.75000,-1.50000,-0.75000,-1.50000,-0.75000,0.75000,-0.75000,0.75000,0.75000,0.75000,0.0*%
%ADD45CUSTOMSHAPE45*%

%AMCUSTOMSHAPE46*
4,1,7,-0.75000,-0.75000,-0.75000,0.00000,-0.75000,1.50000,-0.75000,1.50000,0.75000,1.50000,0.75000,-0.75000,0.75000,-0.75000,-0.75000,-0.75000,0.0*%
%ADD46CUSTOMSHAPE46*%

%ADD47C,1.37000*%
%ADD48R,1.37000X1.37000*%
%ADD49C,2.91000*%
%TA.AperFunction,ViaPad*%
%ADD50C,0.45000*%
%ADD51C,1.50000*%
D10*
X2883100Y2291587D02*
D03*
Y2146416D02*
D03*
D11*
X1447499Y1827718D02*
D03*
Y1712282D02*
D03*
X1330000Y2567719D02*
D03*
Y2452282D02*
D03*
X2610000Y1352282D02*
D03*
Y1467718D02*
D03*
X3040000Y914563D02*
D03*
Y1030000D02*
D03*
X3580000Y2227718D02*
D03*
Y2112282D02*
D03*
X3770000Y1242281D02*
D03*
Y1357718D02*
D03*
X3067500Y2265218D02*
D03*
Y2149782D02*
D03*
D12*
X767500Y2559000D02*
D03*
Y1919000D02*
D03*
Y2479000D02*
D03*
Y1999000D02*
D03*
D13*
Y2214000D02*
D03*
Y2264000D02*
D03*
Y2164000D02*
D03*
Y2114000D02*
D03*
Y2064000D02*
D03*
Y2314000D02*
D03*
Y2364000D02*
D03*
Y2414000D02*
D03*
D14*
X1790000Y1800000D02*
D03*
D15*
X1690000Y1995000D02*
D03*
X1740000D02*
D03*
X1790000D02*
D03*
X1840000D02*
D03*
X1890000D02*
D03*
Y1605000D02*
D03*
X1840000D02*
D03*
X1790000D02*
D03*
X1740000D02*
D03*
X1690000D02*
D03*
D16*
X1985000Y1900000D02*
D03*
Y1850000D02*
D03*
Y1800000D02*
D03*
Y1750000D02*
D03*
Y1700000D02*
D03*
X1595000D02*
D03*
Y1750000D02*
D03*
Y1800000D02*
D03*
Y1850000D02*
D03*
Y1900000D02*
D03*
D17*
X1450000Y2300000D02*
D03*
X1400000D02*
D03*
X1350000D02*
D03*
X1300000D02*
D03*
Y2010000D02*
D03*
X1350000D02*
D03*
X1400000D02*
D03*
X1450000D02*
D03*
D18*
X1375000Y2155000D02*
D03*
D19*
X2198830Y2021493D02*
D03*
X2334171D02*
D03*
X2197528Y1851762D02*
D03*
X2332870D02*
D03*
D20*
X2464829Y1650000D02*
D03*
X2610000D02*
D03*
D21*
X2512281Y1930000D02*
D03*
X2627718D02*
D03*
D22*
X1910000Y1060000D02*
D03*
Y940000D02*
D03*
X2090000Y1440000D02*
D03*
Y1320000D02*
D03*
X3733200Y881200D02*
D03*
Y761200D02*
D03*
D23*
X3340000Y575000D02*
D03*
X3460000D02*
D03*
D24*
X2000000Y2157500D02*
D03*
Y2322500D02*
D03*
X1600000Y2320000D02*
D03*
Y2160000D02*
D03*
X1800000Y2160000D02*
D03*
Y2320000D02*
D03*
D25*
X2200000Y2472329D02*
D03*
Y2627671D02*
D03*
X1800000Y2472329D02*
D03*
Y2627671D02*
D03*
X1600000Y2474659D02*
D03*
Y2630000D02*
D03*
X2000000Y2627671D02*
D03*
Y2472329D02*
D03*
D26*
X953435Y2489200D02*
D03*
X1078565D02*
D03*
Y1905000D02*
D03*
X953435D02*
D03*
D27*
X1510000Y995000D02*
D03*
Y695000D02*
D03*
X1047000Y995000D02*
D03*
Y695000D02*
D03*
D28*
X2150000Y520000D02*
D03*
Y855000D02*
D03*
D29*
X3290000Y790000D02*
D03*
X3510000D02*
D03*
Y950000D02*
D03*
X3290000D02*
D03*
X1680000Y1310000D02*
D03*
X1900000D02*
D03*
Y1470000D02*
D03*
X1680000D02*
D03*
D30*
X3210760Y1595100D02*
D03*
D31*
X2960760Y1942600D02*
D03*
X3010760Y1942600D02*
D03*
X3060760D02*
D03*
X3110760D02*
D03*
X3160760Y1942600D02*
D03*
X3210760D02*
D03*
X3260760D02*
D03*
X3310760Y1942600D02*
D03*
X3360760D02*
D03*
X3410760Y1942600D02*
D03*
X3460760D02*
D03*
X3460760Y1247601D02*
D03*
X3410760D02*
D03*
X3360760Y1247600D02*
D03*
X3310760D02*
D03*
X3260760Y1247601D02*
D03*
X3210760D02*
D03*
X3160760D02*
D03*
X3110760Y1247600D02*
D03*
X3060760D02*
D03*
X3010760D02*
D03*
X2960760Y1247601D02*
D03*
D32*
X3558260Y1845100D02*
D03*
Y1795100D02*
D03*
Y1745100D02*
D03*
X3558260Y1695100D02*
D03*
X3558259Y1645100D02*
D03*
Y1595100D02*
D03*
X3558260Y1545100D02*
D03*
Y1495100D02*
D03*
Y1445100D02*
D03*
X3558260Y1395100D02*
D03*
Y1345100D02*
D03*
X2863260D02*
D03*
Y1395100D02*
D03*
X2863260Y1445100D02*
D03*
Y1495100D02*
D03*
Y1545100D02*
D03*
X2863260Y1595100D02*
D03*
Y1645100D02*
D03*
X2863260Y1695100D02*
D03*
Y1745100D02*
D03*
Y1795100D02*
D03*
Y1845100D02*
D03*
D33*
X2670000Y2320000D02*
D03*
Y2120000D02*
D03*
D34*
X960000Y1498500D02*
D03*
Y1721500D02*
D03*
D35*
X750000Y1685000D02*
D03*
Y1535000D02*
D03*
D36*
X1115000Y1480000D02*
D03*
X1305000D02*
D03*
X1210000Y1680000D02*
D03*
D37*
X1160096Y2099145D02*
D03*
Y2289145D02*
D03*
X960096Y2194145D02*
D03*
D38*
X2820000Y817061D02*
D03*
Y942939D02*
D03*
D39*
X2680000Y630000D02*
D03*
X2340000D02*
D03*
D40*
X2510000Y795000D02*
D03*
D41*
X1227500Y942500D02*
Y1157500D01*
X1067500Y1317500D02*
X1227500Y1157500D01*
Y942500D02*
X1373750Y796250D01*
X1406251D01*
X1425200Y745800D02*
X1476000Y695000D01*
X1406251Y796250D02*
X1425200Y777300D01*
Y745800D02*
Y777300D01*
X1476000Y695000D02*
X1510000D01*
X2800000Y2300000D02*
X2864100D01*
X1452500Y1832719D02*
Y1912500D01*
Y1615000D02*
Y1707281D01*
X1447499Y1712282D02*
X1452500Y1707281D01*
X1447499Y1827718D02*
X1452500Y1832719D01*
X1465218Y1810000D02*
X1538707D01*
X1447499Y1827718D02*
X1465218Y1810000D01*
X372000Y150000D02*
Y154500D01*
Y0D02*
Y150000D01*
Y154500D02*
X375000Y157500D01*
X3062500Y2280400D02*
X3063800Y2279100D01*
X3062500Y2280400D02*
Y2360000D01*
X3360960Y1982400D02*
Y1996443D01*
X3435200Y2070683D01*
X3310960Y1982400D02*
Y1999334D01*
X3380000Y2068375D01*
X3260960Y1982400D02*
Y2002226D01*
X3324000Y2065266D01*
X3271800Y2084300D02*
Y2487000D01*
X3210960Y1942800D02*
Y2023460D01*
X3271800Y2084300D01*
X3142145Y2510400D02*
X3220000Y2432545D01*
X3160960Y2043460D02*
X3220000Y2102500D01*
Y2432545D01*
X3160960Y1942800D02*
Y2043460D01*
X3110960Y2060960D02*
X3170000Y2120000D01*
Y2409784D01*
X3110960Y1942800D02*
Y2060960D01*
X3037312Y2179970D02*
X3039593D01*
X2992521Y2224600D02*
X3017491Y2199630D01*
X2992521Y2224600D02*
Y2354182D01*
X3017651Y2199630D02*
X3037312Y2179970D01*
X3017491Y2199630D02*
X3017651D01*
X3039593Y2179970D02*
X3067500Y2152063D01*
Y2149782D02*
Y2152063D01*
X3060760Y1942600D02*
Y2140000D01*
X2946703Y2400000D02*
X2992521Y2354182D01*
X2440000Y2400000D02*
X2946703D01*
X3435200Y2070683D02*
Y2577000D01*
X3380000Y2068375D02*
Y2250000D01*
X3324000Y2065266D02*
Y2586000D01*
X3268800Y2490000D02*
X3271800Y2487000D01*
X3124584Y2455200D02*
X3170000Y2409784D01*
X3119281Y2455200D02*
X3124584D01*
X635850Y2211650D02*
Y2251250D01*
Y2211650D02*
X683501Y2164000D01*
X810000D01*
X632100Y2255000D02*
X635850Y2251250D01*
X1300000Y1930220D02*
X1335200Y1965420D01*
X1230000Y1580000D02*
X1300000Y1650000D01*
X1335200Y1965600D02*
X1349800Y1980200D01*
X1335200Y1965420D02*
Y1965600D01*
X1300000Y1650000D02*
Y1930220D01*
X1305000Y1555000D02*
X1370000Y1620000D01*
X1305000Y1505000D02*
Y1555000D01*
X1370000Y1620000D02*
Y1902320D01*
X1400000Y1932500D02*
Y2010000D01*
X1392500Y1925000D02*
X1400000Y1932500D01*
X1370000Y1902320D02*
X1392500Y1924820D01*
Y1925000D01*
X2446961Y1730000D02*
X2707500D01*
X2742400Y1695100D01*
X2863260D01*
X2332870Y1844091D02*
X2446961Y1730000D01*
X2471047Y893150D02*
X2774714D01*
X2417300Y839403D02*
X2471047Y893150D01*
X2789593Y908029D02*
Y922454D01*
X2774714Y893150D02*
X2789593Y908029D01*
X2794828Y927689D02*
X2815188D01*
X2789593Y922454D02*
X2794828Y927689D01*
X2367986Y1102986D02*
X2438400D01*
X2190400Y1070400D02*
X2335400D01*
X2367986Y1102986D01*
X2438400D02*
X2652986D01*
X2836360Y1196360D02*
Y1344900D01*
X2687786Y1047786D02*
X2836360Y1196360D01*
X2419386Y1047786D02*
X2687786D01*
X2927798Y1217798D02*
X2960560D01*
X2691338Y981338D02*
X2927798Y1217798D01*
X2601338Y981338D02*
X2691338D01*
X2960760Y1217998D02*
Y1247601D01*
X2960560Y1217798D02*
X2960760Y1217998D01*
X2802284Y962416D02*
Y999345D01*
X2794000Y954132D02*
X2802284Y962416D01*
Y999345D02*
X3010560Y1207621D01*
X2652986Y1102986D02*
X2780000Y1230000D01*
Y1351621D01*
X2276251Y1158186D02*
X2635686D01*
X2730000Y1252500D01*
Y1360000D01*
X3410760Y1201740D02*
X3455000Y1157500D01*
X3589909D01*
X3410760Y1201740D02*
Y1247601D01*
X3589909Y1157500D02*
X3607726Y1175317D01*
X3613030D01*
X3362286Y1187714D02*
Y1202651D01*
X3360760Y1204177D02*
X3362286Y1202651D01*
Y1187714D02*
X3450000Y1100000D01*
X3360760Y1204177D02*
Y1247600D01*
X3310760Y1171740D02*
Y1247600D01*
Y1171740D02*
X3356250Y1126250D01*
Y1099692D02*
Y1126250D01*
Y1099692D02*
X3360000Y1095942D01*
X3260760Y1175477D02*
X3260760Y1175477D01*
X3280000Y1120000D02*
Y1125304D01*
X3260760Y1144544D02*
X3280000Y1125304D01*
X3260760Y1144544D02*
Y1175477D01*
X3260760Y1175477D02*
Y1207800D01*
X3450000Y1100000D02*
X3550000D01*
X3210760Y1087207D02*
X3257225Y1040742D01*
X3210760Y1087207D02*
Y1247601D01*
X3515000Y955000D02*
X3544800Y925200D01*
X3406758Y1040742D02*
X3497500Y950000D01*
X3257225Y1040742D02*
X3406758D01*
X3277500Y790000D02*
X3300000D01*
X3189079Y878421D02*
Y918421D01*
Y878421D02*
X3277500Y790000D01*
X3160760Y1208000D02*
Y1247601D01*
X3160400Y1207640D02*
X3160760Y1208000D01*
X3160400Y947100D02*
Y1207640D01*
Y947100D02*
X3189079Y918421D01*
X3300000Y575000D02*
Y790000D01*
X3416779Y870721D02*
Y890721D01*
Y870721D02*
X3497500Y790000D01*
X3510000D01*
X3372218Y920282D02*
X3372218Y920282D01*
X3387218D01*
X3416779Y890721D01*
X3630801Y921200D02*
X3733200D01*
X3626801Y925200D02*
X3630801Y921200D01*
X3544800Y925200D02*
X3626801D01*
X3497500Y950000D02*
X3510000D01*
X3304800Y935200D02*
X3359496D01*
X3290000Y950000D02*
X3304800Y935200D01*
X3370664Y924032D02*
X3375968D01*
X3359496Y935200D02*
X3370664Y924032D01*
X3460000Y575000D02*
X3475000Y590000D01*
X3540000D01*
X3800282Y679718D02*
Y701618D01*
Y679718D02*
X3804032Y675968D01*
X3758150Y743750D02*
X3800282Y701618D01*
X3755750Y743750D02*
X3758150D01*
X3840000Y1760000D02*
X4204696D01*
X3558259Y1645100D02*
X3725100D01*
X3840000Y1760000D01*
X3558459Y1595300D02*
X3775300D01*
X3860000Y1680000D02*
X4150000D01*
X3775300Y1595300D02*
X3860000Y1680000D01*
X3870000Y1610000D02*
X4050000D01*
X3558460Y1545300D02*
X3805300D01*
X3870000Y1610000D01*
X3558260Y1495100D02*
X3825100D01*
X3860000Y1530000D02*
X3970000D01*
X3825100Y1495100D02*
X3860000Y1530000D01*
X3685100Y1695100D02*
X3823750Y1833750D01*
X3976250D01*
X3980000Y1830000D01*
X3800000Y2040000D02*
Y2480000D01*
X3558260Y1845100D02*
X3605100D01*
X3800000Y2040000D01*
X3665100Y1745100D02*
X4182000Y2262000D01*
X3558260Y1745100D02*
X3665100D01*
X4182000Y2262000D02*
Y2900000D01*
X3558260Y1695100D02*
X3685100D01*
X4204696Y1760000D02*
X4214696Y1750000D01*
X4220000D01*
X3879496Y1445200D02*
X3884696Y1440000D01*
X3558360Y1445200D02*
X3879496D01*
X3884696Y1440000D02*
X3890000D01*
X3460960Y1230517D02*
X3649483D01*
X3650000Y1230000D01*
X3797907Y1194337D02*
X3816250Y1175994D01*
Y1133750D02*
X3820000Y1130000D01*
X3816250Y1133750D02*
Y1175994D01*
X3702694Y1387907D02*
X3742093D01*
X3770000Y1360000D01*
Y1357718D02*
Y1360000D01*
X3700600Y1390000D02*
X3702694Y1387907D01*
X3634696Y1390000D02*
X3700600D01*
X3634696D02*
X3640000D01*
X3770000Y1242281D02*
X3797907Y1214375D01*
Y1194337D02*
Y1214375D01*
X1523279Y1008279D02*
Y1061721D01*
X1510000Y995000D02*
X1523279Y1008279D01*
X1230000Y1355000D02*
X1523279Y1061721D01*
X1230000Y1355000D02*
Y1390000D01*
X1115000Y1505000D02*
X1230000Y1390000D01*
X800000Y980000D02*
X1032000D01*
X1047000Y995000D01*
X819504Y745800D02*
X996200D01*
X1047000Y695000D01*
X815304Y750000D02*
X819504Y745800D01*
X810000Y750000D02*
X815304D01*
X539300Y286800D02*
X1158194D01*
X1301393Y430000D01*
X1642000Y150000D02*
X1804622Y312622D01*
X1642000Y0D02*
Y150000D01*
X3570000Y2260000D02*
Y2340000D01*
X2658000Y2900000D02*
X2918000Y2640000D01*
X3270000D01*
X3324000Y2586000D01*
X3156100Y2856100D02*
X3435200Y2577000D01*
X2670000Y2510400D02*
X3142145D01*
X2550000Y2320000D02*
X2670000D01*
X677170Y2046250D02*
X707120Y2016300D01*
X660000Y2050000D02*
X663750Y2046250D01*
X677170D01*
X750200Y2016300D02*
X767500Y1999000D01*
X707120Y2016300D02*
X750200D01*
X1597329Y2630000D02*
X1797671D01*
X1800000Y2627671D01*
X2337671Y2010000D02*
X2337994D01*
X2354407Y1972277D02*
Y1993586D01*
X2337994Y2010000D02*
X2354407Y1993586D01*
Y1972277D02*
X2526684Y1800000D01*
X2191111Y2020000D02*
X2192604Y2021493D01*
X2130000Y2020000D02*
X2191111D01*
X2728649Y1800000D02*
X2783549Y1745100D01*
X2863260D01*
X2526684Y1800000D02*
X2728649D01*
X1997500Y2160000D02*
X2000000Y2157500D01*
X1900000Y2160000D02*
X1997500D01*
X2168357Y2148357D02*
X2230000Y2210000D01*
X2091131Y2072226D02*
X2167261Y2148357D01*
X2091131Y2071130D02*
Y2072226D01*
X2015000Y1995000D02*
X2091131Y2071130D01*
X2167261Y2148357D02*
X2168357D01*
X1890000Y1995000D02*
X2015000D01*
X2024692Y2070089D02*
X2167093Y2212490D01*
X1892808Y2070089D02*
X2024692D01*
X2167093Y2212490D02*
Y2442093D01*
X2192604Y2021493D02*
X2222772D01*
X3460760Y1230717D02*
X3460960Y1230517D01*
X3460760Y1230717D02*
Y1247601D01*
X2722300Y1855200D02*
X2742098D01*
X2332870Y1844091D02*
Y1851762D01*
X2510000Y1932281D02*
X2512281Y1930000D01*
X2510000Y1932281D02*
Y2010000D01*
X2855102Y2120000D02*
X2960760Y2014342D01*
X2670000Y2120000D02*
X2855102D01*
X2637907Y1277397D02*
Y1324375D01*
Y1277397D02*
X2650000Y1265304D01*
X2610000Y1352282D02*
X2637907Y1324375D01*
X2650000Y1260000D02*
Y1265304D01*
X2610000Y1470000D02*
X2637907Y1497907D01*
X2694842D01*
X2610000Y1467718D02*
Y1470000D01*
X2694842Y1497907D02*
X2746935Y1550000D01*
X2750000D01*
X3629796Y1394900D02*
X3634696Y1390000D01*
X3558260Y1395100D02*
X3558460Y1394900D01*
X3629796D01*
X3558260Y1445100D02*
X3558360Y1445200D01*
X3030000Y820000D02*
Y904563D01*
X3040000Y914563D01*
Y1106067D02*
X3060000Y1126067D01*
X3040000Y1060000D02*
Y1106067D01*
X3060000Y1126067D02*
Y1130000D01*
X3060560Y1207800D02*
X3060760Y1208000D01*
X3060560Y1130560D02*
Y1207800D01*
X3060000Y1130000D02*
X3060560Y1130560D01*
X3060760Y1208000D02*
Y1247600D01*
X1115000Y1515000D02*
X1180000Y1580000D01*
X1230000D01*
X1250000Y1960000D02*
Y2220400D01*
X1570304Y1995000D02*
X1690000D01*
X1530000Y1960000D02*
X1535304D01*
X1570304Y1995000D01*
X1740000D02*
Y2145000D01*
X1790200Y2044896D02*
X1820000Y2074696D01*
Y2080000D01*
X1790000Y1995000D02*
X1790200Y1995200D01*
Y2044896D01*
X1840000Y1995000D02*
Y2017100D01*
X1854800Y2031900D01*
Y2032080D01*
X1892808Y2070089D01*
X1572700Y1849800D02*
X1572900Y1850000D01*
X1572700Y1819800D02*
Y1849800D01*
X1562900Y1810000D02*
X1572700Y1819800D01*
X1537300Y1808593D02*
X1538707Y1810000D01*
X1572900Y1700000D02*
X1595000D01*
X1558100Y1714800D02*
X1572900Y1700000D01*
X1557920Y1714800D02*
X1558100D01*
X1537300Y1735420D02*
X1557920Y1714800D01*
X1537300Y1735420D02*
Y1808593D01*
X1538707Y1810000D02*
X1562900D01*
X1572900Y1850000D02*
X1595000D01*
X1250000Y2220400D02*
X1300000Y2270400D01*
X1070000Y1770000D02*
X1130000Y1710000D01*
X1210000D01*
X1115000Y1505000D02*
Y1510000D01*
Y1515000D01*
X750000Y1535000D02*
X767700Y1552700D01*
X1077300D01*
X1115000Y1515000D01*
X959706Y1426393D02*
Y1498206D01*
X1305000Y1505000D02*
X1430000Y1380000D01*
X891500Y1780000D02*
X950650Y1720850D01*
X890000Y1780000D02*
X891500D01*
X950650Y1720850D02*
X960650D01*
X1260723Y2567719D02*
X1330000D01*
X1186334Y2493330D02*
X1260723Y2567719D01*
X1330000Y2452282D02*
X1419611D01*
X1597329Y2630000D01*
X1450612Y2297865D02*
X1518477Y2230000D01*
X1700000D01*
X1450612Y2297865D02*
Y2299388D01*
X1450000Y2300000D02*
X1450612Y2299388D01*
X1400000Y2180000D02*
Y2300000D01*
X1380000Y2155000D02*
X1450000Y2085000D01*
Y2010000D02*
Y2085000D01*
X1375000Y2155000D02*
X1380000D01*
X1375000D02*
X1400000Y2180000D01*
X1350000Y2300000D02*
Y2329600D01*
X1330000Y2349600D02*
Y2452282D01*
Y2349600D02*
X1350000Y2329600D01*
X1300000Y2270400D02*
Y2300000D01*
X2526250Y1573750D02*
Y1590493D01*
Y1573750D02*
X2530000Y1570000D01*
X2465000Y1651743D02*
X2526250Y1590493D01*
X3410760Y1795100D02*
Y1942600D01*
X3210760Y1595100D02*
X3460760Y1345100D01*
X3010760Y1795100D02*
Y1942600D01*
X3110760Y1247600D02*
Y1495100D01*
X2652700Y647300D02*
X2680000Y620000D01*
X1920000Y900000D02*
X2050000Y1030000D01*
X1910000Y900000D02*
X1920000D01*
X1692500Y1470000D02*
X1807700Y1354800D01*
X1170750Y151250D02*
X1370347Y350847D01*
X1943347D01*
X1804622Y312622D02*
X2622622D01*
X2780000Y1351621D02*
X2808680Y1380300D01*
X2730000Y1360000D02*
X2815100Y1445100D01*
X2863260D01*
X1108095Y2493330D02*
X1186334D01*
X1103965Y2489200D02*
X1108095Y2493330D01*
X2053461Y1690972D02*
X2119028D01*
X2250000Y1560000D01*
X2082188Y1810400D02*
X2084035D01*
X2097136Y1797300D01*
X2044433Y1700000D02*
X2053461Y1690972D01*
X1985000Y1750000D02*
X1985200Y1749800D01*
X1985000Y1700000D02*
X2044433D01*
X2115965Y1797300D02*
X2394800Y1518465D01*
X2072698Y1749800D02*
X2076325Y1746173D01*
X2223344Y1852500D02*
X2224640Y1851204D01*
X2120000Y1852500D02*
X2223344D01*
X2097136Y1797300D02*
X2115965D01*
X1985200Y1749800D02*
X2072698D01*
X1985200Y1900200D02*
X2069942D01*
X1985200Y1849800D02*
X2042788D01*
X2069942Y1900200D02*
X2070197Y1900456D01*
X2042788Y1849800D02*
X2082188Y1810400D01*
X2394800Y1260000D02*
Y1518465D01*
X407500Y155000D02*
X539300Y286800D01*
X3420000Y2860000D02*
X3800000Y2480000D01*
X3420000Y2860000D02*
Y2900000D01*
X3642055Y1795300D02*
X3960000Y2113244D01*
Y2885121D01*
X1301393Y430000D02*
X1928600D01*
X2060000Y561400D01*
Y940000D01*
X2190400Y1070400D01*
X2622622Y312622D02*
X2950000Y640000D01*
X1943347Y350847D02*
X2131250Y538750D01*
X2167500Y575000D01*
X3945121Y2900000D02*
X3960000Y2885121D01*
X3943500Y2900000D02*
X3945121D01*
X3156100Y2874600D02*
X3181500Y2900000D01*
X3156100Y2856100D02*
Y2874600D01*
X3558460Y1795300D02*
X3642055D01*
X3558260Y1795100D02*
X3558460Y1795300D01*
X470199Y1610000D02*
X494000D01*
X400000Y1570000D02*
X430199D01*
X470199Y1610000D01*
X494000D02*
X569000Y1685000D01*
X710000Y2671000D02*
X733039D01*
X767500Y2559000D02*
Y2636539D01*
X733039Y2671000D02*
X767500Y2636539D01*
X830535Y2366300D02*
X920825Y2456590D01*
X923390D01*
X953435Y2486635D01*
X767500Y2364000D02*
X769800Y2366300D01*
X830535D01*
X953435Y2486635D02*
Y2489200D01*
X767500Y2314000D02*
X986000D01*
X1060000Y2240000D01*
X710598Y2311700D02*
X765200D01*
X767500Y2314000D01*
X687300Y2288402D02*
X710598Y2311700D01*
X687300Y2239597D02*
Y2288402D01*
Y2239597D02*
X700597Y2226300D01*
X712700D02*
X725000Y2214000D01*
X767500D01*
X700597Y2226300D02*
X712700D01*
X810000Y2264000D02*
X822300Y2251700D01*
X834402D01*
Y2176300D02*
X847700Y2189597D01*
X834402Y2251700D02*
X847700Y2238402D01*
X822300Y2176300D02*
X834402D01*
X847700Y2189597D02*
Y2238402D01*
X810000Y2164000D02*
X822300Y2176300D01*
X767500Y2264000D02*
X810000D01*
Y2064000D02*
X822300Y2051700D01*
X834402D01*
X847700Y2013300D02*
X953435Y1907565D01*
Y1905000D02*
Y1907565D01*
X767500Y2064000D02*
X810000D01*
X834402Y2051700D02*
X847700Y2038402D01*
Y2013300D02*
Y2038402D01*
X725120Y1822120D02*
Y1901700D01*
X742420Y1919000D01*
X767500D01*
X710000Y1807000D02*
X725120Y1822120D01*
X707120Y2461700D02*
X750200D01*
X583750Y2490829D02*
Y2496250D01*
X580000Y2500000D02*
X583750Y2496250D01*
X750200Y2461700D02*
X767500Y2479000D01*
X693220Y2447800D02*
X707120Y2461700D01*
X626780Y2447800D02*
X693220D01*
X583750Y2490829D02*
X626780Y2447800D01*
X2194696Y1225200D02*
X2224696Y1195200D01*
X2090000Y1280000D02*
X2144800Y1225200D01*
X2194696D01*
X2224696Y1195200D02*
X2230000D01*
X1157142Y2288979D02*
X1180000Y2311837D01*
X1790000Y1605000D02*
Y1627101D01*
X1788786Y1628315D02*
X1790000Y1627101D01*
X1788786Y1628315D02*
Y1798786D01*
X1790000Y1800000D01*
X2000000Y2627671D02*
X2200000D01*
X1800000D02*
X2000000D01*
X2394800Y1260000D02*
X2440000Y1214800D01*
X2515000Y800000D02*
X2630000D01*
X2510000Y795000D02*
X2515000Y800000D01*
X2630000Y794696D02*
Y800000D01*
X2652700Y647300D02*
Y771996D01*
X2630000Y794696D02*
X2652700Y771996D01*
X2680000Y620000D02*
Y630000D01*
X2250000Y1270000D02*
Y1560000D01*
X1985000Y1900000D02*
X1985200Y1900200D01*
X1985000Y1850000D02*
X1985200Y1849800D01*
X1690000Y1997300D02*
Y2070000D01*
X1740000Y2145000D02*
Y2190000D01*
X1785000Y2145000D02*
X1800000Y2160000D01*
X1740000Y2145000D02*
X1785000D01*
X1700000Y2230000D02*
X1740000Y2190000D01*
X2000000Y2322500D02*
Y2472329D01*
X1800000Y2320000D02*
Y2475000D01*
X1600000Y2320000D02*
Y2474659D01*
Y2160000D02*
X1690000Y2070000D01*
X2167093Y2442093D02*
X2197329Y2472329D01*
X2200000D01*
X2814900Y1595100D02*
X2863260D01*
X2639998Y1647800D02*
X2762200D01*
X2814900Y1595100D01*
X2311400Y939800D02*
X2419386Y1047786D01*
X2258065Y1140000D02*
X2276251Y1158186D01*
X2050000Y1140000D02*
X2258065D01*
X1063750Y2190492D02*
X1155096Y2099145D01*
X1063750Y2190492D02*
Y2236250D01*
X1060000Y2240000D02*
X1063750Y2236250D01*
X1155096Y2099145D02*
X1160096D01*
X960000Y2194049D02*
X960096Y2194145D01*
X960000Y2100000D02*
Y2194049D01*
X1180000Y2311837D02*
Y2390000D01*
X1157142Y2288979D02*
X1159931D01*
X1160096Y2289145D01*
X569000Y1685000D02*
X750000D01*
X1807700Y1354800D02*
X1855200D01*
X1680000Y1470000D02*
X1692500D01*
X1855200Y1354800D02*
X1900000Y1310000D01*
X1690000Y1588803D02*
Y1605000D01*
X1639000Y1588603D02*
X1689800D01*
X1587300Y1536903D02*
X1639000Y1588603D01*
X1587300Y1390200D02*
Y1536903D01*
Y1390200D02*
X1667500Y1310000D01*
X1689800Y1588603D02*
X1690000Y1588803D01*
X1667500Y1310000D02*
X1680000D01*
X1737300Y1262700D02*
Y1265200D01*
X1680000Y1310000D02*
X1692500D01*
X1900000Y1100000D02*
X1910000D01*
X1737300Y1262700D02*
X1900000Y1100000D01*
X1692500Y1310000D02*
X1737300Y1265200D01*
X1810200Y1547300D02*
X1887500Y1470000D01*
X1775420Y1547300D02*
X1810200D01*
X1740200Y1582520D02*
X1775420Y1547300D01*
X1887500Y1470000D02*
X1900000D01*
X1740200Y1582520D02*
Y1604800D01*
X1740000Y1605000D02*
X1740200Y1604800D01*
X2080000Y1470000D02*
X2090000Y1480000D01*
X1900000Y1470000D02*
X2080000D01*
X2830000Y720000D02*
Y807061D01*
X2820000Y817061D02*
X2830000Y807061D01*
X3460760Y1942600D02*
Y1982200D01*
X3496260Y2017700D01*
X3507700D01*
X3570000Y2080000D01*
X3580800Y2069200D02*
X3709500D01*
X979706Y1498206D02*
X980000Y1498500D01*
X2150000Y737500D02*
Y855000D01*
X3558260Y1545100D02*
X3558460Y1545300D01*
X3558259Y1595100D02*
X3558459Y1595300D01*
X2167500Y575000D02*
X2202500Y610000D01*
X2310000D01*
X2388100D01*
X2750000Y1550000D02*
X2755304D01*
X2760204Y1545100D02*
X2863260D01*
X2755304Y1550000D02*
X2760204Y1545100D01*
X2775204Y1494900D02*
X2823460D01*
X2755304Y1475000D02*
X2775204Y1494900D01*
X2750000Y1475000D02*
X2755304D01*
X2388100Y610000D02*
X2417300Y639200D01*
Y839403D01*
X3320760Y1705100D02*
X3410760Y1795100D01*
X3210760Y1595100D02*
X3320760Y1705100D01*
X3160760Y1645100D02*
X3210760Y1595100D01*
X3100760Y1705100D02*
X3160760Y1645100D01*
X3010760Y1795100D02*
X3100760Y1705100D01*
X3110760Y1495100D02*
X3210760Y1595100D01*
X3460760Y1345100D02*
X3558260D01*
X2820000Y2010000D02*
X2863260Y1966740D01*
X2836559Y1345100D02*
X2863260D01*
X2836360Y1344900D02*
X2836559Y1345100D01*
X2801998Y1795300D02*
X2863060D01*
X2742098Y1855200D02*
X2801998Y1795300D01*
X2660000Y1917500D02*
Y1920000D01*
Y1917500D02*
X2722300Y1855200D01*
X2863060Y1795300D02*
X2863260Y1795100D01*
X2863260Y1645100D02*
X3160760D01*
X2863260Y1845100D02*
Y1966740D01*
X3160760Y1942600D02*
X3160960Y1942800D01*
X3210760Y1942600D02*
X3210960Y1942800D01*
X3110760Y1942600D02*
X3110960Y1942800D01*
X2960760Y1942600D02*
Y2014342D01*
X3570000Y2080000D02*
X3580800Y2069200D01*
X1092200Y1905000D02*
X1168400D01*
X2600000Y980000D02*
X2601338Y981338D01*
X3010560Y1247400D02*
X3010760Y1247600D01*
X3010560Y1207621D02*
Y1247400D01*
X2808680Y1380300D02*
X2808860D01*
X2823460Y1394900D01*
D42*
X292000Y2671000D02*
D03*
Y1807000D02*
D03*
D43*
X710000Y2671000D02*
D03*
Y1807000D02*
D03*
D44*
X660000Y1950000D02*
D03*
Y2528000D02*
D03*
D45*
X118000Y150000D02*
D03*
X372000D02*
D03*
X626000D02*
D03*
X880000D02*
D03*
X1134000D02*
D03*
X1388000D02*
D03*
X1642000D02*
D03*
X1896000D02*
D03*
X2150000D02*
D03*
X2404000D02*
D03*
X2658000D02*
D03*
X2912000D02*
D03*
X3166000D02*
D03*
X3420000D02*
D03*
X3674000D02*
D03*
X4182000D02*
D03*
X3928000D02*
D03*
D46*
X4182000Y2900000D02*
D03*
X3928000D02*
D03*
X3674000D02*
D03*
X3420000D02*
D03*
X3166000D02*
D03*
X2912000D02*
D03*
X2658000D02*
D03*
X2404000D02*
D03*
X2150000D02*
D03*
X1896000D02*
D03*
X1642000D02*
D03*
X1388000D02*
D03*
X1134000D02*
D03*
X880000D02*
D03*
X626000D02*
D03*
X118000D02*
D03*
X372000D02*
D03*
D47*
X400000Y1570000D02*
D03*
D48*
X146000D02*
D03*
D49*
X500000Y1210000D02*
D03*
Y480000D02*
D03*
D50*
X1067500Y1317500D02*
D03*
X2800000Y2300000D02*
D03*
X1452500Y1912500D02*
D03*
Y1615000D02*
D03*
X3062500Y2360000D02*
D03*
X3380000Y2250000D02*
D03*
X3360000Y1095942D02*
D03*
X3280000Y1120000D02*
D03*
X3540000Y590000D02*
D03*
X3804032Y675968D02*
D03*
X3980000Y1830000D02*
D03*
X4220000Y1750000D02*
D03*
X4150000Y1680000D02*
D03*
X4050000Y1610000D02*
D03*
X3970000Y1530000D02*
D03*
X3890000Y1440000D02*
D03*
X3650000Y1230000D02*
D03*
X3820000Y1130000D02*
D03*
X3570000Y2340000D02*
D03*
X3268800Y2490000D02*
D03*
X3119281Y2455200D02*
D03*
X2670000Y2510400D02*
D03*
X2440000Y2400000D02*
D03*
X2550000Y2320000D02*
D03*
X810000Y750000D02*
D03*
X660000Y2050000D02*
D03*
X1700000Y2630000D02*
D03*
X2130000Y2020000D02*
D03*
X1900000Y2160000D02*
D03*
X2742098Y1855200D02*
D03*
X2510000Y2010000D02*
D03*
X2650000Y1260000D02*
D03*
X3640000Y1390000D02*
D03*
X3030000Y820000D02*
D03*
X3060000Y1130000D02*
D03*
X1250000Y1960000D02*
D03*
X1530000D02*
D03*
X1820000Y2080000D02*
D03*
X959706Y1426393D02*
D03*
X1845000Y1745000D02*
D03*
X1735000D02*
D03*
X1845000Y1855000D02*
D03*
X1735000D02*
D03*
X1070000Y1770000D02*
D03*
X890000Y1780000D02*
D03*
X1425000Y2205000D02*
D03*
Y2105000D02*
D03*
X1325000Y2205000D02*
D03*
Y2105000D02*
D03*
X2530000Y1570000D02*
D03*
X1186334Y2493330D02*
D03*
X2076325Y1746173D02*
D03*
X2120000Y1852500D02*
D03*
X2070197Y1900456D02*
D03*
X632100Y2255000D02*
D03*
X800000Y980000D02*
D03*
X2230000Y1195200D02*
D03*
X1780000Y1390000D02*
D03*
X1430000Y1380000D02*
D03*
X2440000Y1214800D02*
D03*
X2230000Y2210000D02*
D03*
X2750000Y1550000D02*
D03*
X2050000Y1030000D02*
D03*
X2438400Y1102986D02*
D03*
X2311400Y939800D02*
D03*
X2250000Y1270000D02*
D03*
X1060000Y2240000D02*
D03*
X960000Y2100000D02*
D03*
X1180000Y2390000D02*
D03*
X2830000Y720000D02*
D03*
X2630000Y800000D02*
D03*
X3709500Y2069200D02*
D03*
X580000Y2500000D02*
D03*
X3375968Y924032D02*
D03*
X2150000Y737500D02*
D03*
X3550000Y1100000D02*
D03*
X3613030Y1175317D02*
D03*
X2750000Y1475000D02*
D03*
X2950000Y640000D02*
D03*
X2050000Y1140000D02*
D03*
X2820000Y2010000D02*
D03*
X3430759Y1375100D02*
D03*
X3320760Y1375100D02*
D03*
X3210760Y1375101D02*
D03*
X3100760Y1375100D02*
D03*
X2990760Y1375101D02*
D03*
X3430760Y1485100D02*
D03*
X3320759Y1485100D02*
D03*
X3210760Y1485100D02*
D03*
X3100760Y1485101D02*
D03*
X2990760Y1485100D02*
D03*
X3430759Y1595100D02*
D03*
X3320760Y1595100D02*
D03*
X3210760D02*
D03*
X3100760D02*
D03*
X2990760Y1595100D02*
D03*
X3430760Y1705100D02*
D03*
X3320760D02*
D03*
X3210760D02*
D03*
X3100760Y1705100D02*
D03*
X2990760Y1705100D02*
D03*
X3430760Y1815100D02*
D03*
X3320760D02*
D03*
X3210760Y1815100D02*
D03*
X3100760Y1815100D02*
D03*
X2990760D02*
D03*
X1168400Y1905000D02*
D03*
X2600000Y980000D02*
D03*
D51*
X118000Y0D02*
D03*
X372000D02*
D03*
X626000D02*
D03*
X880000D02*
D03*
X1134000D02*
D03*
X1388000D02*
D03*
X1642000D02*
D03*
X1896000D02*
D03*
X2150000D02*
D03*
X2404000D02*
D03*
X2658000D02*
D03*
X2912000D02*
D03*
X3166000D02*
D03*
X3420000D02*
D03*
X3674000D02*
D03*
X4182000D02*
D03*
X3928000D02*
D03*
X4182000Y3050000D02*
D03*
X3928000D02*
D03*
X3674000D02*
D03*
X3420000D02*
D03*
X3166000D02*
D03*
X2912000D02*
D03*
X2658000D02*
D03*
X2404000D02*
D03*
X2150000D02*
D03*
X1896000D02*
D03*
X1642000D02*
D03*
X1388000D02*
D03*
X1134000D02*
D03*
X880000D02*
D03*
X626000D02*
D03*
X118000D02*
D03*
X372000D02*
D03*
%TF.MD5,44a6778e9e5dbe3af6355df4e732ba92*%
M02*
