%TF.GenerationSoftware,Altium Limited,Altium Designer,24.10.1 (45)*%
G04 Layer_Color=32896*
%FSLAX45Y45*%
%MOMM*%
%TF.SameCoordinates,D2505BA3-E522-476C-ACF0-F4815D070146*%
%TF.FilePolarity,Positive*%
%TF.FileFunction,Legend,Bot*%
%TF.Part,Single*%
G01*
G75*
G36*
X1734472Y2705284D02*
X1750580D01*
Y2689175D01*
X1758634D01*
Y2632796D01*
X1750580D01*
Y2624742D01*
X1742526D01*
Y2616688D01*
X1734472D01*
Y2608634D01*
X1710309D01*
Y2616688D01*
X1702255D01*
Y2624742D01*
X1694201D01*
Y2632796D01*
X1686147D01*
Y2689175D01*
X1694201D01*
Y2705284D01*
X1710309D01*
Y2713338D01*
X1734472D01*
Y2705284D01*
D02*
G37*
G36*
X1629768Y2568363D02*
X1637822D01*
Y2278415D01*
X1565335D01*
Y2471714D01*
X1557281D01*
Y2479768D01*
X1549227D01*
Y2487822D01*
X1541173D01*
Y2495876D01*
X1517010D01*
Y2487822D01*
X1508956D01*
Y2479768D01*
X1500902D01*
Y2463660D01*
X1492848D01*
Y2278415D01*
X1428415D01*
Y2503930D01*
X1436469D01*
Y2528093D01*
X1444523D01*
Y2544201D01*
X1452577D01*
Y2552255D01*
X1460631D01*
Y2560309D01*
X1468686D01*
Y2568363D01*
X1484794D01*
Y2576418D01*
X1541173D01*
Y2568363D01*
X1549227D01*
Y2560309D01*
X1565335D01*
Y2544201D01*
X1573389D01*
Y2576418D01*
X1629768D01*
Y2568363D01*
D02*
G37*
G36*
X2588209Y2278415D02*
X2515722D01*
Y2503930D01*
X2507668D01*
Y2487822D01*
X2499613D01*
Y2479768D01*
X2491559D01*
Y2471714D01*
X2483505D01*
Y2455606D01*
X2475451D01*
Y2447552D01*
X2467397D01*
Y2439498D01*
X2459343D01*
Y2431443D01*
X2451289D01*
Y2415335D01*
X2443235D01*
Y2407281D01*
X2435181D01*
Y2399227D01*
X2427126D01*
Y2383119D01*
X2419072D01*
Y2375064D01*
X2411018D01*
Y2367010D01*
X2402964D01*
Y2358956D01*
X2394910D01*
Y2342848D01*
X2386856D01*
Y2334794D01*
X2378802D01*
Y2326740D01*
X2370747D01*
Y2310631D01*
X2362693D01*
Y2302577D01*
X2354639D01*
Y2294523D01*
X2346585D01*
Y2286469D01*
X2338531D01*
Y2278415D01*
X2330477D01*
Y2358956D01*
Y2367010D01*
Y2705284D01*
X2394910D01*
Y2697229D01*
X2402964D01*
Y2479768D01*
X2411018D01*
Y2495876D01*
X2419072D01*
Y2503930D01*
X2427126D01*
Y2511985D01*
X2435181D01*
Y2520039D01*
X2443235D01*
Y2536147D01*
X2451289D01*
Y2544201D01*
X2459343D01*
Y2552255D01*
X2467397D01*
Y2568363D01*
X2475451D01*
Y2576418D01*
X2483505D01*
Y2584472D01*
X2491559D01*
Y2592526D01*
X2499613D01*
Y2608634D01*
X2507668D01*
Y2616688D01*
X2515722D01*
Y2624742D01*
X2523776D01*
Y2640850D01*
X2531830D01*
Y2648905D01*
X2539884D01*
Y2656959D01*
X2547938D01*
Y2665013D01*
X2555992D01*
Y2681121D01*
X2564046D01*
Y2689175D01*
X2572101D01*
Y2697229D01*
X2580155D01*
Y2705284D01*
X2588209D01*
Y2278415D01*
D02*
G37*
G36*
X3063402Y2705284D02*
X3095619D01*
Y2697229D01*
X3111727D01*
Y2689175D01*
X3127835D01*
Y2681121D01*
X3135889D01*
Y2673067D01*
X3151998D01*
Y2656959D01*
X3160052D01*
Y2648905D01*
X3168106D01*
Y2640850D01*
X3176160D01*
Y2624742D01*
X3184214D01*
Y2608634D01*
X3192268D01*
Y2592526D01*
X3200322D01*
Y2568363D01*
X3208376D01*
Y2511985D01*
X3216430D01*
Y2479768D01*
Y2471714D01*
X3208376D01*
Y2415335D01*
X3200322D01*
Y2391173D01*
X3192268D01*
Y2367010D01*
X3184214D01*
Y2358956D01*
X3176160D01*
Y2342848D01*
X3168106D01*
Y2334794D01*
X3160052D01*
Y2318685D01*
X3151998D01*
Y2310631D01*
X3143943D01*
Y2302577D01*
X3127835D01*
Y2294523D01*
X3119781D01*
Y2286469D01*
X3095619D01*
Y2278415D01*
X3071456D01*
Y2270361D01*
X3023131D01*
Y2278415D01*
X2998969D01*
Y2286469D01*
X2982861D01*
Y2294523D01*
X2966753D01*
Y2302577D01*
X2958698D01*
Y2310631D01*
X2950644D01*
Y2318685D01*
X2942590D01*
Y2326740D01*
X2934536D01*
Y2350902D01*
X2942590D01*
Y2358956D01*
X2950644D01*
Y2375064D01*
X2958698D01*
Y2383119D01*
X2966753D01*
Y2399227D01*
X2982861D01*
Y2391173D01*
X2990915D01*
Y2383119D01*
X2998969D01*
Y2375064D01*
X3007023D01*
Y2367010D01*
X3015077D01*
Y2358956D01*
X3079510D01*
Y2367010D01*
X3095619D01*
Y2375064D01*
X3103673D01*
Y2383119D01*
X3111727D01*
Y2391173D01*
X3119781D01*
Y2407281D01*
X3127835D01*
Y2423389D01*
X3135889D01*
Y2455606D01*
X3143943D01*
Y2528093D01*
X3135889D01*
Y2560309D01*
X3127835D01*
Y2576418D01*
X3119781D01*
Y2592526D01*
X3111727D01*
Y2600580D01*
X3103673D01*
Y2608634D01*
X3095619D01*
Y2616688D01*
X3079510D01*
Y2624742D01*
X3023131D01*
Y2616688D01*
X3007023D01*
Y2608634D01*
X2998969D01*
Y2600580D01*
X2990915D01*
Y2592526D01*
X2982861D01*
Y2584472D01*
X2966753D01*
Y2600580D01*
X2958698D01*
Y2608634D01*
X2950644D01*
Y2624742D01*
X2942590D01*
Y2632796D01*
X2934536D01*
Y2656959D01*
X2942590D01*
Y2665013D01*
X2950644D01*
Y2673067D01*
X2958698D01*
Y2681121D01*
X2974807D01*
Y2689175D01*
X2982861D01*
Y2697229D01*
X2998969D01*
Y2705284D01*
X3039240D01*
Y2713338D01*
X3063402D01*
Y2705284D01*
D02*
G37*
G36*
X2016366Y2358956D02*
X2008312D01*
Y2326740D01*
X2000258D01*
Y2310631D01*
X1992204D01*
Y2302577D01*
X1984149D01*
Y2294523D01*
X1976095D01*
Y2286469D01*
X1968041D01*
Y2278415D01*
X1943879D01*
Y2270361D01*
X1927771D01*
Y2278415D01*
X1903608D01*
Y2286469D01*
X1887500D01*
Y2294523D01*
X1879446D01*
Y2302577D01*
X1871392D01*
Y2278415D01*
X1806959D01*
Y2568363D01*
X1815013D01*
Y2576418D01*
X1871392D01*
Y2568363D01*
X1879446D01*
Y2375064D01*
X1887500D01*
Y2367010D01*
X1895554D01*
Y2358956D01*
X1935825D01*
Y2367010D01*
X1943879D01*
Y2407281D01*
X1951933D01*
Y2576418D01*
X2016366D01*
Y2358956D01*
D02*
G37*
G36*
X2781508Y2689175D02*
X2789562D01*
Y2665013D01*
X2797616D01*
Y2640850D01*
X2805670D01*
Y2616688D01*
X2813724D01*
Y2592526D01*
X2821778D01*
Y2576418D01*
X2829833D01*
Y2552255D01*
X2837887D01*
Y2528093D01*
X2845941D01*
Y2503930D01*
X2853995D01*
Y2487822D01*
X2862049D01*
Y2463660D01*
X2870103D01*
Y2439498D01*
X2878157D01*
Y2415335D01*
X2886211D01*
Y2391173D01*
X2894265D01*
Y2375064D01*
X2902320D01*
Y2350902D01*
X2910374D01*
Y2326740D01*
X2918428D01*
Y2302577D01*
X2926482D01*
Y2278415D01*
X2853995D01*
Y2294523D01*
X2845941D01*
Y2318685D01*
X2837887D01*
Y2342848D01*
X2717075D01*
Y2334794D01*
X2709021D01*
Y2310631D01*
X2700966D01*
Y2286469D01*
X2692912D01*
Y2278415D01*
X2620425D01*
Y2302577D01*
X2628479D01*
Y2318685D01*
X2636533D01*
Y2342848D01*
X2644588D01*
Y2367010D01*
X2652642D01*
Y2391173D01*
X2660696D01*
Y2415335D01*
X2668750D01*
Y2431443D01*
X2676804D01*
Y2455606D01*
X2684858D01*
Y2479768D01*
X2692912D01*
Y2503930D01*
X2700966D01*
Y2520039D01*
X2709021D01*
Y2544201D01*
X2717075D01*
Y2568363D01*
X2725129D01*
Y2592526D01*
X2733183D01*
Y2616688D01*
X2741237D01*
Y2632796D01*
X2749291D01*
Y2656959D01*
X2757346D01*
Y2681121D01*
X2765400D01*
Y2705284D01*
X2781508D01*
Y2689175D01*
D02*
G37*
G36*
X1750580Y2568363D02*
X1758634D01*
Y2278415D01*
X1686147D01*
Y2503930D01*
Y2511985D01*
Y2568363D01*
X1694201D01*
Y2576418D01*
X1750580D01*
Y2568363D01*
D02*
G37*
G36*
X2129124Y2713338D02*
X2137178D01*
Y2560309D01*
X2145232D01*
Y2568363D01*
X2161340D01*
Y2576418D01*
X2217719D01*
Y2568363D01*
X2233827D01*
Y2560309D01*
X2241881D01*
Y2552255D01*
X2249936D01*
Y2544201D01*
X2257990D01*
Y2536147D01*
X2266044D01*
Y2520039D01*
X2274098D01*
Y2503930D01*
X2282152D01*
Y2471714D01*
X2290206D01*
Y2375064D01*
X2282152D01*
Y2350902D01*
X2274098D01*
Y2326740D01*
X2266044D01*
Y2318685D01*
X2257990D01*
Y2302577D01*
X2249936D01*
Y2294523D01*
X2241881D01*
Y2286469D01*
X2225773D01*
Y2278415D01*
X2193557D01*
Y2270361D01*
X2185503D01*
Y2278415D01*
X2153286D01*
Y2286469D01*
X2145232D01*
Y2294523D01*
X2137178D01*
Y2302577D01*
X2129124D01*
Y2278415D01*
X2064691D01*
Y2358956D01*
Y2367010D01*
Y2713338D01*
X2072745D01*
Y2721392D01*
X2129124D01*
Y2713338D01*
D02*
G37*
G36*
X1307603Y2568363D02*
X1331765D01*
Y2560309D01*
X1339820D01*
Y2552255D01*
X1347874D01*
Y2544201D01*
X1355928D01*
Y2536147D01*
X1363982D01*
Y2528093D01*
X1372036D01*
Y2511985D01*
X1380090D01*
Y2487822D01*
X1388144D01*
Y2463660D01*
X1396198D01*
Y2391173D01*
X1388144D01*
Y2358956D01*
X1380090D01*
Y2342848D01*
X1372036D01*
Y2326740D01*
X1363982D01*
Y2318685D01*
X1355928D01*
Y2302577D01*
X1339820D01*
Y2294523D01*
X1331765D01*
Y2286469D01*
X1315657D01*
Y2278415D01*
X1283441D01*
Y2270361D01*
X1275387D01*
Y2278415D01*
X1235116D01*
Y2286469D01*
X1219008D01*
Y2294523D01*
X1210954D01*
Y2302577D01*
X1202900D01*
Y2310631D01*
X1194845D01*
Y2318685D01*
X1186791D01*
Y2334794D01*
X1178737D01*
Y2350902D01*
X1170683D01*
Y2375064D01*
X1162629D01*
Y2479768D01*
X1170683D01*
Y2503930D01*
X1178737D01*
Y2520039D01*
X1186791D01*
Y2528093D01*
X1194845D01*
Y2544201D01*
X1202900D01*
Y2552255D01*
X1219008D01*
Y2560309D01*
X1227062D01*
Y2568363D01*
X1243170D01*
Y2576418D01*
X1307603D01*
Y2568363D01*
D02*
G37*
G36*
X3490271Y2318685D02*
X3514433D01*
Y2310631D01*
X3522487D01*
Y2302577D01*
X3538595D01*
Y2294523D01*
X3546649D01*
Y2286469D01*
X3562758D01*
Y2278415D01*
X3578866D01*
Y2270361D01*
X3594974D01*
Y2262307D01*
X3603028D01*
Y2254253D01*
X3619137D01*
Y2246198D01*
X3627191D01*
Y2238144D01*
X3635245D01*
Y2230090D01*
X3643299D01*
Y2222036D01*
X3651353D01*
Y2213982D01*
X3659407D01*
Y2205928D01*
X3667461D01*
Y2189820D01*
X3675516D01*
Y2181766D01*
X3683570D01*
Y2165657D01*
X3691624D01*
Y2149549D01*
X3699678D01*
Y2133441D01*
X3707732D01*
Y2117333D01*
X3715786D01*
Y2101224D01*
X3723840D01*
Y2077062D01*
X3731894D01*
Y2052899D01*
X3739949D01*
Y2028737D01*
X3748003D01*
Y2012629D01*
X3715786D01*
Y2020683D01*
X3651353D01*
Y2028737D01*
X3619137D01*
Y2036791D01*
X3562758D01*
Y2044845D01*
X3514433D01*
Y2052899D01*
X3490271D01*
Y2044845D01*
X3143943D01*
Y2125387D01*
X3151998D01*
Y2141495D01*
X3160052D01*
Y2157603D01*
X3168106D01*
Y2165657D01*
X3176160D01*
Y2173711D01*
Y2181766D01*
X3184214D01*
Y2189820D01*
X3192268D01*
Y2197874D01*
X3200322D01*
Y2205928D01*
X3208376D01*
Y2222036D01*
X3216430D01*
Y2230090D01*
X3224485D01*
Y2238144D01*
X3232539D01*
Y2246198D01*
X3240593D01*
Y2254253D01*
X3248647D01*
Y2262307D01*
X3256701D01*
Y2270361D01*
X3264755D01*
Y2278415D01*
X3280863D01*
Y2286469D01*
X3296972D01*
Y2294523D01*
X3313080D01*
Y2302577D01*
X3329188D01*
Y2310631D01*
X3361405D01*
Y2318685D01*
X3401675D01*
Y2326740D01*
X3490271D01*
Y2318685D01*
D02*
G37*
G36*
X3554704Y2020683D02*
X3619137D01*
Y2012629D01*
X3691624D01*
Y2004575D01*
X3699678D01*
Y1972358D01*
X3675516D01*
Y1964304D01*
X3651353D01*
Y1948196D01*
X3675516D01*
Y1956250D01*
X3707732D01*
Y1964304D01*
X3723840D01*
Y1972358D01*
X3756057D01*
Y1964304D01*
X3772165D01*
Y1956250D01*
X3780219D01*
Y1948196D01*
X3788273D01*
Y1940142D01*
X3796327D01*
Y1932088D01*
X3804382D01*
Y1924033D01*
X3812436D01*
Y1915979D01*
X3820490D01*
Y1907925D01*
X3828544D01*
Y1899871D01*
X3836598D01*
Y1891817D01*
X3844652D01*
Y1883763D01*
X3852706D01*
Y1867655D01*
X3860760D01*
Y1859601D01*
X3868814D01*
Y1843492D01*
X3876869D01*
Y1819330D01*
X3884923D01*
Y1803222D01*
X3892977D01*
Y1779059D01*
X3901031D01*
Y1577706D01*
X3892977D01*
Y1497165D01*
X3884923D01*
Y1464949D01*
X3876869D01*
Y1424678D01*
X3868814D01*
Y1392461D01*
X3860760D01*
Y1368299D01*
X3852706D01*
Y1344137D01*
X3844652D01*
Y1328028D01*
X3836598D01*
Y1303866D01*
X3828544D01*
Y1295812D01*
X3820490D01*
Y1279704D01*
X3812436D01*
Y1263595D01*
X3820490D01*
Y1255541D01*
X3828544D01*
Y1247487D01*
X3836598D01*
Y1231379D01*
X3844652D01*
Y1215271D01*
X3852706D01*
Y1207217D01*
X3860760D01*
Y1199162D01*
X3868814D01*
Y1183054D01*
X3876869D01*
Y1166946D01*
X3884923D01*
Y1158892D01*
X3892977D01*
Y1142784D01*
X3901031D01*
Y1126675D01*
X3909085D01*
Y1110567D01*
X3917139D01*
Y1094459D01*
X3925193D01*
Y1078350D01*
X3933247D01*
Y1062242D01*
X3941302D01*
Y1054188D01*
X3949356D01*
Y1038080D01*
X3957410D01*
Y1030026D01*
X3965464D01*
Y1013917D01*
X3973518D01*
Y997809D01*
X3981572D01*
Y981701D01*
X3989626D01*
Y965593D01*
X3997681D01*
Y949485D01*
X4005735D01*
Y925322D01*
X4013789D01*
Y909214D01*
X4021843D01*
Y876997D01*
X4029897D01*
Y820619D01*
X4037951D01*
Y780348D01*
X4046005D01*
Y748131D01*
X4054059D01*
Y715915D01*
X4062114D01*
Y683698D01*
X4070168D01*
Y667590D01*
X2845941D01*
Y683698D01*
X2853995D01*
Y812564D01*
X2862049D01*
Y844781D01*
X2870103D01*
Y852835D01*
X2878157D01*
Y876997D01*
X2886211D01*
Y901160D01*
X2894265D01*
Y917268D01*
X2902320D01*
Y941430D01*
X2910374D01*
Y957539D01*
X2918428D01*
Y973647D01*
X2926482D01*
Y981701D01*
X2934536D01*
Y997809D01*
X2942590D01*
Y1021972D01*
X2950644D01*
Y1030026D01*
X2958698D01*
Y1046134D01*
X2966753D01*
Y1070296D01*
X2974807D01*
Y1078350D01*
X2982861D01*
Y1094459D01*
X2990915D01*
Y1110567D01*
X2998969D01*
Y1126675D01*
X3007023D01*
Y1134729D01*
X3015077D01*
Y1150838D01*
X3023131D01*
Y1166946D01*
X3031186D01*
Y1175000D01*
X3039240D01*
Y1191108D01*
X3047294D01*
Y1199162D01*
X3055348D01*
Y1215271D01*
X3063402D01*
Y1223325D01*
X3071456D01*
Y1231379D01*
X3079510D01*
Y1247487D01*
X3087565D01*
Y1303866D01*
X3079510D01*
Y1319974D01*
X3071456D01*
Y1344137D01*
X3063402D01*
Y1360245D01*
X3055348D01*
Y1368299D01*
X3047294D01*
Y1384407D01*
X3039240D01*
Y1408570D01*
X3031186D01*
Y1440786D01*
X3023131D01*
Y1464949D01*
X3015077D01*
Y1497165D01*
X3007023D01*
Y1537436D01*
X2998969D01*
Y1730734D01*
X3007023D01*
Y1835438D01*
X3015077D01*
Y1859601D01*
X3023131D01*
Y1875709D01*
X3031186D01*
Y1883763D01*
X3039240D01*
Y1891817D01*
X3047294D01*
Y1899871D01*
X3055348D01*
Y1907925D01*
X3063402D01*
Y1915979D01*
X3079510D01*
Y1924033D01*
X3087565D01*
Y1932088D01*
X3095619D01*
Y1940142D01*
X3111727D01*
Y1948196D01*
X3127835D01*
Y1956250D01*
X3143943D01*
Y1948196D01*
X3200322D01*
Y1940142D01*
X3272809D01*
Y1932088D01*
X3337242D01*
Y1924033D01*
X3401675D01*
Y1915979D01*
X3450000D01*
Y1907925D01*
X3498325D01*
Y1915979D01*
X3570812D01*
Y1924033D01*
X3586920D01*
Y1932088D01*
X3619137D01*
Y1940142D01*
X3554704D01*
Y1932088D01*
X3506379D01*
Y1924033D01*
X3490271D01*
Y1932088D01*
X3401675D01*
Y1940142D01*
X3345296D01*
Y1948196D01*
X3240593D01*
Y1956250D01*
X3184214D01*
Y1964304D01*
X3160052D01*
Y1972358D01*
X3151998D01*
Y1988466D01*
X3143943D01*
Y1996521D01*
X3135889D01*
Y2004575D01*
X3143943D01*
Y2012629D01*
X3160052D01*
Y2020683D01*
X3224485D01*
Y2028737D01*
X3554704D01*
Y2020683D01*
D02*
G37*
G36*
X2862049Y1505219D02*
X1210954D01*
Y2197874D01*
X2862049D01*
Y1505219D01*
D02*
G37*
G36*
X1194845Y1481057D02*
X2862049D01*
Y1448840D01*
X1154575D01*
Y2197874D01*
X1194845D01*
Y1481057D01*
D02*
G37*
G36*
X2660696Y1384407D02*
X2692912D01*
Y1376353D01*
X2709021D01*
Y1368299D01*
X2725129D01*
Y1360245D01*
X2741237D01*
Y1352191D01*
X2773454D01*
Y1360245D01*
X2805670D01*
Y1352191D01*
X2829833D01*
Y1344137D01*
X2837887D01*
Y1336082D01*
X2845941D01*
Y1328028D01*
X2853995D01*
Y1311920D01*
X2862049D01*
Y1303866D01*
X2870103D01*
Y1287758D01*
X2878157D01*
Y1271649D01*
X2886211D01*
Y1191108D01*
X2878157D01*
Y1175000D01*
X2870103D01*
Y1158892D01*
X2862049D01*
Y1134729D01*
X2853995D01*
Y1118621D01*
X2845941D01*
Y1094459D01*
X2837887D01*
Y1086405D01*
X2829833D01*
Y1054188D01*
X2821778D01*
Y1030026D01*
X2813724D01*
Y1021972D01*
X2797616D01*
Y1013917D01*
X2781508D01*
Y1005863D01*
X2765400D01*
Y997809D01*
X2741237D01*
Y989755D01*
X2709021D01*
Y981701D01*
X2684858D01*
Y973647D01*
X2660696D01*
Y965593D01*
X2636533D01*
Y957539D01*
X2588209D01*
Y965593D01*
X2555992D01*
Y973647D01*
X2531830D01*
Y981701D01*
X2499613D01*
Y989755D01*
X2475451D01*
Y997809D01*
X2443235D01*
Y1005863D01*
X2419072D01*
Y1013917D01*
X2402964D01*
Y1021972D01*
X2386856D01*
Y1030026D01*
X2378802D01*
Y1038080D01*
X2362693D01*
Y1046134D01*
X2346585D01*
Y1054188D01*
X2338531D01*
Y1062242D01*
X2330477D01*
Y1070296D01*
X2314368D01*
Y1078350D01*
X2290206D01*
Y1086405D01*
X2274098D01*
Y1094459D01*
X2266044D01*
Y1102513D01*
X2249936D01*
Y1118621D01*
X2241881D01*
Y1126675D01*
X2233827D01*
Y1142784D01*
X2225773D01*
Y1158892D01*
X2217719D01*
Y1223325D01*
X2225773D01*
Y1231379D01*
X2233827D01*
Y1239433D01*
X2241881D01*
Y1247487D01*
X2257990D01*
Y1255541D01*
X2274098D01*
Y1263595D01*
X2346585D01*
Y1255541D01*
X2362693D01*
Y1247487D01*
X2378802D01*
Y1239433D01*
X2394910D01*
Y1231379D01*
X2419072D01*
Y1319974D01*
X2427126D01*
Y1344137D01*
X2435181D01*
Y1352191D01*
X2443235D01*
Y1360245D01*
X2451289D01*
Y1368299D01*
X2539884D01*
Y1360245D01*
X2547938D01*
Y1368299D01*
X2564046D01*
Y1376353D01*
X2572101D01*
Y1384407D01*
X2588209D01*
Y1392461D01*
X2660696D01*
Y1384407D01*
D02*
G37*
G36*
X3498325Y2375064D02*
X3530541D01*
Y2367010D01*
X3546649D01*
Y2358956D01*
X3554704D01*
Y2350902D01*
X3562758D01*
Y2342848D01*
X3578866D01*
Y2334794D01*
X3594974D01*
Y2326740D01*
X3611082D01*
Y2318685D01*
X3619137D01*
Y2310631D01*
X3627191D01*
Y2302577D01*
X3643299D01*
Y2294523D01*
X3651353D01*
Y2286469D01*
X3659407D01*
Y2278415D01*
X3667461D01*
Y2270361D01*
X3675516D01*
Y2262307D01*
X3683570D01*
Y2254253D01*
X3691624D01*
Y2246198D01*
X3699678D01*
Y2238144D01*
X3707732D01*
Y2230090D01*
X3715786D01*
Y2222036D01*
X3723840D01*
Y2205928D01*
X3731894D01*
Y2197874D01*
X3739949D01*
Y2181766D01*
X3748003D01*
Y2173711D01*
X3756057D01*
Y2157603D01*
X3764111D01*
Y2133441D01*
X3772165D01*
Y2101224D01*
X3780219D01*
Y2069008D01*
X3788273D01*
Y2052899D01*
X3796327D01*
Y2012629D01*
X3804382D01*
Y2004575D01*
X3812436D01*
Y1996521D01*
X3820490D01*
Y1988466D01*
X3828544D01*
Y1980412D01*
X3844652D01*
Y1972358D01*
X3852706D01*
Y1964304D01*
X3860760D01*
Y1948196D01*
X3868814D01*
Y1940142D01*
X3876869D01*
Y1932088D01*
X3884923D01*
Y1915979D01*
X3892977D01*
Y1907925D01*
X3901031D01*
Y1891817D01*
X3909085D01*
Y1883763D01*
X3917139D01*
Y1867655D01*
X3925193D01*
Y1851546D01*
X3933247D01*
Y1827384D01*
X3941302D01*
Y1803222D01*
X3949356D01*
Y1529381D01*
X3941302D01*
Y1464949D01*
X3933247D01*
Y1424678D01*
X3925193D01*
Y1400515D01*
X3917139D01*
Y1368299D01*
X3909085D01*
Y1344137D01*
X3901031D01*
Y1319974D01*
X3892977D01*
Y1303866D01*
X3884923D01*
Y1279704D01*
X3876869D01*
Y1271649D01*
X3884923D01*
Y1255541D01*
X3892977D01*
Y1247487D01*
X3901031D01*
Y1231379D01*
X3909085D01*
Y1223325D01*
X3917139D01*
Y1207217D01*
X3925193D01*
Y1199162D01*
X3933247D01*
Y1183054D01*
X3941302D01*
Y1166946D01*
X3949356D01*
Y1150838D01*
X3957410D01*
Y1142784D01*
X3965464D01*
Y1126675D01*
X3973518D01*
Y1110567D01*
X3981572D01*
Y1094459D01*
X3989626D01*
Y1078350D01*
X3997681D01*
Y1062242D01*
X4005735D01*
Y1054188D01*
X4013789D01*
Y1038080D01*
X4021843D01*
Y1021972D01*
X4029897D01*
Y1013917D01*
X4037951D01*
Y997809D01*
X4046005D01*
Y973647D01*
X4054059D01*
Y957539D01*
X4062114D01*
Y941430D01*
X4070168D01*
Y901160D01*
X4078222D01*
Y860889D01*
X4086276D01*
Y812564D01*
X4094330D01*
Y780348D01*
X4102384D01*
Y740077D01*
X4110438D01*
Y707861D01*
X4118492D01*
Y683698D01*
X4126546D01*
Y667590D01*
X4086276D01*
Y691752D01*
X4078222D01*
Y715915D01*
X4070168D01*
Y756185D01*
X4062114D01*
Y796456D01*
X4054059D01*
Y828673D01*
X4046005D01*
Y868943D01*
X4037951D01*
Y917268D01*
X4029897D01*
Y941430D01*
X4021843D01*
Y957539D01*
X4013789D01*
Y981701D01*
X4005735D01*
Y997809D01*
X3997681D01*
Y1005863D01*
X3989626D01*
Y1021972D01*
X3981572D01*
Y1038080D01*
X3973518D01*
Y1046134D01*
X3965464D01*
Y1062242D01*
X3957410D01*
Y1078350D01*
X3949356D01*
Y1094459D01*
X3941302D01*
Y1110567D01*
X3933247D01*
Y1126675D01*
X3925193D01*
Y1134729D01*
X3917139D01*
Y1150838D01*
X3909085D01*
Y1166946D01*
X3901031D01*
Y1183054D01*
X3892977D01*
Y1191108D01*
X3884923D01*
Y1207217D01*
X3876869D01*
Y1215271D01*
X3868814D01*
Y1231379D01*
X3860760D01*
Y1247487D01*
X3852706D01*
Y1255541D01*
X3844652D01*
Y1263595D01*
X3836598D01*
Y1279704D01*
X3844652D01*
Y1295812D01*
X3852706D01*
Y1319974D01*
X3860760D01*
Y1336082D01*
X3868814D01*
Y1360245D01*
X3876869D01*
Y1392461D01*
X3884923D01*
Y1416624D01*
X3892977D01*
Y1448840D01*
X3901031D01*
Y1489111D01*
X3909085D01*
Y1601869D01*
X3917139D01*
Y1787114D01*
X3909085D01*
Y1811276D01*
X3901031D01*
Y1835438D01*
X3892977D01*
Y1851546D01*
X3884923D01*
Y1867655D01*
X3876869D01*
Y1875709D01*
X3868814D01*
Y1891817D01*
X3860760D01*
Y1899871D01*
X3852706D01*
Y1915979D01*
X3844652D01*
Y1924033D01*
X3836598D01*
Y1932088D01*
X3828544D01*
Y1948196D01*
X3812436D01*
Y1956250D01*
X3804382D01*
Y1964304D01*
X3796327D01*
Y1972358D01*
X3780219D01*
Y1980412D01*
X3772165D01*
Y1988466D01*
X3764111D01*
Y2028737D01*
X3756057D01*
Y2044845D01*
X3748003D01*
Y2085116D01*
X3739949D01*
Y2109278D01*
X3731894D01*
Y2141495D01*
X3723840D01*
Y2157603D01*
X3715786D01*
Y2165657D01*
X3707732D01*
Y2181766D01*
X3699678D01*
Y2189820D01*
X3691624D01*
Y2205928D01*
X3683570D01*
Y2213982D01*
X3675516D01*
Y2222036D01*
X3667461D01*
Y2230090D01*
X3659407D01*
Y2238144D01*
X3651353D01*
Y2246198D01*
X3643299D01*
Y2254253D01*
X3635245D01*
Y2262307D01*
X3627191D01*
Y2270361D01*
X3619137D01*
Y2278415D01*
X3603028D01*
Y2286469D01*
X3594974D01*
Y2294523D01*
X3578866D01*
Y2302577D01*
X3562758D01*
Y2310631D01*
X3554704D01*
Y2318685D01*
X3538595D01*
Y2326740D01*
X3530541D01*
Y2334794D01*
X3514433D01*
Y2342848D01*
X3385567D01*
Y2334794D01*
X3353351D01*
Y2326740D01*
X3321134D01*
Y2318685D01*
X3288917D01*
Y2310631D01*
X3280863D01*
Y2302577D01*
X3264755D01*
Y2294523D01*
X3256701D01*
Y2286469D01*
X3248647D01*
Y2278415D01*
X3240593D01*
Y2262307D01*
X3232539D01*
Y2254253D01*
X3208376D01*
Y2238144D01*
X3200322D01*
Y2230090D01*
X3192268D01*
Y2222036D01*
X3184214D01*
Y2213982D01*
X3176160D01*
Y2197874D01*
X3168106D01*
Y2189820D01*
X3160052D01*
Y2181766D01*
X3151998D01*
Y2173711D01*
X3143943D01*
Y2165657D01*
X3135889D01*
Y2157603D01*
X3127835D01*
Y2020683D01*
X3119781D01*
Y2004575D01*
X3111727D01*
Y1972358D01*
X3103673D01*
Y1956250D01*
X3087565D01*
Y1948196D01*
X3079510D01*
Y1940142D01*
X3063402D01*
Y1932088D01*
X3055348D01*
Y1924033D01*
X3047294D01*
Y1915979D01*
X3039240D01*
Y1907925D01*
X3031186D01*
Y1899871D01*
X3023131D01*
Y1891817D01*
X3007023D01*
Y1875709D01*
X2998969D01*
Y1851546D01*
X2990915D01*
Y1779059D01*
X2982861D01*
Y1521327D01*
X2990915D01*
Y1497165D01*
X2998969D01*
Y1456894D01*
X3007023D01*
Y1432732D01*
X3015077D01*
Y1392461D01*
X3023131D01*
Y1376353D01*
X3031186D01*
Y1360245D01*
X3039240D01*
Y1344137D01*
X3047294D01*
Y1328028D01*
X3055348D01*
Y1303866D01*
X3063402D01*
Y1287758D01*
X3071456D01*
Y1255541D01*
X3063402D01*
Y1239433D01*
X3055348D01*
Y1231379D01*
X3047294D01*
Y1223325D01*
X3039240D01*
Y1207217D01*
X3031186D01*
Y1199162D01*
X3023131D01*
Y1191108D01*
X3015077D01*
Y1175000D01*
X3007023D01*
Y1158892D01*
X2998969D01*
Y1150838D01*
X2990915D01*
Y1134729D01*
X2982861D01*
Y1126675D01*
X2974807D01*
Y1110567D01*
X2966753D01*
Y1094459D01*
X2958698D01*
Y1078350D01*
X2950644D01*
Y1062242D01*
X2942590D01*
Y1046134D01*
X2934536D01*
Y1030026D01*
X2926482D01*
Y1013917D01*
X2918428D01*
Y997809D01*
X2910374D01*
Y981701D01*
X2902320D01*
Y965593D01*
X2894265D01*
Y941430D01*
X2886211D01*
Y917268D01*
X2878157D01*
Y909214D01*
X2870103D01*
Y893106D01*
X2862049D01*
Y868943D01*
X2853995D01*
Y852835D01*
X2845941D01*
Y836727D01*
X2837887D01*
Y707861D01*
X2829833D01*
Y675644D01*
X2837887D01*
Y667590D01*
X2797616D01*
Y788402D01*
X2805670D01*
Y852835D01*
X2813724D01*
Y868943D01*
X2821778D01*
Y885052D01*
X2829833D01*
Y909214D01*
X2837887D01*
Y925322D01*
X2845941D01*
Y941430D01*
X2853995D01*
Y957539D01*
X2862049D01*
Y973647D01*
X2870103D01*
Y997809D01*
X2878157D01*
Y1013917D01*
X2886211D01*
Y1030026D01*
X2894265D01*
Y1046134D01*
X2902320D01*
Y1062242D01*
X2910374D01*
Y1078350D01*
X2918428D01*
Y1094459D01*
X2926482D01*
Y1110567D01*
X2934536D01*
Y1126675D01*
X2942590D01*
Y1142784D01*
X2950644D01*
Y1150838D01*
X2958698D01*
Y1166946D01*
X2966753D01*
Y1175000D01*
X2974807D01*
Y1191108D01*
X2982861D01*
Y1199162D01*
Y1207217D01*
X2990915D01*
Y1215271D01*
X2998969D01*
Y1223325D01*
X3007023D01*
Y1239433D01*
X3015077D01*
Y1247487D01*
X3023131D01*
Y1255541D01*
X3031186D01*
Y1295812D01*
X3023131D01*
Y1311920D01*
X3015077D01*
Y1328028D01*
X3007023D01*
Y1344137D01*
X2998969D01*
Y1360245D01*
X2990915D01*
Y1368299D01*
X2982861D01*
Y1408570D01*
X2974807D01*
Y1440786D01*
X2966753D01*
Y1473003D01*
X2958698D01*
Y1505219D01*
X2950644D01*
Y1827384D01*
X2958698D01*
Y1867655D01*
X2966753D01*
Y1891817D01*
X2974807D01*
Y1899871D01*
X2982861D01*
Y1915979D01*
X2990915D01*
Y1924033D01*
X2998969D01*
Y1932088D01*
X3015077D01*
Y1940142D01*
X3023131D01*
Y1948196D01*
X3031186D01*
Y1956250D01*
X3039240D01*
Y1964304D01*
X3047294D01*
Y1972358D01*
X3063402D01*
Y1980412D01*
X3071456D01*
Y1996521D01*
X3079510D01*
Y2020683D01*
X3087565D01*
Y2044845D01*
X3095619D01*
Y2173711D01*
X3103673D01*
Y2181766D01*
X3111727D01*
Y2189820D01*
X3119781D01*
Y2197874D01*
X3127835D01*
Y2205928D01*
X3135889D01*
Y2222036D01*
X3143943D01*
Y2230090D01*
X3151998D01*
Y2238144D01*
X3160052D01*
Y2246198D01*
X3168106D01*
Y2254253D01*
X3176160D01*
Y2278415D01*
X3184214D01*
Y2286469D01*
X3200322D01*
Y2294523D01*
X3216430D01*
Y2302577D01*
X3224485D01*
Y2310631D01*
X3232539D01*
Y2318685D01*
X3240593D01*
Y2326740D01*
X3248647D01*
Y2334794D01*
X3264755D01*
Y2342848D01*
X3280863D01*
Y2350902D01*
X3296972D01*
Y2358956D01*
X3329188D01*
Y2367010D01*
X3369459D01*
Y2375064D01*
X3433892D01*
Y2383119D01*
X3498325D01*
Y2375064D01*
D02*
G37*
%LPC*%
G36*
X2781508Y2520039D02*
X2765400D01*
Y2487822D01*
X2757346D01*
Y2463660D01*
X2749291D01*
Y2439498D01*
X2741237D01*
Y2415335D01*
X2813724D01*
Y2423389D01*
X2805670D01*
Y2447552D01*
X2797616D01*
Y2471714D01*
X2789562D01*
Y2495876D01*
X2781508D01*
Y2520039D01*
D02*
G37*
G36*
X2177449Y2503930D02*
X2169394D01*
Y2495876D01*
X2153286D01*
Y2487822D01*
X2145232D01*
Y2479768D01*
X2137178D01*
Y2367010D01*
X2145232D01*
Y2358956D01*
X2161340D01*
Y2350902D01*
X2185503D01*
Y2358956D01*
X2201611D01*
Y2367010D01*
X2209665D01*
Y2383119D01*
X2217719D01*
Y2423389D01*
X2225773D01*
Y2431443D01*
X2217719D01*
Y2471714D01*
X2209665D01*
Y2487822D01*
X2201611D01*
Y2495876D01*
X2177449D01*
Y2503930D01*
D02*
G37*
G36*
X1283441D02*
X1267332D01*
Y2495876D01*
X1251224D01*
Y2487822D01*
X1243170D01*
Y2479768D01*
Y2471714D01*
X1235116D01*
Y2439498D01*
X1227062D01*
Y2407281D01*
X1235116D01*
Y2383119D01*
X1243170D01*
Y2367010D01*
X1251224D01*
Y2358956D01*
X1259278D01*
Y2350902D01*
X1291495D01*
Y2358956D01*
X1299549D01*
Y2367010D01*
X1307603D01*
Y2375064D01*
X1315657D01*
Y2391173D01*
X1323711D01*
Y2463660D01*
X1315657D01*
Y2479768D01*
X1307603D01*
Y2487822D01*
X1299549D01*
Y2495876D01*
X1283441D01*
Y2503930D01*
D02*
G37*
G36*
X3546649Y2197874D02*
X3530541D01*
Y2125387D01*
X3514433D01*
Y2141495D01*
X3506379D01*
Y2157603D01*
X3498325D01*
Y2165657D01*
Y2173711D01*
X3490271D01*
Y2181766D01*
X3482217D01*
Y2197874D01*
X3450000D01*
Y2189820D01*
X3458054D01*
Y2181766D01*
X3466108D01*
Y2165657D01*
X3474162D01*
Y2149549D01*
X3482217D01*
Y2141495D01*
X3490271D01*
Y2133441D01*
X3482217D01*
Y2117333D01*
X3474162D01*
Y2109278D01*
X3466108D01*
Y2093170D01*
X3458054D01*
Y2085116D01*
X3450000D01*
Y2077062D01*
X3441946D01*
Y2069008D01*
X3474162D01*
Y2077062D01*
X3482217D01*
Y2093170D01*
X3490271D01*
Y2101224D01*
X3498325D01*
Y2109278D01*
X3506379D01*
Y2101224D01*
X3514433D01*
Y2093170D01*
X3522487D01*
Y2077062D01*
X3530541D01*
Y2069008D01*
X3546649D01*
Y2197874D01*
D02*
G37*
G36*
X3643299D02*
X3586920D01*
Y2189820D01*
X3578866D01*
Y2181766D01*
X3586920D01*
Y2165657D01*
X3594974D01*
Y2173711D01*
X3611082D01*
Y2181766D01*
X3627191D01*
Y2173711D01*
X3643299D01*
Y2149549D01*
X3619137D01*
Y2141495D01*
X3594974D01*
Y2133441D01*
X3578866D01*
Y2117333D01*
X3570812D01*
Y2093170D01*
X3578866D01*
Y2077062D01*
X3594974D01*
Y2069008D01*
X3651353D01*
Y2077062D01*
X3667461D01*
Y2093170D01*
X3659407D01*
Y2101224D01*
X3651353D01*
Y2093170D01*
X3635245D01*
Y2085116D01*
X3611082D01*
Y2093170D01*
X3594974D01*
Y2109278D01*
X3603028D01*
Y2117333D01*
X3619137D01*
Y2125387D01*
X3643299D01*
Y2133441D01*
X3659407D01*
Y2141495D01*
X3667461D01*
Y2173711D01*
X3659407D01*
Y2189820D01*
X3643299D01*
Y2197874D01*
D02*
G37*
G36*
X3377513Y2189820D02*
X3361405D01*
Y2173711D01*
X3353351D01*
Y2157603D01*
X3345296D01*
Y2133441D01*
X3337242D01*
Y2117333D01*
X3329188D01*
Y2101224D01*
X3321134D01*
Y2093170D01*
Y2085116D01*
X3313080D01*
Y2069008D01*
X3337242D01*
Y2085116D01*
X3401675D01*
Y2069008D01*
X3433892D01*
Y2077062D01*
X3425838D01*
Y2093170D01*
X3417784D01*
Y2109278D01*
X3409730D01*
Y2125387D01*
X3401675D01*
Y2141495D01*
X3393621D01*
Y2157603D01*
X3385567D01*
Y2173711D01*
X3377513D01*
Y2189820D01*
D02*
G37*
G36*
X3288917Y2197874D02*
X3216430D01*
Y2189820D01*
X3208376D01*
Y2181766D01*
X3200322D01*
Y2173711D01*
X3192268D01*
Y2141495D01*
X3200322D01*
Y2125387D01*
X3216430D01*
Y2109278D01*
X3208376D01*
Y2101224D01*
Y2093170D01*
X3200322D01*
Y2085116D01*
X3192268D01*
Y2069008D01*
X3216430D01*
Y2077062D01*
X3224485D01*
Y2093170D01*
X3232539D01*
Y2101224D01*
X3240593D01*
Y2117333D01*
X3264755D01*
Y2069008D01*
X3288917D01*
Y2197874D01*
D02*
G37*
%LPD*%
G36*
X3377513Y2125387D02*
X3385567D01*
Y2109278D01*
X3353351D01*
Y2125387D01*
X3361405D01*
Y2141495D01*
X3369459D01*
Y2149549D01*
X3377513D01*
Y2125387D01*
D02*
G37*
G36*
X3256701Y2173711D02*
X3264755D01*
Y2133441D01*
X3232539D01*
Y2141495D01*
X3216430D01*
Y2157603D01*
Y2165657D01*
X3224485D01*
Y2173711D01*
X3240593D01*
Y2181766D01*
X3256701D01*
Y2173711D01*
D02*
G37*
%LPC*%
G36*
X3619137Y1867655D02*
X3586920D01*
Y1859601D01*
X3578866D01*
Y1851546D01*
X3570812D01*
Y1835438D01*
X3562758D01*
Y1795168D01*
X3554704D01*
Y1738789D01*
X3546649D01*
Y1690464D01*
X3538595D01*
Y1674356D01*
X3530541D01*
Y1650193D01*
X3522487D01*
Y1642139D01*
X3506379D01*
Y1690464D01*
X3498325D01*
Y1626031D01*
X3538595D01*
Y1617977D01*
X3546649D01*
Y1609923D01*
X3554704D01*
Y1626031D01*
X3570812D01*
Y1609923D01*
X3586920D01*
Y1617977D01*
X3594974D01*
Y1626031D01*
X3619137D01*
Y1601869D01*
X3627191D01*
Y1650193D01*
X3619137D01*
Y1666301D01*
X3603028D01*
Y1674356D01*
X3570812D01*
Y1682410D01*
X3562758D01*
Y1730734D01*
X3570812D01*
Y1795168D01*
X3578866D01*
Y1827384D01*
X3586920D01*
Y1843492D01*
X3594974D01*
Y1851546D01*
X3611082D01*
Y1843492D01*
X3619137D01*
Y1835438D01*
X3635245D01*
Y1827384D01*
X3643299D01*
Y1819330D01*
X3651353D01*
Y1803222D01*
X3659407D01*
Y1795168D01*
X3667461D01*
Y1779059D01*
X3675516D01*
Y1771005D01*
X3683570D01*
Y1803222D01*
X3675516D01*
Y1819330D01*
X3667461D01*
Y1827384D01*
X3659407D01*
Y1835438D01*
X3651353D01*
Y1843492D01*
X3643299D01*
Y1851546D01*
X3635245D01*
Y1859601D01*
X3619137D01*
Y1867655D01*
D02*
G37*
G36*
X3401675Y1722680D02*
X3393621D01*
Y1714626D01*
X3401675D01*
Y1706572D01*
X3409730D01*
Y1698518D01*
X3417784D01*
Y1690464D01*
X3425838D01*
Y1706572D01*
X3409730D01*
Y1714626D01*
X3401675D01*
Y1722680D01*
D02*
G37*
G36*
X3264755Y1754897D02*
X3224485D01*
Y1746843D01*
X3208376D01*
Y1738789D01*
X3200322D01*
Y1730734D01*
X3192268D01*
Y1714626D01*
X3208376D01*
Y1722680D01*
X3216430D01*
Y1730734D01*
X3224485D01*
Y1738789D01*
X3248647D01*
Y1730734D01*
X3256701D01*
Y1722680D01*
X3272809D01*
Y1714626D01*
X3280863D01*
Y1706572D01*
X3288917D01*
Y1698518D01*
X3296972D01*
Y1690464D01*
X3305026D01*
Y1674356D01*
X3280863D01*
Y1666301D01*
X3272809D01*
Y1650193D01*
X3264755D01*
Y1626031D01*
X3296972D01*
Y1617977D01*
X3305026D01*
Y1609923D01*
X3313080D01*
Y1617977D01*
X3321134D01*
Y1626031D01*
X3337242D01*
Y1609923D01*
X3329188D01*
Y1593814D01*
X3321134D01*
Y1585760D01*
X3288917D01*
Y1593814D01*
X3280863D01*
Y1601869D01*
X3272809D01*
Y1609923D01*
X3264755D01*
Y1601869D01*
X3272809D01*
Y1593814D01*
X3280863D01*
Y1585760D01*
X3288917D01*
Y1577706D01*
X3329188D01*
Y1585760D01*
X3337242D01*
Y1601869D01*
X3345296D01*
Y1642139D01*
X3385567D01*
Y1634085D01*
X3401675D01*
Y1642139D01*
X3393621D01*
Y1674356D01*
Y1682410D01*
Y1690464D01*
X3385567D01*
Y1658247D01*
X3369459D01*
Y1666301D01*
X3361405D01*
Y1674356D01*
X3345296D01*
Y1682410D01*
X3337242D01*
Y1690464D01*
X3329188D01*
Y1698518D01*
X3321134D01*
Y1706572D01*
X3313080D01*
Y1714626D01*
X3296972D01*
Y1722680D01*
X3288917D01*
Y1730734D01*
X3280863D01*
Y1738789D01*
X3272809D01*
Y1746843D01*
X3264755D01*
Y1754897D01*
D02*
G37*
G36*
X3450000Y1714626D02*
X3441946D01*
Y1690464D01*
X3433892D01*
Y1682410D01*
X3450000D01*
Y1650193D01*
X3458054D01*
Y1634085D01*
X3466108D01*
Y1617977D01*
X3474162D01*
Y1609923D01*
X3482217D01*
Y1601869D01*
X3490271D01*
Y1617977D01*
X3482217D01*
Y1626031D01*
X3474162D01*
Y1634085D01*
X3466108D01*
Y1666301D01*
X3458054D01*
Y1682410D01*
X3450000D01*
Y1714626D01*
D02*
G37*
G36*
X3619137Y1593814D02*
X3562758D01*
Y1585760D01*
X3570812D01*
Y1577706D01*
X3611082D01*
Y1585760D01*
X3619137D01*
Y1593814D01*
D02*
G37*
G36*
X3353351Y1561598D02*
X3345296D01*
Y1553544D01*
X3353351D01*
Y1561598D01*
D02*
G37*
G36*
X3345296Y1553544D02*
X3337242D01*
Y1545490D01*
X3329188D01*
Y1537436D01*
X3321134D01*
Y1529381D01*
X3337242D01*
Y1537436D01*
X3345296D01*
Y1553544D01*
D02*
G37*
G36*
X3176160Y1537436D02*
X3151998D01*
Y1529381D01*
X3176160D01*
Y1537436D01*
D02*
G37*
G36*
X3546649Y1553544D02*
X3538595D01*
Y1545490D01*
X3546649D01*
Y1529381D01*
X3554704D01*
Y1521327D01*
X3562758D01*
Y1529381D01*
X3554704D01*
Y1545490D01*
X3546649D01*
Y1553544D01*
D02*
G37*
G36*
X3151998Y1529381D02*
X3127835D01*
Y1513273D01*
X3151998D01*
Y1505219D01*
X3160052D01*
Y1497165D01*
X3168106D01*
Y1489111D01*
X3184214D01*
Y1481057D01*
X3192268D01*
Y1473003D01*
X3200322D01*
Y1456894D01*
X3208376D01*
Y1448840D01*
X3216430D01*
Y1440786D01*
X3232539D01*
Y1432732D01*
X3240593D01*
Y1424678D01*
X3248647D01*
Y1416624D01*
X3256701D01*
Y1408570D01*
X3264755D01*
Y1400515D01*
X3272809D01*
Y1392461D01*
X3280863D01*
Y1384407D01*
X3296972D01*
Y1376353D01*
X3305026D01*
Y1368299D01*
X3321134D01*
Y1360245D01*
X3329188D01*
Y1352191D01*
X3337242D01*
Y1344137D01*
X3345296D01*
Y1336082D01*
X3369459D01*
Y1328028D01*
X3538595D01*
Y1336082D01*
X3554704D01*
Y1344137D01*
X3562758D01*
Y1352191D01*
X3578866D01*
Y1360245D01*
X3586920D01*
Y1368299D01*
X3603028D01*
Y1376353D01*
X3611082D01*
Y1384407D01*
X3627191D01*
Y1392461D01*
X3643299D01*
Y1400515D01*
X3651353D01*
Y1408570D01*
X3667461D01*
Y1416624D01*
X3691624D01*
Y1424678D01*
X3699678D01*
Y1432732D01*
X3715786D01*
Y1440786D01*
X3731894D01*
Y1448840D01*
X3756057D01*
Y1456894D01*
X3764111D01*
Y1464949D01*
X3788273D01*
Y1481057D01*
X3780219D01*
Y1489111D01*
X3764111D01*
Y1497165D01*
X3748003D01*
Y1505219D01*
X3723840D01*
Y1513273D01*
X3707732D01*
Y1505219D01*
X3723840D01*
Y1497165D01*
X3731894D01*
Y1489111D01*
X3748003D01*
Y1473003D01*
X3739949D01*
Y1464949D01*
X3723840D01*
Y1456894D01*
X3691624D01*
Y1448840D01*
X3667461D01*
Y1440786D01*
X3627191D01*
Y1432732D01*
X3578866D01*
Y1424678D01*
X3506379D01*
Y1416624D01*
X3409730D01*
Y1424678D01*
X3369459D01*
Y1432732D01*
X3329188D01*
Y1440786D01*
X3296972D01*
Y1448840D01*
X3264755D01*
Y1456894D01*
X3248647D01*
Y1464949D01*
X3224485D01*
Y1473003D01*
X3200322D01*
Y1481057D01*
X3192268D01*
Y1489111D01*
X3184214D01*
Y1497165D01*
X3176160D01*
Y1505219D01*
X3160052D01*
Y1513273D01*
X3151998D01*
Y1529381D01*
D02*
G37*
G36*
X3603028Y1295812D02*
X3570812D01*
Y1287758D01*
X3554704D01*
Y1279704D01*
X3538595D01*
Y1271649D01*
X3522487D01*
Y1263595D01*
X3490271D01*
Y1255541D01*
X3441946D01*
Y1247487D01*
X3401675D01*
Y1255541D01*
X3385567D01*
Y1247487D01*
X3393621D01*
Y1239433D01*
X3409730D01*
Y1231379D01*
X3417784D01*
Y1215271D01*
X3425838D01*
Y1207217D01*
X3474162D01*
Y1215271D01*
X3458054D01*
Y1223325D01*
X3450000D01*
Y1231379D01*
X3458054D01*
Y1239433D01*
X3482217D01*
Y1247487D01*
X3514433D01*
Y1255541D01*
X3538595D01*
Y1263595D01*
X3562758D01*
Y1271649D01*
X3578866D01*
Y1279704D01*
X3594974D01*
Y1287758D01*
X3603028D01*
Y1295812D01*
D02*
G37*
G36*
X3458054Y1191108D02*
X3441946D01*
Y1183054D01*
X3450000D01*
Y1175000D01*
X3458054D01*
Y1183054D01*
Y1191108D01*
D02*
G37*
%LPD*%
G36*
X3603028Y1642139D02*
X3562758D01*
Y1658247D01*
X3603028D01*
Y1642139D01*
D02*
G37*
G36*
X3313080Y1650193D02*
X3321134D01*
Y1642139D01*
X3280863D01*
Y1650193D01*
X3288917D01*
Y1658247D01*
X3313080D01*
Y1650193D01*
D02*
G37*
G36*
X3643299Y1408570D02*
X3635245D01*
Y1400515D01*
X3627191D01*
Y1408570D01*
X3619137D01*
Y1416624D01*
X3627191D01*
Y1424678D01*
X3643299D01*
Y1408570D01*
D02*
G37*
G36*
X3256701Y1440786D02*
X3272809D01*
Y1432732D01*
X3288917D01*
Y1424678D01*
X3313080D01*
Y1416624D01*
X3345296D01*
Y1408570D01*
X3417784D01*
Y1400515D01*
X3490271D01*
Y1408570D01*
X3578866D01*
Y1416624D01*
X3594974D01*
Y1408570D01*
X3603028D01*
Y1392461D01*
X3594974D01*
Y1384407D01*
X3586920D01*
Y1376353D01*
X3562758D01*
Y1368299D01*
X3546649D01*
Y1360245D01*
X3522487D01*
Y1352191D01*
X3361405D01*
Y1360245D01*
X3353351D01*
Y1368299D01*
X3337242D01*
Y1376353D01*
X3329188D01*
Y1384407D01*
X3321134D01*
Y1392461D01*
X3313080D01*
Y1400515D01*
X3296972D01*
Y1408570D01*
X3280863D01*
Y1416624D01*
X3264755D01*
Y1424678D01*
X3256701D01*
Y1432732D01*
X3248647D01*
Y1448840D01*
X3256701D01*
Y1440786D01*
D02*
G37*
%LPC*%
G36*
X2588209Y2157603D02*
X2580155D01*
Y2149549D01*
X2572101D01*
Y2141495D01*
X2564046D01*
Y2133441D01*
X2555992D01*
Y2125387D01*
X2547938D01*
Y2117333D01*
X2539884D01*
Y2109278D01*
X2531830D01*
Y2101224D01*
X2515722D01*
Y2157603D01*
X2499613D01*
Y2052899D01*
X2507668D01*
Y2060954D01*
X2515722D01*
Y2069008D01*
X2523776D01*
Y2077062D01*
X2531830D01*
Y2085116D01*
X2539884D01*
Y2093170D01*
X2547938D01*
Y2101224D01*
X2555992D01*
Y2109278D01*
X2564046D01*
Y2077062D01*
Y2069008D01*
Y2052899D01*
X2588209D01*
Y2157603D01*
D02*
G37*
G36*
X2274098Y2125387D02*
X2257990D01*
Y2117333D01*
X2249936D01*
Y2109278D01*
X2257990D01*
Y2101224D01*
X2266044D01*
Y2109278D01*
X2274098D01*
Y2125387D01*
D02*
G37*
G36*
X2765400Y2165657D02*
X2749291D01*
Y2157603D01*
X2725129D01*
Y2149549D01*
X2717075D01*
Y2141495D01*
X2725129D01*
Y2133441D01*
X2733183D01*
Y2141495D01*
X2781508D01*
Y2133441D01*
X2789562D01*
Y2117333D01*
X2797616D01*
Y2093170D01*
X2789562D01*
Y2077062D01*
X2781508D01*
Y2069008D01*
X2733183D01*
Y2077062D01*
X2725129D01*
Y2069008D01*
X2717075D01*
Y2060954D01*
X2725129D01*
Y2052899D01*
X2749291D01*
Y2044845D01*
X2765400D01*
Y2052899D01*
X2789562D01*
Y2060954D01*
X2797616D01*
Y2069008D01*
X2805670D01*
Y2077062D01*
X2813724D01*
Y2133441D01*
X2805670D01*
Y2141495D01*
X2797616D01*
Y2149549D01*
X2789562D01*
Y2157603D01*
X2765400D01*
Y2165657D01*
D02*
G37*
G36*
X2660696Y2157603D02*
X2652642D01*
Y2141495D01*
X2644588D01*
Y2125387D01*
X2636533D01*
Y2109278D01*
X2628479D01*
Y2093170D01*
X2620425D01*
Y2077062D01*
X2612371D01*
Y2060954D01*
X2604317D01*
Y2052899D01*
X2628479D01*
Y2060954D01*
X2636533D01*
Y2069008D01*
X2684858D01*
Y2052899D01*
X2709021D01*
Y2060954D01*
X2700966D01*
Y2077062D01*
X2692912D01*
Y2093170D01*
X2684858D01*
Y2101224D01*
Y2109278D01*
X2676804D01*
Y2125387D01*
X2668750D01*
Y2141495D01*
X2660696D01*
Y2157603D01*
D02*
G37*
G36*
X2435181D02*
X2411018D01*
Y2093170D01*
Y2085116D01*
Y2052899D01*
X2435181D01*
Y2157603D01*
D02*
G37*
G36*
X2386856D02*
X2314368D01*
Y2149549D01*
X2306314D01*
Y2141495D01*
X2298260D01*
Y2133441D01*
X2290206D01*
Y2077062D01*
X2298260D01*
Y2069008D01*
X2306314D01*
Y2060954D01*
X2314368D01*
Y2052899D01*
X2386856D01*
Y2157603D01*
D02*
G37*
G36*
X2274098Y2069008D02*
X2257990D01*
Y2060954D01*
X2249936D01*
Y2052899D01*
X2257990D01*
Y2044845D01*
X2266044D01*
Y2052899D01*
X2274098D01*
Y2069008D01*
D02*
G37*
%LPD*%
G36*
X2660696Y2109278D02*
X2668750D01*
Y2085116D01*
X2644588D01*
Y2101224D01*
X2652642D01*
Y2109278D01*
Y2117333D01*
X2660696D01*
Y2109278D01*
D02*
G37*
G36*
X2362693Y2069008D02*
X2330477D01*
Y2077062D01*
X2314368D01*
Y2101224D01*
X2306314D01*
Y2109278D01*
X2314368D01*
Y2133441D01*
X2330477D01*
Y2141495D01*
X2362693D01*
Y2069008D01*
D02*
G37*
%LPC*%
G36*
X2668750Y1352191D02*
X2588209D01*
Y1344137D01*
X2580155D01*
Y1336082D01*
X2572101D01*
Y1328028D01*
X2523776D01*
Y1336082D01*
X2467397D01*
Y1328028D01*
X2459343D01*
Y1311920D01*
X2451289D01*
Y1191108D01*
X2443235D01*
Y1183054D01*
X2402964D01*
Y1191108D01*
X2386856D01*
Y1199162D01*
X2378802D01*
Y1207217D01*
X2362693D01*
Y1215271D01*
X2346585D01*
Y1223325D01*
X2330477D01*
Y1231379D01*
X2290206D01*
Y1223325D01*
X2266044D01*
Y1215271D01*
X2257990D01*
Y1207217D01*
X2249936D01*
Y1199162D01*
Y1191108D01*
Y1175000D01*
X2257990D01*
Y1158892D01*
X2266044D01*
Y1142784D01*
X2274098D01*
Y1134729D01*
X2282152D01*
Y1126675D01*
X2290206D01*
Y1118621D01*
X2306314D01*
Y1110567D01*
X2330477D01*
Y1102513D01*
X2346585D01*
Y1094459D01*
X2354639D01*
Y1086405D01*
X2362693D01*
Y1078350D01*
X2378802D01*
Y1070296D01*
X2386856D01*
Y1062242D01*
X2402964D01*
Y1054188D01*
X2419072D01*
Y1046134D01*
X2435181D01*
Y1038080D01*
X2467397D01*
Y1030026D01*
X2491559D01*
Y1021972D01*
X2523776D01*
Y1013917D01*
X2547938D01*
Y1005863D01*
X2572101D01*
Y997809D01*
X2644588D01*
Y1005863D01*
X2668750D01*
Y1013917D01*
X2692912D01*
Y1021972D01*
X2725129D01*
Y1030026D01*
X2749291D01*
Y1038080D01*
X2773454D01*
Y1046134D01*
X2789562D01*
Y1078350D01*
X2797616D01*
Y1102513D01*
X2805670D01*
Y1110567D01*
X2813724D01*
Y1126675D01*
X2821778D01*
Y1150838D01*
X2829833D01*
Y1175000D01*
X2837887D01*
Y1191108D01*
X2845941D01*
Y1207217D01*
X2853995D01*
Y1247487D01*
X2845941D01*
Y1271649D01*
X2837887D01*
Y1287758D01*
X2829833D01*
Y1303866D01*
X2821778D01*
Y1311920D01*
X2813724D01*
Y1319974D01*
X2765400D01*
Y1311920D01*
X2733183D01*
Y1319974D01*
X2725129D01*
Y1328028D01*
X2717075D01*
Y1336082D01*
X2692912D01*
Y1344137D01*
X2668750D01*
Y1352191D01*
D02*
G37*
%LPD*%
G36*
X2636533Y1336082D02*
X2668750D01*
Y1328028D01*
X2684858D01*
Y1319974D01*
X2692912D01*
Y1311920D01*
X2700966D01*
Y1303866D01*
X2709021D01*
Y1295812D01*
X2741237D01*
Y1287758D01*
X2773454D01*
Y1295812D01*
X2781508D01*
Y1303866D01*
X2797616D01*
Y1295812D01*
X2805670D01*
Y1287758D01*
X2813724D01*
Y1279704D01*
X2821778D01*
Y1263595D01*
X2829833D01*
Y1239433D01*
X2837887D01*
Y1223325D01*
X2829833D01*
Y1199162D01*
X2821778D01*
Y1183054D01*
X2813724D01*
Y1158892D01*
X2805670D01*
Y1142784D01*
X2797616D01*
Y1126675D01*
X2789562D01*
Y1110567D01*
X2781508D01*
Y1094459D01*
X2773454D01*
Y1078350D01*
X2765400D01*
Y1062242D01*
X2757346D01*
Y1054188D01*
X2741237D01*
Y1046134D01*
X2725129D01*
Y1038080D01*
X2692912D01*
Y1030026D01*
X2652642D01*
Y1021972D01*
X2628479D01*
Y1013917D01*
X2596263D01*
Y1021972D01*
X2555992D01*
Y1030026D01*
X2531830D01*
Y1038080D01*
X2515722D01*
Y1046134D01*
X2483505D01*
Y1054188D01*
X2459343D01*
Y1062242D01*
X2443235D01*
Y1070296D01*
X2427126D01*
Y1078350D01*
X2411018D01*
Y1086405D01*
X2394910D01*
Y1094459D01*
X2378802D01*
Y1102513D01*
X2370747D01*
Y1110567D01*
X2362693D01*
Y1118621D01*
X2346585D01*
Y1126675D01*
X2314368D01*
Y1134729D01*
X2298260D01*
Y1142784D01*
X2290206D01*
Y1158892D01*
X2282152D01*
Y1166946D01*
X2274098D01*
Y1199162D01*
X2282152D01*
Y1207217D01*
X2298260D01*
Y1215271D01*
X2330477D01*
Y1207217D01*
X2338531D01*
Y1199162D01*
X2354639D01*
Y1191108D01*
X2362693D01*
Y1183054D01*
X2378802D01*
Y1175000D01*
X2394910D01*
Y1166946D01*
X2411018D01*
Y1158892D01*
X2435181D01*
Y1166946D01*
X2451289D01*
Y1175000D01*
X2459343D01*
Y1183054D01*
X2467397D01*
Y1311920D01*
X2475451D01*
Y1319974D01*
X2515722D01*
Y1311920D01*
X2539884D01*
Y1303866D01*
X2547938D01*
Y1311920D01*
X2572101D01*
Y1319974D01*
X2588209D01*
Y1328028D01*
X2596263D01*
Y1336082D01*
X2620425D01*
Y1344137D01*
X2636533D01*
Y1336082D01*
D02*
G37*
%LPC*%
G36*
X2749291Y1255541D02*
X2741237D01*
Y1247487D01*
X2733183D01*
Y1223325D01*
X2749291D01*
Y1231379D01*
Y1239433D01*
Y1255541D01*
D02*
G37*
G36*
X2572101Y1239433D02*
X2564046D01*
Y1231379D01*
X2555992D01*
Y1142784D01*
X2572101D01*
Y1134729D01*
X2580155D01*
Y1142784D01*
X2588209D01*
Y1166946D01*
X2572101D01*
Y1239433D01*
D02*
G37*
%LPD*%
%TF.MD5,ad2c552dfb9be462a7599907d648f4cc*%
M02*
