%TF.GenerationSoftware,Altium Limited,Altium Designer,24.10.1 (45)*%
G04 Layer_Physical_Order=4*
G04 Layer_Color=16711680*
%FSLAX45Y45*%
%MOMM*%
%TF.SameCoordinates,D2505BA3-E522-476C-ACF0-F4815D070146*%
%TF.FilePolarity,Positive*%
%TF.FileFunction,Copper,L4,Bot,Signal*%
%TF.Part,Single*%
G01*
G75*
%TA.AperFunction,Conductor*%
%ADD41C,0.25400*%
%TA.AperFunction,ComponentPad*%
G04:AMPARAMS|DCode=42|XSize=1.8mm|YSize=1mm|CornerRadius=0.25mm|HoleSize=0mm|Usage=FLASHONLY|Rotation=0.000|XOffset=0mm|YOffset=0mm|HoleType=Round|Shape=RoundedRectangle|*
%AMROUNDEDRECTD42*
21,1,1.80000,0.50000,0,0,0.0*
21,1,1.30000,1.00000,0,0,0.0*
1,1,0.50000,0.65000,-0.25000*
1,1,0.50000,-0.65000,-0.25000*
1,1,0.50000,-0.65000,0.25000*
1,1,0.50000,0.65000,0.25000*
%
%ADD42ROUNDEDRECTD42*%
%ADD43O,2.10000X1.00000*%
%ADD44C,0.65000*%
%AMCUSTOMSHAPE45*
4,1,7,0.75000,0.75000,0.75000,0.00000,0.75000,-1.50000,0.75000,-1.50000,-0.75000,-1.50000,-0.75000,0.75000,-0.75000,0.75000,0.75000,0.75000,0.0*%
%ADD45CUSTOMSHAPE45*%

%AMCUSTOMSHAPE46*
4,1,7,-0.75000,-0.75000,-0.75000,0.00000,-0.75000,1.50000,-0.75000,1.50000,0.75000,1.50000,0.75000,-0.75000,0.75000,-0.75000,-0.75000,-0.75000,0.0*%
%ADD46CUSTOMSHAPE46*%

%ADD47C,1.37000*%
%ADD48R,1.37000X1.37000*%
%ADD49C,2.91000*%
%TA.AperFunction,ViaPad*%
%ADD50C,0.45000*%
%ADD51C,1.50000*%
G36*
X1391545Y1299912D02*
X1445991Y1285323D01*
X1498068Y1263752D01*
X1546884Y1235568D01*
X1591603Y1201254D01*
X1631461Y1161396D01*
X1665775Y1116677D01*
X1693959Y1067861D01*
X1715529Y1015785D01*
X1730118Y961338D01*
X1737476Y905453D01*
Y877270D01*
Y849086D01*
X1730118Y793201D01*
X1715529Y738754D01*
X1693959Y686677D01*
X1665775Y637862D01*
X1631461Y593142D01*
X1591603Y553285D01*
X1546884Y518971D01*
X1498068Y490787D01*
X1445991Y469216D01*
X1391545Y454627D01*
X1335660Y447270D01*
X1279292D01*
X1223407Y454627D01*
X1168960Y469216D01*
X1116884Y490787D01*
X1068068Y518971D01*
X1023349Y553285D01*
X983491Y593142D01*
X949177Y637862D01*
X920993Y686677D01*
X899422Y738754D01*
X884833Y793201D01*
X877476Y849086D01*
Y877270D01*
Y905453D01*
X884833Y961338D01*
X899422Y1015785D01*
X920993Y1067861D01*
X949177Y1116677D01*
X983491Y1161396D01*
X1023349Y1201254D01*
X1068068Y1235568D01*
X1116884Y1263752D01*
X1168960Y1285323D01*
X1223407Y1299912D01*
X1279292Y1307269D01*
X1335660D01*
X1391545Y1299912D01*
D02*
G37*
D41*
X1670000Y320000D02*
X1985333Y635333D01*
X1020000Y320000D02*
X1670000D01*
X837500Y1410000D02*
X933750Y1313750D01*
X1063750D01*
X1130000Y1380000D01*
X1430000D01*
X306000Y1410000D02*
X837500D01*
X1630000Y405000D02*
X1837500Y612500D01*
X883000Y405000D02*
X1630000D01*
X661500Y183500D02*
X883000Y405000D01*
X1837500Y612500D02*
Y927500D01*
X2050000Y1140000D01*
X1985333Y845333D02*
X2195600Y1055600D01*
X1985333Y635333D02*
Y845333D01*
X1514496Y1970200D02*
X1524696Y1960000D01*
X1530000D01*
X1265504Y1970200D02*
X1514496D01*
X1250000Y1960000D02*
X1255304D01*
X1265504Y1970200D01*
X3976250Y1833750D02*
X3980000Y1830000D01*
X3976250Y1833750D02*
Y1853750D01*
X3919600Y1910400D02*
X3976250Y1853750D01*
X3790000Y1910400D02*
X3919600D01*
X3780400D02*
X3790000D01*
X2409800Y2455200D02*
X3119281D01*
X1927500Y2760000D02*
X2105000D01*
X2409800Y2455200D01*
X2153750Y2878250D02*
X2457000Y2575000D01*
X2605400D01*
X2670000Y2510400D01*
X1896000Y2791500D02*
Y2900000D01*
Y2791500D02*
X1927500Y2760000D01*
X1642000Y2803000D02*
X1790000Y2655000D01*
X2015000D02*
X2273750Y2396250D01*
X1790000Y2655000D02*
X2015000D01*
X1642000Y2803000D02*
Y2900000D01*
X1134000Y2798500D02*
X1230000Y2702500D01*
X1332500D01*
X1134000Y2798500D02*
Y2900000D01*
X1332500Y2702500D02*
X1465000Y2570000D01*
X1962500D01*
X1317728Y2440000D02*
X1847500D01*
X2300000Y1390000D02*
Y1987500D01*
X1847500Y2440000D02*
X2300000Y1987500D01*
X1962500Y2570000D02*
X2297200Y2235300D01*
X2365851D01*
X3650000Y1224696D02*
X3712500Y1162196D01*
X3600011Y550011D02*
X3712500Y662500D01*
Y1162196D01*
X3928000Y283000D02*
X4150000Y505000D01*
Y1680000D01*
X3928000Y150000D02*
Y283000D01*
X3360000Y1095942D02*
X3363207Y1099149D01*
X3356250Y1086888D02*
X3362569Y1093207D01*
X3363207Y1099149D02*
Y1185121D01*
X3362569Y1093207D02*
X3363207D01*
X3356250Y1046250D02*
Y1086888D01*
X2950000Y640000D02*
X3356250Y1046250D01*
X3070000Y910000D02*
X3280000Y1120000D01*
X2860000Y910000D02*
X3070000D01*
X4220000Y296100D02*
Y1750000D01*
X4050000Y536879D02*
Y1610000D01*
X3701020Y187899D02*
X4050000Y536879D01*
X3652700Y272700D02*
X3970000Y590000D01*
Y1530000D01*
X3650000Y380000D02*
X3890000Y620000D01*
Y1440000D01*
X3650000Y1224696D02*
Y1230000D01*
X4182000Y258100D02*
X4220000Y296100D01*
X4182000Y150000D02*
Y258100D01*
X2950000Y2720000D02*
X3270000D01*
X3380000Y2250000D02*
Y2610000D01*
X3270000Y2720000D02*
X3380000Y2610000D01*
X3268800Y2490000D02*
Y2551200D01*
X3235600Y2584400D02*
X3268800Y2551200D01*
X2904000Y2766000D02*
X2950000Y2720000D01*
X2407750Y2878250D02*
X2701600Y2584400D01*
X3235600D01*
X2407750Y2878250D02*
Y2888251D01*
X2273750Y2396250D02*
X2436250D01*
X2440000Y2400000D01*
X1860000Y2290000D02*
X2130000Y2020000D01*
X1110000Y2290000D02*
X1860000D01*
X2195600Y1055600D02*
X2311400Y939800D01*
X2140000Y1111200D02*
X2195600Y1055600D01*
X2529600Y1910400D02*
X3780400D01*
X3790000Y1920000D01*
Y2121921D01*
X3600011Y550011D02*
X3600011D01*
X3280000Y470000D02*
X3520000D01*
X3600011Y550011D01*
X2230000Y2210000D02*
X2529600Y1910400D01*
X2610000Y1200000D02*
X3348328D01*
X3363207Y1185121D01*
X2540000Y1270000D02*
X2610000Y1200000D01*
X2298300Y348300D02*
X2860000Y910000D01*
X2172316Y163184D02*
X2185500Y150000D01*
X876196Y2305155D02*
X1156551Y2024800D01*
X2023918D01*
X2125397Y1923320D01*
X1060000Y2240000D02*
X1110000Y2290000D01*
X961042Y2390000D02*
X1180000D01*
X876196Y2305155D02*
X961042Y2390000D01*
X1896000Y150000D02*
Y276000D01*
X2600000Y980000D01*
X880000Y180000D02*
X1020000Y320000D01*
X880000Y150000D02*
Y180000D01*
X2360000Y1330000D02*
X2576935D01*
X2300000Y1390000D02*
X2360000Y1330000D01*
X2576935D02*
X2718517Y1471582D01*
X2578057Y2023094D02*
X2801602D01*
X2365851Y2235300D02*
X2578057Y2023094D01*
X989028Y2768700D02*
X1317728Y2440000D01*
X756421Y2768700D02*
X989028D01*
X3701020Y158480D02*
X3709500Y150000D01*
X3300000Y380000D02*
X3650000D01*
X3420000Y150000D02*
X3456542D01*
X3579242Y272700D02*
X3652700D01*
X3456542Y150000D02*
X3579242Y272700D01*
X3166000Y246000D02*
X3300000Y380000D01*
X3166000Y150000D02*
Y246000D01*
X3090000Y390000D02*
X3200000D01*
X2912000Y212000D02*
X3090000Y390000D01*
X3200000D02*
X3280000Y470000D01*
X2912000Y150000D02*
Y212000D01*
X2920000Y470000D02*
X3150000D01*
X2658000Y208000D02*
X2920000Y470000D01*
X3150000D02*
X3613030Y933030D01*
X2658000Y150000D02*
Y208000D01*
X2140000Y1111200D02*
Y1760562D01*
X2103262Y1797300D02*
X2140000Y1760562D01*
X2123750Y1856250D02*
Y1875944D01*
X2120000Y1852500D02*
X2123750Y1856250D01*
X2050000Y1140000D02*
Y1672872D01*
X2066447Y1896705D02*
X2070197Y1900456D01*
X2050000Y1672872D02*
X2072575Y1695447D01*
X2064800Y1829635D02*
Y1875365D01*
X2072575Y1742422D02*
X2076325Y1746173D01*
X2064800Y1875365D02*
X2066447Y1877011D01*
X2072575Y1695447D02*
Y1742422D01*
X2123750Y1875944D02*
X2125397Y1877591D01*
X2066447Y1877011D02*
Y1896705D01*
X2097136Y1797300D02*
X2103262D01*
X2125397Y1877591D02*
Y1923320D01*
X2064800Y1829635D02*
X2097136Y1797300D01*
X2172316Y163184D02*
Y222316D01*
X2298300Y348300D02*
Y348300D01*
X2172316Y222316D02*
X2298300Y348300D01*
X3613030Y933030D02*
Y1175317D01*
X3191910Y159590D02*
X3201500Y150000D01*
X2442898Y153398D02*
X2443398D01*
X2439500Y150000D02*
X2442898Y153398D01*
X2443398D02*
X2863500Y573500D01*
X3550000Y1020000D02*
Y1100000D01*
X3103500Y573500D02*
X3550000Y1020000D01*
X2863500Y573500D02*
X3103500D01*
X3691121Y2900000D02*
X3706000Y2885121D01*
X3689500Y2900000D02*
X3691121D01*
X3706000Y2205921D02*
Y2885121D01*
X2927500Y2889999D02*
Y2900000D01*
X2904000Y2866500D02*
X2927500Y2889999D01*
X648832Y2876289D02*
Y2892668D01*
X641500Y2900000D02*
X648832Y2892668D01*
Y2876289D02*
X756421Y2768700D01*
X2904000Y2766000D02*
Y2866500D01*
X3706000Y2205921D02*
X3790000Y2121921D01*
X2814696Y2010000D02*
X2820000D01*
X2801602Y2023094D02*
X2814696Y2010000D01*
X2746582Y1471582D02*
X2750000Y1475000D01*
X2718517Y1471582D02*
X2746582D01*
X146000Y1570000D02*
X306000Y1410000D01*
X150000Y1574079D02*
Y1610000D01*
X632100Y2255000D02*
X733173D01*
X783328Y2305155D02*
X876196D01*
X733173Y2255000D02*
X783328Y2305155D01*
X2250000Y1270000D02*
X2540000D01*
X2439200Y1103786D02*
Y1214000D01*
X2440000Y1214800D01*
X2438400Y1102986D02*
X2439200Y1103786D01*
D42*
X292000Y2671000D02*
D03*
Y1807000D02*
D03*
D43*
X710000Y2671000D02*
D03*
Y1807000D02*
D03*
D44*
X660000Y1950000D02*
D03*
Y2528000D02*
D03*
D45*
X118000Y150000D02*
D03*
X372000D02*
D03*
X626000D02*
D03*
X880000D02*
D03*
X1134000D02*
D03*
X1388000D02*
D03*
X1642000D02*
D03*
X1896000D02*
D03*
X2150000D02*
D03*
X2404000D02*
D03*
X2658000D02*
D03*
X2912000D02*
D03*
X3166000D02*
D03*
X3420000D02*
D03*
X3674000D02*
D03*
X4182000D02*
D03*
X3928000D02*
D03*
D46*
X4182000Y2900000D02*
D03*
X3928000D02*
D03*
X3674000D02*
D03*
X3420000D02*
D03*
X3166000D02*
D03*
X2912000D02*
D03*
X2658000D02*
D03*
X2404000D02*
D03*
X2150000D02*
D03*
X1896000D02*
D03*
X1642000D02*
D03*
X1388000D02*
D03*
X1134000D02*
D03*
X880000D02*
D03*
X626000D02*
D03*
X118000D02*
D03*
X372000D02*
D03*
D47*
X400000Y1570000D02*
D03*
D48*
X146000D02*
D03*
D49*
X500000Y1210000D02*
D03*
Y480000D02*
D03*
D50*
X1067500Y1317500D02*
D03*
X2800000Y2300000D02*
D03*
X1452500Y1912500D02*
D03*
Y1615000D02*
D03*
X3062500Y2360000D02*
D03*
X3380000Y2250000D02*
D03*
X3360000Y1095942D02*
D03*
X3280000Y1120000D02*
D03*
X3540000Y590000D02*
D03*
X3804032Y675968D02*
D03*
X3980000Y1830000D02*
D03*
X4220000Y1750000D02*
D03*
X4150000Y1680000D02*
D03*
X4050000Y1610000D02*
D03*
X3970000Y1530000D02*
D03*
X3890000Y1440000D02*
D03*
X3650000Y1230000D02*
D03*
X3820000Y1130000D02*
D03*
X3570000Y2340000D02*
D03*
X3268800Y2490000D02*
D03*
X3119281Y2455200D02*
D03*
X2670000Y2510400D02*
D03*
X2440000Y2400000D02*
D03*
X2550000Y2320000D02*
D03*
X810000Y750000D02*
D03*
X660000Y2050000D02*
D03*
X1700000Y2630000D02*
D03*
X2130000Y2020000D02*
D03*
X1900000Y2160000D02*
D03*
X2742098Y1855200D02*
D03*
X2510000Y2010000D02*
D03*
X2650000Y1260000D02*
D03*
X3640000Y1390000D02*
D03*
X3030000Y820000D02*
D03*
X3060000Y1130000D02*
D03*
X1250000Y1960000D02*
D03*
X1530000D02*
D03*
X1820000Y2080000D02*
D03*
X959706Y1426393D02*
D03*
X1845000Y1745000D02*
D03*
X1735000D02*
D03*
X1845000Y1855000D02*
D03*
X1735000D02*
D03*
X1070000Y1770000D02*
D03*
X890000Y1780000D02*
D03*
X1425000Y2205000D02*
D03*
Y2105000D02*
D03*
X1325000Y2205000D02*
D03*
Y2105000D02*
D03*
X2530000Y1570000D02*
D03*
X1186334Y2493330D02*
D03*
X2076325Y1746173D02*
D03*
X2120000Y1852500D02*
D03*
X2070197Y1900456D02*
D03*
X632100Y2255000D02*
D03*
X800000Y980000D02*
D03*
X2230000Y1195200D02*
D03*
X1780000Y1390000D02*
D03*
X1430000Y1380000D02*
D03*
X2440000Y1214800D02*
D03*
X2230000Y2210000D02*
D03*
X2750000Y1550000D02*
D03*
X2050000Y1030000D02*
D03*
X2438400Y1102986D02*
D03*
X2311400Y939800D02*
D03*
X2250000Y1270000D02*
D03*
X1060000Y2240000D02*
D03*
X960000Y2100000D02*
D03*
X1180000Y2390000D02*
D03*
X2830000Y720000D02*
D03*
X2630000Y800000D02*
D03*
X3709500Y2069200D02*
D03*
X580000Y2500000D02*
D03*
X3375968Y924032D02*
D03*
X2150000Y737500D02*
D03*
X3550000Y1100000D02*
D03*
X3613030Y1175317D02*
D03*
X2750000Y1475000D02*
D03*
X2950000Y640000D02*
D03*
X2050000Y1140000D02*
D03*
X2820000Y2010000D02*
D03*
X3430759Y1375100D02*
D03*
X3320760Y1375100D02*
D03*
X3210760Y1375101D02*
D03*
X3100760Y1375100D02*
D03*
X2990760Y1375101D02*
D03*
X3430760Y1485100D02*
D03*
X3320759Y1485100D02*
D03*
X3210760Y1485100D02*
D03*
X3100760Y1485101D02*
D03*
X2990760Y1485100D02*
D03*
X3430759Y1595100D02*
D03*
X3320760Y1595100D02*
D03*
X3210760D02*
D03*
X3100760D02*
D03*
X2990760Y1595100D02*
D03*
X3430760Y1705100D02*
D03*
X3320760D02*
D03*
X3210760D02*
D03*
X3100760Y1705100D02*
D03*
X2990760Y1705100D02*
D03*
X3430760Y1815100D02*
D03*
X3320760D02*
D03*
X3210760Y1815100D02*
D03*
X3100760Y1815100D02*
D03*
X2990760D02*
D03*
X1168400Y1905000D02*
D03*
X2600000Y980000D02*
D03*
D51*
X118000Y0D02*
D03*
X372000D02*
D03*
X626000D02*
D03*
X880000D02*
D03*
X1134000D02*
D03*
X1388000D02*
D03*
X1642000D02*
D03*
X1896000D02*
D03*
X2150000D02*
D03*
X2404000D02*
D03*
X2658000D02*
D03*
X2912000D02*
D03*
X3166000D02*
D03*
X3420000D02*
D03*
X3674000D02*
D03*
X4182000D02*
D03*
X3928000D02*
D03*
X4182000Y3050000D02*
D03*
X3928000D02*
D03*
X3674000D02*
D03*
X3420000D02*
D03*
X3166000D02*
D03*
X2912000D02*
D03*
X2658000D02*
D03*
X2404000D02*
D03*
X2150000D02*
D03*
X1896000D02*
D03*
X1642000D02*
D03*
X1388000D02*
D03*
X1134000D02*
D03*
X880000D02*
D03*
X626000D02*
D03*
X118000D02*
D03*
X372000D02*
D03*
%TF.MD5,36ae232ec3da688dbe6d921e7aa2fdbd*%
M02*
