%TF.GenerationSoftware,Altium Limited,Altium Designer,24.10.1 (45)*%
G04 Layer_Physical_Order=3*
G04 Layer_Color=16440176*
%FSLAX45Y45*%
%MOMM*%
%TF.SameCoordinates,D2505BA3-E522-476C-ACF0-F4815D070146*%
%TF.FilePolarity,Positive*%
%TF.FileFunction,Copper,L3,Inr,Signal*%
%TF.Part,Single*%
G01*
G75*
%TA.AperFunction,ComponentPad*%
G04:AMPARAMS|DCode=42|XSize=1.8mm|YSize=1mm|CornerRadius=0.25mm|HoleSize=0mm|Usage=FLASHONLY|Rotation=0.000|XOffset=0mm|YOffset=0mm|HoleType=Round|Shape=RoundedRectangle|*
%AMROUNDEDRECTD42*
21,1,1.80000,0.50000,0,0,0.0*
21,1,1.30000,1.00000,0,0,0.0*
1,1,0.50000,0.65000,-0.25000*
1,1,0.50000,-0.65000,-0.25000*
1,1,0.50000,-0.65000,0.25000*
1,1,0.50000,0.65000,0.25000*
%
%ADD42ROUNDEDRECTD42*%
%ADD43O,2.10000X1.00000*%
%ADD44C,0.65000*%
%AMCUSTOMSHAPE45*
4,1,7,0.75000,0.75000,0.75000,0.00000,0.75000,-1.50000,0.75000,-1.50000,-0.75000,-1.50000,-0.75000,0.75000,-0.75000,0.75000,0.75000,0.75000,0.0*%
%ADD45CUSTOMSHAPE45*%

%AMCUSTOMSHAPE46*
4,1,7,-0.75000,-0.75000,-0.75000,0.00000,-0.75000,1.50000,-0.75000,1.50000,0.75000,1.50000,0.75000,-0.75000,0.75000,-0.75000,-0.75000,-0.75000,0.0*%
%ADD46CUSTOMSHAPE46*%

%ADD47C,1.37000*%
%ADD48R,1.37000X1.37000*%
%ADD49C,2.91000*%
%TA.AperFunction,ViaPad*%
%ADD50C,0.45000*%
%ADD51C,1.50000*%
G36*
X4076412Y2900000D02*
Y2825000D01*
X4078741Y2813294D01*
X4085371Y2803371D01*
X4095295Y2796740D01*
X4107000Y2794412D01*
X4257000D01*
X4266909Y2796383D01*
X4271809Y2794467D01*
X4279609Y2788752D01*
Y261248D01*
X4271809Y255533D01*
X4266909Y253617D01*
X4257000Y255588D01*
X4107000D01*
X4095295Y253259D01*
X4085371Y246629D01*
X4078741Y236705D01*
X4076412Y225000D01*
Y20391D01*
X4033588D01*
X4033588Y150000D01*
Y225000D01*
X4031259Y236705D01*
X4024629Y246629D01*
X4014705Y253259D01*
X4003000Y255588D01*
X3853000D01*
X3841295Y253259D01*
X3831371Y246629D01*
X3824741Y236705D01*
X3822412Y225000D01*
Y20391D01*
X3779588D01*
X3779588Y150000D01*
Y225000D01*
X3777259Y236705D01*
X3770629Y246629D01*
X3760705Y253259D01*
X3749000Y255588D01*
X3599000D01*
X3587295Y253259D01*
X3577371Y246629D01*
X3570741Y236705D01*
X3568412Y225000D01*
Y20391D01*
X3525588D01*
X3525588Y150000D01*
Y225000D01*
X3523259Y236705D01*
X3516629Y246629D01*
X3506705Y253259D01*
X3495000Y255588D01*
X3345000D01*
X3333295Y253259D01*
X3323371Y246629D01*
X3316741Y236705D01*
X3314412Y225000D01*
Y20391D01*
X3271588D01*
X3271588Y150000D01*
Y225000D01*
X3269259Y236705D01*
X3262629Y246629D01*
X3252705Y253259D01*
X3241000Y255588D01*
X3091000D01*
X3079295Y253259D01*
X3069371Y246629D01*
X3062741Y236705D01*
X3060412Y225000D01*
Y20391D01*
X3017588D01*
X3017588Y150000D01*
Y225000D01*
X3015259Y236705D01*
X3008629Y246629D01*
X2998705Y253259D01*
X2987000Y255588D01*
X2837000D01*
X2825295Y253259D01*
X2815371Y246629D01*
X2808741Y236705D01*
X2806412Y225000D01*
Y20391D01*
X2763588D01*
X2763588Y150000D01*
Y225000D01*
X2761259Y236705D01*
X2754629Y246629D01*
X2744705Y253259D01*
X2733000Y255588D01*
X2583000D01*
X2571295Y253259D01*
X2561371Y246629D01*
X2554741Y236705D01*
X2552412Y225000D01*
Y20391D01*
X2509588D01*
X2509588Y150000D01*
Y225000D01*
X2507259Y236705D01*
X2500629Y246629D01*
X2490705Y253259D01*
X2479000Y255588D01*
X2329000D01*
X2317295Y253259D01*
X2307371Y246629D01*
X2300741Y236705D01*
X2298412Y225000D01*
Y20391D01*
X2255588D01*
X2255588Y150000D01*
Y225000D01*
X2253259Y236705D01*
X2246629Y246629D01*
X2236705Y253259D01*
X2225000Y255588D01*
X2075000D01*
X2063295Y253259D01*
X2053371Y246629D01*
X2046741Y236705D01*
X2044412Y225000D01*
Y20391D01*
X2001588D01*
X2001588Y150000D01*
Y225000D01*
X1999259Y236705D01*
X1992629Y246629D01*
X1982705Y253259D01*
X1971000Y255588D01*
X1821000D01*
X1809295Y253259D01*
X1799371Y246629D01*
X1792741Y236705D01*
X1790412Y225000D01*
Y20391D01*
X1747588D01*
X1747588Y150000D01*
Y225000D01*
X1745259Y236705D01*
X1738629Y246629D01*
X1728705Y253259D01*
X1717000Y255588D01*
X1567000D01*
X1555295Y253259D01*
X1545371Y246629D01*
X1538741Y236705D01*
X1536412Y225000D01*
Y20391D01*
X1493588D01*
X1493588Y150000D01*
Y225000D01*
X1491259Y236705D01*
X1484629Y246629D01*
X1474705Y253259D01*
X1463000Y255588D01*
X1313000D01*
X1301295Y253259D01*
X1291371Y246629D01*
X1284741Y236705D01*
X1282412Y225000D01*
Y20391D01*
X1239588D01*
X1239588Y150000D01*
Y225000D01*
X1237259Y236705D01*
X1230629Y246629D01*
X1220705Y253259D01*
X1209000Y255588D01*
X1059000D01*
X1047295Y253259D01*
X1037371Y246629D01*
X1030741Y236705D01*
X1028412Y225000D01*
Y20391D01*
X985588D01*
X985588Y150000D01*
Y225000D01*
X983259Y236705D01*
X976629Y246629D01*
X966705Y253259D01*
X955000Y255588D01*
X805000D01*
X793295Y253259D01*
X783371Y246629D01*
X776741Y236705D01*
X774412Y225000D01*
Y20391D01*
X731588D01*
X731588Y150000D01*
Y225000D01*
X729259Y236705D01*
X722629Y246629D01*
X712705Y253259D01*
X701000Y255588D01*
X551000D01*
X539295Y253259D01*
X529371Y246629D01*
X522741Y236705D01*
X520412Y225000D01*
Y20391D01*
X477588D01*
X477588Y150000D01*
Y225000D01*
X475259Y236705D01*
X468629Y246629D01*
X458705Y253259D01*
X447000Y255588D01*
X297000D01*
X285295Y253259D01*
X275371Y246629D01*
X268741Y236705D01*
X266412Y225000D01*
Y20391D01*
X20391D01*
Y2788752D01*
X28191Y2794467D01*
X33091Y2796383D01*
X43000Y2794412D01*
X193000D01*
X204705Y2796740D01*
X214629Y2803371D01*
X221259Y2813294D01*
X223588Y2825000D01*
Y3029609D01*
X520412D01*
X520412Y2900000D01*
Y2825000D01*
X522741Y2813294D01*
X529371Y2803371D01*
X539295Y2796740D01*
X551000Y2794412D01*
X701000D01*
X712705Y2796740D01*
X722629Y2803371D01*
X729259Y2813294D01*
X731588Y2825000D01*
Y3029609D01*
X1028412D01*
X1028412Y2900000D01*
Y2825000D01*
X1030741Y2813294D01*
X1037371Y2803371D01*
X1047295Y2796740D01*
X1059000Y2794412D01*
X1209000D01*
X1220705Y2796740D01*
X1230629Y2803371D01*
X1237259Y2813294D01*
X1239588Y2825000D01*
Y3029609D01*
X1282412D01*
X1282412Y2900000D01*
Y2825000D01*
X1284741Y2813294D01*
X1291371Y2803371D01*
X1301295Y2796740D01*
X1313000Y2794412D01*
X1463000D01*
X1474705Y2796740D01*
X1484629Y2803371D01*
X1491259Y2813294D01*
X1493588Y2825000D01*
Y3029609D01*
X1536412D01*
X1536412Y2900000D01*
Y2825000D01*
X1538741Y2813294D01*
X1545371Y2803371D01*
X1555295Y2796740D01*
X1567000Y2794412D01*
X1717000D01*
X1728705Y2796740D01*
X1738629Y2803371D01*
X1745259Y2813294D01*
X1747588Y2825000D01*
Y3029609D01*
X1790412D01*
X1790412Y2900000D01*
Y2825000D01*
X1792741Y2813294D01*
X1799371Y2803371D01*
X1809295Y2796740D01*
X1821000Y2794412D01*
X1971000D01*
X1982705Y2796740D01*
X1992629Y2803371D01*
X1999259Y2813294D01*
X2001588Y2825000D01*
Y3029609D01*
X2044412D01*
X2044412Y2900000D01*
Y2825000D01*
X2046741Y2813294D01*
X2053371Y2803371D01*
X2063295Y2796740D01*
X2075000Y2794412D01*
X2225000D01*
X2236705Y2796740D01*
X2246629Y2803371D01*
X2253259Y2813294D01*
X2255588Y2825000D01*
Y3029609D01*
X2298412D01*
X2298412Y2900000D01*
Y2825000D01*
X2300741Y2813294D01*
X2307371Y2803371D01*
X2317295Y2796740D01*
X2329000Y2794412D01*
X2479000D01*
X2490705Y2796740D01*
X2500629Y2803371D01*
X2507259Y2813294D01*
X2509588Y2825000D01*
Y3029609D01*
X2552412D01*
X2552412Y2900000D01*
Y2825000D01*
X2554741Y2813294D01*
X2561371Y2803371D01*
X2571295Y2796740D01*
X2583000Y2794412D01*
X2733000D01*
X2744705Y2796740D01*
X2754629Y2803371D01*
X2761259Y2813294D01*
X2763588Y2825000D01*
Y3029609D01*
X2806412D01*
X2806412Y2900000D01*
Y2825000D01*
X2808741Y2813294D01*
X2815371Y2803371D01*
X2825295Y2796740D01*
X2837000Y2794412D01*
X2987000D01*
X2998705Y2796740D01*
X3008629Y2803371D01*
X3015259Y2813294D01*
X3017588Y2825000D01*
Y3029609D01*
X3060412D01*
X3060412Y2900000D01*
Y2825000D01*
X3062741Y2813294D01*
X3069371Y2803371D01*
X3079295Y2796740D01*
X3091000Y2794412D01*
X3241000D01*
X3252705Y2796740D01*
X3262629Y2803371D01*
X3269259Y2813294D01*
X3271588Y2825000D01*
Y3029609D01*
X3314412D01*
X3314412Y2900000D01*
Y2825000D01*
X3316741Y2813294D01*
X3323371Y2803371D01*
X3333295Y2796740D01*
X3345000Y2794412D01*
X3495000D01*
X3506705Y2796740D01*
X3516629Y2803371D01*
X3523259Y2813294D01*
X3525588Y2825000D01*
Y3029609D01*
X3568412D01*
X3568412Y2900000D01*
Y2825000D01*
X3570741Y2813294D01*
X3577371Y2803371D01*
X3587295Y2796740D01*
X3599000Y2794412D01*
X3749000D01*
X3760705Y2796740D01*
X3770629Y2803371D01*
X3777259Y2813294D01*
X3779588Y2825000D01*
Y3029609D01*
X3822412D01*
X3822412Y2900000D01*
Y2825000D01*
X3824741Y2813294D01*
X3831371Y2803371D01*
X3841295Y2796740D01*
X3853000Y2794412D01*
X4003000D01*
X4014705Y2796740D01*
X4024629Y2803371D01*
X4031259Y2813294D01*
X4033588Y2825000D01*
Y3029609D01*
X4076412D01*
X4076412Y2900000D01*
D02*
G37*
%LPC*%
G36*
X765000Y2751690D02*
X655000D01*
X634116Y2748940D01*
X614655Y2740879D01*
X597943Y2728056D01*
X585120Y2711345D01*
X577059Y2691884D01*
X574309Y2671000D01*
X577059Y2650116D01*
X585120Y2630655D01*
X597943Y2613943D01*
X614655Y2601120D01*
X634116Y2593059D01*
X655000Y2590310D01*
X765000D01*
X785884Y2593059D01*
X805345Y2601120D01*
X822057Y2613943D01*
X834880Y2630655D01*
X842941Y2650116D01*
X845690Y2671000D01*
X842941Y2691884D01*
X834880Y2711345D01*
X822057Y2728056D01*
X805345Y2740879D01*
X785884Y2748940D01*
X765000Y2751690D01*
D02*
G37*
G36*
X357000Y2752077D02*
X227000D01*
X205540Y2747808D01*
X187347Y2735652D01*
X175191Y2717460D01*
X170923Y2696000D01*
Y2646000D01*
X175191Y2624540D01*
X187347Y2606347D01*
X205540Y2594191D01*
X227000Y2589922D01*
X357000D01*
X378460Y2594191D01*
X396652Y2606347D01*
X408808Y2624540D01*
X413077Y2646000D01*
Y2696000D01*
X408808Y2717460D01*
X396652Y2735652D01*
X378460Y2747808D01*
X357000Y2752077D01*
D02*
G37*
G36*
X668852Y2572500D02*
X651148D01*
X634793Y2565725D01*
X622275Y2553207D01*
X615500Y2536851D01*
Y2519148D01*
X622275Y2502793D01*
X634793Y2490274D01*
X651148Y2483500D01*
X668852D01*
X685207Y2490274D01*
X697725Y2502793D01*
X704500Y2519148D01*
Y2536851D01*
X697725Y2553207D01*
X685207Y2565725D01*
X668852Y2572500D01*
D02*
G37*
G36*
X2678454Y2552900D02*
X2661546D01*
X2645926Y2546430D01*
X2633970Y2534474D01*
X2627500Y2518854D01*
Y2501946D01*
X2633970Y2486326D01*
X2645926Y2474370D01*
X2661546Y2467900D01*
X2678454D01*
X2694074Y2474370D01*
X2706030Y2486326D01*
X2712500Y2501946D01*
Y2518854D01*
X2706030Y2534474D01*
X2694074Y2546430D01*
X2678454Y2552900D01*
D02*
G37*
G36*
X1194787Y2535829D02*
X1177880D01*
X1162260Y2529359D01*
X1150304Y2517404D01*
X1143834Y2501783D01*
Y2484876D01*
X1150304Y2469255D01*
X1162260Y2457300D01*
X1177880Y2450830D01*
X1194787D01*
X1210408Y2457300D01*
X1222363Y2469255D01*
X1228833Y2484876D01*
Y2501783D01*
X1222363Y2517404D01*
X1210408Y2529359D01*
X1194787Y2535829D01*
D02*
G37*
G36*
X3277254Y2532500D02*
X3260346D01*
X3244726Y2526030D01*
X3232770Y2514074D01*
X3226300Y2498454D01*
Y2481546D01*
X3232770Y2465926D01*
X3244726Y2453970D01*
X3260346Y2447500D01*
X3277254D01*
X3292874Y2453970D01*
X3304830Y2465926D01*
X3311300Y2481546D01*
Y2498454D01*
X3304830Y2514074D01*
X3292874Y2526030D01*
X3277254Y2532500D01*
D02*
G37*
G36*
X3127734Y2497700D02*
X3110827D01*
X3095206Y2491230D01*
X3083251Y2479274D01*
X3076781Y2463654D01*
Y2446746D01*
X3083251Y2431126D01*
X3095206Y2419170D01*
X3110827Y2412700D01*
X3127734D01*
X3143355Y2419170D01*
X3155310Y2431126D01*
X3161780Y2446746D01*
Y2463654D01*
X3155310Y2479274D01*
X3143355Y2491230D01*
X3127734Y2497700D01*
D02*
G37*
G36*
X2448454Y2442500D02*
X2431546D01*
X2415926Y2436030D01*
X2403970Y2424074D01*
X2397500Y2408454D01*
Y2391546D01*
X2403970Y2375926D01*
X2415926Y2363970D01*
X2431546Y2357500D01*
X2448454D01*
X2464074Y2363970D01*
X2476030Y2375926D01*
X2482500Y2391546D01*
Y2408454D01*
X2476030Y2424074D01*
X2464074Y2436030D01*
X2448454Y2442500D01*
D02*
G37*
G36*
X1188454Y2432500D02*
X1171546D01*
X1155926Y2426030D01*
X1143970Y2414074D01*
X1137500Y2398454D01*
Y2381546D01*
X1143970Y2365926D01*
X1155926Y2353970D01*
X1171546Y2347500D01*
X1188454D01*
X1204074Y2353970D01*
X1216030Y2365926D01*
X1222500Y2381546D01*
Y2398454D01*
X1216030Y2414074D01*
X1204074Y2426030D01*
X1188454Y2432500D01*
D02*
G37*
G36*
X3070954Y2402500D02*
X3054046D01*
X3038426Y2396030D01*
X3026470Y2384074D01*
X3020000Y2368454D01*
Y2351546D01*
X3026470Y2335926D01*
X3038426Y2323970D01*
X3054046Y2317500D01*
X3070954D01*
X3086574Y2323970D01*
X3098530Y2335926D01*
X3105000Y2351546D01*
Y2368454D01*
X3098530Y2384074D01*
X3086574Y2396030D01*
X3070954Y2402500D01*
D02*
G37*
G36*
X3578454Y2382500D02*
X3561546D01*
X3545926Y2376030D01*
X3533970Y2364074D01*
X3527500Y2348454D01*
Y2331546D01*
X3533970Y2315926D01*
X3545926Y2303970D01*
X3561546Y2297500D01*
X3578454D01*
X3594074Y2303970D01*
X3606030Y2315926D01*
X3612500Y2331546D01*
Y2348454D01*
X3606030Y2364074D01*
X3594074Y2376030D01*
X3578454Y2382500D01*
D02*
G37*
G36*
X2808454Y2342500D02*
X2791546D01*
X2775926Y2336030D01*
X2763970Y2324074D01*
X2757500Y2308454D01*
Y2291546D01*
X2763970Y2275926D01*
X2775926Y2263970D01*
X2791546Y2257500D01*
X2808454D01*
X2824074Y2263970D01*
X2836030Y2275926D01*
X2842500Y2291546D01*
Y2308454D01*
X2836030Y2324074D01*
X2824074Y2336030D01*
X2808454Y2342500D01*
D02*
G37*
G36*
X640553Y2297500D02*
X623646D01*
X608026Y2291030D01*
X596070Y2279074D01*
X589600Y2263454D01*
Y2246546D01*
X596070Y2230926D01*
X608026Y2218970D01*
X623646Y2212500D01*
X640553D01*
X656174Y2218970D01*
X668129Y2230926D01*
X674600Y2246546D01*
Y2263454D01*
X668129Y2279074D01*
X656174Y2291030D01*
X640553Y2297500D01*
D02*
G37*
G36*
X3388454Y2292500D02*
X3371546D01*
X3355926Y2286030D01*
X3343970Y2274074D01*
X3337500Y2258454D01*
Y2241546D01*
X3343970Y2225926D01*
X3355926Y2213970D01*
X3371546Y2207500D01*
X3388454D01*
X3404074Y2213970D01*
X3416030Y2225926D01*
X3422500Y2241546D01*
Y2258454D01*
X3416030Y2274074D01*
X3404074Y2286030D01*
X3388454Y2292500D01*
D02*
G37*
G36*
X1068454Y2282500D02*
X1051546D01*
X1035926Y2276030D01*
X1023970Y2264074D01*
X1017500Y2248454D01*
Y2231546D01*
X1023970Y2215926D01*
X1035926Y2203970D01*
X1051546Y2197500D01*
X1068454D01*
X1084074Y2203970D01*
X1096030Y2215926D01*
X1102500Y2231546D01*
Y2248454D01*
X1096030Y2264074D01*
X1084074Y2276030D01*
X1068454Y2282500D01*
D02*
G37*
G36*
X2238454Y2252500D02*
X2221546D01*
X2205926Y2246030D01*
X2193970Y2234074D01*
X2187500Y2218454D01*
Y2201546D01*
X2193970Y2185926D01*
X2205926Y2173970D01*
X2221546Y2167500D01*
X2238454D01*
X2254074Y2173970D01*
X2266030Y2185926D01*
X2272500Y2201546D01*
Y2218454D01*
X2266030Y2234074D01*
X2254074Y2246030D01*
X2238454Y2252500D01*
D02*
G37*
G36*
X1433454Y2247500D02*
X1416546D01*
X1400926Y2241030D01*
X1388970Y2229074D01*
X1382500Y2213454D01*
Y2196546D01*
X1388970Y2180926D01*
X1400926Y2168970D01*
X1416546Y2162500D01*
X1433454D01*
X1449074Y2168970D01*
X1461030Y2180926D01*
X1467500Y2196546D01*
Y2213454D01*
X1461030Y2229074D01*
X1449074Y2241030D01*
X1433454Y2247500D01*
D02*
G37*
G36*
X1333454D02*
X1316546D01*
X1300926Y2241030D01*
X1288970Y2229074D01*
X1282500Y2213454D01*
Y2196546D01*
X1288970Y2180926D01*
X1300926Y2168970D01*
X1316546Y2162500D01*
X1333454D01*
X1349074Y2168970D01*
X1361030Y2180926D01*
X1367500Y2196546D01*
Y2213454D01*
X1361030Y2229074D01*
X1349074Y2241030D01*
X1333454Y2247500D01*
D02*
G37*
G36*
X1908454Y2202500D02*
X1891546D01*
X1875926Y2196030D01*
X1863970Y2184074D01*
X1857500Y2168454D01*
Y2151546D01*
X1863970Y2135926D01*
X1875926Y2123970D01*
X1891546Y2117500D01*
X1908454D01*
X1924074Y2123970D01*
X1936030Y2135926D01*
X1942500Y2151546D01*
Y2168454D01*
X1936030Y2184074D01*
X1924074Y2196030D01*
X1908454Y2202500D01*
D02*
G37*
G36*
X1433454Y2147500D02*
X1416546D01*
X1400926Y2141030D01*
X1388970Y2129074D01*
X1382500Y2113454D01*
Y2096546D01*
X1388970Y2080926D01*
X1400926Y2068970D01*
X1416546Y2062500D01*
X1433454D01*
X1449074Y2068970D01*
X1461030Y2080926D01*
X1467500Y2096546D01*
Y2113454D01*
X1461030Y2129074D01*
X1449074Y2141030D01*
X1433454Y2147500D01*
D02*
G37*
G36*
X1333454D02*
X1316546D01*
X1300926Y2141030D01*
X1288970Y2129074D01*
X1282500Y2113454D01*
Y2096546D01*
X1288970Y2080926D01*
X1300926Y2068970D01*
X1316546Y2062500D01*
X1333454D01*
X1349074Y2068970D01*
X1361030Y2080926D01*
X1367500Y2096546D01*
Y2113454D01*
X1361030Y2129074D01*
X1349074Y2141030D01*
X1333454Y2147500D01*
D02*
G37*
G36*
X968454Y2142500D02*
X951546D01*
X935926Y2136030D01*
X923970Y2124074D01*
X917500Y2108454D01*
Y2091546D01*
X923970Y2075926D01*
X935926Y2063970D01*
X951546Y2057500D01*
X968454D01*
X984074Y2063970D01*
X996030Y2075926D01*
X1002500Y2091546D01*
Y2108454D01*
X996030Y2124074D01*
X984074Y2136030D01*
X968454Y2142500D01*
D02*
G37*
G36*
X2138454Y2062500D02*
X2121546D01*
X2105926Y2056030D01*
X2093970Y2044074D01*
X2087500Y2028454D01*
Y2011546D01*
X2093970Y1995926D01*
X2105926Y1983970D01*
X2121546Y1977500D01*
X2138454D01*
X2154074Y1983970D01*
X2166030Y1995926D01*
X2172500Y2011546D01*
Y2028454D01*
X2166030Y2044074D01*
X2154074Y2056030D01*
X2138454Y2062500D01*
D02*
G37*
G36*
X2828454Y2052500D02*
X2811546D01*
X2795926Y2046030D01*
X2783970Y2034074D01*
X2777500Y2018454D01*
Y2001546D01*
X2783970Y1985926D01*
X2795926Y1973970D01*
X2811546Y1967500D01*
X2828454D01*
X2844074Y1973970D01*
X2856030Y1985926D01*
X2862500Y2001546D01*
Y2018454D01*
X2856030Y2034074D01*
X2844074Y2046030D01*
X2828454Y2052500D01*
D02*
G37*
G36*
X2518454D02*
X2501546D01*
X2485926Y2046030D01*
X2473970Y2034074D01*
X2467500Y2018454D01*
Y2001546D01*
X2473970Y1985926D01*
X2485926Y1973970D01*
X2501546Y1967500D01*
X2518454D01*
X2534074Y1973970D01*
X2546030Y1985926D01*
X2552500Y2001546D01*
Y2018454D01*
X2546030Y2034074D01*
X2534074Y2046030D01*
X2518454Y2052500D01*
D02*
G37*
G36*
X1258454Y2002500D02*
X1241546D01*
X1225926Y1996030D01*
X1213970Y1984074D01*
X1207500Y1968454D01*
Y1951546D01*
X1212861Y1938603D01*
X1202095Y1931409D01*
X1192474Y1941030D01*
X1176854Y1947500D01*
X1159946D01*
X1144326Y1941030D01*
X1132370Y1929074D01*
X1125900Y1913454D01*
Y1896546D01*
X1132370Y1880926D01*
X1144326Y1868970D01*
X1159946Y1862500D01*
X1176854D01*
X1192474Y1868970D01*
X1204430Y1880926D01*
X1210900Y1896546D01*
Y1913454D01*
X1205539Y1926397D01*
X1216305Y1933590D01*
X1225926Y1923970D01*
X1241546Y1917500D01*
X1258454D01*
X1274074Y1923970D01*
X1286030Y1935926D01*
X1292500Y1951546D01*
Y1968454D01*
X1286030Y1984074D01*
X1274074Y1996030D01*
X1258454Y2002500D01*
D02*
G37*
G36*
X1538454D02*
X1521546D01*
X1505926Y1996030D01*
X1493970Y1984074D01*
X1487500Y1968454D01*
Y1951546D01*
X1493970Y1935926D01*
X1505926Y1923970D01*
X1521546Y1917500D01*
X1538454D01*
X1554074Y1923970D01*
X1566030Y1935926D01*
X1572500Y1951546D01*
Y1968454D01*
X1566030Y1984074D01*
X1554074Y1996030D01*
X1538454Y2002500D01*
D02*
G37*
G36*
X668852Y1994500D02*
X651148D01*
X634793Y1987725D01*
X622275Y1975207D01*
X615500Y1958852D01*
Y1941148D01*
X622275Y1924793D01*
X634793Y1912275D01*
X651148Y1905500D01*
X668852D01*
X685207Y1912275D01*
X697725Y1924793D01*
X704500Y1941148D01*
Y1958852D01*
X697725Y1975207D01*
X685207Y1987725D01*
X668852Y1994500D01*
D02*
G37*
G36*
X1853453Y1897500D02*
X1836546D01*
X1820926Y1891030D01*
X1808970Y1879074D01*
X1802500Y1863454D01*
Y1846546D01*
X1808970Y1830926D01*
X1820926Y1818970D01*
X1836546Y1812500D01*
X1853453D01*
X1869074Y1818970D01*
X1881030Y1830926D01*
X1887500Y1846546D01*
Y1863454D01*
X1881030Y1879074D01*
X1869074Y1891030D01*
X1853453Y1897500D01*
D02*
G37*
G36*
X1743453D02*
X1726546D01*
X1710926Y1891030D01*
X1698970Y1879074D01*
X1692500Y1863454D01*
Y1846546D01*
X1698970Y1830926D01*
X1710926Y1818970D01*
X1726546Y1812500D01*
X1743453D01*
X1759074Y1818970D01*
X1771029Y1830926D01*
X1777500Y1846546D01*
Y1863454D01*
X1771029Y1879074D01*
X1759074Y1891030D01*
X1743453Y1897500D01*
D02*
G37*
G36*
X2078651Y1942955D02*
X2061744D01*
X2046123Y1936485D01*
X2034168Y1924530D01*
X2027697Y1908909D01*
Y1892002D01*
X2034168Y1876382D01*
X2046123Y1864426D01*
X2061744Y1857956D01*
X2077500D01*
Y1844046D01*
X2083970Y1828426D01*
X2095926Y1816470D01*
X2111546Y1810000D01*
X2128454D01*
X2144074Y1816470D01*
X2156030Y1828426D01*
X2162500Y1844046D01*
Y1860954D01*
X2156030Y1876574D01*
X2144074Y1888530D01*
X2128454Y1895000D01*
X2112697D01*
Y1908909D01*
X2106227Y1924530D01*
X2094271Y1936485D01*
X2078651Y1942955D01*
D02*
G37*
G36*
X3988454Y1872500D02*
X3971546D01*
X3955926Y1866030D01*
X3943970Y1854074D01*
X3937500Y1838454D01*
Y1821546D01*
X3943970Y1805926D01*
X3955926Y1793970D01*
X3971546Y1787500D01*
X3988454D01*
X4004074Y1793970D01*
X4016030Y1805926D01*
X4022500Y1821546D01*
Y1838454D01*
X4016030Y1854074D01*
X4004074Y1866030D01*
X3988454Y1872500D01*
D02*
G37*
G36*
X3439214Y1857600D02*
X3422306D01*
X3406686Y1851130D01*
X3394730Y1839174D01*
X3388260Y1823554D01*
Y1806647D01*
X3394730Y1791026D01*
X3406686Y1779071D01*
X3422306Y1772600D01*
X3439214D01*
X3454834Y1779071D01*
X3466790Y1791026D01*
X3473260Y1806647D01*
Y1823554D01*
X3466790Y1839174D01*
X3454834Y1851130D01*
X3439214Y1857600D01*
D02*
G37*
G36*
X3329214D02*
X3312306D01*
X3296686Y1851130D01*
X3284730Y1839174D01*
X3278260Y1823554D01*
Y1806647D01*
X3284730Y1791026D01*
X3296686Y1779071D01*
X3312306Y1772600D01*
X3329214D01*
X3344834Y1779071D01*
X3356790Y1791026D01*
X3363260Y1806647D01*
Y1823554D01*
X3356790Y1839174D01*
X3344834Y1851130D01*
X3329214Y1857600D01*
D02*
G37*
G36*
X3109213D02*
X3092306D01*
X3076686Y1851130D01*
X3064730Y1839174D01*
X3058260Y1823554D01*
Y1806647D01*
X3064730Y1791026D01*
X3076686Y1779071D01*
X3092306Y1772600D01*
X3109213D01*
X3124834Y1779071D01*
X3136790Y1791026D01*
X3143260Y1806647D01*
Y1823554D01*
X3136790Y1839174D01*
X3124834Y1851130D01*
X3109213Y1857600D01*
D02*
G37*
G36*
X2999213D02*
X2982306D01*
X2966685Y1851130D01*
X2954730Y1839174D01*
X2948260Y1823554D01*
Y1806647D01*
X2954730Y1791026D01*
X2966685Y1779071D01*
X2982306Y1772600D01*
X2999213D01*
X3014834Y1779071D01*
X3026789Y1791026D01*
X3033259Y1806647D01*
Y1823554D01*
X3026789Y1839174D01*
X3014834Y1851130D01*
X2999213Y1857600D01*
D02*
G37*
G36*
X3219214Y1857600D02*
X3202307D01*
X3186686Y1851130D01*
X3174731Y1839174D01*
X3168260Y1823554D01*
Y1806646D01*
X3174731Y1791026D01*
X3186686Y1779070D01*
X3202307Y1772600D01*
X3219214D01*
X3234834Y1779070D01*
X3246790Y1791026D01*
X3253260Y1806646D01*
Y1823554D01*
X3246790Y1839174D01*
X3234834Y1851130D01*
X3219214Y1857600D01*
D02*
G37*
G36*
X765000Y1887690D02*
X655000D01*
X634116Y1884941D01*
X614655Y1876880D01*
X597943Y1864056D01*
X585120Y1847345D01*
X577059Y1827884D01*
X574309Y1807000D01*
X577059Y1786116D01*
X585120Y1766655D01*
X597943Y1749943D01*
X614655Y1737120D01*
X634116Y1729059D01*
X655000Y1726310D01*
X765000D01*
X785884Y1729059D01*
X805345Y1737120D01*
X822057Y1749943D01*
X834880Y1766655D01*
X835767Y1768797D01*
X849076Y1767741D01*
X853970Y1755926D01*
X865926Y1743970D01*
X881546Y1737500D01*
X898454D01*
X914074Y1743970D01*
X926030Y1755926D01*
X932500Y1771546D01*
Y1788454D01*
X926030Y1804074D01*
X914074Y1816030D01*
X898454Y1822500D01*
X881546D01*
X865926Y1816030D01*
X858182Y1808286D01*
X844917Y1812877D01*
X842941Y1827884D01*
X834880Y1847345D01*
X822057Y1864056D01*
X805345Y1876880D01*
X785884Y1884941D01*
X765000Y1887690D01*
D02*
G37*
G36*
X1078454Y1812500D02*
X1061546D01*
X1045926Y1806030D01*
X1033970Y1794074D01*
X1027500Y1778454D01*
Y1761546D01*
X1033970Y1745926D01*
X1045926Y1733970D01*
X1061546Y1727500D01*
X1078454D01*
X1094074Y1733970D01*
X1106030Y1745926D01*
X1112500Y1761546D01*
Y1778454D01*
X1106030Y1794074D01*
X1094074Y1806030D01*
X1078454Y1812500D01*
D02*
G37*
G36*
X357000Y1888077D02*
X227000D01*
X205540Y1883809D01*
X187347Y1871653D01*
X175191Y1853460D01*
X170923Y1832000D01*
Y1782000D01*
X175191Y1760540D01*
X187347Y1742347D01*
X205540Y1730191D01*
X227000Y1725923D01*
X357000D01*
X378460Y1730191D01*
X396652Y1742347D01*
X408808Y1760540D01*
X413077Y1782000D01*
Y1832000D01*
X408808Y1853460D01*
X396652Y1871653D01*
X378460Y1883809D01*
X357000Y1888077D01*
D02*
G37*
G36*
X4228454Y1792500D02*
X4211546D01*
X4195926Y1786030D01*
X4183970Y1774074D01*
X4177500Y1758454D01*
Y1741546D01*
X4183970Y1725926D01*
X4195926Y1713970D01*
X4211546Y1707500D01*
X4228454D01*
X4244074Y1713970D01*
X4256030Y1725926D01*
X4262500Y1741546D01*
Y1758454D01*
X4256030Y1774074D01*
X4244074Y1786030D01*
X4228454Y1792500D01*
D02*
G37*
G36*
X2084779Y1788672D02*
X2067872D01*
X2052251Y1782202D01*
X2040296Y1770247D01*
X2033825Y1754626D01*
Y1737719D01*
X2040296Y1722098D01*
X2052251Y1710143D01*
X2067872Y1703673D01*
X2084779D01*
X2100399Y1710143D01*
X2112355Y1722098D01*
X2118825Y1737719D01*
Y1754626D01*
X2112355Y1770247D01*
X2100399Y1782202D01*
X2084779Y1788672D01*
D02*
G37*
G36*
X1853453Y1787500D02*
X1836546D01*
X1820926Y1781030D01*
X1808970Y1769074D01*
X1802500Y1753454D01*
Y1736546D01*
X1808970Y1720926D01*
X1820926Y1708970D01*
X1836546Y1702500D01*
X1853453D01*
X1869074Y1708970D01*
X1881030Y1720926D01*
X1887500Y1736546D01*
Y1753454D01*
X1881030Y1769074D01*
X1869074Y1781030D01*
X1853453Y1787500D01*
D02*
G37*
G36*
X1743453D02*
X1726546D01*
X1710926Y1781030D01*
X1698970Y1769074D01*
X1692500Y1753454D01*
Y1736546D01*
X1698970Y1720926D01*
X1710926Y1708970D01*
X1726546Y1702500D01*
X1743453D01*
X1759074Y1708970D01*
X1771029Y1720926D01*
X1777500Y1736546D01*
Y1753454D01*
X1771029Y1769074D01*
X1759074Y1781030D01*
X1743453Y1787500D01*
D02*
G37*
G36*
X3439214Y1747600D02*
X3422306D01*
X3406686Y1741130D01*
X3394730Y1729174D01*
X3388260Y1713554D01*
Y1696647D01*
X3394730Y1681026D01*
X3406686Y1669071D01*
X3422306Y1662600D01*
X3439214D01*
X3454834Y1669071D01*
X3466790Y1681026D01*
X3473260Y1696647D01*
Y1713554D01*
X3466790Y1729174D01*
X3454834Y1741130D01*
X3439214Y1747600D01*
D02*
G37*
G36*
X3329214D02*
X3312306D01*
X3296686Y1741130D01*
X3284730Y1729174D01*
X3278260Y1713554D01*
Y1696647D01*
X3284730Y1681026D01*
X3296686Y1669071D01*
X3312306Y1662600D01*
X3329214D01*
X3344834Y1669071D01*
X3356790Y1681026D01*
X3363260Y1696647D01*
Y1713554D01*
X3356790Y1729174D01*
X3344834Y1741130D01*
X3329214Y1747600D01*
D02*
G37*
G36*
X3219214D02*
X3202306D01*
X3186686Y1741130D01*
X3174730Y1729174D01*
X3168260Y1713554D01*
Y1696647D01*
X3174730Y1681026D01*
X3186686Y1669071D01*
X3202306Y1662600D01*
X3219214D01*
X3234834Y1669071D01*
X3246790Y1681026D01*
X3253260Y1696647D01*
Y1713554D01*
X3246790Y1729174D01*
X3234834Y1741130D01*
X3219214Y1747600D01*
D02*
G37*
G36*
X2999213D02*
X2982306D01*
X2966685Y1741130D01*
X2954730Y1729174D01*
X2948260Y1713554D01*
Y1696647D01*
X2954730Y1681026D01*
X2966685Y1669071D01*
X2982306Y1662600D01*
X2999213D01*
X3014834Y1669071D01*
X3026789Y1681026D01*
X3033259Y1696647D01*
Y1713554D01*
X3026789Y1729174D01*
X3014834Y1741130D01*
X2999213Y1747600D01*
D02*
G37*
G36*
X3109214Y1747600D02*
X3092306D01*
X3076686Y1741130D01*
X3064730Y1729174D01*
X3058260Y1713554D01*
Y1696646D01*
X3064730Y1681026D01*
X3076686Y1669070D01*
X3092306Y1662600D01*
X3109214D01*
X3124834Y1669070D01*
X3136790Y1681026D01*
X3143260Y1696646D01*
Y1713554D01*
X3136790Y1729174D01*
X3124834Y1741130D01*
X3109214Y1747600D01*
D02*
G37*
G36*
X4158454Y1722500D02*
X4141546D01*
X4125926Y1716030D01*
X4113970Y1704074D01*
X4107500Y1688454D01*
Y1671546D01*
X4113970Y1655926D01*
X4125926Y1643970D01*
X4141546Y1637500D01*
X4158454D01*
X4174074Y1643970D01*
X4186030Y1655926D01*
X4192500Y1671546D01*
Y1688454D01*
X4186030Y1704074D01*
X4174074Y1716030D01*
X4158454Y1722500D01*
D02*
G37*
G36*
X1460954Y1657500D02*
X1444046D01*
X1428426Y1651030D01*
X1416470Y1639074D01*
X1410000Y1623454D01*
Y1606546D01*
X1416470Y1590926D01*
X1428426Y1578970D01*
X1444046Y1572500D01*
X1460954D01*
X1476574Y1578970D01*
X1488530Y1590926D01*
X1495000Y1606546D01*
Y1623454D01*
X1488530Y1639074D01*
X1476574Y1651030D01*
X1460954Y1657500D01*
D02*
G37*
G36*
X4058454Y1652500D02*
X4041546D01*
X4025926Y1646030D01*
X4013970Y1634074D01*
X4007500Y1618454D01*
Y1601546D01*
X4013970Y1585926D01*
X4025926Y1573970D01*
X4041546Y1567500D01*
X4058454D01*
X4074074Y1573970D01*
X4086030Y1585926D01*
X4092500Y1601546D01*
Y1618454D01*
X4086030Y1634074D01*
X4074074Y1646030D01*
X4058454Y1652500D01*
D02*
G37*
G36*
X3439213Y1637600D02*
X3422306D01*
X3406685Y1631130D01*
X3394730Y1619175D01*
X3388260Y1603554D01*
Y1586647D01*
X3394730Y1571026D01*
X3406685Y1559071D01*
X3422306Y1552601D01*
X3439213D01*
X3454834Y1559071D01*
X3466789Y1571026D01*
X3473259Y1586647D01*
Y1603554D01*
X3466789Y1619175D01*
X3454834Y1631130D01*
X3439213Y1637600D01*
D02*
G37*
G36*
X2999214D02*
X2982307D01*
X2966686Y1631130D01*
X2954731Y1619175D01*
X2948261Y1603554D01*
Y1586647D01*
X2954731Y1571026D01*
X2966686Y1559071D01*
X2982307Y1552601D01*
X2999214D01*
X3014834Y1559071D01*
X3026790Y1571026D01*
X3033260Y1586647D01*
Y1603554D01*
X3026790Y1619175D01*
X3014834Y1631130D01*
X2999214Y1637600D01*
D02*
G37*
G36*
X3329214Y1637600D02*
X3312306D01*
X3296686Y1631130D01*
X3284730Y1619174D01*
X3278260Y1603554D01*
Y1586647D01*
X3284730Y1571026D01*
X3296686Y1559071D01*
X3312306Y1552600D01*
X3329214D01*
X3344834Y1559071D01*
X3356790Y1571026D01*
X3363260Y1586647D01*
Y1603554D01*
X3356790Y1619174D01*
X3344834Y1631130D01*
X3329214Y1637600D01*
D02*
G37*
G36*
X3219214D02*
X3202306D01*
X3186686Y1631130D01*
X3174730Y1619174D01*
X3168260Y1603554D01*
Y1586647D01*
X3174730Y1571026D01*
X3186686Y1559071D01*
X3202306Y1552600D01*
X3219214D01*
X3234834Y1559071D01*
X3246790Y1571026D01*
X3253260Y1586647D01*
Y1603554D01*
X3246790Y1619174D01*
X3234834Y1631130D01*
X3219214Y1637600D01*
D02*
G37*
G36*
X3109214D02*
X3092306D01*
X3076686Y1631130D01*
X3064730Y1619174D01*
X3058260Y1603554D01*
Y1586647D01*
X3064730Y1571026D01*
X3076686Y1559071D01*
X3092306Y1552600D01*
X3109214D01*
X3124834Y1559071D01*
X3136790Y1571026D01*
X3143260Y1586647D01*
Y1603554D01*
X3136790Y1619174D01*
X3124834Y1631130D01*
X3109214Y1637600D01*
D02*
G37*
G36*
X2538454Y1612500D02*
X2521546D01*
X2505926Y1606030D01*
X2493970Y1594074D01*
X2487500Y1578454D01*
Y1561546D01*
X2493970Y1545926D01*
X2505926Y1533970D01*
X2521546Y1527500D01*
X2538454D01*
X2554074Y1533970D01*
X2566030Y1545926D01*
X2572500Y1561546D01*
Y1578454D01*
X2566030Y1594074D01*
X2554074Y1606030D01*
X2538454Y1612500D01*
D02*
G37*
G36*
X3978454Y1572500D02*
X3961546D01*
X3945926Y1566030D01*
X3933970Y1554074D01*
X3927500Y1538454D01*
Y1521546D01*
X3933970Y1505926D01*
X3945926Y1493970D01*
X3961546Y1487500D01*
X3978454D01*
X3994074Y1493970D01*
X4006030Y1505926D01*
X4012500Y1521546D01*
Y1538454D01*
X4006030Y1554074D01*
X3994074Y1566030D01*
X3978454Y1572500D01*
D02*
G37*
G36*
X412968Y1668500D02*
X387032D01*
X361980Y1661787D01*
X339520Y1648819D01*
X321180Y1630480D01*
X308213Y1608019D01*
X301500Y1582968D01*
Y1557032D01*
X308213Y1531980D01*
X321180Y1509519D01*
X339520Y1491180D01*
X361980Y1478213D01*
X387032Y1471500D01*
X412968D01*
X438019Y1478213D01*
X460480Y1491180D01*
X478819Y1509519D01*
X491787Y1531980D01*
X498500Y1557032D01*
Y1582968D01*
X491787Y1608019D01*
X478819Y1630480D01*
X460480Y1648819D01*
X438019Y1661787D01*
X412968Y1668500D01*
D02*
G37*
G36*
X244500D02*
X47500D01*
Y1471500D01*
X244500D01*
Y1668500D01*
D02*
G37*
G36*
X3109214Y1527600D02*
X3092306D01*
X3076686Y1521130D01*
X3064730Y1509175D01*
X3058260Y1493554D01*
Y1476647D01*
X3064730Y1461027D01*
X3076686Y1449071D01*
X3092306Y1442601D01*
X3109214D01*
X3124834Y1449071D01*
X3136790Y1461027D01*
X3143260Y1476647D01*
Y1493554D01*
X3136790Y1509175D01*
X3124834Y1521130D01*
X3109214Y1527600D01*
D02*
G37*
G36*
X3329213Y1527600D02*
X3312306D01*
X3296685Y1521130D01*
X3284730Y1509175D01*
X3278260Y1493554D01*
Y1476647D01*
X3284730Y1461026D01*
X3296685Y1449071D01*
X3312306Y1442601D01*
X3329213D01*
X3344834Y1449071D01*
X3356789Y1461026D01*
X3363259Y1476647D01*
Y1493554D01*
X3356789Y1509175D01*
X3344834Y1521130D01*
X3329213Y1527600D01*
D02*
G37*
G36*
X3219214Y1527600D02*
X3202307D01*
X3186686Y1521130D01*
X3174731Y1509174D01*
X3168260Y1493554D01*
Y1476647D01*
X3174731Y1461026D01*
X3186686Y1449071D01*
X3202307Y1442600D01*
X3219214D01*
X3234834Y1449071D01*
X3246790Y1461026D01*
X3253260Y1476647D01*
Y1493554D01*
X3246790Y1509174D01*
X3234834Y1521130D01*
X3219214Y1527600D01*
D02*
G37*
G36*
X2999213D02*
X2982306D01*
X2966685Y1521130D01*
X2954730Y1509174D01*
X2948260Y1493554D01*
Y1476647D01*
X2954730Y1461026D01*
X2966685Y1449071D01*
X2982306Y1442600D01*
X2999213D01*
X3014834Y1449071D01*
X3026789Y1461026D01*
X3033259Y1476647D01*
Y1493554D01*
X3026789Y1509174D01*
X3014834Y1521130D01*
X2999213Y1527600D01*
D02*
G37*
G36*
X3439214Y1527600D02*
X3422306D01*
X3406686Y1521130D01*
X3394730Y1509174D01*
X3388260Y1493554D01*
Y1476646D01*
X3394730Y1461026D01*
X3406686Y1449070D01*
X3422306Y1442600D01*
X3439214D01*
X3454834Y1449070D01*
X3466790Y1461026D01*
X3473260Y1476646D01*
Y1493554D01*
X3466790Y1509174D01*
X3454834Y1521130D01*
X3439214Y1527600D01*
D02*
G37*
G36*
X2758454Y1517500D02*
X2741546D01*
X2725926Y1511030D01*
X2713970Y1499074D01*
X2707500Y1483454D01*
Y1466546D01*
X2713970Y1450926D01*
X2725926Y1438970D01*
X2741546Y1432500D01*
X2758454D01*
X2774074Y1438970D01*
X2786030Y1450926D01*
X2792500Y1466546D01*
Y1483454D01*
X2786030Y1499074D01*
X2774074Y1511030D01*
X2758454Y1517500D01*
D02*
G37*
G36*
X3898454Y1482500D02*
X3881546D01*
X3865926Y1476030D01*
X3853970Y1464074D01*
X3847500Y1448454D01*
Y1431546D01*
X3853970Y1415926D01*
X3865926Y1403970D01*
X3881546Y1397500D01*
X3898454D01*
X3914074Y1403970D01*
X3926030Y1415926D01*
X3932500Y1431546D01*
Y1448454D01*
X3926030Y1464074D01*
X3914074Y1476030D01*
X3898454Y1482500D01*
D02*
G37*
G36*
X1788454Y1432500D02*
X1771546D01*
X1755926Y1426030D01*
X1743970Y1414074D01*
X1737500Y1398454D01*
Y1381546D01*
X1743970Y1365926D01*
X1755926Y1353970D01*
X1771546Y1347500D01*
X1788454D01*
X1804074Y1353970D01*
X1816030Y1365926D01*
X1822500Y1381546D01*
Y1398454D01*
X1816030Y1414074D01*
X1804074Y1426030D01*
X1788454Y1432500D01*
D02*
G37*
G36*
X1438454Y1422500D02*
X1421546D01*
X1405926Y1416030D01*
X1393970Y1404074D01*
X1387500Y1388454D01*
Y1371546D01*
X1393970Y1355926D01*
X1405926Y1343970D01*
X1421546Y1337500D01*
X1438454D01*
X1454074Y1343970D01*
X1466030Y1355926D01*
X1472500Y1371546D01*
Y1388454D01*
X1466030Y1404074D01*
X1454074Y1416030D01*
X1438454Y1422500D01*
D02*
G37*
G36*
X3219214Y1417600D02*
X3202307D01*
X3186686Y1411130D01*
X3174731Y1399175D01*
X3168260Y1383554D01*
Y1366647D01*
X3174731Y1351027D01*
X3186686Y1339071D01*
X3202307Y1332601D01*
X3219214D01*
X3234834Y1339071D01*
X3246790Y1351027D01*
X3253260Y1366647D01*
Y1383554D01*
X3246790Y1399175D01*
X3234834Y1411130D01*
X3219214Y1417600D01*
D02*
G37*
G36*
X2999214D02*
X2982306D01*
X2966686Y1411130D01*
X2954730Y1399175D01*
X2948260Y1383554D01*
Y1366647D01*
X2954730Y1351027D01*
X2966686Y1339071D01*
X2982306Y1332601D01*
X2999214D01*
X3014834Y1339071D01*
X3026790Y1351027D01*
X3033260Y1366647D01*
Y1383554D01*
X3026790Y1399175D01*
X3014834Y1411130D01*
X2999214Y1417600D01*
D02*
G37*
G36*
X3439213Y1417600D02*
X3422306D01*
X3406685Y1411130D01*
X3394730Y1399174D01*
X3388260Y1383554D01*
Y1366647D01*
X3394730Y1351026D01*
X3406685Y1339071D01*
X3422306Y1332601D01*
X3439213D01*
X3454834Y1339071D01*
X3466789Y1351026D01*
X3473259Y1366647D01*
Y1383554D01*
X3466789Y1399174D01*
X3454834Y1411130D01*
X3439213Y1417600D01*
D02*
G37*
G36*
X3329214Y1417600D02*
X3312307D01*
X3296686Y1411130D01*
X3284731Y1399174D01*
X3278260Y1383554D01*
Y1366646D01*
X3284731Y1351026D01*
X3296686Y1339070D01*
X3312307Y1332600D01*
X3329214D01*
X3344834Y1339070D01*
X3356790Y1351026D01*
X3363260Y1366646D01*
Y1383554D01*
X3356790Y1399174D01*
X3344834Y1411130D01*
X3329214Y1417600D01*
D02*
G37*
G36*
X3109214D02*
X3092306D01*
X3076686Y1411130D01*
X3064730Y1399174D01*
X3058260Y1383554D01*
Y1366646D01*
X3064730Y1351026D01*
X3076686Y1339070D01*
X3092306Y1332600D01*
X3109214D01*
X3124834Y1339070D01*
X3136790Y1351026D01*
X3143260Y1366646D01*
Y1383554D01*
X3136790Y1399174D01*
X3124834Y1411130D01*
X3109214Y1417600D01*
D02*
G37*
G36*
X1075954Y1360000D02*
X1059046D01*
X1043426Y1353530D01*
X1031470Y1341574D01*
X1025000Y1325954D01*
Y1309046D01*
X1031470Y1293426D01*
X1043426Y1281470D01*
X1059046Y1275000D01*
X1075954D01*
X1091574Y1281470D01*
X1103530Y1293426D01*
X1110000Y1309046D01*
Y1325954D01*
X1103530Y1341574D01*
X1091574Y1353530D01*
X1075954Y1360000D01*
D02*
G37*
G36*
X2658454Y1302500D02*
X2641546D01*
X2625926Y1296030D01*
X2613970Y1284074D01*
X2607500Y1268454D01*
Y1251546D01*
X2613970Y1235926D01*
X2625926Y1223970D01*
X2641546Y1217500D01*
X2658454D01*
X2674074Y1223970D01*
X2686030Y1235926D01*
X2692500Y1251546D01*
Y1268454D01*
X2686030Y1284074D01*
X2674074Y1296030D01*
X2658454Y1302500D01*
D02*
G37*
G36*
X2448454Y1257300D02*
X2431546D01*
X2415926Y1250830D01*
X2403970Y1238874D01*
X2397500Y1223254D01*
Y1206346D01*
X2403970Y1190726D01*
X2415926Y1178770D01*
X2431546Y1172300D01*
X2448454D01*
X2464074Y1178770D01*
X2476030Y1190726D01*
X2482500Y1206346D01*
Y1223254D01*
X2476030Y1238874D01*
X2464074Y1250830D01*
X2448454Y1257300D01*
D02*
G37*
G36*
X2258454Y1312500D02*
X2241546D01*
X2225926Y1306030D01*
X2213970Y1294074D01*
X2207500Y1278454D01*
Y1261546D01*
X2213970Y1245926D01*
X2209306Y1232630D01*
X2205926Y1231230D01*
X2193970Y1219274D01*
X2187500Y1203654D01*
Y1186746D01*
X2193970Y1171126D01*
X2205926Y1159170D01*
X2221546Y1152700D01*
X2238454D01*
X2254074Y1159170D01*
X2266030Y1171126D01*
X2272500Y1186746D01*
Y1203654D01*
X2266030Y1219274D01*
X2270694Y1232570D01*
X2274074Y1233970D01*
X2286030Y1245926D01*
X2292500Y1261546D01*
Y1278454D01*
X2286030Y1294074D01*
X2274074Y1306030D01*
X2258454Y1312500D01*
D02*
G37*
G36*
X3658454Y1272500D02*
X3641546D01*
X3625926Y1266030D01*
X3613970Y1254074D01*
X3607500Y1238454D01*
Y1221547D01*
X3605008Y1217817D01*
X3604576D01*
X3588956Y1211347D01*
X3577000Y1199392D01*
X3570530Y1183771D01*
Y1166864D01*
X3577000Y1151243D01*
X3588956Y1139288D01*
X3604576Y1132818D01*
X3621483D01*
X3637104Y1139288D01*
X3649060Y1151243D01*
X3655530Y1166864D01*
Y1183771D01*
X3658022Y1187500D01*
X3658454D01*
X3674074Y1193970D01*
X3686030Y1205926D01*
X3692500Y1221546D01*
Y1238454D01*
X3686030Y1254074D01*
X3674074Y1266030D01*
X3658454Y1272500D01*
D02*
G37*
G36*
X2058454Y1182500D02*
X2041546D01*
X2025926Y1176030D01*
X2013970Y1164074D01*
X2007500Y1148454D01*
Y1131546D01*
X2013970Y1115926D01*
X2025926Y1103970D01*
X2041546Y1097500D01*
X2058454D01*
X2074074Y1103970D01*
X2086030Y1115926D01*
X2092500Y1131546D01*
Y1148454D01*
X2086030Y1164074D01*
X2074074Y1176030D01*
X2058454Y1182500D01*
D02*
G37*
G36*
X3828454Y1172500D02*
X3811546D01*
X3795926Y1166030D01*
X3783970Y1154074D01*
X3777500Y1138454D01*
Y1121546D01*
X3783970Y1105926D01*
X3795926Y1093970D01*
X3811546Y1087500D01*
X3828454D01*
X3844074Y1093970D01*
X3856030Y1105926D01*
X3862500Y1121546D01*
Y1138454D01*
X3856030Y1154074D01*
X3844074Y1166030D01*
X3828454Y1172500D01*
D02*
G37*
G36*
X2446854Y1145486D02*
X2429946D01*
X2414326Y1139016D01*
X2402370Y1127060D01*
X2395900Y1111440D01*
Y1094532D01*
X2402370Y1078912D01*
X2414326Y1066956D01*
X2429946Y1060486D01*
X2446854D01*
X2462474Y1066956D01*
X2474430Y1078912D01*
X2480900Y1094532D01*
Y1111440D01*
X2474430Y1127060D01*
X2462474Y1139016D01*
X2446854Y1145486D01*
D02*
G37*
G36*
X3558454Y1142500D02*
X3541546D01*
X3525926Y1136030D01*
X3513970Y1124074D01*
X3507500Y1108454D01*
Y1091546D01*
X3513970Y1075926D01*
X3525926Y1063970D01*
X3541546Y1057500D01*
X3558454D01*
X3574074Y1063970D01*
X3586030Y1075926D01*
X3592500Y1091546D01*
Y1108454D01*
X3586030Y1124074D01*
X3574074Y1136030D01*
X3558454Y1142500D01*
D02*
G37*
G36*
X3288454Y1162500D02*
X3271546D01*
X3255926Y1156030D01*
X3243970Y1144074D01*
X3237500Y1128454D01*
Y1111546D01*
X3243970Y1095926D01*
X3255926Y1083970D01*
X3271546Y1077500D01*
X3288454D01*
X3304074Y1083970D01*
X3305618Y1085514D01*
X3306049Y1085586D01*
X3319859Y1081794D01*
X3323970Y1071868D01*
X3335926Y1059912D01*
X3351546Y1053442D01*
X3368454D01*
X3384074Y1059912D01*
X3396030Y1071868D01*
X3402500Y1087488D01*
Y1104396D01*
X3396030Y1120016D01*
X3384074Y1131972D01*
X3368454Y1138442D01*
X3351546D01*
X3335926Y1131972D01*
X3334382Y1130428D01*
X3333951Y1130356D01*
X3320141Y1134148D01*
X3316030Y1144074D01*
X3304074Y1156030D01*
X3288454Y1162500D01*
D02*
G37*
G36*
X517285Y1385500D02*
X482715D01*
X448809Y1378755D01*
X416870Y1365526D01*
X388125Y1346320D01*
X363681Y1321875D01*
X344474Y1293131D01*
X331245Y1261192D01*
X324500Y1227285D01*
Y1192715D01*
X331245Y1158809D01*
X344474Y1126870D01*
X363681Y1098126D01*
X388125Y1073681D01*
X416870Y1054474D01*
X448809Y1041245D01*
X482715Y1034500D01*
X517285D01*
X551191Y1041245D01*
X583130Y1054474D01*
X611875Y1073681D01*
X636320Y1098126D01*
X655526Y1126870D01*
X668755Y1158809D01*
X675500Y1192715D01*
Y1227285D01*
X668755Y1261192D01*
X655526Y1293131D01*
X636320Y1321875D01*
X611875Y1346320D01*
X583130Y1365526D01*
X551191Y1378755D01*
X517285Y1385500D01*
D02*
G37*
G36*
X2058454Y1072500D02*
X2041546D01*
X2025926Y1066030D01*
X2013970Y1054074D01*
X2007500Y1038454D01*
Y1021546D01*
X2013970Y1005926D01*
X2025926Y993970D01*
X2041546Y987500D01*
X2058454D01*
X2074074Y993970D01*
X2086030Y1005926D01*
X2092500Y1021546D01*
Y1038454D01*
X2086030Y1054074D01*
X2074074Y1066030D01*
X2058454Y1072500D01*
D02*
G37*
G36*
X2608454Y1022500D02*
X2591546D01*
X2575926Y1016030D01*
X2563970Y1004074D01*
X2557500Y988454D01*
Y971546D01*
X2563970Y955926D01*
X2575926Y943970D01*
X2591546Y937500D01*
X2608454D01*
X2624074Y943970D01*
X2636030Y955926D01*
X2642500Y971546D01*
Y988454D01*
X2636030Y1004074D01*
X2624074Y1016030D01*
X2608454Y1022500D01*
D02*
G37*
G36*
X808454D02*
X791546D01*
X775926Y1016030D01*
X763970Y1004074D01*
X757500Y988454D01*
Y971546D01*
X763970Y955926D01*
X775926Y943970D01*
X791546Y937500D01*
X808454D01*
X824074Y943970D01*
X836030Y955926D01*
X842500Y971546D01*
Y988454D01*
X836030Y1004074D01*
X824074Y1016030D01*
X808454Y1022500D01*
D02*
G37*
G36*
X2319854Y982300D02*
X2302946D01*
X2287326Y975830D01*
X2275370Y963874D01*
X2268900Y948254D01*
Y931346D01*
X2275370Y915726D01*
X2287326Y903770D01*
X2302946Y897300D01*
X2319854D01*
X2335474Y903770D01*
X2347430Y915726D01*
X2353900Y931346D01*
Y948254D01*
X2347430Y963874D01*
X2335474Y975830D01*
X2319854Y982300D01*
D02*
G37*
G36*
X3384421Y966532D02*
X3367514D01*
X3351893Y960062D01*
X3339938Y948106D01*
X3333468Y932486D01*
Y915579D01*
X3339938Y899958D01*
X3351893Y888003D01*
X3367514Y881532D01*
X3384421D01*
X3400042Y888003D01*
X3411997Y899958D01*
X3418467Y915579D01*
Y932486D01*
X3411997Y948106D01*
X3400042Y960062D01*
X3384421Y966532D01*
D02*
G37*
G36*
X3038454Y862500D02*
X3021546D01*
X3005926Y856030D01*
X2993970Y844074D01*
X2987500Y828454D01*
Y811546D01*
X2993970Y795926D01*
X3005926Y783970D01*
X3021546Y777500D01*
X3038454D01*
X3054074Y783970D01*
X3066030Y795926D01*
X3072500Y811546D01*
Y828454D01*
X3066030Y844074D01*
X3054074Y856030D01*
X3038454Y862500D01*
D02*
G37*
G36*
X2638454Y842500D02*
X2621546D01*
X2605926Y836030D01*
X2593970Y824074D01*
X2587500Y808454D01*
Y791546D01*
X2593970Y775926D01*
X2605926Y763970D01*
X2621546Y757500D01*
X2638454D01*
X2654074Y763970D01*
X2666030Y775926D01*
X2672500Y791546D01*
Y808454D01*
X2666030Y824074D01*
X2654074Y836030D01*
X2638454Y842500D01*
D02*
G37*
G36*
X3812486Y718467D02*
X3795579D01*
X3779958Y711997D01*
X3768003Y700042D01*
X3761532Y684421D01*
Y667514D01*
X3768003Y651894D01*
X3779958Y639938D01*
X3795579Y633468D01*
X3812486D01*
X3828106Y639938D01*
X3840062Y651894D01*
X3846532Y667514D01*
Y684421D01*
X3840062Y700042D01*
X3828106Y711997D01*
X3812486Y718467D01*
D02*
G37*
G36*
X2958454Y682500D02*
X2941546D01*
X2925926Y676030D01*
X2913970Y664074D01*
X2907500Y648454D01*
Y631546D01*
X2913970Y615926D01*
X2925926Y603970D01*
X2941546Y597500D01*
X2958454D01*
X2974074Y603970D01*
X2986030Y615926D01*
X2992500Y631546D01*
Y648454D01*
X2986030Y664074D01*
X2974074Y676030D01*
X2958454Y682500D01*
D02*
G37*
G36*
X3548454Y632500D02*
X3531546D01*
X3515926Y626030D01*
X3503970Y614074D01*
X3497500Y598454D01*
Y581546D01*
X3503970Y565926D01*
X3515926Y553970D01*
X3531546Y547500D01*
X3548454D01*
X3564074Y553970D01*
X3576030Y565926D01*
X3582500Y581546D01*
Y598454D01*
X3576030Y614074D01*
X3564074Y626030D01*
X3548454Y632500D01*
D02*
G37*
G36*
X517285Y655500D02*
X482715D01*
X448809Y648755D01*
X416870Y635526D01*
X388125Y616320D01*
X363681Y591875D01*
X344474Y563130D01*
X331245Y531191D01*
X324500Y497285D01*
Y462715D01*
X331245Y428809D01*
X344474Y396870D01*
X363681Y368126D01*
X388125Y343681D01*
X416870Y324474D01*
X448809Y311245D01*
X482715Y304500D01*
X517285D01*
X551191Y311245D01*
X583130Y324474D01*
X611875Y343681D01*
X636320Y368126D01*
X655526Y396870D01*
X668755Y428809D01*
X675500Y462715D01*
Y497285D01*
X668755Y531191D01*
X655526Y563130D01*
X636320Y591875D01*
X611875Y616320D01*
X583130Y635526D01*
X551191Y648755D01*
X517285Y655500D01*
D02*
G37*
%LPD*%
D42*
X292000Y2671000D02*
D03*
Y1807000D02*
D03*
D43*
X710000Y2671000D02*
D03*
Y1807000D02*
D03*
D44*
X660000Y1950000D02*
D03*
Y2528000D02*
D03*
D45*
X118000Y150000D02*
D03*
X372000D02*
D03*
X626000D02*
D03*
X880000D02*
D03*
X1134000D02*
D03*
X1388000D02*
D03*
X1642000D02*
D03*
X1896000D02*
D03*
X2150000D02*
D03*
X2404000D02*
D03*
X2658000D02*
D03*
X2912000D02*
D03*
X3166000D02*
D03*
X3420000D02*
D03*
X3674000D02*
D03*
X4182000D02*
D03*
X3928000D02*
D03*
D46*
X4182000Y2900000D02*
D03*
X3928000D02*
D03*
X3674000D02*
D03*
X3420000D02*
D03*
X3166000D02*
D03*
X2912000D02*
D03*
X2658000D02*
D03*
X2404000D02*
D03*
X2150000D02*
D03*
X1896000D02*
D03*
X1642000D02*
D03*
X1388000D02*
D03*
X1134000D02*
D03*
X880000D02*
D03*
X626000D02*
D03*
X118000D02*
D03*
X372000D02*
D03*
D47*
X400000Y1570000D02*
D03*
D48*
X146000D02*
D03*
D49*
X500000Y1210000D02*
D03*
Y480000D02*
D03*
D50*
X1067500Y1317500D02*
D03*
X2800000Y2300000D02*
D03*
X1452500Y1912500D02*
D03*
Y1615000D02*
D03*
X3062500Y2360000D02*
D03*
X3380000Y2250000D02*
D03*
X3360000Y1095942D02*
D03*
X3280000Y1120000D02*
D03*
X3540000Y590000D02*
D03*
X3804032Y675968D02*
D03*
X3980000Y1830000D02*
D03*
X4220000Y1750000D02*
D03*
X4150000Y1680000D02*
D03*
X4050000Y1610000D02*
D03*
X3970000Y1530000D02*
D03*
X3890000Y1440000D02*
D03*
X3650000Y1230000D02*
D03*
X3820000Y1130000D02*
D03*
X3570000Y2340000D02*
D03*
X3268800Y2490000D02*
D03*
X3119281Y2455200D02*
D03*
X2670000Y2510400D02*
D03*
X2440000Y2400000D02*
D03*
X2550000Y2320000D02*
D03*
X810000Y750000D02*
D03*
X660000Y2050000D02*
D03*
X1700000Y2630000D02*
D03*
X2130000Y2020000D02*
D03*
X1900000Y2160000D02*
D03*
X2742098Y1855200D02*
D03*
X2510000Y2010000D02*
D03*
X2650000Y1260000D02*
D03*
X3640000Y1390000D02*
D03*
X3030000Y820000D02*
D03*
X3060000Y1130000D02*
D03*
X1250000Y1960000D02*
D03*
X1530000D02*
D03*
X1820000Y2080000D02*
D03*
X959706Y1426393D02*
D03*
X1845000Y1745000D02*
D03*
X1735000D02*
D03*
X1845000Y1855000D02*
D03*
X1735000D02*
D03*
X1070000Y1770000D02*
D03*
X890000Y1780000D02*
D03*
X1425000Y2205000D02*
D03*
Y2105000D02*
D03*
X1325000Y2205000D02*
D03*
Y2105000D02*
D03*
X2530000Y1570000D02*
D03*
X1186334Y2493330D02*
D03*
X2076325Y1746173D02*
D03*
X2120000Y1852500D02*
D03*
X2070197Y1900456D02*
D03*
X632100Y2255000D02*
D03*
X800000Y980000D02*
D03*
X2230000Y1195200D02*
D03*
X1780000Y1390000D02*
D03*
X1430000Y1380000D02*
D03*
X2440000Y1214800D02*
D03*
X2230000Y2210000D02*
D03*
X2750000Y1550000D02*
D03*
X2050000Y1030000D02*
D03*
X2438400Y1102986D02*
D03*
X2311400Y939800D02*
D03*
X2250000Y1270000D02*
D03*
X1060000Y2240000D02*
D03*
X960000Y2100000D02*
D03*
X1180000Y2390000D02*
D03*
X2830000Y720000D02*
D03*
X2630000Y800000D02*
D03*
X3709500Y2069200D02*
D03*
X580000Y2500000D02*
D03*
X3375968Y924032D02*
D03*
X2150000Y737500D02*
D03*
X3550000Y1100000D02*
D03*
X3613030Y1175317D02*
D03*
X2750000Y1475000D02*
D03*
X2950000Y640000D02*
D03*
X2050000Y1140000D02*
D03*
X2820000Y2010000D02*
D03*
X3430759Y1375100D02*
D03*
X3320760Y1375100D02*
D03*
X3210760Y1375101D02*
D03*
X3100760Y1375100D02*
D03*
X2990760Y1375101D02*
D03*
X3430760Y1485100D02*
D03*
X3320759Y1485100D02*
D03*
X3210760Y1485100D02*
D03*
X3100760Y1485101D02*
D03*
X2990760Y1485100D02*
D03*
X3430759Y1595100D02*
D03*
X3320760Y1595100D02*
D03*
X3210760D02*
D03*
X3100760D02*
D03*
X2990760Y1595100D02*
D03*
X3430760Y1705100D02*
D03*
X3320760D02*
D03*
X3210760D02*
D03*
X3100760Y1705100D02*
D03*
X2990760Y1705100D02*
D03*
X3430760Y1815100D02*
D03*
X3320760D02*
D03*
X3210760Y1815100D02*
D03*
X3100760Y1815100D02*
D03*
X2990760D02*
D03*
X1168400Y1905000D02*
D03*
X2600000Y980000D02*
D03*
D51*
X118000Y0D02*
D03*
X372000D02*
D03*
X626000D02*
D03*
X880000D02*
D03*
X1134000D02*
D03*
X1388000D02*
D03*
X1642000D02*
D03*
X1896000D02*
D03*
X2150000D02*
D03*
X2404000D02*
D03*
X2658000D02*
D03*
X2912000D02*
D03*
X3166000D02*
D03*
X3420000D02*
D03*
X3674000D02*
D03*
X4182000D02*
D03*
X3928000D02*
D03*
X4182000Y3050000D02*
D03*
X3928000D02*
D03*
X3674000D02*
D03*
X3420000D02*
D03*
X3166000D02*
D03*
X2912000D02*
D03*
X2658000D02*
D03*
X2404000D02*
D03*
X2150000D02*
D03*
X1896000D02*
D03*
X1642000D02*
D03*
X1388000D02*
D03*
X1134000D02*
D03*
X880000D02*
D03*
X626000D02*
D03*
X118000D02*
D03*
X372000D02*
D03*
%TF.MD5,647b84d76ea7641757fb8933178dfd5e*%
M02*
