%TF.GenerationSoftware,Altium Limited,Altium Designer,24.10.1 (45)*%
G04 Layer_Color=8388736*
%FSLAX45Y45*%
%MOMM*%
%TF.SameCoordinates,D2505BA3-E522-476C-ACF0-F4815D070146*%
%TF.FilePolarity,Negative*%
%TF.FileFunction,Soldermask,Top*%
%TF.Part,Single*%
G01*
G75*
%TA.AperFunction,SMDPad,CuDef*%
%ADD10R,0.96822X1.00650*%
%ADD11R,0.81213X0.85776*%
G04:AMPARAMS|DCode=17|XSize=0.85mm|YSize=0.25mm|CornerRadius=0.125mm|HoleSize=0mm|Usage=FLASHONLY|Rotation=270.000|XOffset=0mm|YOffset=0mm|HoleType=Round|Shape=RoundedRectangle|*
%AMROUNDEDRECTD17*
21,1,0.85000,0.00000,0,0,270.0*
21,1,0.60000,0.25000,0,0,270.0*
1,1,0.25000,0.00000,-0.30000*
1,1,0.25000,0.00000,0.30000*
1,1,0.25000,0.00000,0.30000*
1,1,0.25000,0.00000,-0.30000*
%
%ADD17ROUNDEDRECTD17*%
%ADD18R,1.60000X1.50000*%
%ADD19R,0.65872X0.81213*%
%ADD20R,1.00650X0.96822*%
%ADD21R,0.85776X0.81213*%
%ADD22R,0.90000X0.75000*%
%ADD23R,0.75000X0.90000*%
%ADD24R,0.80000X0.80000*%
%ADD25R,0.91213X0.85872*%
%ADD26R,0.85490X0.90620*%
%ADD28R,0.85000X0.85000*%
%ADD29R,1.40000X1.15000*%
%ADD33R,1.00000X1.00000*%
%ADD35R,1.00000X0.75000*%
%ADD38R,0.86213X0.66370*%
%ADD39R,0.80000X1.70000*%
%ADD40R,0.80000X1.10000*%
%TA.AperFunction,ComponentPad*%
%ADD44C,0.65000*%
%TA.AperFunction,SMDPad,CuDef*%
%ADD59R,1.22600X0.67600*%
%ADD60R,1.22600X0.37600*%
%ADD61R,2.87600X2.87600*%
%ADD62O,0.32600X0.77600*%
%ADD63O,0.77600X0.32600*%
%TA.AperFunction,ConnectorPad*%
%ADD64R,2.99600X1.34600*%
%TA.AperFunction,SMDPad,CuDef*%
%ADD65R,5.37600X5.37600*%
%ADD66O,0.32600X1.12600*%
%ADD67O,1.12600X0.32600*%
%ADD68R,0.90600X0.70600*%
%ADD69R,0.87600X0.97600*%
%ADD70R,0.97600X0.87600*%
%ADD71R,0.87600X0.87600*%
%TA.AperFunction,ComponentPad*%
G04:AMPARAMS|DCode=72|XSize=1.876mm|YSize=1.076mm|CornerRadius=0.288mm|HoleSize=0mm|Usage=FLASHONLY|Rotation=0.000|XOffset=0mm|YOffset=0mm|HoleType=Round|Shape=RoundedRectangle|*
%AMROUNDEDRECTD72*
21,1,1.87600,0.50000,0,0,0.0*
21,1,1.30000,1.07600,0,0,0.0*
1,1,0.57600,0.65000,-0.25000*
1,1,0.57600,-0.65000,-0.25000*
1,1,0.57600,-0.65000,0.25000*
1,1,0.57600,0.65000,0.25000*
%
%ADD72ROUNDEDRECTD72*%
%ADD73O,2.17600X1.07600*%
%ADD74C,1.44600*%
%ADD75R,1.44600X1.44600*%
%ADD76C,2.98600*%
%TA.AperFunction,ViaPad*%
%ADD77C,1.57600*%
G36*
X4257745Y3053745D02*
X4258461Y3053528D01*
X4259122Y3053174D01*
X4259700Y3052700D01*
X4260175Y3052121D01*
X4260528Y3051461D01*
X4260745Y3050745D01*
X4260819Y3050000D01*
Y2825000D01*
X4260745Y2824255D01*
X4260528Y2823538D01*
X4260175Y2822878D01*
X4259700Y2822300D01*
X4259122Y2821825D01*
X4258461Y2821472D01*
X4257745Y2821255D01*
X4257000Y2821181D01*
X4107000D01*
X4106255Y2821255D01*
X4105539Y2821472D01*
X4104879Y2821825D01*
X4104300Y2822300D01*
X4103825Y2822878D01*
X4103472Y2823538D01*
X4103255Y2824255D01*
X4103182Y2825000D01*
Y2900000D01*
X4103182Y3049997D01*
X4103182Y3050000D01*
X4103255Y3050745D01*
X4103472Y3051461D01*
X4103825Y3052121D01*
X4104300Y3052700D01*
X4104879Y3053174D01*
X4105539Y3053528D01*
X4106255Y3053745D01*
X4107000Y3053818D01*
X4257000D01*
X4257745Y3053745D01*
D02*
G37*
G36*
X4003745D02*
X4004461Y3053528D01*
X4005122Y3053174D01*
X4005700Y3052700D01*
X4006175Y3052121D01*
X4006528Y3051461D01*
X4006745Y3050745D01*
X4006819Y3050000D01*
Y2825000D01*
X4006745Y2824255D01*
X4006528Y2823538D01*
X4006175Y2822878D01*
X4005700Y2822300D01*
X4005122Y2821825D01*
X4004461Y2821472D01*
X4003745Y2821255D01*
X4003000Y2821181D01*
X3853000D01*
X3852255Y2821255D01*
X3851539Y2821472D01*
X3850879Y2821825D01*
X3850300Y2822300D01*
X3849825Y2822878D01*
X3849472Y2823538D01*
X3849255Y2824255D01*
X3849182Y2825000D01*
Y2900000D01*
X3849182Y3049997D01*
X3849182Y3050000D01*
X3849255Y3050745D01*
X3849472Y3051461D01*
X3849825Y3052121D01*
X3850300Y3052700D01*
X3850879Y3053174D01*
X3851539Y3053528D01*
X3852255Y3053745D01*
X3853000Y3053818D01*
X4003000D01*
X4003745Y3053745D01*
D02*
G37*
G36*
X3749745D02*
X3750461Y3053528D01*
X3751122Y3053174D01*
X3751700Y3052700D01*
X3752175Y3052121D01*
X3752528Y3051461D01*
X3752745Y3050745D01*
X3752819Y3050000D01*
Y2825000D01*
X3752745Y2824255D01*
X3752528Y2823538D01*
X3752175Y2822878D01*
X3751700Y2822300D01*
X3751122Y2821825D01*
X3750461Y2821472D01*
X3749745Y2821255D01*
X3749000Y2821181D01*
X3599000D01*
X3598255Y2821255D01*
X3597539Y2821472D01*
X3596879Y2821825D01*
X3596300Y2822300D01*
X3595825Y2822878D01*
X3595472Y2823538D01*
X3595255Y2824255D01*
X3595182Y2825000D01*
Y2900000D01*
X3595182Y3049997D01*
X3595182Y3050000D01*
X3595255Y3050745D01*
X3595472Y3051461D01*
X3595825Y3052121D01*
X3596300Y3052700D01*
X3596879Y3053174D01*
X3597539Y3053528D01*
X3598255Y3053745D01*
X3599000Y3053818D01*
X3749000D01*
X3749745Y3053745D01*
D02*
G37*
G36*
X3495745D02*
X3496461Y3053528D01*
X3497122Y3053174D01*
X3497700Y3052700D01*
X3498175Y3052121D01*
X3498528Y3051461D01*
X3498745Y3050745D01*
X3498819Y3050000D01*
Y2825000D01*
X3498745Y2824255D01*
X3498528Y2823538D01*
X3498175Y2822878D01*
X3497700Y2822300D01*
X3497122Y2821825D01*
X3496461Y2821472D01*
X3495745Y2821255D01*
X3495000Y2821181D01*
X3345000D01*
X3344255Y2821255D01*
X3343539Y2821472D01*
X3342879Y2821825D01*
X3342300Y2822300D01*
X3341825Y2822878D01*
X3341472Y2823538D01*
X3341255Y2824255D01*
X3341182Y2825000D01*
Y2900000D01*
X3341182Y3049997D01*
X3341182Y3050000D01*
X3341255Y3050745D01*
X3341472Y3051461D01*
X3341825Y3052121D01*
X3342300Y3052700D01*
X3342879Y3053174D01*
X3343539Y3053528D01*
X3344255Y3053745D01*
X3345000Y3053818D01*
X3495000D01*
X3495745Y3053745D01*
D02*
G37*
G36*
X3241745D02*
X3242461Y3053528D01*
X3243122Y3053174D01*
X3243700Y3052700D01*
X3244175Y3052121D01*
X3244528Y3051461D01*
X3244745Y3050745D01*
X3244819Y3050000D01*
Y2825000D01*
X3244745Y2824255D01*
X3244528Y2823538D01*
X3244175Y2822878D01*
X3243700Y2822300D01*
X3243122Y2821825D01*
X3242461Y2821472D01*
X3241745Y2821255D01*
X3241000Y2821181D01*
X3091000D01*
X3090255Y2821255D01*
X3089539Y2821472D01*
X3088879Y2821825D01*
X3088300Y2822300D01*
X3087825Y2822878D01*
X3087472Y2823538D01*
X3087255Y2824255D01*
X3087182Y2825000D01*
Y2900000D01*
X3087182Y3049997D01*
X3087182Y3050000D01*
X3087255Y3050745D01*
X3087472Y3051461D01*
X3087825Y3052121D01*
X3088300Y3052700D01*
X3088879Y3053174D01*
X3089539Y3053528D01*
X3090255Y3053745D01*
X3091000Y3053818D01*
X3241000D01*
X3241745Y3053745D01*
D02*
G37*
G36*
X2987745D02*
X2988461Y3053528D01*
X2989122Y3053174D01*
X2989700Y3052700D01*
X2990175Y3052121D01*
X2990528Y3051461D01*
X2990745Y3050745D01*
X2990819Y3050000D01*
Y2825000D01*
X2990745Y2824255D01*
X2990528Y2823538D01*
X2990175Y2822878D01*
X2989700Y2822300D01*
X2989122Y2821825D01*
X2988461Y2821472D01*
X2987745Y2821255D01*
X2987000Y2821181D01*
X2837000D01*
X2836255Y2821255D01*
X2835539Y2821472D01*
X2834879Y2821825D01*
X2834300Y2822300D01*
X2833825Y2822878D01*
X2833472Y2823538D01*
X2833255Y2824255D01*
X2833182Y2825000D01*
Y2900000D01*
X2833182Y3049997D01*
X2833182Y3050000D01*
X2833255Y3050745D01*
X2833472Y3051461D01*
X2833825Y3052121D01*
X2834300Y3052700D01*
X2834879Y3053174D01*
X2835539Y3053528D01*
X2836255Y3053745D01*
X2837000Y3053818D01*
X2987000D01*
X2987745Y3053745D01*
D02*
G37*
G36*
X2733745D02*
X2734461Y3053528D01*
X2735122Y3053174D01*
X2735700Y3052700D01*
X2736175Y3052121D01*
X2736528Y3051461D01*
X2736745Y3050745D01*
X2736819Y3050000D01*
Y2825000D01*
X2736745Y2824255D01*
X2736528Y2823538D01*
X2736175Y2822878D01*
X2735700Y2822300D01*
X2735122Y2821825D01*
X2734461Y2821472D01*
X2733745Y2821255D01*
X2733000Y2821181D01*
X2583000D01*
X2582255Y2821255D01*
X2581539Y2821472D01*
X2580879Y2821825D01*
X2580300Y2822300D01*
X2579825Y2822878D01*
X2579472Y2823538D01*
X2579255Y2824255D01*
X2579182Y2825000D01*
Y2900000D01*
X2579182Y3049997D01*
X2579182Y3050000D01*
X2579255Y3050745D01*
X2579472Y3051461D01*
X2579825Y3052121D01*
X2580300Y3052700D01*
X2580879Y3053174D01*
X2581539Y3053528D01*
X2582255Y3053745D01*
X2583000Y3053818D01*
X2733000D01*
X2733745Y3053745D01*
D02*
G37*
G36*
X2479745D02*
X2480461Y3053528D01*
X2481122Y3053174D01*
X2481700Y3052700D01*
X2482175Y3052121D01*
X2482528Y3051461D01*
X2482745Y3050745D01*
X2482819Y3050000D01*
Y2825000D01*
X2482745Y2824255D01*
X2482528Y2823538D01*
X2482175Y2822878D01*
X2481700Y2822300D01*
X2481122Y2821825D01*
X2480461Y2821472D01*
X2479745Y2821255D01*
X2479000Y2821181D01*
X2329000D01*
X2328255Y2821255D01*
X2327539Y2821472D01*
X2326879Y2821825D01*
X2326300Y2822300D01*
X2325825Y2822878D01*
X2325472Y2823538D01*
X2325255Y2824255D01*
X2325182Y2825000D01*
Y2900000D01*
X2325182Y3049997D01*
X2325182Y3050000D01*
X2325255Y3050745D01*
X2325472Y3051461D01*
X2325825Y3052121D01*
X2326300Y3052700D01*
X2326879Y3053174D01*
X2327539Y3053528D01*
X2328255Y3053745D01*
X2329000Y3053818D01*
X2479000D01*
X2479745Y3053745D01*
D02*
G37*
G36*
X2225745D02*
X2226461Y3053528D01*
X2227122Y3053174D01*
X2227700Y3052700D01*
X2228175Y3052121D01*
X2228528Y3051461D01*
X2228745Y3050745D01*
X2228819Y3050000D01*
Y2825000D01*
X2228745Y2824255D01*
X2228528Y2823538D01*
X2228175Y2822878D01*
X2227700Y2822300D01*
X2227122Y2821825D01*
X2226461Y2821472D01*
X2225745Y2821255D01*
X2225000Y2821181D01*
X2075000D01*
X2074255Y2821255D01*
X2073539Y2821472D01*
X2072879Y2821825D01*
X2072300Y2822300D01*
X2071825Y2822878D01*
X2071472Y2823538D01*
X2071255Y2824255D01*
X2071182Y2825000D01*
Y2900000D01*
X2071182Y3049997D01*
X2071182Y3050000D01*
X2071255Y3050745D01*
X2071472Y3051461D01*
X2071825Y3052121D01*
X2072300Y3052700D01*
X2072879Y3053174D01*
X2073539Y3053528D01*
X2074255Y3053745D01*
X2075000Y3053818D01*
X2225000D01*
X2225745Y3053745D01*
D02*
G37*
G36*
X1971745D02*
X1972461Y3053528D01*
X1973122Y3053174D01*
X1973700Y3052700D01*
X1974175Y3052121D01*
X1974528Y3051461D01*
X1974745Y3050745D01*
X1974819Y3050000D01*
Y2825000D01*
X1974745Y2824255D01*
X1974528Y2823538D01*
X1974175Y2822878D01*
X1973700Y2822300D01*
X1973122Y2821825D01*
X1972461Y2821472D01*
X1971745Y2821255D01*
X1971000Y2821181D01*
X1821000D01*
X1820255Y2821255D01*
X1819539Y2821472D01*
X1818879Y2821825D01*
X1818300Y2822300D01*
X1817825Y2822878D01*
X1817472Y2823538D01*
X1817255Y2824255D01*
X1817182Y2825000D01*
Y2900000D01*
X1817182Y3049997D01*
X1817182Y3050000D01*
X1817255Y3050745D01*
X1817472Y3051461D01*
X1817825Y3052121D01*
X1818300Y3052700D01*
X1818879Y3053174D01*
X1819539Y3053528D01*
X1820255Y3053745D01*
X1821000Y3053818D01*
X1971000D01*
X1971745Y3053745D01*
D02*
G37*
G36*
X1717745D02*
X1718461Y3053528D01*
X1719122Y3053174D01*
X1719700Y3052700D01*
X1720175Y3052121D01*
X1720528Y3051461D01*
X1720745Y3050745D01*
X1720819Y3050000D01*
Y2825000D01*
X1720745Y2824255D01*
X1720528Y2823538D01*
X1720175Y2822878D01*
X1719700Y2822300D01*
X1719122Y2821825D01*
X1718461Y2821472D01*
X1717745Y2821255D01*
X1717000Y2821181D01*
X1567000D01*
X1566255Y2821255D01*
X1565539Y2821472D01*
X1564879Y2821825D01*
X1564300Y2822300D01*
X1563825Y2822878D01*
X1563472Y2823538D01*
X1563255Y2824255D01*
X1563182Y2825000D01*
Y2900000D01*
X1563182Y3049997D01*
X1563182Y3050000D01*
X1563255Y3050745D01*
X1563472Y3051461D01*
X1563825Y3052121D01*
X1564300Y3052700D01*
X1564879Y3053174D01*
X1565539Y3053528D01*
X1566255Y3053745D01*
X1567000Y3053818D01*
X1717000D01*
X1717745Y3053745D01*
D02*
G37*
G36*
X1463745D02*
X1464461Y3053528D01*
X1465122Y3053174D01*
X1465700Y3052700D01*
X1466175Y3052121D01*
X1466528Y3051461D01*
X1466745Y3050745D01*
X1466819Y3050000D01*
Y2825000D01*
X1466745Y2824255D01*
X1466528Y2823538D01*
X1466175Y2822878D01*
X1465700Y2822300D01*
X1465122Y2821825D01*
X1464461Y2821472D01*
X1463745Y2821255D01*
X1463000Y2821181D01*
X1313000D01*
X1312255Y2821255D01*
X1311539Y2821472D01*
X1310879Y2821825D01*
X1310300Y2822300D01*
X1309825Y2822878D01*
X1309472Y2823538D01*
X1309255Y2824255D01*
X1309182Y2825000D01*
Y2900000D01*
X1309182Y3049997D01*
X1309182Y3050000D01*
X1309255Y3050745D01*
X1309472Y3051461D01*
X1309825Y3052121D01*
X1310300Y3052700D01*
X1310879Y3053174D01*
X1311539Y3053528D01*
X1312255Y3053745D01*
X1313000Y3053818D01*
X1463000D01*
X1463745Y3053745D01*
D02*
G37*
G36*
X1209745D02*
X1210461Y3053528D01*
X1211122Y3053174D01*
X1211700Y3052700D01*
X1212175Y3052121D01*
X1212528Y3051461D01*
X1212745Y3050745D01*
X1212819Y3050000D01*
Y2825000D01*
X1212745Y2824255D01*
X1212528Y2823538D01*
X1212175Y2822878D01*
X1211700Y2822300D01*
X1211122Y2821825D01*
X1210461Y2821472D01*
X1209745Y2821255D01*
X1209000Y2821181D01*
X1059000D01*
X1058255Y2821255D01*
X1057539Y2821472D01*
X1056879Y2821825D01*
X1056300Y2822300D01*
X1055825Y2822878D01*
X1055472Y2823538D01*
X1055255Y2824255D01*
X1055182Y2825000D01*
Y2900000D01*
X1055182Y3049997D01*
X1055182Y3050000D01*
X1055255Y3050745D01*
X1055472Y3051461D01*
X1055825Y3052121D01*
X1056300Y3052700D01*
X1056879Y3053174D01*
X1057539Y3053528D01*
X1058255Y3053745D01*
X1059000Y3053818D01*
X1209000D01*
X1209745Y3053745D01*
D02*
G37*
G36*
X955745D02*
X956461Y3053528D01*
X957122Y3053174D01*
X957700Y3052700D01*
X958175Y3052121D01*
X958528Y3051461D01*
X958745Y3050745D01*
X958819Y3050000D01*
Y2825000D01*
X958745Y2824255D01*
X958528Y2823538D01*
X958175Y2822878D01*
X957700Y2822300D01*
X957122Y2821825D01*
X956461Y2821472D01*
X955745Y2821255D01*
X955000Y2821181D01*
X805000D01*
X804255Y2821255D01*
X803539Y2821472D01*
X802879Y2821825D01*
X802300Y2822300D01*
X801825Y2822878D01*
X801472Y2823538D01*
X801255Y2824255D01*
X801182Y2825000D01*
Y2900000D01*
X801182Y3049997D01*
X801182Y3050000D01*
X801255Y3050745D01*
X801472Y3051461D01*
X801825Y3052121D01*
X802300Y3052700D01*
X802879Y3053174D01*
X803539Y3053528D01*
X804255Y3053745D01*
X805000Y3053818D01*
X955000D01*
X955745Y3053745D01*
D02*
G37*
G36*
X701745D02*
X702461Y3053528D01*
X703122Y3053174D01*
X703700Y3052700D01*
X704175Y3052121D01*
X704528Y3051461D01*
X704745Y3050745D01*
X704819Y3050000D01*
Y2825000D01*
X704745Y2824255D01*
X704528Y2823538D01*
X704175Y2822878D01*
X703700Y2822300D01*
X703122Y2821825D01*
X702461Y2821472D01*
X701745Y2821255D01*
X701000Y2821181D01*
X551000D01*
X550255Y2821255D01*
X549539Y2821472D01*
X548879Y2821825D01*
X548300Y2822300D01*
X547825Y2822878D01*
X547472Y2823538D01*
X547255Y2824255D01*
X547182Y2825000D01*
Y2900000D01*
X547182Y3049997D01*
X547182Y3050000D01*
X547255Y3050745D01*
X547472Y3051461D01*
X547825Y3052121D01*
X548300Y3052700D01*
X548879Y3053174D01*
X549539Y3053528D01*
X550255Y3053745D01*
X551000Y3053818D01*
X701000D01*
X701745Y3053745D01*
D02*
G37*
G36*
X447745D02*
X448461Y3053528D01*
X449122Y3053174D01*
X449700Y3052700D01*
X450175Y3052121D01*
X450528Y3051461D01*
X450745Y3050745D01*
X450819Y3050000D01*
Y2825000D01*
X450745Y2824255D01*
X450528Y2823538D01*
X450175Y2822878D01*
X449700Y2822300D01*
X449122Y2821825D01*
X448461Y2821472D01*
X447745Y2821255D01*
X447000Y2821181D01*
X297000D01*
X296255Y2821255D01*
X295539Y2821472D01*
X294879Y2821825D01*
X294300Y2822300D01*
X293825Y2822878D01*
X293472Y2823538D01*
X293255Y2824255D01*
X293182Y2825000D01*
Y2900000D01*
X293182Y3049997D01*
X293182Y3050000D01*
X293255Y3050745D01*
X293472Y3051461D01*
X293825Y3052121D01*
X294300Y3052700D01*
X294879Y3053174D01*
X295539Y3053528D01*
X296255Y3053745D01*
X297000Y3053818D01*
X447000D01*
X447745Y3053745D01*
D02*
G37*
G36*
X193745D02*
X194461Y3053528D01*
X195122Y3053174D01*
X195700Y3052700D01*
X196175Y3052121D01*
X196528Y3051461D01*
X196745Y3050745D01*
X196819Y3050000D01*
Y2825000D01*
X196745Y2824255D01*
X196528Y2823538D01*
X196175Y2822878D01*
X195700Y2822300D01*
X195122Y2821825D01*
X194461Y2821472D01*
X193745Y2821255D01*
X193000Y2821181D01*
X43000D01*
X42255Y2821255D01*
X41539Y2821472D01*
X40879Y2821825D01*
X40300Y2822300D01*
X39825Y2822878D01*
X39472Y2823538D01*
X39255Y2824255D01*
X39182Y2825000D01*
Y2900000D01*
X39182Y3049997D01*
X39182Y3050000D01*
X39255Y3050745D01*
X39472Y3051461D01*
X39825Y3052121D01*
X40300Y3052700D01*
X40879Y3053174D01*
X41539Y3053528D01*
X42255Y3053745D01*
X43000Y3053818D01*
X193000D01*
X193745Y3053745D01*
D02*
G37*
G36*
X4257745Y228745D02*
X4258461Y228528D01*
X4259122Y228175D01*
X4259700Y227700D01*
X4260175Y227121D01*
X4260528Y226461D01*
X4260745Y225745D01*
X4260819Y225000D01*
Y150000D01*
X4260818Y3D01*
X4260819Y0D01*
X4260745Y-745D01*
X4260528Y-1461D01*
X4260175Y-2121D01*
X4259700Y-2700D01*
X4259122Y-3175D01*
X4258461Y-3528D01*
X4257745Y-3745D01*
X4257000Y-3818D01*
X4107000D01*
X4106255Y-3745D01*
X4105539Y-3528D01*
X4104879Y-3175D01*
X4104300Y-2700D01*
X4103825Y-2121D01*
X4103472Y-1461D01*
X4103255Y-745D01*
X4103182Y0D01*
Y225000D01*
X4103255Y225745D01*
X4103472Y226461D01*
X4103825Y227121D01*
X4104300Y227700D01*
X4104879Y228175D01*
X4105539Y228528D01*
X4106255Y228745D01*
X4107000Y228818D01*
X4257000D01*
X4257745Y228745D01*
D02*
G37*
G36*
X4003745D02*
X4004461Y228528D01*
X4005122Y228175D01*
X4005700Y227700D01*
X4006175Y227121D01*
X4006528Y226461D01*
X4006745Y225745D01*
X4006819Y225000D01*
Y150000D01*
X4006818Y3D01*
X4006819Y0D01*
X4006745Y-745D01*
X4006528Y-1461D01*
X4006175Y-2121D01*
X4005700Y-2700D01*
X4005122Y-3175D01*
X4004461Y-3528D01*
X4003745Y-3745D01*
X4003000Y-3818D01*
X3853000D01*
X3852255Y-3745D01*
X3851539Y-3528D01*
X3850879Y-3175D01*
X3850300Y-2700D01*
X3849825Y-2121D01*
X3849472Y-1461D01*
X3849255Y-745D01*
X3849182Y0D01*
Y225000D01*
X3849255Y225745D01*
X3849472Y226461D01*
X3849825Y227121D01*
X3850300Y227700D01*
X3850879Y228175D01*
X3851539Y228528D01*
X3852255Y228745D01*
X3853000Y228818D01*
X4003000D01*
X4003745Y228745D01*
D02*
G37*
G36*
X3749745D02*
X3750461Y228528D01*
X3751122Y228175D01*
X3751700Y227700D01*
X3752175Y227121D01*
X3752528Y226461D01*
X3752745Y225745D01*
X3752819Y225000D01*
Y150000D01*
X3752818Y3D01*
X3752819Y0D01*
X3752745Y-745D01*
X3752528Y-1461D01*
X3752175Y-2121D01*
X3751700Y-2700D01*
X3751122Y-3175D01*
X3750461Y-3528D01*
X3749745Y-3745D01*
X3749000Y-3818D01*
X3599000D01*
X3598255Y-3745D01*
X3597539Y-3528D01*
X3596879Y-3175D01*
X3596300Y-2700D01*
X3595825Y-2121D01*
X3595472Y-1461D01*
X3595255Y-745D01*
X3595182Y0D01*
Y225000D01*
X3595255Y225745D01*
X3595472Y226461D01*
X3595825Y227121D01*
X3596300Y227700D01*
X3596879Y228175D01*
X3597539Y228528D01*
X3598255Y228745D01*
X3599000Y228818D01*
X3749000D01*
X3749745Y228745D01*
D02*
G37*
G36*
X3495745D02*
X3496461Y228528D01*
X3497122Y228175D01*
X3497700Y227700D01*
X3498175Y227121D01*
X3498528Y226461D01*
X3498745Y225745D01*
X3498819Y225000D01*
Y150000D01*
X3498818Y3D01*
X3498819Y0D01*
X3498745Y-745D01*
X3498528Y-1461D01*
X3498175Y-2121D01*
X3497700Y-2700D01*
X3497122Y-3175D01*
X3496461Y-3528D01*
X3495745Y-3745D01*
X3495000Y-3818D01*
X3345000D01*
X3344255Y-3745D01*
X3343539Y-3528D01*
X3342879Y-3175D01*
X3342300Y-2700D01*
X3341825Y-2121D01*
X3341472Y-1461D01*
X3341255Y-745D01*
X3341182Y0D01*
Y225000D01*
X3341255Y225745D01*
X3341472Y226461D01*
X3341825Y227121D01*
X3342300Y227700D01*
X3342879Y228175D01*
X3343539Y228528D01*
X3344255Y228745D01*
X3345000Y228818D01*
X3495000D01*
X3495745Y228745D01*
D02*
G37*
G36*
X3241745D02*
X3242461Y228528D01*
X3243122Y228175D01*
X3243700Y227700D01*
X3244175Y227121D01*
X3244528Y226461D01*
X3244745Y225745D01*
X3244819Y225000D01*
Y150000D01*
X3244818Y3D01*
X3244819Y0D01*
X3244745Y-745D01*
X3244528Y-1461D01*
X3244175Y-2121D01*
X3243700Y-2700D01*
X3243122Y-3175D01*
X3242461Y-3528D01*
X3241745Y-3745D01*
X3241000Y-3818D01*
X3091000D01*
X3090255Y-3745D01*
X3089539Y-3528D01*
X3088879Y-3175D01*
X3088300Y-2700D01*
X3087825Y-2121D01*
X3087472Y-1461D01*
X3087255Y-745D01*
X3087182Y0D01*
Y225000D01*
X3087255Y225745D01*
X3087472Y226461D01*
X3087825Y227121D01*
X3088300Y227700D01*
X3088879Y228175D01*
X3089539Y228528D01*
X3090255Y228745D01*
X3091000Y228818D01*
X3241000D01*
X3241745Y228745D01*
D02*
G37*
G36*
X2987745D02*
X2988461Y228528D01*
X2989122Y228175D01*
X2989700Y227700D01*
X2990175Y227121D01*
X2990528Y226461D01*
X2990745Y225745D01*
X2990819Y225000D01*
Y150000D01*
X2990818Y3D01*
X2990819Y0D01*
X2990745Y-745D01*
X2990528Y-1461D01*
X2990175Y-2121D01*
X2989700Y-2700D01*
X2989122Y-3175D01*
X2988461Y-3528D01*
X2987745Y-3745D01*
X2987000Y-3818D01*
X2837000D01*
X2836255Y-3745D01*
X2835539Y-3528D01*
X2834879Y-3175D01*
X2834300Y-2700D01*
X2833825Y-2121D01*
X2833472Y-1461D01*
X2833255Y-745D01*
X2833182Y0D01*
Y225000D01*
X2833255Y225745D01*
X2833472Y226461D01*
X2833825Y227121D01*
X2834300Y227700D01*
X2834879Y228175D01*
X2835539Y228528D01*
X2836255Y228745D01*
X2837000Y228818D01*
X2987000D01*
X2987745Y228745D01*
D02*
G37*
G36*
X2733745D02*
X2734461Y228528D01*
X2735122Y228175D01*
X2735700Y227700D01*
X2736175Y227121D01*
X2736528Y226461D01*
X2736745Y225745D01*
X2736819Y225000D01*
Y150000D01*
X2736818Y3D01*
X2736819Y0D01*
X2736745Y-745D01*
X2736528Y-1461D01*
X2736175Y-2121D01*
X2735700Y-2700D01*
X2735122Y-3175D01*
X2734461Y-3528D01*
X2733745Y-3745D01*
X2733000Y-3818D01*
X2583000D01*
X2582255Y-3745D01*
X2581539Y-3528D01*
X2580879Y-3175D01*
X2580300Y-2700D01*
X2579825Y-2121D01*
X2579472Y-1461D01*
X2579255Y-745D01*
X2579182Y0D01*
Y225000D01*
X2579255Y225745D01*
X2579472Y226461D01*
X2579825Y227121D01*
X2580300Y227700D01*
X2580879Y228175D01*
X2581539Y228528D01*
X2582255Y228745D01*
X2583000Y228818D01*
X2733000D01*
X2733745Y228745D01*
D02*
G37*
G36*
X2479745D02*
X2480461Y228528D01*
X2481122Y228175D01*
X2481700Y227700D01*
X2482175Y227121D01*
X2482528Y226461D01*
X2482745Y225745D01*
X2482819Y225000D01*
Y150000D01*
X2482818Y3D01*
X2482819Y0D01*
X2482745Y-745D01*
X2482528Y-1461D01*
X2482175Y-2121D01*
X2481700Y-2700D01*
X2481122Y-3175D01*
X2480461Y-3528D01*
X2479745Y-3745D01*
X2479000Y-3818D01*
X2329000D01*
X2328255Y-3745D01*
X2327539Y-3528D01*
X2326879Y-3175D01*
X2326300Y-2700D01*
X2325825Y-2121D01*
X2325472Y-1461D01*
X2325255Y-745D01*
X2325182Y0D01*
Y225000D01*
X2325255Y225745D01*
X2325472Y226461D01*
X2325825Y227121D01*
X2326300Y227700D01*
X2326879Y228175D01*
X2327539Y228528D01*
X2328255Y228745D01*
X2329000Y228818D01*
X2479000D01*
X2479745Y228745D01*
D02*
G37*
G36*
X2225745D02*
X2226461Y228528D01*
X2227122Y228175D01*
X2227700Y227700D01*
X2228175Y227121D01*
X2228528Y226461D01*
X2228745Y225745D01*
X2228819Y225000D01*
Y150000D01*
X2228818Y3D01*
X2228819Y0D01*
X2228745Y-745D01*
X2228528Y-1461D01*
X2228175Y-2121D01*
X2227700Y-2700D01*
X2227122Y-3175D01*
X2226461Y-3528D01*
X2225745Y-3745D01*
X2225000Y-3818D01*
X2075000D01*
X2074255Y-3745D01*
X2073539Y-3528D01*
X2072879Y-3175D01*
X2072300Y-2700D01*
X2071825Y-2121D01*
X2071472Y-1461D01*
X2071255Y-745D01*
X2071182Y0D01*
Y225000D01*
X2071255Y225745D01*
X2071472Y226461D01*
X2071825Y227121D01*
X2072300Y227700D01*
X2072879Y228175D01*
X2073539Y228528D01*
X2074255Y228745D01*
X2075000Y228818D01*
X2225000D01*
X2225745Y228745D01*
D02*
G37*
G36*
X1971745D02*
X1972461Y228528D01*
X1973122Y228175D01*
X1973700Y227700D01*
X1974175Y227121D01*
X1974528Y226461D01*
X1974745Y225745D01*
X1974819Y225000D01*
Y150000D01*
X1974818Y3D01*
X1974819Y0D01*
X1974745Y-745D01*
X1974528Y-1461D01*
X1974175Y-2121D01*
X1973700Y-2700D01*
X1973122Y-3175D01*
X1972461Y-3528D01*
X1971745Y-3745D01*
X1971000Y-3818D01*
X1821000D01*
X1820255Y-3745D01*
X1819539Y-3528D01*
X1818879Y-3175D01*
X1818300Y-2700D01*
X1817825Y-2121D01*
X1817472Y-1461D01*
X1817255Y-745D01*
X1817182Y0D01*
Y225000D01*
X1817255Y225745D01*
X1817472Y226461D01*
X1817825Y227121D01*
X1818300Y227700D01*
X1818879Y228175D01*
X1819539Y228528D01*
X1820255Y228745D01*
X1821000Y228818D01*
X1971000D01*
X1971745Y228745D01*
D02*
G37*
G36*
X1717745D02*
X1718461Y228528D01*
X1719122Y228175D01*
X1719700Y227700D01*
X1720175Y227121D01*
X1720528Y226461D01*
X1720745Y225745D01*
X1720819Y225000D01*
Y150000D01*
X1720818Y3D01*
X1720819Y0D01*
X1720745Y-745D01*
X1720528Y-1461D01*
X1720175Y-2121D01*
X1719700Y-2700D01*
X1719122Y-3175D01*
X1718461Y-3528D01*
X1717745Y-3745D01*
X1717000Y-3818D01*
X1567000D01*
X1566255Y-3745D01*
X1565539Y-3528D01*
X1564879Y-3175D01*
X1564300Y-2700D01*
X1563825Y-2121D01*
X1563472Y-1461D01*
X1563255Y-745D01*
X1563182Y0D01*
Y225000D01*
X1563255Y225745D01*
X1563472Y226461D01*
X1563825Y227121D01*
X1564300Y227700D01*
X1564879Y228175D01*
X1565539Y228528D01*
X1566255Y228745D01*
X1567000Y228818D01*
X1717000D01*
X1717745Y228745D01*
D02*
G37*
G36*
X1463745D02*
X1464461Y228528D01*
X1465122Y228175D01*
X1465700Y227700D01*
X1466175Y227121D01*
X1466528Y226461D01*
X1466745Y225745D01*
X1466819Y225000D01*
Y150000D01*
X1466818Y3D01*
X1466819Y0D01*
X1466745Y-745D01*
X1466528Y-1461D01*
X1466175Y-2121D01*
X1465700Y-2700D01*
X1465122Y-3175D01*
X1464461Y-3528D01*
X1463745Y-3745D01*
X1463000Y-3818D01*
X1313000D01*
X1312255Y-3745D01*
X1311539Y-3528D01*
X1310879Y-3175D01*
X1310300Y-2700D01*
X1309825Y-2121D01*
X1309472Y-1461D01*
X1309255Y-745D01*
X1309182Y0D01*
Y225000D01*
X1309255Y225745D01*
X1309472Y226461D01*
X1309825Y227121D01*
X1310300Y227700D01*
X1310879Y228175D01*
X1311539Y228528D01*
X1312255Y228745D01*
X1313000Y228818D01*
X1463000D01*
X1463745Y228745D01*
D02*
G37*
G36*
X1209745D02*
X1210461Y228528D01*
X1211122Y228175D01*
X1211700Y227700D01*
X1212175Y227121D01*
X1212528Y226461D01*
X1212745Y225745D01*
X1212819Y225000D01*
Y150000D01*
X1212818Y3D01*
X1212819Y0D01*
X1212745Y-745D01*
X1212528Y-1461D01*
X1212175Y-2121D01*
X1211700Y-2700D01*
X1211122Y-3175D01*
X1210461Y-3528D01*
X1209745Y-3745D01*
X1209000Y-3818D01*
X1059000D01*
X1058255Y-3745D01*
X1057539Y-3528D01*
X1056879Y-3175D01*
X1056300Y-2700D01*
X1055825Y-2121D01*
X1055472Y-1461D01*
X1055255Y-745D01*
X1055182Y0D01*
Y225000D01*
X1055255Y225745D01*
X1055472Y226461D01*
X1055825Y227121D01*
X1056300Y227700D01*
X1056879Y228175D01*
X1057539Y228528D01*
X1058255Y228745D01*
X1059000Y228818D01*
X1209000D01*
X1209745Y228745D01*
D02*
G37*
G36*
X955745D02*
X956461Y228528D01*
X957122Y228175D01*
X957700Y227700D01*
X958175Y227121D01*
X958528Y226461D01*
X958745Y225745D01*
X958819Y225000D01*
Y150000D01*
X958818Y3D01*
X958819Y0D01*
X958745Y-745D01*
X958528Y-1461D01*
X958175Y-2121D01*
X957700Y-2700D01*
X957122Y-3175D01*
X956461Y-3528D01*
X955745Y-3745D01*
X955000Y-3818D01*
X805000D01*
X804255Y-3745D01*
X803539Y-3528D01*
X802879Y-3175D01*
X802300Y-2700D01*
X801825Y-2121D01*
X801472Y-1461D01*
X801255Y-745D01*
X801182Y0D01*
Y225000D01*
X801255Y225745D01*
X801472Y226461D01*
X801825Y227121D01*
X802300Y227700D01*
X802879Y228175D01*
X803539Y228528D01*
X804255Y228745D01*
X805000Y228818D01*
X955000D01*
X955745Y228745D01*
D02*
G37*
G36*
X701745D02*
X702461Y228528D01*
X703122Y228175D01*
X703700Y227700D01*
X704175Y227121D01*
X704528Y226461D01*
X704745Y225745D01*
X704819Y225000D01*
Y150000D01*
X704818Y3D01*
X704819Y0D01*
X704745Y-745D01*
X704528Y-1461D01*
X704175Y-2121D01*
X703700Y-2700D01*
X703122Y-3175D01*
X702461Y-3528D01*
X701745Y-3745D01*
X701000Y-3818D01*
X551000D01*
X550255Y-3745D01*
X549539Y-3528D01*
X548879Y-3175D01*
X548300Y-2700D01*
X547825Y-2121D01*
X547472Y-1461D01*
X547255Y-745D01*
X547182Y0D01*
Y225000D01*
X547255Y225745D01*
X547472Y226461D01*
X547825Y227121D01*
X548300Y227700D01*
X548879Y228175D01*
X549539Y228528D01*
X550255Y228745D01*
X551000Y228818D01*
X701000D01*
X701745Y228745D01*
D02*
G37*
G36*
X447745D02*
X448461Y228528D01*
X449122Y228175D01*
X449700Y227700D01*
X450175Y227121D01*
X450528Y226461D01*
X450745Y225745D01*
X450819Y225000D01*
Y150000D01*
X450818Y3D01*
X450819Y0D01*
X450745Y-745D01*
X450528Y-1461D01*
X450175Y-2121D01*
X449700Y-2700D01*
X449122Y-3175D01*
X448461Y-3528D01*
X447745Y-3745D01*
X447000Y-3818D01*
X297000D01*
X296255Y-3745D01*
X295539Y-3528D01*
X294879Y-3175D01*
X294300Y-2700D01*
X293825Y-2121D01*
X293472Y-1461D01*
X293255Y-745D01*
X293182Y0D01*
Y225000D01*
X293255Y225745D01*
X293472Y226461D01*
X293825Y227121D01*
X294300Y227700D01*
X294879Y228175D01*
X295539Y228528D01*
X296255Y228745D01*
X297000Y228818D01*
X447000D01*
X447745Y228745D01*
D02*
G37*
G36*
X193745D02*
X194461Y228528D01*
X195122Y228175D01*
X195700Y227700D01*
X196175Y227121D01*
X196528Y226461D01*
X196745Y225745D01*
X196819Y225000D01*
Y150000D01*
X196818Y3D01*
X196819Y0D01*
X196745Y-745D01*
X196528Y-1461D01*
X196175Y-2121D01*
X195700Y-2700D01*
X195122Y-3175D01*
X194461Y-3528D01*
X193745Y-3745D01*
X193000Y-3818D01*
X43000D01*
X42255Y-3745D01*
X41539Y-3528D01*
X40879Y-3175D01*
X40300Y-2700D01*
X39825Y-2121D01*
X39472Y-1461D01*
X39255Y-745D01*
X39182Y0D01*
Y225000D01*
X39255Y225745D01*
X39472Y226461D01*
X39825Y227121D01*
X40300Y227700D01*
X40879Y228175D01*
X41539Y228528D01*
X42255Y228745D01*
X43000Y228818D01*
X193000D01*
X193745Y228745D01*
D02*
G37*
D10*
X2883100Y2291587D02*
D03*
Y2146416D02*
D03*
D11*
X1447499Y1827718D02*
D03*
Y1712282D02*
D03*
X1330000Y2567719D02*
D03*
Y2452282D02*
D03*
X2610000Y1352282D02*
D03*
Y1467718D02*
D03*
X3040000Y914563D02*
D03*
Y1030000D02*
D03*
X3580000Y2227718D02*
D03*
Y2112282D02*
D03*
X3770000Y1242281D02*
D03*
Y1357718D02*
D03*
X3067500Y2265218D02*
D03*
Y2149782D02*
D03*
D17*
X1450000Y2300000D02*
D03*
X1400000D02*
D03*
X1350000D02*
D03*
X1300000D02*
D03*
Y2010000D02*
D03*
X1350000D02*
D03*
X1400000D02*
D03*
X1450000D02*
D03*
D18*
X1375000Y2155000D02*
D03*
D19*
X2198830Y2021493D02*
D03*
X2334171D02*
D03*
X2197528Y1851762D02*
D03*
X2332870D02*
D03*
D20*
X2464829Y1650000D02*
D03*
X2610000D02*
D03*
D21*
X2512281Y1930000D02*
D03*
X2627718D02*
D03*
D22*
X1910000Y1060000D02*
D03*
Y940000D02*
D03*
X2090000Y1440000D02*
D03*
Y1320000D02*
D03*
X3733200Y881200D02*
D03*
Y761200D02*
D03*
D23*
X3340000Y575000D02*
D03*
X3460000D02*
D03*
D24*
X2000000Y2157500D02*
D03*
Y2322500D02*
D03*
D25*
X2200000Y2472329D02*
D03*
Y2627671D02*
D03*
X1800000Y2472329D02*
D03*
Y2627671D02*
D03*
X1600000Y2474659D02*
D03*
Y2630000D02*
D03*
X2000000Y2627671D02*
D03*
Y2472329D02*
D03*
D26*
X953435Y2489200D02*
D03*
X1078565D02*
D03*
Y1905000D02*
D03*
X953435D02*
D03*
D28*
X2150000Y520000D02*
D03*
Y855000D02*
D03*
D29*
X3290000Y790000D02*
D03*
X3510000D02*
D03*
Y950000D02*
D03*
X3290000D02*
D03*
X1680000Y1310000D02*
D03*
X1900000D02*
D03*
Y1470000D02*
D03*
X1680000D02*
D03*
D33*
X2670000Y2320000D02*
D03*
Y2120000D02*
D03*
D35*
X750000Y1685000D02*
D03*
Y1535000D02*
D03*
D38*
X2820000Y817061D02*
D03*
Y942939D02*
D03*
D39*
X2680000Y630000D02*
D03*
X2340000D02*
D03*
D40*
X2510000Y795000D02*
D03*
D44*
X660000Y1950000D02*
D03*
Y2528000D02*
D03*
D59*
X767500Y2559000D02*
D03*
Y1919000D02*
D03*
Y2479000D02*
D03*
Y1999000D02*
D03*
D60*
Y2214000D02*
D03*
Y2264000D02*
D03*
Y2164000D02*
D03*
Y2114000D02*
D03*
Y2064000D02*
D03*
Y2314000D02*
D03*
Y2364000D02*
D03*
Y2414000D02*
D03*
D61*
X1790000Y1800000D02*
D03*
D62*
X1690000Y1995000D02*
D03*
X1740000D02*
D03*
X1790000D02*
D03*
X1840000D02*
D03*
X1890000D02*
D03*
Y1605000D02*
D03*
X1840000D02*
D03*
X1790000D02*
D03*
X1740000D02*
D03*
X1690000D02*
D03*
D63*
X1985000Y1900000D02*
D03*
Y1850000D02*
D03*
Y1800000D02*
D03*
Y1750000D02*
D03*
Y1700000D02*
D03*
X1595000D02*
D03*
Y1750000D02*
D03*
Y1800000D02*
D03*
Y1850000D02*
D03*
Y1900000D02*
D03*
D64*
X1510000Y995000D02*
D03*
Y695000D02*
D03*
X1047000Y995000D02*
D03*
Y695000D02*
D03*
D65*
X3210760Y1595100D02*
D03*
D66*
X2960760Y1942600D02*
D03*
X3010760Y1942600D02*
D03*
X3060760D02*
D03*
X3110760D02*
D03*
X3160760Y1942600D02*
D03*
X3210760D02*
D03*
X3260760D02*
D03*
X3310760Y1942600D02*
D03*
X3360760D02*
D03*
X3410760Y1942600D02*
D03*
X3460760D02*
D03*
X3460760Y1247601D02*
D03*
X3410760D02*
D03*
X3360760Y1247600D02*
D03*
X3310760D02*
D03*
X3260760Y1247601D02*
D03*
X3210760D02*
D03*
X3160760D02*
D03*
X3110760Y1247600D02*
D03*
X3060760D02*
D03*
X3010760D02*
D03*
X2960760Y1247601D02*
D03*
D67*
X3558260Y1845100D02*
D03*
Y1795100D02*
D03*
Y1745100D02*
D03*
X3558260Y1695100D02*
D03*
X3558259Y1645100D02*
D03*
Y1595100D02*
D03*
X3558260Y1545100D02*
D03*
Y1495100D02*
D03*
Y1445100D02*
D03*
X3558260Y1395100D02*
D03*
Y1345100D02*
D03*
X2863260D02*
D03*
Y1395100D02*
D03*
X2863260Y1445100D02*
D03*
Y1495100D02*
D03*
Y1545100D02*
D03*
X2863260Y1595100D02*
D03*
Y1645100D02*
D03*
X2863260Y1695100D02*
D03*
Y1745100D02*
D03*
Y1795100D02*
D03*
Y1845100D02*
D03*
D68*
X960000Y1498500D02*
D03*
Y1721500D02*
D03*
D69*
X1115000Y1480000D02*
D03*
X1305000D02*
D03*
X1210000Y1680000D02*
D03*
D70*
X1160096Y2099145D02*
D03*
Y2289145D02*
D03*
X960096Y2194145D02*
D03*
D71*
X1600000Y2320000D02*
D03*
Y2160000D02*
D03*
X1800000Y2160000D02*
D03*
Y2320000D02*
D03*
D72*
X292000Y2671000D02*
D03*
Y1807000D02*
D03*
D73*
X710000Y2671000D02*
D03*
Y1807000D02*
D03*
D74*
X400000Y1570000D02*
D03*
D75*
X146000D02*
D03*
D76*
X500000Y1210000D02*
D03*
Y480000D02*
D03*
D77*
X118000Y0D02*
D03*
X372000D02*
D03*
X626000D02*
D03*
X880000D02*
D03*
X1134000D02*
D03*
X1388000D02*
D03*
X1642000D02*
D03*
X1896000D02*
D03*
X2150000D02*
D03*
X2404000D02*
D03*
X2658000D02*
D03*
X2912000D02*
D03*
X3166000D02*
D03*
X3420000D02*
D03*
X3674000D02*
D03*
X4182000D02*
D03*
X3928000D02*
D03*
X4182000Y3050000D02*
D03*
X3928000D02*
D03*
X3674000D02*
D03*
X3420000D02*
D03*
X3166000D02*
D03*
X2912000D02*
D03*
X2658000D02*
D03*
X2404000D02*
D03*
X2150000D02*
D03*
X1896000D02*
D03*
X1642000D02*
D03*
X1388000D02*
D03*
X1134000D02*
D03*
X880000D02*
D03*
X626000D02*
D03*
X118000D02*
D03*
X372000D02*
D03*
%TF.MD5,92e850b55a79e3b3c0895ae7d7bd29a0*%
M02*
