%TF.GenerationSoftware,Altium Limited,Altium Designer,24.10.1 (45)*%
G04 Layer_Physical_Order=2*
G04 Layer_Color=36540*
%FSLAX45Y45*%
%MOMM*%
%TF.SameCoordinates,D2505BA3-E522-476C-ACF0-F4815D070146*%
%TF.FilePolarity,Positive*%
%TF.FileFunction,Copper,L2,Inr,Signal*%
%TF.Part,Single*%
G01*
G75*
%TA.AperFunction,ComponentPad*%
G04:AMPARAMS|DCode=42|XSize=1.8mm|YSize=1mm|CornerRadius=0.25mm|HoleSize=0mm|Usage=FLASHONLY|Rotation=0.000|XOffset=0mm|YOffset=0mm|HoleType=Round|Shape=RoundedRectangle|*
%AMROUNDEDRECTD42*
21,1,1.80000,0.50000,0,0,0.0*
21,1,1.30000,1.00000,0,0,0.0*
1,1,0.50000,0.65000,-0.25000*
1,1,0.50000,-0.65000,-0.25000*
1,1,0.50000,-0.65000,0.25000*
1,1,0.50000,0.65000,0.25000*
%
%ADD42ROUNDEDRECTD42*%
%ADD43O,2.10000X1.00000*%
%ADD44C,0.65000*%
%AMCUSTOMSHAPE45*
4,1,7,0.75000,0.75000,0.75000,0.00000,0.75000,-1.50000,0.75000,-1.50000,-0.75000,-1.50000,-0.75000,0.75000,-0.75000,0.75000,0.75000,0.75000,0.0*%
%ADD45CUSTOMSHAPE45*%

%AMCUSTOMSHAPE46*
4,1,7,-0.75000,-0.75000,-0.75000,0.00000,-0.75000,1.50000,-0.75000,1.50000,0.75000,1.50000,0.75000,-0.75000,0.75000,-0.75000,-0.75000,-0.75000,0.0*%
%ADD46CUSTOMSHAPE46*%

%ADD47C,1.37000*%
%ADD48R,1.37000X1.37000*%
%ADD49C,2.91000*%
%TA.AperFunction,ViaPad*%
%ADD50C,0.45000*%
%ADD51C,1.50000*%
G36*
X4076412Y2900000D02*
Y2825000D01*
X4078741Y2813294D01*
X4085371Y2803371D01*
X4095295Y2796740D01*
X4107000Y2794412D01*
X4257000D01*
X4266909Y2796383D01*
X4271809Y2794467D01*
X4279609Y2788752D01*
Y261248D01*
X4271809Y255533D01*
X4266909Y253617D01*
X4257000Y255588D01*
X4107000D01*
X4095295Y253259D01*
X4085371Y246629D01*
X4078741Y236705D01*
X4076412Y225000D01*
Y20391D01*
X4033588D01*
X4033588Y150000D01*
Y225000D01*
X4031259Y236705D01*
X4024629Y246629D01*
X4014705Y253259D01*
X4003000Y255588D01*
X3853000D01*
X3841295Y253259D01*
X3831371Y246629D01*
X3824741Y236705D01*
X3822412Y225000D01*
Y20391D01*
X3779588D01*
X3779588Y150000D01*
Y225000D01*
X3777259Y236705D01*
X3770629Y246629D01*
X3760705Y253259D01*
X3749000Y255588D01*
X3599000D01*
X3587295Y253259D01*
X3577371Y246629D01*
X3570741Y236705D01*
X3568412Y225000D01*
Y20391D01*
X3525588D01*
X3525588Y150000D01*
Y225000D01*
X3523259Y236705D01*
X3516629Y246629D01*
X3506705Y253259D01*
X3495000Y255588D01*
X3345000D01*
X3333295Y253259D01*
X3323371Y246629D01*
X3316741Y236705D01*
X3314412Y225000D01*
Y20391D01*
X3271588D01*
X3271588Y150000D01*
Y225000D01*
X3269259Y236705D01*
X3262629Y246629D01*
X3252705Y253259D01*
X3241000Y255588D01*
X3091000D01*
X3079295Y253259D01*
X3069371Y246629D01*
X3062741Y236705D01*
X3060412Y225000D01*
Y20391D01*
X3017588D01*
X3017588Y150000D01*
Y225000D01*
X3015259Y236705D01*
X3008629Y246629D01*
X2998705Y253259D01*
X2987000Y255588D01*
X2837000D01*
X2825295Y253259D01*
X2815371Y246629D01*
X2808741Y236705D01*
X2806412Y225000D01*
Y20391D01*
X2763588D01*
X2763588Y150000D01*
Y225000D01*
X2761259Y236705D01*
X2754629Y246629D01*
X2744705Y253259D01*
X2733000Y255588D01*
X2583000D01*
X2571295Y253259D01*
X2561371Y246629D01*
X2554741Y236705D01*
X2552412Y225000D01*
Y20391D01*
X2509588D01*
X2509588Y150000D01*
Y225000D01*
X2507259Y236705D01*
X2500629Y246629D01*
X2490705Y253259D01*
X2479000Y255588D01*
X2329000D01*
X2317295Y253259D01*
X2307371Y246629D01*
X2300741Y236705D01*
X2298412Y225000D01*
Y20391D01*
X2255588D01*
X2255588Y150000D01*
Y225000D01*
X2253259Y236705D01*
X2246629Y246629D01*
X2236705Y253259D01*
X2225000Y255588D01*
X2075000D01*
X2063295Y253259D01*
X2053371Y246629D01*
X2046741Y236705D01*
X2044412Y225000D01*
Y20391D01*
X2001588D01*
X2001588Y150000D01*
Y225000D01*
X1999259Y236705D01*
X1992629Y246629D01*
X1982705Y253259D01*
X1971000Y255588D01*
X1821000D01*
X1809295Y253259D01*
X1799371Y246629D01*
X1792741Y236705D01*
X1790412Y225000D01*
Y20391D01*
X1747588D01*
X1747588Y150000D01*
Y225000D01*
X1745259Y236705D01*
X1738629Y246629D01*
X1728705Y253259D01*
X1717000Y255588D01*
X1567000D01*
X1555295Y253259D01*
X1545371Y246629D01*
X1538741Y236705D01*
X1536412Y225000D01*
Y20391D01*
X1239588D01*
X1239588Y150000D01*
Y225000D01*
X1237259Y236705D01*
X1230629Y246629D01*
X1220705Y253259D01*
X1209000Y255588D01*
X1059000D01*
X1047295Y253259D01*
X1037371Y246629D01*
X1030741Y236705D01*
X1028412Y225000D01*
Y20391D01*
X985588D01*
X985588Y150000D01*
Y225000D01*
X983259Y236705D01*
X976629Y246629D01*
X966705Y253259D01*
X955000Y255588D01*
X805000D01*
X793295Y253259D01*
X783371Y246629D01*
X776741Y236705D01*
X774412Y225000D01*
Y20391D01*
X731588D01*
X731588Y150000D01*
Y225000D01*
X729259Y236705D01*
X722629Y246629D01*
X712705Y253259D01*
X701000Y255588D01*
X551000D01*
X539295Y253259D01*
X529371Y246629D01*
X522741Y236705D01*
X520412Y225000D01*
Y20391D01*
X477588D01*
X477588Y150000D01*
Y225000D01*
X475259Y236705D01*
X468629Y246629D01*
X458705Y253259D01*
X447000Y255588D01*
X297000D01*
X285295Y253259D01*
X275371Y246629D01*
X268741Y236705D01*
X266412Y225000D01*
Y20391D01*
X223588D01*
X223588Y150000D01*
Y225000D01*
X221259Y236705D01*
X214629Y246629D01*
X204705Y253259D01*
X193000Y255588D01*
X43000D01*
X33091Y253617D01*
X28191Y255533D01*
X20391Y261248D01*
Y3029609D01*
X266412D01*
X266412Y2900000D01*
Y2825000D01*
X268741Y2813294D01*
X275371Y2803371D01*
X285295Y2796740D01*
X297000Y2794412D01*
X447000D01*
X458705Y2796740D01*
X468629Y2803371D01*
X475259Y2813294D01*
X477588Y2825000D01*
Y3029609D01*
X520412D01*
X520412Y2900000D01*
Y2825000D01*
X522741Y2813294D01*
X529371Y2803371D01*
X539295Y2796740D01*
X551000Y2794412D01*
X701000D01*
X712705Y2796740D01*
X722629Y2803371D01*
X729259Y2813294D01*
X731588Y2825000D01*
Y3029609D01*
X774412D01*
X774412Y2900000D01*
Y2825000D01*
X776741Y2813294D01*
X783371Y2803371D01*
X793295Y2796740D01*
X805000Y2794412D01*
X955000D01*
X966705Y2796740D01*
X976629Y2803371D01*
X983259Y2813294D01*
X985588Y2825000D01*
Y3029609D01*
X1028412D01*
X1028412Y2900000D01*
Y2825000D01*
X1030741Y2813294D01*
X1037371Y2803371D01*
X1047295Y2796740D01*
X1059000Y2794412D01*
X1209000D01*
X1220705Y2796740D01*
X1230629Y2803371D01*
X1237259Y2813294D01*
X1239588Y2825000D01*
Y3029609D01*
X1536412D01*
X1536412Y2900000D01*
Y2825000D01*
X1538741Y2813294D01*
X1545371Y2803371D01*
X1555295Y2796740D01*
X1567000Y2794412D01*
X1717000D01*
X1728705Y2796740D01*
X1738629Y2803371D01*
X1745259Y2813294D01*
X1747588Y2825000D01*
Y3029609D01*
X1790412D01*
X1790412Y2900000D01*
Y2825000D01*
X1792741Y2813294D01*
X1799371Y2803371D01*
X1809295Y2796740D01*
X1821000Y2794412D01*
X1971000D01*
X1982705Y2796740D01*
X1992629Y2803371D01*
X1999259Y2813294D01*
X2001588Y2825000D01*
Y3029609D01*
X2044412D01*
X2044412Y2900000D01*
Y2825000D01*
X2046741Y2813294D01*
X2053371Y2803371D01*
X2063295Y2796740D01*
X2075000Y2794412D01*
X2225000D01*
X2236705Y2796740D01*
X2246629Y2803371D01*
X2253259Y2813294D01*
X2255588Y2825000D01*
Y3029609D01*
X2298412D01*
X2298412Y2900000D01*
Y2825000D01*
X2300741Y2813294D01*
X2307371Y2803371D01*
X2317295Y2796740D01*
X2329000Y2794412D01*
X2479000D01*
X2490705Y2796740D01*
X2500629Y2803371D01*
X2507259Y2813294D01*
X2509588Y2825000D01*
Y3029609D01*
X2552412D01*
X2552412Y2900000D01*
Y2825000D01*
X2554741Y2813294D01*
X2561371Y2803371D01*
X2571295Y2796740D01*
X2583000Y2794412D01*
X2733000D01*
X2744705Y2796740D01*
X2754629Y2803371D01*
X2761259Y2813294D01*
X2763588Y2825000D01*
Y3029609D01*
X2806412D01*
X2806412Y2900000D01*
Y2825000D01*
X2808741Y2813294D01*
X2815371Y2803371D01*
X2825295Y2796740D01*
X2837000Y2794412D01*
X2987000D01*
X2998705Y2796740D01*
X3008629Y2803371D01*
X3015259Y2813294D01*
X3017588Y2825000D01*
Y3029609D01*
X3060412D01*
X3060412Y2900000D01*
Y2825000D01*
X3062741Y2813294D01*
X3069371Y2803371D01*
X3079295Y2796740D01*
X3091000Y2794412D01*
X3241000D01*
X3252705Y2796740D01*
X3262629Y2803371D01*
X3269259Y2813294D01*
X3271588Y2825000D01*
Y3029609D01*
X3314412D01*
X3314412Y2900000D01*
Y2825000D01*
X3316741Y2813294D01*
X3323371Y2803371D01*
X3333295Y2796740D01*
X3345000Y2794412D01*
X3495000D01*
X3506705Y2796740D01*
X3516629Y2803371D01*
X3523259Y2813294D01*
X3525588Y2825000D01*
Y3029609D01*
X3568412D01*
X3568412Y2900000D01*
Y2825000D01*
X3570741Y2813294D01*
X3577371Y2803371D01*
X3587295Y2796740D01*
X3599000Y2794412D01*
X3749000D01*
X3760705Y2796740D01*
X3770629Y2803371D01*
X3777259Y2813294D01*
X3779588Y2825000D01*
Y3029609D01*
X3822412D01*
X3822412Y2900000D01*
Y2825000D01*
X3824741Y2813294D01*
X3831371Y2803371D01*
X3841295Y2796740D01*
X3853000Y2794412D01*
X4003000D01*
X4014705Y2796740D01*
X4024629Y2803371D01*
X4031259Y2813294D01*
X4033588Y2825000D01*
Y3029609D01*
X4076412D01*
X4076412Y2900000D01*
D02*
G37*
%LPC*%
G36*
X1708454Y2672500D02*
X1691546D01*
X1675926Y2666030D01*
X1663970Y2654074D01*
X1657500Y2638454D01*
Y2621546D01*
X1663970Y2605926D01*
X1675926Y2593970D01*
X1691546Y2587500D01*
X1708454D01*
X1724074Y2593970D01*
X1736030Y2605926D01*
X1742500Y2621546D01*
Y2638454D01*
X1736030Y2654074D01*
X1724074Y2666030D01*
X1708454Y2672500D01*
D02*
G37*
G36*
X668852Y2572500D02*
X651148D01*
X634793Y2565725D01*
X622275Y2553207D01*
X617173Y2540891D01*
X605675Y2536624D01*
X602800Y2536558D01*
X588454Y2542500D01*
X571546D01*
X555926Y2536030D01*
X543970Y2524074D01*
X537500Y2508454D01*
Y2491546D01*
X543970Y2475926D01*
X555926Y2463970D01*
X571546Y2457500D01*
X588454D01*
X604074Y2463970D01*
X616030Y2475926D01*
X620467Y2486639D01*
X634233Y2490834D01*
X634793Y2490274D01*
X651148Y2483500D01*
X668852D01*
X685207Y2490274D01*
X697725Y2502793D01*
X704500Y2519148D01*
Y2536851D01*
X697725Y2553207D01*
X685207Y2565725D01*
X668852Y2572500D01*
D02*
G37*
G36*
X2678454Y2552900D02*
X2661546D01*
X2645926Y2546430D01*
X2633970Y2534474D01*
X2627500Y2518854D01*
Y2501946D01*
X2633970Y2486326D01*
X2645926Y2474370D01*
X2661546Y2467900D01*
X2678454D01*
X2694074Y2474370D01*
X2706030Y2486326D01*
X2712500Y2501946D01*
Y2518854D01*
X2706030Y2534474D01*
X2694074Y2546430D01*
X2678454Y2552900D01*
D02*
G37*
G36*
X3277254Y2532500D02*
X3260346D01*
X3244726Y2526030D01*
X3232770Y2514074D01*
X3226300Y2498454D01*
Y2481546D01*
X3232770Y2465926D01*
X3244726Y2453970D01*
X3260346Y2447500D01*
X3277254D01*
X3292874Y2453970D01*
X3304830Y2465926D01*
X3311300Y2481546D01*
Y2498454D01*
X3304830Y2514074D01*
X3292874Y2526030D01*
X3277254Y2532500D01*
D02*
G37*
G36*
X3127734Y2497700D02*
X3110827D01*
X3095206Y2491230D01*
X3083251Y2479274D01*
X3076781Y2463654D01*
Y2446746D01*
X3083251Y2431126D01*
X3095206Y2419170D01*
X3110827Y2412700D01*
X3127734D01*
X3143355Y2419170D01*
X3155310Y2431126D01*
X3161780Y2446746D01*
Y2463654D01*
X3155310Y2479274D01*
X3143355Y2491230D01*
X3127734Y2497700D01*
D02*
G37*
G36*
X2448454Y2442500D02*
X2431546D01*
X2415926Y2436030D01*
X2403970Y2424074D01*
X2397500Y2408454D01*
Y2391546D01*
X2403970Y2375926D01*
X2415926Y2363970D01*
X2431546Y2357500D01*
X2448454D01*
X2464074Y2363970D01*
X2476030Y2375926D01*
X2482500Y2391546D01*
Y2408454D01*
X2476030Y2424074D01*
X2464074Y2436030D01*
X2448454Y2442500D01*
D02*
G37*
G36*
X1188454Y2432500D02*
X1171546D01*
X1155926Y2426030D01*
X1143970Y2414074D01*
X1137500Y2398454D01*
Y2381546D01*
X1143970Y2365926D01*
X1155926Y2353970D01*
X1171546Y2347500D01*
X1188454D01*
X1204074Y2353970D01*
X1216030Y2365926D01*
X1222500Y2381546D01*
Y2398454D01*
X1216030Y2414074D01*
X1204074Y2426030D01*
X1188454Y2432500D01*
D02*
G37*
G36*
X2558454Y2362500D02*
X2541546D01*
X2525926Y2356030D01*
X2513970Y2344074D01*
X2507500Y2328454D01*
Y2311546D01*
X2513970Y2295926D01*
X2525926Y2283970D01*
X2541546Y2277500D01*
X2558454D01*
X2574074Y2283970D01*
X2586030Y2295926D01*
X2592500Y2311546D01*
Y2328454D01*
X2586030Y2344074D01*
X2574074Y2356030D01*
X2558454Y2362500D01*
D02*
G37*
G36*
X640553Y2297500D02*
X623646D01*
X608026Y2291030D01*
X596070Y2279074D01*
X589600Y2263454D01*
Y2246546D01*
X596070Y2230926D01*
X608026Y2218970D01*
X623646Y2212500D01*
X640553D01*
X656174Y2218970D01*
X668129Y2230926D01*
X674600Y2246546D01*
Y2263454D01*
X668129Y2279074D01*
X656174Y2291030D01*
X640553Y2297500D01*
D02*
G37*
G36*
X3388454Y2292500D02*
X3371546D01*
X3355926Y2286030D01*
X3343970Y2274074D01*
X3337500Y2258454D01*
Y2241546D01*
X3343970Y2225926D01*
X3355926Y2213970D01*
X3371546Y2207500D01*
X3388454D01*
X3404074Y2213970D01*
X3416030Y2225926D01*
X3422500Y2241546D01*
Y2258454D01*
X3416030Y2274074D01*
X3404074Y2286030D01*
X3388454Y2292500D01*
D02*
G37*
G36*
X1068454Y2282500D02*
X1051546D01*
X1035926Y2276030D01*
X1023970Y2264074D01*
X1017500Y2248454D01*
Y2231546D01*
X1023970Y2215926D01*
X1035926Y2203970D01*
X1051546Y2197500D01*
X1068454D01*
X1084074Y2203970D01*
X1096030Y2215926D01*
X1102500Y2231546D01*
Y2248454D01*
X1096030Y2264074D01*
X1084074Y2276030D01*
X1068454Y2282500D01*
D02*
G37*
G36*
X2238454Y2252500D02*
X2221546D01*
X2205926Y2246030D01*
X2193970Y2234074D01*
X2187500Y2218454D01*
Y2201546D01*
X2193970Y2185926D01*
X2205926Y2173970D01*
X2221546Y2167500D01*
X2238454D01*
X2254074Y2173970D01*
X2266030Y2185926D01*
X2272500Y2201546D01*
Y2218454D01*
X2266030Y2234074D01*
X2254074Y2246030D01*
X2238454Y2252500D01*
D02*
G37*
G36*
X1828454Y2122500D02*
X1811546D01*
X1795926Y2116030D01*
X1783970Y2104074D01*
X1777500Y2088454D01*
Y2071546D01*
X1783970Y2055926D01*
X1795926Y2043970D01*
X1811546Y2037500D01*
X1828454D01*
X1844074Y2043970D01*
X1856030Y2055926D01*
X1862500Y2071546D01*
Y2088454D01*
X1856030Y2104074D01*
X1844074Y2116030D01*
X1828454Y2122500D01*
D02*
G37*
G36*
X3717954Y2111700D02*
X3701046D01*
X3685426Y2105229D01*
X3673470Y2093274D01*
X3667000Y2077653D01*
Y2060746D01*
X3673470Y2045126D01*
X3685426Y2033170D01*
X3701046Y2026700D01*
X3717954D01*
X3733574Y2033170D01*
X3745530Y2045126D01*
X3752000Y2060746D01*
Y2077653D01*
X3745530Y2093274D01*
X3733574Y2105229D01*
X3717954Y2111700D01*
D02*
G37*
G36*
X668454Y2092500D02*
X651546D01*
X635926Y2086030D01*
X623970Y2074074D01*
X617500Y2058454D01*
Y2041546D01*
X623970Y2025926D01*
X635926Y2013970D01*
X651546Y2007500D01*
X668454D01*
X684074Y2013970D01*
X696030Y2025926D01*
X702500Y2041546D01*
Y2058454D01*
X696030Y2074074D01*
X684074Y2086030D01*
X668454Y2092500D01*
D02*
G37*
G36*
X2138454Y2062500D02*
X2121546D01*
X2105926Y2056030D01*
X2093970Y2044074D01*
X2087500Y2028454D01*
Y2011546D01*
X2093970Y1995926D01*
X2105926Y1983970D01*
X2121546Y1977500D01*
X2138454D01*
X2154074Y1983970D01*
X2166030Y1995926D01*
X2172500Y2011546D01*
Y2028454D01*
X2166030Y2044074D01*
X2154074Y2056030D01*
X2138454Y2062500D01*
D02*
G37*
G36*
X2828454Y2052500D02*
X2811546D01*
X2795926Y2046030D01*
X2783970Y2034074D01*
X2777500Y2018454D01*
Y2001546D01*
X2783970Y1985926D01*
X2795926Y1973970D01*
X2811546Y1967500D01*
X2828454D01*
X2844074Y1973970D01*
X2856030Y1985926D01*
X2862500Y2001546D01*
Y2018454D01*
X2856030Y2034074D01*
X2844074Y2046030D01*
X2828454Y2052500D01*
D02*
G37*
G36*
X1538454Y2002500D02*
X1521546D01*
X1505926Y1996030D01*
X1493970Y1984074D01*
X1487500Y1968454D01*
Y1955564D01*
X1479742Y1950569D01*
X1476409Y1949011D01*
X1475767Y1948864D01*
X1460954Y1955000D01*
X1444046D01*
X1428426Y1948530D01*
X1416470Y1936574D01*
X1410000Y1920954D01*
Y1904046D01*
X1416470Y1888426D01*
X1428426Y1876470D01*
X1444046Y1870000D01*
X1460954D01*
X1476574Y1876470D01*
X1488530Y1888426D01*
X1495000Y1904046D01*
Y1916936D01*
X1502758Y1921931D01*
X1506091Y1923489D01*
X1506733Y1923636D01*
X1521546Y1917500D01*
X1538454D01*
X1554074Y1923970D01*
X1566030Y1935926D01*
X1572500Y1951546D01*
Y1968454D01*
X1566030Y1984074D01*
X1554074Y1996030D01*
X1538454Y2002500D01*
D02*
G37*
G36*
X1258454D02*
X1241546D01*
X1225926Y1996030D01*
X1213970Y1984074D01*
X1207500Y1968454D01*
Y1951546D01*
X1213970Y1935926D01*
X1225926Y1923970D01*
X1241546Y1917500D01*
X1258454D01*
X1274074Y1923970D01*
X1286030Y1935926D01*
X1292500Y1951546D01*
Y1968454D01*
X1286030Y1984074D01*
X1274074Y1996030D01*
X1258454Y2002500D01*
D02*
G37*
G36*
X668852Y1994500D02*
X651148D01*
X634793Y1987725D01*
X622275Y1975207D01*
X615500Y1958852D01*
Y1941148D01*
X622275Y1924793D01*
X634793Y1912275D01*
X651148Y1905500D01*
X668852D01*
X685207Y1912275D01*
X697725Y1924793D01*
X704500Y1941148D01*
Y1958852D01*
X697725Y1975207D01*
X685207Y1987725D01*
X668852Y1994500D01*
D02*
G37*
G36*
X2750552Y1897700D02*
X2733644D01*
X2718024Y1891230D01*
X2706068Y1879274D01*
X2699598Y1863654D01*
Y1846746D01*
X2706068Y1831126D01*
X2718024Y1819170D01*
X2733644Y1812700D01*
X2750552D01*
X2766172Y1819170D01*
X2778128Y1831126D01*
X2784598Y1846746D01*
Y1863654D01*
X2778128Y1879274D01*
X2766172Y1891230D01*
X2750552Y1897700D01*
D02*
G37*
G36*
X2078651Y1942955D02*
X2061744D01*
X2046123Y1936485D01*
X2034168Y1924530D01*
X2027697Y1908909D01*
Y1892002D01*
X2034168Y1876382D01*
X2046123Y1864426D01*
X2061744Y1857956D01*
X2077500D01*
Y1844046D01*
X2083970Y1828426D01*
X2095926Y1816470D01*
X2111546Y1810000D01*
X2128454D01*
X2144074Y1816470D01*
X2156030Y1828426D01*
X2162500Y1844046D01*
Y1860954D01*
X2156030Y1876574D01*
X2144074Y1888530D01*
X2128454Y1895000D01*
X2112697D01*
Y1908909D01*
X2106227Y1924530D01*
X2094271Y1936485D01*
X2078651Y1942955D01*
D02*
G37*
G36*
X3988454Y1872500D02*
X3971546D01*
X3955926Y1866030D01*
X3943970Y1854074D01*
X3937500Y1838454D01*
Y1821546D01*
X3943970Y1805926D01*
X3955926Y1793970D01*
X3971546Y1787500D01*
X3988454D01*
X4004074Y1793970D01*
X4016030Y1805926D01*
X4022500Y1821546D01*
Y1838454D01*
X4016030Y1854074D01*
X4004074Y1866030D01*
X3988454Y1872500D01*
D02*
G37*
G36*
X4228454Y1792500D02*
X4211546D01*
X4195926Y1786030D01*
X4183970Y1774074D01*
X4177500Y1758454D01*
Y1741546D01*
X4183970Y1725926D01*
X4195926Y1713970D01*
X4211546Y1707500D01*
X4228454D01*
X4244074Y1713970D01*
X4256030Y1725926D01*
X4262500Y1741546D01*
Y1758454D01*
X4256030Y1774074D01*
X4244074Y1786030D01*
X4228454Y1792500D01*
D02*
G37*
G36*
X2084779Y1788672D02*
X2067872D01*
X2052251Y1782202D01*
X2040296Y1770247D01*
X2033825Y1754626D01*
Y1737719D01*
X2040296Y1722098D01*
X2052251Y1710143D01*
X2067872Y1703673D01*
X2084779D01*
X2100399Y1710143D01*
X2112355Y1722098D01*
X2118825Y1737719D01*
Y1754626D01*
X2112355Y1770247D01*
X2100399Y1782202D01*
X2084779Y1788672D01*
D02*
G37*
G36*
X4158454Y1722500D02*
X4141546D01*
X4125926Y1716030D01*
X4113970Y1704074D01*
X4107500Y1688454D01*
Y1671546D01*
X4113970Y1655926D01*
X4125926Y1643970D01*
X4141546Y1637500D01*
X4158454D01*
X4174074Y1643970D01*
X4186030Y1655926D01*
X4192500Y1671546D01*
Y1688454D01*
X4186030Y1704074D01*
X4174074Y1716030D01*
X4158454Y1722500D01*
D02*
G37*
G36*
X4058454Y1652500D02*
X4041546D01*
X4025926Y1646030D01*
X4013970Y1634074D01*
X4007500Y1618454D01*
Y1601546D01*
X4013970Y1585926D01*
X4025926Y1573970D01*
X4041546Y1567500D01*
X4058454D01*
X4074074Y1573970D01*
X4086030Y1585926D01*
X4092500Y1601546D01*
Y1618454D01*
X4086030Y1634074D01*
X4074074Y1646030D01*
X4058454Y1652500D01*
D02*
G37*
G36*
X3978454Y1572500D02*
X3961546D01*
X3945926Y1566030D01*
X3933970Y1554074D01*
X3927500Y1538454D01*
Y1521546D01*
X3933970Y1505926D01*
X3945926Y1493970D01*
X3961546Y1487500D01*
X3978454D01*
X3994074Y1493970D01*
X4006030Y1505926D01*
X4012500Y1521546D01*
Y1538454D01*
X4006030Y1554074D01*
X3994074Y1566030D01*
X3978454Y1572500D01*
D02*
G37*
G36*
X412968Y1668500D02*
X387032D01*
X361980Y1661787D01*
X339520Y1648819D01*
X321180Y1630480D01*
X308213Y1608019D01*
X301500Y1582968D01*
Y1557032D01*
X308213Y1531980D01*
X321180Y1509519D01*
X339520Y1491180D01*
X361980Y1478213D01*
X387032Y1471500D01*
X412968D01*
X438019Y1478213D01*
X460480Y1491180D01*
X478819Y1509519D01*
X491787Y1531980D01*
X498500Y1557032D01*
Y1582968D01*
X491787Y1608019D01*
X478819Y1630480D01*
X460480Y1648819D01*
X438019Y1661787D01*
X412968Y1668500D01*
D02*
G37*
G36*
X244500D02*
X47500D01*
Y1471500D01*
X244500D01*
Y1668500D01*
D02*
G37*
G36*
X2758454Y1592500D02*
X2741546D01*
X2725926Y1586030D01*
X2713970Y1574074D01*
X2707500Y1558454D01*
Y1541546D01*
X2713970Y1525926D01*
X2719099Y1520797D01*
X2724898Y1512500D01*
X2719099Y1504203D01*
X2713970Y1499074D01*
X2707500Y1483454D01*
Y1466546D01*
X2713970Y1450926D01*
X2725926Y1438970D01*
X2741546Y1432500D01*
X2758454D01*
X2774074Y1438970D01*
X2786030Y1450926D01*
X2792500Y1466546D01*
Y1483454D01*
X2786030Y1499074D01*
X2780901Y1504203D01*
X2775102Y1512500D01*
X2780901Y1520797D01*
X2786030Y1525926D01*
X2792500Y1541546D01*
Y1558454D01*
X2786030Y1574074D01*
X2774074Y1586030D01*
X2758454Y1592500D01*
D02*
G37*
G36*
X3898454Y1482500D02*
X3881546D01*
X3865926Y1476030D01*
X3853970Y1464074D01*
X3847500Y1448454D01*
Y1431546D01*
X3853970Y1415926D01*
X3865926Y1403970D01*
X3881546Y1397500D01*
X3898454D01*
X3914074Y1403970D01*
X3926030Y1415926D01*
X3932500Y1431546D01*
Y1448454D01*
X3926030Y1464074D01*
X3914074Y1476030D01*
X3898454Y1482500D01*
D02*
G37*
G36*
X968160Y1468892D02*
X951252D01*
X935632Y1462422D01*
X923676Y1450467D01*
X917206Y1434846D01*
Y1417939D01*
X923676Y1402319D01*
X935632Y1390363D01*
X951252Y1383893D01*
X968160D01*
X983780Y1390363D01*
X995736Y1402319D01*
X1002206Y1417939D01*
Y1434846D01*
X995736Y1450467D01*
X983780Y1462422D01*
X968160Y1468892D01*
D02*
G37*
G36*
X3648454Y1432500D02*
X3631546D01*
X3615926Y1426030D01*
X3603970Y1414074D01*
X3597500Y1398454D01*
Y1381546D01*
X3603970Y1365926D01*
X3615926Y1353970D01*
X3631546Y1347500D01*
X3648454D01*
X3664074Y1353970D01*
X3676030Y1365926D01*
X3682500Y1381546D01*
Y1398454D01*
X3676030Y1414074D01*
X3664074Y1426030D01*
X3648454Y1432500D01*
D02*
G37*
G36*
X1438454Y1422500D02*
X1421546D01*
X1405926Y1416030D01*
X1393970Y1404074D01*
X1387500Y1388454D01*
Y1371546D01*
X1393970Y1355926D01*
X1405926Y1343970D01*
X1421546Y1337500D01*
X1438454D01*
X1454074Y1343970D01*
X1466030Y1355926D01*
X1472500Y1371546D01*
Y1388454D01*
X1466030Y1404074D01*
X1454074Y1416030D01*
X1438454Y1422500D01*
D02*
G37*
G36*
X1075954Y1360000D02*
X1059046D01*
X1043426Y1353530D01*
X1031470Y1341574D01*
X1025000Y1325954D01*
Y1309046D01*
X1031470Y1293426D01*
X1043426Y1281470D01*
X1059046Y1275000D01*
X1075954D01*
X1091574Y1281470D01*
X1103530Y1293426D01*
X1110000Y1309046D01*
Y1325954D01*
X1103530Y1341574D01*
X1091574Y1353530D01*
X1075954Y1360000D01*
D02*
G37*
G36*
X2258454Y1312500D02*
X2241546D01*
X2225926Y1306030D01*
X2213970Y1294074D01*
X2207500Y1278454D01*
Y1261546D01*
X2213970Y1245926D01*
X2225926Y1233970D01*
X2241546Y1227500D01*
X2258454D01*
X2274074Y1233970D01*
X2286030Y1245926D01*
X2292500Y1261546D01*
Y1278454D01*
X2286030Y1294074D01*
X2274074Y1306030D01*
X2258454Y1312500D01*
D02*
G37*
G36*
X2448454Y1257300D02*
X2431546D01*
X2415926Y1250830D01*
X2403970Y1238874D01*
X2397500Y1223254D01*
Y1206346D01*
X2403970Y1190726D01*
X2415926Y1178770D01*
X2431546Y1172300D01*
X2448454D01*
X2464074Y1178770D01*
X2476030Y1190726D01*
X2482500Y1206346D01*
Y1223254D01*
X2476030Y1238874D01*
X2464074Y1250830D01*
X2448454Y1257300D01*
D02*
G37*
G36*
X3658454Y1272500D02*
X3641546D01*
X3625926Y1266030D01*
X3613970Y1254074D01*
X3607500Y1238454D01*
Y1221547D01*
X3605008Y1217817D01*
X3604576D01*
X3588956Y1211347D01*
X3577000Y1199392D01*
X3570530Y1183771D01*
Y1166864D01*
X3577000Y1151243D01*
X3588956Y1139288D01*
X3604576Y1132818D01*
X3621483D01*
X3637104Y1139288D01*
X3649060Y1151243D01*
X3655530Y1166864D01*
Y1183771D01*
X3658022Y1187500D01*
X3658454D01*
X3674074Y1193970D01*
X3686030Y1205926D01*
X3692500Y1221546D01*
Y1238454D01*
X3686030Y1254074D01*
X3674074Y1266030D01*
X3658454Y1272500D01*
D02*
G37*
G36*
X2058454Y1182500D02*
X2041546D01*
X2025926Y1176030D01*
X2013970Y1164074D01*
X2007500Y1148454D01*
Y1131546D01*
X2013970Y1115926D01*
X2025926Y1103970D01*
X2041546Y1097500D01*
X2058454D01*
X2074074Y1103970D01*
X2086030Y1115926D01*
X2092500Y1131546D01*
Y1148454D01*
X2086030Y1164074D01*
X2074074Y1176030D01*
X2058454Y1182500D01*
D02*
G37*
G36*
X3068454Y1172500D02*
X3051546D01*
X3035926Y1166030D01*
X3023970Y1154074D01*
X3017500Y1138454D01*
Y1121546D01*
X3023970Y1105926D01*
X3035926Y1093970D01*
X3051546Y1087500D01*
X3068454D01*
X3084074Y1093970D01*
X3096030Y1105926D01*
X3102500Y1121546D01*
Y1138454D01*
X3096030Y1154074D01*
X3084074Y1166030D01*
X3068454Y1172500D01*
D02*
G37*
G36*
X2446854Y1145486D02*
X2429946D01*
X2414326Y1139016D01*
X2402370Y1127060D01*
X2395900Y1111440D01*
Y1094532D01*
X2402370Y1078912D01*
X2414326Y1066956D01*
X2429946Y1060486D01*
X2446854D01*
X2462474Y1066956D01*
X2474430Y1078912D01*
X2480900Y1094532D01*
Y1111440D01*
X2474430Y1127060D01*
X2462474Y1139016D01*
X2446854Y1145486D01*
D02*
G37*
G36*
X3558454Y1142500D02*
X3541546D01*
X3525926Y1136030D01*
X3513970Y1124074D01*
X3507500Y1108454D01*
Y1091546D01*
X3513970Y1075926D01*
X3525926Y1063970D01*
X3541546Y1057500D01*
X3558454D01*
X3574074Y1063970D01*
X3586030Y1075926D01*
X3592500Y1091546D01*
Y1108454D01*
X3586030Y1124074D01*
X3574074Y1136030D01*
X3558454Y1142500D01*
D02*
G37*
G36*
X3288454Y1162500D02*
X3271546D01*
X3255926Y1156030D01*
X3243970Y1144074D01*
X3237500Y1128454D01*
Y1111546D01*
X3243970Y1095926D01*
X3255926Y1083970D01*
X3271546Y1077500D01*
X3288454D01*
X3304074Y1083970D01*
X3305618Y1085514D01*
X3306049Y1085586D01*
X3319859Y1081794D01*
X3323970Y1071868D01*
X3335926Y1059912D01*
X3351546Y1053442D01*
X3368454D01*
X3384074Y1059912D01*
X3396030Y1071868D01*
X3402500Y1087488D01*
Y1104396D01*
X3396030Y1120016D01*
X3384074Y1131972D01*
X3368454Y1138442D01*
X3351546D01*
X3335926Y1131972D01*
X3334382Y1130428D01*
X3333951Y1130356D01*
X3320141Y1134148D01*
X3316030Y1144074D01*
X3304074Y1156030D01*
X3288454Y1162500D01*
D02*
G37*
G36*
X517285Y1385500D02*
X482715D01*
X448809Y1378755D01*
X416870Y1365526D01*
X388125Y1346320D01*
X363681Y1321875D01*
X344474Y1293131D01*
X331245Y1261192D01*
X324500Y1227285D01*
Y1192715D01*
X331245Y1158809D01*
X344474Y1126870D01*
X363681Y1098126D01*
X388125Y1073681D01*
X416870Y1054474D01*
X448809Y1041245D01*
X482715Y1034500D01*
X517285D01*
X551191Y1041245D01*
X583130Y1054474D01*
X611875Y1073681D01*
X636320Y1098126D01*
X655526Y1126870D01*
X668755Y1158809D01*
X675500Y1192715D01*
Y1227285D01*
X668755Y1261192D01*
X655526Y1293131D01*
X636320Y1321875D01*
X611875Y1346320D01*
X583130Y1365526D01*
X551191Y1378755D01*
X517285Y1385500D01*
D02*
G37*
G36*
X2608454Y1022500D02*
X2591546D01*
X2575926Y1016030D01*
X2563970Y1004074D01*
X2557500Y988454D01*
Y971546D01*
X2563970Y955926D01*
X2575926Y943970D01*
X2591546Y937500D01*
X2608454D01*
X2624074Y943970D01*
X2636030Y955926D01*
X2642500Y971546D01*
Y988454D01*
X2636030Y1004074D01*
X2624074Y1016030D01*
X2608454Y1022500D01*
D02*
G37*
G36*
X2319854Y982300D02*
X2302946D01*
X2287326Y975830D01*
X2275370Y963874D01*
X2268900Y948254D01*
Y931346D01*
X2275370Y915726D01*
X2287326Y903770D01*
X2302946Y897300D01*
X2319854D01*
X2335474Y903770D01*
X2347430Y915726D01*
X2353900Y931346D01*
Y948254D01*
X2347430Y963874D01*
X2335474Y975830D01*
X2319854Y982300D01*
D02*
G37*
G36*
X818454Y792500D02*
X801546D01*
X785926Y786030D01*
X773970Y774074D01*
X767500Y758454D01*
Y741546D01*
X773970Y725926D01*
X785926Y713970D01*
X801546Y707500D01*
X818454D01*
X834074Y713970D01*
X846030Y725926D01*
X852500Y741546D01*
Y758454D01*
X846030Y774074D01*
X834074Y786030D01*
X818454Y792500D01*
D02*
G37*
G36*
X2158454Y780000D02*
X2141546D01*
X2125926Y773530D01*
X2113970Y761574D01*
X2107500Y745954D01*
Y729047D01*
X2113970Y713426D01*
X2125926Y701471D01*
X2141546Y695000D01*
X2158454D01*
X2174074Y701471D01*
X2186030Y713426D01*
X2192500Y729047D01*
Y745954D01*
X2186030Y761574D01*
X2174074Y773530D01*
X2158454Y780000D01*
D02*
G37*
G36*
X2838454Y762500D02*
X2821546D01*
X2805926Y756030D01*
X2793970Y744074D01*
X2787500Y728454D01*
Y711546D01*
X2793970Y695926D01*
X2805926Y683970D01*
X2821546Y677500D01*
X2838454D01*
X2854074Y683970D01*
X2866030Y695926D01*
X2872500Y711546D01*
Y728454D01*
X2866030Y744074D01*
X2854074Y756030D01*
X2838454Y762500D01*
D02*
G37*
G36*
X2958454Y682500D02*
X2941546D01*
X2925926Y676030D01*
X2913970Y664074D01*
X2907500Y648454D01*
Y631546D01*
X2913970Y615926D01*
X2925926Y603970D01*
X2941546Y597500D01*
X2958454D01*
X2974074Y603970D01*
X2986030Y615926D01*
X2992500Y631546D01*
Y648454D01*
X2986030Y664074D01*
X2974074Y676030D01*
X2958454Y682500D01*
D02*
G37*
G36*
X517285Y655500D02*
X482715D01*
X448809Y648755D01*
X416870Y635526D01*
X388125Y616320D01*
X363681Y591875D01*
X344474Y563130D01*
X331245Y531191D01*
X324500Y497285D01*
Y462715D01*
X331245Y428809D01*
X344474Y396870D01*
X363681Y368126D01*
X388125Y343681D01*
X416870Y324474D01*
X448809Y311245D01*
X482715Y304500D01*
X517285D01*
X551191Y311245D01*
X583130Y324474D01*
X611875Y343681D01*
X636320Y368126D01*
X655526Y396870D01*
X668755Y428809D01*
X675500Y462715D01*
Y497285D01*
X668755Y531191D01*
X655526Y563130D01*
X636320Y591875D01*
X611875Y616320D01*
X583130Y635526D01*
X551191Y648755D01*
X517285Y655500D01*
D02*
G37*
%LPD*%
D42*
X292000Y2671000D02*
D03*
Y1807000D02*
D03*
D43*
X710000Y2671000D02*
D03*
Y1807000D02*
D03*
D44*
X660000Y1950000D02*
D03*
Y2528000D02*
D03*
D45*
X118000Y150000D02*
D03*
X372000D02*
D03*
X626000D02*
D03*
X880000D02*
D03*
X1134000D02*
D03*
X1388000D02*
D03*
X1642000D02*
D03*
X1896000D02*
D03*
X2150000D02*
D03*
X2404000D02*
D03*
X2658000D02*
D03*
X2912000D02*
D03*
X3166000D02*
D03*
X3420000D02*
D03*
X3674000D02*
D03*
X4182000D02*
D03*
X3928000D02*
D03*
D46*
X4182000Y2900000D02*
D03*
X3928000D02*
D03*
X3674000D02*
D03*
X3420000D02*
D03*
X3166000D02*
D03*
X2912000D02*
D03*
X2658000D02*
D03*
X2404000D02*
D03*
X2150000D02*
D03*
X1896000D02*
D03*
X1642000D02*
D03*
X1388000D02*
D03*
X1134000D02*
D03*
X880000D02*
D03*
X626000D02*
D03*
X118000D02*
D03*
X372000D02*
D03*
D47*
X400000Y1570000D02*
D03*
D48*
X146000D02*
D03*
D49*
X500000Y1210000D02*
D03*
Y480000D02*
D03*
D50*
X1067500Y1317500D02*
D03*
X2800000Y2300000D02*
D03*
X1452500Y1912500D02*
D03*
Y1615000D02*
D03*
X3062500Y2360000D02*
D03*
X3380000Y2250000D02*
D03*
X3360000Y1095942D02*
D03*
X3280000Y1120000D02*
D03*
X3540000Y590000D02*
D03*
X3804032Y675968D02*
D03*
X3980000Y1830000D02*
D03*
X4220000Y1750000D02*
D03*
X4150000Y1680000D02*
D03*
X4050000Y1610000D02*
D03*
X3970000Y1530000D02*
D03*
X3890000Y1440000D02*
D03*
X3650000Y1230000D02*
D03*
X3820000Y1130000D02*
D03*
X3570000Y2340000D02*
D03*
X3268800Y2490000D02*
D03*
X3119281Y2455200D02*
D03*
X2670000Y2510400D02*
D03*
X2440000Y2400000D02*
D03*
X2550000Y2320000D02*
D03*
X810000Y750000D02*
D03*
X660000Y2050000D02*
D03*
X1700000Y2630000D02*
D03*
X2130000Y2020000D02*
D03*
X1900000Y2160000D02*
D03*
X2742098Y1855200D02*
D03*
X2510000Y2010000D02*
D03*
X2650000Y1260000D02*
D03*
X3640000Y1390000D02*
D03*
X3030000Y820000D02*
D03*
X3060000Y1130000D02*
D03*
X1250000Y1960000D02*
D03*
X1530000D02*
D03*
X1820000Y2080000D02*
D03*
X959706Y1426393D02*
D03*
X1845000Y1745000D02*
D03*
X1735000D02*
D03*
X1845000Y1855000D02*
D03*
X1735000D02*
D03*
X1070000Y1770000D02*
D03*
X890000Y1780000D02*
D03*
X1425000Y2205000D02*
D03*
Y2105000D02*
D03*
X1325000Y2205000D02*
D03*
Y2105000D02*
D03*
X2530000Y1570000D02*
D03*
X1186334Y2493330D02*
D03*
X2076325Y1746173D02*
D03*
X2120000Y1852500D02*
D03*
X2070197Y1900456D02*
D03*
X632100Y2255000D02*
D03*
X800000Y980000D02*
D03*
X2230000Y1195200D02*
D03*
X1780000Y1390000D02*
D03*
X1430000Y1380000D02*
D03*
X2440000Y1214800D02*
D03*
X2230000Y2210000D02*
D03*
X2750000Y1550000D02*
D03*
X2050000Y1030000D02*
D03*
X2438400Y1102986D02*
D03*
X2311400Y939800D02*
D03*
X2250000Y1270000D02*
D03*
X1060000Y2240000D02*
D03*
X960000Y2100000D02*
D03*
X1180000Y2390000D02*
D03*
X2830000Y720000D02*
D03*
X2630000Y800000D02*
D03*
X3709500Y2069200D02*
D03*
X580000Y2500000D02*
D03*
X3375968Y924032D02*
D03*
X2150000Y737500D02*
D03*
X3550000Y1100000D02*
D03*
X3613030Y1175317D02*
D03*
X2750000Y1475000D02*
D03*
X2950000Y640000D02*
D03*
X2050000Y1140000D02*
D03*
X2820000Y2010000D02*
D03*
X3430759Y1375100D02*
D03*
X3320760Y1375100D02*
D03*
X3210760Y1375101D02*
D03*
X3100760Y1375100D02*
D03*
X2990760Y1375101D02*
D03*
X3430760Y1485100D02*
D03*
X3320759Y1485100D02*
D03*
X3210760Y1485100D02*
D03*
X3100760Y1485101D02*
D03*
X2990760Y1485100D02*
D03*
X3430759Y1595100D02*
D03*
X3320760Y1595100D02*
D03*
X3210760D02*
D03*
X3100760D02*
D03*
X2990760Y1595100D02*
D03*
X3430760Y1705100D02*
D03*
X3320760D02*
D03*
X3210760D02*
D03*
X3100760Y1705100D02*
D03*
X2990760Y1705100D02*
D03*
X3430760Y1815100D02*
D03*
X3320760D02*
D03*
X3210760Y1815100D02*
D03*
X3100760Y1815100D02*
D03*
X2990760D02*
D03*
X1168400Y1905000D02*
D03*
X2600000Y980000D02*
D03*
D51*
X118000Y0D02*
D03*
X372000D02*
D03*
X626000D02*
D03*
X880000D02*
D03*
X1134000D02*
D03*
X1388000D02*
D03*
X1642000D02*
D03*
X1896000D02*
D03*
X2150000D02*
D03*
X2404000D02*
D03*
X2658000D02*
D03*
X2912000D02*
D03*
X3166000D02*
D03*
X3420000D02*
D03*
X3674000D02*
D03*
X4182000D02*
D03*
X3928000D02*
D03*
X4182000Y3050000D02*
D03*
X3928000D02*
D03*
X3674000D02*
D03*
X3420000D02*
D03*
X3166000D02*
D03*
X2912000D02*
D03*
X2658000D02*
D03*
X2404000D02*
D03*
X2150000D02*
D03*
X1896000D02*
D03*
X1642000D02*
D03*
X1388000D02*
D03*
X1134000D02*
D03*
X880000D02*
D03*
X626000D02*
D03*
X118000D02*
D03*
X372000D02*
D03*
%TF.MD5,ee148568c75768c87507ab0677b08c8e*%
M02*
