%TF.GenerationSoftware,Altium Limited,Altium Designer,24.10.1 (45)*%
G04 Layer_Color=16711935*
%FSLAX45Y45*%
%MOMM*%
%TF.SameCoordinates,D2505BA3-E522-476C-ACF0-F4815D070146*%
%TF.FilePolarity,Negative*%
%TF.FileFunction,Soldermask,Bot*%
%TF.Part,Single*%
G01*
G75*
%TA.AperFunction,ComponentPad*%
%ADD44C,0.65000*%
G04:AMPARAMS|DCode=72|XSize=1.876mm|YSize=1.076mm|CornerRadius=0.288mm|HoleSize=0mm|Usage=FLASHONLY|Rotation=0.000|XOffset=0mm|YOffset=0mm|HoleType=Round|Shape=RoundedRectangle|*
%AMROUNDEDRECTD72*
21,1,1.87600,0.50000,0,0,0.0*
21,1,1.30000,1.07600,0,0,0.0*
1,1,0.57600,0.65000,-0.25000*
1,1,0.57600,-0.65000,-0.25000*
1,1,0.57600,-0.65000,0.25000*
1,1,0.57600,0.65000,0.25000*
%
%ADD72ROUNDEDRECTD72*%
%ADD73O,2.17600X1.07600*%
%ADD74C,1.44600*%
%ADD75R,1.44600X1.44600*%
%ADD76C,2.98600*%
%TA.AperFunction,ViaPad*%
%ADD77C,1.57600*%
G36*
X4257745Y3053745D02*
X4258461Y3053528D01*
X4259122Y3053174D01*
X4259700Y3052700D01*
X4260175Y3052121D01*
X4260528Y3051461D01*
X4260745Y3050745D01*
X4260819Y3050000D01*
Y2825000D01*
X4260745Y2824255D01*
X4260528Y2823538D01*
X4260175Y2822878D01*
X4259700Y2822300D01*
X4259122Y2821825D01*
X4258461Y2821472D01*
X4257745Y2821255D01*
X4257000Y2821181D01*
X4107000D01*
X4106255Y2821255D01*
X4105539Y2821472D01*
X4104879Y2821825D01*
X4104300Y2822300D01*
X4103825Y2822878D01*
X4103472Y2823538D01*
X4103255Y2824255D01*
X4103182Y2825000D01*
Y2900000D01*
X4103182Y3049997D01*
X4103182Y3050000D01*
X4103255Y3050745D01*
X4103472Y3051461D01*
X4103825Y3052121D01*
X4104300Y3052700D01*
X4104879Y3053174D01*
X4105539Y3053528D01*
X4106255Y3053745D01*
X4107000Y3053818D01*
X4257000D01*
X4257745Y3053745D01*
D02*
G37*
G36*
X4003745D02*
X4004461Y3053528D01*
X4005122Y3053174D01*
X4005700Y3052700D01*
X4006175Y3052121D01*
X4006528Y3051461D01*
X4006745Y3050745D01*
X4006819Y3050000D01*
Y2825000D01*
X4006745Y2824255D01*
X4006528Y2823538D01*
X4006175Y2822878D01*
X4005700Y2822300D01*
X4005122Y2821825D01*
X4004461Y2821472D01*
X4003745Y2821255D01*
X4003000Y2821181D01*
X3853000D01*
X3852255Y2821255D01*
X3851539Y2821472D01*
X3850879Y2821825D01*
X3850300Y2822300D01*
X3849825Y2822878D01*
X3849472Y2823538D01*
X3849255Y2824255D01*
X3849182Y2825000D01*
Y2900000D01*
X3849182Y3049997D01*
X3849182Y3050000D01*
X3849255Y3050745D01*
X3849472Y3051461D01*
X3849825Y3052121D01*
X3850300Y3052700D01*
X3850879Y3053174D01*
X3851539Y3053528D01*
X3852255Y3053745D01*
X3853000Y3053818D01*
X4003000D01*
X4003745Y3053745D01*
D02*
G37*
G36*
X3749745D02*
X3750461Y3053528D01*
X3751122Y3053174D01*
X3751700Y3052700D01*
X3752175Y3052121D01*
X3752528Y3051461D01*
X3752745Y3050745D01*
X3752819Y3050000D01*
Y2825000D01*
X3752745Y2824255D01*
X3752528Y2823538D01*
X3752175Y2822878D01*
X3751700Y2822300D01*
X3751122Y2821825D01*
X3750461Y2821472D01*
X3749745Y2821255D01*
X3749000Y2821181D01*
X3599000D01*
X3598255Y2821255D01*
X3597539Y2821472D01*
X3596879Y2821825D01*
X3596300Y2822300D01*
X3595825Y2822878D01*
X3595472Y2823538D01*
X3595255Y2824255D01*
X3595182Y2825000D01*
Y2900000D01*
X3595182Y3049997D01*
X3595182Y3050000D01*
X3595255Y3050745D01*
X3595472Y3051461D01*
X3595825Y3052121D01*
X3596300Y3052700D01*
X3596879Y3053174D01*
X3597539Y3053528D01*
X3598255Y3053745D01*
X3599000Y3053818D01*
X3749000D01*
X3749745Y3053745D01*
D02*
G37*
G36*
X3495745D02*
X3496461Y3053528D01*
X3497122Y3053174D01*
X3497700Y3052700D01*
X3498175Y3052121D01*
X3498528Y3051461D01*
X3498745Y3050745D01*
X3498819Y3050000D01*
Y2825000D01*
X3498745Y2824255D01*
X3498528Y2823538D01*
X3498175Y2822878D01*
X3497700Y2822300D01*
X3497122Y2821825D01*
X3496461Y2821472D01*
X3495745Y2821255D01*
X3495000Y2821181D01*
X3345000D01*
X3344255Y2821255D01*
X3343539Y2821472D01*
X3342879Y2821825D01*
X3342300Y2822300D01*
X3341825Y2822878D01*
X3341472Y2823538D01*
X3341255Y2824255D01*
X3341182Y2825000D01*
Y2900000D01*
X3341182Y3049997D01*
X3341182Y3050000D01*
X3341255Y3050745D01*
X3341472Y3051461D01*
X3341825Y3052121D01*
X3342300Y3052700D01*
X3342879Y3053174D01*
X3343539Y3053528D01*
X3344255Y3053745D01*
X3345000Y3053818D01*
X3495000D01*
X3495745Y3053745D01*
D02*
G37*
G36*
X3241745D02*
X3242461Y3053528D01*
X3243122Y3053174D01*
X3243700Y3052700D01*
X3244175Y3052121D01*
X3244528Y3051461D01*
X3244745Y3050745D01*
X3244819Y3050000D01*
Y2825000D01*
X3244745Y2824255D01*
X3244528Y2823538D01*
X3244175Y2822878D01*
X3243700Y2822300D01*
X3243122Y2821825D01*
X3242461Y2821472D01*
X3241745Y2821255D01*
X3241000Y2821181D01*
X3091000D01*
X3090255Y2821255D01*
X3089539Y2821472D01*
X3088879Y2821825D01*
X3088300Y2822300D01*
X3087825Y2822878D01*
X3087472Y2823538D01*
X3087255Y2824255D01*
X3087182Y2825000D01*
Y2900000D01*
X3087182Y3049997D01*
X3087182Y3050000D01*
X3087255Y3050745D01*
X3087472Y3051461D01*
X3087825Y3052121D01*
X3088300Y3052700D01*
X3088879Y3053174D01*
X3089539Y3053528D01*
X3090255Y3053745D01*
X3091000Y3053818D01*
X3241000D01*
X3241745Y3053745D01*
D02*
G37*
G36*
X2987745D02*
X2988461Y3053528D01*
X2989122Y3053174D01*
X2989700Y3052700D01*
X2990175Y3052121D01*
X2990528Y3051461D01*
X2990745Y3050745D01*
X2990819Y3050000D01*
Y2825000D01*
X2990745Y2824255D01*
X2990528Y2823538D01*
X2990175Y2822878D01*
X2989700Y2822300D01*
X2989122Y2821825D01*
X2988461Y2821472D01*
X2987745Y2821255D01*
X2987000Y2821181D01*
X2837000D01*
X2836255Y2821255D01*
X2835539Y2821472D01*
X2834879Y2821825D01*
X2834300Y2822300D01*
X2833825Y2822878D01*
X2833472Y2823538D01*
X2833255Y2824255D01*
X2833182Y2825000D01*
Y2900000D01*
X2833182Y3049997D01*
X2833182Y3050000D01*
X2833255Y3050745D01*
X2833472Y3051461D01*
X2833825Y3052121D01*
X2834300Y3052700D01*
X2834879Y3053174D01*
X2835539Y3053528D01*
X2836255Y3053745D01*
X2837000Y3053818D01*
X2987000D01*
X2987745Y3053745D01*
D02*
G37*
G36*
X2733745D02*
X2734461Y3053528D01*
X2735122Y3053174D01*
X2735700Y3052700D01*
X2736175Y3052121D01*
X2736528Y3051461D01*
X2736745Y3050745D01*
X2736819Y3050000D01*
Y2825000D01*
X2736745Y2824255D01*
X2736528Y2823538D01*
X2736175Y2822878D01*
X2735700Y2822300D01*
X2735122Y2821825D01*
X2734461Y2821472D01*
X2733745Y2821255D01*
X2733000Y2821181D01*
X2583000D01*
X2582255Y2821255D01*
X2581539Y2821472D01*
X2580879Y2821825D01*
X2580300Y2822300D01*
X2579825Y2822878D01*
X2579472Y2823538D01*
X2579255Y2824255D01*
X2579182Y2825000D01*
Y2900000D01*
X2579182Y3049997D01*
X2579182Y3050000D01*
X2579255Y3050745D01*
X2579472Y3051461D01*
X2579825Y3052121D01*
X2580300Y3052700D01*
X2580879Y3053174D01*
X2581539Y3053528D01*
X2582255Y3053745D01*
X2583000Y3053818D01*
X2733000D01*
X2733745Y3053745D01*
D02*
G37*
G36*
X2479745D02*
X2480461Y3053528D01*
X2481122Y3053174D01*
X2481700Y3052700D01*
X2482175Y3052121D01*
X2482528Y3051461D01*
X2482745Y3050745D01*
X2482819Y3050000D01*
Y2825000D01*
X2482745Y2824255D01*
X2482528Y2823538D01*
X2482175Y2822878D01*
X2481700Y2822300D01*
X2481122Y2821825D01*
X2480461Y2821472D01*
X2479745Y2821255D01*
X2479000Y2821181D01*
X2329000D01*
X2328255Y2821255D01*
X2327539Y2821472D01*
X2326879Y2821825D01*
X2326300Y2822300D01*
X2325825Y2822878D01*
X2325472Y2823538D01*
X2325255Y2824255D01*
X2325182Y2825000D01*
Y2900000D01*
X2325182Y3049997D01*
X2325182Y3050000D01*
X2325255Y3050745D01*
X2325472Y3051461D01*
X2325825Y3052121D01*
X2326300Y3052700D01*
X2326879Y3053174D01*
X2327539Y3053528D01*
X2328255Y3053745D01*
X2329000Y3053818D01*
X2479000D01*
X2479745Y3053745D01*
D02*
G37*
G36*
X2225745D02*
X2226461Y3053528D01*
X2227122Y3053174D01*
X2227700Y3052700D01*
X2228175Y3052121D01*
X2228528Y3051461D01*
X2228745Y3050745D01*
X2228819Y3050000D01*
Y2825000D01*
X2228745Y2824255D01*
X2228528Y2823538D01*
X2228175Y2822878D01*
X2227700Y2822300D01*
X2227122Y2821825D01*
X2226461Y2821472D01*
X2225745Y2821255D01*
X2225000Y2821181D01*
X2075000D01*
X2074255Y2821255D01*
X2073539Y2821472D01*
X2072879Y2821825D01*
X2072300Y2822300D01*
X2071825Y2822878D01*
X2071472Y2823538D01*
X2071255Y2824255D01*
X2071182Y2825000D01*
Y2900000D01*
X2071182Y3049997D01*
X2071182Y3050000D01*
X2071255Y3050745D01*
X2071472Y3051461D01*
X2071825Y3052121D01*
X2072300Y3052700D01*
X2072879Y3053174D01*
X2073539Y3053528D01*
X2074255Y3053745D01*
X2075000Y3053818D01*
X2225000D01*
X2225745Y3053745D01*
D02*
G37*
G36*
X1971745D02*
X1972461Y3053528D01*
X1973122Y3053174D01*
X1973700Y3052700D01*
X1974175Y3052121D01*
X1974528Y3051461D01*
X1974745Y3050745D01*
X1974819Y3050000D01*
Y2825000D01*
X1974745Y2824255D01*
X1974528Y2823538D01*
X1974175Y2822878D01*
X1973700Y2822300D01*
X1973122Y2821825D01*
X1972461Y2821472D01*
X1971745Y2821255D01*
X1971000Y2821181D01*
X1821000D01*
X1820255Y2821255D01*
X1819539Y2821472D01*
X1818879Y2821825D01*
X1818300Y2822300D01*
X1817825Y2822878D01*
X1817472Y2823538D01*
X1817255Y2824255D01*
X1817182Y2825000D01*
Y2900000D01*
X1817182Y3049997D01*
X1817182Y3050000D01*
X1817255Y3050745D01*
X1817472Y3051461D01*
X1817825Y3052121D01*
X1818300Y3052700D01*
X1818879Y3053174D01*
X1819539Y3053528D01*
X1820255Y3053745D01*
X1821000Y3053818D01*
X1971000D01*
X1971745Y3053745D01*
D02*
G37*
G36*
X1717745D02*
X1718461Y3053528D01*
X1719122Y3053174D01*
X1719700Y3052700D01*
X1720175Y3052121D01*
X1720528Y3051461D01*
X1720745Y3050745D01*
X1720819Y3050000D01*
Y2825000D01*
X1720745Y2824255D01*
X1720528Y2823538D01*
X1720175Y2822878D01*
X1719700Y2822300D01*
X1719122Y2821825D01*
X1718461Y2821472D01*
X1717745Y2821255D01*
X1717000Y2821181D01*
X1567000D01*
X1566255Y2821255D01*
X1565539Y2821472D01*
X1564879Y2821825D01*
X1564300Y2822300D01*
X1563825Y2822878D01*
X1563472Y2823538D01*
X1563255Y2824255D01*
X1563182Y2825000D01*
Y2900000D01*
X1563182Y3049997D01*
X1563182Y3050000D01*
X1563255Y3050745D01*
X1563472Y3051461D01*
X1563825Y3052121D01*
X1564300Y3052700D01*
X1564879Y3053174D01*
X1565539Y3053528D01*
X1566255Y3053745D01*
X1567000Y3053818D01*
X1717000D01*
X1717745Y3053745D01*
D02*
G37*
G36*
X1463745D02*
X1464461Y3053528D01*
X1465122Y3053174D01*
X1465700Y3052700D01*
X1466175Y3052121D01*
X1466528Y3051461D01*
X1466745Y3050745D01*
X1466819Y3050000D01*
Y2825000D01*
X1466745Y2824255D01*
X1466528Y2823538D01*
X1466175Y2822878D01*
X1465700Y2822300D01*
X1465122Y2821825D01*
X1464461Y2821472D01*
X1463745Y2821255D01*
X1463000Y2821181D01*
X1313000D01*
X1312255Y2821255D01*
X1311539Y2821472D01*
X1310879Y2821825D01*
X1310300Y2822300D01*
X1309825Y2822878D01*
X1309472Y2823538D01*
X1309255Y2824255D01*
X1309182Y2825000D01*
Y2900000D01*
X1309182Y3049997D01*
X1309182Y3050000D01*
X1309255Y3050745D01*
X1309472Y3051461D01*
X1309825Y3052121D01*
X1310300Y3052700D01*
X1310879Y3053174D01*
X1311539Y3053528D01*
X1312255Y3053745D01*
X1313000Y3053818D01*
X1463000D01*
X1463745Y3053745D01*
D02*
G37*
G36*
X1209745D02*
X1210461Y3053528D01*
X1211122Y3053174D01*
X1211700Y3052700D01*
X1212175Y3052121D01*
X1212528Y3051461D01*
X1212745Y3050745D01*
X1212819Y3050000D01*
Y2825000D01*
X1212745Y2824255D01*
X1212528Y2823538D01*
X1212175Y2822878D01*
X1211700Y2822300D01*
X1211122Y2821825D01*
X1210461Y2821472D01*
X1209745Y2821255D01*
X1209000Y2821181D01*
X1059000D01*
X1058255Y2821255D01*
X1057539Y2821472D01*
X1056879Y2821825D01*
X1056300Y2822300D01*
X1055825Y2822878D01*
X1055472Y2823538D01*
X1055255Y2824255D01*
X1055182Y2825000D01*
Y2900000D01*
X1055182Y3049997D01*
X1055182Y3050000D01*
X1055255Y3050745D01*
X1055472Y3051461D01*
X1055825Y3052121D01*
X1056300Y3052700D01*
X1056879Y3053174D01*
X1057539Y3053528D01*
X1058255Y3053745D01*
X1059000Y3053818D01*
X1209000D01*
X1209745Y3053745D01*
D02*
G37*
G36*
X955745D02*
X956461Y3053528D01*
X957122Y3053174D01*
X957700Y3052700D01*
X958175Y3052121D01*
X958528Y3051461D01*
X958745Y3050745D01*
X958819Y3050000D01*
Y2825000D01*
X958745Y2824255D01*
X958528Y2823538D01*
X958175Y2822878D01*
X957700Y2822300D01*
X957122Y2821825D01*
X956461Y2821472D01*
X955745Y2821255D01*
X955000Y2821181D01*
X805000D01*
X804255Y2821255D01*
X803539Y2821472D01*
X802879Y2821825D01*
X802300Y2822300D01*
X801825Y2822878D01*
X801472Y2823538D01*
X801255Y2824255D01*
X801182Y2825000D01*
Y2900000D01*
X801182Y3049997D01*
X801182Y3050000D01*
X801255Y3050745D01*
X801472Y3051461D01*
X801825Y3052121D01*
X802300Y3052700D01*
X802879Y3053174D01*
X803539Y3053528D01*
X804255Y3053745D01*
X805000Y3053818D01*
X955000D01*
X955745Y3053745D01*
D02*
G37*
G36*
X701745D02*
X702461Y3053528D01*
X703122Y3053174D01*
X703700Y3052700D01*
X704175Y3052121D01*
X704528Y3051461D01*
X704745Y3050745D01*
X704819Y3050000D01*
Y2825000D01*
X704745Y2824255D01*
X704528Y2823538D01*
X704175Y2822878D01*
X703700Y2822300D01*
X703122Y2821825D01*
X702461Y2821472D01*
X701745Y2821255D01*
X701000Y2821181D01*
X551000D01*
X550255Y2821255D01*
X549539Y2821472D01*
X548879Y2821825D01*
X548300Y2822300D01*
X547825Y2822878D01*
X547472Y2823538D01*
X547255Y2824255D01*
X547182Y2825000D01*
Y2900000D01*
X547182Y3049997D01*
X547182Y3050000D01*
X547255Y3050745D01*
X547472Y3051461D01*
X547825Y3052121D01*
X548300Y3052700D01*
X548879Y3053174D01*
X549539Y3053528D01*
X550255Y3053745D01*
X551000Y3053818D01*
X701000D01*
X701745Y3053745D01*
D02*
G37*
G36*
X447745D02*
X448461Y3053528D01*
X449122Y3053174D01*
X449700Y3052700D01*
X450175Y3052121D01*
X450528Y3051461D01*
X450745Y3050745D01*
X450819Y3050000D01*
Y2825000D01*
X450745Y2824255D01*
X450528Y2823538D01*
X450175Y2822878D01*
X449700Y2822300D01*
X449122Y2821825D01*
X448461Y2821472D01*
X447745Y2821255D01*
X447000Y2821181D01*
X297000D01*
X296255Y2821255D01*
X295539Y2821472D01*
X294879Y2821825D01*
X294300Y2822300D01*
X293825Y2822878D01*
X293472Y2823538D01*
X293255Y2824255D01*
X293182Y2825000D01*
Y2900000D01*
X293182Y3049997D01*
X293182Y3050000D01*
X293255Y3050745D01*
X293472Y3051461D01*
X293825Y3052121D01*
X294300Y3052700D01*
X294879Y3053174D01*
X295539Y3053528D01*
X296255Y3053745D01*
X297000Y3053818D01*
X447000D01*
X447745Y3053745D01*
D02*
G37*
G36*
X193745D02*
X194461Y3053528D01*
X195122Y3053174D01*
X195700Y3052700D01*
X196175Y3052121D01*
X196528Y3051461D01*
X196745Y3050745D01*
X196819Y3050000D01*
Y2825000D01*
X196745Y2824255D01*
X196528Y2823538D01*
X196175Y2822878D01*
X195700Y2822300D01*
X195122Y2821825D01*
X194461Y2821472D01*
X193745Y2821255D01*
X193000Y2821181D01*
X43000D01*
X42255Y2821255D01*
X41539Y2821472D01*
X40879Y2821825D01*
X40300Y2822300D01*
X39825Y2822878D01*
X39472Y2823538D01*
X39255Y2824255D01*
X39182Y2825000D01*
Y2900000D01*
X39182Y3049997D01*
X39182Y3050000D01*
X39255Y3050745D01*
X39472Y3051461D01*
X39825Y3052121D01*
X40300Y3052700D01*
X40879Y3053174D01*
X41539Y3053528D01*
X42255Y3053745D01*
X43000Y3053818D01*
X193000D01*
X193745Y3053745D01*
D02*
G37*
G36*
X1450859Y1249297D02*
X1456328Y1248516D01*
X1461797Y1246953D01*
X1470391Y1243047D01*
X1471953Y1242266D01*
X1476640Y1239141D01*
X1478203Y1238359D01*
X1480547Y1236016D01*
X1482109Y1235235D01*
X1484062Y1233282D01*
X1484844Y1231719D01*
X1487969Y1228594D01*
X1488750Y1227031D01*
X1489922Y1225860D01*
X1494609Y1218047D01*
X1496172Y1214141D01*
X1498125Y1209063D01*
X1499687Y1202813D01*
X1501640Y1198516D01*
X1503203Y1197734D01*
X1522734Y1178203D01*
X1524297Y1177422D01*
X1543828Y1157891D01*
X1545390Y1157109D01*
X1564140Y1138360D01*
X1565703Y1137578D01*
X1585625Y1117656D01*
X1586015Y1117266D01*
X1586797D01*
X1606328Y1097735D01*
X1607891Y1096953D01*
X1626640Y1078203D01*
X1628203Y1077422D01*
X1636797Y1068828D01*
X1638359Y1068047D01*
X1651641Y1061797D01*
X1657109Y1057891D01*
X1658672Y1057110D01*
X1661797Y1053984D01*
X1663359Y1053203D01*
X1666484Y1050078D01*
X1670000Y1045782D01*
X1675469Y1038750D01*
X1682109Y1026641D01*
X1685625Y1016875D01*
X1686406Y1013750D01*
X1687187Y1011406D01*
X1687969Y1002813D01*
X1688750Y1000469D01*
X1687969Y987969D01*
X1686406Y978594D01*
X1685234Y974297D01*
X1684453Y971172D01*
X1682109Y964922D01*
X1681328Y961016D01*
X1679765Y951641D01*
X1678984Y947734D01*
X1677422Y938360D01*
X1676641Y934453D01*
X1675078Y925078D01*
X1674297Y921172D01*
X1671953Y907109D01*
X1671172Y903203D01*
X1669609Y893828D01*
X1668828Y889922D01*
X1667265Y880547D01*
X1666484Y876641D01*
X1664922Y867266D01*
X1664140Y863359D01*
X1661797Y849297D01*
X1661015Y845391D01*
X1659453Y836016D01*
X1658672Y832110D01*
X1657109Y822734D01*
X1656328Y818828D01*
X1654766Y809453D01*
X1653984Y805547D01*
X1651641Y791485D01*
X1650859Y787578D01*
X1649297Y778203D01*
X1648515Y774297D01*
X1646953Y764922D01*
X1646172Y761016D01*
X1644609Y751641D01*
X1643828Y747735D01*
X1641484Y733672D01*
X1640703Y729766D01*
X1639922Y725078D01*
X1638750Y717656D01*
X1639922Y716484D01*
X1641484Y715703D01*
X1646562Y710625D01*
X1647344Y702813D01*
X1645781Y698906D01*
X1645000Y697344D01*
X1636406Y688750D01*
X1635625Y687188D01*
X1626250Y677813D01*
X1625469Y676250D01*
X1616094Y666875D01*
X1615312Y665313D01*
X1605937Y655938D01*
X1605156Y654375D01*
X1595781Y645000D01*
X1595000Y643438D01*
X1585625Y634063D01*
X1584844Y632500D01*
X1575469Y623125D01*
X1574687Y621563D01*
X1565312Y612188D01*
X1564531Y610625D01*
X1555156Y601250D01*
X1554375Y599688D01*
X1545000Y590313D01*
X1544219Y588750D01*
X1534844Y579375D01*
X1534062Y577813D01*
X1524687Y568438D01*
X1523906Y566875D01*
X1514531Y557500D01*
X1513750Y555938D01*
X1510234Y552422D01*
X1507500Y550469D01*
X1502422Y548516D01*
X1496172Y550078D01*
X1492656Y553594D01*
X1489922Y557891D01*
X1487969Y557500D01*
X1484844Y556719D01*
X1480937Y555938D01*
X1459062Y550469D01*
X1455156Y549688D01*
X1433281Y544219D01*
X1429375Y543438D01*
X1407500Y537969D01*
X1403594Y537188D01*
X1381719Y531719D01*
X1377812Y530938D01*
X1355937Y525469D01*
X1352031Y524688D01*
X1330156Y519219D01*
X1326250Y518438D01*
X1304375Y512969D01*
X1300469Y512188D01*
X1278594Y506719D01*
X1274687Y505938D01*
X1255937Y501250D01*
X1250859Y500078D01*
X1244609Y498516D01*
X1240312Y496563D01*
X1232890Y493828D01*
X1228984Y492266D01*
X1224297Y491484D01*
X1221953Y490703D01*
X1207109Y489922D01*
X1196953Y490703D01*
X1190703Y492266D01*
X1182890Y494610D01*
X1171172Y500078D01*
X1169609Y500860D01*
X1164922Y503985D01*
X1163359Y504766D01*
X1160234Y507891D01*
X1158672Y508672D01*
X1151250Y516094D01*
X1150469Y517656D01*
X1148906Y519219D01*
X1148125Y520781D01*
X1146562Y522344D01*
X1139531Y535625D01*
X1132109Y543047D01*
X1130547Y543828D01*
X1122734Y551641D01*
X1121172Y552422D01*
X1113359Y560235D01*
X1111797Y561016D01*
X1103984Y568828D01*
X1102422Y569609D01*
X1094609Y577422D01*
X1093047Y578203D01*
X1086015Y585235D01*
X1084453Y586016D01*
X1076640Y593828D01*
X1075078Y594609D01*
X1067265Y602422D01*
X1065703Y603203D01*
X1057890Y611016D01*
X1056328Y611797D01*
X1048516Y619610D01*
X1046953Y620391D01*
X1039922Y627422D01*
X1038359Y628203D01*
X1030547Y636016D01*
X1028984Y636797D01*
X1021172Y644610D01*
X1019609Y645391D01*
X1011797Y653203D01*
X1010234Y653984D01*
X1002422Y661797D01*
X1000859Y662578D01*
X998515Y664922D01*
X989141Y667266D01*
X982500Y669219D01*
X977422Y671172D01*
X971172Y675078D01*
X969609Y675859D01*
X968047Y677422D01*
X966484Y678203D01*
X957500Y687188D01*
X956718Y688750D01*
X955547Y689922D01*
X951640Y696172D01*
X947734Y704766D01*
X946953Y707891D01*
X945781Y712969D01*
X945000Y718438D01*
X945781Y730938D01*
X947344Y737188D01*
X948906Y742656D01*
X950469Y746563D01*
X952422Y750860D01*
X953203Y761797D01*
X961797Y936016D01*
X964140Y983672D01*
X965312Y1009844D01*
X966875Y1015313D01*
X968047Y1016485D01*
X982890Y1024297D01*
X987578Y1023516D01*
X991094Y1020000D01*
X991875Y1015313D01*
X993047Y1014922D01*
X1005937Y1041094D01*
X1011406Y1049688D01*
X1012187Y1051250D01*
X1015312Y1055938D01*
X1016093Y1057500D01*
X1023906Y1068438D01*
X1024687Y1070000D01*
X1026250Y1071563D01*
X1027031Y1073125D01*
X1028594Y1074688D01*
X1029375Y1076250D01*
X1031719Y1078594D01*
X1032500Y1080156D01*
X1034843Y1082500D01*
X1035625Y1084063D01*
X1038750Y1087188D01*
X1039531Y1088750D01*
X1044219Y1093438D01*
X1045000Y1095000D01*
X1068047Y1118047D01*
X1069609Y1118828D01*
X1074297Y1123516D01*
X1075859Y1124297D01*
X1079765Y1128203D01*
X1081328Y1128985D01*
X1083672Y1131328D01*
X1085234Y1132109D01*
X1087578Y1134453D01*
X1089141Y1135234D01*
X1090312Y1136406D01*
X1105547Y1147735D01*
X1107109Y1148516D01*
X1112578Y1152422D01*
X1114141Y1153203D01*
X1119609Y1157109D01*
X1121172Y1157891D01*
X1125859Y1161016D01*
X1132891Y1164922D01*
X1139140Y1168828D01*
X1155547Y1177422D01*
X1161015Y1179766D01*
X1167656Y1182500D01*
X1150859Y1183672D01*
X1145390Y1184453D01*
X1141875Y1187969D01*
X1141093Y1193438D01*
X1145000Y1202031D01*
X1145781Y1205156D01*
X1150078Y1209453D01*
X1152812Y1210625D01*
X1165312Y1212188D01*
X1186406Y1214531D01*
X1192656Y1215313D01*
X1213750Y1217656D01*
X1220000Y1218438D01*
X1241094Y1220781D01*
X1247344Y1221563D01*
X1268437Y1223906D01*
X1274687Y1224688D01*
X1295781Y1227031D01*
X1302031Y1227813D01*
X1323125Y1230157D01*
X1329375Y1230938D01*
X1357500Y1234063D01*
X1363750Y1234844D01*
X1384844Y1237188D01*
X1391093Y1237969D01*
X1398125Y1238750D01*
X1409453Y1239922D01*
X1422734Y1246172D01*
X1426641Y1247735D01*
X1429765Y1248516D01*
X1432109Y1249297D01*
X1447734Y1250078D01*
X1450859Y1249297D01*
D02*
G37*
G36*
X4257745Y228745D02*
X4258461Y228528D01*
X4259122Y228175D01*
X4259700Y227700D01*
X4260175Y227121D01*
X4260528Y226461D01*
X4260745Y225745D01*
X4260819Y225000D01*
Y150000D01*
X4260818Y3D01*
X4260819Y0D01*
X4260745Y-745D01*
X4260528Y-1461D01*
X4260175Y-2121D01*
X4259700Y-2700D01*
X4259122Y-3175D01*
X4258461Y-3528D01*
X4257745Y-3745D01*
X4257000Y-3818D01*
X4107000D01*
X4106255Y-3745D01*
X4105539Y-3528D01*
X4104879Y-3175D01*
X4104300Y-2700D01*
X4103825Y-2121D01*
X4103472Y-1461D01*
X4103255Y-745D01*
X4103182Y0D01*
Y225000D01*
X4103255Y225745D01*
X4103472Y226461D01*
X4103825Y227121D01*
X4104300Y227700D01*
X4104879Y228175D01*
X4105539Y228528D01*
X4106255Y228745D01*
X4107000Y228818D01*
X4257000D01*
X4257745Y228745D01*
D02*
G37*
G36*
X4003745D02*
X4004461Y228528D01*
X4005122Y228175D01*
X4005700Y227700D01*
X4006175Y227121D01*
X4006528Y226461D01*
X4006745Y225745D01*
X4006819Y225000D01*
Y150000D01*
X4006818Y3D01*
X4006819Y0D01*
X4006745Y-745D01*
X4006528Y-1461D01*
X4006175Y-2121D01*
X4005700Y-2700D01*
X4005122Y-3175D01*
X4004461Y-3528D01*
X4003745Y-3745D01*
X4003000Y-3818D01*
X3853000D01*
X3852255Y-3745D01*
X3851539Y-3528D01*
X3850879Y-3175D01*
X3850300Y-2700D01*
X3849825Y-2121D01*
X3849472Y-1461D01*
X3849255Y-745D01*
X3849182Y0D01*
Y225000D01*
X3849255Y225745D01*
X3849472Y226461D01*
X3849825Y227121D01*
X3850300Y227700D01*
X3850879Y228175D01*
X3851539Y228528D01*
X3852255Y228745D01*
X3853000Y228818D01*
X4003000D01*
X4003745Y228745D01*
D02*
G37*
G36*
X3749745D02*
X3750461Y228528D01*
X3751122Y228175D01*
X3751700Y227700D01*
X3752175Y227121D01*
X3752528Y226461D01*
X3752745Y225745D01*
X3752819Y225000D01*
Y150000D01*
X3752818Y3D01*
X3752819Y0D01*
X3752745Y-745D01*
X3752528Y-1461D01*
X3752175Y-2121D01*
X3751700Y-2700D01*
X3751122Y-3175D01*
X3750461Y-3528D01*
X3749745Y-3745D01*
X3749000Y-3818D01*
X3599000D01*
X3598255Y-3745D01*
X3597539Y-3528D01*
X3596879Y-3175D01*
X3596300Y-2700D01*
X3595825Y-2121D01*
X3595472Y-1461D01*
X3595255Y-745D01*
X3595182Y0D01*
Y225000D01*
X3595255Y225745D01*
X3595472Y226461D01*
X3595825Y227121D01*
X3596300Y227700D01*
X3596879Y228175D01*
X3597539Y228528D01*
X3598255Y228745D01*
X3599000Y228818D01*
X3749000D01*
X3749745Y228745D01*
D02*
G37*
G36*
X3495745D02*
X3496461Y228528D01*
X3497122Y228175D01*
X3497700Y227700D01*
X3498175Y227121D01*
X3498528Y226461D01*
X3498745Y225745D01*
X3498819Y225000D01*
Y150000D01*
X3498818Y3D01*
X3498819Y0D01*
X3498745Y-745D01*
X3498528Y-1461D01*
X3498175Y-2121D01*
X3497700Y-2700D01*
X3497122Y-3175D01*
X3496461Y-3528D01*
X3495745Y-3745D01*
X3495000Y-3818D01*
X3345000D01*
X3344255Y-3745D01*
X3343539Y-3528D01*
X3342879Y-3175D01*
X3342300Y-2700D01*
X3341825Y-2121D01*
X3341472Y-1461D01*
X3341255Y-745D01*
X3341182Y0D01*
Y225000D01*
X3341255Y225745D01*
X3341472Y226461D01*
X3341825Y227121D01*
X3342300Y227700D01*
X3342879Y228175D01*
X3343539Y228528D01*
X3344255Y228745D01*
X3345000Y228818D01*
X3495000D01*
X3495745Y228745D01*
D02*
G37*
G36*
X3241745D02*
X3242461Y228528D01*
X3243122Y228175D01*
X3243700Y227700D01*
X3244175Y227121D01*
X3244528Y226461D01*
X3244745Y225745D01*
X3244819Y225000D01*
Y150000D01*
X3244818Y3D01*
X3244819Y0D01*
X3244745Y-745D01*
X3244528Y-1461D01*
X3244175Y-2121D01*
X3243700Y-2700D01*
X3243122Y-3175D01*
X3242461Y-3528D01*
X3241745Y-3745D01*
X3241000Y-3818D01*
X3091000D01*
X3090255Y-3745D01*
X3089539Y-3528D01*
X3088879Y-3175D01*
X3088300Y-2700D01*
X3087825Y-2121D01*
X3087472Y-1461D01*
X3087255Y-745D01*
X3087182Y0D01*
Y225000D01*
X3087255Y225745D01*
X3087472Y226461D01*
X3087825Y227121D01*
X3088300Y227700D01*
X3088879Y228175D01*
X3089539Y228528D01*
X3090255Y228745D01*
X3091000Y228818D01*
X3241000D01*
X3241745Y228745D01*
D02*
G37*
G36*
X2987745D02*
X2988461Y228528D01*
X2989122Y228175D01*
X2989700Y227700D01*
X2990175Y227121D01*
X2990528Y226461D01*
X2990745Y225745D01*
X2990819Y225000D01*
Y150000D01*
X2990818Y3D01*
X2990819Y0D01*
X2990745Y-745D01*
X2990528Y-1461D01*
X2990175Y-2121D01*
X2989700Y-2700D01*
X2989122Y-3175D01*
X2988461Y-3528D01*
X2987745Y-3745D01*
X2987000Y-3818D01*
X2837000D01*
X2836255Y-3745D01*
X2835539Y-3528D01*
X2834879Y-3175D01*
X2834300Y-2700D01*
X2833825Y-2121D01*
X2833472Y-1461D01*
X2833255Y-745D01*
X2833182Y0D01*
Y225000D01*
X2833255Y225745D01*
X2833472Y226461D01*
X2833825Y227121D01*
X2834300Y227700D01*
X2834879Y228175D01*
X2835539Y228528D01*
X2836255Y228745D01*
X2837000Y228818D01*
X2987000D01*
X2987745Y228745D01*
D02*
G37*
G36*
X2733745D02*
X2734461Y228528D01*
X2735122Y228175D01*
X2735700Y227700D01*
X2736175Y227121D01*
X2736528Y226461D01*
X2736745Y225745D01*
X2736819Y225000D01*
Y150000D01*
X2736818Y3D01*
X2736819Y0D01*
X2736745Y-745D01*
X2736528Y-1461D01*
X2736175Y-2121D01*
X2735700Y-2700D01*
X2735122Y-3175D01*
X2734461Y-3528D01*
X2733745Y-3745D01*
X2733000Y-3818D01*
X2583000D01*
X2582255Y-3745D01*
X2581539Y-3528D01*
X2580879Y-3175D01*
X2580300Y-2700D01*
X2579825Y-2121D01*
X2579472Y-1461D01*
X2579255Y-745D01*
X2579182Y0D01*
Y225000D01*
X2579255Y225745D01*
X2579472Y226461D01*
X2579825Y227121D01*
X2580300Y227700D01*
X2580879Y228175D01*
X2581539Y228528D01*
X2582255Y228745D01*
X2583000Y228818D01*
X2733000D01*
X2733745Y228745D01*
D02*
G37*
G36*
X2479745D02*
X2480461Y228528D01*
X2481122Y228175D01*
X2481700Y227700D01*
X2482175Y227121D01*
X2482528Y226461D01*
X2482745Y225745D01*
X2482819Y225000D01*
Y150000D01*
X2482818Y3D01*
X2482819Y0D01*
X2482745Y-745D01*
X2482528Y-1461D01*
X2482175Y-2121D01*
X2481700Y-2700D01*
X2481122Y-3175D01*
X2480461Y-3528D01*
X2479745Y-3745D01*
X2479000Y-3818D01*
X2329000D01*
X2328255Y-3745D01*
X2327539Y-3528D01*
X2326879Y-3175D01*
X2326300Y-2700D01*
X2325825Y-2121D01*
X2325472Y-1461D01*
X2325255Y-745D01*
X2325182Y0D01*
Y225000D01*
X2325255Y225745D01*
X2325472Y226461D01*
X2325825Y227121D01*
X2326300Y227700D01*
X2326879Y228175D01*
X2327539Y228528D01*
X2328255Y228745D01*
X2329000Y228818D01*
X2479000D01*
X2479745Y228745D01*
D02*
G37*
G36*
X2225745D02*
X2226461Y228528D01*
X2227122Y228175D01*
X2227700Y227700D01*
X2228175Y227121D01*
X2228528Y226461D01*
X2228745Y225745D01*
X2228819Y225000D01*
Y150000D01*
X2228818Y3D01*
X2228819Y0D01*
X2228745Y-745D01*
X2228528Y-1461D01*
X2228175Y-2121D01*
X2227700Y-2700D01*
X2227122Y-3175D01*
X2226461Y-3528D01*
X2225745Y-3745D01*
X2225000Y-3818D01*
X2075000D01*
X2074255Y-3745D01*
X2073539Y-3528D01*
X2072879Y-3175D01*
X2072300Y-2700D01*
X2071825Y-2121D01*
X2071472Y-1461D01*
X2071255Y-745D01*
X2071182Y0D01*
Y225000D01*
X2071255Y225745D01*
X2071472Y226461D01*
X2071825Y227121D01*
X2072300Y227700D01*
X2072879Y228175D01*
X2073539Y228528D01*
X2074255Y228745D01*
X2075000Y228818D01*
X2225000D01*
X2225745Y228745D01*
D02*
G37*
G36*
X1971745D02*
X1972461Y228528D01*
X1973122Y228175D01*
X1973700Y227700D01*
X1974175Y227121D01*
X1974528Y226461D01*
X1974745Y225745D01*
X1974819Y225000D01*
Y150000D01*
X1974818Y3D01*
X1974819Y0D01*
X1974745Y-745D01*
X1974528Y-1461D01*
X1974175Y-2121D01*
X1973700Y-2700D01*
X1973122Y-3175D01*
X1972461Y-3528D01*
X1971745Y-3745D01*
X1971000Y-3818D01*
X1821000D01*
X1820255Y-3745D01*
X1819539Y-3528D01*
X1818879Y-3175D01*
X1818300Y-2700D01*
X1817825Y-2121D01*
X1817472Y-1461D01*
X1817255Y-745D01*
X1817182Y0D01*
Y225000D01*
X1817255Y225745D01*
X1817472Y226461D01*
X1817825Y227121D01*
X1818300Y227700D01*
X1818879Y228175D01*
X1819539Y228528D01*
X1820255Y228745D01*
X1821000Y228818D01*
X1971000D01*
X1971745Y228745D01*
D02*
G37*
G36*
X1717745D02*
X1718461Y228528D01*
X1719122Y228175D01*
X1719700Y227700D01*
X1720175Y227121D01*
X1720528Y226461D01*
X1720745Y225745D01*
X1720819Y225000D01*
Y150000D01*
X1720818Y3D01*
X1720819Y0D01*
X1720745Y-745D01*
X1720528Y-1461D01*
X1720175Y-2121D01*
X1719700Y-2700D01*
X1719122Y-3175D01*
X1718461Y-3528D01*
X1717745Y-3745D01*
X1717000Y-3818D01*
X1567000D01*
X1566255Y-3745D01*
X1565539Y-3528D01*
X1564879Y-3175D01*
X1564300Y-2700D01*
X1563825Y-2121D01*
X1563472Y-1461D01*
X1563255Y-745D01*
X1563182Y0D01*
Y225000D01*
X1563255Y225745D01*
X1563472Y226461D01*
X1563825Y227121D01*
X1564300Y227700D01*
X1564879Y228175D01*
X1565539Y228528D01*
X1566255Y228745D01*
X1567000Y228818D01*
X1717000D01*
X1717745Y228745D01*
D02*
G37*
G36*
X1463745D02*
X1464461Y228528D01*
X1465122Y228175D01*
X1465700Y227700D01*
X1466175Y227121D01*
X1466528Y226461D01*
X1466745Y225745D01*
X1466819Y225000D01*
Y150000D01*
X1466818Y3D01*
X1466819Y0D01*
X1466745Y-745D01*
X1466528Y-1461D01*
X1466175Y-2121D01*
X1465700Y-2700D01*
X1465122Y-3175D01*
X1464461Y-3528D01*
X1463745Y-3745D01*
X1463000Y-3818D01*
X1313000D01*
X1312255Y-3745D01*
X1311539Y-3528D01*
X1310879Y-3175D01*
X1310300Y-2700D01*
X1309825Y-2121D01*
X1309472Y-1461D01*
X1309255Y-745D01*
X1309182Y0D01*
Y225000D01*
X1309255Y225745D01*
X1309472Y226461D01*
X1309825Y227121D01*
X1310300Y227700D01*
X1310879Y228175D01*
X1311539Y228528D01*
X1312255Y228745D01*
X1313000Y228818D01*
X1463000D01*
X1463745Y228745D01*
D02*
G37*
G36*
X1209745D02*
X1210461Y228528D01*
X1211122Y228175D01*
X1211700Y227700D01*
X1212175Y227121D01*
X1212528Y226461D01*
X1212745Y225745D01*
X1212819Y225000D01*
Y150000D01*
X1212818Y3D01*
X1212819Y0D01*
X1212745Y-745D01*
X1212528Y-1461D01*
X1212175Y-2121D01*
X1211700Y-2700D01*
X1211122Y-3175D01*
X1210461Y-3528D01*
X1209745Y-3745D01*
X1209000Y-3818D01*
X1059000D01*
X1058255Y-3745D01*
X1057539Y-3528D01*
X1056879Y-3175D01*
X1056300Y-2700D01*
X1055825Y-2121D01*
X1055472Y-1461D01*
X1055255Y-745D01*
X1055182Y0D01*
Y225000D01*
X1055255Y225745D01*
X1055472Y226461D01*
X1055825Y227121D01*
X1056300Y227700D01*
X1056879Y228175D01*
X1057539Y228528D01*
X1058255Y228745D01*
X1059000Y228818D01*
X1209000D01*
X1209745Y228745D01*
D02*
G37*
G36*
X955745D02*
X956461Y228528D01*
X957122Y228175D01*
X957700Y227700D01*
X958175Y227121D01*
X958528Y226461D01*
X958745Y225745D01*
X958819Y225000D01*
Y150000D01*
X958818Y3D01*
X958819Y0D01*
X958745Y-745D01*
X958528Y-1461D01*
X958175Y-2121D01*
X957700Y-2700D01*
X957122Y-3175D01*
X956461Y-3528D01*
X955745Y-3745D01*
X955000Y-3818D01*
X805000D01*
X804255Y-3745D01*
X803539Y-3528D01*
X802879Y-3175D01*
X802300Y-2700D01*
X801825Y-2121D01*
X801472Y-1461D01*
X801255Y-745D01*
X801182Y0D01*
Y225000D01*
X801255Y225745D01*
X801472Y226461D01*
X801825Y227121D01*
X802300Y227700D01*
X802879Y228175D01*
X803539Y228528D01*
X804255Y228745D01*
X805000Y228818D01*
X955000D01*
X955745Y228745D01*
D02*
G37*
G36*
X701745D02*
X702461Y228528D01*
X703122Y228175D01*
X703700Y227700D01*
X704175Y227121D01*
X704528Y226461D01*
X704745Y225745D01*
X704819Y225000D01*
Y150000D01*
X704818Y3D01*
X704819Y0D01*
X704745Y-745D01*
X704528Y-1461D01*
X704175Y-2121D01*
X703700Y-2700D01*
X703122Y-3175D01*
X702461Y-3528D01*
X701745Y-3745D01*
X701000Y-3818D01*
X551000D01*
X550255Y-3745D01*
X549539Y-3528D01*
X548879Y-3175D01*
X548300Y-2700D01*
X547825Y-2121D01*
X547472Y-1461D01*
X547255Y-745D01*
X547182Y0D01*
Y225000D01*
X547255Y225745D01*
X547472Y226461D01*
X547825Y227121D01*
X548300Y227700D01*
X548879Y228175D01*
X549539Y228528D01*
X550255Y228745D01*
X551000Y228818D01*
X701000D01*
X701745Y228745D01*
D02*
G37*
G36*
X447745D02*
X448461Y228528D01*
X449122Y228175D01*
X449700Y227700D01*
X450175Y227121D01*
X450528Y226461D01*
X450745Y225745D01*
X450819Y225000D01*
Y150000D01*
X450818Y3D01*
X450819Y0D01*
X450745Y-745D01*
X450528Y-1461D01*
X450175Y-2121D01*
X449700Y-2700D01*
X449122Y-3175D01*
X448461Y-3528D01*
X447745Y-3745D01*
X447000Y-3818D01*
X297000D01*
X296255Y-3745D01*
X295539Y-3528D01*
X294879Y-3175D01*
X294300Y-2700D01*
X293825Y-2121D01*
X293472Y-1461D01*
X293255Y-745D01*
X293182Y0D01*
Y225000D01*
X293255Y225745D01*
X293472Y226461D01*
X293825Y227121D01*
X294300Y227700D01*
X294879Y228175D01*
X295539Y228528D01*
X296255Y228745D01*
X297000Y228818D01*
X447000D01*
X447745Y228745D01*
D02*
G37*
G36*
X193745D02*
X194461Y228528D01*
X195122Y228175D01*
X195700Y227700D01*
X196175Y227121D01*
X196528Y226461D01*
X196745Y225745D01*
X196819Y225000D01*
Y150000D01*
X196818Y3D01*
X196819Y0D01*
X196745Y-745D01*
X196528Y-1461D01*
X196175Y-2121D01*
X195700Y-2700D01*
X195122Y-3175D01*
X194461Y-3528D01*
X193745Y-3745D01*
X193000Y-3818D01*
X43000D01*
X42255Y-3745D01*
X41539Y-3528D01*
X40879Y-3175D01*
X40300Y-2700D01*
X39825Y-2121D01*
X39472Y-1461D01*
X39255Y-745D01*
X39182Y0D01*
Y225000D01*
X39255Y225745D01*
X39472Y226461D01*
X39825Y227121D01*
X40300Y227700D01*
X40879Y228175D01*
X41539Y228528D01*
X42255Y228745D01*
X43000Y228818D01*
X193000D01*
X193745Y228745D01*
D02*
G37*
%LPC*%
G36*
X1396172Y1226641D02*
X1389531Y1226250D01*
X1382500Y1225469D01*
X1376250Y1224688D01*
X1362187Y1223125D01*
X1355937Y1222344D01*
X1341875Y1220781D01*
X1335625Y1220000D01*
X1314531Y1217656D01*
X1308281Y1216875D01*
X1294219Y1215313D01*
X1287968Y1214531D01*
X1273906Y1212969D01*
X1267656Y1212188D01*
X1246562Y1209844D01*
X1240312Y1209063D01*
X1226250Y1207500D01*
X1220000Y1206719D01*
X1205937Y1205156D01*
X1199687Y1204375D01*
X1178594Y1202031D01*
X1161797Y1200078D01*
X1156328Y1199297D01*
X1154375Y1195781D01*
X1154766Y1195391D01*
X1166875Y1194219D01*
X1180156Y1193438D01*
X1192656Y1192656D01*
X1205937Y1191875D01*
X1218437Y1191094D01*
X1231719Y1190313D01*
X1244218Y1189532D01*
X1270781Y1187969D01*
X1283281Y1187188D01*
X1296562Y1186406D01*
X1309062Y1185625D01*
X1322344Y1184844D01*
X1334844Y1184063D01*
X1348125Y1183281D01*
X1370390Y1182110D01*
X1371953D01*
X1374297Y1181328D01*
X1387969Y1181719D01*
X1387187Y1182500D01*
X1386406Y1195000D01*
X1387187Y1202813D01*
X1389531Y1212188D01*
X1395000Y1223906D01*
X1396562Y1225469D01*
X1396172Y1226641D01*
D02*
G37*
G36*
X1439922Y1238359D02*
X1430547Y1236797D01*
X1418828Y1231328D01*
X1417265Y1230547D01*
X1415703Y1228985D01*
X1414140Y1228203D01*
X1410625Y1224688D01*
X1405156Y1217656D01*
X1401641Y1211016D01*
X1399687Y1205938D01*
X1398906Y1203594D01*
X1398125Y1191875D01*
X1398906Y1184063D01*
X1400859Y1177422D01*
X1401250Y1177031D01*
Y1176250D01*
X1402812Y1172344D01*
X1405937Y1167657D01*
X1406719Y1166094D01*
X1409062Y1163750D01*
X1409844Y1162188D01*
X1411797Y1160235D01*
X1413359Y1159453D01*
X1415312Y1157500D01*
X1421562Y1153594D01*
X1426250Y1151250D01*
X1430156Y1149688D01*
X1433281Y1148907D01*
X1443047Y1147735D01*
X1450859Y1148516D01*
X1457109Y1150078D01*
X1468828Y1155547D01*
X1470391Y1156328D01*
X1477422Y1163360D01*
X1480937Y1167657D01*
X1484062Y1173125D01*
X1484844Y1174688D01*
X1486406Y1178594D01*
X1487187Y1180938D01*
X1488750Y1191094D01*
X1487969Y1201250D01*
X1486797Y1205547D01*
X1486016Y1208672D01*
X1484062Y1213750D01*
X1480937Y1218438D01*
X1480156Y1220000D01*
X1478594Y1221563D01*
X1477812Y1223125D01*
X1474297Y1226641D01*
X1472734Y1227422D01*
X1470781Y1229375D01*
X1462969Y1234063D01*
X1457890Y1236016D01*
X1453984Y1237578D01*
X1439922Y1238359D01*
D02*
G37*
G36*
X1197734Y1180547D02*
X1192265Y1178984D01*
X1185625Y1177031D01*
X1178203Y1174297D01*
X1166484Y1169610D01*
X1153203Y1163360D01*
X1141484Y1157109D01*
X1136797Y1153984D01*
X1135234Y1153203D01*
X1128984Y1149297D01*
X1127422Y1148516D01*
X1121953Y1144610D01*
X1120390Y1143828D01*
X1114922Y1139922D01*
X1113359Y1139141D01*
X1111797Y1137578D01*
X1110234Y1136797D01*
X1108672Y1135234D01*
X1107109Y1134453D01*
X1105547Y1132891D01*
X1103984Y1132109D01*
X1102422Y1130547D01*
X1100859Y1129766D01*
X1099297Y1128203D01*
X1097734Y1127422D01*
X1095390Y1125078D01*
X1093828Y1124297D01*
X1090703Y1121172D01*
X1089141Y1120391D01*
X1085234Y1116484D01*
X1083672Y1115703D01*
X1076640Y1108672D01*
X1075078Y1107891D01*
X1057500Y1090313D01*
X1056718Y1088750D01*
X1050469Y1082500D01*
X1049687Y1080938D01*
X1045781Y1077031D01*
X1045000Y1075469D01*
X1041875Y1072344D01*
X1041094Y1070781D01*
X1039922Y1069609D01*
X1028594Y1054375D01*
X1027812Y1052813D01*
X1023906Y1047344D01*
X1023125Y1045782D01*
X1020000Y1041094D01*
X1016875Y1035625D01*
X1012969Y1028594D01*
X1150859Y1028203D01*
X1153984Y1027422D01*
X1159453Y1025078D01*
X1161015Y1024297D01*
X1163750Y1021563D01*
X1167656Y1014531D01*
X1168437Y1006719D01*
X1166094Y998906D01*
X1164531Y997344D01*
X1163750Y995781D01*
X1160234Y993047D01*
X1154766Y989922D01*
X1039922Y989141D01*
X1037968Y987188D01*
X1037187Y984063D01*
X1037968Y980938D01*
X1039531Y979375D01*
X1039140Y978985D01*
X1037578Y978203D01*
X1031328Y974297D01*
X1029375Y977031D01*
X1027812Y980938D01*
X1027031Y983281D01*
X1027812Y988750D01*
X1029375Y992656D01*
X1031328Y994610D01*
X1036797Y998516D01*
X1150859Y999297D01*
X1153984Y1000078D01*
X1157500Y1003594D01*
X1158281Y1010625D01*
X1156719Y1014531D01*
X1152422Y1018047D01*
X1007891Y1018828D01*
X1004375Y1011406D01*
X1001250Y1004375D01*
X998125Y996563D01*
X995781Y991094D01*
X998906Y965313D01*
X1026250Y964531D01*
X1023125Y961407D01*
X1022344Y959844D01*
X1018437Y955938D01*
X1000469Y955156D01*
X1000859Y950078D01*
X1015703Y831328D01*
X1016875Y820781D01*
X1017656Y817656D01*
X1018828Y807110D01*
X1021172Y788360D01*
X1022344Y776250D01*
X1023515Y775078D01*
X1032109Y770391D01*
X1033672Y769610D01*
X1035234Y768047D01*
X1036797Y767266D01*
X1039140Y764922D01*
X1040703Y764141D01*
X1041875Y762969D01*
X1042656Y761406D01*
X1044219Y759844D01*
X1049687Y752813D01*
X1053594Y745781D01*
X1056328Y739141D01*
X1057500Y734063D01*
X1058672Y729766D01*
X1071562Y721563D01*
X1079375Y716875D01*
X1087969Y711407D01*
X1095781Y706719D01*
X1104375Y701250D01*
X1112187Y696563D01*
X1120781Y691094D01*
X1128594Y686406D01*
X1147344Y674688D01*
X1155156Y670000D01*
X1163750Y664531D01*
X1171562Y659844D01*
X1180156Y654375D01*
X1187969Y649688D01*
X1194219Y645781D01*
X1198906Y642656D01*
X1212578Y643047D01*
X1223125Y641875D01*
X1227031Y641094D01*
X1233281Y639531D01*
X1238359Y637578D01*
X1248515Y632891D01*
X1253984Y628985D01*
X1255937Y629375D01*
X1343437Y651250D01*
X1347344Y652031D01*
X1419219Y670000D01*
X1420000Y671563D01*
X1416875Y676250D01*
X1416094Y680938D01*
X1416875Y684063D01*
X1418437Y685625D01*
X1419219Y687188D01*
X1428594Y696563D01*
X1429375Y698125D01*
X1439531Y708281D01*
X1391484Y708672D01*
X1303984Y709453D01*
X1293047Y711016D01*
X1285234Y713360D01*
X1279766Y715703D01*
X1273906Y719219D01*
X1258672Y730547D01*
X1255937Y732500D01*
X1246172Y739922D01*
X1244609Y740703D01*
X1243047Y742266D01*
X1241484Y743047D01*
X1239922Y744610D01*
X1238359Y745391D01*
X1237187Y746563D01*
X1227812Y752813D01*
X1223906Y754375D01*
X1218828Y756328D01*
X1216484Y757109D01*
X1196172Y757891D01*
X1078203Y758672D01*
X1075078Y759453D01*
X1069609Y761797D01*
X1065312Y766094D01*
X1062187Y771563D01*
X1061406Y780938D01*
X1062187Y784063D01*
X1063750Y787969D01*
X1065312Y789531D01*
X1066094Y791094D01*
X1067265Y791485D01*
X1068828Y793047D01*
X1073125Y795781D01*
X1077422Y796953D01*
X1079765Y797734D01*
X1127031Y797344D01*
X1127812Y787969D01*
X1079765Y787578D01*
X1075859Y786016D01*
X1074297Y785235D01*
X1071953Y782109D01*
X1070781Y777813D01*
X1073125Y772344D01*
X1077422Y768828D01*
X1210234Y768047D01*
X1213359Y767266D01*
X1218828Y766485D01*
X1225468Y764531D01*
X1230547Y762578D01*
X1240312Y756719D01*
X1255547Y745391D01*
X1258281Y743438D01*
X1278984Y728203D01*
X1287968Y723125D01*
X1291875Y721563D01*
X1296172Y720391D01*
X1298516Y719609D01*
X1449297Y718828D01*
X1450469Y720000D01*
X1451250Y721563D01*
X1460625Y730938D01*
X1461406Y732500D01*
X1470781Y741875D01*
X1471562Y743438D01*
X1480937Y752813D01*
X1481719Y754375D01*
X1491094Y763750D01*
X1491875Y765313D01*
X1501250Y774688D01*
X1502031Y776250D01*
X1511406Y785625D01*
X1515703Y786797D01*
X1518828Y786016D01*
X1522734Y783672D01*
X1523515Y785235D01*
X1524297Y789922D01*
X1525078Y793828D01*
X1526641Y803203D01*
X1527422Y807110D01*
X1528984Y816485D01*
X1529766Y820391D01*
X1530547Y825078D01*
X1531328Y828985D01*
X1532891Y838360D01*
X1533672Y842266D01*
X1535234Y851641D01*
X1536406Y858281D01*
X1537187Y860625D01*
X1517265Y861016D01*
X1511406Y870000D01*
X1538359Y870391D01*
X1539140Y873516D01*
X1539922Y877422D01*
X1541484Y886797D01*
X1542265Y890703D01*
X1543047Y895391D01*
X1543828Y899297D01*
X1545390Y908672D01*
X1546172Y912578D01*
X1547734Y921953D01*
X1548516Y925859D01*
X1549297Y930547D01*
X1550078Y934453D01*
X1550859Y939141D01*
X1552031Y946563D01*
X1550859Y950078D01*
X1545781Y957500D01*
X1542265Y964141D01*
X1540703Y968047D01*
X1538359Y974297D01*
X1536797Y980547D01*
X1536015Y985235D01*
X1534844Y997344D01*
X1535625Y1000469D01*
X1533281Y1004375D01*
X1532500Y1005938D01*
X1531328Y1007109D01*
X1357890Y1007891D01*
X1357500Y1017656D01*
X1523125Y1018438D01*
X1487187Y1069219D01*
X1486406Y1070781D01*
X1484844Y1072344D01*
X1484062Y1073906D01*
X1460625Y1106719D01*
X1459844Y1108282D01*
X1458281Y1109844D01*
X1457500Y1111406D01*
X1326640Y1111797D01*
X1318828Y1111016D01*
X1313359Y1110235D01*
X1310234Y1109453D01*
X1304765Y1107891D01*
X1300859Y1106328D01*
X1289531Y1100469D01*
X1264531Y1084844D01*
X1255937Y1079375D01*
X1242656Y1071563D01*
X1238750Y1070000D01*
X1230156Y1066875D01*
X1225078Y1065703D01*
X1222734Y1064922D01*
X1115703Y1064141D01*
X1114922D01*
X1091875Y1064532D01*
X1091094Y1076250D01*
X1092266Y1077422D01*
X1092656Y1074688D01*
X1206328Y1073516D01*
X1216484Y1074297D01*
X1221953Y1075078D01*
X1231328Y1077422D01*
X1247734Y1085235D01*
X1253203Y1089141D01*
X1254765Y1089922D01*
X1259453Y1093047D01*
X1261016Y1093828D01*
X1265703Y1096953D01*
X1267265Y1097735D01*
X1271953Y1100860D01*
X1273515Y1101641D01*
X1282109Y1107110D01*
X1293437Y1113750D01*
X1297344Y1115313D01*
X1305937Y1118438D01*
X1312187Y1120000D01*
X1316875Y1120781D01*
X1327031Y1121563D01*
X1449297Y1121172D01*
X1449687Y1122344D01*
X1439922Y1136016D01*
X1437578Y1136797D01*
X1432109Y1137578D01*
X1425859Y1139141D01*
X1412578Y1145391D01*
X1411015Y1146172D01*
X1409453Y1147735D01*
X1407891Y1148516D01*
X1399687Y1156719D01*
X1398906Y1158281D01*
X1397734Y1159453D01*
X1393047Y1167266D01*
X1390312Y1169219D01*
X1377812Y1170000D01*
X1364531Y1170782D01*
X1352031Y1171563D01*
X1338750Y1172344D01*
X1326250Y1173125D01*
X1299687Y1174688D01*
X1287187Y1175469D01*
X1273906Y1176250D01*
X1261406Y1177031D01*
X1248125Y1177813D01*
X1235625Y1178594D01*
X1222344Y1179375D01*
X1197734Y1180547D01*
D02*
G37*
G36*
X1499297Y1184453D02*
X1498906Y1182500D01*
X1498125Y1179375D01*
X1495781Y1171563D01*
X1493437Y1166094D01*
X1490312Y1161406D01*
X1489531Y1159844D01*
X1487187Y1157500D01*
X1486406Y1155938D01*
X1482500Y1152031D01*
X1478203Y1148516D01*
X1475469Y1146563D01*
X1467656Y1141875D01*
X1459844Y1138750D01*
X1456719Y1137969D01*
X1452812Y1137188D01*
X1455156Y1134063D01*
X1455937Y1132500D01*
X1457500Y1130938D01*
X1458281Y1129375D01*
X1485625Y1091094D01*
X1486406Y1089531D01*
X1487969Y1087969D01*
X1488750Y1086407D01*
X1523906Y1037188D01*
X1524687Y1035625D01*
X1526250Y1034063D01*
Y1033281D01*
X1533281Y1023907D01*
X1534062Y1022344D01*
X1535625Y1020781D01*
X1536406Y1019219D01*
X1538359Y1017266D01*
X1540312Y1023125D01*
X1545000Y1033281D01*
X1545781Y1034844D01*
X1548906Y1039531D01*
X1549687Y1041094D01*
X1552031Y1043438D01*
X1552812Y1045000D01*
X1560625Y1052813D01*
X1570391Y1060235D01*
X1583672Y1067266D01*
X1587578Y1068828D01*
X1591875Y1070000D01*
X1596953Y1071172D01*
X1599297Y1071953D01*
X1616094Y1073125D01*
X1610234Y1078985D01*
X1608672Y1079766D01*
X1590703Y1097735D01*
X1589141Y1098516D01*
X1571172Y1116484D01*
X1569609Y1117266D01*
X1550859Y1136016D01*
X1549297Y1136797D01*
X1531328Y1154766D01*
X1529766Y1155547D01*
X1511016Y1174297D01*
X1509453Y1175078D01*
X1500859Y1183672D01*
X1499297Y1184453D01*
D02*
G37*
G36*
X1606328Y1061016D02*
X1600859Y1060235D01*
X1594609Y1058672D01*
X1589141Y1057110D01*
X1581328Y1053984D01*
X1575078Y1050078D01*
X1573516Y1049297D01*
X1571953Y1047735D01*
X1570391Y1046953D01*
X1563750Y1040313D01*
X1558281Y1033281D01*
X1552422Y1023516D01*
X1549687Y1016094D01*
X1548125Y1012188D01*
X1547344Y1005938D01*
X1546562Y1003594D01*
X1546953Y988359D01*
X1547734Y983672D01*
X1548516Y979766D01*
X1549687Y975469D01*
X1551250Y971563D01*
X1555156Y962969D01*
X1558281Y958281D01*
X1559062Y956719D01*
X1561406Y954375D01*
X1562187Y952813D01*
X1564531Y950469D01*
X1568828Y946953D01*
X1575859Y941485D01*
X1587578Y935235D01*
X1592656Y933281D01*
X1597734Y932110D01*
X1600078Y931328D01*
X1617265Y930547D01*
X1620390Y931328D01*
X1625859Y932110D01*
X1633672Y934453D01*
X1648515Y941485D01*
X1650078Y943047D01*
X1651641Y943828D01*
X1653203Y945391D01*
X1654766Y946172D01*
X1660625Y952031D01*
X1661406Y953594D01*
X1662969Y955156D01*
X1664922Y957891D01*
X1669609Y965703D01*
X1671953Y970391D01*
X1674687Y977813D01*
X1675469Y980938D01*
X1676250Y983281D01*
X1677031Y998906D01*
X1676250Y1006719D01*
X1674687Y1012969D01*
X1673125Y1018438D01*
X1670781Y1023907D01*
Y1024688D01*
X1668437Y1028594D01*
X1665312Y1034063D01*
X1662969Y1036406D01*
X1662187Y1037969D01*
X1655547Y1044610D01*
X1653984Y1045391D01*
X1652422Y1046953D01*
X1649687Y1048906D01*
X1641093Y1054375D01*
X1637187Y1055938D01*
X1630937Y1058281D01*
X1626640Y1059453D01*
X1624297Y1060235D01*
X1606328Y1061016D01*
D02*
G37*
G36*
X1665703Y941485D02*
X1663359Y939141D01*
X1661797Y938360D01*
X1660234Y936797D01*
X1657500Y934844D01*
X1650078Y929766D01*
X1643437Y926250D01*
X1639531Y924688D01*
X1633281Y922344D01*
X1628203Y921172D01*
X1625859Y920391D01*
X1608672Y919610D01*
X1598515Y920391D01*
X1592266Y921953D01*
X1584453Y924297D01*
X1574297Y928984D01*
X1572734Y929766D01*
X1568047Y932891D01*
X1566484Y933672D01*
X1564922Y935235D01*
X1563359Y936016D01*
X1561797Y937578D01*
X1560234Y929766D01*
X1558672Y920391D01*
X1557890Y916485D01*
X1556328Y907109D01*
X1555547Y903203D01*
X1554765Y898516D01*
X1553984Y894610D01*
X1552422Y885234D01*
X1551641Y881328D01*
X1550859Y876641D01*
X1550078Y872735D01*
X1548516Y863359D01*
X1547734Y859453D01*
X1546172Y850078D01*
X1545390Y846172D01*
X1544609Y841484D01*
X1543828Y837578D01*
X1542265Y828203D01*
X1541484Y824297D01*
X1540703Y819609D01*
X1539922Y815703D01*
X1538359Y806328D01*
X1537578Y802422D01*
X1536797Y797734D01*
X1536015Y793828D01*
X1534453Y784453D01*
X1533281Y777813D01*
X1535625Y776250D01*
X1557500Y763750D01*
X1572344Y755156D01*
X1594219Y742656D01*
X1623906Y725469D01*
X1624297Y725078D01*
X1627422Y723516D01*
X1628203Y725078D01*
X1629766Y734453D01*
X1630547Y738359D01*
X1632891Y752422D01*
X1633672Y756328D01*
X1635234Y765703D01*
X1636016Y769610D01*
X1637578Y778984D01*
X1638359Y782891D01*
X1639922Y792266D01*
X1640703Y796172D01*
X1642265Y805547D01*
X1643047Y809453D01*
X1644609Y818828D01*
X1645390Y822734D01*
X1646953Y832110D01*
X1647734Y836016D01*
X1649297Y845391D01*
X1650078Y849297D01*
X1651641Y858672D01*
X1652422Y862578D01*
X1653984Y871953D01*
X1654766Y875860D01*
X1656328Y885234D01*
X1657109Y889141D01*
X1658672Y898516D01*
X1659453Y902422D01*
X1661015Y911797D01*
X1661797Y915703D01*
X1663359Y925078D01*
X1664140Y928984D01*
X1665312Y936406D01*
X1666094Y938750D01*
X1665703Y941485D01*
D02*
G37*
G36*
X981328Y1010234D02*
X977812Y1009063D01*
X977031Y1004375D01*
Y1003594D01*
X976640Y999297D01*
X975859Y985235D01*
X975078Y968828D01*
X974297Y953985D01*
X966484Y796172D01*
X965312Y766875D01*
X967266Y767266D01*
X968828Y768828D01*
X979375Y774688D01*
X986797Y777422D01*
X989141Y778203D01*
X998515Y778984D01*
X1001640Y779766D01*
X1003984Y778984D01*
X1010625Y779375D01*
X1010234Y782109D01*
X1009453Y788360D01*
X1008672Y795391D01*
X983672Y995391D01*
X982500Y1006719D01*
X981328Y1010234D01*
D02*
G37*
G36*
X1005547Y768047D02*
X1001640D01*
X993828Y767266D01*
X990703Y766485D01*
X986406Y765313D01*
X981328Y763359D01*
X976640Y760234D01*
X975078Y759453D01*
X973515Y757891D01*
X971953Y757109D01*
X969219Y754375D01*
X967266Y751641D01*
X963750Y747344D01*
X960234Y740703D01*
X958672Y736797D01*
X957500Y732500D01*
X956718Y730156D01*
X957109Y714141D01*
X958281Y709063D01*
X961406Y701250D01*
X964531Y696563D01*
X965312Y695000D01*
X972734Y687578D01*
X975468Y685625D01*
X981719Y681719D01*
X986797Y679766D01*
X990703Y678203D01*
X1005547Y677422D01*
X1014922Y678984D01*
X1026640Y684453D01*
X1028203Y685235D01*
X1029766Y686797D01*
X1031328Y687578D01*
X1033672Y689922D01*
X1041094Y699688D01*
X1044609Y707110D01*
X1045781Y711407D01*
X1046562Y714531D01*
X1047344Y720000D01*
X1046562Y730156D01*
X1045781Y733281D01*
X1044219Y738750D01*
X1041875Y744219D01*
X1038750Y748906D01*
X1037968Y750469D01*
X1029766Y758672D01*
X1024297Y761797D01*
X1023125Y762969D01*
X1019219Y764531D01*
X1014140Y766485D01*
X1011016Y767266D01*
X1005547Y768047D01*
D02*
G37*
G36*
X1514922Y773516D02*
X1514531Y772344D01*
X1505156Y762969D01*
X1504375Y761406D01*
X1502031Y759063D01*
X1501640Y758672D01*
X1495000Y752032D01*
X1494219Y750469D01*
X1484844Y741094D01*
X1484062Y739531D01*
X1474687Y730156D01*
X1473906Y728594D01*
X1464531Y719219D01*
X1463750Y717656D01*
X1454375Y708281D01*
X1453593Y706719D01*
X1444219Y697344D01*
X1443437Y695781D01*
X1434062Y686406D01*
X1433281Y684844D01*
X1429375Y680938D01*
X1428594Y679375D01*
X1430547Y675078D01*
X1436015Y666485D01*
X1440703Y658672D01*
X1446172Y650078D01*
X1450859Y642266D01*
X1454765Y636016D01*
X1460234Y627422D01*
X1464922Y619610D01*
X1470391Y611016D01*
X1475078Y603203D01*
X1480547Y594609D01*
X1485234Y586797D01*
X1490703Y578203D01*
X1495390Y570391D01*
X1500859Y561797D01*
X1502422Y561016D01*
X1510625Y569219D01*
X1511406Y570781D01*
X1520781Y580156D01*
X1521562Y581719D01*
X1530937Y591094D01*
X1531719Y592656D01*
X1541094Y602031D01*
X1541875Y603594D01*
X1551250Y612969D01*
X1552031Y614531D01*
X1561406Y623906D01*
X1562187Y625469D01*
X1571562Y634844D01*
X1572344Y636406D01*
X1581719Y645781D01*
X1582500Y647344D01*
X1591875Y656719D01*
X1592656Y658281D01*
X1602031Y667656D01*
X1602812Y669219D01*
X1612187Y678594D01*
X1612969Y680156D01*
X1622344Y689532D01*
X1623125Y691094D01*
X1632500Y700469D01*
X1633281Y702031D01*
X1634844Y703594D01*
X1635625Y705156D01*
X1634453Y706328D01*
X1618047Y715703D01*
X1609453Y720391D01*
X1603203Y724297D01*
X1575859Y739922D01*
X1567266Y744610D01*
X1561015Y748516D01*
X1533672Y764141D01*
X1525078Y768828D01*
X1518828Y772735D01*
X1514922Y773516D01*
D02*
G37*
G36*
X1058672Y716484D02*
X1058281Y716094D01*
X1057500Y711407D01*
X1055937Y705156D01*
X1049687Y691875D01*
X1048906Y690313D01*
X1047344Y688750D01*
X1046562Y687188D01*
X1037578Y678203D01*
X1036015Y677422D01*
X1030547Y673516D01*
X1023125Y670000D01*
X1016875Y667656D01*
X1013750Y666875D01*
X1021172Y659453D01*
X1022734Y658672D01*
X1028594Y652813D01*
X1032890Y649297D01*
X1033281Y648906D01*
X1039922Y642266D01*
X1041484Y641485D01*
X1048516Y634453D01*
X1050078Y633672D01*
X1057890Y625860D01*
X1059453Y625078D01*
X1067265Y617266D01*
X1068828Y616484D01*
X1075859Y609453D01*
X1077422Y608672D01*
X1085234Y600860D01*
X1086797Y600078D01*
X1094609Y592266D01*
X1096172Y591484D01*
X1103203Y584453D01*
X1104765Y583672D01*
X1112578Y575859D01*
X1114141Y575078D01*
X1121953Y567266D01*
X1123515Y566485D01*
X1132109Y557891D01*
X1133281Y558281D01*
X1132500Y565313D01*
X1134062Y580938D01*
X1135625Y587188D01*
X1137187Y592656D01*
X1138750Y596563D01*
X1142656Y605156D01*
X1146562Y610625D01*
X1147344Y612188D01*
X1148906Y613750D01*
X1149687Y615313D01*
X1157890Y623516D01*
X1164922Y628985D01*
X1174687Y634844D01*
X1179375Y637188D01*
X1183281Y638750D01*
X1182109Y639922D01*
X1180547Y640703D01*
X1175859Y643828D01*
X1174297Y644610D01*
X1165703Y650078D01*
X1164140Y650860D01*
X1155547Y656328D01*
X1153984Y657109D01*
X1145390Y662578D01*
X1143828Y663360D01*
X1139140Y666485D01*
X1137578Y667266D01*
X1128984Y672734D01*
X1127422Y673516D01*
X1118828Y678984D01*
X1117265Y679766D01*
X1108672Y685235D01*
X1107109Y686016D01*
X1102422Y689141D01*
X1100859Y689922D01*
X1092266Y695391D01*
X1090703Y696172D01*
X1082109Y701641D01*
X1080547Y702422D01*
X1071953Y707891D01*
X1070391Y708672D01*
X1061797Y714141D01*
X1060234Y714922D01*
X1058672Y716484D01*
D02*
G37*
G36*
X1426641Y660234D02*
X1425469Y659844D01*
X1400469Y653594D01*
X1396562Y652813D01*
X1352812Y641875D01*
X1348906Y641094D01*
X1308281Y630938D01*
X1303203Y629766D01*
X1268828Y621172D01*
X1264531Y620000D01*
X1265703Y618828D01*
X1273125Y609063D01*
X1278984Y598516D01*
X1280547Y594609D01*
X1282890Y588360D01*
X1284453Y582110D01*
X1285234Y577422D01*
X1286015Y569609D01*
X1285625Y558281D01*
X1284844Y552813D01*
X1283281Y546563D01*
X1281719Y541094D01*
X1276250Y529375D01*
X1275469Y527813D01*
X1272344Y523125D01*
X1271562Y521563D01*
X1269219Y519219D01*
X1268437Y517656D01*
X1266875Y516094D01*
X1267265Y515703D01*
X1268437Y516094D01*
X1284062Y520000D01*
X1287968Y520781D01*
X1312969Y527031D01*
X1316875Y527813D01*
X1338750Y533281D01*
X1342656Y534063D01*
X1364531Y539531D01*
X1369609Y540703D01*
X1375859Y542266D01*
X1376640D01*
X1377812Y542656D01*
X1396562Y547344D01*
X1400469Y548125D01*
X1422344Y553594D01*
X1426250Y554375D01*
X1451250Y560625D01*
X1455156Y561406D01*
X1473906Y566094D01*
X1482890Y568047D01*
X1483281Y569219D01*
X1477812Y577813D01*
X1477031Y579375D01*
X1473906Y584063D01*
X1473125Y585625D01*
X1467656Y594219D01*
X1466875Y595781D01*
X1461406Y604375D01*
X1460625Y605938D01*
X1457500Y610625D01*
X1456719Y612188D01*
X1451250Y620781D01*
X1450469Y622344D01*
X1447344Y627032D01*
X1446562Y628594D01*
X1441094Y637188D01*
X1440312Y638750D01*
X1434844Y647344D01*
X1434062Y648906D01*
X1428594Y657500D01*
X1427812Y659063D01*
X1426641Y660234D01*
D02*
G37*
G36*
X1209453Y632109D02*
X1201640Y631328D01*
X1196172Y630547D01*
X1193047Y629766D01*
X1187578Y628203D01*
X1172734Y621172D01*
X1171172Y619610D01*
X1169609Y618828D01*
X1168047Y617266D01*
X1166484Y616484D01*
X1161797Y611797D01*
X1154375Y602031D01*
X1149687Y593438D01*
X1147344Y587969D01*
X1145781Y582500D01*
X1145000Y580156D01*
X1144219Y562969D01*
X1145000Y555156D01*
X1147344Y545781D01*
X1148906Y541875D01*
X1152031Y534844D01*
X1155156Y530156D01*
X1155937Y528594D01*
X1158281Y526250D01*
X1159062Y524688D01*
X1164531Y519219D01*
X1168828Y515703D01*
X1171562Y513750D01*
X1180156Y508281D01*
X1184062Y506719D01*
X1191484Y503985D01*
X1194609Y503203D01*
X1196953Y502422D01*
X1210234Y501641D01*
X1220390Y502422D01*
X1223515Y503203D01*
X1231328Y505547D01*
X1246172Y512578D01*
X1247734Y514141D01*
X1249297Y514922D01*
X1252422Y518047D01*
X1253984Y518828D01*
X1256719Y521563D01*
X1257500Y523125D01*
X1260625Y526250D01*
X1261406Y527813D01*
X1265312Y533281D01*
X1268828Y539922D01*
X1272344Y549688D01*
X1273125Y552031D01*
Y552813D01*
X1273906Y559063D01*
X1274687Y561406D01*
X1274297Y570391D01*
X1273515Y577422D01*
X1272734Y581328D01*
X1271562Y586406D01*
X1270000Y590313D01*
X1267656Y595781D01*
X1262969Y604375D01*
X1260625Y606719D01*
X1259844Y608281D01*
X1251640Y616484D01*
X1250078Y617266D01*
X1248515Y618828D01*
X1246953Y619610D01*
X1245390Y621172D01*
X1239922Y624297D01*
X1234062Y627032D01*
X1227812Y629375D01*
X1224687Y630156D01*
X1220781Y630938D01*
X1209453Y632109D01*
D02*
G37*
%LPD*%
G36*
X1449687Y1224688D02*
X1453984Y1223516D01*
X1459453Y1221172D01*
X1461015Y1219609D01*
X1462578Y1218828D01*
X1468437Y1212969D01*
X1473906Y1202813D01*
X1474687Y1190313D01*
X1473906Y1184844D01*
X1470000Y1176250D01*
X1467656Y1173906D01*
X1466875Y1172344D01*
X1465703Y1171172D01*
X1464141Y1170391D01*
X1462187Y1168438D01*
X1457500Y1165313D01*
X1453593Y1163750D01*
X1449297Y1162578D01*
X1446953Y1161797D01*
X1437578Y1162578D01*
X1432109Y1164141D01*
X1426641Y1166485D01*
X1425078Y1168047D01*
X1423516Y1168828D01*
X1421172Y1171172D01*
X1417656Y1175469D01*
X1412968Y1184063D01*
X1412187Y1188750D01*
X1411406Y1191875D01*
X1412187Y1199688D01*
X1412968Y1202813D01*
X1416875Y1211407D01*
X1419219Y1213750D01*
X1420000Y1215313D01*
X1422344Y1216875D01*
X1426641Y1220391D01*
X1427031Y1220781D01*
X1432890Y1223516D01*
X1436797Y1225078D01*
X1449687Y1224688D01*
D02*
G37*
%LPC*%
G36*
X1445000Y1215313D02*
X1438359Y1214922D01*
X1432890Y1212578D01*
X1431328Y1211797D01*
X1429765Y1210235D01*
X1428203Y1209453D01*
X1423125Y1202031D01*
X1421953Y1194609D01*
X1422344Y1189532D01*
X1423906Y1184063D01*
X1427031Y1179375D01*
X1431328Y1175859D01*
X1436797Y1172735D01*
X1443828Y1171953D01*
X1449297Y1172735D01*
X1456328Y1175859D01*
X1459844Y1179375D01*
X1462578Y1183672D01*
X1464531Y1188750D01*
X1465312Y1191094D01*
X1464922Y1196172D01*
X1464531Y1196563D01*
Y1198906D01*
X1461406Y1205938D01*
X1460625Y1207500D01*
X1456328Y1211016D01*
X1453593Y1212969D01*
X1449687Y1214531D01*
X1445000Y1215313D01*
D02*
G37*
%LPD*%
G36*
X1349687Y1016094D02*
X1350859Y1013360D01*
X1350078Y1010234D01*
X1346172Y1007891D01*
X1343047Y1008672D01*
X1341875Y1009844D01*
X1341094Y1012969D01*
X1341875Y1016094D01*
X1342266Y1016485D01*
X1343047Y1017266D01*
X1347734Y1018047D01*
X1349687Y1016094D01*
D02*
G37*
G36*
X1389531Y966875D02*
X1389140Y835235D01*
X1368047Y834453D01*
X1366875Y835625D01*
X1366094Y837188D01*
X1362969Y841875D01*
X1362187Y843438D01*
X1358281Y848906D01*
Y849688D01*
X1357890Y850078D01*
X1354765Y854766D01*
X1350859Y861016D01*
X1347734Y865703D01*
X1343828Y871953D01*
X1340703Y876641D01*
X1339141Y875078D01*
X1336015Y870391D01*
X1316875Y844219D01*
X1316094Y842656D01*
X1312969Y837969D01*
X1312187Y836407D01*
X1311015Y835235D01*
X1277422Y834453D01*
X1278594Y837188D01*
X1279375Y838750D01*
X1287187Y849688D01*
X1287968Y851250D01*
X1291875Y856719D01*
X1292656Y858281D01*
X1296562Y863750D01*
X1297344Y865313D01*
X1301250Y870781D01*
X1302031Y872344D01*
X1313750Y888750D01*
X1314531Y890313D01*
X1318437Y895781D01*
X1319219Y897344D01*
X1323125Y902813D01*
X1320391Y907891D01*
X1314922Y916485D01*
X1311797Y921172D01*
X1307890Y927422D01*
X1291875Y952031D01*
X1291094Y953594D01*
X1287187Y959063D01*
X1284062Y964531D01*
X1282500Y966094D01*
X1282890Y967266D01*
X1313750Y966875D01*
X1360234Y889922D01*
X1361016Y967266D01*
X1389531Y966875D01*
D02*
G37*
G36*
X1454765Y968047D02*
X1462578Y967266D01*
X1465703Y966484D01*
X1471172Y964922D01*
X1481328Y960235D01*
X1482890Y959453D01*
X1484453Y957891D01*
X1486016Y957110D01*
X1489141Y953985D01*
X1492656Y949688D01*
X1497344Y941094D01*
X1498906Y937188D01*
X1499687Y927813D01*
X1498906Y922344D01*
X1497344Y916875D01*
X1494219Y909844D01*
X1491875Y907500D01*
X1491094Y905938D01*
X1489922Y904766D01*
X1488359Y903984D01*
X1486406Y902031D01*
X1478594Y897344D01*
X1474687Y895781D01*
X1463750Y891875D01*
X1457500Y890313D01*
X1453593Y889531D01*
X1450469Y888750D01*
X1446562Y887969D01*
X1440312Y886406D01*
X1435234Y885234D01*
X1429765Y882891D01*
X1425859Y878985D01*
X1423906Y873906D01*
X1425469Y867656D01*
X1428984Y864141D01*
X1432890Y861797D01*
X1436797Y860234D01*
X1449297Y859453D01*
X1460234Y861016D01*
X1463359Y861797D01*
X1468828Y863359D01*
X1477422Y867266D01*
X1482109Y870391D01*
X1483672Y871172D01*
X1486797Y874297D01*
X1488359Y873516D01*
X1491484Y868828D01*
X1502812Y853594D01*
X1503594Y852031D01*
X1499297Y848516D01*
X1488750Y842656D01*
X1484844Y841094D01*
X1479765Y839141D01*
X1475469Y837969D01*
X1471562Y837188D01*
X1464922Y836016D01*
X1462578Y835235D01*
X1447734Y834453D01*
X1432109Y836016D01*
X1428984Y836797D01*
X1423516Y838360D01*
X1411797Y843828D01*
X1410234Y844609D01*
X1408672Y846172D01*
X1407109Y846953D01*
X1403984Y850078D01*
X1400469Y854375D01*
X1396562Y861406D01*
X1395000Y865313D01*
X1394219Y877813D01*
X1395000Y885625D01*
X1398125Y892656D01*
X1398906Y894219D01*
X1400469Y895781D01*
X1401250Y897344D01*
X1402812Y898907D01*
X1407109Y902422D01*
X1413750Y906719D01*
X1417656Y908281D01*
X1428594Y912188D01*
X1431718Y912969D01*
X1452422Y917266D01*
X1460234Y919610D01*
X1465703Y921953D01*
X1469219Y928594D01*
X1468828Y932110D01*
X1467656Y936406D01*
X1465703Y938360D01*
X1462969Y940313D01*
X1457890Y942266D01*
X1454765Y943047D01*
X1453984D01*
X1440312Y942656D01*
X1436406Y941875D01*
X1431328Y940703D01*
X1425859Y938360D01*
X1422734Y937578D01*
X1416484Y933672D01*
X1414140Y932891D01*
X1403594Y947344D01*
X1402812Y948906D01*
X1398906Y954375D01*
X1400078Y955547D01*
X1410234Y961016D01*
X1418047Y964141D01*
X1421172Y964922D01*
X1425469Y966094D01*
X1434844Y967656D01*
X1444219Y968438D01*
X1454765Y968047D01*
D02*
G37*
G36*
X1214531Y959844D02*
X1223125Y941875D01*
X1225468Y936406D01*
X1225859Y936016D01*
X1231719Y923906D01*
X1257500Y870000D01*
X1273906Y836407D01*
X1273515Y834453D01*
X1243437Y834844D01*
X1242656Y836407D01*
X1241094Y840313D01*
X1233281Y857500D01*
X1186797Y857891D01*
X1184062Y852031D01*
X1180937Y844219D01*
X1178594Y838750D01*
X1176641Y834453D01*
X1146562Y834844D01*
X1148906Y840313D01*
X1205156Y958281D01*
X1209062Y966875D01*
X1210234Y968047D01*
X1214531Y959844D01*
D02*
G37*
G36*
X1140312Y966875D02*
X1141093Y857500D01*
X1139922Y834453D01*
X1111406Y834844D01*
X1111016Y835235D01*
X1110234D01*
X1109453Y871953D01*
X1108672Y880547D01*
X1093047Y881328D01*
X1089922Y880547D01*
X1087969Y878594D01*
X1087187Y877032D01*
X1083281Y871563D01*
X1080156Y866094D01*
X1076250Y860625D01*
X1075469Y859063D01*
X1071562Y853594D01*
X1070781Y852031D01*
X1066875Y846563D01*
X1066094Y845000D01*
X1062187Y839531D01*
X1061406Y837969D01*
X1058672Y835235D01*
X1026640Y834453D01*
X1023125Y835625D01*
X1026250Y840313D01*
X1027031Y841875D01*
X1030937Y847344D01*
X1031719Y848906D01*
X1035625Y854375D01*
X1036406Y855938D01*
X1040312Y861406D01*
X1041094Y862969D01*
X1045000Y868438D01*
X1045781Y870000D01*
X1049687Y875469D01*
X1050469Y877032D01*
X1054375Y882500D01*
X1055156Y884063D01*
X1056718Y885625D01*
X1056328Y886016D01*
X1054765Y886797D01*
X1048516Y890703D01*
X1046953Y891485D01*
X1045390Y893047D01*
X1043828Y893828D01*
X1039531Y898125D01*
X1038750Y899688D01*
X1037187Y901250D01*
X1030937Y912969D01*
X1030156Y920000D01*
X1029375Y922344D01*
X1030156Y930938D01*
X1031719Y937188D01*
X1035625Y945781D01*
X1036406Y947344D01*
X1037968Y948906D01*
X1038750Y950469D01*
X1041484Y953203D01*
X1043047Y953985D01*
X1044609Y955547D01*
X1047344Y957500D01*
X1055156Y962188D01*
X1063750Y965313D01*
X1069609Y966484D01*
X1071953Y967266D01*
X1140312Y966875D01*
D02*
G37*
G36*
X1332500Y812969D02*
X1333281Y811406D01*
X1329765Y809453D01*
X1328203Y808672D01*
X1321953Y804766D01*
X1320391Y803984D01*
X1314140Y800078D01*
X1302812Y794219D01*
X1294219Y791094D01*
X1289140Y789922D01*
X1286797Y789141D01*
X1157890Y788360D01*
X1157500Y795781D01*
X1269609Y796172D01*
X1282109Y796953D01*
X1287578Y797734D01*
X1290703Y798516D01*
X1298516Y800859D01*
X1307500Y805156D01*
X1323125Y814532D01*
X1323516Y814922D01*
X1328984Y818047D01*
X1332500Y812969D01*
D02*
G37*
G36*
X1144609Y796172D02*
X1146562Y792657D01*
X1145781Y790313D01*
X1144609Y789141D01*
X1139922Y788360D01*
X1138359Y789922D01*
X1137969Y790313D01*
Y794219D01*
X1139922Y796172D01*
X1141484Y796953D01*
X1144609Y796172D01*
D02*
G37*
G36*
X1419609Y802422D02*
X1428203Y798516D01*
X1429765Y797734D01*
X1434062Y793438D01*
X1439531Y783281D01*
X1440312Y773907D01*
X1437969Y764531D01*
X1437578Y764141D01*
X1435625Y760625D01*
X1433281Y758281D01*
X1432500Y756719D01*
X1431328Y756328D01*
X1428984Y753985D01*
X1422344Y750469D01*
X1413750Y748906D01*
X1408672Y749297D01*
X1405547Y750078D01*
X1398515Y753203D01*
X1396953Y753985D01*
X1392265Y758672D01*
X1389140Y763359D01*
X1386797Y769610D01*
X1386016Y775860D01*
X1387187Y784063D01*
X1390312Y791094D01*
X1391875Y792657D01*
X1393828Y795391D01*
X1395390Y796172D01*
X1396953Y797734D01*
X1405547Y802422D01*
X1414140Y803203D01*
X1419609Y802422D01*
D02*
G37*
%LPC*%
G36*
X1207890Y909453D02*
X1207500Y908281D01*
X1205937Y904375D01*
X1198906Y887969D01*
X1195000Y879375D01*
X1195391Y878985D01*
X1223125Y879375D01*
X1220781Y884063D01*
X1216875Y892656D01*
X1212578Y901641D01*
X1212187Y902031D01*
X1209453Y908672D01*
X1207890Y909453D01*
D02*
G37*
G36*
X1081328Y943047D02*
X1075078Y941485D01*
X1071172Y939922D01*
X1069609Y939141D01*
X1068437Y937969D01*
X1068047Y937578D01*
X1066875Y936406D01*
X1062969Y930938D01*
X1062187Y920000D01*
X1064531Y914531D01*
X1065312Y912969D01*
X1066484Y911797D01*
X1076640Y906328D01*
X1108672Y905547D01*
X1109453Y921953D01*
X1109062Y942656D01*
X1081328Y943047D01*
D02*
G37*
G36*
X1413359Y795391D02*
X1407891Y794610D01*
X1402422Y792266D01*
X1400469Y790313D01*
X1395000Y783281D01*
X1394219Y773125D01*
X1395781Y767656D01*
X1398906Y762969D01*
X1406328Y757891D01*
X1417265Y757109D01*
X1422734Y759453D01*
X1424297Y760234D01*
X1427812Y763750D01*
X1431718Y770781D01*
X1432500Y777031D01*
X1431718Y780156D01*
X1430156Y785625D01*
X1428594Y787188D01*
X1427812Y788750D01*
X1425859Y790703D01*
X1425078D01*
X1424297Y791485D01*
X1418828Y794610D01*
X1413359Y795391D01*
D02*
G37*
%LPD*%
G36*
X1619609Y1043828D02*
X1625859Y1042266D01*
X1637578Y1036797D01*
X1639140Y1036016D01*
X1640703Y1034453D01*
X1642265Y1033672D01*
X1646562Y1029375D01*
X1652031Y1022344D01*
X1655547Y1015703D01*
X1658281Y1008281D01*
X1659062Y1005156D01*
X1659844Y997344D01*
X1658672Y986797D01*
X1657500Y981719D01*
X1654375Y973906D01*
X1651250Y969219D01*
X1650469Y967656D01*
X1648125Y965313D01*
X1647344Y963750D01*
X1643828Y960235D01*
X1642265Y959453D01*
X1639922Y957110D01*
X1628203Y950860D01*
X1624297Y949297D01*
X1618047Y948516D01*
X1615703Y947734D01*
X1609844Y948125D01*
X1602812Y948906D01*
X1597734Y950078D01*
X1586015Y955547D01*
X1584453Y956328D01*
X1582890Y957891D01*
X1581328Y958672D01*
X1575469Y964531D01*
X1574687Y966094D01*
X1571953Y969609D01*
X1568828Y974297D01*
X1567266Y978203D01*
X1565312Y983281D01*
X1564531Y985625D01*
X1563750Y996563D01*
Y997344D01*
Y999688D01*
X1564531Y1005156D01*
X1565312Y1008281D01*
X1566875Y1013750D01*
X1569219Y1019219D01*
X1572344Y1023907D01*
X1573125Y1025469D01*
X1580156Y1032500D01*
X1584453Y1036016D01*
X1593047Y1040703D01*
X1596953Y1042266D01*
X1599297Y1043047D01*
X1606328Y1043828D01*
X1608672Y1044610D01*
X1619609Y1043828D01*
D02*
G37*
%LPC*%
G36*
X1614922Y1032891D02*
X1604765Y1032109D01*
X1601640Y1031328D01*
X1591484Y1026641D01*
X1589922Y1025860D01*
X1582500Y1018438D01*
X1576250Y1006719D01*
X1575469Y1000469D01*
X1574687Y998125D01*
X1575469Y989531D01*
X1578593Y979375D01*
X1581719Y974688D01*
X1582500Y973125D01*
X1587187Y968438D01*
X1594609Y963360D01*
X1596172Y962578D01*
X1601640Y960235D01*
X1618047Y959453D01*
X1628203Y962578D01*
X1632891Y965703D01*
X1634453Y966484D01*
X1638359Y970391D01*
X1641875Y974688D01*
X1645781Y981719D01*
X1647344Y985625D01*
X1648125Y994219D01*
X1648515Y994610D01*
X1648125Y1001250D01*
X1646562Y1007500D01*
X1642656Y1016094D01*
X1641875Y1017656D01*
X1636016Y1023516D01*
X1633281Y1025469D01*
X1627031Y1029375D01*
X1623125Y1030938D01*
X1617265Y1032109D01*
X1614922Y1032891D01*
D02*
G37*
%LPD*%
G36*
X1008281Y753594D02*
X1012578Y752422D01*
X1018047Y750078D01*
X1020390Y747735D01*
X1021172D01*
X1027031Y741875D01*
X1032500Y731719D01*
X1033281Y718438D01*
X1031719Y712188D01*
X1029375Y706719D01*
X1025078Y700859D01*
X1023515Y700078D01*
X1020781Y697344D01*
X1016093Y694219D01*
X1012187Y692656D01*
X1003984Y690703D01*
X996172Y691485D01*
X990703Y693047D01*
X985234Y695391D01*
X983672Y696953D01*
X982109Y697734D01*
X978984Y700859D01*
X975468Y705156D01*
X971953Y711797D01*
X971172Y714922D01*
X970000Y720781D01*
X970781Y728594D01*
X971562Y731719D01*
X974687Y738750D01*
X975468Y740313D01*
X977031Y741875D01*
X978984Y744610D01*
X980547Y745391D01*
X982500Y747344D01*
X988750Y751250D01*
X993828Y753203D01*
X996172Y753985D01*
X1008281Y753594D01*
D02*
G37*
%LPC*%
G36*
X1003203Y744610D02*
X997734Y743828D01*
X992265Y742266D01*
X986797Y738359D01*
X981719Y730938D01*
X980937Y726250D01*
X980156Y723906D01*
X980937Y718438D01*
X981719Y715313D01*
X983672Y711016D01*
X984062Y710625D01*
X984844Y709844D01*
X985625Y708281D01*
X988359Y705547D01*
X995390Y701641D01*
X1002422Y700859D01*
X1007891Y701641D01*
X1014922Y704766D01*
X1018047Y707891D01*
X1021953Y714141D01*
X1023125Y718438D01*
X1023906Y720781D01*
X1023125Y727031D01*
X1021562Y732500D01*
X1017656Y737969D01*
X1010234Y743047D01*
X1005547Y743828D01*
X1003203Y744610D01*
D02*
G37*
%LPD*%
G36*
X1218828Y614141D02*
X1221172Y613359D01*
X1222734D01*
X1236016Y607110D01*
X1237578Y606328D01*
X1239922Y603985D01*
X1241484Y603203D01*
X1243047Y601641D01*
X1246562Y597344D01*
X1248515Y594609D01*
X1253203Y586797D01*
X1255937Y579375D01*
X1256719Y577031D01*
X1257500Y566094D01*
X1256719Y558281D01*
X1255937Y555156D01*
X1254375Y549688D01*
X1252031Y544219D01*
X1248906Y539531D01*
X1248125Y537969D01*
X1241875Y531719D01*
X1237578Y528203D01*
X1230937Y523906D01*
X1221172Y520391D01*
X1218828Y519610D01*
X1209453Y518828D01*
X1201640Y519610D01*
X1198516Y520391D01*
X1188359Y523516D01*
X1182109Y527422D01*
X1180547Y528203D01*
X1178203Y530547D01*
X1176641Y531328D01*
X1174687Y533281D01*
X1172734Y536016D01*
X1169219Y540313D01*
X1165703Y546953D01*
X1163750Y552031D01*
X1162187Y555938D01*
X1161406Y570000D01*
X1162187Y575469D01*
X1163750Y581719D01*
X1169219Y593438D01*
X1171172Y596172D01*
X1174687Y600469D01*
X1178984Y603985D01*
X1181718Y605938D01*
X1187969Y609844D01*
X1191875Y611406D01*
X1196953Y613359D01*
X1199297Y614141D01*
X1211015Y614922D01*
X1218828Y614141D01*
D02*
G37*
%LPC*%
G36*
X1210625Y603594D02*
X1203203Y603203D01*
X1193047Y600078D01*
X1188359Y596953D01*
X1186797Y596172D01*
X1182890Y592266D01*
X1179375Y587969D01*
X1174687Y579375D01*
X1173906Y577031D01*
X1173125Y570781D01*
Y570000D01*
X1172734Y568047D01*
X1173125Y560625D01*
X1174687Y554375D01*
X1177812Y547344D01*
X1179375Y545781D01*
X1180156Y544219D01*
X1185234Y539141D01*
X1186797Y538360D01*
X1188359Y536797D01*
X1195391Y532891D01*
X1199297Y531328D01*
X1204765Y530547D01*
X1207109Y529766D01*
X1214141Y530547D01*
X1219609Y531328D01*
X1229765Y536016D01*
X1231328Y536797D01*
X1238359Y543828D01*
X1243047Y551641D01*
X1244609Y555547D01*
X1245781Y560625D01*
X1246562Y566094D01*
X1245000Y577031D01*
X1240312Y587188D01*
X1239531Y588750D01*
X1234844Y593438D01*
X1230547Y596953D01*
X1226250Y599688D01*
X1217656Y602813D01*
X1210625Y603594D01*
D02*
G37*
%LPD*%
D44*
X660000Y1950000D02*
D03*
Y2528000D02*
D03*
D72*
X292000Y2671000D02*
D03*
Y1807000D02*
D03*
D73*
X710000Y2671000D02*
D03*
Y1807000D02*
D03*
D74*
X400000Y1570000D02*
D03*
D75*
X146000D02*
D03*
D76*
X500000Y1210000D02*
D03*
Y480000D02*
D03*
D77*
X118000Y0D02*
D03*
X372000D02*
D03*
X626000D02*
D03*
X880000D02*
D03*
X1134000D02*
D03*
X1388000D02*
D03*
X1642000D02*
D03*
X1896000D02*
D03*
X2150000D02*
D03*
X2404000D02*
D03*
X2658000D02*
D03*
X2912000D02*
D03*
X3166000D02*
D03*
X3420000D02*
D03*
X3674000D02*
D03*
X4182000D02*
D03*
X3928000D02*
D03*
X4182000Y3050000D02*
D03*
X3928000D02*
D03*
X3674000D02*
D03*
X3420000D02*
D03*
X3166000D02*
D03*
X2912000D02*
D03*
X2658000D02*
D03*
X2404000D02*
D03*
X2150000D02*
D03*
X1896000D02*
D03*
X1642000D02*
D03*
X1388000D02*
D03*
X1134000D02*
D03*
X880000D02*
D03*
X626000D02*
D03*
X118000D02*
D03*
X372000D02*
D03*
%TF.MD5,5820374ef60bc7c46fbdbea580ea280e*%
M02*
