%TF.GenerationSoftware,Altium Limited,Altium Designer,24.10.1 (45)*%
G04 Layer_Color=0*
%FSLAX45Y45*%
%MOMM*%
%TF.SameCoordinates,D2505BA3-E522-476C-ACF0-F4815D070146*%
%TF.FilePolarity,Positive*%
%TF.FileFunction,Plated,1,4,PTH,Drill*%
%TF.Part,Single*%
G01*
G75*
%TA.AperFunction,ComponentDrill*%
%ADD80O,1.40000X0.60000*%
%ADD81O,1.70000X0.60000*%
%ADD82C,1.00000*%
%ADD83C,1.02000*%
%ADD84C,2.41000*%
%TA.AperFunction,ViaDrill,NotFilled*%
%ADD85C,0.30000*%
%ADD86C,1.00000*%
D80*
X292000Y2671000D02*
D03*
Y1807000D02*
D03*
D81*
X710000Y2671000D02*
D03*
Y1807000D02*
D03*
D82*
X118000Y150000D02*
D03*
X372000D02*
D03*
X626000D02*
D03*
X880000D02*
D03*
X1134000D02*
D03*
X1388000D02*
D03*
X1642000D02*
D03*
X1896000D02*
D03*
X2150000D02*
D03*
X2404000D02*
D03*
X2658000D02*
D03*
X2912000D02*
D03*
X3166000D02*
D03*
X3420000D02*
D03*
X3674000D02*
D03*
X4182000D02*
D03*
X3928000D02*
D03*
X4182000Y2900000D02*
D03*
X3928000D02*
D03*
X3674000D02*
D03*
X3420000D02*
D03*
X3166000D02*
D03*
X2912000D02*
D03*
X2658000D02*
D03*
X2404000D02*
D03*
X2150000D02*
D03*
X1896000D02*
D03*
X1642000D02*
D03*
X1388000D02*
D03*
X1134000D02*
D03*
X880000D02*
D03*
X626000D02*
D03*
X118000D02*
D03*
X372000D02*
D03*
D83*
X400000Y1570000D02*
D03*
X146000D02*
D03*
D84*
X500000Y1210000D02*
D03*
Y480000D02*
D03*
D85*
X1067500Y1317500D02*
D03*
X2800000Y2300000D02*
D03*
X1452500Y1912500D02*
D03*
Y1615000D02*
D03*
X3062500Y2360000D02*
D03*
X3380000Y2250000D02*
D03*
X3360000Y1095942D02*
D03*
X3280000Y1120000D02*
D03*
X3540000Y590000D02*
D03*
X3804032Y675968D02*
D03*
X3980000Y1830000D02*
D03*
X4220000Y1750000D02*
D03*
X4150000Y1680000D02*
D03*
X4050000Y1610000D02*
D03*
X3970000Y1530000D02*
D03*
X3890000Y1440000D02*
D03*
X3650000Y1230000D02*
D03*
X3820000Y1130000D02*
D03*
X3570000Y2340000D02*
D03*
X3268800Y2490000D02*
D03*
X3119281Y2455200D02*
D03*
X2670000Y2510400D02*
D03*
X2440000Y2400000D02*
D03*
X2550000Y2320000D02*
D03*
X810000Y750000D02*
D03*
X660000Y2050000D02*
D03*
X1700000Y2630000D02*
D03*
X2130000Y2020000D02*
D03*
X1900000Y2160000D02*
D03*
X2742098Y1855200D02*
D03*
X2510000Y2010000D02*
D03*
X2650000Y1260000D02*
D03*
X3640000Y1390000D02*
D03*
X3030000Y820000D02*
D03*
X3060000Y1130000D02*
D03*
X1250000Y1960000D02*
D03*
X1530000D02*
D03*
X1820000Y2080000D02*
D03*
X959706Y1426393D02*
D03*
X1845000Y1745000D02*
D03*
X1735000D02*
D03*
X1845000Y1855000D02*
D03*
X1735000D02*
D03*
X1070000Y1770000D02*
D03*
X890000Y1780000D02*
D03*
X1425000Y2205000D02*
D03*
Y2105000D02*
D03*
X1325000Y2205000D02*
D03*
Y2105000D02*
D03*
X2530000Y1570000D02*
D03*
X1186334Y2493330D02*
D03*
X2076325Y1746173D02*
D03*
X2120000Y1852500D02*
D03*
X2070197Y1900456D02*
D03*
X632100Y2255000D02*
D03*
X800000Y980000D02*
D03*
X2230000Y1195200D02*
D03*
X1780000Y1390000D02*
D03*
X1430000Y1380000D02*
D03*
X2440000Y1214800D02*
D03*
X2230000Y2210000D02*
D03*
X2750000Y1550000D02*
D03*
X2050000Y1030000D02*
D03*
X2438400Y1102986D02*
D03*
X2311400Y939800D02*
D03*
X2250000Y1270000D02*
D03*
X1060000Y2240000D02*
D03*
X960000Y2100000D02*
D03*
X1180000Y2390000D02*
D03*
X2830000Y720000D02*
D03*
X2630000Y800000D02*
D03*
X3709500Y2069200D02*
D03*
X580000Y2500000D02*
D03*
X3375968Y924032D02*
D03*
X2150000Y737500D02*
D03*
X3550000Y1100000D02*
D03*
X3613030Y1175317D02*
D03*
X2750000Y1475000D02*
D03*
X2950000Y640000D02*
D03*
X2050000Y1140000D02*
D03*
X2820000Y2010000D02*
D03*
X3430759Y1375100D02*
D03*
X3320760Y1375100D02*
D03*
X3210760Y1375101D02*
D03*
X3100760Y1375100D02*
D03*
X2990760Y1375101D02*
D03*
X3430760Y1485100D02*
D03*
X3320759Y1485100D02*
D03*
X3210760Y1485100D02*
D03*
X3100760Y1485101D02*
D03*
X2990760Y1485100D02*
D03*
X3430759Y1595100D02*
D03*
X3320760Y1595100D02*
D03*
X3210760D02*
D03*
X3100760D02*
D03*
X2990760Y1595100D02*
D03*
X3430760Y1705100D02*
D03*
X3320760D02*
D03*
X3210760D02*
D03*
X3100760Y1705100D02*
D03*
X2990760Y1705100D02*
D03*
X3430760Y1815100D02*
D03*
X3320760D02*
D03*
X3210760Y1815100D02*
D03*
X3100760Y1815100D02*
D03*
X2990760D02*
D03*
X1168400Y1905000D02*
D03*
X2600000Y980000D02*
D03*
D86*
X118000Y0D02*
D03*
X372000D02*
D03*
X626000D02*
D03*
X880000D02*
D03*
X1134000D02*
D03*
X1388000D02*
D03*
X1642000D02*
D03*
X1896000D02*
D03*
X2150000D02*
D03*
X2404000D02*
D03*
X2658000D02*
D03*
X2912000D02*
D03*
X3166000D02*
D03*
X3420000D02*
D03*
X3674000D02*
D03*
X4182000D02*
D03*
X3928000D02*
D03*
X4182000Y3050000D02*
D03*
X3928000D02*
D03*
X3674000D02*
D03*
X3420000D02*
D03*
X3166000D02*
D03*
X2912000D02*
D03*
X2658000D02*
D03*
X2404000D02*
D03*
X2150000D02*
D03*
X1896000D02*
D03*
X1642000D02*
D03*
X1388000D02*
D03*
X1134000D02*
D03*
X880000D02*
D03*
X626000D02*
D03*
X118000D02*
D03*
X372000D02*
D03*
%TF.MD5,37e6232d7b51b07f3f8e2aa16209e001*%
M02*
