%TF.GenerationSoftware,Altium Limited,Altium Designer,23.9.2 (47)*%
G04 Layer_Color=8421504*
%FSLAX45Y45*%
%MOMM*%
%TF.SameCoordinates,FB2876E6-207A-4176-94B4-128B36F1A8A2*%
%TF.FilePolarity,Positive*%
%TF.FileFunction,Paste,Top*%
%TF.Part,Single*%
G01*
G75*
%TA.AperFunction,SMDPad,CuDef*%
%ADD10R,1.00000X1.35000*%
%ADD11R,1.45620X1.30464*%
%ADD12R,3.50000X2.50000*%
%ADD13R,1.30464X1.45620*%
%ADD14R,1.35000X1.00000*%
%ADD15R,0.95000X1.35000*%
%ADD16R,1.10000X1.35000*%
%TA.AperFunction,NonConductor*%
%ADD41R,3.19999X5.25998*%
%ADD51R,1.55001X0.24999*%
%ADD52R,1.55001X0.25004*%
D10*
X13686998Y2741000D02*
D03*
X13867001D02*
D03*
X13142000D02*
D03*
X13322000D02*
D03*
X14799998Y6820001D02*
D03*
X14979997D02*
D03*
X14349998Y7890002D02*
D03*
X14529999D02*
D03*
D11*
X16340002Y3070576D02*
D03*
Y2909423D02*
D03*
X16500003Y7501158D02*
D03*
Y7340001D02*
D03*
X16119998Y6429421D02*
D03*
Y6590579D02*
D03*
D12*
X15945998Y5842000D02*
D03*
X15296002D02*
D03*
X15945998Y4826000D02*
D03*
X15296002D02*
D03*
D13*
X16650578Y3750000D02*
D03*
X16489426D02*
D03*
X15710580Y7860000D02*
D03*
X15549423D02*
D03*
X15700578Y4169999D02*
D03*
X15539420D02*
D03*
D14*
X14990002Y7319996D02*
D03*
Y7499995D02*
D03*
X15010001Y3880002D02*
D03*
Y4060002D02*
D03*
X15029999Y3070002D02*
D03*
Y3250002D02*
D03*
D15*
X16274998Y7620000D02*
D03*
X16125002D02*
D03*
X16265002Y4040002D02*
D03*
X16114999D02*
D03*
D16*
X16279997Y7320001D02*
D03*
X16139998D02*
D03*
X16280003Y3770005D02*
D03*
X16140002D02*
D03*
D41*
X15620000Y3560000D02*
D03*
Y7110001D02*
D03*
D51*
X15899998Y3917500D02*
D03*
Y3852502D02*
D03*
Y3722500D02*
D03*
Y3657501D02*
D03*
Y3527499D02*
D03*
Y3462500D02*
D03*
Y3397501D02*
D03*
Y3267499D02*
D03*
Y3202501D02*
D03*
X15339999D02*
D03*
Y3267499D02*
D03*
Y3397501D02*
D03*
Y3462500D02*
D03*
Y3527499D02*
D03*
Y3657501D02*
D03*
Y3722500D02*
D03*
Y3852502D02*
D03*
Y3917500D02*
D03*
X15899998Y7467501D02*
D03*
Y7337499D02*
D03*
Y7272500D02*
D03*
Y7207501D02*
D03*
Y7077499D02*
D03*
Y7012501D02*
D03*
Y6947502D02*
D03*
Y6882498D02*
D03*
Y6817500D02*
D03*
Y6752501D02*
D03*
X15339999D02*
D03*
Y6817500D02*
D03*
Y6882498D02*
D03*
Y6947502D02*
D03*
Y7012501D02*
D03*
Y7077499D02*
D03*
Y7207501D02*
D03*
Y7272500D02*
D03*
Y7337499D02*
D03*
Y7467501D02*
D03*
D52*
X15899998Y3787501D02*
D03*
Y3592500D02*
D03*
Y3332500D02*
D03*
X15339999D02*
D03*
Y3592500D02*
D03*
Y3787501D02*
D03*
X15899998Y7402500D02*
D03*
Y7142500D02*
D03*
X15339999D02*
D03*
Y7402500D02*
D03*
%TF.MD5,70540ad689f7d2a4d171378948ea5b87*%
M02*
