%TF.GenerationSoftware,Altium Limited,Altium Designer,23.9.2 (47)*%
G04 Layer_Color=16711935*
%FSLAX45Y45*%
%MOMM*%
%TF.SameCoordinates,FB2876E6-207A-4176-94B4-128B36F1A8A2*%
%TF.FilePolarity,Negative*%
%TF.FileFunction,Soldermask,Bot*%
%TF.Part,Single*%
G01*
G75*
%TA.AperFunction,ComponentPad*%
%ADD25C,1.55000*%
%ADD26R,1.55000X1.55000*%
G04:AMPARAMS|DCode=27|XSize=2.4mm|YSize=4.6mm|CornerRadius=1.2mm|HoleSize=0mm|Usage=FLASHONLY|Rotation=0.000|XOffset=0mm|YOffset=0mm|HoleType=Round|Shape=RoundedRectangle|*
%AMROUNDEDRECTD27*
21,1,2.40000,2.20000,0,0,0.0*
21,1,0.00000,4.60000,0,0,0.0*
1,1,2.40000,0.00000,-1.10000*
1,1,2.40000,0.00000,-1.10000*
1,1,2.40000,0.00000,1.10000*
1,1,2.40000,0.00000,1.10000*
%
%ADD27ROUNDEDRECTD27*%
%ADD30C,2.85420*%
%ADD31R,2.85420X2.85420*%
%TA.AperFunction,ViaPad*%
%ADD34C,0.60000*%
%TA.AperFunction,ComponentPad*%
%ADD45C,1.80000*%
%ADD46R,1.80000X1.80000*%
%ADD47R,1.70000X1.70000*%
%ADD48C,1.70000*%
G04:AMPARAMS|DCode=49|XSize=2.15mm|YSize=2.15mm|CornerRadius=0.5875mm|HoleSize=0mm|Usage=FLASHONLY|Rotation=90.000|XOffset=0mm|YOffset=0mm|HoleType=Round|Shape=RoundedRectangle|*
%AMROUNDEDRECTD49*
21,1,2.15000,0.97500,0,0,90.0*
21,1,0.97500,2.15000,0,0,90.0*
1,1,1.17500,0.48750,0.48750*
1,1,1.17500,0.48750,-0.48750*
1,1,1.17500,-0.48750,-0.48750*
1,1,1.17500,-0.48750,0.48750*
%
%ADD49ROUNDEDRECTD49*%
%ADD50C,2.15000*%
D25*
X11660002Y4249999D02*
D03*
X11410000D02*
D03*
D26*
X11159998D02*
D03*
D27*
X11849999Y4949998D02*
D03*
X10970001D02*
D03*
D30*
X11380003Y5970102D02*
D03*
Y6440002D02*
D03*
D31*
Y6909902D02*
D03*
D34*
X15620000Y3235000D02*
D03*
Y3365002D02*
D03*
Y3494999D02*
D03*
Y3625002D02*
D03*
Y3754999D02*
D03*
Y3885001D02*
D03*
X15750002Y3235000D02*
D03*
Y3365002D02*
D03*
Y3494999D02*
D03*
Y3625002D02*
D03*
Y3754999D02*
D03*
Y3885001D02*
D03*
X15490002Y3235000D02*
D03*
Y3365002D02*
D03*
Y3494999D02*
D03*
Y3625002D02*
D03*
Y3754999D02*
D03*
Y3885001D02*
D03*
X15620000Y6785000D02*
D03*
Y6914998D02*
D03*
Y7045000D02*
D03*
Y7175002D02*
D03*
Y7304999D02*
D03*
Y7435002D02*
D03*
X15750002Y6785000D02*
D03*
Y6914998D02*
D03*
Y7045000D02*
D03*
Y7175002D02*
D03*
Y7304999D02*
D03*
Y7435002D02*
D03*
X15490002Y6785000D02*
D03*
Y6914998D02*
D03*
Y7045000D02*
D03*
Y7175002D02*
D03*
Y7304999D02*
D03*
Y7435002D02*
D03*
D45*
X12065000Y3556000D02*
D03*
X11811000D02*
D03*
X12065000Y3302000D02*
D03*
X11811000D02*
D03*
X11557000Y3556000D02*
D03*
Y3302000D02*
D03*
X11303000Y3556000D02*
D03*
X13774501Y5000498D02*
D03*
X12250501Y7794498D02*
D03*
Y7540498D02*
D03*
Y7286498D02*
D03*
Y7032498D02*
D03*
Y6778498D02*
D03*
Y6524498D02*
D03*
Y6270498D02*
D03*
Y6016498D02*
D03*
Y5762498D02*
D03*
Y5508498D02*
D03*
Y5254498D02*
D03*
X13774501D02*
D03*
Y5508498D02*
D03*
Y5762498D02*
D03*
Y6016498D02*
D03*
Y6270498D02*
D03*
Y6524498D02*
D03*
Y6778498D02*
D03*
Y7032498D02*
D03*
Y7286498D02*
D03*
Y7540498D02*
D03*
Y7794498D02*
D03*
X12250501Y5000498D02*
D03*
X14224001Y3556000D02*
D03*
X13970000D02*
D03*
X14224001Y3302000D02*
D03*
X13970000D02*
D03*
X13716000Y3556000D02*
D03*
Y3302000D02*
D03*
X13462000Y3556000D02*
D03*
Y3302000D02*
D03*
X13208000Y3556000D02*
D03*
D46*
X11303000Y3302000D02*
D03*
X13208000D02*
D03*
D47*
X13034000Y4320002D02*
D03*
X17400002Y2790002D02*
D03*
Y4320002D02*
D03*
X14126003Y7409998D02*
D03*
X17400002Y7870002D02*
D03*
Y6350000D02*
D03*
D48*
X12780000Y4320002D02*
D03*
X12526000D02*
D03*
X14380002Y7409998D02*
D03*
D49*
X17317004Y6862003D02*
D03*
Y5084003D02*
D03*
Y3306003D02*
D03*
D50*
Y7362002D02*
D03*
Y5584002D02*
D03*
Y3806002D02*
D03*
%TF.MD5,67294262ae4a9d5d63aef28024e69f95*%
M02*
