%TF.GenerationSoftware,Altium Limited,Altium Designer,23.9.2 (47)*%
G04 Layer_Color=65535*
%FSLAX45Y45*%
%MOMM*%
%TF.SameCoordinates,FB2876E6-207A-4176-94B4-128B36F1A8A2*%
%TF.FilePolarity,Positive*%
%TF.FileFunction,Legend,Top*%
%TF.Part,Single*%
G01*
G75*
%TA.AperFunction,NonConductor*%
%ADD35C,0.25000*%
%ADD36C,0.20000*%
%ADD37C,0.15240*%
%ADD38C,0.25400*%
%ADD39R,4.49997X0.80000*%
%ADD40R,4.50002X0.80000*%
G36*
X11309113Y8334911D02*
X11320473D01*
Y8329231D01*
X11348876D01*
Y8323550D01*
X11400000D01*
Y8317870D01*
X11445444D01*
Y8312189D01*
X11496568D01*
Y8306509D01*
X11547692D01*
Y8300828D01*
X11598817D01*
Y8295148D01*
X11644260D01*
Y8289468D01*
X11666983D01*
Y8283787D01*
X11672663D01*
Y8266745D01*
X11678343D01*
Y8261065D01*
X11672663D01*
Y8255385D01*
X11644260D01*
Y8249704D01*
X11655622D01*
Y8244024D01*
X11695385D01*
Y8249704D01*
X11712426D01*
Y8244024D01*
X11723787D01*
Y8238343D01*
X11735148D01*
Y8232663D01*
X11740829D01*
Y8226982D01*
X11746509D01*
Y8221302D01*
X11752190D01*
Y8215621D01*
X11757870D01*
Y8209941D01*
X11763551D01*
Y8204260D01*
X11769231D01*
Y8198580D01*
X11774911D01*
Y8192899D01*
X11780592D01*
Y8187219D01*
X11786272D01*
Y8175858D01*
X11791953D01*
Y8170177D01*
X11797633D01*
Y8164497D01*
X11803314D01*
Y8158817D01*
X11808994D01*
Y8153136D01*
X11814675D01*
Y8147456D01*
X11820355D01*
Y8141775D01*
X11826036D01*
Y8130414D01*
X11831716D01*
Y8102012D01*
X11837397D01*
Y8084970D01*
X11843077D01*
Y8079290D01*
X11848758D01*
Y8067929D01*
X11854438D01*
Y8056568D01*
X11860119D01*
Y8045207D01*
X11865799D01*
Y8033846D01*
X11871479D01*
Y8050888D01*
X11882840D01*
Y8045207D01*
X11894202D01*
Y8039527D01*
X11899882D01*
Y8033846D01*
X11905562D01*
Y7931598D01*
X11911243D01*
Y7817988D01*
X11916923D01*
Y7704379D01*
X11922604D01*
Y7681657D01*
X11928284D01*
Y7630532D01*
X11922604D01*
Y7619171D01*
X11916923D01*
Y7613491D01*
X11911243D01*
Y7607811D01*
X11905562D01*
Y7602130D01*
X11899882D01*
Y7596450D01*
X11894202D01*
Y7590769D01*
X11882840D01*
Y7585089D01*
X11860119D01*
Y7579408D01*
X11854438D01*
Y7573728D01*
X11848758D01*
Y7568047D01*
X11843077D01*
Y7562367D01*
X11837397D01*
Y7556686D01*
X11831716D01*
Y7551006D01*
X11826036D01*
Y7545325D01*
X11814675D01*
Y7539645D01*
X11808994D01*
Y7533964D01*
X11803314D01*
Y7528284D01*
X11797633D01*
Y7522603D01*
X11791953D01*
Y7516923D01*
X11786272D01*
Y7511243D01*
X11780592D01*
Y7505562D01*
X11774911D01*
Y7499882D01*
X11769231D01*
Y7494201D01*
X11763551D01*
Y7488521D01*
X11752190D01*
Y7482840D01*
X11746509D01*
Y7477160D01*
X11740829D01*
Y7471479D01*
X11735148D01*
Y7465799D01*
X11729468D01*
Y7460118D01*
X11723787D01*
Y7454438D01*
X11718107D01*
Y7448757D01*
X11712426D01*
Y7443077D01*
X11706746D01*
Y7437396D01*
X11701065D01*
Y7431716D01*
X11695385D01*
Y7426035D01*
X11684024D01*
Y7420355D01*
X11678343D01*
Y7408994D01*
X11672663D01*
Y7397633D01*
X11666983D01*
Y7391952D01*
X11661302D01*
Y7386272D01*
X11655622D01*
Y7380592D01*
X11649941D01*
Y7374911D01*
X11644260D01*
Y7369231D01*
X11632900D01*
Y7363550D01*
X11615858D01*
Y7357870D01*
X11559053D01*
Y7363550D01*
X11542012D01*
Y7369231D01*
X11524971D01*
Y7374911D01*
X11496568D01*
Y7380592D01*
X11473846D01*
Y7386272D01*
X11451124D01*
Y7391952D01*
X11428403D01*
Y7397633D01*
X11405681D01*
Y7403314D01*
X11382959D01*
Y7408994D01*
X11360237D01*
Y7414675D01*
X11331835D01*
Y7420355D01*
X11309113D01*
Y7426035D01*
X11286391D01*
Y7431716D01*
X11263669D01*
Y7437396D01*
X11240947D01*
Y7443077D01*
X11218225D01*
Y7431716D01*
X11212545D01*
Y7426035D01*
X11206864D01*
Y7431716D01*
X11201184D01*
Y7437396D01*
X11195503D01*
Y7443077D01*
X11189823D01*
Y7448757D01*
X11184142D01*
Y7454438D01*
X11178462D01*
Y7460118D01*
X11172781D01*
Y7465799D01*
X11167101D01*
Y7471479D01*
X11161420D01*
Y7482840D01*
X11155740D01*
Y7488521D01*
X11150059D01*
Y7494201D01*
X11144379D01*
Y7499882D01*
X11138698D01*
Y7505562D01*
X11133018D01*
Y7511243D01*
X11127337D01*
Y7516923D01*
X11121657D01*
Y7522603D01*
X11115976D01*
Y7528284D01*
X11110296D01*
Y7533964D01*
X11104616D01*
Y7539645D01*
X11098935D01*
Y7545325D01*
X11093255D01*
Y7551006D01*
X11087574D01*
Y7556686D01*
X11081894D01*
Y7568047D01*
X11076213D01*
Y7573728D01*
X11070533D01*
Y7579408D01*
X11064852D01*
Y7585089D01*
X11059172D01*
Y7590769D01*
X11053491D01*
Y7596450D01*
X11047811D01*
Y7602130D01*
X11042130D01*
Y7607811D01*
X11036450D01*
Y7613491D01*
X11030769D01*
Y7619171D01*
X11025089D01*
Y7624852D01*
X11019408D01*
Y7630532D01*
X11013728D01*
Y7641894D01*
X11025089D01*
Y7647574D01*
X11030769D01*
Y7675976D01*
X11025089D01*
Y7704379D01*
X11019408D01*
Y7738462D01*
X11013728D01*
Y7772544D01*
X11008047D01*
Y7806627D01*
X11002367D01*
Y7835030D01*
X10996686D01*
Y7869112D01*
X10991006D01*
Y7903195D01*
X10985326D01*
Y7931598D01*
X10979645D01*
Y7965681D01*
X10973965D01*
Y7988402D01*
X10968284D01*
Y8039527D01*
X10973965D01*
Y8056568D01*
X10979645D01*
Y8062249D01*
X10985326D01*
Y8073609D01*
X10991006D01*
Y8079290D01*
X10996686D01*
Y8084970D01*
X11002367D01*
Y8090651D01*
X11008047D01*
Y8096331D01*
X11019408D01*
Y8102012D01*
X11030769D01*
Y8107692D01*
X11036450D01*
Y8113373D01*
X11042130D01*
Y8119053D01*
X11047811D01*
Y8124734D01*
X11053491D01*
Y8130414D01*
X11064852D01*
Y8136095D01*
X11070533D01*
Y8141775D01*
X11076213D01*
Y8147456D01*
X11081894D01*
Y8153136D01*
X11087574D01*
Y8158817D01*
X11093255D01*
Y8164497D01*
X11098935D01*
Y8170177D01*
X11104616D01*
Y8175858D01*
X11110296D01*
Y8181538D01*
X11115976D01*
Y8187219D01*
X11121657D01*
Y8192899D01*
X11127337D01*
Y8198580D01*
X11133018D01*
Y8204260D01*
X11138698D01*
Y8209941D01*
X11144379D01*
Y8215621D01*
X11150059D01*
Y8221302D01*
X11155740D01*
Y8226982D01*
X11161420D01*
Y8232663D01*
X11167101D01*
Y8238343D01*
X11172781D01*
Y8244024D01*
X11178462D01*
Y8249704D01*
X11184142D01*
Y8255385D01*
X11189823D01*
Y8261065D01*
X11195503D01*
Y8266745D01*
X11201184D01*
Y8272426D01*
X11212545D01*
Y8289468D01*
X11218225D01*
Y8300828D01*
X11223905D01*
Y8312189D01*
X11229586D01*
Y8317870D01*
X11235266D01*
Y8323550D01*
X11240947D01*
Y8329231D01*
X11246627D01*
Y8334911D01*
X11263669D01*
Y8340592D01*
X11309113D01*
Y8334911D01*
D02*
G37*
%LPC*%
G36*
X11388639Y8312189D02*
X11343196D01*
Y8306509D01*
X11348876D01*
Y8295148D01*
X11354556D01*
Y8249704D01*
X11371598D01*
Y8255385D01*
X11468166D01*
Y8261065D01*
X11559053D01*
Y8266745D01*
X11655622D01*
Y8272426D01*
X11661302D01*
Y8278107D01*
X11632900D01*
Y8283787D01*
X11587456D01*
Y8289468D01*
X11536332D01*
Y8295148D01*
X11485207D01*
Y8300828D01*
X11439764D01*
Y8306509D01*
X11388639D01*
Y8312189D01*
D02*
G37*
G36*
X11303432Y8329231D02*
X11263669D01*
Y8323550D01*
X11252308D01*
Y8317870D01*
X11246627D01*
Y8312189D01*
X11240947D01*
Y8306509D01*
X11235266D01*
Y8300828D01*
X11229586D01*
Y8283787D01*
X11223905D01*
Y8249704D01*
X11229586D01*
Y8238343D01*
X11235266D01*
Y8232663D01*
X11240947D01*
Y8226982D01*
X11246627D01*
Y8221302D01*
X11252308D01*
Y8215621D01*
X11263669D01*
Y8209941D01*
X11303432D01*
Y8215621D01*
X11314793D01*
Y8221302D01*
X11326154D01*
Y8226982D01*
X11331835D01*
Y8238343D01*
X11337515D01*
Y8244024D01*
X11343196D01*
Y8289468D01*
X11337515D01*
Y8300828D01*
X11331835D01*
Y8312189D01*
X11326154D01*
Y8317870D01*
X11314793D01*
Y8323550D01*
X11303432D01*
Y8329231D01*
D02*
G37*
G36*
X11706746Y8238343D02*
X11701065D01*
Y8232663D01*
X11695385D01*
Y8226982D01*
X11701065D01*
Y8209941D01*
X11706746D01*
Y8204260D01*
X11712426D01*
Y8198580D01*
X11718107D01*
Y8192899D01*
X11723787D01*
Y8187219D01*
X11729468D01*
Y8181538D01*
X11735148D01*
Y8175858D01*
X11740829D01*
Y8170177D01*
X11752190D01*
Y8164497D01*
X11757870D01*
Y8158817D01*
X11763551D01*
Y8153136D01*
X11769231D01*
Y8147456D01*
X11774911D01*
Y8141775D01*
X11780592D01*
Y8136095D01*
X11791953D01*
Y8130414D01*
X11803314D01*
Y8124734D01*
X11820355D01*
Y8130414D01*
X11814675D01*
Y8136095D01*
X11808994D01*
Y8141775D01*
X11803314D01*
Y8147456D01*
X11797633D01*
Y8153136D01*
X11791953D01*
Y8158817D01*
X11786272D01*
Y8164497D01*
X11780592D01*
Y8175858D01*
X11774911D01*
Y8181538D01*
X11769231D01*
Y8187219D01*
X11763551D01*
Y8192899D01*
X11757870D01*
Y8198580D01*
X11752190D01*
Y8204260D01*
X11746509D01*
Y8209941D01*
X11740829D01*
Y8215621D01*
X11735148D01*
Y8221302D01*
X11729468D01*
Y8226982D01*
X11718107D01*
Y8232663D01*
X11706746D01*
Y8238343D01*
D02*
G37*
G36*
X11212545Y8261065D02*
X11206864D01*
Y8255385D01*
X11201184D01*
Y8249704D01*
X11195503D01*
Y8244024D01*
X11189823D01*
Y8238343D01*
X11184142D01*
Y8232663D01*
X11178462D01*
Y8226982D01*
X11172781D01*
Y8221302D01*
X11167101D01*
Y8215621D01*
X11161420D01*
Y8209941D01*
X11155740D01*
Y8204260D01*
X11150059D01*
Y8198580D01*
X11144379D01*
Y8192899D01*
X11138698D01*
Y8187219D01*
X11133018D01*
Y8181538D01*
X11127337D01*
Y8175858D01*
X11121657D01*
Y8170177D01*
X11115976D01*
Y8164497D01*
X11110296D01*
Y8158817D01*
X11104616D01*
Y8153136D01*
X11098935D01*
Y8147456D01*
X11093255D01*
Y8141775D01*
X11087574D01*
Y8136095D01*
X11081894D01*
Y8130414D01*
X11076213D01*
Y8124734D01*
X11070533D01*
Y8119053D01*
X11059172D01*
Y8113373D01*
X11070533D01*
Y8107692D01*
X11098935D01*
Y8102012D01*
X11110296D01*
Y8096331D01*
X11121657D01*
Y8090651D01*
X11127337D01*
Y8084970D01*
X11133018D01*
Y8079290D01*
X11138698D01*
Y8073609D01*
X11144379D01*
Y8067929D01*
X11150059D01*
Y8056568D01*
X11155740D01*
Y8039527D01*
X11167101D01*
Y8050888D01*
X11172781D01*
Y8056568D01*
X11178462D01*
Y8067929D01*
X11184142D01*
Y8073609D01*
X11189823D01*
Y8079290D01*
X11195503D01*
Y8090651D01*
X11201184D01*
Y8096331D01*
X11206864D01*
Y8107692D01*
X11212545D01*
Y8113373D01*
X11218225D01*
Y8124734D01*
X11223905D01*
Y8130414D01*
X11229586D01*
Y8136095D01*
X11235266D01*
Y8147456D01*
X11240947D01*
Y8153136D01*
X11246627D01*
Y8164497D01*
X11252308D01*
Y8170177D01*
X11257988D01*
Y8175858D01*
X11263669D01*
Y8187219D01*
X11269349D01*
Y8192899D01*
X11275030D01*
Y8198580D01*
X11257988D01*
Y8204260D01*
X11246627D01*
Y8209941D01*
X11240947D01*
Y8215621D01*
X11235266D01*
Y8221302D01*
X11229586D01*
Y8226982D01*
X11223905D01*
Y8232663D01*
X11218225D01*
Y8249704D01*
X11212545D01*
Y8261065D01*
D02*
G37*
G36*
X11093255Y8096331D02*
X11036450D01*
Y8090651D01*
X11025089D01*
Y8084970D01*
X11013728D01*
Y8079290D01*
X11008047D01*
Y8073609D01*
X11002367D01*
Y8067929D01*
X10996686D01*
Y8062249D01*
X10991006D01*
Y8050888D01*
X10985326D01*
Y8033846D01*
X10979645D01*
Y7988402D01*
X10985326D01*
Y7977041D01*
X10991006D01*
Y7965681D01*
X10996686D01*
Y7954319D01*
X11002367D01*
Y7948639D01*
X11013728D01*
Y7942958D01*
X11019408D01*
Y7937278D01*
X11030769D01*
Y7931598D01*
X11047811D01*
Y7925917D01*
X11081894D01*
Y7931598D01*
X11098935D01*
Y7937278D01*
X11110296D01*
Y7942958D01*
X11121657D01*
Y7948639D01*
X11127337D01*
Y7954319D01*
X11133018D01*
Y7960000D01*
X11138698D01*
Y7971361D01*
X11144379D01*
Y7988402D01*
X11150059D01*
Y8039527D01*
X11144379D01*
Y8050888D01*
X11138698D01*
Y8062249D01*
X11133018D01*
Y8067929D01*
X11127337D01*
Y8073609D01*
X11121657D01*
Y8079290D01*
X11115976D01*
Y8084970D01*
X11104616D01*
Y8090651D01*
X11093255D01*
Y8096331D01*
D02*
G37*
G36*
X11888521Y8033846D02*
X11882840D01*
Y8011124D01*
X11877160D01*
Y7965681D01*
X11871479D01*
Y7920237D01*
X11865799D01*
Y7874793D01*
X11860119D01*
Y7829349D01*
X11854438D01*
Y7783905D01*
X11848758D01*
Y7738462D01*
X11843077D01*
Y7727101D01*
X11882840D01*
Y7721420D01*
X11894202D01*
Y7715739D01*
X11905562D01*
Y7795266D01*
X11899882D01*
Y7908876D01*
X11894202D01*
Y7931598D01*
Y7937278D01*
Y8022485D01*
X11888521D01*
Y8033846D01*
D02*
G37*
G36*
X11002367Y7942958D02*
X10991006D01*
Y7937278D01*
X10996686D01*
Y7931598D01*
Y7925917D01*
Y7908876D01*
X11002367D01*
Y7874793D01*
X11008047D01*
Y7840710D01*
X11013728D01*
Y7806627D01*
X11019408D01*
Y7778225D01*
X11025089D01*
Y7744142D01*
X11030769D01*
Y7710059D01*
X11036450D01*
Y7675976D01*
X11042130D01*
Y7658935D01*
X11053491D01*
Y7664615D01*
X11064852D01*
Y7670296D01*
X11076213D01*
Y7675976D01*
X11081894D01*
Y7681657D01*
X11093255D01*
Y7687337D01*
X11104616D01*
Y7693018D01*
X11115976D01*
Y7698698D01*
X11121657D01*
Y7704379D01*
X11133018D01*
Y7710059D01*
X11144379D01*
Y7715739D01*
X11155740D01*
Y7721420D01*
X11161420D01*
Y7727101D01*
X11167101D01*
Y7755503D01*
X11161420D01*
Y7783905D01*
X11155740D01*
Y7817988D01*
X11150059D01*
Y7852071D01*
X11144379D01*
Y7880473D01*
X11138698D01*
Y7914556D01*
X11133018D01*
Y7937278D01*
X11127337D01*
Y7931598D01*
X11115976D01*
Y7925917D01*
X11104616D01*
Y7920237D01*
X11087574D01*
Y7914556D01*
X11042130D01*
Y7920237D01*
X11025089D01*
Y7925917D01*
X11013728D01*
Y7931598D01*
X11008047D01*
Y7937278D01*
X11002367D01*
Y7942958D01*
D02*
G37*
G36*
X11877160Y7715739D02*
X11837397D01*
Y7710059D01*
X11826036D01*
Y7704379D01*
X11820355D01*
Y7698698D01*
X11814675D01*
Y7693018D01*
X11808994D01*
Y7687337D01*
X11803314D01*
Y7675976D01*
X11797633D01*
Y7641894D01*
X11803314D01*
Y7624852D01*
X11808994D01*
Y7619171D01*
X11814675D01*
Y7613491D01*
X11820355D01*
Y7607811D01*
X11826036D01*
Y7602130D01*
X11837397D01*
Y7596450D01*
X11877160D01*
Y7602130D01*
X11888521D01*
Y7607811D01*
X11894202D01*
Y7613491D01*
X11899882D01*
Y7619171D01*
X11905562D01*
Y7624852D01*
X11911243D01*
Y7636213D01*
X11916923D01*
Y7675976D01*
X11911243D01*
Y7687337D01*
X11905562D01*
Y7698698D01*
X11899882D01*
Y7704379D01*
X11888521D01*
Y7710059D01*
X11877160D01*
Y7715739D01*
D02*
G37*
G36*
X11610178Y8255385D02*
X11587456D01*
Y8249704D01*
X11490888D01*
Y8244024D01*
X11394320D01*
Y8238343D01*
X11348876D01*
Y8232663D01*
X11343196D01*
Y8221302D01*
X11337515D01*
Y8215621D01*
X11331835D01*
Y8209941D01*
X11320473D01*
Y8204260D01*
X11309113D01*
Y8198580D01*
X11286391D01*
Y8187219D01*
X11280710D01*
Y8181538D01*
X11275030D01*
Y8170177D01*
X11269349D01*
Y8164497D01*
X11263669D01*
Y8158817D01*
X11257988D01*
Y8147456D01*
X11252308D01*
Y8141775D01*
X11246627D01*
Y8130414D01*
X11240947D01*
Y8124734D01*
X11235266D01*
Y8119053D01*
X11229586D01*
Y8107692D01*
X11223905D01*
Y8102012D01*
X11218225D01*
Y8090651D01*
X11212545D01*
Y8084970D01*
X11206864D01*
Y8079290D01*
X11201184D01*
Y8067929D01*
X11195503D01*
Y8062249D01*
X11189823D01*
Y8050888D01*
X11184142D01*
Y8045207D01*
X11178462D01*
Y8039527D01*
X11172781D01*
Y8028166D01*
X11167101D01*
Y8022485D01*
X11161420D01*
Y7982722D01*
X11155740D01*
Y7965681D01*
X11150059D01*
Y7960000D01*
X11144379D01*
Y7920237D01*
X11150059D01*
Y7886154D01*
X11155740D01*
Y7852071D01*
X11161420D01*
Y7823669D01*
X11167101D01*
Y7789586D01*
X11172781D01*
Y7761183D01*
X11178462D01*
Y7732781D01*
X11184142D01*
Y7738462D01*
X11195503D01*
Y7732781D01*
X11201184D01*
Y7727101D01*
X11206864D01*
Y7721420D01*
X11212545D01*
Y7715739D01*
X11218225D01*
Y7710059D01*
X11223905D01*
Y7704379D01*
X11229586D01*
Y7698698D01*
X11235266D01*
Y7693018D01*
X11240947D01*
Y7687337D01*
X11246627D01*
Y7681657D01*
X11252308D01*
Y7675976D01*
X11257988D01*
Y7670296D01*
X11263669D01*
Y7658935D01*
X11269349D01*
Y7653254D01*
X11275030D01*
Y7647574D01*
X11280710D01*
Y7641894D01*
X11286391D01*
Y7636213D01*
X11292071D01*
Y7630532D01*
X11297752D01*
Y7624852D01*
X11303432D01*
Y7619171D01*
X11309113D01*
Y7613491D01*
X11314793D01*
Y7607811D01*
X11320473D01*
Y7596450D01*
X11314793D01*
Y7585089D01*
X11337515D01*
Y7579408D01*
X11360237D01*
Y7573728D01*
X11382959D01*
Y7568047D01*
X11405681D01*
Y7562367D01*
X11428403D01*
Y7556686D01*
X11451124D01*
Y7551006D01*
X11473846D01*
Y7545325D01*
X11496568D01*
Y7539645D01*
X11519290D01*
Y7533964D01*
X11536332D01*
Y7539645D01*
X11547692D01*
Y7545325D01*
X11559053D01*
Y7551006D01*
X11604497D01*
Y7556686D01*
X11615858D01*
Y7562367D01*
X11621539D01*
Y7568047D01*
X11632900D01*
Y7573728D01*
X11644260D01*
Y7579408D01*
X11649941D01*
Y7585089D01*
X11661302D01*
Y7590769D01*
X11666983D01*
Y7596450D01*
X11678343D01*
Y7602130D01*
X11689704D01*
Y7607811D01*
X11695385D01*
Y7613491D01*
X11706746D01*
Y7619171D01*
X11718107D01*
Y7624852D01*
X11723787D01*
Y7630532D01*
X11735148D01*
Y7636213D01*
X11740829D01*
Y7641894D01*
X11752190D01*
Y7647574D01*
X11763551D01*
Y7653254D01*
X11769231D01*
Y7658935D01*
X11780592D01*
Y7664615D01*
X11786272D01*
Y7675976D01*
X11791953D01*
Y7693018D01*
X11797633D01*
Y7698698D01*
X11803314D01*
Y7710059D01*
X11814675D01*
Y7715739D01*
X11820355D01*
Y7721420D01*
X11831716D01*
Y7744142D01*
X11837397D01*
Y7789586D01*
X11843077D01*
Y7835030D01*
X11848758D01*
Y7880473D01*
X11854438D01*
Y7925917D01*
X11860119D01*
Y7971361D01*
X11865799D01*
Y8016805D01*
X11860119D01*
Y8028166D01*
X11854438D01*
Y8039527D01*
X11848758D01*
Y8056568D01*
X11843077D01*
Y8062249D01*
X11837397D01*
Y8073609D01*
X11831716D01*
Y8084970D01*
X11826036D01*
Y8096331D01*
X11820355D01*
Y8113373D01*
X11797633D01*
Y8119053D01*
X11786272D01*
Y8124734D01*
X11774911D01*
Y8130414D01*
X11769231D01*
Y8136095D01*
X11763551D01*
Y8141775D01*
X11757870D01*
Y8147456D01*
X11752190D01*
Y8153136D01*
X11746509D01*
Y8158817D01*
X11740829D01*
Y8164497D01*
X11729468D01*
Y8170177D01*
X11723787D01*
Y8175858D01*
X11718107D01*
Y8181538D01*
X11712426D01*
Y8187219D01*
X11706746D01*
Y8192899D01*
X11701065D01*
Y8198580D01*
X11695385D01*
Y8209941D01*
X11689704D01*
Y8221302D01*
X11684024D01*
Y8232663D01*
X11655622D01*
Y8238343D01*
X11638580D01*
Y8244024D01*
X11627219D01*
Y8249704D01*
X11610178D01*
Y8255385D01*
D02*
G37*
G36*
X11189823Y7727101D02*
X11184142D01*
Y7721420D01*
X11178462D01*
Y7715739D01*
X11167101D01*
Y7710059D01*
X11155740D01*
Y7704379D01*
X11144379D01*
Y7698698D01*
X11138698D01*
Y7693018D01*
X11127337D01*
Y7687337D01*
X11115976D01*
Y7681657D01*
X11110296D01*
Y7675976D01*
X11098935D01*
Y7670296D01*
X11087574D01*
Y7664615D01*
X11076213D01*
Y7658935D01*
X11070533D01*
Y7653254D01*
X11059172D01*
Y7647574D01*
X11047811D01*
Y7641894D01*
X11036450D01*
Y7636213D01*
X11030769D01*
Y7630532D01*
X11036450D01*
Y7624852D01*
X11042130D01*
Y7619171D01*
X11047811D01*
Y7613491D01*
X11053491D01*
Y7607811D01*
X11059172D01*
Y7602130D01*
X11064852D01*
Y7596450D01*
X11070533D01*
Y7590769D01*
X11076213D01*
Y7585089D01*
X11081894D01*
Y7579408D01*
X11087574D01*
Y7573728D01*
X11093255D01*
Y7562367D01*
X11098935D01*
Y7556686D01*
X11104616D01*
Y7551006D01*
X11110296D01*
Y7545325D01*
X11115976D01*
Y7539645D01*
X11121657D01*
Y7533964D01*
X11127337D01*
Y7528284D01*
X11133018D01*
Y7522603D01*
X11138698D01*
Y7516923D01*
X11144379D01*
Y7511243D01*
X11150059D01*
Y7505562D01*
X11155740D01*
Y7499882D01*
X11161420D01*
Y7488521D01*
X11167101D01*
Y7482840D01*
X11172781D01*
Y7477160D01*
X11178462D01*
Y7471479D01*
X11184142D01*
Y7465799D01*
X11189823D01*
Y7460118D01*
X11195503D01*
Y7454438D01*
X11201184D01*
Y7448757D01*
X11206864D01*
Y7443077D01*
X11212545D01*
Y7454438D01*
X11218225D01*
Y7465799D01*
X11223905D01*
Y7471479D01*
X11229586D01*
Y7482840D01*
X11235266D01*
Y7494201D01*
X11240947D01*
Y7499882D01*
X11246627D01*
Y7511243D01*
X11252308D01*
Y7516923D01*
X11257988D01*
Y7528284D01*
X11263669D01*
Y7539645D01*
X11269349D01*
Y7545325D01*
X11275030D01*
Y7556686D01*
X11280710D01*
Y7562367D01*
X11286391D01*
Y7573728D01*
X11292071D01*
Y7585089D01*
X11297752D01*
Y7590769D01*
X11303432D01*
Y7607811D01*
X11297752D01*
Y7613491D01*
X11292071D01*
Y7619171D01*
X11286391D01*
Y7624852D01*
X11280710D01*
Y7630532D01*
X11275030D01*
Y7636213D01*
X11269349D01*
Y7641894D01*
X11263669D01*
Y7647574D01*
X11257988D01*
Y7658935D01*
X11252308D01*
Y7664615D01*
X11246627D01*
Y7670296D01*
X11240947D01*
Y7675976D01*
X11235266D01*
Y7681657D01*
X11229586D01*
Y7687337D01*
X11223905D01*
Y7693018D01*
X11218225D01*
Y7698698D01*
X11212545D01*
Y7704379D01*
X11206864D01*
Y7710059D01*
X11201184D01*
Y7715739D01*
X11195503D01*
Y7721420D01*
X11189823D01*
Y7727101D01*
D02*
G37*
G36*
X11786272Y7647574D02*
X11774911D01*
Y7641894D01*
X11763551D01*
Y7636213D01*
X11757870D01*
Y7630532D01*
X11746509D01*
Y7624852D01*
X11740829D01*
Y7619171D01*
X11729468D01*
Y7613491D01*
X11718107D01*
Y7607811D01*
X11712426D01*
Y7602130D01*
X11701065D01*
Y7596450D01*
X11689704D01*
Y7590769D01*
X11684024D01*
Y7585089D01*
X11672663D01*
Y7579408D01*
X11666983D01*
Y7573728D01*
X11655622D01*
Y7568047D01*
X11644260D01*
Y7562367D01*
X11638580D01*
Y7556686D01*
X11627219D01*
Y7551006D01*
X11621539D01*
Y7545325D01*
X11627219D01*
Y7539645D01*
X11638580D01*
Y7533964D01*
X11649941D01*
Y7528284D01*
X11655622D01*
Y7522603D01*
X11661302D01*
Y7516923D01*
X11666983D01*
Y7505562D01*
X11672663D01*
Y7499882D01*
X11678343D01*
Y7482840D01*
X11684024D01*
Y7437396D01*
X11689704D01*
Y7443077D01*
X11695385D01*
Y7448757D01*
X11701065D01*
Y7454438D01*
X11706746D01*
Y7460118D01*
X11712426D01*
Y7465799D01*
X11718107D01*
Y7471479D01*
X11723787D01*
Y7477160D01*
X11729468D01*
Y7482840D01*
X11735148D01*
Y7488521D01*
X11740829D01*
Y7494201D01*
X11746509D01*
Y7499882D01*
X11757870D01*
Y7505562D01*
X11763551D01*
Y7511243D01*
X11769231D01*
Y7516923D01*
X11774911D01*
Y7522603D01*
X11780592D01*
Y7528284D01*
X11786272D01*
Y7533964D01*
X11791953D01*
Y7539645D01*
X11797633D01*
Y7545325D01*
X11803314D01*
Y7551006D01*
X11808994D01*
Y7556686D01*
X11814675D01*
Y7562367D01*
X11826036D01*
Y7568047D01*
X11831716D01*
Y7573728D01*
X11837397D01*
Y7579408D01*
X11843077D01*
Y7585089D01*
X11837397D01*
Y7590769D01*
X11820355D01*
Y7596450D01*
X11814675D01*
Y7602130D01*
X11808994D01*
Y7607811D01*
X11803314D01*
Y7613491D01*
X11797633D01*
Y7624852D01*
X11791953D01*
Y7636213D01*
X11786272D01*
Y7647574D01*
D02*
G37*
G36*
X11309113Y7579408D02*
X11303432D01*
Y7568047D01*
X11297752D01*
Y7562367D01*
X11292071D01*
Y7551006D01*
X11286391D01*
Y7539645D01*
X11280710D01*
Y7533964D01*
X11275030D01*
Y7522603D01*
X11269349D01*
Y7516923D01*
X11263669D01*
Y7505562D01*
X11257988D01*
Y7494201D01*
X11252308D01*
Y7488521D01*
X11246627D01*
Y7477160D01*
X11240947D01*
Y7471479D01*
X11235266D01*
Y7460118D01*
X11229586D01*
Y7454438D01*
X11246627D01*
Y7448757D01*
X11269349D01*
Y7443077D01*
X11292071D01*
Y7437396D01*
X11314793D01*
Y7431716D01*
X11337515D01*
Y7426035D01*
X11365917D01*
Y7420355D01*
X11388639D01*
Y7414675D01*
X11411361D01*
Y7408994D01*
X11434083D01*
Y7403314D01*
X11456805D01*
Y7397633D01*
X11479527D01*
Y7391952D01*
X11502249D01*
Y7386272D01*
X11513610D01*
Y7391952D01*
X11507929D01*
Y7403314D01*
X11502249D01*
Y7414675D01*
X11496568D01*
Y7426035D01*
X11490888D01*
Y7482840D01*
X11496568D01*
Y7494201D01*
X11502249D01*
Y7505562D01*
X11507929D01*
Y7516923D01*
X11513610D01*
Y7528284D01*
X11490888D01*
Y7533964D01*
X11468166D01*
Y7539645D01*
X11445444D01*
Y7545325D01*
X11422722D01*
Y7551006D01*
X11400000D01*
Y7556686D01*
X11377278D01*
Y7562367D01*
X11354556D01*
Y7568047D01*
X11331835D01*
Y7573728D01*
X11309113D01*
Y7579408D01*
D02*
G37*
G36*
X11610178Y7539645D02*
X11564734D01*
Y7533964D01*
X11547692D01*
Y7528284D01*
X11542012D01*
Y7522603D01*
X11530651D01*
Y7516923D01*
X11524971D01*
Y7511243D01*
X11519290D01*
Y7499882D01*
X11513610D01*
Y7494201D01*
X11507929D01*
Y7477160D01*
X11502249D01*
Y7431716D01*
X11507929D01*
Y7414675D01*
X11513610D01*
Y7408994D01*
X11519290D01*
Y7397633D01*
X11524971D01*
Y7391952D01*
X11530651D01*
Y7386272D01*
X11542012D01*
Y7380592D01*
X11547692D01*
Y7374911D01*
X11564734D01*
Y7369231D01*
X11610178D01*
Y7374911D01*
X11627219D01*
Y7380592D01*
X11638580D01*
Y7386272D01*
X11644260D01*
Y7391952D01*
X11649941D01*
Y7397633D01*
X11655622D01*
Y7403314D01*
X11661302D01*
Y7414675D01*
X11666983D01*
Y7426035D01*
X11672663D01*
Y7482840D01*
X11666983D01*
Y7494201D01*
X11661302D01*
Y7505562D01*
X11655622D01*
Y7511243D01*
X11649941D01*
Y7516923D01*
X11644260D01*
Y7522603D01*
X11638580D01*
Y7528284D01*
X11627219D01*
Y7533964D01*
X11610178D01*
Y7539645D01*
D02*
G37*
%LPD*%
G36*
X11292071Y8312189D02*
X11309113D01*
Y8306509D01*
X11314793D01*
Y8300828D01*
X11320473D01*
Y8295148D01*
X11326154D01*
Y8283787D01*
X11331835D01*
Y8255385D01*
X11326154D01*
Y8244024D01*
X11320473D01*
Y8238343D01*
X11314793D01*
Y8232663D01*
X11309113D01*
Y8226982D01*
X11297752D01*
Y8221302D01*
X11275030D01*
Y8226982D01*
X11257988D01*
Y8232663D01*
X11252308D01*
Y8238343D01*
X11246627D01*
Y8249704D01*
X11240947D01*
Y8266745D01*
X11235266D01*
Y8272426D01*
X11240947D01*
Y8289468D01*
X11246627D01*
Y8300828D01*
X11252308D01*
Y8306509D01*
X11263669D01*
Y8312189D01*
X11280710D01*
Y8317870D01*
X11292071D01*
Y8312189D01*
D02*
G37*
%LPC*%
G36*
X11303432Y8300828D02*
X11263669D01*
Y8295148D01*
X11257988D01*
Y8289468D01*
X11252308D01*
Y8283787D01*
Y8278107D01*
Y8249704D01*
X11257988D01*
Y8244024D01*
X11263669D01*
Y8238343D01*
X11280710D01*
Y8232663D01*
X11292071D01*
Y8238343D01*
X11303432D01*
Y8244024D01*
X11309113D01*
Y8249704D01*
X11314793D01*
Y8261065D01*
X11320473D01*
Y8278107D01*
X11314793D01*
Y8289468D01*
X11309113D01*
Y8295148D01*
X11303432D01*
Y8300828D01*
D02*
G37*
%LPD*%
G36*
X11081894Y8067929D02*
X11093255D01*
Y8062249D01*
X11104616D01*
Y8056568D01*
X11110296D01*
Y8050888D01*
X11115976D01*
Y8039527D01*
X11121657D01*
Y8028166D01*
X11127337D01*
Y7999763D01*
X11121657D01*
Y7982722D01*
X11115976D01*
Y7977041D01*
X11110296D01*
Y7965681D01*
X11098935D01*
Y7960000D01*
X11087574D01*
Y7954319D01*
X11064852D01*
Y7948639D01*
X11059172D01*
Y7954319D01*
X11042130D01*
Y7960000D01*
X11030769D01*
Y7965681D01*
X11025089D01*
Y7971361D01*
X11019408D01*
Y7977041D01*
X11013728D01*
Y7988402D01*
X11008047D01*
Y8005444D01*
X11002367D01*
Y8022485D01*
X11008047D01*
Y8039527D01*
X11013728D01*
Y8045207D01*
X11019408D01*
Y8056568D01*
X11025089D01*
Y8062249D01*
X11036450D01*
Y8067929D01*
X11047811D01*
Y8073609D01*
X11081894D01*
Y8067929D01*
D02*
G37*
%LPC*%
G36*
X11076213Y8062249D02*
X11053491D01*
Y8056568D01*
X11042130D01*
Y8050888D01*
X11030769D01*
Y8045207D01*
X11025089D01*
Y8033846D01*
X11019408D01*
Y7988402D01*
X11025089D01*
Y7982722D01*
X11030769D01*
Y7977041D01*
X11036450D01*
Y7971361D01*
X11042130D01*
Y7965681D01*
X11087574D01*
Y7971361D01*
X11093255D01*
Y7977041D01*
X11098935D01*
Y7982722D01*
X11104616D01*
Y7988402D01*
X11110296D01*
Y8005444D01*
X11115976D01*
Y8016805D01*
X11110296D01*
Y8028166D01*
Y8033846D01*
Y8039527D01*
X11104616D01*
Y8045207D01*
X11098935D01*
Y8050888D01*
X11093255D01*
Y8056568D01*
X11076213D01*
Y8062249D01*
D02*
G37*
%LPD*%
G36*
X11871479Y7698698D02*
X11882840D01*
Y7693018D01*
X11888521D01*
Y7687337D01*
X11894202D01*
Y7681657D01*
X11899882D01*
Y7670296D01*
X11905562D01*
Y7647574D01*
X11899882D01*
Y7630532D01*
X11894202D01*
Y7624852D01*
X11888521D01*
Y7619171D01*
X11882840D01*
Y7613491D01*
X11865799D01*
Y7607811D01*
X11854438D01*
Y7613491D01*
X11837397D01*
Y7619171D01*
X11826036D01*
Y7624852D01*
X11820355D01*
Y7636213D01*
X11814675D01*
Y7653254D01*
X11808994D01*
Y7664615D01*
X11814675D01*
Y7681657D01*
X11820355D01*
Y7687337D01*
X11826036D01*
Y7693018D01*
X11831716D01*
Y7698698D01*
X11843077D01*
Y7704379D01*
X11871479D01*
Y7698698D01*
D02*
G37*
%LPC*%
G36*
X11865799Y7693018D02*
X11848758D01*
Y7687337D01*
X11837397D01*
Y7681657D01*
X11831716D01*
Y7675976D01*
X11826036D01*
Y7636213D01*
X11831716D01*
Y7630532D01*
X11837397D01*
Y7624852D01*
X11877160D01*
Y7630532D01*
X11882840D01*
Y7636213D01*
X11888521D01*
Y7653254D01*
X11894202D01*
Y7658935D01*
Y7664615D01*
X11888521D01*
Y7675976D01*
X11882840D01*
Y7681657D01*
X11877160D01*
Y7687337D01*
X11865799D01*
Y7693018D01*
D02*
G37*
%LPD*%
G36*
X11519290Y8226982D02*
X11524971D01*
Y8215621D01*
X11519290D01*
Y8209941D01*
X11507929D01*
Y8204260D01*
X11468166D01*
Y8209941D01*
X11462485D01*
Y8215621D01*
X11456805D01*
Y8221302D01*
X11462485D01*
Y8226982D01*
X11468166D01*
Y8232663D01*
X11519290D01*
Y8226982D01*
D02*
G37*
G36*
X11422722Y8175858D02*
X11439764D01*
Y8170177D01*
X11456805D01*
Y8164497D01*
X11473846D01*
Y8158817D01*
X11485207D01*
Y8153136D01*
X11490888D01*
Y8147456D01*
X11496568D01*
Y8136095D01*
X11507929D01*
Y8130414D01*
X11513610D01*
Y8124734D01*
X11519290D01*
Y8119053D01*
X11502249D01*
Y8124734D01*
X11496568D01*
Y8119053D01*
Y8113373D01*
X11490888D01*
Y8102012D01*
X11485207D01*
Y8096331D01*
X11479527D01*
Y8090651D01*
X11473846D01*
Y8084970D01*
X11462485D01*
Y8079290D01*
X11456805D01*
Y8073609D01*
X11445444D01*
Y8067929D01*
X11434083D01*
Y8062249D01*
X11400000D01*
Y8056568D01*
X11377278D01*
Y8062249D01*
X11348876D01*
Y8067929D01*
X11343196D01*
Y8050888D01*
X11331835D01*
Y8084970D01*
X11326154D01*
Y8096331D01*
X11331835D01*
Y8113373D01*
X11337515D01*
Y8124734D01*
X11343196D01*
Y8136095D01*
X11348876D01*
Y8141775D01*
X11354556D01*
Y8147456D01*
X11360237D01*
Y8153136D01*
X11365917D01*
Y8158817D01*
X11377278D01*
Y8164497D01*
X11382959D01*
Y8170177D01*
X11394320D01*
Y8175858D01*
X11417042D01*
Y8181538D01*
X11422722D01*
Y8175858D01*
D02*
G37*
G36*
X11666983Y8141775D02*
X11672663D01*
Y8136095D01*
X11678343D01*
Y8119053D01*
X11666983D01*
Y8113373D01*
X11661302D01*
Y8119053D01*
X11644260D01*
Y8124734D01*
X11638580D01*
Y8147456D01*
X11666983D01*
Y8141775D01*
D02*
G37*
G36*
X11661302Y8067929D02*
X11672663D01*
Y8062249D01*
X11684024D01*
Y8056568D01*
X11695385D01*
Y8050888D01*
X11701065D01*
Y8045207D01*
X11706746D01*
Y8039527D01*
X11712426D01*
Y8022485D01*
X11718107D01*
Y8016805D01*
X11712426D01*
Y8005444D01*
X11684024D01*
Y8011124D01*
X11672663D01*
Y8016805D01*
X11661302D01*
Y8022485D01*
X11655622D01*
Y8028166D01*
X11649941D01*
Y8033846D01*
X11644260D01*
Y8039527D01*
X11638580D01*
Y8050888D01*
X11632900D01*
Y8062249D01*
X11638580D01*
Y8067929D01*
X11644260D01*
Y8073609D01*
X11661302D01*
Y8067929D01*
D02*
G37*
G36*
X11252308Y8016805D02*
X11257988D01*
Y7994083D01*
X11252308D01*
Y7988402D01*
X11240947D01*
Y7982722D01*
X11229586D01*
Y7988402D01*
X11223905D01*
Y7994083D01*
X11218225D01*
Y7999763D01*
X11223905D01*
Y8011124D01*
X11229586D01*
Y8016805D01*
X11240947D01*
Y8022485D01*
X11252308D01*
Y8016805D01*
D02*
G37*
G36*
X11314793Y7954319D02*
X11331835D01*
Y7948639D01*
X11343196D01*
Y7942958D01*
X11348876D01*
Y7937278D01*
X11343196D01*
Y7931598D01*
X11337515D01*
Y7920237D01*
X11331835D01*
Y7914556D01*
X11320473D01*
Y7920237D01*
X11309113D01*
Y7925917D01*
X11269349D01*
Y7920237D01*
X11263669D01*
Y7903195D01*
X11275030D01*
Y7897515D01*
X11292071D01*
Y7891834D01*
X11314793D01*
Y7886154D01*
X11331835D01*
Y7880473D01*
X11337515D01*
Y7874793D01*
X11343196D01*
Y7869112D01*
X11348876D01*
Y7863432D01*
X11354556D01*
Y7829349D01*
X11348876D01*
Y7817988D01*
X11343196D01*
Y7812308D01*
X11337515D01*
Y7806627D01*
X11331835D01*
Y7800947D01*
X11320473D01*
Y7795266D01*
X11297752D01*
Y7789586D01*
X11275030D01*
Y7795266D01*
X11246627D01*
Y7800947D01*
X11235266D01*
Y7806627D01*
X11223905D01*
Y7812308D01*
X11218225D01*
Y7823669D01*
X11223905D01*
Y7829349D01*
X11229586D01*
Y7835030D01*
X11235266D01*
Y7840710D01*
X11246627D01*
Y7835030D01*
X11257988D01*
Y7829349D01*
X11280710D01*
Y7823669D01*
X11286391D01*
Y7829349D01*
X11309113D01*
Y7835030D01*
X11314793D01*
Y7846390D01*
X11309113D01*
Y7852071D01*
X11297752D01*
Y7857751D01*
X11280710D01*
Y7863432D01*
X11257988D01*
Y7869112D01*
X11246627D01*
Y7874793D01*
X11235266D01*
Y7880473D01*
X11229586D01*
Y7891834D01*
X11223905D01*
Y7931598D01*
X11229586D01*
Y7937278D01*
X11235266D01*
Y7942958D01*
X11240947D01*
Y7948639D01*
X11246627D01*
Y7954319D01*
X11257988D01*
Y7960000D01*
X11314793D01*
Y7954319D01*
D02*
G37*
G36*
X11587456Y7948639D02*
X11593136D01*
Y7937278D01*
X11598817D01*
Y7925917D01*
X11604497D01*
Y7908876D01*
X11610178D01*
Y7897515D01*
X11615858D01*
Y7886154D01*
X11621539D01*
Y7874793D01*
X11627219D01*
Y7863432D01*
X11632900D01*
Y7852071D01*
X11638580D01*
Y7840710D01*
X11644260D01*
Y7829349D01*
X11649941D01*
Y7817988D01*
X11655622D01*
Y7800947D01*
X11661302D01*
Y7795266D01*
X11621539D01*
Y7800947D01*
X11615858D01*
Y7817988D01*
X11610178D01*
Y7823669D01*
X11553373D01*
Y7812308D01*
X11547692D01*
Y7800947D01*
X11542012D01*
Y7795266D01*
X11456805D01*
Y7800947D01*
X11451124D01*
Y7812308D01*
X11445444D01*
Y7817988D01*
X11439764D01*
Y7823669D01*
X11434083D01*
Y7835030D01*
X11428403D01*
Y7840710D01*
X11417042D01*
Y7829349D01*
X11411361D01*
Y7823669D01*
X11405681D01*
Y7812308D01*
X11400000D01*
Y7806627D01*
X11394320D01*
Y7795266D01*
X11360237D01*
Y7874793D01*
Y7880473D01*
Y7954319D01*
X11365917D01*
Y7960000D01*
X11400000D01*
Y7869112D01*
X11405681D01*
Y7880473D01*
X11411361D01*
Y7891834D01*
X11417042D01*
Y7897515D01*
X11422722D01*
Y7908876D01*
X11428403D01*
Y7920237D01*
X11434083D01*
Y7931598D01*
X11439764D01*
Y7937278D01*
X11445444D01*
Y7948639D01*
X11451124D01*
Y7960000D01*
X11496568D01*
Y7954319D01*
X11490888D01*
Y7942958D01*
X11485207D01*
Y7937278D01*
X11479527D01*
Y7925917D01*
X11473846D01*
Y7920237D01*
X11468166D01*
Y7908876D01*
X11462485D01*
Y7903195D01*
X11456805D01*
Y7891834D01*
X11451124D01*
Y7886154D01*
X11445444D01*
Y7874793D01*
X11451124D01*
Y7869112D01*
X11456805D01*
Y7857751D01*
X11462485D01*
Y7852071D01*
X11468166D01*
Y7840710D01*
X11473846D01*
Y7835030D01*
X11479527D01*
Y7823669D01*
X11485207D01*
Y7817988D01*
X11490888D01*
Y7806627D01*
X11496568D01*
Y7800947D01*
X11507929D01*
Y7812308D01*
X11513610D01*
Y7823669D01*
X11519290D01*
Y7835030D01*
X11524971D01*
Y7846390D01*
X11530651D01*
Y7857751D01*
X11536332D01*
Y7874793D01*
X11542012D01*
Y7886154D01*
X11547692D01*
Y7897515D01*
X11553373D01*
Y7908876D01*
X11559053D01*
Y7920237D01*
X11564734D01*
Y7931598D01*
X11570415D01*
Y7942958D01*
X11576095D01*
Y7954319D01*
X11581775D01*
Y7960000D01*
X11587456D01*
Y7948639D01*
D02*
G37*
G36*
X11763551Y7954319D02*
X11774911D01*
Y7948639D01*
X11786272D01*
Y7942958D01*
X11791953D01*
Y7937278D01*
X11797633D01*
Y7925917D01*
X11803314D01*
Y7886154D01*
X11797633D01*
Y7874793D01*
X11791953D01*
Y7869112D01*
X11786272D01*
Y7863432D01*
X11774911D01*
Y7852071D01*
X11780592D01*
Y7840710D01*
X11786272D01*
Y7835030D01*
X11791953D01*
Y7823669D01*
X11797633D01*
Y7817988D01*
X11803314D01*
Y7806627D01*
X11808994D01*
Y7800947D01*
X11814675D01*
Y7795266D01*
X11763551D01*
Y7800947D01*
X11757870D01*
Y7812308D01*
X11752190D01*
Y7817988D01*
X11746509D01*
Y7829349D01*
X11740829D01*
Y7835030D01*
X11735148D01*
Y7846390D01*
X11729468D01*
Y7852071D01*
X11706746D01*
Y7795266D01*
X11666983D01*
Y7960000D01*
X11763551D01*
Y7954319D01*
D02*
G37*
G36*
X11326154Y7727101D02*
X11331835D01*
Y7721420D01*
X11337515D01*
Y7715739D01*
X11343196D01*
Y7693018D01*
X11314793D01*
Y7698698D01*
X11309113D01*
Y7704379D01*
X11303432D01*
Y7710059D01*
X11297752D01*
Y7715739D01*
Y7721420D01*
Y7732781D01*
X11326154D01*
Y7727101D01*
D02*
G37*
G36*
X11712426Y7721420D02*
X11718107D01*
Y7698698D01*
X11712426D01*
Y7693018D01*
X11706746D01*
Y7687337D01*
X11695385D01*
Y7681657D01*
X11661302D01*
Y7687337D01*
X11655622D01*
Y7704379D01*
X11661302D01*
Y7715739D01*
X11666983D01*
Y7721420D01*
X11678343D01*
Y7727101D01*
X11712426D01*
Y7721420D01*
D02*
G37*
G36*
X11496568Y7647574D02*
X11519290D01*
Y7641894D01*
X11536332D01*
Y7636213D01*
X11547692D01*
Y7630532D01*
X11553373D01*
Y7624852D01*
X11559053D01*
Y7619171D01*
X11576095D01*
Y7602130D01*
X11570415D01*
Y7590769D01*
X11564734D01*
Y7585089D01*
X11559053D01*
Y7579408D01*
X11547692D01*
Y7573728D01*
X11530651D01*
Y7568047D01*
X11479527D01*
Y7573728D01*
X11462485D01*
Y7579408D01*
X11445444D01*
Y7585089D01*
X11434083D01*
Y7590769D01*
X11422722D01*
Y7596450D01*
X11411361D01*
Y7602130D01*
X11405681D01*
Y7636213D01*
X11400000D01*
Y7653254D01*
X11411361D01*
Y7641894D01*
X11428403D01*
Y7647574D01*
X11451124D01*
Y7653254D01*
X11496568D01*
Y7647574D01*
D02*
G37*
%LPC*%
G36*
X11502249Y8221302D02*
X11473846D01*
Y8215621D01*
X11502249D01*
Y8221302D01*
D02*
G37*
G36*
X11439764Y8164497D02*
X11394320D01*
Y8158817D01*
X11388639D01*
Y8153136D01*
X11377278D01*
Y8147456D01*
X11371598D01*
Y8141775D01*
X11365917D01*
Y8136095D01*
X11360237D01*
Y8130414D01*
X11354556D01*
Y8119053D01*
X11348876D01*
Y8107692D01*
X11343196D01*
Y8079290D01*
X11354556D01*
Y8073609D01*
X11428403D01*
Y8079290D01*
X11439764D01*
Y8084970D01*
X11451124D01*
Y8090651D01*
X11462485D01*
Y8096331D01*
X11468166D01*
Y8102012D01*
X11473846D01*
Y8107692D01*
X11479527D01*
Y8119053D01*
X11485207D01*
Y8141775D01*
X11479527D01*
Y8147456D01*
X11468166D01*
Y8153136D01*
X11456805D01*
Y8158817D01*
X11439764D01*
Y8164497D01*
D02*
G37*
G36*
X11661302Y8136095D02*
X11649941D01*
Y8130414D01*
X11661302D01*
Y8136095D01*
D02*
G37*
G36*
X11655622Y8062249D02*
X11649941D01*
Y8056568D01*
X11644260D01*
Y8050888D01*
X11649941D01*
Y8045207D01*
X11655622D01*
Y8039527D01*
X11661302D01*
Y8033846D01*
X11666983D01*
Y8028166D01*
X11672663D01*
Y8022485D01*
X11684024D01*
Y8016805D01*
X11701065D01*
Y8033846D01*
X11695385D01*
Y8039527D01*
X11689704D01*
Y8045207D01*
X11678343D01*
Y8050888D01*
X11672663D01*
Y8056568D01*
X11655622D01*
Y8062249D01*
D02*
G37*
G36*
X11246627Y8011124D02*
X11240947D01*
Y8005444D01*
X11235266D01*
Y7999763D01*
X11246627D01*
Y8011124D01*
D02*
G37*
G36*
X11587456Y7886154D02*
X11581775D01*
Y7874793D01*
X11576095D01*
Y7863432D01*
X11570415D01*
Y7852071D01*
X11598817D01*
Y7857751D01*
X11593136D01*
Y7869112D01*
X11587456D01*
Y7886154D01*
D02*
G37*
G36*
X11752190Y7925917D02*
X11706746D01*
Y7886154D01*
X11752190D01*
Y7891834D01*
X11757870D01*
Y7897515D01*
X11763551D01*
Y7914556D01*
X11757870D01*
Y7920237D01*
X11752190D01*
Y7925917D01*
D02*
G37*
G36*
X11320473Y7721420D02*
X11309113D01*
Y7710059D01*
X11320473D01*
Y7704379D01*
X11331835D01*
Y7710059D01*
X11326154D01*
Y7715739D01*
X11320473D01*
Y7721420D01*
D02*
G37*
G36*
X11706746Y7715739D02*
X11684024D01*
Y7710059D01*
X11672663D01*
Y7704379D01*
X11666983D01*
Y7693018D01*
X11689704D01*
Y7698698D01*
X11701065D01*
Y7704379D01*
X11706746D01*
Y7715739D01*
D02*
G37*
G36*
X11490888Y7641894D02*
X11456805D01*
Y7636213D01*
X11434083D01*
Y7630532D01*
X11417042D01*
Y7607811D01*
X11422722D01*
Y7602130D01*
X11434083D01*
Y7596450D01*
X11451124D01*
Y7590769D01*
X11468166D01*
Y7585089D01*
X11485207D01*
Y7579408D01*
X11524971D01*
Y7585089D01*
X11547692D01*
Y7590769D01*
X11559053D01*
Y7607811D01*
X11553373D01*
Y7613491D01*
X11547692D01*
Y7619171D01*
X11542012D01*
Y7624852D01*
X11530651D01*
Y7630532D01*
X11513610D01*
Y7636213D01*
X11490888D01*
Y7641894D01*
D02*
G37*
%LPD*%
G36*
X11598817Y7511243D02*
X11615858D01*
Y7505562D01*
X11621539D01*
Y7499882D01*
X11632900D01*
Y7494201D01*
X11638580D01*
Y7482840D01*
X11644260D01*
Y7471479D01*
X11649941D01*
Y7437396D01*
X11644260D01*
Y7426035D01*
X11638580D01*
Y7420355D01*
X11632900D01*
Y7408994D01*
X11627219D01*
Y7403314D01*
X11615858D01*
Y7397633D01*
X11598817D01*
Y7391952D01*
X11576095D01*
Y7397633D01*
X11559053D01*
Y7403314D01*
X11553373D01*
Y7408994D01*
X11542012D01*
Y7420355D01*
X11536332D01*
Y7426035D01*
X11530651D01*
Y7443077D01*
X11524971D01*
Y7465799D01*
X11530651D01*
Y7482840D01*
X11536332D01*
Y7488521D01*
X11542012D01*
Y7499882D01*
X11553373D01*
Y7505562D01*
X11559053D01*
Y7511243D01*
X11576095D01*
Y7516923D01*
X11598817D01*
Y7511243D01*
D02*
G37*
%LPC*%
G36*
X11593136Y7505562D02*
X11581775D01*
Y7499882D01*
X11564734D01*
Y7494201D01*
X11559053D01*
Y7488521D01*
X11553373D01*
Y7482840D01*
X11547692D01*
Y7477160D01*
X11542012D01*
Y7431716D01*
X11547692D01*
Y7426035D01*
X11553373D01*
Y7420355D01*
X11559053D01*
Y7414675D01*
X11564734D01*
Y7408994D01*
X11581775D01*
Y7403314D01*
X11593136D01*
Y7408994D01*
X11610178D01*
Y7414675D01*
X11621539D01*
Y7420355D01*
X11627219D01*
Y7431716D01*
X11632900D01*
Y7443077D01*
X11638580D01*
Y7460118D01*
X11632900D01*
Y7477160D01*
X11627219D01*
Y7488521D01*
X11621539D01*
Y7494201D01*
X11610178D01*
Y7499882D01*
X11593136D01*
Y7505562D01*
D02*
G37*
%LPD*%
D35*
X17412500Y2585000D02*
G03*
X17412500Y2585000I-12500J0D01*
G01*
Y4525000D02*
G03*
X17412500Y4525000I-12500J0D01*
G01*
X11175000Y4117500D02*
G03*
X11175000Y4117500I-12500J0D01*
G01*
X15078500Y5842000D02*
G03*
X15078500Y5842000I-12500J0D01*
G01*
Y4826000D02*
G03*
X15078500Y4826000I-12500J0D01*
G01*
X17412500Y8075000D02*
G03*
X17412500Y8075000I-12500J0D01*
G01*
Y6145000D02*
G03*
X17412500Y6145000I-12500J0D01*
G01*
X15214999Y3917500D02*
G03*
X15214999Y3917500I-12500J0D01*
G01*
Y7467500D02*
G03*
X15214999Y7467500I-12500J0D01*
G01*
D36*
X13767003Y2798500D02*
X13787003D01*
X13767003Y2683499D02*
X13787003D01*
X10783001Y2978998D02*
Y3879002D01*
Y2978998D02*
X12584999D01*
X10783001Y3879002D02*
X12584999D01*
Y2978998D02*
Y3879002D01*
X13222000Y2798500D02*
X13242000D01*
X13222000Y2683499D02*
X13242000D01*
X12399000Y4447002D02*
X13161000D01*
X12399000Y4193002D02*
Y4447002D01*
Y4193002D02*
X13161000D01*
Y4447002D01*
X17260001Y2650002D02*
X17539999D01*
X17260001D02*
Y2930002D01*
X17539999D01*
Y2650002D02*
Y2930002D01*
X17260001Y4460001D02*
X17539999D01*
Y4180002D02*
Y4460001D01*
X17260001Y4180002D02*
X17539999D01*
X17260001D02*
Y4460001D01*
X16227191Y2844190D02*
Y3135808D01*
X16452809Y2844190D02*
Y3135808D01*
X10910001Y5217500D02*
Y5499999D01*
Y4400001D02*
Y4682500D01*
Y4400001D02*
X11909999D01*
Y5217500D02*
Y5499999D01*
Y4400001D02*
Y4682500D01*
X10910001Y5499999D02*
X11909999D01*
X17647006Y6612011D02*
X17647011Y7612019D01*
X17399509Y6552011D02*
X17484508D01*
X17399509D02*
X17407005Y6612011D01*
X17477008D02*
X17484508Y6552011D01*
X17477008Y6612011D02*
X17647006D01*
X16897009D02*
Y7612019D01*
Y6612011D02*
X17407005D01*
X16987007Y7672019D02*
X17082008D01*
X16987007D02*
X16992010Y7612019D01*
X17077010D02*
X17082008Y7672019D01*
X16897009Y7612019D02*
X16992010D01*
X17077010D02*
X17647011D01*
X17647006Y4834011D02*
X17647011Y5834019D01*
X17399509Y4774011D02*
X17484508D01*
X17399509D02*
X17407005Y4834011D01*
X17477008D02*
X17484508Y4774011D01*
X17477008Y4834011D02*
X17647006D01*
X16897009D02*
Y5834019D01*
Y4834011D02*
X17407005D01*
X16987007Y5894019D02*
X17082008D01*
X16987007D02*
X16992010Y5834019D01*
X17077010D02*
X17082008Y5894019D01*
X16897009Y5834019D02*
X16992010D01*
X17077010D02*
X17647011D01*
X17647006Y3056011D02*
X17647011Y4056019D01*
X17399509Y2996011D02*
X17484508D01*
X17399509D02*
X17407005Y3056011D01*
X17477008D02*
X17484508Y2996011D01*
X17477008Y3056011D02*
X17647006D01*
X16897009D02*
Y4056019D01*
Y3056011D02*
X17407005D01*
X16987007Y4116019D02*
X17082008D01*
X16987007D02*
X16992010Y4056019D01*
X17077010D02*
X17082008Y4116019D01*
X16897009Y4056019D02*
X16992010D01*
X17077010D02*
X17647011D01*
X14507002Y7282998D02*
Y7536998D01*
X13999002Y7282998D02*
X14507002D01*
X13999002D02*
Y7536998D01*
X14507002D01*
X16045998Y6004499D02*
Y6166998D01*
Y5517002D02*
Y5679501D01*
X15945998Y5417002D02*
X16045998Y5517002D01*
X15945998Y6266998D02*
X16045998Y6166998D01*
X15196002Y5417002D02*
X15945998D01*
X15196002Y6266998D02*
X15945998D01*
X15196002Y6004499D02*
Y6266998D01*
Y5417002D02*
Y5679501D01*
X16045998Y4988499D02*
Y5150998D01*
Y4501002D02*
Y4663501D01*
X15945998Y4401002D02*
X16045998Y4501002D01*
X15945998Y5250998D02*
X16045998Y5150998D01*
X15196002Y4401002D02*
X15945998D01*
X15196002Y5250998D02*
X15945998D01*
X15196002Y4988499D02*
Y5250998D01*
Y4401002D02*
Y4663501D01*
X16424194Y3862812D02*
X16715811D01*
X16424194Y3637189D02*
X16715811D01*
X16387190Y7274768D02*
Y7566391D01*
X16612810Y7274768D02*
Y7566391D01*
X16232809Y6364188D02*
Y6655811D01*
X16007187Y6364188D02*
Y6655811D01*
X14932503Y7399995D02*
Y7419995D01*
X15047504Y7399995D02*
Y7419995D01*
X15484190Y7972811D02*
X15775809D01*
X15484190Y7747188D02*
X15775809D01*
X16090001Y7512502D02*
X16310001D01*
X16090001Y7727498D02*
X16310001D01*
X17260001Y7730002D02*
Y8010002D01*
Y7730002D02*
X17539999D01*
Y8010002D01*
X17260001D02*
X17539999D01*
Y6210000D02*
Y6490000D01*
X17260001D02*
X17539999D01*
X17260001Y6210000D02*
Y6490000D01*
Y6210000D02*
X17539999D01*
X14879997Y6877501D02*
X14899998D01*
X14879997Y6762500D02*
X14899998D01*
X14952499Y3960002D02*
Y3980002D01*
X15067500Y3960002D02*
Y3980002D01*
X15474188Y4282811D02*
X15765810D01*
X15474188Y4057188D02*
X15765810D01*
X16079997Y3932499D02*
X16299998D01*
X16079997Y4147500D02*
X16299998D01*
X12687996Y2979003D02*
Y3879002D01*
Y2979003D02*
X14743999D01*
X12687996Y3879002D02*
X14743999D01*
Y2979003D02*
Y3879002D01*
X14972499Y3150002D02*
Y3170002D01*
X15087500Y3150002D02*
Y3170002D01*
X11024403Y5792302D02*
Y7087702D01*
X11560211Y5792302D02*
X11735603D01*
X11024403D02*
X11199790D01*
X11735603D02*
Y7087702D01*
X11560211D02*
X11735603D01*
X11024403D02*
X11199790D01*
X14429999Y7947503D02*
X14449998D01*
X14429999Y7832501D02*
X14449998D01*
X15395001Y3130001D02*
X15845003D01*
X15395001Y3990000D02*
X15845003D01*
X15395001Y6680002D02*
X15845003D01*
X15395001Y7540000D02*
X15845003D01*
X14228841Y7233479D02*
X14144202D01*
Y7170000D01*
X14186520Y7191160D01*
X14207680D01*
X14228841Y7170000D01*
Y7127680D01*
X14207680Y7106520D01*
X14165361D01*
X14144202Y7127680D01*
X14271159Y7233479D02*
Y7148840D01*
X14313480Y7106520D01*
X14355798Y7148840D01*
Y7233479D01*
X12593480Y4480722D02*
X12466521D01*
Y4544201D01*
X12487680Y4565361D01*
X12530000D01*
X12551160Y4544201D01*
Y4480722D01*
X12466521Y4671160D02*
Y4628840D01*
X12487680Y4607680D01*
X12572320D01*
X12593480Y4628840D01*
Y4671160D01*
X12572320Y4692320D01*
X12487680D01*
X12466521Y4671160D01*
Y4734639D02*
Y4819279D01*
Y4776959D01*
X12593480D01*
X12976521Y4565361D02*
Y4480722D01*
X13103481D01*
Y4565361D01*
X13039999Y4480722D02*
Y4523041D01*
X13103481Y4607680D02*
X12976521D01*
X13103481Y4692320D01*
X12976521D01*
X12997681Y4819279D02*
X12976521Y4798119D01*
Y4755799D01*
X12997681Y4734639D01*
X13082320D01*
X13103481Y4755799D01*
Y4798119D01*
X13082320Y4819279D01*
X14353479Y4926804D02*
X14226520D01*
X14268840Y4969124D01*
X14226520Y5011443D01*
X14353479D01*
X14247681Y5138402D02*
X14226520Y5117242D01*
Y5074923D01*
X14247681Y5053763D01*
X14332320D01*
X14353479Y5074923D01*
Y5117242D01*
X14332320Y5138402D01*
X14289999D01*
Y5096083D01*
X14353479Y5392320D02*
Y5307681D01*
X14268840Y5392320D01*
X14247681D01*
X14226520Y5371160D01*
Y5328840D01*
X14247681Y5307681D01*
Y5434639D02*
X14226520Y5455799D01*
Y5498119D01*
X14247681Y5519279D01*
X14332320D01*
X14353479Y5498119D01*
Y5455799D01*
X14332320Y5434639D01*
X14247681D01*
X14353479Y5646238D02*
Y5561598D01*
X14268840Y5646238D01*
X14247681D01*
X14226520Y5625078D01*
Y5582758D01*
X14247681Y5561598D01*
Y5688557D02*
X14226520Y5709717D01*
Y5752037D01*
X14247681Y5773196D01*
X14268840D01*
X14289999Y5752037D01*
Y5730877D01*
Y5752037D01*
X14311160Y5773196D01*
X14332320D01*
X14353479Y5752037D01*
Y5709717D01*
X14332320Y5688557D01*
X12470425Y8046521D02*
Y8173479D01*
X12533904D01*
X12555064Y8152320D01*
Y8110000D01*
X12533904Y8088840D01*
X12470425D01*
X12597383Y8131160D02*
Y8046521D01*
Y8088840D01*
X12618543Y8110000D01*
X12639703Y8131160D01*
X12660863D01*
X12745502Y8046521D02*
X12787822D01*
X12808981Y8067680D01*
Y8110000D01*
X12787822Y8131160D01*
X12745502D01*
X12724342Y8110000D01*
Y8067680D01*
X12745502Y8046521D01*
X12978259D02*
Y8173479D01*
X13020580Y8131160D01*
X13062898Y8173479D01*
Y8046521D01*
X13105219D02*
X13147539D01*
X13126379D01*
Y8131160D01*
X13105219D01*
X13295657D02*
X13232178D01*
X13211018Y8110000D01*
Y8067680D01*
X13232178Y8046521D01*
X13295657D01*
X13337978Y8131160D02*
Y8046521D01*
Y8088840D01*
X13359137Y8110000D01*
X13380296Y8131160D01*
X13401456D01*
X13486095Y8046521D02*
X13528415D01*
X13549574Y8067680D01*
Y8110000D01*
X13528415Y8131160D01*
X13486095D01*
X13464935Y8110000D01*
Y8067680D01*
X13486095Y8046521D01*
D37*
X12191000Y3593639D02*
X12207928Y3610567D01*
X12241783D01*
X12258711Y3593639D01*
Y3576711D01*
X12241783Y3559784D01*
X12258711Y3542856D01*
Y3525928D01*
X12241783Y3509000D01*
X12207928D01*
X12191000Y3525928D01*
Y3542856D01*
X12207928Y3559784D01*
X12191000Y3576711D01*
Y3593639D01*
X12207928Y3559784D02*
X12241783D01*
X12191000Y3356567D02*
X12258711D01*
Y3339639D01*
X12191000Y3271928D01*
Y3255000D01*
X11184711Y3503000D02*
X11117000D01*
X11184711Y3570711D01*
Y3587640D01*
X11167784Y3604567D01*
X11133928D01*
X11117000Y3587640D01*
X11147000Y3249000D02*
X11180856D01*
X11163928D01*
Y3350567D01*
X11147000Y3333640D01*
X14349998Y3271930D02*
X14366927Y3255002D01*
X14400781D01*
X14417709Y3271930D01*
Y3339641D01*
X14400781Y3356569D01*
X14366927D01*
X14349998Y3339641D01*
Y3322713D01*
X14366927Y3305785D01*
X14417709D01*
X14349998Y3509002D02*
X14383855D01*
X14366927D01*
Y3610569D01*
X14349998Y3593641D01*
X14434637D02*
X14451566Y3610569D01*
X14485422D01*
X14502348Y3593641D01*
Y3525930D01*
X14485422Y3509002D01*
X14451566D01*
X14434637Y3525930D01*
Y3593641D01*
X13089709Y3503002D02*
X13021999D01*
X13089709Y3570713D01*
Y3587641D01*
X13072781Y3604569D01*
X13038927D01*
X13021999Y3587641D01*
X13051997Y3249002D02*
X13085854D01*
X13068925D01*
Y3350569D01*
X13051997Y3333641D01*
D38*
X12793041Y2653825D02*
Y2806175D01*
X12869217D01*
X12894608Y2780783D01*
Y2730000D01*
X12869217Y2704608D01*
X12793041D01*
X12843825D02*
X12894608Y2653825D01*
X12945392Y2780783D02*
X12970784Y2806175D01*
X13021567D01*
X13046959Y2780783D01*
Y2755392D01*
X13021567Y2730000D01*
X13046959Y2704608D01*
Y2679216D01*
X13021567Y2653825D01*
X12970784D01*
X12945392Y2679216D01*
Y2704608D01*
X12970784Y2730000D01*
X12945392Y2755392D01*
Y2780783D01*
X12970784Y2730000D02*
X13021567D01*
X13963042Y2663825D02*
Y2816175D01*
X14039217D01*
X14064607Y2790784D01*
Y2740000D01*
X14039217Y2714608D01*
X13963042D01*
X14013824D02*
X14064607Y2663825D01*
X14115392Y2816175D02*
X14216959D01*
Y2790784D01*
X14115392Y2689217D01*
Y2663825D01*
X12683490Y3890010D02*
X12835841D01*
Y3813835D01*
X12810449Y3788443D01*
X12759665D01*
X12734273Y3813835D01*
Y3890010D01*
X12810449Y3737659D02*
X12835841Y3712267D01*
Y3661484D01*
X12810449Y3636092D01*
X12785057D01*
X12759665Y3661484D01*
X12734273Y3636092D01*
X12708882D01*
X12683490Y3661484D01*
Y3712267D01*
X12708882Y3737659D01*
X12734273D01*
X12759665Y3712267D01*
X12785057Y3737659D01*
X12810449D01*
X12759665Y3712267D02*
Y3661484D01*
X10844850Y5596430D02*
Y5748781D01*
X10921025D01*
X10946417Y5723389D01*
Y5672605D01*
X10921025Y5647213D01*
X10844850D01*
X10895634D02*
X10946417Y5596430D01*
X11073376D02*
Y5748781D01*
X10997201Y5672605D01*
X11098768D01*
X11157709Y7309909D02*
X11132317Y7335301D01*
X11081534D01*
X11056142Y7309909D01*
Y7284517D01*
X11081534Y7259125D01*
X11132317D01*
X11157709Y7233734D01*
Y7208342D01*
X11132317Y7182950D01*
X11081534D01*
X11056142Y7208342D01*
X11208493Y7335301D02*
Y7182950D01*
X11259276Y7233734D01*
X11310060Y7182950D01*
Y7335301D01*
X11360843Y7182950D02*
X11411627D01*
X11386235D01*
Y7335301D01*
X11360843Y7309909D01*
X14858434Y7613825D02*
Y7766175D01*
X14934608D01*
X14960001Y7740784D01*
Y7690000D01*
X14934608Y7664608D01*
X14858434D01*
X14909216D02*
X14960001Y7613825D01*
X15010783D02*
X15061568D01*
X15036176D01*
Y7766175D01*
X15010783Y7740784D01*
X14763042Y6543825D02*
Y6696175D01*
X14839217D01*
X14864607Y6670783D01*
Y6620000D01*
X14839217Y6594608D01*
X14763042D01*
X14813824D02*
X14864607Y6543825D01*
X15016959D02*
X14915392D01*
X15016959Y6645392D01*
Y6670783D01*
X14991566Y6696175D01*
X14940784D01*
X14915392Y6670783D01*
X14299030Y8063990D02*
Y8216341D01*
X14375204D01*
X14400597Y8190949D01*
Y8140165D01*
X14375204Y8114773D01*
X14299030D01*
X14349814D02*
X14400597Y8063990D01*
X14552948Y8216341D02*
X14502164Y8190949D01*
X14451381Y8140165D01*
Y8089382D01*
X14476773Y8063990D01*
X14527556D01*
X14552948Y8089382D01*
Y8114773D01*
X14527556Y8140165D01*
X14451381D01*
X14896175Y4053041D02*
X14743825D01*
Y4129216D01*
X14769217Y4154608D01*
X14820000D01*
X14845392Y4129216D01*
Y4053041D01*
Y4103824D02*
X14896175Y4154608D01*
X14769217Y4205392D02*
X14743825Y4230784D01*
Y4281567D01*
X14769217Y4306959D01*
X14794608D01*
X14820000Y4281567D01*
Y4256175D01*
Y4281567D01*
X14845392Y4306959D01*
X14870784D01*
X14896175Y4281567D01*
Y4230784D01*
X14870784Y4205392D01*
X14913042Y2803825D02*
Y2956175D01*
X14989217D01*
X15014607Y2930784D01*
Y2880000D01*
X14989217Y2854608D01*
X14913042D01*
X14963824D02*
X15014607Y2803825D01*
X15166959Y2956175D02*
X15065392D01*
Y2880000D01*
X15116174Y2905392D01*
X15141566D01*
X15166959Y2880000D01*
Y2829217D01*
X15141566Y2803825D01*
X15090784D01*
X15065392Y2829217D01*
X17216174Y6233041D02*
X17063824D01*
Y6309216D01*
X17089217Y6334608D01*
X17139999D01*
X17165392Y6309216D01*
Y6233041D01*
X17089217Y6385392D02*
X17063824Y6410784D01*
Y6461567D01*
X17089217Y6486959D01*
X17114607D01*
X17139999Y6461567D01*
Y6436175D01*
Y6461567D01*
X17165392Y6486959D01*
X17190784D01*
X17216174Y6461567D01*
Y6410784D01*
X17190784Y6385392D01*
X14283041Y2743825D02*
Y2896175D01*
X14359216D01*
X14384608Y2870783D01*
Y2820000D01*
X14359216Y2794608D01*
X14283041D01*
X14536958Y2896175D02*
X14486176Y2870783D01*
X14435393Y2820000D01*
Y2769216D01*
X14460783Y2743825D01*
X14511568D01*
X14536958Y2769216D01*
Y2794608D01*
X14511568Y2820000D01*
X14435393D01*
X14168433Y7563825D02*
Y7716175D01*
X14244608D01*
X14270000Y7690783D01*
Y7640000D01*
X14244608Y7614608D01*
X14168433D01*
X14320784Y7563825D02*
X14371567D01*
X14346176D01*
Y7716175D01*
X14320784Y7690783D01*
X17216174Y7753041D02*
X17063824D01*
Y7829216D01*
X17089217Y7854608D01*
X17139999D01*
X17165392Y7829216D01*
Y7753041D01*
X17216174Y8006959D02*
Y7905392D01*
X17114607Y8006959D01*
X17089217D01*
X17063824Y7981567D01*
Y7930784D01*
X17089217Y7905392D01*
X12833041Y3943825D02*
Y4096175D01*
X12909216D01*
X12934608Y4070784D01*
Y4020000D01*
X12909216Y3994608D01*
X12833041D01*
X12985393Y4096175D02*
X13086958D01*
Y4070784D01*
X12985393Y3969217D01*
Y3943825D01*
X17216174Y4203041D02*
X17063824D01*
Y4279216D01*
X17089217Y4304608D01*
X17139999D01*
X17165392Y4279216D01*
Y4203041D01*
X17216174Y4431567D02*
X17063824D01*
X17139999Y4355392D01*
Y4456959D01*
X17216174Y2663041D02*
X17063824D01*
Y2739217D01*
X17089217Y2764608D01*
X17139999D01*
X17165392Y2739217D01*
Y2663041D01*
X17063824Y2916959D02*
Y2815392D01*
X17139999D01*
X17114607Y2866175D01*
Y2891567D01*
X17139999Y2916959D01*
X17190784D01*
X17216174Y2891567D01*
Y2840784D01*
X17190784Y2815392D01*
X17443825Y3514608D02*
Y3463825D01*
Y3489217D01*
X17570784D01*
X17596175Y3463825D01*
Y3438433D01*
X17570784Y3413041D01*
X17469217Y3565392D02*
X17443825Y3590784D01*
Y3641567D01*
X17469217Y3666959D01*
X17494608D01*
X17520000Y3641567D01*
Y3616175D01*
Y3641567D01*
X17545392Y3666959D01*
X17570784D01*
X17596175Y3641567D01*
Y3590784D01*
X17570784Y3565392D01*
X17453824Y5284608D02*
Y5233824D01*
Y5259216D01*
X17580783D01*
X17606175Y5233824D01*
Y5208433D01*
X17580783Y5183041D01*
X17606175Y5436959D02*
Y5335392D01*
X17504608Y5436959D01*
X17479216D01*
X17453824Y5411567D01*
Y5360784D01*
X17479216Y5335392D01*
X17443825Y7100000D02*
Y7049217D01*
Y7074608D01*
X17570784D01*
X17596175Y7049217D01*
Y7023825D01*
X17570784Y6998433D01*
X17596175Y7150784D02*
Y7201567D01*
Y7176176D01*
X17443825D01*
X17469217Y7150784D01*
X16141129Y3610783D02*
X16115736Y3636175D01*
X16064954D01*
X16039561Y3610783D01*
Y3509217D01*
X16064954Y3483825D01*
X16115736D01*
X16141129Y3509217D01*
X16191911Y3483825D02*
X16242696D01*
X16217303D01*
Y3636175D01*
X16191911Y3610783D01*
X16420439Y3483825D02*
X16318871D01*
X16420439Y3585392D01*
Y3610783D01*
X16395047Y3636175D01*
X16344263D01*
X16318871Y3610783D01*
X15131129Y4290783D02*
X15105737Y4316175D01*
X15054955D01*
X15029562Y4290783D01*
Y4189216D01*
X15054955Y4163825D01*
X15105737D01*
X15131129Y4189216D01*
X15181912Y4163825D02*
X15232697D01*
X15207304D01*
Y4316175D01*
X15181912Y4290783D01*
X15308871D02*
X15334264Y4316175D01*
X15385046D01*
X15410439Y4290783D01*
Y4189216D01*
X15385046Y4163825D01*
X15334264D01*
X15308871Y4189216D01*
Y4290783D01*
X14864607Y4840784D02*
X14839217Y4866175D01*
X14788432D01*
X14763042Y4840784D01*
Y4739217D01*
X14788432Y4713825D01*
X14839217D01*
X14864607Y4739217D01*
X14915392Y4840784D02*
X14940784Y4866175D01*
X14991566D01*
X15016959Y4840784D01*
Y4815392D01*
X14991566Y4790000D01*
X14966174D01*
X14991566D01*
X15016959Y4764608D01*
Y4739217D01*
X14991566Y4713825D01*
X14940784D01*
X14915392Y4739217D01*
X16380785Y6455391D02*
X16406177Y6480783D01*
Y6531567D01*
X16380785Y6556959D01*
X16279218D01*
X16253825Y6531567D01*
Y6480783D01*
X16279218Y6455391D01*
X16406177Y6303041D02*
Y6404608D01*
X16330000D01*
X16355392Y6353824D01*
Y6328433D01*
X16330000Y6303041D01*
X16279218D01*
X16253825Y6328433D01*
Y6379216D01*
X16279218Y6404608D01*
X16150784Y3005391D02*
X16176176Y3030783D01*
Y3081567D01*
X16150784Y3106959D01*
X16049217D01*
X16023825Y3081567D01*
Y3030783D01*
X16049217Y3005391D01*
X16150784Y2954608D02*
X16176176Y2929216D01*
Y2878433D01*
X16150784Y2853041D01*
X16125392D01*
X16100000Y2878433D01*
X16074608Y2853041D01*
X16049217D01*
X16023825Y2878433D01*
Y2929216D01*
X16049217Y2954608D01*
X16074608D01*
X16100000Y2929216D01*
X16125392Y2954608D01*
X16150784D01*
X16100000Y2929216D02*
Y2878433D01*
X16124608Y7150784D02*
X16099216Y7176175D01*
X16048433D01*
X16023041Y7150784D01*
Y7049217D01*
X16048433Y7023825D01*
X16099216D01*
X16124608Y7049217D01*
X16175392D02*
X16200784Y7023825D01*
X16251567D01*
X16276959Y7049217D01*
Y7150784D01*
X16251567Y7176175D01*
X16200784D01*
X16175392Y7150784D01*
Y7125392D01*
X16200784Y7100000D01*
X16276959D01*
X14844608Y5870784D02*
X14819215Y5896175D01*
X14768433D01*
X14743040Y5870784D01*
Y5769217D01*
X14768433Y5743825D01*
X14819215D01*
X14844608Y5769217D01*
X14971567Y5743825D02*
Y5896175D01*
X14895392Y5820000D01*
X14996959D01*
X16544608Y7750784D02*
X16519215Y7776175D01*
X16468433D01*
X16443040Y7750784D01*
Y7649217D01*
X16468433Y7623825D01*
X16519215D01*
X16544608Y7649217D01*
X16696959Y7776175D02*
X16646175Y7750784D01*
X16595392Y7700000D01*
Y7649217D01*
X16620784Y7623825D01*
X16671567D01*
X16696959Y7649217D01*
Y7674608D01*
X16671567Y7700000D01*
X16595392D01*
X15600749Y8186349D02*
X15575357Y8211741D01*
X15524574D01*
X15499182Y8186349D01*
Y8084782D01*
X15524574Y8059390D01*
X15575357D01*
X15600749Y8084782D01*
X15651534Y8059390D02*
X15702316D01*
X15676924D01*
Y8211741D01*
X15651534Y8186349D01*
X16175838Y7941269D02*
X16150446Y7966661D01*
X16099661D01*
X16074271Y7941269D01*
Y7839702D01*
X16099661Y7814310D01*
X16150446D01*
X16175838Y7839702D01*
X16328188Y7814310D02*
X16226620D01*
X16328188Y7915877D01*
Y7941269D01*
X16302795Y7966661D01*
X16252013D01*
X16226620Y7941269D01*
X16930785Y3715392D02*
X16956175Y3740784D01*
Y3791567D01*
X16930785Y3816959D01*
X16829218D01*
X16803825Y3791567D01*
Y3740784D01*
X16829218Y3715392D01*
X16956175Y3664608D02*
Y3563041D01*
X16930785D01*
X16829218Y3664608D01*
X16803825D01*
X16127750Y4361269D02*
X16102357Y4386661D01*
X16051575D01*
X16026183Y4361269D01*
Y4259702D01*
X16051575Y4234310D01*
X16102357D01*
X16127750Y4259702D01*
X16178532Y4234310D02*
X16229317D01*
X16203925D01*
Y4386661D01*
X16178532Y4361269D01*
X16305492Y4234310D02*
X16356274D01*
X16330884D01*
Y4386661D01*
X16305492Y4361269D01*
X15453041Y3066175D02*
Y2939217D01*
X15478433Y2913825D01*
X15529218D01*
X15554608Y2939217D01*
Y3066175D01*
X15706960Y2913825D02*
X15605392D01*
X15706960Y3015392D01*
Y3040784D01*
X15681567Y3066175D01*
X15630785D01*
X15605392Y3040784D01*
X12878433Y7683825D02*
Y7836175D01*
X12929216Y7785392D01*
X12980000Y7836175D01*
Y7683825D01*
X13030785D02*
X13081567D01*
X13056177D01*
Y7836175D01*
X13030785Y7810783D01*
X15558434Y6616175D02*
Y6489216D01*
X15583826Y6463825D01*
X15634608D01*
X15660001Y6489216D01*
Y6616175D01*
X15710783Y6463825D02*
X15761568D01*
X15736176D01*
Y6616175D01*
X15710783Y6590783D01*
D39*
X11684000Y3018998D02*
D03*
D40*
X13715997Y3019003D02*
D03*
%TF.MD5,65ad7117a7100c8c266e601cb27c063b*%
M02*
