%TF.GenerationSoftware,Altium Limited,Altium Designer,23.9.2 (47)*%
G04 Layer_Physical_Order=2*
G04 Layer_Color=16711680*
%FSLAX45Y45*%
%MOMM*%
%TF.SameCoordinates,FB2876E6-207A-4176-94B4-128B36F1A8A2*%
%TF.FilePolarity,Positive*%
%TF.FileFunction,Copper,L2,Bot,Signal*%
%TF.Part,Single*%
G01*
G75*
%TA.AperFunction,Conductor*%
%ADD20C,0.25000*%
%TA.AperFunction,ComponentPad*%
%ADD21C,1.60000*%
%ADD22R,1.60000X1.60000*%
%ADD23R,1.50000X1.50000*%
%ADD24C,1.50000*%
%ADD25C,1.55000*%
%ADD26R,1.55000X1.55000*%
G04:AMPARAMS|DCode=27|XSize=2.4mm|YSize=4.6mm|CornerRadius=1.2mm|HoleSize=0mm|Usage=FLASHONLY|Rotation=0.000|XOffset=0mm|YOffset=0mm|HoleType=Round|Shape=RoundedRectangle|*
%AMROUNDEDRECTD27*
21,1,2.40000,2.20000,0,0,0.0*
21,1,0.00000,4.60000,0,0,0.0*
1,1,2.40000,0.00000,-1.10000*
1,1,2.40000,0.00000,-1.10000*
1,1,2.40000,0.00000,1.10000*
1,1,2.40000,0.00000,1.10000*
%
%ADD27ROUNDEDRECTD27*%
G04:AMPARAMS|DCode=28|XSize=1.95mm|YSize=1.95mm|CornerRadius=0.4875mm|HoleSize=0mm|Usage=FLASHONLY|Rotation=90.000|XOffset=0mm|YOffset=0mm|HoleType=Round|Shape=RoundedRectangle|*
%AMROUNDEDRECTD28*
21,1,1.95000,0.97500,0,0,90.0*
21,1,0.97500,1.95000,0,0,90.0*
1,1,0.97500,0.48750,0.48750*
1,1,0.97500,0.48750,-0.48750*
1,1,0.97500,-0.48750,-0.48750*
1,1,0.97500,-0.48750,0.48750*
%
%ADD28ROUNDEDRECTD28*%
%ADD29C,1.95000*%
%ADD30C,2.85420*%
%ADD31R,2.85420X2.85420*%
%TA.AperFunction,ViaPad*%
%ADD32C,0.50000*%
%ADD33C,0.45000*%
%ADD34C,0.60000*%
G36*
X17780000Y2540000D02*
X10668000D01*
Y8382000D01*
X17780000D01*
Y2540000D01*
D02*
G37*
%LPC*%
G36*
X17495001Y7965002D02*
X17305000D01*
Y7775002D01*
X17495001D01*
Y7965002D01*
D02*
G37*
G36*
X13787666Y7894498D02*
X13761336D01*
X13735902Y7887683D01*
X13713100Y7874518D01*
X13694482Y7855899D01*
X13681316Y7833096D01*
X13674501Y7807663D01*
Y7781333D01*
X13681316Y7755900D01*
X13694482Y7733097D01*
X13713100Y7714478D01*
X13735902Y7701313D01*
X13761336Y7694498D01*
X13787666D01*
X13813100Y7701313D01*
X13835902Y7714478D01*
X13854521Y7733097D01*
X13867686Y7755900D01*
X13874501Y7781333D01*
Y7807663D01*
X13867686Y7833096D01*
X13854521Y7855899D01*
X13835902Y7874518D01*
X13813100Y7887683D01*
X13787666Y7894498D01*
D02*
G37*
G36*
X12263667D02*
X12237336D01*
X12211903Y7887683D01*
X12189100Y7874518D01*
X12170482Y7855899D01*
X12157316Y7833096D01*
X12150501Y7807663D01*
Y7781333D01*
X12157316Y7755900D01*
X12170482Y7733097D01*
X12189100Y7714478D01*
X12211903Y7701313D01*
X12237336Y7694498D01*
X12263667D01*
X12289100Y7701313D01*
X12311902Y7714478D01*
X12330521Y7733097D01*
X12343686Y7755900D01*
X12350501Y7781333D01*
Y7807663D01*
X12343686Y7833096D01*
X12330521Y7855899D01*
X12311902Y7874518D01*
X12289100Y7887683D01*
X12263667Y7894498D01*
D02*
G37*
G36*
X13788377Y7645898D02*
X13787201D01*
Y7553198D01*
X13879901D01*
Y7554374D01*
X13872717Y7581181D01*
X13858842Y7605215D01*
X13839218Y7624839D01*
X13815184Y7638715D01*
X13788377Y7645898D01*
D02*
G37*
G36*
X13761801D02*
X13760625D01*
X13733818Y7638715D01*
X13709784Y7624839D01*
X13690160Y7605215D01*
X13676283Y7581181D01*
X13669101Y7554374D01*
Y7553198D01*
X13761801D01*
Y7645898D01*
D02*
G37*
G36*
X13879901Y7527798D02*
X13787201D01*
Y7435098D01*
X13788377D01*
X13815184Y7442281D01*
X13839218Y7456157D01*
X13858842Y7475781D01*
X13872717Y7499815D01*
X13879901Y7526622D01*
Y7527798D01*
D02*
G37*
G36*
X13761801D02*
X13669101D01*
Y7526622D01*
X13676283Y7499815D01*
X13690160Y7475781D01*
X13709784Y7456157D01*
X13733818Y7442281D01*
X13760625Y7435098D01*
X13761801D01*
Y7527798D01*
D02*
G37*
G36*
X14392509Y7504998D02*
X14367496D01*
X14343333Y7498523D01*
X14321671Y7486017D01*
X14303983Y7468329D01*
X14291476Y7446666D01*
X14285002Y7422505D01*
Y7397491D01*
X14291476Y7373329D01*
X14303983Y7351667D01*
X14321671Y7333979D01*
X14343333Y7321472D01*
X14367496Y7314998D01*
X14392509D01*
X14416670Y7321472D01*
X14438333Y7333979D01*
X14456020Y7351667D01*
X14468527Y7373329D01*
X14475002Y7397491D01*
Y7422505D01*
X14468527Y7446666D01*
X14456020Y7468329D01*
X14438333Y7486017D01*
X14416670Y7498523D01*
X14392509Y7504998D01*
D02*
G37*
G36*
X12264378Y7391898D02*
X12263201D01*
Y7299198D01*
X12355901D01*
Y7300374D01*
X12348718Y7327181D01*
X12334842Y7351215D01*
X12315218Y7370839D01*
X12291184Y7384715D01*
X12264378Y7391898D01*
D02*
G37*
G36*
X12237801D02*
X12236625D01*
X12209818Y7384715D01*
X12185784Y7370839D01*
X12166160Y7351215D01*
X12152284Y7327181D01*
X12145101Y7300374D01*
Y7299198D01*
X12237801D01*
Y7391898D01*
D02*
G37*
G36*
X17332474Y7479502D02*
X17301535D01*
X17271651Y7471495D01*
X17244856Y7456025D01*
X17222980Y7434149D01*
X17207510Y7407355D01*
X17199504Y7377471D01*
Y7346533D01*
X17207510Y7316649D01*
X17222980Y7289855D01*
X17244856Y7267979D01*
X17271651Y7252509D01*
X17301535Y7244502D01*
X17332474D01*
X17362357Y7252509D01*
X17389149Y7267979D01*
X17411028Y7289855D01*
X17426495Y7316649D01*
X17434505Y7346533D01*
Y7377471D01*
X17426495Y7407355D01*
X17411028Y7434149D01*
X17389149Y7456025D01*
X17362357Y7471495D01*
X17332474Y7479502D01*
D02*
G37*
G36*
X13787666Y7386498D02*
X13761336D01*
X13735902Y7379683D01*
X13713100Y7366518D01*
X13694482Y7347899D01*
X13681316Y7325096D01*
X13674501Y7299663D01*
Y7273333D01*
X13681316Y7247900D01*
X13694482Y7225097D01*
X13713100Y7206478D01*
X13735902Y7193313D01*
X13761336Y7186498D01*
X13787666D01*
X13813100Y7193313D01*
X13835902Y7206478D01*
X13854521Y7225097D01*
X13867686Y7247900D01*
X13874501Y7273333D01*
Y7299663D01*
X13867686Y7325096D01*
X13854521Y7347899D01*
X13835902Y7366518D01*
X13813100Y7379683D01*
X13787666Y7386498D01*
D02*
G37*
G36*
X12355901Y7273798D02*
X12263201D01*
Y7181098D01*
X12264378D01*
X12291184Y7188281D01*
X12315218Y7202157D01*
X12334842Y7221781D01*
X12348718Y7245815D01*
X12355901Y7272622D01*
Y7273798D01*
D02*
G37*
G36*
X12237801D02*
X12145101D01*
Y7272622D01*
X12152284Y7245815D01*
X12166160Y7221781D01*
X12185784Y7202157D01*
X12209818Y7188281D01*
X12236625Y7181098D01*
X12237801D01*
Y7273798D01*
D02*
G37*
G36*
X14221002Y7504998D02*
X14031001D01*
Y7351334D01*
X13806989Y7127321D01*
X13787666Y7132498D01*
X13761336D01*
X13735902Y7125683D01*
X13713100Y7112518D01*
X13694482Y7093899D01*
X13681316Y7071096D01*
X13674501Y7045663D01*
Y7019333D01*
X13681316Y6993900D01*
X13687996Y6982329D01*
X13581831Y6876165D01*
X13576262Y6867829D01*
X13574306Y6857997D01*
Y6690643D01*
X13189832Y6306168D01*
X13184262Y6297833D01*
X13182306Y6288000D01*
Y3652643D01*
X13169402Y3649185D01*
X13157831Y3642505D01*
X12887523Y3912813D01*
X12879187Y3918383D01*
X12869354Y3920339D01*
X11630757D01*
X11410330Y4140766D01*
X11415190Y4152499D01*
X11422836D01*
X11447634Y4159144D01*
X11469866Y4171980D01*
X11488019Y4190133D01*
X11500855Y4212365D01*
X11506798Y4234543D01*
X11525000D01*
X11534832Y4236499D01*
X11543168Y4242068D01*
X11628105Y4327006D01*
X12431000D01*
Y4307495D01*
X12437474Y4283333D01*
X12449981Y4261670D01*
X12467669Y4243983D01*
X12489331Y4231476D01*
X12513493Y4225002D01*
X12538507D01*
X12562668Y4231476D01*
X12584331Y4243983D01*
X12602018Y4261670D01*
X12614525Y4283333D01*
X12621000Y4307495D01*
Y4332508D01*
X12614525Y4356670D01*
X12602018Y4378333D01*
X12584331Y4396020D01*
X12562668Y4408527D01*
X12538507Y4415001D01*
X12513493D01*
X12489331Y4408527D01*
X12467669Y4396020D01*
X12450041Y4378393D01*
X11617462D01*
X11607630Y4376437D01*
X11599294Y4370867D01*
X11514357Y4285930D01*
X11501312D01*
X11500855Y4287633D01*
X11488019Y4309865D01*
X11469866Y4328019D01*
X11447634Y4340854D01*
X11422836Y4347499D01*
X11397164D01*
X11372366Y4340854D01*
X11350134Y4328019D01*
X11331981Y4309865D01*
X11319145Y4287633D01*
X11313337Y4265957D01*
X11300994Y4260339D01*
X11293166Y4268167D01*
X11284830Y4273737D01*
X11274998Y4275693D01*
X11257498D01*
Y4347499D01*
X11062498D01*
Y4152499D01*
X11257498D01*
Y4213202D01*
X11270198Y4218463D01*
X11281707Y4206954D01*
X11283562Y4197627D01*
X11289132Y4189291D01*
X11601946Y3876477D01*
X11610282Y3870907D01*
X11620114Y3868952D01*
X12858711D01*
X13121495Y3606169D01*
X13114815Y3594598D01*
X13108000Y3569165D01*
Y3542835D01*
X13114815Y3517402D01*
X13127980Y3494599D01*
X13146599Y3475980D01*
X13169402Y3462815D01*
X13194835Y3456000D01*
X13221165D01*
X13246597Y3462815D01*
X13258170Y3469495D01*
X13287508Y3440157D01*
Y3402000D01*
X13108000D01*
Y3202000D01*
X13287508D01*
Y3053843D01*
X13156165Y2922500D01*
X13141547D01*
X13125926Y2916030D01*
X13113969Y2904074D01*
X13107500Y2888454D01*
Y2871546D01*
X13113969Y2855926D01*
X13125926Y2843970D01*
X13141547Y2837500D01*
X13158453D01*
X13174074Y2843970D01*
X13186031Y2855926D01*
X13192500Y2871546D01*
Y2886164D01*
X13331367Y3025032D01*
X13336938Y3033368D01*
X13338895Y3043200D01*
Y3450800D01*
X13336938Y3460632D01*
X13331367Y3468968D01*
X13294505Y3505831D01*
X13301186Y3517402D01*
X13308000Y3542835D01*
Y3569165D01*
X13301186Y3594598D01*
X13288020Y3617401D01*
X13269402Y3636020D01*
X13246597Y3649185D01*
X13233694Y3652643D01*
Y4712842D01*
X13246394Y4718103D01*
X13250526Y4713970D01*
X13266145Y4707500D01*
X13283054D01*
X13298674Y4713970D01*
X13309010Y4724306D01*
X13524004D01*
X13533836Y4726262D01*
X13542171Y4731832D01*
X13724333Y4913993D01*
X13735902Y4907313D01*
X13761336Y4900498D01*
X13787666D01*
X13813100Y4907313D01*
X13835902Y4920478D01*
X13854521Y4939097D01*
X13867686Y4961900D01*
X13874501Y4987333D01*
Y5013663D01*
X13867686Y5039096D01*
X13854521Y5061899D01*
X13835902Y5080518D01*
X13813100Y5093683D01*
X13787666Y5100498D01*
X13761336D01*
X13735902Y5093683D01*
X13713100Y5080518D01*
X13694482Y5061899D01*
X13681316Y5039096D01*
X13674501Y5013663D01*
Y4987333D01*
X13681316Y4961900D01*
X13687996Y4950329D01*
X13513361Y4775694D01*
X13309010D01*
X13298674Y4786030D01*
X13283054Y4792500D01*
X13266145D01*
X13250526Y4786030D01*
X13246394Y4781897D01*
X13233694Y4787158D01*
Y6277358D01*
X13618169Y6661832D01*
X13623738Y6670168D01*
X13625694Y6680000D01*
Y6847354D01*
X13724333Y6945993D01*
X13735902Y6939313D01*
X13761336Y6932498D01*
X13787666D01*
X13813100Y6939313D01*
X13835902Y6952478D01*
X13854521Y6971097D01*
X13867686Y6993900D01*
X13874501Y7019333D01*
Y7045663D01*
X13867686Y7071096D01*
X13854521Y7093899D01*
X13850380Y7098040D01*
X14067339Y7314998D01*
X14221002D01*
Y7504998D01*
D02*
G37*
G36*
X12264378Y7137898D02*
X12263201D01*
Y7045198D01*
X12355901D01*
Y7046374D01*
X12348718Y7073181D01*
X12334842Y7097215D01*
X12315218Y7116839D01*
X12291184Y7130715D01*
X12264378Y7137898D01*
D02*
G37*
G36*
X12237801D02*
X12236625D01*
X12209818Y7130715D01*
X12185784Y7116839D01*
X12166160Y7097215D01*
X12152284Y7073181D01*
X12145101Y7046374D01*
Y7045198D01*
X12237801D01*
Y7137898D01*
D02*
G37*
G36*
X12355901Y7019798D02*
X12263201D01*
Y6927098D01*
X12264378D01*
X12291184Y6934281D01*
X12315218Y6948157D01*
X12334842Y6967781D01*
X12348718Y6991815D01*
X12355901Y7018622D01*
Y7019798D01*
D02*
G37*
G36*
X12237801D02*
X12145101D01*
Y7018622D01*
X12152284Y6991815D01*
X12166160Y6967781D01*
X12185784Y6948157D01*
X12209818Y6934281D01*
X12236625Y6927098D01*
X12237801D01*
Y7019798D01*
D02*
G37*
G36*
X11542713Y7072612D02*
X11217293D01*
Y6747192D01*
X11542713D01*
Y7072612D01*
D02*
G37*
G36*
X17365755Y6980096D02*
X17268254D01*
X17250307Y6977734D01*
X17233582Y6970806D01*
X17219221Y6959786D01*
X17208202Y6945425D01*
X17201273Y6928700D01*
X17198911Y6910753D01*
Y6813253D01*
X17201273Y6795306D01*
X17208202Y6778581D01*
X17219221Y6764220D01*
X17233582Y6753200D01*
X17250307Y6746273D01*
X17268254Y6743910D01*
X17365755D01*
X17383701Y6746273D01*
X17400426Y6753200D01*
X17414787Y6764220D01*
X17425807Y6778581D01*
X17432735Y6795306D01*
X17435097Y6813253D01*
Y6910753D01*
X17432735Y6928700D01*
X17425807Y6945425D01*
X17414787Y6959786D01*
X17400426Y6970806D01*
X17383701Y6977734D01*
X17365755Y6980096D01*
D02*
G37*
G36*
X13787666Y6878498D02*
X13761336D01*
X13735902Y6871683D01*
X13713100Y6858518D01*
X13694482Y6839899D01*
X13681316Y6817096D01*
X13674501Y6791663D01*
Y6765333D01*
X13681316Y6739900D01*
X13694482Y6717097D01*
X13713100Y6698478D01*
X13735902Y6685313D01*
X13761336Y6678498D01*
X13787666D01*
X13813100Y6685313D01*
X13835902Y6698478D01*
X13854521Y6717097D01*
X13867686Y6739900D01*
X13874501Y6765333D01*
Y6791663D01*
X13867686Y6817096D01*
X13854521Y6839899D01*
X13835902Y6858518D01*
X13813100Y6871683D01*
X13787666Y6878498D01*
D02*
G37*
G36*
X12263667D02*
X12237336D01*
X12211903Y6871683D01*
X12189100Y6858518D01*
X12170482Y6839899D01*
X12157316Y6817096D01*
X12150501Y6791663D01*
Y6765333D01*
X12157316Y6739900D01*
X12170482Y6717097D01*
X12189100Y6698478D01*
X12211903Y6685313D01*
X12237336Y6678498D01*
X12263667D01*
X12289100Y6685313D01*
X12311902Y6698478D01*
X12330521Y6717097D01*
X12343686Y6739900D01*
X12350501Y6765333D01*
Y6791663D01*
X12343686Y6817096D01*
X12330521Y6839899D01*
X12311902Y6858518D01*
X12289100Y6871683D01*
X12263667Y6878498D01*
D02*
G37*
G36*
Y7640498D02*
X12237336D01*
X12211903Y7633683D01*
X12189100Y7620518D01*
X12170482Y7601899D01*
X12157316Y7579096D01*
X12150501Y7553663D01*
Y7527333D01*
X12157316Y7501900D01*
X12170482Y7479097D01*
X12189100Y7460478D01*
X12211903Y7447313D01*
X12237336Y7440498D01*
X12263667D01*
X12289100Y7447313D01*
X12300670Y7453993D01*
X13092831Y6661832D01*
X13101167Y6656262D01*
X13110999Y6654306D01*
X13435590D01*
X13445926Y6643970D01*
X13461546Y6637500D01*
X13478455D01*
X13494073Y6643970D01*
X13506030Y6655926D01*
X13512500Y6671546D01*
Y6688454D01*
X13506030Y6704074D01*
X13494073Y6716030D01*
X13478455Y6722500D01*
X13461546D01*
X13445926Y6716030D01*
X13435590Y6705694D01*
X13121642D01*
X12337006Y7490329D01*
X12343686Y7501900D01*
X12350501Y7527333D01*
Y7553663D01*
X12343686Y7579096D01*
X12330521Y7601899D01*
X12311902Y7620518D01*
X12289100Y7633683D01*
X12263667Y7640498D01*
D02*
G37*
G36*
X16510001Y7400980D02*
X16230000D01*
X16210490Y7397099D01*
X16193951Y7386048D01*
X16182901Y7369509D01*
X16179021Y7350000D01*
Y6590000D01*
X16182901Y6570491D01*
X16193951Y6553952D01*
X16210490Y6542901D01*
X16230000Y6539020D01*
X16510001D01*
X16529509Y6542901D01*
X16546048Y6553952D01*
X16557098Y6570491D01*
X16560980Y6590000D01*
Y7350000D01*
X16557098Y7369509D01*
X16546048Y7386048D01*
X16529509Y7397099D01*
X16510001Y7400980D01*
D02*
G37*
G36*
X13787666Y6624498D02*
X13761336D01*
X13735902Y6617683D01*
X13713100Y6604518D01*
X13694482Y6585899D01*
X13681316Y6563096D01*
X13674501Y6537663D01*
Y6511333D01*
X13681316Y6485900D01*
X13694482Y6463097D01*
X13713100Y6444478D01*
X13735902Y6431313D01*
X13761336Y6424498D01*
X13787666D01*
X13813100Y6431313D01*
X13835902Y6444478D01*
X13854521Y6463097D01*
X13867686Y6485900D01*
X13874501Y6511333D01*
Y6537663D01*
X13867686Y6563096D01*
X13854521Y6585899D01*
X13835902Y6604518D01*
X13813100Y6617683D01*
X13787666Y6624498D01*
D02*
G37*
G36*
X12263667D02*
X12237336D01*
X12211903Y6617683D01*
X12189100Y6604518D01*
X12170482Y6585899D01*
X12157316Y6563096D01*
X12150501Y6537663D01*
Y6511333D01*
X12157316Y6485900D01*
X12170482Y6463097D01*
X12189100Y6444478D01*
X12211903Y6431313D01*
X12237336Y6424498D01*
X12263667D01*
X12289100Y6431313D01*
X12311902Y6444478D01*
X12330521Y6463097D01*
X12343686Y6485900D01*
X12350501Y6511333D01*
Y6537663D01*
X12343686Y6563096D01*
X12330521Y6585899D01*
X12311902Y6604518D01*
X12289100Y6617683D01*
X12263667Y6624498D01*
D02*
G37*
G36*
X17495001Y6445000D02*
X17305000D01*
Y6255000D01*
X17495001D01*
Y6445000D01*
D02*
G37*
G36*
X13787666Y6370498D02*
X13761336D01*
X13735902Y6363683D01*
X13713100Y6350518D01*
X13694482Y6331899D01*
X13681316Y6309096D01*
X13674501Y6283663D01*
Y6257333D01*
X13681316Y6231900D01*
X13694482Y6209097D01*
X13713100Y6190478D01*
X13735902Y6177313D01*
X13761336Y6170498D01*
X13787666D01*
X13813100Y6177313D01*
X13835902Y6190478D01*
X13854521Y6209097D01*
X13867686Y6231900D01*
X13874501Y6257333D01*
Y6283663D01*
X13867686Y6309096D01*
X13854521Y6331899D01*
X13835902Y6350518D01*
X13813100Y6363683D01*
X13787666Y6370498D01*
D02*
G37*
G36*
X12263667D02*
X12237336D01*
X12211903Y6363683D01*
X12189100Y6350518D01*
X12170482Y6331899D01*
X12157316Y6309096D01*
X12150501Y6283663D01*
Y6257333D01*
X12157316Y6231900D01*
X12170482Y6209097D01*
X12189100Y6190478D01*
X12211903Y6177313D01*
X12237336Y6170498D01*
X12263667D01*
X12289100Y6177313D01*
X12311902Y6190478D01*
X12330521Y6209097D01*
X12343686Y6231900D01*
X12350501Y6257333D01*
Y6283663D01*
X12343686Y6309096D01*
X12330521Y6331899D01*
X12311902Y6350518D01*
X12289100Y6363683D01*
X12263667Y6370498D01*
D02*
G37*
G36*
X14428455Y7082500D02*
X14411546D01*
X14395926Y7076030D01*
X14383971Y7064074D01*
X14377499Y7048454D01*
Y7031546D01*
X14383971Y7015926D01*
X14394305Y7005590D01*
Y6080643D01*
X14355855Y6042192D01*
X13871144D01*
X13867686Y6055096D01*
X13854521Y6077899D01*
X13835902Y6096518D01*
X13813100Y6109683D01*
X13787666Y6116498D01*
X13761336D01*
X13735902Y6109683D01*
X13713100Y6096518D01*
X13694482Y6077899D01*
X13681316Y6055096D01*
X13674501Y6029663D01*
Y6003333D01*
X13681316Y5977900D01*
X13694482Y5955097D01*
X13713100Y5936478D01*
X13735902Y5923313D01*
X13761336Y5916498D01*
X13787666D01*
X13813100Y5923313D01*
X13835902Y5936478D01*
X13854521Y5955097D01*
X13867686Y5977900D01*
X13871144Y5990804D01*
X14366498D01*
X14376331Y5992760D01*
X14384666Y5998330D01*
X14438168Y6051832D01*
X14443738Y6060167D01*
X14445694Y6070000D01*
Y7005590D01*
X14456030Y7015926D01*
X14462500Y7031546D01*
Y7048454D01*
X14456030Y7064074D01*
X14444073Y7076030D01*
X14428455Y7082500D01*
D02*
G37*
G36*
X12263667Y6116498D02*
X12237336D01*
X12211903Y6109683D01*
X12189100Y6096518D01*
X12170482Y6077899D01*
X12157316Y6055096D01*
X12150501Y6029663D01*
Y6003333D01*
X12157316Y5977900D01*
X12170482Y5955097D01*
X12189100Y5936478D01*
X12211903Y5923313D01*
X12237336Y5916498D01*
X12263667D01*
X12289100Y5923313D01*
X12311902Y5936478D01*
X12330521Y5955097D01*
X12343686Y5977900D01*
X12350501Y6003333D01*
Y6029663D01*
X12343686Y6055096D01*
X12330521Y6077899D01*
X12311902Y6096518D01*
X12289100Y6109683D01*
X12263667Y6116498D01*
D02*
G37*
G36*
X13787666Y5862498D02*
X13761336D01*
X13735902Y5855683D01*
X13713100Y5842518D01*
X13694482Y5823899D01*
X13681316Y5801096D01*
X13674501Y5775663D01*
Y5749333D01*
X13681316Y5723900D01*
X13694482Y5701097D01*
X13713100Y5682478D01*
X13735902Y5669313D01*
X13761336Y5662498D01*
X13787666D01*
X13813100Y5669313D01*
X13835902Y5682478D01*
X13854521Y5701097D01*
X13867686Y5723900D01*
X13874501Y5749333D01*
Y5775663D01*
X13867686Y5801096D01*
X13854521Y5823899D01*
X13835902Y5842518D01*
X13813100Y5855683D01*
X13787666Y5862498D01*
D02*
G37*
G36*
X12263667D02*
X12237336D01*
X12211903Y5855683D01*
X12189100Y5842518D01*
X12170482Y5823899D01*
X12157316Y5801096D01*
X12150501Y5775663D01*
Y5749333D01*
X12157316Y5723900D01*
X12170482Y5701097D01*
X12189100Y5682478D01*
X12211903Y5669313D01*
X12237336Y5662498D01*
X12263667D01*
X12289100Y5669313D01*
X12311902Y5682478D01*
X12330521Y5701097D01*
X12343686Y5723900D01*
X12350501Y5749333D01*
Y5775663D01*
X12343686Y5801096D01*
X12330521Y5823899D01*
X12311902Y5842518D01*
X12289100Y5855683D01*
X12263667Y5862498D01*
D02*
G37*
G36*
X13787666Y5608498D02*
X13761336D01*
X13735902Y5601683D01*
X13713100Y5588518D01*
X13694482Y5569899D01*
X13681316Y5547096D01*
X13674501Y5521663D01*
Y5495333D01*
X13681316Y5469900D01*
X13694482Y5447097D01*
X13713100Y5428478D01*
X13735902Y5415313D01*
X13761336Y5408498D01*
X13787666D01*
X13813100Y5415313D01*
X13835902Y5428478D01*
X13854521Y5447097D01*
X13867686Y5469900D01*
X13874501Y5495333D01*
Y5521663D01*
X13867686Y5547096D01*
X13854521Y5569899D01*
X13835902Y5588518D01*
X13813100Y5601683D01*
X13787666Y5608498D01*
D02*
G37*
G36*
X12263667D02*
X12237336D01*
X12211903Y5601683D01*
X12189100Y5588518D01*
X12170482Y5569899D01*
X12157316Y5547096D01*
X12150501Y5521663D01*
Y5495333D01*
X12157316Y5469900D01*
X12170482Y5447097D01*
X12189100Y5428478D01*
X12211903Y5415313D01*
X12237336Y5408498D01*
X12263667D01*
X12289100Y5415313D01*
X12311902Y5428478D01*
X12330521Y5447097D01*
X12343686Y5469900D01*
X12350501Y5495333D01*
Y5521663D01*
X12343686Y5547096D01*
X12330521Y5569899D01*
X12311902Y5588518D01*
X12289100Y5601683D01*
X12263667Y5608498D01*
D02*
G37*
G36*
X13787666Y5354498D02*
X13761336D01*
X13735902Y5347683D01*
X13713100Y5334518D01*
X13694482Y5315899D01*
X13681316Y5293096D01*
X13674501Y5267663D01*
Y5241333D01*
X13681316Y5215900D01*
X13694482Y5193097D01*
X13713100Y5174478D01*
X13735902Y5161313D01*
X13761336Y5154498D01*
X13787666D01*
X13813100Y5161313D01*
X13835902Y5174478D01*
X13854521Y5193097D01*
X13867686Y5215900D01*
X13874501Y5241333D01*
Y5267663D01*
X13867686Y5293096D01*
X13854521Y5315899D01*
X13835902Y5334518D01*
X13813100Y5347683D01*
X13787666Y5354498D01*
D02*
G37*
G36*
X12263667D02*
X12237336D01*
X12211903Y5347683D01*
X12189100Y5334518D01*
X12170482Y5315899D01*
X12157316Y5293096D01*
X12150501Y5267663D01*
Y5241333D01*
X12157316Y5215900D01*
X12170482Y5193097D01*
X12189100Y5174478D01*
X12211903Y5161313D01*
X12237336Y5154498D01*
X12263667D01*
X12289100Y5161313D01*
X12311902Y5174478D01*
X12330521Y5193097D01*
X12343686Y5215900D01*
X12350501Y5241333D01*
Y5267663D01*
X12343686Y5293096D01*
X12330521Y5315899D01*
X12311902Y5334518D01*
X12289100Y5347683D01*
X12263667Y5354498D01*
D02*
G37*
G36*
X17365755Y5232355D02*
X17268254D01*
X17242474Y5228961D01*
X17218452Y5219011D01*
X17197824Y5203182D01*
X17181996Y5182554D01*
X17172046Y5158532D01*
X17168652Y5132753D01*
Y5035253D01*
X17172046Y5009474D01*
X17181996Y4985452D01*
X17197824Y4964824D01*
X17218452Y4948995D01*
X17242474Y4939045D01*
X17268254Y4935651D01*
X17365755D01*
X17391533Y4939045D01*
X17415555Y4948995D01*
X17436183Y4964824D01*
X17452013Y4985452D01*
X17461961Y5009474D01*
X17465356Y5035253D01*
Y5132753D01*
X17461961Y5158532D01*
X17452013Y5182554D01*
X17436183Y5203182D01*
X17415555Y5219011D01*
X17391533Y5228961D01*
X17365755Y5232355D01*
D02*
G37*
G36*
X12263667Y5100498D02*
X12237336D01*
X12211903Y5093683D01*
X12189100Y5080518D01*
X12170482Y5061899D01*
X12157316Y5039096D01*
X12150501Y5013663D01*
Y4987333D01*
X12157316Y4961900D01*
X12170482Y4939097D01*
X12189100Y4920478D01*
X12211903Y4907313D01*
X12237336Y4900498D01*
X12263667D01*
X12289100Y4907313D01*
X12311902Y4920478D01*
X12330521Y4939097D01*
X12343686Y4961900D01*
X12350501Y4987333D01*
Y5013663D01*
X12343686Y5039096D01*
X12330521Y5061899D01*
X12311902Y5080518D01*
X12289100Y5093683D01*
X12263667Y5100498D01*
D02*
G37*
G36*
X13038454Y6212500D02*
X13021545D01*
X13005927Y6206030D01*
X12993970Y6194074D01*
X12987500Y6178454D01*
Y6161546D01*
X12993970Y6145926D01*
X13004306Y6135590D01*
Y4580644D01*
X12826508Y4402846D01*
X12816669Y4408527D01*
X12792507Y4415001D01*
X12767493D01*
X12743331Y4408527D01*
X12721669Y4396020D01*
X12703981Y4378333D01*
X12691474Y4356670D01*
X12685000Y4332508D01*
Y4307495D01*
X12691474Y4283333D01*
X12703981Y4261670D01*
X12721669Y4243983D01*
X12743331Y4231476D01*
X12767493Y4225002D01*
X12792507D01*
X12816669Y4231476D01*
X12838332Y4243983D01*
X12856018Y4261670D01*
X12868526Y4283333D01*
X12875000Y4307495D01*
Y4332508D01*
X12868526Y4356670D01*
X12862843Y4366510D01*
X13048167Y4551834D01*
X13053738Y4560169D01*
X13055695Y4570002D01*
Y6135590D01*
X13066029Y6145926D01*
X13072501Y6161546D01*
Y6178454D01*
X13066029Y6194074D01*
X13054074Y6206030D01*
X13038454Y6212500D01*
D02*
G37*
G36*
X14970000Y8275694D02*
X11730000D01*
X11720168Y8273738D01*
X11711832Y8268168D01*
X10881832Y7438168D01*
X10876262Y7429832D01*
X10874306Y7420000D01*
Y6920005D01*
X10876262Y6910172D01*
X10881832Y6901837D01*
X11248141Y6535528D01*
X11235811Y6517074D01*
X11223545Y6487463D01*
X11217293Y6456028D01*
Y6423977D01*
X11223545Y6392542D01*
X11235811Y6362930D01*
X11253618Y6336281D01*
X11276281Y6313617D01*
X11302931Y6295811D01*
X11332542Y6283545D01*
X11363977Y6277293D01*
X11396028D01*
X11427463Y6283545D01*
X11457075Y6295811D01*
X11483724Y6313617D01*
X11506388Y6336281D01*
X11524194Y6362930D01*
X11536460Y6392542D01*
X11542713Y6423977D01*
Y6456028D01*
X11536460Y6487463D01*
X11524194Y6517074D01*
X11506388Y6543724D01*
X11483724Y6566387D01*
X11457075Y6584194D01*
X11427463Y6596460D01*
X11396028Y6602712D01*
X11363977D01*
X11332542Y6596460D01*
X11302931Y6584194D01*
X11284477Y6571864D01*
X10925694Y6930648D01*
Y7409357D01*
X11740643Y8224306D01*
X14959357D01*
X15586832Y7596832D01*
X15595168Y7591262D01*
X15605000Y7589306D01*
X15774358D01*
X15804306Y7559358D01*
Y6650643D01*
X15739357Y6585694D01*
X15300642D01*
X15245694Y6640643D01*
Y6780499D01*
X15254074Y6783970D01*
X15266029Y6795926D01*
X15272501Y6811546D01*
Y6828454D01*
X15266029Y6844074D01*
X15254074Y6856030D01*
X15238454Y6862500D01*
X15221545D01*
X15205927Y6856030D01*
X15193970Y6844074D01*
X15187500Y6828454D01*
Y6811546D01*
X15193970Y6795926D01*
X15194305Y6795590D01*
Y6630000D01*
Y3304410D01*
X15183971Y3294074D01*
X15177499Y3278454D01*
Y3261546D01*
X15183971Y3245926D01*
X15195926Y3233970D01*
X15211546Y3227500D01*
X15228455D01*
X15244073Y3233970D01*
X15256030Y3245926D01*
X15262500Y3261546D01*
Y3278454D01*
X15256030Y3294074D01*
X15245694Y3304410D01*
Y6551377D01*
X15257426Y6556237D01*
X15271832Y6541832D01*
X15280167Y6536262D01*
X15289999Y6534306D01*
X15750000D01*
X15759833Y6536262D01*
X15768169Y6541832D01*
X15848167Y6621832D01*
X15853738Y6630168D01*
X15855695Y6640000D01*
Y7570000D01*
X15853738Y7579833D01*
X15848167Y7588168D01*
X15803168Y7633168D01*
X15794833Y7638738D01*
X15785001Y7640694D01*
X15723045D01*
X15716257Y7653394D01*
X15716866Y7654306D01*
X15824713D01*
X15884306Y7594713D01*
Y6183349D01*
X15591832Y5890874D01*
X15586263Y5882539D01*
X15584306Y5872706D01*
Y4394410D01*
X15573970Y4384074D01*
X15567500Y4368454D01*
Y4351546D01*
X15573970Y4335926D01*
X15585925Y4323970D01*
X15601546Y4317500D01*
X15618454D01*
X15634074Y4323970D01*
X15646030Y4335926D01*
X15652499Y4351546D01*
Y4368454D01*
X15646030Y4384074D01*
X15635693Y4394410D01*
Y5862063D01*
X15928168Y6154538D01*
X15933739Y6162873D01*
X15935693Y6172706D01*
Y7605355D01*
X15933739Y7615188D01*
X15928168Y7623523D01*
X15853523Y7698168D01*
X15845187Y7703738D01*
X15835355Y7705694D01*
X15704410D01*
X15694073Y7716030D01*
X15678455Y7722500D01*
X15661546D01*
X15645926Y7716030D01*
X15633971Y7704074D01*
X15627499Y7688454D01*
Y7671546D01*
X15633971Y7655926D01*
X15636502Y7653394D01*
X15631242Y7640694D01*
X15615643D01*
X14988168Y8268168D01*
X14979832Y8273738D01*
X14970000Y8275694D01*
D02*
G37*
G36*
X17495001Y4415001D02*
X17305000D01*
Y4225002D01*
X17495001D01*
Y4415001D01*
D02*
G37*
G36*
X13128999D02*
X12939000D01*
Y4225002D01*
X13128999D01*
Y4415001D01*
D02*
G37*
G36*
X13348454Y4552500D02*
X13331546D01*
X13315926Y4546030D01*
X13303970Y4534074D01*
X13297501Y4518454D01*
Y4501546D01*
X13303970Y4485926D01*
X13315926Y4473970D01*
X13331546Y4467500D01*
X13348454D01*
X13364075Y4473970D01*
X13374409Y4484306D01*
X13869357D01*
X14157500Y4196164D01*
Y4181546D01*
X14163969Y4165926D01*
X14175926Y4153970D01*
X14191547Y4147500D01*
X14208453D01*
X14224074Y4153970D01*
X14236031Y4165926D01*
X14242500Y4181546D01*
Y4198454D01*
X14236031Y4214074D01*
X14224074Y4226030D01*
X14208453Y4232500D01*
X14193835D01*
X13898167Y4528168D01*
X13889833Y4533738D01*
X13880000Y4535694D01*
X13374409D01*
X13364075Y4546030D01*
X13348454Y4552500D01*
D02*
G37*
G36*
X14688454Y7262500D02*
X14671545D01*
X14655927Y7256030D01*
X14643970Y7244074D01*
X14637500Y7228454D01*
Y7211546D01*
X14643970Y7195926D01*
X14654306Y7185590D01*
X14654306Y5544410D01*
X14643970Y5534074D01*
X14637500Y5518454D01*
Y5501546D01*
X14643970Y5485926D01*
X14654306Y5475590D01*
Y4276642D01*
X14530164Y4152500D01*
X14521545D01*
X14505927Y4146030D01*
X14493970Y4134074D01*
X14487500Y4118454D01*
Y4109836D01*
X14020169Y3642505D01*
X14008598Y3649185D01*
X13983165Y3656000D01*
X13956834D01*
X13931403Y3649185D01*
X13908598Y3636020D01*
X13889980Y3617401D01*
X13876814Y3594598D01*
X13870000Y3569165D01*
Y3542835D01*
X13876814Y3517402D01*
X13889980Y3494599D01*
X13908598Y3475980D01*
X13931403Y3462815D01*
X13956834Y3456000D01*
X13983165D01*
X14008598Y3462815D01*
X14031401Y3475980D01*
X14050020Y3494599D01*
X14063185Y3517402D01*
X14070000Y3542835D01*
Y3569165D01*
X14063185Y3594598D01*
X14056505Y3606169D01*
X14518922Y4068587D01*
X14521545Y4067500D01*
X14538454D01*
X14554074Y4073970D01*
X14566029Y4085926D01*
X14572501Y4101546D01*
Y4118454D01*
X14571413Y4121077D01*
X14698167Y4247832D01*
X14703738Y4256167D01*
X14705693Y4266000D01*
Y5475590D01*
X14716029Y5485926D01*
X14722501Y5501546D01*
Y5518454D01*
X14716029Y5534074D01*
X14705693Y5544410D01*
X14705695Y7185590D01*
X14716029Y7195926D01*
X14722501Y7211546D01*
Y7228454D01*
X14716029Y7244074D01*
X14704074Y7256030D01*
X14688454Y7262500D01*
D02*
G37*
G36*
X14808453Y7202100D02*
X14791547D01*
X14775926Y7195630D01*
X14763969Y7183674D01*
X14757500Y7168054D01*
Y7151146D01*
X14763969Y7135526D01*
X14774306Y7125190D01*
Y5284410D01*
X14773970Y5284074D01*
X14767500Y5268454D01*
Y5251546D01*
X14773970Y5235926D01*
X14774306Y5235590D01*
Y4200643D01*
X14589191Y4015526D01*
X14582767Y4018186D01*
X14565860D01*
X14550240Y4011716D01*
X14538284Y3999761D01*
X14531815Y3984140D01*
Y3967233D01*
X14534474Y3960810D01*
X14231664Y3657999D01*
X14230327Y3656000D01*
X14210835D01*
X14185402Y3649185D01*
X14162599Y3636020D01*
X14143980Y3617401D01*
X14130815Y3594598D01*
X14124001Y3569165D01*
Y3542835D01*
X14130815Y3517402D01*
X14143980Y3494599D01*
X14162599Y3475980D01*
X14185402Y3462815D01*
X14210835Y3456000D01*
X14237164D01*
X14262598Y3462815D01*
X14285400Y3475980D01*
X14304021Y3494599D01*
X14317184Y3517402D01*
X14324001Y3542835D01*
Y3569165D01*
X14317184Y3594598D01*
X14304021Y3617401D01*
X14285400Y3636019D01*
X14285046Y3638711D01*
X14579523Y3933187D01*
X14582767D01*
X14598389Y3939657D01*
X14610342Y3951612D01*
X14616814Y3967233D01*
Y3970477D01*
X14818169Y4171832D01*
X14823738Y4180167D01*
X14825694Y4190000D01*
Y5220499D01*
X14834074Y5223970D01*
X14846030Y5235926D01*
X14852499Y5251546D01*
Y5268454D01*
X14846030Y5284074D01*
X14834074Y5296030D01*
X14825694Y5299501D01*
Y7125190D01*
X14836031Y7135526D01*
X14842500Y7151146D01*
Y7168054D01*
X14836031Y7183674D01*
X14824074Y7195630D01*
X14808453Y7202100D01*
D02*
G37*
G36*
X17332474Y3923502D02*
X17301535D01*
X17271651Y3915495D01*
X17244856Y3900025D01*
X17222980Y3878149D01*
X17207510Y3851355D01*
X17199504Y3821471D01*
Y3790533D01*
X17207510Y3760649D01*
X17222980Y3733855D01*
X17244856Y3711979D01*
X17271651Y3696509D01*
X17301535Y3688502D01*
X17332474D01*
X17362357Y3696509D01*
X17389149Y3711979D01*
X17411028Y3733855D01*
X17426495Y3760649D01*
X17434505Y3790533D01*
Y3821471D01*
X17426495Y3851355D01*
X17411028Y3878149D01*
X17389149Y3900025D01*
X17362357Y3915495D01*
X17332474Y3923502D01*
D02*
G37*
G36*
X14528455Y7142500D02*
X14511546D01*
X14495926Y7136030D01*
X14483971Y7124074D01*
X14477499Y7108454D01*
Y7091546D01*
X14483971Y7075926D01*
X14494305Y7065590D01*
Y5784410D01*
X14483971Y5774074D01*
X14477499Y5758454D01*
Y5741546D01*
X14483971Y5725926D01*
X14494305Y5715590D01*
Y4370643D01*
X14326164Y4202500D01*
X14311546D01*
X14295926Y4196030D01*
X14283971Y4184074D01*
X14277499Y4168454D01*
Y4153836D01*
X13766170Y3642505D01*
X13754597Y3649185D01*
X13729166Y3656000D01*
X13702835D01*
X13677402Y3649185D01*
X13654599Y3636020D01*
X13635980Y3617401D01*
X13622815Y3594598D01*
X13616000Y3569165D01*
Y3542835D01*
X13622815Y3517402D01*
X13635980Y3494599D01*
X13654599Y3475980D01*
X13677402Y3462815D01*
X13702835Y3456000D01*
X13729166D01*
X13754597Y3462815D01*
X13777402Y3475980D01*
X13796021Y3494599D01*
X13809184Y3517402D01*
X13816000Y3542835D01*
Y3569165D01*
X13809184Y3594598D01*
X13802505Y3606169D01*
X14313837Y4117500D01*
X14328455D01*
X14344073Y4123970D01*
X14356030Y4135926D01*
X14362500Y4151546D01*
Y4166164D01*
X14538168Y4341832D01*
X14543738Y4350167D01*
X14545694Y4360000D01*
Y5715590D01*
X14556030Y5725926D01*
X14562500Y5741546D01*
Y5758454D01*
X14556030Y5774074D01*
X14545694Y5784410D01*
Y7065590D01*
X14556030Y7075926D01*
X14562500Y7091546D01*
Y7108454D01*
X14556030Y7124074D01*
X14544073Y7136030D01*
X14528455Y7142500D01*
D02*
G37*
G36*
X13578455Y4242500D02*
X13561546D01*
X13545926Y4236030D01*
X13533971Y4224074D01*
X13527499Y4208454D01*
Y4191546D01*
X13533971Y4175926D01*
X13544305Y4165590D01*
Y3633075D01*
X13531606Y3627814D01*
X13523401Y3636020D01*
X13500598Y3649185D01*
X13475165Y3656000D01*
X13448836D01*
X13423402Y3649185D01*
X13400600Y3636020D01*
X13381979Y3617401D01*
X13368816Y3594598D01*
X13362000Y3569165D01*
Y3542835D01*
X13368816Y3517402D01*
X13381979Y3494599D01*
X13400600Y3475980D01*
X13423402Y3462815D01*
X13448836Y3456000D01*
X13475165D01*
X13500598Y3462815D01*
X13523401Y3475980D01*
X13531606Y3484186D01*
X13544305Y3478925D01*
Y3299225D01*
X13546262Y3289392D01*
X13551833Y3281057D01*
X13721057Y3111832D01*
X13729391Y3106262D01*
X13739224Y3104306D01*
X14574588D01*
X14584421Y3106262D01*
X14592757Y3111832D01*
X14599339Y3118415D01*
X14601546Y3117500D01*
X14618454D01*
X14634074Y3123970D01*
X14646030Y3135926D01*
X14652499Y3151546D01*
Y3168454D01*
X14646030Y3184074D01*
X14634074Y3196030D01*
X14618454Y3202500D01*
X14601546D01*
X14585925Y3196030D01*
X14573970Y3184074D01*
X14567500Y3168454D01*
Y3159248D01*
X14563945Y3155694D01*
X13749867D01*
X13715294Y3190267D01*
X13720154Y3202000D01*
X13729166D01*
X13754597Y3208815D01*
X13777402Y3221980D01*
X13796021Y3240599D01*
X13809184Y3263402D01*
X13816000Y3288835D01*
Y3315165D01*
X13809184Y3340598D01*
X13796021Y3363401D01*
X13777402Y3382020D01*
X13754597Y3395185D01*
X13729166Y3402000D01*
X13702835D01*
X13677402Y3395185D01*
X13654599Y3382020D01*
X13635980Y3363401D01*
X13622815Y3340598D01*
X13616000Y3315165D01*
Y3306154D01*
X13604266Y3301294D01*
X13595694Y3309867D01*
Y4165590D01*
X13606030Y4175926D01*
X13612500Y4191546D01*
Y4208454D01*
X13606030Y4224074D01*
X13594073Y4236030D01*
X13578455Y4242500D01*
D02*
G37*
G36*
X12078165Y3656000D02*
X12051835D01*
X12026402Y3649185D01*
X12003599Y3636020D01*
X11984980Y3617401D01*
X11971815Y3594598D01*
X11965000Y3569165D01*
Y3542835D01*
X11971815Y3517402D01*
X11984980Y3494599D01*
X12003599Y3475980D01*
X12026402Y3462815D01*
X12051835Y3456000D01*
X12078165D01*
X12103598Y3462815D01*
X12126401Y3475980D01*
X12145020Y3494599D01*
X12158185Y3517402D01*
X12165000Y3542835D01*
Y3569165D01*
X12158185Y3594598D01*
X12145020Y3617401D01*
X12126401Y3636020D01*
X12103598Y3649185D01*
X12078165Y3656000D01*
D02*
G37*
G36*
X11824165D02*
X11797835D01*
X11772402Y3649185D01*
X11749599Y3636020D01*
X11730980Y3617401D01*
X11717815Y3594598D01*
X11711000Y3569165D01*
Y3542835D01*
X11717815Y3517402D01*
X11730980Y3494599D01*
X11749599Y3475980D01*
X11772402Y3462815D01*
X11797835Y3456000D01*
X11824165D01*
X11849598Y3462815D01*
X11872401Y3475980D01*
X11891020Y3494599D01*
X11904185Y3517402D01*
X11911000Y3542835D01*
Y3569165D01*
X11904185Y3594598D01*
X11891020Y3617401D01*
X11872401Y3636020D01*
X11849598Y3649185D01*
X11824165Y3656000D01*
D02*
G37*
G36*
X11570165D02*
X11543835D01*
X11518402Y3649185D01*
X11495599Y3636020D01*
X11476980Y3617401D01*
X11463815Y3594598D01*
X11457000Y3569165D01*
Y3542835D01*
X11463815Y3517402D01*
X11476980Y3494599D01*
X11495599Y3475980D01*
X11518402Y3462815D01*
X11543835Y3456000D01*
X11570165D01*
X11595598Y3462815D01*
X11618401Y3475980D01*
X11637020Y3494599D01*
X11650185Y3517402D01*
X11657000Y3542835D01*
Y3569165D01*
X11650185Y3594598D01*
X11637020Y3617401D01*
X11618401Y3636020D01*
X11595598Y3649185D01*
X11570165Y3656000D01*
D02*
G37*
G36*
X11316165D02*
X11289835D01*
X11264402Y3649185D01*
X11241599Y3636020D01*
X11222980Y3617401D01*
X11209815Y3594598D01*
X11203000Y3569165D01*
Y3542835D01*
X11209815Y3517402D01*
X11222980Y3494599D01*
X11241599Y3475980D01*
X11264402Y3462815D01*
X11289835Y3456000D01*
X11316165D01*
X11341598Y3462815D01*
X11364401Y3475980D01*
X11383020Y3494599D01*
X11396185Y3517402D01*
X11403000Y3542835D01*
Y3569165D01*
X11396185Y3594598D01*
X11383020Y3617401D01*
X11364401Y3636020D01*
X11341598Y3649185D01*
X11316165Y3656000D01*
D02*
G37*
G36*
X14237164Y3402000D02*
X14210835D01*
X14185402Y3395185D01*
X14162599Y3382020D01*
X14143980Y3363401D01*
X14130815Y3340598D01*
X14124001Y3315165D01*
Y3288835D01*
X14130815Y3263402D01*
X14143980Y3240599D01*
X14162599Y3221980D01*
X14185402Y3208815D01*
X14210835Y3202000D01*
X14237164D01*
X14262598Y3208815D01*
X14285400Y3221980D01*
X14304021Y3240599D01*
X14317184Y3263402D01*
X14324001Y3288835D01*
Y3315165D01*
X14317184Y3340598D01*
X14304021Y3363401D01*
X14285400Y3382020D01*
X14262598Y3395185D01*
X14237164Y3402000D01*
D02*
G37*
G36*
X13983165D02*
X13956834D01*
X13931403Y3395185D01*
X13908598Y3382020D01*
X13889980Y3363401D01*
X13876814Y3340598D01*
X13870000Y3315165D01*
Y3288835D01*
X13876814Y3263402D01*
X13889980Y3240599D01*
X13908598Y3221980D01*
X13931403Y3208815D01*
X13956834Y3202000D01*
X13983165D01*
X14008598Y3208815D01*
X14031401Y3221980D01*
X14050020Y3240599D01*
X14063185Y3263402D01*
X14070000Y3288835D01*
Y3315165D01*
X14063185Y3340598D01*
X14050020Y3363401D01*
X14031401Y3382020D01*
X14008598Y3395185D01*
X13983165Y3402000D01*
D02*
G37*
G36*
X12078165D02*
X12051835D01*
X12026402Y3395185D01*
X12003599Y3382020D01*
X11984980Y3363401D01*
X11971815Y3340598D01*
X11965000Y3315165D01*
Y3288835D01*
X11971815Y3263402D01*
X11984980Y3240599D01*
X12003599Y3221980D01*
X12026402Y3208815D01*
X12051835Y3202000D01*
X12078165D01*
X12103598Y3208815D01*
X12126401Y3221980D01*
X12145020Y3240599D01*
X12158185Y3263402D01*
X12165000Y3288835D01*
Y3315165D01*
X12158185Y3340598D01*
X12145020Y3363401D01*
X12126401Y3382020D01*
X12103598Y3395185D01*
X12078165Y3402000D01*
D02*
G37*
G36*
X11824165D02*
X11797835D01*
X11772402Y3395185D01*
X11749599Y3382020D01*
X11730980Y3363401D01*
X11717815Y3340598D01*
X11711000Y3315165D01*
Y3288835D01*
X11717815Y3263402D01*
X11730980Y3240599D01*
X11749599Y3221980D01*
X11772402Y3208815D01*
X11797835Y3202000D01*
X11824165D01*
X11849598Y3208815D01*
X11872401Y3221980D01*
X11891020Y3240599D01*
X11904185Y3263402D01*
X11911000Y3288835D01*
Y3315165D01*
X11904185Y3340598D01*
X11891020Y3363401D01*
X11872401Y3382020D01*
X11849598Y3395185D01*
X11824165Y3402000D01*
D02*
G37*
G36*
X11570165D02*
X11543835D01*
X11518402Y3395185D01*
X11495599Y3382020D01*
X11476980Y3363401D01*
X11463815Y3340598D01*
X11457000Y3315165D01*
Y3288835D01*
X11463815Y3263402D01*
X11476980Y3240599D01*
X11495599Y3221980D01*
X11518402Y3208815D01*
X11543835Y3202000D01*
X11570165D01*
X11595598Y3208815D01*
X11618401Y3221980D01*
X11637020Y3240599D01*
X11650185Y3263402D01*
X11657000Y3288835D01*
Y3315165D01*
X11650185Y3340598D01*
X11637020Y3363401D01*
X11618401Y3382020D01*
X11595598Y3395185D01*
X11570165Y3402000D01*
D02*
G37*
G36*
X11403000D02*
X11203000D01*
Y3202000D01*
X11403000D01*
Y3402000D01*
D02*
G37*
G36*
X17365755Y3424096D02*
X17268254D01*
X17250307Y3421734D01*
X17233582Y3414806D01*
X17219221Y3403786D01*
X17208202Y3389425D01*
X17201273Y3372700D01*
X17198911Y3354753D01*
Y3257253D01*
X17201273Y3239306D01*
X17208202Y3222581D01*
X17219221Y3208220D01*
X17233582Y3197200D01*
X17250307Y3190273D01*
X17268254Y3187910D01*
X17365755D01*
X17383701Y3190273D01*
X17400426Y3197200D01*
X17414787Y3208220D01*
X17425807Y3222581D01*
X17432735Y3239306D01*
X17435097Y3257253D01*
Y3354753D01*
X17432735Y3372700D01*
X17425807Y3389425D01*
X17414787Y3403786D01*
X17400426Y3414806D01*
X17383701Y3421734D01*
X17365755Y3424096D01*
D02*
G37*
G36*
X16510001Y3860980D02*
X16230000D01*
X16210490Y3857099D01*
X16193951Y3846048D01*
X16182901Y3829509D01*
X16179021Y3810000D01*
Y3050000D01*
X16182901Y3030491D01*
X16193951Y3013952D01*
X16210490Y3002901D01*
X16230000Y2999020D01*
X16510001D01*
X16529509Y3002901D01*
X16546048Y3013952D01*
X16557098Y3030491D01*
X16560980Y3050000D01*
Y3810000D01*
X16557098Y3829509D01*
X16546048Y3846048D01*
X16529509Y3857099D01*
X16510001Y3860980D01*
D02*
G37*
G36*
X17495001Y2885002D02*
X17305000D01*
Y2695002D01*
X17495001D01*
Y2885002D01*
D02*
G37*
%LPD*%
G36*
X16510001Y6590000D02*
X16230000D01*
Y7350000D01*
X16510001D01*
Y6590000D01*
D02*
G37*
G36*
Y3050000D02*
X16230000D01*
Y3810000D01*
X16510001D01*
Y3050000D01*
D02*
G37*
D20*
X15910001Y6172706D02*
Y7605355D01*
X13208000Y3556000D02*
Y6288000D01*
X13600000Y6680000D01*
X13030000Y4570002D02*
Y6170000D01*
X12780000Y4320002D02*
X13030000Y4570002D01*
X12250501Y7540498D02*
X13110999Y6680000D01*
X13470000D01*
X13600000Y6857997D02*
X13774501Y7032498D01*
X13600000Y6680000D02*
Y6857997D01*
X13774501Y7032498D02*
Y7058497D01*
X11730000Y8250000D02*
X14970000D01*
X15605000Y7615000D01*
X13880000Y4510000D02*
X14200000Y4190000D01*
X14249831Y3639831D02*
X14800000Y4190000D01*
X14680000Y4266000D02*
Y5510000D01*
X13970000Y3556000D02*
X14680000Y4266000D01*
X14800000Y4190000D02*
Y7159600D01*
X14520000Y4360000D02*
Y5750000D01*
X14320000Y4160000D02*
X14520000Y4360000D01*
X13524004Y4750000D02*
X13774501Y5000498D01*
X13274600Y4750000D02*
X13524004D01*
X12869354Y3894645D02*
X13208000Y3556000D01*
X13339999Y4510000D02*
X13880000D01*
X11620114Y3894645D02*
X12869354D01*
X11307300Y4207459D02*
X11620114Y3894645D01*
X14604588Y3160000D02*
X14610001D01*
X14574588Y3130000D02*
X14604588Y3160000D01*
X13570000Y3299225D02*
X13739224Y3130000D01*
X14574588D01*
X13570000Y3299225D02*
Y4200000D01*
X14680000Y5510000D02*
X14680000Y7220000D01*
X14520000Y5750000D02*
Y7100000D01*
X13716000Y3556000D02*
X14320000Y4160000D01*
X14224001Y3556000D02*
X14249831Y3581831D01*
Y3639831D01*
X13774501Y6016498D02*
X14366498D01*
X14420000Y6070000D01*
Y7040000D01*
X15750000Y6560000D02*
X15830000Y6640000D01*
Y7570000D01*
X15289999Y6560000D02*
X15750000D01*
X15785001Y7615000D02*
X15830000Y7570000D01*
X15605000Y7615000D02*
X15785001D01*
X15610001Y5872706D02*
X15910001Y6172706D01*
X15835355Y7680000D02*
X15910001Y7605355D01*
X15220000Y6630000D02*
Y6804588D01*
Y3270000D02*
Y6630000D01*
X15289999Y6560000D01*
X10900000Y7420000D02*
X11730000Y8250000D01*
X10900000Y6920005D02*
X11380003Y6440002D01*
X10900000Y6920005D02*
Y7420000D01*
X15230000Y6814588D02*
Y6820000D01*
X15220000Y6804588D02*
X15230000Y6814588D01*
X15670000Y7680000D02*
X15835355D01*
X15610001Y4360000D02*
Y5872706D01*
X13774501Y7058497D02*
X14126003Y7409998D01*
X11307300Y4207459D02*
Y4217697D01*
X11274998Y4249999D02*
X11307300Y4217697D01*
X11159998Y4249999D02*
X11274998D01*
X11617462Y4352699D02*
X12459477D01*
X12492175Y4320002D01*
X11410000Y4249999D02*
X11420238Y4260237D01*
X11525000D01*
X11617462Y4352699D01*
X12492175Y4320002D02*
X12526000D01*
X13462000Y3302000D02*
X13860173Y2903827D01*
X13313200Y3043200D02*
Y3450800D01*
X13208000Y3556000D02*
X13313200Y3450800D01*
X13150000Y2880000D02*
X13313200Y3043200D01*
D21*
X12065000Y3556000D02*
D03*
X11811000D02*
D03*
X12065000Y3302000D02*
D03*
X11811000D02*
D03*
X11557000Y3556000D02*
D03*
Y3302000D02*
D03*
X11303000Y3556000D02*
D03*
X13774501Y5000498D02*
D03*
X12250501Y7794498D02*
D03*
Y7540498D02*
D03*
Y7286498D02*
D03*
Y7032498D02*
D03*
Y6778498D02*
D03*
Y6524498D02*
D03*
Y6270498D02*
D03*
Y6016498D02*
D03*
Y5762498D02*
D03*
Y5508498D02*
D03*
Y5254498D02*
D03*
X13774501D02*
D03*
Y5508498D02*
D03*
Y5762498D02*
D03*
Y6016498D02*
D03*
Y6270498D02*
D03*
Y6524498D02*
D03*
Y6778498D02*
D03*
Y7032498D02*
D03*
Y7286498D02*
D03*
Y7540498D02*
D03*
Y7794498D02*
D03*
X12250501Y5000498D02*
D03*
X14224001Y3556000D02*
D03*
X13970000D02*
D03*
X14224001Y3302000D02*
D03*
X13970000D02*
D03*
X13716000Y3556000D02*
D03*
Y3302000D02*
D03*
X13462000Y3556000D02*
D03*
Y3302000D02*
D03*
X13208000Y3556000D02*
D03*
D22*
X11303000Y3302000D02*
D03*
X13208000D02*
D03*
D23*
X13034000Y4320002D02*
D03*
X17400002Y2790002D02*
D03*
Y4320002D02*
D03*
X14126003Y7409998D02*
D03*
X17400002Y7870002D02*
D03*
Y6350000D02*
D03*
D24*
X12780000Y4320002D02*
D03*
X12526000D02*
D03*
X14380002Y7409998D02*
D03*
D25*
X11660002Y4249999D02*
D03*
X11410000D02*
D03*
D26*
X11159998D02*
D03*
D27*
X11849999Y4949998D02*
D03*
X10970001D02*
D03*
D28*
X17317004Y6862003D02*
D03*
Y5084003D02*
D03*
Y3306003D02*
D03*
D29*
Y7362002D02*
D03*
Y5584002D02*
D03*
Y3806002D02*
D03*
D30*
X11380003Y5970102D02*
D03*
Y6440002D02*
D03*
D31*
Y6909902D02*
D03*
D32*
X14570000Y3630000D02*
D03*
X11960000Y3990000D02*
D03*
X11720000Y3740000D02*
D03*
X15070000Y6320000D02*
D03*
X16770000Y8050000D02*
D03*
X16670000Y7050000D02*
D03*
X16620000Y6980000D02*
D03*
X16080000D02*
D03*
X17480000Y5920000D02*
D03*
X16739999Y6360000D02*
D03*
X16789999Y5790000D02*
D03*
X16800000Y5270000D02*
D03*
X16810001Y4810000D02*
D03*
X16800000Y3960000D02*
D03*
X16850000Y2890000D02*
D03*
X17400000Y3560000D02*
D03*
X16100000Y3430000D02*
D03*
X16789999D02*
D03*
X13860001Y4230000D02*
D03*
X14030000Y5640000D02*
D03*
X14060001Y5390000D02*
D03*
X14239999Y4640000D02*
D03*
X14139999Y6350000D02*
D03*
X14180000Y7050000D02*
D03*
X13939999Y7010000D02*
D03*
X16299998Y3170001D02*
D03*
X16370000D02*
D03*
X16439998D02*
D03*
X16299998Y3099999D02*
D03*
X16370000D02*
D03*
X16439998D02*
D03*
X16299998Y3700003D02*
D03*
X16370000D02*
D03*
X16439998D02*
D03*
X16299998Y3770000D02*
D03*
X16370000D02*
D03*
X16439998D02*
D03*
X16430000Y7300001D02*
D03*
X16359998D02*
D03*
X16289999D02*
D03*
X16430000Y7229998D02*
D03*
X16359998D02*
D03*
X16289999D02*
D03*
X16430000Y6629999D02*
D03*
X16359998D02*
D03*
X16289999D02*
D03*
X16430000Y6700002D02*
D03*
X16359998D02*
D03*
X16289999D02*
D03*
D33*
X13030000Y6170000D02*
D03*
X13470000Y6680000D02*
D03*
X14200000Y4190000D02*
D03*
X13339999Y4510000D02*
D03*
X13274600Y4750000D02*
D03*
X14610001Y3160000D02*
D03*
X13570000Y4200000D02*
D03*
X14810001Y5260000D02*
D03*
X14680000Y5510000D02*
D03*
X14520000Y5750000D02*
D03*
X14320000Y4160000D02*
D03*
X14574313Y3975686D02*
D03*
X14530000Y4110000D02*
D03*
X14680000Y7220000D02*
D03*
X14800000Y7159600D02*
D03*
X14520000Y7100000D02*
D03*
X14420000Y7040000D02*
D03*
X15670000Y7680000D02*
D03*
X15610001Y4360000D02*
D03*
X15220000Y3270000D02*
D03*
X15230000Y6820000D02*
D03*
X13880000Y2900000D02*
D03*
X13150000Y2880000D02*
D03*
D34*
X15620000Y3235000D02*
D03*
Y3365002D02*
D03*
Y3494999D02*
D03*
Y3625002D02*
D03*
Y3754999D02*
D03*
Y3885001D02*
D03*
X15750002Y3235000D02*
D03*
Y3365002D02*
D03*
Y3494999D02*
D03*
Y3625002D02*
D03*
Y3754999D02*
D03*
Y3885001D02*
D03*
X15490002Y3235000D02*
D03*
Y3365002D02*
D03*
Y3494999D02*
D03*
Y3625002D02*
D03*
Y3754999D02*
D03*
Y3885001D02*
D03*
X15620000Y6785000D02*
D03*
Y6914998D02*
D03*
Y7045000D02*
D03*
Y7175002D02*
D03*
Y7304999D02*
D03*
Y7435002D02*
D03*
X15750002Y6785000D02*
D03*
Y6914998D02*
D03*
Y7045000D02*
D03*
Y7175002D02*
D03*
Y7304999D02*
D03*
Y7435002D02*
D03*
X15490002Y6785000D02*
D03*
Y6914998D02*
D03*
Y7045000D02*
D03*
Y7175002D02*
D03*
Y7304999D02*
D03*
Y7435002D02*
D03*
%TF.MD5,3df3bfe7e0b6dbca29f2011941870352*%
M02*
