%TF.GenerationSoftware,Altium Limited,Altium Designer,23.9.2 (47)*%
G04 Layer_Physical_Order=1*
G04 Layer_Color=255*
%FSLAX45Y45*%
%MOMM*%
%TF.SameCoordinates,FB2876E6-207A-4176-94B4-128B36F1A8A2*%
%TF.FilePolarity,Positive*%
%TF.FileFunction,Copper,L1,Top,Signal*%
%TF.Part,Single*%
G01*
G75*
%TA.AperFunction,SMDPad,CuDef*%
%ADD10R,1.00000X1.35000*%
%ADD11R,1.45620X1.30464*%
%ADD12R,3.50000X2.50000*%
%ADD13R,1.30464X1.45620*%
%ADD14R,1.35000X1.00000*%
%ADD15R,0.95000X1.35000*%
%ADD16R,1.10000X1.35000*%
%TA.AperFunction,SMDPad,SMDef*%
%ADD17R,3.40000X7.80000*%
%TA.AperFunction,SMDPad,CuDef*%
%ADD18R,1.60000X0.30000*%
%TA.AperFunction,Conductor*%
%ADD19C,1.00000*%
%ADD20C,0.25000*%
%TA.AperFunction,ComponentPad*%
%ADD21C,1.60000*%
%ADD22R,1.60000X1.60000*%
%ADD23R,1.50000X1.50000*%
%ADD24C,1.50000*%
%ADD25C,1.55000*%
%ADD26R,1.55000X1.55000*%
G04:AMPARAMS|DCode=27|XSize=2.4mm|YSize=4.6mm|CornerRadius=1.2mm|HoleSize=0mm|Usage=FLASHONLY|Rotation=0.000|XOffset=0mm|YOffset=0mm|HoleType=Round|Shape=RoundedRectangle|*
%AMROUNDEDRECTD27*
21,1,2.40000,2.20000,0,0,0.0*
21,1,0.00000,4.60000,0,0,0.0*
1,1,2.40000,0.00000,-1.10000*
1,1,2.40000,0.00000,-1.10000*
1,1,2.40000,0.00000,1.10000*
1,1,2.40000,0.00000,1.10000*
%
%ADD27ROUNDEDRECTD27*%
G04:AMPARAMS|DCode=28|XSize=1.95mm|YSize=1.95mm|CornerRadius=0.4875mm|HoleSize=0mm|Usage=FLASHONLY|Rotation=90.000|XOffset=0mm|YOffset=0mm|HoleType=Round|Shape=RoundedRectangle|*
%AMROUNDEDRECTD28*
21,1,1.95000,0.97500,0,0,90.0*
21,1,0.97500,1.95000,0,0,90.0*
1,1,0.97500,0.48750,0.48750*
1,1,0.97500,0.48750,-0.48750*
1,1,0.97500,-0.48750,-0.48750*
1,1,0.97500,-0.48750,0.48750*
%
%ADD28ROUNDEDRECTD28*%
%ADD29C,1.95000*%
%ADD30C,2.85420*%
%ADD31R,2.85420X2.85420*%
%TA.AperFunction,ViaPad*%
%ADD32C,0.50000*%
%ADD33C,0.45000*%
%ADD34C,0.60000*%
G36*
X17780000Y2540000D02*
X10668000D01*
Y8382000D01*
X17780000D01*
Y2540000D01*
D02*
G37*
%LPC*%
G36*
X15795811Y7952809D02*
X15720581D01*
Y7870000D01*
X15795811D01*
Y7952809D01*
D02*
G37*
G36*
X14200002Y8065694D02*
X11730000D01*
X11720167Y8063738D01*
X11711832Y8058168D01*
X11361835Y7708171D01*
X11356265Y7699835D01*
X11354309Y7690003D01*
Y7072612D01*
X11217293D01*
Y6747192D01*
X11542713D01*
Y7072612D01*
X11405696D01*
Y7679360D01*
X11740643Y8014306D01*
X14189359D01*
X14276831Y7926834D01*
X14285167Y7921264D01*
X14287299Y7920840D01*
Y7809802D01*
X14412698D01*
Y7970202D01*
X14314980D01*
X14312498Y7970696D01*
X14305643D01*
X14218169Y8058168D01*
X14209834Y8063738D01*
X14200002Y8065694D01*
D02*
G37*
G36*
X15795811Y7850000D02*
X15720581D01*
Y7767190D01*
X15795811D01*
Y7850000D01*
D02*
G37*
G36*
X13787666Y7894498D02*
X13761336D01*
X13735902Y7887683D01*
X13713100Y7874518D01*
X13694482Y7855899D01*
X13681316Y7833096D01*
X13674501Y7807663D01*
Y7781333D01*
X13681316Y7755900D01*
X13694482Y7733097D01*
X13713100Y7714478D01*
X13735902Y7701313D01*
X13761336Y7694498D01*
X13787666D01*
X13813100Y7701313D01*
X13835902Y7714478D01*
X13854521Y7733097D01*
X13867686Y7755900D01*
X13874501Y7781333D01*
Y7807663D01*
X13867686Y7833096D01*
X13854521Y7855899D01*
X13835902Y7874518D01*
X13813100Y7887683D01*
X13787666Y7894498D01*
D02*
G37*
G36*
X13788377Y7645898D02*
X13787201D01*
Y7553198D01*
X13879901D01*
Y7554374D01*
X13872717Y7581181D01*
X13858842Y7605215D01*
X13839218Y7624839D01*
X13815184Y7638715D01*
X13788377Y7645898D01*
D02*
G37*
G36*
X13761801D02*
X13760625D01*
X13733818Y7638715D01*
X13709784Y7624839D01*
X13690160Y7605215D01*
X13676283Y7581181D01*
X13669101Y7554374D01*
Y7553198D01*
X13761801D01*
Y7645898D01*
D02*
G37*
G36*
X16592812Y7586390D02*
X16510004D01*
Y7511158D01*
X16592812D01*
Y7586390D01*
D02*
G37*
G36*
X16490002D02*
X16407193D01*
Y7511158D01*
X16490002D01*
Y7586390D01*
D02*
G37*
G36*
X12263667Y7640498D02*
X12237336D01*
X12211903Y7633683D01*
X12189100Y7620518D01*
X12170482Y7601899D01*
X12157316Y7579096D01*
X12150501Y7553663D01*
Y7527333D01*
X12157316Y7501900D01*
X12170482Y7479097D01*
X12189100Y7460478D01*
X12211903Y7447313D01*
X12237336Y7440498D01*
X12263667D01*
X12289100Y7447313D01*
X12311902Y7460478D01*
X12330521Y7479097D01*
X12343686Y7501900D01*
X12350501Y7527333D01*
Y7553663D01*
X12343686Y7579096D01*
X12330521Y7601899D01*
X12311902Y7620518D01*
X12289100Y7633683D01*
X12263667Y7640498D01*
D02*
G37*
G36*
X13879901Y7527798D02*
X13787201D01*
Y7435098D01*
X13788377D01*
X13815184Y7442281D01*
X13839218Y7456157D01*
X13858842Y7475781D01*
X13872717Y7499815D01*
X13879901Y7526622D01*
Y7527798D01*
D02*
G37*
G36*
X13761801D02*
X13669101D01*
Y7526622D01*
X13676283Y7499815D01*
X13690160Y7475781D01*
X13709784Y7456157D01*
X13733818Y7442281D01*
X13760625Y7435098D01*
X13761801D01*
Y7527798D01*
D02*
G37*
G36*
X14592699Y7970202D02*
X14467299D01*
Y7809802D01*
X14504305D01*
Y7570638D01*
X14426511Y7492843D01*
X14416670Y7498523D01*
X14392509Y7504998D01*
X14367496D01*
X14343333Y7498523D01*
X14321671Y7486017D01*
X14303983Y7468329D01*
X14291476Y7446666D01*
X14285002Y7422505D01*
Y7397491D01*
X14291476Y7373329D01*
X14303983Y7351667D01*
X14321671Y7333979D01*
X14343333Y7321472D01*
X14367496Y7314998D01*
X14392509D01*
X14416670Y7321472D01*
X14438333Y7333979D01*
X14456020Y7351667D01*
X14468527Y7373329D01*
X14475002Y7397491D01*
Y7422505D01*
X14468527Y7446666D01*
X14462846Y7456506D01*
X14529999Y7523659D01*
X14571831Y7481827D01*
X14580167Y7476257D01*
X14589999Y7474302D01*
X14909802D01*
Y7437295D01*
X15070203D01*
Y7474302D01*
X15231860D01*
X15247301Y7458862D01*
Y7439799D01*
X15247301Y7439798D01*
X15244656Y7428193D01*
X15201254D01*
X15191422Y7426238D01*
X15183086Y7420668D01*
X15108107Y7345689D01*
X15070203D01*
Y7382695D01*
X14909802D01*
Y7345689D01*
X14589995D01*
X14580164Y7343733D01*
X14571828Y7338164D01*
X14440656Y7206992D01*
X13853009D01*
X13848149Y7218725D01*
X13854521Y7225097D01*
X13867686Y7247900D01*
X13874501Y7273333D01*
Y7299663D01*
X13867686Y7325096D01*
X13854521Y7347899D01*
X13835902Y7366518D01*
X13813100Y7379683D01*
X13787666Y7386498D01*
X13761336D01*
X13735902Y7379683D01*
X13713100Y7366518D01*
X13694482Y7347899D01*
X13681316Y7325096D01*
X13674501Y7299663D01*
Y7273333D01*
X13681316Y7247900D01*
X13694482Y7225097D01*
X13700853Y7218725D01*
X13695993Y7206992D01*
X13389345D01*
X12783670Y7812666D01*
X12775335Y7818236D01*
X12765502Y7820192D01*
X12347144D01*
X12343686Y7833096D01*
X12330521Y7855899D01*
X12311902Y7874518D01*
X12289100Y7887683D01*
X12263667Y7894498D01*
X12237336D01*
X12211903Y7887683D01*
X12189100Y7874518D01*
X12170482Y7855899D01*
X12157316Y7833096D01*
X12150501Y7807663D01*
Y7781333D01*
X12157316Y7755900D01*
X12170482Y7733097D01*
X12189100Y7714478D01*
X12211903Y7701313D01*
X12237336Y7694498D01*
X12263667D01*
X12289100Y7701313D01*
X12311902Y7714478D01*
X12330521Y7733097D01*
X12343686Y7755900D01*
X12347144Y7768804D01*
X12754859D01*
X13360535Y7163130D01*
X13368869Y7157560D01*
X13378702Y7155604D01*
X13472675D01*
X13477534Y7143871D01*
X13431831Y7098168D01*
X13426262Y7089833D01*
X13424306Y7080000D01*
Y7000643D01*
X13227855Y6804192D01*
X12347144D01*
X12343686Y6817096D01*
X12330521Y6839899D01*
X12311902Y6858518D01*
X12289100Y6871683D01*
X12263667Y6878498D01*
X12237336D01*
X12211903Y6871683D01*
X12189100Y6858518D01*
X12170482Y6839899D01*
X12157316Y6817096D01*
X12150501Y6791663D01*
Y6765333D01*
X12157316Y6739900D01*
X12170482Y6717097D01*
X12189100Y6698478D01*
X12211903Y6685313D01*
X12237336Y6678498D01*
X12263667D01*
X12289100Y6685313D01*
X12311902Y6698478D01*
X12330521Y6717097D01*
X12343686Y6739900D01*
X12347144Y6752804D01*
X13238498D01*
X13248331Y6754760D01*
X13256667Y6760330D01*
X13468169Y6971832D01*
X13473738Y6980167D01*
X13475694Y6990000D01*
Y7069357D01*
X13518341Y7112004D01*
X13695993D01*
X13700853Y7100271D01*
X13694482Y7093899D01*
X13681316Y7071096D01*
X13674501Y7045663D01*
Y7019333D01*
X13681316Y6993900D01*
X13694482Y6971097D01*
X13707184Y6958394D01*
X13701924Y6945694D01*
X13610001D01*
X13600168Y6943738D01*
X13591833Y6938169D01*
X13203854Y6550192D01*
X12347144D01*
X12343686Y6563096D01*
X12330521Y6585899D01*
X12311902Y6604518D01*
X12289100Y6617683D01*
X12263667Y6624498D01*
X12237336D01*
X12211903Y6617683D01*
X12189100Y6604518D01*
X12170482Y6585899D01*
X12157316Y6563096D01*
X12150501Y6537663D01*
Y6511333D01*
X12157316Y6485900D01*
X12170482Y6463097D01*
X12189100Y6444478D01*
X12211903Y6431313D01*
X12237336Y6424498D01*
X12263667D01*
X12289100Y6431313D01*
X12311902Y6444478D01*
X12330521Y6463097D01*
X12343686Y6485900D01*
X12347144Y6498804D01*
X13214497D01*
X13224332Y6500760D01*
X13232666Y6506330D01*
X13414807Y6688471D01*
X13427499Y6683203D01*
Y6671546D01*
X13433971Y6655926D01*
X13445926Y6643970D01*
X13461546Y6637500D01*
X13476164D01*
X13501833Y6611832D01*
X13510168Y6606262D01*
X13520000Y6604306D01*
X13696295D01*
X13701155Y6592573D01*
X13694482Y6585899D01*
X13681316Y6563096D01*
X13674501Y6537663D01*
Y6511333D01*
X13681316Y6485900D01*
X13694482Y6463097D01*
X13713100Y6444478D01*
X13735902Y6431313D01*
X13761336Y6424498D01*
X13787666D01*
X13813100Y6431313D01*
X13824670Y6437993D01*
X13904306Y6358357D01*
Y6210643D01*
X13859357Y6165694D01*
X13824748D01*
X13822678Y6168178D01*
X13825591Y6184524D01*
X13835902Y6190478D01*
X13854521Y6209097D01*
X13867686Y6231900D01*
X13874501Y6257333D01*
Y6283663D01*
X13867686Y6309096D01*
X13854521Y6331899D01*
X13835902Y6350518D01*
X13813100Y6363683D01*
X13787666Y6370498D01*
X13761336D01*
X13735902Y6363683D01*
X13713100Y6350518D01*
X13694482Y6331899D01*
X13681316Y6309096D01*
X13677858Y6296192D01*
X13130498D01*
X13120665Y6294236D01*
X13112331Y6288666D01*
X13036163Y6212500D01*
X13021545D01*
X13005927Y6206030D01*
X12993970Y6194074D01*
X12987500Y6178454D01*
Y6161546D01*
X12993970Y6145926D01*
X13005927Y6133970D01*
X13021545Y6127500D01*
X13038454D01*
X13054074Y6133970D01*
X13066029Y6145926D01*
X13072501Y6161546D01*
Y6176164D01*
X13141141Y6244804D01*
X13677858D01*
X13681316Y6231900D01*
X13694482Y6209097D01*
X13713100Y6190478D01*
X13723412Y6184524D01*
X13726324Y6168178D01*
X13724254Y6165694D01*
X13630000D01*
X13620168Y6163738D01*
X13611832Y6158168D01*
X13551833Y6098168D01*
X13546262Y6089833D01*
X13544305Y6080000D01*
Y4234410D01*
X13533971Y4224074D01*
X13527499Y4208454D01*
X13515694Y4210610D01*
Y4880000D01*
X13513737Y4889833D01*
X13508168Y4898168D01*
X12495694Y5910643D01*
Y6070000D01*
X12493738Y6079833D01*
X12488168Y6088168D01*
X12343845Y6232491D01*
X12350501Y6257333D01*
Y6283663D01*
X12343686Y6309096D01*
X12330521Y6331899D01*
X12311902Y6350518D01*
X12289100Y6363683D01*
X12263667Y6370498D01*
X12237336D01*
X12211903Y6363683D01*
X12189100Y6350518D01*
X12170482Y6331899D01*
X12157316Y6309096D01*
X12150501Y6283663D01*
Y6257333D01*
X12157316Y6231900D01*
X12170482Y6209097D01*
X12189100Y6190478D01*
X12211903Y6177313D01*
X12237336Y6170498D01*
X12263667D01*
X12289100Y6177313D01*
X12311902Y6190478D01*
X12312544Y6191120D01*
X12444306Y6059357D01*
Y5900000D01*
X12446262Y5890168D01*
X12451832Y5881832D01*
X13464307Y4869358D01*
Y4150000D01*
X13466261Y4140167D01*
X13471832Y4131832D01*
X13791832Y3811832D01*
X13796977Y3808394D01*
X13793156Y3795694D01*
X13780643D01*
X13445694Y4130642D01*
Y4846999D01*
X13443738Y4856832D01*
X13438168Y4865167D01*
X12337006Y5966329D01*
X12343686Y5977900D01*
X12350501Y6003333D01*
Y6029663D01*
X12343686Y6055096D01*
X12330521Y6077899D01*
X12311902Y6096518D01*
X12289100Y6109683D01*
X12263667Y6116498D01*
X12237336D01*
X12211903Y6109683D01*
X12189100Y6096518D01*
X12170482Y6077899D01*
X12157316Y6055096D01*
X12150501Y6029663D01*
Y6003333D01*
X12157316Y5977900D01*
X12170482Y5955097D01*
X12189100Y5936478D01*
X12211903Y5923313D01*
X12237336Y5916498D01*
X12263667D01*
X12289100Y5923313D01*
X12300670Y5929993D01*
X13394305Y4836357D01*
Y4520610D01*
X13382500Y4518454D01*
X13376030Y4534074D01*
X13365694Y4544410D01*
Y4637064D01*
X13368169Y4639538D01*
X13373738Y4647874D01*
X13375694Y4657706D01*
Y4790000D01*
X13373738Y4799833D01*
X13368169Y4808168D01*
X13157671Y5018666D01*
X13149335Y5024236D01*
X13139502Y5026192D01*
X12347144D01*
X12343686Y5039096D01*
X12330521Y5061899D01*
X12311902Y5080518D01*
X12289100Y5093683D01*
X12263667Y5100498D01*
X12237336D01*
X12211903Y5093683D01*
X12189100Y5080518D01*
X12170482Y5061899D01*
X12157316Y5039096D01*
X12150501Y5013663D01*
Y4987333D01*
X12157316Y4961900D01*
X12170482Y4939097D01*
X12189100Y4920478D01*
X12211903Y4907313D01*
X12237336Y4900498D01*
X12263667D01*
X12289100Y4907313D01*
X12311902Y4920478D01*
X12330521Y4939097D01*
X12343686Y4961900D01*
X12347144Y4974804D01*
X13128859D01*
X13317772Y4785892D01*
X13317540Y4785125D01*
X13303177Y4781527D01*
X13298674Y4786030D01*
X13283054Y4792500D01*
X13266145D01*
X13250526Y4786030D01*
X13238570Y4774074D01*
X13232100Y4758454D01*
Y4741546D01*
X13233011Y4739347D01*
X13073196Y4579533D01*
X12872134D01*
X12862302Y4577577D01*
X12853966Y4572007D01*
X12661632Y4379674D01*
X12656062Y4371338D01*
X12654106Y4361506D01*
Y4342740D01*
X12632733Y4321367D01*
X12621000Y4326227D01*
Y4332508D01*
X12614525Y4356670D01*
X12602018Y4378333D01*
X12584331Y4396020D01*
X12562668Y4408527D01*
X12538507Y4415001D01*
X12513493D01*
X12489331Y4408527D01*
X12467669Y4396020D01*
X12449981Y4378333D01*
X12437474Y4356670D01*
X12431000Y4332508D01*
Y4307495D01*
X12437474Y4283333D01*
X12449981Y4261670D01*
X12467669Y4243983D01*
X12489331Y4231476D01*
X12513493Y4225002D01*
X12519774D01*
X12524635Y4213268D01*
X12432060Y4120694D01*
X11947225D01*
X11937392Y4118738D01*
X11929057Y4113168D01*
X11409857Y3593969D01*
X11396354D01*
X11396185Y3594598D01*
X11383020Y3617401D01*
X11364401Y3636020D01*
X11341598Y3649185D01*
X11316165Y3656000D01*
X11289835D01*
X11264402Y3649185D01*
X11241599Y3636020D01*
X11222980Y3617401D01*
X11209815Y3594598D01*
X11203000Y3569165D01*
Y3542835D01*
X11209815Y3517402D01*
X11222980Y3494599D01*
X11241599Y3475980D01*
X11264402Y3462815D01*
X11289835Y3456000D01*
X11316165D01*
X11341598Y3462815D01*
X11364401Y3475980D01*
X11383020Y3494599D01*
X11396185Y3517402D01*
X11402932Y3542581D01*
X11420500D01*
X11430332Y3544537D01*
X11438668Y3550107D01*
X11445267Y3556706D01*
X11457000Y3551846D01*
Y3542835D01*
X11463815Y3517402D01*
X11476980Y3494599D01*
X11495599Y3475980D01*
X11518402Y3462815D01*
X11543835Y3456000D01*
X11570165D01*
X11595598Y3462815D01*
X11618401Y3475980D01*
X11637020Y3494599D01*
X11650185Y3517402D01*
X11656932Y3542581D01*
X11674500D01*
X11684332Y3544537D01*
X11692668Y3550107D01*
X11699267Y3556706D01*
X11711000Y3551846D01*
Y3542835D01*
X11717815Y3517402D01*
X11730980Y3494599D01*
X11749599Y3475980D01*
X11772402Y3462815D01*
X11797835Y3456000D01*
X11824165D01*
X11849598Y3462815D01*
X11872401Y3475980D01*
X11891020Y3494599D01*
X11904185Y3517402D01*
X11911000Y3542835D01*
Y3569165D01*
X11904185Y3594598D01*
X11891020Y3617401D01*
X11872401Y3636020D01*
X11849598Y3649185D01*
X11824165Y3656000D01*
X11815154D01*
X11810294Y3667733D01*
X12176867Y4034306D01*
X12720000D01*
X12729833Y4036262D01*
X12738168Y4041832D01*
X12926300Y4229964D01*
X12939000Y4227356D01*
Y4225002D01*
X13128999D01*
Y4415001D01*
X12939000D01*
Y4283195D01*
X12917500D01*
X12907669Y4281239D01*
X12899333Y4275670D01*
X12709357Y4085694D01*
X12486326D01*
X12481466Y4097427D01*
X12677400Y4293362D01*
X12689668Y4290075D01*
X12691474Y4283333D01*
X12703981Y4261670D01*
X12721669Y4243983D01*
X12743331Y4231476D01*
X12767493Y4225002D01*
X12792507D01*
X12816669Y4231476D01*
X12838332Y4243983D01*
X12856018Y4261670D01*
X12868526Y4283333D01*
X12875000Y4307495D01*
Y4332508D01*
X12868526Y4356670D01*
X12856018Y4378333D01*
X12838332Y4396020D01*
X12816669Y4408527D01*
X12792507Y4415001D01*
X12786225D01*
X12781365Y4426735D01*
X12882776Y4528146D01*
X13083839D01*
X13093672Y4530101D01*
X13102008Y4535671D01*
X13273837Y4707500D01*
X13283054D01*
X13298674Y4713970D01*
X13310629Y4725926D01*
X13311606Y4728283D01*
X13324306Y4725757D01*
Y4668349D01*
X13321832Y4665874D01*
X13316261Y4657539D01*
X13314307Y4647706D01*
Y4544410D01*
X13303970Y4534074D01*
X13297501Y4518454D01*
Y4501546D01*
X13303970Y4485926D01*
X13315926Y4473970D01*
X13331546Y4467500D01*
X13348454D01*
X13364075Y4473970D01*
X13376030Y4485926D01*
X13382500Y4501546D01*
X13394305Y4499390D01*
Y4120000D01*
X13396262Y4110167D01*
X13401833Y4101832D01*
X13751833Y3751832D01*
X13760167Y3746262D01*
X13770000Y3744306D01*
X14324519D01*
X14624492Y3444334D01*
X14632828Y3438765D01*
X14642661Y3436809D01*
X15229085D01*
X15239999Y3432499D01*
Y3407499D01*
X15339999D01*
Y3387499D01*
X15239999D01*
Y3362499D01*
X15229083Y3358194D01*
X15090002D01*
X15080170Y3356238D01*
X15071834Y3350668D01*
X15033867Y3312702D01*
X14949799D01*
Y3275695D01*
X14700002D01*
X14690169Y3273739D01*
X14681833Y3268170D01*
X14616164Y3202500D01*
X14601546D01*
X14585925Y3196030D01*
X14573970Y3184074D01*
X14567500Y3168454D01*
Y3151546D01*
X14573970Y3135926D01*
X14585925Y3123970D01*
X14601546Y3117500D01*
X14618454D01*
X14634074Y3123970D01*
X14646030Y3135926D01*
X14652499Y3151546D01*
Y3166164D01*
X14710645Y3224308D01*
X14949799D01*
Y3187302D01*
X15065018D01*
X15067499Y3186808D01*
X15094354D01*
X15096832Y3184330D01*
X15105168Y3178760D01*
X15115001Y3176804D01*
X15247301D01*
Y3174798D01*
X15429999D01*
Y3149998D01*
X15609999D01*
Y3559998D01*
Y3969998D01*
X15429999D01*
Y3945198D01*
X15308127D01*
X15303267Y3956931D01*
X15430331Y4083996D01*
X15486690D01*
X15489171Y4084489D01*
X15615346D01*
Y4077189D01*
X15690578D01*
Y4169999D01*
Y4262809D01*
X15617847D01*
Y4317500D01*
X15618454D01*
X15634074Y4323970D01*
X15646030Y4335926D01*
X15652499Y4351546D01*
Y4368454D01*
X15646030Y4384074D01*
X15634074Y4396030D01*
X15618454Y4402500D01*
X15601546D01*
X15585925Y4396030D01*
X15573970Y4384074D01*
X15567500Y4368454D01*
Y4351546D01*
X15569122Y4347631D01*
X15568414Y4346572D01*
X15566458Y4336740D01*
Y4255509D01*
X15461488D01*
Y4135383D01*
X15419688D01*
X15409856Y4133427D01*
X15401521Y4127857D01*
X15251250Y3977585D01*
X15188164Y4040670D01*
X15179828Y4046240D01*
X15169997Y4048196D01*
X15090199D01*
Y4122702D01*
X14929800D01*
Y3997302D01*
X15045018D01*
X15047501Y3996808D01*
X15159354D01*
X15247301Y3908861D01*
Y3889798D01*
X15247301Y3889798D01*
X15244656Y3878193D01*
X15194394D01*
X15174417Y3898171D01*
X15166081Y3903740D01*
X15156248Y3905696D01*
X15090199D01*
Y3942702D01*
X14929800D01*
Y3905696D01*
X14900639D01*
X14865694Y3940643D01*
Y4581667D01*
X14888568Y4604541D01*
X14894138Y4612877D01*
X14896094Y4622709D01*
Y5549600D01*
X14895694Y5551611D01*
Y5910000D01*
X14893738Y5919832D01*
X14888168Y5928168D01*
X14168169Y6648168D01*
X14159831Y6653738D01*
X14150000Y6655694D01*
X13530643D01*
X13512500Y6673837D01*
Y6688454D01*
X13506030Y6704074D01*
X13494073Y6716030D01*
X13478455Y6722500D01*
X13466797D01*
X13461530Y6735193D01*
X13620644Y6894307D01*
X14729999D01*
Y6830000D01*
X14799998D01*
Y6820000D01*
X14809999D01*
Y6732501D01*
X14855701D01*
X14860962Y6719801D01*
X14796855Y6655694D01*
X14440643D01*
X14299670Y6796666D01*
X14291335Y6802236D01*
X14281502Y6804192D01*
X13871144D01*
X13867686Y6817096D01*
X13854521Y6839899D01*
X13835902Y6858518D01*
X13813100Y6871683D01*
X13787666Y6878498D01*
X13761336D01*
X13735902Y6871683D01*
X13713100Y6858518D01*
X13694482Y6839899D01*
X13681316Y6817096D01*
X13674501Y6791663D01*
Y6765333D01*
X13681316Y6739900D01*
X13694482Y6717097D01*
X13713100Y6698478D01*
X13735902Y6685313D01*
X13761336Y6678498D01*
X13787666D01*
X13813100Y6685313D01*
X13835902Y6698478D01*
X13854521Y6717097D01*
X13867686Y6739900D01*
X13871144Y6752804D01*
X14270859D01*
X14411832Y6611832D01*
X14420168Y6606262D01*
X14430000Y6604306D01*
X14807497D01*
X14817329Y6606262D01*
X14825665Y6611832D01*
X14953635Y6739801D01*
X15041365D01*
X15046835Y6734330D01*
X15055171Y6728761D01*
X15065002Y6726805D01*
X15247301D01*
Y6724799D01*
X15429999D01*
Y6699999D01*
X15609999D01*
Y7109998D01*
Y7519998D01*
X15429999D01*
Y7495198D01*
X15296440D01*
X15284445Y7499995D01*
Y7551107D01*
X15507828Y7774490D01*
X15576460D01*
Y7747845D01*
X15578416Y7738013D01*
X15583986Y7729677D01*
X15627499Y7686163D01*
Y7671546D01*
X15633971Y7655926D01*
X15645926Y7643970D01*
X15661546Y7637500D01*
X15678455D01*
X15694073Y7643970D01*
X15706030Y7655926D01*
X15712500Y7671546D01*
Y7688454D01*
X15706030Y7704074D01*
X15694073Y7716030D01*
X15678455Y7722500D01*
X15663837D01*
X15631847Y7754490D01*
X15637106Y7767190D01*
X15700581D01*
Y7860000D01*
Y7952809D01*
X15625349D01*
Y7945509D01*
X15471490D01*
Y7810826D01*
X15240582Y7579918D01*
X15235013Y7571582D01*
X15233058Y7561750D01*
Y7525689D01*
X15070203D01*
Y7562695D01*
X14909802D01*
Y7525689D01*
X14600641D01*
X14555693Y7570638D01*
Y7809802D01*
X14592699D01*
Y7970202D01*
D02*
G37*
G36*
X17495001Y7965002D02*
X17305000D01*
Y7775002D01*
X17336073D01*
Y7497184D01*
X17318391Y7479502D01*
X17301535D01*
X17271651Y7471495D01*
X17244856Y7456025D01*
X17222980Y7434149D01*
X17218234Y7425930D01*
X16761649D01*
X16737183Y7421064D01*
X16716444Y7407206D01*
X16716443Y7407205D01*
X16635078Y7325840D01*
X16623346Y7330700D01*
Y7405203D01*
X16619466Y7424712D01*
X16608414Y7441251D01*
X16592812Y7451676D01*
Y7491159D01*
X16500003D01*
X16407193D01*
Y7456183D01*
X16244060D01*
X16224551Y7452302D01*
X16208012Y7441251D01*
X16189581Y7422821D01*
X16178531Y7406282D01*
X16177321Y7400201D01*
X16094669D01*
X16089807Y7411934D01*
X16133171Y7455297D01*
X16155991D01*
X16165823Y7457253D01*
X16174158Y7462823D01*
X16251135Y7539800D01*
X16335199D01*
Y7700200D01*
X16214799D01*
Y7576136D01*
X16196935Y7558272D01*
X16185202Y7563133D01*
Y7700200D01*
X16064803D01*
Y7587486D01*
X16064307Y7584999D01*
Y7520645D01*
X16011732Y7468067D01*
X15999998Y7472927D01*
Y7502498D01*
X15909999D01*
Y7467498D01*
X15889999D01*
Y7502498D01*
X15809999D01*
Y7519998D01*
X15629999D01*
Y7109998D01*
Y6699999D01*
X15769569D01*
Y6694657D01*
X15771478Y6685051D01*
X15773444Y6675161D01*
X15773485Y6675062D01*
X15773489Y6675056D01*
X15773489Y6675049D01*
X15778896Y6666959D01*
X15784531Y6658520D01*
X15784537Y6658516D01*
X15784541Y6658510D01*
X15792755Y6653022D01*
X15801067Y6647465D01*
X15801074Y6647463D01*
X15801080Y6647459D01*
X15810872Y6645511D01*
X15820575Y6643579D01*
X15820583Y6643580D01*
X15820589Y6643579D01*
X15947868D01*
X15976004Y6615444D01*
Y6525362D01*
X15979884Y6505853D01*
X15990935Y6489314D01*
X15996243Y6484005D01*
X16012782Y6472954D01*
X16027188Y6470088D01*
Y6439421D01*
X16119998D01*
Y6429421D01*
X16129997D01*
Y6344189D01*
X16183041D01*
Y6266048D01*
X15914879Y5997886D01*
X15771399D01*
X15751891Y5994006D01*
X15749487Y5992400D01*
X15745598D01*
Y5989801D01*
X15735352Y5982955D01*
X15724300Y5966416D01*
X15720419Y5946907D01*
Y4700000D01*
X15724300Y4680491D01*
X15735352Y4663952D01*
X15751891Y4652901D01*
X15771399Y4649020D01*
X15888884D01*
X16173627Y4364278D01*
Y4132902D01*
X16163203Y4120202D01*
X16054799D01*
Y4007488D01*
X16054305Y4005001D01*
Y3967180D01*
X16011732Y3924607D01*
X15999998Y3929468D01*
Y3952498D01*
X15909999D01*
Y3917498D01*
X15889999D01*
Y3952498D01*
X15809999D01*
Y3969998D01*
X15629999D01*
Y3559998D01*
Y3149998D01*
X15795229D01*
X15800813Y3146266D01*
X15808881Y3140785D01*
X15809077Y3140745D01*
X15809244Y3140633D01*
X15818813Y3138730D01*
X15828358Y3136754D01*
X15828555Y3136792D01*
X15828754Y3136752D01*
X15945580D01*
X16112556Y2969776D01*
X16129095Y2958725D01*
X16148604Y2954844D01*
X16247192D01*
Y2919423D01*
X16340002D01*
X16432812D01*
Y2954844D01*
X16555533D01*
X16575043Y2958725D01*
X16591582Y2969776D01*
X16628227Y3006422D01*
X16639278Y3022961D01*
X16643159Y3042470D01*
Y3199888D01*
X16639278Y3219397D01*
X16636623Y3223370D01*
X16643411Y3236070D01*
X17202612D01*
X17208202Y3222581D01*
X17219221Y3208220D01*
X17233582Y3197200D01*
X17250307Y3190273D01*
X17268254Y3187910D01*
X17336073D01*
Y2885002D01*
X17305000D01*
Y2695002D01*
X17495001D01*
Y2885002D01*
X17463930D01*
Y3223006D01*
X17459064Y3247471D01*
X17445206Y3268210D01*
X17435097Y3278318D01*
Y3354753D01*
X17432735Y3372700D01*
X17425807Y3389425D01*
X17414787Y3403786D01*
X17400426Y3414806D01*
X17383701Y3421734D01*
X17365755Y3424096D01*
X17268254D01*
X17250307Y3421734D01*
X17233582Y3414806D01*
X17219221Y3403786D01*
X17208202Y3389425D01*
X17201273Y3372700D01*
X17200117Y3363927D01*
X15999998D01*
Y3387499D01*
X15899998D01*
Y3407499D01*
X15999998D01*
Y3427503D01*
Y3452503D01*
X15899998D01*
Y3472503D01*
X15999998D01*
Y3496070D01*
X17071001D01*
X17095464Y3500936D01*
X17116203Y3514794D01*
X17292368Y3690958D01*
X17301535Y3688502D01*
X17332474D01*
X17362357Y3696509D01*
X17389149Y3711979D01*
X17411028Y3733855D01*
X17426495Y3760649D01*
X17434505Y3790533D01*
Y3821471D01*
X17426495Y3851355D01*
X17411028Y3878149D01*
X17389149Y3900025D01*
X17380933Y3904770D01*
Y4210524D01*
X17395409Y4225002D01*
X17495001D01*
Y4415001D01*
X17305000D01*
Y4315410D01*
X17271800Y4282209D01*
X17257942Y4261469D01*
X17253075Y4237004D01*
Y3904770D01*
X17244856Y3900025D01*
X17222980Y3878149D01*
X17207510Y3851355D01*
X17199504Y3821471D01*
Y3790533D01*
X17201961Y3781367D01*
X17044521Y3623926D01*
X16607956D01*
X16607233Y3624297D01*
X16598518Y3636626D01*
X16599036Y3639219D01*
X16600980Y3648904D01*
X16609581Y3657190D01*
X16640579D01*
Y3750000D01*
Y3842810D01*
X16600980D01*
Y4379986D01*
X16600983Y4380003D01*
Y4780004D01*
Y5020075D01*
X17170650D01*
X17172046Y5009474D01*
X17181996Y4985452D01*
X17197824Y4964824D01*
X17218452Y4948995D01*
X17242474Y4939045D01*
X17268254Y4935651D01*
X17365755D01*
X17391533Y4939045D01*
X17415555Y4948995D01*
X17436183Y4964824D01*
X17452013Y4985452D01*
X17461961Y5009474D01*
X17465356Y5035253D01*
Y5132753D01*
X17461961Y5158532D01*
X17452013Y5182554D01*
X17436183Y5203182D01*
X17415555Y5219011D01*
X17391533Y5228961D01*
X17365755Y5232355D01*
X17268254D01*
X17242474Y5228961D01*
X17218452Y5219011D01*
X17197824Y5203182D01*
X17181996Y5182554D01*
X17172046Y5158532D01*
X17170650Y5147931D01*
X16600983D01*
X16600983Y6690000D01*
X16597102Y6709509D01*
X16586052Y6726048D01*
X16538728Y6773371D01*
X16543990Y6786071D01*
X17205098D01*
X17208202Y6778581D01*
X17219221Y6764220D01*
X17233582Y6753200D01*
X17250307Y6746273D01*
X17268254Y6743910D01*
X17336073D01*
Y6445000D01*
X17305000D01*
Y6255000D01*
X17495001D01*
Y6445000D01*
X17463930D01*
Y6779006D01*
X17459064Y6803471D01*
X17445206Y6824210D01*
X17435097Y6834318D01*
Y6910753D01*
X17432735Y6928700D01*
X17425807Y6945425D01*
X17414787Y6959786D01*
X17400426Y6970806D01*
X17383701Y6977734D01*
X17365755Y6980096D01*
X17268254D01*
X17250307Y6977734D01*
X17233582Y6970806D01*
X17219221Y6959786D01*
X17208202Y6945425D01*
X17201273Y6928700D01*
X17199329Y6913927D01*
X15999998D01*
Y6937499D01*
X15899998D01*
Y6957499D01*
X15999998D01*
Y6977498D01*
Y7002498D01*
X15899998D01*
Y7022498D01*
X15999998D01*
Y7046070D01*
X16509650D01*
X16534116Y7050937D01*
X16554854Y7064794D01*
X16788129Y7298074D01*
X17218234D01*
X17222980Y7289855D01*
X17244856Y7267979D01*
X17271651Y7252509D01*
X17301535Y7244502D01*
X17332474D01*
X17362357Y7252509D01*
X17389149Y7267979D01*
X17411028Y7289855D01*
X17426495Y7316649D01*
X17434505Y7346533D01*
Y7377471D01*
X17426614Y7406910D01*
X17445206Y7425500D01*
X17459064Y7446239D01*
X17463930Y7470704D01*
Y7775002D01*
X17495001D01*
Y7965002D01*
D02*
G37*
G36*
X14221002Y7504998D02*
X14031001D01*
Y7314998D01*
X14221002D01*
Y7504998D01*
D02*
G37*
G36*
X12264378Y7391898D02*
X12263201D01*
Y7299198D01*
X12355901D01*
Y7300374D01*
X12348718Y7327181D01*
X12334842Y7351215D01*
X12315218Y7370839D01*
X12291184Y7384715D01*
X12264378Y7391898D01*
D02*
G37*
G36*
X12237801D02*
X12236625D01*
X12209818Y7384715D01*
X12185784Y7370839D01*
X12166160Y7351215D01*
X12152284Y7327181D01*
X12145101Y7300374D01*
Y7299198D01*
X12237801D01*
Y7391898D01*
D02*
G37*
G36*
X12355901Y7273798D02*
X12263201D01*
Y7181098D01*
X12264378D01*
X12291184Y7188281D01*
X12315218Y7202157D01*
X12334842Y7221781D01*
X12348718Y7245815D01*
X12355901Y7272622D01*
Y7273798D01*
D02*
G37*
G36*
X12237801D02*
X12145101D01*
Y7272622D01*
X12152284Y7245815D01*
X12166160Y7221781D01*
X12185784Y7202157D01*
X12209818Y7188281D01*
X12236625Y7181098D01*
X12237801D01*
Y7273798D01*
D02*
G37*
G36*
X12264378Y7137898D02*
X12263201D01*
Y7045198D01*
X12355901D01*
Y7046374D01*
X12348718Y7073181D01*
X12334842Y7097215D01*
X12315218Y7116839D01*
X12291184Y7130715D01*
X12264378Y7137898D01*
D02*
G37*
G36*
X12237801D02*
X12236625D01*
X12209818Y7130715D01*
X12185784Y7116839D01*
X12166160Y7097215D01*
X12152284Y7073181D01*
X12145101Y7046374D01*
Y7045198D01*
X12237801D01*
Y7137898D01*
D02*
G37*
G36*
X12355901Y7019798D02*
X12263201D01*
Y6927098D01*
X12264378D01*
X12291184Y6934281D01*
X12315218Y6948157D01*
X12334842Y6967781D01*
X12348718Y6991815D01*
X12355901Y7018622D01*
Y7019798D01*
D02*
G37*
G36*
X12237801D02*
X12145101D01*
Y7018622D01*
X12152284Y6991815D01*
X12166160Y6967781D01*
X12185784Y6948157D01*
X12209818Y6934281D01*
X12236625Y6927098D01*
X12237801D01*
Y7019798D01*
D02*
G37*
G36*
X14789999Y6810000D02*
X14729999D01*
Y6732501D01*
X14789999D01*
Y6810000D01*
D02*
G37*
G36*
X16109998Y6419421D02*
X16027188D01*
Y6344189D01*
X16109998D01*
Y6419421D01*
D02*
G37*
G36*
X11396028Y6602712D02*
X11363977D01*
X11332542Y6596460D01*
X11302931Y6584194D01*
X11276281Y6566387D01*
X11253618Y6543724D01*
X11235811Y6517074D01*
X11223545Y6487463D01*
X11217293Y6456028D01*
Y6423977D01*
X11223545Y6392542D01*
X11235811Y6362930D01*
X11253618Y6336281D01*
X11276281Y6313617D01*
X11302931Y6295811D01*
X11332542Y6283545D01*
X11363977Y6277293D01*
X11396028D01*
X11427463Y6283545D01*
X11457075Y6295811D01*
X11483724Y6313617D01*
X11506388Y6336281D01*
X11524194Y6362930D01*
X11536460Y6392542D01*
X11542713Y6423977D01*
Y6456028D01*
X11536460Y6487463D01*
X11524194Y6517074D01*
X11506388Y6543724D01*
X11483724Y6566387D01*
X11457075Y6584194D01*
X11427463Y6596460D01*
X11396028Y6602712D01*
D02*
G37*
G36*
X15491002Y5987000D02*
X15306001D01*
Y5852000D01*
X15491002D01*
Y5987000D01*
D02*
G37*
G36*
X15286002D02*
X15101003D01*
Y5852000D01*
X15286002D01*
Y5987000D01*
D02*
G37*
G36*
X15491002Y5832000D02*
X15306001D01*
Y5697000D01*
X15491002D01*
Y5832000D01*
D02*
G37*
G36*
X15286002D02*
X15101003D01*
Y5697000D01*
X15286002D01*
Y5832000D01*
D02*
G37*
G36*
X12263667Y5862498D02*
X12237336D01*
X12211903Y5855683D01*
X12189100Y5842518D01*
X12170482Y5823899D01*
X12157316Y5801096D01*
X12150501Y5775663D01*
Y5749333D01*
X12157316Y5723900D01*
X12170482Y5701097D01*
X12189100Y5682478D01*
X12211903Y5669313D01*
X12237336Y5662498D01*
X12263667D01*
X12289100Y5669313D01*
X12311902Y5682478D01*
X12330521Y5701097D01*
X12343686Y5723900D01*
X12350501Y5749333D01*
Y5775663D01*
X12343686Y5801096D01*
X12330521Y5823899D01*
X12311902Y5842518D01*
X12289100Y5855683D01*
X12263667Y5862498D01*
D02*
G37*
G36*
Y5608498D02*
X12237336D01*
X12211903Y5601683D01*
X12189100Y5588518D01*
X12170482Y5569899D01*
X12157316Y5547096D01*
X12150501Y5521663D01*
Y5495333D01*
X12157316Y5469900D01*
X12170482Y5447097D01*
X12189100Y5428478D01*
X12211903Y5415313D01*
X12237336Y5408498D01*
X12263667D01*
X12289100Y5415313D01*
X12311902Y5428478D01*
X12330521Y5447097D01*
X12343686Y5469900D01*
X12350501Y5495333D01*
Y5521663D01*
X12343686Y5547096D01*
X12330521Y5569899D01*
X12311902Y5588518D01*
X12289100Y5601683D01*
X12263667Y5608498D01*
D02*
G37*
G36*
Y5354498D02*
X12237336D01*
X12211903Y5347683D01*
X12189100Y5334518D01*
X12170482Y5315899D01*
X12157316Y5293096D01*
X12150501Y5267663D01*
Y5241333D01*
X12157316Y5215900D01*
X12170482Y5193097D01*
X12189100Y5174478D01*
X12211903Y5161313D01*
X12237336Y5154498D01*
X12263667D01*
X12289100Y5161313D01*
X12311902Y5174478D01*
X12330521Y5193097D01*
X12343686Y5215900D01*
X12350501Y5241333D01*
Y5267663D01*
X12343686Y5293096D01*
X12330521Y5315899D01*
X12311902Y5334518D01*
X12289100Y5347683D01*
X12263667Y5354498D01*
D02*
G37*
G36*
X15491002Y4971000D02*
X15306001D01*
Y4836000D01*
X15491002D01*
Y4971000D01*
D02*
G37*
G36*
X15286002D02*
X15101003D01*
Y4836000D01*
X15286002D01*
Y4971000D01*
D02*
G37*
G36*
X15491002Y4816000D02*
X15306001D01*
Y4681000D01*
X15491002D01*
Y4816000D01*
D02*
G37*
G36*
X15286002D02*
X15101003D01*
Y4681000D01*
X15286002D01*
Y4816000D01*
D02*
G37*
G36*
X15785809Y4262809D02*
X15710577D01*
Y4179999D01*
X15785809D01*
Y4262809D01*
D02*
G37*
G36*
X11422836Y4347499D02*
X11397164D01*
X11372366Y4340854D01*
X11350134Y4328019D01*
X11331981Y4309865D01*
X11319145Y4287633D01*
X11312500Y4262835D01*
Y4237163D01*
X11319145Y4212365D01*
X11331981Y4190133D01*
X11350134Y4171980D01*
X11372366Y4159144D01*
X11397164Y4152499D01*
X11422836D01*
X11447634Y4159144D01*
X11469866Y4171980D01*
X11488019Y4190133D01*
X11500855Y4212365D01*
X11507500Y4237163D01*
Y4262835D01*
X11500855Y4287633D01*
X11488019Y4309865D01*
X11469866Y4328019D01*
X11447634Y4340854D01*
X11422836Y4347499D01*
D02*
G37*
G36*
X11257498D02*
X11062498D01*
Y4152499D01*
X11257498D01*
Y4347499D01*
D02*
G37*
G36*
X15785809Y4159999D02*
X15710577D01*
Y4077189D01*
X15785809D01*
Y4159999D01*
D02*
G37*
G36*
X16735811Y3842810D02*
X16660579D01*
Y3760000D01*
X16735811D01*
Y3842810D01*
D02*
G37*
G36*
Y3740000D02*
X16660579D01*
Y3657190D01*
X16735811D01*
Y3740000D01*
D02*
G37*
G36*
X14237164Y3656000D02*
X14210835D01*
X14185402Y3649185D01*
X14162599Y3636020D01*
X14143980Y3617401D01*
X14130815Y3594598D01*
X14124001Y3569165D01*
Y3542835D01*
X14130815Y3517402D01*
X14143980Y3494599D01*
X14162599Y3475980D01*
X14185402Y3462815D01*
X14210835Y3456000D01*
X14237164D01*
X14262598Y3462815D01*
X14285400Y3475980D01*
X14304021Y3494599D01*
X14317184Y3517402D01*
X14324001Y3542835D01*
Y3569165D01*
X14317184Y3594598D01*
X14304021Y3617401D01*
X14285400Y3636020D01*
X14262598Y3649185D01*
X14237164Y3656000D01*
D02*
G37*
G36*
X13983165D02*
X13956834D01*
X13931403Y3649185D01*
X13908598Y3636020D01*
X13889980Y3617401D01*
X13876814Y3594598D01*
X13870000Y3569165D01*
Y3542835D01*
X13876814Y3517402D01*
X13889980Y3494599D01*
X13908598Y3475980D01*
X13931403Y3462815D01*
X13956834Y3456000D01*
X13983165D01*
X14008598Y3462815D01*
X14031401Y3475980D01*
X14050020Y3494599D01*
X14063185Y3517402D01*
X14070000Y3542835D01*
Y3569165D01*
X14063185Y3594598D01*
X14050020Y3617401D01*
X14031401Y3636020D01*
X14008598Y3649185D01*
X13983165Y3656000D01*
D02*
G37*
G36*
X13729166D02*
X13702835D01*
X13677402Y3649185D01*
X13654599Y3636020D01*
X13635980Y3617401D01*
X13622815Y3594598D01*
X13616000Y3569165D01*
Y3542835D01*
X13622815Y3517402D01*
X13635980Y3494599D01*
X13654599Y3475980D01*
X13677402Y3462815D01*
X13702835Y3456000D01*
X13729166D01*
X13754597Y3462815D01*
X13777402Y3475980D01*
X13796021Y3494599D01*
X13809184Y3517402D01*
X13816000Y3542835D01*
Y3569165D01*
X13809184Y3594598D01*
X13796021Y3617401D01*
X13777402Y3636020D01*
X13754597Y3649185D01*
X13729166Y3656000D01*
D02*
G37*
G36*
X13475165D02*
X13448836D01*
X13423402Y3649185D01*
X13400600Y3636020D01*
X13381979Y3617401D01*
X13368816Y3594598D01*
X13362000Y3569165D01*
Y3542835D01*
X13368816Y3517402D01*
X13381979Y3494599D01*
X13400600Y3475980D01*
X13423402Y3462815D01*
X13448836Y3456000D01*
X13475165D01*
X13500598Y3462815D01*
X13523401Y3475980D01*
X13542020Y3494599D01*
X13555185Y3517402D01*
X13562000Y3542835D01*
Y3569165D01*
X13555185Y3594598D01*
X13542020Y3617401D01*
X13523401Y3636020D01*
X13500598Y3649185D01*
X13475165Y3656000D01*
D02*
G37*
G36*
X13221165D02*
X13194835D01*
X13169402Y3649185D01*
X13146599Y3636020D01*
X13127980Y3617401D01*
X13114815Y3594598D01*
X13108000Y3569165D01*
Y3542835D01*
X13114815Y3517402D01*
X13127980Y3494599D01*
X13146599Y3475980D01*
X13169402Y3462815D01*
X13194835Y3456000D01*
X13221165D01*
X13246597Y3462815D01*
X13269402Y3475980D01*
X13288020Y3494599D01*
X13301186Y3517402D01*
X13308000Y3542835D01*
Y3569165D01*
X13301186Y3594598D01*
X13288020Y3617401D01*
X13269402Y3636020D01*
X13246597Y3649185D01*
X13221165Y3656000D01*
D02*
G37*
G36*
X12078165D02*
X12051835D01*
X12026402Y3649185D01*
X12003599Y3636020D01*
X11984980Y3617401D01*
X11971815Y3594598D01*
X11965000Y3569165D01*
Y3542835D01*
X11971815Y3517402D01*
X11984980Y3494599D01*
X12003599Y3475980D01*
X12026402Y3462815D01*
X12051835Y3456000D01*
X12078165D01*
X12103598Y3462815D01*
X12126401Y3475980D01*
X12145020Y3494599D01*
X12158185Y3517402D01*
X12165000Y3542835D01*
Y3569165D01*
X12158185Y3594598D01*
X12145020Y3617401D01*
X12126401Y3636020D01*
X12103598Y3649185D01*
X12078165Y3656000D01*
D02*
G37*
G36*
X14237164Y3402000D02*
X14210835D01*
X14185402Y3395185D01*
X14162599Y3382020D01*
X14143980Y3363401D01*
X14130815Y3340598D01*
X14127357Y3327694D01*
X14066643D01*
X14063185Y3340598D01*
X14050020Y3363401D01*
X14031401Y3382020D01*
X14008598Y3395185D01*
X13983165Y3402000D01*
X13956834D01*
X13931403Y3395185D01*
X13908598Y3382020D01*
X13889980Y3363401D01*
X13876814Y3340598D01*
X13873357Y3327694D01*
X13812643D01*
X13809184Y3340598D01*
X13796021Y3363401D01*
X13777402Y3382020D01*
X13754597Y3395185D01*
X13729166Y3402000D01*
X13702835D01*
X13677402Y3395185D01*
X13654599Y3382020D01*
X13635980Y3363401D01*
X13622815Y3340598D01*
X13616000Y3315165D01*
Y3288835D01*
X13622815Y3263402D01*
X13629495Y3251831D01*
X13546581Y3168917D01*
X13541011Y3160582D01*
X13539055Y3150749D01*
Y3125694D01*
X11769643D01*
X11643505Y3251831D01*
X11650185Y3263402D01*
X11657000Y3288835D01*
Y3315165D01*
X11650185Y3340598D01*
X11637020Y3363401D01*
X11618401Y3382020D01*
X11595598Y3395185D01*
X11570165Y3402000D01*
X11543835D01*
X11518402Y3395185D01*
X11495599Y3382020D01*
X11476980Y3363401D01*
X11463815Y3340598D01*
X11460357Y3327694D01*
X11403000D01*
Y3402000D01*
X11203000D01*
Y3202000D01*
X11403000D01*
Y3276306D01*
X11460357D01*
X11463815Y3263402D01*
X11476980Y3240599D01*
X11495599Y3221980D01*
X11518402Y3208815D01*
X11543835Y3202000D01*
X11570165D01*
X11595598Y3208815D01*
X11607169Y3215495D01*
X11740832Y3081832D01*
X11749168Y3076262D01*
X11759000Y3074306D01*
X13538855D01*
X13539055Y3074106D01*
Y2880748D01*
X13541011Y2870916D01*
X13546581Y2862580D01*
X13624298Y2784863D01*
Y2766693D01*
X13384700D01*
Y2821200D01*
X13259300D01*
Y2660800D01*
X13384700D01*
Y2715306D01*
X13624298D01*
Y2660800D01*
X13749698D01*
Y2821200D01*
X13660634D01*
X13590443Y2891391D01*
Y3084749D01*
Y3140106D01*
X13665831Y3215495D01*
X13677402Y3208815D01*
X13702835Y3202000D01*
X13729166D01*
X13754597Y3208815D01*
X13777402Y3221980D01*
X13796021Y3240599D01*
X13809184Y3263402D01*
X13812643Y3276306D01*
X13873357D01*
X13876814Y3263402D01*
X13889980Y3240599D01*
X13908598Y3221980D01*
X13931403Y3208815D01*
X13956834Y3202000D01*
X13983165D01*
X14008598Y3208815D01*
X14031401Y3221980D01*
X14050020Y3240599D01*
X14063185Y3263402D01*
X14066643Y3276306D01*
X14127357D01*
X14130815Y3263402D01*
X14143980Y3240599D01*
X14162599Y3221980D01*
X14185402Y3208815D01*
X14210835Y3202000D01*
X14237164D01*
X14262598Y3208815D01*
X14285400Y3221980D01*
X14304021Y3240599D01*
X14317184Y3263402D01*
X14324001Y3288835D01*
Y3315165D01*
X14317184Y3340598D01*
X14304021Y3363401D01*
X14285400Y3382020D01*
X14262598Y3395185D01*
X14237164Y3402000D01*
D02*
G37*
G36*
X13308000D02*
X13108000D01*
Y3202000D01*
X13308000D01*
Y3402000D01*
D02*
G37*
G36*
X12078165D02*
X12051835D01*
X12026402Y3395185D01*
X12003599Y3382020D01*
X11984980Y3363401D01*
X11971815Y3340598D01*
X11965000Y3315165D01*
Y3288835D01*
X11971815Y3263402D01*
X11984980Y3240599D01*
X12003599Y3221980D01*
X12026402Y3208815D01*
X12051835Y3202000D01*
X12078165D01*
X12103598Y3208815D01*
X12126401Y3221980D01*
X12145020Y3240599D01*
X12158185Y3263402D01*
X12165000Y3288835D01*
Y3315165D01*
X12158185Y3340598D01*
X12145020Y3363401D01*
X12126401Y3382020D01*
X12103598Y3395185D01*
X12078165Y3402000D01*
D02*
G37*
G36*
X11824165D02*
X11797835D01*
X11772402Y3395185D01*
X11749599Y3382020D01*
X11730980Y3363401D01*
X11717815Y3340598D01*
X11711000Y3315165D01*
Y3288835D01*
X11717815Y3263402D01*
X11730980Y3240599D01*
X11749599Y3221980D01*
X11772402Y3208815D01*
X11797835Y3202000D01*
X11824165D01*
X11849598Y3208815D01*
X11872401Y3221980D01*
X11891020Y3240599D01*
X11904185Y3263402D01*
X11911000Y3288835D01*
Y3315165D01*
X11904185Y3340598D01*
X11891020Y3363401D01*
X11872401Y3382020D01*
X11849598Y3395185D01*
X11824165Y3402000D01*
D02*
G37*
G36*
X15117499Y3140002D02*
X15039998D01*
Y3080002D01*
X15117499D01*
Y3140002D01*
D02*
G37*
G36*
X15019998D02*
X14942499D01*
Y3080002D01*
X15019998D01*
Y3140002D01*
D02*
G37*
G36*
X15117499Y3060002D02*
X15039998D01*
Y3000002D01*
X15117499D01*
Y3060002D01*
D02*
G37*
G36*
X15019998D02*
X14942499D01*
Y3000002D01*
X15019998D01*
Y3060002D01*
D02*
G37*
G36*
X16432812Y2899423D02*
X16350003D01*
Y2824191D01*
X16432812D01*
Y2899423D01*
D02*
G37*
G36*
X16330003D02*
X16247192D01*
Y2824191D01*
X16330003D01*
Y2899423D01*
D02*
G37*
G36*
X13937003Y2828500D02*
X13877002D01*
Y2751000D01*
X13937003D01*
Y2828500D01*
D02*
G37*
G36*
X13857002D02*
X13797003D01*
Y2751000D01*
X13857002D01*
Y2828500D01*
D02*
G37*
G36*
X13158453Y2922500D02*
X13141547D01*
X13125926Y2916030D01*
X13113969Y2904074D01*
X13107500Y2888454D01*
Y2871546D01*
X13113969Y2855926D01*
X13124306Y2845590D01*
Y2821200D01*
X13079300D01*
Y2660800D01*
X13204700D01*
Y2821200D01*
X13175694D01*
Y2845590D01*
X13186031Y2855926D01*
X13192500Y2871546D01*
Y2888454D01*
X13186031Y2904074D01*
X13174074Y2916030D01*
X13158453Y2922500D01*
D02*
G37*
G36*
X13937003Y2731000D02*
X13877002D01*
Y2653500D01*
X13937003D01*
Y2731000D01*
D02*
G37*
G36*
X13857002D02*
X13797003D01*
Y2653500D01*
X13857002D01*
Y2731000D01*
D02*
G37*
%LPD*%
G36*
X14909802Y7257296D02*
X14909802D01*
X14907152Y7245694D01*
X14714410D01*
X14704074Y7256030D01*
X14688454Y7262500D01*
X14671545D01*
X14655927Y7256030D01*
X14643970Y7244074D01*
X14637500Y7228454D01*
Y7211546D01*
X14643970Y7195926D01*
X14655927Y7183970D01*
X14671545Y7177500D01*
X14688454D01*
X14704074Y7183970D01*
X14714410Y7194306D01*
X14758009D01*
X14763113Y7181606D01*
X14757500Y7168054D01*
Y7151146D01*
X14763113Y7137594D01*
X14758009Y7124894D01*
X14555209D01*
X14544073Y7136030D01*
X14528455Y7142500D01*
X14511546D01*
X14495926Y7136030D01*
X14483971Y7124074D01*
X14477499Y7108454D01*
Y7091546D01*
X14483446Y7077194D01*
X14478809Y7064494D01*
X14455611D01*
X14444073Y7076030D01*
X14428455Y7082500D01*
X14411546D01*
X14395926Y7076030D01*
X14383971Y7064074D01*
X14377499Y7048454D01*
Y7031546D01*
X14383971Y7015926D01*
X14384068Y7015827D01*
X14379208Y7004094D01*
X14105305D01*
X13965527Y7143871D01*
X13970387Y7155604D01*
X14451299D01*
X14461131Y7157560D01*
X14469466Y7163130D01*
X14600638Y7294302D01*
X14909802D01*
Y7257296D01*
D02*
G37*
G36*
X14076494Y6960232D02*
X14079245Y6958394D01*
X14075392Y6945694D01*
X13847079D01*
X13841818Y6958394D01*
X13854521Y6971097D01*
X13867686Y6993900D01*
X13874501Y7019333D01*
Y7045663D01*
X13867686Y7071096D01*
X13854521Y7093899D01*
X13848149Y7100271D01*
X13853009Y7112004D01*
X13924722D01*
X14076494Y6960232D01*
D02*
G37*
G36*
X14844305Y5899357D02*
Y5550000D01*
X14844707Y5547989D01*
Y5301991D01*
X14832005Y5296886D01*
X14818454Y5302500D01*
X14801546D01*
X14785925Y5296030D01*
X14773970Y5284074D01*
X14773502Y5282943D01*
X13870407D01*
X13867686Y5293096D01*
X13854521Y5315899D01*
X13835902Y5334518D01*
X13813100Y5347683D01*
X13787666Y5354498D01*
X13761336D01*
X13735902Y5347683D01*
X13713100Y5334518D01*
X13694482Y5315899D01*
X13681316Y5293096D01*
X13674501Y5267663D01*
Y5241333D01*
X13681316Y5215900D01*
X13694482Y5193097D01*
X13713100Y5174478D01*
X13735902Y5161313D01*
X13761336Y5154498D01*
X13787666D01*
X13813100Y5161313D01*
X13835902Y5174478D01*
X13854521Y5193097D01*
X13867686Y5215900D01*
X13871881Y5231555D01*
X14778342D01*
X14785925Y5223970D01*
X14801546Y5217500D01*
X14818454D01*
X14832005Y5223114D01*
X14844707Y5218009D01*
Y4633352D01*
X14821832Y4610477D01*
X14816261Y4602142D01*
X14814307Y4592309D01*
Y3930000D01*
X14816261Y3920167D01*
X14821832Y3911832D01*
X14871831Y3861834D01*
X14880165Y3856265D01*
X14889998Y3854309D01*
X14929800D01*
Y3817303D01*
X14918802Y3813194D01*
X14863142D01*
X14572501Y4103836D01*
Y4118454D01*
X14566029Y4134074D01*
X14554074Y4146030D01*
X14538454Y4152500D01*
X14521545D01*
X14505927Y4146030D01*
X14493970Y4134074D01*
X14487500Y4118454D01*
Y4101546D01*
X14493970Y4085926D01*
X14505927Y4073970D01*
X14521545Y4067500D01*
X14536163D01*
X14572777Y4030886D01*
X14567517Y4018186D01*
X14565860D01*
X14550240Y4011716D01*
X14538284Y3999761D01*
X14532671Y3986208D01*
X14520081Y3980838D01*
X14358655Y4142263D01*
X14362500Y4151546D01*
Y4168454D01*
X14356030Y4184074D01*
X14344073Y4196030D01*
X14328455Y4202500D01*
X14311546D01*
X14295926Y4196030D01*
X14283971Y4184074D01*
X14277499Y4168454D01*
Y4156797D01*
X14264809Y4151529D01*
X14240242Y4176095D01*
X14242500Y4181546D01*
Y4198454D01*
X14236031Y4214074D01*
X14224074Y4226030D01*
X14208453Y4232500D01*
X14191547D01*
X14175926Y4226030D01*
X14163969Y4214074D01*
X14157500Y4198454D01*
Y4181546D01*
X14163969Y4165926D01*
X14175926Y4153970D01*
X14191547Y4147500D01*
X14196164D01*
X14482065Y3861599D01*
X14473969Y3851734D01*
X14470972Y3853738D01*
X14461137Y3855694D01*
X13820644D01*
X13515694Y4160643D01*
Y4189390D01*
X13527499Y4191546D01*
X13533971Y4175926D01*
X13545926Y4163970D01*
X13561546Y4157500D01*
X13578455D01*
X13594073Y4163970D01*
X13606030Y4175926D01*
X13612500Y4191546D01*
Y4208454D01*
X13606030Y4224074D01*
X13595694Y4234410D01*
Y6069357D01*
X13640643Y6114306D01*
X13718510D01*
X13721915Y6101606D01*
X13713100Y6096518D01*
X13694482Y6077899D01*
X13681316Y6055096D01*
X13674501Y6029663D01*
Y6003333D01*
X13681316Y5977900D01*
X13694482Y5955097D01*
X13713100Y5936478D01*
X13735902Y5923313D01*
X13761336Y5916498D01*
X13787666D01*
X13813100Y5923313D01*
X13835902Y5936478D01*
X13854521Y5955097D01*
X13867686Y5977900D01*
X13874501Y6003333D01*
Y6029663D01*
X13867686Y6055096D01*
X13854521Y6077899D01*
X13835902Y6096518D01*
X13827089Y6101606D01*
X13830492Y6114306D01*
X13870000D01*
X13879832Y6116262D01*
X13888168Y6121832D01*
X13948167Y6181832D01*
X13953738Y6190168D01*
X13955695Y6200000D01*
Y6368999D01*
X13953738Y6378832D01*
X13948167Y6387167D01*
X13861006Y6474329D01*
X13867686Y6485900D01*
X13874501Y6511333D01*
Y6537663D01*
X13867686Y6563096D01*
X13854521Y6585899D01*
X13847847Y6592573D01*
X13852707Y6604306D01*
X14139357D01*
X14844305Y5899357D01*
D02*
G37*
G36*
X12127462Y4057573D02*
X11663857Y3593969D01*
X11650354D01*
X11650185Y3594598D01*
X11637020Y3617401D01*
X11618401Y3636020D01*
X11595598Y3649185D01*
X11570165Y3656000D01*
X11561154D01*
X11556294Y3667733D01*
X11957867Y4069306D01*
X12122601D01*
X12127462Y4057573D01*
D02*
G37*
G36*
X14745470Y3509333D02*
X14753804Y3503763D01*
X14763637Y3501808D01*
X15230373D01*
X15234277Y3495002D01*
X15230373Y3488196D01*
X14653304D01*
X14353331Y3788168D01*
X14348186Y3791606D01*
X14352007Y3804306D01*
X14450494D01*
X14745470Y3509333D01*
D02*
G37*
%LPC*%
G36*
X13787666Y5862498D02*
X13761336D01*
X13735902Y5855683D01*
X13713100Y5842518D01*
X13694482Y5823899D01*
X13681316Y5801096D01*
X13674501Y5775663D01*
Y5749333D01*
X13681316Y5723900D01*
X13694482Y5701097D01*
X13713100Y5682478D01*
X13735902Y5669313D01*
X13761336Y5662498D01*
X13787666D01*
X13813100Y5669313D01*
X13835902Y5682478D01*
X13854521Y5701097D01*
X13867686Y5723900D01*
X13871144Y5736804D01*
X14479465D01*
X14483971Y5725926D01*
X14495926Y5713970D01*
X14511546Y5707500D01*
X14528455D01*
X14544073Y5713970D01*
X14556030Y5725926D01*
X14562500Y5741546D01*
Y5758454D01*
X14556030Y5774074D01*
X14544073Y5786030D01*
X14528455Y5792500D01*
X14511546D01*
X14501144Y5788192D01*
X13871144D01*
X13867686Y5801096D01*
X13854521Y5823899D01*
X13835902Y5842518D01*
X13813100Y5855683D01*
X13787666Y5862498D01*
D02*
G37*
G36*
Y5608498D02*
X13761336D01*
X13735902Y5601683D01*
X13713100Y5588518D01*
X13694482Y5569899D01*
X13681316Y5547096D01*
X13674501Y5521663D01*
Y5495333D01*
X13681316Y5469900D01*
X13694482Y5447097D01*
X13713100Y5428478D01*
X13735902Y5415313D01*
X13761336Y5408498D01*
X13787666D01*
X13813100Y5415313D01*
X13835902Y5428478D01*
X13854521Y5447097D01*
X13867686Y5469900D01*
X13871346Y5483555D01*
X14646341D01*
X14655927Y5473970D01*
X14671545Y5467500D01*
X14688454D01*
X14704074Y5473970D01*
X14716029Y5485926D01*
X14722501Y5501546D01*
Y5518454D01*
X14716029Y5534074D01*
X14704074Y5546030D01*
X14688454Y5552500D01*
X14671545D01*
X14655927Y5546030D01*
X14644839Y5534942D01*
X13870943D01*
X13867686Y5547096D01*
X13854521Y5569899D01*
X13835902Y5588518D01*
X13813100Y5601683D01*
X13787666Y5608498D01*
D02*
G37*
G36*
Y5100498D02*
X13761336D01*
X13735902Y5093683D01*
X13713100Y5080518D01*
X13694482Y5061899D01*
X13681316Y5039096D01*
X13674501Y5013663D01*
Y4987333D01*
X13681316Y4961900D01*
X13694482Y4939097D01*
X13713100Y4920478D01*
X13735902Y4907313D01*
X13761336Y4900498D01*
X13787666D01*
X13813100Y4907313D01*
X13835902Y4920478D01*
X13854521Y4939097D01*
X13867686Y4961900D01*
X13874501Y4987333D01*
Y5013663D01*
X13867686Y5039096D01*
X13854521Y5061899D01*
X13835902Y5080518D01*
X13813100Y5093683D01*
X13787666Y5100498D01*
D02*
G37*
%LPD*%
G36*
X16572366Y7274996D02*
X16490077Y7192706D01*
X15819563D01*
Y7213494D01*
X15828577Y7222441D01*
X15964870Y7221439D01*
X16213753D01*
X16219414Y7227101D01*
X16220398D01*
Y7228085D01*
X16225630Y7233316D01*
Y7386773D01*
X16244060Y7405203D01*
X16572366D01*
Y7274996D01*
D02*
G37*
G36*
X16550005Y6690000D02*
X16550003Y4780004D01*
Y4380003D01*
X16550000Y4380000D01*
Y3648997D01*
X16541003Y3640033D01*
X15829330Y3642602D01*
X15820564Y3651791D01*
X15821431Y3671703D01*
X16214590D01*
X16219994Y3677105D01*
X16220403D01*
Y3677515D01*
X16224606Y3681717D01*
Y3943270D01*
X16228438Y3947102D01*
X16337901D01*
Y4132902D01*
X16224606D01*
Y4385394D01*
X15910001Y4700000D01*
X15771399D01*
Y5946907D01*
X15935995D01*
X16234021Y6244932D01*
Y6475983D01*
X16218208Y6491796D01*
Y6520052D01*
X16032292D01*
X16026984Y6525362D01*
Y6636560D01*
X15968985Y6694558D01*
X15820589D01*
X15820547Y6694657D01*
Y6745520D01*
X15822136Y6747620D01*
X16492384D01*
X16550005Y6690000D01*
D02*
G37*
G36*
X16592178Y3199888D02*
Y3042470D01*
X16555533Y3005824D01*
X16148604D01*
X15966696Y3187732D01*
X15828754D01*
X15819843Y3196782D01*
X15820152Y3216919D01*
X16575148D01*
X16592178Y3199888D01*
D02*
G37*
D10*
X13686998Y2741000D02*
D03*
X13867001D02*
D03*
X13142000D02*
D03*
X13322000D02*
D03*
X14799998Y6820001D02*
D03*
X14979997D02*
D03*
X14349998Y7890002D02*
D03*
X14529999D02*
D03*
D11*
X16340002Y3070576D02*
D03*
Y2909423D02*
D03*
X16500003Y7501158D02*
D03*
Y7340001D02*
D03*
X16119998Y6429421D02*
D03*
Y6590579D02*
D03*
D12*
X15945998Y5842000D02*
D03*
X15296002D02*
D03*
X15945998Y4826000D02*
D03*
X15296002D02*
D03*
D13*
X16650578Y3750000D02*
D03*
X16489426D02*
D03*
X15710580Y7860000D02*
D03*
X15549423D02*
D03*
X15700578Y4169999D02*
D03*
X15539420D02*
D03*
D14*
X14990002Y7319996D02*
D03*
Y7499995D02*
D03*
X15010001Y3880002D02*
D03*
Y4060002D02*
D03*
X15029999Y3070002D02*
D03*
Y3250002D02*
D03*
D15*
X16274998Y7620000D02*
D03*
X16125002D02*
D03*
X16265002Y4040002D02*
D03*
X16114999D02*
D03*
D16*
X16279997Y7320001D02*
D03*
X16139998D02*
D03*
X16280003Y3770005D02*
D03*
X16140002D02*
D03*
D17*
X15620000Y3559998D02*
D03*
Y7109998D02*
D03*
D18*
X15899998Y3917498D02*
D03*
Y3852499D02*
D03*
Y3787501D02*
D03*
Y3722502D02*
D03*
Y3657498D02*
D03*
Y3592500D02*
D03*
Y3527501D02*
D03*
Y3462503D02*
D03*
Y3397499D02*
D03*
Y3332500D02*
D03*
Y3267502D02*
D03*
Y3202498D02*
D03*
X15339999D02*
D03*
Y3267502D02*
D03*
Y3332500D02*
D03*
Y3397499D02*
D03*
Y3462503D02*
D03*
Y3527501D02*
D03*
Y3592500D02*
D03*
Y3657498D02*
D03*
Y3722502D02*
D03*
Y3787501D02*
D03*
Y3852499D02*
D03*
Y3917498D02*
D03*
X15899998Y7467498D02*
D03*
Y7402500D02*
D03*
Y7337501D02*
D03*
Y7272503D02*
D03*
Y7207499D02*
D03*
Y7142500D02*
D03*
Y7077502D02*
D03*
Y7012498D02*
D03*
Y6947499D02*
D03*
Y6882501D02*
D03*
Y6817502D02*
D03*
Y6752499D02*
D03*
X15339999D02*
D03*
Y6817502D02*
D03*
Y6882501D02*
D03*
Y6947499D02*
D03*
Y7012498D02*
D03*
Y7077502D02*
D03*
Y7142500D02*
D03*
Y7207499D02*
D03*
Y7272503D02*
D03*
Y7337501D02*
D03*
Y7402500D02*
D03*
Y7467498D02*
D03*
D19*
X15870000Y3430000D02*
X16100000D01*
X15860001Y6980000D02*
X16080000D01*
X15870001Y6849999D02*
X17305000D01*
X15870001Y7109998D02*
X16509650D01*
X15870001Y3299998D02*
X17310999D01*
X15870001Y3559998D02*
X17071001D01*
X16254004Y5084003D02*
X17317004D01*
X15996001Y4826000D02*
X16254004Y5084003D01*
X15945998Y4826000D02*
X15996001D01*
X17400002Y6350000D02*
Y6779006D01*
X17317004Y6862003D02*
X17400002Y6779006D01*
X17317004Y7387707D02*
X17400002Y7470704D01*
Y7870002D01*
X17317004Y7362002D02*
Y7387707D01*
Y3306003D02*
X17400002Y3223006D01*
Y2790002D02*
Y3223006D01*
X17317004Y3806002D02*
Y4237004D01*
X17400002Y4320002D01*
X17310999Y3299998D02*
X17317004Y3306003D01*
X17071001Y3559998D02*
X17317004Y3806002D01*
X17305000Y6849999D02*
X17317004Y6862003D01*
X16761649Y7362002D02*
X17317004D01*
X16509650Y7109998D02*
X16761649Y7362002D01*
D20*
X15750002Y3365002D02*
Y3370001D01*
X15777499Y3397499D02*
X15899998D01*
X15750002Y3370001D02*
X15777499Y3397499D01*
X15750002Y3490000D02*
X15777499Y3462503D01*
X15899998D01*
X15750002Y3490000D02*
Y3494999D01*
X15777499Y7012498D02*
X15860001D01*
X15777499Y6947499D02*
X15860001D01*
X15750002Y6914998D02*
Y6920002D01*
X15777499Y6947499D01*
X15750002Y7039996D02*
X15777499Y7012498D01*
X15750002Y7039996D02*
Y7045000D01*
X15339999Y6947499D02*
X15462498D01*
X15490002Y6919997D01*
Y6914998D02*
Y6919997D01*
X13630000Y6140000D02*
X13870000D01*
X13930000Y6200000D02*
Y6368999D01*
X13870000Y6140000D02*
X13930000Y6200000D01*
X13570000Y6080000D02*
X13630000Y6140000D01*
X13570000Y4200000D02*
Y6080000D01*
X13030000Y6170000D02*
X13130498Y6270498D01*
X13774501D01*
Y6524498D02*
X13930000Y6368999D01*
X13470000Y6680000D02*
X13520000Y6630000D01*
X14150000D01*
X13610001Y6920001D02*
X15057503D01*
X13214497Y6524498D02*
X13610001Y6920001D01*
X12250501Y6524498D02*
X13214497D01*
X12250501Y6778498D02*
X13238498D01*
X13450000Y6990000D02*
Y7080000D01*
X13238498Y6778498D02*
X13450000Y6990000D01*
X14150000Y6630000D02*
X14870000Y5910000D01*
X13774501Y6778498D02*
X14281502D01*
X14997499Y6820002D02*
X14997501D01*
X15057503Y6920001D02*
X15150002Y7012498D01*
X13935365Y7137698D02*
X14094662Y6978400D01*
X13378702Y7181298D02*
X14451299D01*
X14094662Y6978400D02*
X15056892D01*
X13507698Y7137698D02*
X13935365D01*
X13450000Y7080000D02*
X13507698Y7137698D01*
X14870000Y5550000D02*
Y5910000D01*
X14281502Y6778498D02*
X14430000Y6630000D01*
X14807497D01*
X14997499Y6820002D01*
X14839999Y3930000D02*
Y4592309D01*
X14870399Y4622709D01*
Y5549600D01*
X14870000Y5550000D02*
X14870399Y5549600D01*
X14889998Y3880002D02*
X15010001D01*
X14839999Y3930000D02*
X14889998Y3880002D01*
X14200000Y4180000D02*
X14787500Y3592500D01*
X13420000Y4120000D02*
Y4846999D01*
X13339999Y4647706D02*
X13350000Y4657706D01*
Y4790000D01*
X13083839Y4553839D02*
X13274600Y4744600D01*
X13139502Y5000498D02*
X13350000Y4790000D01*
X12250501Y5000498D02*
X13139502D01*
X13274600Y4744600D02*
Y4750000D01*
X13339999Y4510000D02*
Y4647706D01*
X13420000Y4120000D02*
X13770000Y3770000D01*
X12250501Y6016498D02*
X13420000Y4846999D01*
X13489999Y4150000D02*
X13810001Y3830000D01*
X12470000Y5900000D02*
X13489999Y4880000D01*
Y4150000D02*
Y4880000D01*
X12872134Y4553839D02*
X13083839D01*
X11420500Y3568275D02*
X11947225Y4095000D01*
X12442702D01*
X12679800Y4332098D01*
Y4361506D01*
X12872134Y4553839D01*
X14700002Y3250002D02*
X15029999D01*
X14610001Y3160000D02*
X14700002Y3250002D01*
X13770000Y3770000D02*
X14335162D01*
X13810001Y3830000D02*
X14461137D01*
X13777252Y5257249D02*
X14807249D01*
X14810001Y5260000D01*
X13774501Y5254498D02*
X13777252Y5257249D01*
X13775252Y5509249D02*
X14679250D01*
X14680000Y5510000D01*
X13774501Y5508498D02*
X13775252Y5509249D01*
X14514587Y5750000D02*
X14520000D01*
X13774501Y5762498D02*
X14502090D01*
X14514587Y5750000D01*
X14320000Y4160000D02*
X14323827Y4156173D01*
Y4140755D02*
X14807083Y3657498D01*
X14323827Y4140755D02*
Y4156173D01*
X14787500Y3592500D02*
X15339999D01*
X14807083Y3657498D02*
X15339999D01*
X14827498Y3722502D02*
X15339999D01*
X14574313Y3975686D02*
X14827498Y3722502D01*
X14461137Y3830000D02*
X14763637Y3527501D01*
X15339999D01*
X14530000Y4110000D02*
X14852499Y3787501D01*
X15339999D01*
X15183752Y3852499D02*
X15339999D01*
X15010001Y3880002D02*
X15156248D01*
X15183752Y3852499D01*
X15047501Y4022502D02*
X15169997D01*
X15251250Y3941249D01*
X15010001Y4060002D02*
X15047501Y4022502D01*
X14642661Y3462503D02*
X15339999D01*
X14335162Y3770000D02*
X14642661Y3462503D01*
X14680000Y7220000D02*
X15068251D01*
X14800000Y7159600D02*
X15089600D01*
X14520000Y7100000D02*
X14520799Y7099200D01*
X15078697D01*
X15186996Y7207499D01*
X15067795Y7038800D02*
X15171495Y7142500D01*
X14421201Y7038800D02*
X15067795D01*
X14420000Y7040000D02*
X14421201Y7038800D01*
X15068251Y7220000D02*
X15185751Y7337501D01*
X15056892Y6978400D02*
X15155994Y7077502D01*
X15171495Y7142500D02*
X15339999D01*
X15155994Y7077502D02*
X15339999D01*
X15089600Y7159600D02*
X15202502Y7272503D01*
X15186996Y7207499D02*
X15339999D01*
X15202502Y7272503D02*
X15339999D01*
X15185751Y7337501D02*
X15339999D01*
X14451299Y7181298D02*
X14589995Y7319996D01*
X14990002D01*
X12250501Y7794498D02*
X12765502D01*
X13378702Y7181298D01*
X12250501Y6270498D02*
X12269502D01*
X12470000Y6070000D01*
Y5900000D02*
Y6070000D01*
X14589999Y7499995D02*
X14990002D01*
X15242503D01*
X15275000Y7467498D01*
X14990002Y7319996D02*
X15118748D01*
X15201254Y7402500D02*
X15339999D01*
X15118748Y7319996D02*
X15201254Y7402500D01*
X15090002Y3332500D02*
X15339999D01*
X15037500Y3279999D02*
X15090002Y3332500D01*
X15104997Y3212502D02*
X15115001Y3202498D01*
X15067499Y3212502D02*
X15104997D01*
X15029999Y3250002D02*
X15067499Y3212502D01*
X15115001Y3202498D02*
X15339999D01*
X15065002Y6752499D02*
X15339999D01*
X14997501Y6820002D02*
X15065002Y6752499D01*
X14997501Y6820002D02*
X15060001Y6882501D01*
X15339999D01*
X15150002Y7012498D02*
X15339999D01*
X11303000Y3556000D02*
X11315275Y3568275D01*
X11420500D01*
X14312498Y7945002D02*
X14349998Y7907502D01*
X14295000Y7945002D02*
X14312498D01*
X14200002Y8040000D02*
X14295000Y7945002D01*
X14349998Y7890002D02*
Y7907502D01*
X11730000Y8040000D02*
X14200002D01*
X11380003Y7690003D02*
X11730000Y8040000D01*
X11380003Y6909902D02*
Y7690003D01*
X15602155Y7747845D02*
Y7807268D01*
Y7747845D02*
X15670000Y7680000D01*
X15549423Y7860000D02*
X15602155Y7807268D01*
X15539420Y4169999D02*
X15592152Y4222731D01*
Y4336740D01*
X15610001Y4354588D01*
Y4360000D01*
X15251250Y3941249D02*
X15419688Y4109689D01*
X15251250Y3941249D02*
X15275000Y3917498D01*
X15339999D01*
X15539420Y4162421D02*
Y4169999D01*
X15486690Y4109689D02*
X15539420Y4162421D01*
X15419688Y4109689D02*
X15486690D01*
X15220000Y3270000D02*
X15221249Y3268751D01*
X15338751D02*
X15339999Y3267502D01*
X15221249Y3268751D02*
X15338751D01*
X15231248Y6818751D02*
X15338751D01*
X15339999Y6817502D01*
X15230000Y6820000D02*
X15231248Y6818751D01*
X15258751Y7499995D02*
Y7561750D01*
X15275000Y7467498D02*
X15339999D01*
X15258751Y7561750D02*
X15549423Y7852421D01*
Y7860000D01*
X14529999Y7559995D02*
X14589999Y7499995D01*
X14529999Y7559995D02*
Y7890002D01*
X14380002Y7409998D02*
X14529999Y7559995D01*
X12917500Y4257502D02*
X12971500D01*
X12720000Y4060000D02*
X12917500Y4257502D01*
X12971500D02*
X13034000Y4320002D01*
X12166225Y4060000D02*
X12720000D01*
X11674500Y3568275D02*
X12166225Y4060000D01*
X11569275Y3568275D02*
X11674500D01*
X11557000Y3556000D02*
X11569275Y3568275D01*
X13867001Y2881591D02*
X13880000Y2894588D01*
X13867001Y2741000D02*
Y2881591D01*
X13880000Y2894588D02*
Y2900000D01*
X13142000Y2741000D02*
X13150000Y2749000D01*
Y2880000D01*
X13564749Y2880748D02*
X13686998Y2758500D01*
X13549498Y3100000D02*
X13564749Y3084749D01*
Y3150749D01*
Y2880748D02*
Y3084749D01*
X13686998Y2741000D02*
Y2758500D01*
X13564749Y3150749D02*
X13716000Y3302000D01*
X11759000Y3100000D02*
X13549498D01*
X13322000Y2741000D02*
X13686998D01*
X13970000Y3302000D02*
X14224001D01*
X13716000D02*
X13970000D01*
X11557000D02*
X11759000Y3100000D01*
X11303000Y3302000D02*
X11557000D01*
X16072145Y7302144D02*
X16142142D01*
X16055000Y3760003D02*
X16130000D01*
X16140002Y3770005D01*
X16017499Y3722502D02*
X16055000Y3760003D01*
X15899998Y3722502D02*
X16017499D01*
X16108031Y3906495D02*
X16151494D01*
X16040288Y3838753D02*
X16108031Y3906495D01*
X16040288Y3818753D02*
Y3838753D01*
X16009036Y3787501D02*
X16040288Y3818753D01*
X15899998Y3852499D02*
X15902498Y3854999D01*
X15993462Y3869644D02*
Y3870000D01*
X15902498Y3854999D02*
X15978815D01*
X15993462Y3869644D01*
Y3870000D02*
X16079997Y3956538D01*
X15899998Y3787501D02*
X16009036D01*
X16079997Y3956538D02*
Y4005001D01*
X16114999Y4040002D01*
X16265002Y4020002D02*
Y4040002D01*
X16151494Y3906495D02*
X16265002Y4020002D01*
X16139998Y7304288D02*
Y7320001D01*
Y7304288D02*
X16142142Y7302144D01*
X16070001Y7300001D02*
X16072145Y7302144D01*
X16017499Y7300001D02*
X16070001D01*
X15992500Y7275002D02*
X16017499Y7300001D01*
X15902498Y7275002D02*
X15992500D01*
X15899998Y7272503D02*
X15902498Y7275002D01*
X15985002Y7404999D02*
X16090001Y7510003D01*
X15902498Y7404999D02*
X15985002D01*
X16090001Y7510003D02*
Y7584999D01*
X15899998Y7402500D02*
X15902498Y7404999D01*
X16090001Y7584999D02*
X16125002Y7620000D01*
X15902498Y7340001D02*
X15981538D01*
X15899998Y7337501D02*
X15902498Y7340001D01*
X15981538D02*
X16122528Y7480991D01*
X16155991D01*
X16274998Y7600000D02*
Y7620000D01*
X16155991Y7480991D02*
X16274998Y7600000D01*
D21*
X12065000Y3556000D02*
D03*
X11811000D02*
D03*
X12065000Y3302000D02*
D03*
X11811000D02*
D03*
X11557000Y3556000D02*
D03*
Y3302000D02*
D03*
X11303000Y3556000D02*
D03*
X13774501Y5000498D02*
D03*
X12250501Y7794498D02*
D03*
Y7540498D02*
D03*
Y7286498D02*
D03*
Y7032498D02*
D03*
Y6778498D02*
D03*
Y6524498D02*
D03*
Y6270498D02*
D03*
Y6016498D02*
D03*
Y5762498D02*
D03*
Y5508498D02*
D03*
Y5254498D02*
D03*
X13774501D02*
D03*
Y5508498D02*
D03*
Y5762498D02*
D03*
Y6016498D02*
D03*
Y6270498D02*
D03*
Y6524498D02*
D03*
Y6778498D02*
D03*
Y7032498D02*
D03*
Y7286498D02*
D03*
Y7540498D02*
D03*
Y7794498D02*
D03*
X12250501Y5000498D02*
D03*
X14224001Y3556000D02*
D03*
X13970000D02*
D03*
X14224001Y3302000D02*
D03*
X13970000D02*
D03*
X13716000Y3556000D02*
D03*
Y3302000D02*
D03*
X13462000Y3556000D02*
D03*
Y3302000D02*
D03*
X13208000Y3556000D02*
D03*
D22*
X11303000Y3302000D02*
D03*
X13208000D02*
D03*
D23*
X13034000Y4320002D02*
D03*
X17400002Y2790002D02*
D03*
Y4320002D02*
D03*
X14126003Y7409998D02*
D03*
X17400002Y7870002D02*
D03*
Y6350000D02*
D03*
D24*
X12780000Y4320002D02*
D03*
X12526000D02*
D03*
X14380002Y7409998D02*
D03*
D25*
X11660002Y4249999D02*
D03*
X11410000D02*
D03*
D26*
X11159998D02*
D03*
D27*
X11849999Y4949998D02*
D03*
X10970001D02*
D03*
D28*
X17317004Y6862003D02*
D03*
Y5084003D02*
D03*
Y3306003D02*
D03*
D29*
Y7362002D02*
D03*
Y5584002D02*
D03*
Y3806002D02*
D03*
D30*
X11380003Y5970102D02*
D03*
Y6440002D02*
D03*
D31*
Y6909902D02*
D03*
D32*
X14570000Y3630000D02*
D03*
X11960000Y3990000D02*
D03*
X11720000Y3740000D02*
D03*
X15070000Y6320000D02*
D03*
X16770000Y8050000D02*
D03*
X16670000Y7050000D02*
D03*
X16620000Y6980000D02*
D03*
X16080000D02*
D03*
X17480000Y5920000D02*
D03*
X16739999Y6360000D02*
D03*
X16789999Y5790000D02*
D03*
X16800000Y5270000D02*
D03*
X16810001Y4810000D02*
D03*
X16800000Y3960000D02*
D03*
X16850000Y2890000D02*
D03*
X17400000Y3560000D02*
D03*
X16100000Y3430000D02*
D03*
X16789999D02*
D03*
X13860001Y4230000D02*
D03*
X14030000Y5640000D02*
D03*
X14060001Y5390000D02*
D03*
X14239999Y4640000D02*
D03*
X14139999Y6350000D02*
D03*
X14180000Y7050000D02*
D03*
X13939999Y7010000D02*
D03*
X16299998Y3170001D02*
D03*
X16370000D02*
D03*
X16439998D02*
D03*
X16299998Y3099999D02*
D03*
X16370000D02*
D03*
X16439998D02*
D03*
X16299998Y3700003D02*
D03*
X16370000D02*
D03*
X16439998D02*
D03*
X16299998Y3770000D02*
D03*
X16370000D02*
D03*
X16439998D02*
D03*
X16430000Y7300001D02*
D03*
X16359998D02*
D03*
X16289999D02*
D03*
X16430000Y7229998D02*
D03*
X16359998D02*
D03*
X16289999D02*
D03*
X16430000Y6629999D02*
D03*
X16359998D02*
D03*
X16289999D02*
D03*
X16430000Y6700002D02*
D03*
X16359998D02*
D03*
X16289999D02*
D03*
D33*
X13030000Y6170000D02*
D03*
X13470000Y6680000D02*
D03*
X14200000Y4190000D02*
D03*
X13339999Y4510000D02*
D03*
X13274600Y4750000D02*
D03*
X14610001Y3160000D02*
D03*
X13570000Y4200000D02*
D03*
X14810001Y5260000D02*
D03*
X14680000Y5510000D02*
D03*
X14520000Y5750000D02*
D03*
X14320000Y4160000D02*
D03*
X14574313Y3975686D02*
D03*
X14530000Y4110000D02*
D03*
X14680000Y7220000D02*
D03*
X14800000Y7159600D02*
D03*
X14520000Y7100000D02*
D03*
X14420000Y7040000D02*
D03*
X15670000Y7680000D02*
D03*
X15610001Y4360000D02*
D03*
X15220000Y3270000D02*
D03*
X15230000Y6820000D02*
D03*
X13880000Y2900000D02*
D03*
X13150000Y2880000D02*
D03*
D34*
X15620000Y3235000D02*
D03*
Y3365002D02*
D03*
Y3494999D02*
D03*
Y3625002D02*
D03*
Y3754999D02*
D03*
Y3885001D02*
D03*
X15750002Y3235000D02*
D03*
Y3365002D02*
D03*
Y3494999D02*
D03*
Y3625002D02*
D03*
Y3754999D02*
D03*
Y3885001D02*
D03*
X15490002Y3235000D02*
D03*
Y3365002D02*
D03*
Y3494999D02*
D03*
Y3625002D02*
D03*
Y3754999D02*
D03*
Y3885001D02*
D03*
X15620000Y6785000D02*
D03*
Y6914998D02*
D03*
Y7045000D02*
D03*
Y7175002D02*
D03*
Y7304999D02*
D03*
Y7435002D02*
D03*
X15750002Y6785000D02*
D03*
Y6914998D02*
D03*
Y7045000D02*
D03*
Y7175002D02*
D03*
Y7304999D02*
D03*
Y7435002D02*
D03*
X15490002Y6785000D02*
D03*
Y6914998D02*
D03*
Y7045000D02*
D03*
Y7175002D02*
D03*
Y7304999D02*
D03*
Y7435002D02*
D03*
%TF.MD5,6939b50dd1b198556229b554d6689fec*%
M02*
