<?xml version="1.0" encoding="UTF-8" standalone="no"?>
<svg
   xmlns:dc="http://purl.org/dc/elements/1.1/"
   xmlns:cc="http://creativecommons.org/ns#"
   xmlns:rdf="http://www.w3.org/1999/02/22-rdf-syntax-ns#"
   xmlns:svg="http://www.w3.org/2000/svg"
   xmlns="http://www.w3.org/2000/svg"
   xmlns:sodipodi="http://sodipodi.sourceforge.net/DTD/sodipodi-0.dtd"
   xmlns:inkscape="http://www.inkscape.org/namespaces/inkscape"
   id="svg8"
   version="1.1"
   viewBox="0 0 160 160"
   height="160mm"
   width="160mm"
   sodipodi:docname="roboszpon-black.svg"
   inkscape:version="0.92.5 (2060ec1f9f, 2020-04-08)">
  <sodipodi:namedview
     pagecolor="#ffffff"
     bordercolor="#666666"
     borderopacity="1"
     objecttolerance="10"
     gridtolerance="10"
     guidetolerance="10"
     inkscape:pageopacity="0"
     inkscape:pageshadow="2"
     inkscape:window-width="1920"
     inkscape:window-height="1050"
     id="namedview820"
     showgrid="false"
     showguides="false"
     inkscape:zoom="1"
     inkscape:cx="341.00686"
     inkscape:cy="296.08551"
     inkscape:window-x="1080"
     inkscape:window-y="399"
     inkscape:window-maximized="1"
     inkscape:current-layer="svg8" />
  <defs
     id="defs2" />
  <metadata
     id="metadata5">
    <rdf:RDF>
      <cc:Work
         rdf:about="">
        <dc:format>image/svg+xml</dc:format>
        <dc:type
           rdf:resource="http://purl.org/dc/dcmitype/StillImage" />
        <dc:title></dc:title>
      </cc:Work>
    </rdf:RDF>
  </metadata>
  <g
     style="display:inline"
     transform="matrix(-1,0,0,1,164.8112,-137)"
     id="layer1">
    <path
       transform="matrix(0.26458333,0,0,0.26458333,0,137)"
       id="path963"
       d="m 300.12695,57.667969 c -5.1725,0.0038 -10.11654,1.586937 -14.29101,4.341797 h -67.83399 c -6.44567,0 -14.34639,-0.372165 -20.14843,0.351562 -5.1936,0.647831 -10.13743,2.698342 -13.79883,6.46875 l 0.20117,-0.205078 -4.31836,4.310547 -0.0117,0.01563 -18.48633,18.490234 c -12.26412,3.954822 -21.40937,15.028169 -22.45898,28.244139 v 0.002 c -0.065,0.81959 -0.24913,1.60734 -0.25,2.44141 v 0.0176 0.0156 0.44531 0.008 c -0.008,0.34734 -0.008,0.69154 0,1.03907 v 8.65233 c 0.009,7.18057 4.16807,13.70875 10.67187,16.75195 2.26402,5.13975 5.13357,9.99875 8.62305,14.45508 -1.71051,2.86065 -2.61739,6.12984 -2.625,9.46289 0,5.87868 1.45704,11.87167 4.29102,17.15821 -2.15403,-0.50899 -4.3671,-0.84007 -6.65821,-0.83985 h -0.0254 c -2.62311,0.004 -5.34296,-0.016 -8.12109,-0.0273 h -0.004 c -8.34016,-0.034 -20.47022,2.77107 -30.34179,13.6543 -5.64192,6.22886 -6.38282,15.47567 -1.80469,22.52343 -6.58362,9.56859 -9.51196,21.49943 -7.29492,32.89649 -0.61398,2.09325 -0.85333,4.27857 -0.70703,6.45508 0.30181,4.33421 0.58501,7.88777 1.63867,12.02929 1.05365,4.14153 3.46928,8.93516 6.04492,12.08009 0.0215,0.0265 0.0429,0.0521 0.0645,0.0781 1.67655,2.02425 3.5247,4.35189 5.60742,6.82226 l 0.0293,0.0352 c 2.61791,3.08923 5.86784,5.46188 9.4043,7.24023 -4.74684,3.48495 -7.55362,9.01947 -7.56055,14.9082 v 0.002 c 0.007,2.93049 0.70909,5.8175 2.04883,8.42383 -2.34226,2.05542 -4.47131,4.39724 -6.09766,7.21484 l -0.0117,0.0234 c -1.31187,2.27965 -2.68822,4.625 -4.08398,7.01952 l -0.002,0.002 c -4.19867,7.2074 -7.83686,19.11344 -3.34766,33.10352 2.57426,7.99952 10.21157,13.26344 18.60352,12.82225 4.99484,10.48725 13.86241,18.98904 24.84179,22.76758 1.50571,1.57833 3.27839,2.87822 5.23633,3.83984 3.90438,1.90564 7.1228,3.43747 11.23633,4.59571 3.17445,0.89386 6.95768,1.1047 10.42383,0.93164 -2.82556,5.54562 -5.00101,11.46244 -6.37891,17.67969 h -1.96094 c -6.15523,-0.0265 -13.14445,2.92837 -17.31445,7.60546 -4.17,4.67713 -5.83594,10.19329 -5.83594,15.45118 v 17.91601 c 0,5.25793 1.66456,10.77363 5.83594,15.45117 4.17138,4.67751 11.1651,7.63032 17.32031,7.60352 0.36662,4e-5 2.07755,-0.003 2.66992,-0.002 6.79607,22.37378 27.1136,40.73047 53.88477,40.73047 l 21.17383,0.0508 c 19.65404,0.0476 36.12738,-3.36717 49.44726,-7.8125 l 9.30078,9.30078 c 3.47339,3.47285 8.18398,5.42383 13.09571,5.42383 h 11.34375 c 3.33957,2.83721 7.57693,4.39846 11.95898,4.40625 h 17.86133 c 10.22758,-10e-4 18.5184,-8.29195 18.51953,-18.51954 v -1.05664 c 1.33191,-0.35111 2.62044,-0.84959 3.8418,-1.48632 l 25.61914,-13.5293 32.29687,-16.30274 c 3.9574,-5.6e-4 7.69303,-1.00583 11.08399,-2.65234 3.42315,1.92518 7.07479,2.77149 10.5918,2.77148 4.92839,0 10.13817,-1.55937 14.58203,-5.60546 3.30054,-3.00514 5.61777,-7.55913 6.52539,-12.04297 0.23093,0.008 0.4476,0.0703 0.67968,0.0703 14.15778,-0.002 26.031,-11.87739 26.0293,-26.03516 v -0.0117 c -0.003,-5.27003 -1.64368,-10.29949 -4.49023,-14.51953 v -3.1582 c -0.008,-4.22207 -1.45466,-8.31534 -4.10547,-11.60156 8.99981,-3.15999 15.6875,-11.75758 15.6875,-21.69531 v -53.9668 c 0,-12.54648 -10.60008,-23.10559 -23.14649,-23.05664 h -12.6582 c -0.92451,-1.79758 -1.95782,-3.52298 -3.01953,-5.23242 9.23989,-4.03711 15.85867,-13.31891 15.85742,-23.88477 v -0.008 c -0.001,-2.01918 -0.30423,-3.98348 -0.75781,-5.90235 1.76084,-0.84778 3.48777,-1.87911 5.09766,-3.33007 4.41902,-3.98283 7.14467,-10.71442 7.04296,-16.39649 l 0.002,0.33203 v -11.75976 c -0.008,-4.1932 -1.43635,-8.25993 -4.05469,-11.53516 8.97441,-3.17458 15.63672,-11.7584 15.63672,-21.67773 l 0.14062,-53.75 c 0.12322,-12.70481 -10.66025,-23.43658 -23.35742,-23.27149 l 0.1426,-0.002 h -0.18555 c -0.008,1.1e-4 -0.0159,-0.002 -0.0234,-0.002 -0.0265,6e-4 -0.0497,9e-4 -0.0742,0.002 h -12.44532 c -12.18527,-23.69938 -36.50499,-40.07875 -64.62109,-40.85352 -0.70692,-0.0892 -1.41838,-0.13735 -2.13086,-0.14453 h -0.81055 c 5.2585,-5.39244 8.55924,-12.70163 8.5586,-20.679685 -9.5e-4,-16.226835 -13.554,-29.778591 -29.78125,-29.777344 h -0.0215 c -5.93419,0.0076 -11.53118,1.969393 -16.34179,5.167969 h -56.9375 c -4.7907,-5.900077 -12.00901,-9.76642 -20.03711,-9.767578 h -0.0215 z m 0.0195,18.519531 a 7.5127815,7.5127815 0 0 1 7.51172,7.511719 7.5127815,7.5127815 0 0 1 -7.51172,7.513672 7.5127815,7.5127815 0 0 1 -6.93359,-4.638672 H 220.50391 L 189.35352,117.72461 H 245.5 c 0,-13.26335 8.55775,-21.000001 20.5,-21.000001 h 21.75 c 9.42739,0.01155 18.46573,3.103085 25.8418,8.623051 l 19.39062,-19.392582 h 51.05274 a 11.258904,11.258904 0 0 1 9.45507,-5.167969 11.258904,11.258904 0 0 1 11.25977,11.259766 11.258904,11.258904 0 0 1 -11.25977,11.259765 11.258904,11.258904 0 0 1 -9.51953,-5.253906 h -45.97656 l -15.82812,15.824216 c 0.0386,0.0512 0.0806,0.099 0.11914,0.15039 h 36.64257 0.0137 l -0.0137,0.0137 c -0.25018,40.02278 -32.20715,72.6297 -72.21679,73.68554 l -0.0996,0.0996 h -99.37695 c -7.50011,0 -13.31446,-5.1556 -13.31446,-14.85156 h 7.10547 c 1.88094,-5.6226 4.76868,-10.88128 8.54492,-15.50977 0.36587,5.35476 1.61285,10.58866 3.6543,15.50977 h 10.14258 c 1.87193,-4.96856 4.53963,-9.62352 7.92383,-13.77149 0.32322,4.73053 1.34933,9.36113 2.98632,13.77149 h 5.23828 c 14.66239,-15.90335 28.71709,-25.11228 50.01172,-25.54883 -2.62752,-4.69313 -4.47692,-9.79958 -5.45898,-15.12109 h -37.64453 c -2.79518,5.7087 -4.47629,11.91837 -4.91211,18.29687 -4.39386,-5.3855 -7.58129,-11.6244 -9.38281,-18.29687 h -9.26563 c -3.23122,6.09172 -5.1762,12.79956 -5.64844,19.71093 -4.70273,-5.76403 -8.0222,-12.50633 -9.74023,-19.71093 h -8.19922 c -3.51905,6.3213 -5.61436,13.35079 -6.10937,20.5957 -4.89484,-5.99953 -8.29419,-13.05828 -9.94532,-20.5957 H 157.25 v -8.66211 a 3.0239244,3.0239244 0 0 1 0,-1.0293 v -0.45312 -0.0137 c 0.008,-7.54156 6.03017,-13.66099 13.52539,-13.85351 l 22.24609,-22.250001 4.31836,-4.310547 a 3.0239244,3.0239244 0 0 1 2.08204,-0.916016 3.0239244,3.0239244 0 0 1 2.1914,5.189453 l -4.31055,4.31836 -19.61523,19.613281 c 2.28734,1.22982 4.20857,3.08838 5.51172,5.39453 l 34.80273,-34.802733 h 75.3418 a 7.5127815,7.5127815 0 0 1 6.80273,-4.341797 z m 93.34375,10.246094 a 5.6124359,5.6124359 0 0 0 -5.61328,5.613281 5.6124359,5.6124359 0 0 0 5.61328,5.613281 5.6124359,5.6124359 0 0 0 5.61329,-5.613281 5.6124359,5.6124359 0 0 0 -5.61329,-5.613281 z M 263.75,105.06445 a 9.8994939,9.8994939 0 0 0 -9.89844,9.90039 9.8994939,9.8994939 0 0 0 9.89844,9.89844 9.8994939,9.8994939 0 0 0 9.90039,-9.89844 9.8994939,9.8994939 0 0 0 -9.90039,-9.90039 z m -93.11133,10.26367 a 5.6124362,5.6124362 0 0 0 -5.61133,5.61133 5.6124362,5.6124362 0 0 0 5.61133,5.61328 5.6124362,5.6124362 0 0 0 5.61328,-5.61328 5.6124362,5.6124362 0 0 0 -5.61328,-5.61133 z m 196.2168,15.91602 h 48.66601 l 0.0566,0.0566 c 25.82009,6.2e-4 47.58403,17.30355 54.3711,40.94141 H 495 a 4.5358859,4.5358859 0 0 1 0.0879,-0.004 4.5358859,4.5358859 0 1 1 -0.0879,9.06836 h -23.23633 c 0.24984,2.15803 0.3926,4.34919 0.39258,6.57422 -0.0138,0.4351 -0.0327,0.87003 -0.0566,1.30469 v 1.19336 H 495 a 4.5361694,4.5361694 0 1 1 0,9.07226 h -22.90039 v 8.84375 H 495 a 4.5361694,4.5361694 0 1 1 0,9.07227 h -22.90039 v 0.94336 c 0.0224,0.36374 0.0413,0.72769 0.0566,1.09179 3e-5,2.30583 -0.15389,4.575 -0.42187,6.8086 H 495 a 4.5361694,4.5361694 0 1 1 0,9.07226 h -25.11914 c -0.77557,2.6562 -1.73988,5.23011 -2.87891,7.70899 l 20.97071,20.96875 v 11.75976 a 3.0239244,3.0239244 0 1 1 -6.04688,0 v -9.25 l -17.87695,-17.87695 c -1.65546,2.74301 -3.54493,5.32688 -5.62695,7.74023 l 13.64257,13.64454 v 24.16015 a 7.5127815,7.5127815 0 0 1 4.52344,6.88867 7.5127815,7.5127815 0 0 1 -7.51172,7.51368 7.5127815,7.5127815 0 0 1 -7.51367,-7.51368 7.5127815,7.5127815 0 0 1 4.45703,-6.85351 v -21.69336 l -11.7832,-11.7832 c -10.11573,9.47401 -23.70523,15.28479 -38.65821,15.28515 h -0.002 l -0.0566,0.0566 H 307.10156 L 321.79102,261.201 h 70.54687 a 9.5127815,9.5127815 0 0 0 8.61133,5.5 9.5127815,9.5127815 0 0 0 9.51367,-9.51172 9.5127815,9.5127815 0 0 0 -9.51367,-9.51367 9.5127815,9.5127815 0 0 0 -8.46875,5.20508 h -74.1582 l -22.92383,23.1582 h -12.91602 l 15.73828,-15.73828 a 4.1578953,4.1578953 0 0 0 -3.01953,-7.13867 4.1578953,4.1578953 0 0 0 -2.85547,1.25391 l -21.62695,21.62304 h -24.9375 v 31.63477 h 15.14063 a 13.085022,13.085022 0 0 1 -0.002,-0.0566 13.085022,13.085022 0 0 1 13.08594,-13.08594 13.085022,13.085022 0 0 1 13.08398,13.08594 13.085022,13.085022 0 0 1 -0.002,0.0566 h 15.15234 a 13.085022,13.085022 0 0 1 -0.002,-0.0566 13.085022,13.085022 0 0 1 13.08594,-13.08594 13.085022,13.085022 0 0 1 13.08398,13.08594 13.085022,13.085022 0 0 1 -0.002,0.0566 h 15.15234 a 13.085022,13.085022 0 0 1 -0.002,-0.0566 13.085022,13.085022 0 0 1 13.08398,-13.08594 13.085022,13.085022 0 0 1 13.08594,13.08594 13.085022,13.085022 0 0 1 -0.002,0.0566 h 15.15234 a 13.085022,13.085022 0 0 1 -0.002,-0.0566 13.085022,13.085022 0 0 1 13.08398,-13.08594 13.085022,13.085022 0 0 1 13.08594,13.08594 13.085022,13.085022 0 0 1 -0.002,0.0566 h 4.47656 l 0.0566,0.0566 h 0.002 c 25.81661,6.2e-4 47.57896,17.29867 54.36915,40.93164 H 495 a 4.5361694,4.5361694 0 1 1 0,9.07227 h -23.23633 c 0.25,2.15864 0.3926,4.35041 0.39258,6.57617 -0.014,0.42858 -0.0329,0.85699 -0.0566,1.28515 v 1.21094 H 495 a 4.5361694,4.5361694 0 1 1 0,9.07227 h -22.90039 v 8.84375 H 495 a 4.5358859,4.5358859 0 0 1 0.0879,-0.004 4.5358859,4.5358859 0 1 1 -0.0879,9.06836 h -22.90039 v 1.06641 c 0.0224,0.36374 0.0412,0.72769 0.0566,1.09179 -5e-5,2.26364 -0.14967,4.49139 -0.4082,6.68555 H 495 a 4.5361694,4.5361694 0 1 1 0,9.07226 h -25.08398 c -0.77847,2.68848 -1.75191,5.29334 -2.90235,7.80079 l 20.95899,20.95898 V 451.279 a 7.5127815,7.5127815 0 0 1 4.49023,6.87304 7.5127815,7.5127815 0 0 1 -7.51172,7.51368 7.5127815,7.5127815 0 0 1 -7.51367,-7.51368 7.5127815,7.5127815 0 0 1 4.48828,-6.86718 v -8.3125 l -17.86133,-17.86133 c -1.76174,2.92245 -3.78728,5.66417 -6.03125,8.21094 l 8.1543,8.15234 V 480.125 a 3.0239244,3.0239244 0 1 1 -6.04492,0 v -36.14844 l -6.33399,-6.33203 c -2.84708,2.61165 -5.96333,4.93177 -9.30078,6.92188 v 24.17187 a 7.5127815,7.5127815 0 0 1 4.49219,6.875 7.5127815,7.5127815 0 0 1 -7.51172,7.51172 7.5127815,7.5127815 0 0 1 -7.51367,-7.51172 7.5127815,7.5127815 0 0 1 4.48828,-6.86719 V 447.6875 c -6.99869,3.10012 -14.7375,4.83574 -22.88477,4.83594 l -0.0508,-0.002 v -0.0625 l -0.008,0.008 h -85.8125 l -25.45508,-25.45313 a 4.1578954,4.1578954 0 0 0 -2.98242,-1.26367 4.1578954,4.1578954 0 0 0 -2.90039,7.13867 l 19.58008,19.57813 H 305.70682 L 280.2537,427.01381 a 4.1578954,4.1578954 0 0 0 -2.98243,-1.26367 4.1578954,4.1578954 0 0 0 -2.90234,7.13867 l 19.57813,19.57813 H 281.25 l -26.99609,-26.9961 h -17.14063 a 9.5127818,9.5127818 0 0 0 -8.4707,-5.20312 9.5127818,9.5127818 0 0 0 -9.51172,9.51172 9.5127818,9.5127818 0 0 0 9.51172,9.51367 9.5127818,9.5127818 0 0 0 8.61523,-5.50391 h 13.55664 l 18.67774,18.67774 h -23.71094 v 31.62695 c 20.76738,0.17297 36.85084,3.54937 49.2832,7.60547 l 18.23828,-18.23242 h 16.83789 a 11.048316,11.048316 0 0 1 10.31836,-7.13477 11.048316,11.048316 0 0 1 11.04883,11.04883 11.048316,11.048316 0 0 1 -11.04883,11.04883 11.048316,11.048316 0 0 1 -10.12109,-6.65039 h -13.5957 l -13.03711,13.04101 c 2.19645,0.87498 4.26031,1.74937 6.17187,2.60742 h 64.98633 l -0.0332,-9.57812 25.71484,13.7207 -25.61914,13.5293 -0.0332,-9.35156 h -60.06446 c -1.425,0.76308 -2.94836,1.55184 -4.53906,2.35156 l 13.20703,13.20117 h 19.85547 v -5.14258 h 17.86133 v 17.86133 h -17.86133 v -4.40625 H 320.04883 L 302.28125,511.8457 c -13.17607,5.69017 -30.8068,10.91207 -54.0332,10.85547 l -21.2168,-0.0508 c -22.97277,0 -37.83594,-18.84303 -37.83594,-38.55859 v -2.1836 c -7.46444,0.047 -16.10456,0.0137 -18.80078,0.0137 -6.07291,0.0264 -6.07291,-9.09707 0,-9.07227 h 18.80274 l 0.004,-8.84375 h -18.80664 c -6.07291,0.0265 -6.07291,-9.09707 0,-9.07227 h 18.80859 v -1.28711 c -0.0223,-0.37415 -0.0415,-0.74852 -0.0566,-1.12304 7.4e-4,-31.24693 25.3312,-56.57739 56.57813,-56.57813 l 0.0566,-0.0566 h 4.41211 a 13.085022,13.085022 0 0 1 -0.002,-0.0566 13.085022,13.085022 0 0 1 13.08593,-13.08594 13.085022,13.085022 0 0 1 13.08399,13.08594 13.085022,13.085022 0 0 1 -0.002,0.0566 h 15.15234 a 13.085022,13.085022 0 0 1 -0.002,-0.0566 13.085022,13.085022 0 0 1 13.08398,-13.08594 13.085022,13.085022 0 0 1 13.08594,13.08594 13.085022,13.085022 0 0 1 -0.002,0.0566 h 15.15235 a 13.085022,13.085022 0 0 1 -0.002,-0.0566 13.085022,13.085022 0 0 1 13.08399,-13.08594 13.085022,13.085022 0 0 1 13.08594,13.08594 13.085022,13.085022 0 0 1 -0.002,0.0566 h 15.15235 a 13.085022,13.085022 0 0 1 -0.002,-0.0566 13.085022,13.085022 0 0 1 13.08399,-13.08594 13.085022,13.085022 0 0 1 13.08594,13.08594 13.085022,13.085022 0 0 1 -0.002,0.0566 h 15.20508 v -31.6348 H 378.06641 V 346.75 c 0.0264,-6.07291 -9.09707,-6.07291 -9.07227,0 v 17.50391 h -8.8457 V 346.75 c 0.21921,-6.20095 -9.16696,-6.29183 -9.06836,-0.0879 h 0.002 c 10e-4,0.0302 0.002,0.0584 0.004,0.0879 v 17.50391 h -8.84375 V 346.75 c 0.0189,-6.06569 -9.08977,-6.06569 -9.07227,0 v 17.50391 H 324.0978 V 346.75 c 0.0189,-6.06569 -9.08977,-6.06569 -9.07227,0 v 17.50391 h -69.24414 l -0.0566,-0.0566 c -31.24769,-7.5e-4 -56.57847,-25.33239 -56.57813,-56.58008 0.014,-0.42728 0.0329,-0.85439 0.0566,-1.28125 V 276.0391 c -2.1e-4,-31.24769 25.33044,-56.57933 56.57813,-56.58008 h 4.41211 a 13.085022,13.085022 0 0 1 -0.002,-0.0566 13.085022,13.085022 0 0 1 13.08593,-13.08398 13.085022,13.085022 0 0 1 13.08399,13.08398 13.085022,13.085022 0 0 1 -0.002,0.0566 h 15.15234 a 13.085022,13.085022 0 0 1 -0.002,-0.0566 13.085022,13.085022 0 0 1 13.08398,-13.08398 13.085022,13.085022 0 0 1 13.08594,13.08398 13.085022,13.085022 0 0 1 -0.002,0.0566 h 15.15235 a 13.085022,13.085022 0 0 1 -0.002,-0.0566 13.085022,13.085022 0 0 1 13.08399,-13.08398 13.085022,13.085022 0 0 1 13.08594,13.08398 13.085022,13.085022 0 0 1 -0.002,0.0566 h 15.15235 a 13.085022,13.085022 0 0 1 -0.002,-0.0566 13.085022,13.085022 0 0 1 13.08399,-13.08398 13.085022,13.085022 0 0 1 13.08594,13.08398 13.085022,13.085022 0 0 1 -0.002,0.0566 h 15.20508 v -31.63476 h -91.2832 a 82.957086,82.957086 0 0 0 22.19922,-16.94141 h 47.91406 c 2.0612,3.26899 5.65496,5.25291 9.51953,5.25391 6.2188,4.9e-4 11.26022,-5.04097 11.25977,-11.25977 4.9e-4,-6.21879 -5.04097,-11.26025 -11.25977,-11.25976 -3.82492,0.004 -7.38582,1.95106 -9.45508,5.16797 h -38.64648 a 82.957086,82.957086 0 0 0 11.08789,-27.54102 z m 36.99023,29.82813 a 3.7426407,3.7426407 0 0 1 3.74414,3.74414 3.7426407,3.7426407 0 0 1 -3.74414,3.74218 3.7426407,3.7426407 0 0 1 -3.74218,-3.74218 3.7426407,3.7426407 0 0 1 3.74218,-3.74414 z m -225.98437,39.94531 c 5.06761,4.59549 7.96126,10.8444 7.94726,14.69922 -0.0176,5.00209 -0.0174,10.0341 -0.0703,15.01953 -0.0121,3.88736 -2.02466,7.49467 -5.32617,9.54687 -4.65072,2.50186 -10.09322,4.0238 -14.95508,6.25977 -0.19416,0.0816 -0.39175,0.14998 -0.5918,0.20898 l -0.17578,20.08399 14.31836,5.64844 v 16.41601 l -23.67187,-9.33984 c -2.49254,1.94974 -4.99061,3.9075 -7.48242,5.84961 -1.89317,1.50289 -4.21897,2.35815 -6.63477,2.43945 -3.44125,0.11085 -6.74475,-1.35573 -8.9707,-3.98242 -1.846,-2.18956 -3.66257,-4.47638 -5.50196,-6.69727 -2.30301,-2.81204 -2.98491,-5.73334 -3.53711,-13.66211 7.49115,2.58947 9.76562,3.50841 12.24805,6.53907 l 5.36524,6.54882 0.0332,-0.0234 0.0195,0.0117 8.52148,-6.66015 0.19727,-23.55664 c -0.15888,-0.0771 -0.31962,-0.14724 -0.47266,-0.24024 l -10.17968,-5.99414 -4.73829,6.32617 c -2.23247,2.98016 -6.40517,3.18752 -9.59765,11.94922 -3.26082,-8.12409 -1.28545,-17.50647 5.44726,-25.14062 3.50801,-4.49424 9.81691,-5.6667 14.70508,-2.73242 2.83136,1.57202 5.6357,3.32651 8.46094,4.95507 l -0.15625,-16.42382 -8.28906,-0.0312 c -3.7839,-0.0138 -6.24444,-3.55591 -16.51563,-3.67383 5.6388,-6.21668 12.66785,-7.59127 16.55274,-7.57617 2.73919,0.0113 5.49288,0.0313 8.22461,0.0273 6.2332,-6.8e-4 11.28667,5.05196 11.28711,11.28516 0.035,5.22474 0.10168,10.47577 0.14648,15.70898 l 9.9668,-4.06055 0.0234,-0.0488 h 0.0488 l 0.0508,-15.02539 c 0.0131,-3.81283 3.45006,-5.63805 3.30274,-14.6543 z m -61.69922,20 c -0.16207,0.18368 -0.29012,0.39378 -0.44922,0.58008 -0.08,0.0998 -0.18089,0.1741 -0.25977,0.27539 z m 30.74219,95.66601 c 3.41678,0.008 6.40735,0.68245 8.28125,1.77344 4.32313,2.5163 8.68161,5.03179 12.97265,7.57031 3.36047,1.95421 5.47702,5.49945 5.60352,9.38477 -0.15869,5.27853 -1.56211,10.75358 -2.05664,16.08203 -0.0263,0.20908 -0.0663,0.41423 -0.11524,0.61719 l 17.30664,10.19336 9.67188,-7.6836 a 66.742639,66.742639 0 0 0 12.32617,9.70703 l -15.65625,12.43946 c 0.44226,3.13349 0.89016,6.27722 1.32617,9.40625 0.35496,2.39097 -0.0676,4.83205 -1.20507,6.96484 -1.62463,3.03564 -4.54777,5.16306 -7.93555,5.77735 -2.81921,0.50392 -5.70772,0.93359 -8.55078,1.41601 -3.58681,0.58847 -6.457,-0.28142 -13.59961,-3.76758 5.98811,-5.1928 7.92128,-6.70334 11.78711,-7.33789 l 8.35351,-1.37109 -0.002,-0.041 0.0195,-0.0117 -1.50781,-10.70898 -20.30274,-11.94922 c -0.14621,0.099 -0.28628,0.20326 -0.44336,0.28906 l -10.28125,5.81836 3.10938,7.26758 c 1.46463,3.4235 -0.44279,7.13954 5.54883,14.28516 -8.66608,-1.23806 -15.80382,-7.6393 -19.04883,-17.28711 -2.13812,-5.28514 0.001,-11.33544 4.98633,-14.10156 2.77709,-1.66606 5.69848,-3.21716 8.52148,-4.84961 l -14.30078,-8.07618 -4.16992,7.16211 c -1.90389,3.27009 -6.20173,3.63064 -11.43945,12.4668 -2.5644,-7.99166 -0.2407,-14.76618 1.71484,-18.12305 1.37941,-2.36651 2.77222,-4.74169 4.13476,-7.10937 3.11602,-5.39845 10.0177,-7.24903 15.41602,-4.13281 4.54227,2.58202 9.12325,5.15072 13.67774,7.72851 l 1.46679,-10.66211 -0.0293,-0.0449 0.0234,-0.041 -12.98633,-7.55665 c -3.29544,-1.91773 -3.15709,-5.80691 -11.03906,-10.1875 v -0.002 c 2.84971,-0.91479 5.76438,-1.31069 8.42188,-1.30469 z m -21.95118,64.73829 c 0.0768,0.22864 0.19305,0.44081 0.27344,0.66796 0.0477,0.12246 0.0619,0.25059 0.11133,0.37305 z"
       style="color:#000000;font-style:normal;font-variant:normal;font-weight:normal;font-stretch:normal;font-size:medium;line-height:normal;font-family:sans-serif;font-variant-ligatures:normal;font-variant-position:normal;font-variant-caps:normal;font-variant-numeric:normal;font-variant-alternates:normal;font-feature-settings:normal;text-indent:0;text-align:start;text-decoration:none;text-decoration-line:none;text-decoration-style:solid;text-decoration-color:#000000;letter-spacing:normal;word-spacing:normal;text-transform:none;writing-mode:lr-tb;direction:ltr;text-orientation:mixed;dominant-baseline:auto;baseline-shift:baseline;text-anchor:start;white-space:normal;shape-padding:0;clip-rule:nonzero;display:inline;overflow:visible;visibility:visible;opacity:1;isolation:auto;mix-blend-mode:normal;color-interpolation:sRGB;color-interpolation-filters:linearRGB;solid-color:#000000;solid-opacity:1;vector-effect:none;fill:#000000;fill-opacity:1;fill-rule:nonzero;stroke:none;stroke-width:37.03937149;stroke-linecap:round;stroke-linejoin:round;stroke-miterlimit:4;stroke-dasharray:none;stroke-dashoffset:0;stroke-opacity:1;color-rendering:auto;image-rendering:auto;shape-rendering:auto;text-rendering:auto;enable-background:accumulate"
       inkscape:connector-curvature="0" />
  </g>
</svg>
