<?xml version="1.0" encoding="UTF-8" standalone="no"?>
<svg
   id="svg8"
   version="1.1"
   viewBox="0 0 160 160"
   height="160mm"
   width="160mm"
   sodipodi:docname="roboszpon-black-simpler.svg"
   inkscape:version="1.1.2 (0a00cf5339, 2022-02-04)"
   xmlns:inkscape="http://www.inkscape.org/namespaces/inkscape"
   xmlns:sodipodi="http://sodipodi.sourceforge.net/DTD/sodipodi-0.dtd"
   xmlns="http://www.w3.org/2000/svg"
   xmlns:svg="http://www.w3.org/2000/svg"
   xmlns:rdf="http://www.w3.org/1999/02/22-rdf-syntax-ns#"
   xmlns:cc="http://creativecommons.org/ns#"
   xmlns:dc="http://purl.org/dc/elements/1.1/">
  <sodipodi:namedview
     pagecolor="#ffffff"
     bordercolor="#666666"
     borderopacity="1"
     objecttolerance="10"
     gridtolerance="10"
     guidetolerance="10"
     inkscape:pageopacity="0"
     inkscape:pageshadow="2"
     inkscape:window-width="1920"
     inkscape:window-height="1022"
     id="namedview820"
     showgrid="false"
     showguides="false"
     inkscape:zoom="1.4142136"
     inkscape:cx="357.79603"
     inkscape:cy="276.8323"
     inkscape:window-x="0"
     inkscape:window-y="28"
     inkscape:window-maximized="1"
     inkscape:current-layer="svg8"
     inkscape:pagecheckerboard="0"
     inkscape:document-units="mm" />
  <defs
     id="defs2">
    <inkscape:path-effect
       effect="simplify"
       id="path-effect2974"
       is_visible="true"
       lpeversion="1"
       steps="1"
       threshold="0.0004"
       smooth_angles="0"
       helper_size="5"
       simplify_individual_paths="false"
       simplify_just_coalesce="false" />
    <inkscape:path-effect
       effect="simplify"
       id="path-effect1807"
       is_visible="true"
       lpeversion="1"
       steps="1"
       threshold="0.0003"
       smooth_angles="0"
       helper_size="5"
       simplify_individual_paths="false"
       simplify_just_coalesce="false" />
  </defs>
  <metadata
     id="metadata5">
    <rdf:RDF>
      <cc:Work
         rdf:about="">
        <dc:format>image/svg+xml</dc:format>
        <dc:type
           rdf:resource="http://purl.org/dc/dcmitype/StillImage" />
      </cc:Work>
    </rdf:RDF>
  </metadata>
  <g
     style="display:inline"
     transform="matrix(-1,0,0,1,164.8112,-137)"
     id="layer1">
    <path
       id="path963"
       d="m 300.12695,57.667969 c -5.41335,-0.32516 -10.40523,2.337046 -15.06828,4.341797 -27.29678,-0.0022 -54.59579,0.01527 -81.89071,-0.03168 -6.88017,0.04931 -14.21301,1.681719 -19.11327,6.851995 -0.13016,0.119605 -2.10243,2.097453 -2.9161,2.906555 -6.56486,6.569248 -13.13285,13.136483 -19.69912,19.704778 -12.45289,3.865823 -21.83964,15.815239 -22.52534,28.856079 -0.35112,4.64906 -0.1973,9.3495 -0.0732,14.00938 0.63952,6.3124 4.79105,12.11304 10.5614,14.75195 2.26602,5.14782 5.15334,10.02633 8.62305,14.45508 -4.46567,7.53323 -2.58709,16.99067 0.66798,24.60714 2.71195,3.91281 -4.36809,0.20893 -6.6737,1.17455 -8.39484,-0.34342 -17.1175,0.0932 -24.73508,4.01099 -6.67517,3.4618 -13.33836,8.34306 -16.33171,15.47128 -2.09758,5.42214 -1.4211,11.81399 1.78335,16.66772 -6.54386,9.46362 -9.5268,21.53202 -7.29492,32.89649 -1.55396,6.06765 -0.27972,12.46264 0.93164,18.48437 1.97308,8.2162 7.88146,14.51187 13.2831,20.67857 1.79719,2.46758 6.53882,4.21905 7.42803,5.90998 -6.89228,5.17646 -9.17364,15.4065 -5.07241,23.00136 -5.42,4.53712 -8.34126,11.14552 -11.72879,17.17768 -4.92685,10.45467 -5.33915,23.26033 -0.25313,33.72369 3.3434,5.97139 10.21039,9.71857 17.04244,9.28416 4.92333,10.39968 13.88326,19.01836 24.84179,22.76758 4.47742,4.37946 10.65234,6.4737 16.47266,8.43555 3.02112,1.34015 8.44376,0.37847 10.16084,1.45263 -2.72372,5.44332 -4.80009,11.2144 -6.11592,17.1587 -10.22498,-0.70309 -20.84585,5.60141 -23.92685,15.6055 -1.91285,6.27956 -0.94724,12.90548 -1.18448,19.36921 -0.12887,6.41798 -0.14587,13.28264 3.74838,18.73682 4.66271,7.25854 13.62803,10.92971 22.07779,10.31381 5.85478,19.8491 23.01748,36.19905 43.5762,39.79267 8.79251,1.538 17.75318,0.74917 26.6311,0.97696 18.36441,0.41654 36.86207,-1.90262 54.29856,-7.80086 4.05015,3.85934 7.70667,8.16978 12.12161,11.61336 5.99474,4.27933 13.50613,2.85993 20.37933,3.11125 3.79592,0.91337 7.1327,4.5767 11.56326,4.33105 7.12512,0.11302 14.2661,0.14496 21.38977,-0.0206 9.583,-0.74776 17.33737,-9.91924 16.62611,-19.4804 5.69888,-1.99433 10.80652,-5.35421 16.21342,-8.01969 15.02123,-8.07652 30.3431,-15.57084 45.54439,-23.29867 4.58916,0.97559 9.03546,-3.52825 13.03122,-1.68168 10.2836,4.76281 23.94414,-0.15291 28.15872,-10.85907 0.93919,-3.37333 1.53505,-5.88854 5.54478,-5.13154 13.25518,-1.51964 23.97103,-14.45784 22.68042,-27.79743 0.19124,-5.08962 -3.30642,-9.32723 -4.41318,-13.8511 0.25371,-4.79042 -0.99192,-9.7308 -4.10547,-13.46432 9.79034,-3.26862 16.55834,-13.47176 15.6875,-23.76802 -0.0452,-17.88091 0.0909,-35.76646 -0.069,-53.64445 -0.75761,-11.99908 -12.09835,-22.05378 -24.11386,-21.30628 -3.87395,0 -7.7479,0 -11.62185,0 -0.82413,-2.50795 -5.06078,-5.6774 -0.49322,-6.50288 9.79632,-5.41682 15.5043,-17.5911 12.5733,-28.52466 7.57609,-3.32646 12.13632,-11.63024 12.14062,-19.72656 0.005,-0.005 6.2e-4,-2.95329 0.002,-4.07247 -0.0472,-5.98925 0.66655,-12.49293 -3.12904,-17.62641 -1.99651,-2.52171 4.7172,-2.74286 6.00106,-5.13557 6.18441,-4.77506 9.27988,-12.6963 8.71679,-20.39705 0.008,-17.64354 0.169,-35.2903 0.0802,-52.93181 -0.65695,-11.76208 -11.50583,-21.83351 -23.30378,-21.4988 -0.69153,-0.006 -2.83666,1.3e-4 -4.02688,-0.002 -2.85299,0 -5.70599,0 -8.55899,0 -11.39401,-22.56413 -34.79972,-38.56091 -60.04372,-40.58776 -1.71385,-0.61212 -7.37192,0.38195 -7.03157,-0.92141 9.02402,-9.26183 10.72264,-24.600766 3.70815,-35.512345 -6.86199,-11.6723 -22.28922,-17.644156 -35.05343,-12.693466 -2.90992,0.589429 -5.11572,3.331827 -8.02331,3.427871 -18.54735,0 -37.09471,0 -55.64206,0 -4.81763,-5.99952 -12.32412,-9.821276 -20.05864,-9.769591 z m 0.0195,18.519531 c 5.78081,-0.282471 9.69482,7.076217 6.22919,11.712285 -2.98805,4.9475 -11.21845,4.078845 -13.16278,-1.325566 -24.23632,0 -48.47263,0 -72.70895,0 -10.38346,10.383464 -20.76693,20.766931 -31.15039,31.150391 18.71549,0 37.43099,0 56.14648,0 -0.32614,-8.53243 4.63663,-17.51373 13.20291,-19.912501 6.06774,-1.805307 12.46376,-0.842381 18.69698,-1.0875 8.90143,0.02539 18.11465,-0.584964 26.46467,3.141635 3.78432,0.329976 7.6475,6.086456 10.64321,4.565356 6.15822,-6.158842 12.31643,-12.317682 18.47465,-18.476522 17.01758,0 34.03516,0 51.05274,0 3.73337,-6.33494 13.69612,-6.899982 18.14392,-1.070697 4.82543,5.424575 2.47757,14.960327 -4.30589,17.537639 -4.88993,2.17204 -11.13772,0.22086 -13.90249,-4.369286 -15.32552,0 -30.65104,0 -45.97656,0 -5.27604,5.274736 -10.55208,10.549476 -15.82812,15.824216 3.26238,0.35098 6.83999,0.0501 10.22359,0.15039 8.83497,0.009 17.75829,-0.0183 26.53812,0.0137 0.10248,25.54389 -14.23566,50.43156 -36.26895,63.30791 -12.72732,7.74514 -27.77687,10.9451 -42.52465,10.47723 -31.19922,-0.0101 -62.39887,0.0201 -93.59781,-0.0151 -6.63838,0.0578 -12.10059,-5.75106 -12.46648,-12.2297 -1.5109,-3.509 1.89438,-2.48837 3.99551,-2.60677 2.84154,0.77083 3.74448,-1.09941 4.33771,-3.6348 1.81311,-4.26995 4.23393,-8.28115 7.16726,-11.87497 0.72183,5.06438 1.06453,12.10185 4.43157,15.50977 3.12177,0 6.24354,0 9.36531,0 1.6503,-4.22557 5.5205,-12.2411 7.99265,-12.88572 0.9009,4.03444 0.59004,10.80557 3.95385,12.88572 1.95992,-0.2577 4.52077,0.87105 5.57499,-1.47126 10.39463,-11.29324 23.61458,-20.99726 39.15713,-23.23836 2.56023,-1.09325 8.85602,0.26841 8.99801,-1.72397 -3.1814,-3.99438 -3.04604,-11.40968 -6.01181,-14.23633 -12.20273,0 -24.40545,0 -36.60818,0 -2.79743,5.7058 -4.48221,11.95594 -4.91211,18.29687 -4.36927,-5.34802 -7.5872,-11.62883 -9.38281,-18.29687 -3.08854,0 -6.17709,0 -9.26563,0 -3.2303,6.08005 -5.18364,12.83961 -5.64844,19.71093 -4.67794,-5.72409 -8.03141,-12.51929 -9.74023,-19.71093 -2.73307,0 -5.46615,0 -8.19922,0 -3.51638,6.30544 -5.62262,13.39189 -6.10937,20.5957 -4.87026,-5.95833 -8.30544,-13.07727 -9.94532,-20.5957 -1.99024,0 -3.98047,0 -5.97071,0 0.1963,-4.73758 -0.50402,-9.5755 0.60887,-14.22067 1.63485,-5.58122 7.0977,-9.73153 12.91652,-9.79107 9.01478,-8.967336 17.93464,-18.037055 27.01046,-26.9387 4.51035,-2.457287 6.19296,4.249138 2.36313,6.118541 -7.48218,7.493205 -14.97489,14.975889 -22.46148,22.464689 3.42919,0.60015 4.83483,7.89991 7.52696,3.37929 10.92916,-10.92916 21.85833,-21.858327 32.78749,-32.787493 25.11393,0 50.22787,0 75.3418,0 1.17925,-2.605724 3.9428,-4.369498 6.8027,-4.341787 z m 93.34375,10.246094 c -4.80747,-0.262763 -7.55209,6.369275 -3.96944,9.582717 3.21345,3.582654 9.8455,0.838041 9.58273,-3.969436 0.0648,-3.018142 -2.59308,-5.677725 -5.61329,-5.613281 z M 263.75,105.06445 c -7.20981,-0.32825 -12.42735,8.43478 -8.70345,14.61835 3.12713,6.42959 13.18137,6.91674 16.91261,0.81671 4.51236,-6.2778 -0.47087,-15.66388 -8.20916,-15.43506 z m -93.11133,10.26367 c -4.8052,-0.26105 -7.54931,6.36725 -3.96818,9.58008 3.21273,3.58362 9.84437,0.83821 9.58146,-3.96875 0.0637,-3.01743 -2.59381,-5.67573 -5.61328,-5.61133 z m 196.2168,15.91602 c 16.83657,0.0546 33.73399,-0.1105 50.53126,0.085 20.6146,0.41522 40.26389,13.25077 49.09127,31.8557 1.74749,2.72736 2.19012,6.94513 3.98936,9.05729 8.51611,0.0504 17.0416,-0.10121 25.55179,0.0765 6.02626,1.01918 3.72625,10.42996 -2.0555,8.98789 -7.4,0 -14.79999,0 -22.19998,0 1.35782,2.46899 -1.30297,8.39315 1.37233,9.07227 7.59235,0.0577 15.1959,-0.11642 22.78112,0.0888 5.90564,1.01763 3.75541,10.30183 -1.95347,8.98342 -7.28802,0 -14.57603,0 -21.86404,0 0,2.94792 0,5.89583 0,8.84375 7.93774,0.0579 15.88674,-0.1168 23.81732,0.089 5.90397,1.01841 3.75452,10.30055 -1.95328,8.98327 -7.28802,0 -14.57603,0 -21.86404,0 0.9725,2.64521 -1.93369,8.4329 0.93017,8.84375 7.62779,0.0571 15.26667,-0.11554 22.88734,0.0888 5.90564,1.01763 3.75541,10.30183 -1.95347,8.98342 -8.0276,0 -16.05519,0 -24.08279,0 -0.0721,3.31841 -4.87537,7.23613 -1.04679,9.54094 6.37953,6.37893 12.75906,12.75787 19.13859,19.1368 -0.13835,4.36163 0.29098,8.79226 -0.24174,13.1064 -1.72622,3.61506 -6.99415,0.94626 -5.80514,-2.64208 0,-2.65152 0,-5.30304 0,-7.95456 -5.95898,-5.95898 -11.91797,-11.91797 -17.87695,-17.87695 -1.05507,2.93218 -5.29407,5.78933 -5.07738,8.28988 4.36433,4.36496 8.72867,8.72993 13.093,13.09489 0,8.05338 0,16.10677 0,24.16015 5.31967,2.01892 6.11041,10.1541 1.21196,13.11872 -4.63647,3.46793 -11.99809,-0.44759 -11.71391,-6.23005 -0.52999,-3.50416 3.12722,-5.52513 4.45703,-7.63078 0,-6.97203 0,-13.94406 0,-20.91609 -3.92773,-3.92773 -7.85547,-7.85547 -11.7832,-11.7832 -10.89662,10.39618 -26.09424,15.80905 -41.04861,15.34175 -35.36205,0 -70.72411,0 -106.08616,0 4.89649,-4.94596 9.79297,-9.89193 14.68946,-14.83789 23.51562,0 47.03125,0 70.54687,0 2.57167,6.19858 11.8977,7.44001 15.95212,2.03899 4.62328,-5.11747 1.3838,-14.28495 -5.42337,-15.37125 -4.26452,-1.09163 -8.54346,1.67945 -10.64526,5.01195 -24.63304,0 -49.26607,0 -73.89911,0 -7.64128,7.7194 -15.28255,15.4388 -22.92383,23.1582 -4.30534,0 -8.61068,0 -12.91602,0 5.38812,-5.42783 10.8584,-10.77846 16.19444,-16.25521 3.16904,-3.84149 -2.99302,-9.19025 -6.33116,-5.36783 -7.20898,7.20768 -14.41797,14.41536 -21.62695,21.62304 -8.3125,0 -16.625,0 -24.9375,0 0,10.54492 0,21.08985 0,31.63477 5.02642,-0.038 10.21002,0.0758 15.13863,-0.0566 -0.27493,-7.9878 7.95268,-14.69506 15.72299,-12.81989 5.95251,1.11308 10.59532,6.81697 10.44493,12.87649 5.03033,-0.038 10.21781,0.0758 15.15034,-0.0566 -0.27493,-7.9878 7.95268,-14.69506 15.72299,-12.81989 5.95251,1.11308 10.59532,6.81697 10.44493,12.87649 5.03033,-0.038 10.21781,0.0758 15.15034,-0.0566 -0.27486,-7.98715 7.9514,-14.69419 15.72134,-12.82024 5.95324,1.11239 10.59701,6.81672 10.44658,12.87684 5.03033,-0.038 10.21781,0.0758 15.15034,-0.0566 -0.27486,-7.98715 7.9514,-14.69419 15.72134,-12.82024 5.95324,1.11239 10.59701,6.81672 10.44658,12.87684 10.75373,-0.34223 21.77658,1.48211 31.29271,6.77655 13.29174,7.09458 23.50366,19.70946 27.6116,34.21169 8.65532,0.0577 17.32188,-0.11654 25.97004,0.089 5.90397,1.01841 3.75452,10.30055 -1.95328,8.98327 -7.4,0 -14.79999,0 -22.19998,0 1.35195,2.47509 -1.29388,8.38362 1.37233,9.07226 7.59228,0.0578 15.19581,-0.11663 22.78093,0.089 5.90397,1.01841 3.75452,10.30055 -1.95328,8.98327 -7.28802,0 -14.57603,0 -21.86404,0 0,2.94792 0,5.89583 0,8.84375 7.97201,0.0507 15.95346,-0.10163 23.91954,0.0765 6.02626,1.01918 3.72625,10.42996 -2.0555,8.98789 -7.28802,0 -14.57603,0 -21.86404,0 0.76556,2.71877 -1.5349,7.94468 0.68475,8.84375 7.70959,0.0572 15.4303,-0.11571 23.13276,0.0888 5.90564,1.01763 3.75541,10.30183 -1.95347,8.98342 -8.01588,0 -16.03175,0 -24.04763,0 -0.18162,2.87982 -3.41252,6.17317 -2.16954,8.5336 6.74206,6.74206 13.48412,13.48411 20.22618,20.22617 0,3.60547 0,7.21094 0,10.81641 5.29452,2.03965 6.06336,10.14608 1.17875,13.10309 -4.63647,3.46793 -11.99809,-0.44759 -11.71391,-6.23005 -0.53187,-3.51852 3.14631,-5.54143 4.48828,-7.64445 0,-2.51174 0,-5.02349 0,-7.53523 -5.95378,-5.95378 -11.90755,-11.90755 -17.86133,-17.86133 -1.14801,3.11381 -5.55785,6.11854 -5.48157,8.76048 2.53487,2.53427 5.06975,5.06853 7.60462,7.6028 -0.0319,13.12664 0.0639,26.25746 -0.048,39.38148 -0.8059,4.1872 -7.29266,2.20468 -5.99694,-1.76714 0,-11.70403 0,-23.40806 0,-35.11209 -2.11133,-2.11068 -4.22266,-4.22135 -6.33399,-6.33203 -2.57063,3.06337 -7.32481,4.71619 -9.30078,7.69915 0,7.7982 0,15.5964 0,23.3946 5.2961,2.03834 6.06602,10.14659 1.18008,13.10351 -4.6359,3.4667 -11.99582,-0.44715 -11.71328,-6.22851 -0.53188,-3.51852 3.14631,-5.54144 4.48828,-7.64446 0,-6.76044 0,-13.52088 0,-20.28132 -8.32048,3.80527 -17.57405,5.14759 -26.57081,4.77944 -27.39509,0 -54.79017,0 -82.18526,0 -8.71325,-8.64672 -17.30008,-17.43109 -26.09311,-25.99095 -3.94525,-3.0454 -8.95458,3.20782 -5.24478,6.41282 6.52669,6.52604 13.05339,13.05209 19.58008,19.57813 -4.08073,0 -8.16146,0 -12.24219,0 -8.71261,-8.64671 -17.29873,-17.43114 -26.09115,-25.99095 -3.94559,-3.04592 -8.95725,3.20657 -5.24674,6.41282 6.52604,6.52604 13.05209,13.05209 19.57813,19.57813 -4.23235,0 -8.46471,0 -12.69706,0 -8.9987,-8.9987 -17.99739,-17.9974 -26.99609,-26.9961 -5.71354,0 -11.42709,0 -17.14063,0 -2.73764,-5.9785 -11.83096,-7.02956 -15.81008,-1.74145 -4.62205,5.11715 -1.38365,14.28284 5.42227,15.37024 4.3829,1.12453 8.76754,-1.81686 10.79143,-5.31043 4.43252,0 8.86503,0 13.29755,0 6.22591,6.22591 12.45183,12.45183 18.67774,18.67774 -7.90365,0 -15.80729,0 -23.71094,0 0,10.54232 0,21.08463 0,31.62695 16.67402,0.12536 33.40904,2.4057 49.2832,7.60547 6.07943,-6.07747 12.15885,-12.15495 18.23828,-18.23242 5.61263,0 11.22526,0 16.83789,0 2.30671,-6.92501 11.92275,-9.43208 17.34658,-4.61191 5.65602,4.31775 5.19192,13.93185 -0.85059,17.68799 -5.38944,3.88708 -13.85545,1.44485 -16.29872,-4.76358 -4.5319,0 -9.0638,0 -13.5957,0 -4.3457,4.347 -8.69141,8.69401 -13.03711,13.04101 2.99623,1.01118 5.73177,3.11194 9.02184,2.60742 20.71212,0 41.42424,0 62.13636,0 -0.0111,-3.19271 -0.0221,-6.38541 -0.0332,-9.57812 8.57161,4.57357 17.14323,9.14713 25.71484,13.7207 -8.53971,4.50977 -17.07943,9.01953 -25.61914,13.5293 -0.0111,-3.11719 -0.0221,-6.23437 -0.0332,-9.35156 -20.02149,0 -40.04297,0 -60.06446,0 -2.38446,1.24956 -6.11364,2.21392 -2.52338,4.36635 3.73045,3.72879 7.4609,7.45759 11.19135,11.18638 6.61849,0 13.23698,0 19.85547,0 0,-1.71419 0,-3.42839 0,-5.14258 5.95378,0 11.90755,0 17.86133,0 0,5.95378 0,11.90755 0,17.86133 -5.95378,0 -11.90755,0 -17.86133,0 -0.19367,-1.36144 0.37459,-3.48482 -0.25909,-4.40625 -7.68121,0 -15.36243,0 -23.04364,0 -5.92253,-5.92257 -11.84505,-11.84515 -17.76758,-17.76772 -18.48148,8.16442 -38.83241,11.38699 -58.95587,10.84368 -7.51042,-0.17979 -15.06376,0.36707 -22.53583,-0.52104 -15.91459,-2.184 -28.75464,-15.96794 -31.06966,-31.66222 -1.67226,-2.5041 1.70091,-9.36933 -2.64909,-8.58674 -5.91255,-0.0383 -11.84074,0.13503 -17.74377,-0.0953 -5.6609,-0.98488 -3.73449,-10.21213 1.84477,-8.97446 6.00849,0 12.01698,0 18.02547,0 0.001,-2.94792 0.003,-5.89583 0.004,-8.84375 -6.62293,-0.0625 -13.26083,0.12674 -19.87414,-0.0978 -5.66092,-0.98485 -3.73449,-10.21215 1.84477,-8.97448 6.01044,0 12.02088,0 18.03132,0 -1.11685,-20.46089 10.04812,-40.9001 27.76957,-51.14785 9.93707,-6.05852 21.72739,-8.29674 33.22067,-7.89703 -0.3161,-8.00826 7.93103,-14.75812 15.72098,-12.87649 5.95251,1.11307 10.59533,6.81696 10.44494,12.87649 5.03033,-0.038 10.21781,0.0758 15.15034,-0.0566 -0.27486,-7.98715 7.9514,-14.69419 15.72134,-12.82024 5.95324,1.11239 10.59701,6.81672 10.44658,12.87684 5.03034,-0.038 10.21782,0.0758 15.15035,-0.0566 -0.27485,-7.98715 7.95141,-14.6942 15.72135,-12.82024 5.95324,1.11239 10.59701,6.81672 10.44658,12.87684 5.03034,-0.038 10.21782,0.0758 15.15035,-0.0566 -0.27485,-7.98715 7.95141,-14.6942 15.72135,-12.82024 5.95324,1.11239 10.59701,6.81672 10.44658,12.87684 5.06836,0 10.13672,0 15.20508,0 0,-10.54493 0,-21.08987 0,-31.6348 -12.48429,0 -24.96858,0 -37.45287,0 -0.0622,-6.1887 0.12639,-12.39232 -0.0978,-18.57141 -0.98488,-5.6609 -10.21213,-3.73449 -8.97446,1.84477 0,5.57554 0,11.15109 0,16.72664 -2.94857,0 -5.89713,0 -8.8457,0 -0.0426,-6.19727 0.0864,-12.40334 -0.0668,-18.59494 -0.72214,-5.52258 -9.94244,-4.16877 -8.99556,1.35012 0,5.74827 0,11.49655 0,17.24482 -2.94792,0 -5.89583,0 -8.84375,0 -0.063,-6.18824 0.12788,-12.39169 -0.099,-18.57014 -0.98853,-5.65392 -10.20495,-3.73078 -8.97331,1.8435 0,5.57554 0,11.15109 0,16.72664 -3.02409,0 -6.04817,0 -9.07226,0 -0.063,-6.18824 0.12788,-12.39169 -0.099,-18.57014 -0.98853,-5.65392 -10.20495,-3.73078 -8.97331,1.8435 0,5.57554 0,11.15109 0,16.72664 -23.08138,0 -46.16276,0 -69.24414,0 -18.02117,0.0542 -35.84968,-9.05352 -46.19664,-23.88366 -7.61021,-10.52808 -11.10611,-23.70833 -10.38149,-36.62515 0.0825,-10.68567 -0.18133,-21.38019 0.16495,-32.05921 1.38132,-21.41492 16.19903,-41.13104 36.31147,-48.5514 7.7801,-3.08977 16.20784,-3.90715 24.51382,-3.67547 -0.31483,-8.00745 7.93156,-14.7558 15.72072,-12.87459 5.95194,1.11287 10.59465,6.81564 10.4452,12.87459 5.03033,-0.038 10.21781,0.0758 15.15034,-0.0566 -0.27356,-7.98633 7.95192,-14.69187 15.72107,-12.81833 5.95267,1.11218 10.59634,6.81539 10.44685,12.87493 5.03034,-0.038 10.21782,0.0758 15.15035,-0.0566 -0.27357,-7.98634 7.95193,-14.69188 15.72108,-12.81833 5.95267,1.11218 10.59634,6.81539 10.44685,12.87493 5.03034,-0.038 10.21782,0.0758 15.15035,-0.0566 -0.27357,-7.98634 7.95193,-14.69188 15.72108,-12.81833 5.95267,1.11218 10.59634,6.81539 10.44685,12.87493 5.06836,0 10.13672,0 15.20508,0 0,-10.54492 0,-21.08984 0,-31.63476 -30.42773,0 -60.85547,0 -91.2832,0 8.28597,-4.33917 15.82721,-10.09428 22.19922,-16.94141 15.97135,0 31.94271,0 47.91406,0 3.69596,6.40764 13.7359,7.01965 18.20837,1.15664 4.82543,-5.42458 2.47759,-14.96033 -4.30588,-17.53765 -4.85501,-2.15655 -11.05139,-0.24605 -13.83804,4.28336 -12.88216,0 -25.76432,0 -38.64648,0 5.31166,-8.41458 9.0872,-17.79375 11.0881,-27.54106 z m 36.99023,29.82813 c 6.41218,-0.0121 3.24307,10.44878 -2.09217,6.84708 -3.05641,-1.89203 -1.50291,-6.98663 2.09217,-6.84708 z m -225.98437,39.94531 c 5.09363,4.64282 8.8256,11.3752 7.93629,18.4552 -0.42039,5.33785 0.93928,11.02352 -1.16433,16.09813 -2.79931,5.95824 -10.02853,6.94845 -15.44243,9.4025 -3.30598,0.5462 -5.06743,2.14416 -4.35737,5.40564 -0.048,5.48563 -0.096,10.97126 -0.14403,16.45689 4.77279,1.88281 9.54557,3.76563 14.31836,5.64844 0,5.472 0,10.94401 0,16.41601 -7.89062,-3.11328 -15.78125,-6.22656 -23.67187,-9.33984 -4.65449,3.13595 -8.62406,8.48596 -14.76058,8.29146 -4.90145,0.0966 -8.42952,-3.66536 -11.08077,-7.32171 -2.90736,-3.21764 -5.61587,-6.87555 -5.75573,-11.41191 -0.65967,-3.46599 -1.1811,-7.17781 3.16945,-4.30526 4.0612,1.15172 7.63968,3.55101 10.02647,7.0375 1.31785,1.55644 2.60134,3.2785 3.94019,4.73337 2.84049,-2.22005 5.68099,-4.4401 8.52148,-6.66015 0.0658,-7.85221 0.13151,-15.70443 0.19727,-23.55664 -3.5818,-2.02151 -7.09669,-4.16514 -10.65234,-6.23438 -2.68665,3.34235 -4.77566,7.29398 -8.53796,9.59397 -3.05367,1.31821 -4.85166,7.84287 -6.08836,7.91619 -3.51351,-9.65955 0.80315,-21.09019 8.82785,-27.11097 4.52073,-2.94077 10.18877,-1.42721 14.26282,1.52098 1.93409,0.47785 6.59672,5.65961 5.79327,1.36464 -0.0455,-4.78374 -0.091,-9.56747 -0.13653,-14.35121 -4.44907,-0.24213 -9.16149,0.74808 -13.26041,-1.49313 -3.11207,-1.99022 -9.75014,-1.56189 -11.01171,-2.78063 5.08255,-5.49768 12.81918,-7.69115 20.13527,-6.98805 4.56967,-0.37803 9.82866,0.17824 12.81885,4.1142 4.03243,4.74191 2.1556,11.34892 2.66744,16.9953 -0.13156,3.33366 -0.75917,7.40264 3.17603,4.62176 2.29847,-0.94947 4.65997,-1.87249 6.91978,-2.83856 0.10413,-5.45734 -0.14213,-10.93969 0.20252,-16.37996 1.65157,-4.3138 3.53333,-8.53532 3.15108,-13.29978 z M 146.9043,316.68359 c 5.21371,-0.36046 9.72479,2.43724 13.96705,5.07761 4.56993,2.96396 10.8968,4.92574 12.43402,10.82023 1.31586,6.29687 -1.25961,12.61595 -1.60029,18.91271 0.11593,1.53382 2.72885,1.93165 3.90315,2.98396 4.42942,2.60887 8.85883,5.21773 13.28825,7.82659 3.22396,-2.5612 6.44792,-5.1224 9.67188,-7.6836 2.9716,3.94748 10.06016,7.17735 11.71761,10.19055 -5.0159,3.98532 -10.03179,7.97063 -15.04769,11.95594 0.3893,5.59907 3.03912,11.7121 -0.19853,16.92948 -2.3677,4.29294 -7.39007,5.467 -11.88237,5.93503 -4.24003,0.90874 -8.7619,1.42573 -12.76024,-0.72129 -3.33149,-1.16169 -6.80647,-2.56603 -2.14359,-4.89744 3.02807,-2.94115 6.89506,-4.8412 11.10801,-5.16447 2.00735,-0.36365 4.13868,-0.61157 6.07,-1.04612 -0.5026,-3.56966 -1.00521,-7.13932 -1.50781,-10.70898 -6.76758,-3.98307 -13.53516,-7.96615 -20.30274,-11.94922 -3.54092,2.09163 -7.15507,4.06285 -10.72461,6.10742 1.55097,3.99811 3.92861,7.78328 4.03926,12.1916 -0.38541,3.30346 4.36609,8.1225 3.81105,9.23 -10.12209,-1.78672 -17.86329,-11.24004 -19.0649,-21.20002 -0.28639,-5.38552 3.85833,-9.53761 8.44869,-11.59175 1.38092,-1.43596 8.19953,-2.88294 4.0783,-4.3346 -4.16533,-2.35232 -8.33066,-4.70463 -12.49599,-7.05695 -2.43348,3.73189 -3.93149,8.30785 -7.92166,10.73679 -3.27953,1.70028 -6.22766,7.66327 -7.91396,8.14653 -2.22009,-7.15043 -0.25108,-14.94678 4.0148,-20.93171 1.95661,-4.14677 5.06805,-8.42276 9.97142,-9.04476 6.12284,-1.12146 10.90626,3.80769 16.05185,6.18798 2.82116,1.78094 6.03134,4.35917 5.59057,-0.43936 0.32724,-2.46542 0.70742,-4.9693 1.00186,-7.41129 -4.6739,-2.81884 -9.54466,-5.34675 -14.08353,-8.36532 -2.8687,-3.5535 -5.67932,-7.36719 -9.94186,-9.38083 2.71648,-0.86935 5.57016,-1.30718 8.422,-1.30471 z"
       style="color:#000000;font-style:normal;font-variant:normal;font-weight:normal;font-stretch:normal;font-size:medium;line-height:normal;font-family:sans-serif;font-variant-ligatures:normal;font-variant-position:normal;font-variant-caps:normal;font-variant-numeric:normal;font-variant-alternates:normal;font-feature-settings:normal;text-indent:0;text-align:start;text-decoration:none;text-decoration-line:none;text-decoration-style:solid;text-decoration-color:#000000;letter-spacing:normal;word-spacing:normal;text-transform:none;writing-mode:lr-tb;direction:ltr;text-orientation:mixed;dominant-baseline:auto;baseline-shift:baseline;text-anchor:start;white-space:normal;shape-padding:0;clip-rule:nonzero;display:inline;overflow:visible;visibility:visible;opacity:1;isolation:auto;mix-blend-mode:normal;color-interpolation:sRGB;color-interpolation-filters:linearRGB;solid-color:#000000;solid-opacity:1;vector-effect:none;fill:none;fill-opacity:1;fill-rule:nonzero;stroke:#000000;stroke-width:2;stroke-linecap:round;stroke-linejoin:round;stroke-miterlimit:4;stroke-dasharray:none;stroke-dashoffset:0;stroke-opacity:1;color-rendering:auto;image-rendering:auto;shape-rendering:auto;text-rendering:auto;enable-background:accumulate"
       inkscape:connector-curvature="0"
       transform="matrix(0.26458333,0,0,0.26458333,0,137)"
       sodipodi:nodetypes="ccsscccccccsccccccccccssssccccscccccsscccccccccscccssssccccccscccscccccssccsscccsscccsscsccccccccccccccccssccsccsccccccsccccccccccccccccscccccccccccccccccccccccsccccccccccsscccccccccccccccccccccsccccccsccccsccccccscccccccccccccccccsccccccccccccccccccccsccccsccccsccccsccccsccsccccccscccccsccccccsccccccscccccccccccccscccccccccccccccccccccsccccccccccccccccccccccccccccccccccsccccccccccccccsccccsccccsccccsccccccccccccccccccccccccccccccsccccsccccsccccccccccccccccccccccccsccccccccccccccccccccccccccccccccccccccsssccccccccccccccscccccccccccccscccccccccccss"
       inkscape:path-effect="#path-effect2974"
       inkscape:original-d="m 300.12695,57.667969 c -5.1725,0.0038 -10.11654,1.586937 -14.29101,4.341797 h -67.83399 c -6.44567,0 -14.34639,-0.372165 -20.14843,0.351562 -5.1936,0.647831 -10.13743,2.698342 -13.79883,6.46875 l 0.20117,-0.205078 -4.31836,4.310547 -0.0117,0.01563 -18.48633,18.490234 c -12.26412,3.954822 -21.40937,15.028169 -22.45898,28.244139 v 0.002 c -0.065,0.81959 -0.24913,1.60734 -0.25,2.44141 v 0.0176 0.0156 0.44531 0.008 c -0.008,0.34734 -0.008,0.69154 0,1.03907 v 8.65233 c 0.009,7.18057 4.16807,13.70875 10.67187,16.75195 2.26402,5.13975 5.13357,9.99875 8.62305,14.45508 -1.71051,2.86065 -2.61739,6.12984 -2.625,9.46289 0,5.87868 1.45704,11.87167 4.29102,17.15821 -2.15403,-0.50899 -4.3671,-0.84007 -6.65821,-0.83985 h -0.0254 c -2.62311,0.004 -5.34296,-0.016 -8.12109,-0.0273 h -0.004 c -8.34016,-0.034 -20.47022,2.77107 -30.34179,13.6543 -5.64192,6.22886 -6.38282,15.47567 -1.80469,22.52343 -6.58362,9.56859 -9.51196,21.49943 -7.29492,32.89649 -0.61398,2.09325 -0.85333,4.27857 -0.70703,6.45508 0.30181,4.33421 0.58501,7.88777 1.63867,12.02929 1.05365,4.14153 3.46928,8.93516 6.04492,12.08009 0.0215,0.0265 0.0429,0.0521 0.0645,0.0781 1.67655,2.02425 3.5247,4.35189 5.60742,6.82226 l 0.0293,0.0352 c 2.61791,3.08923 5.86784,5.46188 9.4043,7.24023 -4.74684,3.48495 -7.55362,9.01947 -7.56055,14.9082 v 0.002 c 0.007,2.93049 0.70909,5.8175 2.04883,8.42383 -2.34226,2.05542 -4.47131,4.39724 -6.09766,7.21484 l -0.0117,0.0234 c -1.31187,2.27965 -2.68822,4.625 -4.08398,7.01952 l -0.002,0.002 c -4.19867,7.2074 -7.83686,19.11344 -3.34766,33.10352 2.57426,7.99952 10.21157,13.26344 18.60352,12.82225 4.99484,10.48725 13.86241,18.98904 24.84179,22.76758 1.50571,1.57833 3.27839,2.87822 5.23633,3.83984 3.90438,1.90564 7.1228,3.43747 11.23633,4.59571 3.17445,0.89386 6.95768,1.1047 10.42383,0.93164 -2.82556,5.54562 -5.00101,11.46244 -6.37891,17.67969 h -1.96094 c -6.15523,-0.0265 -13.14445,2.92837 -17.31445,7.60546 -4.17,4.67713 -5.83594,10.19329 -5.83594,15.45118 v 17.91601 c 0,5.25793 1.66456,10.77363 5.83594,15.45117 4.17138,4.67751 11.1651,7.63032 17.32031,7.60352 0.36662,4e-5 2.07755,-0.003 2.66992,-0.002 6.79607,22.37378 27.1136,40.73047 53.88477,40.73047 l 21.17383,0.0508 c 19.65404,0.0476 36.12738,-3.36717 49.44726,-7.8125 l 9.30078,9.30078 c 3.47339,3.47285 8.18398,5.42383 13.09571,5.42383 h 11.34375 c 3.33957,2.83721 7.57693,4.39846 11.95898,4.40625 h 17.86133 c 10.22758,-10e-4 18.5184,-8.29195 18.51953,-18.51954 v -1.05664 c 1.33191,-0.35111 2.62044,-0.84959 3.8418,-1.48632 l 25.61914,-13.5293 32.29687,-16.30274 c 3.9574,-5.6e-4 7.69303,-1.00583 11.08399,-2.65234 3.42315,1.92518 7.07479,2.77149 10.5918,2.77148 4.92839,0 10.13817,-1.55937 14.58203,-5.60546 3.30054,-3.00514 5.61777,-7.55913 6.52539,-12.04297 0.23093,0.008 0.4476,0.0703 0.67968,0.0703 14.15778,-0.002 26.031,-11.87739 26.0293,-26.03516 v -0.0117 c -0.003,-5.27003 -1.64368,-10.29949 -4.49023,-14.51953 v -3.1582 c -0.008,-4.22207 -1.45466,-8.31534 -4.10547,-11.60156 8.99981,-3.15999 15.6875,-11.75758 15.6875,-21.69531 v -53.9668 c 0,-12.54648 -10.60008,-23.10559 -23.14649,-23.05664 h -12.6582 c -0.92451,-1.79758 -1.95782,-3.52298 -3.01953,-5.23242 9.23989,-4.03711 15.85867,-13.31891 15.85742,-23.88477 v -0.008 c -0.001,-2.01918 -0.30423,-3.98348 -0.75781,-5.90235 1.76084,-0.84778 3.48777,-1.87911 5.09766,-3.33007 4.41902,-3.98283 7.14467,-10.71442 7.04296,-16.39649 l 0.002,0.33203 v -11.75976 c -0.008,-4.1932 -1.43635,-8.25993 -4.05469,-11.53516 8.97441,-3.17458 15.63672,-11.7584 15.63672,-21.67773 l 0.14062,-53.75 c 0.12322,-12.70481 -10.66025,-23.43658 -23.35742,-23.27149 l 0.1426,-0.002 h -0.18555 c -0.008,1.1e-4 -0.0159,-0.002 -0.0234,-0.002 -0.0265,6e-4 -0.0497,9e-4 -0.0742,0.002 h -12.44532 c -12.18527,-23.69938 -36.50499,-40.07875 -64.62109,-40.85352 -0.70692,-0.0892 -1.41838,-0.13735 -2.13086,-0.14453 h -0.81055 c 5.2585,-5.39244 8.55924,-12.70163 8.5586,-20.679685 -9.5e-4,-16.226835 -13.554,-29.778591 -29.78125,-29.777344 h -0.0215 c -5.93419,0.0076 -11.53118,1.969393 -16.34179,5.167969 h -56.9375 c -4.7907,-5.900077 -12.00901,-9.76642 -20.03711,-9.767578 h -0.0215 z m 0.0195,18.519531 c 4.14837,5.86e-4 7.51113,3.363354 7.51172,7.511719 4.9e-4,4.149128 -3.36259,7.513086 -7.51172,7.513672 -3.03619,-0.0031 -5.77206,-1.83344 -6.93359,-4.638672 H 220.50391 L 189.35352,117.72461 H 245.5 c 0,-13.26335 8.55775,-21.000001 20.5,-21.000001 h 21.75 c 9.42739,0.01155 18.46573,3.103085 25.8418,8.623051 l 19.39062,-19.392582 h 51.05274 c 2.06924,-3.216883 5.63014,-5.163208 9.45507,-5.167969 6.2188,-4.78e-4 11.26025,5.04097 11.25977,11.259766 4.8e-4,6.218795 -5.04097,11.260245 -11.25977,11.259765 -3.86457,-0.001 -7.45834,-1.9849 -9.51953,-5.253906 h -45.97656 l -15.82812,15.824216 c 0.0386,0.0512 0.0806,0.099 0.11914,0.15039 h 36.64257 0.0137 l -0.0137,0.0137 c -0.25018,40.02278 -32.20715,72.6297 -72.21679,73.68554 l -0.0996,0.0996 h -99.37695 c -7.50011,0 -13.31446,-5.1556 -13.31446,-14.85156 h 7.10547 c 1.88094,-5.6226 4.76868,-10.88128 8.54492,-15.50977 0.36587,5.35476 1.61285,10.58866 3.6543,15.50977 h 10.14258 c 1.87193,-4.96856 4.53963,-9.62352 7.92383,-13.77149 0.32322,4.73053 1.34933,9.36113 2.98632,13.77149 h 5.23828 c 14.66239,-15.90335 28.71709,-25.11228 50.01172,-25.54883 -2.62752,-4.69313 -4.47692,-9.79958 -5.45898,-15.12109 h -37.64453 c -2.79518,5.7087 -4.47629,11.91837 -4.91211,18.29687 -4.39386,-5.3855 -7.58129,-11.6244 -9.38281,-18.29687 h -9.26563 c -3.23122,6.09172 -5.1762,12.79956 -5.64844,19.71093 -4.70273,-5.76403 -8.0222,-12.50633 -9.74023,-19.71093 h -8.19922 c -3.51905,6.3213 -5.61436,13.35079 -6.10937,20.5957 -4.89484,-5.99953 -8.29419,-13.05828 -9.94532,-20.5957 H 157.25 v -8.66211 c -0.0588,-0.34058 -0.0588,-0.68872 0,-1.0293 v -0.45312 -0.0137 c 0.008,-7.54156 6.03017,-13.66099 13.52539,-13.85351 l 22.24609,-22.250001 4.31836,-4.310547 c 0.54835,-0.564673 1.29526,-0.893285 2.08204,-0.916016 2.75243,-0.07462 4.16424,3.268682 2.1914,5.189453 l -4.31055,4.31836 -19.61523,19.613281 c 2.28734,1.22982 4.20857,3.08838 5.51172,5.39453 l 34.80273,-34.802733 h 75.3418 c 1.2318,-2.645711 3.88432,-4.338669 6.80273,-4.341797 z m 93.34375,10.246094 c -3.10032,-4.66e-4 -5.61375,2.512959 -5.61328,5.613281 -4.7e-4,3.100322 2.51296,5.613747 5.61328,5.613281 3.10033,4.72e-4 5.61376,-2.512955 5.61329,-5.613281 4.7e-4,-3.100326 -2.51296,-5.613753 -5.61329,-5.613281 z M 263.75,105.06445 c -5.46728,5.8e-4 -9.89893,4.43311 -9.89844,9.90039 5.8e-4,5.46652 4.43192,9.89786 9.89844,9.89844 5.46728,4.9e-4 9.89981,-4.43116 9.90039,-9.89844 4.9e-4,-5.46804 -4.43235,-9.90088 -9.90039,-9.90039 z m -93.11133,10.26367 c -3.0988,6.1e-4 -5.61072,2.51253 -5.61133,5.61133 -4.7e-4,3.09956 2.51177,5.61267 5.61133,5.61328 3.10032,4.7e-4 5.61375,-2.51296 5.61328,-5.61328 -6.1e-4,-3.09956 -2.51372,-5.6118 -5.61328,-5.61133 z m 196.2168,15.91602 h 48.66601 l 0.0566,0.0566 c 25.82009,6.2e-4 47.58403,17.30355 54.3711,40.94141 H 495 c 0.0293,-0.002 0.0586,-0.003 0.0879,-0.004 2.55035,-0.0407 4.6328,2.02872 4.60808,4.57927 -0.0247,2.55055 -2.1469,4.57924 -4.69598,4.48909 h -23.23633 c 0.24984,2.15803 0.3926,4.34919 0.39258,6.57422 -0.0138,0.4351 -0.0327,0.87003 -0.0566,1.30469 v 1.19336 H 495 c 2.51262,-0.0105 4.55507,2.02349 4.55507,4.53613 0,2.51264 -2.04245,4.5466 -4.55507,4.53613 h -22.90039 v 8.84375 H 495 c 2.51214,-0.01 4.55383,2.02398 4.55383,4.53613 0,2.51216 -2.04169,4.54592 -4.55383,4.53614 h -22.90039 v 0.94336 c 0.0224,0.36374 0.0413,0.72769 0.0566,1.09179 3e-5,2.30583 -0.15389,4.575 -0.42187,6.8086 H 495 c 2.51262,-0.0105 4.55507,2.02349 4.55507,4.53613 0,2.51264 -2.04245,4.5466 -4.55507,4.53613 h -25.11914 c -0.77557,2.6562 -1.73988,5.23011 -2.87891,7.70899 l 20.97071,20.96875 v 11.75976 c 0.0735,4.10406 -6.12035,4.10406 -6.04688,0 v -9.25 l -17.87695,-17.87695 c -1.65546,2.74301 -3.54493,5.32688 -5.62695,7.74023 l 13.64257,13.64454 v 24.16015 c 2.74506,1.19057 4.52194,3.89655 4.52344,6.88867 5e-4,4.14913 -3.36259,7.51309 -7.51172,7.51368 -4.14989,4.9e-4 -7.51417,-3.36379 -7.51367,-7.51368 0.004,-2.96364 1.74961,-5.64808 4.45703,-6.85351 v -21.69336 l -11.7832,-11.7832 c -10.11573,9.47401 -23.70523,15.28479 -38.65821,15.28515 h -0.002 l -0.0566,0.0566 H 307.10156 L 321.79102,261.201 h 70.54687 c 1.55867,3.35018 4.91632,5.49469 8.61133,5.5 5.2537,4.9e-4 9.51308,-4.25802 9.51367,-9.51172 4.9e-4,-5.25446 -4.25921,-9.51416 -9.51367,-9.51367 -3.57701,0.005 -6.84896,2.01583 -8.46875,5.20508 h -74.1582 l -22.92383,23.1582 h -12.91602 l 15.73828,-15.73828 c 2.72102,-2.64289 0.77208,-7.2505 -3.01953,-7.13867 -1.07846,0.0317 -2.10238,0.48129 -2.85547,1.25391 l -21.62695,21.62304 h -24.9375 v 31.63477 h 15.14063 c -7.1e-4,-0.0189 -10e-4,-0.0377 -0.002,-0.0566 -5.1e-4,-7.22738 5.85856,-13.08645 13.08594,-13.08594 7.22661,5.8e-4 13.08449,5.85933 13.08398,13.08594 -6.3e-4,0.0189 -0.001,0.0377 -0.002,0.0566 h 15.15234 c -7.1e-4,-0.0189 -10e-4,-0.0377 -0.002,-0.0566 -5.1e-4,-7.22738 5.85856,-13.08645 13.08594,-13.08594 7.22661,5.8e-4 13.08449,5.85933 13.08398,13.08594 -6.3e-4,0.0189 -10e-4,0.0377 -0.002,0.0566 h 15.15234 c -7.1e-4,-0.0189 -0.001,-0.0377 -0.002,-0.0566 -5.1e-4,-7.22661 5.85737,-13.08536 13.08398,-13.08594 7.22738,-5.1e-4 13.08645,5.85856 13.08594,13.08594 -6.3e-4,0.0189 -10e-4,0.0377 -0.002,0.0566 h 15.15234 c -7.1e-4,-0.0189 -0.001,-0.0377 -0.002,-0.0566 -5.1e-4,-7.22661 5.85737,-13.08536 13.08398,-13.08594 7.22738,-5.1e-4 13.08645,5.85856 13.08594,13.08594 -6.3e-4,0.0189 -10e-4,0.0377 -0.002,0.0566 h 4.47656 l 0.0566,0.0566 h 0.002 c 25.81661,6.2e-4 47.57896,17.29867 54.36915,40.93164 H 495 c 2.51214,-0.01 4.55383,2.02398 4.55383,4.53614 0,2.51215 -2.04169,4.54591 -4.55383,4.53613 h -23.23633 c 0.25,2.15864 0.3926,4.35041 0.39258,6.57617 -0.014,0.42858 -0.0329,0.85699 -0.0566,1.28515 v 1.21094 H 495 c 2.51214,-0.01 4.55383,2.02398 4.55383,4.53614 0,2.51215 -2.04169,4.54591 -4.55383,4.53613 h -22.90039 v 8.84375 H 495 c 0.0293,-0.002 0.0586,-0.003 0.0879,-0.004 2.55035,-0.0407 4.6328,2.02872 4.60808,4.57927 -0.0247,2.55055 -2.1469,4.57924 -4.69598,4.48909 h -22.90039 v 1.06641 c 0.0224,0.36374 0.0412,0.72769 0.0566,1.09179 -5e-5,2.26364 -0.14967,4.49139 -0.4082,6.68555 H 495 c 2.51262,-0.0105 4.55507,2.02349 4.55507,4.53613 0,2.51264 -2.04245,4.5466 -4.55507,4.53613 h -25.08398 c -0.77847,2.68848 -1.75191,5.29334 -2.90235,7.80079 l 20.95899,20.95898 V 451.279 c 2.72687,1.19834 4.48829,3.89448 4.49023,6.87304 5e-4,4.14913 -3.36259,7.51309 -7.51172,7.51368 -4.14989,4.9e-4 -7.51417,-3.36379 -7.51367,-7.51368 0.004,-2.97597 1.76412,-5.66911 4.48828,-6.86718 v -8.3125 l -17.86133,-17.86133 c -1.76174,2.92245 -3.78728,5.66417 -6.03125,8.21094 l 8.1543,8.15234 V 480.125 c 0.12943,4.15736 -6.17435,4.15736 -6.04492,0 v -36.14844 l -6.33399,-6.33203 c -2.84708,2.61165 -5.96333,4.93177 -9.30078,6.92188 v 24.17187 c 2.72829,1.19803 4.49068,3.89526 4.49219,6.875 -5.9e-4,4.14837 -3.36335,7.51113 -7.51172,7.51172 -4.14913,4.9e-4 -7.51308,-3.36259 -7.51367,-7.51172 0.004,-2.97598 1.76411,-5.66912 4.48828,-6.86719 V 447.6875 c -6.99869,3.10012 -14.7375,4.83574 -22.88477,4.83594 l -0.0508,-0.002 v -0.0625 l -0.008,0.008 h -85.8125 l -25.45508,-25.45313 c -0.78245,-0.80705 -1.85834,-1.26291 -2.98242,-1.26367 -3.73307,-10e-4 -5.57661,4.53605 -2.90039,7.13867 l 19.58008,19.57813 H 305.70682 L 280.2537,427.01381 c -0.78245,-0.80706 -1.85834,-1.26291 -2.98243,-1.26367 -3.73401,-0.003 -5.57924,4.53539 -2.90234,7.13867 l 19.57813,19.57813 H 281.25 l -26.99609,-26.9961 h -17.14063 c -1.62065,-3.18912 -4.89342,-5.19941 -8.4707,-5.20312 -5.25294,5.9e-4 -9.51113,4.25878 -9.51172,9.51172 -4.9e-4,5.2537 4.25802,9.51308 9.51172,9.51367 3.69732,-0.005 7.05711,-2.15093 8.61523,-5.50391 h 13.55664 l 18.67774,18.67774 h -23.71094 v 31.62695 c 20.76738,0.17297 36.85084,3.54937 49.2832,7.60547 l 18.23828,-18.23242 h 16.83789 c 1.62484,-4.28966 5.73128,-7.12912 10.31836,-7.13477 6.10222,-2.8e-4 11.04911,4.94661 11.04883,11.04883 2.8e-4,6.10222 -4.94661,11.04911 -11.04883,11.04883 -4.39638,-0.006 -8.37106,-2.61733 -10.12109,-6.65039 h -13.5957 l -13.03711,13.04101 c 2.19645,0.87498 4.26031,1.74937 6.17187,2.60742 h 64.98633 l -0.0332,-9.57812 25.71484,13.7207 -25.61914,13.5293 -0.0332,-9.35156 h -60.06446 c -1.425,0.76308 -2.94836,1.55184 -4.53906,2.35156 l 13.20703,13.20117 h 19.85547 v -5.14258 h 17.86133 v 17.86133 h -17.86133 v -4.40625 H 320.04883 L 302.28125,511.8457 c -13.17607,5.69017 -30.8068,10.91207 -54.0332,10.85547 l -21.2168,-0.0508 c -22.97277,0 -37.83594,-18.84303 -37.83594,-38.55859 v -2.1836 c -7.46444,0.047 -16.10456,0.0137 -18.80078,0.0137 -6.07291,0.0264 -6.07291,-9.09707 0,-9.07227 h 18.80274 l 0.004,-8.84375 h -18.80664 c -6.07291,0.0265 -6.07291,-9.09707 0,-9.07227 h 18.80859 v -1.28711 c -0.0223,-0.37415 -0.0415,-0.74852 -0.0566,-1.12304 7.4e-4,-31.24693 25.3312,-56.57739 56.57813,-56.57813 l 0.0566,-0.0566 h 4.41211 c -7.1e-4,-0.0189 -10e-4,-0.0377 -0.002,-0.0566 -5.1e-4,-7.22737 5.85856,-13.08644 13.08593,-13.08594 7.22661,5.7e-4 13.0845,5.85933 13.08399,13.08594 -6.3e-4,0.0189 -10e-4,0.0377 -0.002,0.0566 h 15.15234 c -7.1e-4,-0.0189 -0.001,-0.0377 -0.002,-0.0566 -5.1e-4,-7.22661 5.85737,-13.08536 13.08398,-13.08594 7.22738,-5.1e-4 13.08645,5.85856 13.08594,13.08594 -6.3e-4,0.0189 -0.001,0.0377 -0.002,0.0566 h 15.15235 c -7.1e-4,-0.0189 -0.001,-0.0377 -0.002,-0.0566 -5.1e-4,-7.22661 5.85738,-13.08537 13.08399,-13.08594 7.22738,-5.1e-4 13.08645,5.85856 13.08594,13.08594 -6.3e-4,0.0189 -0.001,0.0377 -0.002,0.0566 h 15.15235 c -7.1e-4,-0.0189 -0.001,-0.0377 -0.002,-0.0566 -5.1e-4,-7.22661 5.85738,-13.08537 13.08399,-13.08594 7.22738,-5.1e-4 13.08645,5.85856 13.08594,13.08594 -6.3e-4,0.0189 -10e-4,0.0377 -0.002,0.0566 h 15.20508 v -31.6348 H 378.06641 V 346.75 c 0.0264,-6.07291 -9.09707,-6.07291 -9.07227,0 v 17.50391 h -8.8457 V 346.75 c 0.21921,-6.20095 -9.16696,-6.29183 -9.06836,-0.0879 h 0.002 c 10e-4,0.0302 0.002,0.0584 0.004,0.0879 v 17.50391 h -8.84375 V 346.75 c 0.0189,-6.06569 -9.08977,-6.06569 -9.07227,0 v 17.50391 H 324.0978 V 346.75 c 0.0189,-6.06569 -9.08977,-6.06569 -9.07227,0 v 17.50391 h -69.24414 l -0.0566,-0.0566 c -31.24769,-7.5e-4 -56.57847,-25.33239 -56.57813,-56.58008 0.014,-0.42728 0.0329,-0.85439 0.0566,-1.28125 V 276.0391 c -2.1e-4,-31.24769 25.33044,-56.57933 56.57813,-56.58008 h 4.41211 c -7.1e-4,-0.0189 -0.001,-0.0377 -0.002,-0.0566 5.8e-4,-7.22661 5.85932,-13.08448 13.08593,-13.08398 7.22585,5.7e-4 13.08341,5.85813 13.08399,13.08398 -6.3e-4,0.0189 -0.001,0.0377 -0.002,0.0566 h 15.15234 c -7.1e-4,-0.0189 -10e-4,-0.0377 -0.002,-0.0566 5.8e-4,-7.22584 5.85814,-13.0834 13.08398,-13.08398 7.22661,-5.1e-4 13.08536,5.85737 13.08594,13.08398 -6.3e-4,0.0189 -0.001,0.0377 -0.002,0.0566 h 15.15235 c -7.1e-4,-0.0189 -0.001,-0.0377 -0.002,-0.0566 5.8e-4,-7.22585 5.85814,-13.08341 13.08399,-13.08398 7.22661,-5.1e-4 13.08536,5.85737 13.08594,13.08398 -6.3e-4,0.0189 -10e-4,0.0377 -0.002,0.0566 h 15.15235 c -7.1e-4,-0.0189 -10e-4,-0.0377 -0.002,-0.0566 5.8e-4,-7.22585 5.85814,-13.08341 13.08399,-13.08398 7.22661,-5.1e-4 13.08536,5.85737 13.08594,13.08398 -6.3e-4,0.0189 -10e-4,0.0377 -0.002,0.0566 h 15.20508 v -31.63476 h -91.2832 c 8.30388,-4.35216 15.80995,-10.08044 22.19922,-16.94141 h 47.91406 c 2.0612,3.26899 5.65496,5.25291 9.51953,5.25391 6.2188,4.9e-4 11.26022,-5.04097 11.25977,-11.25977 4.9e-4,-6.21879 -5.04097,-11.26025 -11.25977,-11.25976 -3.82492,0.004 -7.38582,1.95106 -9.45508,5.16797 h -38.64648 c 5.32202,-8.4389 9.07812,-17.76862 11.08789,-27.54102 z m 36.99023,29.82813 c 2.06817,-8.3e-4 3.74497,1.67597 3.74414,3.74414 -2.5e-4,2.06741 -1.67673,3.74301 -3.74414,3.74218 -2.06664,-2.5e-4 -3.74193,-1.67554 -3.74218,-3.74218 -8.3e-4,-2.06741 1.67477,-3.74389 3.74218,-3.74414 z m -225.98437,39.94531 c 5.06761,4.59549 7.96126,10.8444 7.94726,14.69922 -0.0176,5.00209 -0.0174,10.0341 -0.0703,15.01953 -0.0121,3.88736 -2.02466,7.49467 -5.32617,9.54687 -4.65072,2.50186 -10.09322,4.0238 -14.95508,6.25977 -0.19416,0.0816 -0.39175,0.14998 -0.5918,0.20898 l -0.17578,20.08399 14.31836,5.64844 v 16.41601 l -23.67187,-9.33984 c -2.49254,1.94974 -4.99061,3.9075 -7.48242,5.84961 -1.89317,1.50289 -4.21897,2.35815 -6.63477,2.43945 -3.44125,0.11085 -6.74475,-1.35573 -8.9707,-3.98242 -1.846,-2.18956 -3.66257,-4.47638 -5.50196,-6.69727 -2.30301,-2.81204 -2.98491,-5.73334 -3.53711,-13.66211 7.49115,2.58947 9.76562,3.50841 12.24805,6.53907 l 5.36524,6.54882 0.0332,-0.0234 0.0195,0.0117 8.52148,-6.66015 0.19727,-23.55664 c -0.15888,-0.0771 -0.31962,-0.14724 -0.47266,-0.24024 l -10.17968,-5.99414 -4.73829,6.32617 c -2.23247,2.98016 -6.40517,3.18752 -9.59765,11.94922 -3.26082,-8.12409 -1.28545,-17.50647 5.44726,-25.14062 3.50801,-4.49424 9.81691,-5.6667 14.70508,-2.73242 2.83136,1.57202 5.6357,3.32651 8.46094,4.95507 l -0.15625,-16.42382 -8.28906,-0.0312 c -3.7839,-0.0138 -6.24444,-3.55591 -16.51563,-3.67383 5.6388,-6.21668 12.66785,-7.59127 16.55274,-7.57617 2.73919,0.0113 5.49288,0.0313 8.22461,0.0273 6.2332,-6.8e-4 11.28667,5.05196 11.28711,11.28516 0.035,5.22474 0.10168,10.47577 0.14648,15.70898 l 9.9668,-4.06055 0.0234,-0.0488 h 0.0488 l 0.0508,-15.02539 c 0.0131,-3.81283 3.45006,-5.63805 3.30274,-14.6543 z M 146.9043,316.68359 c 3.41678,0.008 6.40735,0.68245 8.28125,1.77344 4.32313,2.5163 8.68161,5.03179 12.97265,7.57031 3.36047,1.95421 5.47702,5.49945 5.60352,9.38477 -0.15869,5.27853 -1.56211,10.75358 -2.05664,16.08203 -0.0263,0.20908 -0.0663,0.41423 -0.11524,0.61719 l 17.30664,10.19336 9.67188,-7.6836 c 3.7128,3.70903 7.8501,6.96721 12.32617,9.70703 l -15.65625,12.43946 c 0.44226,3.13349 0.89016,6.27722 1.32617,9.40625 0.35496,2.39097 -0.0676,4.83205 -1.20507,6.96484 -1.62463,3.03564 -4.54777,5.16306 -7.93555,5.77735 -2.81921,0.50392 -5.70772,0.93359 -8.55078,1.41601 -3.58681,0.58847 -6.457,-0.28142 -13.59961,-3.76758 5.98811,-5.1928 7.92128,-6.70334 11.78711,-7.33789 l 8.35351,-1.37109 -0.002,-0.041 0.0195,-0.0117 -1.50781,-10.70898 -20.30274,-11.94922 c -0.14621,0.099 -0.28628,0.20326 -0.44336,0.28906 l -10.28125,5.81836 3.10938,7.26758 c 1.46463,3.4235 -0.44279,7.13954 5.54883,14.28516 -8.66608,-1.23806 -15.80382,-7.6393 -19.04883,-17.28711 -2.13812,-5.28514 0.001,-11.33544 4.98633,-14.10156 2.77709,-1.66606 5.69848,-3.21716 8.52148,-4.84961 l -14.30078,-8.07618 -4.16992,7.16211 c -1.90389,3.27009 -6.20173,3.63064 -11.43945,12.4668 -2.5644,-7.99166 -0.2407,-14.76618 1.71484,-18.12305 1.37941,-2.36651 2.77222,-4.74169 4.13476,-7.10937 3.11602,-5.39845 10.0177,-7.24903 15.41602,-4.13281 4.54227,2.58202 9.12325,5.15072 13.67774,7.72851 l 1.46679,-10.66211 -0.0293,-0.0449 0.0234,-0.041 -12.98633,-7.55665 c -3.29544,-1.91773 -3.15709,-5.80691 -11.03906,-10.1875 v -0.002 c 2.84971,-0.91479 5.76438,-1.31069 8.42188,-1.30469 z" />
  </g>
</svg>
