%TF.GenerationSoftware,Altium Limited,Altium Designer,24.0.1 (36)*%
G04 Layer_Color=32896*
%FSLAX45Y45*%
%MOMM*%
%TF.SameCoordinates,2C358838-E96C-4A59-A5A0-E9FE71613952*%
%TF.FilePolarity,Positive*%
%TF.FileFunction,Legend,Bot*%
%TF.Part,Single*%
G01*
G75*
%TA.AperFunction,NonConductor*%
%ADD59C,0.25000*%
%ADD61C,0.15240*%
%ADD62C,0.50000*%
%ADD63C,0.20000*%
%ADD64C,0.25400*%
%ADD65C,0.60000*%
%ADD66R,0.20000X1.20000*%
D59*
X8697500Y3575000D02*
G03*
X8697500Y3575000I-12500J0D01*
G01*
X13177344Y3162500D02*
G03*
X13177344Y3162500I-12500J0D01*
G01*
X10910000Y5072089D02*
G03*
X10910000Y5072089I-12500J0D01*
G01*
X10446157Y3455251D02*
G03*
X10446157Y3455251I-12500J0D01*
G01*
X19310001Y5072089D02*
G03*
X19310001Y5072089I-12500J0D01*
G01*
X3822500Y3805000D02*
G03*
X3822500Y3805000I-12500J0D01*
G01*
X5787500Y4245000D02*
G03*
X5787500Y4245000I-12500J0D01*
G01*
X6710000Y5072089D02*
G03*
X6710000Y5072089I-12500J0D01*
G01*
X17210001D02*
G03*
X17210001Y5072089I-12500J0D01*
G01*
X13010001D02*
G03*
X13010001Y5072089I-12500J0D01*
G01*
X8810000D02*
G03*
X8810000Y5072089I-12500J0D01*
G01*
X4610000D02*
G03*
X4610000Y5072089I-12500J0D01*
G01*
X18312500Y4270000D02*
G03*
X18312500Y4270000I-12500J0D01*
G01*
X15110001Y5072089D02*
G03*
X15110001Y5072089I-12500J0D01*
G01*
X10766251Y3716924D02*
G03*
X10766251Y3716924I-12500J0D01*
G01*
D61*
X4759620Y3461260D02*
G03*
X4759620Y3461260I-7620J0D01*
G01*
X4290990Y3570480D02*
Y4195320D01*
X4832010Y3570480D02*
Y4195320D01*
D62*
X13600127Y3185000D02*
G03*
X13600127Y3185000I-25000J0D01*
G01*
D63*
X20185001Y4825000D02*
Y6025000D01*
X20955000Y4825000D02*
Y6025000D01*
X20185001D02*
X20955000D01*
X20185001Y4825000D02*
X20955000D01*
X14362500Y3165000D02*
Y3185000D01*
X14237500Y3165000D02*
Y3185000D01*
X14612500Y3165000D02*
Y3185000D01*
X14487500Y3165000D02*
Y3185000D01*
X8652810Y3604190D02*
Y3895810D01*
X8427190Y3604190D02*
Y3895810D01*
X8877500Y3670000D02*
Y3850000D01*
X9402500Y3670000D02*
Y3850000D01*
X9010000Y3497500D02*
X9270000D01*
X9010000Y4022500D02*
X9270000D01*
X12010000Y4362500D02*
X12030000D01*
X12010000Y4237500D02*
X12030000D01*
X10248965Y3808756D02*
X10391244Y3951035D01*
X10128756Y3928964D02*
X10271036Y4071244D01*
X10537185Y3586977D02*
X10679465Y3729256D01*
X10416977Y3707185D02*
X10559257Y3849464D01*
X10648000Y2902000D02*
X11410000D01*
Y2648000D02*
Y2902000D01*
X10648000Y2648000D02*
X11410000D01*
X10648000D02*
Y2902000D01*
X12001666Y2867128D02*
X12207872Y3073334D01*
X11842128Y3026666D02*
X12048335Y3232872D01*
X13500128Y3110000D02*
X13859872D01*
Y3930000D01*
X13500128D02*
X13859872D01*
X13500128Y3110000D02*
Y3930000D01*
X12564000Y2648000D02*
Y2902000D01*
X11548000D02*
X12564000D01*
X11548000Y2648000D02*
X12564000D01*
X11548000D02*
Y2902000D01*
X10648735Y3212123D02*
X10662877Y3226265D01*
X10737123Y3123735D02*
X10751265Y3137877D01*
X13604190Y2827190D02*
X13895810D01*
X13604190Y3052810D02*
X13895810D01*
X10650000Y5390239D02*
Y5559761D01*
X10950000Y5390239D02*
Y5559761D01*
X15435001Y2725000D02*
X16205000D01*
X15435001Y3925000D02*
X16205000D01*
Y2725000D02*
Y3925000D01*
X15435001Y2725000D02*
Y3925000D01*
X10423051Y3614350D02*
X10437193Y3628492D01*
X10168492Y3897193D02*
X10437193Y3628492D01*
X10154350Y3883051D02*
X10168492Y3897193D01*
X9871508Y3062807D02*
X9885650Y3076949D01*
X9602807Y3331507D02*
X9871508Y3062807D01*
X9602807Y3331507D02*
X9616949Y3345650D01*
X10034142Y3225442D02*
X10274558Y3465858D01*
X9765442Y3494142D02*
X10005858Y3734558D01*
X19350000Y5390239D02*
Y5559761D01*
X19050000Y5390239D02*
Y5559761D01*
X19432500Y5267500D02*
Y5632500D01*
X19767500Y5267500D02*
Y5632500D01*
X3904190Y3462190D02*
X4195810D01*
X3904190Y3687810D02*
X4195810D01*
X4015000Y3747500D02*
X4085000D01*
Y4052500D01*
X4015000D02*
X4085000D01*
X4015000Y3747500D02*
Y4052500D01*
X5922500Y4050000D02*
X6200000D01*
X5350000D02*
X5627500D01*
X5450000Y3200000D02*
X5627500D01*
X5922500D02*
X6100000D01*
X5350000Y3300000D02*
Y4050000D01*
X6200000Y3300000D02*
Y4050000D01*
X5350000Y3300000D02*
X5450000Y3200000D01*
X6100000D02*
X6200000Y3300000D01*
X6750000Y5390239D02*
Y5559761D01*
X6450000Y5390239D02*
Y5559761D01*
X6832500Y5267500D02*
Y5632500D01*
X7167500Y5267500D02*
Y5632500D01*
X8932500Y5267500D02*
Y5632500D01*
X9267500Y5267500D02*
Y5632500D01*
X17667500Y5267500D02*
Y5632500D01*
X17332500Y5267500D02*
Y5632500D01*
X13467500Y5267500D02*
Y5632500D01*
X13132500Y5267500D02*
Y5632500D01*
X11367500Y5267500D02*
Y5632500D01*
X11032500Y5267500D02*
Y5632500D01*
X5067500Y5267500D02*
Y5632500D01*
X4732500Y5267500D02*
Y5632500D01*
X16950000Y5390239D02*
Y5559761D01*
X17250000Y5390239D02*
Y5559761D01*
X12750000Y5390239D02*
Y5559761D01*
X13050000Y5390239D02*
Y5559761D01*
X8550000Y5390239D02*
Y5559761D01*
X8850000Y5390239D02*
Y5559761D01*
X4350000Y5390239D02*
Y5559761D01*
X4650000Y5390239D02*
Y5559761D01*
X18447501Y4075000D02*
X18725000D01*
X17875000D02*
X18152499D01*
X17975000Y3225000D02*
X18152499D01*
X18447501D02*
X18625000D01*
X17875000Y3325000D02*
Y4075000D01*
X18725000Y3325000D02*
Y4075000D01*
X17875000Y3325000D02*
X17975000Y3225000D01*
X18625000D02*
X18725000Y3325000D01*
X15150000Y5390239D02*
Y5559761D01*
X14850000Y5390239D02*
Y5559761D01*
X15232500Y5267500D02*
Y5632500D01*
X15567500Y5267500D02*
Y5632500D01*
X11475000Y4296751D02*
X12146751Y3625000D01*
X10803249D02*
X11475000Y2953249D01*
X12146751Y3625000D01*
X10803249D02*
X11475000Y4296751D01*
X20814996Y5805032D02*
Y6004968D01*
X20914964Y5905000D02*
X20715028D01*
X20874998Y4875037D02*
Y5074972D01*
X20973196Y4763479D02*
Y4636521D01*
X20909717D01*
X20888557Y4657680D01*
Y4678840D01*
X20909717Y4700000D01*
X20973196D01*
X20909717D01*
X20888557Y4721160D01*
Y4742320D01*
X20909717Y4763479D01*
X20973196D01*
X20846237Y4636521D02*
Y4721160D01*
X20803918Y4763479D01*
X20761598Y4721160D01*
Y4636521D01*
Y4700000D01*
X20846237D01*
X20719279Y4763479D02*
X20634639D01*
X20676959D01*
Y4636521D01*
X20401881Y4763479D02*
X20444202D01*
X20465361Y4742320D01*
Y4657680D01*
X20444202Y4636521D01*
X20401881D01*
X20380721Y4657680D01*
Y4742320D01*
X20401881Y4763479D01*
X20338402D02*
Y4657680D01*
X20317242Y4636521D01*
X20274924D01*
X20253763Y4657680D01*
Y4763479D01*
X20211443D02*
X20126804D01*
X20169122D01*
Y4636521D01*
X16513480Y3173982D02*
Y3089342D01*
X16450000D01*
X16471159Y3131662D01*
Y3152822D01*
X16450000Y3173982D01*
X16407680D01*
X16386520Y3152822D01*
Y3110502D01*
X16407680Y3089342D01*
X16513480Y3216301D02*
X16428841D01*
X16386520Y3258621D01*
X16428841Y3300941D01*
X16513480D01*
Y3470219D02*
Y3512539D01*
Y3491379D01*
X16386520D01*
Y3470219D01*
Y3512539D01*
Y3576018D02*
X16513480D01*
X16386520Y3660657D01*
X16513480D01*
X13196239Y2838479D02*
Y2711521D01*
X13132758D01*
X13111598Y2732680D01*
Y2817320D01*
X13132758Y2838479D01*
X13196239D01*
X12984639D02*
X13069279D01*
Y2711521D01*
X12984639D01*
X13069279Y2775000D02*
X13026959D01*
X12942320Y2838479D02*
Y2711521D01*
X12878841D01*
X12857680Y2732680D01*
Y2753840D01*
X12878841Y2775000D01*
X12942320D01*
X12878841D01*
X12857680Y2796160D01*
Y2817320D01*
X12878841Y2838479D01*
X12942320D01*
X12815361D02*
Y2732680D01*
X12794201Y2711521D01*
X12751882D01*
X12730722Y2732680D01*
Y2838479D01*
X12603763Y2817320D02*
X12624923Y2838479D01*
X12667242D01*
X12688402Y2817320D01*
Y2732680D01*
X12667242Y2711521D01*
X12624923D01*
X12603763Y2732680D01*
Y2775000D01*
X12646082D01*
X10607758Y2838479D02*
Y2732680D01*
X10586598Y2711521D01*
X10544279D01*
X10523119Y2732680D01*
Y2838479D01*
X10480799Y2711521D02*
Y2796160D01*
X10438480Y2838479D01*
X10396160Y2796160D01*
Y2711521D01*
Y2775000D01*
X10480799D01*
X10353840Y2711521D02*
Y2838479D01*
X10290361D01*
X10269201Y2817320D01*
Y2775000D01*
X10290361Y2753840D01*
X10353840D01*
X10311521D02*
X10269201Y2711521D01*
X10226882Y2838479D02*
X10142242D01*
X10184562D01*
Y2711521D01*
X16124998Y2775036D02*
Y2974972D01*
X16064996Y3705032D02*
Y3904968D01*
X16164964Y3805000D02*
X15965028D01*
X14349985Y3683291D02*
X14250015D01*
Y3633307D01*
X14266676Y3616646D01*
X14300000D01*
X14316661Y3633307D01*
Y3683291D01*
Y3649968D02*
X14349985Y3616646D01*
X14266676Y3583323D02*
X14250015Y3566661D01*
Y3533339D01*
X14266676Y3516678D01*
X14283339D01*
X14300000Y3533339D01*
Y3550000D01*
Y3533339D01*
X14316661Y3516678D01*
X14333322D01*
X14349985Y3533339D01*
Y3566661D01*
X14333322Y3583323D01*
X14349985Y3416710D02*
Y3483355D01*
X14283339Y3416710D01*
X14266676D01*
X14250015Y3433371D01*
Y3466694D01*
X14266676Y3483355D01*
X14599985Y3683291D02*
X14500015D01*
Y3633307D01*
X14516676Y3616646D01*
X14550000D01*
X14566661Y3633307D01*
Y3683291D01*
Y3649968D02*
X14599985Y3616646D01*
X14516676Y3583323D02*
X14500015Y3566661D01*
Y3533339D01*
X14516676Y3516678D01*
X14533339D01*
X14550000Y3533339D01*
Y3550000D01*
Y3533339D01*
X14566661Y3516678D01*
X14583322D01*
X14599985Y3533339D01*
Y3566661D01*
X14583322Y3583323D01*
X14516676Y3483355D02*
X14500015Y3466694D01*
Y3433371D01*
X14516676Y3416710D01*
X14583322D01*
X14599985Y3433371D01*
Y3466694D01*
X14583322Y3483355D01*
X14516676D01*
X13824960Y4074984D02*
Y3991678D01*
X13808298Y3975016D01*
X13774976D01*
X13758315Y3991678D01*
Y4074984D01*
X13724992Y3975016D02*
X13691669D01*
X13708330D01*
Y4074984D01*
X13724992Y4058323D01*
X13641685D02*
X13625024Y4074984D01*
X13591702D01*
X13575040Y4058323D01*
Y4041661D01*
X13591702Y4025000D01*
X13608363D01*
X13591702D01*
X13575040Y4008339D01*
Y3991678D01*
X13591702Y3975016D01*
X13625024D01*
X13641685Y3991678D01*
X12295688Y3201437D02*
X12319250D01*
X12342813Y3177875D01*
Y3154312D01*
X12295688Y3107187D01*
X12272125D01*
X12248563Y3130749D01*
Y3154312D01*
X12166094Y3213218D02*
X12213219Y3166093D01*
Y3260343D01*
X12225000Y3272125D01*
X12248563Y3272125D01*
X12272125Y3248562D01*
Y3225000D01*
X12166094Y3354594D02*
X12213219Y3307469D01*
X12177875Y3272125D01*
X12166093Y3307469D01*
X12154312Y3319250D01*
X12130750D01*
X12107187Y3295688D01*
X12107187Y3272125D01*
X12130749Y3248562D01*
X12154312D01*
X8616645Y4033322D02*
X8633306Y4049984D01*
X8666629D01*
X8683290Y4033322D01*
Y3966677D01*
X8666629Y3950016D01*
X8633306D01*
X8616645Y3966677D01*
X8516677Y3950016D02*
X8583322D01*
X8516677Y4016661D01*
Y4033322D01*
X8533339Y4049984D01*
X8566661D01*
X8583322Y4033322D01*
X8483355Y3966677D02*
X8466693Y3950016D01*
X8433371D01*
X8416710Y3966677D01*
Y4033322D01*
X8433371Y4049984D01*
X8466693D01*
X8483355Y4033322D01*
Y4016661D01*
X8466693Y4000000D01*
X8416710D01*
X10908306Y5924984D02*
Y5841677D01*
X10891645Y5825016D01*
X10858322D01*
X10841661Y5841677D01*
Y5924984D01*
X10808339Y5908322D02*
X10791677Y5924984D01*
X10758355D01*
X10741694Y5908322D01*
Y5891661D01*
X10758355Y5875000D01*
X10741694Y5858339D01*
Y5841677D01*
X10758355Y5825016D01*
X10791677D01*
X10808339Y5841677D01*
Y5858339D01*
X10791677Y5875000D01*
X10808339Y5891661D01*
Y5908322D01*
X10791677Y5875000D02*
X10758355D01*
X17608298Y5900016D02*
Y5999984D01*
X17558315D01*
X17541653Y5983323D01*
Y5950000D01*
X17558315Y5933339D01*
X17608298D01*
X17574976D02*
X17541653Y5900016D01*
X17508330D02*
X17475008D01*
X17491669D01*
Y5999984D01*
X17508330Y5983323D01*
X17425024Y5900016D02*
X17391702D01*
X17408363D01*
Y5999984D01*
X17425024Y5983323D01*
X13383305Y5900016D02*
Y5999984D01*
X13333324D01*
X13316661Y5983323D01*
Y5950000D01*
X13333324Y5933339D01*
X13383305D01*
X13349985D02*
X13316661Y5900016D01*
X13283339Y5916678D02*
X13266676Y5900016D01*
X13233356D01*
X13216695Y5916678D01*
Y5983323D01*
X13233356Y5999984D01*
X13266676D01*
X13283339Y5983323D01*
Y5966661D01*
X13266676Y5950000D01*
X13216695D01*
X11283306Y5900016D02*
Y5999984D01*
X11233322D01*
X11216661Y5983323D01*
Y5950000D01*
X11233322Y5933339D01*
X11283306D01*
X11249984D02*
X11216661Y5900016D01*
X11183339Y5983323D02*
X11166677Y5999984D01*
X11133355D01*
X11116694Y5983323D01*
Y5966661D01*
X11133355Y5950000D01*
X11116694Y5933339D01*
Y5916678D01*
X11133355Y5900016D01*
X11166677D01*
X11183339Y5916678D01*
Y5933339D01*
X11166677Y5950000D01*
X11183339Y5966661D01*
Y5983323D01*
X11166677Y5950000D02*
X11133355D01*
X9183306Y5900016D02*
Y5999984D01*
X9133323D01*
X9116661Y5983323D01*
Y5950000D01*
X9133323Y5933339D01*
X9183306D01*
X9149984D02*
X9116661Y5900016D01*
X9083339Y5999984D02*
X9016694D01*
Y5983323D01*
X9083339Y5916678D01*
Y5900016D01*
X7083306D02*
Y5999984D01*
X7033322D01*
X7016661Y5983323D01*
Y5950000D01*
X7033322Y5933339D01*
X7083306D01*
X7049984D02*
X7016661Y5900016D01*
X6916694Y5999984D02*
X6950016Y5983323D01*
X6983339Y5950000D01*
Y5916678D01*
X6966677Y5900016D01*
X6933355D01*
X6916694Y5916678D01*
Y5933339D01*
X6933355Y5950000D01*
X6983339D01*
X4983307Y5900016D02*
Y5999984D01*
X4933323D01*
X4916661Y5983323D01*
Y5950000D01*
X4933323Y5933339D01*
X4983307D01*
X4949984D02*
X4916661Y5900016D01*
X4816694Y5999984D02*
X4883339D01*
Y5950000D01*
X4850016Y5966661D01*
X4833355D01*
X4816694Y5950000D01*
Y5916678D01*
X4833355Y5900016D01*
X4866677D01*
X4883339Y5916678D01*
X17233298Y5949984D02*
Y5866677D01*
X17216637Y5850016D01*
X17183315D01*
X17166653Y5866677D01*
Y5949984D01*
X17133330Y5850016D02*
X17100008D01*
X17116669D01*
Y5949984D01*
X17133330Y5933322D01*
X17050024Y5850016D02*
X17016702D01*
X17033363D01*
Y5949984D01*
X17050024Y5933322D01*
X13008305Y5924984D02*
Y5841677D01*
X12991644Y5825016D01*
X12958324D01*
X12941661Y5841677D01*
Y5924984D01*
X12908339Y5841677D02*
X12891676Y5825016D01*
X12858356D01*
X12841695Y5841677D01*
Y5908322D01*
X12858356Y5924984D01*
X12891676D01*
X12908339Y5908322D01*
Y5891661D01*
X12891676Y5875000D01*
X12841695D01*
X8808306Y5949984D02*
Y5866677D01*
X8791645Y5850016D01*
X8758323D01*
X8741661Y5866677D01*
Y5949984D01*
X8708339D02*
X8641694D01*
Y5933322D01*
X8708339Y5866677D01*
Y5850016D01*
X6708306Y5949984D02*
Y5866677D01*
X6691645Y5850016D01*
X6658322D01*
X6641661Y5866677D01*
Y5949984D01*
X6541694D02*
X6575016Y5933322D01*
X6608339Y5900000D01*
Y5866677D01*
X6591677Y5850016D01*
X6558355D01*
X6541694Y5866677D01*
Y5883338D01*
X6558355Y5900000D01*
X6608339D01*
X4608307Y5924984D02*
Y5841677D01*
X4591645Y5825016D01*
X4558323D01*
X4541661Y5841677D01*
Y5924984D01*
X4441694D02*
X4508339D01*
Y5875000D01*
X4475016Y5891661D01*
X4458355D01*
X4441694Y5875000D01*
Y5841677D01*
X4458355Y5825016D01*
X4491677D01*
X4508339Y5841677D01*
X7841661Y3049984D02*
X7874984D01*
X7858323D01*
Y2966678D01*
X7874984Y2950016D01*
X7891645D01*
X7908307Y2966678D01*
X7808339Y3033323D02*
X7791677Y3049984D01*
X7758355D01*
X7741694Y3033323D01*
Y3016661D01*
X7758355Y3000000D01*
X7775016D01*
X7758355D01*
X7741694Y2983339D01*
Y2966678D01*
X7758355Y2950016D01*
X7791677D01*
X7808339Y2966678D01*
X9811781Y3832469D02*
X9835344Y3714656D01*
X9764656Y3785344D02*
X9882469Y3761781D01*
X9811781Y3691093D02*
X9788219Y3667531D01*
X9800000Y3679312D01*
X9729312Y3750000D01*
X9752875D01*
X11073704Y3096984D02*
X11014797Y3038077D01*
X10991235D01*
X10967672Y3061640D01*
Y3085203D01*
X11026579Y3144109D01*
X10932328Y3096984D02*
X10908765Y3120547D01*
X10920547Y3108765D01*
X10991235Y3179453D01*
Y3155891D01*
X10838077Y3191235D02*
X10908765Y3261923D01*
Y3191235D01*
X10861640Y3238360D01*
X19324960Y5949984D02*
Y5866677D01*
X19308298Y5850016D01*
X19274976D01*
X19258315Y5866677D01*
Y5949984D01*
X19224992Y5850016D02*
X19191669D01*
X19208330D01*
Y5949984D01*
X19224992Y5933322D01*
X19075040Y5850016D02*
X19141685D01*
X19075040Y5916661D01*
Y5933322D01*
X19091701Y5949984D01*
X19125024D01*
X19141685Y5933322D01*
X15124960Y5949984D02*
Y5866677D01*
X15108298Y5850016D01*
X15074976D01*
X15058315Y5866677D01*
Y5949984D01*
X15024992Y5850016D02*
X14991669D01*
X15008330D01*
Y5949984D01*
X15024992Y5933322D01*
X14941685D02*
X14925024Y5949984D01*
X14891701D01*
X14875040Y5933322D01*
Y5866677D01*
X14891701Y5850016D01*
X14925024D01*
X14941685Y5866677D01*
Y5933322D01*
X4091645Y4224984D02*
Y4141678D01*
X4074984Y4125016D01*
X4041661D01*
X4025000Y4141678D01*
Y4224984D01*
X3991677Y4125016D02*
X3958355D01*
X3975016D01*
Y4224984D01*
X3991677Y4208323D01*
X9174984Y4158322D02*
X9191645Y4174984D01*
X9224968D01*
X9241629Y4158322D01*
Y4141661D01*
X9224968Y4125000D01*
X9191645D01*
X9174984Y4108338D01*
Y4091677D01*
X9191645Y4075016D01*
X9224968D01*
X9241629Y4091677D01*
X9141661Y4174984D02*
Y4075016D01*
X9108339Y4108338D01*
X9075016Y4075016D01*
Y4174984D01*
X9041693Y4075016D02*
X9008371D01*
X9025032D01*
Y4174984D01*
X9041693Y4158322D01*
X12158290Y4450016D02*
Y4549984D01*
X12108306D01*
X12091645Y4533322D01*
Y4500000D01*
X12108306Y4483339D01*
X12158290D01*
X12124968D02*
X12091645Y4450016D01*
X11991678D02*
X12058323D01*
X11991678Y4516661D01*
Y4533322D01*
X12008339Y4549984D01*
X12041661D01*
X12058323Y4533322D01*
X11958355Y4466677D02*
X11941693Y4450016D01*
X11908371D01*
X11891710Y4466677D01*
Y4533322D01*
X11908371Y4549984D01*
X11941693D01*
X11958355Y4533322D01*
Y4516661D01*
X11941693Y4500000D01*
X11891710D01*
X10717813Y3322125D02*
X10647125Y3392813D01*
X10611781Y3357469D01*
Y3333906D01*
X10635343Y3310344D01*
X10658906D01*
X10694250Y3345688D01*
X10670688Y3322125D02*
Y3275000D01*
X10588218Y3310344D02*
X10564656D01*
X10541093Y3286781D01*
X10541093Y3263219D01*
X10552875Y3251437D01*
X10576437D01*
X10588218Y3263219D01*
X10576437Y3251437D01*
X10576437Y3227875D01*
X10588218Y3216093D01*
X10611781D01*
X10635343Y3239656D01*
Y3263219D01*
X10576437Y3180749D02*
X10552874Y3157187D01*
X10564656Y3168968D01*
X10493968Y3239656D01*
X10517530D01*
X19724960Y5900016D02*
Y5999984D01*
X19674976D01*
X19658315Y5983323D01*
Y5950000D01*
X19674976Y5933339D01*
X19724960D01*
X19691637D02*
X19658315Y5900016D01*
X19624992D02*
X19591669D01*
X19608330D01*
Y5999984D01*
X19624992Y5983323D01*
X19475040Y5900016D02*
X19541685D01*
X19475040Y5966661D01*
Y5983323D01*
X19491701Y5999984D01*
X19525024D01*
X19541685Y5983323D01*
X15524960Y5900016D02*
Y5999984D01*
X15474976D01*
X15458315Y5983323D01*
Y5950000D01*
X15474976Y5933339D01*
X15524960D01*
X15491637D02*
X15458315Y5900016D01*
X15424992D02*
X15391669D01*
X15408330D01*
Y5999984D01*
X15424992Y5983323D01*
X15341685D02*
X15325024Y5999984D01*
X15291701D01*
X15275040Y5983323D01*
Y5916678D01*
X15291701Y5900016D01*
X15325024D01*
X15341685Y5916678D01*
Y5983323D01*
X4550000Y4341677D02*
Y4408322D01*
X4566661Y4424984D01*
X4599984D01*
X4616645Y4408322D01*
Y4341677D01*
X4599984Y4325016D01*
X4566661D01*
X4583323Y4358339D02*
X4550000Y4325016D01*
X4566661D02*
X4550000Y4341677D01*
X4516677Y4325016D02*
X4483355D01*
X4500016D01*
Y4424984D01*
X4516677Y4408322D01*
X12549960Y2925016D02*
Y3024984D01*
X12499976D01*
X12483315Y3008322D01*
Y2975000D01*
X12499976Y2958339D01*
X12549960D01*
X12449992Y2925016D02*
X12416669D01*
X12433330D01*
Y3024984D01*
X12449992Y3008322D01*
X12300040Y2925016D02*
X12366685D01*
X12300040Y2991661D01*
Y3008322D01*
X12316702Y3024984D01*
X12350024D01*
X12366685Y3008322D01*
X10858298Y2925016D02*
Y3024984D01*
X10808314D01*
X10791653Y3008322D01*
Y2975000D01*
X10808314Y2958339D01*
X10858298D01*
X10758331Y2925016D02*
X10725008D01*
X10741669D01*
Y3024984D01*
X10758331Y3008322D01*
X10675024Y2925016D02*
X10641702D01*
X10658363D01*
Y3024984D01*
X10675024Y3008322D01*
X15891661Y4074984D02*
X15924985D01*
X15908324D01*
Y3991678D01*
X15924985Y3975016D01*
X15941644D01*
X15958305Y3991678D01*
X15791695Y3975016D02*
X15858339D01*
X15791695Y4041661D01*
Y4058323D01*
X15808356Y4074984D01*
X15841676D01*
X15858339Y4058323D01*
X20550000Y6199984D02*
X20583324D01*
X20566661D01*
Y6116677D01*
X20583324Y6100016D01*
X20599985D01*
X20616644Y6116677D01*
X20516676Y6100016D02*
X20483356D01*
X20500015D01*
Y6199984D01*
X20516676Y6183322D01*
X12599960Y4549984D02*
Y4450016D01*
X12549976D01*
X12533315Y4466677D01*
Y4533322D01*
X12549976Y4549984D01*
X12599960D01*
X12499992Y4450016D02*
X12466669D01*
X12483330D01*
Y4549984D01*
X12499992Y4533322D01*
X12416685Y4466677D02*
X12400024Y4450016D01*
X12366701D01*
X12350040Y4466677D01*
Y4533322D01*
X12366701Y4549984D01*
X12400024D01*
X12416685Y4533322D01*
Y4516661D01*
X12400024Y4500000D01*
X12350040D01*
X10467672Y4189797D02*
Y4213359D01*
X10491234Y4236922D01*
X10514797D01*
X10561922Y4189797D01*
Y4166234D01*
X10538360Y4142672D01*
X10514797D01*
X10503016Y4107328D02*
X10479453Y4083765D01*
X10491234Y4095546D01*
X10420546Y4166234D01*
X10444109D01*
X10373421Y4119109D02*
X10326296Y4071984D01*
X10338077Y4060202D01*
X10432328D01*
X10444109Y4048421D01*
X10742672Y3989797D02*
Y4013360D01*
X10766234Y4036922D01*
X10789797D01*
X10836922Y3989797D01*
Y3966235D01*
X10813360Y3942672D01*
X10789797D01*
X10778016Y3907328D02*
X10754453Y3883765D01*
X10766234Y3895547D01*
X10695546Y3966235D01*
X10719109D01*
X10601296Y3871984D02*
X10636640Y3883765D01*
X10683765D01*
X10707328Y3860203D01*
Y3836640D01*
X10683765Y3813077D01*
X10660202Y3813078D01*
X10648421Y3824859D01*
X10648421Y3848422D01*
X10683765Y3883765D01*
X13808315Y2783323D02*
X13824976Y2799984D01*
X13858298D01*
X13874960Y2783323D01*
Y2716678D01*
X13858298Y2700016D01*
X13824976D01*
X13808315Y2716678D01*
X13774992Y2700016D02*
X13741669D01*
X13758330D01*
Y2799984D01*
X13774992Y2783323D01*
X13625040Y2799984D02*
X13691685D01*
Y2750000D01*
X13658363Y2766661D01*
X13641701D01*
X13625040Y2750000D01*
Y2716678D01*
X13641701Y2700016D01*
X13675024D01*
X13691685Y2716678D01*
X18591661Y4333323D02*
X18608322Y4349984D01*
X18641644D01*
X18658305Y4333323D01*
Y4266678D01*
X18641644Y4250016D01*
X18608322D01*
X18591661Y4266678D01*
X18491695Y4349984D02*
X18558339D01*
Y4300000D01*
X18525015Y4316661D01*
X18508356D01*
X18491695Y4300000D01*
Y4266678D01*
X18508356Y4250016D01*
X18541676D01*
X18558339Y4266678D01*
X6116661Y4333323D02*
X6133323Y4349984D01*
X6166645D01*
X6183306Y4333323D01*
Y4266678D01*
X6166645Y4250016D01*
X6133323D01*
X6116661Y4266678D01*
X6016694Y4250016D02*
X6083339D01*
X6016694Y4316661D01*
Y4333323D01*
X6033355Y4349984D01*
X6066677D01*
X6083339Y4333323D01*
X4050000Y3383322D02*
X4066661Y3399984D01*
X4099984D01*
X4116645Y3383322D01*
Y3316677D01*
X4099984Y3300016D01*
X4066661D01*
X4050000Y3316677D01*
X4016677Y3300016D02*
X3983355D01*
X4000016D01*
Y3399984D01*
X4016677Y3383322D01*
D64*
X6779973Y3144973D02*
G03*
X7250017Y2679973I465027J0D01*
G01*
X7244999Y4720027D02*
G03*
X6779972Y4255000I0J-465027D01*
G01*
X7710026D02*
G03*
X7244999Y4720027I-465027J0D01*
G01*
X7245000Y2679973D02*
G03*
X7710027Y3145000I0J465027D01*
G01*
X6780000Y3145000D02*
Y4255000D01*
X7710000Y3150000D02*
Y4260000D01*
D65*
X10974670Y3625000D02*
G03*
X10974670Y3625000I-30000J0D01*
G01*
D66*
X12660003Y4300001D02*
D03*
%TF.MD5,cb5910228c0f75fc62cfd134c2aaabbd*%
M02*
