%TF.GenerationSoftware,Altium Limited,Altium Designer,24.0.1 (36)*%
G04 Layer_Color=65535*
%FSLAX45Y45*%
%MOMM*%
%TF.SameCoordinates,2C358838-E96C-4A59-A5A0-E9FE71613952*%
%TF.FilePolarity,Positive*%
%TF.FileFunction,Legend,Top*%
%TF.Part,Single*%
G01*
G75*
%TA.AperFunction,NonConductor*%
%ADD59C,0.25000*%
%ADD60C,0.15000*%
%ADD61C,0.15240*%
%ADD62C,0.50000*%
%ADD63C,0.20000*%
G36*
X13582758Y4385632D02*
X13595020D01*
Y4379502D01*
X13607280D01*
Y4373372D01*
X13631801D01*
Y4367241D01*
X13686974D01*
Y4361111D01*
X13742145D01*
Y4354981D01*
X13797318D01*
Y4348851D01*
X13846359D01*
Y4342721D01*
X13901534D01*
Y4336590D01*
X13956705D01*
Y4330460D01*
X14011877D01*
Y4324330D01*
X14060921D01*
Y4318199D01*
X14116092D01*
Y4312069D01*
X14165134D01*
Y4305939D01*
X14171265D01*
Y4293678D01*
X14177396D01*
Y4281418D01*
X14183525D01*
Y4269157D01*
X14189655D01*
Y4263027D01*
X14183525D01*
Y4256897D01*
X14116092D01*
Y4250766D01*
X14134483D01*
Y4244636D01*
X14146742D01*
Y4238506D01*
X14171265D01*
Y4232376D01*
X14208046D01*
Y4238506D01*
X14220306D01*
Y4244636D01*
X14238696D01*
Y4238506D01*
X14250958D01*
Y4232376D01*
X14263219D01*
Y4226245D01*
X14275479D01*
Y4220115D01*
X14281609D01*
Y4213985D01*
X14287740D01*
Y4207855D01*
X14293871D01*
Y4201724D01*
X14300000D01*
Y4195594D01*
X14306129D01*
Y4189464D01*
X14312260D01*
Y4183334D01*
X14318391D01*
Y4177203D01*
X14324521D01*
Y4171073D01*
X14330650D01*
Y4164943D01*
X14336781D01*
Y4158812D01*
X14342912D01*
Y4152682D01*
X14349042D01*
Y4146552D01*
X14355173D01*
Y4140422D01*
X14361304D01*
Y4134291D01*
X14367433D01*
Y4122031D01*
X14373563D01*
Y4115901D01*
X14379694D01*
Y4109770D01*
X14385825D01*
Y4103640D01*
X14391954D01*
Y4097510D01*
X14398083D01*
Y4091379D01*
X14404214D01*
Y4085249D01*
X14410345D01*
Y4079119D01*
X14416475D01*
Y4072989D01*
X14422604D01*
Y4060728D01*
X14428735D01*
Y4054598D01*
X14434866D01*
Y4048468D01*
X14440996D01*
Y4023946D01*
X14434866D01*
Y4005556D01*
X14440996D01*
Y3993295D01*
X14447127D01*
Y3981035D01*
X14453258D01*
Y3968774D01*
X14459387D01*
Y3962644D01*
X14465517D01*
Y3950383D01*
X14471648D01*
Y3938123D01*
X14477779D01*
Y3925862D01*
X14483908D01*
Y3913602D01*
X14490038D01*
Y3901341D01*
X14496169D01*
Y3889081D01*
X14502299D01*
Y3919732D01*
X14520689D01*
Y3913602D01*
X14532950D01*
Y3907471D01*
X14545210D01*
Y3901341D01*
X14551341D01*
Y3864559D01*
X14557471D01*
Y3741954D01*
X14563602D01*
Y3619349D01*
X14569733D01*
Y3496743D01*
X14575862D01*
Y3386399D01*
Y3380268D01*
Y3374138D01*
X14581992D01*
Y3331226D01*
X14588123D01*
Y3318966D01*
X14594254D01*
Y3251533D01*
X14588123D01*
Y3233142D01*
X14581992D01*
Y3220881D01*
X14575862D01*
Y3214751D01*
X14569733D01*
Y3202490D01*
X14563602D01*
Y3196360D01*
X14551341D01*
Y3190230D01*
X14545210D01*
Y3184100D01*
X14539079D01*
Y3177970D01*
X14526820D01*
Y3171839D01*
X14502299D01*
Y3165709D01*
X14477779D01*
Y3153448D01*
X14471648D01*
Y3147318D01*
X14465517D01*
Y3141188D01*
X14453258D01*
Y3135057D01*
X14447127D01*
Y3128927D01*
X14440996D01*
Y3122797D01*
X14434866D01*
Y3116667D01*
X14428735D01*
Y3110537D01*
X14422604D01*
Y3104406D01*
X14416475D01*
Y3098276D01*
X14410345D01*
Y3092146D01*
X14404214D01*
Y3086015D01*
X14398083D01*
Y3079885D01*
X14391954D01*
Y3073755D01*
X14379694D01*
Y3067625D01*
X14373563D01*
Y3061494D01*
X14367433D01*
Y3055364D01*
X14361304D01*
Y3049234D01*
X14355173D01*
Y3043104D01*
X14349042D01*
Y3036973D01*
X14342912D01*
Y3030843D01*
X14336781D01*
Y3024713D01*
X14330650D01*
Y3018582D01*
X14324521D01*
Y3012452D01*
X14318391D01*
Y3006322D01*
X14306129D01*
Y3000192D01*
X14300000D01*
Y2994061D01*
X14293871D01*
Y2987931D01*
X14287740D01*
Y2981801D01*
X14281609D01*
Y2975671D01*
X14275479D01*
Y2969540D01*
X14269350D01*
Y2963410D01*
X14263219D01*
Y2957280D01*
X14257088D01*
Y2951150D01*
X14250958D01*
Y2945019D01*
X14244827D01*
Y2938889D01*
X14232567D01*
Y2932759D01*
X14226437D01*
Y2926628D01*
X14220306D01*
Y2920498D01*
X14214175D01*
Y2914368D01*
X14208046D01*
Y2908238D01*
X14201917D01*
Y2902107D01*
X14195786D01*
Y2895977D01*
X14189655D01*
Y2889847D01*
X14183525D01*
Y2877586D01*
X14177396D01*
Y2865326D01*
X14171265D01*
Y2859195D01*
X14165134D01*
Y2853065D01*
X14159004D01*
Y2846935D01*
X14152875D01*
Y2834674D01*
X14140613D01*
Y2828544D01*
X14134483D01*
Y2822414D01*
X14128352D01*
Y2816284D01*
X14116092D01*
Y2810153D01*
X14103831D01*
Y2804023D01*
X14079311D01*
Y2797893D01*
X14005746D01*
Y2804023D01*
X13987357D01*
Y2810153D01*
X13968965D01*
Y2816284D01*
X13944444D01*
Y2822414D01*
X13919923D01*
Y2828544D01*
X13895403D01*
Y2834674D01*
X13870882D01*
Y2840805D01*
X13846359D01*
Y2846935D01*
X13821838D01*
Y2853065D01*
X13791188D01*
Y2859195D01*
X13766667D01*
Y2865326D01*
X13742145D01*
Y2871456D01*
X13717625D01*
Y2877586D01*
X13693103D01*
Y2883717D01*
X13668582D01*
Y2889847D01*
X13644061D01*
Y2895977D01*
X13619540D01*
Y2902107D01*
X13588889D01*
Y2908238D01*
X13564368D01*
Y2914368D01*
X13539847D01*
Y2920498D01*
X13515326D01*
Y2926628D01*
X13490805D01*
Y2932759D01*
X13466283D01*
Y2938889D01*
X13447893D01*
Y2932759D01*
X13441762D01*
Y2920498D01*
X13435632D01*
Y2908238D01*
X13423372D01*
Y2914368D01*
X13417241D01*
Y2920498D01*
X13411111D01*
Y2932759D01*
X13404980D01*
Y2938889D01*
X13398851D01*
Y2945019D01*
X13392720D01*
Y2951150D01*
X13386591D01*
Y2957280D01*
X13380460D01*
Y2963410D01*
X13374329D01*
Y2969540D01*
X13368199D01*
Y2975671D01*
X13362070D01*
Y2981801D01*
X13355939D01*
Y2987931D01*
X13349808D01*
Y2994061D01*
X13343678D01*
Y3000192D01*
X13337547D01*
Y3006322D01*
X13331418D01*
Y3018582D01*
X13325287D01*
Y3024713D01*
X13319157D01*
Y3030843D01*
X13313026D01*
Y3036973D01*
X13306895D01*
Y3043104D01*
X13300766D01*
Y3049234D01*
X13294637D01*
Y3055364D01*
X13288506D01*
Y3061494D01*
X13282376D01*
Y3067625D01*
X13276245D01*
Y3073755D01*
X13270116D01*
Y3079885D01*
X13263985D01*
Y3086015D01*
X13257854D01*
Y3092146D01*
X13251724D01*
Y3104406D01*
X13245593D01*
Y3110537D01*
X13239462D01*
Y3116667D01*
X13233333D01*
Y3122797D01*
X13227203D01*
Y3128927D01*
X13221072D01*
Y3135057D01*
X13214943D01*
Y3141188D01*
X13208812D01*
Y3147318D01*
X13202682D01*
Y3153448D01*
X13196552D01*
Y3159579D01*
X13190421D01*
Y3165709D01*
X13184291D01*
Y3171839D01*
X13178162D01*
Y3177970D01*
X13172031D01*
Y3190230D01*
X13165900D01*
Y3196360D01*
X13159770D01*
Y3202490D01*
X13153641D01*
Y3208621D01*
X13147508D01*
Y3214751D01*
X13141379D01*
Y3220881D01*
X13135249D01*
Y3227012D01*
X13129118D01*
Y3233142D01*
X13122987D01*
Y3239272D01*
X13116858D01*
Y3245402D01*
X13110728D01*
Y3251533D01*
X13116858D01*
Y3257663D01*
X13122987D01*
Y3263793D01*
X13135249D01*
Y3269924D01*
X13141379D01*
Y3288314D01*
X13135249D01*
Y3325096D01*
X13129118D01*
Y3355747D01*
X13122987D01*
Y3392529D01*
X13116858D01*
Y3429310D01*
X13110728D01*
Y3466092D01*
X13104597D01*
Y3496743D01*
X13098466D01*
Y3533525D01*
X13092337D01*
Y3570307D01*
X13086208D01*
Y3600958D01*
X13080077D01*
Y3637739D01*
X13073946D01*
Y3674521D01*
X13067816D01*
Y3705173D01*
X13061687D01*
Y3741954D01*
X13055556D01*
Y3778736D01*
X13049425D01*
Y3803257D01*
X13043295D01*
Y3827778D01*
X13037164D01*
Y3895211D01*
X13043295D01*
Y3913602D01*
X13049425D01*
Y3931992D01*
X13055556D01*
Y3944253D01*
X13061687D01*
Y3950383D01*
X13067816D01*
Y3956514D01*
X13073946D01*
Y3968774D01*
X13080077D01*
Y3974904D01*
X13086208D01*
Y3981035D01*
X13098466D01*
Y3987165D01*
X13104597D01*
Y3993295D01*
X13110728D01*
Y3999425D01*
X13129118D01*
Y4005556D01*
X13141379D01*
Y4011686D01*
X13147508D01*
Y4017816D01*
X13153641D01*
Y4023946D01*
X13159770D01*
Y4030077D01*
X13165900D01*
Y4036207D01*
X13172031D01*
Y4042337D01*
X13178162D01*
Y4048468D01*
X13184291D01*
Y4054598D01*
X13190421D01*
Y4060728D01*
X13196552D01*
Y4066859D01*
X13202682D01*
Y4072989D01*
X13208812D01*
Y4079119D01*
X13214943D01*
Y4085249D01*
X13221072D01*
Y4091379D01*
X13233333D01*
Y4097510D01*
X13239462D01*
Y4103640D01*
X13245593D01*
Y4109770D01*
X13251724D01*
Y4115901D01*
X13257854D01*
Y4122031D01*
X13263985D01*
Y4128161D01*
X13270116D01*
Y4134291D01*
X13276245D01*
Y4140422D01*
X13282376D01*
Y4146552D01*
X13288506D01*
Y4152682D01*
X13294637D01*
Y4158812D01*
X13300766D01*
Y4164943D01*
X13306895D01*
Y4171073D01*
X13313026D01*
Y4177203D01*
X13319157D01*
Y4183334D01*
X13325287D01*
Y4189464D01*
X13331418D01*
Y4195594D01*
X13337547D01*
Y4201724D01*
X13343678D01*
Y4207855D01*
X13349808D01*
Y4213985D01*
X13355939D01*
Y4220115D01*
X13362070D01*
Y4226245D01*
X13368199D01*
Y4232376D01*
X13374329D01*
Y4238506D01*
X13380460D01*
Y4244636D01*
X13386591D01*
Y4250766D01*
X13398851D01*
Y4256897D01*
X13404980D01*
Y4263027D01*
X13411111D01*
Y4269157D01*
X13417241D01*
Y4275288D01*
X13423372D01*
Y4281418D01*
X13435632D01*
Y4312069D01*
X13441762D01*
Y4324330D01*
X13447893D01*
Y4336590D01*
X13454024D01*
Y4348851D01*
X13460153D01*
Y4354981D01*
X13466283D01*
Y4361111D01*
X13472414D01*
Y4367241D01*
X13484674D01*
Y4373372D01*
X13490805D01*
Y4379502D01*
X13503065D01*
Y4385632D01*
X13521455D01*
Y4391763D01*
X13582758D01*
Y4385632D01*
D02*
G37*
%LPC*%
G36*
X13686974Y4348851D02*
X13644061D01*
Y4342721D01*
X13650192D01*
Y4330460D01*
X13656322D01*
Y4318199D01*
X13662453D01*
Y4293678D01*
X13668582D01*
Y4263027D01*
X13662453D01*
Y4244636D01*
X13680843D01*
Y4250766D01*
X13785059D01*
Y4256897D01*
X13883142D01*
Y4263027D01*
X13987357D01*
Y4269157D01*
X14091571D01*
Y4275288D01*
X14165134D01*
Y4281418D01*
X14159004D01*
Y4293678D01*
X14116092D01*
Y4299809D01*
X14060921D01*
Y4305939D01*
X14005746D01*
Y4312069D01*
X13956705D01*
Y4318199D01*
X13901534D01*
Y4324330D01*
X13846359D01*
Y4330460D01*
X13791188D01*
Y4336590D01*
X13742145D01*
Y4342721D01*
X13686974D01*
Y4348851D01*
D02*
G37*
G36*
X13576628Y4373372D02*
X13521455D01*
Y4367241D01*
X13503065D01*
Y4361111D01*
X13496935D01*
Y4354981D01*
X13484674D01*
Y4348851D01*
X13478545D01*
Y4342721D01*
X13472414D01*
Y4336590D01*
X13466283D01*
Y4324330D01*
X13460153D01*
Y4312069D01*
X13454024D01*
Y4238506D01*
X13460153D01*
Y4232376D01*
Y4226245D01*
X13466283D01*
Y4220115D01*
X13472414D01*
Y4207855D01*
X13478545D01*
Y4201724D01*
X13490805D01*
Y4195594D01*
X13496935D01*
Y4189464D01*
X13509195D01*
Y4183334D01*
X13527586D01*
Y4177203D01*
X13570499D01*
Y4183334D01*
X13588889D01*
Y4189464D01*
X13601149D01*
Y4195594D01*
X13613409D01*
Y4201724D01*
X13619540D01*
Y4207855D01*
X13625670D01*
Y4213985D01*
X13631801D01*
Y4226245D01*
X13637930D01*
Y4238506D01*
X13644061D01*
Y4263027D01*
X13650192D01*
Y4293678D01*
X13644061D01*
Y4312069D01*
X13637930D01*
Y4324330D01*
X13631801D01*
Y4336590D01*
X13625670D01*
Y4342721D01*
X13619540D01*
Y4348851D01*
X13613409D01*
Y4354981D01*
X13607280D01*
Y4361111D01*
X13595020D01*
Y4367241D01*
X13576628D01*
Y4373372D01*
D02*
G37*
G36*
X14232567Y4226245D02*
X14226437D01*
Y4220115D01*
X14220306D01*
Y4195594D01*
X14226437D01*
Y4183334D01*
X14232567D01*
Y4171073D01*
X14238696D01*
Y4164943D01*
X14244827D01*
Y4158812D01*
X14250958D01*
Y4152682D01*
X14257088D01*
Y4146552D01*
X14263219D01*
Y4140422D01*
X14269350D01*
Y4134291D01*
X14275479D01*
Y4128161D01*
X14287740D01*
Y4122031D01*
X14293871D01*
Y4115901D01*
X14300000D01*
Y4109770D01*
X14312260D01*
Y4103640D01*
X14318391D01*
Y4097510D01*
X14324521D01*
Y4091379D01*
X14330650D01*
Y4085249D01*
X14336781D01*
Y4079119D01*
X14342912D01*
Y4072989D01*
X14349042D01*
Y4066859D01*
X14355173D01*
Y4060728D01*
X14367433D01*
Y4054598D01*
X14379694D01*
Y4048468D01*
X14391954D01*
Y4042337D01*
X14416475D01*
Y4048468D01*
X14410345D01*
Y4054598D01*
X14404214D01*
Y4066859D01*
X14398083D01*
Y4072989D01*
X14391954D01*
Y4079119D01*
X14385825D01*
Y4085249D01*
X14379694D01*
Y4091379D01*
X14373563D01*
Y4097510D01*
X14367433D01*
Y4103640D01*
X14361304D01*
Y4109770D01*
X14355173D01*
Y4115901D01*
X14349042D01*
Y4128161D01*
X14342912D01*
Y4134291D01*
X14336781D01*
Y4140422D01*
X14330650D01*
Y4146552D01*
X14324521D01*
Y4152682D01*
X14318391D01*
Y4158812D01*
X14312260D01*
Y4164943D01*
X14306129D01*
Y4171073D01*
X14300000D01*
Y4177203D01*
X14293871D01*
Y4183334D01*
X14287740D01*
Y4189464D01*
X14281609D01*
Y4195594D01*
X14275479D01*
Y4201724D01*
X14269350D01*
Y4207855D01*
X14257088D01*
Y4213985D01*
X14250958D01*
Y4220115D01*
X14232567D01*
Y4226245D01*
D02*
G37*
G36*
X13435632Y4263027D02*
X13429501D01*
Y4256897D01*
X13423372D01*
Y4250766D01*
X13417241D01*
Y4244636D01*
X13411111D01*
Y4238506D01*
X13404980D01*
Y4232376D01*
X13398851D01*
Y4226245D01*
X13392720D01*
Y4220115D01*
X13386591D01*
Y4213985D01*
X13374329D01*
Y4207855D01*
X13368199D01*
Y4201724D01*
X13362070D01*
Y4195594D01*
X13355939D01*
Y4189464D01*
X13349808D01*
Y4183334D01*
X13343678D01*
Y4177203D01*
X13337547D01*
Y4171073D01*
X13331418D01*
Y4164943D01*
X13325287D01*
Y4158812D01*
X13319157D01*
Y4152682D01*
X13313026D01*
Y4146552D01*
X13306895D01*
Y4140422D01*
X13300766D01*
Y4134291D01*
X13294637D01*
Y4128161D01*
X13288506D01*
Y4122031D01*
X13282376D01*
Y4115901D01*
X13276245D01*
Y4109770D01*
X13270116D01*
Y4103640D01*
X13263985D01*
Y4097510D01*
X13257854D01*
Y4091379D01*
X13251724D01*
Y4085249D01*
X13245593D01*
Y4079119D01*
X13239462D01*
Y4072989D01*
X13233333D01*
Y4066859D01*
X13227203D01*
Y4060728D01*
X13221072D01*
Y4054598D01*
X13208812D01*
Y4048468D01*
X13202682D01*
Y4042337D01*
X13196552D01*
Y4036207D01*
X13190421D01*
Y4030077D01*
X13184291D01*
Y4023946D01*
X13178162D01*
Y4017816D01*
X13227203D01*
Y4011686D01*
X13251724D01*
Y4005556D01*
X13263985D01*
Y3999425D01*
X13276245D01*
Y3993295D01*
X13282376D01*
Y3987165D01*
X13294637D01*
Y3981035D01*
X13300766D01*
Y3974904D01*
X13306895D01*
Y3968774D01*
X13313026D01*
Y3962644D01*
X13319157D01*
Y3956514D01*
X13325287D01*
Y3944253D01*
X13331418D01*
Y3931992D01*
X13337547D01*
Y3919732D01*
X13343678D01*
Y3901341D01*
X13355939D01*
Y3913602D01*
X13362070D01*
Y3919732D01*
X13368199D01*
Y3931992D01*
X13374329D01*
Y3938123D01*
X13380460D01*
Y3944253D01*
X13386591D01*
Y3956514D01*
X13392720D01*
Y3962644D01*
X13398851D01*
Y3974904D01*
X13404980D01*
Y3981035D01*
X13411111D01*
Y3987165D01*
X13417241D01*
Y3999425D01*
X13423372D01*
Y4005556D01*
X13429501D01*
Y4017816D01*
X13435632D01*
Y4023946D01*
X13441762D01*
Y4036207D01*
X13447893D01*
Y4042337D01*
X13454024D01*
Y4048468D01*
X13460153D01*
Y4060728D01*
X13466283D01*
Y4066859D01*
X13472414D01*
Y4079119D01*
X13478545D01*
Y4085249D01*
X13484674D01*
Y4091379D01*
X13490805D01*
Y4103640D01*
X13496935D01*
Y4109770D01*
X13503065D01*
Y4122031D01*
X13509195D01*
Y4128161D01*
X13515326D01*
Y4134291D01*
X13521455D01*
Y4146552D01*
X13527586D01*
Y4152682D01*
X13533716D01*
Y4158812D01*
X13527586D01*
Y4164943D01*
X13503065D01*
Y4171073D01*
X13490805D01*
Y4177203D01*
X13484674D01*
Y4183334D01*
X13472414D01*
Y4189464D01*
X13466283D01*
Y4195594D01*
X13460153D01*
Y4207855D01*
X13454024D01*
Y4213985D01*
X13447893D01*
Y4226245D01*
X13441762D01*
Y4238506D01*
X13435632D01*
Y4263027D01*
D02*
G37*
G36*
X13227203Y3999425D02*
X13159770D01*
Y3993295D01*
X13141379D01*
Y3987165D01*
X13129118D01*
Y3981035D01*
X13116858D01*
Y3974904D01*
X13110728D01*
Y3968774D01*
X13098466D01*
Y3962644D01*
X13092337D01*
Y3950383D01*
X13086208D01*
Y3944253D01*
X13080077D01*
Y3938123D01*
X13073946D01*
Y3925862D01*
X13067816D01*
Y3913602D01*
X13061687D01*
Y3895211D01*
X13055556D01*
Y3827778D01*
X13061687D01*
Y3803257D01*
X13067816D01*
Y3790996D01*
X13073946D01*
Y3784866D01*
X13080077D01*
Y3772606D01*
X13086208D01*
Y3766475D01*
X13092337D01*
Y3760345D01*
X13098466D01*
Y3754215D01*
X13104597D01*
Y3748084D01*
X13110728D01*
Y3741954D01*
X13122987D01*
Y3735824D01*
X13135249D01*
Y3729694D01*
X13153641D01*
Y3723563D01*
X13178162D01*
Y3717433D01*
X13208812D01*
Y3723563D01*
X13239462D01*
Y3729694D01*
X13251724D01*
Y3735824D01*
X13263985D01*
Y3741954D01*
X13276245D01*
Y3748084D01*
X13282376D01*
Y3754215D01*
X13288506D01*
Y3760345D01*
X13294637D01*
Y3766475D01*
X13300766D01*
Y3772606D01*
X13306895D01*
Y3778736D01*
X13313026D01*
Y3790996D01*
X13319157D01*
Y3803257D01*
X13325287D01*
Y3815517D01*
X13331418D01*
Y3852299D01*
X13337547D01*
Y3864559D01*
X13331418D01*
Y3901341D01*
X13325287D01*
Y3919732D01*
X13319157D01*
Y3931992D01*
X13313026D01*
Y3938123D01*
X13306895D01*
Y3950383D01*
X13300766D01*
Y3956514D01*
X13294637D01*
Y3962644D01*
X13288506D01*
Y3968774D01*
X13282376D01*
Y3974904D01*
X13270116D01*
Y3981035D01*
X13257854D01*
Y3987165D01*
X13245593D01*
Y3993295D01*
X13227203D01*
Y3999425D01*
D02*
G37*
G36*
X14526820Y3895211D02*
X14520689D01*
Y3876820D01*
X14514558D01*
Y3827778D01*
X14508429D01*
Y3778736D01*
X14502299D01*
Y3729694D01*
X14496169D01*
Y3680652D01*
X14490038D01*
Y3631609D01*
X14483908D01*
Y3582567D01*
X14477779D01*
Y3533525D01*
X14471648D01*
Y3509004D01*
Y3502874D01*
Y3484483D01*
X14465517D01*
Y3435441D01*
X14459387D01*
Y3398659D01*
X14508429D01*
Y3392529D01*
X14526820D01*
Y3386399D01*
X14539079D01*
Y3380268D01*
X14551341D01*
Y3374138D01*
X14557471D01*
Y3490613D01*
X14551341D01*
Y3613219D01*
X14545210D01*
Y3735824D01*
X14539079D01*
Y3858429D01*
X14532950D01*
Y3889081D01*
X14526820D01*
Y3895211D01*
D02*
G37*
G36*
X13080077Y3754215D02*
X13073946D01*
Y3741954D01*
X13080077D01*
Y3711303D01*
X13086208D01*
Y3674521D01*
X13092337D01*
Y3637739D01*
X13098466D01*
Y3600958D01*
X13104597D01*
Y3570307D01*
X13110728D01*
Y3533525D01*
X13116858D01*
Y3496743D01*
X13122987D01*
Y3466092D01*
X13129118D01*
Y3429310D01*
X13135249D01*
Y3392529D01*
X13141379D01*
Y3361877D01*
X13147508D01*
Y3325096D01*
X13153641D01*
Y3288314D01*
X13159770D01*
Y3282184D01*
X13165900D01*
Y3288314D01*
X13178162D01*
Y3294445D01*
X13190421D01*
Y3300575D01*
X13202682D01*
Y3306705D01*
X13208812D01*
Y3312835D01*
X13221072D01*
Y3318966D01*
X13233333D01*
Y3325096D01*
X13245593D01*
Y3331226D01*
X13251724D01*
Y3337357D01*
X13263985D01*
Y3343487D01*
X13276245D01*
Y3349617D01*
X13282376D01*
Y3355747D01*
X13294637D01*
Y3361877D01*
X13306895D01*
Y3368008D01*
X13319157D01*
Y3374138D01*
X13325287D01*
Y3380268D01*
X13337547D01*
Y3386399D01*
X13349808D01*
Y3392529D01*
X13362070D01*
Y3423180D01*
X13355939D01*
Y3453832D01*
X13349808D01*
Y3490613D01*
X13343678D01*
Y3521264D01*
X13337547D01*
Y3558046D01*
X13331418D01*
Y3594828D01*
X13325287D01*
Y3625479D01*
X13319157D01*
Y3662261D01*
X13313026D01*
Y3692912D01*
X13306895D01*
Y3729694D01*
X13300766D01*
Y3741954D01*
X13294637D01*
Y3735824D01*
X13288506D01*
Y3729694D01*
X13282376D01*
Y3723563D01*
X13270116D01*
Y3717433D01*
X13257854D01*
Y3711303D01*
X13239462D01*
Y3705173D01*
X13208812D01*
Y3699042D01*
X13178162D01*
Y3705173D01*
X13147508D01*
Y3711303D01*
X13129118D01*
Y3717433D01*
X13116858D01*
Y3723563D01*
X13110728D01*
Y3729694D01*
X13098466D01*
Y3735824D01*
X13092337D01*
Y3741954D01*
X13086208D01*
Y3748084D01*
X13080077D01*
Y3754215D01*
D02*
G37*
G36*
X14508429Y3380268D02*
X14453258D01*
Y3374138D01*
X14434866D01*
Y3368008D01*
X14422604D01*
Y3361877D01*
X14416475D01*
Y3355747D01*
X14410345D01*
Y3349617D01*
X14404214D01*
Y3343487D01*
X14398083D01*
Y3331226D01*
X14391954D01*
Y3318966D01*
X14385825D01*
Y3300575D01*
X14379694D01*
Y3263793D01*
X14385825D01*
Y3245402D01*
X14391954D01*
Y3233142D01*
X14398083D01*
Y3220881D01*
X14404214D01*
Y3214751D01*
X14410345D01*
Y3208621D01*
X14416475D01*
Y3202490D01*
X14428735D01*
Y3196360D01*
X14440996D01*
Y3190230D01*
X14453258D01*
Y3184100D01*
X14502299D01*
Y3190230D01*
X14520689D01*
Y3196360D01*
X14532950D01*
Y3202490D01*
X14539079D01*
Y3208621D01*
X14551341D01*
Y3220881D01*
X14557471D01*
Y3227012D01*
X14563602D01*
Y3239272D01*
X14569733D01*
Y3251533D01*
X14575862D01*
Y3306705D01*
Y3312835D01*
X14569733D01*
Y3331226D01*
X14563602D01*
Y3337357D01*
X14557471D01*
Y3349617D01*
X14551341D01*
Y3355747D01*
X14545210D01*
Y3361877D01*
X14532950D01*
Y3368008D01*
X14526820D01*
Y3374138D01*
X14508429D01*
Y3380268D01*
D02*
G37*
G36*
X14079311Y4250766D02*
X13987357D01*
Y4244636D01*
X13889272D01*
Y4238506D01*
X13785059D01*
Y4232376D01*
X13686974D01*
Y4226245D01*
X13656322D01*
Y4220115D01*
X13650192D01*
Y4213985D01*
X13644061D01*
Y4201724D01*
X13637930D01*
Y4195594D01*
X13631801D01*
Y4189464D01*
X13625670D01*
Y4183334D01*
X13619540D01*
Y4177203D01*
X13607280D01*
Y4171073D01*
X13595020D01*
Y4164943D01*
X13576628D01*
Y4158812D01*
X13552107D01*
Y4146552D01*
X13545976D01*
Y4140422D01*
X13539847D01*
Y4134291D01*
X13533716D01*
Y4122031D01*
X13527586D01*
Y4115901D01*
X13521455D01*
Y4103640D01*
X13515326D01*
Y4097510D01*
X13509195D01*
Y4091379D01*
X13503065D01*
Y4079119D01*
X13496935D01*
Y4072989D01*
X13490805D01*
Y4060728D01*
X13484674D01*
Y4054598D01*
X13478545D01*
Y4042337D01*
X13472414D01*
Y4036207D01*
X13466283D01*
Y4030077D01*
X13460153D01*
Y4017816D01*
X13454024D01*
Y4011686D01*
X13447893D01*
Y3999425D01*
X13441762D01*
Y3993295D01*
X13435632D01*
Y3987165D01*
X13429501D01*
Y3974904D01*
X13423372D01*
Y3968774D01*
X13417241D01*
Y3956514D01*
X13411111D01*
Y3950383D01*
X13404980D01*
Y3944253D01*
X13398851D01*
Y3931992D01*
X13392720D01*
Y3925862D01*
X13386591D01*
Y3913602D01*
X13380460D01*
Y3907471D01*
X13374329D01*
Y3895211D01*
X13368199D01*
Y3889081D01*
X13362070D01*
Y3882950D01*
X13355939D01*
Y3852299D01*
X13349808D01*
Y3815517D01*
X13343678D01*
Y3797127D01*
X13337547D01*
Y3784866D01*
X13331418D01*
Y3772606D01*
X13325287D01*
Y3766475D01*
X13319157D01*
Y3729694D01*
X13325287D01*
Y3692912D01*
X13331418D01*
Y3662261D01*
X13337547D01*
Y3625479D01*
X13343678D01*
Y3588697D01*
X13349808D01*
Y3558046D01*
X13355939D01*
Y3521264D01*
X13362070D01*
Y3484483D01*
X13368199D01*
Y3453832D01*
X13374329D01*
Y3417050D01*
X13380460D01*
Y3410920D01*
X13392720D01*
Y3417050D01*
X13404980D01*
Y3410920D01*
X13411111D01*
Y3404789D01*
X13417241D01*
Y3398659D01*
X13423372D01*
Y3392529D01*
X13429501D01*
Y3386399D01*
X13435632D01*
Y3380268D01*
X13441762D01*
Y3368008D01*
X13447893D01*
Y3361877D01*
X13454024D01*
Y3355747D01*
X13460153D01*
Y3349617D01*
X13466283D01*
Y3343487D01*
X13472414D01*
Y3337357D01*
X13478545D01*
Y3331226D01*
X13484674D01*
Y3325096D01*
X13490805D01*
Y3318966D01*
X13496935D01*
Y3312835D01*
X13503065D01*
Y3306705D01*
X13509195D01*
Y3300575D01*
X13515326D01*
Y3294445D01*
X13521455D01*
Y3282184D01*
X13527586D01*
Y3276054D01*
X13533716D01*
Y3269924D01*
X13539847D01*
Y3263793D01*
X13545976D01*
Y3257663D01*
X13552107D01*
Y3251533D01*
X13558238D01*
Y3245402D01*
X13564368D01*
Y3239272D01*
X13570499D01*
Y3233142D01*
X13576628D01*
Y3227012D01*
X13582758D01*
Y3220881D01*
X13588889D01*
Y3214751D01*
X13595020D01*
Y3208621D01*
X13601149D01*
Y3196360D01*
X13607280D01*
Y3190230D01*
X13601149D01*
Y3177970D01*
X13595020D01*
Y3171839D01*
X13601149D01*
Y3165709D01*
X13625670D01*
Y3159579D01*
X13650192D01*
Y3153448D01*
X13674713D01*
Y3147318D01*
X13699234D01*
Y3141188D01*
X13723755D01*
Y3135057D01*
X13754407D01*
Y3128927D01*
X13778928D01*
Y3122797D01*
X13803448D01*
Y3116667D01*
X13827969D01*
Y3110537D01*
X13852490D01*
Y3104406D01*
X13877011D01*
Y3098276D01*
X13901534D01*
Y3092146D01*
X13926054D01*
Y3086015D01*
X13962836D01*
Y3092146D01*
X13968965D01*
Y3098276D01*
X13981226D01*
Y3104406D01*
X13999617D01*
Y3110537D01*
X14067050D01*
Y3116667D01*
X14079311D01*
Y3122797D01*
X14085442D01*
Y3128927D01*
X14097701D01*
Y3135057D01*
X14109962D01*
Y3141188D01*
X14116092D01*
Y3147318D01*
X14128352D01*
Y3153448D01*
X14134483D01*
Y3159579D01*
X14146742D01*
Y3165709D01*
X14159004D01*
Y3171839D01*
X14165134D01*
Y3177970D01*
X14177396D01*
Y3184100D01*
X14189655D01*
Y3190230D01*
X14195786D01*
Y3196360D01*
X14208046D01*
Y3202490D01*
X14214175D01*
Y3208621D01*
X14226437D01*
Y3214751D01*
X14238696D01*
Y3220881D01*
X14244827D01*
Y3227012D01*
X14257088D01*
Y3233142D01*
X14263219D01*
Y3239272D01*
X14275479D01*
Y3245402D01*
X14287740D01*
Y3251533D01*
X14293871D01*
Y3257663D01*
X14306129D01*
Y3263793D01*
X14318391D01*
Y3269924D01*
X14324521D01*
Y3276054D01*
X14336781D01*
Y3282184D01*
X14342912D01*
Y3288314D01*
X14355173D01*
Y3294445D01*
X14361304D01*
Y3300575D01*
X14367433D01*
Y3325096D01*
X14373563D01*
Y3337357D01*
X14379694D01*
Y3349617D01*
X14385825D01*
Y3355747D01*
X14391954D01*
Y3361877D01*
X14398083D01*
Y3368008D01*
X14404214D01*
Y3374138D01*
X14410345D01*
Y3380268D01*
X14422604D01*
Y3386399D01*
X14434866D01*
Y3392529D01*
X14440996D01*
Y3435441D01*
X14447127D01*
Y3484483D01*
X14453258D01*
Y3533525D01*
X14459387D01*
Y3582567D01*
X14465517D01*
Y3631609D01*
X14471648D01*
Y3680652D01*
X14477779D01*
Y3729694D01*
X14483908D01*
Y3778736D01*
X14490038D01*
Y3827778D01*
X14496169D01*
Y3852299D01*
X14490038D01*
Y3870690D01*
X14483908D01*
Y3882950D01*
X14477779D01*
Y3895211D01*
X14471648D01*
Y3913602D01*
X14465517D01*
Y3925862D01*
X14459387D01*
Y3938123D01*
X14453258D01*
Y3944253D01*
X14447127D01*
Y3956514D01*
X14440996D01*
Y3968774D01*
X14434866D01*
Y3974904D01*
X14428735D01*
Y3993295D01*
X14422604D01*
Y4005556D01*
X14416475D01*
Y4023946D01*
X14391954D01*
Y4030077D01*
X14373563D01*
Y4036207D01*
X14361304D01*
Y4042337D01*
X14349042D01*
Y4048468D01*
X14342912D01*
Y4054598D01*
X14336781D01*
Y4060728D01*
X14324521D01*
Y4072989D01*
X14318391D01*
Y4079119D01*
X14312260D01*
Y4085249D01*
X14306129D01*
Y4091379D01*
X14293871D01*
Y4097510D01*
X14287740D01*
Y4103640D01*
X14281609D01*
Y4109770D01*
X14275479D01*
Y4115901D01*
X14263219D01*
Y4122031D01*
X14257088D01*
Y4128161D01*
X14250958D01*
Y4134291D01*
X14244827D01*
Y4140422D01*
X14238696D01*
Y4146552D01*
X14232567D01*
Y4152682D01*
X14226437D01*
Y4158812D01*
X14220306D01*
Y4171073D01*
X14214175D01*
Y4177203D01*
X14208046D01*
Y4195594D01*
X14201917D01*
Y4213985D01*
X14165134D01*
Y4220115D01*
X14146742D01*
Y4226245D01*
X14134483D01*
Y4232376D01*
X14116092D01*
Y4238506D01*
X14097701D01*
Y4244636D01*
X14079311D01*
Y4250766D01*
D02*
G37*
G36*
X13398851Y3398659D02*
X13392720D01*
Y3392529D01*
X13386591D01*
Y3386399D01*
X13374329D01*
Y3380268D01*
X13362070D01*
Y3374138D01*
X13349808D01*
Y3368008D01*
X13343678D01*
Y3361877D01*
X13331418D01*
Y3355747D01*
X13319157D01*
Y3349617D01*
X13313026D01*
Y3343487D01*
X13300766D01*
Y3337357D01*
X13288506D01*
Y3331226D01*
X13276245D01*
Y3325096D01*
X13270116D01*
Y3318966D01*
X13257854D01*
Y3312835D01*
X13245593D01*
Y3306705D01*
X13233333D01*
Y3300575D01*
X13227203D01*
Y3294445D01*
X13214943D01*
Y3288314D01*
X13202682D01*
Y3282184D01*
X13190421D01*
Y3276054D01*
X13184291D01*
Y3269924D01*
X13172031D01*
Y3263793D01*
X13159770D01*
Y3257663D01*
X13147508D01*
Y3251533D01*
X13141379D01*
Y3239272D01*
X13147508D01*
Y3233142D01*
X13153641D01*
Y3227012D01*
X13159770D01*
Y3220881D01*
X13165900D01*
Y3214751D01*
X13172031D01*
Y3208621D01*
X13178162D01*
Y3202490D01*
X13184291D01*
Y3196360D01*
X13190421D01*
Y3190230D01*
X13196552D01*
Y3177970D01*
X13202682D01*
Y3171839D01*
X13208812D01*
Y3165709D01*
X13214943D01*
Y3159579D01*
X13221072D01*
Y3153448D01*
X13227203D01*
Y3147318D01*
X13233333D01*
Y3141188D01*
X13239462D01*
Y3135057D01*
X13245593D01*
Y3128927D01*
X13251724D01*
Y3122797D01*
X13257854D01*
Y3116667D01*
X13263985D01*
Y3110537D01*
X13270116D01*
Y3098276D01*
X13276245D01*
Y3092146D01*
X13282376D01*
Y3086015D01*
X13288506D01*
Y3079885D01*
X13294637D01*
Y3073755D01*
X13300766D01*
Y3067625D01*
X13306895D01*
Y3061494D01*
X13313026D01*
Y3055364D01*
X13319157D01*
Y3049234D01*
X13325287D01*
Y3043104D01*
X13331418D01*
Y3036973D01*
X13337547D01*
Y3030843D01*
X13343678D01*
Y3024713D01*
X13349808D01*
Y3012452D01*
X13355939D01*
Y3006322D01*
X13362070D01*
Y3000192D01*
X13368199D01*
Y2994061D01*
X13374329D01*
Y2987931D01*
X13380460D01*
Y2981801D01*
X13386591D01*
Y2975671D01*
X13392720D01*
Y2969540D01*
X13398851D01*
Y2963410D01*
X13404980D01*
Y2957280D01*
X13411111D01*
Y2951150D01*
X13417241D01*
Y2945019D01*
X13423372D01*
Y2938889D01*
X13429501D01*
Y2945019D01*
X13435632D01*
Y2957280D01*
X13441762D01*
Y2963410D01*
X13447893D01*
Y2975671D01*
X13454024D01*
Y2987931D01*
X13460153D01*
Y2994061D01*
X13466283D01*
Y3006322D01*
X13472414D01*
Y3012452D01*
X13478545D01*
Y3024713D01*
X13484674D01*
Y3036973D01*
X13490805D01*
Y3043104D01*
X13496935D01*
Y3055364D01*
X13503065D01*
Y3067625D01*
X13509195D01*
Y3073755D01*
X13515326D01*
Y3086015D01*
X13521455D01*
Y3092146D01*
X13527586D01*
Y3104406D01*
X13533716D01*
Y3116667D01*
X13539847D01*
Y3122797D01*
X13545976D01*
Y3135057D01*
X13552107D01*
Y3141188D01*
X13558238D01*
Y3153448D01*
X13564368D01*
Y3165709D01*
X13570499D01*
Y3171839D01*
X13576628D01*
Y3184100D01*
X13582758D01*
Y3196360D01*
X13576628D01*
Y3208621D01*
X13570499D01*
Y3214751D01*
X13564368D01*
Y3220881D01*
X13558238D01*
Y3227012D01*
X13552107D01*
Y3233142D01*
X13545976D01*
Y3239272D01*
X13539847D01*
Y3245402D01*
X13533716D01*
Y3251533D01*
X13527586D01*
Y3257663D01*
X13521455D01*
Y3263793D01*
X13515326D01*
Y3269924D01*
X13509195D01*
Y3276054D01*
X13503065D01*
Y3288314D01*
X13496935D01*
Y3294445D01*
X13490805D01*
Y3300575D01*
X13484674D01*
Y3306705D01*
X13478545D01*
Y3312835D01*
X13472414D01*
Y3318966D01*
X13466283D01*
Y3325096D01*
X13460153D01*
Y3331226D01*
X13454024D01*
Y3337357D01*
X13447893D01*
Y3343487D01*
X13441762D01*
Y3349617D01*
X13435632D01*
Y3355747D01*
X13429501D01*
Y3361877D01*
X13423372D01*
Y3374138D01*
X13417241D01*
Y3380268D01*
X13411111D01*
Y3386399D01*
X13404980D01*
Y3392529D01*
X13398851D01*
Y3398659D01*
D02*
G37*
G36*
X14367433Y3269924D02*
X14349042D01*
Y3263793D01*
X14336781D01*
Y3257663D01*
X14330650D01*
Y3251533D01*
X14318391D01*
Y3245402D01*
X14312260D01*
Y3239272D01*
X14300000D01*
Y3233142D01*
X14287740D01*
Y3227012D01*
X14281609D01*
Y3220881D01*
X14269350D01*
Y3214751D01*
X14257088D01*
Y3208621D01*
X14250958D01*
Y3202490D01*
X14238696D01*
Y3196360D01*
X14232567D01*
Y3190230D01*
X14220306D01*
Y3184100D01*
X14208046D01*
Y3177970D01*
X14201917D01*
Y3171839D01*
X14189655D01*
Y3165709D01*
X14177396D01*
Y3159579D01*
X14171265D01*
Y3153448D01*
X14159004D01*
Y3147318D01*
X14152875D01*
Y3141188D01*
X14140613D01*
Y3135057D01*
X14128352D01*
Y3128927D01*
X14122221D01*
Y3122797D01*
X14109962D01*
Y3116667D01*
X14103831D01*
Y3110537D01*
X14091571D01*
Y3104406D01*
X14103831D01*
Y3098276D01*
X14116092D01*
Y3092146D01*
X14128352D01*
Y3086015D01*
X14134483D01*
Y3079885D01*
X14146742D01*
Y3073755D01*
X14152875D01*
Y3067625D01*
X14159004D01*
Y3055364D01*
X14165134D01*
Y3049234D01*
X14171265D01*
Y3043104D01*
X14177396D01*
Y3030843D01*
X14183525D01*
Y3018582D01*
X14189655D01*
Y3006322D01*
X14195786D01*
Y2975671D01*
X14201917D01*
Y2932759D01*
X14208046D01*
Y2938889D01*
X14214175D01*
Y2945019D01*
X14220306D01*
Y2951150D01*
X14226437D01*
Y2957280D01*
X14238696D01*
Y2963410D01*
X14244827D01*
Y2969540D01*
X14250958D01*
Y2975671D01*
X14257088D01*
Y2981801D01*
X14263219D01*
Y2987931D01*
X14269350D01*
Y2994061D01*
X14275479D01*
Y3000192D01*
X14281609D01*
Y3006322D01*
X14287740D01*
Y3012452D01*
X14293871D01*
Y3018582D01*
X14300000D01*
Y3024713D01*
X14312260D01*
Y3030843D01*
X14318391D01*
Y3036973D01*
X14324521D01*
Y3043104D01*
X14330650D01*
Y3049234D01*
X14336781D01*
Y3055364D01*
X14342912D01*
Y3061494D01*
X14349042D01*
Y3067625D01*
X14355173D01*
Y3073755D01*
X14361304D01*
Y3079885D01*
X14367433D01*
Y3086015D01*
X14373563D01*
Y3092146D01*
X14385825D01*
Y3098276D01*
X14391954D01*
Y3104406D01*
X14398083D01*
Y3110537D01*
X14404214D01*
Y3116667D01*
X14410345D01*
Y3122797D01*
X14416475D01*
Y3128927D01*
X14422604D01*
Y3135057D01*
X14428735D01*
Y3141188D01*
X14434866D01*
Y3147318D01*
X14440996D01*
Y3153448D01*
X14447127D01*
Y3159579D01*
X14459387D01*
Y3165709D01*
X14453258D01*
Y3171839D01*
X14434866D01*
Y3177970D01*
X14422604D01*
Y3184100D01*
X14416475D01*
Y3190230D01*
X14404214D01*
Y3196360D01*
X14398083D01*
Y3202490D01*
X14391954D01*
Y3208621D01*
X14385825D01*
Y3220881D01*
X14379694D01*
Y3227012D01*
X14373563D01*
Y3245402D01*
X14367433D01*
Y3269924D01*
D02*
G37*
G36*
X14201917Y2932759D02*
X14195786D01*
Y2926628D01*
X14201917D01*
Y2932759D01*
D02*
G37*
G36*
X13601149Y3153448D02*
X13582758D01*
Y3147318D01*
X13576628D01*
Y3141188D01*
X13570499D01*
Y3128927D01*
X13564368D01*
Y3122797D01*
X13558238D01*
Y3110537D01*
X13552107D01*
Y3098276D01*
X13545976D01*
Y3092146D01*
X13539847D01*
Y3079885D01*
X13533716D01*
Y3067625D01*
X13527586D01*
Y3061494D01*
X13521455D01*
Y3049234D01*
X13515326D01*
Y3043104D01*
X13509195D01*
Y3030843D01*
X13503065D01*
Y3018582D01*
X13496935D01*
Y3012452D01*
X13490805D01*
Y3000192D01*
X13484674D01*
Y2994061D01*
X13478545D01*
Y2981801D01*
X13472414D01*
Y2969540D01*
X13466283D01*
Y2963410D01*
X13460153D01*
Y2957280D01*
X13466283D01*
Y2951150D01*
X13490805D01*
Y2945019D01*
X13521455D01*
Y2938889D01*
X13545976D01*
Y2932759D01*
X13570499D01*
Y2926628D01*
X13595020D01*
Y2920498D01*
X13619540D01*
Y2914368D01*
X13644061D01*
Y2908238D01*
X13668582D01*
Y2902107D01*
X13693103D01*
Y2895977D01*
X13717625D01*
Y2889847D01*
X13748276D01*
Y2883717D01*
X13772797D01*
Y2877586D01*
X13797318D01*
Y2871456D01*
X13821838D01*
Y2865326D01*
X13846359D01*
Y2859195D01*
X13870882D01*
Y2853065D01*
X13895403D01*
Y2846935D01*
X13919923D01*
Y2840805D01*
X13926054D01*
Y2853065D01*
X13919923D01*
Y2859195D01*
X13913792D01*
Y2865326D01*
X13907663D01*
Y2877586D01*
X13901534D01*
Y2889847D01*
X13895403D01*
Y2902107D01*
X13889272D01*
Y2926628D01*
X13883142D01*
Y2981801D01*
X13889272D01*
Y3006322D01*
X13895403D01*
Y3018582D01*
X13901534D01*
Y3030843D01*
X13907663D01*
Y3043104D01*
X13913792D01*
Y3049234D01*
X13919923D01*
Y3055364D01*
X13926054D01*
Y3073755D01*
X13901534D01*
Y3079885D01*
X13877011D01*
Y3086015D01*
X13852490D01*
Y3092146D01*
X13827969D01*
Y3098276D01*
X13803448D01*
Y3104406D01*
X13772797D01*
Y3110537D01*
X13748276D01*
Y3116667D01*
X13723755D01*
Y3122797D01*
X13699234D01*
Y3128927D01*
X13674713D01*
Y3135057D01*
X13650192D01*
Y3141188D01*
X13625670D01*
Y3147318D01*
X13601149D01*
Y3153448D01*
D02*
G37*
G36*
X14085442Y3092146D02*
X13999617D01*
Y3086015D01*
X13987357D01*
Y3079885D01*
X13975096D01*
Y3073755D01*
X13962836D01*
Y3067625D01*
X13956705D01*
Y3061494D01*
X13944444D01*
Y3055364D01*
X13938313D01*
Y3043104D01*
X13932184D01*
Y3036973D01*
X13926054D01*
Y3030843D01*
X13919923D01*
Y3018582D01*
X13913792D01*
Y3000192D01*
X13907663D01*
Y2981801D01*
X13901534D01*
Y2926628D01*
X13907663D01*
Y2908238D01*
X13913792D01*
Y2889847D01*
X13919923D01*
Y2877586D01*
X13926054D01*
Y2871456D01*
X13932184D01*
Y2865326D01*
X13938313D01*
Y2859195D01*
X13944444D01*
Y2853065D01*
X13950575D01*
Y2846935D01*
X13956705D01*
Y2840805D01*
X13962836D01*
Y2834674D01*
X13975096D01*
Y2828544D01*
X13987357D01*
Y2822414D01*
X14005746D01*
Y2816284D01*
X14079311D01*
Y2822414D01*
X14097701D01*
Y2828544D01*
X14109962D01*
Y2834674D01*
X14122221D01*
Y2840805D01*
X14128352D01*
Y2846935D01*
X14134483D01*
Y2853065D01*
X14140613D01*
Y2859195D01*
X14146742D01*
Y2865326D01*
X14152875D01*
Y2871456D01*
X14159004D01*
Y2883717D01*
X14165134D01*
Y2889847D01*
X14171265D01*
Y2908238D01*
X14177396D01*
Y2932759D01*
X14183525D01*
Y2981801D01*
X14177396D01*
Y3006322D01*
X14171265D01*
Y3018582D01*
X14165134D01*
Y3030843D01*
X14159004D01*
Y3036973D01*
X14152875D01*
Y3043104D01*
X14146742D01*
Y3055364D01*
X14134483D01*
Y3061494D01*
X14128352D01*
Y3067625D01*
X14122221D01*
Y3073755D01*
X14109962D01*
Y3079885D01*
X14097701D01*
Y3086015D01*
X14085442D01*
Y3092146D01*
D02*
G37*
%LPD*%
G36*
X13576628Y4342721D02*
X13588889D01*
Y4336590D01*
X13595020D01*
Y4330460D01*
X13607280D01*
Y4318199D01*
X13613409D01*
Y4312069D01*
X13619540D01*
Y4293678D01*
X13625670D01*
Y4256897D01*
X13619540D01*
Y4244636D01*
X13613409D01*
Y4232376D01*
X13607280D01*
Y4226245D01*
X13601149D01*
Y4220115D01*
X13595020D01*
Y4213985D01*
X13588889D01*
Y4207855D01*
X13576628D01*
Y4201724D01*
X13527586D01*
Y4207855D01*
X13509195D01*
Y4213985D01*
X13503065D01*
Y4220115D01*
X13496935D01*
Y4226245D01*
X13490805D01*
Y4232376D01*
X13484674D01*
Y4244636D01*
X13478545D01*
Y4263027D01*
X13472414D01*
Y4287548D01*
X13478545D01*
Y4305939D01*
X13484674D01*
Y4318199D01*
X13490805D01*
Y4324330D01*
X13496935D01*
Y4330460D01*
X13503065D01*
Y4336590D01*
X13509195D01*
Y4342721D01*
X13521455D01*
Y4348851D01*
X13576628D01*
Y4342721D01*
D02*
G37*
%LPC*%
G36*
Y4330460D02*
X13527586D01*
Y4324330D01*
X13515326D01*
Y4318199D01*
X13509195D01*
Y4312069D01*
X13503065D01*
Y4305939D01*
X13496935D01*
Y4281418D01*
X13490805D01*
Y4269157D01*
X13496935D01*
Y4250766D01*
X13503065D01*
Y4238506D01*
X13509195D01*
Y4232376D01*
X13515326D01*
Y4226245D01*
X13527586D01*
Y4220115D01*
X13570499D01*
Y4226245D01*
X13582758D01*
Y4232376D01*
X13588889D01*
Y4238506D01*
X13595020D01*
Y4244636D01*
X13601149D01*
Y4263027D01*
X13607280D01*
Y4293678D01*
X13601149D01*
Y4299809D01*
Y4305939D01*
X13595020D01*
Y4312069D01*
X13588889D01*
Y4318199D01*
X13582758D01*
Y4324330D01*
X13576628D01*
Y4330460D01*
D02*
G37*
%LPD*%
G36*
X13227203Y3950383D02*
X13239462D01*
Y3944253D01*
X13251724D01*
Y3938123D01*
X13257854D01*
Y3931992D01*
X13263985D01*
Y3925862D01*
X13270116D01*
Y3919732D01*
X13276245D01*
Y3907471D01*
X13282376D01*
Y3895211D01*
X13288506D01*
Y3876820D01*
X13294637D01*
Y3846169D01*
X13288506D01*
Y3821648D01*
X13282376D01*
Y3809387D01*
X13276245D01*
Y3803257D01*
X13270116D01*
Y3790996D01*
X13263985D01*
Y3784866D01*
X13251724D01*
Y3778736D01*
X13245593D01*
Y3772606D01*
X13233333D01*
Y3766475D01*
X13214943D01*
Y3760345D01*
X13172031D01*
Y3766475D01*
X13153641D01*
Y3772606D01*
X13141379D01*
Y3778736D01*
X13135249D01*
Y3784866D01*
X13129118D01*
Y3790996D01*
X13122987D01*
Y3797127D01*
X13116858D01*
Y3803257D01*
X13110728D01*
Y3815517D01*
X13104597D01*
Y3827778D01*
X13098466D01*
Y3889081D01*
X13104597D01*
Y3895211D01*
Y3907471D01*
X13110728D01*
Y3913602D01*
X13116858D01*
Y3925862D01*
X13122987D01*
Y3931992D01*
X13129118D01*
Y3938123D01*
X13141379D01*
Y3944253D01*
X13147508D01*
Y3950383D01*
X13165900D01*
Y3956514D01*
X13227203D01*
Y3950383D01*
D02*
G37*
%LPC*%
G36*
X13221072Y3938123D02*
X13165900D01*
Y3931992D01*
X13153641D01*
Y3925862D01*
X13141379D01*
Y3919732D01*
X13135249D01*
Y3913602D01*
X13129118D01*
Y3901341D01*
X13122987D01*
Y3889081D01*
X13116858D01*
Y3827778D01*
X13122987D01*
Y3815517D01*
X13129118D01*
Y3809387D01*
X13135249D01*
Y3803257D01*
X13141379D01*
Y3797127D01*
X13147508D01*
Y3790996D01*
X13159770D01*
Y3784866D01*
X13178162D01*
Y3778736D01*
X13208812D01*
Y3784866D01*
X13227203D01*
Y3790996D01*
X13239462D01*
Y3797127D01*
X13245593D01*
Y3803257D01*
X13251724D01*
Y3809387D01*
X13257854D01*
Y3815517D01*
X13263985D01*
Y3827778D01*
X13270116D01*
Y3846169D01*
X13276245D01*
Y3876820D01*
X13270116D01*
Y3895211D01*
X13263985D01*
Y3907471D01*
X13257854D01*
Y3913602D01*
X13251724D01*
Y3919732D01*
X13245593D01*
Y3925862D01*
X13233333D01*
Y3931992D01*
X13221072D01*
Y3938123D01*
D02*
G37*
%LPD*%
G36*
X14508429Y3349617D02*
X14520689D01*
Y3343487D01*
X14526820D01*
Y3337357D01*
X14532950D01*
Y3331226D01*
X14539079D01*
Y3325096D01*
X14545210D01*
Y3312835D01*
X14551341D01*
Y3294445D01*
X14557471D01*
Y3276054D01*
X14551341D01*
Y3263793D01*
Y3257663D01*
Y3251533D01*
X14545210D01*
Y3239272D01*
X14539079D01*
Y3233142D01*
X14532950D01*
Y3227012D01*
X14526820D01*
Y3220881D01*
X14514558D01*
Y3214751D01*
X14502299D01*
Y3208621D01*
X14453258D01*
Y3214751D01*
X14440996D01*
Y3220881D01*
X14434866D01*
Y3227012D01*
X14428735D01*
Y3233142D01*
X14422604D01*
Y3239272D01*
X14416475D01*
Y3245402D01*
X14410345D01*
Y3263793D01*
X14404214D01*
Y3300575D01*
X14410345D01*
Y3318966D01*
X14416475D01*
Y3331226D01*
X14422604D01*
Y3337357D01*
X14428735D01*
Y3343487D01*
X14440996D01*
Y3349617D01*
X14453258D01*
Y3355747D01*
X14508429D01*
Y3349617D01*
D02*
G37*
%LPC*%
G36*
X14502299Y3337357D02*
X14453258D01*
Y3331226D01*
X14447127D01*
Y3325096D01*
X14440996D01*
Y3318966D01*
X14434866D01*
Y3312835D01*
X14428735D01*
Y3300575D01*
X14422604D01*
Y3263793D01*
X14428735D01*
Y3251533D01*
X14434866D01*
Y3245402D01*
X14440996D01*
Y3239272D01*
X14447127D01*
Y3233142D01*
X14459387D01*
Y3227012D01*
X14502299D01*
Y3233142D01*
X14514558D01*
Y3239272D01*
X14520689D01*
Y3245402D01*
X14526820D01*
Y3257663D01*
X14532950D01*
Y3276054D01*
X14539079D01*
Y3288314D01*
X14532950D01*
Y3306705D01*
X14526820D01*
Y3312835D01*
Y3318966D01*
X14520689D01*
Y3325096D01*
X14514558D01*
Y3331226D01*
X14502299D01*
Y3337357D01*
D02*
G37*
%LPD*%
G36*
X13919923Y4213985D02*
X13932184D01*
Y4207855D01*
X13938313D01*
Y4189464D01*
X13932184D01*
Y4183334D01*
X13926054D01*
Y4177203D01*
X13907663D01*
Y4171073D01*
X13852490D01*
Y4177203D01*
X13840230D01*
Y4183334D01*
X13834100D01*
Y4201724D01*
X13840230D01*
Y4207855D01*
X13852490D01*
Y4213985D01*
X13870882D01*
Y4220115D01*
X13919923D01*
Y4213985D01*
D02*
G37*
G36*
X14165134Y4072989D02*
X14177396D01*
Y4066859D01*
X14183525D01*
Y4054598D01*
X14189655D01*
Y4036207D01*
X14183525D01*
Y4030077D01*
X14140613D01*
Y4036207D01*
X14134483D01*
Y4042337D01*
X14128352D01*
Y4048468D01*
X14122221D01*
Y4054598D01*
Y4072989D01*
X14134483D01*
Y4079119D01*
X14165134D01*
Y4072989D01*
D02*
G37*
G36*
X13785059Y4122031D02*
X13809578D01*
Y4115901D01*
X13827969D01*
Y4109770D01*
X13846359D01*
Y4103640D01*
X13858621D01*
Y4097510D01*
X13870882D01*
Y4091379D01*
X13877011D01*
Y4085249D01*
X13883142D01*
Y4079119D01*
X13889272D01*
Y4072989D01*
X13895403D01*
Y4066859D01*
X13901534D01*
Y4060728D01*
X13907663D01*
Y4054598D01*
X13913792D01*
Y4048468D01*
X13926054D01*
Y4036207D01*
X13919923D01*
Y4030077D01*
X13913792D01*
Y4036207D01*
X13901534D01*
Y4042337D01*
X13895403D01*
Y4030077D01*
X13889272D01*
Y4017816D01*
X13883142D01*
Y4005556D01*
X13877011D01*
Y3999425D01*
X13870882D01*
Y3993295D01*
X13864751D01*
Y3987165D01*
X13858621D01*
Y3981035D01*
X13846359D01*
Y3974904D01*
X13840230D01*
Y3968774D01*
X13827969D01*
Y3962644D01*
X13815709D01*
Y3956514D01*
X13803448D01*
Y3950383D01*
X13791188D01*
Y3944253D01*
X13772797D01*
Y3938123D01*
X13674713D01*
Y3944253D01*
X13656322D01*
Y3950383D01*
X13644061D01*
Y3938123D01*
X13650192D01*
Y3919732D01*
X13631801D01*
Y3944253D01*
X13625670D01*
Y3981035D01*
X13619540D01*
Y3993295D01*
X13625670D01*
Y4011686D01*
X13631801D01*
Y4023946D01*
Y4030077D01*
X13637930D01*
Y4042337D01*
X13644061D01*
Y4054598D01*
X13650192D01*
Y4060728D01*
X13656322D01*
Y4066859D01*
X13662453D01*
Y4079119D01*
X13668582D01*
Y4085249D01*
X13680843D01*
Y4091379D01*
X13686974D01*
Y4097510D01*
X13693103D01*
Y4103640D01*
X13705363D01*
Y4109770D01*
X13711494D01*
Y4115901D01*
X13723755D01*
Y4122031D01*
X13742145D01*
Y4128161D01*
X13785059D01*
Y4122031D01*
D02*
G37*
G36*
X14159004Y3950383D02*
X14177396D01*
Y3944253D01*
X14189655D01*
Y3938123D01*
X14201917D01*
Y3931992D01*
X14208046D01*
Y3925862D01*
X14214175D01*
Y3919732D01*
X14226437D01*
Y3907471D01*
X14232567D01*
Y3901341D01*
X14238696D01*
Y3895211D01*
X14244827D01*
Y3882950D01*
X14250958D01*
Y3870690D01*
Y3864559D01*
X14244827D01*
Y3852299D01*
X14232567D01*
Y3846169D01*
X14208046D01*
Y3852299D01*
X14189655D01*
Y3858429D01*
X14177396D01*
Y3864559D01*
X14165134D01*
Y3870690D01*
X14159004D01*
Y3876820D01*
X14152875D01*
Y3882950D01*
X14146742D01*
Y3889081D01*
X14140613D01*
Y3895211D01*
X14134483D01*
Y3901341D01*
X14128352D01*
Y3907471D01*
X14122221D01*
Y3919732D01*
X14116092D01*
Y3938123D01*
X14122221D01*
Y3950383D01*
X14134483D01*
Y3956514D01*
X14159004D01*
Y3950383D01*
D02*
G37*
G36*
X13490805Y3870690D02*
X13503065D01*
Y3864559D01*
X13509195D01*
Y3840039D01*
X13503065D01*
Y3833908D01*
X13496935D01*
Y3827778D01*
X13490805D01*
Y3821648D01*
X13478545D01*
Y3815517D01*
X13454024D01*
Y3821648D01*
X13447893D01*
Y3827778D01*
Y3833908D01*
Y3846169D01*
X13454024D01*
Y3858429D01*
X13460153D01*
Y3864559D01*
X13472414D01*
Y3870690D01*
X13484674D01*
Y3876820D01*
X13490805D01*
Y3870690D01*
D02*
G37*
G36*
X13601149Y3766475D02*
X13619540D01*
Y3760345D01*
X13637930D01*
Y3754215D01*
X13650192D01*
Y3735824D01*
X13644061D01*
Y3729694D01*
X13637930D01*
Y3717433D01*
X13631801D01*
Y3711303D01*
X13625670D01*
Y3705173D01*
X13607280D01*
Y3711303D01*
X13595020D01*
Y3717433D01*
X13570499D01*
Y3723563D01*
X13533716D01*
Y3717433D01*
X13521455D01*
Y3711303D01*
X13515326D01*
Y3680652D01*
X13527586D01*
Y3674521D01*
X13552107D01*
Y3668391D01*
X13576628D01*
Y3662261D01*
X13601149D01*
Y3656130D01*
X13619540D01*
Y3650000D01*
X13631801D01*
Y3643870D01*
X13637930D01*
Y3637739D01*
X13644061D01*
Y3631609D01*
X13650192D01*
Y3625479D01*
X13656322D01*
Y3619349D01*
Y3613219D01*
X13662453D01*
Y3564176D01*
X13656322D01*
Y3551916D01*
X13650192D01*
Y3539655D01*
X13644061D01*
Y3533525D01*
X13637930D01*
Y3527395D01*
X13631801D01*
Y3521264D01*
X13619540D01*
Y3515134D01*
X13607280D01*
Y3509004D01*
X13582758D01*
Y3502874D01*
X13521455D01*
Y3509004D01*
X13490805D01*
Y3515134D01*
X13472414D01*
Y3521264D01*
X13466283D01*
Y3527395D01*
X13454024D01*
Y3533525D01*
X13441762D01*
Y3545786D01*
X13447893D01*
Y3551916D01*
X13454024D01*
Y3564176D01*
X13460153D01*
Y3570307D01*
X13466283D01*
Y3582567D01*
X13484674D01*
Y3576437D01*
X13490805D01*
Y3570307D01*
X13503065D01*
Y3564176D01*
X13521455D01*
Y3558046D01*
X13582758D01*
Y3564176D01*
X13595020D01*
Y3576437D01*
X13601149D01*
Y3588697D01*
X13595020D01*
Y3594828D01*
X13588889D01*
Y3600958D01*
X13582758D01*
Y3607088D01*
X13558238D01*
Y3613219D01*
X13527586D01*
Y3619349D01*
X13509195D01*
Y3625479D01*
X13496935D01*
Y3631609D01*
X13484674D01*
Y3637739D01*
X13472414D01*
Y3643870D01*
X13466283D01*
Y3650000D01*
X13460153D01*
Y3662261D01*
X13454024D01*
Y3680652D01*
X13447893D01*
Y3711303D01*
X13454024D01*
Y3729694D01*
X13460153D01*
Y3735824D01*
X13466283D01*
Y3741954D01*
X13472414D01*
Y3748084D01*
X13478545D01*
Y3754215D01*
X13484674D01*
Y3760345D01*
X13496935D01*
Y3766475D01*
X13509195D01*
Y3772606D01*
X13601149D01*
Y3766475D01*
D02*
G37*
G36*
X13889272D02*
X13883142D01*
Y3754215D01*
X13877011D01*
Y3741954D01*
X13870882D01*
Y3735824D01*
X13864751D01*
Y3723563D01*
X13858621D01*
Y3717433D01*
X13852490D01*
Y3705173D01*
X13846359D01*
Y3699042D01*
X13840230D01*
Y3686782D01*
X13834100D01*
Y3674521D01*
X13827969D01*
Y3668391D01*
X13821838D01*
Y3656130D01*
X13815709D01*
Y3650000D01*
X13809578D01*
Y3637739D01*
X13815709D01*
Y3631609D01*
X13821838D01*
Y3619349D01*
X13827969D01*
Y3613219D01*
X13834100D01*
Y3607088D01*
X13840230D01*
Y3600958D01*
Y3594828D01*
X13846359D01*
Y3588697D01*
X13852490D01*
Y3576437D01*
X13858621D01*
Y3570307D01*
X13864751D01*
Y3558046D01*
X13870882D01*
Y3551916D01*
X13877011D01*
Y3539655D01*
X13883142D01*
Y3533525D01*
X13889272D01*
Y3521264D01*
X13895403D01*
Y3515134D01*
X13901534D01*
Y3509004D01*
X13827969D01*
Y3521264D01*
X13821838D01*
Y3527395D01*
X13815709D01*
Y3539655D01*
X13809578D01*
Y3545786D01*
X13803448D01*
Y3551916D01*
X13797318D01*
Y3564176D01*
X13791188D01*
Y3570307D01*
X13785059D01*
Y3582567D01*
X13778928D01*
Y3588697D01*
X13772797D01*
Y3582567D01*
X13766667D01*
Y3570307D01*
X13760536D01*
Y3564176D01*
X13754407D01*
Y3551916D01*
X13748276D01*
Y3545786D01*
X13742145D01*
Y3533525D01*
X13736015D01*
Y3527395D01*
X13729884D01*
Y3515134D01*
X13723755D01*
Y3509004D01*
X13674713D01*
Y3772606D01*
X13736015D01*
Y3625479D01*
X13742145D01*
Y3637739D01*
X13748276D01*
Y3643870D01*
X13754407D01*
Y3656130D01*
X13760536D01*
Y3668391D01*
X13766667D01*
Y3674521D01*
X13772797D01*
Y3686782D01*
X13778928D01*
Y3699042D01*
X13785059D01*
Y3705173D01*
X13791188D01*
Y3717433D01*
X13797318D01*
Y3729694D01*
X13803448D01*
Y3741954D01*
X13809578D01*
Y3748084D01*
X13815709D01*
Y3760345D01*
X13821838D01*
Y3772606D01*
X13889272D01*
Y3766475D01*
D02*
G37*
G36*
X14293871Y3772606D02*
X14330650D01*
Y3766475D01*
X14342912D01*
Y3760345D01*
X14355173D01*
Y3754215D01*
X14361304D01*
Y3748084D01*
X14367433D01*
Y3741954D01*
X14373563D01*
Y3735824D01*
X14379694D01*
Y3729694D01*
X14385825D01*
Y3711303D01*
X14391954D01*
Y3662261D01*
X14385825D01*
Y3650000D01*
X14379694D01*
Y3637739D01*
X14373563D01*
Y3631609D01*
X14367433D01*
Y3625479D01*
X14361304D01*
Y3619349D01*
X14349042D01*
Y3613219D01*
X14342912D01*
Y3600958D01*
X14349042D01*
Y3588697D01*
X14355173D01*
Y3582567D01*
X14361304D01*
Y3570307D01*
X14367433D01*
Y3564176D01*
X14373563D01*
Y3551916D01*
X14379694D01*
Y3545786D01*
X14385825D01*
Y3533525D01*
X14391954D01*
Y3527395D01*
X14398083D01*
Y3515134D01*
X14404214D01*
Y3502874D01*
X14336781D01*
Y3509004D01*
X14330650D01*
Y3515134D01*
X14324521D01*
Y3521264D01*
X14318391D01*
Y3533525D01*
X14312260D01*
Y3539655D01*
X14306129D01*
Y3551916D01*
X14300000D01*
Y3558046D01*
X14293871D01*
Y3570307D01*
X14287740D01*
Y3576437D01*
X14281609D01*
Y3588697D01*
X14275479D01*
Y3594828D01*
X14269350D01*
Y3600958D01*
X14232567D01*
Y3502874D01*
X14171265D01*
Y3772606D01*
X14177396D01*
Y3778736D01*
X14293871D01*
Y3772606D01*
D02*
G37*
G36*
X14036398Y3766475D02*
X14042529D01*
Y3754215D01*
X14048659D01*
Y3741954D01*
X14054790D01*
Y3729694D01*
X14060921D01*
Y3717433D01*
X14067050D01*
Y3705173D01*
X14073180D01*
Y3686782D01*
X14079311D01*
Y3674521D01*
X14085442D01*
Y3662261D01*
X14091571D01*
Y3650000D01*
X14097701D01*
Y3637739D01*
X14103831D01*
Y3625479D01*
X14109962D01*
Y3613219D01*
X14116092D01*
Y3600958D01*
X14122221D01*
Y3588697D01*
X14128352D01*
Y3570307D01*
X14134483D01*
Y3558046D01*
X14140613D01*
Y3551916D01*
Y3545786D01*
X14146742D01*
Y3533525D01*
X14152875D01*
Y3521264D01*
X14159004D01*
Y3502874D01*
X14097701D01*
Y3515134D01*
X14091571D01*
Y3533525D01*
X14085442D01*
Y3545786D01*
X14079311D01*
Y3551916D01*
X13987357D01*
Y3539655D01*
X13981226D01*
Y3527395D01*
X13975096D01*
Y3515134D01*
X13968965D01*
Y3502874D01*
X13907663D01*
Y3521264D01*
X13913792D01*
Y3533525D01*
X13919923D01*
Y3545786D01*
X13926054D01*
Y3558046D01*
X13932184D01*
Y3570307D01*
X13938313D01*
Y3582567D01*
X13944444D01*
Y3600958D01*
X13950575D01*
Y3613219D01*
X13956705D01*
Y3625479D01*
X13962836D01*
Y3637739D01*
X13968965D01*
Y3650000D01*
X13975096D01*
Y3662261D01*
X13981226D01*
Y3674521D01*
X13987357D01*
Y3686782D01*
X13993488D01*
Y3699042D01*
X13999617D01*
Y3711303D01*
X14005746D01*
Y3723563D01*
X14011877D01*
Y3741954D01*
X14018008D01*
Y3754215D01*
X14024138D01*
Y3766475D01*
X14030267D01*
Y3772606D01*
X14036398D01*
Y3766475D01*
D02*
G37*
G36*
X13601149Y3404789D02*
X13613409D01*
Y3398659D01*
X13619540D01*
Y3392529D01*
X13625670D01*
Y3386399D01*
X13631801D01*
Y3380268D01*
X13637930D01*
Y3374138D01*
X13644061D01*
Y3343487D01*
X13631801D01*
Y3337357D01*
X13613409D01*
Y3343487D01*
X13601149D01*
Y3349617D01*
X13588889D01*
Y3355747D01*
X13582758D01*
Y3361877D01*
X13576628D01*
Y3368008D01*
Y3374138D01*
X13570499D01*
Y3404789D01*
X13582758D01*
Y3410920D01*
X13601149D01*
Y3404789D01*
D02*
G37*
G36*
X14244827Y3392529D02*
X14250958D01*
Y3386399D01*
X14257088D01*
Y3361877D01*
X14250958D01*
Y3349617D01*
X14244827D01*
Y3343487D01*
X14238696D01*
Y3337357D01*
X14226437D01*
Y3331226D01*
X14214175D01*
Y3325096D01*
X14189655D01*
Y3318966D01*
X14183525D01*
Y3325096D01*
X14165134D01*
Y3331226D01*
X14159004D01*
Y3337357D01*
X14152875D01*
Y3361877D01*
X14159004D01*
Y3368008D01*
X14165134D01*
Y3374138D01*
X14171265D01*
Y3380268D01*
X14177396D01*
Y3386399D01*
X14183525D01*
Y3392529D01*
X14201917D01*
Y3398659D01*
X14244827D01*
Y3392529D01*
D02*
G37*
G36*
X13889272Y3269924D02*
X13913792D01*
Y3263793D01*
X13938313D01*
Y3257663D01*
X13950575D01*
Y3251533D01*
X13968965D01*
Y3245402D01*
X13975096D01*
Y3239272D01*
X13987357D01*
Y3233142D01*
X13993488D01*
Y3227012D01*
X13999617D01*
Y3220881D01*
X14018008D01*
Y3227012D01*
X14024138D01*
Y3208621D01*
X14018008D01*
Y3190230D01*
X14011877D01*
Y3171839D01*
X14005746D01*
Y3165709D01*
X13993488D01*
Y3159579D01*
X13981226D01*
Y3153448D01*
X13968965D01*
Y3147318D01*
X13950575D01*
Y3141188D01*
X13913792D01*
Y3135057D01*
X13907663D01*
Y3141188D01*
X13870882D01*
Y3147318D01*
X13846359D01*
Y3153448D01*
X13827969D01*
Y3159579D01*
X13815709D01*
Y3165709D01*
X13797318D01*
Y3171839D01*
X13785059D01*
Y3177970D01*
X13772797D01*
Y3184100D01*
X13760536D01*
Y3190230D01*
X13754407D01*
Y3202490D01*
X13748276D01*
Y3214751D01*
X13742145D01*
Y3257663D01*
X13736015D01*
Y3263793D01*
X13729884D01*
Y3269924D01*
X13736015D01*
Y3276054D01*
X13748276D01*
Y3269924D01*
X13754407D01*
Y3263793D01*
X13760536D01*
Y3251533D01*
X13766667D01*
Y3257663D01*
X13778928D01*
Y3263793D01*
X13803448D01*
Y3269924D01*
X13821838D01*
Y3276054D01*
X13889272D01*
Y3269924D01*
D02*
G37*
%LPC*%
G36*
X13913792Y4201724D02*
X13870882D01*
Y4195594D01*
X13852490D01*
Y4189464D01*
X13907663D01*
Y4195594D01*
X13913792D01*
Y4201724D01*
D02*
G37*
G36*
X14159004Y4060728D02*
X14140613D01*
Y4054598D01*
X14146742D01*
Y4048468D01*
X14171265D01*
Y4054598D01*
X14159004D01*
Y4060728D01*
D02*
G37*
G36*
X13785059Y4109770D02*
X13742145D01*
Y4103640D01*
X13729884D01*
Y4097510D01*
X13717625D01*
Y4091379D01*
X13705363D01*
Y4085249D01*
X13699234D01*
Y4079119D01*
X13693103D01*
Y4072989D01*
X13686974D01*
Y4066859D01*
X13680843D01*
Y4060728D01*
X13674713D01*
Y4054598D01*
X13668582D01*
Y4048468D01*
X13662453D01*
Y4036207D01*
X13656322D01*
Y4023946D01*
X13650192D01*
Y4011686D01*
X13644061D01*
Y3993295D01*
X13637930D01*
Y3987165D01*
X13644061D01*
Y3974904D01*
X13650192D01*
Y3968774D01*
X13656322D01*
Y3962644D01*
X13674713D01*
Y3956514D01*
X13772797D01*
Y3962644D01*
X13791188D01*
Y3968774D01*
X13803448D01*
Y3974904D01*
X13815709D01*
Y3981035D01*
X13827969D01*
Y3987165D01*
X13834100D01*
Y3993295D01*
X13840230D01*
Y3999425D01*
X13852490D01*
Y4005556D01*
X13858621D01*
Y4011686D01*
X13864751D01*
Y4023946D01*
X13870882D01*
Y4036207D01*
X13877011D01*
Y4060728D01*
X13870882D01*
Y4072989D01*
X13864751D01*
Y4079119D01*
X13852490D01*
Y4085249D01*
X13840230D01*
Y4091379D01*
X13821838D01*
Y4097510D01*
X13803448D01*
Y4103640D01*
X13785059D01*
Y4109770D01*
D02*
G37*
G36*
X14159004Y3938123D02*
X14134483D01*
Y3925862D01*
X14140613D01*
Y3913602D01*
X14146742D01*
Y3907471D01*
X14152875D01*
Y3901341D01*
X14159004D01*
Y3895211D01*
X14165134D01*
Y3889081D01*
X14171265D01*
Y3882950D01*
X14183525D01*
Y3876820D01*
X14195786D01*
Y3870690D01*
X14214175D01*
Y3864559D01*
X14226437D01*
Y3870690D01*
X14232567D01*
Y3876820D01*
X14226437D01*
Y3889081D01*
X14220306D01*
Y3895211D01*
X14214175D01*
Y3901341D01*
X14208046D01*
Y3907471D01*
X14201917D01*
Y3913602D01*
X14195786D01*
Y3919732D01*
X14183525D01*
Y3925862D01*
X14177396D01*
Y3931992D01*
X14159004D01*
Y3938123D01*
D02*
G37*
G36*
X13490805Y3852299D02*
X13472414D01*
Y3846169D01*
X13466283D01*
Y3833908D01*
X13478545D01*
Y3840039D01*
X13484674D01*
Y3846169D01*
X13490805D01*
Y3852299D01*
D02*
G37*
G36*
X14300000Y3723563D02*
X14232567D01*
Y3650000D01*
X14300000D01*
Y3656130D01*
X14312260D01*
Y3662261D01*
X14318391D01*
Y3668391D01*
X14324521D01*
Y3705173D01*
X14318391D01*
Y3711303D01*
X14312260D01*
Y3717433D01*
X14300000D01*
Y3723563D01*
D02*
G37*
G36*
X14042529Y3650000D02*
X14030267D01*
Y3643870D01*
Y3637739D01*
X14024138D01*
Y3625479D01*
X14018008D01*
Y3607088D01*
X14011877D01*
Y3594828D01*
X14060921D01*
Y3607088D01*
X14054790D01*
Y3619349D01*
X14048659D01*
Y3631609D01*
X14042529D01*
Y3650000D01*
D02*
G37*
G36*
X13595020Y3392529D02*
X13588889D01*
Y3374138D01*
X13595020D01*
Y3368008D01*
X13601149D01*
Y3361877D01*
X13613409D01*
Y3355747D01*
X13625670D01*
Y3368008D01*
X13619540D01*
Y3374138D01*
X13613409D01*
Y3380268D01*
X13607280D01*
Y3386399D01*
X13595020D01*
Y3392529D01*
D02*
G37*
G36*
X14238696Y3380268D02*
X14201917D01*
Y3374138D01*
X14189655D01*
Y3368008D01*
X14183525D01*
Y3361877D01*
X14177396D01*
Y3355747D01*
X14171265D01*
Y3343487D01*
X14183525D01*
Y3337357D01*
X14189655D01*
Y3343487D01*
X14214175D01*
Y3349617D01*
X14220306D01*
Y3355747D01*
X14232567D01*
Y3368008D01*
X14238696D01*
Y3380268D01*
D02*
G37*
G36*
X13889272Y3257663D02*
X13827969D01*
Y3251533D01*
X13803448D01*
Y3245402D01*
X13778928D01*
Y3239272D01*
X13766667D01*
Y3233142D01*
X13760536D01*
Y3214751D01*
X13766667D01*
Y3202490D01*
X13772797D01*
Y3196360D01*
X13785059D01*
Y3190230D01*
X13797318D01*
Y3184100D01*
X13815709D01*
Y3177970D01*
X13834100D01*
Y3171839D01*
X13852490D01*
Y3165709D01*
X13870882D01*
Y3159579D01*
X13950575D01*
Y3165709D01*
X13968965D01*
Y3171839D01*
X13981226D01*
Y3177970D01*
X13993488D01*
Y3184100D01*
X13999617D01*
Y3196360D01*
X13993488D01*
Y3208621D01*
X13987357D01*
Y3214751D01*
X13981226D01*
Y3220881D01*
X13975096D01*
Y3227012D01*
X13962836D01*
Y3233142D01*
X13950575D01*
Y3239272D01*
X13932184D01*
Y3245402D01*
X13913792D01*
Y3251533D01*
X13889272D01*
Y3257663D01*
D02*
G37*
%LPD*%
G36*
X14054790Y3049234D02*
X14079311D01*
Y3043104D01*
X14091571D01*
Y3036973D01*
X14097701D01*
Y3030843D01*
X14109962D01*
Y3024713D01*
X14116092D01*
Y3012452D01*
X14122221D01*
Y3006322D01*
X14128352D01*
Y2994061D01*
X14134483D01*
Y2981801D01*
X14140613D01*
Y2926628D01*
X14134483D01*
Y2914368D01*
X14128352D01*
Y2902107D01*
X14122221D01*
Y2895977D01*
X14116092D01*
Y2883717D01*
X14103831D01*
Y2877586D01*
X14097701D01*
Y2871456D01*
X14091571D01*
Y2865326D01*
X14073180D01*
Y2859195D01*
X14011877D01*
Y2865326D01*
X13993488D01*
Y2871456D01*
X13987357D01*
Y2877586D01*
X13981226D01*
Y2883717D01*
X13968965D01*
Y2895977D01*
X13962836D01*
Y2902107D01*
X13956705D01*
Y2914368D01*
X13950575D01*
Y2926628D01*
X13944444D01*
Y2981801D01*
X13950575D01*
Y2994061D01*
X13956705D01*
Y3006322D01*
X13962836D01*
Y3018582D01*
X13968965D01*
Y3024713D01*
X13975096D01*
Y3030843D01*
X13987357D01*
Y3036973D01*
X13993488D01*
Y3043104D01*
X14005746D01*
Y3049234D01*
X14030267D01*
Y3055364D01*
X14054790D01*
Y3049234D01*
D02*
G37*
%LPC*%
G36*
Y3036973D02*
X14030267D01*
Y3030843D01*
X14005746D01*
Y3024713D01*
X13999617D01*
Y3018582D01*
X13987357D01*
Y3012452D01*
X13981226D01*
Y3000192D01*
X13975096D01*
Y2994061D01*
X13968965D01*
Y2975671D01*
X13962836D01*
Y2932759D01*
X13968965D01*
Y2914368D01*
X13975096D01*
Y2908238D01*
X13981226D01*
Y2895977D01*
X13993488D01*
Y2889847D01*
X13999617D01*
Y2883717D01*
X14011877D01*
Y2877586D01*
X14073180D01*
Y2883717D01*
X14085442D01*
Y2889847D01*
X14091571D01*
Y2895977D01*
X14097701D01*
Y2902107D01*
X14103831D01*
Y2908238D01*
X14109962D01*
Y2914368D01*
X14116092D01*
Y2932759D01*
X14122221D01*
Y2975671D01*
X14116092D01*
Y2994061D01*
X14109962D01*
Y3000192D01*
X14103831D01*
Y3012452D01*
X14097701D01*
Y3018582D01*
X14085442D01*
Y3024713D01*
X14073180D01*
Y3030843D01*
X14054790D01*
Y3036973D01*
D02*
G37*
%LPD*%
D59*
X6353000Y3969818D02*
G03*
X6353000Y3969818I-12500J0D01*
G01*
X19172501Y3100000D02*
G03*
X19172501Y3100000I-12500J0D01*
G01*
X4687500Y3796275D02*
G03*
X4687500Y3796275I-12500J0D01*
G01*
X15547501Y5525000D02*
G03*
X15547501Y5525000I-12500J0D01*
G01*
X13447501Y5525000D02*
G03*
X13447501Y5525000I-12500J0D01*
G01*
X11347501D02*
G03*
X11347501Y5525000I-12500J0D01*
G01*
X9247500D02*
G03*
X9247500Y5525000I-12500J0D01*
G01*
X7147501D02*
G03*
X7147501Y5525000I-12500J0D01*
G01*
X5047500D02*
G03*
X5047500Y5525000I-12500J0D01*
G01*
X15547501Y4975000D02*
G03*
X15547501Y4975000I-12500J0D01*
G01*
X13447501D02*
G03*
X13447501Y4975000I-12500J0D01*
G01*
X11347501D02*
G03*
X11347501Y4975000I-12500J0D01*
G01*
X9247500D02*
G03*
X9247500Y4975000I-12500J0D01*
G01*
X7147501D02*
G03*
X7147501Y4975000I-12500J0D01*
G01*
X5047500D02*
G03*
X5047500Y4975000I-12500J0D01*
G01*
X17647501D02*
G03*
X17647501Y4975000I-12500J0D01*
G01*
Y5525000D02*
G03*
X17647501Y5525000I-12500J0D01*
G01*
X20062500Y5290000D02*
G03*
X20062500Y5290000I-12500J0D01*
G01*
Y5210000D02*
G03*
X20062500Y5210000I-12500J0D01*
G01*
X11144216Y4009913D02*
G03*
X11144216Y4009913I-12500J0D01*
G01*
X16657500Y3958000D02*
G03*
X16657500Y3958000I-12500J0D01*
G01*
X19587500Y4547500D02*
G03*
X19587500Y4547500I-12500J0D01*
G01*
X4012500Y2977500D02*
G03*
X4012500Y2977500I-12500J0D01*
G01*
X18707500Y3940000D02*
G03*
X18707500Y3940000I-12500J0D01*
G01*
D60*
X16110001Y5525000D02*
G03*
X16110001Y5525000I-260000J0D01*
G01*
X14010001Y5525000D02*
G03*
X14010001Y5525000I-260000J0D01*
G01*
X11910000D02*
G03*
X11910000Y5525000I-260000J0D01*
G01*
X9810000D02*
G03*
X9810000Y5525000I-260000J0D01*
G01*
X7710000D02*
G03*
X7710000Y5525000I-260000J0D01*
G01*
X5610000D02*
G03*
X5610000Y5525000I-260000J0D01*
G01*
X16110001Y4975000D02*
G03*
X16110001Y4975000I-260000J0D01*
G01*
X14010001D02*
G03*
X14010001Y4975000I-260000J0D01*
G01*
X11910000D02*
G03*
X11910000Y4975000I-260000J0D01*
G01*
X9810000D02*
G03*
X9810000Y4975000I-260000J0D01*
G01*
X7710000D02*
G03*
X7710000Y4975000I-260000J0D01*
G01*
X5610000D02*
G03*
X5610000Y4975000I-260000J0D01*
G01*
X18210001D02*
G03*
X18210001Y4975000I-260000J0D01*
G01*
Y5525000D02*
G03*
X18210001Y5525000I-260000J0D01*
G01*
X20310001Y4975000D02*
G03*
X20310001Y4975000I-260000J0D01*
G01*
Y5525000D02*
G03*
X20310001Y5525000I-260000J0D01*
G01*
D61*
X19004260Y2959500D02*
G03*
X19004260Y2959500I-7620J0D01*
G01*
X18262579Y3420510D02*
X18887421D01*
X18262579Y2879490D02*
X18887421D01*
D62*
X19587500Y4237500D02*
G03*
X19587500Y4237500I-25000J0D01*
G01*
X4037500Y3287500D02*
G03*
X4037500Y3287500I-25000J0D01*
G01*
D63*
X6395250Y3482098D02*
Y3617902D01*
X5904750Y3482098D02*
X6395250D01*
X5904750D02*
Y3617902D01*
X6395250D01*
X19271500Y3297000D02*
X19728500D01*
Y2903000D02*
Y2953500D01*
Y3246500D02*
Y3297000D01*
X19271500Y2903000D02*
X19728500D01*
X19271500D02*
Y2953500D01*
Y3246500D02*
Y3297000D01*
X6004190Y4037190D02*
X6295810D01*
X6004190Y4262810D02*
X6295810D01*
X11492128Y4123334D02*
X11698334Y3917128D01*
X11651666Y4282872D02*
X11857872Y4076665D01*
X10576665Y4132872D02*
X10782872Y3926666D01*
X10417128Y3973334D02*
X10623334Y3767128D01*
X11842128Y3601666D02*
X12048335Y3807872D01*
X12001666Y3442128D02*
X12207872Y3648335D01*
X10307128Y3376666D02*
X10513335Y3582872D01*
X10466666Y3217128D02*
X10672872Y3423335D01*
X4387190Y5329190D02*
Y5620810D01*
X4612810Y5329190D02*
Y5620810D01*
X19087190Y5329190D02*
Y5620810D01*
X19312810Y5329190D02*
Y5620810D01*
X16987190Y5329190D02*
Y5620810D01*
X17212810Y5329190D02*
Y5620810D01*
X14887190Y5329190D02*
Y5620810D01*
X15112810Y5329190D02*
Y5620810D01*
X12787190Y5329190D02*
Y5620810D01*
X13012810Y5329190D02*
Y5620810D01*
X10687190Y5329190D02*
Y5620810D01*
X10912810Y5329190D02*
Y5620810D01*
X8587190Y5329190D02*
Y5620810D01*
X8812810Y5329190D02*
Y5620810D01*
X6487190Y5329190D02*
Y5620810D01*
X6712810Y5329190D02*
Y5620810D01*
X5473000Y2773000D02*
Y3027000D01*
X6489000D01*
X5473000Y2773000D02*
X6489000D01*
Y3027000D01*
X4872000Y3227775D02*
Y3684775D01*
X4478000Y3227775D02*
X4528500D01*
X4821500D02*
X4872000D01*
X4478000D02*
Y3684775D01*
X4528500D01*
X4821500D02*
X4872000D01*
X4890000Y5212500D02*
X4910000D01*
X4890000Y5087500D02*
X4910000D01*
X11190000Y5212500D02*
X11210000D01*
X11190000Y5087500D02*
X11210000D01*
X15389999D02*
X15410001D01*
X15389999Y5212500D02*
X15410001D01*
X15389999Y5462500D02*
X15410001D01*
X15389999Y5587500D02*
X15410001D01*
X13289999Y5087500D02*
X13310001D01*
X13289999Y5212500D02*
X13310001D01*
X13239999Y5462500D02*
X13260001D01*
X13239999Y5587500D02*
X13260001D01*
X11140000Y5462500D02*
X11160000D01*
X11140000Y5587500D02*
X11160000D01*
X9090000Y5087500D02*
X9110000D01*
X9090000Y5212500D02*
X9110000D01*
X9040000Y5462500D02*
X9060000D01*
X9040000Y5587500D02*
X9060000D01*
X6990000Y5087500D02*
X7010000D01*
X6990000Y5212500D02*
X7010000D01*
X6940000Y5462500D02*
X6960000D01*
X6940000Y5587500D02*
X6960000D01*
X4840000Y5462500D02*
X4860000D01*
X4840000Y5587500D02*
X4860000D01*
X18459769Y4187810D02*
X18751389D01*
X18459769Y3962190D02*
X18751389D01*
X19367500Y3507500D02*
X19732500D01*
X19367500Y3842500D02*
X19732500D01*
X17662190Y3854690D02*
Y4145310D01*
X17887810Y3854690D02*
Y4145310D01*
X19589999Y5087500D02*
X19610001D01*
X19589999Y5212500D02*
X19610001D01*
X19589999Y5462500D02*
X19610001D01*
X19589999Y5587500D02*
X19610001D01*
X17489999Y5087500D02*
X17510001D01*
X17489999Y5212500D02*
X17510001D01*
X17489999Y5462500D02*
X17510001D01*
X17489999Y5587500D02*
X17510001D01*
X11241317Y3575043D02*
X11304957Y3638683D01*
X11015043Y3801317D02*
X11078683Y3864957D01*
X11329706Y3903848D02*
X11343848Y3889705D01*
X10976152Y3550294D02*
X10990295Y3536152D01*
X11348821Y3428189D02*
X11472565Y3551933D01*
X11228024Y3548232D02*
X11351767Y3671976D01*
X10852435Y3923067D02*
X10976178Y4046811D01*
X10973232Y3803024D02*
X11096976Y3926768D01*
X16880000Y3955000D02*
X16905000D01*
X16880000Y3295000D02*
X16905000D01*
X16880000D02*
Y3955000D01*
X16737810Y2879190D02*
Y3170810D01*
X16512190Y2879190D02*
Y3170810D01*
X19212810Y4054190D02*
Y4345810D01*
X18987190Y4054190D02*
Y4345810D01*
X3862810Y3154190D02*
Y3445810D01*
X3637190Y3154190D02*
Y3445810D01*
X19727499Y4420000D02*
Y4440000D01*
X19852499Y4420000D02*
Y4440000D01*
X4090000Y2887500D02*
X4110000D01*
X4090000Y2762500D02*
X4110000D01*
X19320000Y4305000D02*
X19630000D01*
X19320000Y4095000D02*
Y4305000D01*
Y4095000D02*
X19630000D01*
Y4305000D01*
X3945000Y3220000D02*
X4255000D01*
Y3430000D01*
X3945000D02*
X4255000D01*
X3945000Y3220000D02*
Y3430000D01*
X3842500Y3682500D02*
X4207500D01*
X3842500Y4017500D02*
X4207500D01*
X18447501Y3735000D02*
X18752499D01*
X18447501Y3665000D02*
Y3735000D01*
Y3665000D02*
X18752499D01*
Y3735000D01*
X8269997Y4006324D02*
X8354637D01*
Y3985164D01*
X8269997Y3900525D01*
Y3879365D01*
X8354637D01*
X8460436D02*
X8418116D01*
X8396956Y3900525D01*
Y3942845D01*
X8418116Y3964005D01*
X8460436D01*
X8481596Y3942845D01*
Y3921685D01*
X8396956D01*
X8523915Y3879365D02*
Y3964005D01*
X8587395D01*
X8608555Y3942845D01*
Y3879365D01*
X8672034Y3985164D02*
Y3964005D01*
X8650874D01*
X8693194D01*
X8672034D01*
Y3900525D01*
X8693194Y3879365D01*
X8756673Y3964005D02*
Y3879365D01*
Y3921685D01*
X8777833Y3942845D01*
X8798993Y3964005D01*
X8820153D01*
X8904792D02*
X8947111D01*
X8968271Y3942845D01*
Y3879365D01*
X8904792D01*
X8883632Y3900525D01*
X8904792Y3921685D01*
X8968271D01*
X9010591Y3879365D02*
X9052911D01*
X9031751D01*
Y4006324D01*
X9010591D01*
X9264509Y3879365D02*
Y3985164D01*
Y3942845D01*
X9243349D01*
X9285668D01*
X9264509D01*
Y3985164D01*
X9285668Y4006324D01*
X9349148Y3964005D02*
Y3900525D01*
X9370308Y3879365D01*
X9433787D01*
Y3964005D01*
X9539586Y3879365D02*
X9497267D01*
X9476107Y3900525D01*
Y3942845D01*
X9497267Y3964005D01*
X9539586D01*
X9560746Y3942845D01*
Y3921685D01*
X9476107D01*
X9603066Y3964005D02*
Y3879365D01*
Y3921685D01*
X9624225Y3942845D01*
X9645385Y3964005D01*
X9666545D01*
X8354637Y3805973D02*
X8269997D01*
Y3679014D01*
X8354637D01*
X8269997Y3742494D02*
X8312317D01*
X8396956Y3679014D02*
Y3763654D01*
X8460436D01*
X8481596Y3742494D01*
Y3679014D01*
X8587395D02*
X8545075D01*
X8523915Y3700174D01*
Y3742494D01*
X8545075Y3763654D01*
X8587395D01*
X8608555Y3742494D01*
Y3721334D01*
X8523915D01*
X8650874Y3763654D02*
Y3679014D01*
Y3721334D01*
X8672034Y3742494D01*
X8693194Y3763654D01*
X8714353D01*
X8820153Y3636695D02*
X8841312D01*
X8862472Y3657855D01*
Y3763654D01*
X8798993D01*
X8777833Y3742494D01*
Y3700174D01*
X8798993Y3679014D01*
X8862472D01*
X8904792D02*
X8947111D01*
X8925951D01*
Y3763654D01*
X8904792D01*
X9074070Y3679014D02*
X9031751D01*
X9010591Y3700174D01*
Y3742494D01*
X9031751Y3763654D01*
X9074070D01*
X9095230Y3742494D01*
Y3721334D01*
X9010591D01*
X8269997Y3520984D02*
Y3457504D01*
X8291157Y3436344D01*
X8354637D01*
Y3520984D01*
X8396956Y3436344D02*
Y3520984D01*
X8460436D01*
X8481596Y3499824D01*
Y3436344D01*
X8608555Y3563303D02*
Y3436344D01*
X8545075D01*
X8523915Y3457504D01*
Y3499824D01*
X8545075Y3520984D01*
X8608555D01*
X8354637Y3341793D02*
X8333477Y3362952D01*
X8291157D01*
X8269997Y3341793D01*
Y3320633D01*
X8291157Y3299473D01*
X8333477D01*
X8354637Y3278313D01*
Y3257153D01*
X8333477Y3235994D01*
X8291157D01*
X8269997Y3257153D01*
X8418116Y3341793D02*
Y3320633D01*
X8396956D01*
X8439276D01*
X8418116D01*
Y3257153D01*
X8439276Y3235994D01*
X8502755Y3320633D02*
Y3235994D01*
Y3278313D01*
X8523915Y3299473D01*
X8545075Y3320633D01*
X8566235D01*
X8650874Y3235994D02*
X8693194D01*
X8714354Y3257153D01*
Y3299473D01*
X8693194Y3320633D01*
X8650874D01*
X8629714Y3299473D01*
Y3257153D01*
X8650874Y3235994D01*
X8756673D02*
Y3320633D01*
X8777833D01*
X8798993Y3299473D01*
Y3235994D01*
Y3299473D01*
X8820153Y3320633D01*
X8841313Y3299473D01*
Y3235994D01*
X8883632D02*
Y3320633D01*
X8904792D01*
X8925952Y3299473D01*
Y3235994D01*
Y3299473D01*
X8947111Y3320633D01*
X8968271Y3299473D01*
Y3235994D01*
X9074070D02*
X9031751D01*
X9010591Y3257153D01*
Y3299473D01*
X9031751Y3320633D01*
X9074070D01*
X9095230Y3299473D01*
Y3278313D01*
X9010591D01*
X9137550Y3235994D02*
X9201029D01*
X9222189Y3257153D01*
X9201029Y3278313D01*
X9158709D01*
X9137550Y3299473D01*
X9158709Y3320633D01*
X9222189D01*
X9264509Y3235994D02*
X9327988D01*
X9349148Y3257153D01*
X9327988Y3278313D01*
X9285668D01*
X9264509Y3299473D01*
X9285668Y3320633D01*
X9349148D01*
X9391467D02*
Y3257153D01*
X9412627Y3235994D01*
X9476107D01*
Y3320633D01*
X9518426Y3235994D02*
Y3320633D01*
X9581906D01*
X9603066Y3299473D01*
Y3235994D01*
X9687705Y3193674D02*
X9708865D01*
X9730024Y3214834D01*
Y3320633D01*
X9666545D01*
X9645385Y3299473D01*
Y3257153D01*
X9666545Y3235994D01*
X9730024D01*
X8520000Y2736521D02*
Y2863479D01*
X8562320Y2821160D01*
X8604639Y2863479D01*
Y2736521D01*
X8731598Y2842320D02*
X8710438Y2863479D01*
X8668119D01*
X8646959Y2842320D01*
Y2757680D01*
X8668119Y2736521D01*
X8710438D01*
X8731598Y2757680D01*
Y2800000D01*
X8689279D01*
X8985516Y2736521D02*
X8900877D01*
X8985516Y2821160D01*
Y2842320D01*
X8964356Y2863479D01*
X8922036D01*
X8900877Y2842320D01*
X9027835D02*
X9048995Y2863479D01*
X9091315D01*
X9112475Y2842320D01*
Y2757680D01*
X9091315Y2736521D01*
X9048995D01*
X9027835Y2757680D01*
Y2842320D01*
X9239434Y2736521D02*
X9154794D01*
X9239434Y2821160D01*
Y2842320D01*
X9218274Y2863479D01*
X9175954D01*
X9154794Y2842320D01*
X9281753D02*
X9302913Y2863479D01*
X9345233D01*
X9366392Y2842320D01*
Y2821160D01*
X9345233Y2800000D01*
X9324073D01*
X9345233D01*
X9366392Y2778840D01*
Y2757680D01*
X9345233Y2736521D01*
X9302913D01*
X9281753Y2757680D01*
X12407680Y2919201D02*
X12386521Y2940361D01*
Y2982680D01*
X12407680Y3003840D01*
X12428840D01*
X12450000Y2982680D01*
Y2961521D01*
Y2982680D01*
X12471160Y3003840D01*
X12492320D01*
X12513479Y2982680D01*
Y2940361D01*
X12492320Y2919201D01*
X12386521Y3046160D02*
X12471160D01*
X12513479Y3088479D01*
X12471160Y3130799D01*
X12386521D01*
X12136521Y2916301D02*
X12263479D01*
Y2979781D01*
X12242320Y3000941D01*
X12157680D01*
X12136521Y2979781D01*
Y2916301D01*
Y3043260D02*
Y3085580D01*
Y3064420D01*
X12263479D01*
Y3043260D01*
Y3085580D01*
X12136521Y3212539D02*
Y3170219D01*
X12157680Y3149059D01*
X12242320D01*
X12263479Y3170219D01*
Y3212539D01*
X12242320Y3233699D01*
X12157680D01*
X12136521Y3212539D01*
X11882680Y2990361D02*
X11861520Y2969201D01*
Y2926881D01*
X11882680Y2905721D01*
X11967319D01*
X11988479Y2926881D01*
Y2969201D01*
X11967319Y2990361D01*
X11861520Y3032680D02*
X11988479D01*
Y3117320D01*
X11861520Y3159639D02*
X11988479D01*
X11946159D01*
X11861520Y3244279D01*
X11925000Y3180799D01*
X11988479Y3244279D01*
X11365361Y3017320D02*
X11344201Y3038479D01*
X11301881D01*
X11280721Y3017320D01*
Y2932680D01*
X11301881Y2911520D01*
X11344201D01*
X11365361Y2932680D01*
Y2975000D01*
X11323041D01*
X11407680Y2911520D02*
Y3038479D01*
X11492320Y2911520D01*
Y3038479D01*
X11534639D02*
Y2911520D01*
X11598119D01*
X11619279Y2932680D01*
Y3017320D01*
X11598119Y3038479D01*
X11534639D01*
X10838479Y2919201D02*
X10711521D01*
Y2982680D01*
X10732680Y3003840D01*
X10775000D01*
X10796160Y2982680D01*
Y2919201D01*
Y2961521D02*
X10838479Y3003840D01*
X10711521Y3046160D02*
X10838479Y3130799D01*
X10711521D02*
X10838479Y3046160D01*
X10961521Y2919201D02*
Y3003840D01*
Y2961521D01*
X11088479D01*
X10961521Y3046160D02*
X11088479Y3130799D01*
X10961521D02*
X11088479Y3046160D01*
X19141685Y5758322D02*
X19125024Y5774984D01*
X19091702D01*
X19075040Y5758322D01*
Y5691677D01*
X19091702Y5675016D01*
X19125024D01*
X19141685Y5691677D01*
X19175008Y5675016D02*
X19208331D01*
X19191670D01*
Y5774984D01*
X19175008Y5758322D01*
X19308298Y5675016D02*
Y5774984D01*
X19258315Y5725000D01*
X19324960D01*
X14941685Y5758322D02*
X14925024Y5774984D01*
X14891702D01*
X14875040Y5758322D01*
Y5691677D01*
X14891702Y5675016D01*
X14925024D01*
X14941685Y5691677D01*
X14975008Y5675016D02*
X15008331D01*
X14991670D01*
Y5774984D01*
X14975008Y5758322D01*
X15124960Y5675016D02*
X15058315D01*
X15124960Y5741661D01*
Y5758322D01*
X15108298Y5774984D01*
X15074976D01*
X15058315Y5758322D01*
X12858347D02*
X12841685Y5774984D01*
X12808363D01*
X12791702Y5758322D01*
Y5691677D01*
X12808363Y5675016D01*
X12841685D01*
X12858347Y5691677D01*
X12891670Y5675016D02*
X12924992D01*
X12908331D01*
Y5774984D01*
X12891670Y5758322D01*
X12974976Y5675016D02*
X13008299D01*
X12991637D01*
Y5774984D01*
X12974976Y5758322D01*
X10741685Y5783322D02*
X10725024Y5799984D01*
X10691702D01*
X10675040Y5783322D01*
Y5716677D01*
X10691702Y5700016D01*
X10725024D01*
X10741685Y5716677D01*
X10775008Y5700016D02*
X10808331D01*
X10791670D01*
Y5799984D01*
X10775008Y5783322D01*
X10858315D02*
X10874976Y5799984D01*
X10908298D01*
X10924960Y5783322D01*
Y5716677D01*
X10908298Y5700016D01*
X10874976D01*
X10858315Y5716677D01*
Y5783322D01*
X8683339D02*
X8666678Y5799984D01*
X8633355D01*
X8616694Y5783322D01*
Y5716677D01*
X8633355Y5700016D01*
X8666678D01*
X8683339Y5716677D01*
X8716662D02*
X8733323Y5700016D01*
X8766645D01*
X8783307Y5716677D01*
Y5783322D01*
X8766645Y5799984D01*
X8733323D01*
X8716662Y5783322D01*
Y5766661D01*
X8733323Y5750000D01*
X8783307D01*
X6583339Y5758322D02*
X6566677Y5774984D01*
X6533355D01*
X6516694Y5758322D01*
Y5691677D01*
X6533355Y5675016D01*
X6566677D01*
X6583339Y5691677D01*
X6616661Y5758322D02*
X6633323Y5774984D01*
X6666645D01*
X6683306Y5758322D01*
Y5741661D01*
X6666645Y5725000D01*
X6683306Y5708339D01*
Y5691677D01*
X6666645Y5675016D01*
X6633323D01*
X6616661Y5691677D01*
Y5708339D01*
X6633323Y5725000D01*
X6616661Y5741661D01*
Y5758322D01*
X6633323Y5725000D02*
X6666645D01*
X15725040Y5924984D02*
Y5825016D01*
X15775024D01*
X15791685Y5841677D01*
Y5908322D01*
X15775024Y5924984D01*
X15725040D01*
X15825008Y5825016D02*
X15858331D01*
X15841670D01*
Y5924984D01*
X15825008Y5908322D01*
X15908315D02*
X15924976Y5924984D01*
X15958299D01*
X15974960Y5908322D01*
Y5891661D01*
X15958299Y5875000D01*
X15941637D01*
X15958299D01*
X15974960Y5858339D01*
Y5841677D01*
X15958299Y5825016D01*
X15924976D01*
X15908315Y5841677D01*
X13641702Y5924984D02*
Y5825016D01*
X13691685D01*
X13708347Y5841677D01*
Y5908322D01*
X13691685Y5924984D01*
X13641702D01*
X13741669Y5825016D02*
X13774992D01*
X13758331D01*
Y5924984D01*
X13741669Y5908322D01*
X13824976Y5825016D02*
X13858298D01*
X13841637D01*
Y5924984D01*
X13824976Y5908322D01*
X11566694Y5924984D02*
Y5825016D01*
X11616678D01*
X11633339Y5841677D01*
Y5908322D01*
X11616678Y5924984D01*
X11566694D01*
X11666661Y5841677D02*
X11683323Y5825016D01*
X11716645D01*
X11733306Y5841677D01*
Y5908322D01*
X11716645Y5924984D01*
X11683323D01*
X11666661Y5908322D01*
Y5891661D01*
X11683323Y5875000D01*
X11733306D01*
X9466694Y5924984D02*
Y5825016D01*
X9516677D01*
X9533339Y5841677D01*
Y5908322D01*
X9516677Y5924984D01*
X9466694D01*
X9566661D02*
X9633306D01*
Y5908322D01*
X9566661Y5841677D01*
Y5825016D01*
X7366694Y5899984D02*
Y5800016D01*
X7416678D01*
X7433339Y5816677D01*
Y5883322D01*
X7416678Y5899984D01*
X7366694D01*
X7533306D02*
X7466661D01*
Y5850000D01*
X7499984Y5866661D01*
X7516645D01*
X7533306Y5850000D01*
Y5816677D01*
X7516645Y5800016D01*
X7483323D01*
X7466661Y5816677D01*
X5266694Y5924984D02*
Y5825016D01*
X5316677D01*
X5333339Y5841677D01*
Y5908322D01*
X5316677Y5924984D01*
X5266694D01*
X5366661Y5908322D02*
X5383323Y5924984D01*
X5416645D01*
X5433306Y5908322D01*
Y5891661D01*
X5416645Y5875000D01*
X5399984D01*
X5416645D01*
X5433306Y5858339D01*
Y5841677D01*
X5416645Y5825016D01*
X5383323D01*
X5366661Y5841677D01*
X15725040Y4674984D02*
Y4575016D01*
X15775024D01*
X15791685Y4591677D01*
Y4658322D01*
X15775024Y4674984D01*
X15725040D01*
X15825008Y4575016D02*
X15858331D01*
X15841670D01*
Y4674984D01*
X15825008Y4658322D01*
X15958299Y4575016D02*
Y4674984D01*
X15908315Y4625000D01*
X15974960D01*
X13625040Y4674984D02*
Y4575016D01*
X13675024D01*
X13691685Y4591677D01*
Y4658322D01*
X13675024Y4674984D01*
X13625040D01*
X13725008Y4575016D02*
X13758331D01*
X13741669D01*
Y4674984D01*
X13725008Y4658322D01*
X13874960Y4575016D02*
X13808315D01*
X13874960Y4641661D01*
Y4658322D01*
X13858298Y4674984D01*
X13824976D01*
X13808315Y4658322D01*
X11525040Y4674984D02*
Y4575016D01*
X11575024D01*
X11591685Y4591677D01*
Y4658322D01*
X11575024Y4674984D01*
X11525040D01*
X11625008Y4575016D02*
X11658331D01*
X11641670D01*
Y4674984D01*
X11625008Y4658322D01*
X11708315D02*
X11724976Y4674984D01*
X11758299D01*
X11774960Y4658322D01*
Y4591677D01*
X11758299Y4575016D01*
X11724976D01*
X11708315Y4591677D01*
Y4658322D01*
X9466694Y4674984D02*
Y4575016D01*
X9516677D01*
X9533339Y4591677D01*
Y4658322D01*
X9516677Y4674984D01*
X9466694D01*
X9566661Y4658322D02*
X9583323Y4674984D01*
X9616645D01*
X9633306Y4658322D01*
Y4641661D01*
X9616645Y4625000D01*
X9633306Y4608339D01*
Y4591677D01*
X9616645Y4575016D01*
X9583323D01*
X9566661Y4591677D01*
Y4608339D01*
X9583323Y4625000D01*
X9566661Y4641661D01*
Y4658322D01*
X9583323Y4625000D02*
X9616645D01*
X7366694Y4674984D02*
Y4575016D01*
X7416678D01*
X7433339Y4591677D01*
Y4658322D01*
X7416678Y4674984D01*
X7366694D01*
X7533306D02*
X7499984Y4658322D01*
X7466661Y4625000D01*
Y4591677D01*
X7483323Y4575016D01*
X7516645D01*
X7533306Y4591677D01*
Y4608339D01*
X7516645Y4625000D01*
X7466661D01*
X5266694Y4674984D02*
Y4575016D01*
X5316677D01*
X5333339Y4591677D01*
Y4658322D01*
X5316677Y4674984D01*
X5266694D01*
X5416645Y4575016D02*
Y4674984D01*
X5366661Y4625000D01*
X5433306D01*
X15266710Y4950016D02*
Y5049984D01*
X15316695D01*
X15333356Y5033322D01*
Y5000000D01*
X15316695Y4983339D01*
X15266710D01*
X15300032D02*
X15333356Y4950016D01*
X15433322D02*
X15366676D01*
X15433322Y5016661D01*
Y5033322D01*
X15416661Y5049984D01*
X15383339D01*
X15366676Y5033322D01*
X15516629Y4950016D02*
Y5049984D01*
X15466644Y5000000D01*
X15533290D01*
X15266710Y5625016D02*
Y5724984D01*
X15316695D01*
X15333356Y5708323D01*
Y5675000D01*
X15316695Y5658339D01*
X15266710D01*
X15300032D02*
X15333356Y5625016D01*
X15433322D02*
X15366676D01*
X15433322Y5691661D01*
Y5708323D01*
X15416661Y5724984D01*
X15383339D01*
X15366676Y5708323D01*
X15466644D02*
X15483307Y5724984D01*
X15516629D01*
X15533290Y5708323D01*
Y5691661D01*
X15516629Y5675000D01*
X15499968D01*
X15516629D01*
X15533290Y5658339D01*
Y5641678D01*
X15516629Y5625016D01*
X15483307D01*
X15466644Y5641678D01*
X13166710Y4950016D02*
Y5049984D01*
X13216695D01*
X13233356Y5033322D01*
Y5000000D01*
X13216695Y4983339D01*
X13166710D01*
X13200032D02*
X13233356Y4950016D01*
X13333324D02*
X13266678D01*
X13333324Y5016661D01*
Y5033322D01*
X13316661Y5049984D01*
X13283339D01*
X13266678Y5033322D01*
X13433290Y4950016D02*
X13366644D01*
X13433290Y5016661D01*
Y5033322D01*
X13416629Y5049984D01*
X13383307D01*
X13366644Y5033322D01*
X13133371Y5650016D02*
Y5749984D01*
X13183356D01*
X13200015Y5733323D01*
Y5700000D01*
X13183356Y5683339D01*
X13133371D01*
X13166695D02*
X13200015Y5650016D01*
X13299985D02*
X13233339D01*
X13299985Y5716661D01*
Y5733323D01*
X13283324Y5749984D01*
X13250000D01*
X13233339Y5733323D01*
X13333307Y5650016D02*
X13366629D01*
X13349968D01*
Y5749984D01*
X13333307Y5733323D01*
X11066710Y4950016D02*
Y5049984D01*
X11116694D01*
X11133355Y5033322D01*
Y5000000D01*
X11116694Y4983339D01*
X11066710D01*
X11100032D02*
X11133355Y4950016D01*
X11233322D02*
X11166677D01*
X11233322Y5016661D01*
Y5033322D01*
X11216661Y5049984D01*
X11183339D01*
X11166677Y5033322D01*
X11266645D02*
X11283307Y5049984D01*
X11316629D01*
X11333290Y5033322D01*
Y4966677D01*
X11316629Y4950016D01*
X11283307D01*
X11266645Y4966677D01*
Y5033322D01*
X11025040Y5650016D02*
Y5749984D01*
X11075024D01*
X11091685Y5733323D01*
Y5700000D01*
X11075024Y5683339D01*
X11025040D01*
X11058363D02*
X11091685Y5650016D01*
X11125008D02*
X11158331D01*
X11141670D01*
Y5749984D01*
X11125008Y5733323D01*
X11208315Y5666678D02*
X11224976Y5650016D01*
X11258299D01*
X11274960Y5666678D01*
Y5733323D01*
X11258299Y5749984D01*
X11224976D01*
X11208315Y5733323D01*
Y5716661D01*
X11224976Y5700000D01*
X11274960D01*
X8950040Y4925016D02*
Y5024984D01*
X9000024D01*
X9016685Y5008322D01*
Y4975000D01*
X9000024Y4958339D01*
X8950040D01*
X8983363D02*
X9016685Y4925016D01*
X9050008D02*
X9083331D01*
X9066669D01*
Y5024984D01*
X9050008Y5008322D01*
X9133314D02*
X9149976Y5024984D01*
X9183298D01*
X9199960Y5008322D01*
Y4991661D01*
X9183298Y4975000D01*
X9199960Y4958339D01*
Y4941677D01*
X9183298Y4925016D01*
X9149976D01*
X9133314Y4941677D01*
Y4958339D01*
X9149976Y4975000D01*
X9133314Y4991661D01*
Y5008322D01*
X9149976Y4975000D02*
X9183298D01*
X8950040Y5650016D02*
Y5749984D01*
X9000024D01*
X9016685Y5733323D01*
Y5700000D01*
X9000024Y5683339D01*
X8950040D01*
X8983363D02*
X9016685Y5650016D01*
X9050008D02*
X9083331D01*
X9066669D01*
Y5749984D01*
X9050008Y5733323D01*
X9133314Y5749984D02*
X9199960D01*
Y5733323D01*
X9133314Y5666678D01*
Y5650016D01*
X6850040Y4950016D02*
Y5049984D01*
X6900024D01*
X6916685Y5033322D01*
Y5000000D01*
X6900024Y4983339D01*
X6850040D01*
X6883363D02*
X6916685Y4950016D01*
X6950008D02*
X6983331D01*
X6966670D01*
Y5049984D01*
X6950008Y5033322D01*
X7099960Y5049984D02*
X7066637Y5033322D01*
X7033315Y5000000D01*
Y4966677D01*
X7049976Y4950016D01*
X7083299D01*
X7099960Y4966677D01*
Y4983339D01*
X7083299Y5000000D01*
X7033315D01*
X6800041Y5650016D02*
Y5749984D01*
X6850024D01*
X6866686Y5733323D01*
Y5700000D01*
X6850024Y5683339D01*
X6800041D01*
X6833363D02*
X6866686Y5650016D01*
X6900008D02*
X6933331D01*
X6916670D01*
Y5749984D01*
X6900008Y5733323D01*
X7049960Y5749984D02*
X6983315D01*
Y5700000D01*
X7016637Y5716661D01*
X7033299D01*
X7049960Y5700000D01*
Y5666678D01*
X7033299Y5650016D01*
X6999976D01*
X6983315Y5666678D01*
X4750040Y4950016D02*
Y5049984D01*
X4800024D01*
X4816685Y5033322D01*
Y5000000D01*
X4800024Y4983339D01*
X4750040D01*
X4783363D02*
X4816685Y4950016D01*
X4850008D02*
X4883331D01*
X4866669D01*
Y5049984D01*
X4850008Y5033322D01*
X4983298Y4950016D02*
Y5049984D01*
X4933314Y5000000D01*
X4999960D01*
X4725040Y5650016D02*
Y5749984D01*
X4775024D01*
X4791685Y5733323D01*
Y5700000D01*
X4775024Y5683339D01*
X4725040D01*
X4758363D02*
X4791685Y5650016D01*
X4825008D02*
X4858331D01*
X4841670D01*
Y5749984D01*
X4825008Y5733323D01*
X4908315D02*
X4924976Y5749984D01*
X4958298D01*
X4974960Y5733323D01*
Y5716661D01*
X4958298Y5700000D01*
X4941637D01*
X4958298D01*
X4974960Y5683339D01*
Y5666678D01*
X4958298Y5650016D01*
X4924976D01*
X4908315Y5666678D01*
X18583337Y4308323D02*
X18566676Y4324984D01*
X18533356D01*
X18516693Y4308323D01*
Y4241678D01*
X18533356Y4225016D01*
X18566676D01*
X18583337Y4241678D01*
X18666644Y4225016D02*
Y4324984D01*
X18616661Y4275000D01*
X18683305D01*
X6450040Y3474984D02*
Y3391677D01*
X6466702Y3375016D01*
X6500024D01*
X6516685Y3391677D01*
Y3474984D01*
X6550008Y3375016D02*
X6583331D01*
X6566670D01*
Y3474984D01*
X6550008Y3458323D01*
X6699960Y3474984D02*
X6633315D01*
Y3425000D01*
X6666637Y3441661D01*
X6683299D01*
X6699960Y3425000D01*
Y3391677D01*
X6683299Y3375016D01*
X6649976D01*
X6633315Y3391677D01*
X6525040Y2850016D02*
Y2949984D01*
X6575024D01*
X6591685Y2933323D01*
Y2900000D01*
X6575024Y2883339D01*
X6525040D01*
X6625008Y2850016D02*
X6658331D01*
X6641669D01*
Y2949984D01*
X6625008Y2933323D01*
X6708314D02*
X6724976Y2949984D01*
X6758298D01*
X6774960Y2933323D01*
Y2866678D01*
X6758298Y2850016D01*
X6724976D01*
X6708314Y2866678D01*
Y2933323D01*
X6083355Y4383322D02*
X6066693Y4399984D01*
X6033371D01*
X6016710Y4383322D01*
Y4316677D01*
X6033371Y4300016D01*
X6066693D01*
X6083355Y4316677D01*
X6183322Y4300016D02*
X6116677D01*
X6183322Y4366661D01*
Y4383322D01*
X6166661Y4399984D01*
X6133339D01*
X6116677Y4383322D01*
X6283290Y4399984D02*
X6249968Y4383322D01*
X6216645Y4350000D01*
Y4316677D01*
X6233307Y4300016D01*
X6266629D01*
X6283290Y4316677D01*
Y4333339D01*
X6266629Y4350000D01*
X6216645D01*
X19416695Y3424984D02*
Y3325016D01*
X19466678D01*
X19483339Y3341678D01*
Y3408323D01*
X19466678Y3424984D01*
X19416695D01*
X19583307Y3325016D02*
X19516661D01*
X19583307Y3391661D01*
Y3408323D01*
X19566644Y3424984D01*
X19533324D01*
X19516661Y3408323D01*
X4908355Y3424984D02*
Y3325016D01*
X4958339D01*
X4975000Y3341678D01*
Y3408323D01*
X4958339Y3424984D01*
X4908355D01*
X5008323Y3325016D02*
X5041645D01*
X5024984D01*
Y3424984D01*
X5008323Y3408323D01*
X11455749Y3726438D02*
X11573562Y3702875D01*
X11502874Y3773563D02*
X11526437Y3655750D01*
X11644250Y3773563D02*
X11597125Y3726438D01*
Y3820688D01*
X11585344Y3832469D01*
X11561781Y3832469D01*
X11538218Y3808907D01*
Y3785344D01*
X16800040Y4124984D02*
Y4041677D01*
X16816702Y4025016D01*
X16850024D01*
X16866685Y4041677D01*
Y4124984D01*
X16900008Y4025016D02*
X16933331D01*
X16916669D01*
Y4124984D01*
X16900008Y4108322D01*
X17049960Y4124984D02*
X17016637Y4108322D01*
X16983315Y4075000D01*
Y4041677D01*
X16999976Y4025016D01*
X17033298D01*
X17049960Y4041677D01*
Y4058339D01*
X17033298Y4075000D01*
X16983315D01*
X18241695Y3799984D02*
Y3716678D01*
X18258356Y3700016D01*
X18291676D01*
X18308339Y3716678D01*
Y3799984D01*
X18341661Y3783323D02*
X18358324Y3799984D01*
X18391644D01*
X18408305Y3783323D01*
Y3766661D01*
X18391644Y3750000D01*
X18374985D01*
X18391644D01*
X18408305Y3733339D01*
Y3716678D01*
X18391644Y3700016D01*
X18358324D01*
X18341661Y3716678D01*
X19266693Y4624984D02*
Y4541677D01*
X19283356Y4525016D01*
X19316676D01*
X19333339Y4541677D01*
Y4624984D01*
X19416644Y4525016D02*
Y4624984D01*
X19366661Y4575000D01*
X19433305D01*
X4266694Y3199984D02*
Y3116678D01*
X4283355Y3100016D01*
X4316677D01*
X4333339Y3116678D01*
Y3199984D01*
X4433306Y3100016D02*
X4366661D01*
X4433306Y3166661D01*
Y3183323D01*
X4416645Y3199984D01*
X4383323D01*
X4366661Y3183323D01*
X19466710Y4950016D02*
Y5049984D01*
X19516695D01*
X19533356Y5033322D01*
Y5000000D01*
X19516695Y4983339D01*
X19466710D01*
X19500032D02*
X19533356Y4950016D01*
X19633322D02*
X19566676D01*
X19633322Y5016661D01*
Y5033322D01*
X19616661Y5049984D01*
X19583339D01*
X19566676Y5033322D01*
X19666644D02*
X19683307Y5049984D01*
X19716629D01*
X19733290Y5033322D01*
Y5016661D01*
X19716629Y5000000D01*
X19733290Y4983339D01*
Y4966677D01*
X19716629Y4950016D01*
X19683307D01*
X19666644Y4966677D01*
Y4983339D01*
X19683307Y5000000D01*
X19666644Y5016661D01*
Y5033322D01*
X19683307Y5000000D02*
X19716629D01*
X19466710Y5625016D02*
Y5724984D01*
X19516695D01*
X19533356Y5708323D01*
Y5675000D01*
X19516695Y5658339D01*
X19466710D01*
X19500032D02*
X19533356Y5625016D01*
X19633322D02*
X19566676D01*
X19633322Y5691661D01*
Y5708323D01*
X19616661Y5724984D01*
X19583339D01*
X19566676Y5708323D01*
X19666644Y5724984D02*
X19733290D01*
Y5708323D01*
X19666644Y5641678D01*
Y5625016D01*
X17366710Y4950016D02*
Y5049984D01*
X17416695D01*
X17433356Y5033322D01*
Y5000000D01*
X17416695Y4983339D01*
X17366710D01*
X17400032D02*
X17433356Y4950016D01*
X17533324D02*
X17466678D01*
X17533324Y5016661D01*
Y5033322D01*
X17516661Y5049984D01*
X17483339D01*
X17466678Y5033322D01*
X17633290Y5049984D02*
X17599968Y5033322D01*
X17566644Y5000000D01*
Y4966677D01*
X17583307Y4950016D01*
X17616629D01*
X17633290Y4966677D01*
Y4983339D01*
X17616629Y5000000D01*
X17566644D01*
X17366710Y5625016D02*
Y5724984D01*
X17416695D01*
X17433356Y5708323D01*
Y5675000D01*
X17416695Y5658339D01*
X17366710D01*
X17400032D02*
X17433356Y5625016D01*
X17533324D02*
X17466678D01*
X17533324Y5691661D01*
Y5708323D01*
X17516661Y5724984D01*
X17483339D01*
X17466678Y5708323D01*
X17633290Y5724984D02*
X17566644D01*
Y5675000D01*
X17599968Y5691661D01*
X17616629D01*
X17633290Y5675000D01*
Y5641678D01*
X17616629Y5625016D01*
X17583307D01*
X17566644Y5641678D01*
X19716695Y3925016D02*
Y4024984D01*
X19766678D01*
X19783339Y4008322D01*
Y3975000D01*
X19766678Y3958339D01*
X19716695D01*
X19750015D02*
X19783339Y3925016D01*
X19816661Y4008322D02*
X19833324Y4024984D01*
X19866644D01*
X19883305Y4008322D01*
Y3991661D01*
X19866644Y3975000D01*
X19849985D01*
X19866644D01*
X19883305Y3958339D01*
Y3941677D01*
X19866644Y3925016D01*
X19833324D01*
X19816661Y3941677D01*
X4108355Y4100016D02*
Y4199984D01*
X4158339D01*
X4175000Y4183323D01*
Y4150000D01*
X4158339Y4133339D01*
X4108355D01*
X4141678D02*
X4175000Y4100016D01*
X4208323D02*
X4241645D01*
X4224984D01*
Y4199984D01*
X4208323Y4183323D01*
X19716695Y4650016D02*
Y4749984D01*
X19766678D01*
X19783339Y4733323D01*
Y4700000D01*
X19766678Y4683339D01*
X19716695D01*
X19750015D02*
X19783339Y4650016D01*
X19866644D02*
Y4749984D01*
X19816661Y4700000D01*
X19883305D01*
X3691694Y2750016D02*
Y2849984D01*
X3741678D01*
X3758339Y2833323D01*
Y2800000D01*
X3741678Y2783339D01*
X3691694D01*
X3725016D02*
X3758339Y2750016D01*
X3858306D02*
X3791661D01*
X3858306Y2816661D01*
Y2833323D01*
X3841645Y2849984D01*
X3808323D01*
X3791661Y2833323D01*
X18933339Y3491678D02*
Y3558323D01*
X18916676Y3574984D01*
X18883356D01*
X18866695Y3558323D01*
Y3491678D01*
X18883356Y3475016D01*
X18916676D01*
X18900015Y3508339D02*
X18933339Y3475016D01*
X18916676D02*
X18933339Y3491678D01*
X19033305Y3475016D02*
X18966661D01*
X19033305Y3541661D01*
Y3558323D01*
X19016644Y3574984D01*
X18983324D01*
X18966661Y3558323D01*
X16416695Y4525016D02*
Y4624984D01*
X16466678D01*
X16483339Y4608323D01*
Y4575000D01*
X16466678Y4558339D01*
X16416695D01*
X16516661Y4608323D02*
X16533324Y4624984D01*
X16566644D01*
X16583305Y4608323D01*
Y4591661D01*
X16566644Y4575000D01*
X16583305Y4558339D01*
Y4541677D01*
X16566644Y4525016D01*
X16533324D01*
X16516661Y4541677D01*
Y4558339D01*
X16533324Y4575000D01*
X16516661Y4591661D01*
Y4608323D01*
X16533324Y4575000D02*
X16566644D01*
X12216694Y4525016D02*
Y4624984D01*
X12266678D01*
X12283339Y4608323D01*
Y4575000D01*
X12266678Y4558339D01*
X12216694D01*
X12383306Y4624984D02*
X12349984Y4608323D01*
X12316661Y4575000D01*
Y4541677D01*
X12333323Y4525016D01*
X12366645D01*
X12383306Y4541677D01*
Y4558339D01*
X12366645Y4575000D01*
X12316661D01*
X8016694Y4525016D02*
Y4624984D01*
X8066678D01*
X8083339Y4608323D01*
Y4575000D01*
X8066678Y4558339D01*
X8016694D01*
X8166645Y4525016D02*
Y4624984D01*
X8116661Y4575000D01*
X8183306D01*
X18516693Y4500016D02*
Y4599984D01*
X18566676D01*
X18583337Y4583323D01*
Y4550000D01*
X18566676Y4533339D01*
X18516693D01*
X18616661Y4516678D02*
X18633324Y4500016D01*
X18666644D01*
X18683305Y4516678D01*
Y4583323D01*
X18666644Y4599984D01*
X18633324D01*
X18616661Y4583323D01*
Y4566661D01*
X18633324Y4550000D01*
X18683305D01*
X14316693Y4525016D02*
Y4624984D01*
X14366676D01*
X14383339Y4608323D01*
Y4575000D01*
X14366676Y4558339D01*
X14316693D01*
X14416661Y4624984D02*
X14483305D01*
Y4608323D01*
X14416661Y4541677D01*
Y4525016D01*
X10116694Y4525017D02*
Y4624984D01*
X10166677D01*
X10183339Y4608323D01*
Y4575001D01*
X10166677Y4558339D01*
X10116694D01*
X10283306Y4624984D02*
X10216661D01*
Y4575001D01*
X10249984Y4591662D01*
X10266645D01*
X10283306Y4575001D01*
Y4541678D01*
X10266645Y4525017D01*
X10233323D01*
X10216661Y4541678D01*
X5916693Y4525016D02*
Y4624984D01*
X5966677D01*
X5983338Y4608323D01*
Y4575000D01*
X5966677Y4558339D01*
X5916693D01*
X6016661Y4608323D02*
X6033322Y4624984D01*
X6066645D01*
X6083306Y4608323D01*
Y4591661D01*
X6066645Y4575000D01*
X6049983D01*
X6066645D01*
X6083306Y4558339D01*
Y4541677D01*
X6066645Y4525016D01*
X6033322D01*
X6016661Y4541677D01*
X20316695Y4350016D02*
Y4449984D01*
X20366678D01*
X20383339Y4433323D01*
Y4400000D01*
X20366678Y4383339D01*
X20316695D01*
X20483307Y4350016D02*
X20416661D01*
X20483307Y4416661D01*
Y4433323D01*
X20466644Y4449984D01*
X20433324D01*
X20416661Y4433323D01*
X3083355Y4300016D02*
Y4399984D01*
X3133339D01*
X3150000Y4383322D01*
Y4350000D01*
X3133339Y4333339D01*
X3083355D01*
X3183323Y4300016D02*
X3216645D01*
X3199984D01*
Y4399984D01*
X3183323Y4383322D01*
X19925040Y4674984D02*
Y4575016D01*
X19975024D01*
X19991685Y4591677D01*
Y4658322D01*
X19975024Y4674984D01*
X19925040D01*
X20025008Y4575016D02*
X20058331D01*
X20041670D01*
Y4674984D01*
X20025008Y4658322D01*
X20108315D02*
X20124976Y4674984D01*
X20158299D01*
X20174960Y4658322D01*
Y4641661D01*
X20158299Y4625000D01*
X20174960Y4608339D01*
Y4591677D01*
X20158299Y4575016D01*
X20124976D01*
X20108315Y4591677D01*
Y4608339D01*
X20124976Y4625000D01*
X20108315Y4641661D01*
Y4658322D01*
X20124976Y4625000D02*
X20158299D01*
X19925040Y5924984D02*
Y5825016D01*
X19975024D01*
X19991685Y5841677D01*
Y5908322D01*
X19975024Y5924984D01*
X19925040D01*
X20025008Y5825016D02*
X20058331D01*
X20041670D01*
Y5924984D01*
X20025008Y5908322D01*
X20108315Y5924984D02*
X20174960D01*
Y5908322D01*
X20108315Y5841677D01*
Y5825016D01*
X17825040Y4674984D02*
Y4575016D01*
X17875024D01*
X17891685Y4591677D01*
Y4658322D01*
X17875024Y4674984D01*
X17825040D01*
X17925008Y4575016D02*
X17958331D01*
X17941669D01*
Y4674984D01*
X17925008Y4658322D01*
X18074960Y4674984D02*
X18041637Y4658322D01*
X18008315Y4625000D01*
Y4591677D01*
X18024976Y4575016D01*
X18058298D01*
X18074960Y4591677D01*
Y4608339D01*
X18058298Y4625000D01*
X18008315D01*
X17825040Y5924984D02*
Y5825016D01*
X17875024D01*
X17891685Y5841677D01*
Y5908322D01*
X17875024Y5924984D01*
X17825040D01*
X17925008Y5825016D02*
X17958331D01*
X17941669D01*
Y5924984D01*
X17925008Y5908322D01*
X18074960Y5924984D02*
X18008315D01*
Y5875000D01*
X18041637Y5891661D01*
X18058298D01*
X18074960Y5875000D01*
Y5841677D01*
X18058298Y5825016D01*
X18024976D01*
X18008315Y5841677D01*
X17733356Y4308323D02*
X17716695Y4324984D01*
X17683371D01*
X17666710Y4308323D01*
Y4241678D01*
X17683371Y4225016D01*
X17716695D01*
X17733356Y4241678D01*
X17833322Y4225016D02*
X17766676D01*
X17833322Y4291661D01*
Y4308323D01*
X17816661Y4324984D01*
X17783339D01*
X17766676Y4308323D01*
X17866644D02*
X17883307Y4324984D01*
X17916629D01*
X17933290Y4308323D01*
Y4291661D01*
X17916629Y4275000D01*
X17933290Y4258339D01*
Y4241678D01*
X17916629Y4225016D01*
X17883307D01*
X17866644Y4241678D01*
Y4258339D01*
X17883307Y4275000D01*
X17866644Y4291661D01*
Y4308323D01*
X17883307Y4275000D02*
X17916629D01*
X16583356Y3308323D02*
X16566695Y3324984D01*
X16533371D01*
X16516710Y3308323D01*
Y3241678D01*
X16533371Y3225016D01*
X16566695D01*
X16583356Y3241678D01*
X16683322Y3225016D02*
X16616676D01*
X16683322Y3291661D01*
Y3308323D01*
X16666661Y3324984D01*
X16633339D01*
X16616676Y3308323D01*
X16716644Y3324984D02*
X16783290D01*
Y3308323D01*
X16716644Y3241678D01*
Y3225016D01*
X11210203Y4207328D02*
X11186640D01*
X11163078Y4183765D01*
Y4160202D01*
X11210203Y4113077D01*
X11233765D01*
X11257328Y4136640D01*
Y4160202D01*
X11292672Y4171984D02*
X11316235Y4195547D01*
X11304453Y4183765D01*
X11233765Y4254453D01*
Y4230890D01*
X11339797Y4242672D02*
X11363360D01*
X11386923Y4266235D01*
X11386922Y4289797D01*
X11339797Y4336922D01*
X11316235Y4336922D01*
X11292672Y4313360D01*
Y4289797D01*
X11304453Y4278016D01*
X11328016Y4278016D01*
X11363360Y4313360D01*
X11829312Y3751437D02*
X11805750D01*
X11782187Y3727875D01*
Y3704312D01*
X11829312Y3657187D01*
X11852875D01*
X11876437Y3680749D01*
Y3704312D01*
X11958906Y3763219D02*
X11911781Y3716093D01*
Y3810344D01*
X11900000Y3822125D01*
X11876437Y3822125D01*
X11852875Y3798563D01*
Y3775000D01*
X12017813Y3822125D02*
X11947125Y3892813D01*
Y3822125D01*
X11994250Y3869250D01*
X11801437Y4320688D02*
Y4344250D01*
X11777875Y4367813D01*
X11754312D01*
X11707187Y4320688D01*
Y4297125D01*
X11730749Y4273562D01*
X11754312D01*
X11813218Y4191093D02*
X11766093Y4238218D01*
X11860344D01*
X11872125Y4250000D01*
X11872125Y4273562D01*
X11848563Y4297125D01*
X11825000D01*
X11895688Y4226437D02*
X11919250D01*
X11942813Y4202875D01*
X11942813Y4179312D01*
X11931032Y4167530D01*
X11907469D01*
X11895688Y4179312D01*
X11907469Y4167530D01*
X11907469Y4143968D01*
X11895688Y4132187D01*
X11872125Y4132187D01*
X11848563Y4155749D01*
Y4179312D01*
X10426437Y3870688D02*
Y3894250D01*
X10402875Y3917813D01*
X10379312D01*
X10332187Y3870688D01*
Y3847125D01*
X10355749Y3823563D01*
X10379312D01*
X10438219Y3741093D02*
X10391094Y3788218D01*
X10485344D01*
X10497125Y3800000D01*
X10497125Y3823563D01*
X10473563Y3847125D01*
X10450000D01*
X10508907Y3670405D02*
X10461781Y3717531D01*
X10556032D01*
X10567813Y3729312D01*
X10567813Y3752875D01*
X10544251Y3776437D01*
X10520688D01*
X10279312Y3526437D02*
X10255749D01*
X10232187Y3502875D01*
Y3479312D01*
X10279312Y3432187D01*
X10302874D01*
X10326437Y3455750D01*
Y3479312D01*
X10408906Y3538219D02*
X10361781Y3491094D01*
Y3585344D01*
X10350000Y3597125D01*
X10326437Y3597125D01*
X10302874Y3573563D01*
Y3550000D01*
X10373562Y3620688D02*
Y3644251D01*
X10397125Y3667813D01*
X10420688Y3667813D01*
X10467813Y3620688D01*
X10467813Y3597125D01*
X10444250Y3573563D01*
X10420688D01*
X10373562Y3620688D01*
X11416093Y3413219D02*
X11392531D01*
X11368968Y3389656D01*
Y3366093D01*
X11416093Y3318968D01*
X11439656D01*
X11463218Y3342531D01*
Y3366093D01*
X11545688Y3425000D02*
X11498562Y3377875D01*
Y3472125D01*
X11486781Y3483906D01*
X11463218Y3483907D01*
X11439656Y3460344D01*
Y3436781D01*
X11569250Y3448563D02*
X11592813Y3472125D01*
X11581032Y3460344D01*
X11510344Y3531032D01*
Y3507469D01*
X10810203Y4057328D02*
X10786640D01*
X10763078Y4033765D01*
Y4010203D01*
X10810203Y3963077D01*
X10833765D01*
X10857328Y3986640D01*
Y4010203D01*
X10892672Y4021984D02*
X10916235Y4045547D01*
X10904453Y4033765D01*
X10833765Y4104453D01*
Y4080890D01*
X10892672Y4139797D02*
Y4163360D01*
X10916235Y4186923D01*
X10939797Y4186922D01*
X10951579Y4175141D01*
Y4151578D01*
X10975141Y4151578D01*
X10986922Y4139797D01*
X10986923Y4116235D01*
X10963360Y4092672D01*
X10939797D01*
X10928016Y4104453D01*
Y4128016D01*
X10904453Y4128016D01*
X10892672Y4139797D01*
X10928016Y4128016D02*
X10951579Y4151578D01*
X17041685Y5758322D02*
X17025024Y5774984D01*
X16991702D01*
X16975040Y5758322D01*
Y5691677D01*
X16991702Y5675016D01*
X17025024D01*
X17041685Y5691677D01*
X17075008Y5675016D02*
X17108331D01*
X17091670D01*
Y5774984D01*
X17075008Y5758322D01*
X17158315D02*
X17174976Y5774984D01*
X17208299D01*
X17224960Y5758322D01*
Y5741661D01*
X17208299Y5725000D01*
X17191637D01*
X17208299D01*
X17224960Y5708339D01*
Y5691677D01*
X17208299Y5675016D01*
X17174976D01*
X17158315Y5691677D01*
X4233338Y5508322D02*
X4216677Y5524984D01*
X4183355D01*
X4166693Y5508322D01*
Y5441677D01*
X4183355Y5425016D01*
X4216677D01*
X4233338Y5441677D01*
X4266661Y5524984D02*
X4333306D01*
Y5508322D01*
X4266661Y5441677D01*
Y5425016D01*
X19408888Y4245912D02*
X19425549Y4262573D01*
Y4295896D01*
X19408888Y4312557D01*
X19342242D01*
X19325581Y4295896D01*
Y4262573D01*
X19342242Y4245912D01*
X19425549Y4145944D02*
X19408888Y4179267D01*
X19375565Y4212589D01*
X19342242D01*
X19325581Y4195928D01*
Y4162606D01*
X19342242Y4145944D01*
X19358904D01*
X19375565Y4162606D01*
Y4212589D01*
X3733339Y3583323D02*
X3716678Y3599984D01*
X3683355D01*
X3666694Y3583323D01*
Y3516677D01*
X3683355Y3500016D01*
X3716678D01*
X3733339Y3516677D01*
X3766662Y3583323D02*
X3783323Y3599984D01*
X3816645D01*
X3833307Y3583323D01*
Y3566661D01*
X3816645Y3550000D01*
X3799984D01*
X3816645D01*
X3833307Y3533339D01*
Y3516677D01*
X3816645Y3500016D01*
X3783323D01*
X3766662Y3516677D01*
%TF.MD5,c45e715f8cd6be13cb9314c57e5c2aab*%
M02*
