%TF.GenerationSoftware,Altium Limited,Altium Designer,24.0.1 (36)*%
G04 Layer_Physical_Order=4*
G04 Layer_Color=16711680*
%FSLAX45Y45*%
%MOMM*%
%TF.SameCoordinates,2C358838-E96C-4A59-A5A0-E9FE71613952*%
%TF.FilePolarity,Positive*%
%TF.FileFunction,Copper,L4,Bot,Signal*%
%TF.Part,Single*%
G01*
G75*
%TA.AperFunction,SMDPad,CuDef*%
%ADD13R,1.30464X1.45620*%
G04:AMPARAMS|DCode=15|XSize=1.30464mm|YSize=1.4562mm|CornerRadius=0mm|HoleSize=0mm|Usage=FLASHONLY|Rotation=225.000|XOffset=0mm|YOffset=0mm|HoleType=Round|Shape=Rectangle|*
%AMROTATEDRECTD15*
4,1,4,-0.05359,0.97610,0.97610,-0.05359,0.05359,-0.97610,-0.97610,0.05359,-0.05359,0.97610,0.0*
%
%ADD15ROTATEDRECTD15*%

%ADD17R,1.45620X1.30464*%
%ADD19R,1.20000X1.45000*%
%ADD26R,1.45000X1.20000*%
%TA.AperFunction,Conductor*%
%ADD29C,0.18000*%
%ADD30C,0.50000*%
%TA.AperFunction,ComponentPad*%
%ADD33C,2.00000*%
%ADD34R,1.50000X1.50000*%
%ADD35C,1.50000*%
%ADD36R,6.50000X6.50000*%
%ADD37C,1.60000*%
%ADD38R,1.60000X1.60000*%
G04:AMPARAMS|DCode=39|XSize=5mm|YSize=5mm|CornerRadius=1.25mm|HoleSize=0mm|Usage=FLASHONLY|Rotation=90.000|XOffset=0mm|YOffset=0mm|HoleType=Round|Shape=RoundedRectangle|*
%AMROUNDEDRECTD39*
21,1,5.00000,2.50000,0,0,90.0*
21,1,2.50000,5.00000,0,0,90.0*
1,1,2.50000,1.25000,1.25000*
1,1,2.50000,1.25000,-1.25000*
1,1,2.50000,-1.25000,-1.25000*
1,1,2.50000,-1.25000,1.25000*
%
%ADD39ROUNDEDRECTD39*%
%ADD40R,1.60000X1.60000*%
%TA.AperFunction,ViaPad*%
%ADD41C,0.35000*%
%ADD42C,0.50000*%
%ADD43C,0.45000*%
%TA.AperFunction,SMDPad,CuDef*%
%ADD44R,2.30000X1.10000*%
%ADD45R,1.10000X1.30000*%
G04:AMPARAMS|DCode=46|XSize=0.93108mm|YSize=0.81213mm|CornerRadius=0mm|HoleSize=0mm|Usage=FLASHONLY|Rotation=225.000|XOffset=0mm|YOffset=0mm|HoleType=Round|Shape=Rectangle|*
%AMROTATEDRECTD46*
4,1,4,0.04205,0.61632,0.61632,0.04205,-0.04205,-0.61632,-0.61632,-0.04205,0.04205,0.61632,0.0*
%
%ADD46ROTATEDRECTD46*%

%ADD47R,2.35283X0.49493*%
G04:AMPARAMS|DCode=48|XSize=2.35283mm|YSize=0.49493mm|CornerRadius=0.24746mm|HoleSize=0mm|Usage=FLASHONLY|Rotation=0.000|XOffset=0mm|YOffset=0mm|HoleType=Round|Shape=RoundedRectangle|*
%AMROUNDEDRECTD48*
21,1,2.35283,0.00000,0,0,0.0*
21,1,1.85790,0.49493,0,0,0.0*
1,1,0.49493,0.92895,0.00000*
1,1,0.49493,-0.92895,0.00000*
1,1,0.49493,-0.92895,0.00000*
1,1,0.49493,0.92895,0.00000*
%
%ADD48ROUNDEDRECTD48*%
G04:AMPARAMS|DCode=49|XSize=1.45mm|YSize=1.2mm|CornerRadius=0mm|HoleSize=0mm|Usage=FLASHONLY|Rotation=315.000|XOffset=0mm|YOffset=0mm|HoleType=Round|Shape=Rectangle|*
%AMROTATEDRECTD49*
4,1,4,-0.93692,0.08839,-0.08839,0.93692,0.93692,-0.08839,0.08839,-0.93692,-0.93692,0.08839,0.0*
%
%ADD49ROTATEDRECTD49*%

G04:AMPARAMS|DCode=50|XSize=1.8565mm|YSize=0.49798mm|CornerRadius=0.24899mm|HoleSize=0mm|Usage=FLASHONLY|Rotation=90.000|XOffset=0mm|YOffset=0mm|HoleType=Round|Shape=RoundedRectangle|*
%AMROUNDEDRECTD50*
21,1,1.85650,0.00000,0,0,90.0*
21,1,1.35852,0.49798,0,0,90.0*
1,1,0.49798,0.00000,0.67926*
1,1,0.49798,0.00000,-0.67926*
1,1,0.49798,0.00000,-0.67926*
1,1,0.49798,0.00000,0.67926*
%
%ADD50ROUNDEDRECTD50*%
%ADD51R,0.49798X1.85650*%
G04:AMPARAMS|DCode=52|XSize=1.3mm|YSize=1.9mm|CornerRadius=0mm|HoleSize=0mm|Usage=FLASHONLY|Rotation=225.000|XOffset=0mm|YOffset=0mm|HoleType=Round|Shape=Rectangle|*
%AMROTATEDRECTD52*
4,1,4,-0.21213,1.13137,1.13137,-0.21213,0.21213,-1.13137,-1.13137,0.21213,-0.21213,1.13137,0.0*
%
%ADD52ROTATEDRECTD52*%

%ADD53R,4.00000X1.80000*%
G04:AMPARAMS|DCode=54|XSize=1.1mm|YSize=0.6mm|CornerRadius=0.051mm|HoleSize=0mm|Usage=FLASHONLY|Rotation=0.000|XOffset=0mm|YOffset=0mm|HoleType=Round|Shape=RoundedRectangle|*
%AMROUNDEDRECTD54*
21,1,1.10000,0.49800,0,0,0.0*
21,1,0.99800,0.60000,0,0,0.0*
1,1,0.10200,0.49900,-0.24900*
1,1,0.10200,-0.49900,-0.24900*
1,1,0.10200,-0.49900,0.24900*
1,1,0.10200,0.49900,0.24900*
%
%ADD54ROUNDEDRECTD54*%
%ADD55R,0.45720X1.11760*%
%ADD56R,2.20000X4.10000*%
G04:AMPARAMS|DCode=57|XSize=0.3mm|YSize=1.2mm|CornerRadius=0mm|HoleSize=0mm|Usage=FLASHONLY|Rotation=315.000|XOffset=0mm|YOffset=0mm|HoleType=Round|Shape=Rectangle|*
%AMROTATEDRECTD57*
4,1,4,-0.53033,-0.31820,0.31820,0.53033,0.53033,0.31820,-0.31820,-0.53033,-0.53033,-0.31820,0.0*
%
%ADD57ROTATEDRECTD57*%

G04:AMPARAMS|DCode=58|XSize=0.3mm|YSize=1.2mm|CornerRadius=0mm|HoleSize=0mm|Usage=FLASHONLY|Rotation=225.000|XOffset=0mm|YOffset=0mm|HoleType=Round|Shape=Rectangle|*
%AMROTATEDRECTD58*
4,1,4,-0.31820,0.53033,0.53033,-0.31820,0.31820,-0.53033,-0.53033,0.31820,-0.31820,0.53033,0.0*
%
%ADD58ROTATEDRECTD58*%

G36*
X5100000Y4750000D02*
X4700000D01*
Y5230000D01*
X5100000D01*
Y4750000D01*
D02*
G37*
G36*
X19800000Y4745000D02*
X19400000D01*
Y5225000D01*
X19800000D01*
Y4745000D01*
D02*
G37*
G36*
X17700000D02*
X17300000D01*
Y5225000D01*
X17700000D01*
Y4745000D01*
D02*
G37*
G36*
X15600000D02*
X15200000D01*
Y5225000D01*
X15600000D01*
Y4745000D01*
D02*
G37*
G36*
X13500000D02*
X13100000D01*
Y5225000D01*
X13500000D01*
Y4745000D01*
D02*
G37*
G36*
X11400000D02*
X11000000D01*
Y5225000D01*
X11400000D01*
Y4745000D01*
D02*
G37*
G36*
X9300000D02*
X8900000D01*
Y5225000D01*
X9300000D01*
Y4745000D01*
D02*
G37*
G36*
X7200000D02*
X6800000D01*
Y5225000D01*
X7200000D01*
Y4745000D01*
D02*
G37*
G36*
X21061562Y2638438D02*
X13641060D01*
X13637291Y2646061D01*
X13636601Y2651138D01*
X13817526Y2832062D01*
X13817526Y2832063D01*
X13825859Y2844533D01*
X13827840Y2854490D01*
X13908510D01*
Y2971150D01*
X13958922Y3021561D01*
X14214799D01*
Y3002300D01*
X14385201D01*
Y3036561D01*
X14464799D01*
Y3002300D01*
X14511562D01*
Y2843258D01*
X14507500Y2833454D01*
Y2816546D01*
X14513969Y2800926D01*
X14525926Y2788970D01*
X14541547Y2782500D01*
X14558453D01*
X14574074Y2788970D01*
X14586031Y2800926D01*
X14592500Y2816546D01*
Y2833454D01*
X14588438Y2843258D01*
Y3002300D01*
X14635201D01*
Y3147700D01*
X14464799D01*
Y3113439D01*
X14385201D01*
Y3147700D01*
X14397829Y3147875D01*
X14432500D01*
X14440967Y3149559D01*
X14448145Y3154355D01*
X14496091Y3202300D01*
X14635201D01*
Y3202875D01*
X14695000D01*
X14703467Y3204559D01*
X14710645Y3209355D01*
X14811353Y3310063D01*
X15120813D01*
X15126074Y3297363D01*
X14886533Y3057822D01*
X14881737Y3050644D01*
X14880052Y3042178D01*
Y3011342D01*
X14635403Y2766692D01*
X14633453Y2767500D01*
X14616547D01*
X14600926Y2761030D01*
X14588969Y2749074D01*
X14582500Y2733454D01*
Y2716546D01*
X14588969Y2700926D01*
X14600926Y2688970D01*
X14616547Y2682500D01*
X14633453D01*
X14649074Y2688970D01*
X14661031Y2700926D01*
X14667500Y2716546D01*
Y2733454D01*
X14666693Y2735403D01*
X14917822Y2986533D01*
X14922618Y2993711D01*
X14924303Y3002177D01*
Y3033013D01*
X15158353Y3267064D01*
X15880025D01*
X16012733Y3134355D01*
X16019910Y3129559D01*
X16028377Y3127875D01*
X17750000D01*
X17758467Y3129559D01*
X17765645Y3134355D01*
X18198164Y3566875D01*
X18799812D01*
X18808278Y3568559D01*
X18815456Y3573355D01*
X19400256Y4158156D01*
X19407410Y4151003D01*
X19423030Y4144533D01*
X19439937D01*
X19455557Y4151003D01*
X19467514Y4162958D01*
X19473984Y4178579D01*
Y4195486D01*
X19467514Y4211107D01*
X19455557Y4223062D01*
X19449611Y4225526D01*
X19442384Y4241266D01*
X19442500Y4241546D01*
Y4258454D01*
X19436031Y4274074D01*
X19424074Y4286030D01*
X19408453Y4292500D01*
X19391547D01*
X19375926Y4286030D01*
X19362439Y4290503D01*
X19354735Y4298206D01*
X19339114Y4304676D01*
X19322208D01*
X19306587Y4298206D01*
X19294630Y4286251D01*
X19288161Y4270630D01*
Y4253723D01*
X19294630Y4238103D01*
X19295317Y4237417D01*
X18755025Y3697125D01*
X18155000D01*
X18146533Y3695441D01*
X18139355Y3690645D01*
X17706836Y3258125D01*
X16073164D01*
X15965645Y3365645D01*
X15965643Y3365645D01*
X15953050Y3378239D01*
X15953050Y3378240D01*
X15940456Y3390833D01*
X15933278Y3395629D01*
X15924811Y3397314D01*
X14447688D01*
X14439223Y3395629D01*
X14432043Y3390833D01*
X14395149Y3353939D01*
X14385201Y3347700D01*
Y3347700D01*
X14385201Y3347700D01*
X14214799D01*
Y3302049D01*
X14203067Y3297188D01*
X14192110Y3308145D01*
X14184932Y3312941D01*
X14176465Y3314625D01*
X14159644D01*
X14156419Y3319532D01*
X14154063Y3327325D01*
X14162560Y3340041D01*
X14164043Y3347500D01*
X13890985D01*
X13892468Y3340041D01*
X13900964Y3327325D01*
X13898608Y3319532D01*
X13895386Y3314625D01*
X13702499D01*
X13694032Y3312941D01*
X13686855Y3308145D01*
X13250403Y2871693D01*
X13248454Y2872500D01*
X13231546D01*
X13215926Y2866030D01*
X13203970Y2854074D01*
X13197501Y2838454D01*
Y2821546D01*
X13202322Y2809904D01*
X13196043Y2798431D01*
X13186301Y2798420D01*
X13186031Y2799074D01*
X13174074Y2811030D01*
X13158453Y2817500D01*
X13141547D01*
X13125926Y2811030D01*
X13113969Y2799074D01*
X13107500Y2783454D01*
Y2766546D01*
X13113969Y2750926D01*
X13125926Y2738970D01*
X13141547Y2732500D01*
X13158453D01*
X13174074Y2738970D01*
X13186031Y2750926D01*
X13186050Y2750975D01*
X13263570D01*
X13272035Y2752659D01*
X13279213Y2757455D01*
X13727133Y3205375D01*
X13900087D01*
X13906648Y3193620D01*
X13905650Y3186546D01*
X13899345Y3177111D01*
X13896439Y3162500D01*
X13899345Y3147889D01*
X13907622Y3135503D01*
X13920007Y3127226D01*
X13934619Y3124320D01*
X14005389D01*
Y3098439D01*
X13943001D01*
X13942999Y3098439D01*
X13928290Y3095512D01*
X13915820Y3087180D01*
X13854149Y3025510D01*
X13754652D01*
Y3032810D01*
X13679420D01*
Y2940000D01*
Y2847190D01*
X13707339D01*
X13712199Y2835457D01*
X13592281Y2715539D01*
X12767236D01*
X12761988Y2728239D01*
X12767500Y2741546D01*
Y2758454D01*
X12761030Y2774074D01*
X12750163Y2784941D01*
Y3521962D01*
X12748479Y3530429D01*
X12743683Y3537607D01*
X12337645Y3943645D01*
X12330467Y3948441D01*
X12322000Y3950125D01*
X12104683D01*
X12096216Y3948441D01*
X12089038Y3943645D01*
X12080690Y3935296D01*
X12058598Y3957388D01*
X12063459Y3969121D01*
X13463736D01*
X13470000Y3967875D01*
X13795712D01*
X13801978Y3969121D01*
X17441246D01*
X17449713Y3970805D01*
X17456891Y3975601D01*
X18099164Y4617875D01*
X19020000D01*
X19028467Y4619559D01*
X19035645Y4624355D01*
X19118146Y4706855D01*
X19122942Y4714033D01*
X19124625Y4722500D01*
Y5157189D01*
X19136365Y5163872D01*
X19143497Y5162807D01*
X19152829Y5156571D01*
X19167500Y5153653D01*
X19182170Y5156571D01*
X19185434Y5158752D01*
X19200130Y5159618D01*
X19214981Y5149694D01*
X19222501Y5148199D01*
Y5259914D01*
X19242500D01*
Y5148199D01*
X19250018Y5149694D01*
X19250029Y5149701D01*
X19251123Y5150402D01*
X19259901Y5154389D01*
X19335098D01*
Y5252875D01*
X19381204D01*
X19387300Y5242700D01*
Y5227527D01*
X19386253Y5225000D01*
Y4745000D01*
X19390280Y4735280D01*
X19400000Y4731253D01*
X19800000D01*
X19809720Y4735280D01*
X19813747Y4745000D01*
Y5225000D01*
X19812700Y5227527D01*
Y5242700D01*
X19622125D01*
Y5264456D01*
X19620441Y5272923D01*
X19615645Y5280101D01*
X19605099Y5290645D01*
X19597922Y5295441D01*
X19589456Y5297125D01*
X19335098D01*
Y5365439D01*
X19259901D01*
X19251123Y5369427D01*
X19250029Y5370127D01*
X19250018Y5370134D01*
X19247360Y5370663D01*
X19239833Y5385109D01*
X19242500Y5391546D01*
Y5408454D01*
X19236031Y5424074D01*
X19224074Y5436030D01*
X19208453Y5442500D01*
X19191547D01*
X19175926Y5436030D01*
X19163969Y5424074D01*
X19157500Y5408454D01*
Y5391546D01*
X19160448Y5384431D01*
X19157939Y5381923D01*
X19153143Y5374745D01*
X19151459Y5366278D01*
Y5362342D01*
X19143497Y5357021D01*
X19135001Y5355753D01*
X19126505Y5357021D01*
X19117171Y5363258D01*
X19102499Y5366176D01*
X19087830Y5363258D01*
X19075394Y5354948D01*
X19067084Y5342511D01*
X19064165Y5327840D01*
Y5191988D01*
X19067084Y5177318D01*
X19075394Y5164881D01*
X19080376Y5161552D01*
Y4731665D01*
X19010835Y4662125D01*
X18089999D01*
X18081532Y4660441D01*
X18074355Y4655645D01*
X17432082Y4013371D01*
X17001254D01*
X16996394Y4025104D01*
X17018146Y4046856D01*
X17022942Y4054034D01*
X17024626Y4062500D01*
Y5161552D01*
X17029608Y5164881D01*
X17040393D01*
X17052831Y5156571D01*
X17067500Y5153653D01*
X17082172Y5156571D01*
X17085434Y5158752D01*
X17100130Y5159618D01*
X17114983Y5149694D01*
X17122501Y5148198D01*
Y5259914D01*
X17142500D01*
Y5148199D01*
X17150018Y5149694D01*
X17150031Y5149701D01*
X17151123Y5150402D01*
X17159901Y5154389D01*
X17235098D01*
Y5252875D01*
X17281204D01*
X17287300Y5242700D01*
Y5227528D01*
X17286253Y5225000D01*
Y4745000D01*
X17290280Y4735280D01*
X17300000Y4731253D01*
X17700000D01*
X17709720Y4735280D01*
X17713747Y4745000D01*
Y4866680D01*
X17723000Y4875000D01*
X17726447Y4875000D01*
X17923000D01*
Y5075000D01*
X17726447D01*
X17723000Y5075000D01*
X17713747Y5083320D01*
Y5225000D01*
X17712700Y5227526D01*
Y5242700D01*
X17522125D01*
Y5264456D01*
X17520441Y5272923D01*
X17515645Y5280101D01*
X17505101Y5290645D01*
X17497923Y5295441D01*
X17489456Y5297125D01*
X17235098D01*
Y5365439D01*
X17159901D01*
X17151123Y5369427D01*
X17150031Y5370127D01*
X17150018Y5370134D01*
X17147360Y5370663D01*
X17139833Y5385109D01*
X17142500Y5391546D01*
Y5408454D01*
X17136031Y5424074D01*
X17124074Y5436030D01*
X17108453Y5442500D01*
X17091547D01*
X17075926Y5436030D01*
X17063969Y5424074D01*
X17057500Y5408454D01*
Y5391546D01*
X17060448Y5384431D01*
X17057941Y5381923D01*
X17053143Y5374745D01*
X17051459Y5366278D01*
Y5362342D01*
X17040393Y5354948D01*
X17029608D01*
X17017171Y5363258D01*
X17002499Y5366176D01*
X16987830Y5363258D01*
X16975394Y5354948D01*
X16967084Y5342511D01*
X16964165Y5327840D01*
Y5191988D01*
X16967084Y5177318D01*
X16975394Y5164881D01*
X16980376Y5161552D01*
Y4071665D01*
X16956065Y4047356D01*
X14885239D01*
X14880379Y4059089D01*
X14918146Y4096855D01*
X14922942Y4104033D01*
X14924625Y4112500D01*
Y5161552D01*
X14929607Y5164881D01*
X14940393D01*
X14952829Y5156571D01*
X14967500Y5153653D01*
X14982170Y5156571D01*
X14985434Y5158752D01*
X15000130Y5159618D01*
X15014981Y5149694D01*
X15022501Y5148199D01*
Y5259914D01*
X15042500D01*
Y5148199D01*
X15050018Y5149694D01*
X15050029Y5149701D01*
X15051123Y5150402D01*
X15059901Y5154389D01*
X15135098D01*
Y5252875D01*
X15181204D01*
X15187300Y5242700D01*
Y5227527D01*
X15186253Y5225000D01*
Y4745000D01*
X15190280Y4735280D01*
X15200000Y4731253D01*
X15600000D01*
X15609720Y4735280D01*
X15613747Y4745000D01*
Y4866680D01*
X15623000Y4875000D01*
X15626447Y4875000D01*
X15823000D01*
Y5075000D01*
X15626447D01*
X15623000Y5075000D01*
X15613747Y5083320D01*
Y5225000D01*
X15612700Y5227527D01*
Y5242700D01*
X15422125D01*
Y5264456D01*
X15420441Y5272923D01*
X15415645Y5280101D01*
X15405101Y5290645D01*
X15397922Y5295441D01*
X15389456Y5297125D01*
X15135098D01*
Y5365439D01*
X15059901D01*
X15051123Y5369427D01*
X15050029Y5370127D01*
X15050018Y5370134D01*
X15047360Y5370663D01*
X15039833Y5385109D01*
X15042500Y5391546D01*
Y5408454D01*
X15036031Y5424074D01*
X15024074Y5436030D01*
X15008453Y5442500D01*
X14991547D01*
X14975926Y5436030D01*
X14963969Y5424074D01*
X14957500Y5408454D01*
Y5391546D01*
X14960448Y5384431D01*
X14957939Y5381923D01*
X14953143Y5374745D01*
X14951459Y5366278D01*
Y5362342D01*
X14940393Y5354948D01*
X14929607D01*
X14917171Y5363258D01*
X14902499Y5366176D01*
X14887830Y5363258D01*
X14875394Y5354948D01*
X14867084Y5342511D01*
X14864165Y5327840D01*
Y5191988D01*
X14867084Y5177318D01*
X14875394Y5164881D01*
X14880376Y5161552D01*
Y4121665D01*
X14841422Y4082712D01*
X12790595D01*
X12785735Y4094445D01*
X12818146Y4126855D01*
X12822942Y4134033D01*
X12824625Y4142500D01*
Y5157189D01*
X12836365Y5163872D01*
X12843497Y5162807D01*
X12852831Y5156571D01*
X12867500Y5153653D01*
X12882172Y5156571D01*
X12885434Y5158752D01*
X12900130Y5159618D01*
X12914983Y5149694D01*
X12922501Y5148199D01*
Y5259914D01*
X12942500D01*
Y5148199D01*
X12950018Y5149694D01*
X12950029Y5149701D01*
X12951123Y5150402D01*
X12959901Y5154389D01*
X13035098D01*
Y5252875D01*
X13081204D01*
X13087300Y5242700D01*
Y5227527D01*
X13086253Y5225000D01*
Y4745000D01*
X13090280Y4735280D01*
X13100000Y4731253D01*
X13500000D01*
X13509720Y4735280D01*
X13513747Y4745000D01*
Y4866681D01*
X13523000Y4875000D01*
X13526447Y4875000D01*
X13723000D01*
Y5075000D01*
X13526447D01*
X13523000Y5075000D01*
X13513747Y5083319D01*
Y5225000D01*
X13512700Y5227527D01*
Y5242700D01*
X13322125D01*
Y5264456D01*
X13320441Y5272923D01*
X13315645Y5280101D01*
X13305101Y5290645D01*
X13297923Y5295441D01*
X13289456Y5297125D01*
X13035098D01*
Y5365439D01*
X12959901D01*
X12951123Y5369427D01*
X12950029Y5370127D01*
X12950018Y5370134D01*
X12947360Y5370663D01*
X12939833Y5385109D01*
X12942500Y5391546D01*
Y5408454D01*
X12936031Y5424074D01*
X12924074Y5436030D01*
X12908453Y5442500D01*
X12891547D01*
X12875926Y5436030D01*
X12863969Y5424074D01*
X12857500Y5408454D01*
Y5391546D01*
X12860448Y5384431D01*
X12857939Y5381923D01*
X12853143Y5374745D01*
X12851459Y5366278D01*
Y5362342D01*
X12843497Y5357021D01*
X12835001Y5355753D01*
X12826505Y5357021D01*
X12817171Y5363258D01*
X12802499Y5366176D01*
X12787830Y5363258D01*
X12775393Y5354948D01*
X12767083Y5342511D01*
X12764164Y5327840D01*
Y5191988D01*
X12767083Y5177318D01*
X12775393Y5164881D01*
X12780375Y5161552D01*
Y4151665D01*
X12746777Y4118067D01*
X11919072D01*
X11912144Y4116689D01*
X11899547Y4116439D01*
X11824894Y4191092D01*
X11848177Y4214375D01*
X11869000D01*
X11871137Y4214800D01*
X11992700D01*
Y4385200D01*
X11847300D01*
Y4258625D01*
X11839013D01*
X11830546Y4256941D01*
X11823368Y4252145D01*
X11793605Y4222382D01*
X11727932Y4288054D01*
X11733094Y4293216D01*
X11715416Y4310894D01*
X11658848Y4254325D01*
X11644705Y4268467D01*
X11701274Y4325036D01*
X11683596Y4342713D01*
X11678435Y4337551D01*
X11648241Y4367745D01*
X11545428Y4264932D01*
X11575621Y4234738D01*
X11570459Y4229576D01*
X11596063Y4203972D01*
X11593083Y4188992D01*
X11587784Y4186796D01*
X11575828Y4174841D01*
X11569358Y4159220D01*
Y4142313D01*
X11570165Y4140364D01*
X11544283Y4114481D01*
X11391404D01*
X11390597Y4116430D01*
X11378641Y4128386D01*
X11363021Y4134856D01*
X11346113D01*
X11330493Y4128386D01*
X11318537Y4116430D01*
X11317730Y4114481D01*
X11297125D01*
Y4134713D01*
X11295441Y4143179D01*
X11290645Y4150357D01*
X11290321Y4150681D01*
X11330043Y4190403D01*
X11404572Y4264932D01*
X11301759Y4367745D01*
X11227230Y4293216D01*
X11165499Y4231485D01*
X11160337Y4236647D01*
X11142660Y4218970D01*
X11199229Y4162401D01*
X11185087Y4148259D01*
X11128518Y4204828D01*
X11115878Y4192188D01*
X11082422Y4225645D01*
X11075244Y4230441D01*
X11066777Y4232125D01*
X10759165D01*
X10724625Y4266664D01*
Y5161552D01*
X10729607Y5164881D01*
X10740393D01*
X10752830Y5156571D01*
X10767500Y5153653D01*
X10782171Y5156571D01*
X10785434Y5158752D01*
X10800130Y5159618D01*
X10814982Y5149694D01*
X10822501Y5148199D01*
Y5259914D01*
X10842501D01*
Y5148199D01*
X10850019Y5149694D01*
X10850030Y5149701D01*
X10851123Y5150402D01*
X10859901Y5154389D01*
X10935099D01*
Y5252875D01*
X10981204D01*
X10987300Y5242700D01*
Y5227527D01*
X10986254Y5225000D01*
Y4745000D01*
X10990280Y4735280D01*
X11000000Y4731253D01*
X11400000D01*
X11409720Y4735280D01*
X11413747Y4745000D01*
Y4866681D01*
X11423001Y4875000D01*
X11426447Y4875000D01*
X11623000D01*
Y5075000D01*
X11426447D01*
X11423001Y5075000D01*
X11413747Y5083319D01*
Y5225000D01*
X11412700Y5227527D01*
Y5242700D01*
X11222125D01*
Y5264456D01*
X11220441Y5272923D01*
X11215645Y5280101D01*
X11205101Y5290645D01*
X11197923Y5295441D01*
X11189456Y5297125D01*
X10935099D01*
Y5365439D01*
X10859901D01*
X10851123Y5369427D01*
X10850030Y5370127D01*
X10850019Y5370134D01*
X10847360Y5370663D01*
X10839833Y5385109D01*
X10842500Y5391546D01*
Y5408454D01*
X10836030Y5424074D01*
X10824074Y5436030D01*
X10808454Y5442500D01*
X10791546D01*
X10775926Y5436030D01*
X10763970Y5424074D01*
X10757500Y5408454D01*
Y5391546D01*
X10760447Y5384431D01*
X10757940Y5381923D01*
X10753144Y5374745D01*
X10751459Y5366278D01*
Y5362342D01*
X10740393Y5354948D01*
X10729607D01*
X10717171Y5363258D01*
X10702500Y5366176D01*
X10687830Y5363258D01*
X10675393Y5354948D01*
X10667083Y5342511D01*
X10664165Y5327840D01*
Y5191988D01*
X10667083Y5177318D01*
X10675393Y5164881D01*
X10680375Y5161552D01*
Y4257500D01*
X10682059Y4249033D01*
X10686855Y4241855D01*
X10714852Y4213858D01*
X10709992Y4202125D01*
X8639165D01*
X8624625Y4216665D01*
Y5161552D01*
X8629607Y5164881D01*
X8640393D01*
X8652830Y5156571D01*
X8667500Y5153653D01*
X8682171Y5156571D01*
X8685434Y5158752D01*
X8700130Y5159618D01*
X8714982Y5149694D01*
X8722500Y5148199D01*
Y5259915D01*
X8742500D01*
Y5148199D01*
X8750019Y5149694D01*
X8750029Y5149701D01*
X8751123Y5150402D01*
X8759901Y5154389D01*
X8835099D01*
Y5252875D01*
X8881204D01*
X8887300Y5242700D01*
Y5227527D01*
X8886253Y5225000D01*
Y4745000D01*
X8890280Y4735280D01*
X8900000Y4731253D01*
X9300000D01*
X9309720Y4735280D01*
X9313746Y4745000D01*
Y4866681D01*
X9323000Y4875000D01*
X9326447Y4875000D01*
X9523000D01*
Y5075000D01*
X9326447D01*
X9323000Y5075000D01*
X9313746Y5083319D01*
Y5225000D01*
X9312700Y5227527D01*
Y5242700D01*
X9122125D01*
Y5264456D01*
X9120441Y5272923D01*
X9115645Y5280101D01*
X9105101Y5290645D01*
X9097923Y5295441D01*
X9089456Y5297125D01*
X8835099D01*
Y5365439D01*
X8759901D01*
X8751123Y5369427D01*
X8750029Y5370127D01*
X8750019Y5370134D01*
X8747360Y5370663D01*
X8739833Y5385109D01*
X8742500Y5391546D01*
Y5408454D01*
X8736030Y5424074D01*
X8724074Y5436030D01*
X8708454Y5442500D01*
X8691546D01*
X8675926Y5436030D01*
X8663970Y5424074D01*
X8657500Y5408454D01*
Y5391546D01*
X8660447Y5384431D01*
X8657940Y5381923D01*
X8653143Y5374745D01*
X8651459Y5366278D01*
Y5362342D01*
X8640393Y5354948D01*
X8629607D01*
X8617171Y5363258D01*
X8602500Y5366176D01*
X8587830Y5363258D01*
X8575393Y5354948D01*
X8567083Y5342511D01*
X8564164Y5327840D01*
Y5191988D01*
X8567083Y5177318D01*
X8575393Y5164881D01*
X8580375Y5161552D01*
Y4207500D01*
X8582059Y4199033D01*
X8586855Y4191855D01*
X8594852Y4183859D01*
X8589992Y4172125D01*
X7689164D01*
X7654424Y4206866D01*
Y4637702D01*
X7652740Y4646169D01*
X7647944Y4653347D01*
X7595645Y4705645D01*
X7588467Y4710441D01*
X7580000Y4712125D01*
X6579165D01*
X6524626Y4766664D01*
Y5161552D01*
X6529607Y5164881D01*
X6540393D01*
X6552830Y5156571D01*
X6567500Y5153653D01*
X6582171Y5156571D01*
X6585434Y5158752D01*
X6600130Y5159618D01*
X6614982Y5149694D01*
X6622500Y5148199D01*
Y5259914D01*
X6642500D01*
Y5148199D01*
X6650019Y5149694D01*
X6650030Y5149701D01*
X6651123Y5150402D01*
X6659901Y5154389D01*
X6735099D01*
Y5252875D01*
X6781204D01*
X6787300Y5242700D01*
Y5227527D01*
X6786254Y5225000D01*
Y4745000D01*
X6790280Y4735280D01*
X6800000Y4731253D01*
X7200000D01*
X7209720Y4735280D01*
X7213747Y4745000D01*
Y4866681D01*
X7223001Y4875000D01*
X7226447Y4875000D01*
X7423000D01*
Y5075000D01*
X7226447D01*
X7223001Y5075000D01*
X7213747Y5083319D01*
Y5225000D01*
X7212700Y5227527D01*
Y5242700D01*
X7022125D01*
Y5264456D01*
X7020441Y5272923D01*
X7015645Y5280101D01*
X7005101Y5290645D01*
X6997923Y5295441D01*
X6989456Y5297125D01*
X6735099D01*
Y5365439D01*
X6659901D01*
X6651123Y5369427D01*
X6650030Y5370127D01*
X6650019Y5370134D01*
X6647360Y5370663D01*
X6639833Y5385109D01*
X6642500Y5391546D01*
Y5408454D01*
X6636030Y5424074D01*
X6624074Y5436030D01*
X6608454Y5442500D01*
X6591546D01*
X6575926Y5436030D01*
X6563970Y5424074D01*
X6557500Y5408454D01*
Y5391546D01*
X6560447Y5384431D01*
X6557940Y5381923D01*
X6553144Y5374745D01*
X6551459Y5366278D01*
Y5362342D01*
X6543496Y5357021D01*
X6529607Y5354948D01*
X6517171Y5363258D01*
X6502500Y5366176D01*
X6487830Y5363258D01*
X6475393Y5354948D01*
X6467083Y5342511D01*
X6464165Y5327840D01*
Y5191988D01*
X6467083Y5177318D01*
X6475393Y5164881D01*
X6480375Y5161552D01*
Y4757500D01*
X6482059Y4749033D01*
X6486855Y4741855D01*
X6536808Y4691902D01*
X6531948Y4680169D01*
X4476121D01*
X4424625Y4731665D01*
Y5161552D01*
X4429607Y5164881D01*
X4440393D01*
X4452830Y5156571D01*
X4467500Y5153653D01*
X4482171Y5156571D01*
X4485434Y5158752D01*
X4500130Y5159618D01*
X4514982Y5149694D01*
X4522500Y5148199D01*
Y5259915D01*
X4542500D01*
Y5148199D01*
X4550019Y5149694D01*
X4550030Y5149701D01*
X4551123Y5150402D01*
X4559901Y5154389D01*
X4635099D01*
Y5252875D01*
X4681204D01*
X4687300Y5242700D01*
Y5232527D01*
X4686254Y5230000D01*
Y4750000D01*
X4690280Y4740280D01*
X4700000Y4736253D01*
X5100000D01*
X5109720Y4740280D01*
X5113746Y4750000D01*
Y4866681D01*
X5123000Y4875000D01*
X5126447Y4875000D01*
X5323000D01*
Y5075000D01*
X5126447D01*
X5123000Y5075000D01*
X5113746Y5083319D01*
Y5230000D01*
X5112700Y5232526D01*
Y5242700D01*
X5102526D01*
X5100000Y5243746D01*
X4922125D01*
Y5264456D01*
X4920441Y5272923D01*
X4915645Y5280101D01*
X4905101Y5290645D01*
X4897923Y5295441D01*
X4889456Y5297125D01*
X4635099D01*
Y5365439D01*
X4559901D01*
X4551123Y5369427D01*
X4550030Y5370127D01*
X4550019Y5370134D01*
X4547360Y5370663D01*
X4539833Y5385109D01*
X4542500Y5391546D01*
Y5408454D01*
X4536030Y5424074D01*
X4524074Y5436030D01*
X4508454Y5442500D01*
X4491546D01*
X4475926Y5436030D01*
X4463970Y5424074D01*
X4457500Y5408454D01*
Y5391546D01*
X4460447Y5384431D01*
X4457940Y5381923D01*
X4453143Y5374745D01*
X4451459Y5366278D01*
Y5362342D01*
X4443496Y5357021D01*
X4429607Y5354948D01*
X4417171Y5363258D01*
X4402500Y5366176D01*
X4387830Y5363258D01*
X4375393Y5354948D01*
X4367083Y5342511D01*
X4364164Y5327840D01*
Y5191988D01*
X4367083Y5177318D01*
X4375393Y5164881D01*
X4380375Y5161552D01*
Y4722500D01*
X4382059Y4714033D01*
X4386855Y4706855D01*
X4451311Y4642399D01*
X4458489Y4637603D01*
X4466956Y4635919D01*
X7562792D01*
X7574225Y4624486D01*
Y4183650D01*
X7575909Y4175183D01*
X7580705Y4168005D01*
X7647000Y4101710D01*
X7654178Y4096914D01*
X7662645Y4095230D01*
X9726648D01*
X9726977Y4094821D01*
X9731240Y4082530D01*
X9615835Y3967125D01*
X9552700D01*
Y4012700D01*
X9297300D01*
Y3967125D01*
X8982700D01*
Y4012700D01*
X8727300D01*
Y3908590D01*
X8671414Y3852703D01*
X8625510D01*
Y3908510D01*
X8454490D01*
Y3754654D01*
X8447190D01*
Y3679422D01*
X8540000D01*
X8632810D01*
Y3754654D01*
X8625510D01*
Y3808453D01*
X8680579D01*
X8689045Y3810137D01*
X8696223Y3814933D01*
X8758590Y3877300D01*
X8982700D01*
Y3922875D01*
X9297300D01*
Y3877300D01*
X9552700D01*
Y3922875D01*
X9625000D01*
X9633467Y3924559D01*
X9640645Y3929355D01*
X9759165Y4047875D01*
X10265571D01*
X10270431Y4036142D01*
X10262436Y4028147D01*
X10298220Y3992363D01*
X10338210Y4032353D01*
X10334422Y4036142D01*
X10339282Y4047875D01*
X10834843D01*
X10837369Y4035175D01*
X10829152Y4031771D01*
X10817196Y4019815D01*
X10810726Y4004195D01*
Y3987288D01*
X10815888Y3974825D01*
X10810145Y3962125D01*
X10479289D01*
X10470823Y3960441D01*
X10463645Y3955645D01*
X10417713Y3909714D01*
X10332018D01*
X10327158Y3921447D01*
X10334005Y3928294D01*
X10291149Y3971150D01*
X10248294Y4014005D01*
X10208305Y3974015D01*
X10213467Y3968853D01*
X10142187Y3897573D01*
X10149235Y3890525D01*
X10128752Y3870041D01*
X10080104Y3918689D01*
X9970220Y3808804D01*
X10122530Y3656494D01*
X10232415Y3766378D01*
X10160041Y3838752D01*
X10180525Y3859235D01*
X10217574Y3822187D01*
X10266941Y3871554D01*
X10273536Y3867148D01*
X10282003Y3865463D01*
X10426878D01*
X10435345Y3867148D01*
X10442523Y3871944D01*
X10443430Y3872851D01*
X10453295Y3864755D01*
X10449559Y3859164D01*
X10447875Y3850697D01*
Y3721335D01*
X10449559Y3712868D01*
X10454355Y3705690D01*
X10457329Y3702716D01*
X10430408Y3675794D01*
X10452456Y3653746D01*
X10398752Y3600041D01*
X10306378Y3692415D01*
X10196494Y3582530D01*
X10348805Y3430220D01*
X10458689Y3540104D01*
X10430042Y3568751D01*
X10483746Y3622456D01*
X10505795Y3600408D01*
X10577075Y3671687D01*
X10582236Y3666526D01*
X10622226Y3706515D01*
X10579370Y3749370D01*
X10536515Y3792226D01*
X10504825Y3760535D01*
X10492125Y3765796D01*
Y3841532D01*
X10518468Y3867875D01*
X10689810D01*
X10695071Y3855175D01*
X10693970Y3854074D01*
X10687500Y3838454D01*
Y3821546D01*
X10693970Y3805926D01*
X10705926Y3793970D01*
X10721546Y3787500D01*
X10738454D01*
X10741666Y3788831D01*
X10768017Y3762479D01*
X10734355Y3728818D01*
X10729559Y3721639D01*
X10727875Y3713173D01*
Y3608952D01*
X10729559Y3600486D01*
X10734355Y3593308D01*
X10804079Y3523583D01*
X10754380Y3473884D01*
X10653655D01*
X10642500Y3485040D01*
Y3498454D01*
X10636030Y3514074D01*
X10624074Y3526030D01*
X10608454Y3532500D01*
X10591546D01*
X10575926Y3526030D01*
X10563970Y3514074D01*
X10557500Y3498454D01*
Y3481546D01*
X10563970Y3465926D01*
X10575926Y3453970D01*
X10591546Y3447500D01*
X10608454D01*
X10614822Y3450138D01*
X10628846Y3436114D01*
X10636024Y3431318D01*
X10644491Y3429633D01*
X10752556D01*
X10760247Y3419363D01*
X10757287Y3416403D01*
X10774964Y3398726D01*
X10831533Y3455294D01*
X10845675Y3441152D01*
X10789106Y3384584D01*
X10806784Y3366906D01*
X10811946Y3372068D01*
X10841959Y3342055D01*
X10836698Y3329355D01*
X10832230D01*
X10823762Y3327670D01*
X10816585Y3322874D01*
X10806473Y3312762D01*
X10761872Y3357363D01*
X10659059Y3254550D01*
X10777771Y3135837D01*
X10744324Y3102391D01*
X10692929Y3153787D01*
X10636360Y3097218D01*
X10579792Y3040650D01*
X10631188Y2989254D01*
X10494059Y2852125D01*
X10440000D01*
X10431533Y2850441D01*
X10424355Y2845645D01*
X10400403Y2821693D01*
X10398454Y2822500D01*
X10381546D01*
X10365926Y2816030D01*
X10353970Y2804074D01*
X10347500Y2788454D01*
Y2771546D01*
X10353142Y2757925D01*
X10348078Y2745225D01*
X10316065D01*
X10312125Y2749165D01*
Y2805956D01*
X10310441Y2814423D01*
X10309890Y2815247D01*
X10312500Y2821546D01*
Y2838454D01*
X10306030Y2854074D01*
X10294074Y2866030D01*
X10278454Y2872500D01*
X10261546D01*
X10245926Y2866030D01*
X10233970Y2854074D01*
X10233163Y2852125D01*
X9955000D01*
X9946533Y2850441D01*
X9939355Y2845645D01*
X9890835Y2797125D01*
X6140187D01*
X6138515Y2809825D01*
X6144668Y2811474D01*
X6166331Y2823981D01*
X6184019Y2841669D01*
X6196526Y2863332D01*
X6203000Y2887493D01*
Y2912507D01*
X6196526Y2936668D01*
X6184019Y2958331D01*
X6166331Y2976019D01*
X6144668Y2988526D01*
X6120507Y2995000D01*
X6095493D01*
X6071332Y2988526D01*
X6049669Y2976019D01*
X6031981Y2958331D01*
X6019474Y2936668D01*
X6013000Y2912507D01*
Y2887493D01*
X6019474Y2863332D01*
X6031981Y2841669D01*
X6049669Y2823981D01*
X6071332Y2811474D01*
X6077485Y2809825D01*
X6075813Y2797125D01*
X5886187D01*
X5884515Y2809825D01*
X5890668Y2811474D01*
X5912331Y2823981D01*
X5930019Y2841669D01*
X5942526Y2863332D01*
X5949000Y2887493D01*
Y2912507D01*
X5942526Y2936668D01*
X5930019Y2958331D01*
X5912331Y2976019D01*
X5890668Y2988526D01*
X5866507Y2995000D01*
X5841493D01*
X5817332Y2988526D01*
X5795669Y2976019D01*
X5777981Y2958331D01*
X5765474Y2936668D01*
X5759000Y2912507D01*
Y2887493D01*
X5765474Y2863332D01*
X5777981Y2841669D01*
X5795669Y2823981D01*
X5817332Y2811474D01*
X5823485Y2809825D01*
X5821813Y2797125D01*
X5704438D01*
X5695000Y2805000D01*
X5695000Y2809826D01*
Y2995000D01*
X5505000D01*
Y2809826D01*
X5505000Y2805000D01*
X5495562Y2797125D01*
X5309102D01*
X5300636Y2795441D01*
X5293458Y2790645D01*
X5230537Y2727725D01*
X5187003D01*
X5184525Y2740181D01*
X5185262Y2740486D01*
X5214743Y2760185D01*
X5239815Y2785257D01*
X5259514Y2814738D01*
X5273083Y2847496D01*
X5280000Y2882271D01*
Y2917728D01*
X5273083Y2952504D01*
X5259514Y2985262D01*
X5239815Y3014743D01*
X5214743Y3039815D01*
X5185262Y3059514D01*
X5152504Y3073082D01*
X5117728Y3080000D01*
X5082272D01*
X5047496Y3073082D01*
X5014738Y3059514D01*
X4985257Y3039815D01*
X4960185Y3014743D01*
X4940486Y2985262D01*
X4926917Y2952504D01*
X4920000Y2917728D01*
Y2882271D01*
X4926917Y2847496D01*
X4940486Y2814738D01*
X4960185Y2785257D01*
X4985257Y2760185D01*
X5014738Y2740486D01*
X5015475Y2740181D01*
X5012997Y2727725D01*
X4803565D01*
X4640645Y2890645D01*
X4633467Y2895441D01*
X4625000Y2897125D01*
X4536837D01*
X4536030Y2899074D01*
X4524074Y2911030D01*
X4508454Y2917500D01*
X4491546D01*
X4475926Y2911030D01*
X4463970Y2899074D01*
X4457500Y2883454D01*
Y2867500D01*
X4441546D01*
X4425926Y2861030D01*
X4413970Y2849074D01*
X4407500Y2833454D01*
Y2817500D01*
X4391546D01*
X4375926Y2811030D01*
X4363970Y2799074D01*
X4357500Y2783454D01*
Y2766546D01*
X4363970Y2750926D01*
X4375926Y2738970D01*
X4391546Y2732500D01*
X4408454D01*
X4424074Y2738970D01*
X4431079Y2745975D01*
X4522736D01*
X4618539Y2650172D01*
X4613678Y2638438D01*
X2638438D01*
Y6361561D01*
X21061562D01*
Y2638438D01*
D02*
G37*
G36*
X11977732Y3753602D02*
X11972872Y3741869D01*
X11719744D01*
X11711277Y3740185D01*
X11704099Y3735389D01*
X11484355Y3515645D01*
X11479559Y3508467D01*
X11477875Y3500000D01*
Y3120008D01*
X11466142Y3115148D01*
X11035388Y3545901D01*
X11028210Y3550697D01*
X11019744Y3552382D01*
X10858412D01*
X10849945Y3550697D01*
X10843710Y3546532D01*
X10772125Y3618117D01*
Y3704008D01*
X10799307Y3731190D01*
X10835068Y3695428D01*
X10839010Y3699370D01*
X10854025Y3684355D01*
X10861203Y3679559D01*
X10869670Y3677875D01*
X10952899D01*
X10961366Y3679559D01*
X10968544Y3684355D01*
X11290645Y4006456D01*
X11295441Y4013634D01*
X11297125Y4022101D01*
Y4070231D01*
X11317730D01*
X11318537Y4068282D01*
X11330493Y4056327D01*
X11346113Y4049857D01*
X11363021D01*
X11378641Y4056327D01*
X11390597Y4068282D01*
X11391404Y4070231D01*
X11553447D01*
X11561914Y4071915D01*
X11569092Y4076711D01*
X11601455Y4109074D01*
X11603404Y4108267D01*
X11620311D01*
X11622260Y4109074D01*
X11977732Y3753602D01*
D02*
G37*
G36*
X12652875Y3515835D02*
Y2865368D01*
X12647064Y2862961D01*
X12635108Y2851005D01*
X12628638Y2835385D01*
Y2818477D01*
X12635108Y2802857D01*
X12647064Y2790901D01*
X12662684Y2784431D01*
X12679591D01*
X12682622Y2785687D01*
X12689816Y2774920D01*
X12688970Y2774074D01*
X12682500Y2758454D01*
Y2741546D01*
X12688012Y2728239D01*
X12682764Y2715539D01*
X12532000D01*
Y2870000D01*
X12342000D01*
Y2711290D01*
X12277835Y2647125D01*
X12109165D01*
X12047825Y2708464D01*
Y2815054D01*
X12047125Y2818573D01*
Y2881045D01*
X12045441Y2889512D01*
X12040645Y2896690D01*
X12016632Y2920703D01*
X12082174Y2986245D01*
X12087336Y2981083D01*
X12140533Y3034280D01*
X12074906Y3099906D01*
X12089048Y3114048D01*
X12154675Y3048422D01*
X12186141Y3079888D01*
X12197875Y3075028D01*
Y2959165D01*
X12155355Y2916645D01*
X12150559Y2909467D01*
X12148875Y2901000D01*
Y2864207D01*
X12146332Y2863526D01*
X12124669Y2851019D01*
X12106981Y2833331D01*
X12094474Y2811668D01*
X12088000Y2787507D01*
Y2762493D01*
X12094474Y2738332D01*
X12106981Y2716669D01*
X12124669Y2698981D01*
X12146332Y2686474D01*
X12170493Y2680000D01*
X12195507D01*
X12219668Y2686474D01*
X12241331Y2698981D01*
X12259019Y2716669D01*
X12271526Y2738332D01*
X12278000Y2762493D01*
Y2787507D01*
X12271526Y2811668D01*
X12259019Y2833331D01*
X12241331Y2851019D01*
X12219668Y2863526D01*
X12195507Y2870000D01*
X12193125D01*
Y2891835D01*
X12235645Y2934355D01*
X12240441Y2941533D01*
X12242125Y2950000D01*
Y3102219D01*
X12240441Y3110685D01*
X12235645Y3117863D01*
X12104276Y3249233D01*
X12097098Y3254029D01*
X12088631Y3255713D01*
X12053588D01*
X12045121Y3254029D01*
X12037943Y3249233D01*
X11791221Y3002510D01*
X11787156Y3003209D01*
X11782826Y3016840D01*
X11825018Y3059032D01*
X11860373Y3094387D01*
X11899547Y3133561D01*
X11966439Y3200453D01*
X12001795Y3235808D01*
X12072505Y3306519D01*
X12111679Y3345693D01*
X12143216Y3377230D01*
X12217745Y3451759D01*
X12114931Y3554572D01*
X12040402Y3480043D01*
X12005047Y3444688D01*
X11934337Y3373977D01*
X11902799Y3342440D01*
X11828270Y3267911D01*
X11792915Y3232555D01*
X11757560Y3197200D01*
X11722081Y3161721D01*
X11697125Y3186677D01*
Y3413163D01*
X11699074Y3413970D01*
X11711030Y3425926D01*
X11717500Y3441546D01*
Y3458454D01*
X11711030Y3474074D01*
X11699074Y3486030D01*
X11693126Y3488493D01*
X11685900Y3504233D01*
X11686016Y3504514D01*
Y3521421D01*
X11679546Y3537042D01*
X11667590Y3548997D01*
X11651970Y3555467D01*
X11635063D01*
X11619442Y3548997D01*
X11607487Y3537042D01*
X11601016Y3521421D01*
Y3504514D01*
X11601824Y3502565D01*
X11584355Y3485096D01*
X11579559Y3477918D01*
X11577875Y3469451D01*
Y3425000D01*
X11579559Y3416533D01*
X11584355Y3409355D01*
X11608496Y3385214D01*
Y3151180D01*
X11610181Y3142714D01*
X11614977Y3135536D01*
X11655436Y3095076D01*
X11625118Y3064759D01*
X11619957Y3069921D01*
X11602279Y3052243D01*
X11658848Y2995675D01*
X11644705Y2981533D01*
X11588137Y3038101D01*
X11575498Y3025462D01*
X11522125Y3078834D01*
Y3490836D01*
X11728908Y3697618D01*
X12026938D01*
X12033993Y3687059D01*
X12032500Y3683454D01*
Y3666546D01*
X12038970Y3650926D01*
X12050926Y3638970D01*
X12066546Y3632500D01*
X12083454D01*
X12099074Y3638970D01*
X12111030Y3650926D01*
X12117500Y3666546D01*
Y3683454D01*
X12117380Y3683742D01*
X12114932Y3695428D01*
X12217745Y3798241D01*
X12187551Y3828435D01*
X12192713Y3833597D01*
X12175036Y3851274D01*
X12118467Y3794705D01*
X12104325Y3808848D01*
X12160893Y3865416D01*
X12160168Y3866142D01*
X12165028Y3877875D01*
X12290835D01*
X12652875Y3515835D01*
D02*
G37*
G36*
X11015098Y3168916D02*
X11050453Y3133561D01*
X11085808Y3098205D01*
X11124982Y3059032D01*
X11195817Y2988197D01*
X11154744Y2947125D01*
X10716376D01*
X10711115Y2959825D01*
X10748978Y2997688D01*
X10763747D01*
X10772214Y2999372D01*
X10779392Y3004168D01*
X10979619Y3204395D01*
X11015098Y3168916D01*
D02*
G37*
G36*
X11301759Y2882255D02*
X11337520Y2918017D01*
X11402875Y2852662D01*
Y2750000D01*
X11404559Y2741533D01*
X11409355Y2734355D01*
X11493539Y2650172D01*
X11488678Y2638438D01*
X5349916D01*
X5343128Y2651138D01*
X5344288Y2652875D01*
X10450000D01*
X10458467Y2654559D01*
X10465645Y2659355D01*
X10667300Y2861011D01*
X10680000Y2855750D01*
Y2680000D01*
X10870000D01*
Y2870000D01*
X10694250D01*
X10688990Y2882700D01*
X10709165Y2902875D01*
X11163909D01*
X11172376Y2904559D01*
X11179554Y2909355D01*
X11227106Y2956907D01*
X11301759Y2882255D01*
D02*
G37*
G36*
X11464685Y3054025D02*
X11471863Y3049229D01*
X11480330Y3047545D01*
X11490836D01*
X11549370Y2989011D01*
X11545428Y2985068D01*
X11648241Y2882255D01*
X11652183Y2886197D01*
X11663893Y2874487D01*
X11671071Y2869691D01*
X11679538Y2868006D01*
X11870131D01*
X11878598Y2869691D01*
X11884229Y2858847D01*
X11870669Y2851019D01*
X11852981Y2833331D01*
X11840474Y2811668D01*
X11834000Y2787507D01*
Y2762493D01*
X11840474Y2738332D01*
X11852761Y2717051D01*
X11796967Y2661257D01*
X11545033D01*
X11509700Y2696590D01*
X11516172Y2706903D01*
X11516750Y2707500D01*
X11533454D01*
X11549074Y2713970D01*
X11561030Y2725926D01*
X11567500Y2741546D01*
Y2758454D01*
X11561030Y2774074D01*
X11549074Y2786030D01*
X11547125Y2786837D01*
Y2900000D01*
X11545441Y2908467D01*
X11540645Y2915645D01*
X11405363Y3050927D01*
X11398185Y3055723D01*
X11389718Y3057407D01*
X11353386D01*
X11344919Y3055723D01*
X11338324Y3051316D01*
X11259332Y3130308D01*
X11223977Y3165663D01*
X11188622Y3201018D01*
X11157085Y3232556D01*
X11117911Y3271729D01*
X11047200Y3342440D01*
X11011845Y3377795D01*
X10976490Y3413151D01*
X10914759Y3474881D01*
X10919921Y3480043D01*
X10903566Y3496398D01*
X10908426Y3508131D01*
X11010579D01*
X11464685Y3054025D01*
D02*
G37*
%LPC*%
G36*
X18945000Y6145000D02*
X18255000D01*
Y6143746D01*
X17460001D01*
X17460001Y6143747D01*
X17450279Y6139721D01*
X17450279Y6139719D01*
X17290280Y5979720D01*
X17286253Y5970000D01*
X17286253Y5969999D01*
Y5670000D01*
X17287300Y5667472D01*
Y5657300D01*
X17281204Y5647125D01*
X17235835D01*
Y5758012D01*
X17232918Y5772682D01*
X17224608Y5785119D01*
X17212170Y5793429D01*
X17197501Y5796347D01*
X17182829Y5793429D01*
X17179565Y5791249D01*
X17164871Y5790382D01*
X17150018Y5800306D01*
X17142500Y5801801D01*
Y5690085D01*
Y5578370D01*
X17150018Y5579866D01*
X17164871Y5589789D01*
X17179565Y5588923D01*
X17182829Y5586742D01*
X17197501Y5583824D01*
X17212170Y5586742D01*
X17224608Y5595052D01*
X17229834Y5602875D01*
X17489456D01*
X17497923Y5604559D01*
X17505101Y5609355D01*
X17515645Y5619899D01*
X17520441Y5627077D01*
X17522125Y5635544D01*
Y5656254D01*
X18134306D01*
X18255000Y5535559D01*
Y5455000D01*
X18945000D01*
Y6145000D01*
D02*
G37*
G36*
X16845000D02*
X16155000D01*
Y6143746D01*
X15360001D01*
X15360001Y6143747D01*
X15350279Y6139721D01*
X15350279Y6139719D01*
X15190280Y5979720D01*
X15186253Y5970000D01*
X15186253Y5969999D01*
Y5670000D01*
X15187300Y5667474D01*
Y5657300D01*
X15181204Y5647125D01*
X15135835D01*
Y5758012D01*
X15132916Y5772682D01*
X15124606Y5785119D01*
X15112170Y5793429D01*
X15097501Y5796347D01*
X15082829Y5793429D01*
X15079565Y5791249D01*
X15064870Y5790382D01*
X15050018Y5800306D01*
X15042500Y5801801D01*
Y5690085D01*
Y5578370D01*
X15050018Y5579866D01*
X15064870Y5589789D01*
X15079565Y5588923D01*
X15082829Y5586742D01*
X15097501Y5583824D01*
X15112170Y5586742D01*
X15124606Y5595052D01*
X15129834Y5602875D01*
X15389456D01*
X15397922Y5604559D01*
X15405101Y5609355D01*
X15415645Y5619899D01*
X15420441Y5627077D01*
X15422125Y5635544D01*
Y5656254D01*
X16034306D01*
X16155000Y5535559D01*
Y5455000D01*
X16845000D01*
Y6145000D01*
D02*
G37*
G36*
X14745000D02*
X14055000D01*
Y6143746D01*
X13260001D01*
X13260001Y6143747D01*
X13250279Y6139721D01*
X13250279Y6139719D01*
X13090280Y5979720D01*
X13086253Y5970000D01*
X13086253Y5969999D01*
Y5670000D01*
X13087300Y5667473D01*
Y5657300D01*
X13081204Y5647125D01*
X13035835D01*
Y5758012D01*
X13032918Y5772682D01*
X13024606Y5785119D01*
X13012170Y5793429D01*
X12997501Y5796347D01*
X12982829Y5793429D01*
X12979565Y5791249D01*
X12964870Y5790382D01*
X12950018Y5800306D01*
X12942500Y5801801D01*
Y5690085D01*
Y5578370D01*
X12950018Y5579866D01*
X12964870Y5589789D01*
X12979565Y5588923D01*
X12982829Y5586742D01*
X12997501Y5583824D01*
X13012170Y5586742D01*
X13024606Y5595052D01*
X13029834Y5602875D01*
X13289456D01*
X13297923Y5604559D01*
X13305101Y5609355D01*
X13315645Y5619899D01*
X13320441Y5627077D01*
X13322125Y5635544D01*
Y5656254D01*
X13934306D01*
X14055000Y5535559D01*
Y5455000D01*
X14745000D01*
Y6145000D01*
D02*
G37*
G36*
X12645000D02*
X11955000D01*
Y6143746D01*
X11160001D01*
X11160000Y6143747D01*
X11150279Y6139721D01*
X11150279Y6139719D01*
X10990280Y5979720D01*
X10986253Y5970000D01*
X10986253Y5969999D01*
Y5670000D01*
X10987300Y5667472D01*
Y5657300D01*
X10981204Y5647125D01*
X10935836D01*
Y5758012D01*
X10932918Y5772682D01*
X10924608Y5785119D01*
X10912171Y5793429D01*
X10897500Y5796347D01*
X10882830Y5793429D01*
X10879566Y5791249D01*
X10864871Y5790382D01*
X10850019Y5800306D01*
X10842501Y5801801D01*
Y5690085D01*
Y5578370D01*
X10850019Y5579866D01*
X10864871Y5589789D01*
X10879566Y5588923D01*
X10882830Y5586742D01*
X10897500Y5583824D01*
X10912171Y5586742D01*
X10924608Y5595052D01*
X10929834Y5602875D01*
X11189456D01*
X11197923Y5604559D01*
X11205101Y5609355D01*
X11215645Y5619899D01*
X11220441Y5627077D01*
X11222125Y5635544D01*
Y5656254D01*
X11834306D01*
X11955000Y5535559D01*
Y5455000D01*
X12645000D01*
Y6145000D01*
D02*
G37*
G36*
X10545000D02*
X9855000D01*
Y6143746D01*
X9060001D01*
X9060000Y6143747D01*
X9050279Y6139721D01*
X9050279Y6139719D01*
X8890280Y5979720D01*
X8886253Y5970000D01*
X8886253Y5969999D01*
Y5670000D01*
X8887300Y5667473D01*
Y5657300D01*
X8881204Y5647125D01*
X8835836D01*
Y5758012D01*
X8832918Y5772682D01*
X8824607Y5785119D01*
X8812171Y5793429D01*
X8797500Y5796347D01*
X8782830Y5793429D01*
X8779566Y5791249D01*
X8764870Y5790382D01*
X8750019Y5800306D01*
X8742500Y5801801D01*
Y5690086D01*
Y5578370D01*
X8750019Y5579866D01*
X8764870Y5589789D01*
X8779566Y5588923D01*
X8782830Y5586742D01*
X8797500Y5583824D01*
X8812171Y5586742D01*
X8824607Y5595052D01*
X8829834Y5602875D01*
X9089456D01*
X9097923Y5604559D01*
X9105101Y5609355D01*
X9115645Y5619899D01*
X9120441Y5627077D01*
X9122125Y5635544D01*
Y5656254D01*
X9734306D01*
X9855000Y5535559D01*
Y5455000D01*
X10545000D01*
Y6145000D01*
D02*
G37*
G36*
X8445000D02*
X7755000D01*
Y6143746D01*
X6960001D01*
X6960000Y6143747D01*
X6950279Y6139721D01*
X6950279Y6139719D01*
X6790280Y5979720D01*
X6786253Y5970000D01*
X6786253Y5969999D01*
Y5670000D01*
X6787300Y5667472D01*
Y5657300D01*
X6781204Y5647125D01*
X6735836D01*
Y5758012D01*
X6732918Y5772682D01*
X6724608Y5785119D01*
X6712171Y5793429D01*
X6697500Y5796347D01*
X6682830Y5793429D01*
X6679566Y5791249D01*
X6664871Y5790382D01*
X6650019Y5800306D01*
X6642500Y5801801D01*
Y5690086D01*
Y5578370D01*
X6650019Y5579866D01*
X6664871Y5589789D01*
X6679566Y5588923D01*
X6682830Y5586742D01*
X6697500Y5583824D01*
X6712171Y5586742D01*
X6724608Y5595052D01*
X6729834Y5602875D01*
X6989456D01*
X6997923Y5604559D01*
X7005101Y5609355D01*
X7015645Y5619899D01*
X7020441Y5627077D01*
X7022125Y5635544D01*
Y5656254D01*
X7634306D01*
X7755000Y5535559D01*
Y5455000D01*
X8445000D01*
Y6145000D01*
D02*
G37*
G36*
X6345000D02*
X5655000D01*
Y6143746D01*
X4860001D01*
X4860000Y6143747D01*
X4850279Y6139721D01*
X4850279Y6139719D01*
X4690280Y5979720D01*
X4686253Y5970000D01*
X4686254Y5969999D01*
Y5670000D01*
X4687300Y5667473D01*
Y5657300D01*
X4681204Y5647125D01*
X4635836D01*
Y5758012D01*
X4632918Y5772682D01*
X4624607Y5785119D01*
X4612171Y5793429D01*
X4597500Y5796347D01*
X4582830Y5793429D01*
X4579566Y5791249D01*
X4564870Y5790382D01*
X4550019Y5800306D01*
X4542500Y5801801D01*
Y5690086D01*
Y5578370D01*
X4550019Y5579866D01*
X4564870Y5589789D01*
X4579566Y5588923D01*
X4582830Y5586742D01*
X4597500Y5583824D01*
X4612171Y5586742D01*
X4624607Y5595052D01*
X4629834Y5602875D01*
X4889456D01*
X4897923Y5604559D01*
X4905101Y5609355D01*
X4915645Y5619899D01*
X4920441Y5627077D01*
X4922125Y5635544D01*
Y5656254D01*
X5534306D01*
X5655000Y5535559D01*
Y5455000D01*
X6345000D01*
Y6145000D01*
D02*
G37*
G36*
X19560001Y6143747D02*
X19550279Y6139721D01*
Y6139719D01*
X19390280Y5979720D01*
X19386253Y5970000D01*
X19386253Y5969999D01*
Y5670000D01*
X19387300Y5667474D01*
Y5657300D01*
X19381204Y5647125D01*
X19335835D01*
Y5758012D01*
X19332916Y5772682D01*
X19324606Y5785119D01*
X19312170Y5793429D01*
X19297501Y5796347D01*
X19282829Y5793429D01*
X19279565Y5791249D01*
X19264870Y5790382D01*
X19250018Y5800306D01*
X19242500Y5801801D01*
Y5690086D01*
Y5578370D01*
X19250018Y5579866D01*
X19264870Y5589789D01*
X19279565Y5588923D01*
X19282829Y5586742D01*
X19297501Y5583824D01*
X19312170Y5586742D01*
X19324606Y5595052D01*
X19329834Y5602875D01*
X19589456D01*
X19597922Y5604559D01*
X19605099Y5609355D01*
X19615645Y5619899D01*
X19620441Y5627077D01*
X19622125Y5635544D01*
Y5656254D01*
X19950000D01*
Y5638835D01*
X19956815Y5613402D01*
X19969980Y5590599D01*
X19988599Y5571980D01*
X20011401Y5558815D01*
X20036835Y5552000D01*
X20063165D01*
X20088599Y5558815D01*
X20111401Y5571980D01*
X20130020Y5590599D01*
X20143185Y5613402D01*
X20150000Y5638835D01*
Y5656254D01*
X20234306D01*
X20356255Y5534306D01*
Y5470000D01*
X20360280Y5460280D01*
X20370000Y5456254D01*
X21030000D01*
X21039720Y5460280D01*
X21043747Y5470000D01*
Y6130000D01*
X21039720Y6139720D01*
X21030000Y6143746D01*
X19560001D01*
X19560001Y6143747D01*
D02*
G37*
G36*
X8533454Y5892500D02*
X8516547D01*
X8500926Y5886030D01*
X8488971Y5874074D01*
X8482500Y5858454D01*
Y5841546D01*
X8488971Y5825926D01*
X8500926Y5813970D01*
X8516547Y5807500D01*
X8528966D01*
X8566535Y5769931D01*
X8564164Y5758012D01*
Y5622160D01*
X8567083Y5607489D01*
X8575393Y5595052D01*
X8587830Y5586742D01*
X8602500Y5583824D01*
X8617171Y5586742D01*
X8629607Y5595052D01*
X8640393D01*
X8652830Y5586742D01*
X8667500Y5583824D01*
X8682171Y5586742D01*
X8685434Y5588923D01*
X8700130Y5589789D01*
X8714982Y5579866D01*
X8722500Y5578370D01*
Y5690086D01*
Y5801801D01*
X8714982Y5800306D01*
X8700130Y5790382D01*
X8685434Y5791248D01*
X8683259Y5792702D01*
X8681857Y5799753D01*
X8677061Y5806931D01*
X8667372Y5816619D01*
X8668179Y5818568D01*
Y5835476D01*
X8661709Y5851096D01*
X8649754Y5863052D01*
X8634133Y5869522D01*
X8617226D01*
X8601605Y5863052D01*
X8589650Y5851096D01*
X8585392Y5840816D01*
X8572051Y5836975D01*
X8571151Y5837097D01*
X8567266Y5840981D01*
X8567500Y5841546D01*
Y5858454D01*
X8561030Y5874074D01*
X8549074Y5886030D01*
X8533454Y5892500D01*
D02*
G37*
G36*
X4333454D02*
X4316547D01*
X4300926Y5886030D01*
X4288971Y5874074D01*
X4282500Y5858454D01*
Y5841546D01*
X4288971Y5825926D01*
X4300926Y5813970D01*
X4316547Y5807500D01*
X4328966D01*
X4366535Y5769931D01*
X4364164Y5758012D01*
Y5622160D01*
X4367083Y5607489D01*
X4375393Y5595052D01*
X4387830Y5586742D01*
X4402500Y5583824D01*
X4417171Y5586742D01*
X4429607Y5595052D01*
X4440393D01*
X4452830Y5586742D01*
X4467500Y5583824D01*
X4482171Y5586742D01*
X4485434Y5588923D01*
X4500130Y5589789D01*
X4514982Y5579866D01*
X4522500Y5578370D01*
Y5690086D01*
Y5801801D01*
X4514982Y5800306D01*
X4500130Y5790382D01*
X4485434Y5791248D01*
X4483259Y5792702D01*
X4481857Y5799753D01*
X4477061Y5806931D01*
X4467372Y5816619D01*
X4468179Y5818568D01*
Y5835476D01*
X4461709Y5851096D01*
X4449754Y5863052D01*
X4434133Y5869522D01*
X4417226D01*
X4401605Y5863052D01*
X4389650Y5851096D01*
X4385392Y5840816D01*
X4372051Y5836975D01*
X4371151Y5837097D01*
X4367266Y5840981D01*
X4367500Y5841546D01*
Y5858454D01*
X4361030Y5874074D01*
X4349074Y5886030D01*
X4333454Y5892500D01*
D02*
G37*
G36*
X19033453D02*
X19016547D01*
X19000926Y5886030D01*
X18988969Y5874074D01*
X18982500Y5858454D01*
Y5841546D01*
X18988969Y5825926D01*
X19000926Y5813970D01*
X19016547Y5807500D01*
X19028966D01*
X19066534Y5769931D01*
X19064165Y5758012D01*
Y5622160D01*
X19067084Y5607489D01*
X19075394Y5595052D01*
X19087830Y5586742D01*
X19102499Y5583824D01*
X19117171Y5586742D01*
X19129607Y5595052D01*
X19140393D01*
X19152829Y5586742D01*
X19167500Y5583824D01*
X19182170Y5586742D01*
X19185434Y5588923D01*
X19200130Y5589789D01*
X19214981Y5579866D01*
X19222501Y5578370D01*
Y5690086D01*
Y5801801D01*
X19214981Y5800306D01*
X19200130Y5790382D01*
X19185434Y5791248D01*
X19183260Y5792702D01*
X19181856Y5799753D01*
X19177060Y5806931D01*
X19167372Y5816619D01*
X19168179Y5818568D01*
Y5835476D01*
X19161710Y5851096D01*
X19149753Y5863052D01*
X19134132Y5869522D01*
X19117226D01*
X19101605Y5863052D01*
X19089650Y5851096D01*
X19085393Y5840816D01*
X19072050Y5836975D01*
X19071152Y5837097D01*
X19067265Y5840981D01*
X19067500Y5841546D01*
Y5858454D01*
X19061031Y5874074D01*
X19049074Y5886030D01*
X19033453Y5892500D01*
D02*
G37*
G36*
X6433454D02*
X6416546D01*
X6400926Y5886030D01*
X6388970Y5874074D01*
X6382500Y5858454D01*
Y5841546D01*
X6388970Y5825926D01*
X6400926Y5813970D01*
X6416546Y5807500D01*
X6428966D01*
X6466535Y5769931D01*
X6464165Y5758012D01*
Y5622160D01*
X6467083Y5607489D01*
X6475393Y5595052D01*
X6487830Y5586742D01*
X6502500Y5583824D01*
X6517171Y5586742D01*
X6529607Y5595052D01*
X6540393D01*
X6552830Y5586742D01*
X6567500Y5583824D01*
X6582171Y5586742D01*
X6585434Y5588923D01*
X6600130Y5589789D01*
X6614982Y5579866D01*
X6622500Y5578370D01*
Y5690086D01*
Y5801801D01*
X6614982Y5800306D01*
X6600130Y5790382D01*
X6585434Y5791248D01*
X6583259Y5792702D01*
X6581857Y5799753D01*
X6577061Y5806931D01*
X6567372Y5816619D01*
X6568179Y5818568D01*
Y5835476D01*
X6561709Y5851096D01*
X6549753Y5863052D01*
X6534133Y5869522D01*
X6517226D01*
X6501605Y5863052D01*
X6489650Y5851096D01*
X6485392Y5840816D01*
X6472051Y5836975D01*
X6471151Y5837097D01*
X6467266Y5840981D01*
X6467500Y5841546D01*
Y5858454D01*
X6461030Y5874074D01*
X6449074Y5886030D01*
X6433454Y5892500D01*
D02*
G37*
G36*
X14833453D02*
X14816547D01*
X14800926Y5886030D01*
X14788969Y5874074D01*
X14782500Y5858454D01*
Y5841546D01*
X14788969Y5825926D01*
X14800926Y5813970D01*
X14816547Y5807500D01*
X14828966D01*
X14866534Y5769931D01*
X14864165Y5758012D01*
Y5622160D01*
X14867084Y5607489D01*
X14875394Y5595052D01*
X14887830Y5586742D01*
X14902499Y5583824D01*
X14917171Y5586742D01*
X14929607Y5595052D01*
X14940393D01*
X14952829Y5586742D01*
X14967500Y5583824D01*
X14982170Y5586742D01*
X14985434Y5588923D01*
X15000130Y5589789D01*
X15014981Y5579866D01*
X15022501Y5578370D01*
Y5690085D01*
Y5801801D01*
X15014981Y5800306D01*
X15000130Y5790382D01*
X14985434Y5791248D01*
X14983260Y5792702D01*
X14981856Y5799753D01*
X14977060Y5806931D01*
X14967372Y5816619D01*
X14968179Y5818568D01*
Y5835476D01*
X14961710Y5851096D01*
X14949753Y5863052D01*
X14934132Y5869522D01*
X14917226D01*
X14901605Y5863052D01*
X14889650Y5851096D01*
X14885393Y5840816D01*
X14872050Y5836975D01*
X14871152Y5837097D01*
X14867265Y5840981D01*
X14867500Y5841546D01*
Y5858454D01*
X14861031Y5874074D01*
X14849074Y5886030D01*
X14833453Y5892500D01*
D02*
G37*
G36*
X12733454D02*
X12716547D01*
X12700926Y5886030D01*
X12688971Y5874074D01*
X12682500Y5858454D01*
Y5841546D01*
X12688971Y5825926D01*
X12700926Y5813970D01*
X12716547Y5807500D01*
X12728966D01*
X12766535Y5769931D01*
X12764164Y5758012D01*
Y5622160D01*
X12767083Y5607489D01*
X12775393Y5595052D01*
X12787830Y5586742D01*
X12802499Y5583824D01*
X12817171Y5586742D01*
X12829607Y5595052D01*
X12840393D01*
X12852831Y5586742D01*
X12867500Y5583824D01*
X12882172Y5586742D01*
X12885434Y5588923D01*
X12900130Y5589789D01*
X12914983Y5579866D01*
X12922501Y5578370D01*
Y5690085D01*
Y5801801D01*
X12914983Y5800306D01*
X12900130Y5790382D01*
X12885434Y5791248D01*
X12883260Y5792702D01*
X12881857Y5799753D01*
X12877061Y5806931D01*
X12867372Y5816619D01*
X12868179Y5818568D01*
Y5835476D01*
X12861710Y5851096D01*
X12849754Y5863052D01*
X12834132Y5869522D01*
X12817226D01*
X12801605Y5863052D01*
X12789650Y5851096D01*
X12785392Y5840816D01*
X12772051Y5836975D01*
X12771151Y5837097D01*
X12767266Y5840981D01*
X12767500Y5841546D01*
Y5858454D01*
X12761030Y5874074D01*
X12749074Y5886030D01*
X12733454Y5892500D01*
D02*
G37*
G36*
X10633454D02*
X10616546D01*
X10600926Y5886030D01*
X10588970Y5874074D01*
X10582500Y5858454D01*
Y5841546D01*
X10588970Y5825926D01*
X10600926Y5813970D01*
X10616546Y5807500D01*
X10628966D01*
X10666535Y5769931D01*
X10664165Y5758012D01*
Y5622160D01*
X10667083Y5607489D01*
X10675393Y5595052D01*
X10687830Y5586742D01*
X10702500Y5583824D01*
X10717171Y5586742D01*
X10729607Y5595052D01*
X10740393D01*
X10752830Y5586742D01*
X10767500Y5583824D01*
X10782171Y5586742D01*
X10785434Y5588923D01*
X10800130Y5589789D01*
X10814982Y5579866D01*
X10822501Y5578370D01*
Y5690085D01*
Y5801801D01*
X10814982Y5800306D01*
X10800130Y5790382D01*
X10785434Y5791248D01*
X10783259Y5792702D01*
X10781857Y5799753D01*
X10777060Y5806931D01*
X10767372Y5816619D01*
X10768179Y5818568D01*
Y5835476D01*
X10761709Y5851096D01*
X10749753Y5863052D01*
X10734133Y5869522D01*
X10717226D01*
X10701605Y5863052D01*
X10689650Y5851096D01*
X10685392Y5840816D01*
X10672051Y5836975D01*
X10671151Y5837097D01*
X10667266Y5840981D01*
X10667500Y5841546D01*
Y5858454D01*
X10661030Y5874074D01*
X10649074Y5886030D01*
X10633454Y5892500D01*
D02*
G37*
G36*
X16933453D02*
X16916547D01*
X16900926Y5886030D01*
X16888971Y5874074D01*
X16882500Y5858454D01*
Y5841546D01*
X16888971Y5825926D01*
X16900926Y5813970D01*
X16916547Y5807500D01*
X16928966D01*
X16966536Y5769931D01*
X16964165Y5758012D01*
Y5622160D01*
X16967084Y5607489D01*
X16975394Y5595052D01*
X16987830Y5586742D01*
X17002499Y5583824D01*
X17017171Y5586742D01*
X17029608Y5595052D01*
X17040393D01*
X17052831Y5586742D01*
X17067500Y5583824D01*
X17082172Y5586742D01*
X17085434Y5588923D01*
X17100130Y5589789D01*
X17114983Y5579866D01*
X17122501Y5578370D01*
Y5690085D01*
Y5801801D01*
X17114983Y5800306D01*
X17100130Y5790382D01*
X17085434Y5791248D01*
X17083260Y5792702D01*
X17081857Y5799753D01*
X17077061Y5806931D01*
X17067372Y5816619D01*
X17068179Y5818568D01*
Y5835476D01*
X17061710Y5851096D01*
X17049754Y5863052D01*
X17034132Y5869522D01*
X17017226D01*
X17001605Y5863052D01*
X16989650Y5851096D01*
X16985393Y5840816D01*
X16972050Y5836975D01*
X16971152Y5837097D01*
X16967265Y5840981D01*
X16967500Y5841546D01*
Y5858454D01*
X16961031Y5874074D01*
X16949074Y5886030D01*
X16933453Y5892500D01*
D02*
G37*
G36*
X18090166Y5625000D02*
X18063835D01*
X18038402Y5618185D01*
X18015599Y5605020D01*
X17996980Y5586401D01*
X17983815Y5563598D01*
X17977000Y5538165D01*
Y5511835D01*
X17983815Y5486402D01*
X17996980Y5463599D01*
X18015599Y5444980D01*
X18038402Y5431815D01*
X18063835Y5425000D01*
X18090166D01*
X18115598Y5431815D01*
X18138400Y5444980D01*
X18157021Y5463599D01*
X18170184Y5486402D01*
X18177000Y5511835D01*
Y5538165D01*
X18170184Y5563598D01*
X18157021Y5586401D01*
X18138400Y5605020D01*
X18115598Y5618185D01*
X18090166Y5625000D01*
D02*
G37*
G36*
X17923000D02*
X17723000D01*
Y5425000D01*
X17923000D01*
Y5625000D01*
D02*
G37*
G36*
X15990166D02*
X15963835D01*
X15938402Y5618185D01*
X15915599Y5605020D01*
X15896980Y5586401D01*
X15883815Y5563598D01*
X15877000Y5538165D01*
Y5511835D01*
X15883815Y5486402D01*
X15896980Y5463599D01*
X15915599Y5444980D01*
X15938402Y5431815D01*
X15963835Y5425000D01*
X15990166D01*
X16015598Y5431815D01*
X16038400Y5444980D01*
X16057021Y5463599D01*
X16070184Y5486402D01*
X16077000Y5511835D01*
Y5538165D01*
X16070184Y5563598D01*
X16057021Y5586401D01*
X16038400Y5605020D01*
X16015598Y5618185D01*
X15990166Y5625000D01*
D02*
G37*
G36*
X15823000D02*
X15623000D01*
Y5425000D01*
X15823000D01*
Y5625000D01*
D02*
G37*
G36*
X13890166Y5625000D02*
X13863835D01*
X13838402Y5618185D01*
X13815599Y5605020D01*
X13796980Y5586401D01*
X13783815Y5563598D01*
X13777000Y5538165D01*
Y5511835D01*
X13783815Y5486402D01*
X13796980Y5463599D01*
X13815599Y5444980D01*
X13838402Y5431815D01*
X13863835Y5425000D01*
X13890166D01*
X13915599Y5431815D01*
X13938400Y5444980D01*
X13957021Y5463599D01*
X13970184Y5486402D01*
X13977000Y5511835D01*
Y5538165D01*
X13970184Y5563598D01*
X13957021Y5586401D01*
X13938400Y5605020D01*
X13915599Y5618185D01*
X13890166Y5625000D01*
D02*
G37*
G36*
X13723000D02*
X13523000D01*
Y5425000D01*
X13723000D01*
Y5625000D01*
D02*
G37*
G36*
X11790166D02*
X11763835D01*
X11738402Y5618185D01*
X11715599Y5605020D01*
X11696981Y5586401D01*
X11683815Y5563598D01*
X11677001Y5538165D01*
Y5511835D01*
X11683815Y5486402D01*
X11696981Y5463599D01*
X11715599Y5444980D01*
X11738402Y5431815D01*
X11763835Y5425000D01*
X11790166D01*
X11815599Y5431815D01*
X11838402Y5444980D01*
X11857020Y5463599D01*
X11870185Y5486402D01*
X11877000Y5511835D01*
Y5538165D01*
X11870185Y5563598D01*
X11857020Y5586401D01*
X11838402Y5605020D01*
X11815599Y5618185D01*
X11790166Y5625000D01*
D02*
G37*
G36*
X11623000D02*
X11423001D01*
Y5425000D01*
X11623000D01*
Y5625000D01*
D02*
G37*
G36*
X9690166D02*
X9663835D01*
X9638402Y5618185D01*
X9615599Y5605020D01*
X9596981Y5586401D01*
X9583815Y5563598D01*
X9577000Y5538165D01*
Y5511835D01*
X9583815Y5486402D01*
X9596981Y5463599D01*
X9615599Y5444980D01*
X9638402Y5431815D01*
X9663835Y5425000D01*
X9690166D01*
X9715599Y5431815D01*
X9738401Y5444980D01*
X9757020Y5463599D01*
X9770185Y5486402D01*
X9777000Y5511835D01*
Y5538165D01*
X9770185Y5563598D01*
X9757020Y5586401D01*
X9738401Y5605020D01*
X9715599Y5618185D01*
X9690166Y5625000D01*
D02*
G37*
G36*
X9523000D02*
X9323000D01*
Y5425000D01*
X9523000D01*
Y5625000D01*
D02*
G37*
G36*
X7590166D02*
X7563835D01*
X7538402Y5618185D01*
X7515599Y5605020D01*
X7496981Y5586401D01*
X7483815Y5563598D01*
X7477001Y5538165D01*
Y5511835D01*
X7483815Y5486402D01*
X7496981Y5463599D01*
X7515599Y5444980D01*
X7538402Y5431815D01*
X7563835Y5425000D01*
X7590166D01*
X7615599Y5431815D01*
X7638402Y5444980D01*
X7657020Y5463599D01*
X7670185Y5486402D01*
X7677000Y5511835D01*
Y5538165D01*
X7670185Y5563598D01*
X7657020Y5586401D01*
X7638402Y5605020D01*
X7615599Y5618185D01*
X7590166Y5625000D01*
D02*
G37*
G36*
X7423000D02*
X7223001D01*
Y5425000D01*
X7423000D01*
Y5625000D01*
D02*
G37*
G36*
X5490166D02*
X5463835D01*
X5438402Y5618185D01*
X5415599Y5605020D01*
X5396981Y5586401D01*
X5383815Y5563598D01*
X5377000Y5538165D01*
Y5511835D01*
X5383815Y5486402D01*
X5396981Y5463599D01*
X5415599Y5444980D01*
X5438402Y5431815D01*
X5463835Y5425000D01*
X5490166D01*
X5515599Y5431815D01*
X5538401Y5444980D01*
X5557020Y5463599D01*
X5570185Y5486402D01*
X5577000Y5511835D01*
Y5538165D01*
X5570185Y5563598D01*
X5557020Y5586401D01*
X5538401Y5605020D01*
X5515599Y5618185D01*
X5490166Y5625000D01*
D02*
G37*
G36*
X5323000D02*
X5123000D01*
Y5425000D01*
X5323000D01*
Y5625000D01*
D02*
G37*
G36*
X20150000Y5498000D02*
X19950000D01*
Y5298000D01*
X20150000D01*
Y5498000D01*
D02*
G37*
G36*
X20591508Y5300400D02*
X20587700D01*
Y5187700D01*
X20700400D01*
Y5191509D01*
X20691853Y5223403D01*
X20675345Y5251997D01*
X20651997Y5275345D01*
X20623402Y5291854D01*
X20591508Y5300400D01*
D02*
G37*
G36*
X20562300D02*
X20558492D01*
X20526598Y5291854D01*
X20498003Y5275345D01*
X20474655Y5251997D01*
X20458147Y5223403D01*
X20449600Y5191509D01*
Y5187700D01*
X20562300D01*
Y5300400D01*
D02*
G37*
G36*
X20700400Y5162300D02*
X20587700D01*
Y5049600D01*
X20591508D01*
X20623402Y5058146D01*
X20651997Y5074655D01*
X20675345Y5098003D01*
X20691853Y5126598D01*
X20700400Y5158491D01*
Y5162300D01*
D02*
G37*
G36*
X20562300D02*
X20449600D01*
Y5158491D01*
X20458147Y5126598D01*
X20474655Y5098003D01*
X20498003Y5074655D01*
X20526598Y5058146D01*
X20558492Y5049600D01*
X20562300D01*
Y5162300D01*
D02*
G37*
G36*
X20150000Y5202000D02*
X19950000D01*
Y5002000D01*
X20150000D01*
Y5202000D01*
D02*
G37*
G36*
X18090166Y5075000D02*
X18063835D01*
X18038402Y5068185D01*
X18015599Y5055020D01*
X17996980Y5036401D01*
X17983815Y5013598D01*
X17977000Y4988165D01*
Y4961835D01*
X17983815Y4936402D01*
X17996980Y4913599D01*
X18015599Y4894980D01*
X18038402Y4881815D01*
X18063835Y4875000D01*
X18090166D01*
X18115598Y4881815D01*
X18138400Y4894980D01*
X18157021Y4913599D01*
X18170184Y4936402D01*
X18177000Y4961835D01*
Y4988165D01*
X18170184Y5013598D01*
X18157021Y5036401D01*
X18138400Y5055020D01*
X18115598Y5068185D01*
X18090166Y5075000D01*
D02*
G37*
G36*
X15990166D02*
X15963835D01*
X15938402Y5068185D01*
X15915599Y5055020D01*
X15896980Y5036401D01*
X15883815Y5013598D01*
X15877000Y4988165D01*
Y4961835D01*
X15883815Y4936402D01*
X15896980Y4913599D01*
X15915599Y4894980D01*
X15938402Y4881815D01*
X15963835Y4875000D01*
X15990166D01*
X16015598Y4881815D01*
X16038400Y4894980D01*
X16057021Y4913599D01*
X16070184Y4936402D01*
X16077000Y4961835D01*
Y4988165D01*
X16070184Y5013598D01*
X16057021Y5036401D01*
X16038400Y5055020D01*
X16015598Y5068185D01*
X15990166Y5075000D01*
D02*
G37*
G36*
X13890166D02*
X13863835D01*
X13838402Y5068185D01*
X13815599Y5055020D01*
X13796980Y5036401D01*
X13783815Y5013598D01*
X13777000Y4988165D01*
Y4961835D01*
X13783815Y4936402D01*
X13796980Y4913599D01*
X13815599Y4894980D01*
X13838402Y4881815D01*
X13863835Y4875000D01*
X13890166D01*
X13915599Y4881815D01*
X13938400Y4894980D01*
X13957021Y4913599D01*
X13970184Y4936402D01*
X13977000Y4961835D01*
Y4988165D01*
X13970184Y5013598D01*
X13957021Y5036401D01*
X13938400Y5055020D01*
X13915599Y5068185D01*
X13890166Y5075000D01*
D02*
G37*
G36*
X11790166D02*
X11763835D01*
X11738402Y5068185D01*
X11715599Y5055020D01*
X11696981Y5036401D01*
X11683815Y5013598D01*
X11677001Y4988165D01*
Y4961835D01*
X11683815Y4936402D01*
X11696981Y4913599D01*
X11715599Y4894980D01*
X11738402Y4881815D01*
X11763835Y4875000D01*
X11790166D01*
X11815599Y4881815D01*
X11838402Y4894980D01*
X11857020Y4913599D01*
X11870185Y4936402D01*
X11877000Y4961835D01*
Y4988165D01*
X11870185Y5013598D01*
X11857020Y5036401D01*
X11838402Y5055020D01*
X11815599Y5068185D01*
X11790166Y5075000D01*
D02*
G37*
G36*
X9690166D02*
X9663835D01*
X9638402Y5068185D01*
X9615599Y5055020D01*
X9596981Y5036401D01*
X9583815Y5013598D01*
X9577000Y4988165D01*
Y4961835D01*
X9583815Y4936402D01*
X9596981Y4913599D01*
X9615599Y4894980D01*
X9638402Y4881815D01*
X9663835Y4875000D01*
X9690166D01*
X9715599Y4881815D01*
X9738401Y4894980D01*
X9757020Y4913599D01*
X9770185Y4936402D01*
X9777000Y4961835D01*
Y4988165D01*
X9770185Y5013598D01*
X9757020Y5036401D01*
X9738401Y5055020D01*
X9715599Y5068185D01*
X9690166Y5075000D01*
D02*
G37*
G36*
X7590166D02*
X7563835D01*
X7538402Y5068185D01*
X7515599Y5055020D01*
X7496981Y5036401D01*
X7483815Y5013598D01*
X7477001Y4988165D01*
Y4961835D01*
X7483815Y4936402D01*
X7496981Y4913599D01*
X7515599Y4894980D01*
X7538402Y4881815D01*
X7563835Y4875000D01*
X7590166D01*
X7615599Y4881815D01*
X7638402Y4894980D01*
X7657020Y4913599D01*
X7670185Y4936402D01*
X7677000Y4961835D01*
Y4988165D01*
X7670185Y5013598D01*
X7657020Y5036401D01*
X7638402Y5055020D01*
X7615599Y5068185D01*
X7590166Y5075000D01*
D02*
G37*
G36*
X5490166D02*
X5463835D01*
X5438402Y5068185D01*
X5415599Y5055020D01*
X5396981Y5036401D01*
X5383815Y5013598D01*
X5377000Y4988165D01*
Y4961835D01*
X5383815Y4936402D01*
X5396981Y4913599D01*
X5415599Y4894980D01*
X5438402Y4881815D01*
X5463835Y4875000D01*
X5490166D01*
X5515599Y4881815D01*
X5538401Y4894980D01*
X5557020Y4913599D01*
X5570185Y4936402D01*
X5577000Y4961835D01*
Y4988165D01*
X5570185Y5013598D01*
X5557020Y5036401D01*
X5538401Y5055020D01*
X5515599Y5068185D01*
X5490166Y5075000D01*
D02*
G37*
G36*
X20063165Y4948000D02*
X20036835D01*
X20011401Y4941185D01*
X19988599Y4928020D01*
X19969980Y4909401D01*
X19956815Y4886598D01*
X19950000Y4861165D01*
Y4834835D01*
X19956815Y4809402D01*
X19969980Y4786599D01*
X19988599Y4767980D01*
X20011401Y4754815D01*
X20036835Y4748000D01*
X20063165D01*
X20088599Y4754815D01*
X20111401Y4767980D01*
X20130020Y4786599D01*
X20143185Y4809402D01*
X20150000Y4834835D01*
Y4861165D01*
X20143185Y4886598D01*
X20130020Y4909401D01*
X20111401Y4928020D01*
X20088599Y4941185D01*
X20063165Y4948000D01*
D02*
G37*
G36*
X12650000Y4385000D02*
X12584999D01*
Y4310000D01*
X12650000D01*
Y4385000D01*
D02*
G37*
G36*
X12564999D02*
X12500000D01*
Y4310000D01*
X12564999D01*
Y4385000D01*
D02*
G37*
G36*
X12192700Y4385200D02*
X12047300D01*
Y4214800D01*
X12192700D01*
Y4277875D01*
X12297300D01*
Y4222300D01*
X12432700D01*
Y4377700D01*
X12297300D01*
Y4322125D01*
X12192700D01*
Y4385200D01*
D02*
G37*
G36*
X12650000Y4290000D02*
X12584999D01*
Y4215000D01*
X12650000D01*
Y4290000D01*
D02*
G37*
G36*
X12564999D02*
X12500000D01*
Y4215000D01*
X12564999D01*
Y4290000D01*
D02*
G37*
G36*
X17417728Y4480000D02*
X17382272D01*
X17347496Y4473082D01*
X17314738Y4459514D01*
X17285257Y4439815D01*
X17260185Y4414743D01*
X17240486Y4385262D01*
X17226917Y4352504D01*
X17220000Y4317728D01*
Y4282271D01*
X17226917Y4247496D01*
X17240486Y4214738D01*
X17260185Y4185257D01*
X17285257Y4160185D01*
X17314738Y4140486D01*
X17347496Y4126917D01*
X17382272Y4120000D01*
X17417728D01*
X17452504Y4126917D01*
X17485262Y4140486D01*
X17514743Y4160185D01*
X17539815Y4185257D01*
X17559514Y4214738D01*
X17573083Y4247496D01*
X17580000Y4282271D01*
Y4317728D01*
X17573083Y4352504D01*
X17559514Y4385262D01*
X17539815Y4414743D01*
X17514743Y4439815D01*
X17485262Y4459514D01*
X17452504Y4473082D01*
X17417728Y4480000D01*
D02*
G37*
G36*
X5117728D02*
X5082272D01*
X5047496Y4473082D01*
X5014738Y4459514D01*
X4985257Y4439815D01*
X4960185Y4414743D01*
X4940486Y4385262D01*
X4926917Y4352504D01*
X4920000Y4317728D01*
Y4282271D01*
X4926917Y4247496D01*
X4940486Y4214738D01*
X4960185Y4185257D01*
X4985257Y4160185D01*
X5014738Y4140486D01*
X5047496Y4126917D01*
X5082272Y4120000D01*
X5117728D01*
X5152504Y4126917D01*
X5185262Y4140486D01*
X5214743Y4160185D01*
X5239815Y4185257D01*
X5259514Y4214738D01*
X5273083Y4247496D01*
X5280000Y4282271D01*
Y4317728D01*
X5273083Y4352504D01*
X5259514Y4385262D01*
X5239815Y4414743D01*
X5214743Y4439815D01*
X5185262Y4459514D01*
X5152504Y4473082D01*
X5117728Y4480000D01*
D02*
G37*
G36*
X4810000Y4243747D02*
X4810000Y4243746D01*
X4359942D01*
X4359540Y4243580D01*
X4335440D01*
Y4106420D01*
X4343283D01*
Y4017125D01*
X4248049D01*
Y4019900D01*
X4246667Y4026845D01*
X4242733Y4032733D01*
X4236845Y4036667D01*
X4229900Y4038049D01*
X4130100D01*
X4123155Y4036667D01*
X4117267Y4032733D01*
X4113333Y4026845D01*
X4111951Y4019900D01*
Y3970100D01*
X4113333Y3963155D01*
X4117267Y3957267D01*
X4121675Y3954322D01*
X4122473Y3947500D01*
X4121675Y3940678D01*
X4117267Y3937733D01*
X4113333Y3931845D01*
X4111951Y3924900D01*
Y3875100D01*
X4113333Y3868155D01*
X4117267Y3862267D01*
X4121675Y3859322D01*
X4122473Y3852500D01*
X4121675Y3845678D01*
X4117267Y3842733D01*
X4113333Y3836845D01*
X4113173Y3836039D01*
X4099640Y3831649D01*
X4072125Y3859164D01*
Y3925000D01*
X4070441Y3933467D01*
X4065645Y3940645D01*
X4016645Y3989645D01*
X4009467Y3994441D01*
X4001000Y3996125D01*
X3988049D01*
Y4019900D01*
X3986667Y4026845D01*
X3982733Y4032733D01*
X3976845Y4036667D01*
X3969900Y4038049D01*
X3870100D01*
X3863155Y4036667D01*
X3857267Y4032733D01*
X3853333Y4026845D01*
X3851951Y4019900D01*
Y3970100D01*
X3853333Y3963155D01*
X3855713Y3959593D01*
X3854994Y3948522D01*
X3853885Y3944253D01*
X3852004Y3942996D01*
X3846457Y3934693D01*
X3844508Y3924900D01*
Y3910000D01*
X3995492D01*
Y3924900D01*
X3994161Y3931589D01*
X4004913Y3938798D01*
X4027875Y3915835D01*
Y3850000D01*
X4029559Y3841533D01*
X4034355Y3834355D01*
X4079355Y3789355D01*
X4086533Y3784559D01*
X4095000Y3782875D01*
X4111951D01*
Y3780100D01*
X4113333Y3773155D01*
X4117267Y3767267D01*
X4123155Y3763333D01*
X4130100Y3761951D01*
X4157875D01*
Y3660510D01*
X4060054D01*
X4052646Y3660510D01*
X4039946Y3660510D01*
X3967125D01*
Y3761951D01*
X3969900D01*
X3976845Y3763333D01*
X3982733Y3767267D01*
X3986667Y3773155D01*
X3988049Y3780100D01*
Y3829900D01*
X3986667Y3836845D01*
X3984287Y3840407D01*
X3985006Y3851478D01*
X3986115Y3855747D01*
X3987996Y3857004D01*
X3993543Y3865307D01*
X3995492Y3875100D01*
Y3890000D01*
X3844508D01*
Y3875100D01*
X3846457Y3865307D01*
X3852004Y3857004D01*
X3853885Y3855747D01*
X3854994Y3851478D01*
X3855713Y3840407D01*
X3853333Y3836845D01*
X3851951Y3829900D01*
Y3780100D01*
X3853333Y3773155D01*
X3857267Y3767267D01*
X3863155Y3763333D01*
X3870100Y3761951D01*
X3922875D01*
Y3660510D01*
X3891490D01*
Y3489490D01*
X4039946D01*
X4047354Y3489490D01*
X4060054Y3489490D01*
X4161728D01*
X4228397Y3422820D01*
X4228398Y3422820D01*
X4240868Y3414487D01*
X4255578Y3411561D01*
X4374999D01*
X4375000Y3411561D01*
X4389710Y3414487D01*
X4402180Y3422820D01*
X4495614Y3516254D01*
X4780000D01*
X4789720Y3520280D01*
X4793747Y3530000D01*
Y3680000D01*
X4789720Y3689720D01*
X4780000Y3693746D01*
X4480000D01*
X4470280Y3689720D01*
X4466253Y3680000D01*
Y3659380D01*
X4462440D01*
Y3591800D01*
X4418293Y3547654D01*
X4406560Y3552514D01*
Y3659380D01*
X4359277D01*
X4357140Y3659805D01*
X4321485D01*
X4297125Y3684165D01*
Y3889456D01*
X4295441Y3897923D01*
X4290645Y3905101D01*
X4280101Y3915645D01*
X4272923Y3920441D01*
X4264456Y3922125D01*
X4248049D01*
Y3924900D01*
X4246667Y3931845D01*
X4242733Y3937733D01*
X4238325Y3940678D01*
X4237527Y3947500D01*
X4238325Y3954322D01*
X4242733Y3957267D01*
X4246667Y3963155D01*
X4248049Y3970100D01*
Y3972875D01*
X4343283D01*
Y3750820D01*
X4347310Y3741100D01*
X4357030Y3737074D01*
X4923486D01*
X5610280Y3050280D01*
X5620000Y3046253D01*
X5620000Y3046253D01*
X5890000D01*
X5899720Y3050280D01*
X5903746Y3060000D01*
Y3579999D01*
X5903747Y3580000D01*
X5899721Y3589721D01*
X5899719Y3589721D01*
X5869720Y3619720D01*
X5860000Y3623747D01*
X5859999Y3623746D01*
X5675694D01*
X5199720Y4099720D01*
X5190000Y4103747D01*
X5190000Y4103746D01*
X4955694D01*
X4939720Y4119720D01*
X4939720Y4119720D01*
X4819720Y4239720D01*
X4810000Y4243747D01*
D02*
G37*
G36*
X18430000Y4230000D02*
X18310001D01*
Y4015001D01*
X18430000D01*
Y4230000D01*
D02*
G37*
G36*
X18290001D02*
X18170000D01*
Y4015001D01*
X18290001D01*
Y4230000D01*
D02*
G37*
G36*
X5905000Y4205000D02*
X5785000D01*
Y3990000D01*
X5905000D01*
Y4205000D01*
D02*
G37*
G36*
X5765000D02*
X5645000D01*
Y3990000D01*
X5765000D01*
Y4205000D01*
D02*
G37*
G36*
X7375000Y4521251D02*
X7125000D01*
X7087147Y4516268D01*
X7051874Y4501657D01*
X7021585Y4478415D01*
X6998343Y4448125D01*
X6983732Y4412852D01*
X6978749Y4375000D01*
Y4125000D01*
X6983732Y4087147D01*
X6998343Y4051874D01*
X7021585Y4021585D01*
X7051874Y3998343D01*
X7087147Y3983732D01*
X7125000Y3978749D01*
X7375000D01*
X7412853Y3983732D01*
X7448126Y3998343D01*
X7478415Y4021585D01*
X7501657Y4051874D01*
X7516268Y4087147D01*
X7521251Y4125000D01*
Y4375000D01*
X7516268Y4412852D01*
X7501657Y4448125D01*
X7478415Y4478415D01*
X7448126Y4501657D01*
X7412853Y4516268D01*
X7375000Y4521251D01*
D02*
G37*
G36*
X10352353Y4018210D02*
X10312363Y3978220D01*
X10348147Y3942436D01*
X10388137Y3982426D01*
X10352353Y4018210D01*
D02*
G37*
G36*
X14288454Y3922500D02*
X14271545D01*
X14255927Y3916030D01*
X14243970Y3904074D01*
X14242645Y3900875D01*
X14149828D01*
X14147408Y3904497D01*
X14135020Y3912774D01*
X14120409Y3915680D01*
X13934619D01*
X13920007Y3912774D01*
X13907622Y3904497D01*
X13899345Y3892111D01*
X13896439Y3877500D01*
X13899345Y3862889D01*
X13905650Y3853454D01*
X13906844Y3845000D01*
X13905650Y3836546D01*
X13899345Y3827111D01*
X13896439Y3812500D01*
X13899345Y3797889D01*
X13905650Y3788454D01*
X13906844Y3780000D01*
X13905650Y3771546D01*
X13899345Y3762111D01*
X13896439Y3747500D01*
X13899345Y3732889D01*
X13905650Y3723454D01*
X13906844Y3715000D01*
X13905650Y3706546D01*
X13899345Y3697111D01*
X13896439Y3682500D01*
X13899345Y3667889D01*
X13905650Y3658454D01*
X13906844Y3650000D01*
X13905650Y3641546D01*
X13899345Y3632111D01*
X13896439Y3617500D01*
X13899345Y3602889D01*
X13905650Y3593454D01*
X13906844Y3585000D01*
X13905650Y3576546D01*
X13899345Y3567111D01*
X13896439Y3552500D01*
X13899345Y3537889D01*
X13905650Y3528454D01*
X13906844Y3520000D01*
X13905650Y3511546D01*
X13899345Y3502111D01*
X13896439Y3487500D01*
X13899345Y3472889D01*
X13905650Y3463454D01*
X13906844Y3455000D01*
X13905650Y3446546D01*
X13899345Y3437111D01*
X13896439Y3422500D01*
X13899345Y3407889D01*
X13907622Y3395503D01*
X13903603Y3390591D01*
X13902359Y3389760D01*
X13892468Y3374959D01*
X13890985Y3367500D01*
X14164043D01*
X14162560Y3374959D01*
X14154898Y3386425D01*
X14159142Y3397476D01*
X14160524Y3399125D01*
X14192645D01*
X14193970Y3395926D01*
X14205927Y3383970D01*
X14221545Y3377500D01*
X14238454D01*
X14254074Y3383970D01*
X14266029Y3395926D01*
X14272501Y3411546D01*
Y3428454D01*
X14269524Y3435638D01*
X14278357Y3447500D01*
X14288454D01*
X14304074Y3453970D01*
X14316029Y3465926D01*
X14322501Y3481546D01*
Y3498454D01*
X14316029Y3514074D01*
X14304074Y3526030D01*
X14288454Y3532500D01*
X14282500D01*
X14272501Y3541547D01*
Y3558454D01*
X14269524Y3565638D01*
X14278357Y3577500D01*
X14288454D01*
X14304074Y3583970D01*
X14316029Y3595926D01*
X14322501Y3611546D01*
Y3628454D01*
X14316029Y3644074D01*
X14304074Y3656030D01*
X14288454Y3662500D01*
X14282500D01*
X14272501Y3671547D01*
Y3688454D01*
X14269524Y3695638D01*
X14278357Y3707500D01*
X14288454D01*
X14304074Y3713970D01*
X14316029Y3725926D01*
X14322501Y3741546D01*
Y3758454D01*
X14316029Y3774074D01*
X14304074Y3786030D01*
X14288454Y3792500D01*
X14282500D01*
X14272501Y3801547D01*
Y3818454D01*
X14269524Y3825638D01*
X14278357Y3837500D01*
X14288454D01*
X14304074Y3843970D01*
X14316029Y3855926D01*
X14322501Y3871546D01*
Y3888454D01*
X14316029Y3904074D01*
X14304074Y3916030D01*
X14288454Y3922500D01*
D02*
G37*
G36*
X13425381Y3923123D02*
X13342487D01*
Y3887500D01*
X13469016D01*
X13467531Y3894959D01*
X13457642Y3909760D01*
X13442841Y3919650D01*
X13425381Y3923123D01*
D02*
G37*
G36*
X13322485D02*
X13239590D01*
X13222131Y3919650D01*
X13207330Y3909760D01*
X13197441Y3894959D01*
X13195956Y3887500D01*
X13322485D01*
Y3923123D01*
D02*
G37*
G36*
X13469016Y3867500D02*
X13195956D01*
X13197441Y3860041D01*
X13206772Y3846075D01*
X13205803Y3841690D01*
X13202226Y3833375D01*
X13116319D01*
X13116029Y3834074D01*
X13104074Y3846030D01*
X13088454Y3852500D01*
X13071545D01*
X13055927Y3846030D01*
X13043970Y3834074D01*
X13037500Y3818454D01*
Y3801546D01*
X13043970Y3785926D01*
X13055927Y3773970D01*
X13071545Y3767500D01*
X13077501D01*
X13087500Y3758453D01*
Y3741546D01*
X13090475Y3734362D01*
X13081644Y3722500D01*
X13071545D01*
X13055927Y3716030D01*
X13043970Y3704074D01*
X13037500Y3688454D01*
Y3671546D01*
X13043970Y3655926D01*
X13055927Y3643970D01*
X13071545Y3637500D01*
X13077501D01*
X13087500Y3628453D01*
Y3611546D01*
X13092024Y3600626D01*
X13082465Y3590839D01*
X13078455Y3592500D01*
X13061546D01*
X13045926Y3586030D01*
X13033971Y3574074D01*
X13027499Y3558454D01*
Y3541546D01*
X13033971Y3525926D01*
X13045926Y3513970D01*
X13061546Y3507500D01*
X13078455D01*
X13078566Y3507547D01*
X13087547Y3498567D01*
X13087500Y3498454D01*
Y3481547D01*
X13090475Y3474362D01*
X13081644Y3462500D01*
X13071545D01*
X13055927Y3456030D01*
X13043970Y3444074D01*
X13037500Y3428454D01*
Y3411546D01*
X13043970Y3395926D01*
X13055927Y3383970D01*
X13071545Y3377500D01*
X13077501D01*
X13087500Y3368453D01*
Y3351546D01*
X13093970Y3335926D01*
X13105927Y3323970D01*
X13121545Y3317500D01*
X13138454D01*
X13154074Y3323970D01*
X13166029Y3335926D01*
X13166319Y3336625D01*
X13202226D01*
X13205803Y3328310D01*
X13206772Y3323925D01*
X13197441Y3309959D01*
X13195956Y3302500D01*
X13469016D01*
X13467531Y3309959D01*
X13457642Y3324760D01*
X13456398Y3325591D01*
X13452377Y3330503D01*
X13460655Y3342889D01*
X13463560Y3357500D01*
X13460655Y3372111D01*
X13454350Y3381546D01*
X13453156Y3390000D01*
X13454350Y3398454D01*
X13460655Y3407889D01*
X13463560Y3422500D01*
X13460655Y3437111D01*
X13454350Y3446546D01*
X13453156Y3455000D01*
X13454350Y3463454D01*
X13460655Y3472889D01*
X13463560Y3487500D01*
X13460655Y3502111D01*
X13454350Y3511546D01*
X13453156Y3520000D01*
X13454350Y3528454D01*
X13460655Y3537889D01*
X13463560Y3552500D01*
X13460655Y3567111D01*
X13454350Y3576546D01*
X13453156Y3585000D01*
X13454350Y3593454D01*
X13460655Y3602889D01*
X13463560Y3617500D01*
X13460655Y3632111D01*
X13454350Y3641546D01*
X13453156Y3650000D01*
X13454350Y3658454D01*
X13460655Y3667889D01*
X13463560Y3682500D01*
X13460655Y3697111D01*
X13454350Y3706546D01*
X13453156Y3715000D01*
X13454350Y3723454D01*
X13460655Y3732889D01*
X13463560Y3747500D01*
X13460655Y3762111D01*
X13454350Y3771546D01*
X13453156Y3780000D01*
X13454350Y3788454D01*
X13460655Y3797889D01*
X13463560Y3812500D01*
X13460655Y3827111D01*
X13452377Y3839497D01*
X13456398Y3844409D01*
X13457642Y3845240D01*
X13467531Y3860041D01*
X13469016Y3867500D01*
D02*
G37*
G36*
X18430000Y3995001D02*
X18310001D01*
Y3780000D01*
X18430000D01*
Y3995001D01*
D02*
G37*
G36*
X18290001D02*
X18170000D01*
Y3780000D01*
X18290001D01*
Y3995001D01*
D02*
G37*
G36*
X10590647Y3846358D02*
X10550657Y3806368D01*
X10586441Y3770584D01*
X10626431Y3810574D01*
X10590647Y3846358D01*
D02*
G37*
G36*
X5765000Y3970000D02*
X5645000D01*
Y3755000D01*
X5765000D01*
Y3970000D01*
D02*
G37*
G36*
X10640574Y3796431D02*
X10600584Y3756441D01*
X10636368Y3720657D01*
X10676358Y3760647D01*
X10640574Y3796431D01*
D02*
G37*
G36*
X9560000Y3650000D02*
X9435000D01*
Y3585000D01*
X9560000D01*
Y3650000D01*
D02*
G37*
G36*
X9415000D02*
X9290000D01*
Y3585000D01*
X9415000D01*
Y3650000D01*
D02*
G37*
G36*
X8990000D02*
X8865000D01*
Y3585000D01*
X8990000D01*
Y3650000D01*
D02*
G37*
G36*
X8845000D02*
X8720000D01*
Y3585000D01*
X8845000D01*
Y3650000D01*
D02*
G37*
G36*
X8632810Y3659422D02*
X8550000D01*
Y3584190D01*
X8632810D01*
Y3659422D01*
D02*
G37*
G36*
X8530000D02*
X8447190D01*
Y3584190D01*
X8530000D01*
Y3659422D01*
D02*
G37*
G36*
X5905000Y3970000D02*
X5785000D01*
Y3755000D01*
X5866065D01*
X5866546Y3742500D01*
X5850926Y3736030D01*
X5838970Y3724074D01*
X5832500Y3708454D01*
Y3691546D01*
X5838970Y3675926D01*
X5850926Y3663970D01*
X5866546Y3657500D01*
X5883454D01*
X5885403Y3658307D01*
X5959355Y3584355D01*
X5966533Y3579559D01*
X5975000Y3577875D01*
X6238163D01*
X6238970Y3575926D01*
X6250926Y3563970D01*
X6266546Y3557500D01*
X6283454D01*
X6299074Y3563970D01*
X6311030Y3575926D01*
X6317500Y3591546D01*
Y3608454D01*
X6311030Y3624074D01*
X6299074Y3636030D01*
X6283454Y3642500D01*
X6266546D01*
X6250926Y3636030D01*
X6238970Y3624074D01*
X6238163Y3622125D01*
X5984165D01*
X5916693Y3689597D01*
X5917500Y3691546D01*
Y3708454D01*
X5911030Y3724074D01*
X5899074Y3736030D01*
X5883454Y3742500D01*
X5883935Y3755000D01*
X5905000D01*
Y3970000D01*
D02*
G37*
G36*
X20745000Y4245000D02*
X20055000D01*
Y3555000D01*
X20745000D01*
Y4245000D01*
D02*
G37*
G36*
X3520000Y4195000D02*
X2830000D01*
Y3505000D01*
X3520000D01*
Y4195000D01*
D02*
G37*
G36*
X9560000Y3565000D02*
X9435000D01*
Y3500000D01*
X9560000D01*
Y3565000D01*
D02*
G37*
G36*
X9415000D02*
X9290000D01*
Y3500000D01*
X9415000D01*
Y3565000D01*
D02*
G37*
G36*
X8990000Y3565000D02*
X8865000D01*
Y3500000D01*
X8990000D01*
Y3565000D01*
D02*
G37*
G36*
X8845000D02*
X8720000D01*
Y3500000D01*
X8845000D01*
Y3565000D01*
D02*
G37*
G36*
X15840797Y3695000D02*
X15809203D01*
X15778682Y3686822D01*
X15751318Y3671024D01*
X15728976Y3648682D01*
X15713177Y3621318D01*
X15705000Y3590798D01*
Y3559202D01*
X15713177Y3528682D01*
X15728976Y3501318D01*
X15751318Y3478976D01*
X15778682Y3463178D01*
X15809203Y3455000D01*
X15840797D01*
X15871320Y3463178D01*
X15898682Y3478976D01*
X15921024Y3501318D01*
X15936823Y3528682D01*
X15945000Y3559202D01*
Y3590798D01*
X15936823Y3621318D01*
X15921024Y3648682D01*
X15898682Y3671024D01*
X15871320Y3686822D01*
X15840797Y3695000D01*
D02*
G37*
G36*
X9691196Y3529780D02*
X9581311Y3419896D01*
X9733622Y3267585D01*
X9843506Y3377469D01*
X9691196Y3529780D01*
D02*
G37*
G36*
X13469016Y3282500D02*
X13195956D01*
X13197441Y3275041D01*
X13207330Y3260240D01*
Y3259760D01*
X13197441Y3244959D01*
X13195956Y3237500D01*
X13469016D01*
X13467531Y3244959D01*
X13457642Y3259760D01*
Y3260240D01*
X13467531Y3275041D01*
X13469016Y3282500D01*
D02*
G37*
G36*
Y3217500D02*
X13195956D01*
X13197441Y3210041D01*
X13197444Y3210037D01*
X13198068Y3208986D01*
X13202144Y3199946D01*
Y3125054D01*
X13462828D01*
Y3199946D01*
X13466904Y3208986D01*
X13467528Y3210037D01*
X13467531Y3210041D01*
X13469016Y3217500D01*
D02*
G37*
G36*
X10620450Y3226265D02*
X10570953Y3176768D01*
X10629289Y3118431D01*
X10678787Y3167929D01*
X10620450Y3226265D01*
D02*
G37*
G36*
X15841508Y3200400D02*
X15837701D01*
Y3087699D01*
X15950400D01*
Y3091509D01*
X15941853Y3123402D01*
X15925345Y3151997D01*
X15901997Y3175345D01*
X15873402Y3191854D01*
X15841508Y3200400D01*
D02*
G37*
G36*
X15812302D02*
X15808492D01*
X15776598Y3191854D01*
X15748003Y3175345D01*
X15724655Y3151997D01*
X15708147Y3123402D01*
X15699600Y3091509D01*
Y3087699D01*
X15812302D01*
Y3200400D01*
D02*
G37*
G36*
X10556811Y3162626D02*
X10507313Y3113128D01*
X10565649Y3054792D01*
X10615147Y3104289D01*
X10556811Y3162626D01*
D02*
G37*
G36*
X9917470Y3303506D02*
X9807585Y3193622D01*
X9959896Y3041311D01*
X10069780Y3151195D01*
X9917470Y3303506D01*
D02*
G37*
G36*
X13659421Y3032810D02*
X13584190D01*
Y2950000D01*
X13659421D01*
Y3032810D01*
D02*
G37*
G36*
X15950400Y3062299D02*
X15837701D01*
Y2949600D01*
X15841508D01*
X15873402Y2958146D01*
X15901997Y2974655D01*
X15925345Y2998003D01*
X15941853Y3026597D01*
X15950400Y3058491D01*
Y3062299D01*
D02*
G37*
G36*
X15812302D02*
X15699600D01*
Y3058491D01*
X15708147Y3026597D01*
X15724655Y2998003D01*
X15748003Y2974655D01*
X15776598Y2958146D01*
X15808492Y2949600D01*
X15812302D01*
Y3062299D01*
D02*
G37*
G36*
X18410001Y3513747D02*
X18410001Y3513747D01*
X18189999D01*
X18187473Y3512700D01*
X18177299D01*
Y3506741D01*
X18050281Y3379720D01*
X18046252Y3370000D01*
X18046252Y3370000D01*
Y2900000D01*
X18050281Y2890280D01*
X18060001Y2886254D01*
X18730000D01*
X18739720Y2890280D01*
X18743745Y2900000D01*
X18743745Y3360000D01*
X18739720Y3369720D01*
X18739720Y3369721D01*
X18719720Y3389720D01*
X18710001Y3393747D01*
X18709999Y3393747D01*
X18535693D01*
X18422701Y3506741D01*
Y3512700D01*
X18412527D01*
X18410001Y3513747D01*
D02*
G37*
G36*
X7375000Y3421251D02*
X7125000D01*
X7087147Y3416268D01*
X7051874Y3401657D01*
X7021585Y3378415D01*
X6998343Y3348126D01*
X6983732Y3312853D01*
X6978749Y3275000D01*
Y3025000D01*
X6983732Y2987147D01*
X6998343Y2951874D01*
X7021585Y2921585D01*
X7051874Y2898343D01*
X7087147Y2883732D01*
X7125000Y2878749D01*
X7375000D01*
X7412853Y2883732D01*
X7448126Y2898343D01*
X7478415Y2921585D01*
X7501657Y2951874D01*
X7516268Y2987147D01*
X7521251Y3025000D01*
Y3275000D01*
X7516268Y3312853D01*
X7501657Y3348126D01*
X7478415Y3378415D01*
X7448126Y3401657D01*
X7412853Y3416268D01*
X7375000Y3421251D01*
D02*
G37*
G36*
X13659421Y2930000D02*
X13584190D01*
Y2847190D01*
X13659421D01*
Y2930000D01*
D02*
G37*
G36*
X17417728Y3080000D02*
X17382272D01*
X17347496Y3073082D01*
X17314738Y3059514D01*
X17285257Y3039815D01*
X17260185Y3014743D01*
X17240486Y2985262D01*
X17226917Y2952504D01*
X17220000Y2917728D01*
Y2882271D01*
X17226917Y2847496D01*
X17240486Y2814738D01*
X17260185Y2785257D01*
X17285257Y2760185D01*
X17314738Y2740486D01*
X17347496Y2726917D01*
X17382272Y2720000D01*
X17417728D01*
X17452504Y2726917D01*
X17485262Y2740486D01*
X17514743Y2760185D01*
X17539815Y2785257D01*
X17559514Y2814738D01*
X17573083Y2847496D01*
X17580000Y2882271D01*
Y2917728D01*
X17573083Y2952504D01*
X17559514Y2985262D01*
X17539815Y3014743D01*
X17514743Y3039815D01*
X17485262Y3059514D01*
X17452504Y3073082D01*
X17417728Y3080000D01*
D02*
G37*
%LPD*%
G36*
X18930000Y5470000D02*
X18270000D01*
Y5540000D01*
X18139999Y5670000D01*
X17300000D01*
Y5970000D01*
X17460001Y6130000D01*
X18930000D01*
Y5470000D01*
D02*
G37*
G36*
X16830000D02*
X16170000D01*
Y5540000D01*
X16039999Y5670000D01*
X15200000D01*
Y5970000D01*
X15360001Y6130000D01*
X16830000D01*
Y5470000D01*
D02*
G37*
G36*
X14730000D02*
X14070000D01*
Y5540000D01*
X13939999Y5670000D01*
X13100000D01*
Y5970000D01*
X13260001Y6130000D01*
X14730000D01*
Y5470000D01*
D02*
G37*
G36*
X12630000D02*
X11970000D01*
Y5540000D01*
X11840000Y5670000D01*
X11000000D01*
Y5970000D01*
X11160000Y6130000D01*
X12630000D01*
Y5470000D01*
D02*
G37*
G36*
X10530000D02*
X9870000D01*
Y5540000D01*
X9740000Y5670000D01*
X8900000D01*
Y5970000D01*
X9060000Y6130000D01*
X10530000D01*
Y5470000D01*
D02*
G37*
G36*
X8430000D02*
X7770000D01*
Y5540000D01*
X7640000Y5670000D01*
X6800000D01*
Y5970000D01*
X6960000Y6130000D01*
X8430000D01*
Y5470000D01*
D02*
G37*
G36*
X6330000D02*
X5670000D01*
Y5540000D01*
X5540000Y5670000D01*
X4700000D01*
Y5970000D01*
X4860000Y6130000D01*
X6330000D01*
Y5470000D01*
D02*
G37*
G36*
X21030000D02*
X20370000D01*
Y5540000D01*
X20239999Y5670000D01*
X20148705D01*
X20143185Y5690598D01*
X20130020Y5713401D01*
X20111401Y5732020D01*
X20088599Y5745185D01*
X20063165Y5752000D01*
X20036835D01*
X20011401Y5745185D01*
X19988599Y5732020D01*
X19969980Y5713401D01*
X19956815Y5690598D01*
X19951295Y5670000D01*
X19400000D01*
Y5970000D01*
X19560001Y6130000D01*
X21030000D01*
Y5470000D01*
D02*
G37*
%LPC*%
G36*
X20591508Y5800400D02*
X20587700D01*
Y5687700D01*
X20700400D01*
Y5691509D01*
X20691853Y5723403D01*
X20675345Y5751997D01*
X20651997Y5775345D01*
X20623402Y5791854D01*
X20591508Y5800400D01*
D02*
G37*
G36*
X20562300D02*
X20558492D01*
X20526598Y5791854D01*
X20498003Y5775345D01*
X20474655Y5751997D01*
X20458147Y5723403D01*
X20449600Y5691509D01*
Y5687700D01*
X20562300D01*
Y5800400D01*
D02*
G37*
G36*
X20700400Y5662300D02*
X20587700D01*
Y5549600D01*
X20591508D01*
X20623402Y5558146D01*
X20651997Y5574655D01*
X20675345Y5598003D01*
X20691853Y5626598D01*
X20700400Y5658491D01*
Y5662300D01*
D02*
G37*
G36*
X20562300D02*
X20449600D01*
Y5658491D01*
X20458147Y5626598D01*
X20474655Y5598003D01*
X20498003Y5574655D01*
X20526598Y5558146D01*
X20558492Y5549600D01*
X20562300D01*
Y5662300D01*
D02*
G37*
%LPD*%
G36*
X4780000Y3530000D02*
X4490000D01*
X4480000Y3540000D01*
Y3680000D01*
X4780000D01*
Y3530000D01*
D02*
G37*
G36*
X4249301Y3762517D02*
X4252875Y3759932D01*
Y3675000D01*
X4254559Y3666533D01*
X4259355Y3659355D01*
X4296675Y3622035D01*
X4303853Y3617239D01*
X4312320Y3615555D01*
X4335440D01*
Y3522220D01*
X4376266D01*
X4381126Y3510487D01*
X4359078Y3488439D01*
X4271500D01*
X4208510Y3551429D01*
Y3660510D01*
X4202125D01*
Y3761951D01*
X4229900D01*
X4236845Y3763333D01*
X4240175Y3765558D01*
X4249301Y3762517D01*
D02*
G37*
G36*
X4930000Y4110000D02*
X4950000Y4090000D01*
X5190000D01*
X5670000Y3610000D01*
X5860000D01*
X5890000Y3580000D01*
Y3060000D01*
X5620000D01*
X4929180Y3750820D01*
X4357030D01*
Y4119120D01*
D01*
Y4222970D01*
X4359942Y4230000D01*
X4810000D01*
X4930000Y4110000D01*
D02*
G37*
G36*
X18530000Y3380000D02*
X18710001D01*
X18730000Y3360000D01*
X18730000Y2900000D01*
X18060001D01*
Y3370000D01*
X18189999Y3500000D01*
X18410001D01*
X18530000Y3380000D01*
D02*
G37*
%LPC*%
G36*
X11041507Y2870000D02*
X11016493D01*
X10992332Y2863526D01*
X10970669Y2851019D01*
X10952981Y2833331D01*
X10940474Y2811668D01*
X10934000Y2787507D01*
Y2762493D01*
X10940474Y2738332D01*
X10952981Y2716669D01*
X10970669Y2698981D01*
X10992332Y2686474D01*
X11016493Y2680000D01*
X11041507D01*
X11065668Y2686474D01*
X11087331Y2698981D01*
X11105019Y2716669D01*
X11117526Y2738332D01*
X11124000Y2762493D01*
Y2787507D01*
X11117526Y2811668D01*
X11105019Y2833331D01*
X11087331Y2851019D01*
X11065668Y2863526D01*
X11041507Y2870000D01*
D02*
G37*
%LPD*%
D13*
X13830579Y2940000D02*
D03*
X13669421D02*
D03*
X4130578Y3575000D02*
D03*
X3969422D02*
D03*
D15*
X12081977Y3106977D02*
D03*
X11968023Y2993023D02*
D03*
D17*
X8540000Y3830578D02*
D03*
Y3669422D02*
D03*
D19*
X12120000Y4300000D02*
D03*
X11920000D02*
D03*
D26*
X14300000Y3075000D02*
D03*
Y3275000D02*
D03*
X14550000Y3075000D02*
D03*
Y3275000D02*
D03*
D29*
X14027515Y3292500D02*
X14176465D01*
X14208965Y3260000D02*
X14320000D01*
X14176465Y3292500D02*
X14208965Y3260000D01*
X14320000D02*
X14332500D01*
X14173988Y3227500D02*
X14231488Y3170000D01*
X14432500D01*
X14027515Y3227500D02*
X14173988D01*
X14432500Y3170000D02*
X14537500Y3275000D01*
X14550000D01*
X14600000Y3225000D02*
X14695000D01*
X14550000Y3275000D02*
X14600000Y3225000D01*
X18782001Y3632000D02*
X19400000Y4250000D01*
X18172000Y3632000D02*
X18782001D01*
X17733000Y3193000D02*
X18172000Y3632000D01*
X16046188Y3193000D02*
X17733000D01*
X15919595Y3319594D02*
X16046188Y3193000D01*
X15919594Y3319594D02*
X15919595D01*
X15907001Y3332189D02*
X15919594Y3319594D01*
X14802190Y3332189D02*
X15907001D01*
X14695000Y3225000D02*
X14802190Y3332189D01*
X11870131Y2890132D02*
X11968023Y2988023D01*
Y2993023D01*
X11679538Y2890132D02*
X11870131D01*
X11616421Y2953249D02*
X11679538Y2890132D01*
X11968023Y2938022D02*
X12025000Y2881045D01*
X11968023Y2938022D02*
Y2993023D01*
X12025000Y2815754D02*
Y2881045D01*
Y2815754D02*
X12025700Y2815054D01*
Y2699300D02*
Y2815054D01*
Y2699300D02*
X12100000Y2625000D01*
X12287000D01*
X12437000Y2775000D01*
X11795000Y2975000D02*
X12053588Y3233588D01*
X12220000Y2950000D02*
Y3102219D01*
X12088631Y3233588D02*
X12220000Y3102219D01*
X12053588Y3233588D02*
X12088631D01*
X10839311Y3511156D02*
X10858412Y3530256D01*
X13263570Y2773100D02*
X13717969Y3227500D01*
X14027515D01*
X13151900Y2773100D02*
X13263570D01*
X13150000Y2775000D02*
X13151900Y2773100D01*
X14027515Y3062514D02*
Y3162500D01*
X14025000Y3060000D02*
X14027515Y3062514D01*
X11806132Y2639132D02*
X11929000Y2762000D01*
Y2775000D01*
X11333579Y2953248D02*
Y2953249D01*
Y2953248D02*
X11425000Y2861827D01*
Y2750000D02*
Y2861827D01*
Y2750000D02*
X11535868Y2639132D01*
X11806132D01*
X12171000Y2787000D02*
Y2901000D01*
Y2787000D02*
X12183000Y2775000D01*
X12171000Y2901000D02*
X12220000Y2950000D01*
X11741709Y2975000D02*
X11795000D01*
X11692750Y3023959D02*
X11741709Y2975000D01*
X11687132Y3023959D02*
X11692750D01*
X10811734Y3483579D02*
X10839311Y3511156D01*
X11480330Y3069670D02*
X11500000D01*
Y3500000D01*
X11719744Y3719744D01*
X12042881D01*
X10803249Y3483579D02*
X10811734D01*
X11500000Y3069670D02*
X11616421Y2953249D01*
X10858412Y3530256D02*
X11019744D01*
X11480330Y3069670D01*
X10803249Y3483579D02*
X10835068Y3515398D01*
Y3523884D01*
X10750000Y3608952D02*
X10835068Y3523884D01*
X10750000Y3608952D02*
Y3713173D01*
X10803249Y3766421D01*
X12725000Y2750000D02*
X12728038Y2753038D01*
Y3521962D01*
X14625000Y2725000D02*
X14902177Y3002177D01*
X15149190Y3289189D02*
X15889189D01*
X14902177Y3042178D02*
X15149190Y3289189D01*
X14902177Y3002177D02*
Y3042178D01*
X12322000Y3928000D02*
X12728038Y3521962D01*
X17750000Y3150000D02*
X18189000Y3589000D01*
X16028377Y3150000D02*
X17750000D01*
X18189000Y3589000D02*
X18799812D01*
X18155000Y3675000D02*
X18764189D01*
X17716000Y3236000D02*
X18155000Y3675000D01*
X16064000Y3236000D02*
X17716000D01*
X8855000Y3945000D02*
X9425000D01*
X8795000D02*
X8855000D01*
X8540000Y3830578D02*
X8680579D01*
X8795000Y3945000D01*
X9425000D02*
X9625000D01*
X9750000Y4070000D01*
X10923934D01*
X11015381Y3978553D01*
X10470000Y3721335D02*
X10510668Y3680667D01*
X10510000Y3680000D02*
X10510668Y3680667D01*
X10391318Y3561317D02*
X10510000Y3680000D01*
X10327591Y3561317D02*
X10391318D01*
X10470000Y3721335D02*
Y3850697D01*
X10101317Y3787591D02*
Y3811317D01*
X10191779Y3901779D01*
X10221779D01*
X10426878Y3887589D02*
X10479289Y3940000D01*
X10282003Y3887589D02*
X10426878D01*
X10267146Y3902446D02*
X10282003Y3887589D01*
X10222447Y3902446D02*
X10267146D01*
X10221779Y3901779D02*
X10222447Y3902446D01*
X10841802Y3940000D02*
X10909314Y3872487D01*
X10479289Y3940000D02*
X10841802D01*
X10865474Y3837132D02*
X10873959D01*
X10812606Y3890000D02*
X10865474Y3837132D01*
X10509303Y3890000D02*
X10812606D01*
X10470000Y3850697D02*
X10509303Y3890000D01*
X8630000Y4180000D02*
X11026066D01*
X7680000Y4150000D02*
X10985355D01*
X7662645Y4117355D02*
X10947289D01*
X7596350Y4183650D02*
X7662645Y4117355D01*
X11275000Y4022101D02*
Y4092356D01*
X10952899Y3700000D02*
X11275000Y4022101D01*
X10869670Y3700000D02*
X10952899D01*
X10982339Y3943198D02*
X11047827Y3877710D01*
X10980025Y3943198D02*
X10982339D01*
X11047827Y3877710D02*
X11050141D01*
X10856771Y3995741D02*
X10944669Y3907843D01*
X10853226Y3995741D02*
X10856771D01*
X10944669Y3907843D02*
X10944670D01*
X12120000Y4300000D02*
X12365000D01*
X11869000Y4236500D02*
X11920000Y4287500D01*
X11757843Y4155330D02*
X11839013Y4236500D01*
X11869000D01*
X11920000Y4287500D02*
Y4300000D01*
X10980025Y3943198D02*
Y3951683D01*
X10734835Y3830000D02*
X10798414Y3766421D01*
X10803249D01*
X10730000Y3830000D02*
X10734835D01*
X14332500Y3260000D02*
X14447688Y3375189D01*
X15924811D01*
X9985000Y2760000D02*
X10190000D01*
X9950000Y2725000D02*
X9985000Y2760000D01*
X10290000Y2740000D02*
X10306900Y2723100D01*
X10270000Y2825955D02*
X10290000Y2805956D01*
Y2740000D02*
Y2805956D01*
X10306900Y2723100D02*
X10443569D01*
X10270000Y2825955D02*
Y2830000D01*
X10440000D02*
X10503223D01*
X10390000Y2780000D02*
X10440000Y2830000D01*
X9900000Y2775000D02*
X9955000Y2830000D01*
X10270000D01*
X10443569Y2723100D02*
X10481784Y2761316D01*
Y2761784D01*
X10450000Y2675000D02*
X10700000Y2925000D01*
X5325200Y2675000D02*
X10450000D01*
X10481784Y2761784D02*
X10739813Y3019813D01*
X13702499Y3292500D02*
X14027515D01*
X19330661Y4241472D02*
Y4262177D01*
X18764189Y3675000D02*
X19330661Y4241472D01*
X15924811Y3375189D02*
X15937405Y3362594D01*
X15950000Y3350000D02*
X15950000D01*
X15937405Y3362594D02*
X15950000Y3350000D01*
X15950000D02*
X16064000Y3236000D01*
X15937405Y3362594D02*
X15937405D01*
X13239999Y2830000D02*
X13702499Y3292500D01*
X10503223Y2830000D02*
X10980025Y3306802D01*
X13943141Y3162500D02*
X14027515D01*
X13928593Y3147953D02*
X13943141Y3162500D01*
X10739813Y3019813D02*
X10763747D01*
X11015381Y3271447D01*
X10700000Y2925000D02*
X11163909D01*
X11675000Y3177513D02*
Y3450000D01*
X11600000Y3469451D02*
X11643516Y3512968D01*
X10644491Y3451759D02*
X10771429D01*
X10600000Y3490000D02*
X10606250D01*
X10644491Y3451759D01*
X10771429D02*
X10803249Y3483579D01*
X13331236Y3488750D02*
X13332486Y3487500D01*
X13131250Y3488750D02*
X13331236D01*
X13130000Y3490000D02*
X13131250Y3488750D01*
X13071249Y3551250D02*
X13331236D01*
X13332486Y3552500D01*
X13070000Y3550000D02*
X13071249Y3551250D01*
X13331236Y3618750D02*
X13332486Y3617500D01*
X13131250Y3618750D02*
X13331236D01*
X13130000Y3620000D02*
X13131250Y3618750D01*
X13081250Y3681250D02*
X13331236D01*
X13080000Y3680000D02*
X13081250Y3681250D01*
X13331236D02*
X13332486Y3682500D01*
X13131250Y3748750D02*
X13331236D01*
X13332486Y3747500D01*
X13130000Y3750000D02*
X13131250Y3748750D01*
X13081250Y3811250D02*
X13331236D01*
X13080000Y3810000D02*
X13081250Y3811250D01*
X13331236D02*
X13332486Y3812500D01*
X14028764Y3878750D02*
X14278751D01*
X14280000Y3880000D01*
X14027515Y3877500D02*
X14028764Y3878750D01*
X14028764Y3811250D02*
X14228751D01*
X14027515Y3812500D02*
X14028764Y3811250D01*
X14228751D02*
X14230000Y3810000D01*
X14277499Y3747500D02*
X14280000Y3750000D01*
X14027515Y3747500D02*
X14277499D01*
X14028764Y3681250D02*
X14228751D01*
X14230000Y3680000D01*
X14027515Y3682500D02*
X14028764Y3681250D01*
X14028764Y3618750D02*
X14278751D01*
X14027515Y3617500D02*
X14028764Y3618750D01*
X14278751D02*
X14280000Y3620000D01*
X14027515Y3552500D02*
X14028764Y3551250D01*
X14228751D01*
X14230000Y3550000D01*
X14028764Y3488750D02*
X14278751D01*
X14027515Y3487500D02*
X14028764Y3488750D01*
X14278751D02*
X14280000Y3490000D01*
X14028764Y3421250D02*
X14228751D01*
X14027515Y3422500D02*
X14028764Y3421250D01*
X14228751D02*
X14230000Y3420000D01*
X13080000D02*
X13081250Y3421250D01*
X13131250Y3358750D02*
X13331236D01*
X13332486Y3357500D01*
X13130000Y3360000D02*
X13131250Y3358750D01*
X13331236Y3421250D02*
X13332486Y3422500D01*
X13081250Y3421250D02*
X13331236D01*
X11525000Y2750000D02*
Y2900000D01*
X11389718Y3035282D02*
X11525000Y2900000D01*
X11298223Y2988604D02*
X11306708D01*
X11353386Y3035282D01*
X11389718D01*
X11163909Y2925000D02*
X11262868Y3023959D01*
X12671138Y2826931D02*
X12675000Y2830793D01*
Y3525000D01*
X12104683Y3928000D02*
X12322000D01*
X12049170Y3872487D02*
X12104683Y3928000D01*
X12040685Y3872487D02*
X12049170D01*
X12138909Y3900000D02*
X12300000D01*
X12675000Y3525000D01*
X12076041Y3837132D02*
X12138909Y3900000D01*
X11600000Y3425000D02*
Y3469451D01*
Y3425000D02*
X11630622Y3394379D01*
Y3151180D02*
Y3394379D01*
Y3151180D02*
X11722487Y3059315D01*
X11675000Y3177513D02*
X11757843Y3094670D01*
X5875000Y3700000D02*
X5975000Y3600000D01*
X6275000D01*
X12042881Y3719744D02*
X12067234D01*
X12091588D01*
X12069834Y3680166D02*
X12075000Y3675000D01*
X12067234Y3719744D02*
X12069834Y3717144D01*
Y3680166D02*
Y3717144D01*
X11611858Y4150767D02*
X12042881Y3719744D01*
X12091588D02*
X12138266Y3766421D01*
X12146751D01*
X11611858Y4150767D02*
X11687132Y4226041D01*
X11553447Y4092356D02*
X11611858Y4150767D01*
X11354567Y4092356D02*
X11553447D01*
X11275000D02*
X11354567D01*
X11275000D02*
Y4134713D01*
X10803249Y3766421D02*
X10869670Y3700000D01*
X11227512Y4182200D02*
Y4190685D01*
Y4182200D02*
X11275000Y4134713D01*
X4476431Y2818100D02*
X4581900D01*
X4426431Y2768100D02*
X4531900D01*
X4474697Y2819834D02*
X4476431Y2818100D01*
X4455166Y2819834D02*
X4474697D01*
X4450000Y2825000D02*
X4455166Y2819834D01*
X4424697Y2769834D02*
X4426431Y2768100D01*
X4405166Y2769834D02*
X4424697D01*
X4400000Y2775000D02*
X4405166Y2769834D01*
X11333579Y2953249D02*
X11333579D01*
X15889189Y3289189D02*
X16028377Y3150000D01*
X18799812Y3589000D02*
X19397844Y4187033D01*
X19431483D01*
X5300000Y2725000D02*
X9950000D01*
X5252600Y2677600D02*
X5300000Y2725000D01*
X4722400Y2677600D02*
X5252600D01*
X5299800Y2649600D02*
X5325200Y2675000D01*
X4650400Y2649600D02*
X5299800D01*
X4531900Y2768100D02*
X4650400Y2649600D01*
X4581900Y2818100D02*
X4722400Y2677600D01*
X5309102Y2775000D02*
X9900000D01*
X4794401Y2705600D02*
X5239702D01*
X5309102Y2775000D01*
X4625000Y2875000D02*
X4794401Y2705600D01*
X4500000Y2875000D02*
X4625000D01*
X10770711Y3245711D02*
X10770711D01*
X10865482Y3295479D02*
X10889507D01*
X10853732Y3307229D02*
X10865482Y3295479D01*
X10832230Y3307229D02*
X10853732D01*
X10936185Y3342157D02*
X10944670D01*
X10889507Y3295479D02*
X10936185Y3342157D01*
X10770711Y3245711D02*
X10832230Y3307229D01*
X4050000Y3850000D02*
Y3925000D01*
X4001000Y3974000D02*
X4050000Y3925000D01*
Y3850000D02*
X4095000Y3805000D01*
X4180000D01*
X3920000Y3995000D02*
X3941000Y3974000D01*
X4001000D01*
X3920000Y3805000D02*
X3924000D01*
X3945000Y3784000D01*
Y3599422D02*
X3969422Y3575000D01*
X3945000Y3599422D02*
Y3784000D01*
X4180000Y3624422D02*
Y3805000D01*
X4130578Y3575000D02*
X4180000Y3624422D01*
X4275000Y3675000D02*
Y3889456D01*
Y3675000D02*
X4312320Y3637680D01*
X4371000Y4083604D02*
Y4175000D01*
Y4083604D02*
X4392544Y4062060D01*
X4370000Y3995000D02*
X4392544Y4017544D01*
Y4062060D01*
X4180000Y3995000D02*
X4370000D01*
X4180000Y3900000D02*
X4264456D01*
X4275000Y3889456D01*
X4371000Y3590800D02*
Y3623820D01*
X4357140Y3637680D02*
X4371000Y3623820D01*
X4312320Y3637680D02*
X4357140D01*
X12755942Y4095942D02*
X12802499Y4142500D01*
X11919072Y4095942D02*
X12755942D01*
X11872394Y4049264D02*
X11919072Y4095942D01*
X11863908Y4049264D02*
X11872394D01*
X12802499Y4142500D02*
Y5259914D01*
X14902499Y4112500D02*
Y5259914D01*
X14850587Y4060586D02*
X14902499Y4112500D01*
X11954427Y4060586D02*
X14850587D01*
X16965231Y4025231D02*
X17002499Y4062500D01*
X11989782Y4025231D02*
X16965231D01*
X11899264Y4013909D02*
X11907749D01*
X11954427Y4060586D01*
X11934619Y3984619D02*
X11949171D01*
X17002499Y4062500D02*
Y5259914D01*
X11949171Y3984619D02*
X11989782Y4025231D01*
X13796959Y3991246D02*
X17441246D01*
X13795712Y3990000D02*
X13796959Y3991246D01*
X13470000Y3990000D02*
X13795712D01*
X13468755Y3991246D02*
X13470000Y3990000D01*
X12026508Y3991246D02*
X13468755D01*
X11978460Y3943198D02*
X12026508Y3991246D01*
X11969975Y3943198D02*
X11978460D01*
X17441246Y3991246D02*
X18089999Y4640000D01*
X19020000D01*
X19102499Y4722500D02*
Y5259914D01*
X19020000Y4640000D02*
X19102499Y4722500D01*
X10702500Y4257500D02*
Y5259914D01*
X10750000Y4210000D02*
X11066777D01*
X11156802Y4119975D01*
X10702500Y4257500D02*
X10750000Y4210000D01*
X8602500Y4207500D02*
Y5259914D01*
Y4207500D02*
X8630000Y4180000D01*
X11026066D02*
X11121446Y4084619D01*
X10985355Y4150000D02*
X11086091Y4049264D01*
X10947289Y4117355D02*
X11050736Y4013909D01*
X7632299Y4197701D02*
X7680000Y4150000D01*
X7632299Y4197701D02*
Y4637702D01*
X7596350Y4183650D02*
Y4633650D01*
X7580000Y4690000D02*
X7632299Y4637702D01*
X6570000Y4690000D02*
X7580000D01*
X4466956Y4658044D02*
X7571956D01*
X7596350Y4633650D01*
X6502500Y4757500D02*
X6570000Y4690000D01*
X6502500Y4757500D02*
Y5259914D01*
X4402500Y4722500D02*
X4466956Y4658044D01*
X4402500Y4722500D02*
Y5259914D01*
X19173584Y5366278D02*
X19200000Y5392694D01*
Y5400000D01*
X19167500Y5259914D02*
X19173584Y5265999D01*
Y5366278D01*
X17073586Y5366278D02*
X17100000Y5392694D01*
Y5400000D01*
X17067500Y5259914D02*
X17073586Y5265999D01*
Y5366278D01*
X14973584Y5366278D02*
X15000000Y5392694D01*
Y5400000D01*
X14967500Y5259914D02*
X14973584Y5265999D01*
Y5366278D01*
X12873584D02*
X12900000Y5392694D01*
Y5400000D01*
X12867500Y5259914D02*
X12873584Y5265999D01*
Y5366278D01*
X10773584Y5265999D02*
Y5366278D01*
X10800000Y5392694D02*
Y5400000D01*
X10767500Y5259914D02*
X10773584Y5265999D01*
Y5366278D02*
X10800000Y5392694D01*
X8673584Y5265999D02*
Y5366278D01*
X8667500Y5259914D02*
X8673584Y5265999D01*
Y5366278D02*
X8700000Y5392694D01*
Y5400000D01*
X6567500Y5259914D02*
X6573585Y5265999D01*
Y5366278D01*
X6600000Y5392694D01*
Y5400000D01*
X4473584Y5265999D02*
Y5366278D01*
X4467500Y5259914D02*
X4473584Y5265999D01*
Y5366278D02*
X4500000Y5392694D01*
Y5400000D01*
X19312189Y5625000D02*
X19589456D01*
X19600000Y5635544D02*
Y5760000D01*
X19589456Y5625000D02*
X19600000Y5635544D01*
X19589456Y5275000D02*
X19600000Y5264456D01*
X19312585Y5275000D02*
X19589456D01*
X19600000Y5140000D02*
Y5264456D01*
X17212189Y5625000D02*
X17489456D01*
X17500000Y5635544D02*
Y5760000D01*
X17489456Y5625000D02*
X17500000Y5635544D01*
X17489456Y5275000D02*
X17500000Y5264456D01*
X17212585Y5275000D02*
X17489456D01*
X17500000Y5140000D02*
Y5264456D01*
X15112189Y5625000D02*
X15389456D01*
X15400000Y5635544D02*
Y5760000D01*
X15389456Y5625000D02*
X15400000Y5635544D01*
X15389456Y5275000D02*
X15400000Y5264456D01*
X15112585Y5275000D02*
X15389456D01*
X15400000Y5140000D02*
Y5264456D01*
X13012189Y5625000D02*
X13289456D01*
X13300000Y5635544D02*
Y5760000D01*
X13289456Y5625000D02*
X13300000Y5635544D01*
X13289456Y5275000D02*
X13300000Y5264456D01*
X13012585Y5275000D02*
X13289456D01*
X13300000Y5140000D02*
Y5264456D01*
X10912189Y5625000D02*
X11189456D01*
X11200000Y5635544D02*
Y5760000D01*
X11189456Y5625000D02*
X11200000Y5635544D01*
X11189456Y5275000D02*
X11200000Y5264456D01*
X10912586Y5275000D02*
X11189456D01*
X11200000Y5140000D02*
Y5264456D01*
X8812189Y5625000D02*
X9089456D01*
X9100000Y5635544D02*
Y5760000D01*
X9089456Y5625000D02*
X9100000Y5635544D01*
X9089456Y5275000D02*
X9100000Y5264456D01*
X8812586Y5275000D02*
X9089456D01*
X9100000Y5140000D02*
Y5264456D01*
X6712189Y5625000D02*
X6989456D01*
X7000000Y5635544D02*
Y5760000D01*
X6989456Y5625000D02*
X7000000Y5635544D01*
X6989456Y5275000D02*
X7000000Y5264456D01*
X6712586Y5275000D02*
X6989456D01*
X7000000Y5140000D02*
Y5264456D01*
X4597500Y5259914D02*
X4612586Y5275000D01*
X4900000Y5140000D02*
Y5264456D01*
X4612586Y5275000D02*
X4889456D01*
X4900000Y5264456D01*
X4597500Y5639689D02*
Y5690086D01*
X4889456Y5625000D02*
X4900000Y5635544D01*
Y5760000D01*
X4597500Y5639689D02*
X4612189Y5625000D01*
X4889456D01*
X4325000Y5842756D02*
X4402500Y5765256D01*
X4425679Y5827022D02*
X4461416Y5791286D01*
Y5696170D02*
Y5791286D01*
X6425000Y5842756D02*
X6502500Y5765256D01*
X6525679Y5827022D02*
X6561416Y5791286D01*
Y5696170D02*
Y5791286D01*
X8525000Y5842756D02*
X8602500Y5765256D01*
X8625679Y5827022D02*
X8661416Y5791286D01*
Y5696170D02*
Y5791286D01*
X10625000Y5842756D02*
X10702500Y5765256D01*
X10725679Y5827022D02*
X10761416Y5791286D01*
Y5696170D02*
Y5791286D01*
X12725000Y5842756D02*
X12802499Y5765256D01*
X12825679Y5827022D02*
X12861417Y5791286D01*
Y5696170D02*
Y5791286D01*
X14825000Y5842756D02*
X14902499Y5765256D01*
X14925679Y5827022D02*
X14961417Y5791286D01*
Y5696170D02*
Y5791286D01*
X16925000Y5842756D02*
X17002499Y5765256D01*
X17025679Y5827022D02*
X17061417Y5791286D01*
Y5696170D02*
Y5791286D01*
X19161417Y5696170D02*
Y5791286D01*
X19125679Y5827022D02*
X19161417Y5791286D01*
Y5696170D02*
X19167500Y5690086D01*
X19102499Y5724049D02*
Y5765256D01*
X19025000Y5842756D02*
X19102499Y5765256D01*
X19025000Y5842756D02*
Y5850000D01*
D30*
X14320000Y3060000D02*
X14335001Y3075000D01*
X14535001D02*
X14550000Y3060000D01*
X14335001Y3075000D02*
X14535001D01*
X14300000D02*
X14314999Y3060000D01*
X14320000D01*
X14550000D02*
Y3075000D01*
Y3040000D02*
X14555000Y3045000D01*
X14025000Y3060000D02*
X14320000D01*
X13942999D02*
X14025000D01*
X12487000Y2688000D02*
X12497900Y2677100D01*
X12487000Y2688000D02*
Y2725000D01*
X12437000Y2775000D02*
X12487000Y2725000D01*
X13790346Y2899768D02*
X13830579Y2940000D01*
X13790346Y2859243D02*
Y2899768D01*
X13608203Y2677100D02*
X13790346Y2859243D01*
X12497900Y2677100D02*
X13608203D01*
X13830579Y2947578D02*
X13942999Y3060000D01*
X13830579Y2940000D02*
Y2947578D01*
X14550000Y2825000D02*
Y3040000D01*
X4375000Y3450000D02*
X4500000Y3575000D01*
X4525000D01*
X4170810Y3527190D02*
X4178388D01*
X4255578Y3450000D01*
X4130578Y3567422D02*
Y3575000D01*
Y3567422D02*
X4170810Y3527190D01*
X4255578Y3450000D02*
X4375000D01*
D33*
X20575000Y5175000D02*
D03*
Y5675000D02*
D03*
X15825000Y3575000D02*
D03*
Y3075000D02*
D03*
D34*
X10775000Y2775000D02*
D03*
X12437000D02*
D03*
X5600000Y2900000D02*
D03*
D35*
X11029000Y2775000D02*
D03*
X11283000D02*
D03*
X11675000D02*
D03*
X11929000D02*
D03*
X12183000D02*
D03*
X6362000Y2900000D02*
D03*
X6108000D02*
D03*
X5854000D02*
D03*
D36*
X20400000Y3168480D02*
D03*
Y3900000D02*
D03*
X6000000Y5068480D02*
D03*
Y5800000D02*
D03*
X16500000D02*
D03*
Y5068480D02*
D03*
X18600000Y5800000D02*
D03*
Y5068480D02*
D03*
X14400000Y5800000D02*
D03*
Y5068480D02*
D03*
X10200000Y5800000D02*
D03*
Y5068480D02*
D03*
X12300000Y5800000D02*
D03*
Y5068480D02*
D03*
X8100000Y5800000D02*
D03*
Y5068480D02*
D03*
X3175000Y3850000D02*
D03*
Y3118480D02*
D03*
D37*
X15977000Y4975000D02*
D03*
Y5525000D02*
D03*
X13877000Y4975000D02*
D03*
Y5525000D02*
D03*
X11777000Y4975000D02*
D03*
Y5525000D02*
D03*
X9677000Y4975000D02*
D03*
Y5525000D02*
D03*
X7577000Y4975000D02*
D03*
Y5525000D02*
D03*
X5477000Y4975000D02*
D03*
Y5525000D02*
D03*
X18077000Y4975000D02*
D03*
Y5525000D02*
D03*
X20050000Y4848000D02*
D03*
Y5652000D02*
D03*
D38*
X15723000Y4975000D02*
D03*
Y5525000D02*
D03*
X13623000Y4975000D02*
D03*
Y5525000D02*
D03*
X11523000Y4975000D02*
D03*
Y5525000D02*
D03*
X9423000Y4975000D02*
D03*
Y5525000D02*
D03*
X7323000Y4975000D02*
D03*
Y5525000D02*
D03*
X5223000Y4975000D02*
D03*
Y5525000D02*
D03*
X17823000Y4975000D02*
D03*
Y5525000D02*
D03*
D39*
X7250000Y3700000D02*
D03*
Y4250000D02*
D03*
Y3150000D02*
D03*
D40*
X20050000Y5102000D02*
D03*
Y5398000D02*
D03*
D41*
X20849994Y5399998D02*
D03*
X20699994Y5099998D02*
D03*
X20849994Y4799999D02*
D03*
X20699994Y4499999D02*
D03*
X20849994Y4199999D02*
D03*
Y3599999D02*
D03*
X20699994Y3299999D02*
D03*
X20849994Y2999999D02*
D03*
X20699994Y2699999D02*
D03*
X20549994Y5399998D02*
D03*
X20399994Y5099998D02*
D03*
X20549994Y4799999D02*
D03*
X20399994Y4499999D02*
D03*
Y2699999D02*
D03*
X20249994Y4799999D02*
D03*
X20099994Y4499999D02*
D03*
Y3299999D02*
D03*
Y2699999D02*
D03*
X19799994Y3299999D02*
D03*
X19949994Y2999999D02*
D03*
X19799994Y2699999D02*
D03*
X19649994Y3599999D02*
D03*
X19499994Y3299999D02*
D03*
X19649994Y2999999D02*
D03*
X19499994Y2699999D02*
D03*
X19349994Y5999998D02*
D03*
Y4799999D02*
D03*
X19199994Y2699999D02*
D03*
X19049994Y5999998D02*
D03*
X18899994Y5099998D02*
D03*
Y3899999D02*
D03*
Y2699999D02*
D03*
X18749994Y5399998D02*
D03*
Y4799999D02*
D03*
X18599994Y3899999D02*
D03*
Y2699999D02*
D03*
X18449994Y5399998D02*
D03*
X18299994Y5099998D02*
D03*
X18449994Y4799999D02*
D03*
X18299994Y2699999D02*
D03*
X18149994Y5399998D02*
D03*
X17999994Y5099998D02*
D03*
X18149994Y4799999D02*
D03*
X17999994Y2699999D02*
D03*
X17849995Y4199999D02*
D03*
Y3599999D02*
D03*
X17699995Y2699999D02*
D03*
X17249995Y5999998D02*
D03*
X17099995Y2699999D02*
D03*
X16949995Y5999998D02*
D03*
X16799995Y5099998D02*
D03*
Y2699999D02*
D03*
X16649995Y5399998D02*
D03*
Y4799999D02*
D03*
Y3599999D02*
D03*
X16499995Y2699999D02*
D03*
X16349995Y5399998D02*
D03*
X16199995Y5099998D02*
D03*
X16349995Y4799999D02*
D03*
X16199995Y3899999D02*
D03*
Y2699999D02*
D03*
X16049995Y5399998D02*
D03*
X15899995Y5099998D02*
D03*
X16049995Y4799999D02*
D03*
X15899995Y3899999D02*
D03*
Y2699999D02*
D03*
X15749995Y4799999D02*
D03*
X15599995Y3899999D02*
D03*
Y2699999D02*
D03*
X15299995Y3899999D02*
D03*
X15449995Y3599999D02*
D03*
X15299995Y2699999D02*
D03*
X15149995Y5999998D02*
D03*
Y4799999D02*
D03*
Y3599999D02*
D03*
X14999995Y2699999D02*
D03*
X14849995Y5999998D02*
D03*
X14699995Y5099998D02*
D03*
Y2699999D02*
D03*
X14549995Y5399998D02*
D03*
Y4799999D02*
D03*
X14249995Y5399998D02*
D03*
X14099995Y5099998D02*
D03*
X14249995Y4799999D02*
D03*
X13949995Y5399998D02*
D03*
X13799995Y5099998D02*
D03*
X13949995Y4799999D02*
D03*
X13799995Y3899999D02*
D03*
X13649995Y4799999D02*
D03*
X13499995Y3899999D02*
D03*
X13649995Y3599999D02*
D03*
X13049995Y5999998D02*
D03*
Y4799999D02*
D03*
X12749996Y5999998D02*
D03*
X12599996Y5099998D02*
D03*
X12749996Y4799999D02*
D03*
X12449996Y5399998D02*
D03*
Y4799999D02*
D03*
Y3599999D02*
D03*
X12149996Y5399998D02*
D03*
X11999996Y5099998D02*
D03*
X12149996Y4799999D02*
D03*
X11849996Y5399998D02*
D03*
X11699996Y5099998D02*
D03*
X11849996Y4799999D02*
D03*
X11699996Y3899999D02*
D03*
X11549996Y4799999D02*
D03*
X11399997Y2699999D02*
D03*
X11249997Y3599999D02*
D03*
X10949997Y5999998D02*
D03*
Y4799999D02*
D03*
Y3599999D02*
D03*
X10649997Y5999998D02*
D03*
X10499997Y5099998D02*
D03*
X10649997Y3599999D02*
D03*
X10349997Y5399998D02*
D03*
Y4799999D02*
D03*
X10049997Y5399998D02*
D03*
X9899997Y5099998D02*
D03*
X10049997Y4799999D02*
D03*
X9899997Y3899999D02*
D03*
X10049997Y3599999D02*
D03*
X9749997Y5399998D02*
D03*
X9599997Y5099998D02*
D03*
X9749997Y4799999D02*
D03*
Y3599999D02*
D03*
X9449997Y4799999D02*
D03*
X9149997Y3599999D02*
D03*
X8849997Y5999998D02*
D03*
Y4799999D02*
D03*
X8549997Y5999998D02*
D03*
X8399997Y5099998D02*
D03*
Y3899999D02*
D03*
X8249997Y5399998D02*
D03*
Y4799999D02*
D03*
X8099998Y3899999D02*
D03*
X8249997Y3599999D02*
D03*
X7949998Y5399998D02*
D03*
X7799998Y5099998D02*
D03*
X7949998Y4799999D02*
D03*
X7799998Y3899999D02*
D03*
X7949998Y3599999D02*
D03*
X7649998Y5399998D02*
D03*
X7499998Y5099998D02*
D03*
X7649998Y4799999D02*
D03*
X7499998Y3899999D02*
D03*
X7649998Y3599999D02*
D03*
X7349998Y4799999D02*
D03*
X6899998Y3899999D02*
D03*
X6749998Y5999998D02*
D03*
Y4799999D02*
D03*
X6599998Y3899999D02*
D03*
X6749998Y3599999D02*
D03*
X6449998Y5999998D02*
D03*
X6299998Y5099998D02*
D03*
X6149998Y5399998D02*
D03*
Y4799999D02*
D03*
X5849998Y5399998D02*
D03*
X5699998Y5099998D02*
D03*
X5849998Y4799999D02*
D03*
X5699998Y3899999D02*
D03*
X5549998Y5399998D02*
D03*
X5399998Y5099998D02*
D03*
X5099998Y3299999D02*
D03*
X4949998Y3599999D02*
D03*
X4649999Y5999998D02*
D03*
Y4799999D02*
D03*
X4499999Y4499999D02*
D03*
Y3299999D02*
D03*
X4649999Y2999999D02*
D03*
X4499999Y2699999D02*
D03*
X4349999Y5999998D02*
D03*
X4199999Y5699998D02*
D03*
Y5099998D02*
D03*
X4349999Y4799999D02*
D03*
X4199999Y4499999D02*
D03*
Y3299999D02*
D03*
Y2699999D02*
D03*
X4049999Y5999998D02*
D03*
X3899999Y5699998D02*
D03*
X4049999Y5399998D02*
D03*
X3899999Y5099998D02*
D03*
Y4499999D02*
D03*
X4049999Y4199999D02*
D03*
X3899999Y3299999D02*
D03*
Y2699999D02*
D03*
X3749999Y5999998D02*
D03*
X3599999Y5699998D02*
D03*
X3749999Y5399998D02*
D03*
X3599999Y5099998D02*
D03*
X3749999Y4799999D02*
D03*
X3599999Y4499999D02*
D03*
X3749999Y4199999D02*
D03*
X3599999Y3299999D02*
D03*
X3749999Y2999999D02*
D03*
X3599999Y2699999D02*
D03*
X3449999Y5999998D02*
D03*
X3299999Y5699998D02*
D03*
X3449999Y5399998D02*
D03*
X3299999Y5099998D02*
D03*
X3449999Y4799999D02*
D03*
X3299999Y4499999D02*
D03*
X3449999Y2999999D02*
D03*
X3299999Y2699999D02*
D03*
X3149999Y5999998D02*
D03*
X2999999Y5699998D02*
D03*
X3149999Y5399998D02*
D03*
X2999999Y5099998D02*
D03*
X3149999Y4799999D02*
D03*
X2999999Y4499999D02*
D03*
Y2699999D02*
D03*
X2849999Y5999998D02*
D03*
X2699999Y5699998D02*
D03*
X2849999Y5399998D02*
D03*
X2699999Y5099998D02*
D03*
X2849999Y4799999D02*
D03*
X2699999Y4499999D02*
D03*
Y3899999D02*
D03*
Y3299999D02*
D03*
X2849999Y2999999D02*
D03*
X2699999Y2699999D02*
D03*
D42*
X4110000Y3700000D02*
D03*
X12375000Y3525000D02*
D03*
D43*
X13150000Y2775000D02*
D03*
X13200000Y4800000D02*
D03*
Y4875000D02*
D03*
X13275000Y4800000D02*
D03*
Y4875000D02*
D03*
X13350000Y4800000D02*
D03*
Y4875000D02*
D03*
X13425000Y4800000D02*
D03*
X19725000D02*
D03*
X19650000D02*
D03*
X19575000D02*
D03*
X19500000D02*
D03*
Y4875000D02*
D03*
X19575000D02*
D03*
X19650000D02*
D03*
X19725000D02*
D03*
X17625000Y4800000D02*
D03*
X17550000D02*
D03*
X17475000D02*
D03*
X17400000D02*
D03*
Y4875000D02*
D03*
X17475000D02*
D03*
X17550000D02*
D03*
X17625000D02*
D03*
X15525000Y4800000D02*
D03*
X15450000D02*
D03*
X15375000D02*
D03*
X15300000D02*
D03*
Y4875000D02*
D03*
X15375000D02*
D03*
X15450000D02*
D03*
X15525000D02*
D03*
X13425000D02*
D03*
X11325000Y4800000D02*
D03*
X11250000D02*
D03*
X11175000D02*
D03*
X11100000D02*
D03*
Y4875000D02*
D03*
X11175000D02*
D03*
X11250000D02*
D03*
X11325000D02*
D03*
X9225000Y4800000D02*
D03*
X9150000D02*
D03*
X9075000D02*
D03*
X9000000D02*
D03*
Y4875000D02*
D03*
X9075000D02*
D03*
X9150000D02*
D03*
X9225000D02*
D03*
X7125000Y4800000D02*
D03*
X7050000D02*
D03*
X6975000D02*
D03*
X6900000D02*
D03*
Y4875000D02*
D03*
X6975000D02*
D03*
X7050000D02*
D03*
X7125000D02*
D03*
X5025000Y4800000D02*
D03*
X4950000D02*
D03*
X4875000D02*
D03*
X4800000D02*
D03*
Y4875000D02*
D03*
X4875000D02*
D03*
X4950000D02*
D03*
X5025000D02*
D03*
X12725000Y2750000D02*
D03*
X14550000Y2825000D02*
D03*
X14625000Y2725000D02*
D03*
X18430000Y3200000D02*
D03*
Y3110000D02*
D03*
Y3010000D02*
D03*
Y3290000D02*
D03*
X18520000Y3200000D02*
D03*
Y3290000D02*
D03*
Y3110000D02*
D03*
Y3010000D02*
D03*
X18200000Y3290000D02*
D03*
Y3200000D02*
D03*
Y3110000D02*
D03*
Y3010000D02*
D03*
X18110001D02*
D03*
Y3110000D02*
D03*
Y3200000D02*
D03*
Y3290000D02*
D03*
X5745000Y3390000D02*
D03*
X5820000D02*
D03*
Y3165000D02*
D03*
X5670000D02*
D03*
Y3390000D02*
D03*
X5745000Y3165000D02*
D03*
Y3240000D02*
D03*
X5595000Y3390000D02*
D03*
X5745000Y3315000D02*
D03*
X5670000Y3240000D02*
D03*
X5595000D02*
D03*
X5820000Y3315000D02*
D03*
X5670000D02*
D03*
X5595000Y3165000D02*
D03*
Y3315000D02*
D03*
X5820000Y3240000D02*
D03*
X11050141Y3877710D02*
D03*
X10853226Y3995741D02*
D03*
X10730000Y3830000D02*
D03*
X10190000Y2760000D02*
D03*
X10390000Y2780000D02*
D03*
X10270000Y2830000D02*
D03*
X19330661Y4262177D02*
D03*
X19400000Y4250000D02*
D03*
X13239999Y2830000D02*
D03*
X11675000Y3450000D02*
D03*
X11643516Y3512968D02*
D03*
X10600000Y3490000D02*
D03*
X14280000Y3880000D02*
D03*
Y3750000D02*
D03*
X14230000Y3810000D02*
D03*
X13080000D02*
D03*
X13070000Y3550000D02*
D03*
X13080000Y3420000D02*
D03*
X13130000Y3360000D02*
D03*
Y3620000D02*
D03*
X13080000Y3680000D02*
D03*
X13130000Y3750000D02*
D03*
X14230000Y3680000D02*
D03*
X13130000Y3490000D02*
D03*
X14280000Y3620000D02*
D03*
X11525000Y2750000D02*
D03*
X12671138Y2826931D02*
D03*
X5875000Y3700000D02*
D03*
X6275000Y3600000D02*
D03*
X12075000Y3675000D02*
D03*
X11611858Y4150767D02*
D03*
X11354567Y4092356D02*
D03*
X14230000Y3550000D02*
D03*
Y3420000D02*
D03*
X14280000Y3490000D02*
D03*
X19431483Y4187033D02*
D03*
X4450000Y2825000D02*
D03*
X4500000Y2875000D02*
D03*
X4400000Y2775000D02*
D03*
X19200000Y5400000D02*
D03*
X17100000D02*
D03*
X15000000D02*
D03*
X12900000D02*
D03*
X10800000D02*
D03*
X8700000D02*
D03*
X6600000D02*
D03*
X4500000D02*
D03*
X4325000Y5850000D02*
D03*
X4425679Y5827022D02*
D03*
X6425000Y5850000D02*
D03*
X6525679Y5827022D02*
D03*
X8525000Y5850000D02*
D03*
X8625679Y5827022D02*
D03*
X10625000Y5850000D02*
D03*
X10725679Y5827022D02*
D03*
X12725000Y5850000D02*
D03*
X12825679Y5827022D02*
D03*
X14825000Y5850000D02*
D03*
X14925679Y5827022D02*
D03*
X16925000Y5850000D02*
D03*
X17025679Y5827022D02*
D03*
X19125679D02*
D03*
X19025000Y5850000D02*
D03*
X4750000Y3650000D02*
D03*
X4675000D02*
D03*
X4600000D02*
D03*
X4525000D02*
D03*
Y3575000D02*
D03*
X4600000D02*
D03*
X4675000D02*
D03*
X4750000D02*
D03*
D44*
X9425000Y3945000D02*
D03*
Y3575000D02*
D03*
X8855000Y3945000D02*
D03*
Y3575000D02*
D03*
D45*
X12575000Y4300000D02*
D03*
X12365000D02*
D03*
D46*
X10298221Y3978221D02*
D03*
X10221779Y3901779D02*
D03*
X10586442Y3756442D02*
D03*
X10510000Y3680000D02*
D03*
D47*
X13332486Y3162500D02*
D03*
D48*
Y3227500D02*
D03*
Y3292500D02*
D03*
Y3357500D02*
D03*
Y3422500D02*
D03*
Y3487500D02*
D03*
Y3552500D02*
D03*
Y3617500D02*
D03*
Y3682500D02*
D03*
Y3747500D02*
D03*
Y3812500D02*
D03*
Y3877500D02*
D03*
X14027515D02*
D03*
Y3812500D02*
D03*
Y3747500D02*
D03*
Y3682500D02*
D03*
Y3617500D02*
D03*
Y3552500D02*
D03*
Y3487500D02*
D03*
Y3422500D02*
D03*
Y3357500D02*
D03*
Y3292500D02*
D03*
Y3227500D02*
D03*
Y3162500D02*
D03*
D49*
X10770711Y3245711D02*
D03*
X10629289Y3104289D02*
D03*
D50*
X10897500Y5690086D02*
D03*
X10832500D02*
D03*
X10767500D02*
D03*
X10702500D02*
D03*
Y5259914D02*
D03*
X10767500D02*
D03*
X10832500D02*
D03*
X19232500D02*
D03*
X19167500D02*
D03*
X19102499D02*
D03*
Y5690086D02*
D03*
X19167500D02*
D03*
X19232500D02*
D03*
X19297501D02*
D03*
X6632500Y5259914D02*
D03*
X6567500D02*
D03*
X6502500D02*
D03*
Y5690086D02*
D03*
X6567500D02*
D03*
X6632500D02*
D03*
X6697500D02*
D03*
X17197501D02*
D03*
X17132500D02*
D03*
X17067500D02*
D03*
X17002499D02*
D03*
Y5259914D02*
D03*
X17067500D02*
D03*
X17132500D02*
D03*
X12997501Y5690086D02*
D03*
X12932500D02*
D03*
X12867500D02*
D03*
X12802499D02*
D03*
Y5259914D02*
D03*
X12867500D02*
D03*
X12932500D02*
D03*
X8797500Y5690086D02*
D03*
X8732500D02*
D03*
X8667500D02*
D03*
X8602500D02*
D03*
Y5259914D02*
D03*
X8667500D02*
D03*
X8732500D02*
D03*
X4597500Y5690086D02*
D03*
X4532500D02*
D03*
X4467500D02*
D03*
X4402500D02*
D03*
Y5259914D02*
D03*
X4467500D02*
D03*
X4532500D02*
D03*
X15032500D02*
D03*
X14967500D02*
D03*
X14902499D02*
D03*
Y5690086D02*
D03*
X14967500D02*
D03*
X15032500D02*
D03*
X15097501D02*
D03*
D51*
X10897500Y5259914D02*
D03*
X19297501D02*
D03*
X6697500D02*
D03*
X17197501D02*
D03*
X12997501D02*
D03*
X8797500D02*
D03*
X4597500D02*
D03*
X15097501D02*
D03*
D52*
X9938683Y3172408D02*
D03*
X9712409Y3398683D02*
D03*
X10327591Y3561317D02*
D03*
X10101317Y3787591D02*
D03*
D53*
X19600000Y5760000D02*
D03*
Y5140000D02*
D03*
X7000000Y5760000D02*
D03*
Y5140000D02*
D03*
X9100000Y5760000D02*
D03*
Y5140000D02*
D03*
X17500000D02*
D03*
Y5760000D02*
D03*
X13300000Y5140000D02*
D03*
Y5760000D02*
D03*
X11200000Y5140000D02*
D03*
Y5760000D02*
D03*
X4900000Y5140000D02*
D03*
Y5760000D02*
D03*
X15400000D02*
D03*
Y5140000D02*
D03*
D54*
X3920000Y3805000D02*
D03*
Y3900000D02*
D03*
Y3995000D02*
D03*
X4180000D02*
D03*
Y3900000D02*
D03*
Y3805000D02*
D03*
D55*
X4752000Y3590800D02*
D03*
X4625000D02*
D03*
X4498000D02*
D03*
X4371000D02*
D03*
Y4175000D02*
D03*
X4498000D02*
D03*
X4625000D02*
D03*
X4752000D02*
D03*
D56*
X5775000Y3980000D02*
D03*
Y3270000D02*
D03*
X18300000Y4005000D02*
D03*
Y3295000D02*
D03*
D57*
X10803249Y3483579D02*
D03*
X10838604Y3448223D02*
D03*
X10873959Y3412868D02*
D03*
X10909314Y3377512D02*
D03*
X10944670Y3342157D02*
D03*
X10980025Y3306802D02*
D03*
X11015381Y3271447D02*
D03*
X11050736Y3236091D02*
D03*
X11086091Y3200736D02*
D03*
X11121446Y3165381D02*
D03*
X11156802Y3130025D02*
D03*
X11192157Y3094670D02*
D03*
X11227512Y3059315D02*
D03*
X11262868Y3023959D02*
D03*
X11298223Y2988604D02*
D03*
X11333579Y2953249D02*
D03*
X12146751Y3766421D02*
D03*
X12111396Y3801777D02*
D03*
X12076041Y3837132D02*
D03*
X12040685Y3872487D02*
D03*
X12005330Y3907843D02*
D03*
X11969975Y3943198D02*
D03*
X11934619Y3978553D02*
D03*
X11899264Y4013909D02*
D03*
X11863908Y4049264D02*
D03*
X11828553Y4084619D02*
D03*
X11793198Y4119974D02*
D03*
X11757843Y4155330D02*
D03*
X11722487Y4190685D02*
D03*
X11687132Y4226041D02*
D03*
X11651777Y4261396D02*
D03*
X11616421Y4296751D02*
D03*
D58*
Y2953249D02*
D03*
X11651777Y2988604D02*
D03*
X11687132Y3023959D02*
D03*
X11722487Y3059315D02*
D03*
X11757843Y3094670D02*
D03*
X11793198Y3130025D02*
D03*
X11828553Y3165381D02*
D03*
X11863908Y3200736D02*
D03*
X11899264Y3236091D02*
D03*
X11934619Y3271447D02*
D03*
X11969975Y3306802D02*
D03*
X12005330Y3342157D02*
D03*
X12040685Y3377512D02*
D03*
X12076041Y3412868D02*
D03*
X12111396Y3448223D02*
D03*
X12146751Y3483579D02*
D03*
X11333579Y4296751D02*
D03*
X11298223Y4261396D02*
D03*
X11262868Y4226041D02*
D03*
X11227512Y4190685D02*
D03*
X11192157Y4155330D02*
D03*
X11156802Y4119975D02*
D03*
X11121446Y4084619D02*
D03*
X11086091Y4049264D02*
D03*
X11050736Y4013909D02*
D03*
X11015381Y3978553D02*
D03*
X10980025Y3943198D02*
D03*
X10944670Y3907843D02*
D03*
X10909314Y3872487D02*
D03*
X10873959Y3837132D02*
D03*
X10838604Y3801777D02*
D03*
X10803249Y3766421D02*
D03*
%TF.MD5,5736696d793c2c281bb27a7f98eec0e5*%
M02*
