%TF.GenerationSoftware,Altium Limited,Altium Designer,24.0.1 (36)*%
G04 Layer_Physical_Order=1*
G04 Layer_Color=255*
%FSLAX45Y45*%
%MOMM*%
%TF.SameCoordinates,2C358838-E96C-4A59-A5A0-E9FE71613952*%
%TF.FilePolarity,Positive*%
%TF.FileFunction,Copper,L1,Top,Signal*%
%TF.Part,Single*%
G01*
G75*
%TA.AperFunction,SMDPad,CuDef*%
%ADD10R,0.62213X2.46916*%
G04:AMPARAMS|DCode=11|XSize=2.46916mm|YSize=0.62213mm|CornerRadius=0.31107mm|HoleSize=0mm|Usage=FLASHONLY|Rotation=270.000|XOffset=0mm|YOffset=0mm|HoleType=Round|Shape=RoundedRectangle|*
%AMROUNDEDRECTD11*
21,1,2.46916,0.00000,0,0,270.0*
21,1,1.84702,0.62213,0,0,270.0*
1,1,0.62213,0.00000,-0.92351*
1,1,0.62213,0.00000,0.92351*
1,1,0.62213,0.00000,0.92351*
1,1,0.62213,0.00000,-0.92351*
%
%ADD11ROUNDEDRECTD11*%
%ADD12R,1.71550X2.18000*%
%ADD13R,1.30464X1.45620*%
G04:AMPARAMS|DCode=14|XSize=1.30464mm|YSize=1.4562mm|CornerRadius=0mm|HoleSize=0mm|Usage=FLASHONLY|Rotation=315.000|XOffset=0mm|YOffset=0mm|HoleType=Round|Shape=Rectangle|*
%AMROTATEDRECTD14*
4,1,4,-0.97610,-0.05359,0.05359,0.97610,0.97610,0.05359,-0.05359,-0.97610,-0.97610,-0.05359,0.0*
%
%ADD14ROTATEDRECTD14*%

G04:AMPARAMS|DCode=15|XSize=1.30464mm|YSize=1.4562mm|CornerRadius=0mm|HoleSize=0mm|Usage=FLASHONLY|Rotation=225.000|XOffset=0mm|YOffset=0mm|HoleType=Round|Shape=Rectangle|*
%AMROTATEDRECTD15*
4,1,4,-0.05359,0.97610,0.97610,-0.05359,0.05359,-0.97610,-0.97610,0.05359,-0.05359,0.97610,0.0*
%
%ADD15ROTATEDRECTD15*%

G04:AMPARAMS|DCode=16|XSize=1.35mm|YSize=1.1mm|CornerRadius=0mm|HoleSize=0mm|Usage=FLASHONLY|Rotation=225.000|XOffset=0mm|YOffset=0mm|HoleType=Round|Shape=Rectangle|*
%AMROTATEDRECTD16*
4,1,4,0.08839,0.86621,0.86621,0.08839,-0.08839,-0.86621,-0.86621,-0.08839,0.08839,0.86621,0.0*
%
%ADD16ROTATEDRECTD16*%

%ADD17R,1.45620X1.30464*%
%ADD18R,2.18000X1.71550*%
%ADD19R,1.20000X1.45000*%
%ADD20R,1.11760X0.45720*%
%ADD21R,1.80000X4.00000*%
G04:AMPARAMS|DCode=22|XSize=2mm|YSize=1.2mm|CornerRadius=0mm|HoleSize=0mm|Usage=FLASHONLY|Rotation=225.000|XOffset=0mm|YOffset=0mm|HoleType=Round|Shape=Rectangle|*
%AMROTATEDRECTD22*
4,1,4,0.28284,1.13137,1.13137,0.28284,-0.28284,-1.13137,-1.13137,-0.28284,0.28284,1.13137,0.0*
%
%ADD22ROTATEDRECTD22*%

G04:AMPARAMS|DCode=23|XSize=0.75mm|YSize=0.9mm|CornerRadius=0mm|HoleSize=0mm|Usage=FLASHONLY|Rotation=45.000|XOffset=0mm|YOffset=0mm|HoleType=Round|Shape=Rectangle|*
%AMROTATEDRECTD23*
4,1,4,0.05303,-0.58336,-0.58336,0.05303,-0.05303,0.58336,0.58336,-0.05303,0.05303,-0.58336,0.0*
%
%ADD23ROTATEDRECTD23*%

%ADD24R,2.40000X1.00000*%
%ADD25R,6.80000X5.55000*%
%ADD26R,1.45000X1.20000*%
G04:AMPARAMS|DCode=27|XSize=1.45mm|YSize=0.3mm|CornerRadius=0.0495mm|HoleSize=0mm|Usage=FLASHONLY|Rotation=270.000|XOffset=0mm|YOffset=0mm|HoleType=Round|Shape=RoundedRectangle|*
%AMROUNDEDRECTD27*
21,1,1.45000,0.20100,0,0,270.0*
21,1,1.35100,0.30000,0,0,270.0*
1,1,0.09900,-0.10050,-0.67550*
1,1,0.09900,-0.10050,0.67550*
1,1,0.09900,0.10050,0.67550*
1,1,0.09900,0.10050,-0.67550*
%
%ADD27ROUNDEDRECTD27*%
G04:AMPARAMS|DCode=28|XSize=1.1mm|YSize=0.6mm|CornerRadius=0.051mm|HoleSize=0mm|Usage=FLASHONLY|Rotation=270.000|XOffset=0mm|YOffset=0mm|HoleType=Round|Shape=RoundedRectangle|*
%AMROUNDEDRECTD28*
21,1,1.10000,0.49800,0,0,270.0*
21,1,0.99800,0.60000,0,0,270.0*
1,1,0.10200,-0.24900,-0.49900*
1,1,0.10200,-0.24900,0.49900*
1,1,0.10200,0.24900,0.49900*
1,1,0.10200,0.24900,-0.49900*
%
%ADD28ROUNDEDRECTD28*%
%TA.AperFunction,Conductor*%
%ADD29C,0.18000*%
%ADD30C,0.50000*%
%ADD31C,1.00000*%
%ADD32C,0.35000*%
%TA.AperFunction,ComponentPad*%
%ADD33C,2.00000*%
%ADD34R,1.50000X1.50000*%
%ADD35C,1.50000*%
%ADD36R,6.50000X6.50000*%
%ADD37C,1.60000*%
%ADD38R,1.60000X1.60000*%
G04:AMPARAMS|DCode=39|XSize=5mm|YSize=5mm|CornerRadius=1.25mm|HoleSize=0mm|Usage=FLASHONLY|Rotation=90.000|XOffset=0mm|YOffset=0mm|HoleType=Round|Shape=RoundedRectangle|*
%AMROUNDEDRECTD39*
21,1,5.00000,2.50000,0,0,90.0*
21,1,2.50000,5.00000,0,0,90.0*
1,1,2.50000,1.25000,1.25000*
1,1,2.50000,1.25000,-1.25000*
1,1,2.50000,-1.25000,-1.25000*
1,1,2.50000,-1.25000,1.25000*
%
%ADD39ROUNDEDRECTD39*%
%ADD40R,1.60000X1.60000*%
%TA.AperFunction,ViaPad*%
%ADD41C,0.35000*%
%ADD42C,0.50000*%
%ADD43C,0.45000*%
G36*
X21061562Y2638438D02*
X14586322D01*
X14581462Y2650172D01*
X14614597Y2683307D01*
X14616547Y2682500D01*
X14633453D01*
X14649074Y2688970D01*
X14661031Y2700926D01*
X14667500Y2716546D01*
Y2733454D01*
X14661031Y2749074D01*
X14649074Y2761030D01*
X14633453Y2767500D01*
X14616547D01*
X14600926Y2761030D01*
X14588969Y2749074D01*
X14582500Y2733454D01*
Y2716546D01*
X14583307Y2714597D01*
X14544136Y2675425D01*
X12542805D01*
X12532000Y2680000D01*
X12532000Y2688125D01*
Y2820117D01*
X12543733Y2824977D01*
X12634355Y2734355D01*
X12641533Y2729559D01*
X12650000Y2727875D01*
X12688163D01*
X12688970Y2725926D01*
X12700926Y2713970D01*
X12716546Y2707500D01*
X12733454D01*
X12749074Y2713970D01*
X12761030Y2725926D01*
X12767500Y2741546D01*
Y2758454D01*
X12761030Y2774074D01*
X12749074Y2786030D01*
X12733454Y2792500D01*
X12716546D01*
X12713515Y2791244D01*
X12706322Y2802011D01*
X12707167Y2802857D01*
X12713638Y2818477D01*
Y2835385D01*
X12707167Y2851005D01*
X12695212Y2862961D01*
X12679591Y2869431D01*
X12662684D01*
X12662101Y2869189D01*
X12609148Y2922141D01*
X12614009Y2933875D01*
X12855275D01*
X13034961Y2754189D01*
X13042139Y2749393D01*
X13050606Y2747709D01*
X13117188D01*
X13125926Y2738970D01*
X13141547Y2732500D01*
X13158453D01*
X13174074Y2738970D01*
X13186031Y2750926D01*
X13192500Y2766546D01*
Y2783454D01*
X13189182Y2791463D01*
X13195482Y2803931D01*
X13196983Y2804284D01*
X13205376Y2804520D01*
X13215926Y2793970D01*
X13231546Y2787500D01*
X13248454D01*
X13264075Y2793970D01*
X13276030Y2805926D01*
X13282500Y2821546D01*
Y2838454D01*
X13276030Y2854074D01*
X13264075Y2866030D01*
X13248454Y2872500D01*
X13231546D01*
X13215926Y2866030D01*
X13203970Y2854074D01*
X13203163Y2852125D01*
X13182359D01*
X13182036Y2852341D01*
X13173569Y2854025D01*
X13097266D01*
X12973952Y2977338D01*
X12978812Y2989072D01*
X15403000D01*
X15427464Y2993938D01*
X15448204Y3007796D01*
X15851070Y3410662D01*
X15864928Y3431402D01*
X15869795Y3455866D01*
Y3462769D01*
X15871320Y3463178D01*
X15898682Y3478976D01*
X15921024Y3501318D01*
X15926656Y3511072D01*
X16370520D01*
X16512300Y3369292D01*
Y3334300D01*
X16561072D01*
Y3183510D01*
X16539490D01*
Y3029654D01*
X16532190D01*
Y2954422D01*
X16625000D01*
X16717810D01*
Y3029654D01*
X16710510D01*
Y3183510D01*
X16688928D01*
Y3334300D01*
X16777699D01*
Y3459700D01*
X16602708D01*
X16442204Y3620204D01*
X16421465Y3634062D01*
X16397000Y3638928D01*
X15926656D01*
X15921024Y3648682D01*
X15898682Y3671024D01*
X15871320Y3686822D01*
X15840797Y3695000D01*
X15809203D01*
X15778682Y3686822D01*
X15751318Y3671024D01*
X15728976Y3648682D01*
X15713177Y3621318D01*
X15705000Y3590798D01*
Y3559202D01*
X15713177Y3528682D01*
X15728976Y3501318D01*
X15741937Y3488356D01*
Y3482346D01*
X15376520Y3116928D01*
X8178000D01*
X8153535Y3112062D01*
X8132796Y3098204D01*
X7823520Y2788928D01*
X7782065D01*
X7780467Y2801559D01*
X7787645Y2806355D01*
X8129165Y3147875D01*
X11645000D01*
X11653467Y3149559D01*
X11660645Y3154355D01*
X11690645Y3184355D01*
X11695441Y3191533D01*
X11697125Y3200000D01*
Y3413163D01*
X11699074Y3413970D01*
X11711030Y3425926D01*
X11717500Y3441546D01*
Y3458454D01*
X11711030Y3474074D01*
X11699074Y3486030D01*
X11693126Y3488493D01*
X11685900Y3504233D01*
X11686016Y3504514D01*
Y3521421D01*
X11679546Y3537042D01*
X11667590Y3548997D01*
X11651970Y3555467D01*
X11635063D01*
X11619442Y3548997D01*
X11607487Y3537042D01*
X11601016Y3521421D01*
Y3504514D01*
X11601824Y3502565D01*
X11584355Y3485096D01*
X11579559Y3477918D01*
X11577875Y3469451D01*
Y3425000D01*
X11579559Y3416533D01*
X11584355Y3409355D01*
X11602875Y3390835D01*
Y3234165D01*
X11590835Y3222125D01*
X10459972D01*
X10455111Y3233858D01*
X10491578Y3270325D01*
X10433022Y3328881D01*
X10379826Y3275684D01*
X10421651Y3233858D01*
X10416791Y3222125D01*
X8110402D01*
X8101935Y3220441D01*
X8094757Y3215645D01*
X7751237Y2872125D01*
X7418017D01*
X7415491Y2884825D01*
X7448126Y2898343D01*
X7478415Y2921585D01*
X7501657Y2951874D01*
X7516268Y2987147D01*
X7521251Y3025000D01*
Y3275000D01*
X7516268Y3312853D01*
X7501657Y3348126D01*
X7478415Y3378415D01*
X7448126Y3401657D01*
X7412853Y3416268D01*
X7375000Y3421251D01*
X7125000D01*
X7087147Y3416268D01*
X7051874Y3401657D01*
X7021585Y3378415D01*
X6998343Y3348126D01*
X6983732Y3312853D01*
X6978749Y3275000D01*
Y3025000D01*
X6983732Y2987147D01*
X6998343Y2951874D01*
X7021585Y2921585D01*
X7051874Y2898343D01*
X7084509Y2884825D01*
X7081983Y2872125D01*
X6759165D01*
X6572125Y3059165D01*
Y3650000D01*
X6570441Y3658467D01*
X6565645Y3665645D01*
X6424285Y3807005D01*
X6417107Y3811801D01*
X6408640Y3813485D01*
X6384307D01*
Y3927518D01*
X6296693D01*
Y3655202D01*
X6384307D01*
Y3769235D01*
X6399476D01*
X6527875Y3640836D01*
Y3545008D01*
X6516142Y3540148D01*
X6440645Y3615645D01*
X6433467Y3620441D01*
X6425000Y3622125D01*
X6311837D01*
X6311030Y3624074D01*
X6299074Y3636030D01*
X6283454Y3642500D01*
X6266546D01*
X6250926Y3636030D01*
X6238970Y3624074D01*
X6232500Y3608454D01*
Y3591546D01*
X6238970Y3575926D01*
X6250926Y3563970D01*
X6266546Y3557500D01*
X6283454D01*
X6299074Y3563970D01*
X6311030Y3575926D01*
X6311837Y3577875D01*
X6415836D01*
X6499875Y3493835D01*
Y3038402D01*
X6501559Y3029935D01*
X6506355Y3022757D01*
X6722757Y2806355D01*
X6729935Y2801559D01*
X6728337Y2788928D01*
X5801480D01*
X5695000Y2895408D01*
Y2995000D01*
X5505000D01*
Y2805000D01*
X5604592D01*
X5729796Y2679796D01*
X5750536Y2665938D01*
X5775000Y2661072D01*
X7850000D01*
X7874464Y2665938D01*
X7895204Y2679796D01*
X8204480Y2989072D01*
X10531628D01*
X10536489Y2977338D01*
X10451276Y2892125D01*
X10310000D01*
X10301533Y2890441D01*
X10294355Y2885645D01*
X10280403Y2871693D01*
X10278454Y2872500D01*
X10261546D01*
X10245926Y2866030D01*
X10233970Y2854074D01*
X10227500Y2838454D01*
Y2821546D01*
X10233970Y2805926D01*
X10245071Y2794825D01*
X10244684Y2790767D01*
X10241336Y2782125D01*
X10226837D01*
X10226030Y2784074D01*
X10214074Y2796030D01*
X10198454Y2802500D01*
X10181546D01*
X10165926Y2796030D01*
X10153970Y2784074D01*
X10147500Y2768454D01*
Y2751546D01*
X10153970Y2735926D01*
X10165926Y2723970D01*
X10181546Y2717500D01*
X10198454D01*
X10214074Y2723970D01*
X10226030Y2735926D01*
X10226837Y2737875D01*
X10362694D01*
X10371161Y2739559D01*
X10373233Y2740944D01*
X10381546Y2737500D01*
X10398454D01*
X10414074Y2743970D01*
X10426030Y2755926D01*
X10426837Y2757875D01*
X10470000D01*
X10478467Y2759559D01*
X10485645Y2764355D01*
X10655165Y2933875D01*
X10907991D01*
X10912852Y2922141D01*
X10860710Y2870000D01*
X10680000D01*
Y2680000D01*
X10870000D01*
Y2816710D01*
X10959165Y2905875D01*
X11133991D01*
X11138852Y2894142D01*
X11091530Y2846820D01*
X11087331Y2851019D01*
X11065668Y2863526D01*
X11041507Y2870000D01*
X11016493D01*
X10992332Y2863526D01*
X10970669Y2851019D01*
X10952981Y2833331D01*
X10940474Y2811668D01*
X10934000Y2787507D01*
Y2762493D01*
X10940474Y2738332D01*
X10952981Y2716669D01*
X10970669Y2698981D01*
X10992332Y2686474D01*
X11016493Y2680000D01*
X11041507D01*
X11065668Y2686474D01*
X11087331Y2698981D01*
X11105019Y2716669D01*
X11117526Y2738332D01*
X11124000Y2762493D01*
Y2787507D01*
X11117828Y2810539D01*
X11185165Y2877875D01*
X11896814D01*
X11898486Y2865175D01*
X11892332Y2863526D01*
X11870669Y2851019D01*
X11852981Y2833331D01*
X11840474Y2811668D01*
X11834000Y2787507D01*
Y2762493D01*
X11840474Y2738332D01*
X11852981Y2716669D01*
X11870669Y2698981D01*
X11889472Y2688125D01*
X11886367Y2675425D01*
X11630865D01*
X11566693Y2739597D01*
X11567500Y2741546D01*
Y2758454D01*
X11561030Y2774074D01*
X11549074Y2786030D01*
X11533454Y2792500D01*
X11516546D01*
X11500926Y2786030D01*
X11488970Y2774074D01*
X11482500Y2758454D01*
Y2741546D01*
X11488970Y2725926D01*
X11500926Y2713970D01*
X11516546Y2707500D01*
X11533454D01*
X11535403Y2708308D01*
X11593539Y2650172D01*
X11588678Y2638438D01*
X2638438D01*
Y6361561D01*
X21061562D01*
Y2638438D01*
D02*
G37*
G36*
X12342000Y2870000D02*
Y2688125D01*
X12342000Y2680000D01*
X12331195Y2675425D01*
X12225633D01*
X12222528Y2688125D01*
X12241331Y2698981D01*
X12259019Y2716669D01*
X12271526Y2738332D01*
X12278000Y2762493D01*
Y2787507D01*
X12271526Y2811668D01*
X12259019Y2833331D01*
X12241331Y2851019D01*
X12219668Y2863526D01*
X12213514Y2865175D01*
X12215186Y2877875D01*
X12332562D01*
X12342000Y2870000D01*
D02*
G37*
G36*
X12152486Y2865175D02*
X12146332Y2863526D01*
X12124669Y2851019D01*
X12106981Y2833331D01*
X12094474Y2811668D01*
X12088000Y2787507D01*
Y2762493D01*
X12094474Y2738332D01*
X12106981Y2716669D01*
X12124669Y2698981D01*
X12143472Y2688125D01*
X12140367Y2675425D01*
X11971633D01*
X11968528Y2688125D01*
X11987331Y2698981D01*
X12005019Y2716669D01*
X12017526Y2738332D01*
X12024000Y2762493D01*
Y2787507D01*
X12017526Y2811668D01*
X12005019Y2833331D01*
X11987331Y2851019D01*
X11965668Y2863526D01*
X11959514Y2865175D01*
X11961186Y2877875D01*
X12150814D01*
X12152486Y2865175D01*
D02*
G37*
%LPC*%
G36*
X4592810Y5640810D02*
X4510000D01*
Y5565579D01*
X4592810D01*
Y5640810D01*
D02*
G37*
G36*
X12992810D02*
X12909999D01*
Y5565578D01*
X12992810D01*
Y5640810D01*
D02*
G37*
G36*
X20590797Y5795000D02*
X20559203D01*
X20528682Y5786822D01*
X20501318Y5771024D01*
X20478976Y5748682D01*
X20463177Y5721319D01*
X20455000Y5690798D01*
Y5659202D01*
X20463177Y5628682D01*
X20478976Y5601318D01*
X20501318Y5578976D01*
X20528682Y5563178D01*
X20559203Y5555000D01*
X20590797D01*
X20621318Y5563178D01*
X20648682Y5578976D01*
X20671024Y5601318D01*
X20686823Y5628682D01*
X20695000Y5659202D01*
Y5690798D01*
X20686823Y5721319D01*
X20671024Y5748682D01*
X20648682Y5771024D01*
X20621318Y5786822D01*
X20590797Y5795000D01*
D02*
G37*
G36*
X12645000Y6145000D02*
X11955000D01*
Y5455000D01*
X12645000D01*
Y6145000D01*
D02*
G37*
G36*
X4525000Y6305792D02*
X4513217Y6303447D01*
X4503227Y6296773D01*
X3948227Y5741773D01*
X3941552Y5731783D01*
X3939209Y5720000D01*
Y4850000D01*
X3941552Y4838217D01*
X3948227Y4828227D01*
X4700014Y4076441D01*
X4694747Y4063747D01*
X4240000D01*
X4237473Y4062700D01*
X4232300D01*
Y4060557D01*
X4230280Y4059720D01*
X4226253Y4050000D01*
Y3872125D01*
X4075000D01*
X4066533Y3870441D01*
X4059355Y3865645D01*
X4034355Y3840645D01*
X4032056Y3837203D01*
X4030640Y3836748D01*
X4019360D01*
X4017944Y3837203D01*
X4015645Y3840645D01*
X3990645Y3865645D01*
X3983467Y3870441D01*
X3975000Y3872125D01*
X3823746D01*
Y4069999D01*
X3823747Y4070000D01*
X3819720Y4079720D01*
X3709720Y4189720D01*
X3700000Y4193747D01*
X3699999Y4193747D01*
X3520000D01*
Y4195000D01*
X2830000D01*
Y4189046D01*
X2826253Y4180000D01*
Y3520000D01*
X2830000Y3510954D01*
Y3505000D01*
X3520000D01*
Y3506254D01*
X3680000D01*
X3689720Y3510280D01*
X3816741Y3637300D01*
X3817700D01*
Y3638259D01*
X3819720Y3640280D01*
X3823747Y3650000D01*
X3823746Y3650001D01*
Y3827875D01*
X3965835D01*
X3977875Y3815835D01*
Y3625709D01*
X3977225Y3625275D01*
X3973324Y3619437D01*
X3971954Y3612550D01*
Y3477450D01*
X3973324Y3470563D01*
X3977225Y3464725D01*
X3983063Y3460824D01*
X3989950Y3459454D01*
X4010050D01*
X4016937Y3460824D01*
X4025000Y3463881D01*
X4033064Y3460824D01*
X4039950Y3459454D01*
X4060050D01*
X4066937Y3460824D01*
X4075000Y3463881D01*
X4083063Y3460824D01*
X4089950Y3459454D01*
X4110050D01*
X4116937Y3460824D01*
X4119782Y3462725D01*
X4121962Y3459462D01*
X4130215Y3453948D01*
X4134268Y3453141D01*
X4138934Y3439846D01*
X3962044Y3262956D01*
X3949300Y3250213D01*
X3835510D01*
Y3295346D01*
X3842810D01*
Y3370578D01*
X3750000D01*
X3657190D01*
Y3295346D01*
X3664490D01*
Y3141490D01*
X3835510D01*
Y3188630D01*
X3962055D01*
X3964521Y3189121D01*
X3969262Y3183905D01*
X3973011Y3177861D01*
X3971954Y3172550D01*
Y3037450D01*
X3973324Y3030563D01*
X3977225Y3024725D01*
X3977875Y3024291D01*
Y2910200D01*
X3927300D01*
Y2739800D01*
X4072700D01*
Y2910200D01*
X4022125D01*
Y3012858D01*
X4030160Y3018710D01*
X4034825Y3020474D01*
X4039950Y3019454D01*
X4060050D01*
X4066937Y3020824D01*
X4072883Y3023079D01*
X4084357Y3016575D01*
X4085559Y3010533D01*
X4090355Y3003355D01*
X4170810Y2922900D01*
X4165550Y2910200D01*
X4127300D01*
Y2739800D01*
X4272700D01*
Y2802875D01*
X4340836D01*
X4358308Y2785403D01*
X4357500Y2783454D01*
Y2766546D01*
X4363970Y2750926D01*
X4375926Y2738970D01*
X4391546Y2732500D01*
X4408454D01*
X4424074Y2738970D01*
X4436030Y2750926D01*
X4442500Y2766546D01*
Y2782500D01*
X4458454D01*
X4474074Y2788970D01*
X4486030Y2800926D01*
X4492500Y2816546D01*
Y2832500D01*
X4508454D01*
X4524074Y2838970D01*
X4536030Y2850926D01*
X4542500Y2866546D01*
Y2883454D01*
X4536030Y2899074D01*
X4524074Y2911030D01*
X4508454Y2917500D01*
X4491546D01*
X4489597Y2916693D01*
X4285645Y3120645D01*
X4278467Y3125441D01*
X4270000Y3127125D01*
X4228046D01*
Y3172550D01*
X4226676Y3179437D01*
X4222775Y3185275D01*
X4216937Y3189176D01*
X4210050Y3190546D01*
X4189950D01*
X4183063Y3189176D01*
X4175000Y3186119D01*
X4166936Y3189176D01*
X4160050Y3190546D01*
X4139950D01*
X4133063Y3189176D01*
X4125000Y3186119D01*
X4116936Y3189176D01*
X4110050Y3190546D01*
X4089950D01*
X4083063Y3189176D01*
X4075000Y3186119D01*
X4066936Y3189176D01*
X4060050Y3190546D01*
X4039950D01*
X4034825Y3189526D01*
X4030160Y3191290D01*
X4022125Y3197141D01*
Y3225000D01*
X4020441Y3233467D01*
X4020123Y3233944D01*
X4215254Y3429075D01*
X5556011D01*
X5561272Y3416375D01*
X5558971Y3414074D01*
X5552500Y3398454D01*
Y3381546D01*
X5558971Y3365926D01*
X5564100Y3360797D01*
X5569898Y3352500D01*
X5564100Y3344203D01*
X5558971Y3339074D01*
X5552500Y3323454D01*
Y3306546D01*
X5558971Y3290926D01*
X5564100Y3285797D01*
X5569898Y3277500D01*
X5564100Y3269203D01*
X5558971Y3264074D01*
X5552500Y3248454D01*
Y3231546D01*
X5558971Y3215926D01*
X5564100Y3210797D01*
X5569898Y3202500D01*
X5564100Y3194203D01*
X5558971Y3189074D01*
X5552500Y3173454D01*
Y3156546D01*
X5558971Y3140926D01*
X5570926Y3128970D01*
X5586547Y3122500D01*
X5603454D01*
X5619074Y3128970D01*
X5624203Y3134099D01*
X5632500Y3139898D01*
X5640797Y3134099D01*
X5645926Y3128970D01*
X5661546Y3122500D01*
X5678454D01*
X5694074Y3128970D01*
X5699203Y3134100D01*
X5707500Y3139898D01*
X5715797Y3134100D01*
X5720926Y3128970D01*
X5736547Y3122500D01*
X5753454D01*
X5769074Y3128970D01*
X5774203Y3134099D01*
X5782500Y3139898D01*
X5790797Y3134099D01*
X5795926Y3128970D01*
X5811546Y3122500D01*
X5828454D01*
X5844074Y3128970D01*
X5845175Y3130071D01*
X5857875Y3124810D01*
Y2995000D01*
X5841493D01*
X5817332Y2988526D01*
X5795669Y2976019D01*
X5777981Y2958331D01*
X5765474Y2936668D01*
X5759000Y2912507D01*
Y2887493D01*
X5765474Y2863332D01*
X5777981Y2841669D01*
X5795669Y2823981D01*
X5817332Y2811474D01*
X5841493Y2805000D01*
X5866507D01*
X5890668Y2811474D01*
X5912331Y2823981D01*
X5930019Y2841669D01*
X5942526Y2863332D01*
X5949000Y2887493D01*
Y2912507D01*
X5942526Y2936668D01*
X5930019Y2958331D01*
X5912331Y2976019D01*
X5902125Y2981911D01*
Y3460291D01*
X5919709Y3477875D01*
X6105327D01*
X6171054Y3412148D01*
X6168835Y3400991D01*
Y3216289D01*
X6172235Y3199197D01*
X6181917Y3184706D01*
X6196407Y3175024D01*
X6213500Y3171624D01*
X6230592Y3175024D01*
X6245083Y3184706D01*
X6254765Y3199197D01*
X6258165Y3216289D01*
Y3400991D01*
X6254765Y3418084D01*
X6245083Y3432574D01*
X6230592Y3442256D01*
X6213500Y3445656D01*
X6202344Y3443437D01*
X6130136Y3515645D01*
X6122958Y3520441D01*
X6114491Y3522125D01*
X5910544D01*
X5902077Y3520441D01*
X5894899Y3515645D01*
X5864355Y3485101D01*
X5859559Y3477923D01*
X5857875Y3469456D01*
Y3430190D01*
X5845175Y3424929D01*
X5844074Y3426030D01*
X5828454Y3432500D01*
X5811546D01*
X5795926Y3426030D01*
X5790797Y3420901D01*
X5782500Y3415102D01*
X5774203Y3420901D01*
X5769074Y3426030D01*
X5753454Y3432500D01*
X5736547D01*
X5720926Y3426030D01*
X5715797Y3420900D01*
X5707500Y3415102D01*
X5699203Y3420900D01*
X5694074Y3426030D01*
X5678454Y3432500D01*
X5669006D01*
X5663746Y3445200D01*
X5787754Y3569209D01*
X5987491D01*
X5999275Y3571552D01*
X6009264Y3578227D01*
X6085566Y3654530D01*
X6086500Y3654344D01*
X6103592Y3657744D01*
X6118083Y3667426D01*
X6127765Y3681916D01*
X6131165Y3699009D01*
Y3883711D01*
X6127765Y3900803D01*
X6122602Y3908531D01*
Y4064490D01*
X6145346D01*
Y4057190D01*
X6220579D01*
Y4150000D01*
Y4242810D01*
X6145346D01*
Y4235510D01*
X5991490D01*
Y4064490D01*
X6045725D01*
Y3901536D01*
X6045235Y3900803D01*
X6041835Y3883711D01*
Y3699009D01*
X6042021Y3698075D01*
X5974737Y3630791D01*
X5775001D01*
X5775000Y3630792D01*
X5763217Y3628447D01*
X5753227Y3621773D01*
X5622112Y3490658D01*
X5070791D01*
Y3779999D01*
X5070792Y3780000D01*
X5068448Y3791783D01*
X5061773Y3801773D01*
X5061772Y3801773D01*
X4000791Y4862754D01*
Y5707246D01*
X4537754Y6244208D01*
X5446209D01*
Y5620277D01*
X5438402Y5618185D01*
X5415599Y5605020D01*
X5396981Y5586401D01*
X5383815Y5563598D01*
X5377000Y5538165D01*
Y5511835D01*
X5383815Y5486402D01*
X5396981Y5463599D01*
X5415599Y5444980D01*
X5427839Y5437913D01*
X5424436Y5425213D01*
X5323000D01*
Y5625000D01*
X5123000D01*
Y5563439D01*
X5022700D01*
Y5610200D01*
X4877300D01*
Y5439800D01*
X5022700D01*
Y5486562D01*
X5123000D01*
Y5425213D01*
X4585510D01*
Y5470346D01*
X4592810D01*
Y5545579D01*
X4500000D01*
Y5555579D01*
X4490000D01*
Y5640810D01*
X4454022D01*
X4447840Y5649443D01*
X4446452Y5653510D01*
X4447805Y5660312D01*
Y5790185D01*
X4449754Y5790992D01*
X4461709Y5802948D01*
X4468179Y5818568D01*
Y5835476D01*
X4462537Y5849097D01*
X4467602Y5861797D01*
X4631913D01*
X4777875Y5715835D01*
Y5610200D01*
X4677300D01*
Y5439800D01*
X4822700D01*
Y5610200D01*
X4822125D01*
Y5725000D01*
X4820441Y5733467D01*
X4815645Y5740645D01*
X4656723Y5899567D01*
X4649545Y5904363D01*
X4641078Y5906047D01*
X4361081D01*
X4352615Y5904363D01*
X4345437Y5899567D01*
X4336930Y5891060D01*
X4333454Y5892500D01*
X4316547D01*
X4300926Y5886030D01*
X4288971Y5874074D01*
X4282500Y5858454D01*
Y5841546D01*
X4288971Y5825926D01*
X4300926Y5813970D01*
X4302875Y5813163D01*
Y4975000D01*
X4304559Y4966533D01*
X4309355Y4959355D01*
X4734355Y4534355D01*
X4741533Y4529559D01*
X4750000Y4527875D01*
X7081983D01*
X7084509Y4515175D01*
X7051874Y4501657D01*
X7021585Y4478415D01*
X6998343Y4448125D01*
X6983732Y4412852D01*
X6978749Y4375000D01*
Y4125000D01*
X6983732Y4087147D01*
X6998343Y4051874D01*
X7021585Y4021585D01*
X7051874Y3998343D01*
X7087147Y3983732D01*
X7125000Y3978749D01*
X7375000D01*
X7412853Y3983732D01*
X7448126Y3998343D01*
X7478415Y4021585D01*
X7501657Y4051874D01*
X7516268Y4087147D01*
X7521251Y4125000D01*
Y4375000D01*
X7516268Y4412852D01*
X7501657Y4448125D01*
X7478415Y4478415D01*
X7448126Y4501657D01*
X7415491Y4515175D01*
X7418017Y4527875D01*
X7490835D01*
X7734355Y4284355D01*
X7741533Y4279559D01*
X7750000Y4277875D01*
X11610748D01*
X11616008Y4265175D01*
X11502452Y4151619D01*
X11611245Y4042826D01*
X11606083Y4037664D01*
X11659280Y3984467D01*
X11724906Y4050094D01*
X11790533Y4115720D01*
X11737336Y4168917D01*
X11732174Y4163755D01*
X11630754Y4265175D01*
X11636015Y4277875D01*
X11990835D01*
X12924355Y3344355D01*
X12931532Y3339559D01*
X12939999Y3337875D01*
X13093163D01*
X13093970Y3335926D01*
X13105927Y3323970D01*
X13121545Y3317500D01*
X13138454D01*
X13154074Y3323970D01*
X13166029Y3335926D01*
X13172501Y3351546D01*
Y3368454D01*
X13166029Y3384074D01*
X13154074Y3396030D01*
X13138454Y3402500D01*
X13132500D01*
X13122501Y3411547D01*
Y3428454D01*
X13119524Y3435638D01*
X13128357Y3447500D01*
X13138454D01*
X13154074Y3453970D01*
X13166029Y3465926D01*
X13172501Y3481547D01*
Y3498454D01*
X13166029Y3514074D01*
X13154074Y3526030D01*
X13138454Y3532500D01*
X13121545D01*
X13121432Y3532453D01*
X13112453Y3541434D01*
X13112500Y3541546D01*
Y3558454D01*
X13107976Y3569374D01*
X13117535Y3579161D01*
X13121545Y3577500D01*
X13138454D01*
X13154074Y3583970D01*
X13166029Y3595926D01*
X13172501Y3611546D01*
Y3628453D01*
X13166029Y3644074D01*
X13154074Y3656030D01*
X13138454Y3662500D01*
X13132500D01*
X13122501Y3671547D01*
Y3688454D01*
X13119524Y3695638D01*
X13128357Y3707500D01*
X13138454D01*
X13154074Y3713970D01*
X13166029Y3725926D01*
X13172501Y3741546D01*
Y3758454D01*
X13166029Y3774074D01*
X13154074Y3786030D01*
X13138454Y3792500D01*
X13132500D01*
X13122501Y3801547D01*
Y3818454D01*
X13116029Y3834074D01*
X13104074Y3846030D01*
X13088454Y3852500D01*
X13071545D01*
X13055927Y3846030D01*
X13045593Y3835697D01*
X12215645Y4665645D01*
X12208467Y4670441D01*
X12200000Y4672125D01*
X10709165D01*
X10697125Y4684165D01*
Y5127875D01*
X11027300D01*
Y5064800D01*
X11172700D01*
Y5235200D01*
X11027300D01*
Y5172125D01*
X10697125D01*
Y5455045D01*
X10709825Y5462762D01*
X10714490Y5460340D01*
Y5316490D01*
X10885510D01*
Y5363630D01*
X11746209D01*
Y5070277D01*
X11738402Y5068185D01*
X11715599Y5055020D01*
X11696981Y5036401D01*
X11683815Y5013598D01*
X11677001Y4988165D01*
Y4961835D01*
X11683815Y4936402D01*
X11696981Y4913599D01*
X11715599Y4894980D01*
X11738402Y4881815D01*
X11763835Y4875000D01*
X11790166D01*
X11815599Y4881815D01*
X11838402Y4894980D01*
X11857020Y4913599D01*
X11870185Y4936402D01*
X11877000Y4961835D01*
Y4988165D01*
X11870185Y5013598D01*
X11857020Y5036401D01*
X11838402Y5055020D01*
X11815599Y5068185D01*
X11807792Y5070277D01*
Y5400000D01*
Y5429723D01*
X11815599Y5431815D01*
X11838402Y5444980D01*
X11857020Y5463599D01*
X11870185Y5486402D01*
X11877000Y5511835D01*
Y5538165D01*
X11870185Y5563598D01*
X11857020Y5586401D01*
X11838402Y5605020D01*
X11815599Y5618185D01*
X11807792Y5620277D01*
Y6244208D01*
X13846210D01*
Y5620277D01*
X13838402Y5618185D01*
X13815599Y5605020D01*
X13796980Y5586401D01*
X13783815Y5563598D01*
X13777000Y5538165D01*
Y5511835D01*
X13783815Y5486402D01*
X13796980Y5463599D01*
X13815599Y5444980D01*
X13827840Y5437913D01*
X13824435Y5425213D01*
X13723000D01*
Y5625000D01*
X13523000D01*
Y5563439D01*
X13422701D01*
Y5610200D01*
X13277299D01*
Y5439800D01*
X13422701D01*
Y5486562D01*
X13523000D01*
Y5425213D01*
X12985510D01*
Y5470346D01*
X12992810D01*
Y5545578D01*
X12899998D01*
Y5555578D01*
X12889999D01*
Y5640810D01*
X12854022D01*
X12847839Y5649443D01*
X12846452Y5653510D01*
X12847804Y5660312D01*
Y5790185D01*
X12849754Y5790992D01*
X12861710Y5802948D01*
X12868179Y5818568D01*
Y5835476D01*
X12862537Y5849097D01*
X12867603Y5861797D01*
X13031914D01*
X13177875Y5715835D01*
Y5610200D01*
X13077299D01*
Y5439800D01*
X13222701D01*
Y5610200D01*
X13222125D01*
Y5725000D01*
X13220441Y5733467D01*
X13215645Y5740645D01*
X13056723Y5899567D01*
X13049545Y5904363D01*
X13041078Y5906047D01*
X12761081D01*
X12752615Y5904363D01*
X12745437Y5899567D01*
X12736930Y5891060D01*
X12733454Y5892500D01*
X12716547D01*
X12700926Y5886030D01*
X12688971Y5874074D01*
X12682500Y5858454D01*
Y5841546D01*
X12688971Y5825926D01*
X12700926Y5813970D01*
X12702875Y5813163D01*
Y5110000D01*
X12704559Y5101533D01*
X12709355Y5094355D01*
X12802875Y5000835D01*
X12802875Y4800000D01*
X12804559Y4791533D01*
X12809355Y4784355D01*
X12809357Y4784355D01*
X12974017Y4619694D01*
X12981195Y4614898D01*
X12989662Y4613213D01*
X14645497D01*
X14697874Y4560835D01*
Y4009165D01*
X14590836Y3902125D01*
X14316837D01*
X14316029Y3904074D01*
X14304074Y3916030D01*
X14288454Y3922500D01*
X14271545D01*
X14255927Y3916030D01*
X14243970Y3904074D01*
X14237500Y3888454D01*
Y3871546D01*
X14240475Y3864362D01*
X14231644Y3852500D01*
X14221545D01*
X14205927Y3846030D01*
X14193970Y3834074D01*
X14187500Y3818454D01*
Y3801546D01*
X14193970Y3785926D01*
X14205927Y3773970D01*
X14221545Y3767500D01*
X14227501D01*
X14237500Y3758453D01*
Y3741546D01*
X14240475Y3734362D01*
X14231644Y3722500D01*
X14221545D01*
X14205927Y3716030D01*
X14193970Y3704074D01*
X14187500Y3688454D01*
Y3671546D01*
X14193970Y3655926D01*
X14205927Y3643970D01*
X14221545Y3637500D01*
X14227501D01*
X14237500Y3628453D01*
Y3611546D01*
X14240475Y3604362D01*
X14231644Y3592500D01*
X14221545D01*
X14205927Y3586030D01*
X14193970Y3574074D01*
X14187500Y3558454D01*
Y3541546D01*
X14193970Y3525926D01*
X14205927Y3513970D01*
X14221545Y3507500D01*
X14227501D01*
X14237500Y3498453D01*
Y3481546D01*
X14240475Y3474362D01*
X14231644Y3462500D01*
X14221545D01*
X14205927Y3456030D01*
X14193970Y3444074D01*
X14187500Y3428454D01*
Y3411546D01*
X14193970Y3395926D01*
X14205927Y3383970D01*
X14221545Y3377500D01*
X14238454D01*
X14254074Y3383970D01*
X14266029Y3395926D01*
X14266837Y3397875D01*
X14620000D01*
X14628467Y3399559D01*
X14635645Y3404355D01*
X15709164Y4477875D01*
X17325879D01*
X17328406Y4465175D01*
X17314738Y4459514D01*
X17285257Y4439815D01*
X17260185Y4414743D01*
X17240486Y4385262D01*
X17226917Y4352504D01*
X17220000Y4317728D01*
Y4282271D01*
X17226917Y4247496D01*
X17240486Y4214738D01*
X17260185Y4185257D01*
X17285257Y4160185D01*
X17314738Y4140486D01*
X17347496Y4126917D01*
X17382272Y4120000D01*
X17417728D01*
X17452504Y4126917D01*
X17485262Y4140486D01*
X17514743Y4160185D01*
X17539815Y4185257D01*
X17559514Y4214738D01*
X17573083Y4247496D01*
X17580000Y4282271D01*
Y4317728D01*
X17573083Y4352504D01*
X17559514Y4385262D01*
X17539815Y4414743D01*
X17514743Y4439815D01*
X17485262Y4459514D01*
X17471594Y4465175D01*
X17474121Y4477875D01*
X18850000D01*
X18858467Y4479559D01*
X18865645Y4484355D01*
X19090645Y4709355D01*
X19095441Y4716533D01*
X19097125Y4725000D01*
Y5127875D01*
X19427299D01*
Y5064800D01*
X19572701D01*
Y5235200D01*
X19427299D01*
Y5172125D01*
X19097125D01*
Y5455045D01*
X19109825Y5462762D01*
X19114490Y5460340D01*
Y5316490D01*
X19285510D01*
Y5363630D01*
X19692690D01*
X19803093Y5253227D01*
X19813083Y5246553D01*
X19824866Y5244209D01*
X20244209D01*
Y5085754D01*
X20162700Y5004246D01*
X20150000Y5009506D01*
X20150000Y5011088D01*
X20150000Y5011088D01*
X20150000Y5011591D01*
Y5202000D01*
X19950000D01*
Y5140439D01*
X19772701D01*
Y5235200D01*
X19627299D01*
Y5064800D01*
X19729272D01*
X19735500Y5063561D01*
X19735503Y5063561D01*
X19950000D01*
Y5002000D01*
X20140410Y5002000D01*
X20140912D01*
X20140912D01*
X20142494Y5002000D01*
X20143613Y4999301D01*
X20147754Y4989300D01*
X20095598Y4937144D01*
X20088599Y4941185D01*
X20063165Y4948000D01*
X20036835D01*
X20011401Y4941185D01*
X19988599Y4928020D01*
X19969980Y4909401D01*
X19956815Y4886598D01*
X19950000Y4861165D01*
Y4834835D01*
X19956815Y4809402D01*
X19959827Y4804186D01*
X19914078Y4758439D01*
X19761504D01*
X19756242Y4771139D01*
X19761031Y4775926D01*
X19767500Y4791546D01*
Y4808453D01*
X19761031Y4824074D01*
X19755901Y4829203D01*
X19750102Y4837500D01*
X19755901Y4845797D01*
X19761031Y4850926D01*
X19767500Y4866546D01*
Y4883454D01*
X19761031Y4899074D01*
X19749074Y4911030D01*
X19733453Y4917500D01*
X19716547D01*
X19700926Y4911030D01*
X19695798Y4905901D01*
X19687500Y4900102D01*
X19679202Y4905901D01*
X19674074Y4911030D01*
X19658453Y4917500D01*
X19641547D01*
X19625926Y4911030D01*
X19620798Y4905900D01*
X19612500Y4900102D01*
X19604202Y4905900D01*
X19599074Y4911030D01*
X19583453Y4917500D01*
X19566547D01*
X19550926Y4911030D01*
X19545798Y4905901D01*
X19537500Y4900102D01*
X19529202Y4905901D01*
X19524074Y4911030D01*
X19508453Y4917500D01*
X19491547D01*
X19475926Y4911030D01*
X19463969Y4899074D01*
X19457500Y4883454D01*
Y4866546D01*
X19463969Y4850926D01*
X19469099Y4845797D01*
X19474898Y4837500D01*
X19469099Y4829203D01*
X19463969Y4824074D01*
X19457500Y4808453D01*
Y4791546D01*
X19463969Y4775926D01*
X19468758Y4771139D01*
X19463496Y4758439D01*
X19330000D01*
X19315289Y4755512D01*
X19302820Y4747180D01*
X19302818Y4747179D01*
X18924078Y4368439D01*
X18339999D01*
X18325290Y4365512D01*
X18312820Y4357180D01*
X18312819Y4357179D01*
X17913998Y3958360D01*
X17860510D01*
Y3994846D01*
X17867810D01*
Y4070079D01*
X17774998D01*
X17682190D01*
Y3994846D01*
X17689490D01*
Y3915939D01*
X17537502D01*
X17537500Y3915939D01*
X17533784Y3915200D01*
X16932300D01*
Y3334800D01*
X17036562D01*
Y3140922D01*
X16709077Y2813439D01*
X14815923D01*
X14777180Y2852180D01*
X14764709Y2860512D01*
X14750000Y2863439D01*
X14749998Y2863439D01*
X14568259D01*
X14558453Y2867500D01*
X14541547D01*
X14525926Y2861030D01*
X14513969Y2849074D01*
X14507500Y2833454D01*
Y2816546D01*
X14513969Y2800926D01*
X14525926Y2788970D01*
X14541547Y2782500D01*
X14558453D01*
X14568259Y2786561D01*
X14734077D01*
X14772820Y2747820D01*
X14785291Y2739488D01*
X14800000Y2736561D01*
X14800002Y2736561D01*
X16724998D01*
X16725000Y2736561D01*
X16739709Y2739488D01*
X16752180Y2747820D01*
X17102179Y3097819D01*
X17102180Y3097820D01*
X17110512Y3110290D01*
X17113438Y3125000D01*
Y3334800D01*
X17637700D01*
Y3839062D01*
X17724998D01*
X17725000Y3839061D01*
X17739709Y3841988D01*
X17739713Y3841990D01*
X17860510D01*
Y3881483D01*
X17929919D01*
X17929921Y3881483D01*
X17944630Y3884409D01*
X17957101Y3892741D01*
X18355922Y4291561D01*
X18811562D01*
Y4260001D01*
X18811562Y4260000D01*
X18814487Y4245290D01*
X18822820Y4232820D01*
X18925009Y4130631D01*
X18925011Y4130630D01*
X18937480Y4122297D01*
X18952190Y4119371D01*
X18952191Y4119371D01*
X19014490D01*
Y4041490D01*
X19185510D01*
Y4097297D01*
X19283913D01*
X19346954Y4034256D01*
Y3912450D01*
X19348325Y3905563D01*
X19352225Y3899725D01*
X19358063Y3895824D01*
X19364951Y3894454D01*
X19385049D01*
X19391937Y3895824D01*
X19394781Y3897725D01*
X19396962Y3894462D01*
X19405215Y3888948D01*
X19414951Y3887011D01*
X19414999D01*
Y3979999D01*
X19434999D01*
Y3887011D01*
X19435049D01*
X19444785Y3888948D01*
X19453038Y3894462D01*
X19455219Y3897725D01*
X19458063Y3895824D01*
X19464951Y3894454D01*
X19485049D01*
X19490173Y3895474D01*
X19494841Y3893708D01*
X19502875Y3887858D01*
Y3709164D01*
X19490836Y3697125D01*
X19343745D01*
Y3880000D01*
X19342700Y3882526D01*
Y3887700D01*
X19340556D01*
X19339720Y3889720D01*
X19330000Y3893747D01*
X19050002D01*
X19050000Y3893747D01*
X19040280Y3889720D01*
X18970280Y3819720D01*
X18966254Y3810000D01*
X18966254Y3809999D01*
Y3531630D01*
X18954520Y3526770D01*
X18936545Y3544745D01*
X18929367Y3549541D01*
X18920900Y3551225D01*
X18738048D01*
Y3619900D01*
X18736667Y3626845D01*
X18732733Y3632733D01*
X18726845Y3636667D01*
X18719901Y3638049D01*
X18717125D01*
Y3655000D01*
X18715440Y3663467D01*
X18710645Y3670645D01*
X18665645Y3715645D01*
X18658467Y3720441D01*
X18650000Y3722125D01*
X18559164D01*
X18531650Y3749640D01*
X18536040Y3763173D01*
X18536845Y3763333D01*
X18540407Y3765713D01*
X18551479Y3764994D01*
X18555746Y3763885D01*
X18557004Y3762004D01*
X18565306Y3756457D01*
X18575101Y3754508D01*
X18589999D01*
Y3830000D01*
X18609999D01*
Y3754508D01*
X18624899D01*
X18634692Y3756457D01*
X18642996Y3762004D01*
X18644252Y3763885D01*
X18648521Y3764994D01*
X18659593Y3765713D01*
X18663155Y3763333D01*
X18670100Y3761951D01*
X18719901D01*
X18726845Y3763333D01*
X18732733Y3767267D01*
X18736667Y3773155D01*
X18738048Y3780100D01*
Y3879900D01*
X18736667Y3886845D01*
X18732733Y3892733D01*
X18726845Y3896667D01*
X18719901Y3898049D01*
X18717125D01*
Y3989490D01*
X18764088D01*
Y4160510D01*
X18615633D01*
X18608224Y4160510D01*
X18595525Y4160510D01*
X18447067D01*
Y3989490D01*
X18482874D01*
Y3898049D01*
X18480099D01*
X18473155Y3896667D01*
X18467267Y3892733D01*
X18463332Y3886845D01*
X18461951Y3879900D01*
Y3780100D01*
X18463332Y3773155D01*
X18467267Y3767267D01*
X18473155Y3763333D01*
X18480099Y3761951D01*
X18482874D01*
Y3745000D01*
X18484560Y3736534D01*
X18489355Y3729356D01*
X18534355Y3684355D01*
X18541533Y3679559D01*
X18550000Y3677875D01*
X18640836D01*
X18668352Y3650360D01*
X18663960Y3636828D01*
X18663155Y3636667D01*
X18657268Y3632733D01*
X18654321Y3628325D01*
X18647501Y3627527D01*
X18640678Y3628325D01*
X18637733Y3632733D01*
X18631845Y3636667D01*
X18624899Y3638049D01*
X18575101D01*
X18568155Y3636667D01*
X18562267Y3632733D01*
X18559322Y3628325D01*
X18552499Y3627527D01*
X18545679Y3628325D01*
X18542732Y3632733D01*
X18536845Y3636667D01*
X18529900Y3638049D01*
X18480099D01*
X18473155Y3636667D01*
X18467267Y3632733D01*
X18463332Y3626845D01*
X18461951Y3619900D01*
Y3520100D01*
X18463332Y3513155D01*
X18467267Y3507267D01*
X18470712Y3504964D01*
X18473663Y3494821D01*
X18473938Y3490228D01*
X18377457Y3393747D01*
X18080000D01*
X18070280Y3389720D01*
X18070279Y3389720D01*
X18050281Y3369720D01*
X18046252Y3360000D01*
X18046252Y3360000D01*
Y2900000D01*
X18050281Y2890280D01*
X18060001Y2886254D01*
X18730000D01*
X18739720Y2890280D01*
X18743745Y2900000D01*
Y3359999D01*
X18743747Y3360000D01*
X18739722Y3369721D01*
X18739719Y3369721D01*
X18719720Y3389720D01*
X18718623Y3390175D01*
X18721150Y3402875D01*
X18740414D01*
X18798520Y3344770D01*
Y3304940D01*
X18935680D01*
Y3376060D01*
X18829810D01*
X18765225Y3440645D01*
X18758047Y3445441D01*
X18749580Y3447125D01*
X18659164D01*
X18622125Y3484165D01*
Y3501951D01*
X18624899D01*
X18631845Y3503333D01*
X18637733Y3507267D01*
X18640678Y3511675D01*
X18647501Y3512473D01*
X18654321Y3511675D01*
X18657268Y3507267D01*
X18663155Y3503333D01*
X18670100Y3501951D01*
X18719901D01*
X18726845Y3503333D01*
X18732295Y3506975D01*
X18911736D01*
X18966254Y3452457D01*
Y3295694D01*
X18924306Y3253747D01*
X18810001D01*
X18800281Y3249720D01*
X18800006Y3249060D01*
X18798520D01*
Y3245471D01*
X18796252Y3240000D01*
Y2930000D01*
X18798520Y2924529D01*
Y2923940D01*
X18798764D01*
X18800281Y2920280D01*
X18810001Y2916254D01*
X19389999D01*
X19399719Y2920280D01*
X19403748Y2930000D01*
Y2978300D01*
X19404750D01*
Y3221700D01*
X19403748D01*
Y3389999D01*
X19403748Y3390000D01*
X19399719Y3399720D01*
X19343745Y3455694D01*
Y3652875D01*
X19500000D01*
X19508467Y3654559D01*
X19515645Y3659355D01*
X19540645Y3684355D01*
X19542944Y3687796D01*
X19544360Y3688252D01*
X19555640D01*
X19557056Y3687796D01*
X19559355Y3684355D01*
X19584355Y3659355D01*
X19591533Y3654559D01*
X19600000Y3652875D01*
X19756255D01*
Y3470000D01*
X19757300Y3467473D01*
Y3462300D01*
X19759444D01*
X19760280Y3460280D01*
X19770000Y3456253D01*
X19950000D01*
X19959720Y3460280D01*
X19959721Y3460280D01*
X19961742Y3462300D01*
X19962700D01*
Y3463260D01*
X20046332Y3546891D01*
X20055000Y3555000D01*
Y3555000D01*
X20055000Y3555000D01*
X20745000D01*
Y4245000D01*
X20055000D01*
Y4243746D01*
X19930000D01*
X19930000Y4243747D01*
X19920279Y4239721D01*
X19920279Y4239719D01*
X19760280Y4079720D01*
X19756253Y4070000D01*
X19756255Y4069999D01*
Y3697125D01*
X19609164D01*
X19597125Y3709165D01*
Y3899291D01*
X19597775Y3899725D01*
X19601675Y3905563D01*
X19603046Y3912450D01*
Y4047550D01*
X19601675Y4054437D01*
X19597775Y4060275D01*
X19591937Y4064176D01*
X19585049Y4065546D01*
X19564951D01*
X19558063Y4064176D01*
X19550000Y4061119D01*
X19541936Y4064176D01*
X19535049Y4065546D01*
X19514951D01*
X19508063Y4064176D01*
X19500000Y4061119D01*
X19491936Y4064176D01*
X19485049Y4065546D01*
X19464951D01*
X19458063Y4064176D01*
X19455219Y4062275D01*
X19453038Y4065538D01*
X19444785Y4071052D01*
X19440535Y4071897D01*
X19435773Y4085095D01*
X19458685Y4108007D01*
X19488075D01*
X19496542Y4109692D01*
X19503722Y4114488D01*
X19692101Y4302866D01*
X19704800Y4297606D01*
Y4257300D01*
X19875200D01*
Y4402700D01*
X19704800D01*
Y4352125D01*
X19687944D01*
X19679477Y4350441D01*
X19672299Y4345645D01*
X19484750Y4158096D01*
X19479198Y4159221D01*
X19471860Y4173450D01*
X19473984Y4178579D01*
Y4193943D01*
X19490645Y4210604D01*
X19495441Y4217782D01*
X19497125Y4226249D01*
Y4320242D01*
X19509825Y4328031D01*
X19514951Y4327011D01*
X19514999D01*
Y4420001D01*
X19535001D01*
Y4327011D01*
X19535049D01*
X19544785Y4328948D01*
X19550000Y4332433D01*
X19555215Y4328948D01*
X19564951Y4327011D01*
X19564999D01*
Y4420000D01*
X19574998D01*
Y4430000D01*
X19610489D01*
Y4487550D01*
X19608972Y4495175D01*
X19612950Y4502966D01*
X19616750Y4507875D01*
X19704800D01*
Y4457300D01*
X19875200D01*
Y4602700D01*
X19704800D01*
Y4552125D01*
X19485544D01*
X19477077Y4550441D01*
X19469899Y4545645D01*
X19459355Y4535101D01*
X19454559Y4527923D01*
X19452875Y4519456D01*
Y4512142D01*
X19444841Y4506291D01*
X19440173Y4504526D01*
X19435049Y4505546D01*
X19414951D01*
X19408063Y4504176D01*
X19400000Y4501119D01*
X19391936Y4504176D01*
X19385049Y4505546D01*
X19364951D01*
X19358063Y4504176D01*
X19352225Y4500275D01*
X19348325Y4494437D01*
X19346954Y4487550D01*
Y4352450D01*
X19348325Y4345563D01*
X19352225Y4339725D01*
X19352875Y4339291D01*
Y4315680D01*
X19341064Y4303869D01*
X19339114Y4304676D01*
X19322208D01*
X19306587Y4298206D01*
X19294630Y4286251D01*
X19288161Y4270630D01*
Y4253723D01*
X19294630Y4238103D01*
X19306587Y4226147D01*
X19322208Y4219677D01*
X19339114D01*
X19354735Y4226147D01*
X19368224Y4221674D01*
X19375926Y4213970D01*
X19381873Y4211507D01*
X19389101Y4195767D01*
X19388985Y4195486D01*
Y4178579D01*
X19395454Y4162958D01*
X19407410Y4151003D01*
X19417119Y4146981D01*
X19420897Y4132799D01*
X19365944Y4077846D01*
X19308723Y4135067D01*
X19301546Y4139863D01*
X19293079Y4141547D01*
X19185510D01*
Y4195346D01*
X19192810D01*
Y4270578D01*
X19099998D01*
Y4280578D01*
X19089999D01*
Y4365810D01*
X19046764D01*
X19041904Y4377543D01*
X19345921Y4681561D01*
X19929999D01*
X19930000Y4681561D01*
X19944710Y4684487D01*
X19957179Y4692820D01*
X20017532Y4753172D01*
X20036835Y4748000D01*
X20063165D01*
X20088599Y4754815D01*
X20111401Y4767980D01*
X20130020Y4786599D01*
X20143185Y4809402D01*
X20150000Y4834835D01*
Y4861165D01*
X20143185Y4886598D01*
X20139143Y4893598D01*
X20296771Y5051227D01*
X20296773Y5051227D01*
X20303448Y5061217D01*
X20305792Y5073000D01*
X20305791Y5073001D01*
Y5275000D01*
Y5426999D01*
X20305792Y5427000D01*
X20303448Y5438783D01*
X20296773Y5448773D01*
X20296771Y5448773D01*
X20139143Y5606402D01*
X20143185Y5613402D01*
X20150000Y5638835D01*
Y5665165D01*
X20143185Y5690598D01*
X20130020Y5713401D01*
X20111401Y5732020D01*
X20088599Y5745185D01*
X20080791Y5747277D01*
Y6100000D01*
X20078448Y6111783D01*
X20071773Y6121773D01*
X19896773Y6296773D01*
X19886783Y6303447D01*
X19875000Y6305791D01*
X4525001D01*
X4525000Y6305792D01*
D02*
G37*
G36*
X20591508Y5300400D02*
X20587700D01*
Y5187700D01*
X20700400D01*
Y5191509D01*
X20691853Y5223403D01*
X20675345Y5251997D01*
X20651997Y5275345D01*
X20623402Y5291854D01*
X20591508Y5300400D01*
D02*
G37*
G36*
X20562300D02*
X20558492D01*
X20526598Y5291854D01*
X20498003Y5275345D01*
X20474655Y5251997D01*
X20458147Y5223403D01*
X20449600Y5191509D01*
Y5187700D01*
X20562300D01*
Y5300400D01*
D02*
G37*
G36*
X20700400Y5162300D02*
X20587700D01*
Y5049600D01*
X20591508D01*
X20623402Y5058146D01*
X20651997Y5074655D01*
X20675345Y5098003D01*
X20691853Y5126598D01*
X20700400Y5158491D01*
Y5162300D01*
D02*
G37*
G36*
X20562300D02*
X20449600D01*
Y5158491D01*
X20458147Y5126598D01*
X20474655Y5098003D01*
X20498003Y5074655D01*
X20526598Y5058146D01*
X20558492Y5049600D01*
X20562300D01*
Y5162300D01*
D02*
G37*
G36*
X11333453Y4917500D02*
X11316546D01*
X11300926Y4911030D01*
X11295797Y4905901D01*
X11287500Y4900102D01*
X11279203Y4905901D01*
X11274074Y4911030D01*
X11258453Y4917500D01*
X11241546D01*
X11225926Y4911030D01*
X11220796Y4905900D01*
X11212500Y4900102D01*
X11204203Y4905900D01*
X11199074Y4911030D01*
X11183453Y4917500D01*
X11166546D01*
X11150926Y4911030D01*
X11145797Y4905901D01*
X11137500Y4900102D01*
X11129203Y4905901D01*
X11124074Y4911030D01*
X11108454Y4917500D01*
X11091546D01*
X11075926Y4911030D01*
X11063970Y4899074D01*
X11057500Y4883454D01*
Y4866546D01*
X11063970Y4850926D01*
X11069100Y4845797D01*
X11074898Y4837500D01*
X11069100Y4829203D01*
X11063970Y4824074D01*
X11057500Y4808453D01*
Y4791546D01*
X11063970Y4775926D01*
X11075926Y4763970D01*
X11091546Y4757500D01*
X11108454D01*
X11124074Y4763970D01*
X11129203Y4769099D01*
X11137500Y4774898D01*
X11145797Y4769099D01*
X11150926Y4763970D01*
X11166546Y4757500D01*
X11183453D01*
X11199074Y4763970D01*
X11204203Y4769099D01*
X11212500Y4774898D01*
X11220796Y4769099D01*
X11225926Y4763970D01*
X11241546Y4757500D01*
X11258453D01*
X11274074Y4763970D01*
X11279203Y4769099D01*
X11287500Y4774898D01*
X11295797Y4769099D01*
X11300926Y4763970D01*
X11316546Y4757500D01*
X11333453D01*
X11349074Y4763970D01*
X11361029Y4775926D01*
X11367499Y4791546D01*
Y4808453D01*
X11361029Y4824074D01*
X11355900Y4829203D01*
X11350102Y4837500D01*
X11355900Y4845797D01*
X11361029Y4850926D01*
X11367499Y4866546D01*
Y4883454D01*
X11361029Y4899074D01*
X11349074Y4911030D01*
X11333453Y4917500D01*
D02*
G37*
G36*
X11372700Y5235200D02*
X11227300D01*
Y5064800D01*
X11261561D01*
Y5004291D01*
X11261561Y5004289D01*
X11264488Y4989580D01*
X11272820Y4977109D01*
X11302109Y4947820D01*
X11302109Y4947820D01*
X11314580Y4939487D01*
X11329290Y4936561D01*
X11423001D01*
Y4875000D01*
X11623000D01*
Y5075000D01*
X11423001D01*
Y5013439D01*
X11345211D01*
X11338439Y5020211D01*
Y5064800D01*
X11372700D01*
Y5235200D01*
D02*
G37*
G36*
X19610489Y4410000D02*
X19584999D01*
Y4327011D01*
X19585049D01*
X19594785Y4328948D01*
X19603038Y4334462D01*
X19608553Y4342715D01*
X19610489Y4352450D01*
Y4410000D01*
D02*
G37*
G36*
X19192810Y4365810D02*
X19109999D01*
Y4290578D01*
X19192810D01*
Y4365810D01*
D02*
G37*
G36*
X6315810Y4242810D02*
X6240579D01*
Y4160000D01*
X6315810D01*
Y4242810D01*
D02*
G37*
G36*
X5117728Y4480000D02*
X5082272D01*
X5047496Y4473082D01*
X5014738Y4459514D01*
X4985257Y4439815D01*
X4960185Y4414743D01*
X4940486Y4385262D01*
X4926917Y4352504D01*
X4920000Y4317728D01*
Y4282271D01*
X4926917Y4247496D01*
X4940486Y4214738D01*
X4960185Y4185257D01*
X4985257Y4160185D01*
X5014738Y4140486D01*
X5047496Y4126917D01*
X5082272Y4120000D01*
X5117728D01*
X5152504Y4126917D01*
X5185262Y4140486D01*
X5214743Y4160185D01*
X5239815Y4185257D01*
X5259514Y4214738D01*
X5273083Y4247496D01*
X5280000Y4282271D01*
Y4317728D01*
X5273083Y4352504D01*
X5259514Y4385262D01*
X5239815Y4414743D01*
X5214743Y4439815D01*
X5185262Y4459514D01*
X5152504Y4473082D01*
X5117728Y4480000D01*
D02*
G37*
G36*
X17867810Y4165310D02*
X17784999D01*
Y4090079D01*
X17867810D01*
Y4165310D01*
D02*
G37*
G36*
X17764999D02*
X17682190D01*
Y4090079D01*
X17764999D01*
Y4165310D01*
D02*
G37*
G36*
X6315810Y4140000D02*
X6240579D01*
Y4057190D01*
X6315810D01*
Y4140000D01*
D02*
G37*
G36*
X10548381Y4132872D02*
X10489826Y4074316D01*
X10543023Y4021119D01*
X10601578Y4079675D01*
X10548381Y4132872D01*
D02*
G37*
G36*
X11804675Y4101578D02*
X11746120Y4043023D01*
X11799316Y3989826D01*
X11857872Y4048381D01*
X11804675Y4101578D01*
D02*
G37*
G36*
X11518440Y4055304D02*
X11463639Y4000502D01*
X11509601Y3954540D01*
X11564402Y4009341D01*
X11518440Y4055304D01*
D02*
G37*
G36*
X10475684Y4060174D02*
X10417128Y4001619D01*
X10470325Y3948422D01*
X10528881Y4006977D01*
X10475684Y4060174D01*
D02*
G37*
G36*
X11359342Y4204078D02*
X11245922Y4090659D01*
X11339755Y3996826D01*
X11334593Y3991664D01*
X11380554Y3945702D01*
X11442426Y4007573D01*
X11504298Y4069446D01*
X11458336Y4115407D01*
X11453174Y4110245D01*
X11359342Y4204078D01*
D02*
G37*
G36*
X11241317Y4059694D02*
X11119035Y3937412D01*
X11073376Y3983071D01*
X11071564Y3984282D01*
X11012123Y4043723D01*
X10941130Y3972730D01*
X10931749Y3964715D01*
X10927270Y3969194D01*
X10893683Y3935607D01*
X10939645Y3889645D01*
X10985606Y3843683D01*
X11000595Y3858672D01*
X11013052Y3856194D01*
X11014111Y3853636D01*
X11026067Y3841681D01*
X11041687Y3835211D01*
X11058594D01*
X11074215Y3841681D01*
X11086170Y3853636D01*
X11092641Y3869257D01*
Y3871646D01*
X11105341Y3876907D01*
X11184749Y3797499D01*
X11344130Y3956881D01*
X11241317Y4059694D01*
D02*
G37*
G36*
X11731977Y4028881D02*
X11673422Y3970325D01*
X11726619Y3917128D01*
X11785174Y3975684D01*
X11731977Y4028881D01*
D02*
G37*
G36*
X16785001Y3923000D02*
X16655000D01*
Y3863000D01*
X16785001D01*
Y3923000D01*
D02*
G37*
G36*
X16635001D02*
X16505000D01*
Y3863000D01*
X16635001D01*
Y3923000D01*
D02*
G37*
G36*
X10879541Y3921465D02*
X10845953Y3887877D01*
X10884844Y3848986D01*
X10918431Y3882574D01*
X10879541Y3921465D01*
D02*
G37*
G36*
X6223500Y3933830D02*
Y3801360D01*
X6265608D01*
Y3883711D01*
X6261641Y3903652D01*
X6250346Y3920557D01*
X6233441Y3931852D01*
X6223500Y3933830D01*
D02*
G37*
G36*
X6203500D02*
X6193559Y3931852D01*
X6176654Y3920557D01*
X6165359Y3903652D01*
X6161392Y3883711D01*
Y3801360D01*
X6203500D01*
Y3933830D01*
D02*
G37*
G36*
X10932574Y3868431D02*
X10898986Y3834844D01*
X10937877Y3795953D01*
X10971464Y3829541D01*
X10932574Y3868431D01*
D02*
G37*
G36*
X10615720Y4065532D02*
X10550094Y3999906D01*
X10484467Y3934279D01*
X10537664Y3881083D01*
X10542826Y3886245D01*
X10651619Y3777452D01*
X10682395Y3808228D01*
X10693970Y3805926D01*
X10705926Y3793970D01*
X10721546Y3787500D01*
X10738454D01*
X10754074Y3793970D01*
X10766030Y3805926D01*
X10772500Y3821546D01*
Y3838454D01*
X10766030Y3854074D01*
X10754195Y3865909D01*
X10752063Y3877896D01*
X10772548Y3898381D01*
X10663755Y4007174D01*
X10668917Y4012336D01*
X10615720Y4065532D01*
D02*
G37*
G36*
X11449497Y3986360D02*
X11394697Y3931560D01*
X11400673Y3925584D01*
X11396881Y3914454D01*
X11395361Y3912935D01*
X11319100Y3836673D01*
X11368597Y3787175D01*
X11446379Y3864956D01*
X11436867Y3874468D01*
X11440659Y3885598D01*
X11442178Y3887117D01*
X11495459Y3940398D01*
X11449497Y3986360D01*
D02*
G37*
G36*
X16785001Y3843000D02*
X16655000D01*
Y3783000D01*
X16785001D01*
Y3843000D01*
D02*
G37*
G36*
X16635001D02*
X16505000D01*
Y3783000D01*
X16635001D01*
Y3843000D01*
D02*
G37*
G36*
X5959500Y3928376D02*
X5942407Y3924976D01*
X5927917Y3915294D01*
X5918235Y3900803D01*
X5914835Y3883711D01*
Y3738229D01*
X5902135Y3732969D01*
X5899074Y3736030D01*
X5883454Y3742500D01*
X5866546D01*
X5850926Y3736030D01*
X5838970Y3724074D01*
X5832500Y3708454D01*
Y3691546D01*
X5838970Y3675926D01*
X5850926Y3663970D01*
X5866546Y3657500D01*
X5883454D01*
X5899074Y3663970D01*
X5908592Y3673488D01*
X5919849Y3674307D01*
X5923805Y3673581D01*
X5927917Y3667426D01*
X5942407Y3657744D01*
X5959500Y3654344D01*
X5976592Y3657744D01*
X5991083Y3667426D01*
X6000765Y3681916D01*
X6004165Y3699009D01*
Y3883711D01*
X6000765Y3900803D01*
X5991083Y3915294D01*
X5976592Y3924976D01*
X5959500Y3928376D01*
D02*
G37*
G36*
X11460521Y3850814D02*
X11382739Y3773033D01*
X11432237Y3723536D01*
X11510018Y3801317D01*
X11460521Y3850814D01*
D02*
G37*
G36*
X11304958Y3822531D02*
X11227175Y3744748D01*
X11276673Y3695251D01*
X11354455Y3773033D01*
X11304958Y3822531D01*
D02*
G37*
G36*
X12076619Y3797548D02*
X11967826Y3688755D01*
X11962664Y3693917D01*
X11909467Y3640720D01*
X11975094Y3575094D01*
X12040720Y3509467D01*
X12093917Y3562664D01*
X12088755Y3567826D01*
X12197548Y3676619D01*
X12076619Y3797548D01*
D02*
G37*
G36*
X10979688Y3808388D02*
X10901906Y3730606D01*
X10951403Y3681109D01*
X11029185Y3758891D01*
X10979688Y3808388D01*
D02*
G37*
G36*
X6265608Y3781360D02*
X6223500D01*
Y3648890D01*
X6233441Y3650867D01*
X6250346Y3662163D01*
X6261641Y3679068D01*
X6265608Y3699009D01*
Y3781360D01*
D02*
G37*
G36*
X6203500D02*
X6161392D01*
Y3699009D01*
X6165359Y3679068D01*
X6176654Y3662163D01*
X6193559Y3650867D01*
X6203500Y3648890D01*
Y3781360D01*
D02*
G37*
G36*
X11043327Y3744749D02*
X10965545Y3666967D01*
X11015042Y3617469D01*
X11092825Y3695251D01*
X11043327Y3744749D01*
D02*
G37*
G36*
X11440156Y3626014D02*
X11406568Y3592426D01*
X11445459Y3553535D01*
X11479047Y3587123D01*
X11440156Y3626014D01*
D02*
G37*
G36*
X11895325Y3626578D02*
X11842128Y3573381D01*
X11900684Y3514826D01*
X11953881Y3568023D01*
X11895325Y3626578D01*
D02*
G37*
G36*
X10861680Y4038241D02*
X10844772D01*
X10829152Y4031771D01*
X10817196Y4019815D01*
X10810726Y4004195D01*
Y3987288D01*
X10811533Y3985338D01*
X10802473Y3976278D01*
X10797677Y3969100D01*
X10795992Y3960633D01*
Y3957282D01*
X10793622Y3954911D01*
X10788826Y3947733D01*
X10787141Y3939266D01*
Y3626670D01*
X10788826Y3618204D01*
X10793622Y3611026D01*
X10895462Y3509185D01*
X10902640Y3504389D01*
X10911107Y3502705D01*
X10955682D01*
X10990913Y3467474D01*
X10992725Y3466263D01*
X11078683Y3380306D01*
X11215939Y3517562D01*
X11225990D01*
X11251623Y3491929D01*
X11253436Y3490718D01*
X11312877Y3431277D01*
X11383587Y3501987D01*
X11383871Y3502270D01*
X11393251Y3510285D01*
X11397730Y3505806D01*
X11431317Y3539393D01*
X11385355Y3585355D01*
X11392426Y3592426D01*
X11385355Y3599497D01*
X11426014Y3640156D01*
X11387435Y3678735D01*
X11418095Y3709394D01*
X11368597Y3758891D01*
X11290815Y3681109D01*
X11340000Y3631924D01*
X11305806Y3597730D01*
X11310284Y3593251D01*
X11302270Y3583871D01*
X11301987Y3583587D01*
X11262266Y3543866D01*
X11250799Y3555332D01*
X11243621Y3560129D01*
X11235154Y3561813D01*
X11215940D01*
X11135252Y3642501D01*
X11006859Y3514108D01*
X10980492Y3540475D01*
X10973314Y3545271D01*
X10964847Y3546955D01*
X10961122D01*
X10956262Y3558688D01*
X11000900Y3603327D01*
X10944332Y3659896D01*
X10887763Y3716464D01*
X10843125Y3671825D01*
X10831392Y3676686D01*
Y3930102D01*
X10833762Y3932473D01*
X10838558Y3939651D01*
X10839003Y3941885D01*
X10844773Y3953242D01*
X10861680D01*
X10877300Y3959712D01*
X10889256Y3971667D01*
X10895726Y3987288D01*
Y4004195D01*
X10889256Y4019815D01*
X10877300Y4031771D01*
X10861680Y4038241D01*
D02*
G37*
G36*
X10541619Y3572548D02*
X10432826Y3463755D01*
X10427664Y3468917D01*
X10374467Y3415720D01*
X10440093Y3350094D01*
X10505720Y3284467D01*
X10558917Y3337664D01*
X10553755Y3342826D01*
X10662548Y3451619D01*
X10639606Y3474561D01*
X10642500Y3481546D01*
Y3498454D01*
X10636030Y3514074D01*
X10624074Y3526030D01*
X10608454Y3532500D01*
X10591546D01*
X10584561Y3529606D01*
X10541619Y3572548D01*
D02*
G37*
G36*
X11968023Y3553881D02*
X11914826Y3500684D01*
X11973381Y3442128D01*
X12026578Y3495325D01*
X11968023Y3553881D01*
D02*
G37*
G36*
X3842810Y3465810D02*
X3760000D01*
Y3390578D01*
X3842810D01*
Y3465810D01*
D02*
G37*
G36*
X3740000D02*
X3657190D01*
Y3390578D01*
X3740000D01*
Y3465810D01*
D02*
G37*
G36*
X6350500Y3451110D02*
Y3318640D01*
X6392608D01*
Y3400991D01*
X6388641Y3420932D01*
X6377346Y3437837D01*
X6360441Y3449133D01*
X6350500Y3451110D01*
D02*
G37*
G36*
X6330500D02*
X6320559Y3449133D01*
X6303654Y3437837D01*
X6292359Y3420932D01*
X6288392Y3400991D01*
Y3318640D01*
X6330500D01*
Y3451110D01*
D02*
G37*
G36*
X10360325Y3401578D02*
X10307128Y3348381D01*
X10365684Y3289826D01*
X10418880Y3343023D01*
X10360325Y3401578D01*
D02*
G37*
G36*
X4804000Y3368325D02*
X4685000D01*
Y3272550D01*
X4804000D01*
Y3368325D01*
D02*
G37*
G36*
X4665000D02*
X4546000D01*
Y3272550D01*
X4665000D01*
Y3368325D01*
D02*
G37*
G36*
X5959500Y3445656D02*
X5942407Y3442256D01*
X5927917Y3432574D01*
X5918235Y3418084D01*
X5914835Y3400991D01*
Y3216289D01*
X5918235Y3199197D01*
X5927917Y3184706D01*
X5942407Y3175024D01*
X5959500Y3171624D01*
X5976592Y3175024D01*
X5991083Y3184706D01*
X6000765Y3199197D01*
X6004165Y3216289D01*
Y3400991D01*
X6000765Y3418084D01*
X5991083Y3432574D01*
X5976592Y3442256D01*
X5959500Y3445656D01*
D02*
G37*
G36*
X6392608Y3298640D02*
X6350500D01*
Y3166170D01*
X6360441Y3168148D01*
X6377346Y3179443D01*
X6388641Y3196348D01*
X6392608Y3216289D01*
Y3298640D01*
D02*
G37*
G36*
X6330500D02*
X6288392D01*
Y3216289D01*
X6292359Y3196348D01*
X6303654Y3179443D01*
X6320559Y3168148D01*
X6330500Y3166170D01*
Y3298640D01*
D02*
G37*
G36*
X4804000Y3252550D02*
X4685000D01*
Y3156775D01*
X4804000D01*
Y3252550D01*
D02*
G37*
G36*
X4665000D02*
X4546000D01*
Y3156775D01*
X4665000D01*
Y3252550D01*
D02*
G37*
G36*
X19799500Y3229000D02*
X19703725D01*
Y3110000D01*
X19799500D01*
Y3229000D01*
D02*
G37*
G36*
X19683725D02*
X19587950D01*
Y3110000D01*
X19683725D01*
Y3229000D01*
D02*
G37*
G36*
X15841508Y3200400D02*
X15837701D01*
Y3087699D01*
X15950400D01*
Y3091509D01*
X15941853Y3123402D01*
X15925345Y3151997D01*
X15901997Y3175345D01*
X15873402Y3191854D01*
X15841508Y3200400D01*
D02*
G37*
G36*
X15812302D02*
X15808492D01*
X15776598Y3191854D01*
X15748003Y3175345D01*
X15724655Y3151997D01*
X15708147Y3123402D01*
X15699600Y3091509D01*
Y3087699D01*
X15812302D01*
Y3200400D01*
D02*
G37*
G36*
X19799500Y3090000D02*
X19703725D01*
Y2971000D01*
X19799500D01*
Y3090000D01*
D02*
G37*
G36*
X19683725D02*
X19587950D01*
Y2971000D01*
X19683725D01*
Y3090000D01*
D02*
G37*
G36*
X15950400Y3062299D02*
X15837701D01*
Y2949600D01*
X15841508D01*
X15873402Y2958146D01*
X15901997Y2974655D01*
X15925345Y2998003D01*
X15941853Y3026597D01*
X15950400Y3058491D01*
Y3062299D01*
D02*
G37*
G36*
X15812302D02*
X15699600D01*
Y3058491D01*
X15708147Y3026597D01*
X15724655Y2998003D01*
X15748003Y2974655D01*
X15776598Y2958146D01*
X15808492Y2949600D01*
X15812302D01*
Y3062299D01*
D02*
G37*
G36*
X16717810Y2934422D02*
X16635001D01*
Y2859190D01*
X16717810D01*
Y2934422D01*
D02*
G37*
G36*
X16614999D02*
X16532190D01*
Y2859190D01*
X16614999D01*
Y2934422D01*
D02*
G37*
G36*
X6086500Y3445656D02*
X6069407Y3442256D01*
X6054917Y3432574D01*
X6045235Y3418084D01*
X6041835Y3400991D01*
Y3216289D01*
X6045235Y3199197D01*
X6054917Y3184706D01*
X6069407Y3175024D01*
X6072834Y3174342D01*
Y2988928D01*
X6071332Y2988526D01*
X6049669Y2976019D01*
X6031981Y2958331D01*
X6019474Y2936668D01*
X6013000Y2912507D01*
Y2887493D01*
X6019474Y2863332D01*
X6031981Y2841669D01*
X6049669Y2823981D01*
X6071332Y2811474D01*
X6095493Y2805000D01*
X6120507D01*
X6144668Y2811474D01*
X6166331Y2823981D01*
X6184019Y2841669D01*
X6196526Y2863332D01*
X6203000Y2887493D01*
Y2912507D01*
X6196526Y2936668D01*
X6184019Y2958331D01*
X6166331Y2976019D01*
X6144668Y2988526D01*
X6120507Y2995000D01*
X6117085D01*
Y3184039D01*
X6118083Y3184706D01*
X6127765Y3199197D01*
X6131165Y3216289D01*
Y3400991D01*
X6127765Y3418084D01*
X6118083Y3432574D01*
X6103592Y3442256D01*
X6086500Y3445656D01*
D02*
G37*
G36*
X17417728Y3080000D02*
X17382272D01*
X17347496Y3073082D01*
X17314738Y3059514D01*
X17285257Y3039815D01*
X17260185Y3014743D01*
X17240486Y2985262D01*
X17226917Y2952504D01*
X17220000Y2917728D01*
Y2882271D01*
X17226917Y2847496D01*
X17240486Y2814738D01*
X17260185Y2785257D01*
X17285257Y2760185D01*
X17314738Y2740486D01*
X17347496Y2726917D01*
X17382272Y2720000D01*
X17417728D01*
X17452504Y2726917D01*
X17485262Y2740486D01*
X17514743Y2760185D01*
X17539815Y2785257D01*
X17559514Y2814738D01*
X17573083Y2847496D01*
X17580000Y2882271D01*
Y2917728D01*
X17573083Y2952504D01*
X17559514Y2985262D01*
X17539815Y3014743D01*
X17514743Y3039815D01*
X17485262Y3059514D01*
X17452504Y3073082D01*
X17417728Y3080000D01*
D02*
G37*
G36*
X5117728D02*
X5082272D01*
X5047496Y3073082D01*
X5014738Y3059514D01*
X4985257Y3039815D01*
X4960185Y3014743D01*
X4940486Y2985262D01*
X4926917Y2952504D01*
X4920000Y2917728D01*
Y2882271D01*
X4926917Y2847496D01*
X4940486Y2814738D01*
X4960185Y2785257D01*
X4985257Y2760185D01*
X5014738Y2740486D01*
X5047496Y2726917D01*
X5082272Y2720000D01*
X5117728D01*
X5152504Y2726917D01*
X5185262Y2740486D01*
X5214743Y2760185D01*
X5239815Y2785257D01*
X5259514Y2814738D01*
X5273083Y2847496D01*
X5280000Y2882271D01*
Y2917728D01*
X5273083Y2952504D01*
X5259514Y2985262D01*
X5239815Y3014743D01*
X5214743Y3039815D01*
X5185262Y3059514D01*
X5152504Y3073082D01*
X5117728Y3080000D01*
D02*
G37*
%LPD*%
G36*
X20019209Y6087246D02*
Y5747277D01*
X20011401Y5745185D01*
X19988599Y5732020D01*
X19969980Y5713401D01*
X19956815Y5690598D01*
X19950000Y5665165D01*
Y5638835D01*
X19956815Y5613402D01*
X19969980Y5590599D01*
X19988599Y5571980D01*
X20011401Y5558815D01*
X20036835Y5552000D01*
X20063165D01*
X20088599Y5558815D01*
X20095598Y5562857D01*
X20147754Y5510700D01*
X20142494Y5498000D01*
X20004361D01*
X19950180Y5552180D01*
X19937711Y5560513D01*
X19923000Y5563439D01*
X19923000Y5563439D01*
X19772701D01*
Y5610200D01*
X19627299D01*
Y5439800D01*
X19772701D01*
Y5486562D01*
X19907079D01*
X19950000Y5443639D01*
Y5305792D01*
X19837621D01*
X19727217Y5416195D01*
X19717229Y5422869D01*
X19705444Y5425213D01*
X19285510D01*
Y5470346D01*
X19292810D01*
Y5545579D01*
X19200000D01*
Y5555579D01*
X19189999D01*
Y5640810D01*
X19154021D01*
X19147839Y5649443D01*
X19146451Y5653510D01*
X19147804Y5660312D01*
Y5790185D01*
X19149753Y5790992D01*
X19161710Y5802948D01*
X19168179Y5818568D01*
Y5835476D01*
X19162537Y5849097D01*
X19167603Y5861797D01*
X19331914D01*
X19477875Y5715835D01*
Y5610200D01*
X19427299D01*
Y5439800D01*
X19572701D01*
Y5610200D01*
X19522125D01*
Y5725000D01*
X19520441Y5733467D01*
X19515645Y5740645D01*
X19356723Y5899567D01*
X19349544Y5904363D01*
X19341078Y5906047D01*
X19061081D01*
X19052614Y5904363D01*
X19045436Y5899567D01*
X19036929Y5891060D01*
X19033453Y5892500D01*
X19016547D01*
X19000926Y5886030D01*
X18988969Y5874074D01*
X18982500Y5858454D01*
Y5841546D01*
X18988969Y5825926D01*
X19000926Y5813970D01*
X19002875Y5813163D01*
Y4759165D01*
X18815836Y4572125D01*
X16920201D01*
X16916222Y4582810D01*
X16916115Y4584825D01*
X16990645Y4659355D01*
X16995441Y4666533D01*
X16997125Y4675000D01*
Y5127875D01*
X17327299D01*
Y5064800D01*
X17472701D01*
Y5235200D01*
X17327299D01*
Y5172125D01*
X16997125D01*
Y5455045D01*
X17009827Y5462761D01*
X17014490Y5460340D01*
Y5316490D01*
X17185510D01*
Y5363630D01*
X18046210D01*
Y5070277D01*
X18038402Y5068185D01*
X18015599Y5055020D01*
X17996980Y5036401D01*
X17983815Y5013598D01*
X17977000Y4988165D01*
Y4961835D01*
X17983815Y4936402D01*
X17996980Y4913599D01*
X18015599Y4894980D01*
X18038402Y4881815D01*
X18063835Y4875000D01*
X18090166D01*
X18115598Y4881815D01*
X18138400Y4894980D01*
X18157021Y4913599D01*
X18170184Y4936402D01*
X18177000Y4961835D01*
Y4988165D01*
X18170184Y5013598D01*
X18157021Y5036401D01*
X18138400Y5055020D01*
X18115598Y5068185D01*
X18107791Y5070277D01*
Y5400000D01*
Y5429723D01*
X18115598Y5431815D01*
X18138400Y5444980D01*
X18157021Y5463599D01*
X18170184Y5486402D01*
X18177000Y5511835D01*
Y5538165D01*
X18170184Y5563598D01*
X18157021Y5586401D01*
X18138400Y5605020D01*
X18115598Y5618185D01*
X18107791Y5620277D01*
Y6244208D01*
X19862247D01*
X20019209Y6087246D01*
D02*
G37*
G36*
X18046210Y5620277D02*
X18038402Y5618185D01*
X18015599Y5605020D01*
X17996980Y5586401D01*
X17983815Y5563598D01*
X17977000Y5538165D01*
Y5511835D01*
X17983815Y5486402D01*
X17996980Y5463599D01*
X18015599Y5444980D01*
X18027840Y5437913D01*
X18024435Y5425213D01*
X17923000D01*
Y5625000D01*
X17723000D01*
Y5563439D01*
X17672701D01*
Y5610200D01*
X17527299D01*
Y5439800D01*
X17672701D01*
Y5486562D01*
X17723000D01*
Y5425213D01*
X17185510D01*
Y5470346D01*
X17192810D01*
Y5545578D01*
X17099998D01*
Y5555578D01*
X17089999D01*
Y5640810D01*
X17054022D01*
X17047839Y5649443D01*
X17046452Y5653510D01*
X17047804Y5660312D01*
Y5790185D01*
X17049754Y5790992D01*
X17061710Y5802948D01*
X17068179Y5818568D01*
Y5835476D01*
X17062537Y5849097D01*
X17067603Y5861797D01*
X17231914D01*
X17377875Y5715835D01*
Y5610200D01*
X17327299D01*
Y5439800D01*
X17472701D01*
Y5610200D01*
X17422125D01*
Y5725000D01*
X17420441Y5733467D01*
X17415645Y5740645D01*
X17256723Y5899567D01*
X17249545Y5904363D01*
X17241078Y5906047D01*
X16961081D01*
X16952615Y5904363D01*
X16945438Y5899567D01*
X16936929Y5891060D01*
X16933453Y5892500D01*
X16916547D01*
X16900926Y5886030D01*
X16888971Y5874074D01*
X16882500Y5858454D01*
Y5841546D01*
X16888971Y5825926D01*
X16900926Y5813970D01*
X16902875Y5813163D01*
Y4684165D01*
X16890836Y4672125D01*
X15660001D01*
X15651534Y4670441D01*
X15644354Y4665645D01*
X14909171Y3930461D01*
X14900340Y3933788D01*
X14897125Y3936375D01*
Y5127875D01*
X15227299D01*
Y5064800D01*
X15372701D01*
Y5235200D01*
X15227299D01*
Y5172125D01*
X14897125D01*
Y5455045D01*
X14909825Y5462762D01*
X14914490Y5460340D01*
Y5316490D01*
X15085510D01*
Y5363630D01*
X15946210D01*
Y5070277D01*
X15938402Y5068185D01*
X15915599Y5055020D01*
X15896980Y5036401D01*
X15883815Y5013598D01*
X15877000Y4988165D01*
Y4961835D01*
X15883815Y4936402D01*
X15896980Y4913599D01*
X15915599Y4894980D01*
X15938402Y4881815D01*
X15963835Y4875000D01*
X15990166D01*
X16015598Y4881815D01*
X16038400Y4894980D01*
X16057021Y4913599D01*
X16070184Y4936402D01*
X16077000Y4961835D01*
Y4988165D01*
X16070184Y5013598D01*
X16057021Y5036401D01*
X16038400Y5055020D01*
X16015598Y5068185D01*
X16007791Y5070277D01*
Y5400000D01*
Y5429723D01*
X16015598Y5431815D01*
X16038400Y5444980D01*
X16057021Y5463599D01*
X16070184Y5486402D01*
X16077000Y5511835D01*
Y5538165D01*
X16070184Y5563598D01*
X16057021Y5586401D01*
X16038400Y5605020D01*
X16015598Y5618185D01*
X16007791Y5620277D01*
Y6244208D01*
X18046210D01*
Y5620277D01*
D02*
G37*
G36*
X15946210D02*
X15938402Y5618185D01*
X15915599Y5605020D01*
X15896980Y5586401D01*
X15883815Y5563598D01*
X15877000Y5538165D01*
Y5511835D01*
X15883815Y5486402D01*
X15896980Y5463599D01*
X15915599Y5444980D01*
X15927840Y5437913D01*
X15924437Y5425213D01*
X15823000D01*
Y5625000D01*
X15623000D01*
Y5563439D01*
X15572701D01*
Y5610200D01*
X15427299D01*
Y5439800D01*
X15572701D01*
Y5486562D01*
X15623000D01*
Y5425213D01*
X15085510D01*
Y5470346D01*
X15092810D01*
Y5545579D01*
X15000000D01*
Y5555579D01*
X14989999D01*
Y5640810D01*
X14954021D01*
X14947839Y5649443D01*
X14946451Y5653510D01*
X14947804Y5660312D01*
Y5790185D01*
X14949753Y5790992D01*
X14961710Y5802948D01*
X14968179Y5818568D01*
Y5835476D01*
X14962537Y5849097D01*
X14967603Y5861797D01*
X15131914D01*
X15277875Y5715835D01*
Y5610200D01*
X15227299D01*
Y5439800D01*
X15372701D01*
Y5610200D01*
X15322125D01*
Y5725000D01*
X15320441Y5733467D01*
X15315645Y5740645D01*
X15156723Y5899567D01*
X15149545Y5904363D01*
X15141078Y5906047D01*
X14861081D01*
X14852614Y5904363D01*
X14845436Y5899567D01*
X14836929Y5891060D01*
X14833453Y5892500D01*
X14816547D01*
X14800926Y5886030D01*
X14788969Y5874074D01*
X14782500Y5858454D01*
Y5841546D01*
X14788969Y5825926D01*
X14800926Y5813970D01*
X14802875Y5813163D01*
Y4600978D01*
X14791251Y4598631D01*
X14790175Y4598865D01*
X14785645Y4605645D01*
X14712308Y4678983D01*
X14705128Y4683779D01*
X14696661Y4685464D01*
X13133788D01*
Y5052497D01*
X13146091Y5064800D01*
X13272701D01*
Y5235200D01*
X13127299D01*
Y5172125D01*
X12797125D01*
Y5455045D01*
X12809827Y5462762D01*
X12814490Y5460340D01*
Y5316490D01*
X12985510D01*
Y5363630D01*
X13846210D01*
Y5070277D01*
X13838402Y5068185D01*
X13815599Y5055020D01*
X13796980Y5036401D01*
X13783815Y5013598D01*
X13777000Y4988165D01*
Y4961835D01*
X13783815Y4936402D01*
X13796980Y4913599D01*
X13815599Y4894980D01*
X13838402Y4881815D01*
X13863835Y4875000D01*
X13890166D01*
X13915599Y4881815D01*
X13938400Y4894980D01*
X13957021Y4913599D01*
X13970184Y4936402D01*
X13977000Y4961835D01*
Y4988165D01*
X13970184Y5013598D01*
X13957021Y5036401D01*
X13938400Y5055020D01*
X13915599Y5068185D01*
X13907793Y5070277D01*
Y5400000D01*
Y5429723D01*
X13915599Y5431815D01*
X13938400Y5444980D01*
X13957021Y5463599D01*
X13970184Y5486402D01*
X13977000Y5511835D01*
Y5538165D01*
X13970184Y5563598D01*
X13957021Y5586401D01*
X13938400Y5605020D01*
X13915599Y5618185D01*
X13907793Y5620277D01*
Y6244208D01*
X15946210D01*
Y5620277D01*
D02*
G37*
G36*
X11746209Y5620277D02*
X11738402Y5618185D01*
X11715599Y5605020D01*
X11696981Y5586401D01*
X11683815Y5563598D01*
X11677001Y5538165D01*
Y5511835D01*
X11683815Y5486402D01*
X11696981Y5463599D01*
X11715599Y5444980D01*
X11727839Y5437913D01*
X11724436Y5425213D01*
X11623000D01*
Y5625000D01*
X11423001D01*
Y5563439D01*
X11322700D01*
Y5610200D01*
X11177300D01*
Y5439800D01*
X11322700D01*
Y5486562D01*
X11423001D01*
Y5425213D01*
X10885510D01*
Y5470346D01*
X10892810D01*
Y5545578D01*
X10799999D01*
Y5555578D01*
X10790000D01*
Y5640810D01*
X10754021D01*
X10747840Y5649443D01*
X10746451Y5653510D01*
X10747805Y5660312D01*
Y5790185D01*
X10749753Y5790992D01*
X10761709Y5802948D01*
X10768179Y5818568D01*
Y5835476D01*
X10762537Y5849097D01*
X10767602Y5861797D01*
X10931913D01*
X11077875Y5715835D01*
Y5610200D01*
X10977300D01*
Y5439800D01*
X11122700D01*
Y5610200D01*
X11122125D01*
Y5725000D01*
X11120441Y5733467D01*
X11115645Y5740645D01*
X10956723Y5899567D01*
X10949545Y5904363D01*
X10941078Y5906047D01*
X10661081D01*
X10652614Y5904363D01*
X10645436Y5899567D01*
X10636929Y5891060D01*
X10633454Y5892500D01*
X10616546D01*
X10600926Y5886030D01*
X10588970Y5874074D01*
X10582500Y5858454D01*
Y5841546D01*
X10588970Y5825926D01*
X10600926Y5813970D01*
X10602875Y5813163D01*
Y4650000D01*
X10604559Y4641533D01*
X10609355Y4634355D01*
X10658885Y4584825D01*
X10658780Y4582810D01*
X10654799Y4572125D01*
X8634165D01*
X8597125Y4609165D01*
Y5127875D01*
X8927300D01*
Y5064800D01*
X9072700D01*
Y5235200D01*
X8927300D01*
Y5172125D01*
X8597125D01*
Y5455045D01*
X8609826Y5462762D01*
X8614490Y5460340D01*
Y5316490D01*
X8785510D01*
Y5363630D01*
X9646209D01*
Y5070277D01*
X9638402Y5068185D01*
X9615599Y5055020D01*
X9596981Y5036401D01*
X9583815Y5013598D01*
X9577000Y4988165D01*
Y4961835D01*
X9583815Y4936402D01*
X9596981Y4913599D01*
X9615599Y4894980D01*
X9638402Y4881815D01*
X9663835Y4875000D01*
X9690166D01*
X9715599Y4881815D01*
X9738401Y4894980D01*
X9757020Y4913599D01*
X9770185Y4936402D01*
X9777000Y4961835D01*
Y4988165D01*
X9770185Y5013598D01*
X9757020Y5036401D01*
X9738401Y5055020D01*
X9715599Y5068185D01*
X9707792Y5070277D01*
Y5400000D01*
Y5429723D01*
X9715599Y5431815D01*
X9738401Y5444980D01*
X9757020Y5463599D01*
X9770185Y5486402D01*
X9777000Y5511835D01*
Y5538165D01*
X9770185Y5563598D01*
X9757020Y5586401D01*
X9738401Y5605020D01*
X9715599Y5618185D01*
X9707792Y5620277D01*
Y6244208D01*
X11746209D01*
Y5620277D01*
D02*
G37*
G36*
X9646209D02*
X9638402Y5618185D01*
X9615599Y5605020D01*
X9596981Y5586401D01*
X9583815Y5563598D01*
X9577000Y5538165D01*
Y5511835D01*
X9583815Y5486402D01*
X9596981Y5463599D01*
X9615599Y5444980D01*
X9627839Y5437913D01*
X9624436Y5425213D01*
X9523000D01*
Y5625000D01*
X9323000D01*
Y5563439D01*
X9222700D01*
Y5610200D01*
X9077300D01*
Y5439800D01*
X9222700D01*
Y5486562D01*
X9323000D01*
Y5425213D01*
X8785510D01*
Y5470346D01*
X8792810D01*
Y5545578D01*
X8700000D01*
Y5555578D01*
X8690000D01*
Y5640810D01*
X8654022D01*
X8647840Y5649443D01*
X8646452Y5653510D01*
X8647805Y5660312D01*
Y5790185D01*
X8649754Y5790992D01*
X8661709Y5802948D01*
X8668179Y5818568D01*
Y5835476D01*
X8662537Y5849097D01*
X8667602Y5861797D01*
X8831913D01*
X8977875Y5715835D01*
Y5610200D01*
X8877300D01*
Y5439800D01*
X9022700D01*
Y5610200D01*
X9022125D01*
Y5725000D01*
X9020441Y5733467D01*
X9015645Y5740645D01*
X8856723Y5899567D01*
X8849545Y5904363D01*
X8841078Y5906047D01*
X8561081D01*
X8552615Y5904363D01*
X8545437Y5899567D01*
X8536930Y5891060D01*
X8533454Y5892500D01*
X8516547D01*
X8500926Y5886030D01*
X8488971Y5874074D01*
X8482500Y5858454D01*
Y5841546D01*
X8488971Y5825926D01*
X8500926Y5813970D01*
X8502875Y5813163D01*
Y4560544D01*
X8504559Y4552077D01*
X8509355Y4544899D01*
X8569429Y4484825D01*
X8569324Y4482810D01*
X8565343Y4472125D01*
X7834165D01*
X7590645Y4715645D01*
X7583467Y4720441D01*
X7575000Y4722125D01*
X6509165D01*
X6497125Y4734165D01*
Y5127875D01*
X6827300D01*
Y5064800D01*
X6972700D01*
Y5235200D01*
X6827300D01*
Y5172125D01*
X6497125D01*
Y5455045D01*
X6509825Y5462762D01*
X6514490Y5460340D01*
Y5316490D01*
X6685510D01*
Y5363630D01*
X7546209D01*
Y5070277D01*
X7538402Y5068185D01*
X7515599Y5055020D01*
X7496981Y5036401D01*
X7483815Y5013598D01*
X7477001Y4988165D01*
Y4961835D01*
X7483815Y4936402D01*
X7496981Y4913599D01*
X7515599Y4894980D01*
X7538402Y4881815D01*
X7563835Y4875000D01*
X7590166D01*
X7615599Y4881815D01*
X7638402Y4894980D01*
X7657020Y4913599D01*
X7670185Y4936402D01*
X7677000Y4961835D01*
Y4988165D01*
X7670185Y5013598D01*
X7657020Y5036401D01*
X7638402Y5055020D01*
X7615599Y5068185D01*
X7607792Y5070277D01*
Y5400000D01*
Y5429723D01*
X7615599Y5431815D01*
X7638402Y5444980D01*
X7657020Y5463599D01*
X7670185Y5486402D01*
X7677000Y5511835D01*
Y5538165D01*
X7670185Y5563598D01*
X7657020Y5586401D01*
X7638402Y5605020D01*
X7615599Y5618185D01*
X7607792Y5620277D01*
Y6244208D01*
X9646209D01*
Y5620277D01*
D02*
G37*
G36*
X7546209D02*
X7538402Y5618185D01*
X7515599Y5605020D01*
X7496981Y5586401D01*
X7483815Y5563598D01*
X7477001Y5538165D01*
Y5511835D01*
X7483815Y5486402D01*
X7496981Y5463599D01*
X7515599Y5444980D01*
X7527839Y5437913D01*
X7524436Y5425213D01*
X7423000D01*
Y5625000D01*
X7223001D01*
Y5563439D01*
X7122700D01*
Y5610200D01*
X6977300D01*
Y5439800D01*
X7122700D01*
Y5486562D01*
X7223001D01*
Y5425213D01*
X6685510D01*
Y5470346D01*
X6692810D01*
Y5545578D01*
X6600000D01*
Y5555578D01*
X6590000D01*
Y5640810D01*
X6554021D01*
X6547840Y5649443D01*
X6546451Y5653510D01*
X6547805Y5660312D01*
Y5790185D01*
X6549753Y5790992D01*
X6561709Y5802948D01*
X6568179Y5818568D01*
Y5835476D01*
X6562537Y5849097D01*
X6567602Y5861797D01*
X6731913D01*
X6877875Y5715835D01*
Y5610200D01*
X6777300D01*
Y5439800D01*
X6922700D01*
Y5610200D01*
X6922125D01*
Y5725000D01*
X6920441Y5733467D01*
X6915645Y5740645D01*
X6756723Y5899567D01*
X6749545Y5904363D01*
X6741078Y5906047D01*
X6461081D01*
X6452614Y5904363D01*
X6445436Y5899567D01*
X6436929Y5891060D01*
X6433454Y5892500D01*
X6416546D01*
X6400926Y5886030D01*
X6388970Y5874074D01*
X6382500Y5858454D01*
Y5841546D01*
X6388970Y5825926D01*
X6400926Y5813970D01*
X6402875Y5813163D01*
Y4700000D01*
X6404559Y4691533D01*
X6409355Y4684355D01*
X6458885Y4634825D01*
X6458780Y4632811D01*
X6454799Y4622125D01*
X4784165D01*
X4397125Y5009165D01*
Y5127875D01*
X4727300D01*
Y5064800D01*
X4872700D01*
Y5235200D01*
X4727300D01*
Y5172125D01*
X4397125D01*
Y5455045D01*
X4409826Y5462761D01*
X4414490Y5460340D01*
Y5316490D01*
X4585510D01*
Y5363630D01*
X5446209D01*
Y5070277D01*
X5438402Y5068185D01*
X5415599Y5055020D01*
X5396981Y5036401D01*
X5383815Y5013598D01*
X5377000Y4988165D01*
Y4961835D01*
X5383815Y4936402D01*
X5396981Y4913599D01*
X5415599Y4894980D01*
X5438402Y4881815D01*
X5463835Y4875000D01*
X5490166D01*
X5515599Y4881815D01*
X5538401Y4894980D01*
X5557020Y4913599D01*
X5570185Y4936402D01*
X5577000Y4961835D01*
Y4988165D01*
X5570185Y5013598D01*
X5557020Y5036401D01*
X5538401Y5055020D01*
X5515599Y5068185D01*
X5507792Y5070277D01*
Y5400000D01*
Y5429723D01*
X5515599Y5431815D01*
X5538401Y5444980D01*
X5557020Y5463599D01*
X5570185Y5486402D01*
X5577000Y5511835D01*
Y5538165D01*
X5570185Y5563598D01*
X5557020Y5586401D01*
X5538401Y5605020D01*
X5515599Y5618185D01*
X5507792Y5620277D01*
Y6244208D01*
X7546209D01*
Y5620277D01*
D02*
G37*
G36*
X12766533Y5129559D02*
X12775000Y5127875D01*
X13127299D01*
Y5108590D01*
X13096017Y5077307D01*
X13091222Y5070129D01*
X13089537Y5061662D01*
Y4673883D01*
X13090277Y4670164D01*
X13083557Y4659297D01*
X13081261Y4657464D01*
X12998827D01*
X12847125Y4809165D01*
X12847125Y5010000D01*
X12845441Y5018467D01*
X12840645Y5025645D01*
X12748273Y5118017D01*
X12749477Y5128410D01*
X12761302Y5133054D01*
X12766533Y5129559D01*
D02*
G37*
G36*
X4790000Y3960000D02*
Y3540000D01*
X4480000D01*
Y3620000D01*
X4450000Y3650000D01*
X4240000D01*
Y4050000D01*
X4700000D01*
X4790000Y3960000D01*
D02*
G37*
G36*
X5009209Y3767246D02*
Y3490658D01*
X4228046D01*
Y3612550D01*
X4226676Y3619437D01*
X4222775Y3625275D01*
X4216937Y3629176D01*
X4210050Y3630546D01*
X4189950D01*
X4183063Y3629176D01*
X4180218Y3627275D01*
X4178038Y3630538D01*
X4169785Y3636052D01*
X4160050Y3637989D01*
X4160000D01*
Y3545000D01*
X4140000D01*
Y3637989D01*
X4139950D01*
X4130215Y3636052D01*
X4121962Y3630538D01*
X4119782Y3627275D01*
X4116937Y3629176D01*
X4110050Y3630546D01*
X4089950D01*
X4084825Y3629526D01*
X4080158Y3631291D01*
X4072125Y3637142D01*
Y3815835D01*
X4084165Y3827875D01*
X4226253D01*
Y3650000D01*
X4230280Y3640280D01*
X4232300Y3639443D01*
Y3637300D01*
X4237473D01*
X4240000Y3636254D01*
X4444306D01*
X4466253Y3614306D01*
Y3540000D01*
X4470280Y3530280D01*
X4480000Y3526254D01*
X4790000D01*
X4799720Y3530280D01*
X4803747Y3540000D01*
Y3954747D01*
X4816441Y3960014D01*
X5009209Y3767246D01*
D02*
G37*
G36*
X3810000Y4070000D02*
Y3650000D01*
X3680000Y3520000D01*
X2840000D01*
Y4180000D01*
X3700000D01*
X3810000Y4070000D01*
D02*
G37*
G36*
X20730000Y3570000D02*
X20050000D01*
X19950000Y3470000D01*
X19770000D01*
Y4070000D01*
X19930000Y4230000D01*
X20730000D01*
Y3570000D01*
D02*
G37*
G36*
X19330000Y3450000D02*
X19389999Y3390000D01*
Y2930000D01*
X18810001D01*
Y3240000D01*
X18930000D01*
X18980000Y3290000D01*
Y3810000D01*
X19050000Y3880000D01*
X19330000D01*
Y3450000D01*
D02*
G37*
G36*
X18730000Y3360000D02*
Y2900000D01*
X18060001D01*
Y3360000D01*
X18080000Y3380000D01*
X18710001D01*
X18730000Y3360000D01*
D02*
G37*
G36*
X4458307Y2885403D02*
X4457500Y2883454D01*
Y2867500D01*
X4441546D01*
X4439597Y2866693D01*
X4364145Y2942145D01*
X4356967Y2946941D01*
X4348500Y2948625D01*
X4262052D01*
X4202956Y3007721D01*
X4207817Y3019454D01*
X4210050D01*
X4216937Y3020824D01*
X4222775Y3024725D01*
X4226676Y3030563D01*
X4228046Y3037450D01*
Y3082875D01*
X4260836D01*
X4458307Y2885403D01*
D02*
G37*
%LPC*%
G36*
X19292810Y5640810D02*
X19210001D01*
Y5565579D01*
X19292810D01*
Y5640810D01*
D02*
G37*
G36*
X18945000Y6145000D02*
X18255000D01*
Y5455000D01*
X18945000D01*
Y6145000D01*
D02*
G37*
G36*
X17633453Y4917500D02*
X17616547D01*
X17600926Y4911030D01*
X17595798Y4905901D01*
X17587500Y4900102D01*
X17579202Y4905901D01*
X17574074Y4911030D01*
X17558453Y4917500D01*
X17541547D01*
X17525926Y4911030D01*
X17520798Y4905900D01*
X17512500Y4900102D01*
X17504202Y4905900D01*
X17499074Y4911030D01*
X17483453Y4917500D01*
X17466547D01*
X17450926Y4911030D01*
X17445798Y4905901D01*
X17437500Y4900102D01*
X17429202Y4905901D01*
X17424074Y4911030D01*
X17408453Y4917500D01*
X17391547D01*
X17375926Y4911030D01*
X17363969Y4899074D01*
X17357500Y4883454D01*
Y4866546D01*
X17363969Y4850926D01*
X17369099Y4845797D01*
X17374898Y4837500D01*
X17369099Y4829203D01*
X17363969Y4824074D01*
X17357500Y4808453D01*
Y4791546D01*
X17363969Y4775926D01*
X17375926Y4763970D01*
X17391547Y4757500D01*
X17408453D01*
X17424074Y4763970D01*
X17429202Y4769099D01*
X17437500Y4774898D01*
X17445798Y4769099D01*
X17450926Y4763970D01*
X17466547Y4757500D01*
X17483453D01*
X17499074Y4763970D01*
X17504202Y4769099D01*
X17512500Y4774898D01*
X17520798Y4769099D01*
X17525926Y4763970D01*
X17541547Y4757500D01*
X17558453D01*
X17574074Y4763970D01*
X17579202Y4769099D01*
X17587500Y4774898D01*
X17595798Y4769099D01*
X17600926Y4763970D01*
X17616547Y4757500D01*
X17633453D01*
X17649074Y4763970D01*
X17661029Y4775926D01*
X17667500Y4791546D01*
Y4808453D01*
X17661029Y4824074D01*
X17655901Y4829203D01*
X17650102Y4837500D01*
X17655901Y4845797D01*
X17661029Y4850926D01*
X17667500Y4866546D01*
Y4883454D01*
X17661029Y4899074D01*
X17649074Y4911030D01*
X17633453Y4917500D01*
D02*
G37*
G36*
X17672701Y5235200D02*
X17527299D01*
Y5064800D01*
X17561562D01*
Y5004291D01*
X17561562Y5004289D01*
X17564488Y4989580D01*
X17572820Y4977109D01*
X17602109Y4947820D01*
X17602109Y4947820D01*
X17614580Y4939487D01*
X17629289Y4936561D01*
X17723000D01*
Y4875000D01*
X17923000D01*
Y5075000D01*
X17723000D01*
Y5013439D01*
X17645210D01*
X17638438Y5020211D01*
Y5064800D01*
X17672701D01*
Y5235200D01*
D02*
G37*
G36*
X17192810Y5640810D02*
X17109999D01*
Y5565578D01*
X17192810D01*
Y5640810D01*
D02*
G37*
G36*
X16845000Y6145000D02*
X16155000D01*
Y5455000D01*
X16845000D01*
Y6145000D01*
D02*
G37*
G36*
X15533453Y4917500D02*
X15516547D01*
X15500926Y4911030D01*
X15495798Y4905901D01*
X15487500Y4900102D01*
X15479202Y4905901D01*
X15474074Y4911030D01*
X15458453Y4917500D01*
X15441547D01*
X15425926Y4911030D01*
X15420796Y4905900D01*
X15412500Y4900102D01*
X15404202Y4905900D01*
X15399074Y4911030D01*
X15383453Y4917500D01*
X15366547D01*
X15350926Y4911030D01*
X15345798Y4905901D01*
X15337500Y4900102D01*
X15329202Y4905901D01*
X15324074Y4911030D01*
X15308453Y4917500D01*
X15291547D01*
X15275926Y4911030D01*
X15263969Y4899074D01*
X15257500Y4883454D01*
Y4866546D01*
X15263969Y4850926D01*
X15269099Y4845797D01*
X15274898Y4837500D01*
X15269099Y4829203D01*
X15263969Y4824074D01*
X15257500Y4808453D01*
Y4791546D01*
X15263969Y4775926D01*
X15275926Y4763970D01*
X15291547Y4757500D01*
X15308453D01*
X15324074Y4763970D01*
X15329202Y4769099D01*
X15337500Y4774898D01*
X15345798Y4769099D01*
X15350926Y4763970D01*
X15366547Y4757500D01*
X15383453D01*
X15399074Y4763970D01*
X15404202Y4769099D01*
X15412500Y4774898D01*
X15420796Y4769099D01*
X15425926Y4763970D01*
X15441547Y4757500D01*
X15458453D01*
X15474074Y4763970D01*
X15479202Y4769099D01*
X15487500Y4774898D01*
X15495798Y4769099D01*
X15500926Y4763970D01*
X15516547Y4757500D01*
X15533453D01*
X15549074Y4763970D01*
X15561029Y4775926D01*
X15567499Y4791546D01*
Y4808453D01*
X15561029Y4824074D01*
X15555901Y4829203D01*
X15550102Y4837500D01*
X15555901Y4845797D01*
X15561029Y4850926D01*
X15567499Y4866546D01*
Y4883454D01*
X15561029Y4899074D01*
X15549074Y4911030D01*
X15533453Y4917500D01*
D02*
G37*
G36*
X15572701Y5235200D02*
X15427299D01*
Y5064800D01*
X15461562D01*
Y5004291D01*
X15461562Y5004289D01*
X15464487Y4989580D01*
X15472820Y4977109D01*
X15502109Y4947820D01*
X15502109Y4947820D01*
X15514580Y4939487D01*
X15529289Y4936561D01*
X15623000D01*
Y4875000D01*
X15823000D01*
Y5075000D01*
X15623000D01*
Y5013439D01*
X15545210D01*
X15538438Y5020211D01*
Y5064800D01*
X15572701D01*
Y5235200D01*
D02*
G37*
G36*
X15092810Y5640810D02*
X15010001D01*
Y5565579D01*
X15092810D01*
Y5640810D01*
D02*
G37*
G36*
X14745000Y6145000D02*
X14055000D01*
Y5455000D01*
X14745000D01*
Y6145000D01*
D02*
G37*
G36*
X13433453Y4917500D02*
X13416547D01*
X13400926Y4911030D01*
X13395798Y4905901D01*
X13387500Y4900102D01*
X13379202Y4905901D01*
X13374074Y4911030D01*
X13358453Y4917500D01*
X13341547D01*
X13325926Y4911030D01*
X13320798Y4905900D01*
X13312500Y4900102D01*
X13304202Y4905900D01*
X13299074Y4911030D01*
X13283453Y4917500D01*
X13266547D01*
X13250926Y4911030D01*
X13245798Y4905901D01*
X13237500Y4900102D01*
X13229202Y4905901D01*
X13224074Y4911030D01*
X13208453Y4917500D01*
X13191547D01*
X13175926Y4911030D01*
X13163969Y4899074D01*
X13157500Y4883454D01*
Y4866546D01*
X13163969Y4850926D01*
X13169099Y4845797D01*
X13174898Y4837500D01*
X13169099Y4829203D01*
X13163969Y4824074D01*
X13157500Y4808453D01*
Y4791546D01*
X13163969Y4775926D01*
X13175926Y4763970D01*
X13191547Y4757500D01*
X13208453D01*
X13224074Y4763970D01*
X13229202Y4769099D01*
X13237500Y4774898D01*
X13245798Y4769099D01*
X13250926Y4763970D01*
X13266547Y4757500D01*
X13283453D01*
X13299074Y4763970D01*
X13304202Y4769099D01*
X13312500Y4774898D01*
X13320798Y4769099D01*
X13325926Y4763970D01*
X13341547Y4757500D01*
X13358453D01*
X13374074Y4763970D01*
X13379202Y4769099D01*
X13387500Y4774898D01*
X13395798Y4769099D01*
X13400926Y4763970D01*
X13416547Y4757500D01*
X13433453D01*
X13449074Y4763970D01*
X13461029Y4775926D01*
X13467500Y4791546D01*
Y4808453D01*
X13461029Y4824074D01*
X13455901Y4829203D01*
X13450102Y4837500D01*
X13455901Y4845797D01*
X13461029Y4850926D01*
X13467500Y4866546D01*
Y4883454D01*
X13461029Y4899074D01*
X13449074Y4911030D01*
X13433453Y4917500D01*
D02*
G37*
G36*
X13472701Y5235200D02*
X13327299D01*
Y5064800D01*
X13361562D01*
Y5004291D01*
X13361562Y5004289D01*
X13364488Y4989580D01*
X13372820Y4977109D01*
X13402109Y4947820D01*
X13402109Y4947820D01*
X13414580Y4939487D01*
X13429289Y4936561D01*
X13523000D01*
Y4875000D01*
X13723000D01*
Y5075000D01*
X13523000D01*
Y5013439D01*
X13445210D01*
X13438438Y5020211D01*
Y5064800D01*
X13472701D01*
Y5235200D01*
D02*
G37*
G36*
X10892810Y5640810D02*
X10809999D01*
Y5565578D01*
X10892810D01*
Y5640810D01*
D02*
G37*
G36*
X10545000Y6145000D02*
X9855000D01*
Y5455000D01*
X10545000D01*
Y6145000D01*
D02*
G37*
G36*
X9233453Y4917500D02*
X9216546D01*
X9200926Y4911030D01*
X9195797Y4905901D01*
X9187500Y4900102D01*
X9179203Y4905901D01*
X9174074Y4911030D01*
X9158454Y4917500D01*
X9141546D01*
X9125926Y4911030D01*
X9120797Y4905900D01*
X9112500Y4900102D01*
X9104203Y4905900D01*
X9099074Y4911030D01*
X9083454Y4917500D01*
X9066546D01*
X9050926Y4911030D01*
X9045797Y4905901D01*
X9037500Y4900102D01*
X9029203Y4905901D01*
X9024074Y4911030D01*
X9008454Y4917500D01*
X8991546D01*
X8975926Y4911030D01*
X8963970Y4899074D01*
X8957500Y4883454D01*
Y4866546D01*
X8963970Y4850926D01*
X8969100Y4845797D01*
X8974898Y4837500D01*
X8969100Y4829203D01*
X8963970Y4824074D01*
X8957500Y4808453D01*
Y4791546D01*
X8963970Y4775926D01*
X8975926Y4763970D01*
X8991546Y4757500D01*
X9008454D01*
X9024074Y4763970D01*
X9029203Y4769099D01*
X9037500Y4774898D01*
X9045797Y4769099D01*
X9050926Y4763970D01*
X9066546Y4757500D01*
X9083454D01*
X9099074Y4763970D01*
X9104203Y4769099D01*
X9112500Y4774898D01*
X9120797Y4769099D01*
X9125926Y4763970D01*
X9141546Y4757500D01*
X9158454D01*
X9174074Y4763970D01*
X9179203Y4769099D01*
X9187500Y4774898D01*
X9195797Y4769099D01*
X9200926Y4763970D01*
X9216546Y4757500D01*
X9233453D01*
X9249074Y4763970D01*
X9261029Y4775926D01*
X9267500Y4791546D01*
Y4808453D01*
X9261029Y4824074D01*
X9255900Y4829203D01*
X9250102Y4837500D01*
X9255900Y4845797D01*
X9261029Y4850926D01*
X9267500Y4866546D01*
Y4883454D01*
X9261029Y4899074D01*
X9249074Y4911030D01*
X9233453Y4917500D01*
D02*
G37*
G36*
X9272700Y5235200D02*
X9127300D01*
Y5064800D01*
X9161562D01*
Y5004291D01*
X9161561Y5004289D01*
X9164488Y4989580D01*
X9172820Y4977109D01*
X9202109Y4947820D01*
X9202109Y4947820D01*
X9214580Y4939487D01*
X9229290Y4936561D01*
X9323000D01*
Y4875000D01*
X9523000D01*
Y5075000D01*
X9323000D01*
Y5013439D01*
X9245211D01*
X9238439Y5020211D01*
Y5064800D01*
X9272700D01*
Y5235200D01*
D02*
G37*
G36*
X8792810Y5640810D02*
X8710000D01*
Y5565578D01*
X8792810D01*
Y5640810D01*
D02*
G37*
G36*
X8445000Y6145000D02*
X7755000D01*
Y5455000D01*
X8445000D01*
Y6145000D01*
D02*
G37*
G36*
X7133453Y4917500D02*
X7116546D01*
X7100926Y4911030D01*
X7095797Y4905901D01*
X7087500Y4900102D01*
X7079203Y4905901D01*
X7074074Y4911030D01*
X7058453Y4917500D01*
X7041546D01*
X7025926Y4911030D01*
X7020796Y4905900D01*
X7012500Y4900102D01*
X7004203Y4905900D01*
X6999074Y4911030D01*
X6983453Y4917500D01*
X6966546D01*
X6950926Y4911030D01*
X6945797Y4905901D01*
X6937500Y4900102D01*
X6929203Y4905901D01*
X6924074Y4911030D01*
X6908454Y4917500D01*
X6891546D01*
X6875926Y4911030D01*
X6863970Y4899074D01*
X6857500Y4883454D01*
Y4866546D01*
X6863970Y4850926D01*
X6869100Y4845797D01*
X6874898Y4837500D01*
X6869100Y4829203D01*
X6863970Y4824074D01*
X6857500Y4808453D01*
Y4791546D01*
X6863970Y4775926D01*
X6875926Y4763970D01*
X6891546Y4757500D01*
X6908454D01*
X6924074Y4763970D01*
X6929203Y4769099D01*
X6937500Y4774898D01*
X6945797Y4769099D01*
X6950926Y4763970D01*
X6966546Y4757500D01*
X6983453D01*
X6999074Y4763970D01*
X7004203Y4769099D01*
X7012500Y4774898D01*
X7020796Y4769099D01*
X7025926Y4763970D01*
X7041546Y4757500D01*
X7058453D01*
X7074074Y4763970D01*
X7079203Y4769099D01*
X7087500Y4774898D01*
X7095797Y4769099D01*
X7100926Y4763970D01*
X7116546Y4757500D01*
X7133453D01*
X7149074Y4763970D01*
X7161029Y4775926D01*
X7167500Y4791546D01*
Y4808453D01*
X7161029Y4824074D01*
X7155900Y4829203D01*
X7150102Y4837500D01*
X7155900Y4845797D01*
X7161029Y4850926D01*
X7167500Y4866546D01*
Y4883454D01*
X7161029Y4899074D01*
X7149074Y4911030D01*
X7133453Y4917500D01*
D02*
G37*
G36*
X7172700Y5235200D02*
X7027300D01*
Y5064800D01*
X7071561D01*
Y5004291D01*
X7071561Y5004289D01*
X7074488Y4989580D01*
X7082820Y4977109D01*
X7112109Y4947820D01*
X7112109Y4947820D01*
X7124580Y4939487D01*
X7139290Y4936561D01*
X7223001D01*
Y4875000D01*
X7423000D01*
Y5075000D01*
X7223001D01*
Y5013439D01*
X7155211D01*
X7148439Y5020211D01*
Y5064800D01*
X7172700D01*
Y5235200D01*
D02*
G37*
G36*
X6692810Y5640810D02*
X6610000D01*
Y5565578D01*
X6692810D01*
Y5640810D01*
D02*
G37*
G36*
X6345000Y6145000D02*
X5655000D01*
Y5455000D01*
X6345000D01*
Y6145000D01*
D02*
G37*
G36*
X5033453Y4917500D02*
X5016546D01*
X5000926Y4911030D01*
X4995797Y4905901D01*
X4987500Y4900102D01*
X4979203Y4905901D01*
X4974074Y4911030D01*
X4958454Y4917500D01*
X4941546D01*
X4925926Y4911030D01*
X4920797Y4905900D01*
X4912500Y4900102D01*
X4904203Y4905900D01*
X4899074Y4911030D01*
X4883454Y4917500D01*
X4866546D01*
X4850926Y4911030D01*
X4845797Y4905901D01*
X4837500Y4900102D01*
X4829203Y4905901D01*
X4824074Y4911030D01*
X4808454Y4917500D01*
X4791546D01*
X4775926Y4911030D01*
X4763970Y4899074D01*
X4757500Y4883454D01*
Y4866546D01*
X4763970Y4850926D01*
X4769100Y4845797D01*
X4774898Y4837500D01*
X4769100Y4829203D01*
X4763970Y4824074D01*
X4757500Y4808453D01*
Y4791546D01*
X4763970Y4775926D01*
X4775926Y4763970D01*
X4791546Y4757500D01*
X4808454D01*
X4824074Y4763970D01*
X4829203Y4769099D01*
X4837500Y4774898D01*
X4845797Y4769099D01*
X4850926Y4763970D01*
X4866546Y4757500D01*
X4883454D01*
X4899074Y4763970D01*
X4904203Y4769099D01*
X4912500Y4774898D01*
X4920797Y4769099D01*
X4925926Y4763970D01*
X4941546Y4757500D01*
X4958454D01*
X4974074Y4763970D01*
X4979203Y4769099D01*
X4987500Y4774898D01*
X4995797Y4769099D01*
X5000926Y4763970D01*
X5016546Y4757500D01*
X5033453D01*
X5049074Y4763970D01*
X5061030Y4775926D01*
X5067500Y4791546D01*
Y4808453D01*
X5061030Y4824074D01*
X5055900Y4829203D01*
X5050102Y4837500D01*
X5055900Y4845797D01*
X5061030Y4850926D01*
X5067500Y4866546D01*
Y4883454D01*
X5061030Y4899074D01*
X5049074Y4911030D01*
X5033453Y4917500D01*
D02*
G37*
G36*
X5072700Y5235200D02*
X4927300D01*
Y5064800D01*
X4961562D01*
Y5004291D01*
X4961561Y5004289D01*
X4964488Y4989580D01*
X4972820Y4977109D01*
X5002109Y4947820D01*
X5002109Y4947820D01*
X5014580Y4939487D01*
X5029290Y4936561D01*
X5123000D01*
Y4875000D01*
X5323000D01*
Y5075000D01*
X5123000D01*
Y5013439D01*
X5045211D01*
X5038439Y5020211D01*
Y5064800D01*
X5072700D01*
Y5235200D01*
D02*
G37*
%LPD*%
D10*
X6340500Y3791360D02*
D03*
D11*
X6213500D02*
D03*
X6086500D02*
D03*
X5959500D02*
D03*
Y3308640D02*
D03*
X6086500D02*
D03*
X6213500D02*
D03*
X6340500D02*
D03*
D12*
X19306274Y3100000D02*
D03*
X19693726D02*
D03*
D13*
X6069422Y4150000D02*
D03*
X6230578D02*
D03*
X18686156Y4075000D02*
D03*
X18525000D02*
D03*
D14*
X11618023Y4156977D02*
D03*
X11731977Y4043023D02*
D03*
X10656977Y3893023D02*
D03*
X10543023Y4006977D02*
D03*
D15*
X12081977Y3681977D02*
D03*
X11968023Y3568023D02*
D03*
X10546977Y3456977D02*
D03*
X10433023Y3343023D02*
D03*
D16*
X11449498Y4000503D02*
D03*
X11350503Y4099498D02*
D03*
D17*
X4500000Y5555578D02*
D03*
Y5394422D02*
D03*
X19200000Y5555578D02*
D03*
Y5394422D02*
D03*
X17100000Y5555578D02*
D03*
Y5394422D02*
D03*
X15000000Y5555578D02*
D03*
Y5394422D02*
D03*
X12900000Y5555578D02*
D03*
Y5394422D02*
D03*
X10800000Y5555578D02*
D03*
Y5394422D02*
D03*
X8700000Y5555578D02*
D03*
Y5394422D02*
D03*
X6600000Y5555578D02*
D03*
Y5394422D02*
D03*
X17775000Y4080078D02*
D03*
Y3919922D02*
D03*
X16625000Y2944422D02*
D03*
Y3105578D02*
D03*
X19100000Y4119422D02*
D03*
Y4280578D02*
D03*
X3750000Y3219422D02*
D03*
Y3380578D02*
D03*
D18*
X4675000Y3650000D02*
D03*
Y3262550D02*
D03*
D19*
X4800000Y5150000D02*
D03*
X5000000D02*
D03*
X11100000D02*
D03*
X11300000D02*
D03*
X15500000D02*
D03*
X15300000D02*
D03*
X15500000Y5525000D02*
D03*
X15300000D02*
D03*
X13400000Y5150000D02*
D03*
X13200000D02*
D03*
X13350000Y5525000D02*
D03*
X13150000D02*
D03*
X11250000D02*
D03*
X11050000D02*
D03*
X9200000Y5150000D02*
D03*
X9000000D02*
D03*
X9150000Y5525000D02*
D03*
X8950000D02*
D03*
X7100000Y5150000D02*
D03*
X6900000D02*
D03*
X7050000Y5525000D02*
D03*
X6850000D02*
D03*
X4950000D02*
D03*
X4750000D02*
D03*
X19700000Y5150000D02*
D03*
X19500000D02*
D03*
X19700000Y5525000D02*
D03*
X19500000D02*
D03*
X17600000Y5150000D02*
D03*
X17400000D02*
D03*
X17600000Y5525000D02*
D03*
X17400000D02*
D03*
X4000000Y2825000D02*
D03*
X4200000D02*
D03*
D20*
X18867101Y2959500D02*
D03*
Y3086500D02*
D03*
Y3213500D02*
D03*
Y3340500D02*
D03*
X18282899D02*
D03*
Y3213500D02*
D03*
Y3086500D02*
D03*
Y2959500D02*
D03*
D21*
X19860001Y3675000D02*
D03*
X19239999D02*
D03*
X4335000Y3850000D02*
D03*
X3715000D02*
D03*
D22*
X11213033Y3928596D02*
D03*
X10951404Y3666967D02*
D03*
X11106967Y3511403D02*
D03*
X11368597Y3773033D02*
D03*
D23*
X11392426Y3592426D02*
D03*
X11307574Y3507574D02*
D03*
X10932574Y3882574D02*
D03*
X11017426Y3967426D02*
D03*
D24*
X16645000Y3853000D02*
D03*
Y3397000D02*
D03*
D25*
X17285001Y3625000D02*
D03*
D26*
X19789999Y4330000D02*
D03*
Y4530000D02*
D03*
D27*
X19575000Y3980000D02*
D03*
X19525000D02*
D03*
X19475000D02*
D03*
X19425000D02*
D03*
X19375000D02*
D03*
Y4420000D02*
D03*
X19425000D02*
D03*
X19475000D02*
D03*
X19525000D02*
D03*
X19575000D02*
D03*
X4000000Y3545000D02*
D03*
X4050000D02*
D03*
X4100000D02*
D03*
X4150000D02*
D03*
X4200000D02*
D03*
Y3105000D02*
D03*
X4150000D02*
D03*
X4100000D02*
D03*
X4050000D02*
D03*
X4000000D02*
D03*
D28*
X18695000Y3570000D02*
D03*
X18600000D02*
D03*
X18505000D02*
D03*
Y3830000D02*
D03*
X18600000D02*
D03*
X18695000D02*
D03*
D29*
X14696661Y4663338D02*
X14770000Y4590000D01*
X12989662Y4635338D02*
X14654662D01*
X12825000Y4800000D02*
X12989662Y4635338D01*
X13122206Y4663338D02*
X14696661D01*
X13111662Y4673883D02*
X13122206Y4663338D01*
X13111662Y4673883D02*
Y5061662D01*
X14654662Y4635338D02*
X14720000Y4570000D01*
X19381000Y4037500D02*
Y4061612D01*
Y3986000D02*
Y4037500D01*
X12864439Y2956000D02*
X13050606Y2769834D01*
X13144833D01*
X13150000Y2775000D01*
X13088100Y2831900D02*
X13173569D01*
X13175468Y2830000D02*
X13239999D01*
X12936000Y2984000D02*
X13088100Y2831900D01*
X13173569D02*
X13175468Y2830000D01*
X10791500Y2769500D02*
X10950000Y2928000D01*
X10470000Y2780000D02*
X10646000Y2956000D01*
X12500000Y2900000D02*
X12650000Y2750000D01*
X11176000Y2900000D02*
X12500000D01*
X10460440Y2870000D02*
X10574440Y2984000D01*
X12936000D01*
X10646000Y2956000D02*
X12864439D01*
X12572000Y2928000D02*
X12671138Y2828862D01*
X10950000Y2928000D02*
X12572000D01*
X11051000Y2775000D02*
X11176000Y2900000D01*
X10775000Y2775000D02*
X10786000Y2764000D01*
X10791500Y2769500D01*
X12671138Y2826931D02*
Y2828862D01*
X11029000Y2775000D02*
X11051000D01*
X12650000Y2750000D02*
X12725000D01*
X8575000Y5150000D02*
Y5609632D01*
Y4600000D02*
Y5150000D01*
X9000000D01*
X10675000Y5142316D02*
Y5609632D01*
Y4675000D02*
Y5142316D01*
X10682684Y5150000D02*
X11100000D01*
X10675000Y5142316D02*
X10682684Y5150000D01*
X13111662Y5061662D02*
X13200000Y5150000D01*
X12825000Y4800000D02*
X12825000Y5010000D01*
X12725000Y5110000D02*
X12825000Y5010000D01*
X14553300Y2653300D02*
X14625000Y2725000D01*
X11621700Y2653300D02*
X14553300D01*
X5879257Y2925257D02*
Y2975802D01*
X5880000Y3469456D02*
X5910544Y3500000D01*
X5880000Y2976544D02*
Y3469456D01*
X5854000Y2900000D02*
X5879257Y2925257D01*
Y2975802D02*
X5880000Y2976544D01*
X15689999Y4550000D02*
X18825000D01*
X18850000Y4500000D02*
X19075000Y4725000D01*
X19500000Y5150000D02*
Y5162500D01*
X15700000Y4500000D02*
X18850000D01*
X18825000Y4550000D02*
X19025000Y4750000D01*
X19125679Y5827022D02*
X19127881Y5824821D01*
X11044975Y3882876D02*
X11050141Y3877710D01*
X11044975Y3882876D02*
Y3899573D01*
X11017426Y3927121D02*
X11044975Y3899573D01*
X11017426Y3927121D02*
Y3967426D01*
X10809266Y3626670D02*
Y3939266D01*
X11017426Y3967426D02*
X11057732D01*
X10809266Y3939266D02*
X10818118Y3948118D01*
Y3960633D01*
X10853226Y3995741D01*
X10809266Y3626670D02*
X10911107Y3524830D01*
X10964847D01*
X11006558Y3483119D01*
X11078683D01*
X11106967Y3511403D01*
X11235154Y3539688D02*
X11267268Y3507574D01*
X11135251Y3539688D02*
X11235154D01*
X11106967Y3511403D02*
X11135251Y3539688D01*
X11267268Y3507574D02*
X11307574D01*
X11057732Y3967426D02*
X11118735Y3906423D01*
X11190860D01*
X11213033Y3928596D01*
X10730000Y3830000D02*
X10730000D01*
X10656977Y3893023D02*
X10666977D01*
X10730000Y3830000D01*
X10362694Y2760000D02*
X10382694Y2780000D01*
X10190000Y2760000D02*
X10362694D01*
X10382694Y2780000D02*
X10390000D01*
X10470000D01*
X10310000Y2870000D02*
X10460440D01*
X10270000Y2830000D02*
X10310000Y2870000D01*
X19375000Y4306515D02*
Y4420000D01*
X19330661Y4262177D02*
X19375000Y4306515D01*
X19425000Y4282306D02*
Y4420000D01*
X19400000Y4257306D02*
X19425000Y4282306D01*
X19400000Y4250000D02*
Y4257306D01*
X8110402Y3200000D02*
X11600000D01*
X11625000Y3225000D01*
Y3400000D01*
X11600000Y3425000D02*
X11625000Y3400000D01*
X11675000Y3200000D02*
Y3450000D01*
X11600000Y3469451D02*
X11643516Y3512968D01*
X8120000Y3170000D02*
X11645000D01*
X11675000Y3200000D01*
X7772000Y2822000D02*
X8120000Y3170000D01*
X7760402Y2850000D02*
X8110402Y3200000D01*
X12725000Y5110000D02*
Y5850000D01*
X14280000Y3880000D02*
X14600000D01*
X14720000Y4000000D02*
Y4570000D01*
X14600000Y3880000D02*
X14720000Y4000000D01*
X14825000Y3955000D02*
Y5850000D01*
X14770000Y3970000D02*
Y4590000D01*
X14875000Y3935000D02*
Y5150000D01*
X14610001Y3810000D02*
X14770000Y3970000D01*
X14230000Y3810000D02*
X14610001D01*
X14280000Y3750000D02*
X14620000D01*
X12150000Y4550000D02*
X13020000Y3680000D01*
X13080000D01*
X8625000Y4550000D02*
X12150000D01*
X10675000Y4600000D02*
X12170000D01*
X13020000Y3750000D02*
X13130000D01*
X12170000Y4600000D02*
X13020000Y3750000D01*
X10700000Y4650000D02*
X12200000D01*
X13039999Y3810000D01*
X13080000D01*
X8585544Y4500000D02*
X12120000D01*
X13000000Y3620000D01*
X13130000D01*
X7825000Y4450000D02*
X12090000D01*
X12989999Y3550000D01*
X13070000D01*
X7800000Y4400000D02*
X12060000D01*
X12970000Y3490000D02*
X13130000D01*
X12060000Y4400000D02*
X12970000Y3490000D01*
X7775000Y4350000D02*
X12030000D01*
X12960001Y3420000D02*
X13080000D01*
X12030000Y4350000D02*
X12960001Y3420000D01*
X12000000Y4300000D02*
X12939999Y3360000D01*
X13130000D01*
X7750000Y4300000D02*
X12000000D01*
X7525000Y4600000D02*
X7775000Y4350000D01*
X14230000Y3680000D02*
X14620000D01*
X4800000Y5525000D02*
Y5725000D01*
X19485544Y4530000D02*
X19789999D01*
X19475000Y4420000D02*
Y4519456D01*
X19485544Y4530000D01*
X19687944Y4330000D02*
X19789999D01*
X19488075Y4130132D02*
X19687944Y4330000D01*
X19449519Y4130132D02*
X19488075D01*
X19381000Y4061612D02*
X19449519Y4130132D01*
X19375000Y3980000D02*
X19381000Y3986000D01*
X14230000Y3420000D02*
X14620000D01*
X15700000Y4500000D01*
X15680000Y4600000D02*
X16900000D01*
X14230000Y3550000D02*
X14630000D01*
X15680000Y4600000D01*
X14630000Y3490000D02*
X15689999Y4550000D01*
X14280000Y3490000D02*
X14630000D01*
X14280000Y3620000D02*
X14630000D01*
X15660001Y4650000D02*
X16900000D01*
X14630000Y3620000D02*
X15660001Y4650000D01*
X14620000Y3680000D02*
X14875000Y3935000D01*
X14620000Y3750000D02*
X14825000Y3955000D01*
X11525000Y2750000D02*
X11621700Y2653300D01*
X11600000Y3425000D02*
Y3469451D01*
X6425000Y3600000D02*
X6522000Y3503000D01*
Y3038402D02*
Y3503000D01*
X6275000Y3600000D02*
X6425000D01*
X5939076Y3704004D02*
X5959500Y3724428D01*
X5879004Y3704004D02*
X5939076D01*
X5959500Y3724428D02*
Y3791360D01*
X5875000Y3700000D02*
X5879004Y3704004D01*
X6340500Y3791360D02*
X6408640D01*
X6550000Y3650000D01*
X6522000Y3038402D02*
X6738402Y2822000D01*
X6550000Y3050000D02*
Y3650000D01*
Y3050000D02*
X6750000Y2850000D01*
X6738402Y2822000D02*
X7772000D01*
X6750000Y2850000D02*
X7760402D01*
X5910544Y3500000D02*
X6114491D01*
X6348960Y2913040D02*
Y3300180D01*
Y2913040D02*
X6362000Y2900000D01*
X6340500Y3308640D02*
X6348960Y3300180D01*
X6114491Y3500000D02*
X6213500Y3400991D01*
Y3308640D02*
Y3400991D01*
X6094960Y2913040D02*
Y3300180D01*
X6086500Y3308640D02*
X6094960Y3300180D01*
Y2913040D02*
X6108000Y2900000D01*
X19475000Y4226249D02*
Y4420000D01*
X19435783Y4187033D02*
X19475000Y4226249D01*
X19431483Y4187033D02*
X19435783D01*
X4270000Y3105000D02*
X4500000Y2875000D01*
X4200000Y3105000D02*
X4270000D01*
X4156000Y3023388D02*
X4252888Y2926500D01*
X4156000Y3023388D02*
Y3099000D01*
X4252888Y2926500D02*
X4348500D01*
X4150000Y3105000D02*
X4156000Y3099000D01*
X4348500Y2926500D02*
X4450000Y2825000D01*
X4200000D02*
Y2925000D01*
X4350000Y2825000D02*
X4400000Y2775000D01*
X4106000Y3019000D02*
Y3099000D01*
X4100000Y3105000D02*
X4106000Y3099000D01*
X4200000Y2825000D02*
X4350000D01*
X4106000Y3019000D02*
X4200000Y2925000D01*
X4000000Y2825000D02*
Y3105000D01*
X4050000D01*
X3983817Y3241184D02*
X4000000Y3225000D01*
Y3105000D02*
Y3225000D01*
X19293079Y4119422D02*
X19375000Y4037500D01*
Y3980000D02*
Y4037500D01*
X19100000Y4119422D02*
X19293079D01*
X18695000Y3830000D02*
Y4066156D01*
X18686156Y4075000D02*
X18695000Y4066156D01*
X18282899Y3340500D02*
X18355499D01*
X18505000Y3490000D01*
Y3570000D01*
X18695000D02*
Y3655000D01*
X18650000Y3700000D02*
X18695000Y3655000D01*
X18550000Y3700000D02*
X18650000D01*
X18505000Y3745000D02*
X18550000Y3700000D01*
X18505000Y3745000D02*
Y3830000D01*
Y4055000D02*
X18525000Y4075000D01*
X18505000Y3830000D02*
Y4055000D01*
X18867101Y3213500D02*
X18900121D01*
X19000000Y3185544D02*
Y3450000D01*
X18900121Y3213500D02*
X18938620Y3175000D01*
X18989456D01*
X19000000Y3185544D01*
X18695000Y3550100D02*
Y3570000D01*
Y3550100D02*
X18716000Y3529100D01*
X18920900D01*
X19000000Y3450000D01*
X18600000Y3475000D02*
Y3570000D01*
X18650000Y3425000D02*
X18749580D01*
X18600000Y3475000D02*
X18650000Y3425000D01*
X18749580D02*
X18834081Y3340500D01*
X18867101D01*
X10675000Y4675000D02*
X10700000Y4650000D01*
X10625000D02*
Y5850000D01*
Y4650000D02*
X10675000Y4600000D01*
X8575000D02*
X8625000Y4550000D01*
X8525000Y4560544D02*
X8585544Y4500000D01*
X7575000Y4700000D02*
X7825000Y4450000D01*
X6500000Y4700000D02*
X7575000D01*
X7550000Y4650000D02*
X7800000Y4400000D01*
X6475000Y4650000D02*
X7550000D01*
X4775000Y4600000D02*
X7525000D01*
X7500000Y4550000D02*
X7750000Y4300000D01*
X4750000Y4550000D02*
X7500000D01*
X6425000Y4700000D02*
X6475000Y4650000D01*
Y4725000D02*
X6500000Y4700000D01*
X4325000Y4975000D02*
Y5850000D01*
Y4975000D02*
X4750000Y4550000D01*
X4375000Y5000000D02*
X4775000Y4600000D01*
X4375000Y5000000D02*
Y5150000D01*
X4050000Y3545000D02*
X4100000D01*
X19475000Y3980000D02*
X19525000D01*
X4075000Y3850000D02*
X4335000D01*
X4050000Y3545000D02*
Y3825000D01*
X4075000Y3850000D01*
X3715000D02*
X3975000D01*
X4000000Y3825000D01*
Y3545000D02*
Y3825000D01*
X19240001Y3675000D02*
X19500000D01*
X19239999Y3675000D02*
X19240001Y3675000D01*
X19525000Y3700000D02*
Y3980000D01*
X19500000Y3675000D02*
X19525000Y3700000D01*
X19575000Y3700000D02*
X19600000Y3675000D01*
X19860001D01*
X19575000Y3700000D02*
Y3980000D01*
X19855000Y3680000D02*
X19860001Y3675000D01*
X12775000Y5150000D02*
Y5609632D01*
Y5150000D02*
X13200000D01*
X14875000D02*
Y5609632D01*
Y5150000D02*
X15300000D01*
X16975000D02*
Y5609632D01*
Y4675000D02*
Y5150000D01*
X17400000D01*
X19075000D02*
Y5609632D01*
Y4725000D02*
Y5150000D01*
X19500000D01*
X6475000Y4725000D02*
Y5150000D01*
Y5609632D01*
Y5150000D02*
X6900000D01*
X6475000Y5609632D02*
X6525679Y5660312D01*
Y5827022D01*
X4375000Y5150000D02*
Y5609632D01*
Y5150000D02*
X4800000D01*
X4375000Y5609632D02*
X4425679Y5660312D01*
Y5827022D01*
X16900000Y4650000D02*
X16925000Y4675000D01*
X16900000Y4600000D02*
X16975000Y4675000D01*
X4327159Y5850000D02*
X4361081Y5883922D01*
X4641078D01*
X4800000Y5725000D01*
X6425000Y4700000D02*
Y5850000D01*
X6427159D02*
X6461081Y5883922D01*
X6741078D01*
X6900000Y5525000D02*
Y5725000D01*
X6741078Y5883922D02*
X6900000Y5725000D01*
X8625679Y5660312D02*
Y5827022D01*
X8575000Y5609632D02*
X8625679Y5660312D01*
X8525000Y4560544D02*
Y5850000D01*
X8527159D02*
X8561081Y5883922D01*
X8841078D01*
X9000000Y5525000D02*
Y5725000D01*
X8841078Y5883922D02*
X9000000Y5725000D01*
X10725679Y5660312D02*
Y5827022D01*
X10675000Y5609632D02*
X10725679Y5660312D01*
X10627159Y5850000D02*
X10661081Y5883922D01*
X10941078D01*
X11100000Y5525000D02*
Y5725000D01*
X10941078Y5883922D02*
X11100000Y5725000D01*
X12825679Y5660312D02*
Y5827022D01*
X12775000Y5609632D02*
X12825679Y5660312D01*
X12727159Y5850000D02*
X12761081Y5883922D01*
X13041078D01*
X13200000Y5525000D02*
Y5725000D01*
X13041078Y5883922D02*
X13200000Y5725000D01*
X14925679Y5660312D02*
Y5827022D01*
X14875000Y5609632D02*
X14925679Y5660312D01*
X14827159Y5850000D02*
X14861081Y5883922D01*
X15141078D01*
X15300000Y5525000D02*
Y5725000D01*
X15141078Y5883922D02*
X15300000Y5725000D01*
X17025679Y5660312D02*
Y5827022D01*
X16975000Y5609632D02*
X17025679Y5660312D01*
X16925000Y4675000D02*
Y5850000D01*
X16927159D02*
X16961081Y5883922D01*
X17241078D01*
X17400000Y5525000D02*
Y5725000D01*
X17241078Y5883922D02*
X17400000Y5725000D01*
X19341078Y5883922D02*
X19500000Y5725000D01*
Y5525000D02*
Y5725000D01*
X19061081Y5883922D02*
X19341078D01*
X19027159Y5850000D02*
X19061081Y5883922D01*
X19025000Y5850000D02*
X19027159D01*
X19025000Y4750000D02*
Y5850000D01*
X19075000Y5609632D02*
X19125679Y5660312D01*
Y5827022D01*
D30*
X14550000Y2825000D02*
X14750000D01*
X17075000Y3415000D02*
X17285001Y3625000D01*
X17075000Y3125000D02*
Y3415000D01*
X16725000Y2775000D02*
X17075000Y3125000D01*
X14800000Y2775000D02*
X16725000D01*
X14750000Y2825000D02*
X14800000Y2775000D01*
X18850000Y4330000D02*
X18939999D01*
X18339999D02*
X18850000D01*
Y4260000D02*
Y4330000D01*
X18952190Y4157810D02*
X19061612D01*
X19100000Y4119422D01*
X18850000Y4260000D02*
X18952190Y4157810D01*
X16625000Y3377000D02*
X16645000Y3397000D01*
X16575000D02*
X16645000D01*
X6215837Y3793697D02*
Y4135259D01*
X6230578Y4150000D01*
X6213500Y3791360D02*
X6215837Y3793697D01*
X6084163D02*
X6086500Y3791360D01*
X6084163Y3793697D02*
Y4135259D01*
X6069422Y4150000D02*
X6084163Y4135259D01*
X20050000Y4840000D02*
Y4848000D01*
X19930000Y4720000D02*
X20050000Y4840000D01*
X19330000Y4720000D02*
X19930000D01*
X18939999Y4330000D02*
X19330000Y4720000D01*
X17929921Y3919922D02*
X18339999Y4330000D01*
X17775000Y3919922D02*
X17929921D01*
X17537500Y3877500D02*
X17725000D01*
X17767422Y3919922D01*
X17285001Y3625000D02*
X17537500Y3877500D01*
X17767422Y3919922D02*
X17775000D01*
X15500000Y5525000D02*
X15723000D01*
X17600000D02*
X17823000D01*
X19923000D02*
X20050000Y5398000D01*
X19700000Y5525000D02*
X19923000D01*
X19735500Y5102000D02*
X20050000D01*
X19700000Y5137500D02*
Y5150000D01*
Y5137500D02*
X19735500Y5102000D01*
X17600000Y5004289D02*
Y5150000D01*
Y5004289D02*
X17629289Y4975000D01*
X17823000D01*
X15500000Y5004289D02*
Y5150000D01*
Y5004289D02*
X15529289Y4975000D01*
X15723000D01*
X13400000Y5004289D02*
Y5150000D01*
Y5004289D02*
X13429289Y4975000D01*
X13623000D01*
X11300000Y5004289D02*
Y5150000D01*
Y5004289D02*
X11329290Y4975000D01*
X11523000D01*
X5000000Y5004289D02*
Y5150000D01*
Y5004289D02*
X5029290Y4975000D01*
X5223000D01*
X7110000Y5004289D02*
Y5140000D01*
X7100000Y5150000D02*
X7110000Y5140000D01*
X7139290Y4975000D02*
X7323000D01*
X7110000Y5004289D02*
X7139290Y4975000D01*
X9200000Y5004289D02*
Y5150000D01*
Y5004289D02*
X9229290Y4975000D01*
X9423000D01*
X13350000Y5525000D02*
X13623000D01*
X13623000Y5525000D01*
X11523000Y5525000D02*
X11523000Y5525000D01*
X11250000Y5525000D02*
X11523000D01*
X9150000D02*
X9423000D01*
X9423000Y5525000D01*
X7323000Y5525000D02*
X7323000Y5525000D01*
X7050000Y5525000D02*
X7323000D01*
X4950000D02*
X5223000D01*
X5223000Y5525000D01*
D31*
X8178000Y3053000D02*
X15403000D01*
X7850000Y2725000D02*
X8178000Y3053000D01*
X15403000D02*
X15805865Y3455866D01*
X16625000Y3105578D02*
Y3377000D01*
X15825000Y3575000D02*
X16397000D01*
X16575000Y3397000D01*
X5600000Y2900000D02*
X5775000Y2725000D01*
X7850000D01*
X15805865Y3555866D02*
X15825000Y3575000D01*
X15805865Y3455866D02*
Y3555866D01*
D32*
X17100000Y5394422D02*
X18071422D01*
X19200000D02*
X19705444D01*
X15000000D02*
X15971422D01*
X12900000D02*
X13871422D01*
X10800000D02*
X11771422D01*
X8700000D02*
X9671422D01*
X6600000D02*
X7571422D01*
X4500000D02*
X5471422D01*
X4525000Y6275000D02*
X5470000D01*
X5477000Y5525000D02*
Y6268000D01*
X5470000Y6275000D02*
X5477000Y6268000D01*
X5470000Y6275000D02*
X7577000D01*
X5040000Y3459867D02*
X5634867D01*
X4202500D02*
X5040000D01*
X3970000Y5720000D02*
X4525000Y6275000D01*
X3970000Y4850000D02*
Y5720000D01*
Y4850000D02*
X5040000Y3780000D01*
Y3459867D02*
Y3780000D01*
X13877000Y5525000D02*
Y6275000D01*
X11777000Y5525000D02*
Y6275000D01*
X9677000Y5525000D02*
Y6275000D01*
X18077000Y5525000D02*
Y6275000D01*
X15977000Y5525000D02*
Y6275000D01*
X7577000Y5525000D02*
Y6275000D01*
X18077000D02*
X19875000D01*
X15977000D02*
X18077000D01*
X13877000D02*
X15977000D01*
X11777000D02*
X13877000D01*
X9677000D02*
X11777000D01*
X7577000D02*
X9677000D01*
X19875000D02*
X20050000Y6100000D01*
Y4848000D02*
X20275000Y5073000D01*
X5775000Y3600000D02*
X5987491D01*
X5634867Y3459867D02*
X5775000Y3600000D01*
X6086500Y3699009D02*
Y3791360D01*
X5987491Y3600000D02*
X6086500Y3699009D01*
X3983817Y3241184D02*
X4202500Y3459867D01*
X3962055Y3219422D02*
X3983817Y3241184D01*
X3750000Y3219422D02*
X3962055D01*
X5477000Y5400000D02*
Y5525000D01*
Y4975000D02*
Y5400000D01*
X5471422Y5394422D02*
X5477000Y5400000D01*
X7577000D02*
Y5525000D01*
Y4975000D02*
Y5400000D01*
X7571422Y5394422D02*
X7577000Y5400000D01*
X9677000D02*
Y5525000D01*
Y4975000D02*
Y5400000D01*
X9671422Y5394422D02*
X9677000Y5400000D01*
X11777000D02*
Y5525000D01*
Y4975000D02*
Y5400000D01*
X11771422Y5394422D02*
X11777000Y5400000D01*
X13877000D02*
Y5525000D01*
Y4975000D02*
Y5400000D01*
X13871422Y5394422D02*
X13877000Y5400000D01*
X15977000D02*
Y5525000D01*
Y4975000D02*
Y5400000D01*
X15971422Y5394422D02*
X15977000Y5400000D01*
X18077000D02*
Y5525000D01*
Y4975000D02*
Y5400000D01*
X18071422Y5394422D02*
X18077000Y5400000D01*
X20275000Y5275000D02*
Y5427000D01*
Y5073000D02*
Y5275000D01*
X19705444Y5394422D02*
X19824866Y5275000D01*
X20275000D01*
X20050000Y5652000D02*
Y6100000D01*
Y5652000D02*
X20275000Y5427000D01*
D33*
X20575000Y5175000D02*
D03*
Y5675000D02*
D03*
X15825000Y3575000D02*
D03*
Y3075000D02*
D03*
D34*
X10775000Y2775000D02*
D03*
X12437000D02*
D03*
X5600000Y2900000D02*
D03*
D35*
X11029000Y2775000D02*
D03*
X11283000D02*
D03*
X11675000D02*
D03*
X11929000D02*
D03*
X12183000D02*
D03*
X6362000Y2900000D02*
D03*
X6108000D02*
D03*
X5854000D02*
D03*
D36*
X20400000Y3168480D02*
D03*
Y3900000D02*
D03*
X6000000Y5068480D02*
D03*
Y5800000D02*
D03*
X16500000D02*
D03*
Y5068480D02*
D03*
X18600000Y5800000D02*
D03*
Y5068480D02*
D03*
X14400000Y5800000D02*
D03*
Y5068480D02*
D03*
X10200000Y5800000D02*
D03*
Y5068480D02*
D03*
X12300000Y5800000D02*
D03*
Y5068480D02*
D03*
X8100000Y5800000D02*
D03*
Y5068480D02*
D03*
X3175000Y3850000D02*
D03*
Y3118480D02*
D03*
D37*
X15977000Y4975000D02*
D03*
Y5525000D02*
D03*
X13877000Y4975000D02*
D03*
Y5525000D02*
D03*
X11777000Y4975000D02*
D03*
Y5525000D02*
D03*
X9677000Y4975000D02*
D03*
Y5525000D02*
D03*
X7577000Y4975000D02*
D03*
Y5525000D02*
D03*
X5477000Y4975000D02*
D03*
Y5525000D02*
D03*
X18077000Y4975000D02*
D03*
Y5525000D02*
D03*
X20050000Y4848000D02*
D03*
Y5652000D02*
D03*
D38*
X15723000Y4975000D02*
D03*
Y5525000D02*
D03*
X13623000Y4975000D02*
D03*
Y5525000D02*
D03*
X11523000Y4975000D02*
D03*
Y5525000D02*
D03*
X9423000Y4975000D02*
D03*
Y5525000D02*
D03*
X7323000Y4975000D02*
D03*
Y5525000D02*
D03*
X5223000Y4975000D02*
D03*
Y5525000D02*
D03*
X17823000Y4975000D02*
D03*
Y5525000D02*
D03*
D39*
X7250000Y3700000D02*
D03*
Y4250000D02*
D03*
Y3150000D02*
D03*
D40*
X20050000Y5102000D02*
D03*
Y5398000D02*
D03*
D41*
X20849994Y5399998D02*
D03*
X20699994Y5099998D02*
D03*
X20849994Y4799999D02*
D03*
X20699994Y4499999D02*
D03*
X20849994Y4199999D02*
D03*
Y3599999D02*
D03*
X20699994Y3299999D02*
D03*
X20849994Y2999999D02*
D03*
X20699994Y2699999D02*
D03*
X20549994Y5399998D02*
D03*
X20399994Y5099998D02*
D03*
X20549994Y4799999D02*
D03*
X20399994Y4499999D02*
D03*
Y2699999D02*
D03*
X20249994Y4799999D02*
D03*
X20099994Y4499999D02*
D03*
Y3299999D02*
D03*
Y2699999D02*
D03*
X19799994Y3299999D02*
D03*
X19949994Y2999999D02*
D03*
X19799994Y2699999D02*
D03*
X19649994Y3599999D02*
D03*
X19499994Y3299999D02*
D03*
X19649994Y2999999D02*
D03*
X19499994Y2699999D02*
D03*
X19349994Y5999998D02*
D03*
Y4799999D02*
D03*
X19199994Y2699999D02*
D03*
X19049994Y5999998D02*
D03*
X18899994Y5099998D02*
D03*
Y3899999D02*
D03*
Y2699999D02*
D03*
X18749994Y5399998D02*
D03*
Y4799999D02*
D03*
X18599994Y3899999D02*
D03*
Y2699999D02*
D03*
X18449994Y5399998D02*
D03*
X18299994Y5099998D02*
D03*
X18449994Y4799999D02*
D03*
X18299994Y2699999D02*
D03*
X18149994Y5399998D02*
D03*
X17999994Y5099998D02*
D03*
X18149994Y4799999D02*
D03*
X17999994Y2699999D02*
D03*
X17849995Y4199999D02*
D03*
Y3599999D02*
D03*
X17699995Y2699999D02*
D03*
X17249995Y5999998D02*
D03*
X17099995Y2699999D02*
D03*
X16949995Y5999998D02*
D03*
X16799995Y5099998D02*
D03*
Y2699999D02*
D03*
X16649995Y5399998D02*
D03*
Y4799999D02*
D03*
Y3599999D02*
D03*
X16499995Y2699999D02*
D03*
X16349995Y5399998D02*
D03*
X16199995Y5099998D02*
D03*
X16349995Y4799999D02*
D03*
X16199995Y3899999D02*
D03*
Y2699999D02*
D03*
X16049995Y5399998D02*
D03*
X15899995Y5099998D02*
D03*
X16049995Y4799999D02*
D03*
X15899995Y3899999D02*
D03*
Y2699999D02*
D03*
X15749995Y4799999D02*
D03*
X15599995Y3899999D02*
D03*
Y2699999D02*
D03*
X15299995Y3899999D02*
D03*
X15449995Y3599999D02*
D03*
X15299995Y2699999D02*
D03*
X15149995Y5999998D02*
D03*
Y4799999D02*
D03*
Y3599999D02*
D03*
X14999995Y2699999D02*
D03*
X14849995Y5999998D02*
D03*
X14699995Y5099998D02*
D03*
Y2699999D02*
D03*
X14549995Y5399998D02*
D03*
Y4799999D02*
D03*
X14249995Y5399998D02*
D03*
X14099995Y5099998D02*
D03*
X14249995Y4799999D02*
D03*
X13949995Y5399998D02*
D03*
X13799995Y5099998D02*
D03*
X13949995Y4799999D02*
D03*
X13799995Y3899999D02*
D03*
X13649995Y4799999D02*
D03*
X13499995Y3899999D02*
D03*
X13649995Y3599999D02*
D03*
X13049995Y5999998D02*
D03*
Y4799999D02*
D03*
X12749996Y5999998D02*
D03*
X12599996Y5099998D02*
D03*
X12749996Y4799999D02*
D03*
X12449996Y5399998D02*
D03*
Y4799999D02*
D03*
Y3599999D02*
D03*
X12149996Y5399998D02*
D03*
X11999996Y5099998D02*
D03*
X12149996Y4799999D02*
D03*
X11849996Y5399998D02*
D03*
X11699996Y5099998D02*
D03*
X11849996Y4799999D02*
D03*
X11699996Y3899999D02*
D03*
X11549996Y4799999D02*
D03*
X11399997Y2699999D02*
D03*
X11249997Y3599999D02*
D03*
X10949997Y5999998D02*
D03*
Y4799999D02*
D03*
Y3599999D02*
D03*
X10649997Y5999998D02*
D03*
X10499997Y5099998D02*
D03*
X10649997Y3599999D02*
D03*
X10349997Y5399998D02*
D03*
Y4799999D02*
D03*
X10049997Y5399998D02*
D03*
X9899997Y5099998D02*
D03*
X10049997Y4799999D02*
D03*
X9899997Y3899999D02*
D03*
X10049997Y3599999D02*
D03*
X9749997Y5399998D02*
D03*
X9599997Y5099998D02*
D03*
X9749997Y4799999D02*
D03*
Y3599999D02*
D03*
X9449997Y4799999D02*
D03*
X9149997Y3599999D02*
D03*
X8849997Y5999998D02*
D03*
Y4799999D02*
D03*
X8549997Y5999998D02*
D03*
X8399997Y5099998D02*
D03*
Y3899999D02*
D03*
X8249997Y5399998D02*
D03*
Y4799999D02*
D03*
X8099998Y3899999D02*
D03*
X8249997Y3599999D02*
D03*
X7949998Y5399998D02*
D03*
X7799998Y5099998D02*
D03*
X7949998Y4799999D02*
D03*
X7799998Y3899999D02*
D03*
X7949998Y3599999D02*
D03*
X7649998Y5399998D02*
D03*
X7499998Y5099998D02*
D03*
X7649998Y4799999D02*
D03*
X7499998Y3899999D02*
D03*
X7649998Y3599999D02*
D03*
X7349998Y4799999D02*
D03*
X6899998Y3899999D02*
D03*
X6749998Y5999998D02*
D03*
Y4799999D02*
D03*
X6599998Y3899999D02*
D03*
X6749998Y3599999D02*
D03*
X6449998Y5999998D02*
D03*
X6299998Y5099998D02*
D03*
X6149998Y5399998D02*
D03*
Y4799999D02*
D03*
X5849998Y5399998D02*
D03*
X5699998Y5099998D02*
D03*
X5849998Y4799999D02*
D03*
X5699998Y3899999D02*
D03*
X5549998Y5399998D02*
D03*
X5399998Y5099998D02*
D03*
X5099998Y3299999D02*
D03*
X4949998Y3599999D02*
D03*
X4649999Y5999998D02*
D03*
Y4799999D02*
D03*
X4499999Y4499999D02*
D03*
Y3299999D02*
D03*
X4649999Y2999999D02*
D03*
X4499999Y2699999D02*
D03*
X4349999Y5999998D02*
D03*
X4199999Y5699998D02*
D03*
Y5099998D02*
D03*
X4349999Y4799999D02*
D03*
X4199999Y4499999D02*
D03*
Y3299999D02*
D03*
Y2699999D02*
D03*
X4049999Y5999998D02*
D03*
X3899999Y5699998D02*
D03*
X4049999Y5399998D02*
D03*
X3899999Y5099998D02*
D03*
Y4499999D02*
D03*
X4049999Y4199999D02*
D03*
X3899999Y3299999D02*
D03*
Y2699999D02*
D03*
X3749999Y5999998D02*
D03*
X3599999Y5699998D02*
D03*
X3749999Y5399998D02*
D03*
X3599999Y5099998D02*
D03*
X3749999Y4799999D02*
D03*
X3599999Y4499999D02*
D03*
X3749999Y4199999D02*
D03*
X3599999Y3299999D02*
D03*
X3749999Y2999999D02*
D03*
X3599999Y2699999D02*
D03*
X3449999Y5999998D02*
D03*
X3299999Y5699998D02*
D03*
X3449999Y5399998D02*
D03*
X3299999Y5099998D02*
D03*
X3449999Y4799999D02*
D03*
X3299999Y4499999D02*
D03*
X3449999Y2999999D02*
D03*
X3299999Y2699999D02*
D03*
X3149999Y5999998D02*
D03*
X2999999Y5699998D02*
D03*
X3149999Y5399998D02*
D03*
X2999999Y5099998D02*
D03*
X3149999Y4799999D02*
D03*
X2999999Y4499999D02*
D03*
Y2699999D02*
D03*
X2849999Y5999998D02*
D03*
X2699999Y5699998D02*
D03*
X2849999Y5399998D02*
D03*
X2699999Y5099998D02*
D03*
X2849999Y4799999D02*
D03*
X2699999Y4499999D02*
D03*
Y3899999D02*
D03*
Y3299999D02*
D03*
X2849999Y2999999D02*
D03*
X2699999Y2699999D02*
D03*
D42*
X4110000Y3700000D02*
D03*
X12375000Y3525000D02*
D03*
D43*
X13150000Y2775000D02*
D03*
X13200000Y4800000D02*
D03*
Y4875000D02*
D03*
X13275000Y4800000D02*
D03*
Y4875000D02*
D03*
X13350000Y4800000D02*
D03*
Y4875000D02*
D03*
X13425000Y4800000D02*
D03*
X19725000D02*
D03*
X19650000D02*
D03*
X19575000D02*
D03*
X19500000D02*
D03*
Y4875000D02*
D03*
X19575000D02*
D03*
X19650000D02*
D03*
X19725000D02*
D03*
X17625000Y4800000D02*
D03*
X17550000D02*
D03*
X17475000D02*
D03*
X17400000D02*
D03*
Y4875000D02*
D03*
X17475000D02*
D03*
X17550000D02*
D03*
X17625000D02*
D03*
X15525000Y4800000D02*
D03*
X15450000D02*
D03*
X15375000D02*
D03*
X15300000D02*
D03*
Y4875000D02*
D03*
X15375000D02*
D03*
X15450000D02*
D03*
X15525000D02*
D03*
X13425000D02*
D03*
X11325000Y4800000D02*
D03*
X11250000D02*
D03*
X11175000D02*
D03*
X11100000D02*
D03*
Y4875000D02*
D03*
X11175000D02*
D03*
X11250000D02*
D03*
X11325000D02*
D03*
X9225000Y4800000D02*
D03*
X9150000D02*
D03*
X9075000D02*
D03*
X9000000D02*
D03*
Y4875000D02*
D03*
X9075000D02*
D03*
X9150000D02*
D03*
X9225000D02*
D03*
X7125000Y4800000D02*
D03*
X7050000D02*
D03*
X6975000D02*
D03*
X6900000D02*
D03*
Y4875000D02*
D03*
X6975000D02*
D03*
X7050000D02*
D03*
X7125000D02*
D03*
X5025000Y4800000D02*
D03*
X4950000D02*
D03*
X4875000D02*
D03*
X4800000D02*
D03*
Y4875000D02*
D03*
X4875000D02*
D03*
X4950000D02*
D03*
X5025000D02*
D03*
X12725000Y2750000D02*
D03*
X14550000Y2825000D02*
D03*
X14625000Y2725000D02*
D03*
X18430000Y3200000D02*
D03*
Y3110000D02*
D03*
Y3010000D02*
D03*
Y3290000D02*
D03*
X18520000Y3200000D02*
D03*
Y3290000D02*
D03*
Y3110000D02*
D03*
Y3010000D02*
D03*
X18200000Y3290000D02*
D03*
Y3200000D02*
D03*
Y3110000D02*
D03*
Y3010000D02*
D03*
X18110001D02*
D03*
Y3110000D02*
D03*
Y3200000D02*
D03*
Y3290000D02*
D03*
X5745000Y3390000D02*
D03*
X5820000D02*
D03*
Y3165000D02*
D03*
X5670000D02*
D03*
Y3390000D02*
D03*
X5745000Y3165000D02*
D03*
Y3240000D02*
D03*
X5595000Y3390000D02*
D03*
X5745000Y3315000D02*
D03*
X5670000Y3240000D02*
D03*
X5595000D02*
D03*
X5820000Y3315000D02*
D03*
X5670000D02*
D03*
X5595000Y3165000D02*
D03*
Y3315000D02*
D03*
X5820000Y3240000D02*
D03*
X11050141Y3877710D02*
D03*
X10853226Y3995741D02*
D03*
X10730000Y3830000D02*
D03*
X10190000Y2760000D02*
D03*
X10390000Y2780000D02*
D03*
X10270000Y2830000D02*
D03*
X19330661Y4262177D02*
D03*
X19400000Y4250000D02*
D03*
X13239999Y2830000D02*
D03*
X11675000Y3450000D02*
D03*
X11643516Y3512968D02*
D03*
X10600000Y3490000D02*
D03*
X14280000Y3880000D02*
D03*
Y3750000D02*
D03*
X14230000Y3810000D02*
D03*
X13080000D02*
D03*
X13070000Y3550000D02*
D03*
X13080000Y3420000D02*
D03*
X13130000Y3360000D02*
D03*
Y3620000D02*
D03*
X13080000Y3680000D02*
D03*
X13130000Y3750000D02*
D03*
X14230000Y3680000D02*
D03*
X13130000Y3490000D02*
D03*
X14280000Y3620000D02*
D03*
X11525000Y2750000D02*
D03*
X12671138Y2826931D02*
D03*
X5875000Y3700000D02*
D03*
X6275000Y3600000D02*
D03*
X12075000Y3675000D02*
D03*
X11611858Y4150767D02*
D03*
X11354567Y4092356D02*
D03*
X14230000Y3550000D02*
D03*
Y3420000D02*
D03*
X14280000Y3490000D02*
D03*
X19431483Y4187033D02*
D03*
X4450000Y2825000D02*
D03*
X4500000Y2875000D02*
D03*
X4400000Y2775000D02*
D03*
X19200000Y5400000D02*
D03*
X17100000D02*
D03*
X15000000D02*
D03*
X12900000D02*
D03*
X10800000D02*
D03*
X8700000D02*
D03*
X6600000D02*
D03*
X4500000D02*
D03*
X4325000Y5850000D02*
D03*
X4425679Y5827022D02*
D03*
X6425000Y5850000D02*
D03*
X6525679Y5827022D02*
D03*
X8525000Y5850000D02*
D03*
X8625679Y5827022D02*
D03*
X10625000Y5850000D02*
D03*
X10725679Y5827022D02*
D03*
X12725000Y5850000D02*
D03*
X12825679Y5827022D02*
D03*
X14825000Y5850000D02*
D03*
X14925679Y5827022D02*
D03*
X16925000Y5850000D02*
D03*
X17025679Y5827022D02*
D03*
X19125679D02*
D03*
X19025000Y5850000D02*
D03*
X4750000Y3650000D02*
D03*
X4675000D02*
D03*
X4600000D02*
D03*
X4525000D02*
D03*
Y3575000D02*
D03*
X4600000D02*
D03*
X4675000D02*
D03*
X4750000D02*
D03*
%TF.MD5,795f3849e47cb4fcc01fd6efcb2f2d75*%
M02*
