%TF.GenerationSoftware,Altium Limited,Altium Designer,24.0.1 (36)*%
G04 Layer_Color=8388736*
%FSLAX45Y45*%
%MOMM*%
%TF.SameCoordinates,2C358838-E96C-4A59-A5A0-E9FE71613952*%
%TF.FilePolarity,Negative*%
%TF.FileFunction,Soldermask,Top*%
%TF.Part,Single*%
G01*
G75*
%TA.AperFunction,SMDPad,CuDef*%
%ADD10R,0.62213X2.46916*%
G04:AMPARAMS|DCode=11|XSize=2.46916mm|YSize=0.62213mm|CornerRadius=0.31107mm|HoleSize=0mm|Usage=FLASHONLY|Rotation=270.000|XOffset=0mm|YOffset=0mm|HoleType=Round|Shape=RoundedRectangle|*
%AMROUNDEDRECTD11*
21,1,2.46916,0.00000,0,0,270.0*
21,1,1.84702,0.62213,0,0,270.0*
1,1,0.62213,0.00000,-0.92351*
1,1,0.62213,0.00000,0.92351*
1,1,0.62213,0.00000,0.92351*
1,1,0.62213,0.00000,-0.92351*
%
%ADD11ROUNDEDRECTD11*%
%ADD12R,1.71550X2.18000*%
%ADD13R,1.30464X1.45620*%
G04:AMPARAMS|DCode=14|XSize=1.30464mm|YSize=1.4562mm|CornerRadius=0mm|HoleSize=0mm|Usage=FLASHONLY|Rotation=315.000|XOffset=0mm|YOffset=0mm|HoleType=Round|Shape=Rectangle|*
%AMROTATEDRECTD14*
4,1,4,-0.97610,-0.05359,0.05359,0.97610,0.97610,0.05359,-0.05359,-0.97610,-0.97610,-0.05359,0.0*
%
%ADD14ROTATEDRECTD14*%

G04:AMPARAMS|DCode=15|XSize=1.30464mm|YSize=1.4562mm|CornerRadius=0mm|HoleSize=0mm|Usage=FLASHONLY|Rotation=225.000|XOffset=0mm|YOffset=0mm|HoleType=Round|Shape=Rectangle|*
%AMROTATEDRECTD15*
4,1,4,-0.05359,0.97610,0.97610,-0.05359,0.05359,-0.97610,-0.97610,0.05359,-0.05359,0.97610,0.0*
%
%ADD15ROTATEDRECTD15*%

%ADD17R,1.45620X1.30464*%
%ADD18R,2.18000X1.71550*%
%ADD20R,1.11760X0.45720*%
%ADD21R,1.80000X4.00000*%
G04:AMPARAMS|DCode=23|XSize=0.75mm|YSize=0.9mm|CornerRadius=0mm|HoleSize=0mm|Usage=FLASHONLY|Rotation=45.000|XOffset=0mm|YOffset=0mm|HoleType=Round|Shape=Rectangle|*
%AMROTATEDRECTD23*
4,1,4,0.05303,-0.58336,-0.58336,0.05303,-0.05303,0.58336,0.58336,-0.05303,0.05303,-0.58336,0.0*
%
%ADD23ROTATEDRECTD23*%

G04:AMPARAMS|DCode=27|XSize=1.45mm|YSize=0.3mm|CornerRadius=0.0495mm|HoleSize=0mm|Usage=FLASHONLY|Rotation=270.000|XOffset=0mm|YOffset=0mm|HoleType=Round|Shape=RoundedRectangle|*
%AMROUNDEDRECTD27*
21,1,1.45000,0.20100,0,0,270.0*
21,1,1.35100,0.30000,0,0,270.0*
1,1,0.09900,-0.10050,-0.67550*
1,1,0.09900,-0.10050,0.67550*
1,1,0.09900,0.10050,0.67550*
1,1,0.09900,0.10050,-0.67550*
%
%ADD27ROUNDEDRECTD27*%
G04:AMPARAMS|DCode=28|XSize=1.1mm|YSize=0.6mm|CornerRadius=0.051mm|HoleSize=0mm|Usage=FLASHONLY|Rotation=270.000|XOffset=0mm|YOffset=0mm|HoleType=Round|Shape=RoundedRectangle|*
%AMROUNDEDRECTD28*
21,1,1.10000,0.49800,0,0,270.0*
21,1,0.99800,0.60000,0,0,270.0*
1,1,0.10200,-0.24900,-0.49900*
1,1,0.10200,-0.24900,0.49900*
1,1,0.10200,0.24900,0.49900*
1,1,0.10200,0.24900,-0.49900*
%
%ADD28ROUNDEDRECTD28*%
%TA.AperFunction,ComponentPad*%
%ADD37C,1.60000*%
%ADD38R,1.60000X1.60000*%
%ADD40R,1.60000X1.60000*%
%TA.AperFunction,SMDPad,CuDef*%
G04:AMPARAMS|DCode=67|XSize=1.55mm|YSize=1.3mm|CornerRadius=0mm|HoleSize=0mm|Usage=FLASHONLY|Rotation=225.000|XOffset=0mm|YOffset=0mm|HoleType=Round|Shape=Rectangle|*
%AMROTATEDRECTD67*
4,1,4,0.08839,1.00763,1.00763,0.08839,-0.08839,-1.00763,-1.00763,-0.08839,0.08839,1.00763,0.0*
%
%ADD67ROTATEDRECTD67*%

%ADD68R,1.40000X1.65000*%
G04:AMPARAMS|DCode=69|XSize=2.2mm|YSize=1.4mm|CornerRadius=0mm|HoleSize=0mm|Usage=FLASHONLY|Rotation=225.000|XOffset=0mm|YOffset=0mm|HoleType=Round|Shape=Rectangle|*
%AMROTATEDRECTD69*
4,1,4,0.28284,1.27279,1.27279,0.28284,-0.28284,-1.27279,-1.27279,-0.28284,0.28284,1.27279,0.0*
%
%ADD69ROTATEDRECTD69*%

%ADD70R,2.60000X1.20000*%
%ADD71R,7.00000X5.75000*%
%ADD72R,1.65000X1.40000*%
%TA.AperFunction,ComponentPad*%
%ADD73C,2.20000*%
%ADD74R,1.70000X1.70000*%
%ADD75C,1.70000*%
%ADD76R,6.70000X6.70000*%
G04:AMPARAMS|DCode=77|XSize=5.2mm|YSize=5.2mm|CornerRadius=1.35mm|HoleSize=0mm|Usage=FLASHONLY|Rotation=90.000|XOffset=0mm|YOffset=0mm|HoleType=Round|Shape=RoundedRectangle|*
%AMROUNDEDRECTD77*
21,1,5.20000,2.50000,0,0,90.0*
21,1,2.50000,5.20000,0,0,90.0*
1,1,2.70000,1.25000,1.25000*
1,1,2.70000,1.25000,-1.25000*
1,1,2.70000,-1.25000,-1.25000*
1,1,2.70000,-1.25000,1.25000*
%
%ADD77ROUNDEDRECTD77*%
%TA.AperFunction,ViaPad*%
%ADD78C,0.20000*%
G36*
X18338780Y3354470D02*
Y2945530D01*
X18707080D01*
Y3354470D01*
X18338780D01*
D02*
G37*
D10*
X6340500Y3791360D02*
D03*
D11*
X6213500D02*
D03*
X6086500D02*
D03*
X5959500D02*
D03*
Y3308640D02*
D03*
X6086500D02*
D03*
X6213500D02*
D03*
X6340500D02*
D03*
D12*
X19306274Y3100000D02*
D03*
X19693726D02*
D03*
D13*
X6069422Y4150000D02*
D03*
X6230578D02*
D03*
X18686156Y4075000D02*
D03*
X18525000D02*
D03*
D14*
X11618023Y4156977D02*
D03*
X11731977Y4043023D02*
D03*
X10656977Y3893023D02*
D03*
X10543023Y4006977D02*
D03*
D15*
X12081977Y3681977D02*
D03*
X11968023Y3568023D02*
D03*
X10546977Y3456977D02*
D03*
X10433023Y3343023D02*
D03*
D17*
X4500000Y5555578D02*
D03*
Y5394422D02*
D03*
X19200000Y5555578D02*
D03*
Y5394422D02*
D03*
X17100000Y5555578D02*
D03*
Y5394422D02*
D03*
X15000000Y5555578D02*
D03*
Y5394422D02*
D03*
X12900000Y5555578D02*
D03*
Y5394422D02*
D03*
X10800000Y5555578D02*
D03*
Y5394422D02*
D03*
X8700000Y5555578D02*
D03*
Y5394422D02*
D03*
X6600000Y5555578D02*
D03*
Y5394422D02*
D03*
X17775000Y4080078D02*
D03*
Y3919922D02*
D03*
X16625000Y2944422D02*
D03*
Y3105578D02*
D03*
X19100000Y4119422D02*
D03*
Y4280578D02*
D03*
X3750000Y3219422D02*
D03*
Y3380578D02*
D03*
D18*
X4675000Y3650000D02*
D03*
Y3262550D02*
D03*
D20*
X18867101Y2959500D02*
D03*
Y3086500D02*
D03*
Y3213500D02*
D03*
Y3340500D02*
D03*
X18282899D02*
D03*
Y3213500D02*
D03*
Y3086500D02*
D03*
Y2959500D02*
D03*
D21*
X19860001Y3675000D02*
D03*
X19239999D02*
D03*
X4335000Y3850000D02*
D03*
X3715000D02*
D03*
D23*
X11392426Y3592426D02*
D03*
X11307574Y3507574D02*
D03*
X10932574Y3882574D02*
D03*
X11017426Y3967426D02*
D03*
D27*
X19575000Y3980000D02*
D03*
X19525000D02*
D03*
X19475000D02*
D03*
X19425000D02*
D03*
X19375000D02*
D03*
Y4420000D02*
D03*
X19425000D02*
D03*
X19475000D02*
D03*
X19525000D02*
D03*
X19575000D02*
D03*
X4000000Y3545000D02*
D03*
X4050000D02*
D03*
X4100000D02*
D03*
X4150000D02*
D03*
X4200000D02*
D03*
Y3105000D02*
D03*
X4150000D02*
D03*
X4100000D02*
D03*
X4050000D02*
D03*
X4000000D02*
D03*
D28*
X18695000Y3570000D02*
D03*
X18600000D02*
D03*
X18505000D02*
D03*
Y3830000D02*
D03*
X18600000D02*
D03*
X18695000D02*
D03*
D37*
X15977000Y4975000D02*
D03*
Y5525000D02*
D03*
X13877000Y4975000D02*
D03*
Y5525000D02*
D03*
X11777000Y4975000D02*
D03*
Y5525000D02*
D03*
X9677000Y4975000D02*
D03*
Y5525000D02*
D03*
X7577000Y4975000D02*
D03*
Y5525000D02*
D03*
X5477000Y4975000D02*
D03*
Y5525000D02*
D03*
X18077000Y4975000D02*
D03*
Y5525000D02*
D03*
X20050000Y4848000D02*
D03*
Y5652000D02*
D03*
D38*
X15723000Y4975000D02*
D03*
Y5525000D02*
D03*
X13623000Y4975000D02*
D03*
Y5525000D02*
D03*
X11523000Y4975000D02*
D03*
Y5525000D02*
D03*
X9423000Y4975000D02*
D03*
Y5525000D02*
D03*
X7323000Y4975000D02*
D03*
Y5525000D02*
D03*
X5223000Y4975000D02*
D03*
Y5525000D02*
D03*
X17823000Y4975000D02*
D03*
Y5525000D02*
D03*
D40*
X20050000Y5102000D02*
D03*
Y5398000D02*
D03*
D67*
X11449498Y4000503D02*
D03*
X11350503Y4099498D02*
D03*
D68*
X4800000Y5150000D02*
D03*
X5000000D02*
D03*
X11100000D02*
D03*
X11300000D02*
D03*
X15500000D02*
D03*
X15300000D02*
D03*
X15500000Y5525000D02*
D03*
X15300000D02*
D03*
X13400000Y5150000D02*
D03*
X13200000D02*
D03*
X13350000Y5525000D02*
D03*
X13150000D02*
D03*
X11250000D02*
D03*
X11050000D02*
D03*
X9200000Y5150000D02*
D03*
X9000000D02*
D03*
X9150000Y5525000D02*
D03*
X8950000D02*
D03*
X7100000Y5150000D02*
D03*
X6900000D02*
D03*
X7050000Y5525000D02*
D03*
X6850000D02*
D03*
X4950000D02*
D03*
X4750000D02*
D03*
X19700000Y5150000D02*
D03*
X19500000D02*
D03*
X19700000Y5525000D02*
D03*
X19500000D02*
D03*
X17600000Y5150000D02*
D03*
X17400000D02*
D03*
X17600000Y5525000D02*
D03*
X17400000D02*
D03*
X4000000Y2825000D02*
D03*
X4200000D02*
D03*
D69*
X11213033Y3928596D02*
D03*
X10951404Y3666967D02*
D03*
X11106967Y3511403D02*
D03*
X11368597Y3773033D02*
D03*
D70*
X16645000Y3853000D02*
D03*
Y3397000D02*
D03*
D71*
X17285001Y3625000D02*
D03*
D72*
X19789999Y4330000D02*
D03*
Y4530000D02*
D03*
D73*
X20575000Y5175000D02*
D03*
Y5675000D02*
D03*
X15825000Y3575000D02*
D03*
Y3075000D02*
D03*
D74*
X10775000Y2775000D02*
D03*
X12437000D02*
D03*
X5600000Y2900000D02*
D03*
D75*
X11029000Y2775000D02*
D03*
X11283000D02*
D03*
X11675000D02*
D03*
X11929000D02*
D03*
X12183000D02*
D03*
X6362000Y2900000D02*
D03*
X6108000D02*
D03*
X5854000D02*
D03*
D76*
X20400000Y3168480D02*
D03*
Y3900000D02*
D03*
X6000000Y5068480D02*
D03*
Y5800000D02*
D03*
X16500000D02*
D03*
Y5068480D02*
D03*
X18600000Y5800000D02*
D03*
Y5068480D02*
D03*
X14400000Y5800000D02*
D03*
Y5068480D02*
D03*
X10200000Y5800000D02*
D03*
Y5068480D02*
D03*
X12300000Y5800000D02*
D03*
Y5068480D02*
D03*
X8100000Y5800000D02*
D03*
Y5068480D02*
D03*
X3175000Y3850000D02*
D03*
Y3118480D02*
D03*
D77*
X7250000Y3700000D02*
D03*
Y4250000D02*
D03*
Y3150000D02*
D03*
D78*
X5100000Y4300000D02*
D03*
Y2900000D02*
D03*
X17400000D02*
D03*
Y4300000D02*
D03*
%TF.MD5,9e4e6652167a1b82a9196442d40ca3fa*%
M02*
