%TF.GenerationSoftware,Altium Limited,Altium Designer,23.3.1 (30)*%
G04 Layer_Color=2752767*
%FSLAX45Y45*%
%MOMM*%
%TF.SameCoordinates,CD13F5F2-8DFB-4D4D-A102-87722C93DE69*%
%TF.FilePolarity,Positive*%
%TF.FileFunction,Drawing*%
%TF.Part,Single*%
G01*
G75*
%TA.AperFunction,NonConductor*%
%ADD145C,0.12700*%
%ADD146C,0.16933*%
D145*
X9430720Y3689200D02*
X9456120Y3740000D01*
X9430720Y3790800D01*
X9481520Y3765400D01*
X9532320Y3790800D01*
X9506920Y3740000D01*
X9532320Y3689200D01*
X9481520Y3714600D01*
X9430720Y3689200D01*
X8699200D02*
X8724600Y3740000D01*
X8699200Y3790800D01*
X8750000Y3765400D01*
X8800800Y3790800D01*
X8775400Y3740000D01*
X8800800Y3689200D01*
X8750000Y3714600D01*
X8699200Y3689200D01*
X3703200Y459200D02*
Y560800D01*
X3804800D01*
Y459200D01*
X3703200D01*
X2941200Y205200D02*
Y306800D01*
X3042800D01*
Y205200D01*
X2941200D01*
X3703200D02*
Y306800D01*
X3804800D01*
Y205200D01*
X3703200D01*
X3449200Y459200D02*
Y560800D01*
X3550800D01*
Y459200D01*
X3449200D01*
Y205200D02*
Y306800D01*
X3550800D01*
Y205200D01*
X3449200D01*
X3195200Y459200D02*
Y560800D01*
X3296800D01*
Y459200D01*
X3195200D01*
Y205200D02*
Y306800D01*
X3296800D01*
Y205200D01*
X3195200D01*
X2941200Y459200D02*
Y560800D01*
X3042800D01*
Y459200D01*
X2941200D01*
X2115200Y705200D02*
Y806800D01*
X2216800D01*
Y705200D01*
X2115200D01*
X2369200D02*
Y806800D01*
X2470800D01*
Y705200D01*
X2369200D01*
Y959200D02*
Y1060800D01*
X2470800D01*
Y959200D01*
X2369200D01*
X2623200Y705200D02*
Y806800D01*
X2724800D01*
Y705200D01*
X2623200D01*
Y959200D02*
Y1060800D01*
X2724800D01*
Y959200D01*
X2623200D01*
X2115200D02*
Y1060800D01*
X2216800D01*
Y959200D01*
X2115200D01*
X2200000Y249200D02*
X2225400Y274600D01*
X2250800D01*
X2225400Y300000D01*
X2250800Y325400D01*
X2225400D01*
X2200000Y350800D01*
X2174600Y325400D01*
X2149200D01*
X2174600Y300000D01*
X2149200Y274600D01*
X2174600D01*
X2200000Y249200D01*
X1950000D02*
X1975400Y274600D01*
X2000800D01*
X1975400Y300000D01*
X2000800Y325400D01*
X1975400D01*
X1950000Y350800D01*
X1924600Y325400D01*
X1899200D01*
X1924600Y300000D01*
X1899200Y274600D01*
X1924600D01*
X1950000Y249200D01*
X1700000D02*
X1725400Y274600D01*
X1750800D01*
X1725400Y300000D01*
X1750800Y325400D01*
X1725400D01*
X1700000Y350800D01*
X1674600Y325400D01*
X1649200D01*
X1674600Y300000D01*
X1649200Y274600D01*
X1674600D01*
X1700000Y249200D01*
X1450000D02*
X1475400Y274600D01*
X1500800D01*
X1475400Y300000D01*
X1500800Y325400D01*
X1475400D01*
X1450000Y350800D01*
X1424600Y325400D01*
X1399200D01*
X1424600Y300000D01*
X1399200Y274600D01*
X1424600D01*
X1450000Y249200D01*
X1200000D02*
X1225400Y274600D01*
X1250800D01*
X1225400Y300000D01*
X1250800Y325400D01*
X1225400D01*
X1200000Y350800D01*
X1174600Y325400D01*
X1149200D01*
X1174600Y300000D01*
X1149200Y274600D01*
X1174600D01*
X1200000Y249200D01*
X2450000D02*
X2475400Y274600D01*
X2500800D01*
X2475400Y300000D01*
X2500800Y325400D01*
X2475400D01*
X2450000Y350800D01*
X2424600Y325400D01*
X2399200D01*
X2424600Y300000D01*
X2399200Y274600D01*
X2424600D01*
X2450000Y249200D01*
X4789200Y4449200D02*
Y4550800D01*
X4890800D01*
Y4449200D01*
X4789200D01*
X1275200Y4429200D02*
Y4530800D01*
X1376800D01*
Y4429200D01*
X1275200D01*
X1021200D02*
Y4530800D01*
X1122800D01*
Y4429200D01*
X1021200D01*
X1529200D02*
Y4530800D01*
X1630800D01*
Y4429200D01*
X1529200D01*
X4410000Y4439200D02*
X4435400Y4464600D01*
X4460800D01*
X4435400Y4490000D01*
X4460800Y4515400D01*
X4435400D01*
X4410000Y4540800D01*
X4384600Y4515400D01*
X4359200D01*
X4384600Y4490000D01*
X4359200Y4464600D01*
X4384600D01*
X4410000Y4439200D01*
X4160000D02*
X4185400Y4464600D01*
X4210800D01*
X4185400Y4490000D01*
X4210800Y4515400D01*
X4185400D01*
X4160000Y4540800D01*
X4134600Y4515400D01*
X4109200D01*
X4134600Y4490000D01*
X4109200Y4464600D01*
X4134600D01*
X4160000Y4439200D01*
X3910000D02*
X3935400Y4464600D01*
X3960800D01*
X3935400Y4490000D01*
X3960800Y4515400D01*
X3935400D01*
X3910000Y4540800D01*
X3884600Y4515400D01*
X3859200D01*
X3884600Y4490000D01*
X3859200Y4464600D01*
X3884600D01*
X3910000Y4439200D01*
X3660000D02*
X3685400Y4464600D01*
X3710800D01*
X3685400Y4490000D01*
X3710800Y4515400D01*
X3685400D01*
X3660000Y4540800D01*
X3634600Y4515400D01*
X3609200D01*
X3634600Y4490000D01*
X3609200Y4464600D01*
X3634600D01*
X3660000Y4439200D01*
X3410000D02*
X3435400Y4464600D01*
X3460800D01*
X3435400Y4490000D01*
X3460800Y4515400D01*
X3435400D01*
X3410000Y4540800D01*
X3384600Y4515400D01*
X3359200D01*
X3384600Y4490000D01*
X3359200Y4464600D01*
X3384600D01*
X3410000Y4439200D01*
X2960000D02*
X2985400Y4464600D01*
X3010800D01*
X2985400Y4490000D01*
X3010800Y4515400D01*
X2985400D01*
X2960000Y4540800D01*
X2934600Y4515400D01*
X2909200D01*
X2934600Y4490000D01*
X2909200Y4464600D01*
X2934600D01*
X2960000Y4439200D01*
X2710000D02*
X2735400Y4464600D01*
X2760800D01*
X2735400Y4490000D01*
X2760800Y4515400D01*
X2735400D01*
X2710000Y4540800D01*
X2684600Y4515400D01*
X2659200D01*
X2684600Y4490000D01*
X2659200Y4464600D01*
X2684600D01*
X2710000Y4439200D01*
X2460000D02*
X2485400Y4464600D01*
X2510800D01*
X2485400Y4490000D01*
X2510800Y4515400D01*
X2485400D01*
X2460000Y4540800D01*
X2434600Y4515400D01*
X2409200D01*
X2434600Y4490000D01*
X2409200Y4464600D01*
X2434600D01*
X2460000Y4439200D01*
X2210000D02*
X2235400Y4464600D01*
X2260800D01*
X2235400Y4490000D01*
X2260800Y4515400D01*
X2235400D01*
X2210000Y4540800D01*
X2184600Y4515400D01*
X2159200D01*
X2184600Y4490000D01*
X2159200Y4464600D01*
X2184600D01*
X2210000Y4439200D01*
X1960000D02*
X1985400Y4464600D01*
X2010800D01*
X1985400Y4490000D01*
X2010800Y4515400D01*
X1985400D01*
X1960000Y4540800D01*
X1934600Y4515400D01*
X1909200D01*
X1934600Y4490000D01*
X1909200Y4464600D01*
X1934600D01*
X1960000Y4439200D01*
X4339200Y209200D02*
Y310800D01*
X4440800D01*
Y209200D01*
X4339200D01*
X4593200D02*
Y310800D01*
X4694800D01*
Y209200D01*
X4593200D01*
X4085200D02*
Y310800D01*
X4186800D01*
Y209200D01*
X4085200D01*
X5043200Y4449200D02*
Y4550800D01*
X5144800D01*
Y4449200D01*
X5043200D01*
X610000Y3679200D02*
X635400Y3704600D01*
X660800D01*
X635400Y3730000D01*
X660800Y3755400D01*
X635400D01*
X610000Y3780800D01*
X584600Y3755400D01*
X559200D01*
X584600Y3730000D01*
X559200Y3704600D01*
X584600D01*
X610000Y3679200D01*
Y3429198D02*
X635400Y3454598D01*
X660800D01*
X635400Y3479998D01*
X660800Y3505398D01*
X635400D01*
X610000Y3530798D01*
X584600Y3505398D01*
X559200D01*
X584600Y3479998D01*
X559200Y3454598D01*
X584600D01*
X610000Y3429198D01*
Y3929202D02*
X635400Y3954602D01*
X660800D01*
X635400Y3980002D01*
X660800Y4005402D01*
X635400D01*
X610000Y4030802D01*
X584600Y4005402D01*
X559200D01*
X584600Y3980002D01*
X559200Y3954602D01*
X584600D01*
X610000Y3929202D01*
Y3179201D02*
X635400Y3204601D01*
X660800D01*
X635400Y3230001D01*
X660800Y3255401D01*
X635400D01*
X610000Y3280801D01*
X584600Y3255401D01*
X559200D01*
X584600Y3230001D01*
X559200Y3204601D01*
X584600D01*
X610000Y3179201D01*
X4335200Y499200D02*
Y600800D01*
X4436800D01*
Y499200D01*
X4335200D01*
X4589200D02*
Y600800D01*
X4690800D01*
Y499200D01*
X4589200D01*
X344202Y1286700D02*
Y1388300D01*
X445802D01*
Y1286700D01*
X344202D01*
X364522Y1307020D02*
Y1367980D01*
X425482D01*
Y1307020D01*
X364522D01*
X344202Y871700D02*
Y973300D01*
X445802D01*
Y871700D01*
X344202D01*
X364522Y892020D02*
Y952980D01*
X425482D01*
Y892020D01*
X364522D01*
X1054600Y2304600D02*
Y2279200D01*
X1105400D01*
Y2304600D01*
X1130800D01*
Y2355400D01*
X1105400D01*
Y2380800D01*
X1054600D01*
Y2355400D01*
X1029200D01*
Y2304600D01*
X1054600D01*
X1064366Y1594835D02*
Y1569435D01*
X1115166D01*
Y1594835D01*
X1140566D01*
Y1645635D01*
X1115166D01*
Y1671035D01*
X1064366D01*
Y1645635D01*
X1038966D01*
Y1594835D01*
X1064366D01*
X1044600Y1774600D02*
Y1749200D01*
X1095400D01*
Y1774600D01*
X1120800D01*
Y1825400D01*
X1095400D01*
Y1850800D01*
X1044600D01*
Y1825400D01*
X1019200D01*
Y1774600D01*
X1044600D01*
X1074600Y1934600D02*
Y1909200D01*
X1125400D01*
Y1934600D01*
X1150800D01*
Y1985400D01*
X1125400D01*
Y2010800D01*
X1074600D01*
Y1985400D01*
X1049200D01*
Y1934600D01*
X1074600D01*
X1064600Y2074600D02*
Y2049200D01*
X1115400D01*
Y2074600D01*
X1140800D01*
Y2125400D01*
X1115400D01*
Y2150800D01*
X1064600D01*
Y2125400D01*
X1039200D01*
Y2074600D01*
X1064600D01*
X8844600Y2769600D02*
Y2744200D01*
X8895400D01*
Y2769600D01*
X8920800D01*
Y2820400D01*
X8895400D01*
Y2845800D01*
X8844600D01*
Y2820400D01*
X8819200D01*
Y2769600D01*
X8844600D01*
X9844600Y2269600D02*
Y2244200D01*
X9895400D01*
Y2269600D01*
X9920800D01*
Y2320400D01*
X9895400D01*
Y2345800D01*
X9844600D01*
Y2320400D01*
X9819200D01*
Y2269600D01*
X9844600D01*
X9719600Y519600D02*
Y494200D01*
X9770400D01*
Y519600D01*
X9795800D01*
Y570400D01*
X9770400D01*
Y595800D01*
X9719600D01*
Y570400D01*
X9694200D01*
Y519600D01*
X9719600D01*
X8969600Y4519600D02*
Y4494200D01*
X9020400D01*
Y4519600D01*
X9045800D01*
Y4570400D01*
X9020400D01*
Y4595800D01*
X8969600D01*
Y4570400D01*
X8944200D01*
Y4519600D01*
X8969600D01*
X7844600Y3269600D02*
Y3244200D01*
X7895400D01*
Y3269600D01*
X7920800D01*
Y3320400D01*
X7895400D01*
Y3345800D01*
X7844600D01*
Y3320400D01*
X7819200D01*
Y3269600D01*
X7844600D01*
X8594600D02*
Y3244200D01*
X8645400D01*
Y3269600D01*
X8670800D01*
Y3320400D01*
X8645400D01*
Y3345800D01*
X8594600D01*
Y3320400D01*
X8569200D01*
Y3269600D01*
X8594600D01*
X7219600Y3519600D02*
Y3494200D01*
X7270400D01*
Y3519600D01*
X7295800D01*
Y3570400D01*
X7270400D01*
Y3595800D01*
X7219600D01*
Y3570400D01*
X7194200D01*
Y3519600D01*
X7219600D01*
X8719600Y4519600D02*
Y4494200D01*
X8770400D01*
Y4519600D01*
X8795800D01*
Y4570400D01*
X8770400D01*
Y4595800D01*
X8719600D01*
Y4570400D01*
X8694200D01*
Y4519600D01*
X8719600D01*
X7219600Y3019600D02*
Y2994200D01*
X7270400D01*
Y3019600D01*
X7295800D01*
Y3070400D01*
X7270400D01*
Y3095800D01*
X7219600D01*
Y3070400D01*
X7194200D01*
Y3019600D01*
X7219600D01*
X7094600Y4269600D02*
Y4244200D01*
X7145400D01*
Y4269600D01*
X7170800D01*
Y4320400D01*
X7145400D01*
Y4345800D01*
X7094600D01*
Y4320400D01*
X7069200D01*
Y4269600D01*
X7094600D01*
X9469600Y519600D02*
Y494200D01*
X9520400D01*
Y519600D01*
X9545800D01*
Y570400D01*
X9520400D01*
Y595800D01*
X9469600D01*
Y570400D01*
X9444200D01*
Y519600D01*
X9469600D01*
X8594600Y269600D02*
Y244200D01*
X8645400D01*
Y269600D01*
X8670800D01*
Y320400D01*
X8645400D01*
Y345800D01*
X8594600D01*
Y320400D01*
X8569200D01*
Y269600D01*
X8594600D01*
X6969600Y3019600D02*
Y2994200D01*
X7020400D01*
Y3019600D01*
X7045800D01*
Y3070400D01*
X7020400D01*
Y3095800D01*
X6969600D01*
Y3070400D01*
X6944200D01*
Y3019600D01*
X6969600D01*
X6844600Y3769600D02*
Y3744200D01*
X6895400D01*
Y3769600D01*
X6920800D01*
Y3820400D01*
X6895400D01*
Y3845800D01*
X6844600D01*
Y3820400D01*
X6819200D01*
Y3769600D01*
X6844600D01*
X8094600Y3269600D02*
Y3244200D01*
X8145400D01*
Y3269600D01*
X8170800D01*
Y3320400D01*
X8145400D01*
Y3345800D01*
X8094600D01*
Y3320400D01*
X8069200D01*
Y3269600D01*
X8094600D01*
X6344600Y3769600D02*
Y3744200D01*
X6395400D01*
Y3769600D01*
X6420800D01*
Y3820400D01*
X6395400D01*
Y3845800D01*
X6344600D01*
Y3820400D01*
X6319200D01*
Y3769600D01*
X6344600D01*
X6219600Y3519600D02*
Y3494200D01*
X6270400D01*
Y3519600D01*
X6295800D01*
Y3570400D01*
X6270400D01*
Y3595800D01*
X6219600D01*
Y3570400D01*
X6194200D01*
Y3519600D01*
X6219600D01*
X7469600D02*
Y3494200D01*
X7520400D01*
Y3519600D01*
X7545800D01*
Y3570400D01*
X7520400D01*
Y3595800D01*
X7469600D01*
Y3570400D01*
X7444200D01*
Y3519600D01*
X7469600D01*
X6969600D02*
Y3494200D01*
X7020400D01*
Y3519600D01*
X7045800D01*
Y3570400D01*
X7020400D01*
Y3595800D01*
X6969600D01*
Y3570400D01*
X6944200D01*
Y3519600D01*
X6969600D01*
X6719600Y3019600D02*
Y2994200D01*
X6770400D01*
Y3019600D01*
X6795800D01*
Y3070400D01*
X6770400D01*
Y3095800D01*
X6719600D01*
Y3070400D01*
X6694200D01*
Y3019600D01*
X6719600D01*
X6094600Y4269600D02*
Y4244200D01*
X6145400D01*
Y4269600D01*
X6170800D01*
Y4320400D01*
X6145400D01*
Y4345800D01*
X6094600D01*
Y4320400D01*
X6069200D01*
Y4269600D01*
X6094600D01*
Y3769600D02*
Y3744200D01*
X6145400D01*
Y3769600D01*
X6170800D01*
Y3820400D01*
X6145400D01*
Y3845800D01*
X6094600D01*
Y3820400D01*
X6069200D01*
Y3769600D01*
X6094600D01*
X5594600Y769600D02*
Y744200D01*
X5645400D01*
Y769600D01*
X5670800D01*
Y820400D01*
X5645400D01*
Y845800D01*
X5594600D01*
Y820400D01*
X5569200D01*
Y769600D01*
X5594600D01*
X8219600Y3519600D02*
Y3494200D01*
X8270400D01*
Y3519600D01*
X8295800D01*
Y3570400D01*
X8270400D01*
Y3595800D01*
X8219600D01*
Y3570400D01*
X8194200D01*
Y3519600D01*
X8219600D01*
X8469600Y3019600D02*
Y2994200D01*
X8520400D01*
Y3019600D01*
X8545800D01*
Y3070400D01*
X8520400D01*
Y3095800D01*
X8469600D01*
Y3070400D01*
X8444200D01*
Y3019600D01*
X8469600D01*
X9469600D02*
Y2994200D01*
X9520400D01*
Y3019600D01*
X9545800D01*
Y3070400D01*
X9520400D01*
Y3095800D01*
X9469600D01*
Y3070400D01*
X9444200D01*
Y3019600D01*
X9469600D01*
X7094600Y3769600D02*
Y3744200D01*
X7145400D01*
Y3769600D01*
X7170800D01*
Y3820400D01*
X7145400D01*
Y3845800D01*
X7094600D01*
Y3820400D01*
X7069200D01*
Y3769600D01*
X7094600D01*
X7594600Y3269600D02*
Y3244200D01*
X7645400D01*
Y3269600D01*
X7670800D01*
Y3320400D01*
X7645400D01*
Y3345800D01*
X7594600D01*
Y3320400D01*
X7569200D01*
Y3269600D01*
X7594600D01*
X8594600Y4269600D02*
Y4244200D01*
X8645400D01*
Y4269600D01*
X8670800D01*
Y4320400D01*
X8645400D01*
Y4345800D01*
X8594600D01*
Y4320400D01*
X8569200D01*
Y4269600D01*
X8594600D01*
X8094600D02*
Y4244200D01*
X8145400D01*
Y4269600D01*
X8170800D01*
Y4320400D01*
X8145400D01*
Y4345800D01*
X8094600D01*
Y4320400D01*
X8069200D01*
Y4269600D01*
X8094600D01*
X7219600Y4519600D02*
Y4494200D01*
X7270400D01*
Y4519600D01*
X7295800D01*
Y4570400D01*
X7270400D01*
Y4595800D01*
X7219600D01*
Y4570400D01*
X7194200D01*
Y4519600D01*
X7219600D01*
X8094600Y3769600D02*
Y3744200D01*
X8145400D01*
Y3769600D01*
X8170800D01*
Y3820400D01*
X8145400D01*
Y3845800D01*
X8094600D01*
Y3820400D01*
X8069200D01*
Y3769600D01*
X8094600D01*
X9844600Y1769600D02*
Y1744200D01*
X9895400D01*
Y1769600D01*
X9920800D01*
Y1820400D01*
X9895400D01*
Y1845800D01*
X9844600D01*
Y1820400D01*
X9819200D01*
Y1769600D01*
X9844600D01*
Y1269600D02*
Y1244200D01*
X9895400D01*
Y1269600D01*
X9920800D01*
Y1320400D01*
X9895400D01*
Y1345800D01*
X9844600D01*
Y1320400D01*
X9819200D01*
Y1269600D01*
X9844600D01*
X8344600Y3269600D02*
Y3244200D01*
X8395400D01*
Y3269600D01*
X8420800D01*
Y3320400D01*
X8395400D01*
Y3345800D01*
X8344600D01*
Y3320400D01*
X8319200D01*
Y3269600D01*
X8344600D01*
X9219600Y4519600D02*
Y4494200D01*
X9270400D01*
Y4519600D01*
X9295800D01*
Y4570400D01*
X9270400D01*
Y4595800D01*
X9219600D01*
Y4570400D01*
X9194200D01*
Y4519600D01*
X9219600D01*
X7469600Y4019600D02*
Y3994200D01*
X7520400D01*
Y4019600D01*
X7545800D01*
Y4070400D01*
X7520400D01*
Y4095800D01*
X7469600D01*
Y4070400D01*
X7444200D01*
Y4019600D01*
X7469600D01*
X9094600Y3269600D02*
Y3244200D01*
X9145400D01*
Y3269600D01*
X9170800D01*
Y3320400D01*
X9145400D01*
Y3345800D01*
X9094600D01*
Y3320400D01*
X9069200D01*
Y3269600D01*
X9094600D01*
X6969600Y4019600D02*
Y3994200D01*
X7020400D01*
Y4019600D01*
X7045800D01*
Y4070400D01*
X7020400D01*
Y4095800D01*
X6969600D01*
Y4070400D01*
X6944200D01*
Y4019600D01*
X6969600D01*
X6219600D02*
Y3994200D01*
X6270400D01*
Y4019600D01*
X6295800D01*
Y4070400D01*
X6270400D01*
Y4095800D01*
X6219600D01*
Y4070400D01*
X6194200D01*
Y4019600D01*
X6219600D01*
X5969600D02*
Y3994200D01*
X6020400D01*
Y4019600D01*
X6045800D01*
Y4070400D01*
X6020400D01*
Y4095800D01*
X5969600D01*
Y4070400D01*
X5944200D01*
Y4019600D01*
X5969600D01*
X9594600Y2769600D02*
Y2744200D01*
X9645400D01*
Y2769600D01*
X9670800D01*
Y2820400D01*
X9645400D01*
Y2845800D01*
X9594600D01*
Y2820400D01*
X9569200D01*
Y2769600D01*
X9594600D01*
X8719600Y3019600D02*
Y2994200D01*
X8770400D01*
Y3019600D01*
X8795800D01*
Y3070400D01*
X8770400D01*
Y3095800D01*
X8719600D01*
Y3070400D01*
X8694200D01*
Y3019600D01*
X8719600D01*
X9219600D02*
Y2994200D01*
X9270400D01*
Y3019600D01*
X9295800D01*
Y3070400D01*
X9270400D01*
Y3095800D01*
X9219600D01*
Y3070400D01*
X9194200D01*
Y3019600D01*
X9219600D01*
X8219600Y4019600D02*
Y3994200D01*
X8270400D01*
Y4019600D01*
X8295800D01*
Y4070400D01*
X8270400D01*
Y4095800D01*
X8219600D01*
Y4070400D01*
X8194200D01*
Y4019600D01*
X8219600D01*
X9719600Y3019600D02*
Y2994200D01*
X9770400D01*
Y3019600D01*
X9795800D01*
Y3070400D01*
X9770400D01*
Y3095800D01*
X9719600D01*
Y3070400D01*
X9694200D01*
Y3019600D01*
X9719600D01*
X6469600D02*
Y2994200D01*
X6520400D01*
Y3019600D01*
X6545800D01*
Y3070400D01*
X6520400D01*
Y3095800D01*
X6469600D01*
Y3070400D01*
X6444200D01*
Y3019600D01*
X6469600D01*
X7344600Y4269600D02*
Y4244200D01*
X7395400D01*
Y4269600D01*
X7420800D01*
Y4320400D01*
X7395400D01*
Y4345800D01*
X7344600D01*
Y4320400D01*
X7319200D01*
Y4269600D01*
X7344600D01*
X9094600Y2769600D02*
Y2744200D01*
X9145400D01*
Y2769600D01*
X9170800D01*
Y2820400D01*
X9145400D01*
Y2845800D01*
X9094600D01*
Y2820400D01*
X9069200D01*
Y2769600D01*
X9094600D01*
X5844600Y269600D02*
Y244200D01*
X5895400D01*
Y269600D01*
X5920800D01*
Y320400D01*
X5895400D01*
Y345800D01*
X5844600D01*
Y320400D01*
X5819200D01*
Y269600D01*
X5844600D01*
X6469600Y3519600D02*
Y3494200D01*
X6520400D01*
Y3519600D01*
X6545800D01*
Y3570400D01*
X6520400D01*
Y3595800D01*
X6469600D01*
Y3570400D01*
X6444200D01*
Y3519600D01*
X6469600D01*
X7469600Y4519600D02*
Y4494200D01*
X7520400D01*
Y4519600D01*
X7545800D01*
Y4570400D01*
X7520400D01*
Y4595800D01*
X7469600D01*
Y4570400D01*
X7444200D01*
Y4519600D01*
X7469600D01*
X8344600Y4269600D02*
Y4244200D01*
X8395400D01*
Y4269600D01*
X8420800D01*
Y4320400D01*
X8395400D01*
Y4345800D01*
X8344600D01*
Y4320400D01*
X8319200D01*
Y4269600D01*
X8344600D01*
X8844600Y3269600D02*
Y3244200D01*
X8895400D01*
Y3269600D01*
X8920800D01*
Y3320400D01*
X8895400D01*
Y3345800D01*
X8844600D01*
Y3320400D01*
X8819200D01*
Y3269600D01*
X8844600D01*
X8719600Y519600D02*
Y494200D01*
X8770400D01*
Y519600D01*
X8795800D01*
Y570400D01*
X8770400D01*
Y595800D01*
X8719600D01*
Y570400D01*
X8694200D01*
Y519600D01*
X8719600D01*
X7344600Y3769600D02*
Y3744200D01*
X7395400D01*
Y3769600D01*
X7420800D01*
Y3820400D01*
X7395400D01*
Y3845800D01*
X7344600D01*
Y3820400D01*
X7319200D01*
Y3769600D01*
X7344600D01*
X8469600Y4519600D02*
Y4494200D01*
X8520400D01*
Y4519600D01*
X8545800D01*
Y4570400D01*
X8520400D01*
Y4595800D01*
X8469600D01*
Y4570400D01*
X8444200D01*
Y4519600D01*
X8469600D01*
X6344600Y4269600D02*
Y4244200D01*
X6395400D01*
Y4269600D01*
X6420800D01*
Y4320400D01*
X6395400D01*
Y4345800D01*
X6344600D01*
Y4320400D01*
X6319200D01*
Y4269600D01*
X6344600D01*
X9344600Y269600D02*
Y244200D01*
X9395400D01*
Y269600D01*
X9420800D01*
Y320400D01*
X9395400D01*
Y345800D01*
X9344600D01*
Y320400D01*
X9319200D01*
Y269600D01*
X9344600D01*
X9094600D02*
Y244200D01*
X9145400D01*
Y269600D01*
X9170800D01*
Y320400D01*
X9145400D01*
Y345800D01*
X9094600D01*
Y320400D01*
X9069200D01*
Y269600D01*
X9094600D01*
X9594600Y3269600D02*
Y3244200D01*
X9645400D01*
Y3269600D01*
X9670800D01*
Y3320400D01*
X9645400D01*
Y3345800D01*
X9594600D01*
Y3320400D01*
X9569200D01*
Y3269600D01*
X9594600D01*
X9219600Y519600D02*
Y494200D01*
X9270400D01*
Y519600D01*
X9295800D01*
Y570400D01*
X9270400D01*
Y595800D01*
X9219600D01*
Y570400D01*
X9194200D01*
Y519600D01*
X9219600D01*
X8094600Y2769600D02*
Y2744200D01*
X8145400D01*
Y2769600D01*
X8170800D01*
Y2820400D01*
X8145400D01*
Y2845800D01*
X8094600D01*
Y2820400D01*
X8069200D01*
Y2769600D01*
X8094600D01*
X6094600Y1269600D02*
Y1244200D01*
X6145400D01*
Y1269600D01*
X6170800D01*
Y1320400D01*
X6145400D01*
Y1345800D01*
X6094600D01*
Y1320400D01*
X6069200D01*
Y1269600D01*
X6094600D01*
X8344600Y3769600D02*
Y3744200D01*
X8395400D01*
Y3769600D01*
X8420800D01*
Y3820400D01*
X8395400D01*
Y3845800D01*
X8344600D01*
Y3820400D01*
X8319200D01*
Y3769600D01*
X8344600D01*
X8969600Y519600D02*
Y494200D01*
X9020400D01*
Y519600D01*
X9045800D01*
Y570400D01*
X9020400D01*
Y595800D01*
X8969600D01*
Y570400D01*
X8944200D01*
Y519600D01*
X8969600D01*
X6219600Y4519600D02*
Y4494200D01*
X6270400D01*
Y4519600D01*
X6295800D01*
Y4570400D01*
X6270400D01*
Y4595800D01*
X6219600D01*
Y4570400D01*
X6194200D01*
Y4519600D01*
X6219600D01*
X9844600Y4269600D02*
Y4244200D01*
X9895400D01*
Y4269600D01*
X9920800D01*
Y4320400D01*
X9895400D01*
Y4345800D01*
X9844600D01*
Y4320400D01*
X9819200D01*
Y4269600D01*
X9844600D01*
X8844600Y269600D02*
Y244200D01*
X8895400D01*
Y269600D01*
X8920800D01*
Y320400D01*
X8895400D01*
Y345800D01*
X8844600D01*
Y320400D01*
X8819200D01*
Y269600D01*
X8844600D01*
X5969600Y1019600D02*
Y994200D01*
X6020400D01*
Y1019600D01*
X6045800D01*
Y1070400D01*
X6020400D01*
Y1095800D01*
X5969600D01*
Y1070400D01*
X5944200D01*
Y1019600D01*
X5969600D01*
X9844600Y3269600D02*
Y3244200D01*
X9895400D01*
Y3269600D01*
X9920800D01*
Y3320400D01*
X9895400D01*
Y3345800D01*
X9844600D01*
Y3320400D01*
X9819200D01*
Y3269600D01*
X9844600D01*
Y2769600D02*
Y2744200D01*
X9895400D01*
Y2769600D01*
X9920800D01*
Y2820400D01*
X9895400D01*
Y2845800D01*
X9844600D01*
Y2820400D01*
X9819200D01*
Y2769600D01*
X9844600D01*
Y769600D02*
Y744200D01*
X9895400D01*
Y769600D01*
X9920800D01*
Y820400D01*
X9895400D01*
Y845800D01*
X9844600D01*
Y820400D01*
X9819200D01*
Y769600D01*
X9844600D01*
X9344600Y2769600D02*
Y2744200D01*
X9395400D01*
Y2769600D01*
X9420800D01*
Y2820400D01*
X9395400D01*
Y2845800D01*
X9344600D01*
Y2820400D01*
X9319200D01*
Y2769600D01*
X9344600D01*
X6719600Y4019600D02*
Y3994200D01*
X6770400D01*
Y4019600D01*
X6795800D01*
Y4070400D01*
X6770400D01*
Y4095800D01*
X6719600D01*
Y4070400D01*
X6694200D01*
Y4019600D01*
X6719600D01*
X9344600Y3269600D02*
Y3244200D01*
X9395400D01*
Y3269600D01*
X9420800D01*
Y3320400D01*
X9395400D01*
Y3345800D01*
X9344600D01*
Y3320400D01*
X9319200D01*
Y3269600D01*
X9344600D01*
X7219600Y4019600D02*
Y3994200D01*
X7270400D01*
Y4019600D01*
X7295800D01*
Y4070400D01*
X7270400D01*
Y4095800D01*
X7219600D01*
Y4070400D01*
X7194200D01*
Y4019600D01*
X7219600D01*
X6469600D02*
Y3994200D01*
X6520400D01*
Y4019600D01*
X6545800D01*
Y4070400D01*
X6520400D01*
Y4095800D01*
X6469600D01*
Y4070400D01*
X6444200D01*
Y4019600D01*
X6469600D01*
X6969600Y4519600D02*
Y4494200D01*
X7020400D01*
Y4519600D01*
X7045800D01*
Y4570400D01*
X7020400D01*
Y4595800D01*
X6969600D01*
Y4570400D01*
X6944200D01*
Y4519600D01*
X6969600D01*
X5969600D02*
Y4494200D01*
X6020400D01*
Y4519600D01*
X6045800D01*
Y4570400D01*
X6020400D01*
Y4595800D01*
X5969600D01*
Y4570400D01*
X5944200D01*
Y4519600D01*
X5969600D01*
X8594600Y2769600D02*
Y2744200D01*
X8645400D01*
Y2769600D01*
X8670800D01*
Y2820400D01*
X8645400D01*
Y2845800D01*
X8594600D01*
Y2820400D01*
X8569200D01*
Y2769600D01*
X8594600D01*
X7594600Y3769600D02*
Y3744200D01*
X7645400D01*
Y3769600D01*
X7670800D01*
Y3820400D01*
X7645400D01*
Y3845800D01*
X7594600D01*
Y3820400D01*
X7569200D01*
Y3769600D01*
X7594600D01*
X8969600Y3019600D02*
Y2994200D01*
X9020400D01*
Y3019600D01*
X9045800D01*
Y3070400D01*
X9020400D01*
Y3095800D01*
X8969600D01*
Y3070400D01*
X8944200D01*
Y3019600D01*
X8969600D01*
X8219600Y4519600D02*
Y4494200D01*
X8270400D01*
Y4519600D01*
X8295800D01*
Y4570400D01*
X8270400D01*
Y4595800D01*
X8219600D01*
Y4570400D01*
X8194200D01*
Y4519600D01*
X8219600D01*
X7469600Y3019600D02*
Y2994200D01*
X7520400D01*
Y3019600D01*
X7545800D01*
Y3070400D01*
X7520400D01*
Y3095800D01*
X7469600D01*
Y3070400D01*
X7444200D01*
Y3019600D01*
X7469600D01*
X7719600Y4019600D02*
Y3994200D01*
X7770400D01*
Y4019600D01*
X7795800D01*
Y4070400D01*
X7770400D01*
Y4095800D01*
X7719600D01*
Y4070400D01*
X7694200D01*
Y4019600D01*
X7719600D01*
X9682116Y3489607D02*
Y3464207D01*
X9732916D01*
Y3489607D01*
X9758316D01*
Y3540407D01*
X9732916D01*
Y3565807D01*
X9682116D01*
Y3540407D01*
X9656716D01*
Y3489607D01*
X9682116D01*
X9757116D02*
Y3464207D01*
X9807916D01*
Y3489607D01*
X9833316D01*
Y3540407D01*
X9807916D01*
Y3565807D01*
X9757116D01*
Y3540407D01*
X9731716D01*
Y3489607D01*
X9757116D01*
Y3564607D02*
Y3539207D01*
X9807916D01*
Y3564607D01*
X9833316D01*
Y3615407D01*
X9807916D01*
Y3640807D01*
X9757116D01*
Y3615407D01*
X9731716D01*
Y3564607D01*
X9757116D01*
Y4014608D02*
Y3989208D01*
X9807916D01*
Y4014608D01*
X9833316D01*
Y4065408D01*
X9807916D01*
Y4090808D01*
X9757116D01*
Y4065408D01*
X9731716D01*
Y4014608D01*
X9757116D01*
Y3939608D02*
Y3914208D01*
X9807916D01*
Y3939608D01*
X9833316D01*
Y3990408D01*
X9807916D01*
Y4015808D01*
X9757116D01*
Y3990408D01*
X9731716D01*
Y3939608D01*
X9757116D01*
Y3864607D02*
Y3839207D01*
X9807916D01*
Y3864607D01*
X9833316D01*
Y3915407D01*
X9807916D01*
Y3940807D01*
X9757116D01*
Y3915407D01*
X9731716D01*
Y3864607D01*
X9757116D01*
Y3789607D02*
Y3764207D01*
X9807916D01*
Y3789607D01*
X9833316D01*
Y3840407D01*
X9807916D01*
Y3865807D01*
X9757116D01*
Y3840407D01*
X9731716D01*
Y3789607D01*
X9757116D01*
Y3714607D02*
Y3689207D01*
X9807916D01*
Y3714607D01*
X9833316D01*
Y3765407D01*
X9807916D01*
Y3790807D01*
X9757116D01*
Y3765407D01*
X9731716D01*
Y3714607D01*
X9757116D01*
Y3639607D02*
Y3614207D01*
X9807916D01*
Y3639607D01*
X9833316D01*
Y3690407D01*
X9807916D01*
Y3715807D01*
X9757116D01*
Y3690407D01*
X9731716D01*
Y3639607D01*
X9757116D01*
Y3414607D02*
Y3389207D01*
X9807916D01*
Y3414607D01*
X9833316D01*
Y3465407D01*
X9807916D01*
Y3490807D01*
X9757116D01*
Y3465407D01*
X9731716D01*
Y3414607D01*
X9757116D01*
X9682116Y4014608D02*
Y3989208D01*
X9732916D01*
Y4014608D01*
X9758316D01*
Y4065408D01*
X9732916D01*
Y4090808D01*
X9682116D01*
Y4065408D01*
X9656716D01*
Y4014608D01*
X9682116D01*
Y3939608D02*
Y3914208D01*
X9732916D01*
Y3939608D01*
X9758316D01*
Y3990408D01*
X9732916D01*
Y4015808D01*
X9682116D01*
Y3990408D01*
X9656716D01*
Y3939608D01*
X9682116D01*
Y3414607D02*
Y3389207D01*
X9732916D01*
Y3414607D01*
X9758316D01*
Y3465407D01*
X9732916D01*
Y3490807D01*
X9682116D01*
Y3465407D01*
X9656716D01*
Y3414607D01*
X9682116D01*
X9607116Y4014608D02*
Y3989208D01*
X9657916D01*
Y4014608D01*
X9683316D01*
Y4065408D01*
X9657916D01*
Y4090808D01*
X9607116D01*
Y4065408D01*
X9581716D01*
Y4014608D01*
X9607116D01*
Y3414607D02*
Y3389207D01*
X9657916D01*
Y3414607D01*
X9683316D01*
Y3465407D01*
X9657916D01*
Y3490807D01*
X9607116D01*
Y3465407D01*
X9581716D01*
Y3414607D01*
X9607116D01*
X9532116Y4014608D02*
Y3989208D01*
X9582916D01*
Y4014608D01*
X9608316D01*
Y4065408D01*
X9582916D01*
Y4090808D01*
X9532116D01*
Y4065408D01*
X9506716D01*
Y4014608D01*
X9532116D01*
Y3414607D02*
Y3389207D01*
X9582916D01*
Y3414607D01*
X9608316D01*
Y3465407D01*
X9582916D01*
Y3490807D01*
X9532116D01*
Y3465407D01*
X9506716D01*
Y3414607D01*
X9532116D01*
X9457116Y4014608D02*
Y3989208D01*
X9507916D01*
Y4014608D01*
X9533316D01*
Y4065408D01*
X9507916D01*
Y4090808D01*
X9457116D01*
Y4065408D01*
X9431716D01*
Y4014608D01*
X9457116D01*
Y3414607D02*
Y3389207D01*
X9507916D01*
Y3414607D01*
X9533316D01*
Y3465407D01*
X9507916D01*
Y3490807D01*
X9457116D01*
Y3465407D01*
X9431716D01*
Y3414607D01*
X9457116D01*
X9382116Y4014608D02*
Y3989208D01*
X9432916D01*
Y4014608D01*
X9458316D01*
Y4065408D01*
X9432916D01*
Y4090808D01*
X9382116D01*
Y4065408D01*
X9356716D01*
Y4014608D01*
X9382116D01*
Y3414607D02*
Y3389207D01*
X9432916D01*
Y3414607D01*
X9458316D01*
Y3465407D01*
X9432916D01*
Y3490807D01*
X9382116D01*
Y3465407D01*
X9356716D01*
Y3414607D01*
X9382116D01*
X9307115Y4014608D02*
Y3989208D01*
X9357915D01*
Y4014608D01*
X9383315D01*
Y4065408D01*
X9357915D01*
Y4090808D01*
X9307115D01*
Y4065408D01*
X9281715D01*
Y4014608D01*
X9307115D01*
Y3414607D02*
Y3389207D01*
X9357915D01*
Y3414607D01*
X9383315D01*
Y3465407D01*
X9357915D01*
Y3490807D01*
X9307115D01*
Y3465407D01*
X9281715D01*
Y3414607D01*
X9307115D01*
X9232115Y4014608D02*
Y3989208D01*
X9282915D01*
Y4014608D01*
X9308315D01*
Y4065408D01*
X9282915D01*
Y4090808D01*
X9232115D01*
Y4065408D01*
X9206715D01*
Y4014608D01*
X9232115D01*
Y3939608D02*
Y3914208D01*
X9282915D01*
Y3939608D01*
X9308315D01*
Y3990408D01*
X9282915D01*
Y4015808D01*
X9232115D01*
Y3990408D01*
X9206715D01*
Y3939608D01*
X9232115D01*
Y3489607D02*
Y3464207D01*
X9282915D01*
Y3489607D01*
X9308315D01*
Y3540407D01*
X9282915D01*
Y3565807D01*
X9232115D01*
Y3540407D01*
X9206715D01*
Y3489607D01*
X9232115D01*
Y3414607D02*
Y3389207D01*
X9282915D01*
Y3414607D01*
X9308315D01*
Y3465407D01*
X9282915D01*
Y3490807D01*
X9232115D01*
Y3465407D01*
X9206715D01*
Y3414607D01*
X9232115D01*
X9157115Y4014608D02*
Y3989208D01*
X9207915D01*
Y4014608D01*
X9233315D01*
Y4065408D01*
X9207915D01*
Y4090808D01*
X9157115D01*
Y4065408D01*
X9131715D01*
Y4014608D01*
X9157115D01*
Y3939608D02*
Y3914208D01*
X9207915D01*
Y3939608D01*
X9233315D01*
Y3990408D01*
X9207915D01*
Y4015808D01*
X9157115D01*
Y3990408D01*
X9131715D01*
Y3939608D01*
X9157115D01*
Y3864607D02*
Y3839207D01*
X9207915D01*
Y3864607D01*
X9233315D01*
Y3915407D01*
X9207915D01*
Y3940807D01*
X9157115D01*
Y3915407D01*
X9131715D01*
Y3864607D01*
X9157115D01*
Y3789607D02*
Y3764207D01*
X9207915D01*
Y3789607D01*
X9233315D01*
Y3840407D01*
X9207915D01*
Y3865807D01*
X9157115D01*
Y3840407D01*
X9131715D01*
Y3789607D01*
X9157115D01*
Y3714607D02*
Y3689207D01*
X9207915D01*
Y3714607D01*
X9233315D01*
Y3765407D01*
X9207915D01*
Y3790807D01*
X9157115D01*
Y3765407D01*
X9131715D01*
Y3714607D01*
X9157115D01*
Y3639607D02*
Y3614207D01*
X9207915D01*
Y3639607D01*
X9233315D01*
Y3690407D01*
X9207915D01*
Y3715807D01*
X9157115D01*
Y3690407D01*
X9131715D01*
Y3639607D01*
X9157115D01*
Y3564607D02*
Y3539207D01*
X9207915D01*
Y3564607D01*
X9233315D01*
Y3615407D01*
X9207915D01*
Y3640807D01*
X9157115D01*
Y3615407D01*
X9131715D01*
Y3564607D01*
X9157115D01*
Y3489607D02*
Y3464207D01*
X9207915D01*
Y3489607D01*
X9233315D01*
Y3540407D01*
X9207915D01*
Y3565807D01*
X9157115D01*
Y3540407D01*
X9131715D01*
Y3489607D01*
X9157115D01*
Y3414607D02*
Y3389207D01*
X9207915D01*
Y3414607D01*
X9233315D01*
Y3465407D01*
X9207915D01*
Y3490807D01*
X9157115D01*
Y3465407D01*
X9131715D01*
Y3414607D01*
X9157115D01*
X7099603Y2339601D02*
Y2314201D01*
X7150403D01*
Y2339601D01*
X7175803D01*
Y2390401D01*
X7150403D01*
Y2415801D01*
X7099603D01*
Y2390401D01*
X7074203D01*
Y2339601D01*
X7099603D01*
Y2229601D02*
Y2204201D01*
X7150403D01*
Y2229601D01*
X7175803D01*
Y2280401D01*
X7150403D01*
Y2305801D01*
X7099603D01*
Y2280401D01*
X7074203D01*
Y2229601D01*
X7099603D01*
Y1569601D02*
Y1544201D01*
X7150403D01*
Y1569601D01*
X7175803D01*
Y1620401D01*
X7150403D01*
Y1645801D01*
X7099603D01*
Y1620401D01*
X7074203D01*
Y1569601D01*
X7099603D01*
Y1459601D02*
Y1434201D01*
X7150403D01*
Y1459601D01*
X7175803D01*
Y1510401D01*
X7150403D01*
Y1535801D01*
X7099603D01*
Y1510401D01*
X7074203D01*
Y1459601D01*
X7099603D01*
Y799601D02*
Y774201D01*
X7150403D01*
Y799601D01*
X7175803D01*
Y850401D01*
X7150403D01*
Y875801D01*
X7099603D01*
Y850401D01*
X7074203D01*
Y799601D01*
X7099603D01*
Y689601D02*
Y664201D01*
X7150403D01*
Y689601D01*
X7175803D01*
Y740401D01*
X7150403D01*
Y765801D01*
X7099603D01*
Y740401D01*
X7074203D01*
Y689601D01*
X7099603D01*
X6989603Y2339601D02*
Y2314201D01*
X7040403D01*
Y2339601D01*
X7065803D01*
Y2390401D01*
X7040403D01*
Y2415801D01*
X6989603D01*
Y2390401D01*
X6964203D01*
Y2339601D01*
X6989603D01*
Y2229601D02*
Y2204201D01*
X7040403D01*
Y2229601D01*
X7065803D01*
Y2280401D01*
X7040403D01*
Y2305801D01*
X6989603D01*
Y2280401D01*
X6964203D01*
Y2229601D01*
X6989603D01*
Y1569601D02*
Y1544201D01*
X7040403D01*
Y1569601D01*
X7065803D01*
Y1620401D01*
X7040403D01*
Y1645801D01*
X6989603D01*
Y1620401D01*
X6964203D01*
Y1569601D01*
X6989603D01*
Y1459601D02*
Y1434201D01*
X7040403D01*
Y1459601D01*
X7065803D01*
Y1510401D01*
X7040403D01*
Y1535801D01*
X6989603D01*
Y1510401D01*
X6964203D01*
Y1459601D01*
X6989603D01*
Y799601D02*
Y774201D01*
X7040403D01*
Y799601D01*
X7065803D01*
Y850401D01*
X7040403D01*
Y875801D01*
X6989603D01*
Y850401D01*
X6964203D01*
Y799601D01*
X6989603D01*
Y689601D02*
Y664201D01*
X7040403D01*
Y689601D01*
X7065803D01*
Y740401D01*
X7040403D01*
Y765801D01*
X6989603D01*
Y740401D01*
X6964203D01*
Y689601D01*
X6989603D01*
X6879603Y2339601D02*
Y2314201D01*
X6930403D01*
Y2339601D01*
X6955803D01*
Y2390401D01*
X6930403D01*
Y2415801D01*
X6879603D01*
Y2390401D01*
X6854203D01*
Y2339601D01*
X6879603D01*
Y2229601D02*
Y2204201D01*
X6930403D01*
Y2229601D01*
X6955803D01*
Y2280401D01*
X6930403D01*
Y2305801D01*
X6879603D01*
Y2280401D01*
X6854203D01*
Y2229601D01*
X6879603D01*
Y1569601D02*
Y1544201D01*
X6930403D01*
Y1569601D01*
X6955803D01*
Y1620401D01*
X6930403D01*
Y1645801D01*
X6879603D01*
Y1620401D01*
X6854203D01*
Y1569601D01*
X6879603D01*
Y1459601D02*
Y1434201D01*
X6930403D01*
Y1459601D01*
X6955803D01*
Y1510401D01*
X6930403D01*
Y1535801D01*
X6879603D01*
Y1510401D01*
X6854203D01*
Y1459601D01*
X6879603D01*
Y799601D02*
Y774201D01*
X6930403D01*
Y799601D01*
X6955803D01*
Y850401D01*
X6930403D01*
Y875801D01*
X6879603D01*
Y850401D01*
X6854203D01*
Y799601D01*
X6879603D01*
Y689601D02*
Y664201D01*
X6930403D01*
Y689601D01*
X6955803D01*
Y740401D01*
X6930403D01*
Y765801D01*
X6879603D01*
Y740401D01*
X6854203D01*
Y689601D01*
X6879603D01*
X6769603Y2339601D02*
Y2314201D01*
X6820403D01*
Y2339601D01*
X6845803D01*
Y2390401D01*
X6820403D01*
Y2415801D01*
X6769603D01*
Y2390401D01*
X6744203D01*
Y2339601D01*
X6769603D01*
Y2229601D02*
Y2204201D01*
X6820403D01*
Y2229601D01*
X6845803D01*
Y2280401D01*
X6820403D01*
Y2305801D01*
X6769603D01*
Y2280401D01*
X6744203D01*
Y2229601D01*
X6769603D01*
Y1569601D02*
Y1544201D01*
X6820403D01*
Y1569601D01*
X6845803D01*
Y1620401D01*
X6820403D01*
Y1645801D01*
X6769603D01*
Y1620401D01*
X6744203D01*
Y1569601D01*
X6769603D01*
Y1459601D02*
Y1434201D01*
X6820403D01*
Y1459601D01*
X6845803D01*
Y1510401D01*
X6820403D01*
Y1535801D01*
X6769603D01*
Y1510401D01*
X6744203D01*
Y1459601D01*
X6769603D01*
Y799601D02*
Y774201D01*
X6820403D01*
Y799601D01*
X6845803D01*
Y850401D01*
X6820403D01*
Y875801D01*
X6769603D01*
Y850401D01*
X6744203D01*
Y799601D01*
X6769603D01*
Y689601D02*
Y664201D01*
X6820403D01*
Y689601D01*
X6845803D01*
Y740401D01*
X6820403D01*
Y765801D01*
X6769603D01*
Y740401D01*
X6744203D01*
Y689601D01*
X6769603D01*
X6659603Y2339601D02*
Y2314201D01*
X6710403D01*
Y2339601D01*
X6735803D01*
Y2390401D01*
X6710403D01*
Y2415801D01*
X6659603D01*
Y2390401D01*
X6634203D01*
Y2339601D01*
X6659603D01*
Y2229601D02*
Y2204201D01*
X6710403D01*
Y2229601D01*
X6735803D01*
Y2280401D01*
X6710403D01*
Y2305801D01*
X6659603D01*
Y2280401D01*
X6634203D01*
Y2229601D01*
X6659603D01*
Y1569601D02*
Y1544201D01*
X6710403D01*
Y1569601D01*
X6735803D01*
Y1620401D01*
X6710403D01*
Y1645801D01*
X6659603D01*
Y1620401D01*
X6634203D01*
Y1569601D01*
X6659603D01*
Y1459601D02*
Y1434201D01*
X6710403D01*
Y1459601D01*
X6735803D01*
Y1510401D01*
X6710403D01*
Y1535801D01*
X6659603D01*
Y1510401D01*
X6634203D01*
Y1459601D01*
X6659603D01*
Y799601D02*
Y774201D01*
X6710403D01*
Y799601D01*
X6735803D01*
Y850401D01*
X6710403D01*
Y875801D01*
X6659603D01*
Y850401D01*
X6634203D01*
Y799601D01*
X6659603D01*
Y689601D02*
Y664201D01*
X6710403D01*
Y689601D01*
X6735803D01*
Y740401D01*
X6710403D01*
Y765801D01*
X6659603D01*
Y740401D01*
X6634203D01*
Y689601D01*
X6659603D01*
X6549603Y2339601D02*
Y2314201D01*
X6600403D01*
Y2339601D01*
X6625803D01*
Y2390401D01*
X6600403D01*
Y2415801D01*
X6549603D01*
Y2390401D01*
X6524203D01*
Y2339601D01*
X6549603D01*
Y2229601D02*
Y2204201D01*
X6600403D01*
Y2229601D01*
X6625803D01*
Y2280401D01*
X6600403D01*
Y2305801D01*
X6549603D01*
Y2280401D01*
X6524203D01*
Y2229601D01*
X6549603D01*
Y1569601D02*
Y1544201D01*
X6600403D01*
Y1569601D01*
X6625803D01*
Y1620401D01*
X6600403D01*
Y1645801D01*
X6549603D01*
Y1620401D01*
X6524203D01*
Y1569601D01*
X6549603D01*
Y1459601D02*
Y1434201D01*
X6600403D01*
Y1459601D01*
X6625803D01*
Y1510401D01*
X6600403D01*
Y1535801D01*
X6549603D01*
Y1510401D01*
X6524203D01*
Y1459601D01*
X6549603D01*
Y799601D02*
Y774201D01*
X6600403D01*
Y799601D01*
X6625803D01*
Y850401D01*
X6600403D01*
Y875801D01*
X6549603D01*
Y850401D01*
X6524203D01*
Y799601D01*
X6549603D01*
Y689601D02*
Y664201D01*
X6600403D01*
Y689601D01*
X6625803D01*
Y740401D01*
X6600403D01*
Y765801D01*
X6549603D01*
Y740401D01*
X6524203D01*
Y689601D01*
X6549603D01*
X6439603Y2339601D02*
Y2314201D01*
X6490403D01*
Y2339601D01*
X6515803D01*
Y2390401D01*
X6490403D01*
Y2415801D01*
X6439603D01*
Y2390401D01*
X6414203D01*
Y2339601D01*
X6439603D01*
Y2229601D02*
Y2204201D01*
X6490403D01*
Y2229601D01*
X6515803D01*
Y2280401D01*
X6490403D01*
Y2305801D01*
X6439603D01*
Y2280401D01*
X6414203D01*
Y2229601D01*
X6439603D01*
Y1459601D02*
Y1434201D01*
X6490403D01*
Y1459601D01*
X6515803D01*
Y1510401D01*
X6490403D01*
Y1535801D01*
X6439603D01*
Y1510401D01*
X6414203D01*
Y1459601D01*
X6439603D01*
Y689601D02*
Y664201D01*
X6490403D01*
Y689601D01*
X6515803D01*
Y740401D01*
X6490403D01*
Y765801D01*
X6439603D01*
Y740401D01*
X6414203D01*
Y689601D01*
X6439603D01*
X9144596Y1119599D02*
Y1094199D01*
X9195396D01*
Y1119599D01*
X9220796D01*
Y1170399D01*
X9195396D01*
Y1195799D01*
X9144596D01*
Y1170399D01*
X9119196D01*
Y1119599D01*
X9144596D01*
X9069597Y969599D02*
Y944199D01*
X9120397D01*
Y969599D01*
X9145797D01*
Y1020399D01*
X9120397D01*
Y1045799D01*
X9069597D01*
Y1020399D01*
X9044197D01*
Y969599D01*
X9069597D01*
X8994596Y1119599D02*
Y1094199D01*
X9045396D01*
Y1119599D01*
X9070796D01*
Y1170399D01*
X9045396D01*
Y1195799D01*
X8994596D01*
Y1170399D01*
X8969196D01*
Y1119599D01*
X8994596D01*
X8919597Y969599D02*
Y944199D01*
X8970397D01*
Y969599D01*
X8995797D01*
Y1020399D01*
X8970397D01*
Y1045799D01*
X8919597D01*
Y1020399D01*
X8894197D01*
Y969599D01*
X8919597D01*
X8844596Y1119599D02*
Y1094199D01*
X8895396D01*
Y1119599D01*
X8920796D01*
Y1170399D01*
X8895396D01*
Y1195799D01*
X8844596D01*
Y1170399D01*
X8819196D01*
Y1119599D01*
X8844596D01*
X8769597Y969599D02*
Y944199D01*
X8820397D01*
Y969599D01*
X8845797D01*
Y1020399D01*
X8820397D01*
Y1045799D01*
X8769597D01*
Y1020399D01*
X8744197D01*
Y969599D01*
X8769597D01*
X8694597Y1119599D02*
Y1094199D01*
X8745397D01*
Y1119599D01*
X8770797D01*
Y1170399D01*
X8745397D01*
Y1195799D01*
X8694597D01*
Y1170399D01*
X8669197D01*
Y1119599D01*
X8694597D01*
X8619597Y969599D02*
Y944199D01*
X8670397D01*
Y969599D01*
X8695797D01*
Y1020399D01*
X8670397D01*
Y1045799D01*
X8619597D01*
Y1020399D01*
X8594197D01*
Y969599D01*
X8619597D01*
X8544597Y1119599D02*
Y1094199D01*
X8595397D01*
Y1119599D01*
X8620797D01*
Y1170399D01*
X8595397D01*
Y1195799D01*
X8544597D01*
Y1170399D01*
X8519197D01*
Y1119599D01*
X8544597D01*
X8469597Y969599D02*
Y944199D01*
X8520397D01*
Y969599D01*
X8545797D01*
Y1020399D01*
X8520397D01*
Y1045799D01*
X8469597D01*
Y1020399D01*
X8444197D01*
Y969599D01*
X8469597D01*
X8394597Y1119599D02*
Y1094199D01*
X8445397D01*
Y1119599D01*
X8470797D01*
Y1170399D01*
X8445397D01*
Y1195799D01*
X8394597D01*
Y1170399D01*
X8369197D01*
Y1119599D01*
X8394597D01*
X8319597Y969599D02*
Y944199D01*
X8370397D01*
Y969599D01*
X8395797D01*
Y1020399D01*
X8370397D01*
Y1045799D01*
X8319597D01*
Y1020399D01*
X8294197D01*
Y969599D01*
X8319597D01*
X8244597Y1119599D02*
Y1094199D01*
X8295397D01*
Y1119599D01*
X8320797D01*
Y1170399D01*
X8295397D01*
Y1195799D01*
X8244597D01*
Y1170399D01*
X8219197D01*
Y1119599D01*
X8244597D01*
X8169597Y969599D02*
Y944199D01*
X8220397D01*
Y969599D01*
X8245797D01*
Y1020399D01*
X8220397D01*
Y1045799D01*
X8169597D01*
Y1020399D01*
X8144197D01*
Y969599D01*
X8169597D01*
X7904597Y1129599D02*
Y1104199D01*
X7955397D01*
Y1129599D01*
X7980797D01*
Y1180399D01*
X7955397D01*
Y1205799D01*
X7904597D01*
Y1180399D01*
X7879197D01*
Y1129599D01*
X7904597D01*
X7829597Y979599D02*
Y954199D01*
X7880397D01*
Y979599D01*
X7905797D01*
Y1030399D01*
X7880397D01*
Y1055799D01*
X7829597D01*
Y1030399D01*
X7804197D01*
Y979599D01*
X7829597D01*
X7754597Y1129599D02*
Y1104199D01*
X7805397D01*
Y1129599D01*
X7830797D01*
Y1180399D01*
X7805397D01*
Y1205799D01*
X7754597D01*
Y1180399D01*
X7729197D01*
Y1129599D01*
X7754597D01*
X7679597Y979599D02*
Y954199D01*
X7730397D01*
Y979599D01*
X7755797D01*
Y1030399D01*
X7730397D01*
Y1055799D01*
X7679597D01*
Y1030399D01*
X7654197D01*
Y979599D01*
X7679597D01*
X7604597Y1129599D02*
Y1104199D01*
X7655397D01*
Y1129599D01*
X7680797D01*
Y1180399D01*
X7655397D01*
Y1205799D01*
X7604597D01*
Y1180399D01*
X7579197D01*
Y1129599D01*
X7604597D01*
X7529597Y979599D02*
Y954199D01*
X7580397D01*
Y979599D01*
X7605797D01*
Y1030399D01*
X7580397D01*
Y1055799D01*
X7529597D01*
Y1030399D01*
X7504197D01*
Y979599D01*
X7529597D01*
X7604597Y829599D02*
Y804199D01*
X7655397D01*
Y829599D01*
X7680797D01*
Y880399D01*
X7655397D01*
Y905799D01*
X7604597D01*
Y880399D01*
X7579197D01*
Y829599D01*
X7604597D01*
X7454597Y1129599D02*
Y1104199D01*
X7505397D01*
Y1129599D01*
X7530797D01*
Y1180399D01*
X7505397D01*
Y1205799D01*
X7454597D01*
Y1180399D01*
X7429197D01*
Y1129599D01*
X7454597D01*
X7379597Y979599D02*
Y954199D01*
X7430397D01*
Y979599D01*
X7455797D01*
Y1030399D01*
X7430397D01*
Y1055799D01*
X7379597D01*
Y1030399D01*
X7354197D01*
Y979599D01*
X7379597D01*
X7454597Y829599D02*
Y804199D01*
X7505397D01*
Y829599D01*
X7530797D01*
Y880399D01*
X7505397D01*
Y905799D01*
X7454597D01*
Y880399D01*
X7429197D01*
Y829599D01*
X7454597D01*
X7379597Y679599D02*
Y654199D01*
X7430397D01*
Y679599D01*
X7455797D01*
Y730399D01*
X7430397D01*
Y755799D01*
X7379597D01*
Y730399D01*
X7354197D01*
Y679599D01*
X7379597D01*
X7304597Y1129599D02*
Y1104199D01*
X7355397D01*
Y1129599D01*
X7380797D01*
Y1180399D01*
X7355397D01*
Y1205799D01*
X7304597D01*
Y1180399D01*
X7279197D01*
Y1129599D01*
X7304597D01*
X7229597Y979599D02*
Y954199D01*
X7280397D01*
Y979599D01*
X7305797D01*
Y1030399D01*
X7280397D01*
Y1055799D01*
X7229597D01*
Y1030399D01*
X7204197D01*
Y979599D01*
X7229597D01*
X7154597Y1129599D02*
Y1104199D01*
X7205397D01*
Y1129599D01*
X7230797D01*
Y1180399D01*
X7205397D01*
Y1205799D01*
X7154597D01*
Y1180399D01*
X7129197D01*
Y1129599D01*
X7154597D01*
X8544597Y1869599D02*
Y1844199D01*
X8595397D01*
Y1869599D01*
X8620797D01*
Y1920399D01*
X8595397D01*
Y1945799D01*
X8544597D01*
Y1920399D01*
X8519197D01*
Y1869599D01*
X8544597D01*
X8469597Y1719599D02*
Y1694199D01*
X8520397D01*
Y1719599D01*
X8545797D01*
Y1770399D01*
X8520397D01*
Y1795799D01*
X8469597D01*
Y1770399D01*
X8444197D01*
Y1719599D01*
X8469597D01*
X8544597Y1569599D02*
Y1544199D01*
X8595397D01*
Y1569599D01*
X8620797D01*
Y1620399D01*
X8595397D01*
Y1645799D01*
X8544597D01*
Y1620399D01*
X8519197D01*
Y1569599D01*
X8544597D01*
X8469597Y1419599D02*
Y1394199D01*
X8520397D01*
Y1419599D01*
X8545797D01*
Y1470399D01*
X8520397D01*
Y1495799D01*
X8469597D01*
Y1470399D01*
X8444197D01*
Y1419599D01*
X8469597D01*
X8394597Y1869599D02*
Y1844199D01*
X8445397D01*
Y1869599D01*
X8470797D01*
Y1920399D01*
X8445397D01*
Y1945799D01*
X8394597D01*
Y1920399D01*
X8369197D01*
Y1869599D01*
X8394597D01*
X8319597Y1719599D02*
Y1694199D01*
X8370397D01*
Y1719599D01*
X8395797D01*
Y1770399D01*
X8370397D01*
Y1795799D01*
X8319597D01*
Y1770399D01*
X8294197D01*
Y1719599D01*
X8319597D01*
X8394597Y1569599D02*
Y1544199D01*
X8445397D01*
Y1569599D01*
X8470797D01*
Y1620399D01*
X8445397D01*
Y1645799D01*
X8394597D01*
Y1620399D01*
X8369197D01*
Y1569599D01*
X8394597D01*
X8319597Y1419599D02*
Y1394199D01*
X8370397D01*
Y1419599D01*
X8395797D01*
Y1470399D01*
X8370397D01*
Y1495799D01*
X8319597D01*
Y1470399D01*
X8294197D01*
Y1419599D01*
X8319597D01*
X8244597Y1869599D02*
Y1844199D01*
X8295397D01*
Y1869599D01*
X8320797D01*
Y1920399D01*
X8295397D01*
Y1945799D01*
X8244597D01*
Y1920399D01*
X8219197D01*
Y1869599D01*
X8244597D01*
X8169597Y1719599D02*
Y1694199D01*
X8220397D01*
Y1719599D01*
X8245797D01*
Y1770399D01*
X8220397D01*
Y1795799D01*
X8169597D01*
Y1770399D01*
X8144197D01*
Y1719599D01*
X8169597D01*
X8244597Y1569599D02*
Y1544199D01*
X8295397D01*
Y1569599D01*
X8320797D01*
Y1620399D01*
X8295397D01*
Y1645799D01*
X8244597D01*
Y1620399D01*
X8219197D01*
Y1569599D01*
X8244597D01*
X8169597Y1419599D02*
Y1394199D01*
X8220397D01*
Y1419599D01*
X8245797D01*
Y1470399D01*
X8220397D01*
Y1495799D01*
X8169597D01*
Y1470399D01*
X8144197D01*
Y1419599D01*
X8169597D01*
X8094597Y1869599D02*
Y1844199D01*
X8145397D01*
Y1869599D01*
X8170797D01*
Y1920399D01*
X8145397D01*
Y1945799D01*
X8094597D01*
Y1920399D01*
X8069197D01*
Y1869599D01*
X8094597D01*
X8019597Y1719599D02*
Y1694199D01*
X8070397D01*
Y1719599D01*
X8095797D01*
Y1770399D01*
X8070397D01*
Y1795799D01*
X8019597D01*
Y1770399D01*
X7994197D01*
Y1719599D01*
X8019597D01*
X8094597Y1569599D02*
Y1544199D01*
X8145397D01*
Y1569599D01*
X8170797D01*
Y1620399D01*
X8145397D01*
Y1645799D01*
X8094597D01*
Y1620399D01*
X8069197D01*
Y1569599D01*
X8094597D01*
X8019597Y1419599D02*
Y1394199D01*
X8070397D01*
Y1419599D01*
X8095797D01*
Y1470399D01*
X8070397D01*
Y1495799D01*
X8019597D01*
Y1470399D01*
X7994197D01*
Y1419599D01*
X8019597D01*
X7944597Y1869599D02*
Y1844199D01*
X7995397D01*
Y1869599D01*
X8020797D01*
Y1920399D01*
X7995397D01*
Y1945799D01*
X7944597D01*
Y1920399D01*
X7919197D01*
Y1869599D01*
X7944597D01*
X7869597Y1719599D02*
Y1694199D01*
X7920397D01*
Y1719599D01*
X7945797D01*
Y1770399D01*
X7920397D01*
Y1795799D01*
X7869597D01*
Y1770399D01*
X7844197D01*
Y1719599D01*
X7869597D01*
X7944597Y1569599D02*
Y1544199D01*
X7995397D01*
Y1569599D01*
X8020797D01*
Y1620399D01*
X7995397D01*
Y1645799D01*
X7944597D01*
Y1620399D01*
X7919197D01*
Y1569599D01*
X7944597D01*
X7869597Y1419599D02*
Y1394199D01*
X7920397D01*
Y1419599D01*
X7945797D01*
Y1470399D01*
X7920397D01*
Y1495799D01*
X7869597D01*
Y1470399D01*
X7844197D01*
Y1419599D01*
X7869597D01*
X7794597Y1869599D02*
Y1844199D01*
X7845397D01*
Y1869599D01*
X7870797D01*
Y1920399D01*
X7845397D01*
Y1945799D01*
X7794597D01*
Y1920399D01*
X7769197D01*
Y1869599D01*
X7794597D01*
X7719597Y1719599D02*
Y1694199D01*
X7770397D01*
Y1719599D01*
X7795797D01*
Y1770399D01*
X7770397D01*
Y1795799D01*
X7719597D01*
Y1770399D01*
X7694197D01*
Y1719599D01*
X7719597D01*
X7794597Y1569599D02*
Y1544199D01*
X7845397D01*
Y1569599D01*
X7870797D01*
Y1620399D01*
X7845397D01*
Y1645799D01*
X7794597D01*
Y1620399D01*
X7769197D01*
Y1569599D01*
X7794597D01*
X7719597Y1419599D02*
Y1394199D01*
X7770397D01*
Y1419599D01*
X7795797D01*
Y1470399D01*
X7770397D01*
Y1495799D01*
X7719597D01*
Y1470399D01*
X7694197D01*
Y1419599D01*
X7719597D01*
X7644597Y1869599D02*
Y1844199D01*
X7695397D01*
Y1869599D01*
X7720797D01*
Y1920399D01*
X7695397D01*
Y1945799D01*
X7644597D01*
Y1920399D01*
X7619197D01*
Y1869599D01*
X7644597D01*
X7569597Y1719599D02*
Y1694199D01*
X7620397D01*
Y1719599D01*
X7645797D01*
Y1770399D01*
X7620397D01*
Y1795799D01*
X7569597D01*
Y1770399D01*
X7544197D01*
Y1719599D01*
X7569597D01*
X7644597Y1569599D02*
Y1544199D01*
X7695397D01*
Y1569599D01*
X7720797D01*
Y1620399D01*
X7695397D01*
Y1645799D01*
X7644597D01*
Y1620399D01*
X7619197D01*
Y1569599D01*
X7644597D01*
X7569597Y1419599D02*
Y1394199D01*
X7620397D01*
Y1419599D01*
X7645797D01*
Y1470399D01*
X7620397D01*
Y1495799D01*
X7569597D01*
Y1470399D01*
X7544197D01*
Y1419599D01*
X7569597D01*
X7494597Y1869599D02*
Y1844199D01*
X7545397D01*
Y1869599D01*
X7570797D01*
Y1920399D01*
X7545397D01*
Y1945799D01*
X7494597D01*
Y1920399D01*
X7469197D01*
Y1869599D01*
X7494597D01*
X7419597Y1719599D02*
Y1694199D01*
X7470397D01*
Y1719599D01*
X7495797D01*
Y1770399D01*
X7470397D01*
Y1795799D01*
X7419597D01*
Y1770399D01*
X7394197D01*
Y1719599D01*
X7419597D01*
X7494597Y1569599D02*
Y1544199D01*
X7545397D01*
Y1569599D01*
X7570797D01*
Y1620399D01*
X7545397D01*
Y1645799D01*
X7494597D01*
Y1620399D01*
X7469197D01*
Y1569599D01*
X7494597D01*
X7419597Y1419599D02*
Y1394199D01*
X7470397D01*
Y1419599D01*
X7495797D01*
Y1470399D01*
X7470397D01*
Y1495799D01*
X7419597D01*
Y1470399D01*
X7394197D01*
Y1419599D01*
X7419597D01*
X7344597Y1869599D02*
Y1844199D01*
X7395397D01*
Y1869599D01*
X7420797D01*
Y1920399D01*
X7395397D01*
Y1945799D01*
X7344597D01*
Y1920399D01*
X7319197D01*
Y1869599D01*
X7344597D01*
X7194597D02*
Y1844199D01*
X7245397D01*
Y1869599D01*
X7270797D01*
Y1920399D01*
X7245397D01*
Y1945799D01*
X7194597D01*
Y1920399D01*
X7169197D01*
Y1869599D01*
X7194597D01*
X8619597Y2469599D02*
Y2444199D01*
X8670397D01*
Y2469599D01*
X8695797D01*
Y2520399D01*
X8670397D01*
Y2545799D01*
X8619597D01*
Y2520399D01*
X8594197D01*
Y2469599D01*
X8619597D01*
Y2169599D02*
Y2144199D01*
X8670397D01*
Y2169599D01*
X8695797D01*
Y2220399D01*
X8670397D01*
Y2245799D01*
X8619597D01*
Y2220399D01*
X8594197D01*
Y2169599D01*
X8619597D01*
X8469597Y2469599D02*
Y2444199D01*
X8520397D01*
Y2469599D01*
X8545797D01*
Y2520399D01*
X8520397D01*
Y2545799D01*
X8469597D01*
Y2520399D01*
X8444197D01*
Y2469599D01*
X8469597D01*
X8544597Y2319599D02*
Y2294199D01*
X8595397D01*
Y2319599D01*
X8620797D01*
Y2370399D01*
X8595397D01*
Y2395799D01*
X8544597D01*
Y2370399D01*
X8519197D01*
Y2319599D01*
X8544597D01*
X8469597Y2169599D02*
Y2144199D01*
X8520397D01*
Y2169599D01*
X8545797D01*
Y2220399D01*
X8520397D01*
Y2245799D01*
X8469597D01*
Y2220399D01*
X8444197D01*
Y2169599D01*
X8469597D01*
X8319597Y2469599D02*
Y2444199D01*
X8370397D01*
Y2469599D01*
X8395797D01*
Y2520399D01*
X8370397D01*
Y2545799D01*
X8319597D01*
Y2520399D01*
X8294197D01*
Y2469599D01*
X8319597D01*
X8394597Y2319599D02*
Y2294199D01*
X8445397D01*
Y2319599D01*
X8470797D01*
Y2370399D01*
X8445397D01*
Y2395799D01*
X8394597D01*
Y2370399D01*
X8369197D01*
Y2319599D01*
X8394597D01*
X8319597Y2169599D02*
Y2144199D01*
X8370397D01*
Y2169599D01*
X8395797D01*
Y2220399D01*
X8370397D01*
Y2245799D01*
X8319597D01*
Y2220399D01*
X8294197D01*
Y2169599D01*
X8319597D01*
X8169597Y2469599D02*
Y2444199D01*
X8220397D01*
Y2469599D01*
X8245797D01*
Y2520399D01*
X8220397D01*
Y2545799D01*
X8169597D01*
Y2520399D01*
X8144197D01*
Y2469599D01*
X8169597D01*
X8244597Y2319599D02*
Y2294199D01*
X8295397D01*
Y2319599D01*
X8320797D01*
Y2370399D01*
X8295397D01*
Y2395799D01*
X8244597D01*
Y2370399D01*
X8219197D01*
Y2319599D01*
X8244597D01*
X8169597Y2169599D02*
Y2144199D01*
X8220397D01*
Y2169599D01*
X8245797D01*
Y2220399D01*
X8220397D01*
Y2245799D01*
X8169597D01*
Y2220399D01*
X8144197D01*
Y2169599D01*
X8169597D01*
X7869597Y2469599D02*
Y2444199D01*
X7920397D01*
Y2469599D01*
X7945797D01*
Y2520399D01*
X7920397D01*
Y2545799D01*
X7869597D01*
Y2520399D01*
X7844197D01*
Y2469599D01*
X7869597D01*
Y2169599D02*
Y2144199D01*
X7920397D01*
Y2169599D01*
X7945797D01*
Y2220399D01*
X7920397D01*
Y2245799D01*
X7869597D01*
Y2220399D01*
X7844197D01*
Y2169599D01*
X7869597D01*
X7719597Y2469599D02*
Y2444199D01*
X7770397D01*
Y2469599D01*
X7795797D01*
Y2520399D01*
X7770397D01*
Y2545799D01*
X7719597D01*
Y2520399D01*
X7694197D01*
Y2469599D01*
X7719597D01*
X7794597Y2319599D02*
Y2294199D01*
X7845397D01*
Y2319599D01*
X7870797D01*
Y2370399D01*
X7845397D01*
Y2395799D01*
X7794597D01*
Y2370399D01*
X7769197D01*
Y2319599D01*
X7794597D01*
X7719597Y2169599D02*
Y2144199D01*
X7770397D01*
Y2169599D01*
X7795797D01*
Y2220399D01*
X7770397D01*
Y2245799D01*
X7719597D01*
Y2220399D01*
X7694197D01*
Y2169599D01*
X7719597D01*
X7569597Y2469599D02*
Y2444199D01*
X7620397D01*
Y2469599D01*
X7645797D01*
Y2520399D01*
X7620397D01*
Y2545799D01*
X7569597D01*
Y2520399D01*
X7544197D01*
Y2469599D01*
X7569597D01*
X7644597Y2319599D02*
Y2294199D01*
X7695397D01*
Y2319599D01*
X7720797D01*
Y2370399D01*
X7695397D01*
Y2395799D01*
X7644597D01*
Y2370399D01*
X7619197D01*
Y2319599D01*
X7644597D01*
X7569597Y2169599D02*
Y2144199D01*
X7620397D01*
Y2169599D01*
X7645797D01*
Y2220399D01*
X7620397D01*
Y2245799D01*
X7569597D01*
Y2220399D01*
X7544197D01*
Y2169599D01*
X7569597D01*
X7419597Y2769598D02*
Y2744198D01*
X7470397D01*
Y2769598D01*
X7495797D01*
Y2820398D01*
X7470397D01*
Y2845798D01*
X7419597D01*
Y2820398D01*
X7394197D01*
Y2769598D01*
X7419597D01*
X7494597Y2619599D02*
Y2594199D01*
X7545397D01*
Y2619599D01*
X7570797D01*
Y2670399D01*
X7545397D01*
Y2695799D01*
X7494597D01*
Y2670399D01*
X7469197D01*
Y2619599D01*
X7494597D01*
X7419597Y2469599D02*
Y2444199D01*
X7470397D01*
Y2469599D01*
X7495797D01*
Y2520399D01*
X7470397D01*
Y2545799D01*
X7419597D01*
Y2520399D01*
X7394197D01*
Y2469599D01*
X7419597D01*
X7494597Y2319599D02*
Y2294199D01*
X7545397D01*
Y2319599D01*
X7570797D01*
Y2370399D01*
X7545397D01*
Y2395799D01*
X7494597D01*
Y2370399D01*
X7469197D01*
Y2319599D01*
X7494597D01*
X7419597Y2169599D02*
Y2144199D01*
X7470397D01*
Y2169599D01*
X7495797D01*
Y2220399D01*
X7470397D01*
Y2245799D01*
X7419597D01*
Y2220399D01*
X7394197D01*
Y2169599D01*
X7419597D01*
X7269597Y2769598D02*
Y2744198D01*
X7320397D01*
Y2769598D01*
X7345797D01*
Y2820398D01*
X7320397D01*
Y2845798D01*
X7269597D01*
Y2820398D01*
X7244197D01*
Y2769598D01*
X7269597D01*
X7344597Y2619599D02*
Y2594199D01*
X7395397D01*
Y2619599D01*
X7420797D01*
Y2670399D01*
X7395397D01*
Y2695799D01*
X7344597D01*
Y2670399D01*
X7319197D01*
Y2619599D01*
X7344597D01*
Y2319599D02*
Y2294199D01*
X7395397D01*
Y2319599D01*
X7420797D01*
Y2370399D01*
X7395397D01*
Y2395799D01*
X7344597D01*
Y2370399D01*
X7319197D01*
Y2319599D01*
X7344597D01*
X7269597Y2169599D02*
Y2144199D01*
X7320397D01*
Y2169599D01*
X7345797D01*
Y2220399D01*
X7320397D01*
Y2245799D01*
X7269597D01*
Y2220399D01*
X7244197D01*
Y2169599D01*
X7269597D01*
X7119597Y2769598D02*
Y2744198D01*
X7170397D01*
Y2769598D01*
X7195797D01*
Y2820398D01*
X7170397D01*
Y2845798D01*
X7119597D01*
Y2820398D01*
X7094197D01*
Y2769598D01*
X7119597D01*
X7194597Y2619599D02*
Y2594199D01*
X7245397D01*
Y2619599D01*
X7270797D01*
Y2670399D01*
X7245397D01*
Y2695799D01*
X7194597D01*
Y2670399D01*
X7169197D01*
Y2619599D01*
X7194597D01*
X6819597Y2769598D02*
Y2744198D01*
X6870397D01*
Y2769598D01*
X6895797D01*
Y2820398D01*
X6870397D01*
Y2845798D01*
X6819597D01*
Y2820398D01*
X6794197D01*
Y2769598D01*
X6819597D01*
X6894597Y2019599D02*
Y1994199D01*
X6945397D01*
Y2019599D01*
X6970797D01*
Y2070399D01*
X6945397D01*
Y2095799D01*
X6894597D01*
Y2070399D01*
X6869197D01*
Y2019599D01*
X6894597D01*
X6819597Y1869599D02*
Y1844199D01*
X6870397D01*
Y1869599D01*
X6895797D01*
Y1920399D01*
X6870397D01*
Y1945799D01*
X6819597D01*
Y1920399D01*
X6794197D01*
Y1869599D01*
X6819597D01*
Y1269599D02*
Y1244199D01*
X6870397D01*
Y1269599D01*
X6895797D01*
Y1320399D01*
X6870397D01*
Y1345799D01*
X6819597D01*
Y1320399D01*
X6794197D01*
Y1269599D01*
X6819597D01*
X6894597Y1119599D02*
Y1094199D01*
X6945397D01*
Y1119599D01*
X6970797D01*
Y1170399D01*
X6945397D01*
Y1195799D01*
X6894597D01*
Y1170399D01*
X6869197D01*
Y1119599D01*
X6894597D01*
X6669597Y2769598D02*
Y2744198D01*
X6720397D01*
Y2769598D01*
X6745797D01*
Y2820398D01*
X6720397D01*
Y2845798D01*
X6669597D01*
Y2820398D01*
X6644197D01*
Y2769598D01*
X6669597D01*
X6744597Y2619599D02*
Y2594199D01*
X6795397D01*
Y2619599D01*
X6820797D01*
Y2670399D01*
X6795397D01*
Y2695799D01*
X6744597D01*
Y2670399D01*
X6719197D01*
Y2619599D01*
X6744597D01*
Y2019599D02*
Y1994199D01*
X6795397D01*
Y2019599D01*
X6820797D01*
Y2070399D01*
X6795397D01*
Y2095799D01*
X6744597D01*
Y2070399D01*
X6719197D01*
Y2019599D01*
X6744597D01*
X6669597Y1869599D02*
Y1844199D01*
X6720397D01*
Y1869599D01*
X6745797D01*
Y1920399D01*
X6720397D01*
Y1945799D01*
X6669597D01*
Y1920399D01*
X6644197D01*
Y1869599D01*
X6669597D01*
Y1269599D02*
Y1244199D01*
X6720397D01*
Y1269599D01*
X6745797D01*
Y1320399D01*
X6720397D01*
Y1345799D01*
X6669597D01*
Y1320399D01*
X6644197D01*
Y1269599D01*
X6669597D01*
X6744597Y1119599D02*
Y1094199D01*
X6795397D01*
Y1119599D01*
X6820797D01*
Y1170399D01*
X6795397D01*
Y1195799D01*
X6744597D01*
Y1170399D01*
X6719197D01*
Y1119599D01*
X6744597D01*
X6519597Y2769598D02*
Y2744198D01*
X6570397D01*
Y2769598D01*
X6595797D01*
Y2820398D01*
X6570397D01*
Y2845798D01*
X6519597D01*
Y2820398D01*
X6494197D01*
Y2769598D01*
X6519597D01*
X6594597Y2619599D02*
Y2594199D01*
X6645397D01*
Y2619599D01*
X6670797D01*
Y2670399D01*
X6645397D01*
Y2695799D01*
X6594597D01*
Y2670399D01*
X6569197D01*
Y2619599D01*
X6594597D01*
Y2019599D02*
Y1994199D01*
X6645397D01*
Y2019599D01*
X6670797D01*
Y2070399D01*
X6645397D01*
Y2095799D01*
X6594597D01*
Y2070399D01*
X6569197D01*
Y2019599D01*
X6594597D01*
X6519597Y1869599D02*
Y1844199D01*
X6570397D01*
Y1869599D01*
X6595797D01*
Y1920399D01*
X6570397D01*
Y1945799D01*
X6519597D01*
Y1920399D01*
X6494197D01*
Y1869599D01*
X6519597D01*
Y1269599D02*
Y1244199D01*
X6570397D01*
Y1269599D01*
X6595797D01*
Y1320399D01*
X6570397D01*
Y1345799D01*
X6519597D01*
Y1320399D01*
X6494197D01*
Y1269599D01*
X6519597D01*
X6594597Y1119599D02*
Y1094199D01*
X6645397D01*
Y1119599D01*
X6670797D01*
Y1170399D01*
X6645397D01*
Y1195799D01*
X6594597D01*
Y1170399D01*
X6569197D01*
Y1119599D01*
X6594597D01*
X6369597Y2769598D02*
Y2744198D01*
X6420397D01*
Y2769598D01*
X6445797D01*
Y2820398D01*
X6420397D01*
Y2845798D01*
X6369597D01*
Y2820398D01*
X6344197D01*
Y2769598D01*
X6369597D01*
X6444597Y2019599D02*
Y1994199D01*
X6495397D01*
Y2019599D01*
X6520797D01*
Y2070399D01*
X6495397D01*
Y2095799D01*
X6444597D01*
Y2070399D01*
X6419197D01*
Y2019599D01*
X6444597D01*
X6369597Y1269599D02*
Y1244199D01*
X6420397D01*
Y1269599D01*
X6445797D01*
Y1320399D01*
X6420397D01*
Y1345799D01*
X6369597D01*
Y1320399D01*
X6344197D01*
Y1269599D01*
X6369597D01*
X6444597Y1119599D02*
Y1094199D01*
X6495397D01*
Y1119599D01*
X6520797D01*
Y1170399D01*
X6495397D01*
Y1195799D01*
X6444597D01*
Y1170399D01*
X6419197D01*
Y1119599D01*
X6444597D01*
X1744600Y3944600D02*
Y3919200D01*
X1795400D01*
Y3944600D01*
X1820800D01*
Y3995400D01*
X1795400D01*
Y4020800D01*
X1744600D01*
Y3995400D01*
X1719200D01*
Y3944600D01*
X1744600D01*
X714600Y4104600D02*
Y4079200D01*
X765400D01*
Y4104600D01*
X790800D01*
Y4155400D01*
X765400D01*
Y4180800D01*
X714600D01*
Y4155400D01*
X689200D01*
Y4104600D01*
X714600D01*
X1204600Y2184600D02*
Y2159200D01*
X1255400D01*
Y2184600D01*
X1280800D01*
Y2235400D01*
X1255400D01*
Y2260800D01*
X1204600D01*
Y2235400D01*
X1179200D01*
Y2184600D01*
X1204600D01*
X1109363Y1729831D02*
Y1704431D01*
X1160163D01*
Y1729831D01*
X1185563D01*
Y1780631D01*
X1160163D01*
Y1806031D01*
X1109363D01*
Y1780631D01*
X1083963D01*
Y1729831D01*
X1109363D01*
X1274600Y2124600D02*
Y2099200D01*
X1325400D01*
Y2124600D01*
X1350800D01*
Y2175400D01*
X1325400D01*
Y2200800D01*
X1274600D01*
Y2175400D01*
X1249200D01*
Y2124600D01*
X1274600D01*
X1064600Y2174600D02*
Y2149200D01*
X1115400D01*
Y2174600D01*
X1140800D01*
Y2225400D01*
X1115400D01*
Y2250800D01*
X1064600D01*
Y2225400D01*
X1039200D01*
Y2174600D01*
X1064600D01*
X984600Y2884600D02*
Y2859200D01*
X1035400D01*
Y2884600D01*
X1060800D01*
Y2935400D01*
X1035400D01*
Y2960800D01*
X984600D01*
Y2935400D01*
X959200D01*
Y2884600D01*
X984600D01*
X1059835Y2809835D02*
Y2784435D01*
X1110635D01*
Y2809835D01*
X1136035D01*
Y2860635D01*
X1110635D01*
Y2886035D01*
X1059835D01*
Y2860635D01*
X1034435D01*
Y2809835D01*
X1059835D01*
X834835Y3034835D02*
Y3009435D01*
X885635D01*
Y3034835D01*
X911035D01*
Y3085635D01*
X885635D01*
Y3111035D01*
X834835D01*
Y3085635D01*
X809435D01*
Y3034835D01*
X834835D01*
X909835Y2959835D02*
Y2934435D01*
X960635D01*
Y2959835D01*
X986035D01*
Y3010635D01*
X960635D01*
Y3036035D01*
X909835D01*
Y3010635D01*
X884435D01*
Y2959835D01*
X909835D01*
X899600Y2799600D02*
Y2774200D01*
X950400D01*
Y2799600D01*
X975800D01*
Y2850400D01*
X950400D01*
Y2875800D01*
X899600D01*
Y2850400D01*
X874200D01*
Y2799600D01*
X899600D01*
X824600Y2874600D02*
Y2849200D01*
X875400D01*
Y2874600D01*
X900800D01*
Y2925400D01*
X875400D01*
Y2950800D01*
X824600D01*
Y2925400D01*
X799200D01*
Y2874600D01*
X824600D01*
X1654600Y1964600D02*
Y1939200D01*
X1705400D01*
Y1964600D01*
X1730800D01*
Y2015400D01*
X1705400D01*
Y2040800D01*
X1654600D01*
Y2015400D01*
X1629200D01*
Y1964600D01*
X1654600D01*
X1424600Y4134600D02*
Y4109200D01*
X1475400D01*
Y4134600D01*
X1500800D01*
Y4185400D01*
X1475400D01*
Y4210800D01*
X1424600D01*
Y4185400D01*
X1399200D01*
Y4134600D01*
X1424600D01*
X1884600Y3614600D02*
Y3589200D01*
X1935400D01*
Y3614600D01*
X1960800D01*
Y3665400D01*
X1935400D01*
Y3690800D01*
X1884600D01*
Y3665400D01*
X1859200D01*
Y3614600D01*
X1884600D01*
X1124600Y3024600D02*
Y2999200D01*
X1175400D01*
Y3024600D01*
X1200800D01*
Y3075400D01*
X1175400D01*
Y3100800D01*
X1124600D01*
Y3075400D01*
X1099200D01*
Y3024600D01*
X1124600D01*
X1049600Y2949600D02*
Y2924200D01*
X1100400D01*
Y2949600D01*
X1125800D01*
Y3000400D01*
X1100400D01*
Y3025800D01*
X1049600D01*
Y3000400D01*
X1024200D01*
Y2949600D01*
X1049600D01*
X1244599Y2839600D02*
Y2814200D01*
X1295399D01*
Y2839600D01*
X1320799D01*
Y2890400D01*
X1295399D01*
Y2915800D01*
X1244599D01*
Y2890400D01*
X1219199D01*
Y2839600D01*
X1244599D01*
X1124600Y2874600D02*
Y2849200D01*
X1175400D01*
Y2874600D01*
X1200800D01*
Y2925400D01*
X1175400D01*
Y2950800D01*
X1124600D01*
Y2925400D01*
X1099200D01*
Y2874600D01*
X1124600D01*
X1199600Y2949600D02*
Y2924200D01*
X1250400D01*
Y2949600D01*
X1275800D01*
Y3000400D01*
X1250400D01*
Y3025800D01*
X1199600D01*
Y3000400D01*
X1174200D01*
Y2949600D01*
X1199600D01*
X974600Y3024600D02*
Y2999200D01*
X1025400D01*
Y3024600D01*
X1050800D01*
Y3075400D01*
X1025400D01*
Y3100800D01*
X974600D01*
Y3075400D01*
X949200D01*
Y3024600D01*
X974600D01*
X1654600Y3564600D02*
Y3539200D01*
X1705400D01*
Y3564600D01*
X1730800D01*
Y3615400D01*
X1705400D01*
Y3640800D01*
X1654600D01*
Y3615400D01*
X1629200D01*
Y3564600D01*
X1654600D01*
X3569952Y2347651D02*
Y2322251D01*
X3620752D01*
Y2347651D01*
X3646152D01*
Y2398451D01*
X3620752D01*
Y2423851D01*
X3569952D01*
Y2398451D01*
X3544552D01*
Y2347651D01*
X3569952D01*
X4299603Y2349602D02*
Y2324202D01*
X4350403D01*
Y2349602D01*
X4375803D01*
Y2400402D01*
X4350403D01*
Y2425802D01*
X4299603D01*
Y2400402D01*
X4274203D01*
Y2349602D01*
X4299603D01*
Y2249602D02*
Y2224202D01*
X4350403D01*
Y2249602D01*
X4375803D01*
Y2300402D01*
X4350403D01*
Y2325802D01*
X4299603D01*
Y2300402D01*
X4274203D01*
Y2249602D01*
X4299603D01*
Y2149602D02*
Y2124202D01*
X4350403D01*
Y2149602D01*
X4375803D01*
Y2200402D01*
X4350403D01*
Y2225802D01*
X4299603D01*
Y2200402D01*
X4274203D01*
Y2149602D01*
X4299603D01*
Y2049602D02*
Y2024202D01*
X4350403D01*
Y2049602D01*
X4375803D01*
Y2100402D01*
X4350403D01*
Y2125802D01*
X4299603D01*
Y2100402D01*
X4274203D01*
Y2049602D01*
X4299603D01*
Y1949602D02*
Y1924202D01*
X4350403D01*
Y1949602D01*
X4375803D01*
Y2000402D01*
X4350403D01*
Y2025802D01*
X4299603D01*
Y2000402D01*
X4274203D01*
Y1949602D01*
X4299603D01*
Y1849602D02*
Y1824202D01*
X4350403D01*
Y1849602D01*
X4375803D01*
Y1900402D01*
X4350403D01*
Y1925802D01*
X4299603D01*
Y1900402D01*
X4274203D01*
Y1849602D01*
X4299603D01*
Y1749602D02*
Y1724202D01*
X4350403D01*
Y1749602D01*
X4375803D01*
Y1800402D01*
X4350403D01*
Y1825802D01*
X4299603D01*
Y1800402D01*
X4274203D01*
Y1749602D01*
X4299603D01*
Y1649602D02*
Y1624202D01*
X4350403D01*
Y1649602D01*
X4375803D01*
Y1700402D01*
X4350403D01*
Y1725802D01*
X4299603D01*
Y1700402D01*
X4274203D01*
Y1649602D01*
X4299603D01*
X4199603Y2349602D02*
Y2324202D01*
X4250403D01*
Y2349602D01*
X4275803D01*
Y2400402D01*
X4250403D01*
Y2425802D01*
X4199603D01*
Y2400402D01*
X4174203D01*
Y2349602D01*
X4199603D01*
Y2249602D02*
Y2224202D01*
X4250403D01*
Y2249602D01*
X4275803D01*
Y2300402D01*
X4250403D01*
Y2325802D01*
X4199603D01*
Y2300402D01*
X4174203D01*
Y2249602D01*
X4199603D01*
Y2149602D02*
Y2124202D01*
X4250403D01*
Y2149602D01*
X4275803D01*
Y2200402D01*
X4250403D01*
Y2225802D01*
X4199603D01*
Y2200402D01*
X4174203D01*
Y2149602D01*
X4199603D01*
Y2049602D02*
Y2024202D01*
X4250403D01*
Y2049602D01*
X4275803D01*
Y2100402D01*
X4250403D01*
Y2125802D01*
X4199603D01*
Y2100402D01*
X4174203D01*
Y2049602D01*
X4199603D01*
Y1949602D02*
Y1924202D01*
X4250403D01*
Y1949602D01*
X4275803D01*
Y2000402D01*
X4250403D01*
Y2025802D01*
X4199603D01*
Y2000402D01*
X4174203D01*
Y1949602D01*
X4199603D01*
Y1849602D02*
Y1824202D01*
X4250403D01*
Y1849602D01*
X4275803D01*
Y1900402D01*
X4250403D01*
Y1925802D01*
X4199603D01*
Y1900402D01*
X4174203D01*
Y1849602D01*
X4199603D01*
Y1749602D02*
Y1724202D01*
X4250403D01*
Y1749602D01*
X4275803D01*
Y1800402D01*
X4250403D01*
Y1825802D01*
X4199603D01*
Y1800402D01*
X4174203D01*
Y1749602D01*
X4199603D01*
Y1649602D02*
Y1624202D01*
X4250403D01*
Y1649602D01*
X4275803D01*
Y1700402D01*
X4250403D01*
Y1725802D01*
X4199603D01*
Y1700402D01*
X4174203D01*
Y1649602D01*
X4199603D01*
X4099603Y2349602D02*
Y2324202D01*
X4150403D01*
Y2349602D01*
X4175803D01*
Y2400402D01*
X4150403D01*
Y2425802D01*
X4099603D01*
Y2400402D01*
X4074203D01*
Y2349602D01*
X4099603D01*
Y2249602D02*
Y2224202D01*
X4150403D01*
Y2249602D01*
X4175803D01*
Y2300402D01*
X4150403D01*
Y2325802D01*
X4099603D01*
Y2300402D01*
X4074203D01*
Y2249602D01*
X4099603D01*
Y2149602D02*
Y2124202D01*
X4150403D01*
Y2149602D01*
X4175803D01*
Y2200402D01*
X4150403D01*
Y2225802D01*
X4099603D01*
Y2200402D01*
X4074203D01*
Y2149602D01*
X4099603D01*
Y2049602D02*
Y2024202D01*
X4150403D01*
Y2049602D01*
X4175803D01*
Y2100402D01*
X4150403D01*
Y2125802D01*
X4099603D01*
Y2100402D01*
X4074203D01*
Y2049602D01*
X4099603D01*
Y1949602D02*
Y1924202D01*
X4150403D01*
Y1949602D01*
X4175803D01*
Y2000402D01*
X4150403D01*
Y2025802D01*
X4099603D01*
Y2000402D01*
X4074203D01*
Y1949602D01*
X4099603D01*
Y1849602D02*
Y1824202D01*
X4150403D01*
Y1849602D01*
X4175803D01*
Y1900402D01*
X4150403D01*
Y1925802D01*
X4099603D01*
Y1900402D01*
X4074203D01*
Y1849602D01*
X4099603D01*
Y1749602D02*
Y1724202D01*
X4150403D01*
Y1749602D01*
X4175803D01*
Y1800402D01*
X4150403D01*
Y1825802D01*
X4099603D01*
Y1800402D01*
X4074203D01*
Y1749602D01*
X4099603D01*
Y1649602D02*
Y1624202D01*
X4150403D01*
Y1649602D01*
X4175803D01*
Y1700402D01*
X4150403D01*
Y1725802D01*
X4099603D01*
Y1700402D01*
X4074203D01*
Y1649602D01*
X4099603D01*
X3999603Y2349602D02*
Y2324202D01*
X4050403D01*
Y2349602D01*
X4075803D01*
Y2400402D01*
X4050403D01*
Y2425802D01*
X3999603D01*
Y2400402D01*
X3974203D01*
Y2349602D01*
X3999603D01*
Y2249602D02*
Y2224202D01*
X4050403D01*
Y2249602D01*
X4075803D01*
Y2300402D01*
X4050403D01*
Y2325802D01*
X3999603D01*
Y2300402D01*
X3974203D01*
Y2249602D01*
X3999603D01*
Y2149602D02*
Y2124202D01*
X4050403D01*
Y2149602D01*
X4075803D01*
Y2200402D01*
X4050403D01*
Y2225802D01*
X3999603D01*
Y2200402D01*
X3974203D01*
Y2149602D01*
X3999603D01*
Y2049602D02*
Y2024202D01*
X4050403D01*
Y2049602D01*
X4075803D01*
Y2100402D01*
X4050403D01*
Y2125802D01*
X3999603D01*
Y2100402D01*
X3974203D01*
Y2049602D01*
X3999603D01*
Y1949602D02*
Y1924202D01*
X4050403D01*
Y1949602D01*
X4075803D01*
Y2000402D01*
X4050403D01*
Y2025802D01*
X3999603D01*
Y2000402D01*
X3974203D01*
Y1949602D01*
X3999603D01*
Y1849602D02*
Y1824202D01*
X4050403D01*
Y1849602D01*
X4075803D01*
Y1900402D01*
X4050403D01*
Y1925802D01*
X3999603D01*
Y1900402D01*
X3974203D01*
Y1849602D01*
X3999603D01*
Y1749602D02*
Y1724202D01*
X4050403D01*
Y1749602D01*
X4075803D01*
Y1800402D01*
X4050403D01*
Y1825802D01*
X3999603D01*
Y1800402D01*
X3974203D01*
Y1749602D01*
X3999603D01*
Y1649602D02*
Y1624202D01*
X4050403D01*
Y1649602D01*
X4075803D01*
Y1700402D01*
X4050403D01*
Y1725802D01*
X3999603D01*
Y1700402D01*
X3974203D01*
Y1649602D01*
X3999603D01*
X5439604Y3479603D02*
Y3454203D01*
X5490404D01*
Y3479603D01*
X5515804D01*
Y3530403D01*
X5490404D01*
Y3555803D01*
X5439604D01*
Y3530403D01*
X5414204D01*
Y3479603D01*
X5439604D01*
Y3379603D02*
Y3354203D01*
X5490404D01*
Y3379603D01*
X5515804D01*
Y3430403D01*
X5490404D01*
Y3455803D01*
X5439604D01*
Y3430403D01*
X5414204D01*
Y3379603D01*
X5439604D01*
Y3279603D02*
Y3254203D01*
X5490404D01*
Y3279603D01*
X5515804D01*
Y3330403D01*
X5490404D01*
Y3355803D01*
X5439604D01*
Y3330403D01*
X5414204D01*
Y3279603D01*
X5439604D01*
X5339604Y3479603D02*
Y3454203D01*
X5390404D01*
Y3479603D01*
X5415804D01*
Y3530403D01*
X5390404D01*
Y3555803D01*
X5339604D01*
Y3530403D01*
X5314204D01*
Y3479603D01*
X5339604D01*
Y3379603D02*
Y3354203D01*
X5390404D01*
Y3379603D01*
X5415804D01*
Y3430403D01*
X5390404D01*
Y3455803D01*
X5339604D01*
Y3430403D01*
X5314204D01*
Y3379603D01*
X5339604D01*
Y3279603D02*
Y3254203D01*
X5390404D01*
Y3279603D01*
X5415804D01*
Y3330403D01*
X5390404D01*
Y3355803D01*
X5339604D01*
Y3330403D01*
X5314204D01*
Y3279603D01*
X5339604D01*
X5239604Y3479603D02*
Y3454203D01*
X5290404D01*
Y3479603D01*
X5315804D01*
Y3530403D01*
X5290404D01*
Y3555803D01*
X5239604D01*
Y3530403D01*
X5214204D01*
Y3479603D01*
X5239604D01*
Y3379603D02*
Y3354203D01*
X5290404D01*
Y3379603D01*
X5315804D01*
Y3430403D01*
X5290404D01*
Y3455803D01*
X5239604D01*
Y3430403D01*
X5214204D01*
Y3379603D01*
X5239604D01*
Y3279603D02*
Y3254203D01*
X5290404D01*
Y3279603D01*
X5315804D01*
Y3330403D01*
X5290404D01*
Y3355803D01*
X5239604D01*
Y3330403D01*
X5214204D01*
Y3279603D01*
X5239604D01*
X5589585Y1269594D02*
Y1244194D01*
X5640385D01*
Y1269594D01*
X5665785D01*
Y1320394D01*
X5640385D01*
Y1345794D01*
X5589585D01*
Y1320394D01*
X5564185D01*
Y1269594D01*
X5589585D01*
Y1149594D02*
Y1124194D01*
X5640385D01*
Y1149594D01*
X5665785D01*
Y1200394D01*
X5640385D01*
Y1225794D01*
X5589585D01*
Y1200394D01*
X5564185D01*
Y1149594D01*
X5589585D01*
X5529585Y1269594D02*
Y1244194D01*
X5580385D01*
Y1269594D01*
X5605785D01*
Y1320394D01*
X5580385D01*
Y1345794D01*
X5529585D01*
Y1320394D01*
X5504185D01*
Y1269594D01*
X5529585D01*
X5559585Y1209594D02*
Y1184194D01*
X5610385D01*
Y1209594D01*
X5635785D01*
Y1260394D01*
X5610385D01*
Y1285794D01*
X5559585D01*
Y1260394D01*
X5534185D01*
Y1209594D01*
X5559585D01*
X5529585Y1149594D02*
Y1124194D01*
X5580385D01*
Y1149594D01*
X5605785D01*
Y1200394D01*
X5580385D01*
Y1225794D01*
X5529585D01*
Y1200394D01*
X5504185D01*
Y1149594D01*
X5529585D01*
X5559585Y1089594D02*
Y1064194D01*
X5610385D01*
Y1089594D01*
X5635785D01*
Y1140394D01*
X5610385D01*
Y1165794D01*
X5559585D01*
Y1140394D01*
X5534185D01*
Y1089594D01*
X5559585D01*
X5469585Y1269594D02*
Y1244194D01*
X5520385D01*
Y1269594D01*
X5545785D01*
Y1320394D01*
X5520385D01*
Y1345794D01*
X5469585D01*
Y1320394D01*
X5444185D01*
Y1269594D01*
X5469585D01*
X5499585Y1209594D02*
Y1184194D01*
X5550385D01*
Y1209594D01*
X5575785D01*
Y1260394D01*
X5550385D01*
Y1285794D01*
X5499585D01*
Y1260394D01*
X5474185D01*
Y1209594D01*
X5499585D01*
X5469585Y1149594D02*
Y1124194D01*
X5520385D01*
Y1149594D01*
X5545785D01*
Y1200394D01*
X5520385D01*
Y1225794D01*
X5469585D01*
Y1200394D01*
X5444185D01*
Y1149594D01*
X5469585D01*
X5499585Y1089594D02*
Y1064194D01*
X5550385D01*
Y1089594D01*
X5575785D01*
Y1140394D01*
X5550385D01*
Y1165794D01*
X5499585D01*
Y1140394D01*
X5474185D01*
Y1089594D01*
X5499585D01*
X5409585Y1269594D02*
Y1244194D01*
X5460385D01*
Y1269594D01*
X5485785D01*
Y1320394D01*
X5460385D01*
Y1345794D01*
X5409585D01*
Y1320394D01*
X5384185D01*
Y1269594D01*
X5409585D01*
X5439585Y1209594D02*
Y1184194D01*
X5490385D01*
Y1209594D01*
X5515785D01*
Y1260394D01*
X5490385D01*
Y1285794D01*
X5439585D01*
Y1260394D01*
X5414185D01*
Y1209594D01*
X5439585D01*
X5409585Y1149594D02*
Y1124194D01*
X5460385D01*
Y1149594D01*
X5485785D01*
Y1200394D01*
X5460385D01*
Y1225794D01*
X5409585D01*
Y1200394D01*
X5384185D01*
Y1149594D01*
X5409585D01*
X5439585Y1089594D02*
Y1064194D01*
X5490385D01*
Y1089594D01*
X5515785D01*
Y1140394D01*
X5490385D01*
Y1165794D01*
X5439585D01*
Y1140394D01*
X5414185D01*
Y1089594D01*
X5439585D01*
X7809580Y4509587D02*
Y4484187D01*
X7860380D01*
Y4509587D01*
X7885780D01*
Y4560387D01*
X7860380D01*
Y4585787D01*
X7809580D01*
Y4560387D01*
X7784180D01*
Y4509587D01*
X7809580D01*
X7839580Y4449587D02*
Y4424187D01*
X7890380D01*
Y4449587D01*
X7915780D01*
Y4500387D01*
X7890380D01*
Y4525787D01*
X7839580D01*
Y4500387D01*
X7814180D01*
Y4449587D01*
X7839580D01*
X7809580Y4389588D02*
Y4364188D01*
X7860380D01*
Y4389588D01*
X7885780D01*
Y4440388D01*
X7860380D01*
Y4465788D01*
X7809580D01*
Y4440388D01*
X7784180D01*
Y4389588D01*
X7809580D01*
X7839580Y4329588D02*
Y4304188D01*
X7890380D01*
Y4329588D01*
X7915780D01*
Y4380388D01*
X7890380D01*
Y4405788D01*
X7839580D01*
Y4380388D01*
X7814180D01*
Y4329588D01*
X7839580D01*
X7749580Y4509587D02*
Y4484187D01*
X7800380D01*
Y4509587D01*
X7825780D01*
Y4560387D01*
X7800380D01*
Y4585787D01*
X7749580D01*
Y4560387D01*
X7724180D01*
Y4509587D01*
X7749580D01*
X7779580Y4449587D02*
Y4424187D01*
X7830380D01*
Y4449587D01*
X7855780D01*
Y4500387D01*
X7830380D01*
Y4525787D01*
X7779580D01*
Y4500387D01*
X7754180D01*
Y4449587D01*
X7779580D01*
X7749580Y4389588D02*
Y4364188D01*
X7800380D01*
Y4389588D01*
X7825780D01*
Y4440388D01*
X7800380D01*
Y4465788D01*
X7749580D01*
Y4440388D01*
X7724180D01*
Y4389588D01*
X7749580D01*
X7779580Y4329588D02*
Y4304188D01*
X7830380D01*
Y4329588D01*
X7855780D01*
Y4380388D01*
X7830380D01*
Y4405788D01*
X7779580D01*
Y4380388D01*
X7754180D01*
Y4329588D01*
X7779580D01*
X7689581Y4509587D02*
Y4484187D01*
X7740381D01*
Y4509587D01*
X7765781D01*
Y4560387D01*
X7740381D01*
Y4585787D01*
X7689581D01*
Y4560387D01*
X7664181D01*
Y4509587D01*
X7689581D01*
X7719580Y4449587D02*
Y4424187D01*
X7770380D01*
Y4449587D01*
X7795780D01*
Y4500387D01*
X7770380D01*
Y4525787D01*
X7719580D01*
Y4500387D01*
X7694180D01*
Y4449587D01*
X7719580D01*
X7689581Y4389588D02*
Y4364188D01*
X7740381D01*
Y4389588D01*
X7765781D01*
Y4440388D01*
X7740381D01*
Y4465788D01*
X7689581D01*
Y4440388D01*
X7664181D01*
Y4389588D01*
X7689581D01*
X7719580Y4329588D02*
Y4304188D01*
X7770380D01*
Y4329588D01*
X7795780D01*
Y4380388D01*
X7770380D01*
Y4405788D01*
X7719580D01*
Y4380388D01*
X7694180D01*
Y4329588D01*
X7719580D01*
X6729582Y4509587D02*
Y4484187D01*
X6780382D01*
Y4509587D01*
X6805782D01*
Y4560387D01*
X6780382D01*
Y4585787D01*
X6729582D01*
Y4560387D01*
X6704182D01*
Y4509587D01*
X6729582D01*
Y4389588D02*
Y4364188D01*
X6780382D01*
Y4389588D01*
X6805782D01*
Y4440388D01*
X6780382D01*
Y4465788D01*
X6729582D01*
Y4440388D01*
X6704182D01*
Y4389588D01*
X6729582D01*
X6669583Y4509587D02*
Y4484187D01*
X6720383D01*
Y4509587D01*
X6745783D01*
Y4560387D01*
X6720383D01*
Y4585787D01*
X6669583D01*
Y4560387D01*
X6644183D01*
Y4509587D01*
X6669583D01*
X6699582Y4449587D02*
Y4424187D01*
X6750382D01*
Y4449587D01*
X6775782D01*
Y4500387D01*
X6750382D01*
Y4525787D01*
X6699582D01*
Y4500387D01*
X6674182D01*
Y4449587D01*
X6699582D01*
X6669583Y4389588D02*
Y4364188D01*
X6720383D01*
Y4389588D01*
X6745783D01*
Y4440388D01*
X6720383D01*
Y4465788D01*
X6669583D01*
Y4440388D01*
X6644183D01*
Y4389588D01*
X6669583D01*
X6699582Y4329588D02*
Y4304188D01*
X6750382D01*
Y4329588D01*
X6775782D01*
Y4380388D01*
X6750382D01*
Y4405788D01*
X6699582D01*
Y4380388D01*
X6674182D01*
Y4329588D01*
X6699582D01*
X6609583Y4509587D02*
Y4484187D01*
X6660383D01*
Y4509587D01*
X6685783D01*
Y4560387D01*
X6660383D01*
Y4585787D01*
X6609583D01*
Y4560387D01*
X6584183D01*
Y4509587D01*
X6609583D01*
X6639583Y4449587D02*
Y4424187D01*
X6690383D01*
Y4449587D01*
X6715783D01*
Y4500387D01*
X6690383D01*
Y4525787D01*
X6639583D01*
Y4500387D01*
X6614183D01*
Y4449587D01*
X6639583D01*
X6609583Y4389588D02*
Y4364188D01*
X6660383D01*
Y4389588D01*
X6685783D01*
Y4440388D01*
X6660383D01*
Y4465788D01*
X6609583D01*
Y4440388D01*
X6584183D01*
Y4389588D01*
X6609583D01*
X6639583Y4329588D02*
Y4304188D01*
X6690383D01*
Y4329588D01*
X6715783D01*
Y4380388D01*
X6690383D01*
Y4405788D01*
X6639583D01*
Y4380388D01*
X6614183D01*
Y4329588D01*
X6639583D01*
X4964084Y1305103D02*
Y1279703D01*
X5014884D01*
Y1305103D01*
X5040284D01*
Y1355903D01*
X5014884D01*
Y1381303D01*
X4964084D01*
Y1355903D01*
X4938684D01*
Y1305103D01*
X4964084D01*
X5744600Y1544600D02*
Y1519200D01*
X5795400D01*
Y1544600D01*
X5820800D01*
Y1595400D01*
X5795400D01*
Y1620800D01*
X5744600D01*
Y1595400D01*
X5719200D01*
Y1544600D01*
X5744600D01*
X5604600Y1564600D02*
Y1539200D01*
X5655400D01*
Y1564600D01*
X5680800D01*
Y1615400D01*
X5655400D01*
Y1640800D01*
X5604600D01*
Y1615400D01*
X5579200D01*
Y1564600D01*
X5604600D01*
X5264600Y1634600D02*
Y1609200D01*
X5315400D01*
Y1634600D01*
X5340800D01*
Y1685400D01*
X5315400D01*
Y1710800D01*
X5264600D01*
Y1685400D01*
X5239200D01*
Y1634600D01*
X5264600D01*
X5154600Y1604600D02*
Y1579200D01*
X5205400D01*
Y1604600D01*
X5230800D01*
Y1655400D01*
X5205400D01*
Y1680800D01*
X5154600D01*
Y1655400D01*
X5129200D01*
Y1604600D01*
X5154600D01*
X5434600Y2754600D02*
Y2729200D01*
X5485400D01*
Y2754600D01*
X5510800D01*
Y2805400D01*
X5485400D01*
Y2830800D01*
X5434600D01*
Y2805400D01*
X5409200D01*
Y2754600D01*
X5434600D01*
X5524600Y2844600D02*
Y2819200D01*
X5575400D01*
Y2844600D01*
X5600800D01*
Y2895400D01*
X5575400D01*
Y2920800D01*
X5524600D01*
Y2895400D01*
X5499200D01*
Y2844600D01*
X5524600D01*
X5224600Y2674600D02*
Y2649200D01*
X5275400D01*
Y2674600D01*
X5300800D01*
Y2725400D01*
X5275400D01*
Y2750800D01*
X5224600D01*
Y2725400D01*
X5199200D01*
Y2674600D01*
X5224600D01*
X4616506Y3148722D02*
Y3123322D01*
X4667306D01*
Y3148722D01*
X4692706D01*
Y3199522D01*
X4667306D01*
Y3224922D01*
X4616506D01*
Y3199522D01*
X4591106D01*
Y3148722D01*
X4616506D01*
X3874600Y294600D02*
Y269200D01*
X3925400D01*
Y294600D01*
X3950800D01*
Y345400D01*
X3925400D01*
Y370800D01*
X3874600D01*
Y345400D01*
X3849200D01*
Y294600D01*
X3874600D01*
X3554600Y964600D02*
Y939200D01*
X3605400D01*
Y964600D01*
X3630800D01*
Y1015400D01*
X3605400D01*
Y1040800D01*
X3554600D01*
Y1015400D01*
X3529200D01*
Y964600D01*
X3554600D01*
X1144600Y1154600D02*
Y1129200D01*
X1195400D01*
Y1154600D01*
X1220800D01*
Y1205400D01*
X1195400D01*
Y1230800D01*
X1144600D01*
Y1205400D01*
X1119200D01*
Y1154600D01*
X1144600D01*
X2044600Y2224600D02*
Y2199200D01*
X2095400D01*
Y2224600D01*
X2120800D01*
Y2275400D01*
X2095400D01*
Y2300800D01*
X2044600D01*
Y2275400D01*
X2019200D01*
Y2224600D01*
X2044600D01*
X6174600Y444600D02*
Y419200D01*
X6225400D01*
Y444600D01*
X6250800D01*
Y495400D01*
X6225400D01*
Y520800D01*
X6174600D01*
Y495400D01*
X6149200D01*
Y444600D01*
X6174600D01*
X5629200Y4330000D02*
X5680000Y4380800D01*
X5730800Y4330000D01*
X5680000Y4279200D01*
X5629200Y4330000D01*
X5539200D02*
X5590000Y4380800D01*
X5640800Y4330000D01*
X5590000Y4279200D01*
X5539200Y4330000D01*
X7624600Y374600D02*
Y349200D01*
X7675400D01*
Y374600D01*
X7700800D01*
Y425400D01*
X7675400D01*
Y450800D01*
X7624600D01*
Y425400D01*
X7599200D01*
Y374600D01*
X7624600D01*
X2934600Y2544600D02*
Y2519200D01*
X2985400D01*
Y2544600D01*
X3010800D01*
Y2595400D01*
X2985400D01*
Y2620800D01*
X2934600D01*
Y2595400D01*
X2909200D01*
Y2544600D01*
X2934600D01*
X3247300Y2487300D02*
Y2461900D01*
X3298100D01*
Y2487300D01*
X3323500D01*
Y2538100D01*
X3298100D01*
Y2563500D01*
X3247300D01*
Y2538100D01*
X3221900D01*
Y2487300D01*
X3247300D01*
X3444600Y2375651D02*
Y2350251D01*
X3495400D01*
Y2375651D01*
X3520800D01*
Y2426451D01*
X3495400D01*
Y2451851D01*
X3444600D01*
Y2426451D01*
X3419200D01*
Y2375651D01*
X3444600D01*
X5605051Y3812300D02*
Y3786900D01*
X5655851D01*
Y3812300D01*
X5681251D01*
Y3863100D01*
X5655851D01*
Y3888500D01*
X5605051D01*
Y3863100D01*
X5579651D01*
Y3812300D01*
X5605051D01*
X5774588Y3224593D02*
Y3199193D01*
X5825388D01*
Y3224593D01*
X5850788D01*
Y3275393D01*
X5825388D01*
Y3300793D01*
X5774588D01*
Y3275393D01*
X5749188D01*
Y3224593D01*
X5774588D01*
X5704600Y3724600D02*
Y3699200D01*
X5755400D01*
Y3724600D01*
X5780800D01*
Y3775400D01*
X5755400D01*
Y3800800D01*
X5704600D01*
Y3775400D01*
X5679200D01*
Y3724600D01*
X5704600D01*
X5749086Y3553550D02*
Y3528150D01*
X5799886D01*
Y3553550D01*
X5825286D01*
Y3604350D01*
X5799886D01*
Y3629750D01*
X5749086D01*
Y3604350D01*
X5723686D01*
Y3553550D01*
X5749086D01*
X5023287Y3845913D02*
Y3820513D01*
X5074087D01*
Y3845913D01*
X5099487D01*
Y3896713D01*
X5074087D01*
Y3922113D01*
X5023287D01*
Y3896713D01*
X4997887D01*
Y3845913D01*
X5023287D01*
X5122300Y3836950D02*
Y3811550D01*
X5173100D01*
Y3836950D01*
X5198500D01*
Y3887750D01*
X5173100D01*
Y3913150D01*
X5122300D01*
Y3887750D01*
X5096900D01*
Y3836950D01*
X5122300D01*
X4881550Y3614600D02*
Y3589200D01*
X4932350D01*
Y3614600D01*
X4957750D01*
Y3665400D01*
X4932350D01*
Y3690800D01*
X4881550D01*
Y3665400D01*
X4856150D01*
Y3614600D01*
X4881550D01*
X5384950Y3812300D02*
Y3786900D01*
X5435750D01*
Y3812300D01*
X5461150D01*
Y3863100D01*
X5435750D01*
Y3888500D01*
X5384950D01*
Y3863100D01*
X5359550D01*
Y3812300D01*
X5384950D01*
X5232300D02*
Y3786900D01*
X5283100D01*
Y3812300D01*
X5308500D01*
Y3863100D01*
X5283100D01*
Y3888500D01*
X5232300D01*
Y3863100D01*
X5206900D01*
Y3812300D01*
X5232300D01*
X5182300Y3892300D02*
Y3866900D01*
X5233100D01*
Y3892300D01*
X5258500D01*
Y3943100D01*
X5233100D01*
Y3968500D01*
X5182300D01*
Y3943100D01*
X5156900D01*
Y3892300D01*
X5182300D01*
X5174600Y944600D02*
Y919200D01*
X5225400D01*
Y944600D01*
X5250800D01*
Y995400D01*
X5225400D01*
Y1020800D01*
X5174600D01*
Y995400D01*
X5149200D01*
Y944600D01*
X5174600D01*
X4952300Y1018050D02*
Y992650D01*
X5003100D01*
Y1018050D01*
X5028500D01*
Y1068850D01*
X5003100D01*
Y1094250D01*
X4952300D01*
Y1068850D01*
X4926900D01*
Y1018050D01*
X4952300D01*
X5734600Y874600D02*
Y849200D01*
X5785400D01*
Y874600D01*
X5810800D01*
Y925400D01*
X5785400D01*
Y950800D01*
X5734600D01*
Y925400D01*
X5709200D01*
Y874600D01*
X5734600D01*
X6074600Y2164600D02*
Y2139200D01*
X6125400D01*
Y2164600D01*
X6150800D01*
Y2215400D01*
X6125400D01*
Y2240800D01*
X6074600D01*
Y2215400D01*
X6049200D01*
Y2164600D01*
X6074600D01*
X7924600Y3064600D02*
Y3039200D01*
X7975400D01*
Y3064600D01*
X8000800D01*
Y3115400D01*
X7975400D01*
Y3140800D01*
X7924600D01*
Y3115400D01*
X7899200D01*
Y3064600D01*
X7924600D01*
X4364600Y1284600D02*
Y1259200D01*
X4415400D01*
Y1284600D01*
X4440800D01*
Y1335400D01*
X4415400D01*
Y1360800D01*
X4364600D01*
Y1335400D01*
X4339200D01*
Y1284600D01*
X4364600D01*
X4354600Y1354600D02*
Y1329200D01*
X4405400D01*
Y1354600D01*
X4430800D01*
Y1405400D01*
X4405400D01*
Y1430800D01*
X4354600D01*
Y1405400D01*
X4329200D01*
Y1354600D01*
X4354600D01*
X4394600Y1054600D02*
Y1029200D01*
X4445400D01*
Y1054600D01*
X4470800D01*
Y1105400D01*
X4445400D01*
Y1130800D01*
X4394600D01*
Y1105400D01*
X4369200D01*
Y1054600D01*
X4394600D01*
X2914600Y887900D02*
Y862500D01*
X2965400D01*
Y887900D01*
X2990800D01*
Y938700D01*
X2965400D01*
Y964100D01*
X2914600D01*
Y938700D01*
X2889200D01*
Y887900D01*
X2914600D01*
X2874600Y1094600D02*
Y1069200D01*
X2925400D01*
Y1094600D01*
X2950800D01*
Y1145400D01*
X2925400D01*
Y1170800D01*
X2874600D01*
Y1145400D01*
X2849200D01*
Y1094600D01*
X2874600D01*
X5234600Y1794600D02*
Y1769200D01*
X5285400D01*
Y1794600D01*
X5310800D01*
Y1845400D01*
X5285400D01*
Y1870800D01*
X5234600D01*
Y1845400D01*
X5209200D01*
Y1794600D01*
X5234600D01*
X4864600Y2494600D02*
Y2469200D01*
X4915400D01*
Y2494600D01*
X4940800D01*
Y2545400D01*
X4915400D01*
Y2570800D01*
X4864600D01*
Y2545400D01*
X4839200D01*
Y2494600D01*
X4864600D01*
X5334600Y2004600D02*
Y1979200D01*
X5385400D01*
Y2004600D01*
X5410800D01*
Y2055400D01*
X5385400D01*
Y2080800D01*
X5334600D01*
Y2055400D01*
X5309200D01*
Y2004600D01*
X5334600D01*
Y2094600D02*
Y2069200D01*
X5385400D01*
Y2094600D01*
X5410800D01*
Y2145400D01*
X5385400D01*
Y2170800D01*
X5334600D01*
Y2145400D01*
X5309200D01*
Y2094600D01*
X5334600D01*
X4974600Y1904600D02*
Y1879200D01*
X5025400D01*
Y1904600D01*
X5050800D01*
Y1955400D01*
X5025400D01*
Y1980800D01*
X4974600D01*
Y1955400D01*
X4949200D01*
Y1904600D01*
X4974600D01*
X3864600Y1364600D02*
Y1339200D01*
X3915400D01*
Y1364600D01*
X3940800D01*
Y1415400D01*
X3915400D01*
Y1440800D01*
X3864600D01*
Y1415400D01*
X3839200D01*
Y1364600D01*
X3864600D01*
X3804600D02*
Y1339200D01*
X3855400D01*
Y1364600D01*
X3880800D01*
Y1415400D01*
X3855400D01*
Y1440800D01*
X3804600D01*
Y1415400D01*
X3779200D01*
Y1364600D01*
X3804600D01*
X3734600D02*
Y1339200D01*
X3785400D01*
Y1364600D01*
X3810800D01*
Y1415400D01*
X3785400D01*
Y1440800D01*
X3734600D01*
Y1415400D01*
X3709200D01*
Y1364600D01*
X3734600D01*
X3634600Y1634600D02*
Y1609200D01*
X3685400D01*
Y1634600D01*
X3710800D01*
Y1685400D01*
X3685400D01*
Y1710800D01*
X3634600D01*
Y1685400D01*
X3609200D01*
Y1634600D01*
X3634600D01*
X4344600Y3434600D02*
Y3409200D01*
X4395400D01*
Y3434600D01*
X4420800D01*
Y3485400D01*
X4395400D01*
Y3510800D01*
X4344600D01*
Y3485400D01*
X4319200D01*
Y3434600D01*
X4344600D01*
X4274600Y3664600D02*
Y3639200D01*
X4325400D01*
Y3664600D01*
X4350800D01*
Y3715400D01*
X4325400D01*
Y3740800D01*
X4274600D01*
Y3715400D01*
X4249200D01*
Y3664600D01*
X4274600D01*
X3644600Y3164600D02*
Y3139200D01*
X3695400D01*
Y3164600D01*
X3720800D01*
Y3215400D01*
X3695400D01*
Y3240800D01*
X3644600D01*
Y3215400D01*
X3619200D01*
Y3164600D01*
X3644600D01*
X3014600Y1394600D02*
Y1369200D01*
X3065400D01*
Y1394600D01*
X3090800D01*
Y1445400D01*
X3065400D01*
Y1470800D01*
X3014600D01*
Y1445400D01*
X2989200D01*
Y1394600D01*
X3014600D01*
X2514600Y1644600D02*
Y1619200D01*
X2565400D01*
Y1644600D01*
X2590800D01*
Y1695400D01*
X2565400D01*
Y1720800D01*
X2514600D01*
Y1695400D01*
X2489200D01*
Y1644600D01*
X2514600D01*
X2547300Y1712300D02*
Y1686900D01*
X2598100D01*
Y1712300D01*
X2623500D01*
Y1763100D01*
X2598100D01*
Y1788500D01*
X2547300D01*
Y1763100D01*
X2521900D01*
Y1712300D01*
X2547300D01*
X2874600Y2464600D02*
Y2439200D01*
X2925400D01*
Y2464600D01*
X2950800D01*
Y2515400D01*
X2925400D01*
Y2540800D01*
X2874600D01*
Y2515400D01*
X2849200D01*
Y2464600D01*
X2874600D01*
X7922561Y659800D02*
Y634400D01*
X7973361D01*
Y659800D01*
X7998761D01*
Y710600D01*
X7973361D01*
Y736000D01*
X7922561D01*
Y710600D01*
X7897161D01*
Y659800D01*
X7922561D01*
X2475005Y3665213D02*
Y3639813D01*
X2525805D01*
Y3665213D01*
X2551205D01*
Y3716013D01*
X2525805D01*
Y3741413D01*
X2475005D01*
Y3716013D01*
X2449605D01*
Y3665213D01*
X2475005D01*
X2014600Y3984600D02*
Y3959200D01*
X2065400D01*
Y3984600D01*
X2090800D01*
Y4035400D01*
X2065400D01*
Y4060800D01*
X2014600D01*
Y4035400D01*
X1989200D01*
Y3984600D01*
X2014600D01*
X2314600D02*
Y3959200D01*
X2365400D01*
Y3984600D01*
X2390800D01*
Y4035400D01*
X2365400D01*
Y4060800D01*
X2314600D01*
Y4035400D01*
X2289200D01*
Y3984600D01*
X2314600D01*
X2614600D02*
Y3959200D01*
X2665400D01*
Y3984600D01*
X2690800D01*
Y4035400D01*
X2665400D01*
Y4060800D01*
X2614600D01*
Y4035400D01*
X2589200D01*
Y3984600D01*
X2614600D01*
X3504600D02*
Y3959200D01*
X3555400D01*
Y3984600D01*
X3580800D01*
Y4035400D01*
X3555400D01*
Y4060800D01*
X3504600D01*
Y4035400D01*
X3479200D01*
Y3984600D01*
X3504600D01*
X3804600D02*
Y3959200D01*
X3855400D01*
Y3984600D01*
X3880800D01*
Y4035400D01*
X3855400D01*
Y4060800D01*
X3804600D01*
Y4035400D01*
X3779200D01*
Y3984600D01*
X3804600D01*
X4104600D02*
Y3959200D01*
X4155400D01*
Y3984600D01*
X4180800D01*
Y4035400D01*
X4155400D01*
Y4060800D01*
X4104600D01*
Y4035400D01*
X4079200D01*
Y3984600D01*
X4104600D01*
X994600Y1454600D02*
Y1429200D01*
X1045400D01*
Y1454600D01*
X1070800D01*
Y1505400D01*
X1045400D01*
Y1530800D01*
X994600D01*
Y1505400D01*
X969200D01*
Y1454600D01*
X994600D01*
X874600Y1204600D02*
Y1179200D01*
X925400D01*
Y1204600D01*
X950800D01*
Y1255400D01*
X925400D01*
Y1280800D01*
X874600D01*
Y1255400D01*
X849200D01*
Y1204600D01*
X874600D01*
X1704600Y1034600D02*
Y1009200D01*
X1755400D01*
Y1034600D01*
X1780800D01*
Y1085400D01*
X1755400D01*
Y1110800D01*
X1704600D01*
Y1085400D01*
X1679200D01*
Y1034600D01*
X1704600D01*
X4464600Y844600D02*
Y819200D01*
X4515400D01*
Y844600D01*
X4540800D01*
Y895400D01*
X4515400D01*
Y920800D01*
X4464600D01*
Y895400D01*
X4439200D01*
Y844600D01*
X4464600D01*
X4644600Y1434600D02*
Y1409200D01*
X4695400D01*
Y1434600D01*
X4720800D01*
Y1485400D01*
X4695400D01*
Y1510800D01*
X4644600D01*
Y1485400D01*
X4619200D01*
Y1434600D01*
X4644600D01*
X4554600D02*
Y1409200D01*
X4605400D01*
Y1434600D01*
X4630800D01*
Y1485400D01*
X4605400D01*
Y1510800D01*
X4554600D01*
Y1485400D01*
X4529200D01*
Y1434600D01*
X4554600D01*
X4974600Y2064600D02*
Y2039200D01*
X5025400D01*
Y2064600D01*
X5050800D01*
Y2115400D01*
X5025400D01*
Y2140800D01*
X4974600D01*
Y2115400D01*
X4949200D01*
Y2064600D01*
X4974600D01*
X2914600Y684600D02*
Y659200D01*
X2965400D01*
Y684600D01*
X2990800D01*
Y735400D01*
X2965400D01*
Y760800D01*
X2914600D01*
Y735400D01*
X2889200D01*
Y684600D01*
X2914600D01*
X3414600Y914600D02*
Y889200D01*
X3465400D01*
Y914600D01*
X3490800D01*
Y965400D01*
X3465400D01*
Y990800D01*
X3414600D01*
Y965400D01*
X3389200D01*
Y914600D01*
X3414600D01*
X5334600Y3974600D02*
Y3949200D01*
X5385400D01*
Y3974600D01*
X5410800D01*
Y4025400D01*
X5385400D01*
Y4050800D01*
X5334600D01*
Y4025400D01*
X5309200D01*
Y3974600D01*
X5334600D01*
X3214600Y3334600D02*
Y3309200D01*
X3265400D01*
Y3334600D01*
X3290800D01*
Y3385400D01*
X3265400D01*
Y3410800D01*
X3214600D01*
Y3385400D01*
X3189200D01*
Y3334600D01*
X3214600D01*
X3324600D02*
Y3309200D01*
X3375400D01*
Y3334600D01*
X3400800D01*
Y3385400D01*
X3375400D01*
Y3410800D01*
X3324600D01*
Y3385400D01*
X3299200D01*
Y3334600D01*
X3324600D01*
X3424600Y3454600D02*
Y3429200D01*
X3475400D01*
Y3454600D01*
X3500800D01*
Y3505400D01*
X3475400D01*
Y3530800D01*
X3424600D01*
Y3505400D01*
X3399200D01*
Y3454600D01*
X3424600D01*
X3434270Y3722569D02*
Y3697169D01*
X3485070D01*
Y3722569D01*
X3510470D01*
Y3773369D01*
X3485070D01*
Y3798769D01*
X3434270D01*
Y3773369D01*
X3408870D01*
Y3722569D01*
X3434270D01*
X3364007Y3540830D02*
Y3515430D01*
X3414807D01*
Y3540830D01*
X3440207D01*
Y3591630D01*
X3414807D01*
Y3617030D01*
X3364007D01*
Y3591630D01*
X3338607D01*
Y3540830D01*
X3364007D01*
X3094600Y4104600D02*
Y4079200D01*
X3145400D01*
Y4104600D01*
X3170800D01*
Y4155400D01*
X3145400D01*
Y4180800D01*
X3094600D01*
Y4155400D01*
X3069200D01*
Y4104600D01*
X3094600D01*
X2974600Y4074600D02*
Y4049200D01*
X3025400D01*
Y4074600D01*
X3050800D01*
Y4125400D01*
X3025400D01*
Y4150800D01*
X2974600D01*
Y4125400D01*
X2949200D01*
Y4074600D01*
X2974600D01*
X2664600Y3834600D02*
Y3809200D01*
X2715400D01*
Y3834600D01*
X2740800D01*
Y3885400D01*
X2715400D01*
Y3910800D01*
X2664600D01*
Y3885400D01*
X2639200D01*
Y3834600D01*
X2664600D01*
X2354600D02*
Y3809200D01*
X2405400D01*
Y3834600D01*
X2430800D01*
Y3885400D01*
X2405400D01*
Y3910800D01*
X2354600D01*
Y3885400D01*
X2329200D01*
Y3834600D01*
X2354600D01*
X2034600D02*
Y3809200D01*
X2085400D01*
Y3834600D01*
X2110800D01*
Y3885400D01*
X2085400D01*
Y3910800D01*
X2034600D01*
Y3885400D01*
X2009200D01*
Y3834600D01*
X2034600D01*
X3244600Y4124600D02*
Y4099200D01*
X3295400D01*
Y4124600D01*
X3320800D01*
Y4175400D01*
X3295400D01*
Y4200800D01*
X3244600D01*
Y4175400D01*
X3219200D01*
Y4124600D01*
X3244600D01*
X3674593Y3414594D02*
Y3389194D01*
X3725393D01*
Y3414594D01*
X3750793D01*
Y3465394D01*
X3725393D01*
Y3490794D01*
X3674593D01*
Y3465394D01*
X3649193D01*
Y3414594D01*
X3674593D01*
X3904600Y3464600D02*
Y3439200D01*
X3955400D01*
Y3464600D01*
X3980800D01*
Y3515400D01*
X3955400D01*
Y3540800D01*
X3904600D01*
Y3515400D01*
X3879200D01*
Y3464600D01*
X3904600D01*
X4224591Y3364400D02*
Y3339000D01*
X4275391D01*
Y3364400D01*
X4300791D01*
Y3415200D01*
X4275391D01*
Y3440600D01*
X4224591D01*
Y3415200D01*
X4199191D01*
Y3364400D01*
X4224591D01*
X3554593Y3834593D02*
Y3809193D01*
X3605393D01*
Y3834593D01*
X3630793D01*
Y3885393D01*
X3605393D01*
Y3910793D01*
X3554593D01*
Y3885393D01*
X3529193D01*
Y3834593D01*
X3554593D01*
X3854592D02*
Y3809193D01*
X3905392D01*
Y3834593D01*
X3930792D01*
Y3885393D01*
X3905392D01*
Y3910793D01*
X3854592D01*
Y3885393D01*
X3829192D01*
Y3834593D01*
X3854592D01*
X4374600Y3354600D02*
Y3329200D01*
X4425400D01*
Y3354600D01*
X4450800D01*
Y3405400D01*
X4425400D01*
Y3430800D01*
X4374600D01*
Y3405400D01*
X4349200D01*
Y3354600D01*
X4374600D01*
X4437970Y3227501D02*
Y3202101D01*
X4488770D01*
Y3227501D01*
X4514170D01*
Y3278301D01*
X4488770D01*
Y3303701D01*
X4437970D01*
Y3278301D01*
X4412570D01*
Y3227501D01*
X4437970D01*
X4504600Y3334600D02*
Y3309200D01*
X4555400D01*
Y3334600D01*
X4580800D01*
Y3385400D01*
X4555400D01*
Y3410800D01*
X4504600D01*
Y3385400D01*
X4479200D01*
Y3334600D01*
X4504600D01*
X4754600Y3560198D02*
Y3534798D01*
X4805400D01*
Y3560198D01*
X4830800D01*
Y3610998D01*
X4805400D01*
Y3636398D01*
X4754600D01*
Y3610998D01*
X4729200D01*
Y3560198D01*
X4754600D01*
X4734600Y3804600D02*
Y3779200D01*
X4785400D01*
Y3804600D01*
X4810800D01*
Y3855400D01*
X4785400D01*
Y3880800D01*
X4734600D01*
Y3855400D01*
X4709200D01*
Y3804600D01*
X4734600D01*
X5114600Y3994600D02*
Y3969200D01*
X5165400D01*
Y3994600D01*
X5190800D01*
Y4045400D01*
X5165400D01*
Y4070800D01*
X5114600D01*
Y4045400D01*
X5089200D01*
Y3994600D01*
X5114600D01*
X5004600Y4024600D02*
Y3999200D01*
X5055400D01*
Y4024600D01*
X5080800D01*
Y4075400D01*
X5055400D01*
Y4100800D01*
X5004600D01*
Y4075400D01*
X4979200D01*
Y4024600D01*
X5004600D01*
X4749680Y1474920D02*
Y1449520D01*
X4800480D01*
Y1474920D01*
X4825880D01*
Y1525720D01*
X4800480D01*
Y1551120D01*
X4749680D01*
Y1525720D01*
X4724280D01*
Y1474920D01*
X4749680D01*
X4736900Y1612941D02*
Y1587541D01*
X4787700D01*
Y1612941D01*
X4813100D01*
Y1663741D01*
X4787700D01*
Y1689141D01*
X4736900D01*
Y1663741D01*
X4711500D01*
Y1612941D01*
X4736900D01*
X4652300Y1672300D02*
Y1646900D01*
X4703100D01*
Y1672300D01*
X4728500D01*
Y1723100D01*
X4703100D01*
Y1748500D01*
X4652300D01*
Y1723100D01*
X4626900D01*
Y1672300D01*
X4652300D01*
X4702300Y1808947D02*
Y1783547D01*
X4753100D01*
Y1808947D01*
X4778500D01*
Y1859747D01*
X4753100D01*
Y1885147D01*
X4702300D01*
Y1859747D01*
X4676900D01*
Y1808947D01*
X4702300D01*
X3454600Y2644600D02*
Y2619200D01*
X3505400D01*
Y2644600D01*
X3530800D01*
Y2695400D01*
X3505400D01*
Y2720800D01*
X3454600D01*
Y2695400D01*
X3429200D01*
Y2644600D01*
X3454600D01*
X3344600Y2724600D02*
Y2699200D01*
X3395400D01*
Y2724600D01*
X3420800D01*
Y2775400D01*
X3395400D01*
Y2800800D01*
X3344600D01*
Y2775400D01*
X3319200D01*
Y2724600D01*
X3344600D01*
X3574600Y2704600D02*
Y2679200D01*
X3625400D01*
Y2704600D01*
X3650800D01*
Y2755400D01*
X3625400D01*
Y2780800D01*
X3574600D01*
Y2755400D01*
X3549200D01*
Y2704600D01*
X3574600D01*
X3314600Y3004600D02*
Y2979200D01*
X3365400D01*
Y3004600D01*
X3390800D01*
Y3055400D01*
X3365400D01*
Y3080800D01*
X3314600D01*
Y3055400D01*
X3289200D01*
Y3004600D01*
X3314600D01*
X3184600Y2694600D02*
Y2669200D01*
X3235400D01*
Y2694600D01*
X3260800D01*
Y2745400D01*
X3235400D01*
Y2770800D01*
X3184600D01*
Y2745400D01*
X3159200D01*
Y2694600D01*
X3184600D01*
X1274600Y1654600D02*
Y1629200D01*
X1325400D01*
Y1654600D01*
X1350800D01*
Y1705400D01*
X1325400D01*
Y1730800D01*
X1274600D01*
Y1705400D01*
X1249200D01*
Y1654600D01*
X1274600D01*
X1264600Y1474600D02*
Y1449200D01*
X1315400D01*
Y1474600D01*
X1340800D01*
Y1525400D01*
X1315400D01*
Y1550800D01*
X1264600D01*
Y1525400D01*
X1239200D01*
Y1474600D01*
X1264600D01*
X1364600Y1264600D02*
Y1239200D01*
X1415400D01*
Y1264600D01*
X1440800D01*
Y1315400D01*
X1415400D01*
Y1340800D01*
X1364600D01*
Y1315400D01*
X1339200D01*
Y1264600D01*
X1364600D01*
X1664600Y1616500D02*
Y1591100D01*
X1715400D01*
Y1616500D01*
X1740800D01*
Y1667300D01*
X1715400D01*
Y1692700D01*
X1664600D01*
Y1667300D01*
X1639200D01*
Y1616500D01*
X1664600D01*
X2574600Y2454600D02*
Y2429200D01*
X2625400D01*
Y2454600D01*
X2650800D01*
Y2505400D01*
X2625400D01*
Y2530800D01*
X2574600D01*
Y2505400D01*
X2549200D01*
Y2454600D01*
X2574600D01*
X2535201Y2512942D02*
Y2487542D01*
X2586001D01*
Y2512942D01*
X2611401D01*
Y2563742D01*
X2586001D01*
Y2589142D01*
X2535201D01*
Y2563742D01*
X2509801D01*
Y2512942D01*
X2535201D01*
X3784600Y2594600D02*
Y2569200D01*
X3835400D01*
Y2594600D01*
X3860800D01*
Y2645400D01*
X3835400D01*
Y2670800D01*
X3784600D01*
Y2645400D01*
X3759200D01*
Y2594600D01*
X3784600D01*
X4294600Y2769401D02*
Y2744001D01*
X4345400D01*
Y2769401D01*
X4370800D01*
Y2820201D01*
X4345400D01*
Y2845601D01*
X4294600D01*
Y2820201D01*
X4269200D01*
Y2769401D01*
X4294600D01*
X4402300Y2712300D02*
Y2686900D01*
X4453100D01*
Y2712300D01*
X4478500D01*
Y2763100D01*
X4453100D01*
Y2788500D01*
X4402300D01*
Y2763100D01*
X4376900D01*
Y2712300D01*
X4402300D01*
X4994600Y1564600D02*
Y1539200D01*
X5045400D01*
Y1564600D01*
X5070800D01*
Y1615400D01*
X5045400D01*
Y1640800D01*
X4994600D01*
Y1615400D01*
X4969200D01*
Y1564600D01*
X4994600D01*
X4984600Y1414600D02*
Y1389200D01*
X5035400D01*
Y1414600D01*
X5060800D01*
Y1465400D01*
X5035400D01*
Y1490800D01*
X4984600D01*
Y1465400D01*
X4959200D01*
Y1414600D01*
X4984600D01*
X5924600Y1824600D02*
Y1799200D01*
X5975400D01*
Y1824600D01*
X6000800D01*
Y1875400D01*
X5975400D01*
Y1900800D01*
X5924600D01*
Y1875400D01*
X5899200D01*
Y1824600D01*
X5924600D01*
X4452300Y1442300D02*
Y1416900D01*
X4503100D01*
Y1442300D01*
X4528500D01*
Y1493100D01*
X4503100D01*
Y1518500D01*
X4452300D01*
Y1493100D01*
X4426900D01*
Y1442300D01*
X4452300D01*
X4566900Y1586701D02*
Y1561301D01*
X4617700D01*
Y1586701D01*
X4643100D01*
Y1637501D01*
X4617700D01*
Y1662901D01*
X4566900D01*
Y1637501D01*
X4541500D01*
Y1586701D01*
X4566900D01*
X5784600Y2164600D02*
Y2139200D01*
X5835400D01*
Y2164600D01*
X5860800D01*
Y2215400D01*
X5835400D01*
Y2240800D01*
X5784600D01*
Y2215400D01*
X5759200D01*
Y2164600D01*
X5784600D01*
X6034600Y3194600D02*
Y3169200D01*
X6085400D01*
Y3194600D01*
X6110800D01*
Y3245400D01*
X6085400D01*
Y3270800D01*
X6034600D01*
Y3245400D01*
X6009200D01*
Y3194600D01*
X6034600D01*
X8024600Y2914600D02*
Y2889200D01*
X8075400D01*
Y2914600D01*
X8100800D01*
Y2965400D01*
X8075400D01*
Y2990800D01*
X8024600D01*
Y2965400D01*
X7999200D01*
Y2914600D01*
X8024600D01*
X7734600Y2874600D02*
Y2849200D01*
X7785400D01*
Y2874600D01*
X7810800D01*
Y2925400D01*
X7785400D01*
Y2950800D01*
X7734600D01*
Y2925400D01*
X7709200D01*
Y2874600D01*
X7734600D01*
X8534600Y2724600D02*
Y2699200D01*
X8585400D01*
Y2724600D01*
X8610800D01*
Y2775400D01*
X8585400D01*
Y2800800D01*
X8534600D01*
Y2775400D01*
X8509200D01*
Y2724600D01*
X8534600D01*
X8284600Y3044600D02*
Y3019200D01*
X8335400D01*
Y3044600D01*
X8360800D01*
Y3095400D01*
X8335400D01*
Y3120800D01*
X8284600D01*
Y3095400D01*
X8259200D01*
Y3044600D01*
X8284600D01*
X8414600Y424600D02*
Y399200D01*
X8465400D01*
Y424600D01*
X8490800D01*
Y475400D01*
X8465400D01*
Y500800D01*
X8414600D01*
Y475400D01*
X8389200D01*
Y424600D01*
X8414600D01*
X6834600Y184600D02*
Y159200D01*
X6885400D01*
Y184600D01*
X6910800D01*
Y235400D01*
X6885400D01*
Y260800D01*
X6834600D01*
Y235400D01*
X6809200D01*
Y184600D01*
X6834600D01*
X9649200Y249200D02*
X9674600D01*
X9700000Y274600D01*
X9725400Y249200D01*
X9750800D01*
Y274600D01*
X9725400Y300000D01*
X9750800Y325400D01*
Y350800D01*
X9725400D01*
X9700000Y325400D01*
X9674600Y350800D01*
X9649200D01*
Y325400D01*
X9674600Y300000D01*
X9649200Y274600D01*
Y249200D01*
Y4449200D02*
X9674600D01*
X9700000Y4474600D01*
X9725400Y4449200D01*
X9750800D01*
Y4474600D01*
X9725400Y4500000D01*
X9750800Y4525400D01*
Y4550800D01*
X9725400D01*
X9700000Y4525400D01*
X9674600Y4550800D01*
X9649200D01*
Y4525400D01*
X9674600Y4500000D01*
X9649200Y4474600D01*
Y4449200D01*
X8424600Y2894600D02*
Y2869200D01*
X8475400D01*
Y2894600D01*
X8500800D01*
Y2945400D01*
X8475400D01*
Y2970800D01*
X8424600D01*
Y2945400D01*
X8399200D01*
Y2894600D01*
X8424600D01*
X7644600Y604600D02*
Y579200D01*
X7695400D01*
Y604600D01*
X7720800D01*
Y655400D01*
X7695400D01*
Y680800D01*
X7644600D01*
Y655400D01*
X7619200D01*
Y604600D01*
X7644600D01*
X8084600Y2604600D02*
Y2579200D01*
X8135400D01*
Y2604600D01*
X8160800D01*
Y2655400D01*
X8135400D01*
Y2680800D01*
X8084600D01*
Y2655400D01*
X8059200D01*
Y2604600D01*
X8084600D01*
X7974600D02*
Y2579200D01*
X8025400D01*
Y2604600D01*
X8050800D01*
Y2655400D01*
X8025400D01*
Y2680800D01*
X7974600D01*
Y2655400D01*
X7949200D01*
Y2604600D01*
X7974600D01*
X8084600Y2274600D02*
Y2249200D01*
X8135400D01*
Y2274600D01*
X8160800D01*
Y2325400D01*
X8135400D01*
Y2350800D01*
X8084600D01*
Y2325400D01*
X8059200D01*
Y2274600D01*
X8084600D01*
X7974600D02*
Y2249200D01*
X8025400D01*
Y2274600D01*
X8050800D01*
Y2325400D01*
X8025400D01*
Y2350800D01*
X7974600D01*
Y2325400D01*
X7949200D01*
Y2274600D01*
X7974600D01*
X7984600Y534600D02*
Y509200D01*
X8035400D01*
Y534600D01*
X8060800D01*
Y585400D01*
X8035400D01*
Y610800D01*
X7984600D01*
Y585400D01*
X7959200D01*
Y534600D01*
X7984600D01*
X8094600Y1074600D02*
Y1049200D01*
X8145400D01*
Y1074600D01*
X8170800D01*
Y1125400D01*
X8145400D01*
Y1150800D01*
X8094600D01*
Y1125400D01*
X8069200D01*
Y1074600D01*
X8094600D01*
X7984600D02*
Y1049200D01*
X8035400D01*
Y1074600D01*
X8060800D01*
Y1125400D01*
X8035400D01*
Y1150800D01*
X7984600D01*
Y1125400D01*
X7959200D01*
Y1074600D01*
X7984600D01*
X8094600Y534600D02*
Y509200D01*
X8145400D01*
Y534600D01*
X8170800D01*
Y585400D01*
X8145400D01*
Y610800D01*
X8094600D01*
Y585400D01*
X8069200D01*
Y534600D01*
X8094600D01*
X7914600Y264600D02*
Y239200D01*
X7965400D01*
Y264600D01*
X7990800D01*
Y315400D01*
X7965400D01*
Y340800D01*
X7914600D01*
Y315400D01*
X7889200D01*
Y264600D01*
X7914600D01*
X2524600Y2874600D02*
Y2849200D01*
X2575400D01*
Y2874600D01*
X2600800D01*
Y2925400D01*
X2575400D01*
Y2950800D01*
X2524600D01*
Y2925400D01*
X2499200D01*
Y2874600D01*
X2524600D01*
X2364600Y2254600D02*
Y2229200D01*
X2415400D01*
Y2254600D01*
X2440800D01*
Y2305400D01*
X2415400D01*
Y2330800D01*
X2364600D01*
Y2305400D01*
X2339200D01*
Y2254600D01*
X2364600D01*
X2584600Y2964600D02*
Y2939200D01*
X2635400D01*
Y2964600D01*
X2660800D01*
Y3015400D01*
X2635400D01*
Y3040800D01*
X2584600D01*
Y3015400D01*
X2559200D01*
Y2964600D01*
X2584600D01*
X2354600Y1944600D02*
Y1919200D01*
X2405400D01*
Y1944600D01*
X2430800D01*
Y1995400D01*
X2405400D01*
Y2020800D01*
X2354600D01*
Y1995400D01*
X2329200D01*
Y1944600D01*
X2354600D01*
X3154600Y3084600D02*
Y3059200D01*
X3205400D01*
Y3084600D01*
X3230800D01*
Y3135400D01*
X3205400D01*
Y3160800D01*
X3154600D01*
Y3135400D01*
X3129200D01*
Y3084600D01*
X3154600D01*
X3194600Y2574600D02*
Y2549200D01*
X3245400D01*
Y2574600D01*
X3270800D01*
Y2625400D01*
X3245400D01*
Y2650800D01*
X3194600D01*
Y2625400D01*
X3169200D01*
Y2574600D01*
X3194600D01*
X2574600Y2044600D02*
Y2019200D01*
X2625400D01*
Y2044600D01*
X2650800D01*
Y2095400D01*
X2625400D01*
Y2120800D01*
X2574600D01*
Y2095400D01*
X2549200D01*
Y2044600D01*
X2574600D01*
X4210901Y1344600D02*
Y1319200D01*
X4261701D01*
Y1344600D01*
X4287101D01*
Y1395400D01*
X4261701D01*
Y1420800D01*
X4210901D01*
Y1395400D01*
X4185501D01*
Y1344600D01*
X4210901D01*
X3966848Y1384600D02*
Y1359200D01*
X4017648D01*
Y1384600D01*
X4043048D01*
Y1435400D01*
X4017648D01*
Y1460800D01*
X3966848D01*
Y1435400D01*
X3941448D01*
Y1384600D01*
X3966848D01*
X1654600Y2124600D02*
Y2099200D01*
X1705400D01*
Y2124600D01*
X1730800D01*
Y2175400D01*
X1705400D01*
Y2200800D01*
X1654600D01*
Y2175400D01*
X1629200D01*
Y2124600D01*
X1654600D01*
X2254600Y2334600D02*
Y2309200D01*
X2305400D01*
Y2334600D01*
X2330800D01*
Y2385400D01*
X2305400D01*
Y2410800D01*
X2254600D01*
Y2385400D01*
X2229200D01*
Y2334600D01*
X2254600D01*
X3714600Y2425351D02*
Y2399951D01*
X3765400D01*
Y2425351D01*
X3790800D01*
Y2476151D01*
X3765400D01*
Y2501551D01*
X3714600D01*
Y2476151D01*
X3689200D01*
Y2425351D01*
X3714600D01*
X1654600Y2044600D02*
Y2019200D01*
X1705400D01*
Y2044600D01*
X1730800D01*
Y2095400D01*
X1705400D01*
Y2120800D01*
X1654600D01*
Y2095400D01*
X1629200D01*
Y2044600D01*
X1654600D01*
Y1884600D02*
Y1859200D01*
X1705400D01*
Y1884600D01*
X1730800D01*
Y1935400D01*
X1705400D01*
Y1960800D01*
X1654600D01*
Y1935400D01*
X1629200D01*
Y1884600D01*
X1654600D01*
Y1804600D02*
Y1779200D01*
X1705400D01*
Y1804600D01*
X1730800D01*
Y1855400D01*
X1705400D01*
Y1880800D01*
X1654600D01*
Y1855400D01*
X1629200D01*
Y1804600D01*
X1654600D01*
X3234600Y884600D02*
Y859200D01*
X3285400D01*
Y884600D01*
X3310800D01*
Y935400D01*
X3285400D01*
Y960800D01*
X3234600D01*
Y935400D01*
X3209200D01*
Y884600D01*
X3234600D01*
X3304600Y964600D02*
Y939200D01*
X3355400D01*
Y964600D01*
X3380800D01*
Y1015400D01*
X3355400D01*
Y1040800D01*
X3304600D01*
Y1015400D01*
X3279200D01*
Y964600D01*
X3304600D01*
X2164600Y1484600D02*
Y1459200D01*
X2215400D01*
Y1484600D01*
X2240800D01*
Y1535400D01*
X2215400D01*
Y1560800D01*
X2164600D01*
Y1535400D01*
X2139200D01*
Y1484600D01*
X2164600D01*
X4086000Y1164731D02*
Y1139331D01*
X4136800D01*
Y1164731D01*
X4162200D01*
Y1215531D01*
X4136800D01*
Y1240931D01*
X4086000D01*
Y1215531D01*
X4060600D01*
Y1164731D01*
X4086000D01*
X4188962Y1264600D02*
Y1239200D01*
X4239762D01*
Y1264600D01*
X4265162D01*
Y1315400D01*
X4239762D01*
Y1340800D01*
X4188962D01*
Y1315400D01*
X4163562D01*
Y1264600D01*
X4188962D01*
X4210901Y1184600D02*
Y1159200D01*
X4261701D01*
Y1184600D01*
X4287101D01*
Y1235400D01*
X4261701D01*
Y1260800D01*
X4210901D01*
Y1235400D01*
X4185501D01*
Y1184600D01*
X4210901D01*
X2694600Y2894600D02*
Y2869200D01*
X2745400D01*
Y2894600D01*
X2770800D01*
Y2945400D01*
X2745400D01*
Y2970800D01*
X2694600D01*
Y2945400D01*
X2669200D01*
Y2894600D01*
X2694600D01*
X2882099Y2892099D02*
Y2866699D01*
X2932899D01*
Y2892099D01*
X2958299D01*
Y2942899D01*
X2932899D01*
Y2968299D01*
X2882099D01*
Y2942899D01*
X2856699D01*
Y2892099D01*
X2882099D01*
X2784600Y2894600D02*
Y2869200D01*
X2835400D01*
Y2894600D01*
X2860800D01*
Y2945400D01*
X2835400D01*
Y2970800D01*
X2784600D01*
Y2945400D01*
X2759200D01*
Y2894600D01*
X2784600D01*
X249200Y4449200D02*
X274600D01*
X300000Y4474600D01*
X325400Y4449200D01*
X350800D01*
Y4474600D01*
X325400Y4500000D01*
X350800Y4525400D01*
Y4550800D01*
X325400D01*
X300000Y4525400D01*
X274600Y4550800D01*
X249200D01*
Y4525400D01*
X274600Y4500000D01*
X249200Y4474600D01*
Y4449200D01*
Y249200D02*
X274600D01*
X300000Y274600D01*
X325400Y249200D01*
X350800D01*
Y274600D01*
X325400Y300000D01*
X350800Y325400D01*
Y350800D01*
X325400D01*
X300000Y325400D01*
X274600Y350800D01*
X249200D01*
Y325400D01*
X274600Y300000D01*
X249200Y274600D01*
Y249200D01*
X3625924Y2301510D02*
Y2276110D01*
X3676724D01*
Y2301510D01*
X3702124D01*
Y2352310D01*
X3676724D01*
Y2377710D01*
X3625924D01*
Y2352310D01*
X3600524D01*
Y2301510D01*
X3625924D01*
X3759715Y2479994D02*
Y2454594D01*
X3810515D01*
Y2479994D01*
X3835915D01*
Y2530794D01*
X3810515D01*
Y2556194D01*
X3759715D01*
Y2530794D01*
X3734315D01*
Y2479994D01*
X3759715D01*
X3667099Y2039601D02*
Y2014201D01*
X3717899D01*
Y2039601D01*
X3743299D01*
Y2090401D01*
X3717899D01*
Y2115801D01*
X3667099D01*
Y2090401D01*
X3641699D01*
Y2039601D01*
X3667099D01*
X3690841Y2274273D02*
Y2248873D01*
X3741641D01*
Y2274273D01*
X3767041D01*
Y2325073D01*
X3741641D01*
Y2350473D01*
X3690841D01*
Y2325073D01*
X3665441D01*
Y2274273D01*
X3690841D01*
X3739260Y1669265D02*
Y1643865D01*
X3790060D01*
Y1669265D01*
X3815460D01*
Y1720065D01*
X3790060D01*
Y1745465D01*
X3739260D01*
Y1720065D01*
X3713860D01*
Y1669265D01*
X3739260D01*
X2994600Y2189600D02*
Y2164200D01*
X3045400D01*
Y2189600D01*
X3070800D01*
Y2240400D01*
X3045400D01*
Y2265800D01*
X2994600D01*
Y2240400D01*
X2969200D01*
Y2189600D01*
X2994600D01*
X3732293Y2112296D02*
Y2086896D01*
X3783093D01*
Y2112296D01*
X3808493D01*
Y2163096D01*
X3783093D01*
Y2188496D01*
X3732293D01*
Y2163096D01*
X3706893D01*
Y2112296D01*
X3732293D01*
X5432300Y3892300D02*
Y3866900D01*
X5483100D01*
Y3892300D01*
X5508500D01*
Y3943100D01*
X5483100D01*
Y3968500D01*
X5432300D01*
Y3943100D01*
X5406900D01*
Y3892300D01*
X5432300D01*
X5279650D02*
Y3866900D01*
X5330450D01*
Y3892300D01*
X5355850D01*
Y3943100D01*
X5330450D01*
Y3968500D01*
X5279650D01*
Y3943100D01*
X5254250D01*
Y3892300D01*
X5279650D01*
X4962300Y732300D02*
Y706900D01*
X5013100D01*
Y732300D01*
X5038500D01*
Y783100D01*
X5013100D01*
Y808500D01*
X4962300D01*
Y783100D01*
X4936900D01*
Y732300D01*
X4962300D01*
X2022300Y1437300D02*
Y1411900D01*
X2073100D01*
Y1437300D01*
X2098500D01*
Y1488100D01*
X2073100D01*
Y1513500D01*
X2022300D01*
Y1488100D01*
X1996900D01*
Y1437300D01*
X2022300D01*
X4648753Y1865847D02*
Y1840447D01*
X4699553D01*
Y1865847D01*
X4724953D01*
Y1916647D01*
X4699553D01*
Y1942047D01*
X4648753D01*
Y1916647D01*
X4623353D01*
Y1865847D01*
X4648753D01*
X4591591Y2103010D02*
Y2077610D01*
X4642391D01*
Y2103010D01*
X4667791D01*
Y2153810D01*
X4642391D01*
Y2179210D01*
X4591591D01*
Y2153810D01*
X4566191D01*
Y2103010D01*
X4591591D01*
X4507000Y2568050D02*
Y2542650D01*
X4557800D01*
Y2568050D01*
X4583200D01*
Y2618850D01*
X4557800D01*
Y2644250D01*
X4507000D01*
Y2618850D01*
X4481600D01*
Y2568050D01*
X4507000D01*
X4572300Y1982433D02*
Y1957033D01*
X4623100D01*
Y1982433D01*
X4648500D01*
Y2033233D01*
X4623100D01*
Y2058633D01*
X4572300D01*
Y2033233D01*
X4546900D01*
Y1982433D01*
X4572300D01*
X5542289Y3892293D02*
Y3866893D01*
X5593089D01*
Y3892293D01*
X5618489D01*
Y3943093D01*
X5593089D01*
Y3968493D01*
X5542289D01*
Y3943093D01*
X5516889D01*
Y3892293D01*
X5542289D01*
X4452300Y2622300D02*
Y2596900D01*
X4503100D01*
Y2622300D01*
X4528500D01*
Y2673100D01*
X4503100D01*
Y2698500D01*
X4452300D01*
Y2673100D01*
X4426900D01*
Y2622300D01*
X4452300D01*
X4305826Y2634400D02*
Y2609000D01*
X4356626D01*
Y2634400D01*
X4382026D01*
Y2685200D01*
X4356626D01*
Y2710600D01*
X4305826D01*
Y2685200D01*
X4280426D01*
Y2634400D01*
X4305826D01*
X3742300Y2226096D02*
Y2200696D01*
X3793100D01*
Y2226096D01*
X3818500D01*
Y2276896D01*
X3793100D01*
Y2302296D01*
X3742300D01*
Y2276896D01*
X3716900D01*
Y2226096D01*
X3742300D01*
X4118776Y2634399D02*
Y2608999D01*
X4169576D01*
Y2634399D01*
X4194976D01*
Y2685199D01*
X4169576D01*
Y2710599D01*
X4118776D01*
Y2685199D01*
X4093376D01*
Y2634399D01*
X4118776D01*
X4046900Y2732300D02*
Y2706900D01*
X4097700D01*
Y2732300D01*
X4123100D01*
Y2783100D01*
X4097700D01*
Y2808500D01*
X4046900D01*
Y2783100D01*
X4021500D01*
Y2732300D01*
X4046900D01*
X4161900Y2732300D02*
Y2706900D01*
X4212700D01*
Y2732300D01*
X4238100D01*
Y2783100D01*
X4212700D01*
Y2808500D01*
X4161900D01*
Y2783100D01*
X4136500D01*
Y2732300D01*
X4161900D01*
X5496550Y3821652D02*
Y3796252D01*
X5547350D01*
Y3821652D01*
X5572750D01*
Y3872452D01*
X5547350D01*
Y3897852D01*
X5496550D01*
Y3872452D01*
X5471150D01*
Y3821652D01*
X5496550D01*
X4212300Y2872300D02*
Y2846900D01*
X4263100D01*
Y2872300D01*
X4288500D01*
Y2923100D01*
X4263100D01*
Y2948500D01*
X4212300D01*
Y2923100D01*
X4186900D01*
Y2872300D01*
X4212300D01*
D146*
X9540800Y1750000D02*
G03*
X9540800Y1750000I-50800J0D01*
G01*
Y1200000D02*
G03*
X9540800Y1200000I-50800J0D01*
G01*
Y2300000D02*
G03*
X9540800Y2300000I-50800J0D01*
G01*
X9010800Y1665000D02*
G03*
X9010800Y1665000I-50800J0D01*
G01*
Y2385000D02*
G03*
X9010800Y2385000I-50800J0D01*
G01*
%TF.MD5,b0e3c58d828e4c45149180127d1bfeb5*%
M02*
