%TF.GenerationSoftware,Altium Limited,Altium Designer,23.3.1 (30)*%
G04 Layer_Physical_Order=3*
G04 Layer_Color=128*
%FSLAX45Y45*%
%MOMM*%
%TF.SameCoordinates,CD13F5F2-8DFB-4D4D-A102-87722C93DE69*%
%TF.FilePolarity,Negative*%
%TF.FileFunction,Copper,L3,Inr,Plane*%
%TF.Part,Single*%
G01*
G75*
%TA.AperFunction,NonConductor*%
%ADD82C,1.01600*%
%TA.AperFunction,ComponentPad*%
%ADD84C,5.35000*%
%ADD85C,1.30000*%
%ADD86C,1.45000*%
%ADD87C,4.70000*%
%ADD88C,0.90000*%
%TA.AperFunction,ViaPad*%
%ADD89C,0.70000*%
%TA.AperFunction,NonConductor*%
%ADD91C,0.50000*%
%ADD92C,1.00000*%
%ADD93C,0.25400*%
%TA.AperFunction,ViaPad*%
%ADD94C,3.40000*%
D82*
X0Y0D02*
X10000000D01*
Y4800000D01*
X0D02*
X10000000D01*
X0Y0D02*
Y4800000D01*
D84*
X8750000Y3740000D02*
D03*
D85*
X2992000Y256000D02*
D03*
X3754000D02*
D03*
X3500000Y510000D02*
D03*
Y256000D02*
D03*
X3246000Y510000D02*
D03*
Y256000D02*
D03*
X2992000Y510000D02*
D03*
X2166000Y756000D02*
D03*
X2420000D02*
D03*
Y1010000D02*
D03*
X2674000Y756000D02*
D03*
Y1010000D02*
D03*
X4840000Y4500000D02*
D03*
X1326000Y4480000D02*
D03*
X1072000D02*
D03*
X1580000D02*
D03*
X4390000Y260000D02*
D03*
X4644000D02*
D03*
X4136000D02*
D03*
X5094000Y4500000D02*
D03*
X4640000Y550000D02*
D03*
D86*
X2200000Y300000D02*
D03*
X1950000D02*
D03*
X1700000D02*
D03*
X1450000D02*
D03*
X1200000D02*
D03*
X2450000D02*
D03*
X4410000Y4490000D02*
D03*
X4160000D02*
D03*
X3910000D02*
D03*
X3660000D02*
D03*
X3410000D02*
D03*
X2960000D02*
D03*
X2710000D02*
D03*
X2460000D02*
D03*
X2210000D02*
D03*
X1960000D02*
D03*
X610000Y3730000D02*
D03*
Y3479998D02*
D03*
Y3980002D02*
D03*
Y3230001D02*
D03*
D87*
X9490000Y1750000D02*
D03*
Y1200000D02*
D03*
Y2300000D02*
D03*
X8960000Y1665000D02*
D03*
Y2385000D02*
D03*
D88*
X395002Y1337500D02*
D03*
Y922500D02*
D03*
D89*
X1080000Y2330000D02*
D03*
X1089766Y1620235D02*
D03*
X1070000Y1800000D02*
D03*
X1100000Y1960000D02*
D03*
X1090000Y2100000D02*
D03*
X8870000Y2795000D02*
D03*
X9870000Y2295000D02*
D03*
X9745000Y545000D02*
D03*
X8995000Y4545000D02*
D03*
X7870000Y3295000D02*
D03*
X8620000D02*
D03*
X7245000Y3545000D02*
D03*
X8745000Y4545000D02*
D03*
X7245000Y3045000D02*
D03*
X7120000Y4295000D02*
D03*
X9495000Y545000D02*
D03*
X8620000Y295000D02*
D03*
X6995000Y3045000D02*
D03*
X6870000Y3795000D02*
D03*
X8120000Y3295000D02*
D03*
X6370000Y3795000D02*
D03*
X6245000Y3545000D02*
D03*
X7495000D02*
D03*
X6995000D02*
D03*
X6745000Y3045000D02*
D03*
X6120000Y4295000D02*
D03*
Y3795000D02*
D03*
X5620000Y795000D02*
D03*
X8245000Y3545000D02*
D03*
X8495000Y3045000D02*
D03*
X9495000D02*
D03*
X7120000Y3795000D02*
D03*
X7620000Y3295000D02*
D03*
X8620000Y4295000D02*
D03*
X8120000D02*
D03*
X7245000Y4545000D02*
D03*
X8120000Y3795000D02*
D03*
X9870000Y1795000D02*
D03*
Y1295000D02*
D03*
X8370000Y3295000D02*
D03*
X9245000Y4545000D02*
D03*
X7495000Y4045000D02*
D03*
X9120000Y3295000D02*
D03*
X6995000Y4045000D02*
D03*
X6245000D02*
D03*
X5995000D02*
D03*
X9620000Y2795000D02*
D03*
X8745000Y3045000D02*
D03*
X9245000D02*
D03*
X8245000Y4045000D02*
D03*
X9745000Y3045000D02*
D03*
X6495000D02*
D03*
X7370000Y4295000D02*
D03*
X9120000Y2795000D02*
D03*
X5870000Y295000D02*
D03*
X6495000Y3545000D02*
D03*
X7495000Y4545000D02*
D03*
X8370000Y4295000D02*
D03*
X8870000Y3295000D02*
D03*
X8745000Y545000D02*
D03*
X7370000Y3795000D02*
D03*
X8495000Y4545000D02*
D03*
X6370000Y4295000D02*
D03*
X9370000Y295000D02*
D03*
X9120000D02*
D03*
X9620000Y3295000D02*
D03*
X9245000Y545000D02*
D03*
X8120000Y2795000D02*
D03*
X6120000Y1295000D02*
D03*
X8370000Y3795000D02*
D03*
X8995000Y545000D02*
D03*
X6245000Y4545000D02*
D03*
X9870000Y4295000D02*
D03*
X8870000Y295000D02*
D03*
X5995000Y1045000D02*
D03*
X9870000Y3295000D02*
D03*
Y2795000D02*
D03*
Y795000D02*
D03*
X9370000Y2795000D02*
D03*
X6745000Y4045000D02*
D03*
X9370000Y3295000D02*
D03*
X7245000Y4045000D02*
D03*
X6495000D02*
D03*
X6995000Y4545000D02*
D03*
X5995000D02*
D03*
X8620000Y2795000D02*
D03*
X7620000Y3795000D02*
D03*
X8995000Y3045000D02*
D03*
X8245000Y4545000D02*
D03*
X7495000Y3045000D02*
D03*
X7745000Y4045000D02*
D03*
X9169996Y1144999D02*
D03*
X9094997Y994999D02*
D03*
X9019996Y1144999D02*
D03*
X8944997Y994999D02*
D03*
X8869996Y1144999D02*
D03*
X8794997Y994999D02*
D03*
X8719997Y1144999D02*
D03*
X8644997Y994999D02*
D03*
X8569997Y1144999D02*
D03*
X8494997Y994999D02*
D03*
X8419997Y1144999D02*
D03*
X8344997Y994999D02*
D03*
X8269997Y1144999D02*
D03*
X8194997Y994999D02*
D03*
X7929997Y1154999D02*
D03*
X7854997Y1004999D02*
D03*
X7779997Y1154999D02*
D03*
X7704997Y1004999D02*
D03*
X7629997Y1154999D02*
D03*
X7554997Y1004999D02*
D03*
X7629997Y854999D02*
D03*
X7479997Y1154999D02*
D03*
X7404997Y1004999D02*
D03*
X7479997Y854999D02*
D03*
X7404997Y704999D02*
D03*
X7329997Y1154999D02*
D03*
X7254997Y1004999D02*
D03*
X7179997Y1154999D02*
D03*
X8569997Y1894999D02*
D03*
X8494997Y1744999D02*
D03*
X8569997Y1594999D02*
D03*
X8494997Y1444999D02*
D03*
X8419997Y1894999D02*
D03*
X8344997Y1744999D02*
D03*
X8419997Y1594999D02*
D03*
X8344997Y1444999D02*
D03*
X8269997Y1894999D02*
D03*
X8194997Y1744999D02*
D03*
X8269997Y1594999D02*
D03*
X8194997Y1444999D02*
D03*
X8119997Y1894999D02*
D03*
X8044997Y1744999D02*
D03*
X8119997Y1594999D02*
D03*
X8044997Y1444999D02*
D03*
X7969997Y1894999D02*
D03*
X7894997Y1744999D02*
D03*
X7969997Y1594999D02*
D03*
X7894997Y1444999D02*
D03*
X7819997Y1894999D02*
D03*
X7744997Y1744999D02*
D03*
X7819997Y1594999D02*
D03*
X7744997Y1444999D02*
D03*
X7669997Y1894999D02*
D03*
X7594997Y1744999D02*
D03*
X7669997Y1594999D02*
D03*
X7594997Y1444999D02*
D03*
X7519997Y1894999D02*
D03*
X7444997Y1744999D02*
D03*
X7519997Y1594999D02*
D03*
X7444997Y1444999D02*
D03*
X7369997Y1894999D02*
D03*
X7219997D02*
D03*
X8644997Y2494999D02*
D03*
Y2194999D02*
D03*
X8494997Y2494999D02*
D03*
X8569997Y2344999D02*
D03*
X8494997Y2194999D02*
D03*
X8344997Y2494999D02*
D03*
X8419997Y2344999D02*
D03*
X8344997Y2194999D02*
D03*
X8194997Y2494999D02*
D03*
X8269997Y2344999D02*
D03*
X8194997Y2194999D02*
D03*
X7894997Y2494999D02*
D03*
Y2194999D02*
D03*
X7744997Y2494999D02*
D03*
X7819997Y2344999D02*
D03*
X7744997Y2194999D02*
D03*
X7594997Y2494999D02*
D03*
X7669997Y2344999D02*
D03*
X7594997Y2194999D02*
D03*
X7444997Y2794998D02*
D03*
X7519997Y2644999D02*
D03*
X7444997Y2494999D02*
D03*
X7519997Y2344999D02*
D03*
X7444997Y2194999D02*
D03*
X7294997Y2794998D02*
D03*
X7369997Y2644999D02*
D03*
Y2344999D02*
D03*
X7294997Y2194999D02*
D03*
X7144997Y2794998D02*
D03*
X7219997Y2644999D02*
D03*
X6844997Y2794998D02*
D03*
X6919997Y2044999D02*
D03*
X6844997Y1894999D02*
D03*
Y1294999D02*
D03*
X6919997Y1144999D02*
D03*
X6694997Y2794998D02*
D03*
X6769997Y2644999D02*
D03*
Y2044999D02*
D03*
X6694997Y1894999D02*
D03*
Y1294999D02*
D03*
X6769997Y1144999D02*
D03*
X6544997Y2794998D02*
D03*
X6619997Y2644999D02*
D03*
Y2044999D02*
D03*
X6544997Y1894999D02*
D03*
Y1294999D02*
D03*
X6619997Y1144999D02*
D03*
X6394997Y2794998D02*
D03*
X6469997Y2044999D02*
D03*
X6394997Y1294999D02*
D03*
X6469997Y1144999D02*
D03*
X1770000Y3970000D02*
D03*
X1134763Y1755231D02*
D03*
X1300000Y2150000D02*
D03*
X1680000Y1990000D02*
D03*
X1450000Y4160000D02*
D03*
X1910000Y3640000D02*
D03*
X1680000Y3590000D02*
D03*
X3595352Y2373051D02*
D03*
X4325003Y2375002D02*
D03*
Y2275002D02*
D03*
Y2175002D02*
D03*
Y2075002D02*
D03*
Y1975002D02*
D03*
Y1875002D02*
D03*
Y1775002D02*
D03*
Y1675002D02*
D03*
X4225003Y2375002D02*
D03*
Y2275002D02*
D03*
Y2175002D02*
D03*
Y2075002D02*
D03*
Y1975002D02*
D03*
Y1875002D02*
D03*
Y1775002D02*
D03*
Y1675002D02*
D03*
X4125003Y2375002D02*
D03*
Y2275002D02*
D03*
Y2175002D02*
D03*
Y2075002D02*
D03*
Y1975002D02*
D03*
Y1875002D02*
D03*
Y1775002D02*
D03*
Y1675002D02*
D03*
X4025003Y2375002D02*
D03*
Y2275002D02*
D03*
Y2175002D02*
D03*
Y2075002D02*
D03*
Y1975002D02*
D03*
Y1875002D02*
D03*
Y1775002D02*
D03*
Y1675002D02*
D03*
X4989484Y1330503D02*
D03*
X5770000Y1570000D02*
D03*
X5630000Y1590000D02*
D03*
X5290000Y1660000D02*
D03*
X5180000Y1630000D02*
D03*
X5460000Y2780000D02*
D03*
X5550000Y2870000D02*
D03*
X5250000Y2700000D02*
D03*
X4641906Y3174122D02*
D03*
X3900000Y320000D02*
D03*
X3580000Y990000D02*
D03*
X1170000Y1180000D02*
D03*
X2070000Y2250000D02*
D03*
X6200000Y470000D02*
D03*
X7650000Y400000D02*
D03*
X3272700Y2512700D02*
D03*
X5630451Y3837700D02*
D03*
X5799988Y3249994D02*
D03*
X5730000Y3750000D02*
D03*
X5774486Y3578950D02*
D03*
X5048687Y3871313D02*
D03*
X5147700Y3862350D02*
D03*
X4906950Y3640000D02*
D03*
X5410350Y3837700D02*
D03*
X5257700D02*
D03*
X5207700Y3917700D02*
D03*
X5200000Y970000D02*
D03*
X4977700Y1043450D02*
D03*
X5760000Y900000D02*
D03*
X6100000Y2190000D02*
D03*
X7950000Y3090000D02*
D03*
X4380000Y1380000D02*
D03*
X4420000Y1080000D02*
D03*
X2940000Y913300D02*
D03*
X2900000Y1120000D02*
D03*
X4890000Y2520000D02*
D03*
X5360000Y2030000D02*
D03*
Y2120000D02*
D03*
X5000000Y1930000D02*
D03*
X4370000Y3460000D02*
D03*
X2572700Y1737700D02*
D03*
X2900000Y2490000D02*
D03*
X7947961Y685200D02*
D03*
X2500405Y3690613D02*
D03*
X2040000Y4010000D02*
D03*
X2340000D02*
D03*
X2640000D02*
D03*
X3530000D02*
D03*
X3830000D02*
D03*
X4130000D02*
D03*
X1020000Y1480000D02*
D03*
X900000Y1230000D02*
D03*
X1730000Y1060000D02*
D03*
X4490000Y870000D02*
D03*
X4670000Y1460000D02*
D03*
X4580000D02*
D03*
X5000000Y2090000D02*
D03*
X2940000Y710000D02*
D03*
X3440000Y940000D02*
D03*
X3240000Y3360000D02*
D03*
X3350000D02*
D03*
X3450000Y3480000D02*
D03*
X3459670Y3747969D02*
D03*
X3389407Y3566230D02*
D03*
X3000000Y4100000D02*
D03*
X2690000Y3860000D02*
D03*
X2380000D02*
D03*
X2060000D02*
D03*
X3270000Y4150000D02*
D03*
X3699993Y3439994D02*
D03*
X3930000Y3490000D02*
D03*
X4249991Y3389800D02*
D03*
X3579993Y3859993D02*
D03*
X3879992D02*
D03*
X4400000Y3380000D02*
D03*
X4463370Y3252901D02*
D03*
X4530000Y3360000D02*
D03*
X4780000Y3585598D02*
D03*
X4760000Y3830000D02*
D03*
X5140000Y4020000D02*
D03*
X4775080Y1500320D02*
D03*
X4762300Y1638341D02*
D03*
X4677700Y1697700D02*
D03*
X4727700Y1834347D02*
D03*
X3480000Y2670000D02*
D03*
X3370000Y2750000D02*
D03*
X3600000Y2730000D02*
D03*
X1390000Y1290000D02*
D03*
X1690000Y1641900D02*
D03*
X2600000Y2480000D02*
D03*
X2560601Y2538342D02*
D03*
X4427700Y2737700D02*
D03*
X5020000Y1590000D02*
D03*
X5010000Y1440000D02*
D03*
X5950000Y1850000D02*
D03*
X4477700Y1467700D02*
D03*
X4592300Y1612101D02*
D03*
X5810000Y2190000D02*
D03*
X6060000Y3220000D02*
D03*
X8050000Y2940000D02*
D03*
X7760000Y2900000D02*
D03*
X8560000Y2750000D02*
D03*
X8310000Y3070000D02*
D03*
X8440000Y450000D02*
D03*
X6860000Y210000D02*
D03*
X8450000Y2920000D02*
D03*
X7670000Y630000D02*
D03*
X8110000Y2630000D02*
D03*
X8000000D02*
D03*
X8110000Y2300000D02*
D03*
X8000000D02*
D03*
X8010000Y560000D02*
D03*
X8120000Y1100000D02*
D03*
X8010000D02*
D03*
X8120000Y560000D02*
D03*
X7940000Y290000D02*
D03*
X2550000Y2900000D02*
D03*
X2390000Y2280000D02*
D03*
X2610000Y2990000D02*
D03*
X2380000Y1970000D02*
D03*
X3180000Y3110000D02*
D03*
X3220000Y2600000D02*
D03*
X2600000Y2070000D02*
D03*
X4236301Y1370000D02*
D03*
X3992248Y1410000D02*
D03*
X1680000Y2150000D02*
D03*
X2280000Y2360000D02*
D03*
X3740000Y2450751D02*
D03*
X1680000Y2070000D02*
D03*
Y1910000D02*
D03*
Y1830000D02*
D03*
X3260000Y910000D02*
D03*
X3330000Y990000D02*
D03*
X2190000Y1510000D02*
D03*
X4111400Y1190131D02*
D03*
X4214362Y1290000D02*
D03*
X4236301Y1210000D02*
D03*
X2720000Y2920000D02*
D03*
X2907499Y2917499D02*
D03*
X2810000Y2920000D02*
D03*
X3651324Y2326910D02*
D03*
X3785115Y2505394D02*
D03*
X3692499Y2065001D02*
D03*
X3716241Y2299673D02*
D03*
X3764660Y1694665D02*
D03*
X3020000Y2215000D02*
D03*
X3757693Y2137696D02*
D03*
X5457700Y3917700D02*
D03*
X5305050D02*
D03*
X4987700Y757700D02*
D03*
X2047700Y1462700D02*
D03*
X4674153Y1891247D02*
D03*
X4616991Y2128410D02*
D03*
X4532400Y2593450D02*
D03*
X4597700Y2007833D02*
D03*
X5567689Y3917693D02*
D03*
X4477700Y2647700D02*
D03*
X4331226Y2659800D02*
D03*
X3767700Y2251496D02*
D03*
X4144176Y2659799D02*
D03*
X4072300Y2757700D02*
D03*
X4187300Y2757700D02*
D03*
X5521950Y3847052D02*
D03*
X4237700Y2897700D02*
D03*
D91*
X5710000Y3734600D02*
G03*
X5684600Y3760000I-25400J0D01*
G01*
Y3060000D02*
G03*
X5710000Y3085400I0J25400D01*
G01*
X5035400Y3760000D02*
G03*
X5010000Y3734600I0J-25400D01*
G01*
Y3085400D02*
G03*
X5035400Y3060000I25400J0D01*
G01*
X5684600D01*
X5035400Y3760000D02*
X5684600D01*
X5710000Y3085400D02*
Y3734600D01*
X5010000Y3085400D02*
Y3734600D01*
D92*
X5100000Y0D02*
Y2260000D01*
X5910000Y3070000D01*
Y3790000D01*
X5510000Y4190000D02*
X5910000Y3790000D01*
X4900000Y4800000D02*
X5510000Y4190000D01*
D93*
X0Y0D02*
X5100000D01*
X0Y4800000D02*
X4900000D01*
X0Y0D02*
Y4800000D01*
D94*
X9700000Y300000D02*
D03*
Y4500000D02*
D03*
X300000D02*
D03*
Y300000D02*
D03*
%TF.MD5,3bbdfeb747c3c5cf7a67223259199583*%
M02*
