%TF.GenerationSoftware,Altium Limited,Altium Designer,23.3.1 (30)*%
G04 Layer_Color=8388736*
%FSLAX45Y45*%
%MOMM*%
%TF.SameCoordinates,CD13F5F2-8DFB-4D4D-A102-87722C93DE69*%
%TF.FilePolarity,Negative*%
%TF.FileFunction,Soldermask,Top*%
%TF.Part,Single*%
G01*
G75*
%TA.AperFunction,SMDPad,CuDef*%
%ADD11R,0.80000X0.80000*%
%ADD12R,0.91213X0.95814*%
%ADD14R,2.00000X4.10000*%
G04:AMPARAMS|DCode=15|XSize=1.55414mm|YSize=0.37583mm|CornerRadius=0.18791mm|HoleSize=0mm|Usage=FLASHONLY|Rotation=90.000|XOffset=0mm|YOffset=0mm|HoleType=Round|Shape=RoundedRectangle|*
%AMROUNDEDRECTD15*
21,1,1.55414,0.00000,0,0,90.0*
21,1,1.17831,0.37583,0,0,90.0*
1,1,0.37583,0.00000,0.58916*
1,1,0.37583,0.00000,-0.58916*
1,1,0.37583,0.00000,-0.58916*
1,1,0.37583,0.00000,0.58916*
%
%ADD15ROUNDEDRECTD15*%
%ADD16R,0.37583X1.55414*%
G04:AMPARAMS|DCode=17|XSize=1.55414mm|YSize=0.37583mm|CornerRadius=0.18791mm|HoleSize=0mm|Usage=FLASHONLY|Rotation=0.000|XOffset=0mm|YOffset=0mm|HoleType=Round|Shape=RoundedRectangle|*
%AMROUNDEDRECTD17*
21,1,1.55414,0.00000,0,0,0.0*
21,1,1.17831,0.37583,0,0,0.0*
1,1,0.37583,0.58916,0.00000*
1,1,0.37583,-0.58916,0.00000*
1,1,0.37583,-0.58916,0.00000*
1,1,0.37583,0.58916,0.00000*
%
%ADD17ROUNDEDRECTD17*%
%ADD18R,1.55414X0.37583*%
%ADD21R,0.75000X0.90000*%
%ADD23R,1.80000X1.40000*%
%ADD24R,2.10000X1.80000*%
%ADD25R,0.95650X0.96213*%
%ADD29R,0.95000X0.70000*%
%ADD34R,2.60000X1.90000*%
%ADD35R,1.55000X0.60000*%
%ADD38R,1.00606X0.95822*%
%ADD40R,0.95814X0.91213*%
%ADD41R,1.00650X0.95822*%
%ADD42R,0.95822X1.00650*%
%ADD43R,1.20000X1.40000*%
%ADD44R,1.50000X0.55000*%
%ADD45R,0.55000X1.50000*%
G04:AMPARAMS|DCode=46|XSize=0.254mm|YSize=0.889mm|CornerRadius=0.09525mm|HoleSize=0mm|Usage=FLASHONLY|Rotation=90.000|XOffset=0mm|YOffset=0mm|HoleType=Round|Shape=RoundedRectangle|*
%AMROUNDEDRECTD46*
21,1,0.25400,0.69850,0,0,90.0*
21,1,0.06350,0.88900,0,0,90.0*
1,1,0.19050,0.34925,0.03175*
1,1,0.19050,0.34925,-0.03175*
1,1,0.19050,-0.34925,-0.03175*
1,1,0.19050,-0.34925,0.03175*
%
%ADD46ROUNDEDRECTD46*%
G04:AMPARAMS|DCode=47|XSize=0.254mm|YSize=0.889mm|CornerRadius=0.09525mm|HoleSize=0mm|Usage=FLASHONLY|Rotation=0.000|XOffset=0mm|YOffset=0mm|HoleType=Round|Shape=RoundedRectangle|*
%AMROUNDEDRECTD47*
21,1,0.25400,0.69850,0,0,0.0*
21,1,0.06350,0.88900,0,0,0.0*
1,1,0.19050,0.03175,-0.34925*
1,1,0.19050,-0.03175,-0.34925*
1,1,0.19050,-0.03175,0.34925*
1,1,0.19050,0.03175,0.34925*
%
%ADD47ROUNDEDRECTD47*%
%ADD48R,4.08940X4.08940*%
G04:AMPARAMS|DCode=49|XSize=0.19247mm|YSize=0.96007mm|CornerRadius=0.09624mm|HoleSize=0mm|Usage=FLASHONLY|Rotation=90.000|XOffset=0mm|YOffset=0mm|HoleType=Round|Shape=RoundedRectangle|*
%AMROUNDEDRECTD49*
21,1,0.19247,0.76760,0,0,90.0*
21,1,0.00000,0.96007,0,0,90.0*
1,1,0.19247,0.38380,0.00000*
1,1,0.19247,0.38380,0.00000*
1,1,0.19247,-0.38380,0.00000*
1,1,0.19247,-0.38380,0.00000*
%
%ADD49ROUNDEDRECTD49*%
G04:AMPARAMS|DCode=50|XSize=0.19247mm|YSize=0.96107mm|CornerRadius=0.09624mm|HoleSize=0mm|Usage=FLASHONLY|Rotation=90.000|XOffset=0mm|YOffset=0mm|HoleType=Round|Shape=RoundedRectangle|*
%AMROUNDEDRECTD50*
21,1,0.19247,0.76860,0,0,90.0*
21,1,0.00000,0.96107,0,0,90.0*
1,1,0.19247,0.38430,0.00000*
1,1,0.19247,0.38430,0.00000*
1,1,0.19247,-0.38430,0.00000*
1,1,0.19247,-0.38430,0.00000*
%
%ADD50ROUNDEDRECTD50*%
G04:AMPARAMS|DCode=51|XSize=0.96107mm|YSize=0.19247mm|CornerRadius=0.09624mm|HoleSize=0mm|Usage=FLASHONLY|Rotation=90.000|XOffset=0mm|YOffset=0mm|HoleType=Round|Shape=RoundedRectangle|*
%AMROUNDEDRECTD51*
21,1,0.96107,0.00000,0,0,90.0*
21,1,0.76860,0.19247,0,0,90.0*
1,1,0.19247,0.00000,0.38430*
1,1,0.19247,0.00000,-0.38430*
1,1,0.19247,0.00000,-0.38430*
1,1,0.19247,0.00000,0.38430*
%
%ADD51ROUNDEDRECTD51*%
%ADD52C,0.17323*%
%ADD53R,5.10000X9.10000*%
%ADD55R,1.30606X1.05822*%
%ADD56R,0.91213X1.05776*%
%ADD60R,1.05776X1.01213*%
%ADD61R,1.05776X0.91213*%
%ADD62R,1.10000X1.30000*%
%ADD63R,2.95490X3.50620*%
%ADD64R,0.66040X0.38100*%
%ADD65R,2.80415X1.65263*%
G04:AMPARAMS|DCode=66|XSize=1.75414mm|YSize=0.47583mm|CornerRadius=0.23791mm|HoleSize=0mm|Usage=FLASHONLY|Rotation=180.000|XOffset=0mm|YOffset=0mm|HoleType=Round|Shape=RoundedRectangle|*
%AMROUNDEDRECTD66*
21,1,1.75414,0.00000,0,0,180.0*
21,1,1.27831,0.47583,0,0,180.0*
1,1,0.47583,-0.63916,0.00000*
1,1,0.47583,0.63916,0.00000*
1,1,0.47583,0.63916,0.00000*
1,1,0.47583,-0.63916,0.00000*
%
%ADD66ROUNDEDRECTD66*%
%ADD67R,1.75414X0.47583*%
%TA.AperFunction,NonConductor*%
%ADD101R,1.55000X3.20000*%
%TA.AperFunction,SMDPad,CuDef*%
%ADD102R,1.10000X1.25000*%
%ADD103R,1.05000X1.15000*%
%ADD104R,1.00000X1.00000*%
%ADD105R,1.25000X1.10000*%
%ADD106R,1.15000X1.15000*%
%ADD107R,1.75000X1.15000*%
%ADD108O,0.55000X2.20000*%
%TA.AperFunction,TestPad*%
%ADD109C,0.96200*%
%TA.AperFunction,SMDPad,CuDef*%
%ADD110R,1.15000X1.05000*%
%ADD111R,0.80960X1.31760*%
%ADD112R,1.55000X0.60000*%
%ADD113R,2.10000X2.10000*%
%ADD114R,2.10000X2.00000*%
%ADD115R,2.40000X1.20000*%
%ADD116R,2.40000X3.50000*%
%ADD117R,0.95000X1.05000*%
%ADD118R,1.15000X1.15000*%
%ADD119R,1.75000X1.70000*%
%ADD120R,1.70000X1.75000*%
%ADD121R,1.25000X1.30000*%
%TA.AperFunction,ComponentPad*%
%ADD122R,7.00000X7.00000*%
%ADD123R,1.70000X1.70000*%
%ADD124C,1.70000*%
%ADD125C,1.77500*%
%ADD126R,1.77500X1.77500*%
G04:AMPARAMS|DCode=127|XSize=5.2mm|YSize=5.2mm|CornerRadius=1.35mm|HoleSize=0mm|Usage=FLASHONLY|Rotation=270.000|XOffset=0mm|YOffset=0mm|HoleType=Round|Shape=RoundedRectangle|*
%AMROUNDEDRECTD127*
21,1,5.20000,2.50000,0,0,270.0*
21,1,2.50000,5.20000,0,0,270.0*
1,1,2.70000,-1.25000,-1.25000*
1,1,2.70000,-1.25000,1.25000*
1,1,2.70000,1.25000,1.25000*
1,1,2.70000,1.25000,-1.25000*
%
%ADD127ROUNDEDRECTD127*%
%ADD128R,1.77500X1.77500*%
%ADD129C,0.70000*%
%TA.AperFunction,ViaPad*%
%ADD130C,0.65000*%
%ADD131C,4.20320*%
G36*
X5743780Y3144998D02*
X5664405D01*
X5662511Y3144998D01*
X5659010Y3146448D01*
X5656331Y3149127D01*
X5654880Y3152628D01*
Y3154523D01*
Y3154523D01*
Y3160873D01*
Y3162767D01*
X5656331Y3166268D01*
X5659010Y3168947D01*
X5662511Y3170398D01*
X5743780D01*
Y3144998D01*
D02*
G37*
G36*
X7247485Y2603239D02*
X7036665D01*
Y2852159D01*
X7247485D01*
Y2603239D01*
D02*
G37*
G36*
X7168735Y2203239D02*
X6957915D01*
Y2452159D01*
X7168735D01*
Y2203239D01*
D02*
G37*
G36*
X7247485Y1803239D02*
X7036665D01*
Y2052159D01*
X7247485D01*
Y1803239D01*
D02*
G37*
G36*
X3923151Y1561633D02*
X3925858Y1558926D01*
X3927323Y1555389D01*
Y1553474D01*
Y1467092D01*
X3908076D01*
Y1553474D01*
Y1555389D01*
X3909541Y1558926D01*
X3912248Y1561633D01*
X3915785Y1563098D01*
X3919614D01*
X3923151Y1561633D01*
D02*
G37*
G36*
X7168735Y1403240D02*
X6957915D01*
Y1652160D01*
X7168735D01*
Y1403240D01*
D02*
G37*
G36*
X7247485Y1003240D02*
X7036665D01*
Y1252160D01*
X7247485D01*
Y1003240D01*
D02*
G37*
G36*
X7168735Y603240D02*
X6957915D01*
Y852160D01*
X7168735D01*
Y603240D01*
D02*
G37*
D11*
X574999Y2680002D02*
D03*
X725001D02*
D03*
X724999Y2360001D02*
D03*
X575001D02*
D03*
X725001Y2520002D02*
D03*
X574999D02*
D03*
X575001Y2199999D02*
D03*
X724999D02*
D03*
D12*
X1175000Y2795395D02*
D03*
Y2650000D02*
D03*
X899998Y3402303D02*
D03*
Y3547698D02*
D03*
X1225002Y1787701D02*
D03*
Y1642301D02*
D03*
D14*
X5530000Y1225000D02*
D03*
Y355000D02*
D03*
X7780000Y4425000D02*
D03*
Y3555000D02*
D03*
X6680000Y4425000D02*
D03*
Y3555000D02*
D03*
D15*
X3197500Y3990042D02*
D03*
X3262498D02*
D03*
X3327502D02*
D03*
X3262498Y3649957D02*
D03*
X3197500D02*
D03*
X3327502D02*
D03*
X3132501Y3990042D02*
D03*
D16*
Y3649957D02*
D03*
D17*
X4077742Y3645201D02*
D03*
X3737661Y3450201D02*
D03*
Y3580198D02*
D03*
Y3515199D02*
D03*
X4077742Y3450201D02*
D03*
Y3515199D02*
D03*
Y3580198D02*
D03*
D18*
X3737661Y3645201D02*
D03*
D21*
X3547700Y3797700D02*
D03*
X3667700D02*
D03*
X3847701Y3797700D02*
D03*
X3967701D02*
D03*
X4267701D02*
D03*
X4147702D02*
D03*
X4717702Y3327698D02*
D03*
X4837702D02*
D03*
D23*
X875000Y2940000D02*
D03*
Y3200000D02*
D03*
D24*
X8799998Y4339999D02*
D03*
X9239998D02*
D03*
D25*
X6177614Y1002698D02*
D03*
X6327784D02*
D03*
X6177616Y827702D02*
D03*
X6327785D02*
D03*
X6342788Y1807699D02*
D03*
X6192613D02*
D03*
X6342784Y1632699D02*
D03*
X6192614D02*
D03*
X6327784Y2602698D02*
D03*
X6177615D02*
D03*
X6327700Y2427700D02*
D03*
X6177530D02*
D03*
D29*
X942500Y1380000D02*
D03*
X777500D02*
D03*
X3850201Y3137701D02*
D03*
X3685203D02*
D03*
D34*
X2085000Y2839998D02*
D03*
Y3269999D02*
D03*
D35*
X1054999Y3784499D02*
D03*
Y3911499D02*
D03*
Y4038499D02*
D03*
X1594998Y4165499D02*
D03*
Y3784499D02*
D03*
Y3911499D02*
D03*
X1054999Y4165499D02*
D03*
X1594998Y4038499D02*
D03*
D38*
X1570107Y1109999D02*
D03*
X1429894D02*
D03*
X1570107Y970002D02*
D03*
X1429894D02*
D03*
D40*
X2862298Y1265001D02*
D03*
X3007698D02*
D03*
X1917698Y1115000D02*
D03*
X1772298D02*
D03*
D41*
X3017587Y1565002D02*
D03*
X2872416D02*
D03*
X2872413Y2115000D02*
D03*
X3017584D02*
D03*
X2480289Y3812697D02*
D03*
X2335118D02*
D03*
X2792874Y3812697D02*
D03*
X2647703D02*
D03*
X2167703D02*
D03*
X2022532D02*
D03*
D42*
X2385000Y3162416D02*
D03*
Y3307587D02*
D03*
X2394999Y2802416D02*
D03*
Y2947587D02*
D03*
D43*
X3029999Y1724999D02*
D03*
X2860002Y1944998D02*
D03*
X3029999D02*
D03*
X2860002Y1724999D02*
D03*
D44*
X1552700Y1752702D02*
D03*
Y1832702D02*
D03*
Y1912702D02*
D03*
Y1992702D02*
D03*
Y2072701D02*
D03*
Y2152701D02*
D03*
X2692698Y2312701D02*
D03*
Y2232701D02*
D03*
Y2152701D02*
D03*
Y2072701D02*
D03*
Y1992702D02*
D03*
Y1912702D02*
D03*
Y1832702D02*
D03*
Y1592697D02*
D03*
Y1512698D02*
D03*
X1552700Y1592697D02*
D03*
Y2232701D02*
D03*
X2692698Y1752702D02*
D03*
X1552700Y1512698D02*
D03*
Y1672702D02*
D03*
Y2312701D02*
D03*
X2692698Y1672702D02*
D03*
D45*
X1722703Y2482698D02*
D03*
X1802703D02*
D03*
X1882702D02*
D03*
X1962702D02*
D03*
X2042702D02*
D03*
X2122702D02*
D03*
X2202702D02*
D03*
X2282702D02*
D03*
X2362701D02*
D03*
X2522701Y1342700D02*
D03*
X2442701D02*
D03*
X2362701D02*
D03*
X2282702D02*
D03*
X2202702D02*
D03*
X2122702D02*
D03*
X1962702D02*
D03*
X1882702D02*
D03*
X1802703D02*
D03*
X1722703D02*
D03*
X2522701Y2482698D02*
D03*
X2042702Y1342700D02*
D03*
X2442701Y2482698D02*
D03*
D46*
X5699330Y3307700D02*
D03*
Y3357697D02*
D03*
Y3407700D02*
D03*
Y3457697D02*
D03*
Y3507700D02*
D03*
Y3657697D02*
D03*
X5016070D02*
D03*
Y3607699D02*
D03*
Y3557697D02*
D03*
Y3457697D02*
D03*
Y3357697D02*
D03*
Y3257698D02*
D03*
Y3207700D02*
D03*
Y3157698D02*
D03*
X5699330Y3257698D02*
D03*
Y3557697D02*
D03*
Y3607699D02*
D03*
D47*
X5607702Y3749330D02*
D03*
X5557700D02*
D03*
X5507702D02*
D03*
X5457700D02*
D03*
X5407703D02*
D03*
X5307703D02*
D03*
X5257700D02*
D03*
X5207698D02*
D03*
X5157701D02*
D03*
Y3066070D02*
D03*
X5207698D02*
D03*
X5257700D02*
D03*
X5357700D02*
D03*
X5407703D02*
D03*
X5457700D02*
D03*
X5557700D02*
D03*
X5607702D02*
D03*
X5107698Y3749330D02*
D03*
X5357700D02*
D03*
D48*
Y3407700D02*
D03*
D49*
X3855095Y1577696D02*
D03*
D50*
X3855146Y1617701D02*
D03*
Y1657701D02*
D03*
Y1777700D02*
D03*
Y1817700D02*
D03*
Y1857700D02*
D03*
Y1897700D02*
D03*
Y1937700D02*
D03*
Y1977700D02*
D03*
Y2017700D02*
D03*
Y2057700D02*
D03*
Y2097700D02*
D03*
Y2297699D02*
D03*
Y2337699D02*
D03*
Y2377699D02*
D03*
Y2417699D02*
D03*
X4500255Y2497699D02*
D03*
Y2457699D02*
D03*
Y2417699D02*
D03*
Y2377699D02*
D03*
Y2337699D02*
D03*
Y2297699D02*
D03*
Y2257699D02*
D03*
Y2217699D02*
D03*
Y2177699D02*
D03*
Y2137700D02*
D03*
Y2097700D02*
D03*
Y2057700D02*
D03*
Y2017700D02*
D03*
Y1977700D02*
D03*
Y1857700D02*
D03*
Y1817700D02*
D03*
Y1777700D02*
D03*
Y1737700D02*
D03*
Y1697700D02*
D03*
Y1657701D02*
D03*
Y1617701D02*
D03*
Y1577696D02*
D03*
X3855146Y1697700D02*
D03*
Y2137700D02*
D03*
Y2217699D02*
D03*
Y2257699D02*
D03*
Y2457699D02*
D03*
Y2497699D02*
D03*
X4500255Y1937700D02*
D03*
X3855146Y1737700D02*
D03*
Y2177699D02*
D03*
X4500255Y1897700D02*
D03*
D51*
X3957701Y2560249D02*
D03*
X3997701D02*
D03*
X4037701D02*
D03*
X4077701D02*
D03*
X4117700D02*
D03*
X4157700D02*
D03*
X4197700D02*
D03*
X4317700D02*
D03*
X4357700D02*
D03*
X4397700D02*
D03*
X4437700D02*
D03*
X4357700Y1515146D02*
D03*
X4317700D02*
D03*
X4277700D02*
D03*
X4237700D02*
D03*
X4197700D02*
D03*
X4157700D02*
D03*
X4117700D02*
D03*
X4077701D02*
D03*
X4037701D02*
D03*
X4237700Y2560249D02*
D03*
X4437700Y1515146D02*
D03*
X3997701D02*
D03*
X3917701Y2560249D02*
D03*
X4277700D02*
D03*
X4397700Y1515146D02*
D03*
X3957701D02*
D03*
D52*
X3917701Y1514084D02*
D03*
D53*
X4177700Y2037700D02*
D03*
D55*
X7030091Y407697D02*
D03*
X7185311D02*
D03*
D56*
X3397700Y2598138D02*
D03*
Y2462700D02*
D03*
X5897702Y2819982D02*
D03*
Y2955420D02*
D03*
D60*
X5874565Y3450000D02*
D03*
X6020000D02*
D03*
X5877284Y3610001D02*
D03*
X6022719D02*
D03*
D61*
X5155420Y2827700D02*
D03*
X5019982D02*
D03*
X5399980Y2667700D02*
D03*
X5535418D02*
D03*
D62*
X3860200Y2962700D02*
D03*
Y2752698D02*
D03*
X3695201Y2962700D02*
D03*
Y2752698D02*
D03*
D63*
X8302827Y1102700D02*
D03*
X7827700D02*
D03*
X8290267Y2302701D02*
D03*
X7815134D02*
D03*
D64*
X6924901Y1030199D02*
D03*
X7280501Y1225199D02*
D03*
Y1160201D02*
D03*
Y1095197D02*
D03*
Y1030199D02*
D03*
X6924901Y1095197D02*
D03*
Y1160201D02*
D03*
Y1225199D02*
D03*
X6924898Y825199D02*
D03*
Y760200D02*
D03*
Y695202D02*
D03*
Y630198D02*
D03*
X7280498D02*
D03*
Y695202D02*
D03*
Y760200D02*
D03*
Y825199D02*
D03*
X6924901Y1830199D02*
D03*
X7280501Y2025199D02*
D03*
Y1960201D02*
D03*
Y1895197D02*
D03*
Y1830199D02*
D03*
X6924901Y1895197D02*
D03*
Y1960201D02*
D03*
Y2025199D02*
D03*
X7280501Y1625201D02*
D03*
Y1560198D02*
D03*
Y1495199D02*
D03*
Y1430200D02*
D03*
X6924901D02*
D03*
Y1495199D02*
D03*
Y1560198D02*
D03*
Y1625201D02*
D03*
X6924898Y2630200D02*
D03*
X7280498Y2825201D02*
D03*
Y2760197D02*
D03*
Y2695199D02*
D03*
Y2630200D02*
D03*
X6924898Y2695199D02*
D03*
Y2760197D02*
D03*
Y2825201D02*
D03*
X7280499Y2425202D02*
D03*
Y2360198D02*
D03*
Y2295199D02*
D03*
Y2230201D02*
D03*
X6924899D02*
D03*
Y2295199D02*
D03*
Y2360198D02*
D03*
Y2425202D02*
D03*
D65*
X6652698Y2395175D02*
D03*
Y2660224D02*
D03*
X6652698Y1595174D02*
D03*
Y1860223D02*
D03*
X6652700Y795173D02*
D03*
Y1060222D02*
D03*
D66*
X7847657Y555198D02*
D03*
Y620201D02*
D03*
Y750198D02*
D03*
X8257740D02*
D03*
Y685200D02*
D03*
Y620201D02*
D03*
X7847657Y685200D02*
D03*
X7847657Y2630199D02*
D03*
Y2695198D02*
D03*
Y2825200D02*
D03*
X8257740D02*
D03*
Y2760201D02*
D03*
Y2695198D02*
D03*
X7847657Y2760201D02*
D03*
D67*
X8257740Y555198D02*
D03*
X8257740Y2630199D02*
D03*
D101*
X417500Y1130000D02*
D03*
D102*
X847500Y1600000D02*
D03*
X992500D02*
D03*
X847500Y1750000D02*
D03*
X992500D02*
D03*
X847500Y1900000D02*
D03*
X992500D02*
D03*
X847500Y2050000D02*
D03*
X992500D02*
D03*
X847501Y2519999D02*
D03*
X992499D02*
D03*
X4877500Y2430000D02*
D03*
X5022500D02*
D03*
X5167500D02*
D03*
X5312500D02*
D03*
X992499Y2680002D02*
D03*
X847501D02*
D03*
X992498Y2199999D02*
D03*
X847500D02*
D03*
X992502Y2359998D02*
D03*
X847498D02*
D03*
X7805202Y377698D02*
D03*
X7950201D02*
D03*
X7805200Y3002699D02*
D03*
X7950198D02*
D03*
D103*
X1289999Y2875000D02*
D03*
X1425000D02*
D03*
X3247501Y2814999D02*
D03*
X3382502D02*
D03*
X2835000Y2485000D02*
D03*
X2699999D02*
D03*
X1392498Y2015001D02*
D03*
X1257502D02*
D03*
X6415200Y352701D02*
D03*
X6280199D02*
D03*
X4730200Y1057699D02*
D03*
X4865201D02*
D03*
X4850202Y1857699D02*
D03*
X4985198D02*
D03*
X5230199Y4047698D02*
D03*
X5365200D02*
D03*
X3540200Y2587698D02*
D03*
X3675201D02*
D03*
X3527502Y2204998D02*
D03*
X3662498D02*
D03*
X3537502Y1735002D02*
D03*
X3672498D02*
D03*
X4875199Y2007698D02*
D03*
X4740198D02*
D03*
X3660001Y2065000D02*
D03*
X3525000D02*
D03*
D104*
X725000Y1600000D02*
D03*
X575000D02*
D03*
X725000Y1750000D02*
D03*
X575000D02*
D03*
X725000Y2050000D02*
D03*
X575000D02*
D03*
X725000Y1900000D02*
D03*
X575000D02*
D03*
D105*
X4277700Y3965202D02*
D03*
Y4110200D02*
D03*
X3977699Y3965197D02*
D03*
Y4110201D02*
D03*
X3677702Y3962696D02*
D03*
Y4107700D02*
D03*
X4927699Y3925202D02*
D03*
Y4070201D02*
D03*
X4870000Y1574998D02*
D03*
Y1430000D02*
D03*
D106*
X4127698Y3962699D02*
D03*
Y4112702D02*
D03*
X3827700Y3962699D02*
D03*
Y4112702D02*
D03*
X3527702Y3962699D02*
D03*
Y4112702D02*
D03*
X2337701Y4117699D02*
D03*
Y3967697D02*
D03*
X4727702Y762701D02*
D03*
Y912698D02*
D03*
X4877699Y912698D02*
D03*
Y762701D02*
D03*
X2187703Y4117698D02*
D03*
Y3967696D02*
D03*
X2787704Y4117698D02*
D03*
Y3967695D02*
D03*
X2487702Y4117698D02*
D03*
Y3967696D02*
D03*
X2637701Y4117695D02*
D03*
Y3967698D02*
D03*
X2037702Y4117695D02*
D03*
Y3967698D02*
D03*
D107*
X4777701Y3725199D02*
D03*
Y3490198D02*
D03*
X4517701Y3725199D02*
D03*
Y3490198D02*
D03*
X4777702Y3165199D02*
D03*
Y2930198D02*
D03*
D108*
X3099998Y2755000D02*
D03*
X2515001Y3334999D02*
D03*
X3099998D02*
D03*
X3035000D02*
D03*
X2970001D02*
D03*
X2904997D02*
D03*
X2839999D02*
D03*
X2775000D02*
D03*
X2709996D02*
D03*
X2644998D02*
D03*
X2579999D02*
D03*
X3035000Y2755000D02*
D03*
X2970001D02*
D03*
X2904997D02*
D03*
X2839999D02*
D03*
X2775000D02*
D03*
X2709996D02*
D03*
X2644998D02*
D03*
X2579999D02*
D03*
X2515001D02*
D03*
D109*
X4107700Y3117700D02*
D03*
Y3007700D02*
D03*
X5227700Y2277700D02*
D03*
X5027700D02*
D03*
X4827700D02*
D03*
X3327699Y1197698D02*
D03*
X3327699Y1572698D02*
D03*
X3327698Y1322702D02*
D03*
X3327702Y1822698D02*
D03*
X3327699Y1447702D02*
D03*
X3327699Y1697701D02*
D03*
X3327700Y2197699D02*
D03*
X3327699Y2072697D02*
D03*
X3327702Y1947697D02*
D03*
X3327701Y2322698D02*
D03*
X4107700Y3227700D02*
D03*
D110*
X7652700Y485199D02*
D03*
Y620199D02*
D03*
Y2920199D02*
D03*
Y2785199D02*
D03*
X1755002Y3817501D02*
D03*
Y3952502D02*
D03*
X850002Y4267498D02*
D03*
Y4132502D02*
D03*
X1385000Y1830001D02*
D03*
Y1695000D02*
D03*
X1385000Y2157498D02*
D03*
Y2292499D02*
D03*
X2969998Y4037500D02*
D03*
Y3902499D02*
D03*
X4297699Y3480200D02*
D03*
Y3615201D02*
D03*
X3547702Y2955198D02*
D03*
Y2820197D02*
D03*
X4317700Y2885201D02*
D03*
Y2750200D02*
D03*
X3950000Y1162498D02*
D03*
Y1297499D02*
D03*
X4480001Y1202498D02*
D03*
Y1337499D02*
D03*
X4687700Y1555201D02*
D03*
Y1420200D02*
D03*
X4167700Y2750199D02*
D03*
Y2885200D02*
D03*
X8452698Y720199D02*
D03*
Y585198D02*
D03*
X8452697Y2795201D02*
D03*
Y2660200D02*
D03*
X1385001Y1367501D02*
D03*
Y1502502D02*
D03*
D111*
X890000Y1210000D02*
D03*
X794999D02*
D03*
X984996D02*
D03*
Y960003D02*
D03*
X794999D02*
D03*
X890000D02*
D03*
D112*
X417502Y1260000D02*
D03*
Y1195001D02*
D03*
Y1130002D02*
D03*
Y1000000D02*
D03*
Y1064999D02*
D03*
D113*
X149999Y1250002D02*
D03*
Y1010003D02*
D03*
D114*
Y1530002D02*
D03*
Y729998D02*
D03*
D115*
X1125003Y3300000D02*
D03*
Y3069998D02*
D03*
Y3530002D02*
D03*
D116*
X1725001Y3300000D02*
D03*
D117*
X3380000Y2954998D02*
D03*
X3249998D02*
D03*
X3668449Y2463451D02*
D03*
X3538452D02*
D03*
X2840002Y1415000D02*
D03*
X2970000D02*
D03*
D118*
X6425001Y480000D02*
D03*
X6274998D02*
D03*
X6717700Y352700D02*
D03*
X6567703D02*
D03*
X5007702Y1697700D02*
D03*
X4857700D02*
D03*
D119*
X3747700Y1097700D02*
D03*
Y1277700D02*
D03*
D120*
X5247699Y2067700D02*
D03*
X5067699D02*
D03*
D121*
X8157701Y377698D02*
D03*
X8297700D02*
D03*
X8152700Y3002699D02*
D03*
X8292700D02*
D03*
D122*
X9481520Y3740000D02*
D03*
X8750000D02*
D03*
D123*
X3754000Y510000D02*
D03*
X2166000Y756000D02*
D03*
X4840000Y4500000D02*
D03*
X1072000Y4480000D02*
D03*
X4644000Y260000D02*
D03*
X4640000Y550000D02*
D03*
D124*
X2992000Y256000D02*
D03*
X3754000D02*
D03*
X3500000Y510000D02*
D03*
Y256000D02*
D03*
X3246000Y510000D02*
D03*
Y256000D02*
D03*
X2992000Y510000D02*
D03*
X2420000Y756000D02*
D03*
Y1010000D02*
D03*
X2674000Y756000D02*
D03*
Y1010000D02*
D03*
X2166000D02*
D03*
X1326000Y4480000D02*
D03*
X1580000D02*
D03*
X4390000Y260000D02*
D03*
X4136000D02*
D03*
X5094000Y4500000D02*
D03*
X4386000Y550000D02*
D03*
D125*
X2200000Y300000D02*
D03*
X1950000D02*
D03*
X1700000D02*
D03*
X1450000D02*
D03*
X2450000D02*
D03*
X4410000Y4490000D02*
D03*
X4160000D02*
D03*
X3910000D02*
D03*
X3660000D02*
D03*
X2960000D02*
D03*
X2710000D02*
D03*
X2460000D02*
D03*
X2210000D02*
D03*
X610000Y3730000D02*
D03*
Y3479998D02*
D03*
Y3230001D02*
D03*
D126*
X1200000Y300000D02*
D03*
X3410000Y4490000D02*
D03*
X1960000D02*
D03*
D127*
X9490000Y1750000D02*
D03*
Y1200000D02*
D03*
Y2300000D02*
D03*
X8960000Y1665000D02*
D03*
Y2385000D02*
D03*
D128*
X610000Y3980002D02*
D03*
D129*
X395002Y1337500D02*
D03*
Y922500D02*
D03*
D130*
X9707516Y3515007D02*
D03*
X9782516D02*
D03*
Y3590007D02*
D03*
Y4040008D02*
D03*
Y3965008D02*
D03*
Y3890007D02*
D03*
Y3815007D02*
D03*
Y3740007D02*
D03*
Y3665007D02*
D03*
Y3440007D02*
D03*
X9707516Y4040008D02*
D03*
Y3965008D02*
D03*
Y3440007D02*
D03*
X9632516Y4040008D02*
D03*
Y3440007D02*
D03*
X9557516Y4040008D02*
D03*
Y3440007D02*
D03*
X9482516Y4040008D02*
D03*
Y3440007D02*
D03*
X9407516Y4040008D02*
D03*
Y3440007D02*
D03*
X9332515Y4040008D02*
D03*
Y3440007D02*
D03*
X9257515Y4040008D02*
D03*
Y3965008D02*
D03*
Y3515007D02*
D03*
Y3440007D02*
D03*
X9182515Y4040008D02*
D03*
Y3965008D02*
D03*
Y3890007D02*
D03*
Y3815007D02*
D03*
Y3740007D02*
D03*
Y3665007D02*
D03*
Y3590007D02*
D03*
Y3515007D02*
D03*
Y3440007D02*
D03*
X4325003Y2375002D02*
D03*
Y2275002D02*
D03*
Y2175002D02*
D03*
Y2075002D02*
D03*
Y1975002D02*
D03*
Y1875002D02*
D03*
Y1775002D02*
D03*
Y1675002D02*
D03*
X4225003Y2375002D02*
D03*
Y2275002D02*
D03*
Y2175002D02*
D03*
Y2075002D02*
D03*
Y1975002D02*
D03*
Y1875002D02*
D03*
Y1775002D02*
D03*
Y1675002D02*
D03*
X4125003Y2375002D02*
D03*
Y2275002D02*
D03*
Y2175002D02*
D03*
Y2075002D02*
D03*
Y1975002D02*
D03*
Y1875002D02*
D03*
Y1775002D02*
D03*
Y1675002D02*
D03*
X4025003Y2375002D02*
D03*
Y2275002D02*
D03*
Y2175002D02*
D03*
Y2075002D02*
D03*
Y1975002D02*
D03*
Y1875002D02*
D03*
Y1775002D02*
D03*
Y1675002D02*
D03*
X5465004Y3505003D02*
D03*
Y3405003D02*
D03*
Y3305003D02*
D03*
X5365004Y3505003D02*
D03*
Y3405003D02*
D03*
Y3305003D02*
D03*
X5265004Y3505003D02*
D03*
Y3405003D02*
D03*
Y3305003D02*
D03*
D131*
X9700000Y300000D02*
D03*
Y4500000D02*
D03*
X300000D02*
D03*
Y300000D02*
D03*
%TF.MD5,d30f94552eeb97b3a745a63fabc57777*%
M02*
