%TF.GenerationSoftware,Altium Limited,Altium Designer,23.3.1 (30)*%
G04 Layer_Color=128*
%FSLAX45Y45*%
%MOMM*%
%TF.SameCoordinates,CD13F5F2-8DFB-4D4D-A102-87722C93DE69*%
%TF.FilePolarity,Positive*%
%TF.FileFunction,Drillmap*%
%TF.Part,Single*%
G01*
G75*
%TA.AperFunction,NonConductor*%
%ADD145C,0.12700*%
D145*
X9234020Y3740000D02*
X9729020D01*
X9481520Y3492500D02*
Y3987500D01*
X8502500Y3740000D02*
X8997500D01*
X8750000Y3492500D02*
Y3987500D01*
X3709000Y510000D02*
X3799000D01*
X3754000Y465000D02*
Y555000D01*
X2947000Y256000D02*
X3037000D01*
X2992000Y211000D02*
Y301000D01*
X3709000Y256000D02*
X3799000D01*
X3754000Y211000D02*
Y301000D01*
X3455000Y510000D02*
X3545000D01*
X3500000Y465000D02*
Y555000D01*
X3455000Y256000D02*
X3545000D01*
X3500000Y211000D02*
Y301000D01*
X3201000Y510000D02*
X3291000D01*
X3246000Y465000D02*
Y555000D01*
X3201000Y256000D02*
X3291000D01*
X3246000Y211000D02*
Y301000D01*
X2947000Y510000D02*
X3037000D01*
X2992000Y465000D02*
Y555000D01*
X2121000Y756000D02*
X2211000D01*
X2166000Y711000D02*
Y801000D01*
X2375000Y756000D02*
X2465000D01*
X2420000Y711000D02*
Y801000D01*
X2375000Y1010000D02*
X2465000D01*
X2420000Y965000D02*
Y1055000D01*
X2629000Y756000D02*
X2719000D01*
X2674000Y711000D02*
Y801000D01*
X2629000Y1010000D02*
X2719000D01*
X2674000Y965000D02*
Y1055000D01*
X2121000Y1010000D02*
X2211000D01*
X2166000Y965000D02*
Y1055000D01*
X2147500Y300000D02*
X2252500D01*
X2200000Y247500D02*
Y352500D01*
X1897500Y300000D02*
X2002500D01*
X1950000Y247500D02*
Y352500D01*
X1647500Y300000D02*
X1752500D01*
X1700000Y247500D02*
Y352500D01*
X1397500Y300000D02*
X1502500D01*
X1450000Y247500D02*
Y352500D01*
X1147500Y300000D02*
X1252500D01*
X1200000Y247500D02*
Y352500D01*
X2397500Y300000D02*
X2502500D01*
X2450000Y247500D02*
Y352500D01*
X4795000Y4500000D02*
X4885000D01*
X4840000Y4455000D02*
Y4545000D01*
X1281000Y4480000D02*
X1371000D01*
X1326000Y4435000D02*
Y4525000D01*
X1027000Y4480000D02*
X1117000D01*
X1072000Y4435000D02*
Y4525000D01*
X1535000Y4480000D02*
X1625000D01*
X1580000Y4435000D02*
Y4525000D01*
X4357500Y4490000D02*
X4462500D01*
X4410000Y4437500D02*
Y4542500D01*
X4107500Y4490000D02*
X4212500D01*
X4160000Y4437500D02*
Y4542500D01*
X3857500Y4490000D02*
X3962500D01*
X3910000Y4437500D02*
Y4542500D01*
X3607500Y4490000D02*
X3712500D01*
X3660000Y4437500D02*
Y4542500D01*
X3357500Y4490000D02*
X3462500D01*
X3410000Y4437500D02*
Y4542500D01*
X2907500Y4490000D02*
X3012500D01*
X2960000Y4437500D02*
Y4542500D01*
X2657500Y4490000D02*
X2762500D01*
X2710000Y4437500D02*
Y4542500D01*
X2407500Y4490000D02*
X2512500D01*
X2460000Y4437500D02*
Y4542500D01*
X2157500Y4490000D02*
X2262500D01*
X2210000Y4437500D02*
Y4542500D01*
X1907500Y4490000D02*
X2012500D01*
X1960000Y4437500D02*
Y4542500D01*
X9275000Y1750000D02*
X9705000D01*
X9490000Y1535000D02*
Y1965000D01*
X9275000Y1200000D02*
X9705000D01*
X9490000Y985000D02*
Y1415000D01*
X9275000Y2300000D02*
X9705000D01*
X9490000Y2085000D02*
Y2515000D01*
X8745000Y1665000D02*
X9175000D01*
X8960000Y1450000D02*
Y1880000D01*
X8745000Y2385000D02*
X9175000D01*
X8960000Y2170000D02*
Y2600000D01*
X4345000Y260000D02*
X4435000D01*
X4390000Y215000D02*
Y305000D01*
X4599000Y260000D02*
X4689000D01*
X4644000Y215000D02*
Y305000D01*
X4091000Y260000D02*
X4181000D01*
X4136000Y215000D02*
Y305000D01*
X5049000Y4500000D02*
X5139000D01*
X5094000Y4455000D02*
Y4545000D01*
X557500Y3730000D02*
X662500D01*
X610000Y3677500D02*
Y3782500D01*
X557500Y3479998D02*
X662500D01*
X610000Y3427498D02*
Y3532498D01*
X557500Y3980002D02*
X662500D01*
X610000Y3927502D02*
Y4032502D01*
X557500Y3230001D02*
X662500D01*
X610000Y3177501D02*
Y3282501D01*
X4341000Y550000D02*
X4431000D01*
X4386000Y505000D02*
Y595000D01*
X4595000Y550000D02*
X4685000D01*
X4640000Y505000D02*
Y595000D01*
X370002Y1337500D02*
X420002D01*
X395002Y1312500D02*
Y1362500D01*
X370002Y922500D02*
X420002D01*
X395002Y897500D02*
Y947500D01*
X1065000Y2330000D02*
X1095000D01*
X1080000Y2315000D02*
Y2345000D01*
X1074766Y1620235D02*
X1104766D01*
X1089766Y1605235D02*
Y1635234D01*
X1055000Y1800000D02*
X1085000D01*
X1070000Y1785000D02*
Y1815000D01*
X1085000Y1960000D02*
X1115000D01*
X1100000Y1945000D02*
Y1975000D01*
X1075000Y2100000D02*
X1105000D01*
X1090000Y2085000D02*
Y2115000D01*
X8855000Y2795000D02*
X8885000D01*
X8870000Y2780000D02*
Y2810000D01*
X9855000Y2295000D02*
X9885000D01*
X9870000Y2280000D02*
Y2310000D01*
X9730000Y545000D02*
X9760000D01*
X9745000Y530000D02*
Y560000D01*
X8980000Y4545000D02*
X9010000D01*
X8995000Y4530000D02*
Y4560000D01*
X7855000Y3295000D02*
X7885000D01*
X7870000Y3280000D02*
Y3310000D01*
X8605000Y3295000D02*
X8635000D01*
X8620000Y3280000D02*
Y3310000D01*
X7230000Y3545000D02*
X7260000D01*
X7245000Y3530000D02*
Y3560000D01*
X8730000Y4545000D02*
X8760000D01*
X8745000Y4530000D02*
Y4560000D01*
X7230000Y3045000D02*
X7260000D01*
X7245000Y3030000D02*
Y3060000D01*
X7105000Y4295000D02*
X7135000D01*
X7120000Y4280000D02*
Y4310000D01*
X9480000Y545000D02*
X9510000D01*
X9495000Y530000D02*
Y560000D01*
X8605000Y295000D02*
X8635000D01*
X8620000Y280000D02*
Y310000D01*
X6980000Y3045000D02*
X7010000D01*
X6995000Y3030000D02*
Y3060000D01*
X6855000Y3795000D02*
X6885000D01*
X6870000Y3780000D02*
Y3810000D01*
X8105000Y3295000D02*
X8135000D01*
X8120000Y3280000D02*
Y3310000D01*
X6355000Y3795000D02*
X6385000D01*
X6370000Y3780000D02*
Y3810000D01*
X6230000Y3545000D02*
X6260000D01*
X6245000Y3530000D02*
Y3560000D01*
X7480000Y3545000D02*
X7510000D01*
X7495000Y3530000D02*
Y3560000D01*
X6980000Y3545000D02*
X7010000D01*
X6995000Y3530000D02*
Y3560000D01*
X6730000Y3045000D02*
X6760000D01*
X6745000Y3030000D02*
Y3060000D01*
X6105000Y4295000D02*
X6135000D01*
X6120000Y4280000D02*
Y4310000D01*
X6105000Y3795000D02*
X6135000D01*
X6120000Y3780000D02*
Y3810000D01*
X5605000Y795000D02*
X5635000D01*
X5620000Y780000D02*
Y810000D01*
X8230000Y3545000D02*
X8260000D01*
X8245000Y3530000D02*
Y3560000D01*
X8480000Y3045000D02*
X8510000D01*
X8495000Y3030000D02*
Y3060000D01*
X9480000Y3045000D02*
X9510000D01*
X9495000Y3030000D02*
Y3060000D01*
X7105000Y3795000D02*
X7135000D01*
X7120000Y3780000D02*
Y3810000D01*
X7605000Y3295000D02*
X7635000D01*
X7620000Y3280000D02*
Y3310000D01*
X8605000Y4295000D02*
X8635000D01*
X8620000Y4280000D02*
Y4310000D01*
X8105000Y4295000D02*
X8135000D01*
X8120000Y4280000D02*
Y4310000D01*
X7230000Y4545000D02*
X7260000D01*
X7245000Y4530000D02*
Y4560000D01*
X8105000Y3795000D02*
X8135000D01*
X8120000Y3780000D02*
Y3810000D01*
X9855000Y1795000D02*
X9885000D01*
X9870000Y1780000D02*
Y1810000D01*
X9855000Y1295000D02*
X9885000D01*
X9870000Y1280000D02*
Y1310000D01*
X8355000Y3295000D02*
X8385000D01*
X8370000Y3280000D02*
Y3310000D01*
X9230000Y4545000D02*
X9260000D01*
X9245000Y4530000D02*
Y4560000D01*
X7480000Y4045000D02*
X7510000D01*
X7495000Y4030000D02*
Y4060000D01*
X9105000Y3295000D02*
X9135000D01*
X9120000Y3280000D02*
Y3310000D01*
X6980000Y4045000D02*
X7010000D01*
X6995000Y4030000D02*
Y4060000D01*
X6230000Y4045000D02*
X6260000D01*
X6245000Y4030000D02*
Y4060000D01*
X5980000Y4045000D02*
X6010000D01*
X5995000Y4030000D02*
Y4060000D01*
X9605000Y2795000D02*
X9635000D01*
X9620000Y2780000D02*
Y2810000D01*
X8730000Y3045000D02*
X8760000D01*
X8745000Y3030000D02*
Y3060000D01*
X9230000Y3045000D02*
X9260000D01*
X9245000Y3030000D02*
Y3060000D01*
X8230000Y4045000D02*
X8260000D01*
X8245000Y4030000D02*
Y4060000D01*
X9730000Y3045000D02*
X9760000D01*
X9745000Y3030000D02*
Y3060000D01*
X6480000Y3045000D02*
X6510000D01*
X6495000Y3030000D02*
Y3060000D01*
X7355000Y4295000D02*
X7385000D01*
X7370000Y4280000D02*
Y4310000D01*
X9105000Y2795000D02*
X9135000D01*
X9120000Y2780000D02*
Y2810000D01*
X5855000Y295000D02*
X5885000D01*
X5870000Y280000D02*
Y310000D01*
X6480000Y3545000D02*
X6510000D01*
X6495000Y3530000D02*
Y3560000D01*
X7480000Y4545000D02*
X7510000D01*
X7495000Y4530000D02*
Y4560000D01*
X8355000Y4295000D02*
X8385000D01*
X8370000Y4280000D02*
Y4310000D01*
X8855000Y3295000D02*
X8885000D01*
X8870000Y3280000D02*
Y3310000D01*
X8730000Y545000D02*
X8760000D01*
X8745000Y530000D02*
Y560000D01*
X7355000Y3795000D02*
X7385000D01*
X7370000Y3780000D02*
Y3810000D01*
X8480000Y4545000D02*
X8510000D01*
X8495000Y4530000D02*
Y4560000D01*
X6355000Y4295000D02*
X6385000D01*
X6370000Y4280000D02*
Y4310000D01*
X9355000Y295000D02*
X9385000D01*
X9370000Y280000D02*
Y310000D01*
X9105000Y295000D02*
X9135000D01*
X9120000Y280000D02*
Y310000D01*
X9605000Y3295000D02*
X9635000D01*
X9620000Y3280000D02*
Y3310000D01*
X9230000Y545000D02*
X9260000D01*
X9245000Y530000D02*
Y560000D01*
X8105000Y2795000D02*
X8135000D01*
X8120000Y2780000D02*
Y2810000D01*
X6105000Y1295000D02*
X6135000D01*
X6120000Y1280000D02*
Y1310000D01*
X8355000Y3795000D02*
X8385000D01*
X8370000Y3780000D02*
Y3810000D01*
X8980000Y545000D02*
X9010000D01*
X8995000Y530000D02*
Y560000D01*
X6230000Y4545000D02*
X6260000D01*
X6245000Y4530000D02*
Y4560000D01*
X9855000Y4295000D02*
X9885000D01*
X9870000Y4280000D02*
Y4310000D01*
X8855000Y295000D02*
X8885000D01*
X8870000Y280000D02*
Y310000D01*
X5980000Y1045000D02*
X6010000D01*
X5995000Y1030000D02*
Y1060000D01*
X9855000Y3295000D02*
X9885000D01*
X9870000Y3280000D02*
Y3310000D01*
X9855000Y2795000D02*
X9885000D01*
X9870000Y2780000D02*
Y2810000D01*
X9855000Y795000D02*
X9885000D01*
X9870000Y780000D02*
Y810000D01*
X9355000Y2795000D02*
X9385000D01*
X9370000Y2780000D02*
Y2810000D01*
X6730000Y4045000D02*
X6760000D01*
X6745000Y4030000D02*
Y4060000D01*
X9355000Y3295000D02*
X9385000D01*
X9370000Y3280000D02*
Y3310000D01*
X7230000Y4045000D02*
X7260000D01*
X7245000Y4030000D02*
Y4060000D01*
X6480000Y4045000D02*
X6510000D01*
X6495000Y4030000D02*
Y4060000D01*
X6980000Y4545000D02*
X7010000D01*
X6995000Y4530000D02*
Y4560000D01*
X5980000Y4545000D02*
X6010000D01*
X5995000Y4530000D02*
Y4560000D01*
X8605000Y2795000D02*
X8635000D01*
X8620000Y2780000D02*
Y2810000D01*
X7605000Y3795000D02*
X7635000D01*
X7620000Y3780000D02*
Y3810000D01*
X8980000Y3045000D02*
X9010000D01*
X8995000Y3030000D02*
Y3060000D01*
X8230000Y4545000D02*
X8260000D01*
X8245000Y4530000D02*
Y4560000D01*
X7480000Y3045000D02*
X7510000D01*
X7495000Y3030000D02*
Y3060000D01*
X7730000Y4045000D02*
X7760000D01*
X7745000Y4030000D02*
Y4060000D01*
X9692516Y3515007D02*
X9722516D01*
X9707516Y3500007D02*
Y3530007D01*
X9767516Y3515007D02*
X9797516D01*
X9782516Y3500007D02*
Y3530007D01*
X9767516Y3590007D02*
X9797516D01*
X9782516Y3575007D02*
Y3605007D01*
X9767516Y4040008D02*
X9797516D01*
X9782516Y4025008D02*
Y4055008D01*
X9767516Y3965008D02*
X9797516D01*
X9782516Y3950008D02*
Y3980008D01*
X9767516Y3890007D02*
X9797516D01*
X9782516Y3875007D02*
Y3905007D01*
X9767516Y3815007D02*
X9797516D01*
X9782516Y3800007D02*
Y3830007D01*
X9767516Y3740007D02*
X9797516D01*
X9782516Y3725007D02*
Y3755007D01*
X9767516Y3665007D02*
X9797516D01*
X9782516Y3650007D02*
Y3680007D01*
X9767516Y3440007D02*
X9797516D01*
X9782516Y3425007D02*
Y3455007D01*
X9692516Y4040008D02*
X9722516D01*
X9707516Y4025008D02*
Y4055008D01*
X9692516Y3965008D02*
X9722516D01*
X9707516Y3950008D02*
Y3980008D01*
X9692516Y3440007D02*
X9722516D01*
X9707516Y3425007D02*
Y3455007D01*
X9617516Y4040008D02*
X9647516D01*
X9632516Y4025008D02*
Y4055008D01*
X9617516Y3440007D02*
X9647516D01*
X9632516Y3425007D02*
Y3455007D01*
X9542516Y4040008D02*
X9572516D01*
X9557516Y4025008D02*
Y4055008D01*
X9542516Y3440007D02*
X9572516D01*
X9557516Y3425007D02*
Y3455007D01*
X9467516Y4040008D02*
X9497516D01*
X9482516Y4025008D02*
Y4055008D01*
X9467516Y3440007D02*
X9497516D01*
X9482516Y3425007D02*
Y3455007D01*
X9392516Y4040008D02*
X9422516D01*
X9407516Y4025008D02*
Y4055008D01*
X9392516Y3440007D02*
X9422516D01*
X9407516Y3425007D02*
Y3455007D01*
X9317516Y4040008D02*
X9347515D01*
X9332515Y4025008D02*
Y4055008D01*
X9317516Y3440007D02*
X9347515D01*
X9332515Y3425007D02*
Y3455007D01*
X9242515Y4040008D02*
X9272515D01*
X9257515Y4025008D02*
Y4055008D01*
X9242515Y3965008D02*
X9272515D01*
X9257515Y3950008D02*
Y3980008D01*
X9242515Y3515007D02*
X9272515D01*
X9257515Y3500007D02*
Y3530007D01*
X9242515Y3440007D02*
X9272515D01*
X9257515Y3425007D02*
Y3455007D01*
X9167515Y4040008D02*
X9197515D01*
X9182515Y4025008D02*
Y4055008D01*
X9167515Y3965008D02*
X9197515D01*
X9182515Y3950008D02*
Y3980008D01*
X9167515Y3890007D02*
X9197515D01*
X9182515Y3875007D02*
Y3905007D01*
X9167515Y3815007D02*
X9197515D01*
X9182515Y3800007D02*
Y3830007D01*
X9167515Y3740007D02*
X9197515D01*
X9182515Y3725007D02*
Y3755007D01*
X9167515Y3665007D02*
X9197515D01*
X9182515Y3650007D02*
Y3680007D01*
X9167515Y3590007D02*
X9197515D01*
X9182515Y3575007D02*
Y3605007D01*
X9167515Y3515007D02*
X9197515D01*
X9182515Y3500007D02*
Y3530007D01*
X9167515Y3440007D02*
X9197515D01*
X9182515Y3425007D02*
Y3455007D01*
X7110003Y2365001D02*
X7140003D01*
X7125003Y2350001D02*
Y2380001D01*
X7110003Y2255001D02*
X7140003D01*
X7125003Y2240001D02*
Y2270001D01*
X7110003Y1595001D02*
X7140003D01*
X7125003Y1580001D02*
Y1610001D01*
X7110003Y1485001D02*
X7140003D01*
X7125003Y1470001D02*
Y1500001D01*
X7110003Y825001D02*
X7140003D01*
X7125003Y810001D02*
Y840001D01*
X7110003Y715001D02*
X7140003D01*
X7125003Y700001D02*
Y730001D01*
X7000003Y2365001D02*
X7030003D01*
X7015003Y2350001D02*
Y2380001D01*
X7000003Y2255001D02*
X7030003D01*
X7015003Y2240001D02*
Y2270001D01*
X7000003Y1595001D02*
X7030003D01*
X7015003Y1580001D02*
Y1610001D01*
X7000003Y1485001D02*
X7030003D01*
X7015003Y1470001D02*
Y1500001D01*
X7000003Y825001D02*
X7030003D01*
X7015003Y810001D02*
Y840001D01*
X7000003Y715001D02*
X7030003D01*
X7015003Y700001D02*
Y730001D01*
X6890003Y2365001D02*
X6920003D01*
X6905003Y2350001D02*
Y2380001D01*
X6890003Y2255001D02*
X6920003D01*
X6905003Y2240001D02*
Y2270001D01*
X6890003Y1595001D02*
X6920003D01*
X6905003Y1580001D02*
Y1610001D01*
X6890003Y1485001D02*
X6920003D01*
X6905003Y1470001D02*
Y1500001D01*
X6890003Y825001D02*
X6920003D01*
X6905003Y810001D02*
Y840001D01*
X6890003Y715001D02*
X6920003D01*
X6905003Y700001D02*
Y730001D01*
X6780003Y2365001D02*
X6810003D01*
X6795003Y2350001D02*
Y2380001D01*
X6780003Y2255001D02*
X6810003D01*
X6795003Y2240001D02*
Y2270001D01*
X6780003Y1595001D02*
X6810003D01*
X6795003Y1580001D02*
Y1610001D01*
X6780003Y1485001D02*
X6810003D01*
X6795003Y1470001D02*
Y1500001D01*
X6780003Y825001D02*
X6810003D01*
X6795003Y810001D02*
Y840001D01*
X6780003Y715001D02*
X6810003D01*
X6795003Y700001D02*
Y730001D01*
X6670003Y2365001D02*
X6700003D01*
X6685003Y2350001D02*
Y2380001D01*
X6670003Y2255001D02*
X6700003D01*
X6685003Y2240001D02*
Y2270001D01*
X6670003Y1595001D02*
X6700003D01*
X6685003Y1580001D02*
Y1610001D01*
X6670003Y1485001D02*
X6700003D01*
X6685003Y1470001D02*
Y1500001D01*
X6670003Y825001D02*
X6700003D01*
X6685003Y810001D02*
Y840001D01*
X6670003Y715001D02*
X6700003D01*
X6685003Y700001D02*
Y730001D01*
X6560003Y2365001D02*
X6590003D01*
X6575003Y2350001D02*
Y2380001D01*
X6560003Y2255001D02*
X6590003D01*
X6575003Y2240001D02*
Y2270001D01*
X6560003Y1595001D02*
X6590003D01*
X6575003Y1580001D02*
Y1610001D01*
X6560003Y1485001D02*
X6590003D01*
X6575003Y1470001D02*
Y1500001D01*
X6560003Y825001D02*
X6590003D01*
X6575003Y810001D02*
Y840001D01*
X6560003Y715001D02*
X6590003D01*
X6575003Y700001D02*
Y730001D01*
X6450003Y2365001D02*
X6480003D01*
X6465003Y2350001D02*
Y2380001D01*
X6450003Y2255001D02*
X6480003D01*
X6465003Y2240001D02*
Y2270001D01*
X6450003Y1485001D02*
X6480003D01*
X6465003Y1470001D02*
Y1500001D01*
X6450003Y715001D02*
X6480003D01*
X6465003Y700001D02*
Y730001D01*
X9154996Y1144999D02*
X9184996D01*
X9169996Y1129999D02*
Y1159999D01*
X9079997Y994999D02*
X9109997D01*
X9094997Y979999D02*
Y1009999D01*
X9004996Y1144999D02*
X9034996D01*
X9019996Y1129999D02*
Y1159999D01*
X8929997Y994999D02*
X8959997D01*
X8944997Y979999D02*
Y1009999D01*
X8854997Y1144999D02*
X8884996D01*
X8869996Y1129999D02*
Y1159999D01*
X8779997Y994999D02*
X8809997D01*
X8794997Y979999D02*
Y1009999D01*
X8704997Y1144999D02*
X8734996D01*
X8719997Y1129999D02*
Y1159999D01*
X8629997Y994999D02*
X8659997D01*
X8644997Y979999D02*
Y1009999D01*
X8554997Y1144999D02*
X8584997D01*
X8569997Y1129999D02*
Y1159999D01*
X8479997Y994999D02*
X8509997D01*
X8494997Y979999D02*
Y1009999D01*
X8404997Y1144999D02*
X8434997D01*
X8419997Y1129999D02*
Y1159999D01*
X8329997Y994999D02*
X8359997D01*
X8344997Y979999D02*
Y1009999D01*
X8254997Y1144999D02*
X8284997D01*
X8269997Y1129999D02*
Y1159999D01*
X8179997Y994999D02*
X8209997D01*
X8194997Y979999D02*
Y1009999D01*
X7914997Y1154999D02*
X7944997D01*
X7929997Y1139999D02*
Y1169999D01*
X7839997Y1004999D02*
X7869997D01*
X7854997Y989999D02*
Y1019999D01*
X7764997Y1154999D02*
X7794997D01*
X7779997Y1139999D02*
Y1169999D01*
X7689997Y1004999D02*
X7719997D01*
X7704997Y989999D02*
Y1019999D01*
X7614997Y1154999D02*
X7644997D01*
X7629997Y1139999D02*
Y1169999D01*
X7539997Y1004999D02*
X7569997D01*
X7554997Y989999D02*
Y1019999D01*
X7614997Y854999D02*
X7644997D01*
X7629997Y839999D02*
Y869999D01*
X7464997Y1154999D02*
X7494997D01*
X7479997Y1139999D02*
Y1169999D01*
X7389997Y1004999D02*
X7419997D01*
X7404997Y989999D02*
Y1019999D01*
X7464997Y854999D02*
X7494997D01*
X7479997Y839999D02*
Y869999D01*
X7389997Y704999D02*
X7419997D01*
X7404997Y689999D02*
Y719999D01*
X7314997Y1154999D02*
X7344997D01*
X7329997Y1139999D02*
Y1169999D01*
X7239997Y1004999D02*
X7269997D01*
X7254997Y989999D02*
Y1019999D01*
X7164997Y1154999D02*
X7194997D01*
X7179997Y1139999D02*
Y1169999D01*
X8554997Y1894999D02*
X8584997D01*
X8569997Y1879999D02*
Y1909999D01*
X8479997Y1744999D02*
X8509997D01*
X8494997Y1729999D02*
Y1759999D01*
X8554997Y1594999D02*
X8584997D01*
X8569997Y1579999D02*
Y1609999D01*
X8479997Y1444999D02*
X8509997D01*
X8494997Y1429999D02*
Y1459999D01*
X8404997Y1894999D02*
X8434997D01*
X8419997Y1879999D02*
Y1909999D01*
X8329997Y1744999D02*
X8359997D01*
X8344997Y1729999D02*
Y1759999D01*
X8404997Y1594999D02*
X8434997D01*
X8419997Y1579999D02*
Y1609999D01*
X8329997Y1444999D02*
X8359997D01*
X8344997Y1429999D02*
Y1459999D01*
X8254997Y1894999D02*
X8284997D01*
X8269997Y1879999D02*
Y1909999D01*
X8179997Y1744999D02*
X8209997D01*
X8194997Y1729999D02*
Y1759999D01*
X8254997Y1594999D02*
X8284997D01*
X8269997Y1579999D02*
Y1609999D01*
X8179997Y1444999D02*
X8209997D01*
X8194997Y1429999D02*
Y1459999D01*
X8104997Y1894999D02*
X8134997D01*
X8119997Y1879999D02*
Y1909999D01*
X8029997Y1744999D02*
X8059997D01*
X8044997Y1729999D02*
Y1759999D01*
X8104997Y1594999D02*
X8134997D01*
X8119997Y1579999D02*
Y1609999D01*
X8029997Y1444999D02*
X8059997D01*
X8044997Y1429999D02*
Y1459999D01*
X7954997Y1894999D02*
X7984997D01*
X7969997Y1879999D02*
Y1909999D01*
X7879997Y1744999D02*
X7909997D01*
X7894997Y1729999D02*
Y1759999D01*
X7954997Y1594999D02*
X7984997D01*
X7969997Y1579999D02*
Y1609999D01*
X7879997Y1444999D02*
X7909997D01*
X7894997Y1429999D02*
Y1459999D01*
X7804997Y1894999D02*
X7834997D01*
X7819997Y1879999D02*
Y1909999D01*
X7729997Y1744999D02*
X7759997D01*
X7744997Y1729999D02*
Y1759999D01*
X7804997Y1594999D02*
X7834997D01*
X7819997Y1579999D02*
Y1609999D01*
X7729997Y1444999D02*
X7759997D01*
X7744997Y1429999D02*
Y1459999D01*
X7654997Y1894999D02*
X7684997D01*
X7669997Y1879999D02*
Y1909999D01*
X7579997Y1744999D02*
X7609997D01*
X7594997Y1729999D02*
Y1759999D01*
X7654997Y1594999D02*
X7684997D01*
X7669997Y1579999D02*
Y1609999D01*
X7579997Y1444999D02*
X7609997D01*
X7594997Y1429999D02*
Y1459999D01*
X7504997Y1894999D02*
X7534997D01*
X7519997Y1879999D02*
Y1909999D01*
X7429997Y1744999D02*
X7459997D01*
X7444997Y1729999D02*
Y1759999D01*
X7504997Y1594999D02*
X7534997D01*
X7519997Y1579999D02*
Y1609999D01*
X7429997Y1444999D02*
X7459997D01*
X7444997Y1429999D02*
Y1459999D01*
X7354997Y1894999D02*
X7384997D01*
X7369997Y1879999D02*
Y1909999D01*
X7204997Y1894999D02*
X7234997D01*
X7219997Y1879999D02*
Y1909999D01*
X8629997Y2494999D02*
X8659997D01*
X8644997Y2479999D02*
Y2509999D01*
X8629997Y2194999D02*
X8659997D01*
X8644997Y2179999D02*
Y2209999D01*
X8479997Y2494999D02*
X8509997D01*
X8494997Y2479999D02*
Y2509999D01*
X8554997Y2344999D02*
X8584997D01*
X8569997Y2329999D02*
Y2359999D01*
X8479997Y2194999D02*
X8509997D01*
X8494997Y2179999D02*
Y2209999D01*
X8329997Y2494999D02*
X8359997D01*
X8344997Y2479999D02*
Y2509999D01*
X8404997Y2344999D02*
X8434997D01*
X8419997Y2329999D02*
Y2359999D01*
X8329997Y2194999D02*
X8359997D01*
X8344997Y2179999D02*
Y2209999D01*
X8179997Y2494999D02*
X8209997D01*
X8194997Y2479999D02*
Y2509999D01*
X8254997Y2344999D02*
X8284997D01*
X8269997Y2329999D02*
Y2359999D01*
X8179997Y2194999D02*
X8209997D01*
X8194997Y2179999D02*
Y2209999D01*
X7879997Y2494999D02*
X7909997D01*
X7894997Y2479999D02*
Y2509999D01*
X7879997Y2194999D02*
X7909997D01*
X7894997Y2179999D02*
Y2209999D01*
X7729997Y2494999D02*
X7759997D01*
X7744997Y2479999D02*
Y2509999D01*
X7804997Y2344999D02*
X7834997D01*
X7819997Y2329999D02*
Y2359999D01*
X7729997Y2194999D02*
X7759997D01*
X7744997Y2179999D02*
Y2209999D01*
X7579997Y2494999D02*
X7609997D01*
X7594997Y2479999D02*
Y2509999D01*
X7654997Y2344999D02*
X7684997D01*
X7669997Y2329999D02*
Y2359999D01*
X7579997Y2194999D02*
X7609997D01*
X7594997Y2179999D02*
Y2209999D01*
X7429997Y2794998D02*
X7459997D01*
X7444997Y2779999D02*
Y2809998D01*
X7504997Y2644999D02*
X7534997D01*
X7519997Y2629999D02*
Y2659998D01*
X7429997Y2494999D02*
X7459997D01*
X7444997Y2479999D02*
Y2509999D01*
X7504997Y2344999D02*
X7534997D01*
X7519997Y2329999D02*
Y2359999D01*
X7429997Y2194999D02*
X7459997D01*
X7444997Y2179999D02*
Y2209999D01*
X7279997Y2794998D02*
X7309997D01*
X7294997Y2779999D02*
Y2809998D01*
X7354997Y2644999D02*
X7384997D01*
X7369997Y2629999D02*
Y2659998D01*
X7354997Y2344999D02*
X7384997D01*
X7369997Y2329999D02*
Y2359999D01*
X7279997Y2194999D02*
X7309997D01*
X7294997Y2179999D02*
Y2209999D01*
X7129997Y2794998D02*
X7159997D01*
X7144997Y2779999D02*
Y2809998D01*
X7204997Y2644999D02*
X7234997D01*
X7219997Y2629999D02*
Y2659998D01*
X6829997Y2794998D02*
X6859997D01*
X6844997Y2779999D02*
Y2809998D01*
X6904997Y2044999D02*
X6934997D01*
X6919997Y2029999D02*
Y2059999D01*
X6829997Y1894999D02*
X6859997D01*
X6844997Y1879999D02*
Y1909999D01*
X6829997Y1294999D02*
X6859997D01*
X6844997Y1279999D02*
Y1309999D01*
X6904997Y1144999D02*
X6934997D01*
X6919997Y1129999D02*
Y1159999D01*
X6679997Y2794998D02*
X6709997D01*
X6694997Y2779999D02*
Y2809998D01*
X6754997Y2644999D02*
X6784997D01*
X6769997Y2629999D02*
Y2659998D01*
X6754997Y2044999D02*
X6784997D01*
X6769997Y2029999D02*
Y2059999D01*
X6679997Y1894999D02*
X6709997D01*
X6694997Y1879999D02*
Y1909999D01*
X6679997Y1294999D02*
X6709997D01*
X6694997Y1279999D02*
Y1309999D01*
X6754997Y1144999D02*
X6784997D01*
X6769997Y1129999D02*
Y1159999D01*
X6529997Y2794998D02*
X6559997D01*
X6544997Y2779999D02*
Y2809998D01*
X6604997Y2644999D02*
X6634997D01*
X6619997Y2629999D02*
Y2659998D01*
X6604997Y2044999D02*
X6634997D01*
X6619997Y2029999D02*
Y2059999D01*
X6529997Y1894999D02*
X6559997D01*
X6544997Y1879999D02*
Y1909999D01*
X6529997Y1294999D02*
X6559997D01*
X6544997Y1279999D02*
Y1309999D01*
X6604997Y1144999D02*
X6634997D01*
X6619997Y1129999D02*
Y1159999D01*
X6379997Y2794998D02*
X6409997D01*
X6394997Y2779999D02*
Y2809998D01*
X6454997Y2044999D02*
X6484997D01*
X6469997Y2029999D02*
Y2059999D01*
X6379997Y1294999D02*
X6409997D01*
X6394997Y1279999D02*
Y1309999D01*
X6454997Y1144999D02*
X6484997D01*
X6469997Y1129999D02*
Y1159999D01*
X1755000Y3970000D02*
X1785000D01*
X1770000Y3955000D02*
Y3985000D01*
X725000Y4130000D02*
X755000D01*
X740000Y4115000D02*
Y4145000D01*
X1215000Y2210000D02*
X1245000D01*
X1230000Y2195000D02*
Y2225000D01*
X1119763Y1755231D02*
X1149763D01*
X1134763Y1740231D02*
Y1770231D01*
X1285000Y2150000D02*
X1315000D01*
X1300000Y2135000D02*
Y2165000D01*
X1075000Y2200000D02*
X1105000D01*
X1090000Y2185000D02*
Y2215000D01*
X995000Y2910000D02*
X1025000D01*
X1010000Y2895000D02*
Y2925000D01*
X1070235Y2835235D02*
X1100235D01*
X1085235Y2820235D02*
Y2850235D01*
X845235Y3060235D02*
X875235D01*
X860235Y3045235D02*
Y3075235D01*
X920235Y2985235D02*
X950235D01*
X935235Y2970235D02*
Y3000235D01*
X910000Y2825000D02*
X940000D01*
X925000Y2810000D02*
Y2840000D01*
X835000Y2900000D02*
X865000D01*
X850000Y2885000D02*
Y2915000D01*
X1665000Y1990000D02*
X1695000D01*
X1680000Y1975000D02*
Y2005000D01*
X1435000Y4160000D02*
X1465000D01*
X1450000Y4145000D02*
Y4175000D01*
X1895000Y3640000D02*
X1925000D01*
X1910000Y3625000D02*
Y3655000D01*
X1135000Y3050000D02*
X1165000D01*
X1150000Y3035000D02*
Y3065000D01*
X1060000Y2975000D02*
X1090000D01*
X1075000Y2960000D02*
Y2990000D01*
X1254999Y2865000D02*
X1284999D01*
X1269999Y2850000D02*
Y2880000D01*
X1135000Y2900000D02*
X1165000D01*
X1150000Y2885000D02*
Y2915000D01*
X1210000Y2975000D02*
X1240000D01*
X1225000Y2960000D02*
Y2990000D01*
X985000Y3050000D02*
X1015000D01*
X1000000Y3035000D02*
Y3065000D01*
X1665000Y3590000D02*
X1695000D01*
X1680000Y3575000D02*
Y3605000D01*
X3580352Y2373051D02*
X3610352D01*
X3595352Y2358051D02*
Y2388051D01*
X4310003Y2375002D02*
X4340003D01*
X4325003Y2360002D02*
Y2390002D01*
X4310003Y2275002D02*
X4340003D01*
X4325003Y2260002D02*
Y2290002D01*
X4310003Y2175002D02*
X4340003D01*
X4325003Y2160002D02*
Y2190002D01*
X4310003Y2075002D02*
X4340003D01*
X4325003Y2060002D02*
Y2090002D01*
X4310003Y1975002D02*
X4340003D01*
X4325003Y1960002D02*
Y1990002D01*
X4310003Y1875002D02*
X4340003D01*
X4325003Y1860002D02*
Y1890002D01*
X4310003Y1775002D02*
X4340003D01*
X4325003Y1760002D02*
Y1790002D01*
X4310003Y1675002D02*
X4340003D01*
X4325003Y1660002D02*
Y1690002D01*
X4210003Y2375002D02*
X4240003D01*
X4225003Y2360002D02*
Y2390002D01*
X4210003Y2275002D02*
X4240003D01*
X4225003Y2260002D02*
Y2290002D01*
X4210003Y2175002D02*
X4240003D01*
X4225003Y2160002D02*
Y2190002D01*
X4210003Y2075002D02*
X4240003D01*
X4225003Y2060002D02*
Y2090002D01*
X4210003Y1975002D02*
X4240003D01*
X4225003Y1960002D02*
Y1990002D01*
X4210003Y1875002D02*
X4240003D01*
X4225003Y1860002D02*
Y1890002D01*
X4210003Y1775002D02*
X4240003D01*
X4225003Y1760002D02*
Y1790002D01*
X4210003Y1675002D02*
X4240003D01*
X4225003Y1660002D02*
Y1690002D01*
X4110003Y2375002D02*
X4140003D01*
X4125003Y2360002D02*
Y2390002D01*
X4110003Y2275002D02*
X4140003D01*
X4125003Y2260002D02*
Y2290002D01*
X4110003Y2175002D02*
X4140003D01*
X4125003Y2160002D02*
Y2190002D01*
X4110003Y2075002D02*
X4140003D01*
X4125003Y2060002D02*
Y2090002D01*
X4110003Y1975002D02*
X4140003D01*
X4125003Y1960002D02*
Y1990002D01*
X4110003Y1875002D02*
X4140003D01*
X4125003Y1860002D02*
Y1890002D01*
X4110003Y1775002D02*
X4140003D01*
X4125003Y1760002D02*
Y1790002D01*
X4110003Y1675002D02*
X4140003D01*
X4125003Y1660002D02*
Y1690002D01*
X4010003Y2375002D02*
X4040003D01*
X4025003Y2360002D02*
Y2390002D01*
X4010003Y2275002D02*
X4040003D01*
X4025003Y2260002D02*
Y2290002D01*
X4010003Y2175002D02*
X4040003D01*
X4025003Y2160002D02*
Y2190002D01*
X4010003Y2075002D02*
X4040003D01*
X4025003Y2060002D02*
Y2090002D01*
X4010003Y1975002D02*
X4040003D01*
X4025003Y1960002D02*
Y1990002D01*
X4010003Y1875002D02*
X4040003D01*
X4025003Y1860002D02*
Y1890002D01*
X4010003Y1775002D02*
X4040003D01*
X4025003Y1760002D02*
Y1790002D01*
X4010003Y1675002D02*
X4040003D01*
X4025003Y1660002D02*
Y1690002D01*
X5450004Y3505003D02*
X5480004D01*
X5465004Y3490003D02*
Y3520003D01*
X5450004Y3405003D02*
X5480004D01*
X5465004Y3390003D02*
Y3420003D01*
X5450004Y3305003D02*
X5480004D01*
X5465004Y3290003D02*
Y3320003D01*
X5350004Y3505003D02*
X5380004D01*
X5365004Y3490003D02*
Y3520003D01*
X5350004Y3405003D02*
X5380004D01*
X5365004Y3390003D02*
Y3420003D01*
X5350004Y3305003D02*
X5380004D01*
X5365004Y3290003D02*
Y3320003D01*
X5250004Y3505003D02*
X5280004D01*
X5265004Y3490003D02*
Y3520003D01*
X5250004Y3405003D02*
X5280004D01*
X5265004Y3390003D02*
Y3420003D01*
X5250004Y3305003D02*
X5280004D01*
X5265004Y3290003D02*
Y3320003D01*
X5599985Y1294994D02*
X5629985D01*
X5614985Y1279994D02*
Y1309994D01*
X5599985Y1174994D02*
X5629985D01*
X5614985Y1159994D02*
Y1189994D01*
X5539985Y1294994D02*
X5569985D01*
X5554985Y1279994D02*
Y1309994D01*
X5569985Y1234994D02*
X5599985D01*
X5584985Y1219994D02*
Y1249994D01*
X5539985Y1174994D02*
X5569985D01*
X5554985Y1159994D02*
Y1189994D01*
X5569985Y1114994D02*
X5599985D01*
X5584985Y1099994D02*
Y1129994D01*
X5479985Y1294994D02*
X5509985D01*
X5494985Y1279994D02*
Y1309994D01*
X5509985Y1234994D02*
X5539985D01*
X5524985Y1219994D02*
Y1249994D01*
X5479985Y1174994D02*
X5509985D01*
X5494985Y1159994D02*
Y1189994D01*
X5509985Y1114994D02*
X5539985D01*
X5524985Y1099994D02*
Y1129994D01*
X5419985Y1294994D02*
X5449985D01*
X5434985Y1279994D02*
Y1309994D01*
X5449985Y1234994D02*
X5479985D01*
X5464985Y1219994D02*
Y1249994D01*
X5419985Y1174994D02*
X5449985D01*
X5434985Y1159994D02*
Y1189994D01*
X5449985Y1114994D02*
X5479985D01*
X5464985Y1099994D02*
Y1129994D01*
X7819980Y4534987D02*
X7849980D01*
X7834980Y4519987D02*
Y4549987D01*
X7849980Y4474987D02*
X7879980D01*
X7864980Y4459988D02*
Y4489987D01*
X7819980Y4414988D02*
X7849980D01*
X7834980Y4399988D02*
Y4429988D01*
X7849980Y4354988D02*
X7879980D01*
X7864980Y4339988D02*
Y4369988D01*
X7759980Y4534987D02*
X7789980D01*
X7774980Y4519987D02*
Y4549987D01*
X7789980Y4474987D02*
X7819980D01*
X7804980Y4459988D02*
Y4489987D01*
X7759980Y4414988D02*
X7789980D01*
X7774980Y4399988D02*
Y4429988D01*
X7789980Y4354988D02*
X7819980D01*
X7804980Y4339988D02*
Y4369988D01*
X7699981Y4534987D02*
X7729980D01*
X7714981Y4519987D02*
Y4549987D01*
X7729980Y4474987D02*
X7759980D01*
X7744980Y4459988D02*
Y4489987D01*
X7699981Y4414988D02*
X7729980D01*
X7714981Y4399988D02*
Y4429988D01*
X7729980Y4354988D02*
X7759980D01*
X7744980Y4339988D02*
Y4369988D01*
X6739982Y4534987D02*
X6769982D01*
X6754982Y4519987D02*
Y4549987D01*
X6739982Y4414988D02*
X6769982D01*
X6754982Y4399988D02*
Y4429988D01*
X6679983Y4534987D02*
X6709983D01*
X6694983Y4519987D02*
Y4549987D01*
X6709983Y4474987D02*
X6739982D01*
X6724982Y4459988D02*
Y4489987D01*
X6679983Y4414988D02*
X6709983D01*
X6694983Y4399988D02*
Y4429988D01*
X6709983Y4354988D02*
X6739982D01*
X6724982Y4339988D02*
Y4369988D01*
X6619983Y4534987D02*
X6649983D01*
X6634983Y4519987D02*
Y4549987D01*
X6649983Y4474987D02*
X6679983D01*
X6664983Y4459988D02*
Y4489987D01*
X6619983Y4414988D02*
X6649983D01*
X6634983Y4399988D02*
Y4429988D01*
X6649983Y4354988D02*
X6679983D01*
X6664983Y4339988D02*
Y4369988D01*
X4974484Y1330503D02*
X5004484D01*
X4989484Y1315503D02*
Y1345503D01*
X5755000Y1570000D02*
X5785000D01*
X5770000Y1555000D02*
Y1585000D01*
X5615000Y1590000D02*
X5645000D01*
X5630000Y1575000D02*
Y1605000D01*
X5275000Y1660000D02*
X5305000D01*
X5290000Y1645000D02*
Y1675000D01*
X5165000Y1630000D02*
X5195000D01*
X5180000Y1615000D02*
Y1645000D01*
X5445000Y2780000D02*
X5475000D01*
X5460000Y2765000D02*
Y2795000D01*
X5535000Y2870000D02*
X5565000D01*
X5550000Y2855000D02*
Y2885000D01*
X5235000Y2700000D02*
X5265000D01*
X5250000Y2685000D02*
Y2715000D01*
X4626906Y3174122D02*
X4656906D01*
X4641906Y3159122D02*
Y3189122D01*
X3885000Y320000D02*
X3915000D01*
X3900000Y305000D02*
Y335000D01*
X3565000Y990000D02*
X3595000D01*
X3580000Y975000D02*
Y1005000D01*
X1155000Y1180000D02*
X1185000D01*
X1170000Y1165000D02*
Y1195000D01*
X2055000Y2250000D02*
X2085000D01*
X2070000Y2235000D02*
Y2265000D01*
X6185000Y470000D02*
X6215000D01*
X6200000Y455000D02*
Y485000D01*
X5655000Y4330000D02*
X5705000D01*
X5680000Y4305000D02*
Y4355000D01*
X5565000Y4330000D02*
X5615000D01*
X5590000Y4305000D02*
Y4355000D01*
X7635000Y400000D02*
X7665000D01*
X7650000Y385000D02*
Y415000D01*
X2945000Y2570000D02*
X2975000D01*
X2960000Y2555000D02*
Y2585000D01*
X3257700Y2512700D02*
X3287700D01*
X3272700Y2497700D02*
Y2527700D01*
X3455000Y2401051D02*
X3485000D01*
X3470000Y2386051D02*
Y2416051D01*
X5615451Y3837700D02*
X5645450D01*
X5630451Y3822700D02*
Y3852700D01*
X5784988Y3249994D02*
X5814988D01*
X5799988Y3234994D02*
Y3264993D01*
X5715000Y3750000D02*
X5745000D01*
X5730000Y3735000D02*
Y3765000D01*
X5759486Y3578950D02*
X5789486D01*
X5774486Y3563950D02*
Y3593950D01*
X5033687Y3871313D02*
X5063687D01*
X5048687Y3856313D02*
Y3886313D01*
X5132700Y3862350D02*
X5162700D01*
X5147700Y3847350D02*
Y3877350D01*
X4891950Y3640000D02*
X4921950D01*
X4906950Y3625000D02*
Y3655000D01*
X5395350Y3837700D02*
X5425350D01*
X5410350Y3822700D02*
Y3852700D01*
X5242700Y3837700D02*
X5272700D01*
X5257700Y3822700D02*
Y3852700D01*
X5192700Y3917700D02*
X5222700D01*
X5207700Y3902700D02*
Y3932700D01*
X5185000Y970000D02*
X5215000D01*
X5200000Y955000D02*
Y985000D01*
X4962700Y1043450D02*
X4992700D01*
X4977700Y1028450D02*
Y1058449D01*
X5745000Y900000D02*
X5775000D01*
X5760000Y885000D02*
Y915000D01*
X6085000Y2190000D02*
X6115000D01*
X6100000Y2175000D02*
Y2205000D01*
X7935000Y3090000D02*
X7965000D01*
X7950000Y3075000D02*
Y3105000D01*
X4375000Y1310000D02*
X4405000D01*
X4390000Y1295000D02*
Y1325000D01*
X4365000Y1380000D02*
X4395000D01*
X4380000Y1365000D02*
Y1395000D01*
X4405000Y1080000D02*
X4435000D01*
X4420000Y1065000D02*
Y1095000D01*
X2925000Y913300D02*
X2955000D01*
X2940000Y898300D02*
Y928300D01*
X2885000Y1120000D02*
X2915000D01*
X2900000Y1105000D02*
Y1135000D01*
X5245000Y1820000D02*
X5275000D01*
X5260000Y1805000D02*
Y1835000D01*
X4875000Y2520000D02*
X4905000D01*
X4890000Y2505000D02*
Y2535000D01*
X5345000Y2030000D02*
X5375000D01*
X5360000Y2015000D02*
Y2045000D01*
X5345000Y2120000D02*
X5375000D01*
X5360000Y2105000D02*
Y2135000D01*
X4985000Y1930000D02*
X5015000D01*
X5000000Y1915000D02*
Y1945000D01*
X3875000Y1390000D02*
X3905000D01*
X3890000Y1375000D02*
Y1405000D01*
X3815000Y1390000D02*
X3845000D01*
X3830000Y1375000D02*
Y1405000D01*
X3745000Y1390000D02*
X3775000D01*
X3760000Y1375000D02*
Y1405000D01*
X3645000Y1660000D02*
X3675000D01*
X3660000Y1645000D02*
Y1675000D01*
X4355000Y3460000D02*
X4385000D01*
X4370000Y3445000D02*
Y3475000D01*
X4285000Y3690000D02*
X4315000D01*
X4300000Y3675000D02*
Y3705000D01*
X3655000Y3190000D02*
X3685000D01*
X3670000Y3175000D02*
Y3205000D01*
X3025000Y1420000D02*
X3055000D01*
X3040000Y1405000D02*
Y1435000D01*
X2525000Y1670000D02*
X2555000D01*
X2540000Y1655000D02*
Y1685000D01*
X2557700Y1737700D02*
X2587700D01*
X2572700Y1722700D02*
Y1752700D01*
X2885000Y2490000D02*
X2915000D01*
X2900000Y2475000D02*
Y2505000D01*
X7932961Y685200D02*
X7962961D01*
X7947961Y670200D02*
Y700200D01*
X2485405Y3690613D02*
X2515405D01*
X2500405Y3675613D02*
Y3705613D01*
X2025000Y4010000D02*
X2055000D01*
X2040000Y3995000D02*
Y4025000D01*
X2325000Y4010000D02*
X2355000D01*
X2340000Y3995000D02*
Y4025000D01*
X2625000Y4010000D02*
X2655000D01*
X2640000Y3995000D02*
Y4025000D01*
X3515000Y4010000D02*
X3545000D01*
X3530000Y3995000D02*
Y4025000D01*
X3815000Y4010000D02*
X3845000D01*
X3830000Y3995000D02*
Y4025000D01*
X4115000Y4010000D02*
X4145000D01*
X4130000Y3995000D02*
Y4025000D01*
X1005000Y1480000D02*
X1035000D01*
X1020000Y1465000D02*
Y1495000D01*
X885000Y1230000D02*
X915000D01*
X900000Y1215000D02*
Y1245000D01*
X1715000Y1060000D02*
X1745000D01*
X1730000Y1045000D02*
Y1075000D01*
X4475000Y870000D02*
X4505000D01*
X4490000Y855000D02*
Y885000D01*
X4655000Y1460000D02*
X4685000D01*
X4670000Y1445000D02*
Y1475000D01*
X4565000Y1460000D02*
X4595000D01*
X4580000Y1445000D02*
Y1475000D01*
X4985000Y2090000D02*
X5015000D01*
X5000000Y2075000D02*
Y2105000D01*
X2925000Y710000D02*
X2955000D01*
X2940000Y695000D02*
Y725000D01*
X3425000Y940000D02*
X3455000D01*
X3440000Y925000D02*
Y955000D01*
X5345000Y4000000D02*
X5375000D01*
X5360000Y3985000D02*
Y4015000D01*
X3225000Y3360000D02*
X3255000D01*
X3240000Y3345000D02*
Y3375000D01*
X3335000Y3360000D02*
X3365000D01*
X3350000Y3345000D02*
Y3375000D01*
X3435000Y3480000D02*
X3465000D01*
X3450000Y3465000D02*
Y3495000D01*
X3444670Y3747969D02*
X3474670D01*
X3459670Y3732969D02*
Y3762969D01*
X3374407Y3566230D02*
X3404407D01*
X3389407Y3551230D02*
Y3581230D01*
X3105000Y4130000D02*
X3135000D01*
X3120000Y4115000D02*
Y4145000D01*
X2985000Y4100000D02*
X3015000D01*
X3000000Y4085000D02*
Y4115000D01*
X2675000Y3860000D02*
X2705000D01*
X2690000Y3845000D02*
Y3875000D01*
X2365000Y3860000D02*
X2395000D01*
X2380000Y3845000D02*
Y3875000D01*
X2045000Y3860000D02*
X2075000D01*
X2060000Y3845000D02*
Y3875000D01*
X3255000Y4150000D02*
X3285000D01*
X3270000Y4135000D02*
Y4165000D01*
X3684993Y3439994D02*
X3714993D01*
X3699993Y3424994D02*
Y3454994D01*
X3915000Y3490000D02*
X3945000D01*
X3930000Y3475000D02*
Y3505000D01*
X4234992Y3389800D02*
X4264991D01*
X4249991Y3374800D02*
Y3404800D01*
X3564993Y3859993D02*
X3594993D01*
X3579993Y3844993D02*
Y3874993D01*
X3864992Y3859993D02*
X3894992D01*
X3879992Y3844993D02*
Y3874993D01*
X4385000Y3380000D02*
X4415000D01*
X4400000Y3365000D02*
Y3395000D01*
X4448370Y3252901D02*
X4478370D01*
X4463370Y3237901D02*
Y3267901D01*
X4515000Y3360000D02*
X4545000D01*
X4530000Y3345000D02*
Y3375000D01*
X4765000Y3585598D02*
X4795000D01*
X4780000Y3570598D02*
Y3600598D01*
X4745000Y3830000D02*
X4775000D01*
X4760000Y3815000D02*
Y3845000D01*
X5125000Y4020000D02*
X5155000D01*
X5140000Y4005000D02*
Y4035000D01*
X5015000Y4050000D02*
X5045000D01*
X5030000Y4035000D02*
Y4065000D01*
X4760080Y1500320D02*
X4790080D01*
X4775080Y1485320D02*
Y1515320D01*
X4747300Y1638341D02*
X4777300D01*
X4762300Y1623341D02*
Y1653341D01*
X4662700Y1697700D02*
X4692700D01*
X4677700Y1682700D02*
Y1712700D01*
X4712700Y1834347D02*
X4742700D01*
X4727700Y1819347D02*
Y1849347D01*
X3465000Y2670000D02*
X3495000D01*
X3480000Y2655000D02*
Y2685000D01*
X3355000Y2750000D02*
X3385000D01*
X3370000Y2735000D02*
Y2765000D01*
X3585000Y2730000D02*
X3615000D01*
X3600000Y2715000D02*
Y2745000D01*
X3325000Y3030000D02*
X3355000D01*
X3340000Y3015000D02*
Y3045000D01*
X3195000Y2720000D02*
X3225000D01*
X3210000Y2705000D02*
Y2735000D01*
X1285000Y1680000D02*
X1315000D01*
X1300000Y1665000D02*
Y1695000D01*
X1275000Y1500000D02*
X1305000D01*
X1290000Y1485000D02*
Y1515000D01*
X1375000Y1290000D02*
X1405000D01*
X1390000Y1275000D02*
Y1305000D01*
X1675000Y1641900D02*
X1705000D01*
X1690000Y1626900D02*
Y1656900D01*
X2585000Y2480000D02*
X2615000D01*
X2600000Y2465000D02*
Y2495000D01*
X2545601Y2538342D02*
X2575601D01*
X2560601Y2523342D02*
Y2553342D01*
X3795000Y2620000D02*
X3825000D01*
X3810000Y2605000D02*
Y2635000D01*
X4305000Y2794801D02*
X4335000D01*
X4320000Y2779801D02*
Y2809801D01*
X4412700Y2737700D02*
X4442700D01*
X4427700Y2722700D02*
Y2752700D01*
X5005000Y1590000D02*
X5035000D01*
X5020000Y1575000D02*
Y1605000D01*
X4995000Y1440000D02*
X5025000D01*
X5010000Y1425000D02*
Y1455000D01*
X5935000Y1850000D02*
X5965000D01*
X5950000Y1835000D02*
Y1865000D01*
X4462700Y1467700D02*
X4492700D01*
X4477700Y1452700D02*
Y1482700D01*
X4577300Y1612101D02*
X4607300D01*
X4592300Y1597101D02*
Y1627101D01*
X5795000Y2190000D02*
X5825000D01*
X5810000Y2175000D02*
Y2205000D01*
X6045000Y3220000D02*
X6075000D01*
X6060000Y3205000D02*
Y3235000D01*
X8035000Y2940000D02*
X8065000D01*
X8050000Y2925000D02*
Y2955000D01*
X7745000Y2900000D02*
X7775000D01*
X7760000Y2885000D02*
Y2915000D01*
X8545000Y2750000D02*
X8575000D01*
X8560000Y2735000D02*
Y2765000D01*
X8295000Y3070000D02*
X8325000D01*
X8310000Y3055000D02*
Y3085000D01*
X8425000Y450000D02*
X8455000D01*
X8440000Y435000D02*
Y465000D01*
X6845000Y210000D02*
X6875000D01*
X6860000Y195000D02*
Y225000D01*
X9550000Y300000D02*
X9850000D01*
X9700000Y150000D02*
Y450000D01*
X9550000Y4500000D02*
X9850000D01*
X9700000Y4350000D02*
Y4650000D01*
X8435000Y2920000D02*
X8465000D01*
X8450000Y2905000D02*
Y2935000D01*
X7655000Y630000D02*
X7685000D01*
X7670000Y615000D02*
Y645000D01*
X8095000Y2630000D02*
X8125000D01*
X8110000Y2615000D02*
Y2645000D01*
X7985000Y2630000D02*
X8015000D01*
X8000000Y2615000D02*
Y2645000D01*
X8095000Y2300000D02*
X8125000D01*
X8110000Y2285000D02*
Y2315000D01*
X7985000Y2300000D02*
X8015000D01*
X8000000Y2285000D02*
Y2315000D01*
X7995000Y560000D02*
X8025000D01*
X8010000Y545000D02*
Y575000D01*
X8105000Y1100000D02*
X8135000D01*
X8120000Y1085000D02*
Y1115000D01*
X7995000Y1100000D02*
X8025000D01*
X8010000Y1085000D02*
Y1115000D01*
X8105000Y560000D02*
X8135000D01*
X8120000Y545000D02*
Y575000D01*
X7925000Y290000D02*
X7955000D01*
X7940000Y275000D02*
Y305000D01*
X2535000Y2900000D02*
X2565000D01*
X2550000Y2885000D02*
Y2915000D01*
X2375000Y2280000D02*
X2405000D01*
X2390000Y2265000D02*
Y2295000D01*
X2595000Y2990000D02*
X2625000D01*
X2610000Y2975000D02*
Y3005000D01*
X2365000Y1970000D02*
X2395000D01*
X2380000Y1955000D02*
Y1985000D01*
X3165000Y3110000D02*
X3195000D01*
X3180000Y3095000D02*
Y3125000D01*
X3205000Y2600000D02*
X3235000D01*
X3220000Y2585000D02*
Y2615000D01*
X2585000Y2070000D02*
X2615000D01*
X2600000Y2055000D02*
Y2085000D01*
X4221301Y1370000D02*
X4251301D01*
X4236301Y1355000D02*
Y1385000D01*
X3977248Y1410000D02*
X4007248D01*
X3992248Y1395000D02*
Y1425000D01*
X1665000Y2150000D02*
X1695000D01*
X1680000Y2135000D02*
Y2165000D01*
X2265000Y2360000D02*
X2295000D01*
X2280000Y2345000D02*
Y2375000D01*
X3725000Y2450751D02*
X3755000D01*
X3740000Y2435751D02*
Y2465751D01*
X1665000Y2070000D02*
X1695000D01*
X1680000Y2055000D02*
Y2085000D01*
X1665000Y1910000D02*
X1695000D01*
X1680000Y1895000D02*
Y1925000D01*
X1665000Y1830000D02*
X1695000D01*
X1680000Y1815000D02*
Y1845000D01*
X3245000Y910000D02*
X3275000D01*
X3260000Y895000D02*
Y925000D01*
X3315000Y990000D02*
X3345000D01*
X3330000Y975000D02*
Y1005000D01*
X2175000Y1510000D02*
X2205000D01*
X2190000Y1495000D02*
Y1525000D01*
X4096400Y1190131D02*
X4126400D01*
X4111400Y1175131D02*
Y1205131D01*
X4199362Y1290000D02*
X4229362D01*
X4214362Y1275000D02*
Y1305000D01*
X4221301Y1210000D02*
X4251301D01*
X4236301Y1195000D02*
Y1225000D01*
X2705000Y2920000D02*
X2735000D01*
X2720000Y2905000D02*
Y2935000D01*
X2892499Y2917499D02*
X2922499D01*
X2907499Y2902499D02*
Y2932499D01*
X2795000Y2920000D02*
X2825000D01*
X2810000Y2905000D02*
Y2935000D01*
X150000Y4500000D02*
X450000D01*
X300000Y4350000D02*
Y4650000D01*
X150000Y300000D02*
X450000D01*
X300000Y150000D02*
Y450000D01*
X3636324Y2326910D02*
X3666324D01*
X3651324Y2311910D02*
Y2341910D01*
X3770115Y2505394D02*
X3800115D01*
X3785115Y2490394D02*
Y2520394D01*
X3677499Y2065001D02*
X3707499D01*
X3692499Y2050001D02*
Y2080001D01*
X3701241Y2299673D02*
X3731241D01*
X3716241Y2284673D02*
Y2314673D01*
X3749661Y1694665D02*
X3779660D01*
X3764660Y1679665D02*
Y1709665D01*
X3005000Y2215000D02*
X3035000D01*
X3020000Y2200000D02*
Y2230000D01*
X3742693Y2137696D02*
X3772692D01*
X3757693Y2122696D02*
Y2152696D01*
X5442700Y3917700D02*
X5472700D01*
X5457700Y3902700D02*
Y3932700D01*
X5290050Y3917700D02*
X5320050D01*
X5305050Y3902700D02*
Y3932700D01*
X4972700Y757700D02*
X5002700D01*
X4987700Y742700D02*
Y772700D01*
X2032700Y1462700D02*
X2062700D01*
X2047700Y1447700D02*
Y1477700D01*
X4659153Y1891247D02*
X4689153D01*
X4674153Y1876247D02*
Y1906247D01*
X4601991Y2128410D02*
X4631990D01*
X4616991Y2113410D02*
Y2143410D01*
X4517400Y2593450D02*
X4547400D01*
X4532400Y2578450D02*
Y2608450D01*
X4582700Y2007833D02*
X4612700D01*
X4597700Y1992833D02*
Y2022833D01*
X5552689Y3917693D02*
X5582689D01*
X5567689Y3902693D02*
Y3932693D01*
X4462700Y2647700D02*
X4492700D01*
X4477700Y2632700D02*
Y2662700D01*
X4316226Y2659800D02*
X4346226D01*
X4331226Y2644800D02*
Y2674800D01*
X3752700Y2251496D02*
X3782700D01*
X3767700Y2236496D02*
Y2266496D01*
X4129176Y2659799D02*
X4159176D01*
X4144176Y2644799D02*
Y2674799D01*
X4057300Y2757700D02*
X4087300D01*
X4072300Y2742700D02*
Y2772700D01*
X4172300Y2757700D02*
X4202300D01*
X4187300Y2742700D02*
Y2772700D01*
X5506950Y3847052D02*
X5536950D01*
X5521950Y3832052D02*
Y3862052D01*
X4222700Y2897700D02*
X4252700D01*
X4237700Y2882700D02*
Y2912700D01*
%TF.MD5,0049ef4a30b03ebc736dbf73e4958e99*%
M02*
