%TF.GenerationSoftware,Altium Limited,Altium Designer,23.3.1 (30)*%
G04 Layer_Physical_Order=1*
G04 Layer_Color=255*
%FSLAX45Y45*%
%MOMM*%
%TF.SameCoordinates,CD13F5F2-8DFB-4D4D-A102-87722C93DE69*%
%TF.FilePolarity,Positive*%
%TF.FileFunction,Copper,L1,Top,Signal*%
%TF.Part,Single*%
G01*
G75*
%TA.AperFunction,SMDPad,CuDef*%
%ADD10R,0.90000X1.05000*%
%ADD11R,0.80000X0.80000*%
%ADD12R,0.91213X0.95814*%
%ADD13R,0.85000X0.95000*%
%ADD14R,2.00000X4.10000*%
G04:AMPARAMS|DCode=15|XSize=1.55414mm|YSize=0.37583mm|CornerRadius=0.18791mm|HoleSize=0mm|Usage=FLASHONLY|Rotation=90.000|XOffset=0mm|YOffset=0mm|HoleType=Round|Shape=RoundedRectangle|*
%AMROUNDEDRECTD15*
21,1,1.55414,0.00000,0,0,90.0*
21,1,1.17831,0.37583,0,0,90.0*
1,1,0.37583,0.00000,0.58916*
1,1,0.37583,0.00000,-0.58916*
1,1,0.37583,0.00000,-0.58916*
1,1,0.37583,0.00000,0.58916*
%
%ADD15ROUNDEDRECTD15*%
%ADD16R,0.37583X1.55414*%
G04:AMPARAMS|DCode=17|XSize=1.55414mm|YSize=0.37583mm|CornerRadius=0.18791mm|HoleSize=0mm|Usage=FLASHONLY|Rotation=0.000|XOffset=0mm|YOffset=0mm|HoleType=Round|Shape=RoundedRectangle|*
%AMROUNDEDRECTD17*
21,1,1.55414,0.00000,0,0,0.0*
21,1,1.17831,0.37583,0,0,0.0*
1,1,0.37583,0.58916,0.00000*
1,1,0.37583,-0.58916,0.00000*
1,1,0.37583,-0.58916,0.00000*
1,1,0.37583,0.58916,0.00000*
%
%ADD17ROUNDEDRECTD17*%
%ADD18R,1.55414X0.37583*%
%ADD19R,1.05000X0.90000*%
%ADD20R,0.95000X0.95000*%
%ADD21R,0.75000X0.90000*%
%ADD22R,1.55000X0.95000*%
%ADD23R,1.80000X1.40000*%
%ADD24R,2.10000X1.80000*%
%ADD25R,0.95650X0.96213*%
%ADD26O,0.35000X2.00000*%
%TA.AperFunction,TestPad*%
%ADD27C,0.76200*%
%TA.AperFunction,SMDPad,CuDef*%
%ADD28R,0.95000X0.85000*%
%ADD29R,0.95000X0.70000*%
%ADD30R,0.60960X1.11760*%
%ADD31R,1.35000X0.40000*%
%ADD32R,1.90000X1.90000*%
%ADD33R,1.90000X1.80000*%
%ADD34R,2.60000X1.90000*%
%ADD35R,1.55000X0.60000*%
%ADD36R,2.20000X1.00000*%
%ADD37R,2.20000X3.30000*%
%ADD38R,1.00606X0.95822*%
%ADD39R,0.75000X0.85000*%
%ADD40R,0.95814X0.91213*%
%ADD41R,1.00650X0.95822*%
%ADD42R,0.95822X1.00650*%
%ADD43R,1.20000X1.40000*%
%ADD44R,1.50000X0.55000*%
%ADD45R,0.55000X1.50000*%
G04:AMPARAMS|DCode=46|XSize=0.254mm|YSize=0.889mm|CornerRadius=0.09525mm|HoleSize=0mm|Usage=FLASHONLY|Rotation=90.000|XOffset=0mm|YOffset=0mm|HoleType=Round|Shape=RoundedRectangle|*
%AMROUNDEDRECTD46*
21,1,0.25400,0.69850,0,0,90.0*
21,1,0.06350,0.88900,0,0,90.0*
1,1,0.19050,0.34925,0.03175*
1,1,0.19050,0.34925,-0.03175*
1,1,0.19050,-0.34925,-0.03175*
1,1,0.19050,-0.34925,0.03175*
%
%ADD46ROUNDEDRECTD46*%
G04:AMPARAMS|DCode=47|XSize=0.254mm|YSize=0.889mm|CornerRadius=0.09525mm|HoleSize=0mm|Usage=FLASHONLY|Rotation=0.000|XOffset=0mm|YOffset=0mm|HoleType=Round|Shape=RoundedRectangle|*
%AMROUNDEDRECTD47*
21,1,0.25400,0.69850,0,0,0.0*
21,1,0.06350,0.88900,0,0,0.0*
1,1,0.19050,0.03175,-0.34925*
1,1,0.19050,-0.03175,-0.34925*
1,1,0.19050,-0.03175,0.34925*
1,1,0.19050,0.03175,0.34925*
%
%ADD47ROUNDEDRECTD47*%
%ADD48R,4.08940X4.08940*%
G04:AMPARAMS|DCode=49|XSize=0.19247mm|YSize=0.96007mm|CornerRadius=0.09624mm|HoleSize=0mm|Usage=FLASHONLY|Rotation=90.000|XOffset=0mm|YOffset=0mm|HoleType=Round|Shape=RoundedRectangle|*
%AMROUNDEDRECTD49*
21,1,0.19247,0.76760,0,0,90.0*
21,1,0.00000,0.96007,0,0,90.0*
1,1,0.19247,0.38380,0.00000*
1,1,0.19247,0.38380,0.00000*
1,1,0.19247,-0.38380,0.00000*
1,1,0.19247,-0.38380,0.00000*
%
%ADD49ROUNDEDRECTD49*%
G04:AMPARAMS|DCode=50|XSize=0.19247mm|YSize=0.96107mm|CornerRadius=0.09624mm|HoleSize=0mm|Usage=FLASHONLY|Rotation=90.000|XOffset=0mm|YOffset=0mm|HoleType=Round|Shape=RoundedRectangle|*
%AMROUNDEDRECTD50*
21,1,0.19247,0.76860,0,0,90.0*
21,1,0.00000,0.96107,0,0,90.0*
1,1,0.19247,0.38430,0.00000*
1,1,0.19247,0.38430,0.00000*
1,1,0.19247,-0.38430,0.00000*
1,1,0.19247,-0.38430,0.00000*
%
%ADD50ROUNDEDRECTD50*%
G04:AMPARAMS|DCode=51|XSize=0.96107mm|YSize=0.19247mm|CornerRadius=0.09624mm|HoleSize=0mm|Usage=FLASHONLY|Rotation=90.000|XOffset=0mm|YOffset=0mm|HoleType=Round|Shape=RoundedRectangle|*
%AMROUNDEDRECTD51*
21,1,0.96107,0.00000,0,0,90.0*
21,1,0.76860,0.19247,0,0,90.0*
1,1,0.19247,0.00000,0.38430*
1,1,0.19247,0.00000,-0.38430*
1,1,0.19247,0.00000,-0.38430*
1,1,0.19247,0.00000,0.38430*
%
%ADD51ROUNDEDRECTD51*%
%ADD52C,0.17323*%
%ADD53R,5.10000X9.10000*%
%ADD54R,0.95000X0.95000*%
%ADD55R,1.30606X1.05822*%
%ADD56R,0.91213X1.05776*%
%ADD57R,1.55000X1.50000*%
%ADD58R,1.50000X1.55000*%
%ADD59R,1.05000X1.10000*%
%ADD60R,1.05776X1.01213*%
%ADD61R,1.05776X0.91213*%
%ADD62R,1.10000X1.30000*%
%ADD63R,2.95490X3.50620*%
%ADD64R,0.66040X0.38100*%
%ADD65R,2.80415X1.65263*%
G04:AMPARAMS|DCode=66|XSize=1.75414mm|YSize=0.47583mm|CornerRadius=0.23791mm|HoleSize=0mm|Usage=FLASHONLY|Rotation=180.000|XOffset=0mm|YOffset=0mm|HoleType=Round|Shape=RoundedRectangle|*
%AMROUNDEDRECTD66*
21,1,1.75414,0.00000,0,0,180.0*
21,1,1.27831,0.47583,0,0,180.0*
1,1,0.47583,-0.63916,0.00000*
1,1,0.47583,0.63916,0.00000*
1,1,0.47583,0.63916,0.00000*
1,1,0.47583,-0.63916,0.00000*
%
%ADD66ROUNDEDRECTD66*%
%ADD67R,1.75414X0.47583*%
%TA.AperFunction,Conductor*%
%ADD68C,0.18000*%
%ADD69C,0.50000*%
%ADD70C,0.12700*%
%TA.AperFunction,ComponentPad*%
%ADD71R,6.80000X6.80000*%
%ADD72R,1.50000X1.50000*%
%ADD73C,1.50000*%
%ADD74C,1.57500*%
%ADD75R,1.57500X1.57500*%
G04:AMPARAMS|DCode=76|XSize=5mm|YSize=5mm|CornerRadius=1.25mm|HoleSize=0mm|Usage=FLASHONLY|Rotation=270.000|XOffset=0mm|YOffset=0mm|HoleType=Round|Shape=RoundedRectangle|*
%AMROUNDEDRECTD76*
21,1,5.00000,2.50000,0,0,270.0*
21,1,2.50000,5.00000,0,0,270.0*
1,1,2.50000,-1.25000,-1.25000*
1,1,2.50000,-1.25000,1.25000*
1,1,2.50000,1.25000,1.25000*
1,1,2.50000,1.25000,-1.25000*
%
%ADD76ROUNDEDRECTD76*%
%ADD77R,1.57500X1.57500*%
%ADD78C,0.50000*%
%TA.AperFunction,ViaPad*%
%ADD79C,0.45000*%
%ADD80C,0.80000*%
%ADD81C,4.00000*%
G36*
X10000000Y0D02*
X0D01*
Y4800000D01*
X10000000D01*
Y0D01*
D02*
G37*
%LPC*%
G36*
X4935000Y4595000D02*
X4745000D01*
Y4405000D01*
X4935000D01*
Y4595000D01*
D02*
G37*
G36*
X4423001Y4588750D02*
X4396999D01*
X4371884Y4582020D01*
X4349366Y4569020D01*
X4330980Y4550634D01*
X4317980Y4528116D01*
X4311250Y4503001D01*
Y4476999D01*
X4317980Y4451884D01*
X4330980Y4429366D01*
X4349366Y4410980D01*
X4371884Y4397980D01*
X4396999Y4391250D01*
X4423001D01*
X4448116Y4397980D01*
X4470634Y4410980D01*
X4489020Y4429366D01*
X4502020Y4451884D01*
X4508750Y4476999D01*
Y4503001D01*
X4502020Y4528116D01*
X4489020Y4550634D01*
X4470634Y4569020D01*
X4448116Y4582020D01*
X4423001Y4588750D01*
D02*
G37*
G36*
X2973001D02*
X2946999D01*
X2921884Y4582020D01*
X2899366Y4569020D01*
X2880980Y4550634D01*
X2867980Y4528116D01*
X2861250Y4503001D01*
Y4476999D01*
X2867980Y4451884D01*
X2880980Y4429366D01*
X2899366Y4410980D01*
X2921884Y4397980D01*
X2946999Y4391250D01*
X2973001D01*
X2998116Y4397980D01*
X3020634Y4410980D01*
X3039020Y4429366D01*
X3052020Y4451884D01*
X3058750Y4476999D01*
Y4503001D01*
X3052020Y4528116D01*
X3039020Y4550634D01*
X3020634Y4569020D01*
X2998116Y4582020D01*
X2973001Y4588750D01*
D02*
G37*
G36*
X1338507Y4575000D02*
X1313493D01*
X1289331Y4568526D01*
X1267669Y4556019D01*
X1249981Y4538331D01*
X1237474Y4516668D01*
X1231000Y4492507D01*
Y4467493D01*
X1237474Y4443331D01*
X1249981Y4421669D01*
X1267669Y4403981D01*
X1289331Y4391474D01*
X1313493Y4385000D01*
X1338507D01*
X1362668Y4391474D01*
X1384331Y4403981D01*
X1402019Y4421669D01*
X1414525Y4443331D01*
X1421000Y4467493D01*
Y4492507D01*
X1414525Y4516668D01*
X1402019Y4538331D01*
X1384331Y4556019D01*
X1362668Y4568526D01*
X1338507Y4575000D01*
D02*
G37*
G36*
X1167000D02*
X977000D01*
Y4385000D01*
X1167000D01*
Y4575000D01*
D02*
G37*
G36*
X5688610Y4395400D02*
X5671390D01*
X5654756Y4390943D01*
X5639843Y4382333D01*
X5635000Y4377490D01*
X5630157Y4382333D01*
X5615244Y4390943D01*
X5598610Y4395400D01*
X5581390D01*
X5564756Y4390943D01*
X5549843Y4382333D01*
X5537667Y4370157D01*
X5529057Y4355244D01*
X5524600Y4338610D01*
Y4338438D01*
X4750001D01*
X4750000Y4338439D01*
X4735290Y4335513D01*
X4722820Y4327180D01*
X4722819Y4327179D01*
X4368021Y3972382D01*
X4359689Y3959911D01*
X4356763Y3945201D01*
X4356763Y3945200D01*
Y3682112D01*
X4355200Y3681638D01*
X4342500Y3691057D01*
Y3698454D01*
X4336030Y3714074D01*
X4324074Y3726030D01*
X4319454Y3727943D01*
X4317902Y3740000D01*
X4317901Y3740001D01*
Y3855400D01*
X4279827D01*
Y3907502D01*
X4342900D01*
Y4022902D01*
X4212500D01*
Y3907502D01*
X4235576D01*
Y3855400D01*
X4217502D01*
Y3855400D01*
X4205202Y3856367D01*
Y3862700D01*
X4157702D01*
Y3797701D01*
X4147702D01*
Y3787701D01*
X4090202D01*
Y3735474D01*
X4028727D01*
X4018888Y3739588D01*
X4017901Y3747733D01*
Y3855400D01*
X3979826D01*
Y3907497D01*
X4042899D01*
Y4022897D01*
X3912499D01*
Y3907497D01*
X3935576D01*
Y3855400D01*
X3917902D01*
X3917501Y3855400D01*
X3905201Y3856367D01*
Y3862700D01*
X3857701D01*
Y3797701D01*
Y3732700D01*
X3904376D01*
X3905201Y3732700D01*
X3917076Y3730707D01*
Y3629741D01*
X3830474Y3543139D01*
X3828751Y3542333D01*
X3823988Y3545364D01*
X3822916Y3548127D01*
X3821832Y3561311D01*
X3826241Y3567911D01*
X3828685Y3580198D01*
X3826241Y3592485D01*
X3820545Y3601010D01*
X3822691Y3608415D01*
X3825965Y3613710D01*
X3828068D01*
Y3676693D01*
X3749787D01*
Y3730238D01*
X3748102Y3738705D01*
X3743306Y3745883D01*
X3717900Y3771289D01*
Y3855400D01*
X3679825D01*
Y3904996D01*
X3742902D01*
Y4020396D01*
X3612502D01*
Y3904996D01*
X3635575D01*
Y3855400D01*
X3617901D01*
X3617500Y3855400D01*
X3605200Y3856366D01*
Y3862700D01*
X3557700D01*
Y3797699D01*
X3537700D01*
Y3862700D01*
X3490200D01*
Y3794135D01*
X3477500Y3786585D01*
X3468123Y3790468D01*
X3451216D01*
X3435596Y3783998D01*
X3423640Y3772043D01*
X3421912Y3767870D01*
X3409456Y3765392D01*
X3349627Y3825221D01*
Y3908036D01*
X3350206Y3908423D01*
X3357167Y3918840D01*
X3359611Y3931127D01*
Y4048958D01*
X3357167Y4061245D01*
X3350206Y4071662D01*
X3339789Y4078622D01*
X3327502Y4081066D01*
X3315215Y4078622D01*
X3304798Y4071662D01*
X3291973Y4074955D01*
X3288371Y4077867D01*
Y4111608D01*
X3294074Y4113970D01*
X3306030Y4125926D01*
X3312500Y4141546D01*
Y4158453D01*
X3306030Y4174074D01*
X3294074Y4186029D01*
X3278454Y4192500D01*
X3261546D01*
X3245926Y4186029D01*
X3233970Y4174074D01*
X3227500Y4158453D01*
Y4141546D01*
X3233970Y4125926D01*
X3244120Y4115776D01*
Y4074552D01*
X3239794Y4071662D01*
X3237636Y4068432D01*
X3222362D01*
X3220204Y4071662D01*
X3209787Y4078622D01*
X3197500Y4081066D01*
X3185213Y4078622D01*
X3174796Y4071662D01*
X3161553Y4072847D01*
X3154626Y4079999D01*
Y4104522D01*
X3156030Y4105926D01*
X3162500Y4121546D01*
Y4138453D01*
X3156030Y4154074D01*
X3144074Y4166030D01*
X3128454Y4172500D01*
X3111546D01*
X3095926Y4166030D01*
X3083970Y4154074D01*
X3077500Y4138453D01*
Y4121546D01*
X3083970Y4105926D01*
X3095926Y4093970D01*
X3110376Y4087985D01*
Y4072049D01*
X3109797Y4071662D01*
X3102837Y4061245D01*
X3100393Y4048958D01*
Y3935608D01*
X3089409Y3924624D01*
X3030198D01*
Y3957699D01*
X2909798D01*
Y3847523D01*
X2909798Y3847299D01*
X2909258Y3834823D01*
X2855899D01*
Y3873308D01*
X2809829D01*
Y3907495D01*
X2847904D01*
Y4027895D01*
X2727504D01*
Y3907495D01*
X2765579D01*
Y3873308D01*
X2730728D01*
X2729849Y3873309D01*
X2718028Y3875430D01*
Y3880608D01*
X2657703D01*
Y3812698D01*
Y3744787D01*
X2718028D01*
Y3749965D01*
X2729849Y3752086D01*
X2730728Y3752086D01*
X2855899D01*
Y3790572D01*
X3152097D01*
X3190194Y3752476D01*
X3186013Y3738696D01*
X3185213Y3738537D01*
X3176693Y3732844D01*
X3169277Y3734995D01*
X3163993Y3738268D01*
Y3740364D01*
X3101010D01*
Y3672082D01*
X2654608D01*
X2593637Y3733053D01*
X2598497Y3744787D01*
X2637703D01*
Y3802698D01*
X2577378D01*
Y3765906D01*
X2565645Y3761046D01*
X2543314Y3783376D01*
Y3873308D01*
X2502414D01*
Y3907496D01*
X2547902D01*
Y4027896D01*
X2427502D01*
Y3907496D01*
X2458164D01*
Y3873308D01*
X2417264D01*
Y3873308D01*
X2405443Y3875430D01*
Y3880608D01*
X2345118D01*
Y3812697D01*
X2335118D01*
Y3802697D01*
X2264793D01*
Y3767272D01*
X2252093Y3762012D01*
X2230728Y3783376D01*
Y3873308D01*
X2189828D01*
Y3907496D01*
X2247903D01*
Y4027896D01*
X2127503D01*
Y3907496D01*
X2145578D01*
Y3873308D01*
X2105557D01*
X2104678Y3873309D01*
X2092857Y3875430D01*
Y3880608D01*
X2032532D01*
Y3812698D01*
Y3744787D01*
X2092857D01*
Y3749965D01*
X2104678Y3752086D01*
X2105557Y3752086D01*
X2199438D01*
X2231383Y3720141D01*
X2238561Y3715345D01*
X2247028Y3713661D01*
X2445049D01*
X2458414Y3700296D01*
X2457905Y3699067D01*
Y3682160D01*
X2464376Y3666539D01*
X2476331Y3654583D01*
X2491952Y3648113D01*
X2508859D01*
X2524479Y3654583D01*
X2536435Y3666539D01*
X2542905Y3682160D01*
Y3699067D01*
X2539950Y3706200D01*
X2550717Y3713393D01*
X2629799Y3634312D01*
X2636977Y3629516D01*
X2645444Y3627831D01*
X3101010D01*
Y3559550D01*
X3163993D01*
Y3561645D01*
X3169277Y3564918D01*
X3176693Y3567070D01*
X3185213Y3561377D01*
X3195290Y3559372D01*
X3298632Y3456030D01*
X3305810Y3451234D01*
X3308475Y3450704D01*
X3344946Y3414233D01*
X3339547Y3401671D01*
X3325926Y3396030D01*
X3313970Y3384074D01*
X3307500Y3368454D01*
Y3351546D01*
X3312066Y3340523D01*
X3307511Y3328459D01*
X3305640Y3326296D01*
X3305101Y3326189D01*
X3281693Y3349597D01*
X3282500Y3351546D01*
Y3368454D01*
X3276030Y3384074D01*
X3264074Y3396030D01*
X3248454Y3402500D01*
X3231546D01*
X3215926Y3396030D01*
X3203970Y3384074D01*
X3197500Y3368454D01*
Y3351546D01*
X3203970Y3335926D01*
X3215926Y3323970D01*
X3231546Y3317500D01*
X3248454D01*
X3250403Y3318307D01*
X3289555Y3279155D01*
X3296733Y3274359D01*
X3305200Y3272675D01*
X4062872D01*
X4068133Y3259975D01*
X4064634Y3256476D01*
X4056900Y3237805D01*
Y3217595D01*
X4060774Y3208243D01*
X3953966Y3101434D01*
X3949756Y3095133D01*
X3948277Y3087700D01*
Y2701006D01*
X3937160Y2696228D01*
X3927899Y2703705D01*
Y2830397D01*
X3792500D01*
Y2674998D01*
X3801059D01*
X3801546Y2662500D01*
X3785926Y2656029D01*
X3773970Y2644074D01*
X3773163Y2642125D01*
X3730401D01*
Y2647898D01*
X3620001D01*
Y2572287D01*
X3615400Y2569529D01*
X3602700Y2576724D01*
Y2577698D01*
X3540200D01*
X3477700D01*
Y2520198D01*
X3488252Y2518651D01*
Y2484825D01*
X3456007D01*
Y2525249D01*
X3463307D01*
Y2588138D01*
X3397700D01*
X3332094D01*
Y2525249D01*
X3339394D01*
Y2397112D01*
X3424717D01*
X3427500Y2394329D01*
Y2392597D01*
X3433970Y2376977D01*
X3445926Y2365021D01*
X3461546Y2358551D01*
X3478454D01*
X3494074Y2365021D01*
X3503627Y2374574D01*
X3514887Y2371561D01*
X3516327Y2370680D01*
Y2331548D01*
X3518011Y2323081D01*
X3522807Y2315903D01*
X3554479Y2284231D01*
X3549619Y2272498D01*
X3537502D01*
Y2204998D01*
X3527502D01*
Y2194998D01*
X3465002D01*
Y2137498D01*
X3462500Y2132500D01*
X3462500D01*
Y2075000D01*
X3525000D01*
Y2055000D01*
X3462500D01*
Y2044297D01*
X3450767Y2039437D01*
X3428792Y2061412D01*
Y2116030D01*
X3428792Y2116031D01*
X3427313Y2123464D01*
X3423103Y2129765D01*
X3374626Y2178242D01*
X3378500Y2187595D01*
Y2207804D01*
X3370766Y2226475D01*
X3356476Y2240766D01*
X3337805Y2248499D01*
X3317596D01*
X3298924Y2240766D01*
X3284634Y2226475D01*
X3276900Y2207804D01*
Y2187595D01*
X3284634Y2168924D01*
X3298924Y2154633D01*
X3317596Y2146899D01*
X3337805D01*
X3347158Y2150773D01*
X3389945Y2107986D01*
Y2088355D01*
X3377245Y2085829D01*
X3370766Y2101473D01*
X3356475Y2115763D01*
X3337804Y2123497D01*
X3317595D01*
X3298924Y2115763D01*
X3284633Y2101473D01*
X3276899Y2082802D01*
Y2062593D01*
X3284633Y2043921D01*
X3298924Y2029631D01*
X3317595Y2021897D01*
X3337804D01*
X3354228Y2028700D01*
X3413323Y1969605D01*
X3408463Y1957872D01*
X3378473D01*
X3370768Y1976473D01*
X3356478Y1990763D01*
X3337807Y1998497D01*
X3317597D01*
X3298926Y1990763D01*
X3284636Y1976473D01*
X3276902Y1957802D01*
Y1937593D01*
X3284636Y1918921D01*
X3298926Y1904631D01*
X3317597Y1896897D01*
X3337807D01*
X3356478Y1904631D01*
X3368234Y1916387D01*
X3375125Y1915551D01*
X3379496Y1906200D01*
X3379608Y1902073D01*
X3347159Y1869624D01*
X3337806Y1873498D01*
X3317597D01*
X3298926Y1865764D01*
X3284636Y1851474D01*
X3276902Y1832803D01*
Y1812593D01*
X3284636Y1793922D01*
X3298926Y1779632D01*
X3317597Y1771898D01*
X3337806D01*
X3354150Y1778668D01*
X3363300Y1775600D01*
X3367767Y1772960D01*
X3368718Y1766188D01*
X3347156Y1744627D01*
X3337803Y1748501D01*
X3317594D01*
X3298923Y1740767D01*
X3284632Y1726477D01*
X3276899Y1707806D01*
Y1687596D01*
X3284632Y1668925D01*
X3298923Y1654635D01*
X3317594Y1646901D01*
X3337803D01*
X3356475Y1654635D01*
X3370765Y1668925D01*
X3378499Y1687596D01*
Y1707806D01*
X3374625Y1717158D01*
X3383695Y1726229D01*
X3395429Y1721369D01*
Y1667896D01*
X3347156Y1619624D01*
X3337803Y1623498D01*
X3317594D01*
X3298923Y1615764D01*
X3284632Y1601474D01*
X3276899Y1582802D01*
Y1562593D01*
X3284632Y1543922D01*
X3298923Y1529631D01*
X3317594Y1521898D01*
X3337803D01*
X3356475Y1529631D01*
X3370765Y1543922D01*
X3378499Y1562593D01*
Y1582802D01*
X3374625Y1592155D01*
X3406395Y1623926D01*
X3418129Y1619065D01*
Y1565599D01*
X3347157Y1494628D01*
X3337804Y1498502D01*
X3317595D01*
X3298924Y1490768D01*
X3284633Y1476478D01*
X3276899Y1457806D01*
Y1437597D01*
X3284633Y1418926D01*
X3298924Y1404635D01*
X3317595Y1396902D01*
X3337804D01*
X3356475Y1404635D01*
X3370766Y1418926D01*
X3378499Y1437597D01*
Y1457806D01*
X3374625Y1467159D01*
X3434871Y1527404D01*
X3446604Y1522544D01*
Y1469076D01*
X3347156Y1369628D01*
X3337803Y1373502D01*
X3317594D01*
X3298922Y1365768D01*
X3284632Y1351478D01*
X3276898Y1332807D01*
Y1312597D01*
X3284632Y1293926D01*
X3298922Y1279636D01*
X3317594Y1271902D01*
X3337803D01*
X3356474Y1279636D01*
X3370764Y1293926D01*
X3378498Y1312597D01*
Y1332807D01*
X3374624Y1342159D01*
X3479761Y1447296D01*
X3479761Y1447297D01*
X3483972Y1453598D01*
X3485450Y1461031D01*
X3485450Y1461032D01*
Y1667502D01*
X3527502D01*
Y1735002D01*
X3537502D01*
Y1745002D01*
X3600002D01*
Y1789429D01*
X3617298D01*
Y1674802D01*
X3617298D01*
X3619046Y1672186D01*
X3617500Y1668454D01*
Y1651546D01*
X3623970Y1635926D01*
X3635926Y1623970D01*
X3651546Y1617500D01*
X3668454D01*
X3684074Y1623970D01*
X3696030Y1635926D01*
X3702500Y1651546D01*
Y1668453D01*
X3706742Y1674802D01*
X3727698D01*
Y1729440D01*
X3779064D01*
X3785072Y1723432D01*
X3786336Y1721664D01*
X3788811Y1709259D01*
X3788501Y1707700D01*
X3855146D01*
Y1687700D01*
X3788501D01*
X3788811Y1686142D01*
X3789497Y1685116D01*
X3789430Y1670250D01*
X3786992Y1667745D01*
X3358243Y1238996D01*
X3356475Y1240764D01*
X3337804Y1248498D01*
X3317595D01*
X3298923Y1240764D01*
X3284633Y1226474D01*
X3276899Y1207803D01*
Y1187593D01*
X3284633Y1168922D01*
X3298923Y1154632D01*
X3317595Y1146898D01*
X3337804D01*
X3356475Y1154632D01*
X3370765Y1168922D01*
X3378499Y1187593D01*
Y1204314D01*
X3438725Y1264540D01*
X3450458Y1259680D01*
Y986585D01*
X3446373Y982500D01*
X3431546D01*
X3415926Y976030D01*
X3403970Y964074D01*
X3397500Y948454D01*
Y931546D01*
X3403970Y915926D01*
X3415926Y903970D01*
X3431546Y897500D01*
X3448250D01*
X3448828Y896903D01*
X3455300Y886590D01*
X3230355Y661645D01*
X3225559Y654467D01*
X3223875Y646000D01*
Y602422D01*
X3209332Y598526D01*
X3187669Y586019D01*
X3169981Y568331D01*
X3157475Y546668D01*
X3151000Y522507D01*
Y497493D01*
X3157475Y473332D01*
X3169981Y451669D01*
X3187669Y433981D01*
X3203528Y424825D01*
X3200125Y412125D01*
X3109164D01*
X3068605Y452684D01*
X3080526Y473332D01*
X3087000Y497493D01*
Y522507D01*
X3080526Y546668D01*
X3068019Y568331D01*
X3050331Y586019D01*
X3028669Y598526D01*
X3004507Y605000D01*
X2979493D01*
X2955332Y598526D01*
X2933669Y586019D01*
X2915981Y568331D01*
X2903475Y546668D01*
X2897000Y522507D01*
Y497493D01*
X2903475Y473332D01*
X2915981Y451669D01*
X2933669Y433981D01*
X2955332Y421474D01*
X2979493Y415000D01*
X3004507D01*
X3028669Y421474D01*
X3034100Y424610D01*
X3084355Y374355D01*
X3091533Y369559D01*
X3100000Y367875D01*
X3330000D01*
X3338467Y369559D01*
X3345645Y374355D01*
X3395645Y424355D01*
X3400441Y431533D01*
X3402125Y440000D01*
Y464125D01*
X3414825Y467528D01*
X3423981Y451669D01*
X3441669Y433981D01*
X3463332Y421474D01*
X3487493Y415000D01*
X3512507D01*
X3536669Y421474D01*
X3558331Y433981D01*
X3576019Y451669D01*
X3588526Y473332D01*
X3595000Y497493D01*
Y522507D01*
X3588526Y546668D01*
X3576019Y568331D01*
X3558331Y586019D01*
X3536669Y598526D01*
X3512507Y605000D01*
X3487493D01*
X3463332Y598526D01*
X3441669Y586019D01*
X3423981Y568331D01*
X3414825Y552472D01*
X3402125Y555875D01*
Y609324D01*
X3656845Y864044D01*
X3661641Y871222D01*
X3663326Y879689D01*
Y1002700D01*
X3737701D01*
Y1097700D01*
X3747701D01*
Y1107700D01*
X3845200D01*
Y1192700D01*
X3837900D01*
Y1216254D01*
X3882500D01*
Y1172498D01*
X3950000D01*
Y1162498D01*
X3960000D01*
Y1099998D01*
X4004375D01*
Y658977D01*
X3874355Y528957D01*
X3869559Y521778D01*
X3867875Y513312D01*
Y433409D01*
X3861700Y428658D01*
X3849000Y434749D01*
Y605000D01*
X3659000D01*
Y415000D01*
X3835750D01*
X3841010Y402300D01*
X3820835Y382125D01*
X3604000D01*
X3595533Y380441D01*
X3588355Y375645D01*
X3549708Y336997D01*
X3536669Y344526D01*
X3512507Y351000D01*
X3487493D01*
X3463332Y344526D01*
X3441669Y332019D01*
X3423981Y314331D01*
X3411475Y292668D01*
X3405000Y268507D01*
Y243493D01*
X3411475Y219332D01*
X3423981Y197669D01*
X3436825Y184825D01*
X3431565Y172125D01*
X3361165D01*
X3326997Y206292D01*
X3334526Y219332D01*
X3341000Y243493D01*
Y268507D01*
X3334526Y292668D01*
X3322019Y314331D01*
X3304331Y332019D01*
X3282669Y344526D01*
X3258507Y351000D01*
X3233493D01*
X3209332Y344526D01*
X3187669Y332019D01*
X3169981Y314331D01*
X3157475Y292668D01*
X3151000Y268507D01*
Y243493D01*
X3157475Y219332D01*
X3169981Y197669D01*
X3187669Y179981D01*
X3209332Y167474D01*
X3233493Y161000D01*
X3258507D01*
X3282669Y167474D01*
X3295708Y175003D01*
X3336355Y134355D01*
X3343533Y129559D01*
X3352000Y127875D01*
X3840000D01*
X3848467Y129559D01*
X3855645Y134355D01*
X3995645Y274355D01*
X4000441Y281533D01*
X4002125Y290000D01*
Y390835D01*
X4070145Y458856D01*
X4074941Y466034D01*
X4076626Y474500D01*
Y1148209D01*
X4089326Y1153273D01*
X4102947Y1147631D01*
X4119854D01*
X4135475Y1154101D01*
X4147430Y1166057D01*
X4153590Y1180929D01*
X4154358Y1182051D01*
X4154689Y1182323D01*
X4166601Y1188949D01*
X4172000Y1187875D01*
X4199464D01*
X4200272Y1185926D01*
X4212227Y1173970D01*
X4227848Y1167500D01*
X4244755D01*
X4258376Y1173142D01*
X4271076Y1168077D01*
Y1067564D01*
X4222526Y1019015D01*
X4217730Y1011837D01*
X4216046Y1003370D01*
Y411829D01*
X4217730Y403362D01*
X4222526Y396184D01*
X4309003Y309708D01*
X4301475Y296668D01*
X4295000Y272507D01*
Y247493D01*
X4301475Y223332D01*
X4313981Y201669D01*
X4331669Y183981D01*
X4353332Y171474D01*
X4377493Y165000D01*
X4402507D01*
X4426669Y171474D01*
X4448331Y183981D01*
X4466019Y201669D01*
X4478526Y223332D01*
X4485000Y247493D01*
Y272507D01*
X4478526Y296668D01*
X4466019Y318331D01*
X4448331Y336019D01*
X4426669Y348526D01*
X4402507Y355000D01*
X4377493D01*
X4353332Y348526D01*
X4340293Y340997D01*
X4260297Y420993D01*
Y994205D01*
X4308846Y1042755D01*
X4311204Y1046285D01*
X4323191Y1049263D01*
X4326413Y1049037D01*
X4385405Y990045D01*
Y697870D01*
X4387090Y689403D01*
X4391886Y682225D01*
X4422352Y651758D01*
X4415778Y640372D01*
X4398507Y645000D01*
X4373493D01*
X4349332Y638526D01*
X4327669Y626019D01*
X4309981Y608331D01*
X4297475Y586668D01*
X4291000Y562507D01*
Y537493D01*
X4297475Y513331D01*
X4309981Y491669D01*
X4327669Y473981D01*
X4349332Y461474D01*
X4373493Y455000D01*
X4398507D01*
X4422669Y461474D01*
X4444331Y473981D01*
X4457940Y487590D01*
X4470640Y482329D01*
Y476546D01*
X4472324Y468080D01*
X4477120Y460902D01*
X4555875Y382147D01*
Y355000D01*
X4549000D01*
Y165000D01*
X4739000D01*
Y355000D01*
X4600125D01*
Y391312D01*
X4598441Y399778D01*
X4593645Y406957D01*
X4557335Y443267D01*
X4562195Y455000D01*
X4735000D01*
Y573710D01*
X4781847Y620557D01*
X4786643Y627735D01*
X4788327Y636202D01*
Y724201D01*
X4787902Y726339D01*
Y822901D01*
X4667502D01*
Y702501D01*
X4744077D01*
Y653747D01*
X4735000Y645000D01*
X4545000D01*
Y472195D01*
X4533267Y467334D01*
X4514890Y485711D01*
Y612635D01*
X4513206Y621102D01*
X4508410Y628280D01*
X4429656Y707034D01*
Y999209D01*
X4427971Y1007676D01*
X4423175Y1014854D01*
X4343326Y1094703D01*
Y1279976D01*
X4346314Y1281646D01*
X4356026Y1283870D01*
X4365926Y1273970D01*
X4381546Y1267500D01*
X4398454D01*
X4401331Y1268692D01*
X4412501Y1259572D01*
Y1212498D01*
X4470001D01*
Y1264998D01*
X4432796D01*
X4426311Y1277698D01*
X4429643Y1282299D01*
X4540201D01*
Y1392699D01*
X4463626D01*
Y1405499D01*
X4461942Y1413966D01*
X4457146Y1421144D01*
X4443560Y1434729D01*
X4447741Y1448509D01*
X4449258Y1448811D01*
X4459057Y1455359D01*
X4465604Y1465157D01*
X4467904Y1476716D01*
Y1505146D01*
X4437700D01*
Y1525146D01*
X4467904D01*
Y1553575D01*
X4469020Y1554935D01*
X4530493D01*
X4545872Y1539556D01*
X4553050Y1534760D01*
X4561516Y1533076D01*
X4627500D01*
Y1500001D01*
X4709370D01*
X4712701Y1495400D01*
X4706217Y1482700D01*
X4697700D01*
Y1430200D01*
X4755200D01*
Y1451124D01*
X4765759Y1458179D01*
X4766626Y1457821D01*
X4783533D01*
X4786940Y1459232D01*
X4797500Y1452176D01*
Y1440000D01*
X4869999D01*
Y1430000D01*
X4879999D01*
Y1365000D01*
X4898638D01*
X4907600Y1352300D01*
X4907331Y1350943D01*
Y1271119D01*
X4754111Y1117899D01*
X4675000D01*
Y997499D01*
X4708075D01*
Y972898D01*
X4667502D01*
Y852498D01*
X4787902D01*
Y890573D01*
X4817499D01*
Y852498D01*
X4937899D01*
Y972898D01*
X4817499D01*
Y934824D01*
X4787902D01*
Y972898D01*
X4752326D01*
Y997499D01*
X4785400D01*
Y1081151D01*
X4790001Y1084629D01*
X4802701Y1078309D01*
Y1067699D01*
X4855201D01*
Y1125199D01*
X4840584D01*
X4835723Y1136932D01*
X4945101Y1246309D01*
X4949897Y1253487D01*
X4951581Y1261954D01*
Y1278947D01*
X4964281Y1285735D01*
X4967865Y1283341D01*
Y1180010D01*
X4969549Y1171543D01*
X4974345Y1164365D01*
X5158307Y980403D01*
X5157500Y978454D01*
Y961546D01*
X5163970Y945926D01*
X5175926Y933970D01*
X5191546Y927500D01*
X5208454D01*
X5224074Y933970D01*
X5236030Y945926D01*
X5242500Y961546D01*
Y978454D01*
X5236030Y994074D01*
X5224074Y1006030D01*
X5208454Y1012500D01*
X5191546D01*
X5189597Y1011693D01*
X5012115Y1189175D01*
Y1293876D01*
X5013558Y1294474D01*
X5025514Y1306429D01*
X5031156Y1320050D01*
X5043717Y1325449D01*
X5077875Y1291292D01*
Y1190000D01*
X5079559Y1181533D01*
X5084355Y1174355D01*
X5374355Y884355D01*
X5381533Y879559D01*
X5390000Y877875D01*
X5723163D01*
X5723970Y875926D01*
X5735926Y863970D01*
X5737875Y863163D01*
Y702290D01*
X5739559Y693823D01*
X5744355Y686645D01*
X6293545Y137455D01*
X6300723Y132659D01*
X6309190Y130975D01*
X8223569D01*
X8232035Y132659D01*
X8239213Y137455D01*
X8544843Y443085D01*
X8549639Y450263D01*
X8551324Y458730D01*
Y648699D01*
X8549639Y657166D01*
X8544843Y664344D01*
X8512898Y696289D01*
Y775399D01*
X8392498D01*
Y739622D01*
X8369707D01*
X8359168Y749900D01*
X8358549Y751772D01*
X8356030Y764437D01*
X8347964Y776507D01*
X8335894Y784573D01*
X8321655Y787405D01*
X8193824D01*
X8179586Y784573D01*
X8167516Y776507D01*
X8159450Y764437D01*
X8156618Y750198D01*
X8159450Y735960D01*
X8166179Y725890D01*
X8167502Y717699D01*
X8166179Y709508D01*
X8159450Y699438D01*
X8156618Y685200D01*
X8157253Y682009D01*
X8114868Y639624D01*
X7979650D01*
X7975189Y652324D01*
X7983990Y661126D01*
X7990461Y676746D01*
Y693653D01*
X7983990Y709274D01*
X7972035Y721229D01*
X7956414Y727700D01*
X7954539D01*
X7946830Y740400D01*
X7948779Y750198D01*
X7945947Y764437D01*
X7937881Y776507D01*
X7925811Y784573D01*
X7911572Y787405D01*
X7783741D01*
X7780797Y786819D01*
X7770980Y794876D01*
Y808884D01*
X7771116Y809020D01*
X8030000D01*
X8049509Y812901D01*
X8065000Y823252D01*
X8068126Y821163D01*
X8069176Y820113D01*
X8070547Y819545D01*
X8080491Y812901D01*
X8100000Y809020D01*
X9700000D01*
X9719509Y812901D01*
X9736048Y823952D01*
X9796048Y883952D01*
X9807099Y900491D01*
X9810980Y920000D01*
Y1370000D01*
X9807099Y1389509D01*
X9796048Y1406048D01*
X9725210Y1476886D01*
X9725833Y1489571D01*
X9739342Y1500658D01*
X9761211Y1527305D01*
X9777461Y1557706D01*
X9787468Y1590694D01*
X9790847Y1625000D01*
Y1875000D01*
X9787468Y1909306D01*
X9777461Y1942294D01*
X9761211Y1972695D01*
X9739342Y1999342D01*
X9717730Y2017079D01*
X9716862Y2019097D01*
Y2030903D01*
X9717730Y2032921D01*
X9739342Y2050658D01*
X9761211Y2077305D01*
X9777461Y2107706D01*
X9782106Y2123019D01*
X9787099Y2130491D01*
X9790980Y2150000D01*
Y2590000D01*
X9787099Y2609509D01*
X9776048Y2626048D01*
X9706048Y2696048D01*
X9689509Y2707099D01*
X9670000Y2710979D01*
X8580000D01*
X8560491Y2707099D01*
X8543952Y2696048D01*
X8531931Y2684026D01*
X8520197Y2688886D01*
Y2722700D01*
X8462697D01*
Y2660200D01*
X8452697D01*
Y2650200D01*
X8385197D01*
Y2620979D01*
X8370847D01*
Y2679391D01*
X8370847D01*
X8366081Y2685198D01*
X8257740D01*
Y2705198D01*
X8364316D01*
X8362906Y2712284D01*
X8353227Y2726770D01*
X8353354Y2741959D01*
X8356030Y2745963D01*
X8358862Y2760201D01*
X8358227Y2763392D01*
X8370612Y2775778D01*
X8392497D01*
Y2740001D01*
X8512897D01*
Y2850401D01*
X8472125D01*
Y2883163D01*
X8474074Y2883970D01*
X8486030Y2895926D01*
X8492500Y2911546D01*
Y2928453D01*
X8486030Y2944074D01*
X8474074Y2956029D01*
X8458453Y2962500D01*
X8441546D01*
X8425926Y2956029D01*
X8413970Y2944074D01*
X8407500Y2928453D01*
Y2911546D01*
X8413970Y2895926D01*
X8425926Y2883970D01*
X8427875Y2883163D01*
Y2850401D01*
X8392497D01*
Y2814624D01*
X8369707D01*
X8359168Y2824902D01*
X8358549Y2826774D01*
X8356030Y2839438D01*
X8347964Y2851509D01*
X8335893Y2859574D01*
X8321655Y2862407D01*
X8193824D01*
X8179586Y2859574D01*
X8167515Y2851509D01*
X8159450Y2839438D01*
X8156618Y2825200D01*
X8159450Y2810962D01*
X8166179Y2800892D01*
X8167502Y2792701D01*
X8166179Y2784510D01*
X8159450Y2774440D01*
X8156618Y2760201D01*
X8157253Y2757006D01*
X8114868Y2714621D01*
X7942482D01*
X7937881Y2721506D01*
Y2733893D01*
X7945947Y2745963D01*
X7947943Y2756001D01*
X7949084Y2756764D01*
X8065645Y2873324D01*
X8070441Y2880502D01*
X8072125Y2888969D01*
Y2903163D01*
X8074074Y2903970D01*
X8086030Y2915926D01*
X8092500Y2931546D01*
Y2934999D01*
X8210524D01*
X8220199Y2927699D01*
X8227576Y2927700D01*
X8282699D01*
Y3002699D01*
Y3077699D01*
X8227576D01*
X8220200Y3077699D01*
X8210524Y3070399D01*
X8207499D01*
X8087500D01*
Y3024825D01*
X8007898D01*
Y3067899D01*
X7998277D01*
X7991221Y3078459D01*
X7992500Y3081546D01*
Y3098454D01*
X7986030Y3114074D01*
X7974074Y3126030D01*
X7958454Y3132500D01*
X7941546D01*
X7925926Y3126030D01*
X7913970Y3114074D01*
X7907500Y3098454D01*
Y3081546D01*
X7908779Y3078459D01*
X7901723Y3067899D01*
X7892498D01*
Y2937499D01*
X8007500D01*
Y2931546D01*
X8013970Y2915926D01*
X8021643Y2908253D01*
X8022389Y2893900D01*
X8021710Y2891970D01*
X7960602Y2830861D01*
X7946821Y2835041D01*
X7945947Y2839438D01*
X7937881Y2851509D01*
X7925810Y2859574D01*
X7911572Y2862407D01*
X7869782D01*
Y2952742D01*
X7868098Y2961209D01*
X7863302Y2968387D01*
X7862899Y2968789D01*
Y3067899D01*
X7747500D01*
Y2937499D01*
X7825531D01*
Y2862407D01*
X7783741D01*
X7769503Y2859574D01*
X7757432Y2851509D01*
X7749367Y2839438D01*
X7746535Y2825200D01*
X7749184Y2811883D01*
X7747138Y2809264D01*
X7739246Y2803249D01*
X7735667Y2805640D01*
X7727200Y2807325D01*
X7712900D01*
Y2840399D01*
X7604360D01*
X7598033Y2853100D01*
X7601504Y2857699D01*
X7642699D01*
Y2920200D01*
Y2982699D01*
X7585200D01*
Y2924613D01*
X7572500Y2919596D01*
X7556048Y2936048D01*
X7539509Y2947099D01*
X7520000Y2950979D01*
X7036665D01*
X7017156Y2947099D01*
X7000617Y2936048D01*
X6989566Y2919509D01*
X6985686Y2900000D01*
Y2852159D01*
Y2603239D01*
Y2583335D01*
X6989566Y2563826D01*
X7000617Y2547287D01*
X7005191Y2542713D01*
X7000331Y2530979D01*
X6860958D01*
X6855697Y2543679D01*
X6910468Y2598450D01*
X6970618D01*
Y2661950D01*
X6879178D01*
Y2629740D01*
X6820156Y2570718D01*
X6509643D01*
X6462017Y2618343D01*
X6454839Y2623139D01*
X6446372Y2624824D01*
X6388310D01*
Y2663505D01*
X6267259D01*
Y2541892D01*
X6388310D01*
Y2580573D01*
X6437208D01*
X6481449Y2536332D01*
X6481891Y2524276D01*
X6480609Y2520496D01*
X6473952Y2516048D01*
X6407729Y2449825D01*
X6388225D01*
Y2488506D01*
X6267175D01*
Y2366893D01*
X6313723D01*
X6321843Y2354193D01*
X6319020Y2340000D01*
X6319020Y2250000D01*
X6322901Y2230491D01*
X6333952Y2213952D01*
X6343547Y2204357D01*
X6338687Y2192624D01*
X6306952D01*
X6144416Y2355160D01*
X6149276Y2366893D01*
X6238055D01*
Y2488506D01*
X6140842D01*
X6138705Y2488932D01*
X6092358D01*
X6052125Y2529165D01*
Y3010000D01*
X6050441Y3018467D01*
X6045645Y3025645D01*
X5985645Y3085645D01*
X5978467Y3090441D01*
X5970000Y3092125D01*
X5894355D01*
X5791686Y3194794D01*
X5796947Y3207494D01*
X5808442D01*
X5824063Y3213964D01*
X5836018Y3225919D01*
X5842488Y3241540D01*
Y3249557D01*
X5855188Y3254817D01*
X5905650Y3204355D01*
X5912828Y3199559D01*
X5921295Y3197875D01*
X6023163D01*
X6023970Y3195926D01*
X6035926Y3183970D01*
X6051546Y3177500D01*
X6068454D01*
X6084074Y3183970D01*
X6096030Y3195926D01*
X6102500Y3211546D01*
Y3213167D01*
X6115200Y3218428D01*
X6155489Y3178138D01*
Y2663505D01*
X6117089D01*
Y2541892D01*
X6238140D01*
Y2663505D01*
X6199740D01*
Y3187303D01*
X6198055Y3195770D01*
X6193259Y3202948D01*
X6075645Y3320562D01*
X6068467Y3325358D01*
X6060000Y3327042D01*
X5885142D01*
X5840231Y3371953D01*
X5837710Y3373638D01*
X5836387Y3374960D01*
X5841247Y3386694D01*
X5937436Y3386693D01*
X5947112Y3379393D01*
X5949829Y3379394D01*
X6010000D01*
Y3450000D01*
Y3520606D01*
X5947112Y3520607D01*
X5937436Y3513307D01*
X5934412Y3513306D01*
X5837194D01*
X5832334Y3525040D01*
X5849041Y3541747D01*
X5852346Y3546694D01*
X5940155Y3546694D01*
X5949831Y3539394D01*
X5952548Y3539394D01*
X6012719D01*
Y3610001D01*
Y3680607D01*
X5949831Y3680607D01*
X5940155Y3673307D01*
X5937131Y3673307D01*
X5811696D01*
Y3570531D01*
X5811271Y3568394D01*
Y3566556D01*
X5779808Y3535093D01*
X5772627Y3535948D01*
X5770841Y3537141D01*
X5763186Y3548629D01*
X5764359Y3554522D01*
Y3560872D01*
X5762067Y3572392D01*
X5755867Y3582698D01*
X5762067Y3593005D01*
X5764359Y3604524D01*
Y3610874D01*
X5762067Y3622394D01*
X5755541Y3632160D01*
X5755191Y3645850D01*
X5756916Y3654522D01*
Y3660872D01*
X5755191Y3669544D01*
X5750279Y3676895D01*
X5748376Y3678167D01*
Y3711610D01*
X5754074Y3713970D01*
X5766030Y3725926D01*
X5772500Y3741546D01*
Y3758454D01*
X5766030Y3774074D01*
X5754074Y3786030D01*
X5738454Y3792500D01*
X5721546D01*
X5705926Y3786030D01*
X5693970Y3774074D01*
X5688141Y3760000D01*
X5633538D01*
Y3784255D01*
X5638904Y3795200D01*
X5654525Y3801670D01*
X5666480Y3813626D01*
X5672950Y3829246D01*
Y3846153D01*
X5666480Y3861774D01*
X5654525Y3873729D01*
X5638904Y3880200D01*
X5621997D01*
X5614701Y3877178D01*
X5599903Y3883085D01*
X5599062Y3885496D01*
X5599648Y3889548D01*
X5603719Y3893619D01*
X5610189Y3909239D01*
Y3926146D01*
X5603719Y3941767D01*
X5591763Y3953722D01*
X5576143Y3960192D01*
X5559235D01*
X5543615Y3953722D01*
X5531659Y3941767D01*
X5525189Y3926146D01*
Y3909239D01*
X5528083Y3902252D01*
X5519597Y3889552D01*
X5513497D01*
X5502930Y3885175D01*
X5497847Y3889844D01*
X5494473Y3895418D01*
X5500200Y3909246D01*
Y3926153D01*
X5493730Y3941774D01*
X5481774Y3953729D01*
X5466154Y3960200D01*
X5449247D01*
X5433626Y3953729D01*
X5422524Y3942627D01*
X5418473Y3943012D01*
X5409824Y3946360D01*
Y3987498D01*
X5420400D01*
Y4107898D01*
X5310000D01*
Y3987498D01*
X5319177D01*
X5323970Y3975926D01*
X5335926Y3963970D01*
X5351546Y3957500D01*
X5365573D01*
Y3933113D01*
X5358455Y3927657D01*
X5345199Y3931831D01*
X5341080Y3941774D01*
X5329124Y3953729D01*
X5313504Y3960200D01*
X5296597D01*
X5280976Y3953729D01*
X5269021Y3941774D01*
X5262551Y3926154D01*
X5250200D01*
X5243730Y3941774D01*
X5231774Y3953729D01*
X5216154Y3960200D01*
X5199247D01*
X5183626Y3953729D01*
X5171671Y3941774D01*
X5165200Y3926153D01*
Y3914849D01*
X5157531Y3906373D01*
X5153467Y3904850D01*
X5139247D01*
X5123626Y3898380D01*
X5111670Y3886424D01*
X5105200Y3870804D01*
Y3853896D01*
X5111670Y3838276D01*
X5122553Y3827394D01*
X5123390Y3824817D01*
X5122829Y3823642D01*
X5110873Y3814358D01*
X5104523D01*
X5093003Y3812067D01*
X5083237Y3805541D01*
X5076711Y3795775D01*
X5074420Y3784255D01*
Y3760000D01*
X5010000D01*
Y3683532D01*
X4989775D01*
X4949824Y3723483D01*
Y3867502D01*
X4992899D01*
Y3982902D01*
X4862499D01*
Y3867502D01*
X4905573D01*
Y3714318D01*
X4907258Y3705852D01*
X4912054Y3698674D01*
X4915615Y3695112D01*
X4910267Y3682500D01*
X4898496D01*
X4887901Y3678111D01*
X4875201Y3684948D01*
Y3715199D01*
X4787701D01*
Y3657699D01*
X4858272D01*
X4864450Y3648453D01*
Y3631546D01*
X4869057Y3620424D01*
X4863285Y3609193D01*
X4861618Y3607723D01*
X4816837D01*
X4816030Y3609672D01*
X4804074Y3621628D01*
X4788454Y3628098D01*
X4771546D01*
X4755926Y3621628D01*
X4743970Y3609672D01*
X4737500Y3594052D01*
Y3577144D01*
X4738945Y3573658D01*
X4731889Y3563098D01*
X4674801D01*
Y3528637D01*
X4620601D01*
Y3563098D01*
X4469162D01*
X4433640Y3598620D01*
Y3657699D01*
X4507702D01*
Y3725199D01*
Y3792699D01*
X4433640D01*
Y3929279D01*
X4765922Y4261561D01*
X5590000D01*
X5595000Y4262556D01*
X5600000Y4261561D01*
X5641880D01*
X5641882Y4261561D01*
X5656591Y4264487D01*
X5660948Y4267398D01*
X5671390Y4264600D01*
X5688610D01*
X5705243Y4269057D01*
X5720156Y4277667D01*
X5732333Y4289843D01*
X5740943Y4304756D01*
X5745400Y4321390D01*
Y4338610D01*
X5740943Y4355244D01*
X5732333Y4370157D01*
X5720156Y4382333D01*
X5705243Y4390943D01*
X5688610Y4395400D01*
D02*
G37*
G36*
X917502Y4329998D02*
X860002D01*
Y4277498D01*
X917502D01*
Y4329998D01*
D02*
G37*
G36*
X840002D02*
X782502D01*
Y4277498D01*
X840002D01*
Y4329998D01*
D02*
G37*
G36*
X917502Y4257498D02*
X860002D01*
Y4204998D01*
X917502D01*
Y4257498D01*
D02*
G37*
G36*
X840002D02*
X782502D01*
Y4204998D01*
X840002D01*
Y4257498D01*
D02*
G37*
G36*
X1685198Y4208199D02*
X1504798D01*
Y4182125D01*
X1486837D01*
X1486030Y4184074D01*
X1474074Y4196030D01*
X1458454Y4202500D01*
X1441546D01*
X1425926Y4196030D01*
X1413970Y4184074D01*
X1407500Y4168454D01*
Y4151546D01*
X1413970Y4135926D01*
X1425926Y4123970D01*
X1441546Y4117500D01*
X1458454D01*
X1474074Y4123970D01*
X1484541Y4134437D01*
X1497507Y4135190D01*
X1498570Y4135122D01*
X1501919Y4131773D01*
X1503332Y4125175D01*
X1497018Y4117940D01*
X1494741Y4116418D01*
X1489841Y4113144D01*
X1472853Y4096156D01*
X1468057Y4088978D01*
X1466372Y4080511D01*
Y3795043D01*
X1468057Y3786577D01*
X1472853Y3779399D01*
X1483397Y3768854D01*
X1490575Y3764058D01*
X1499042Y3762374D01*
X1504798D01*
Y3741799D01*
X1685198D01*
Y3743255D01*
X1687502Y3755001D01*
X1745002D01*
Y3817500D01*
X1765002D01*
Y3755001D01*
X1809376D01*
Y3670197D01*
X1691306Y3552127D01*
X1247703D01*
Y3592702D01*
X1002303D01*
Y3508716D01*
X1002018Y3507287D01*
X978305Y3483574D01*
X965605Y3488835D01*
Y3537698D01*
X909998D01*
Y3479791D01*
X945012D01*
X951801Y3467091D01*
X949501Y3463649D01*
X920606D01*
X920605Y3463649D01*
X916889Y3462910D01*
X841692D01*
Y3417834D01*
X759396D01*
X759395Y3417835D01*
X744685Y3414909D01*
X732215Y3406576D01*
X732214Y3406575D01*
X647756Y3322118D01*
X623001Y3328751D01*
X596999D01*
X571884Y3322021D01*
X549366Y3309021D01*
X530980Y3290635D01*
X517980Y3268117D01*
X511250Y3243002D01*
Y3217000D01*
X517980Y3191885D01*
X530980Y3169367D01*
X549366Y3150981D01*
X571884Y3137981D01*
X596999Y3131251D01*
X623001D01*
X648116Y3137981D01*
X670634Y3150981D01*
X689020Y3169367D01*
X702020Y3191885D01*
X708750Y3217000D01*
Y3243002D01*
X702117Y3267757D01*
X775317Y3340957D01*
X879390D01*
X879392Y3340957D01*
X883107Y3341696D01*
X958305D01*
Y3386772D01*
X974301D01*
X974302Y3386771D01*
X989012Y3389698D01*
X1001482Y3398030D01*
X1067182Y3463730D01*
X1067183Y3463731D01*
X1069569Y3467302D01*
X1247703D01*
Y3507877D01*
X1700471D01*
X1708937Y3509561D01*
X1716115Y3514357D01*
X1847146Y3645388D01*
X1851942Y3652566D01*
X1853627Y3661033D01*
Y3935638D01*
X1866327Y3940899D01*
X1921081Y3886144D01*
Y3752774D01*
X1922766Y3744307D01*
X1927562Y3737129D01*
X2136833Y3527858D01*
X2131972Y3516125D01*
X2065165D01*
X1951693Y3629597D01*
X1952500Y3631546D01*
Y3648454D01*
X1946030Y3664074D01*
X1934074Y3676030D01*
X1918454Y3682500D01*
X1901546D01*
X1885926Y3676030D01*
X1873970Y3664074D01*
X1867500Y3648454D01*
Y3631546D01*
X1873970Y3615926D01*
X1885926Y3603970D01*
X1901546Y3597500D01*
X1918454D01*
X1920403Y3598308D01*
X2040355Y3478355D01*
X2047533Y3473559D01*
X2056000Y3471875D01*
X2153218D01*
X2158738Y3466355D01*
X2165916Y3461559D01*
X2174383Y3459875D01*
X2488064D01*
X2491916Y3447175D01*
X2487965Y3444535D01*
X2479677Y3432131D01*
X2476766Y3417499D01*
Y3344999D01*
X2515001D01*
Y3324999D01*
X2476766D01*
Y3252498D01*
X2479677Y3237867D01*
X2487965Y3225463D01*
X2497862Y3218850D01*
X2501883Y3204910D01*
X2481514Y3184541D01*
X2445611D01*
Y3224562D01*
X2445611Y3225441D01*
X2447733Y3237262D01*
X2452911D01*
Y3297587D01*
X2385000D01*
X2317089D01*
Y3237262D01*
X2322267D01*
X2324389Y3225441D01*
X2324389Y3224562D01*
Y3184541D01*
X2236748D01*
X2227700Y3193589D01*
Y3377699D01*
X1942300D01*
Y3162299D01*
X2196410D01*
X2211938Y3146771D01*
X2219116Y3141975D01*
X2227583Y3140291D01*
X2324389D01*
Y3099391D01*
X2445611D01*
Y3140291D01*
X2490678D01*
X2499145Y3141975D01*
X2506323Y3146771D01*
X2581572Y3222020D01*
X2591782Y3224051D01*
X2601772Y3230726D01*
X2601790Y3230752D01*
X2616514Y3231735D01*
X2622873Y3224984D01*
Y3184164D01*
X2535833Y3097125D01*
X2522412D01*
X2513945Y3095441D01*
X2506767Y3090645D01*
X2426734Y3010612D01*
X2334388D01*
Y2957125D01*
X2215002D01*
X2206535Y2955441D01*
X2199357Y2950645D01*
X2196410Y2947697D01*
X1942300D01*
Y2732298D01*
X2227700D01*
Y2912875D01*
X2334388D01*
Y2885441D01*
X2334388Y2884562D01*
X2332266Y2872741D01*
X2327088D01*
Y2812416D01*
X2394999D01*
X2462910D01*
Y2872741D01*
X2457732D01*
X2455610Y2884562D01*
X2455610Y2885441D01*
Y2976908D01*
X2531577Y3052875D01*
X2544998D01*
X2553465Y3054559D01*
X2560643Y3059355D01*
X2660643Y3159355D01*
X2665439Y3166533D01*
X2667123Y3175000D01*
Y3231253D01*
X2670441Y3236219D01*
X2670551Y3236264D01*
X2684443D01*
X2684553Y3236219D01*
X2688223Y3230726D01*
X2698213Y3224051D01*
X2709996Y3221707D01*
X2721780Y3224051D01*
X2731769Y3230726D01*
X2735442Y3236223D01*
X2735558Y3236270D01*
X2749439D01*
X2749554Y3236223D01*
X2753227Y3230726D01*
X2763217Y3224051D01*
X2775000Y3221707D01*
X2786783Y3224051D01*
X2796773Y3230726D01*
X2800443Y3236219D01*
X2800553Y3236264D01*
X2814445D01*
X2814555Y3236219D01*
X2818226Y3230726D01*
X2828215Y3224051D01*
X2839999Y3221707D01*
X2851782Y3224051D01*
X2861772Y3230726D01*
X2865442Y3236219D01*
X2865552Y3236264D01*
X2879444D01*
X2879554Y3236219D01*
X2883224Y3230726D01*
X2893214Y3224051D01*
X2904997Y3221707D01*
X2916781Y3224051D01*
X2926770Y3230726D01*
X2930443Y3236223D01*
X2930559Y3236270D01*
X2944440D01*
X2944555Y3236223D01*
X2948228Y3230726D01*
X2958218Y3224051D01*
X2970001Y3221707D01*
X2981784Y3224051D01*
X2991774Y3230726D01*
X2995444Y3236219D01*
X2995554Y3236264D01*
X3009446D01*
X3009556Y3236219D01*
X3013227Y3230726D01*
X3023216Y3224051D01*
X3035000Y3221707D01*
X3046783Y3224051D01*
X3056772Y3230726D01*
X3060443Y3236219D01*
X3060553Y3236264D01*
X3074445D01*
X3074555Y3236219D01*
X3078225Y3230726D01*
X3088215Y3224051D01*
X3099998Y3221707D01*
X3111781Y3224051D01*
X3121771Y3230726D01*
X3128446Y3240715D01*
X3130790Y3252498D01*
Y3417499D01*
X3128446Y3429282D01*
X3121771Y3439272D01*
X3111781Y3445946D01*
X3101570Y3447978D01*
X3023903Y3525645D01*
X3016724Y3530441D01*
X3008258Y3532125D01*
X2195145D01*
X1994217Y3733053D01*
X1999078Y3744787D01*
X2012532D01*
Y3812698D01*
Y3880608D01*
X1965332D01*
Y3895309D01*
X1963647Y3903776D01*
X1958851Y3910954D01*
X1756661Y4113144D01*
X1749483Y4117940D01*
X1741016Y4119624D01*
X1696583D01*
X1685198Y4122799D01*
X1685198Y4132324D01*
Y4208199D01*
D02*
G37*
G36*
X7960000Y4680980D02*
X7600000D01*
X7580491Y4677099D01*
X7563952Y4666048D01*
X7552901Y4649509D01*
X7549020Y4630000D01*
Y4220000D01*
X7552901Y4200491D01*
X7563952Y4183952D01*
X7580491Y4172901D01*
X7600000Y4169021D01*
X7960000D01*
X7979509Y4172901D01*
X7996048Y4183952D01*
X8007099Y4200491D01*
X8010980Y4220000D01*
Y4630000D01*
X8007099Y4649509D01*
X7996048Y4666048D01*
X7979509Y4677099D01*
X7960000Y4680980D01*
D02*
G37*
G36*
X6858650Y4680979D02*
X6498650D01*
X6479141Y4677099D01*
X6462602Y4666048D01*
X6451551Y4649509D01*
X6447670Y4630000D01*
Y4220000D01*
X6451551Y4200491D01*
X6462602Y4183952D01*
X6479141Y4172901D01*
X6498650Y4169020D01*
X6858650D01*
X6878159Y4172901D01*
X6894698Y4183952D01*
X6905749Y4200491D01*
X6909630Y4220000D01*
Y4630000D01*
X6905749Y4649509D01*
X6894698Y4666048D01*
X6878159Y4677099D01*
X6858650Y4680979D01*
D02*
G37*
G36*
X1145199Y4208199D02*
X964799D01*
Y4166624D01*
X944750D01*
X936283Y4164940D01*
X929105Y4160144D01*
X922902Y4153941D01*
X910202Y4156509D01*
Y4187702D01*
X789802D01*
Y4152125D01*
X776837D01*
X776030Y4154074D01*
X764074Y4166030D01*
X748454Y4172500D01*
X731546D01*
X715926Y4166030D01*
X703970Y4154074D01*
X697500Y4138454D01*
Y4121546D01*
X703970Y4105926D01*
X715926Y4093970D01*
X731546Y4087500D01*
X748454D01*
X764074Y4093970D01*
X776030Y4105926D01*
X776837Y4107875D01*
X789802D01*
Y4077302D01*
X910202D01*
Y4107875D01*
X930251D01*
X938717Y4109559D01*
X945895Y4114355D01*
X953914Y4122374D01*
X1033999D01*
X1036136Y4122799D01*
X1145199D01*
Y4208199D01*
D02*
G37*
G36*
X2473001Y4588750D02*
X2446999D01*
X2421884Y4582020D01*
X2399366Y4569020D01*
X2380980Y4550634D01*
X2367980Y4528116D01*
X2361250Y4503001D01*
Y4476999D01*
X2367980Y4451884D01*
X2380980Y4429366D01*
X2399366Y4410980D01*
X2421884Y4397980D01*
X2446999Y4391250D01*
X2447875D01*
Y4177898D01*
X2427502D01*
Y4139823D01*
X2397901D01*
Y4177899D01*
X2277501D01*
Y4057499D01*
X2310802D01*
X2313908Y4050547D01*
X2314695Y4044799D01*
X2303970Y4034074D01*
X2301412Y4027897D01*
X2277501D01*
Y3907497D01*
X2397901D01*
Y4027897D01*
X2378588D01*
X2376030Y4034074D01*
X2365304Y4044799D01*
X2366092Y4050547D01*
X2369198Y4057499D01*
X2397901D01*
Y4095573D01*
X2427502D01*
Y4057498D01*
X2547902D01*
Y4177898D01*
X2492125D01*
Y4396374D01*
X2498116Y4397980D01*
X2520634Y4410980D01*
X2539020Y4429366D01*
X2552020Y4451884D01*
X2558750Y4476999D01*
Y4503001D01*
X2552020Y4528116D01*
X2539020Y4550634D01*
X2520634Y4569020D01*
X2498116Y4582020D01*
X2473001Y4588750D01*
D02*
G37*
G36*
X2223001D02*
X2196999D01*
X2171884Y4582020D01*
X2149366Y4569020D01*
X2130980Y4550634D01*
X2117980Y4528116D01*
X2111250Y4503001D01*
Y4476999D01*
X2117980Y4451884D01*
X2130980Y4429366D01*
X2149366Y4410980D01*
X2171884Y4397980D01*
X2196999Y4391250D01*
X2201987D01*
Y4251289D01*
Y4177898D01*
X2127503D01*
Y4139823D01*
X2097902D01*
Y4177895D01*
X1977502D01*
Y4057495D01*
X2010798D01*
X2013898Y4050562D01*
X2014691Y4044795D01*
X2003970Y4034074D01*
X2001412Y4027898D01*
X1977502D01*
Y3907498D01*
X2097902D01*
Y4027898D01*
X2078588D01*
X2076030Y4034074D01*
X2065309Y4044795D01*
X2066102Y4050562D01*
X2069202Y4057495D01*
X2097902D01*
Y4095573D01*
X2127503D01*
Y4057498D01*
X2247903D01*
Y4177898D01*
X2246237D01*
Y4251289D01*
Y4397476D01*
X2248116Y4397980D01*
X2270634Y4410980D01*
X2289020Y4429366D01*
X2302020Y4451884D01*
X2308750Y4476999D01*
Y4503001D01*
X2302020Y4528116D01*
X2289020Y4550634D01*
X2270634Y4569020D01*
X2248116Y4582020D01*
X2223001Y4588750D01*
D02*
G37*
G36*
X5292699Y4115198D02*
X5240199D01*
Y4057699D01*
X5292699D01*
Y4115198D01*
D02*
G37*
G36*
X5220199D02*
X5167699D01*
Y4057699D01*
X5220199D01*
Y4115198D01*
D02*
G37*
G36*
X2723001Y4588750D02*
X2696999D01*
X2671884Y4582020D01*
X2649366Y4569020D01*
X2630980Y4550634D01*
X2617980Y4528116D01*
X2611250Y4503001D01*
Y4476999D01*
X2617980Y4451884D01*
X2630980Y4429366D01*
X2649366Y4410980D01*
X2671884Y4397980D01*
X2696999Y4391250D01*
X2697875D01*
Y4190584D01*
X2697874Y4185402D01*
X2686419Y4177895D01*
X2577501D01*
Y4057495D01*
X2610798D01*
X2613898Y4050563D01*
X2614691Y4044795D01*
X2603970Y4034074D01*
X2601412Y4027898D01*
X2577501D01*
Y3907498D01*
X2697901D01*
Y4027898D01*
X2678588D01*
X2676030Y4034074D01*
X2665309Y4044795D01*
X2666102Y4050563D01*
X2669202Y4057495D01*
X2697901D01*
Y4095572D01*
X2727504D01*
Y4057498D01*
X2847904D01*
Y4177898D01*
X2758794D01*
X2742125Y4194566D01*
Y4396374D01*
X2748116Y4397980D01*
X2770634Y4410980D01*
X2789020Y4429366D01*
X2802020Y4451884D01*
X2808750Y4476999D01*
Y4503001D01*
X2802020Y4528116D01*
X2789020Y4550634D01*
X2770634Y4569020D01*
X2748116Y4582020D01*
X2723001Y4588750D01*
D02*
G37*
G36*
X3923001D02*
X3896999D01*
X3871884Y4582020D01*
X3849366Y4569020D01*
X3830980Y4550634D01*
X3817980Y4528116D01*
X3811250Y4503001D01*
Y4476999D01*
X3817980Y4451884D01*
X3830980Y4429366D01*
X3849366Y4410980D01*
X3871884Y4397980D01*
X3896999Y4391250D01*
X3923001D01*
X3935164Y4394509D01*
X3945574Y4385784D01*
Y4212326D01*
X3838244D01*
X3829777Y4210642D01*
X3822599Y4205846D01*
X3812055Y4195301D01*
X3807259Y4188123D01*
X3805575Y4179656D01*
Y4172902D01*
X3767500D01*
Y4052502D01*
X3794437D01*
X3799698Y4039802D01*
X3793970Y4034074D01*
X3789342Y4022899D01*
X3767500D01*
Y3902499D01*
X3887900D01*
Y4022899D01*
X3870658D01*
X3866030Y4034074D01*
X3860302Y4039802D01*
X3865563Y4052502D01*
X3887900D01*
Y4166425D01*
X3899826Y4167966D01*
X3912499Y4167120D01*
Y4052501D01*
X4042899D01*
Y4167901D01*
X3989825D01*
Y4190201D01*
Y4398146D01*
X3988140Y4406613D01*
X3983344Y4413791D01*
X3978395Y4418741D01*
X3989020Y4429366D01*
X4002020Y4451884D01*
X4008750Y4476999D01*
Y4503001D01*
X4002020Y4528116D01*
X3989020Y4550634D01*
X3970634Y4569020D01*
X3948116Y4582020D01*
X3923001Y4588750D01*
D02*
G37*
G36*
X4173001D02*
X4146999D01*
X4121884Y4582020D01*
X4099366Y4569020D01*
X4080980Y4550634D01*
X4067980Y4528116D01*
X4061250Y4503001D01*
Y4476999D01*
X4067980Y4451884D01*
X4080980Y4429366D01*
X4099366Y4410980D01*
X4121884Y4397980D01*
X4134073Y4394714D01*
Y4172902D01*
X4067498D01*
Y4052502D01*
X4094437D01*
X4099698Y4039802D01*
X4093970Y4034074D01*
X4089342Y4022899D01*
X4067498D01*
Y3902499D01*
X4187898D01*
Y4022899D01*
X4170658D01*
X4166030Y4034074D01*
X4160302Y4039802D01*
X4165563Y4052502D01*
X4187898D01*
Y4144619D01*
X4199631Y4149480D01*
X4212500Y4136610D01*
Y4052500D01*
X4342900D01*
Y4167900D01*
X4243790D01*
X4205846Y4205845D01*
X4198667Y4210641D01*
X4190201Y4212325D01*
X4178323D01*
Y4392676D01*
X4198116Y4397980D01*
X4220634Y4410980D01*
X4239020Y4429366D01*
X4252020Y4451884D01*
X4258750Y4476999D01*
Y4503001D01*
X4252020Y4528116D01*
X4239020Y4550634D01*
X4220634Y4569020D01*
X4198116Y4582020D01*
X4173001Y4588750D01*
D02*
G37*
G36*
X3673001D02*
X3646999D01*
X3621884Y4582020D01*
X3599366Y4569020D01*
X3580980Y4550634D01*
X3567980Y4528116D01*
X3561250Y4503001D01*
Y4476999D01*
X3567980Y4451884D01*
X3580980Y4429366D01*
X3599366Y4410980D01*
X3621884Y4397980D01*
X3637875Y4393695D01*
Y4209825D01*
X3538246D01*
X3529779Y4208140D01*
X3522602Y4203344D01*
X3512057Y4192800D01*
X3507261Y4185622D01*
X3505577Y4177155D01*
Y4172902D01*
X3467502D01*
Y4052502D01*
X3494437D01*
X3499698Y4039802D01*
X3493970Y4034074D01*
X3489342Y4022899D01*
X3467502D01*
Y3902499D01*
X3587902D01*
Y4022899D01*
X3570658D01*
X3566030Y4034074D01*
X3560302Y4039802D01*
X3565563Y4052502D01*
X3587902D01*
Y4163924D01*
X3599828Y4165464D01*
X3612502Y4164619D01*
Y4050000D01*
X3742902D01*
Y4165400D01*
X3682125D01*
Y4187700D01*
Y4393695D01*
X3698116Y4397980D01*
X3720634Y4410980D01*
X3739020Y4429366D01*
X3752020Y4451884D01*
X3758750Y4476999D01*
Y4503001D01*
X3752020Y4528116D01*
X3739020Y4550634D01*
X3720634Y4569020D01*
X3698116Y4582020D01*
X3673001Y4588750D01*
D02*
G37*
G36*
X3037498Y4100000D02*
X2979999D01*
Y4047500D01*
X3037498D01*
Y4100000D01*
D02*
G37*
G36*
X2959999D02*
X2902498D01*
Y4047500D01*
X2959999D01*
Y4100000D01*
D02*
G37*
G36*
X4992899Y4127901D02*
X4862499D01*
Y4012501D01*
X4992898D01*
X4992899Y4012500D01*
Y4012500D01*
X5005599Y4014298D01*
X5005926Y4013970D01*
X5021546Y4007500D01*
X5038454D01*
X5054074Y4013970D01*
X5066030Y4025926D01*
X5072500Y4041546D01*
Y4058454D01*
X5066030Y4074074D01*
X5054074Y4086030D01*
X5038454Y4092500D01*
X5021546D01*
X5005926Y4086030D01*
X5005599Y4085702D01*
X4992899Y4090963D01*
Y4127901D01*
D02*
G37*
G36*
X1145199Y4081199D02*
X964799D01*
Y4060624D01*
X918499D01*
X910032Y4058940D01*
X902854Y4054144D01*
X662453Y3813743D01*
X648116Y3822020D01*
X623001Y3828750D01*
X596999D01*
X571884Y3822020D01*
X549366Y3809020D01*
X530980Y3790634D01*
X517980Y3768116D01*
X511250Y3743001D01*
Y3716999D01*
X517980Y3691884D01*
X530980Y3669366D01*
X549366Y3650980D01*
X571884Y3637980D01*
X596999Y3631250D01*
X623001D01*
X648116Y3637980D01*
X670634Y3650980D01*
X689020Y3669366D01*
X702020Y3691884D01*
X708750Y3716999D01*
Y3743001D01*
X702020Y3768116D01*
X693743Y3782453D01*
X927664Y4016374D01*
X964799D01*
Y3995799D01*
X1145199D01*
Y4081199D01*
D02*
G37*
G36*
X5292699Y4037699D02*
X5240199D01*
Y3980198D01*
X5292699D01*
Y4037699D01*
D02*
G37*
G36*
X5220199D02*
X5167699D01*
Y3980198D01*
X5220199D01*
Y4037699D01*
D02*
G37*
G36*
X3037498Y4027500D02*
X2979999D01*
Y3975000D01*
X3037498D01*
Y4027500D01*
D02*
G37*
G36*
X2959999D02*
X2902498D01*
Y3975000D01*
X2959999D01*
Y4027500D01*
D02*
G37*
G36*
X2637703Y3880608D02*
X2577378D01*
Y3822698D01*
X2637703D01*
Y3880608D01*
D02*
G37*
G36*
X2325118Y3880608D02*
X2264793D01*
Y3822697D01*
X2325118D01*
Y3880608D01*
D02*
G37*
G36*
X3837701Y3862700D02*
X3790201D01*
Y3807701D01*
X3837701D01*
Y3862700D01*
D02*
G37*
G36*
X4137702D02*
X4090202D01*
Y3807701D01*
X4137702D01*
Y3862700D01*
D02*
G37*
G36*
X1145199Y3954199D02*
X964799D01*
Y3868799D01*
X953995Y3864222D01*
X952576Y3863940D01*
X945398Y3859144D01*
X654555Y3568301D01*
X648116Y3572018D01*
X623001Y3578748D01*
X596999D01*
X571884Y3572018D01*
X549366Y3559018D01*
X530980Y3540632D01*
X517980Y3518114D01*
X511250Y3492999D01*
Y3466997D01*
X517980Y3441882D01*
X530980Y3419364D01*
X549366Y3400978D01*
X571884Y3387977D01*
X596999Y3381248D01*
X623001D01*
X648116Y3387977D01*
X670634Y3400978D01*
X689020Y3419364D01*
X702020Y3441882D01*
X708750Y3466997D01*
Y3492999D01*
X702020Y3518114D01*
X689183Y3540349D01*
X953065Y3804232D01*
X964799Y3799372D01*
Y3741799D01*
X1145199D01*
Y3827199D01*
X1066949D01*
X1062308Y3835778D01*
X1061342Y3839899D01*
X1065440Y3846032D01*
X1067124Y3854499D01*
Y3868799D01*
X1145199D01*
Y3954199D01*
D02*
G37*
G36*
X4875201Y3792699D02*
X4787701D01*
Y3735199D01*
X4875201D01*
Y3792699D01*
D02*
G37*
G36*
X4615201D02*
X4527702D01*
Y3735199D01*
X4615201D01*
Y3792699D01*
D02*
G37*
G36*
X4767701D02*
X4680201D01*
Y3735199D01*
X4767701D01*
Y3792699D01*
D02*
G37*
G36*
X3837701Y3787701D02*
X3790201D01*
Y3732700D01*
X3837701D01*
Y3787701D01*
D02*
G37*
G36*
X4767701Y3715199D02*
X4680201D01*
Y3657699D01*
X4767701D01*
Y3715199D01*
D02*
G37*
G36*
X4615201D02*
X4527702D01*
Y3657699D01*
X4615201D01*
Y3715199D01*
D02*
G37*
G36*
X6032719Y3680607D02*
Y3620001D01*
X6095607D01*
Y3680607D01*
X6032719D01*
D02*
G37*
G36*
X965605Y3615605D02*
X909998D01*
Y3557697D01*
X965605D01*
Y3615605D01*
D02*
G37*
G36*
X889998D02*
X834392D01*
Y3557697D01*
X889998D01*
Y3615605D01*
D02*
G37*
G36*
X6095607Y3600001D02*
X6032719D01*
Y3539394D01*
X6095607D01*
Y3600001D01*
D02*
G37*
G36*
X889998Y3537698D02*
X834392D01*
Y3479791D01*
X889998D01*
Y3537698D01*
D02*
G37*
G36*
X6030000Y3520606D02*
Y3460000D01*
X6092888D01*
Y3520606D01*
X6030000D01*
D02*
G37*
G36*
X6092888Y3440000D02*
X6030000D01*
Y3379394D01*
X6092888D01*
Y3440000D01*
D02*
G37*
G36*
X9140000Y4480980D02*
X9120491Y4477099D01*
X9103952Y4466048D01*
X9092901Y4449509D01*
X9089020Y4430000D01*
Y3400000D01*
X9091520Y3387432D01*
Y3350000D01*
X9135075D01*
X9140000Y3349020D01*
X9820000D01*
X9824925Y3350000D01*
X9871520D01*
Y4130000D01*
X9832096D01*
X9646048Y4316048D01*
X9629509Y4327099D01*
X9610000Y4330980D01*
X9511117D01*
X9376048Y4466048D01*
X9359509Y4477099D01*
X9340000Y4480979D01*
X9140000Y4480980D01*
D02*
G37*
G36*
X2452911Y3377912D02*
X2395000D01*
Y3317587D01*
X2452911D01*
Y3377912D01*
D02*
G37*
G36*
X2375000D02*
X2317089D01*
Y3317587D01*
X2375000D01*
Y3377912D01*
D02*
G37*
G36*
X1855001Y3485000D02*
X1735001D01*
Y3310000D01*
X1855001D01*
Y3485000D01*
D02*
G37*
G36*
X1255003Y3370000D02*
X1135003D01*
Y3310000D01*
X1255003D01*
Y3370000D01*
D02*
G37*
G36*
X1715001Y3485000D02*
X1595001D01*
Y3310000D01*
X1715001D01*
Y3485000D01*
D02*
G37*
G36*
X1255003Y3290000D02*
X1135003D01*
Y3230000D01*
X1255003D01*
Y3290000D01*
D02*
G37*
G36*
X1115003Y3370000D02*
X995003D01*
Y3296512D01*
X985000Y3290000D01*
X982302Y3290000D01*
X885000D01*
Y3210000D01*
X985000D01*
Y3223488D01*
X995003Y3230000D01*
X997700Y3230000D01*
X1115003D01*
Y3300000D01*
Y3370000D01*
D02*
G37*
G36*
X865000Y3290000D02*
X765000D01*
Y3210000D01*
X865000D01*
Y3290000D01*
D02*
G37*
G36*
X1855001D02*
X1735001D01*
Y3115000D01*
X1855001D01*
Y3290000D01*
D02*
G37*
G36*
X1715001D02*
X1595001D01*
Y3115000D01*
X1715001D01*
Y3290000D01*
D02*
G37*
G36*
X3678454Y3232500D02*
X3661546D01*
X3645926Y3226030D01*
X3633970Y3214074D01*
X3627500Y3198454D01*
Y3185401D01*
X3625003D01*
Y3090001D01*
X3745403D01*
Y3185401D01*
X3712500D01*
Y3198454D01*
X3706030Y3214074D01*
X3694074Y3226030D01*
X3678454Y3232500D01*
D02*
G37*
G36*
X3188454Y3152500D02*
X3171546D01*
X3155926Y3146030D01*
X3143970Y3134074D01*
X3143163Y3132125D01*
X2740000D01*
X2731533Y3130441D01*
X2724355Y3125645D01*
X2627474Y3028763D01*
X2618454Y3032500D01*
X2601546D01*
X2585926Y3026030D01*
X2573970Y3014074D01*
X2567500Y2998453D01*
Y2981546D01*
X2573970Y2965926D01*
X2585926Y2953970D01*
X2601546Y2947500D01*
X2618454D01*
X2634074Y2953970D01*
X2646030Y2965926D01*
X2652500Y2981546D01*
Y2991210D01*
X2749165Y3087875D01*
X3143163D01*
X3143970Y3085926D01*
X3155926Y3073970D01*
X3171546Y3067500D01*
X3188454D01*
X3204074Y3073970D01*
X3216030Y3085926D01*
X3222500Y3101546D01*
Y3118454D01*
X3216030Y3134074D01*
X3204074Y3146030D01*
X3188454Y3152500D01*
D02*
G37*
G36*
X8302699Y3077699D02*
Y3012699D01*
X8365200D01*
Y3077699D01*
X8302699D01*
D02*
G37*
G36*
X3910401Y3185401D02*
X3790001D01*
Y3090001D01*
X3840776D01*
Y3040400D01*
X3792500D01*
Y2982123D01*
X3765202D01*
X3765201Y2982123D01*
X3762901Y2984011D01*
Y3040400D01*
X3627501D01*
Y2964621D01*
X3607902D01*
Y3010398D01*
X3487502D01*
Y2899998D01*
X3607902D01*
Y2925775D01*
X3627501D01*
Y2885000D01*
X3762901D01*
Y2932931D01*
X3773246Y2943277D01*
X3792500D01*
Y2885000D01*
X3927899D01*
Y3040400D01*
X3879623D01*
Y3090001D01*
X3910401D01*
Y3185401D01*
D02*
G37*
G36*
X7720200Y2982699D02*
X7662699D01*
Y2930200D01*
X7720200D01*
Y2982699D01*
D02*
G37*
G36*
X8365200Y2992699D02*
X8302699D01*
Y2927700D01*
X8365200D01*
Y2992699D01*
D02*
G37*
G36*
X1487500Y2942500D02*
X1435000D01*
Y2885000D01*
X1487500D01*
Y2942500D01*
D02*
G37*
G36*
X1415000D02*
X1362500D01*
Y2885000D01*
X1415000D01*
Y2942500D01*
D02*
G37*
G36*
X7720200Y2910200D02*
X7662699D01*
Y2857699D01*
X7720200D01*
Y2910200D01*
D02*
G37*
G36*
X3537702Y2882697D02*
X3480202D01*
Y2830197D01*
X3537702D01*
Y2882697D01*
D02*
G37*
G36*
X3445002Y2882499D02*
X3392502D01*
Y2825000D01*
X3445002D01*
Y2882499D01*
D02*
G37*
G36*
X985000Y3190000D02*
X875000D01*
X765000D01*
Y3110000D01*
X776253D01*
X776253Y3110000D01*
Y3022700D01*
X772300D01*
Y2857301D01*
X823259D01*
X926689Y2753870D01*
X934799Y2745202D01*
X934799D01*
X934800Y2745201D01*
Y2614802D01*
X1050199D01*
Y2636419D01*
X1061933Y2641279D01*
X1078268Y2624943D01*
Y2590081D01*
X1079952Y2581614D01*
X1084748Y2574436D01*
X1228847Y2430338D01*
X1236025Y2425542D01*
X1244492Y2423857D01*
X1593365D01*
X1613363Y2403859D01*
X1608503Y2392125D01*
X1144163D01*
X1050199Y2486089D01*
Y2585199D01*
X934800D01*
Y2454799D01*
X1018910D01*
X1036778Y2436931D01*
X1031918Y2425198D01*
X934802D01*
Y2294798D01*
X1050202D01*
X1050202Y2294798D01*
X1061588Y2291625D01*
X1071546Y2287500D01*
X1088454D01*
X1104074Y2293970D01*
X1116030Y2305926D01*
X1122500Y2321546D01*
Y2338453D01*
X1132106Y2348450D01*
X1134999Y2347875D01*
X1312173D01*
X1324800Y2347698D01*
Y2280382D01*
X1320063Y2279439D01*
X1312885Y2274643D01*
X1305412Y2267170D01*
X1305411Y2267170D01*
X1271273Y2233031D01*
X1266029Y2234074D01*
X1254074Y2246030D01*
X1238454Y2252500D01*
X1221546D01*
X1205926Y2246030D01*
X1193970Y2234074D01*
X1187500Y2218454D01*
Y2201546D01*
X1193970Y2185926D01*
X1205926Y2173971D01*
X1207836Y2167674D01*
X1206906Y2166283D01*
X1205222Y2157816D01*
Y2075201D01*
X1202302D01*
Y1954801D01*
X1312702D01*
Y2075201D01*
X1249472D01*
Y2148652D01*
X1266757Y2165936D01*
X1266757Y2165936D01*
X1266758Y2165937D01*
X1305767Y2204946D01*
X1317500Y2200086D01*
Y2167498D01*
X1385000D01*
Y2147498D01*
X1317500D01*
Y2094998D01*
X1329506D01*
X1329997Y2082501D01*
X1329998Y2082297D01*
Y2025001D01*
X1392498D01*
Y2015001D01*
X1402498D01*
Y1947501D01*
X1452300D01*
X1454998Y1947501D01*
X1465001Y1940990D01*
Y1892982D01*
X1452500Y1892501D01*
X1452300Y1892501D01*
X1395000D01*
Y1830001D01*
Y1767501D01*
X1452300D01*
X1452500Y1767501D01*
X1465001Y1767019D01*
Y1694827D01*
X1445200D01*
Y1750200D01*
X1324800D01*
Y1729475D01*
X1312100Y1720989D01*
X1308454Y1722500D01*
X1296593D01*
X1291546Y1722500D01*
X1290608Y1723127D01*
X1290608Y1730792D01*
Y1777701D01*
X1235002D01*
Y1719794D01*
X1250986D01*
X1257774Y1707094D01*
X1254977Y1702908D01*
X1166695D01*
Y1581694D01*
X1283308D01*
Y1620176D01*
X1318136D01*
X1362876Y1575436D01*
Y1557702D01*
X1324801D01*
Y1541896D01*
X1312101Y1536847D01*
X1298454Y1542500D01*
X1281546D01*
X1265926Y1536029D01*
X1253970Y1524074D01*
X1247500Y1508453D01*
Y1491546D01*
X1253970Y1475926D01*
X1265926Y1463970D01*
X1281546Y1457500D01*
X1298454D01*
X1312101Y1463153D01*
X1324801Y1458104D01*
Y1447302D01*
X1445201D01*
Y1490572D01*
X1465001D01*
Y1472498D01*
X1640400D01*
Y1545198D01*
X1647700D01*
Y1582697D01*
X1552700D01*
Y1602697D01*
X1647700D01*
Y1640197D01*
X1640400D01*
Y1712502D01*
Y1791535D01*
X1642258Y1793130D01*
X1653100Y1796796D01*
X1655926Y1793970D01*
X1671546Y1787500D01*
X1688454D01*
X1704074Y1793970D01*
X1716030Y1805926D01*
X1722500Y1821546D01*
Y1838454D01*
X1716030Y1854074D01*
X1708179Y1861924D01*
X1705427Y1870000D01*
X1708179Y1878075D01*
X1716030Y1885926D01*
X1722500Y1901546D01*
Y1918454D01*
X1716030Y1934074D01*
X1708179Y1941924D01*
X1705427Y1950000D01*
X1708179Y1958076D01*
X1716030Y1965926D01*
X1722500Y1981546D01*
Y1998453D01*
X1716030Y2014074D01*
X1708179Y2021924D01*
X1705427Y2030000D01*
X1708179Y2038075D01*
X1716030Y2045926D01*
X1722500Y2061546D01*
Y2078454D01*
X1716030Y2094074D01*
X1708179Y2101924D01*
X1705427Y2110000D01*
X1708179Y2118076D01*
X1716030Y2125926D01*
X1722500Y2141546D01*
Y2158454D01*
X1716030Y2174074D01*
X1704074Y2186030D01*
X1688454Y2192500D01*
X1671546D01*
X1660401Y2187883D01*
X1649200Y2193628D01*
X1647700Y2195323D01*
Y2222701D01*
X1552700D01*
Y2242701D01*
X1647700D01*
Y2280201D01*
X1640400D01*
Y2319263D01*
X1653100Y2324523D01*
X1982067Y1995557D01*
X1989245Y1990761D01*
X1997712Y1989077D01*
X2330471D01*
X2337526Y1978517D01*
X2337500Y1978453D01*
Y1961546D01*
X2343970Y1945926D01*
X2355926Y1933970D01*
X2371546Y1927500D01*
X2388454D01*
X2404074Y1933970D01*
X2416030Y1945926D01*
X2422500Y1961546D01*
Y1978453D01*
X2422474Y1978517D01*
X2429530Y1989077D01*
X2604998D01*
Y1872502D01*
Y1800202D01*
X2597698D01*
Y1762702D01*
X2692698D01*
Y1742702D01*
X2597698D01*
Y1705202D01*
X2604998D01*
Y1692125D01*
X2576837D01*
X2576030Y1694074D01*
X2564074Y1706030D01*
X2548454Y1712500D01*
X2531546D01*
X2515926Y1706030D01*
X2503970Y1694074D01*
X2497500Y1678454D01*
Y1661546D01*
X2503970Y1645926D01*
X2515926Y1633970D01*
X2531546Y1627500D01*
X2548454D01*
X2564074Y1633970D01*
X2576030Y1645926D01*
X2576837Y1647875D01*
X2604998D01*
Y1595191D01*
X2602219Y1594638D01*
X2595041Y1589842D01*
X2573053Y1567855D01*
X2568257Y1560677D01*
X2566573Y1552210D01*
Y1480907D01*
X2563369Y1472029D01*
X2554491Y1468826D01*
X2224827D01*
Y1470256D01*
X2223143Y1478722D01*
X2221414Y1481310D01*
X2226030Y1485926D01*
X2232500Y1501546D01*
Y1518454D01*
X2226030Y1534074D01*
X2214074Y1546030D01*
X2198454Y1552500D01*
X2181546D01*
X2165926Y1546030D01*
X2153970Y1534074D01*
X2147500Y1518454D01*
Y1501546D01*
X2153970Y1485926D01*
X2165926Y1473970D01*
X2171430Y1471690D01*
X2174355Y1467313D01*
X2180577Y1461091D01*
Y1430400D01*
X2090202D01*
Y1437700D01*
X2052702D01*
Y1342700D01*
X2032702D01*
Y1437700D01*
X1995202D01*
Y1430400D01*
X1682503D01*
Y1259721D01*
X1679586Y1259141D01*
X1672408Y1254345D01*
X1634087Y1216024D01*
X1629291Y1208846D01*
X1627606Y1200379D01*
Y1196396D01*
X1601820Y1170610D01*
X1507104D01*
Y1049388D01*
X1598512D01*
X1604166Y1036756D01*
X1599310Y1030613D01*
X1507104D01*
Y909391D01*
X1633110D01*
Y999323D01*
X1687055Y1053268D01*
X1691851Y1060445D01*
X1704391Y1058394D01*
Y1049393D01*
X1762298D01*
Y1115000D01*
X1772298D01*
Y1125000D01*
X1840205D01*
Y1167481D01*
X1857091D01*
Y1056693D01*
X1978305D01*
Y1129481D01*
X1995120D01*
X2003587Y1131166D01*
X2010765Y1135962D01*
X2119847Y1245043D01*
X2124643Y1252221D01*
X2125196Y1255001D01*
X2260576D01*
Y1061588D01*
X2247876Y1058185D01*
X2242019Y1068331D01*
X2224331Y1086019D01*
X2202668Y1098526D01*
X2178507Y1105000D01*
X2153493D01*
X2129332Y1098526D01*
X2107669Y1086019D01*
X2089981Y1068331D01*
X2077474Y1046668D01*
X2071000Y1022507D01*
Y997493D01*
X2077474Y973332D01*
X2089981Y951669D01*
X2107669Y933981D01*
X2129332Y921474D01*
X2153493Y915000D01*
X2178507D01*
X2202668Y921474D01*
X2224331Y933981D01*
X2242019Y951669D01*
X2247876Y961815D01*
X2260576Y958412D01*
Y851000D01*
X2071000D01*
Y661000D01*
X2229710D01*
X2291254Y599456D01*
X2184355Y492556D01*
X2179559Y485378D01*
X2177875Y476911D01*
Y396305D01*
X2161884Y392020D01*
X2139366Y379020D01*
X2120980Y360634D01*
X2107980Y338116D01*
X2101250Y313001D01*
Y286999D01*
X2107980Y261884D01*
X2120980Y239366D01*
X2139366Y220980D01*
X2161884Y207980D01*
X2186999Y201250D01*
X2213001D01*
X2238116Y207980D01*
X2260634Y220980D01*
X2279020Y239366D01*
X2292020Y261884D01*
X2298750Y286999D01*
Y313001D01*
X2292020Y338116D01*
X2279020Y360634D01*
X2260634Y379020D01*
X2238116Y392020D01*
X2222125Y396305D01*
Y467747D01*
X2331709Y577331D01*
X2729456D01*
X2737923Y579015D01*
X2745101Y583811D01*
X2855645Y694355D01*
X2860441Y701533D01*
X2862125Y710000D01*
Y1040000D01*
X2860441Y1048467D01*
X2869120Y1058336D01*
X2870645Y1059355D01*
X2889597Y1078307D01*
X2891546Y1077500D01*
X2908454D01*
X2924074Y1083970D01*
X2936030Y1095926D01*
X2942500Y1111546D01*
Y1128454D01*
X2936030Y1144074D01*
X2924074Y1156030D01*
X2908454Y1162500D01*
X2891546D01*
X2875926Y1156030D01*
X2863970Y1144074D01*
X2857500Y1128454D01*
Y1111546D01*
X2858307Y1109597D01*
X2845836Y1097125D01*
X2814164D01*
X2618944Y1292345D01*
X2611766Y1297141D01*
X2603300Y1298825D01*
X2562901D01*
Y1398130D01*
X2574634Y1402990D01*
X2691662Y1285962D01*
X2698839Y1281166D01*
X2707306Y1279482D01*
X2801691D01*
Y1206694D01*
X2922905D01*
Y1323307D01*
X2827830D01*
X2825692Y1323732D01*
X2716471D01*
X2661362Y1378841D01*
X2666223Y1390575D01*
X2789802D01*
Y1359800D01*
X2890202D01*
Y1470200D01*
X2800158D01*
X2793416Y1470201D01*
X2789098Y1470797D01*
X2780769Y1477844D01*
X2780399Y1484434D01*
X2780398Y1484444D01*
X2780398Y1484819D01*
Y1552498D01*
Y1627366D01*
X2789391Y1632416D01*
X2802091Y1626952D01*
Y1575002D01*
X2872416D01*
Y1565002D01*
X2882416D01*
Y1497091D01*
X2942741D01*
Y1502269D01*
X2954562Y1504391D01*
X2955441Y1504391D01*
X3080612D01*
Y1625613D01*
X3052122D01*
Y1642299D01*
X3102699D01*
Y1807698D01*
X2984767D01*
X2973504Y1818962D01*
X2972682Y1823093D01*
X2968472Y1829394D01*
X2955568Y1842298D01*
X2960828Y1854998D01*
X3019999D01*
Y1944998D01*
X3039999D01*
Y1854998D01*
X3105175D01*
X3109999Y1854998D01*
X3117875Y1845561D01*
Y1030000D01*
X3119559Y1021533D01*
X3124355Y1014355D01*
X3218308Y920403D01*
X3217500Y918454D01*
Y901546D01*
X3223970Y885926D01*
X3235926Y873970D01*
X3251546Y867500D01*
X3268454D01*
X3284074Y873970D01*
X3296030Y885926D01*
X3302500Y901546D01*
Y918454D01*
X3296030Y934074D01*
X3284074Y946030D01*
X3268454Y952500D01*
X3251546D01*
X3249597Y951693D01*
X3162125Y1039165D01*
Y1109799D01*
X3172810Y1113779D01*
X3174825Y1113885D01*
X3288307Y1000403D01*
X3287500Y998453D01*
Y981546D01*
X3293970Y965926D01*
X3305926Y953970D01*
X3321546Y947500D01*
X3338454D01*
X3354074Y953970D01*
X3366030Y965926D01*
X3372500Y981546D01*
Y998453D01*
X3366030Y1014074D01*
X3354074Y1026029D01*
X3338454Y1032500D01*
X3321546D01*
X3319597Y1031692D01*
X3212125Y1139164D01*
Y2250000D01*
X3210441Y2258467D01*
X3205645Y2265645D01*
X3086444Y2384846D01*
X3079266Y2389642D01*
X3070799Y2391326D01*
X2931045D01*
X2925785Y2404026D01*
X3099633Y2577875D01*
X3183163D01*
X3183970Y2575926D01*
X3195926Y2563970D01*
X3211546Y2557500D01*
X3228454D01*
X3244074Y2563970D01*
X3256030Y2575926D01*
X3262500Y2591546D01*
Y2608454D01*
X3256030Y2624074D01*
X3244074Y2636030D01*
X3228454Y2642500D01*
X3211546D01*
X3195926Y2636030D01*
X3183970Y2624074D01*
X3183163Y2622125D01*
X3090469D01*
X3082002Y2620441D01*
X3074824Y2615645D01*
X3013079Y2553900D01*
X3002313Y2561094D01*
X3002500Y2561546D01*
Y2578454D01*
X2996030Y2594074D01*
X2984074Y2606030D01*
X2968454Y2612500D01*
X2960008D01*
X2954748Y2625200D01*
X2971568Y2642020D01*
X2981784Y2644052D01*
X2991774Y2650727D01*
X2995444Y2656220D01*
X2995554Y2656265D01*
X3009446D01*
X3009556Y2656220D01*
X3013227Y2650727D01*
X3023216Y2644052D01*
X3035000Y2641708D01*
X3046783Y2644052D01*
X3056772Y2650727D01*
X3060443Y2656220D01*
X3060553Y2656265D01*
X3074445D01*
X3074555Y2656220D01*
X3078225Y2650727D01*
X3088215Y2644052D01*
X3099998Y2641708D01*
X3111781Y2644052D01*
X3121771Y2650727D01*
X3128446Y2660716D01*
X3130790Y2672500D01*
Y2754374D01*
X3167677D01*
X3172976Y2741674D01*
X3167500Y2728454D01*
Y2711546D01*
X3173970Y2695926D01*
X3185926Y2683970D01*
X3201546Y2677500D01*
X3218454D01*
X3234074Y2683970D01*
X3246030Y2695926D01*
X3252500Y2711546D01*
Y2728454D01*
X3246847Y2742099D01*
X3249935Y2749863D01*
X3253265Y2754799D01*
X3302701D01*
Y2838451D01*
X3307302Y2841929D01*
X3320002Y2835609D01*
Y2825000D01*
X3372503D01*
Y2882499D01*
X3366897D01*
X3360577Y2895199D01*
X3364053Y2899798D01*
X3430200D01*
Y3010198D01*
X3389229D01*
X3382173Y3020758D01*
X3382500Y3021546D01*
Y3038453D01*
X3376030Y3054074D01*
X3364074Y3066029D01*
X3348454Y3072500D01*
X3331546D01*
X3315926Y3066029D01*
X3303970Y3054074D01*
X3297500Y3038453D01*
Y3021781D01*
X3297500Y3021546D01*
X3288454Y3010198D01*
X3199798D01*
Y2977123D01*
X3095500D01*
X3087033Y2975439D01*
X3079855Y2970643D01*
X3015857Y2906645D01*
X3011061Y2899467D01*
X3009377Y2891000D01*
Y2873000D01*
X3009622Y2871769D01*
Y2853877D01*
X3009556Y2853779D01*
X3009446Y2853735D01*
X2995554D01*
X2995444Y2853779D01*
X2991774Y2859273D01*
X2981784Y2865948D01*
X2970001Y2868291D01*
X2958218Y2865948D01*
X2948228Y2859273D01*
X2934310Y2861302D01*
X2929624Y2866042D01*
Y2880662D01*
X2931573Y2881469D01*
X2943528Y2893424D01*
X2949998Y2909045D01*
Y2925952D01*
X2943528Y2941573D01*
X2931573Y2953528D01*
X2915952Y2959998D01*
X2899045D01*
X2883425Y2953528D01*
X2871469Y2941573D01*
X2864999Y2925952D01*
X2852500Y2926437D01*
Y2928454D01*
X2846030Y2944074D01*
X2834074Y2956030D01*
X2818454Y2962500D01*
X2801546D01*
X2785926Y2956030D01*
X2773970Y2944074D01*
X2771873Y2939011D01*
X2758127D01*
X2756030Y2944074D01*
X2744074Y2956030D01*
X2728454Y2962500D01*
X2711546D01*
X2695926Y2956030D01*
X2683970Y2944074D01*
X2677500Y2928454D01*
Y2911546D01*
X2683970Y2895926D01*
X2687871Y2892025D01*
Y2860127D01*
X2684872Y2858645D01*
X2673482Y2858264D01*
X2667123Y2865015D01*
Y2875002D01*
X2665439Y2883469D01*
X2660643Y2890647D01*
X2635645Y2915645D01*
X2628467Y2920441D01*
X2620000Y2922125D01*
X2586837D01*
X2586030Y2924074D01*
X2574074Y2936029D01*
X2558454Y2942500D01*
X2541546D01*
X2525926Y2936029D01*
X2513970Y2924074D01*
X2507500Y2908453D01*
Y2891546D01*
X2512015Y2880647D01*
X2507378Y2868492D01*
X2505528Y2866407D01*
X2503217Y2865948D01*
X2493228Y2859273D01*
X2486553Y2849283D01*
X2484209Y2837500D01*
Y2672500D01*
X2486553Y2660716D01*
X2488323Y2658068D01*
X2481534Y2645368D01*
X2279734D01*
X2271266Y2643683D01*
X2264089Y2638887D01*
X2205557Y2580356D01*
X2200761Y2573177D01*
X2200208Y2570398D01*
X1682503D01*
Y2413892D01*
X1670770Y2409032D01*
X1618174Y2461627D01*
X1610996Y2466423D01*
X1602529Y2468108D01*
X1253656D01*
X1151404Y2570360D01*
X1156264Y2582093D01*
X1165000D01*
Y2650000D01*
Y2717907D01*
X1109394D01*
Y2672991D01*
X1097660Y2668131D01*
X1070146Y2695645D01*
X1062968Y2700441D01*
X1054501Y2702125D01*
X1050199D01*
Y2736254D01*
X1116693D01*
Y2734788D01*
X1233306D01*
Y2736254D01*
X1250000D01*
X1259720Y2740280D01*
X1259721Y2740280D01*
X1289720Y2770279D01*
X1293746Y2780000D01*
X1293746Y2780000D01*
Y2814800D01*
X1345199D01*
Y2935200D01*
X1293746D01*
X1293746Y3110000D01*
X1289720Y3119720D01*
X1280000Y3123746D01*
X1247703D01*
Y3132698D01*
X1002303D01*
Y3123746D01*
X985000D01*
Y3190000D01*
D02*
G37*
G36*
X1487500Y2865000D02*
X1435000D01*
Y2807500D01*
X1487500D01*
Y2865000D01*
D02*
G37*
G36*
X1415000D02*
X1362500D01*
Y2807500D01*
X1415000D01*
Y2865000D01*
D02*
G37*
G36*
X3705201Y2837697D02*
Y2762698D01*
X3770201D01*
Y2837697D01*
X3705201D01*
D02*
G37*
G36*
X3537702Y2810197D02*
X3480202D01*
Y2757697D01*
X3537702D01*
Y2810197D01*
D02*
G37*
G36*
X3445002Y2805000D02*
X3392502D01*
Y2747499D01*
X3445002D01*
Y2805000D01*
D02*
G37*
G36*
X3372503D02*
X3320002D01*
Y2747499D01*
X3372503D01*
Y2805000D01*
D02*
G37*
G36*
X2462910Y2792416D02*
X2404999D01*
Y2732091D01*
X2462910D01*
Y2792416D01*
D02*
G37*
G36*
X2384999D02*
X2327088D01*
Y2732091D01*
X2384999D01*
Y2792416D01*
D02*
G37*
G36*
X634999Y2740002D02*
X584999D01*
Y2690002D01*
X634999D01*
Y2740002D01*
D02*
G37*
G36*
X564999D02*
X514999D01*
Y2690002D01*
X564999D01*
Y2740002D01*
D02*
G37*
G36*
X8442697Y2722700D02*
X8385197D01*
Y2670200D01*
X8442697D01*
Y2722700D01*
D02*
G37*
G36*
X3770201Y2742698D02*
X3705201D01*
Y2667698D01*
X3770201D01*
Y2742698D01*
D02*
G37*
G36*
X3615202Y2882697D02*
X3557702D01*
Y2820197D01*
Y2757697D01*
X3607501D01*
X3615202Y2757697D01*
X3620201Y2747068D01*
Y2667698D01*
X3685201D01*
Y2752698D01*
Y2837697D01*
X3627903D01*
X3620202Y2837698D01*
X3615202Y2848327D01*
Y2882697D01*
D02*
G37*
G36*
X1240606Y2717907D02*
X1185000D01*
Y2660000D01*
X1240606D01*
Y2717907D01*
D02*
G37*
G36*
X634999Y2670002D02*
X584999D01*
Y2620002D01*
X634999D01*
Y2670002D01*
D02*
G37*
G36*
X564999D02*
X514999D01*
Y2620002D01*
X564999D01*
Y2670002D01*
D02*
G37*
G36*
X905201Y2745202D02*
X789801D01*
Y2734150D01*
X777701Y2732702D01*
Y2732702D01*
X672301D01*
Y2627302D01*
X777701D01*
Y2627302D01*
X789801Y2625853D01*
Y2614802D01*
X905201D01*
Y2745202D01*
D02*
G37*
G36*
X3463307Y2671026D02*
X3407700D01*
Y2608138D01*
X3463307D01*
Y2671026D01*
D02*
G37*
G36*
X3387700D02*
X3332094D01*
Y2608138D01*
X3387700D01*
Y2671026D01*
D02*
G37*
G36*
X3602700Y2655198D02*
X3550200D01*
Y2597698D01*
X3602700D01*
Y2655198D01*
D02*
G37*
G36*
X3530200D02*
X3477700D01*
Y2597698D01*
X3530200D01*
Y2655198D01*
D02*
G37*
G36*
X1240606Y2640000D02*
X1185000D01*
Y2582093D01*
X1240606D01*
Y2640000D01*
D02*
G37*
G36*
X634998Y2580002D02*
X584999D01*
Y2530002D01*
X634998D01*
Y2580002D01*
D02*
G37*
G36*
X564999D02*
X514999D01*
Y2530002D01*
X564999D01*
Y2580002D01*
D02*
G37*
G36*
X634998Y2510002D02*
X584999D01*
Y2460002D01*
X634998D01*
Y2510002D01*
D02*
G37*
G36*
X564999D02*
X514999D01*
Y2460002D01*
X564999D01*
Y2510002D01*
D02*
G37*
G36*
X905201Y2585199D02*
X789801D01*
Y2574150D01*
X777701Y2572702D01*
Y2572702D01*
X672301D01*
Y2467302D01*
X777701D01*
Y2467302D01*
X789801Y2465854D01*
Y2454799D01*
X905201D01*
Y2585199D01*
D02*
G37*
G36*
X635001Y2420001D02*
X585001D01*
Y2370001D01*
X635001D01*
Y2420001D01*
D02*
G37*
G36*
X565001D02*
X515002D01*
Y2370001D01*
X565001D01*
Y2420001D01*
D02*
G37*
G36*
X635001Y2350001D02*
X585001D01*
Y2300001D01*
X635001D01*
Y2350001D01*
D02*
G37*
G36*
X565001D02*
X515002D01*
Y2300001D01*
X565001D01*
Y2350001D01*
D02*
G37*
G36*
X905198Y2425198D02*
X789799D01*
Y2414150D01*
X777698Y2412701D01*
Y2412701D01*
X672299D01*
Y2307301D01*
X777698D01*
Y2307301D01*
X789799Y2305853D01*
Y2294798D01*
X905198D01*
Y2425198D01*
D02*
G37*
G36*
X3281154Y2555199D02*
X3264247D01*
X3248626Y2548729D01*
X3236671Y2536774D01*
X3230201Y2521153D01*
Y2504246D01*
X3236671Y2488625D01*
X3248626Y2476670D01*
X3250575Y2475863D01*
Y2377699D01*
X3252259Y2369232D01*
X3257055Y2362054D01*
X3279656Y2339453D01*
X3276901Y2332802D01*
Y2312593D01*
X3284635Y2293922D01*
X3298926Y2279631D01*
X3317597Y2271898D01*
X3337806D01*
X3356477Y2279631D01*
X3370768Y2293922D01*
X3378501Y2312593D01*
Y2332802D01*
X3370768Y2351474D01*
X3356477Y2365764D01*
X3337806Y2373498D01*
X3317597D01*
X3310946Y2370743D01*
X3294826Y2386863D01*
Y2475863D01*
X3296774Y2476670D01*
X3308730Y2488625D01*
X3315200Y2504246D01*
Y2521153D01*
X3308730Y2536774D01*
X3296774Y2548729D01*
X3281154Y2555199D01*
D02*
G37*
G36*
X3517502Y2272498D02*
X3465002D01*
Y2214998D01*
X3517502D01*
Y2272498D01*
D02*
G37*
G36*
X635001Y2259999D02*
X585001D01*
Y2209999D01*
X635001D01*
Y2259999D01*
D02*
G37*
G36*
X565001D02*
X515002D01*
Y2209999D01*
X565001D01*
Y2259999D01*
D02*
G37*
G36*
X1050198Y2265199D02*
X934798D01*
Y2134799D01*
X1038040D01*
X1042355Y2134799D01*
X1046559Y2130793D01*
X1050329Y2123588D01*
X1045509Y2115200D01*
X934800D01*
Y1984800D01*
X1050200D01*
Y2027875D01*
X1070000D01*
X1078467Y2029559D01*
X1085645Y2034355D01*
X1105645Y2054355D01*
X1110441Y2061533D01*
X1110643Y2062549D01*
X1114074Y2063970D01*
X1126030Y2075926D01*
X1132500Y2091546D01*
Y2108454D01*
X1126030Y2124074D01*
X1114074Y2136030D01*
X1098454Y2142500D01*
X1081546D01*
X1065926Y2136030D01*
X1061628Y2131732D01*
X1050330Y2138188D01*
X1050199Y2139223D01*
X1050198Y2146064D01*
Y2161737D01*
X1062898Y2166998D01*
X1065926Y2163970D01*
X1081546Y2157500D01*
X1098454D01*
X1114074Y2163970D01*
X1126030Y2175926D01*
X1132500Y2191546D01*
Y2208454D01*
X1126030Y2224074D01*
X1114074Y2236030D01*
X1098454Y2242500D01*
X1081546D01*
X1065926Y2236030D01*
X1062898Y2233002D01*
X1050198Y2238262D01*
Y2265199D01*
D02*
G37*
G36*
X635001Y2189999D02*
X585001D01*
Y2139999D01*
X635001D01*
Y2189999D01*
D02*
G37*
G36*
X565001D02*
X515002D01*
Y2139999D01*
X565001D01*
Y2189999D01*
D02*
G37*
G36*
X905200Y2265199D02*
X789800D01*
Y2254144D01*
X777698Y2252699D01*
Y2252699D01*
X672299D01*
Y2147299D01*
X777698D01*
Y2147298D01*
X789800Y2145854D01*
Y2134799D01*
X905200D01*
Y2265199D01*
D02*
G37*
G36*
X635000Y2110000D02*
X585000D01*
Y2060000D01*
X635000D01*
Y2110000D01*
D02*
G37*
G36*
X565000D02*
X515000D01*
Y2060000D01*
X565000D01*
Y2110000D01*
D02*
G37*
G36*
X635000Y2040000D02*
X585000D01*
Y1990000D01*
X635000D01*
Y2040000D01*
D02*
G37*
G36*
X565000D02*
X515000D01*
Y1990000D01*
X565000D01*
Y2040000D01*
D02*
G37*
G36*
X905200Y2115200D02*
X789800D01*
Y2104148D01*
X777700Y2102700D01*
Y2102700D01*
X672300D01*
Y1997300D01*
X777700D01*
Y1997300D01*
X789800Y1995851D01*
Y1984800D01*
X905200D01*
Y2115200D01*
D02*
G37*
G36*
X1382498Y2005001D02*
X1329998D01*
Y1947501D01*
X1382498D01*
Y2005001D01*
D02*
G37*
G36*
X635000Y1960000D02*
X585000D01*
Y1910000D01*
X635000D01*
Y1960000D01*
D02*
G37*
G36*
X565000D02*
X515000D01*
Y1910000D01*
X565000D01*
Y1960000D01*
D02*
G37*
G36*
X1375000Y1892501D02*
X1317500D01*
Y1840001D01*
X1375000D01*
Y1892501D01*
D02*
G37*
G36*
X635000Y1890000D02*
X585000D01*
Y1840000D01*
X635000D01*
Y1890000D01*
D02*
G37*
G36*
X565000D02*
X515000D01*
Y1840000D01*
X565000D01*
Y1890000D01*
D02*
G37*
G36*
X905200Y1965200D02*
X789800D01*
Y1954148D01*
X777700Y1952700D01*
Y1952700D01*
X672300D01*
Y1847300D01*
X777700D01*
Y1847300D01*
X789800Y1845852D01*
Y1834800D01*
X905200D01*
Y1965200D01*
D02*
G37*
G36*
X1290608Y1855607D02*
X1235002D01*
Y1797700D01*
X1290608D01*
Y1855607D01*
D02*
G37*
G36*
X1215002D02*
X1159395D01*
Y1797700D01*
X1215002D01*
Y1855607D01*
D02*
G37*
G36*
X1375000Y1820001D02*
X1317500D01*
Y1767501D01*
X1375000D01*
Y1820001D01*
D02*
G37*
G36*
X635000Y1810000D02*
X585000D01*
Y1760000D01*
X635000D01*
Y1810000D01*
D02*
G37*
G36*
X565000D02*
X515000D01*
Y1760000D01*
X565000D01*
Y1810000D01*
D02*
G37*
G36*
X1108454Y2002500D02*
X1091546D01*
X1075926Y1996030D01*
X1063970Y1984074D01*
X1059526Y1973345D01*
X1050200Y1965200D01*
X934800D01*
Y1834800D01*
X1020995D01*
X1027460Y1827153D01*
X1029165Y1823354D01*
X1029313Y1822601D01*
X1023496Y1815200D01*
X934800D01*
Y1684800D01*
X1050200D01*
Y1750770D01*
X1060760Y1757826D01*
X1061546Y1757500D01*
X1078454D01*
X1094074Y1763970D01*
X1106030Y1775926D01*
X1112500Y1791546D01*
Y1808454D01*
X1106030Y1824074D01*
X1094074Y1836030D01*
X1078454Y1842500D01*
X1061546D01*
X1060760Y1842174D01*
X1050200Y1849230D01*
Y1877875D01*
X1070000D01*
X1078467Y1879559D01*
X1085645Y1884355D01*
X1110479Y1909189D01*
X1115275Y1916367D01*
X1116133Y1920681D01*
X1124074Y1923970D01*
X1136030Y1935926D01*
X1142500Y1951546D01*
Y1968454D01*
X1136030Y1984074D01*
X1124074Y1996030D01*
X1108454Y2002500D01*
D02*
G37*
G36*
X1215002Y1777701D02*
X1159395D01*
Y1719794D01*
X1215002D01*
Y1777701D01*
D02*
G37*
G36*
X635000Y1740000D02*
X585000D01*
Y1690000D01*
X635000D01*
Y1740000D01*
D02*
G37*
G36*
X565000D02*
X515000D01*
Y1690000D01*
X565000D01*
Y1740000D01*
D02*
G37*
G36*
X905200Y1815200D02*
X789800D01*
Y1804149D01*
X777700Y1802700D01*
Y1802700D01*
X672300D01*
Y1697300D01*
X777700D01*
Y1697300D01*
X789800Y1695852D01*
Y1684800D01*
X905200D01*
Y1815200D01*
D02*
G37*
G36*
X3600002Y1725002D02*
X3547502D01*
Y1667502D01*
X3600002D01*
Y1725002D01*
D02*
G37*
G36*
X635000Y1660000D02*
X585000D01*
Y1610000D01*
X635000D01*
Y1660000D01*
D02*
G37*
G36*
X565000D02*
X515000D01*
Y1610000D01*
X565000D01*
Y1660000D01*
D02*
G37*
G36*
X1050200Y1665200D02*
X934800D01*
Y1534800D01*
X1010581D01*
X1011546Y1522500D01*
X995926Y1516030D01*
X983970Y1504074D01*
X977500Y1488454D01*
Y1471546D01*
X983970Y1455926D01*
X991803Y1448093D01*
X971410Y1427700D01*
X882300D01*
Y1334825D01*
X882299Y1332300D01*
X876203Y1322125D01*
X852628D01*
X844161Y1320441D01*
X836983Y1315645D01*
X814875Y1293537D01*
X810079Y1286359D01*
X808939Y1280630D01*
X806889Y1278580D01*
X751819D01*
Y1217126D01*
X497702D01*
Y1261410D01*
X594166Y1357875D01*
X717300D01*
Y1332300D01*
X837700D01*
Y1427700D01*
X717300D01*
Y1402125D01*
X585002D01*
X576535Y1400441D01*
X569357Y1395645D01*
X466412Y1292699D01*
X431802D01*
X426541Y1305399D01*
X433151Y1312010D01*
X440002Y1328549D01*
Y1346451D01*
X433151Y1362990D01*
X420493Y1375649D01*
X403953Y1382500D01*
X386051D01*
X369512Y1375649D01*
X356853Y1362990D01*
X350002Y1346451D01*
Y1328549D01*
X356853Y1312010D01*
X363463Y1305399D01*
X358203Y1292699D01*
X337302D01*
Y1226995D01*
X334521Y1226442D01*
X327343Y1221646D01*
X322547Y1214468D01*
X320863Y1206001D01*
X322547Y1197534D01*
X327343Y1190356D01*
X334521Y1185560D01*
X337302Y1185007D01*
Y1104999D01*
X330002D01*
Y1074999D01*
X417502D01*
X505002D01*
Y1104998D01*
X516509Y1107877D01*
X719649D01*
X723171Y1104355D01*
X730349Y1099559D01*
X738816Y1097875D01*
X939456D01*
X947922Y1099559D01*
X955100Y1104355D01*
X979161Y1128415D01*
X983957Y1135593D01*
X985116Y1141420D01*
X1004338D01*
X1006476Y1140994D01*
X1043226D01*
X1124355Y1059865D01*
X1131533Y1055069D01*
X1140000Y1053385D01*
X1312829D01*
X1366891Y999323D01*
Y909391D01*
X1492896D01*
Y1030613D01*
X1400690D01*
X1395835Y1036756D01*
X1401489Y1049388D01*
X1492896D01*
Y1170610D01*
X1398181D01*
X1253146Y1315645D01*
X1245968Y1320441D01*
X1237501Y1322125D01*
X1008797D01*
X1002700Y1332300D01*
X1002700Y1334825D01*
Y1396410D01*
X1030479Y1424189D01*
X1035275Y1431367D01*
X1036959Y1439834D01*
Y1441023D01*
X1044074Y1443970D01*
X1056030Y1455926D01*
X1062500Y1471546D01*
Y1488454D01*
X1056030Y1504074D01*
X1044074Y1516030D01*
X1028454Y1522500D01*
X1029419Y1534800D01*
X1050200D01*
Y1577875D01*
X1064500D01*
X1072967Y1579559D01*
X1074475Y1580567D01*
X1081312Y1577735D01*
X1098219D01*
X1113840Y1584205D01*
X1125795Y1596160D01*
X1132265Y1611781D01*
Y1628688D01*
X1125795Y1644309D01*
X1113840Y1656264D01*
X1098219Y1662734D01*
X1081312D01*
X1065692Y1656264D01*
X1062900Y1653472D01*
X1050200Y1658733D01*
Y1665200D01*
D02*
G37*
G36*
X264999Y1640001D02*
X159999D01*
Y1540001D01*
X264999D01*
Y1640001D01*
D02*
G37*
G36*
X139999D02*
X34999D01*
Y1540001D01*
X139999D01*
Y1640001D01*
D02*
G37*
G36*
X635000Y1590000D02*
X585000D01*
Y1540000D01*
X635000D01*
Y1590000D01*
D02*
G37*
G36*
X565000D02*
X515000D01*
Y1540000D01*
X565000D01*
Y1590000D01*
D02*
G37*
G36*
X905200Y1665200D02*
X789800D01*
Y1654149D01*
X777700Y1652700D01*
Y1652700D01*
X672300D01*
Y1547300D01*
X777700D01*
Y1547300D01*
X789800Y1545852D01*
Y1534800D01*
X905200D01*
Y1665200D01*
D02*
G37*
G36*
X2862416Y1555002D02*
X2802091D01*
Y1497091D01*
X2862416D01*
Y1555002D01*
D02*
G37*
G36*
X264999Y1520002D02*
X159999D01*
Y1420002D01*
X264999D01*
Y1520002D01*
D02*
G37*
G36*
X139999D02*
X34999D01*
Y1420002D01*
X139999D01*
Y1520002D01*
D02*
G37*
G36*
X1452501Y1430001D02*
X1395001D01*
Y1377501D01*
X1452501D01*
Y1430001D01*
D02*
G37*
G36*
X1375001D02*
X1317501D01*
Y1377501D01*
X1375001D01*
Y1430001D01*
D02*
G37*
G36*
X3020200Y1470200D02*
X2919800D01*
Y1359800D01*
X3020200D01*
Y1370770D01*
X3030759Y1377826D01*
X3031546Y1377500D01*
X3048454D01*
X3064074Y1383970D01*
X3076030Y1395926D01*
X3082500Y1411546D01*
Y1428454D01*
X3076030Y1444074D01*
X3064074Y1456030D01*
X3048454Y1462500D01*
X3031546D01*
X3030759Y1462174D01*
X3020200Y1469230D01*
Y1470200D01*
D02*
G37*
G36*
X4859999Y1420000D02*
X4797500D01*
Y1365000D01*
X4859999D01*
Y1420000D01*
D02*
G37*
G36*
X4755200Y1410200D02*
X4697700D01*
Y1357700D01*
X4755200D01*
Y1410200D01*
D02*
G37*
G36*
X4588454Y1502500D02*
X4571546D01*
X4555926Y1496030D01*
X4543970Y1484074D01*
X4537500Y1468454D01*
Y1451546D01*
X4543970Y1435926D01*
X4555926Y1423970D01*
X4557875Y1423163D01*
Y1270613D01*
X4547500Y1264998D01*
X4490001D01*
Y1202498D01*
Y1139998D01*
X4500630D01*
X4505490Y1128264D01*
X4474355Y1097130D01*
X4469559Y1089952D01*
X4467875Y1081485D01*
Y906837D01*
X4465926Y906030D01*
X4453970Y894074D01*
X4447500Y878454D01*
Y861546D01*
X4453970Y845926D01*
X4465926Y833970D01*
X4481546Y827500D01*
X4498454D01*
X4514074Y833970D01*
X4526030Y845926D01*
X4532500Y861546D01*
Y878454D01*
X4526030Y894074D01*
X4514074Y906030D01*
X4512125Y906837D01*
Y1072320D01*
X4595645Y1155840D01*
X4600441Y1163018D01*
X4602125Y1171485D01*
Y1416176D01*
X4607500Y1419921D01*
X4620200Y1413292D01*
Y1357700D01*
X4677700D01*
Y1420200D01*
Y1482700D01*
X4620200D01*
X4610400Y1489703D01*
X4604074Y1496030D01*
X4588454Y1502500D01*
D02*
G37*
G36*
X1452501Y1357501D02*
X1395001D01*
Y1305001D01*
X1452501D01*
Y1357501D01*
D02*
G37*
G36*
X1375001D02*
X1317501D01*
Y1305001D01*
X1375001D01*
Y1357501D01*
D02*
G37*
G36*
X3075605Y1330607D02*
X3017698D01*
Y1275000D01*
X3075605D01*
Y1330607D01*
D02*
G37*
G36*
X2997698D02*
X2939791D01*
Y1275000D01*
X2997698D01*
Y1330607D01*
D02*
G37*
G36*
X264999Y1365002D02*
X159999D01*
Y1260002D01*
X264999D01*
Y1365002D01*
D02*
G37*
G36*
X139999D02*
X34999D01*
Y1260002D01*
X139999D01*
Y1365002D01*
D02*
G37*
G36*
X3075605Y1255001D02*
X3017698D01*
Y1199394D01*
X3075605D01*
Y1255001D01*
D02*
G37*
G36*
X2997698D02*
X2939791D01*
Y1199394D01*
X2997698D01*
Y1255001D01*
D02*
G37*
G36*
X4470001Y1192498D02*
X4412501D01*
Y1139998D01*
X4470001D01*
Y1192498D01*
D02*
G37*
G36*
X3940001Y1152498D02*
X3882500D01*
Y1099998D01*
X3940001D01*
Y1152498D01*
D02*
G37*
G36*
X4927701Y1125199D02*
X4875201D01*
Y1067699D01*
X4927701D01*
Y1125199D01*
D02*
G37*
G36*
X1840205Y1105000D02*
X1782298D01*
Y1049393D01*
X1840205D01*
Y1105000D01*
D02*
G37*
G36*
X940480Y1035883D02*
X932139Y1035883D01*
X900000D01*
Y960003D01*
Y884122D01*
X940480D01*
X950156Y891423D01*
X1028176D01*
Y1028583D01*
X950156D01*
X940480Y1035883D01*
D02*
G37*
G36*
X264999Y1240002D02*
X149999D01*
X34999D01*
Y1137703D01*
X34999Y1135002D01*
Y1125002D01*
X34999Y1122302D01*
Y1020003D01*
X149999D01*
X264999D01*
Y1122302D01*
X264999Y1125002D01*
Y1135002D01*
X264999Y1137703D01*
Y1240002D01*
D02*
G37*
G36*
X505002Y1054999D02*
X417502D01*
X330002D01*
Y1024999D01*
Y1010000D01*
X417502D01*
X505002D01*
Y1024999D01*
Y1054999D01*
D02*
G37*
G36*
X3845200Y1087700D02*
X3757701D01*
Y1002700D01*
X3845200D01*
Y1087700D01*
D02*
G37*
G36*
X4927701Y1047699D02*
X4875201D01*
Y990199D01*
X4927701D01*
Y1047699D01*
D02*
G37*
G36*
X4855201D02*
X4802701D01*
Y990199D01*
X4855201D01*
Y1047699D01*
D02*
G37*
G36*
X264999Y1000003D02*
X159999D01*
Y895003D01*
X264999D01*
Y1000003D01*
D02*
G37*
G36*
X139999D02*
X34999D01*
Y895003D01*
X139999D01*
Y1000003D01*
D02*
G37*
G36*
X839520Y1035883D02*
X829844Y1028583D01*
X751819D01*
Y891423D01*
X829844D01*
X839520Y884122D01*
X847855Y884123D01*
X880000D01*
Y960003D01*
Y1035883D01*
X839520D01*
D02*
G37*
G36*
X505002Y990000D02*
X417502D01*
X330002D01*
Y960000D01*
X352270D01*
X357130Y948267D01*
X356853Y947990D01*
X350002Y931451D01*
Y913549D01*
X356853Y897009D01*
X369512Y884351D01*
X386051Y877500D01*
X403953D01*
X420493Y884351D01*
X433151Y897009D01*
X440002Y913549D01*
Y931451D01*
X433151Y947990D01*
X432874Y948267D01*
X437735Y960000D01*
X505002D01*
Y990000D01*
D02*
G37*
G36*
X4945199Y830201D02*
X4887699D01*
Y772701D01*
X4945199D01*
Y830201D01*
D02*
G37*
G36*
X4867699D02*
X4810199D01*
Y772701D01*
X4867699D01*
Y830201D01*
D02*
G37*
G36*
X264999Y839998D02*
X159999D01*
Y739998D01*
X264999D01*
Y839998D01*
D02*
G37*
G36*
X139999D02*
X34999D01*
Y739998D01*
X139999D01*
Y839998D01*
D02*
G37*
G36*
X4945199Y752701D02*
X4887699D01*
Y695201D01*
X4945199D01*
Y752701D01*
D02*
G37*
G36*
X4867699D02*
X4810199D01*
Y695201D01*
X4867699D01*
Y752701D01*
D02*
G37*
G36*
X2948454Y955800D02*
X2931546D01*
X2915926Y949330D01*
X2903970Y937374D01*
X2897500Y921754D01*
Y904846D01*
X2903970Y889226D01*
X2915926Y877270D01*
X2917875Y876463D01*
Y746837D01*
X2915926Y746030D01*
X2903970Y734074D01*
X2897500Y718454D01*
Y701546D01*
X2903970Y685926D01*
X2915926Y673970D01*
X2931546Y667500D01*
X2948454D01*
X2964074Y673970D01*
X2976030Y685926D01*
X2982500Y701546D01*
Y718454D01*
X2976030Y734074D01*
X2964074Y746030D01*
X2962125Y746837D01*
Y876463D01*
X2964074Y877270D01*
X2976030Y889226D01*
X2982500Y904846D01*
Y921754D01*
X2976030Y937374D01*
X2964074Y949330D01*
X2948454Y955800D01*
D02*
G37*
G36*
X264999Y719998D02*
X159999D01*
Y619998D01*
X264999D01*
Y719998D01*
D02*
G37*
G36*
X139999D02*
X34999D01*
Y619998D01*
X139999D01*
Y719998D01*
D02*
G37*
G36*
X2463001Y398750D02*
X2436999D01*
X2411884Y392020D01*
X2389366Y379020D01*
X2370980Y360634D01*
X2357980Y338116D01*
X2351250Y313001D01*
Y286999D01*
X2357980Y261884D01*
X2370980Y239366D01*
X2389366Y220980D01*
X2411884Y207980D01*
X2436999Y201250D01*
X2463001D01*
X2488116Y207980D01*
X2510634Y220980D01*
X2529020Y239366D01*
X2542020Y261884D01*
X2548750Y286999D01*
Y313001D01*
X2542020Y338116D01*
X2529020Y360634D01*
X2510634Y379020D01*
X2488116Y392020D01*
X2463001Y398750D01*
D02*
G37*
G36*
X1963001D02*
X1936999D01*
X1911884Y392020D01*
X1889366Y379020D01*
X1870980Y360634D01*
X1857980Y338116D01*
X1851250Y313001D01*
Y286999D01*
X1857980Y261884D01*
X1870980Y239366D01*
X1889366Y220980D01*
X1911884Y207980D01*
X1936999Y201250D01*
X1963001D01*
X1988116Y207980D01*
X2010634Y220980D01*
X2029020Y239366D01*
X2042020Y261884D01*
X2048750Y286999D01*
Y313001D01*
X2042020Y338116D01*
X2029020Y360634D01*
X2010634Y379020D01*
X1988116Y392020D01*
X1963001Y398750D01*
D02*
G37*
G36*
X1713001D02*
X1686999D01*
X1661884Y392020D01*
X1639366Y379020D01*
X1620980Y360634D01*
X1607980Y338116D01*
X1601250Y313001D01*
Y286999D01*
X1607980Y261884D01*
X1620980Y239366D01*
X1639366Y220980D01*
X1661884Y207980D01*
X1686999Y201250D01*
X1713001D01*
X1738116Y207980D01*
X1760634Y220980D01*
X1779020Y239366D01*
X1792020Y261884D01*
X1798750Y286999D01*
Y313001D01*
X1792020Y338116D01*
X1779020Y360634D01*
X1760634Y379020D01*
X1738116Y392020D01*
X1713001Y398750D01*
D02*
G37*
G36*
X1463001D02*
X1436999D01*
X1411884Y392020D01*
X1389366Y379020D01*
X1370980Y360634D01*
X1357980Y338116D01*
X1351250Y313001D01*
Y286999D01*
X1357980Y261884D01*
X1370980Y239366D01*
X1389366Y220980D01*
X1411884Y207980D01*
X1436999Y201250D01*
X1463001D01*
X1488116Y207980D01*
X1510634Y220980D01*
X1529020Y239366D01*
X1542020Y261884D01*
X1548750Y286999D01*
Y313001D01*
X1542020Y338116D01*
X1529020Y360634D01*
X1510634Y379020D01*
X1488116Y392020D01*
X1463001Y398750D01*
D02*
G37*
%LPD*%
G36*
X3451216Y3705469D02*
X3468123D01*
X3468490Y3705620D01*
X3609557Y3564553D01*
X3616735Y3559757D01*
X3625202Y3558073D01*
X3655655D01*
X3656042Y3557494D01*
X3659272Y3555336D01*
Y3540061D01*
X3656042Y3537903D01*
X3649081Y3527486D01*
X3646637Y3515199D01*
X3649081Y3502912D01*
X3654517Y3494777D01*
X3656041Y3492495D01*
X3652702Y3479453D01*
X3650779Y3478168D01*
X3642205Y3465336D01*
X3641183Y3460201D01*
X3834139D01*
X3833118Y3465336D01*
X3824544Y3478168D01*
X3822621Y3479453D01*
X3822063Y3481629D01*
X3828537Y3493074D01*
X3833824D01*
X3842291Y3494758D01*
X3849469Y3499554D01*
X3937177Y3587262D01*
X3948910Y3582402D01*
Y3560402D01*
X3950594Y3551935D01*
X3955390Y3544757D01*
X3987157Y3512990D01*
X3989162Y3502912D01*
X3996122Y3492495D01*
X3994937Y3479252D01*
X3992011Y3476418D01*
X3976920Y3476760D01*
X3972500Y3481547D01*
Y3498454D01*
X3966030Y3514074D01*
X3954074Y3526030D01*
X3938454Y3532500D01*
X3921546D01*
X3905926Y3526030D01*
X3893970Y3514074D01*
X3887500Y3498454D01*
Y3481546D01*
X3893970Y3465926D01*
X3905926Y3453970D01*
X3921546Y3447500D01*
X3938454D01*
X3940403Y3448307D01*
X3954154Y3434556D01*
X3961332Y3429760D01*
X3969799Y3428075D01*
X3995735D01*
X3996122Y3427497D01*
X4006539Y3420536D01*
X4018826Y3418092D01*
X4136657D01*
X4148945Y3420536D01*
X4158266Y3426765D01*
X4163576Y3425502D01*
X4170966Y3422005D01*
Y3387022D01*
X4158266Y3380234D01*
X4157957Y3380441D01*
X4149490Y3382125D01*
X3439633D01*
X3334439Y3487320D01*
X3327261Y3492116D01*
X3324596Y3492646D01*
X3269805Y3547437D01*
X3273985Y3561217D01*
X3274786Y3561377D01*
X3282924Y3566815D01*
X3285203Y3568337D01*
X3298248Y3565001D01*
X3299535Y3563074D01*
X3312367Y3554500D01*
X3317503Y3553479D01*
Y3649957D01*
X3337503D01*
Y3553479D01*
X3342637Y3554500D01*
X3349072Y3552548D01*
X3353377Y3542155D01*
X3365333Y3530200D01*
X3380953Y3523730D01*
X3397860D01*
X3411415Y3529344D01*
X3420732Y3525621D01*
X3424335Y3523347D01*
X3424556Y3522329D01*
X3424796Y3514900D01*
X3413970Y3504074D01*
X3407500Y3488454D01*
Y3471546D01*
X3413970Y3455926D01*
X3425926Y3443970D01*
X3441546Y3437500D01*
X3458454D01*
X3474074Y3443970D01*
X3486030Y3455926D01*
X3492500Y3471546D01*
Y3488454D01*
X3486030Y3504074D01*
X3474074Y3516030D01*
X3472125Y3516837D01*
Y3644181D01*
X3470441Y3652648D01*
X3465645Y3659826D01*
X3431265Y3694205D01*
X3432357Y3700063D01*
X3446411Y3707459D01*
X3451216Y3705469D01*
D02*
G37*
G36*
X4674801Y3417298D02*
X4751919D01*
X4756779Y3405565D01*
X4736612Y3385398D01*
X4667502D01*
Y3269998D01*
X4767902D01*
Y3353247D01*
X4775889Y3359739D01*
X4787502Y3354700D01*
Y3269998D01*
X4856612D01*
X4884557Y3242053D01*
X4891735Y3237257D01*
X4900202Y3235572D01*
X4916165D01*
X4920146Y3224899D01*
X4920253Y3222872D01*
X4884704Y3187324D01*
X4867902D01*
Y3225399D01*
X4687502D01*
Y3104999D01*
X4867902D01*
Y3143073D01*
X4893869D01*
X4902335Y3144758D01*
X4909513Y3149554D01*
X4944588Y3184628D01*
X4950312Y3184903D01*
X4957624Y3184100D01*
X4962435Y3172875D01*
X4960210Y3169545D01*
X4959051Y3163718D01*
X4830558Y3035225D01*
X4825761Y3028047D01*
X4824077Y3019580D01*
Y2990398D01*
X4687503D01*
X4679826Y2999918D01*
Y3057297D01*
X4678141Y3065764D01*
X4673345Y3072942D01*
X4552125Y3194162D01*
Y3323163D01*
X4554074Y3323970D01*
X4566030Y3335926D01*
X4572500Y3351546D01*
Y3368454D01*
X4566030Y3384074D01*
X4554074Y3396030D01*
X4538454Y3402500D01*
X4521546D01*
X4505926Y3396030D01*
X4493970Y3384074D01*
X4487500Y3368454D01*
Y3351546D01*
X4493970Y3335926D01*
X4505926Y3323970D01*
X4507875Y3323163D01*
Y3286460D01*
X4495175Y3281199D01*
X4487444Y3288930D01*
X4471823Y3295401D01*
X4454916D01*
X4439295Y3288930D01*
X4427340Y3276975D01*
X4421698Y3263354D01*
X4409136Y3257955D01*
X4361825Y3305266D01*
Y3340110D01*
X4374525Y3345371D01*
X4375926Y3343970D01*
X4391546Y3337500D01*
X4408454D01*
X4424074Y3343970D01*
X4436030Y3355926D01*
X4442500Y3371546D01*
Y3388453D01*
X4436030Y3404074D01*
X4435506Y3404598D01*
X4440766Y3417298D01*
X4620601D01*
Y3451759D01*
X4674801D01*
Y3417298D01*
D02*
G37*
G36*
X4431620Y2967384D02*
Y2810958D01*
X4433304Y2802491D01*
X4438100Y2795313D01*
X4441811Y2791603D01*
X4437356Y2782623D01*
X4435254Y2780199D01*
X4419247D01*
X4403626Y2773729D01*
X4391671Y2761774D01*
X4390600Y2759188D01*
X4377900Y2761714D01*
Y2805401D01*
X4371905D01*
X4369446Y2810001D01*
X4377059Y2822701D01*
X4385200D01*
Y2875202D01*
X4250200D01*
Y2822701D01*
X4262941D01*
X4270554Y2810001D01*
X4268095Y2805401D01*
X4257499D01*
Y2730703D01*
X4253885Y2725294D01*
X4252201Y2716827D01*
Y2638729D01*
X4247700Y2633411D01*
Y2560249D01*
X4227700D01*
Y2633413D01*
X4223201Y2638730D01*
Y2694999D01*
X4227900D01*
Y2744660D01*
X4229800Y2749246D01*
Y2766153D01*
X4227900Y2770739D01*
Y2805399D01*
X4107500D01*
Y2799197D01*
X4094800Y2794382D01*
X4082702Y2799393D01*
X4077281Y2811933D01*
X4079314Y2813966D01*
X4083524Y2820267D01*
X4085002Y2827700D01*
Y2937329D01*
X4094500Y2944962D01*
X4097702Y2945509D01*
X4100200Y2943325D01*
Y2895200D01*
X4157700D01*
Y2947700D01*
X4128781D01*
X4126255Y2960400D01*
X4136476Y2964634D01*
X4150767Y2978924D01*
X4158500Y2997595D01*
Y3017804D01*
X4150767Y3036476D01*
X4136476Y3050766D01*
X4124259Y3055827D01*
Y3069573D01*
X4136476Y3074634D01*
X4150767Y3088924D01*
X4158500Y3107595D01*
Y3127805D01*
X4150767Y3146476D01*
X4136476Y3160766D01*
X4124259Y3165827D01*
Y3179573D01*
X4136476Y3184634D01*
X4150767Y3198924D01*
X4158500Y3217595D01*
Y3222543D01*
X4171200Y3227804D01*
X4431620Y2967384D01*
D02*
G37*
G36*
X5493875Y3005074D02*
Y3001420D01*
X5495559Y2992953D01*
X5500355Y2985775D01*
X5612284Y2873846D01*
Y2729440D01*
X5601006Y2726007D01*
Y2726007D01*
X5562125D01*
Y2786004D01*
X5560441Y2794470D01*
X5555645Y2801648D01*
X5479825Y2877468D01*
Y3009550D01*
X5482072Y3011029D01*
X5493875Y3005074D01*
D02*
G37*
G36*
X5395856Y3010209D02*
X5404528Y3008484D01*
X5410878D01*
X5419549Y3010209D01*
X5422875Y3012431D01*
X5435239Y3007127D01*
X5435575Y3006806D01*
Y2868304D01*
X5437259Y2859837D01*
X5442055Y2852659D01*
X5517875Y2776839D01*
Y2726007D01*
X5478268D01*
Y2738707D01*
X5422105D01*
Y2848031D01*
X5420421Y2856498D01*
X5415625Y2863676D01*
X5379825Y2899476D01*
Y3001803D01*
X5386055Y3005965D01*
X5391041Y3013427D01*
X5395856Y3010209D01*
D02*
G37*
G36*
X5293875Y2983062D02*
Y2614008D01*
X5282142Y2609148D01*
X5235645Y2655645D01*
X5235644Y2655646D01*
X5177545Y2713744D01*
Y2756694D01*
X5233708D01*
Y2874699D01*
X5273345Y2914336D01*
X5278141Y2921514D01*
X5279826Y2929980D01*
Y2989245D01*
X5281175Y2990091D01*
X5293875Y2983062D01*
D02*
G37*
G36*
X5010000Y3060000D02*
X5131865D01*
Y3031145D01*
X5133590Y3022473D01*
X5135575Y3019502D01*
Y3006865D01*
X5048226Y2919515D01*
X5043430Y2912337D01*
X5041745Y2903870D01*
Y2886007D01*
X4954394D01*
Y2769394D01*
X5077132D01*
Y2756694D01*
X5133295D01*
Y2704580D01*
X5134979Y2696113D01*
X5139775Y2688935D01*
X5204355Y2624355D01*
X5204356Y2624355D01*
X5313157Y2515554D01*
X5320335Y2510757D01*
X5328802Y2509073D01*
X5444053D01*
X5646066Y2307060D01*
X5653244Y2302264D01*
X5661711Y2300580D01*
X5748599D01*
X5804946Y2244233D01*
X5799547Y2231671D01*
X5785926Y2226030D01*
X5773970Y2214074D01*
X5773163Y2212125D01*
X5561665D01*
X5371645Y2402145D01*
X5370200Y2403110D01*
Y2495200D01*
X5254800D01*
Y2364800D01*
X5272675D01*
Y2322528D01*
X5259975Y2317267D01*
X5256476Y2320766D01*
X5237805Y2328500D01*
X5217596D01*
X5198924Y2320766D01*
X5184634Y2306476D01*
X5176900Y2287804D01*
Y2267595D01*
X5180774Y2258242D01*
X5129655Y2207123D01*
X5001186D01*
X4996326Y2218856D01*
X5008243Y2230774D01*
X5017596Y2226900D01*
X5037805D01*
X5056476Y2234634D01*
X5070767Y2248924D01*
X5078500Y2267595D01*
Y2287804D01*
X5070767Y2306476D01*
X5056476Y2320766D01*
X5037805Y2328500D01*
X5017596D01*
X4998924Y2320766D01*
X4984634Y2306476D01*
X4976900Y2287804D01*
Y2267595D01*
X4980774Y2258242D01*
X4958281Y2235749D01*
X4924225D01*
X4924224Y2235749D01*
X4919517Y2234813D01*
X4912605Y2241238D01*
X4910370Y2244957D01*
X4911573Y2251004D01*
Y2286400D01*
X4911829Y2286451D01*
X4918130Y2290661D01*
X4992268Y2364800D01*
X5080200D01*
Y2407875D01*
X5109800D01*
Y2364800D01*
X5225200D01*
Y2495200D01*
X5109800D01*
Y2452125D01*
X5080200D01*
Y2495200D01*
X4964800D01*
Y2392269D01*
X4954233Y2381702D01*
X4942500Y2386562D01*
Y2420000D01*
X4877500D01*
Y2430000D01*
X4867500D01*
Y2502500D01*
X4812500D01*
X4807425Y2513098D01*
Y2756588D01*
X4805741Y2765055D01*
X4800945Y2772233D01*
X4714913Y2858265D01*
X4719774Y2869998D01*
X4867902D01*
Y2966560D01*
X4868328Y2968698D01*
Y3010415D01*
X4989775Y3131862D01*
X5010000D01*
Y3060000D01*
D02*
G37*
G36*
X7090000Y2479020D02*
X7168735Y2479020D01*
Y2203239D01*
X6416760D01*
X6370000Y2250000D01*
X6370000Y2340000D01*
X6384193Y2354193D01*
X6400925D01*
Y2370925D01*
X6510000Y2480000D01*
X7085075D01*
X7090000Y2479020D01*
D02*
G37*
G36*
X9740000Y2590000D02*
Y2150000D01*
X9650000Y2060000D01*
X8100000D01*
X8087499Y2072501D01*
X8090979Y2090000D01*
Y2540000D01*
X8087499Y2557499D01*
X8100000Y2570000D01*
X8490000D01*
X8512300Y2592300D01*
X8525597D01*
Y2605597D01*
X8580000Y2660000D01*
X9670000D01*
X9740000Y2590000D01*
D02*
G37*
G36*
X7540000Y2880000D02*
Y2760000D01*
X7579800Y2720200D01*
Y2717299D01*
X7582700D01*
X7730000Y2570000D01*
X8010000D01*
X8040000Y2540000D01*
Y2090000D01*
X8009999Y2059999D01*
X7460000D01*
X7380000Y2140000D01*
X7250000D01*
Y2200000D01*
X7240000Y2210000D01*
Y2380000D01*
X7330000D01*
Y2380752D01*
X7338919D01*
Y2469652D01*
X7310348D01*
X7250000Y2530000D01*
X7090000Y2530000D01*
X7036665Y2583335D01*
Y2603239D01*
Y2852159D01*
Y2900000D01*
X7520000D01*
X7540000Y2880000D01*
D02*
G37*
G36*
X5346422Y2364788D02*
X5536855Y2174355D01*
X5544033Y2169559D01*
X5552500Y2167875D01*
X5773163D01*
X5773970Y2165926D01*
X5785926Y2153970D01*
X5801546Y2147500D01*
X5818454D01*
X5832075Y2153142D01*
X5844775Y2148077D01*
Y1987762D01*
X5837155Y1980142D01*
X5832359Y1972964D01*
X5830675Y1964497D01*
Y1497208D01*
X5818942Y1492348D01*
X5815645Y1495645D01*
X5808467Y1500441D01*
X5800000Y1502125D01*
X5339164D01*
X5275645Y1565644D01*
X5275645Y1565645D01*
X5221693Y1619597D01*
X5222500Y1621546D01*
Y1638454D01*
X5216030Y1654074D01*
X5204074Y1666030D01*
X5188454Y1672500D01*
X5171546D01*
X5155926Y1666030D01*
X5143970Y1654074D01*
X5137500Y1638454D01*
Y1621546D01*
X5143970Y1605926D01*
X5155926Y1593970D01*
X5171546Y1587500D01*
X5188454D01*
X5190403Y1588307D01*
X5244355Y1534356D01*
X5244355Y1534355D01*
X5313435Y1465275D01*
X5302901Y1449509D01*
X5299021Y1430000D01*
Y1038863D01*
X5287287Y1034003D01*
X5122125Y1199165D01*
Y1300457D01*
X5120441Y1308923D01*
X5115645Y1316102D01*
X5039222Y1392525D01*
X5034074Y1403971D01*
X5046030Y1415926D01*
X5052500Y1431546D01*
Y1448454D01*
X5046030Y1464074D01*
X5034074Y1476030D01*
X5018454Y1482500D01*
X5001546D01*
X4985926Y1476030D01*
X4973625Y1481689D01*
Y1512335D01*
X5009597Y1548307D01*
X5011546Y1547500D01*
X5028454D01*
X5044074Y1553970D01*
X5056030Y1565926D01*
X5062500Y1581546D01*
Y1598453D01*
X5056847Y1612100D01*
X5061897Y1624800D01*
X5080602D01*
Y1675575D01*
X5137700D01*
X5146167Y1677259D01*
X5153345Y1682055D01*
X5245464Y1774175D01*
X5250472Y1772100D01*
X5269528D01*
X5287133Y1779392D01*
X5300607Y1792867D01*
X5307900Y1810472D01*
Y1829528D01*
X5300607Y1847133D01*
X5287133Y1860607D01*
X5269528Y1867900D01*
X5250472D01*
X5232867Y1860607D01*
X5219392Y1847133D01*
X5212100Y1829528D01*
Y1810472D01*
X5214174Y1805464D01*
X5128535Y1719825D01*
X5080602D01*
Y1770600D01*
X4934802D01*
Y1643233D01*
X4930600Y1640712D01*
X4917900Y1647905D01*
Y1757900D01*
X4872327D01*
Y1797499D01*
X4905402D01*
Y1917899D01*
X4795002D01*
Y1798574D01*
X4768625D01*
X4764145Y1811274D01*
X4770200Y1825893D01*
Y1842800D01*
X4763730Y1858421D01*
X4751774Y1870376D01*
X4736154Y1876846D01*
X4727936D01*
X4718101Y1882030D01*
X4716653Y1888580D01*
Y1899700D01*
X4710183Y1915321D01*
X4698227Y1927276D01*
X4695311Y1928484D01*
X4690477Y1944233D01*
X4692346Y1947072D01*
X4706698D01*
X4708836Y1947498D01*
X4795398D01*
Y2031149D01*
X4799999Y2034627D01*
X4812699Y2028307D01*
Y2017698D01*
X4875200D01*
X4937699D01*
Y2034319D01*
X4946209Y2045575D01*
X4979999D01*
Y1977500D01*
X5152699D01*
Y1970200D01*
X5237699D01*
Y2067700D01*
Y2165200D01*
X5210576D01*
X5204057Y2177900D01*
X5206592Y2181434D01*
X5248454D01*
X5256920Y2183119D01*
X5264098Y2187915D01*
X5310445Y2234261D01*
X5315241Y2241439D01*
X5316925Y2249906D01*
Y2364800D01*
X5346363D01*
X5346422Y2364788D01*
D02*
G37*
G36*
X5721390Y2804338D02*
X5728568Y2799542D01*
X5737035Y2797857D01*
X5826695D01*
Y2741694D01*
X5875577D01*
Y2570584D01*
X5877261Y2562118D01*
X5882057Y2554940D01*
X6282143Y2154853D01*
X6289321Y2150057D01*
X6297788Y2148373D01*
X7040000D01*
Y2118094D01*
X7034997Y2117099D01*
X7018458Y2106048D01*
X7000617Y2088207D01*
X6989566Y2071668D01*
X6985686Y2052159D01*
Y1803239D01*
Y1773335D01*
X6989566Y1753826D01*
X6996345Y1743680D01*
X6989557Y1730980D01*
X6910230D01*
X6904969Y1743680D01*
X6916526Y1755236D01*
X6921322Y1762414D01*
X6923006Y1770881D01*
Y1798449D01*
X6970621D01*
Y1861949D01*
X6879181D01*
Y1822286D01*
X6878756Y1820149D01*
Y1780045D01*
X6869427Y1770717D01*
X6509643D01*
X6437016Y1843344D01*
X6429838Y1848140D01*
X6421371Y1849824D01*
X6403313D01*
Y1868505D01*
X6282263D01*
Y1746892D01*
X6403313D01*
Y1796507D01*
X6416013Y1801767D01*
X6481970Y1735811D01*
X6483708Y1727699D01*
X6481970Y1719587D01*
X6437207Y1674824D01*
X6403310D01*
Y1693505D01*
X6282259D01*
Y1571892D01*
X6325896D01*
X6333230Y1561481D01*
X6332838Y1559192D01*
X6329020Y1540000D01*
X6329020Y1450000D01*
X6332901Y1430491D01*
X6342340Y1416365D01*
X6338228Y1403665D01*
X6315994D01*
X6159500Y1560159D01*
X6164361Y1571892D01*
X6253140D01*
Y1693505D01*
X6132089D01*
Y1674825D01*
X6120356Y1669965D01*
X6062925Y1727396D01*
Y1902771D01*
X6075575Y1902893D01*
X6077259Y1894426D01*
X6082055Y1887248D01*
X6132088Y1837216D01*
Y1746892D01*
X6253138D01*
Y1868505D01*
X6163378D01*
X6119825Y1912058D01*
Y2152211D01*
X6124074Y2153970D01*
X6136030Y2165926D01*
X6142500Y2181546D01*
Y2198454D01*
X6136030Y2214074D01*
X6124074Y2226030D01*
X6108454Y2232500D01*
X6091546D01*
X6075926Y2226030D01*
X6075625Y2225729D01*
X6062925Y2230990D01*
Y2329200D01*
X6061241Y2337667D01*
X6056445Y2344845D01*
X5881067Y2520223D01*
X5873889Y2525019D01*
X5865422Y2526703D01*
X5738996D01*
X5656535Y2609164D01*
Y2852600D01*
X5668268Y2857460D01*
X5721390Y2804338D01*
D02*
G37*
G36*
X3923151Y1561633D02*
X3925858Y1558926D01*
X3927323Y1555389D01*
Y1553474D01*
Y1467092D01*
X3908076D01*
Y1553474D01*
Y1555389D01*
X3909541Y1558926D01*
X3912248Y1561633D01*
X3915785Y1563098D01*
X3919614D01*
X3923151Y1561633D01*
D02*
G37*
G36*
X9760000Y1370000D02*
Y920000D01*
X9700000Y860000D01*
X8100000D01*
X8097499Y862501D01*
X8100979Y880000D01*
X8100979Y1290000D01*
X8097498Y1307498D01*
X8099999Y1309999D01*
X9169999Y1309999D01*
X9310000Y1450000D01*
X9356405D01*
X9365000Y1449153D01*
X9615000D01*
X9623595Y1450000D01*
X9680000D01*
X9760000Y1370000D01*
D02*
G37*
G36*
X7178735Y1417399D02*
X7178661Y1417288D01*
X7177786Y1412892D01*
X7168735Y1403841D01*
Y1403240D01*
X6957915D01*
Y1403665D01*
X6426335D01*
X6380000Y1450000D01*
X6380000Y1540000D01*
X6399192Y1559192D01*
X6416010D01*
Y1576010D01*
X6520000Y1680000D01*
X7178735D01*
Y1417399D01*
D02*
G37*
G36*
X7440000Y2000000D02*
X9356405D01*
X9365000Y1999153D01*
X9615000D01*
X9623595Y2000000D01*
X9630000D01*
X9720000Y1910000D01*
Y1580000D01*
X9660000Y1520000D01*
X9240000D01*
X9090000Y1370000D01*
X7290000D01*
X7250000Y1410000D01*
Y1580000D01*
X7320000D01*
X7320751Y1580751D01*
X7338921D01*
Y1669651D01*
X7310349D01*
X7240000Y1740000D01*
X7070000D01*
X7036665Y1773335D01*
Y1803239D01*
Y2052159D01*
X7054506Y2070000D01*
X7370000D01*
X7440000Y2000000D01*
D02*
G37*
G36*
X3942674Y1427366D02*
Y1230000D01*
X3680000D01*
Y1360000D01*
X3760000Y1440000D01*
X3930040D01*
X3942674Y1427366D01*
D02*
G37*
G36*
X5710000Y1020000D02*
X5350000D01*
Y1430000D01*
X5710000D01*
Y1020000D01*
D02*
G37*
G36*
X5925926Y1813970D02*
X5927875Y1813163D01*
Y1230593D01*
X5929559Y1222126D01*
X5934355Y1214948D01*
X6117089Y1032215D01*
Y941891D01*
X6238139D01*
Y1063504D01*
X6148378D01*
X5972125Y1239757D01*
Y1807127D01*
X5977975Y1811251D01*
X5990675Y1804665D01*
Y1675569D01*
X5992359Y1667102D01*
X5997155Y1659924D01*
X6291185Y1365895D01*
X6298363Y1361099D01*
X6306830Y1359414D01*
X6402563D01*
X6406826Y1356566D01*
X6426335Y1352685D01*
X6955777D01*
X6957915Y1352260D01*
X7002203D01*
X7007464Y1339560D01*
X7000617Y1332713D01*
X6989566Y1316174D01*
X6985686Y1296665D01*
Y1252160D01*
Y1003240D01*
Y953335D01*
X6987606Y943680D01*
X6977356Y930979D01*
X6860962D01*
X6855702Y943679D01*
X6910471Y998449D01*
X6970621D01*
Y1061949D01*
X6879181D01*
Y1029738D01*
X6820158Y970715D01*
X6441056D01*
X6432535Y979236D01*
X6425357Y984032D01*
X6416890Y985716D01*
X6388309D01*
Y1063504D01*
X6267258D01*
Y941891D01*
X6364471D01*
X6366609Y941466D01*
X6407726D01*
X6416247Y932945D01*
X6423425Y928149D01*
X6427826Y927274D01*
X6432168Y917351D01*
X6432278Y913765D01*
X6407446Y888933D01*
X6366611D01*
X6364473Y888508D01*
X6267260D01*
Y766895D01*
X6313724D01*
X6321844Y754195D01*
X6319020Y740000D01*
X6319020Y649999D01*
X6322901Y630490D01*
X6332340Y616365D01*
X6328228Y603665D01*
X6295998D01*
X6144501Y755162D01*
X6149362Y766895D01*
X6238141D01*
Y888508D01*
X6117090D01*
Y869828D01*
X6105357Y864967D01*
X5902925Y1067399D01*
Y1820377D01*
X5907808Y1822830D01*
X5915625Y1824271D01*
X5925926Y1813970D01*
D02*
G37*
G36*
X7168735Y852160D02*
Y603240D01*
X6957915D01*
Y603665D01*
X6416335D01*
X6370000Y650000D01*
X6370000Y740000D01*
X6384195Y754195D01*
X6401011D01*
Y771011D01*
X6510000Y880000D01*
X7168735D01*
Y852160D01*
D02*
G37*
G36*
X8030000Y1309999D02*
X8049999Y1290000D01*
X8050000Y880000D01*
X8030000Y860000D01*
X7750000D01*
X7720000Y830000D01*
Y760000D01*
X7660000Y700000D01*
X7590000D01*
X7570000Y680000D01*
Y610000D01*
X7550000Y590000D01*
X7260000D01*
X7240000Y610000D01*
Y780000D01*
X7320000D01*
X7320749Y780749D01*
X7338918D01*
Y869649D01*
X7310351D01*
X7240000Y940000D01*
X7050000D01*
X7036665Y953335D01*
Y1003240D01*
Y1252160D01*
Y1296665D01*
X7050000Y1310000D01*
X7290000D01*
X8030000Y1309999D01*
D02*
G37*
G36*
X8392498Y664999D02*
X8476150D01*
X8479628Y660398D01*
X8473308Y647698D01*
X8462698D01*
Y585198D01*
Y522698D01*
X8507073D01*
Y467894D01*
X8381934Y342755D01*
X8370200Y347615D01*
Y367698D01*
X8307700D01*
Y302698D01*
X8325284D01*
X8330144Y290965D01*
X8214404Y175225D01*
X6991742D01*
X6991620Y187875D01*
X7000087Y189559D01*
X7007265Y194355D01*
X7144653Y331743D01*
X7149449Y338921D01*
X7150078Y342086D01*
X7263313D01*
Y473308D01*
X6952089D01*
Y374825D01*
X6777900D01*
Y412900D01*
X6657500D01*
Y292500D01*
X6777900D01*
Y330574D01*
X6962702D01*
X6971169Y332259D01*
X6978347Y337055D01*
X6983378Y342086D01*
X7075823D01*
X7080683Y330353D01*
X6982455Y232125D01*
X6896837D01*
X6896030Y234074D01*
X6884074Y246029D01*
X6868454Y252500D01*
X6851546D01*
X6835926Y246029D01*
X6823970Y234074D01*
X6817500Y218453D01*
Y201546D01*
X6823142Y187925D01*
X6818078Y175225D01*
X6318354D01*
X6251237Y242342D01*
X6256097Y254075D01*
X6343700D01*
X6352167Y255760D01*
X6359345Y260556D01*
X6391290Y292501D01*
X6470400D01*
Y330574D01*
X6507503D01*
Y292500D01*
X6627903D01*
Y412900D01*
X6507503D01*
Y374825D01*
X6470400D01*
Y412900D01*
X6480243Y419800D01*
X6485201D01*
Y540199D01*
X6485201D01*
X6485718Y552685D01*
X6955777D01*
X6957915Y552260D01*
X7168735D01*
X7188244Y556141D01*
X7204783Y567191D01*
X7210181Y567723D01*
X7223952Y553952D01*
X7240491Y542901D01*
X7260000Y539020D01*
X7550000D01*
X7569509Y542901D01*
X7572500Y544899D01*
X7585200Y538111D01*
Y495199D01*
X7720200D01*
Y496197D01*
X7731933Y501057D01*
X7777393Y455598D01*
X7772132Y442898D01*
X7747502D01*
Y312498D01*
X7862902D01*
Y442898D01*
X7827327D01*
Y459078D01*
X7825643Y467545D01*
X7820847Y474723D01*
X7802261Y493309D01*
X7807121Y505042D01*
X7911572D01*
X7930766Y508860D01*
X7947037Y519733D01*
X7956579Y534013D01*
X7969127Y533507D01*
X7969392Y532867D01*
X7982867Y519392D01*
X8000472Y512100D01*
X8019528D01*
X8037133Y519392D01*
X8050607Y532867D01*
X8057900Y550472D01*
Y569528D01*
X8050607Y587133D01*
X8049662Y588078D01*
X8054923Y600778D01*
X8075077D01*
X8080338Y588078D01*
X8079393Y587133D01*
X8072100Y569528D01*
Y550472D01*
X8079393Y532867D01*
X8092867Y519392D01*
X8110472Y512100D01*
X8129528D01*
X8134073Y513983D01*
X8144633Y506927D01*
Y506006D01*
X8370847D01*
Y604389D01*
X8370847D01*
X8366077Y610201D01*
X8257740D01*
Y630201D01*
X8364316D01*
X8362906Y637288D01*
X8353227Y651773D01*
X8353357Y666961D01*
X8356030Y670962D01*
X8358862Y685200D01*
X8358227Y688391D01*
X8370612Y700776D01*
X8392498D01*
Y664999D01*
D02*
G37*
G36*
X3619075Y1334301D02*
Y888853D01*
X3364355Y634133D01*
X3359559Y626955D01*
X3357875Y618488D01*
Y449165D01*
X3320835Y412125D01*
X3291875D01*
X3288472Y424825D01*
X3304331Y433981D01*
X3322019Y451669D01*
X3334526Y473332D01*
X3341000Y497493D01*
Y522507D01*
X3334526Y546668D01*
X3322019Y568331D01*
X3304331Y586019D01*
X3282669Y598526D01*
X3268125Y602422D01*
Y636835D01*
X3535645Y904355D01*
X3540441Y911533D01*
X3542125Y920000D01*
Y1273945D01*
X3607342Y1339162D01*
X3619075Y1334301D01*
D02*
G37*
G36*
X6271189Y565895D02*
X6278367Y561099D01*
X6282887Y560200D01*
X6281636Y547500D01*
X6207498D01*
Y489999D01*
X6274999D01*
Y469999D01*
X6207498D01*
Y412500D01*
X6217699D01*
Y362701D01*
X6280199D01*
Y342701D01*
X6217699D01*
Y332072D01*
X6205966Y327211D01*
X5846926Y686252D01*
Y973564D01*
X5858659Y978425D01*
X6271189Y565895D01*
D02*
G37*
G36*
X4032375Y607803D02*
Y483665D01*
X3964355Y415645D01*
X3959559Y408467D01*
X3957875Y400000D01*
Y299165D01*
X3834169Y175459D01*
X3826760Y176450D01*
X3822220Y189871D01*
X3830019Y197669D01*
X3842526Y219332D01*
X3849000Y243493D01*
Y268507D01*
X3842526Y292668D01*
X3830019Y314331D01*
X3819175Y325175D01*
X3824436Y337875D01*
X3830000D01*
X3838467Y339559D01*
X3845645Y344355D01*
X3905645Y404355D01*
X3910441Y411533D01*
X3912125Y420000D01*
Y504147D01*
X4020642Y612664D01*
X4032375Y607803D01*
D02*
G37*
%LPC*%
G36*
X3834139Y3440201D02*
X3747661D01*
Y3410649D01*
X3796577D01*
X3811712Y3413660D01*
X3824544Y3422234D01*
X3833118Y3435065D01*
X3834139Y3440201D01*
D02*
G37*
G36*
X3727661D02*
X3641183D01*
X3642205Y3435065D01*
X3650779Y3422234D01*
X3663610Y3413660D01*
X3678746Y3410649D01*
X3727661D01*
Y3440201D01*
D02*
G37*
G36*
X4385200Y2947701D02*
X4327699D01*
Y2895201D01*
X4385200D01*
Y2947701D01*
D02*
G37*
G36*
X4307700D02*
X4250200D01*
Y2895201D01*
X4307700D01*
Y2947701D01*
D02*
G37*
G36*
X4235200Y2947700D02*
X4177700D01*
Y2895200D01*
X4235200D01*
Y2947700D01*
D02*
G37*
G36*
Y2875200D02*
X4177700D01*
Y2822700D01*
X4235200D01*
Y2875200D01*
D02*
G37*
G36*
X4157700D02*
X4100200D01*
Y2822700D01*
X4157700D01*
Y2875200D01*
D02*
G37*
G36*
X4887500Y2502500D02*
Y2440000D01*
X4942500D01*
Y2502500D01*
X4887500D01*
D02*
G37*
G36*
X5342699Y2165200D02*
X5257699D01*
Y2077700D01*
X5342699D01*
Y2165200D01*
D02*
G37*
G36*
Y2057700D02*
X5257699D01*
Y1970200D01*
X5342699D01*
Y2057700D01*
D02*
G37*
G36*
X4937699Y1997698D02*
X4885200D01*
Y1940198D01*
X4937699D01*
Y1997698D01*
D02*
G37*
G36*
X4865200D02*
X4812699D01*
Y1940198D01*
X4865200D01*
Y1997698D01*
D02*
G37*
G36*
X5047698Y1925199D02*
X4995198D01*
Y1867699D01*
X5047698D01*
Y1925199D01*
D02*
G37*
G36*
X4975198D02*
X4922698D01*
Y1867699D01*
X4975198D01*
Y1925199D01*
D02*
G37*
G36*
X5047698Y1847699D02*
X4995198D01*
Y1790199D01*
X5047698D01*
Y1847699D01*
D02*
G37*
G36*
X4975198D02*
X4922698D01*
Y1790199D01*
X4975198D01*
Y1847699D01*
D02*
G37*
G36*
X5710000Y1722125D02*
X5332732D01*
X5324265Y1720441D01*
X5317087Y1715645D01*
X5302335Y1700892D01*
X5298454Y1702500D01*
X5281546D01*
X5265926Y1696030D01*
X5253970Y1684074D01*
X5247500Y1668454D01*
Y1651546D01*
X5253970Y1635926D01*
X5265926Y1623970D01*
X5281546Y1617500D01*
X5298454D01*
X5314074Y1623970D01*
X5326030Y1635926D01*
X5332500Y1651546D01*
Y1668454D01*
X5332493Y1668471D01*
X5341897Y1677875D01*
X5700835D01*
X5747875Y1630835D01*
Y1606837D01*
X5745926Y1606030D01*
X5733970Y1594074D01*
X5727500Y1578454D01*
Y1561546D01*
X5733970Y1545926D01*
X5745926Y1533970D01*
X5761546Y1527500D01*
X5778454D01*
X5794074Y1533970D01*
X5806030Y1545926D01*
X5812500Y1561546D01*
Y1578454D01*
X5806030Y1594074D01*
X5794074Y1606030D01*
X5792125Y1606837D01*
Y1640000D01*
X5790441Y1648467D01*
X5785645Y1655645D01*
X5725645Y1715645D01*
X5718467Y1720441D01*
X5710000Y1722125D01*
D02*
G37*
G36*
X8442698Y647698D02*
X8385198D01*
Y595198D01*
X8442698D01*
Y647698D01*
D02*
G37*
G36*
Y575198D02*
X8385198D01*
Y522698D01*
X8442698D01*
Y575198D01*
D02*
G37*
G36*
X7720200Y475199D02*
X7662700D01*
Y422699D01*
X7720200D01*
Y475199D01*
D02*
G37*
G36*
X7642700D02*
X7585200D01*
Y422699D01*
X7642700D01*
Y475199D01*
D02*
G37*
G36*
X8225200Y452698D02*
X8215524Y445398D01*
X8212500D01*
X8092501D01*
Y399823D01*
X8007901D01*
Y442898D01*
X7892501D01*
Y312498D01*
X7892501D01*
X7899178Y302505D01*
X7897500Y298454D01*
Y281546D01*
X7903970Y265926D01*
X7915926Y253970D01*
X7931546Y247500D01*
X7948453D01*
X7964074Y253970D01*
X7976030Y265926D01*
X7982500Y281546D01*
Y298454D01*
X7981056Y301938D01*
X7988112Y312498D01*
X8007901D01*
Y355573D01*
X8092501D01*
Y309998D01*
X8215524D01*
X8225200Y302698D01*
X8232577Y302698D01*
X8287700D01*
Y377698D01*
Y452698D01*
X8232577D01*
X8225200Y452698D01*
D02*
G37*
G36*
X8307700Y452698D02*
Y387698D01*
X8370200D01*
Y452698D01*
X8307700D01*
D02*
G37*
%LPD*%
G36*
X7960000Y4220000D02*
X7600000D01*
Y4630000D01*
X7960000D01*
Y4220000D01*
D02*
G37*
G36*
X6858650Y4220000D02*
X6498650D01*
Y4630000D01*
X6858650D01*
Y4220000D01*
D02*
G37*
G36*
X9340000Y4430000D02*
X9490000Y4280000D01*
X9610000D01*
X9820000Y4070000D01*
Y3400000D01*
X9140000D01*
Y4430000D01*
X9340000Y4430000D01*
D02*
G37*
G36*
X1280000Y2897125D02*
X1279999D01*
X1271532Y2895441D01*
X1264354Y2890645D01*
X1254354Y2880645D01*
X1249558Y2873467D01*
X1247874Y2865000D01*
X1249558Y2856533D01*
X1254354Y2849355D01*
X1261532Y2844559D01*
X1269999Y2842875D01*
X1280000Y2831915D01*
Y2780000D01*
X1250000Y2750000D01*
X950000D01*
X790000Y2910000D01*
Y3110000D01*
X1280000D01*
X1280000Y2897125D01*
D02*
G37*
G36*
X2360761Y2392220D02*
X2365557Y2385042D01*
X2397042Y2353556D01*
X2404220Y2348760D01*
X2412687Y2347076D01*
X2604998D01*
Y2272501D01*
Y2174826D01*
X2526463D01*
X2431693Y2269597D01*
X2432500Y2271546D01*
Y2288454D01*
X2426030Y2304074D01*
X2414074Y2316030D01*
X2398454Y2322500D01*
X2381546D01*
X2365926Y2316030D01*
X2353970Y2304074D01*
X2347500Y2288454D01*
Y2271546D01*
X2353970Y2255926D01*
X2365926Y2243970D01*
X2381546Y2237500D01*
X2398454D01*
X2400403Y2238307D01*
X2501654Y2137056D01*
X2508832Y2132260D01*
X2517299Y2130576D01*
X2604998D01*
Y2112500D01*
X2591546D01*
X2575926Y2106030D01*
X2563970Y2094074D01*
X2563163Y2092125D01*
X1987676D01*
X1696536Y2383265D01*
X1701397Y2394998D01*
X2238301D01*
X2243235Y2382298D01*
X2237500Y2368453D01*
Y2351546D01*
X2243970Y2335926D01*
X2255926Y2323970D01*
X2271546Y2317500D01*
X2288454D01*
X2304074Y2323970D01*
X2316030Y2335926D01*
X2322500Y2351546D01*
Y2368453D01*
X2316765Y2382298D01*
X2321699Y2394998D01*
X2360208D01*
X2360761Y2392220D01*
D02*
G37*
G36*
X3089033Y2195145D02*
X3083307Y2182911D01*
X3027584D01*
Y2115000D01*
X3007584D01*
Y2182911D01*
X2947259D01*
Y2177733D01*
X2935438Y2175612D01*
X2934559Y2175611D01*
X2809388D01*
Y2054389D01*
X2843279D01*
Y2027698D01*
X2787302D01*
X2780398Y2037538D01*
Y2112501D01*
Y2192501D01*
Y2290576D01*
X2993603D01*
X3089033Y2195145D01*
D02*
G37*
G36*
X2541201Y1254575D02*
X2594135D01*
X2789355Y1059355D01*
X2817875Y1030835D01*
Y719164D01*
X2720291Y621581D01*
X2488149D01*
X2483289Y633314D01*
X2571688Y721714D01*
X2583978Y719590D01*
X2586130Y718195D01*
X2597981Y697669D01*
X2615669Y679981D01*
X2637332Y667474D01*
X2661493Y661000D01*
X2686507D01*
X2710668Y667474D01*
X2732331Y679981D01*
X2750019Y697669D01*
X2762526Y719332D01*
X2769000Y743493D01*
Y768507D01*
X2762526Y792668D01*
X2750019Y814331D01*
X2732331Y832019D01*
X2710668Y844526D01*
X2686507Y851000D01*
X2661493D01*
X2637332Y844526D01*
X2615669Y832019D01*
X2597981Y814331D01*
X2585474Y792668D01*
X2580858Y775440D01*
X2572000D01*
X2563533Y773756D01*
X2556355Y768960D01*
X2525446Y738051D01*
X2515000Y745565D01*
Y768507D01*
X2508526Y792668D01*
X2496019Y814331D01*
X2478331Y832019D01*
X2456668Y844526D01*
X2432507Y851000D01*
X2407493D01*
X2383332Y844526D01*
X2370292Y836997D01*
X2345425Y861865D01*
Y933632D01*
X2357158Y938492D01*
X2361669Y933981D01*
X2383332Y921474D01*
X2407493Y915000D01*
X2432507D01*
X2456668Y921474D01*
X2478331Y933981D01*
X2496019Y951669D01*
X2508526Y973332D01*
X2515000Y997493D01*
Y1022507D01*
X2508526Y1046668D01*
X2496019Y1068331D01*
X2478331Y1086019D01*
X2456668Y1098526D01*
X2446326Y1101297D01*
Y1255001D01*
X2539062D01*
X2541201Y1254575D01*
D02*
G37*
%LPC*%
G36*
X1150000Y3072423D02*
X1141533Y3070739D01*
X1134355Y3065943D01*
X1134057Y3065645D01*
X1129261Y3058467D01*
X1127577Y3050000D01*
X1129261Y3041533D01*
X1134057Y3034355D01*
X1141235Y3029559D01*
X1149702Y3027875D01*
X1158169Y3029559D01*
X1165347Y3034355D01*
X1165645Y3034653D01*
X1170441Y3041831D01*
X1172125Y3050298D01*
X1170441Y3058765D01*
X1165645Y3065943D01*
X1158467Y3070739D01*
X1150000Y3072423D01*
D02*
G37*
G36*
X1225000Y2997125D02*
X1216533Y2995441D01*
X1209355Y2990645D01*
X1204559Y2983467D01*
X1202875Y2975000D01*
X1204559Y2966533D01*
X1209355Y2959355D01*
X1216533Y2954559D01*
X1225000Y2952875D01*
X1233467Y2954559D01*
X1240645Y2959355D01*
X1245441Y2966533D01*
X1247125Y2975000D01*
X1245441Y2983467D01*
X1240645Y2990645D01*
X1233467Y2995441D01*
X1225000Y2997125D01*
D02*
G37*
G36*
X875000D02*
X866533Y2995441D01*
X859355Y2990645D01*
X854559Y2983467D01*
X852875Y2975000D01*
Y2940000D01*
X854559Y2931534D01*
X859355Y2924356D01*
X866533Y2919560D01*
X875000Y2917875D01*
X883467Y2919560D01*
X890645Y2924356D01*
X895441Y2931534D01*
X897125Y2940000D01*
Y2975000D01*
X895441Y2983467D01*
X890645Y2990645D01*
X883467Y2995441D01*
X875000Y2997125D01*
D02*
G37*
G36*
X1150000Y2922125D02*
X1141533Y2920441D01*
X1134355Y2915645D01*
X1129559Y2908467D01*
X1127875Y2900000D01*
Y2899998D01*
X1129559Y2891531D01*
X1134355Y2884353D01*
X1141533Y2879557D01*
X1150000Y2877872D01*
X1158467Y2879557D01*
X1165645Y2884353D01*
X1170441Y2891531D01*
X1172125Y2899998D01*
Y2900000D01*
X1170441Y2908467D01*
X1165645Y2915645D01*
X1158467Y2920441D01*
X1150000Y2922125D01*
D02*
G37*
%LPD*%
G36*
X1366891Y1139320D02*
Y1078496D01*
X1355158Y1073635D01*
X1337638Y1091155D01*
X1330460Y1095951D01*
X1321993Y1097635D01*
X1149165D01*
X1068035Y1178764D01*
X1060857Y1183560D01*
X1052391Y1185245D01*
X1028176D01*
Y1277875D01*
X1228336D01*
X1366891Y1139320D01*
D02*
G37*
G36*
G01X5743780Y3170398D02*
G01Y3144998D01*
G01X5664405D01*
G02X5654880Y3154523I0J9525D01*
G01Y3160873D01*
G02X5664405Y3170398I9525J0D01*
G01X5743780D01*
D02*
G37*
D10*
X847500Y1600000D02*
D03*
X992500D02*
D03*
X847500Y1750000D02*
D03*
X992500D02*
D03*
X847500Y1900000D02*
D03*
X992500D02*
D03*
X847500Y2050000D02*
D03*
X992500D02*
D03*
X847501Y2519999D02*
D03*
X992499D02*
D03*
X4877500Y2430000D02*
D03*
X5022500D02*
D03*
X5167500D02*
D03*
X5312500D02*
D03*
X992499Y2680002D02*
D03*
X847501D02*
D03*
X992498Y2199999D02*
D03*
X847500D02*
D03*
X992502Y2359998D02*
D03*
X847498D02*
D03*
X7805202Y377698D02*
D03*
X7950201D02*
D03*
X7805200Y3002699D02*
D03*
X7950198D02*
D03*
D11*
X574999Y2680002D02*
D03*
X725001D02*
D03*
X725000Y1600000D02*
D03*
X575000D02*
D03*
X725000Y1750000D02*
D03*
X575000D02*
D03*
X725000Y2050000D02*
D03*
X575000D02*
D03*
X725000Y1900000D02*
D03*
X575000D02*
D03*
X724999Y2360001D02*
D03*
X575001D02*
D03*
X725001Y2520002D02*
D03*
X574999D02*
D03*
X575001Y2199999D02*
D03*
X724999D02*
D03*
D12*
X1175000Y2795395D02*
D03*
Y2650000D02*
D03*
X899998Y3402303D02*
D03*
Y3547698D02*
D03*
X1225002Y1787701D02*
D03*
Y1642301D02*
D03*
D13*
X1289999Y2875000D02*
D03*
X1425000D02*
D03*
X3247501Y2814999D02*
D03*
X3382502D02*
D03*
X2835000Y2485000D02*
D03*
X2699999D02*
D03*
X1392498Y2015001D02*
D03*
X1257502D02*
D03*
X6415200Y352701D02*
D03*
X6280199D02*
D03*
X4730200Y1057699D02*
D03*
X4865201D02*
D03*
X4850202Y1857699D02*
D03*
X4985198D02*
D03*
X5230199Y4047698D02*
D03*
X5365200D02*
D03*
X3540200Y2587698D02*
D03*
X3675201D02*
D03*
X3527502Y2204998D02*
D03*
X3662498D02*
D03*
X3537502Y1735002D02*
D03*
X3672498D02*
D03*
X4875199Y2007698D02*
D03*
X4740198D02*
D03*
X3660001Y2065000D02*
D03*
X3525000D02*
D03*
D14*
X5530000Y1225000D02*
D03*
Y355000D02*
D03*
X7780000Y4425000D02*
D03*
Y3555000D02*
D03*
X6680000Y4425000D02*
D03*
Y3555000D02*
D03*
D15*
X3197500Y3990042D02*
D03*
X3262498D02*
D03*
X3327502D02*
D03*
X3262498Y3649957D02*
D03*
X3197500D02*
D03*
X3327502D02*
D03*
X3132501Y3990042D02*
D03*
D16*
Y3649957D02*
D03*
D17*
X4077742Y3645201D02*
D03*
X3737661Y3450201D02*
D03*
Y3580198D02*
D03*
Y3515199D02*
D03*
X4077742Y3450201D02*
D03*
Y3515199D02*
D03*
Y3580198D02*
D03*
D18*
X3737661Y3645201D02*
D03*
D19*
X4277700Y3965202D02*
D03*
Y4110200D02*
D03*
X3977699Y3965197D02*
D03*
Y4110201D02*
D03*
X3677702Y3962696D02*
D03*
Y4107700D02*
D03*
X4927699Y3925202D02*
D03*
Y4070201D02*
D03*
X4870000Y1574998D02*
D03*
Y1430000D02*
D03*
D20*
X4127698Y3962699D02*
D03*
Y4112702D02*
D03*
X3827700Y3962699D02*
D03*
Y4112702D02*
D03*
X3527702Y3962699D02*
D03*
Y4112702D02*
D03*
X2337701Y4117699D02*
D03*
Y3967697D02*
D03*
X4727702Y762701D02*
D03*
Y912698D02*
D03*
X4877699Y912698D02*
D03*
Y762701D02*
D03*
X2187703Y4117698D02*
D03*
Y3967696D02*
D03*
X2787704Y4117698D02*
D03*
Y3967695D02*
D03*
X2487702Y4117698D02*
D03*
Y3967696D02*
D03*
X2637701Y4117695D02*
D03*
Y3967698D02*
D03*
X2037702Y4117695D02*
D03*
Y3967698D02*
D03*
D21*
X3547700Y3797700D02*
D03*
X3667700D02*
D03*
X3847701Y3797700D02*
D03*
X3967701D02*
D03*
X4267701D02*
D03*
X4147702D02*
D03*
X4717702Y3327698D02*
D03*
X4837702D02*
D03*
D22*
X4777701Y3725199D02*
D03*
Y3490198D02*
D03*
X4517701Y3725199D02*
D03*
Y3490198D02*
D03*
X4777702Y3165199D02*
D03*
Y2930198D02*
D03*
D23*
X875000Y2940000D02*
D03*
Y3200000D02*
D03*
D24*
X8799998Y4339999D02*
D03*
X9239998D02*
D03*
D25*
X6177614Y1002698D02*
D03*
X6327784D02*
D03*
X6177616Y827702D02*
D03*
X6327785D02*
D03*
X6342788Y1807699D02*
D03*
X6192613D02*
D03*
X6342784Y1632699D02*
D03*
X6192614D02*
D03*
X6327784Y2602698D02*
D03*
X6177615D02*
D03*
X6327700Y2427700D02*
D03*
X6177530D02*
D03*
D26*
X3099998Y2755000D02*
D03*
X2515001Y3334999D02*
D03*
X3099998D02*
D03*
X3035000D02*
D03*
X2970001D02*
D03*
X2904997D02*
D03*
X2839999D02*
D03*
X2775000D02*
D03*
X2709996D02*
D03*
X2644998D02*
D03*
X2579999D02*
D03*
X3035000Y2755000D02*
D03*
X2970001D02*
D03*
X2904997D02*
D03*
X2839999D02*
D03*
X2775000D02*
D03*
X2709996D02*
D03*
X2644998D02*
D03*
X2579999D02*
D03*
X2515001D02*
D03*
D27*
X4107700Y3117700D02*
D03*
Y3007700D02*
D03*
X5227700Y2277700D02*
D03*
X5027700D02*
D03*
X4827700D02*
D03*
X3327699Y1197698D02*
D03*
X3327699Y1572698D02*
D03*
X3327698Y1322702D02*
D03*
X3327702Y1822698D02*
D03*
X3327699Y1447702D02*
D03*
X3327699Y1697701D02*
D03*
X3327700Y2197699D02*
D03*
X3327699Y2072697D02*
D03*
X3327702Y1947697D02*
D03*
X3327701Y2322698D02*
D03*
X4107700Y3227700D02*
D03*
D28*
X7652700Y485199D02*
D03*
Y620199D02*
D03*
Y2920199D02*
D03*
Y2785199D02*
D03*
X1755002Y3817501D02*
D03*
Y3952502D02*
D03*
X850002Y4267498D02*
D03*
Y4132502D02*
D03*
X1385000Y1830001D02*
D03*
Y1695000D02*
D03*
X1385000Y2157498D02*
D03*
Y2292499D02*
D03*
X2969998Y4037500D02*
D03*
Y3902499D02*
D03*
X4297699Y3480200D02*
D03*
Y3615201D02*
D03*
X3547702Y2955198D02*
D03*
Y2820197D02*
D03*
X4317700Y2885201D02*
D03*
Y2750200D02*
D03*
X3950000Y1162498D02*
D03*
Y1297499D02*
D03*
X4480001Y1202498D02*
D03*
Y1337499D02*
D03*
X4687700Y1555201D02*
D03*
Y1420200D02*
D03*
X4167700Y2750199D02*
D03*
Y2885200D02*
D03*
X8452698Y720199D02*
D03*
Y585198D02*
D03*
X8452697Y2795201D02*
D03*
Y2660200D02*
D03*
X1385001Y1367501D02*
D03*
Y1502502D02*
D03*
D29*
X942500Y1380000D02*
D03*
X777500D02*
D03*
X3850201Y3137701D02*
D03*
X3685203D02*
D03*
D30*
X890000Y1210000D02*
D03*
X794999D02*
D03*
X984996D02*
D03*
Y960003D02*
D03*
X794999D02*
D03*
X890000D02*
D03*
D31*
X417502Y1260000D02*
D03*
Y1195001D02*
D03*
Y1130002D02*
D03*
Y1000000D02*
D03*
Y1064999D02*
D03*
D32*
X149999Y1250002D02*
D03*
Y1010003D02*
D03*
D33*
Y1530002D02*
D03*
Y729998D02*
D03*
D34*
X2085000Y2839998D02*
D03*
Y3269999D02*
D03*
D35*
X1054999Y3784499D02*
D03*
Y3911499D02*
D03*
Y4038499D02*
D03*
X1594998Y4165499D02*
D03*
Y3784499D02*
D03*
Y3911499D02*
D03*
X1054999Y4165499D02*
D03*
X1594998Y4038499D02*
D03*
D36*
X1125003Y3300000D02*
D03*
Y3069998D02*
D03*
Y3530002D02*
D03*
D37*
X1725001Y3300000D02*
D03*
D38*
X1570107Y1109999D02*
D03*
X1429894D02*
D03*
X1570107Y970002D02*
D03*
X1429894D02*
D03*
D39*
X3380000Y2954998D02*
D03*
X3249998D02*
D03*
X3668449Y2463451D02*
D03*
X3538452D02*
D03*
X2840002Y1415000D02*
D03*
X2970000D02*
D03*
D40*
X2862298Y1265001D02*
D03*
X3007698D02*
D03*
X1917698Y1115000D02*
D03*
X1772298D02*
D03*
D41*
X3017587Y1565002D02*
D03*
X2872416D02*
D03*
X2872413Y2115000D02*
D03*
X3017584D02*
D03*
X2480289Y3812697D02*
D03*
X2335118D02*
D03*
X2792874Y3812697D02*
D03*
X2647703D02*
D03*
X2167703D02*
D03*
X2022532D02*
D03*
D42*
X2385000Y3162416D02*
D03*
Y3307587D02*
D03*
X2394999Y2802416D02*
D03*
Y2947587D02*
D03*
D43*
X3029999Y1724999D02*
D03*
X2860002Y1944998D02*
D03*
X3029999D02*
D03*
X2860002Y1724999D02*
D03*
D44*
X1552700Y1752702D02*
D03*
Y1832702D02*
D03*
Y1912702D02*
D03*
Y1992702D02*
D03*
Y2072701D02*
D03*
Y2152701D02*
D03*
X2692698Y2312701D02*
D03*
Y2232701D02*
D03*
Y2152701D02*
D03*
Y2072701D02*
D03*
Y1992702D02*
D03*
Y1912702D02*
D03*
Y1832702D02*
D03*
Y1592697D02*
D03*
Y1512698D02*
D03*
X1552700Y1592697D02*
D03*
Y2232701D02*
D03*
X2692698Y1752702D02*
D03*
X1552700Y1512698D02*
D03*
Y1672702D02*
D03*
Y2312701D02*
D03*
X2692698Y1672702D02*
D03*
D45*
X1722703Y2482698D02*
D03*
X1802703D02*
D03*
X1882702D02*
D03*
X1962702D02*
D03*
X2042702D02*
D03*
X2122702D02*
D03*
X2202702D02*
D03*
X2282702D02*
D03*
X2362701D02*
D03*
X2522701Y1342700D02*
D03*
X2442701D02*
D03*
X2362701D02*
D03*
X2282702D02*
D03*
X2202702D02*
D03*
X2122702D02*
D03*
X1962702D02*
D03*
X1882702D02*
D03*
X1802703D02*
D03*
X1722703D02*
D03*
X2522701Y2482698D02*
D03*
X2042702Y1342700D02*
D03*
X2442701Y2482698D02*
D03*
D46*
X5699330Y3307700D02*
D03*
Y3357697D02*
D03*
Y3407700D02*
D03*
Y3457697D02*
D03*
Y3507700D02*
D03*
Y3657697D02*
D03*
X5016070D02*
D03*
Y3607699D02*
D03*
Y3557697D02*
D03*
Y3457697D02*
D03*
Y3357697D02*
D03*
Y3257698D02*
D03*
Y3207700D02*
D03*
Y3157698D02*
D03*
X5699330Y3257698D02*
D03*
Y3557697D02*
D03*
Y3607699D02*
D03*
D47*
X5607702Y3749330D02*
D03*
X5557700D02*
D03*
X5507702D02*
D03*
X5457700D02*
D03*
X5407703D02*
D03*
X5307703D02*
D03*
X5257700D02*
D03*
X5207698D02*
D03*
X5157701D02*
D03*
Y3066070D02*
D03*
X5207698D02*
D03*
X5257700D02*
D03*
X5357700D02*
D03*
X5407703D02*
D03*
X5457700D02*
D03*
X5557700D02*
D03*
X5607702D02*
D03*
X5107698Y3749330D02*
D03*
X5357700D02*
D03*
D48*
Y3407700D02*
D03*
D49*
X3855095Y1577696D02*
D03*
D50*
X3855146Y1617701D02*
D03*
Y1657701D02*
D03*
Y1777700D02*
D03*
Y1817700D02*
D03*
Y1857700D02*
D03*
Y1897700D02*
D03*
Y1937700D02*
D03*
Y1977700D02*
D03*
Y2017700D02*
D03*
Y2057700D02*
D03*
Y2097700D02*
D03*
Y2297699D02*
D03*
Y2337699D02*
D03*
Y2377699D02*
D03*
Y2417699D02*
D03*
X4500255Y2497699D02*
D03*
Y2457699D02*
D03*
Y2417699D02*
D03*
Y2377699D02*
D03*
Y2337699D02*
D03*
Y2297699D02*
D03*
Y2257699D02*
D03*
Y2217699D02*
D03*
Y2177699D02*
D03*
Y2137700D02*
D03*
Y2097700D02*
D03*
Y2057700D02*
D03*
Y2017700D02*
D03*
Y1977700D02*
D03*
Y1857700D02*
D03*
Y1817700D02*
D03*
Y1777700D02*
D03*
Y1737700D02*
D03*
Y1697700D02*
D03*
Y1657701D02*
D03*
Y1617701D02*
D03*
Y1577696D02*
D03*
X3855146Y1697700D02*
D03*
Y2137700D02*
D03*
Y2217699D02*
D03*
Y2257699D02*
D03*
Y2457699D02*
D03*
Y2497699D02*
D03*
X4500255Y1937700D02*
D03*
X3855146Y1737700D02*
D03*
Y2177699D02*
D03*
X4500255Y1897700D02*
D03*
D51*
X3957701Y2560249D02*
D03*
X3997701D02*
D03*
X4037701D02*
D03*
X4077701D02*
D03*
X4117700D02*
D03*
X4157700D02*
D03*
X4197700D02*
D03*
X4317700D02*
D03*
X4357700D02*
D03*
X4397700D02*
D03*
X4437700D02*
D03*
X4357700Y1515146D02*
D03*
X4317700D02*
D03*
X4277700D02*
D03*
X4237700D02*
D03*
X4197700D02*
D03*
X4157700D02*
D03*
X4117700D02*
D03*
X4077701D02*
D03*
X4037701D02*
D03*
X4237700Y2560249D02*
D03*
X4437700Y1515146D02*
D03*
X3997701D02*
D03*
X3917701Y2560249D02*
D03*
X4277700D02*
D03*
X4397700Y1515146D02*
D03*
X3957701D02*
D03*
D52*
X3917701Y1514084D02*
D03*
D53*
X4177700Y2037700D02*
D03*
D54*
X6425001Y480000D02*
D03*
X6274998D02*
D03*
X6717700Y352700D02*
D03*
X6567703D02*
D03*
X5007702Y1697700D02*
D03*
X4857700D02*
D03*
D55*
X7030091Y407697D02*
D03*
X7185311D02*
D03*
D56*
X3397700Y2598138D02*
D03*
Y2462700D02*
D03*
X5897702Y2819982D02*
D03*
Y2955420D02*
D03*
D57*
X3747700Y1097700D02*
D03*
Y1277700D02*
D03*
D58*
X5247699Y2067700D02*
D03*
X5067699D02*
D03*
D59*
X8157701Y377698D02*
D03*
X8297700D02*
D03*
X8152700Y3002699D02*
D03*
X8292700D02*
D03*
D60*
X5874565Y3450000D02*
D03*
X6020000D02*
D03*
X5877284Y3610001D02*
D03*
X6022719D02*
D03*
D61*
X5155420Y2827700D02*
D03*
X5019982D02*
D03*
X5399980Y2667700D02*
D03*
X5535418D02*
D03*
D62*
X3860200Y2962700D02*
D03*
Y2752698D02*
D03*
X3695201Y2962700D02*
D03*
Y2752698D02*
D03*
D63*
X8302827Y1102700D02*
D03*
X7827700D02*
D03*
X8290267Y2302701D02*
D03*
X7815134D02*
D03*
D64*
X6924901Y1030199D02*
D03*
X7280501Y1225199D02*
D03*
Y1160201D02*
D03*
Y1095197D02*
D03*
Y1030199D02*
D03*
X6924901Y1095197D02*
D03*
Y1160201D02*
D03*
Y1225199D02*
D03*
X6924898Y825199D02*
D03*
Y760200D02*
D03*
Y695202D02*
D03*
Y630198D02*
D03*
X7280498D02*
D03*
Y695202D02*
D03*
Y760200D02*
D03*
Y825199D02*
D03*
X6924901Y1830199D02*
D03*
X7280501Y2025199D02*
D03*
Y1960201D02*
D03*
Y1895197D02*
D03*
Y1830199D02*
D03*
X6924901Y1895197D02*
D03*
Y1960201D02*
D03*
Y2025199D02*
D03*
X7280501Y1625201D02*
D03*
Y1560198D02*
D03*
Y1495199D02*
D03*
Y1430200D02*
D03*
X6924901D02*
D03*
Y1495199D02*
D03*
Y1560198D02*
D03*
Y1625201D02*
D03*
X6924898Y2630200D02*
D03*
X7280498Y2825201D02*
D03*
Y2760197D02*
D03*
Y2695199D02*
D03*
Y2630200D02*
D03*
X6924898Y2695199D02*
D03*
Y2760197D02*
D03*
Y2825201D02*
D03*
X7280499Y2425202D02*
D03*
Y2360198D02*
D03*
Y2295199D02*
D03*
Y2230201D02*
D03*
X6924899D02*
D03*
Y2295199D02*
D03*
Y2360198D02*
D03*
Y2425202D02*
D03*
D65*
X6652698Y2395175D02*
D03*
Y2660224D02*
D03*
X6652698Y1595174D02*
D03*
Y1860223D02*
D03*
X6652700Y795173D02*
D03*
Y1060222D02*
D03*
D66*
X7847657Y555198D02*
D03*
Y620201D02*
D03*
Y750198D02*
D03*
X8257740D02*
D03*
Y685200D02*
D03*
Y620201D02*
D03*
X7847657Y685200D02*
D03*
X7847657Y2630199D02*
D03*
Y2695198D02*
D03*
Y2825200D02*
D03*
X8257740D02*
D03*
Y2760201D02*
D03*
Y2695198D02*
D03*
X7847657Y2760201D02*
D03*
D67*
X8257740Y555198D02*
D03*
X8257740Y2630199D02*
D03*
D68*
X1000000Y2680000D02*
X1054501D01*
X1100393Y2634108D01*
X1134999Y2370000D02*
X1638914D01*
X1656701Y2352213D01*
X980000Y2360000D02*
X1010000Y2330000D01*
X992502Y2359998D02*
X992504Y2360000D01*
X992502Y2359998D02*
Y2367498D01*
X1010000Y2330000D02*
X1080000D01*
X1000000Y2504999D02*
X1134999Y2370000D01*
X1000000Y2504999D02*
Y2530000D01*
Y2200000D02*
X1090000D01*
Y2070000D02*
Y2100000D01*
X992500Y2050000D02*
X1070000D01*
X1090000Y2070000D01*
X992500Y1900000D02*
X1070000D01*
X980000D02*
X992500D01*
X1094834Y1954834D02*
X1100000Y1960000D01*
X1094834Y1924834D02*
Y1954834D01*
X1070000Y1900000D02*
X1094834Y1924834D01*
X990000Y1750000D02*
Y1755000D01*
X1028500Y1793500D01*
X1056194D01*
X1062694Y1800000D01*
X1070000D01*
X1000000Y1600000D02*
X1064500D01*
X1084734Y1620235D01*
X1089766D01*
X725000Y1600000D02*
X847500D01*
X725000Y1750000D02*
X847500D01*
X725000Y1900000D02*
X847500D01*
X725000Y2050000D02*
X847500D01*
X847500Y2199999D02*
X847500Y2199999D01*
X724999Y2199999D02*
X847500D01*
X847495Y2360001D02*
X847498Y2359998D01*
X724999Y2360001D02*
X847495D01*
X847498Y2520002D02*
X847501Y2519999D01*
X725001Y2520002D02*
X847498D01*
X725001Y2680002D02*
X847501D01*
X1100000Y1952694D02*
Y1960000D01*
X1084834Y2094834D02*
X1090000Y2100000D01*
X740000Y4130000D02*
X930251D01*
X1033999Y4144499D02*
X1054999Y4165499D01*
X944750Y4144499D02*
X1033999D01*
X930251Y4130000D02*
X944750Y4144499D01*
X1227347Y2157816D02*
X1321056Y2251525D01*
X1230000Y2202694D02*
Y2210000D01*
Y2202694D02*
X1251113Y2181581D01*
X1188395Y1749996D02*
Y1755231D01*
X1134763D02*
X1188395D01*
X1225002Y1786603D02*
Y1790001D01*
X1265002Y1830001D01*
X1188395Y1749996D02*
X1225002Y1786603D01*
X1328530Y2258999D02*
X1346500D01*
X1300000Y2150000D02*
X1377503D01*
X1385000Y2022498D02*
Y2157498D01*
X1346500Y2258999D02*
X1400203Y2312701D01*
X1321056Y2251525D02*
X1321056D01*
X1328530Y2258999D01*
X1227347Y2045155D02*
Y2157816D01*
X1377503Y2150000D02*
X1385000Y2157498D01*
X1555402Y1990000D02*
X1680000D01*
X1602529Y2445982D02*
X1978512Y2070000D01*
X1244492Y2445982D02*
X1602529D01*
X1100393Y2590081D02*
X1244492Y2445982D01*
X1100393Y2590081D02*
Y2634108D01*
X1978512Y2070000D02*
X2600000D01*
X1997712Y2011202D02*
X2390000D01*
X1656701Y2352213D02*
X1997712Y2011202D01*
X1656701Y2352213D02*
Y2352213D01*
X1450000Y4160000D02*
X1590000D01*
X1910000Y3640000D02*
X2056000Y3494000D01*
X2162383D01*
X2185981Y3510000D02*
X3008258D01*
X1943206Y3752774D02*
X2185981Y3510000D01*
X1943206Y3752774D02*
Y3895309D01*
X2162383Y3494000D02*
X2174383Y3482000D01*
X2971260D01*
X961043Y3843499D02*
X1033998D01*
X610000Y3479998D02*
Y3492456D01*
X961043Y3843499D01*
X1149702Y3050000D02*
X1150000Y3050298D01*
X1269999Y2865000D02*
X1279999Y2875000D01*
X1289999D01*
X875000Y2940000D02*
Y2975000D01*
X1225000D02*
X1225000D01*
X1150000Y2899998D02*
Y2900000D01*
X1680000Y3590000D02*
X1781897Y3691897D01*
X1125003Y3530002D02*
X1700471D01*
X1831502Y3661033D01*
X1750002Y3952502D02*
X1820957D01*
X1831502Y3941957D01*
Y3661033D02*
Y3941957D01*
X2971260Y3482000D02*
X3029828Y3423433D01*
X1594998Y3911499D02*
X1615998Y3890499D01*
X1677003D01*
X1750002Y3817501D01*
X1755002D01*
X1594998Y4038499D02*
X1690953D01*
X1716502Y4012951D01*
Y3986002D02*
Y4012951D01*
Y3986002D02*
X1750002Y3952502D01*
X3029828Y3340170D02*
Y3423433D01*
Y3340170D02*
X3035000Y3334999D01*
X1741016Y4097499D02*
X1943206Y3895309D01*
X1505485Y4097499D02*
X1741016D01*
X1488498Y3795043D02*
Y4080511D01*
Y3795043D02*
X1499042Y3784499D01*
X1594998D01*
X1488498Y4080511D02*
X1505485Y4097499D01*
X3094826Y3400000D02*
Y3423431D01*
X3008258Y3510000D02*
X3094826Y3423431D01*
X1033998Y3843499D02*
X1044999Y3854499D01*
Y3901499D01*
X1054999Y3911499D01*
X918499Y4038499D02*
X1054999D01*
X610000Y3730000D02*
X918499Y4038499D01*
X1781897Y3691897D02*
Y3802901D01*
X1761150Y3823648D02*
X1781897Y3802901D01*
X3595352Y2373051D02*
X3602658D01*
X3614180Y2384573D01*
X4989484Y1330503D02*
X4989990Y1329998D01*
Y1180010D02*
Y1329998D01*
X5330000Y1480000D02*
X5800000D01*
X5180000Y1630000D02*
X5260000Y1550000D01*
Y1550000D02*
X5330000Y1480000D01*
X5800000D02*
X5824800Y1455200D01*
X5770000Y1570000D02*
Y1640000D01*
X5710000Y1700000D02*
X5770000Y1640000D01*
X5290000Y1660000D02*
X5292732D01*
X5332732Y1700000D01*
X5710000D01*
X5007702Y1697700D02*
X5137700D01*
X5260000Y1820000D01*
X3950000Y1100000D02*
Y1162497D01*
X3950000Y1162498D01*
X5535418Y2667700D02*
Y2670000D01*
X5457700Y2868304D02*
Y3059720D01*
Y2868304D02*
X5540000Y2786004D01*
Y2670000D02*
Y2786004D01*
X5220000Y2640000D02*
X5328802Y2531198D01*
X5155420Y2704580D02*
Y2827700D01*
Y2704580D02*
X5220000Y2640000D01*
X3840000Y150000D02*
X3980000Y290000D01*
Y400000D01*
X4054500Y474500D01*
X6200000Y470000D02*
X6264999D01*
X6274998Y480000D01*
X4640000Y550000D02*
X4660000Y530000D01*
X4727702Y762701D02*
X4766202Y724201D01*
Y636202D02*
Y724201D01*
X4660000Y530000D02*
X4766202Y636202D01*
X7184924Y2506807D02*
X7266529Y2425202D01*
X7280499D01*
X6500478Y2506807D02*
X7184924D01*
X5897702Y2570584D02*
X6297788Y2170498D01*
X7280499Y2181043D02*
Y2230201D01*
X7269954Y2170498D02*
X7280499Y2181043D01*
X6297788Y2170498D02*
X7269954D01*
X6717700Y352700D02*
X6962702D01*
X7017699Y407697D01*
X7030091D01*
X7650000Y400000D02*
Y482499D01*
X7652700Y485199D01*
X6274998Y480000D02*
X6280199Y474799D01*
X2779999Y2570000D02*
X2960000D01*
X3272700Y2377699D02*
Y2512700D01*
X3465885Y2405166D02*
X3470000Y2401051D01*
X3447952Y2405166D02*
X3465885D01*
X3813484Y2337938D02*
X3854907D01*
X3761258Y2339075D02*
X3812347D01*
X3688293Y2356573D02*
X3743761D01*
X3812347Y2339075D02*
X3813484Y2337938D01*
X3743761Y2356573D02*
X3761258Y2339075D01*
X3658630Y2326910D02*
X3688293Y2356573D01*
X3651324Y2326910D02*
X3658630D01*
X3614180Y2384573D02*
X3765025D01*
X3771898Y2377699D01*
X3855146D01*
X5745658Y3304324D02*
X5799988Y3249994D01*
X5705680Y3507700D02*
X5783704D01*
X5833396Y3557391D01*
Y3568394D01*
X5875002Y3610001D01*
X4906950Y3640000D02*
X4912320D01*
X5354325Y3759055D02*
Y3813257D01*
X5353450Y3814131D02*
X5354325Y3813257D01*
X5353450Y3814131D02*
Y3885631D01*
X5387699Y3919879D01*
X5100000Y1190000D02*
X5390000Y900000D01*
X5100000Y1190000D02*
Y1300457D01*
X5390000Y900000D02*
X5760000D01*
X5010000Y1390457D02*
Y1440000D01*
Y1390457D02*
X5100000Y1300457D01*
X4989990Y1180010D02*
X5200000Y970000D01*
X4974644Y1043450D02*
X4977700D01*
X4960394Y1057700D02*
X4974644Y1043450D01*
X5824800Y677087D02*
Y1455200D01*
X5760000Y702290D02*
X6309190Y153100D01*
X5760000Y702290D02*
Y900000D01*
X5897702Y2570584D02*
Y2819982D01*
X5865422Y2504578D02*
X6040800Y2329200D01*
Y1718231D02*
Y2329200D01*
X5729832Y2504578D02*
X5865422D01*
X6097700Y1902893D02*
Y2187700D01*
X6100000Y2190000D01*
X6097700Y1902893D02*
X6192613Y1807980D01*
X6012800Y1675569D02*
Y2256798D01*
X5821598Y2448000D02*
X6012800Y2256798D01*
X5875977Y3304917D02*
X6060000D01*
X6177615Y2602698D02*
Y3187303D01*
X6060000Y3304917D02*
X6177615Y3187303D01*
X5755792Y3199398D02*
X5885190Y3070000D01*
X6177530Y2427700D02*
Y2427981D01*
X6138705Y2466806D02*
X6177530Y2427981D01*
X6083194Y2466806D02*
X6138705D01*
X6030000Y2520000D02*
X6083194Y2466806D01*
X5970000Y3070000D02*
X6030000Y3010000D01*
Y2520000D02*
Y3010000D01*
X5648447Y3199398D02*
X5755792D01*
X5885190Y3070000D02*
X5970000D01*
X5705680Y3407700D02*
X5772358D01*
X5824586Y3356308D02*
X5875977Y3304917D01*
X5772358Y3407700D02*
X5823749Y3356308D01*
X5824586D01*
X5705680Y3457697D02*
X5866867D01*
X5874565Y3450000D01*
X5875002Y3610001D02*
X5877284D01*
X5709056Y3304324D02*
X5745658D01*
X5834402Y3306894D02*
X5921295Y3220000D01*
X5806282Y3306894D02*
X5834402D01*
X5758854Y3354322D02*
X5806282Y3306894D01*
X5709056Y3354322D02*
X5758854D01*
X5705680Y3357697D02*
X5709056Y3354322D01*
X7950000Y3002897D02*
Y3090000D01*
Y3002897D02*
X7950198Y3002699D01*
X6280199Y352701D02*
Y474799D01*
X4390000Y1310000D02*
X4452502D01*
X4480001Y1337499D01*
X4580000Y1171485D02*
Y1460000D01*
X4490000Y1081485D02*
X4580000Y1171485D01*
X4380000Y1380000D02*
Y1387306D01*
X4357700Y1409606D02*
X4380000Y1387306D01*
X4480001Y1140001D02*
Y1202498D01*
X4420000Y1080000D02*
X4480001Y1140001D01*
X4490000Y870000D02*
Y1081485D01*
X2940000Y710000D02*
Y913300D01*
X2805000Y1075000D02*
X2840000Y1040000D01*
X2603300Y1276700D02*
X2805000Y1075000D01*
X2855000D02*
X2900000Y1120000D01*
X2805000Y1075000D02*
X2855000D01*
X4877500Y2430000D02*
X4890000Y2442500D01*
Y2520000D01*
X5247699Y2067700D02*
X5285399Y2030000D01*
X5360000D01*
X5247699Y2067700D02*
X5299999Y2120000D01*
X5360000D01*
X5000000Y1872501D02*
Y1930000D01*
X4985198Y1857699D02*
X5000000Y1872501D01*
X4875199Y2002698D02*
Y2007698D01*
Y2002698D02*
X4951698Y1926199D01*
Y1891199D02*
Y1926199D01*
Y1891199D02*
X4985198Y1857699D01*
X3641200Y879689D02*
Y1364712D01*
X3380000Y618488D02*
X3641200Y879689D01*
X3520000Y1283109D02*
X3778974Y1542084D01*
X3641200Y1364712D02*
X3790572Y1514084D01*
X3520000Y920000D02*
Y1283109D01*
X3778974Y1542084D02*
X3781103D01*
X3790572Y1514084D02*
X3917701D01*
X3472583Y977420D02*
Y1288186D01*
X3801859Y1617462D02*
X3854907D01*
X3472583Y1288186D02*
X3801859Y1617462D01*
X3660000Y1660000D02*
Y1722504D01*
X3672498Y1735002D01*
X4297699Y3480200D02*
X4317899Y3460000D01*
X4370000D01*
X4300000Y3617503D02*
Y3690000D01*
X4297699Y3615201D02*
X4300000Y3617503D01*
X3670000Y3152904D02*
X3685203Y3137701D01*
X3670000Y3152904D02*
Y3190000D01*
X2974999Y1420000D02*
X3040000D01*
X2970000Y1415000D02*
X2974999Y1420000D01*
X2540000Y1670000D02*
X2689996D01*
X2692698Y1672702D01*
X2572700Y1737700D02*
X2677696D01*
X2840000Y2490000D02*
X2900000D01*
X2898969Y2408500D02*
X3090469Y2600000D01*
X3220000D01*
X2835000Y2485000D02*
X2840000Y2490000D01*
X2645487Y2408500D02*
X2898969D01*
X6309190Y153100D02*
X8223569D01*
X8529198Y458730D01*
Y648699D01*
X8457698Y720199D02*
X8529198Y648699D01*
X5453217Y2531198D02*
X5661711Y2322705D01*
X5824800Y677087D02*
X6225687Y276201D01*
X6343700D01*
X5661711Y2322705D02*
X5757763D01*
X5866900Y2213569D01*
Y1978597D02*
Y2213569D01*
X5852800Y1015573D02*
Y1964497D01*
Y1015573D02*
X6286834Y581540D01*
X7177723D01*
X5852800Y1964497D02*
X5866900Y1978597D01*
X5328802Y2531198D02*
X5453217D01*
X5162702Y2827700D02*
X5199308Y2791093D01*
X6192613Y1807699D02*
Y1807980D01*
X6177530Y2427418D02*
Y2427700D01*
X5607702Y3158653D02*
X5648447Y3199398D01*
X5607702Y3059720D02*
Y3158653D01*
X5453530Y2610081D02*
X5615612Y2448000D01*
X5821598D01*
X6012800Y1675569D02*
X6306830Y1381540D01*
X7177723D01*
X7199102Y1402918D01*
Y1408821D01*
X7220481Y1430200D01*
X5453530Y2610081D02*
Y2621432D01*
X5407262Y2667700D02*
X5453530Y2621432D01*
X5399980Y2667700D02*
X5407262D01*
X6343700Y276201D02*
X6415200Y347701D01*
X6040800Y1718231D02*
X6126332Y1632699D01*
X6192614D01*
X5634410Y2600000D02*
X5729832Y2504578D01*
X5634410Y2600000D02*
Y2883010D01*
X5516000Y3001420D02*
X5634410Y2883010D01*
X5516000Y3001420D02*
Y3100352D01*
X5476833Y3139520D02*
X5516000Y3100352D01*
X5438567Y3139520D02*
X5476833D01*
X5411078Y3112031D02*
X5438567Y3139520D01*
X5411078Y3063095D02*
Y3112031D01*
X5407703Y3059720D02*
X5411078Y3063095D01*
X5950000Y1230593D02*
Y1850000D01*
Y1230593D02*
X6177614Y1002979D01*
Y1002698D02*
Y1002979D01*
X5880800Y1058234D02*
Y1952900D01*
Y1058234D02*
X6111333Y827702D01*
X6177616D01*
X5880800Y1952900D02*
X5894900Y1966999D01*
Y2335100D01*
X5810000Y2420000D02*
X5894900Y2335100D01*
X5604014Y2420000D02*
X5810000D01*
X5464815Y2559198D02*
X5604014Y2420000D01*
X5340400Y2559198D02*
X5464815D01*
X5316000Y2583598D02*
X5340400Y2559198D01*
X5316000Y2583598D02*
Y3100352D01*
X5276833Y3139520D02*
X5316000Y3100352D01*
X5238568Y3139520D02*
X5276833D01*
X5211074Y3112026D02*
X5238568Y3139520D01*
X5211074Y3063095D02*
Y3112026D01*
X5207698Y3059720D02*
X5211074Y3063095D01*
X2499387Y3690613D02*
X2500405D01*
X2454214Y3735786D02*
X2499387Y3690613D01*
X2037702Y3967698D02*
Y4007702D01*
X2040000Y4010000D01*
X2337701Y3967697D02*
Y4007701D01*
X2340000Y4010000D01*
X2637701Y3967698D02*
Y4007701D01*
X2640000Y4010000D01*
X3527702Y3962699D02*
Y4007702D01*
X3530000Y4010000D01*
X3827700Y4007700D02*
X3830000Y4010000D01*
X3827700Y3962699D02*
Y4007700D01*
X4127698Y4007698D02*
X4130000Y4010000D01*
X4127698Y3962699D02*
Y4007698D01*
X992499Y2512499D02*
Y2519999D01*
X942500Y1380000D02*
X955000D01*
X1014834Y1439834D01*
Y1474834D01*
X1020000Y1480000D01*
X890000Y1210000D02*
Y1220000D01*
X900000Y1230000D01*
X1427502Y1109999D02*
X1429894D01*
X1237501Y1300000D02*
X1427502Y1109999D01*
X794999Y1210000D02*
Y1235400D01*
X830520Y1270921D01*
Y1277892D01*
X852628Y1300000D01*
X1237501D01*
X417502Y1195001D02*
X780000D01*
X794999Y1210000D01*
X984996D02*
Y1235400D01*
Y1184600D02*
Y1210000D01*
X1140000Y1075510D02*
X1321993D01*
X984996Y1184600D02*
X1006476Y1163120D01*
X1052391D01*
X1140000Y1075510D01*
X738816Y1120000D02*
X939456D01*
X963516Y1188520D02*
X984996Y1210000D01*
X963516Y1144060D02*
Y1188520D01*
X939456Y1120000D02*
X963516Y1144060D01*
X728814Y1130002D02*
X738816Y1120000D01*
X552613Y1046447D02*
X863009D01*
X890000Y960003D02*
Y1019456D01*
X863009Y1046447D02*
X890000Y1019456D01*
X890000Y960003D02*
X890000Y960003D01*
X417502Y1130002D02*
X728814D01*
X4865202Y1057700D02*
X4960394D01*
X1995120Y1151607D02*
X2104202Y1260688D01*
X1917698Y1115000D02*
X1954305Y1151607D01*
X1995120D01*
X1769998Y1115000D02*
X1772298D01*
X1733391Y1078393D02*
X1769998Y1115000D01*
X1733391Y1063391D02*
Y1078393D01*
X1730000Y1060000D02*
X1733391Y1063391D01*
X1572499Y970002D02*
X1671410Y1068913D01*
Y1148637D01*
X1712379Y1189606D01*
X4492765Y476546D02*
Y612635D01*
X4407530Y697870D02*
X4492765Y612635D01*
X4407530Y697870D02*
Y999209D01*
X4687700Y1420200D02*
X4860200D01*
X4870000Y1430000D01*
X4670000Y1437900D02*
X4687700Y1420200D01*
X4670000Y1437900D02*
Y1460000D01*
X4946209Y2067700D02*
X5067699D01*
X2200000Y300000D02*
Y476911D01*
X2322544Y599456D01*
X2166000Y756000D02*
X2322544Y599456D01*
X2729456D01*
X2840000Y710000D02*
Y1040000D01*
X2729456Y599456D02*
X2840000Y710000D01*
X2522701Y1295200D02*
Y1342700D01*
Y1295200D02*
X2541201Y1276700D01*
X2603300D01*
X2424201Y1324200D02*
X2442701Y1342700D01*
X2424201Y1014201D02*
Y1324200D01*
X2420000Y1010000D02*
X2424201Y1014201D01*
X2323300Y852700D02*
X2420000Y756000D01*
X2323300Y1062859D02*
X2362701Y1102260D01*
X2323300Y852700D02*
Y1062859D01*
X2362701Y1102260D02*
Y1342700D01*
X2282702Y727299D02*
X2382544Y627456D01*
X2671315Y753315D02*
X2674000Y756000D01*
X2572000Y753315D02*
X2671315D01*
X2446140Y627456D02*
X2572000Y753315D01*
X2382544Y627456D02*
X2446140D01*
X2282702Y727299D02*
Y1342700D01*
X3380000Y440000D02*
Y618488D01*
X3330000Y390000D02*
X3380000Y440000D01*
X3100000Y390000D02*
X3330000D01*
X2992000Y498000D02*
Y510000D01*
Y498000D02*
X3100000Y390000D01*
X3246000Y646000D02*
X3520000Y920000D01*
X3246000Y510000D02*
Y646000D01*
X3440000Y940000D02*
Y944837D01*
X3472583Y977420D01*
X3246000Y256000D02*
X3352000Y150000D01*
X3840000D01*
X4054500Y474500D02*
Y1213700D01*
X4026500Y1225298D02*
X4049148Y1247945D01*
X4026500Y649812D02*
Y1225298D01*
X4049148Y1247945D02*
Y1433569D01*
X4054500Y1213700D02*
X4077701Y1236900D01*
X4037701Y1445016D02*
X4049148Y1433569D01*
X3890000Y513312D02*
X4026500Y649812D01*
X3604000Y360000D02*
X3830000D01*
X3890000Y420000D02*
Y513312D01*
X3830000Y360000D02*
X3890000Y420000D01*
X3500000Y256000D02*
X3604000Y360000D01*
X4238171Y411829D02*
X4390000Y260000D01*
X4578000Y326000D02*
X4644000Y260000D01*
X4578000Y326000D02*
Y391312D01*
X4492765Y476546D02*
X4578000Y391312D01*
X534062Y1064999D02*
X552613Y1046447D01*
X417502Y1064999D02*
X534062D01*
X585002Y1380000D02*
X777500D01*
X465002Y1260000D02*
X585002Y1380000D01*
X417502Y1260000D02*
X465002D01*
X342988Y1206001D02*
X406502D01*
X417502Y1195001D01*
X1321993Y1075510D02*
X1427502Y970002D01*
X1429894D01*
X4277700Y1515146D02*
X4277939Y1514907D01*
Y1450058D02*
Y1514907D01*
Y1450058D02*
X4293945Y1434051D01*
Y1402053D02*
Y1434051D01*
X4293201Y1401309D02*
X4293945Y1402053D01*
X4293201Y1058400D02*
Y1401309D01*
X4238171Y1003370D02*
X4293201Y1058400D01*
X4238171Y411829D02*
Y1003370D01*
X4321201Y1085538D02*
X4407530Y999209D01*
X4321201Y1085538D02*
Y1389711D01*
X4321945Y1390455D01*
Y1445649D01*
X4317939Y1449656D02*
X4321945Y1445649D01*
X4317939Y1449656D02*
Y1514907D01*
X4317700Y1515146D02*
X4317939Y1514907D01*
X5365200Y4005200D02*
Y4047698D01*
X5360000Y4000000D02*
X5365200Y4005200D01*
Y4047698D02*
X5387699Y4025199D01*
X3305200Y3294800D02*
X4135494D01*
X3240000Y3360000D02*
X3305200Y3294800D01*
X4135494D02*
X4453745Y2976549D01*
X3430469Y3360000D02*
X4149490D01*
X3197500Y3588452D02*
X3314277Y3471675D01*
X3318794D01*
X3430469Y3360000D01*
X3350000D02*
X3351798D01*
X3385901Y3325897D01*
X3450000Y3480000D02*
Y3644181D01*
X3389407Y3566230D02*
Y3665176D01*
X3375294Y3679289D02*
X3389407Y3665176D01*
X3375294Y3679289D02*
Y3728667D01*
X3403294Y3690887D02*
X3450000Y3644181D01*
X3625202Y3580198D02*
X3737661D01*
X3296959Y3807001D02*
X3375294Y3728667D01*
X3327502Y3816056D02*
Y3990042D01*
X3459670Y3745730D02*
X3625202Y3580198D01*
X3459670Y3745730D02*
Y3747969D01*
X3327502Y3816056D02*
X3403294Y3740265D01*
Y3690887D02*
Y3740265D01*
X3275834Y3807001D02*
X3296959D01*
X3197500Y3588452D02*
Y3649957D01*
Y3885335D02*
X3275834Y3807001D01*
X3197500Y3885335D02*
Y3990042D01*
X3120000Y4122694D02*
Y4130000D01*
Y4122694D02*
X3132501Y4110192D01*
Y3990042D02*
Y4110192D01*
X2969998Y4037500D02*
X3000000Y4067502D01*
Y4100000D01*
X2969998Y3902499D02*
X3098574D01*
X3132501Y3936426D01*
Y3990042D01*
X2647703Y3812697D02*
Y3817703D01*
X2690000Y3860000D01*
X2335118Y3812697D02*
Y3815118D01*
X2380000Y3860000D01*
X2022532Y3822532D02*
X2060000Y3860000D01*
X2022532Y3812697D02*
Y3822532D01*
X3262498Y3990042D02*
X3266245Y3993789D01*
Y4146245D01*
X3270000Y4150000D01*
X2482703Y3812697D02*
X2645444Y3649957D01*
X3132501D01*
X2792874Y3812697D02*
X3161262D01*
X3262498Y3711461D01*
Y3649957D02*
Y3711461D01*
X2247028Y3735786D02*
X2454214D01*
X2480289Y3812697D02*
X2482703D01*
X2170117Y3812697D02*
X2247028Y3735786D01*
X3262498Y3928538D02*
Y3990042D01*
X2167703Y3812697D02*
X2170117D01*
X2337702Y4117698D02*
X2487702D01*
X2337701Y4117699D02*
X2337702Y4117698D01*
X2167703Y3947696D02*
X2187703Y3967696D01*
X2167703Y3812697D02*
Y3947696D01*
X2037704Y4117698D02*
X2187703D01*
X2037702Y4117695D02*
X2037704Y4117698D01*
X2637704Y4117698D02*
X2787704D01*
X2637701Y4117695D02*
X2637704Y4117698D01*
X2480289Y3960283D02*
X2487702Y3967696D01*
X2480289Y3812697D02*
Y3960283D01*
X2787704Y3817868D02*
X2792874Y3812697D01*
X2787704Y3817868D02*
Y3967695D01*
X2224112Y4154107D02*
Y4251289D01*
X2187703Y4117698D02*
X2224112Y4154107D01*
X2210000Y4490000D02*
X2224112Y4475888D01*
Y4251289D02*
Y4475888D01*
X2720000Y4185402D02*
Y4480000D01*
Y4185402D02*
X2787704Y4117698D01*
X2710000Y4490000D02*
X2720000Y4480000D01*
X2470000Y4135400D02*
Y4480000D01*
Y4135400D02*
X2487702Y4117698D01*
X2460000Y4490000D02*
X2470000Y4480000D01*
X3519200Y3833700D02*
X3547700Y3805200D01*
X3967699Y4190201D02*
Y4398146D01*
X3910000Y4455846D02*
X3967699Y4398146D01*
X3910000Y4455846D02*
Y4490000D01*
X4156198Y4190200D02*
Y4486198D01*
X4160000Y4490000D01*
X3660000Y4187700D02*
Y4490000D01*
X3971035Y3560402D02*
Y3664997D01*
X4190850Y3713349D02*
X4267701Y3790200D01*
X4019386Y3713349D02*
X4190850D01*
X3971035Y3664997D02*
X4019386Y3713349D01*
X3737661Y3515199D02*
X3833824D01*
X3939201Y3620576D01*
X4193091Y3355996D02*
Y3569555D01*
X3939201Y3620576D02*
Y3769200D01*
X4193091Y3355996D02*
X4537745Y3011342D01*
X3939201Y3769200D02*
X3962701Y3792700D01*
X3967701Y3797700D01*
X3727661Y3654993D02*
Y3730238D01*
X3727870Y3654993D02*
X3737661Y3645201D01*
X3727661Y3654993D02*
X3727870D01*
X3969799Y3450201D02*
X4077742D01*
X3930000Y3490000D02*
X3969799Y3450201D01*
X4171416Y3615201D02*
X4297699D01*
X4077742Y3645201D02*
X4141416D01*
X4171416Y3615201D01*
X4016238Y3515199D02*
X4077742D01*
X3971035Y3560402D02*
X4016238Y3515199D01*
X4077742Y3580198D02*
X4182449D01*
X4193091Y3569555D01*
X3667700Y3790200D02*
X3727661Y3730238D01*
X3667700Y3790200D02*
Y3797700D01*
X4500255Y2377699D02*
X4500494Y2377938D01*
X4553546D01*
X4673300Y2497692D01*
Y2710197D01*
X4537745Y2845752D02*
X4673300Y2710197D01*
X4537745Y2845752D02*
Y3011342D01*
X4267701Y3790200D02*
Y3797700D01*
X4299343Y3289343D02*
Y3340449D01*
X4249991Y3389800D02*
X4299343Y3340449D01*
X4355286Y3374834D02*
X4394834D01*
X4339700Y3359248D02*
X4355286Y3374834D01*
X4729300Y2477440D02*
Y2733392D01*
X4339700Y3296102D02*
Y3359248D01*
X3657700Y3942695D02*
X3677702Y3962696D01*
X4156198Y4190200D02*
X4190201D01*
X4270201Y4110200D01*
X4277700D01*
X4156198Y4141202D02*
Y4190200D01*
X3957701Y3807700D02*
X3967701Y3797700D01*
X3957701Y3807700D02*
Y3945199D01*
X3977699Y3965197D01*
X4257701Y3807700D02*
X4267701Y3797700D01*
X4257701Y3807700D02*
Y3945203D01*
X4277700Y3965202D01*
X3838244Y4190201D02*
X3967699D01*
Y4120201D02*
X3977699Y4110201D01*
X3827700Y4179656D02*
X3838244Y4190201D01*
X3827700Y4112702D02*
Y4179656D01*
X3967699Y4120201D02*
Y4190201D01*
X3657700Y3807700D02*
X3667700Y3797700D01*
X3657700Y3807700D02*
Y3942695D01*
X3677702Y3962696D01*
X3538246Y4187700D02*
X3660000D01*
Y4125401D02*
Y4187700D01*
Y4125401D02*
X3677702Y4107700D01*
X3527702Y4177155D02*
X3538246Y4187700D01*
X3527702Y4112702D02*
Y4177155D01*
X3547700Y3797700D02*
Y3805200D01*
X4127698Y4112702D02*
X4156198Y4141202D01*
X3854687Y1577288D02*
X3855095Y1577696D01*
X3816308Y1577288D02*
X3854687D01*
X3781103Y1542084D02*
X3816308Y1577288D01*
X4037701Y1445016D02*
Y1515146D01*
X3854907Y1617462D02*
X3855146Y1617701D01*
X4077701Y1236900D02*
Y1515146D01*
X1570107Y970002D02*
X1572499D01*
X1944202Y1324200D02*
X1962702Y1342700D01*
X1944202Y1260688D02*
Y1324200D01*
X1873121Y1189606D02*
X1944202Y1260688D01*
X1712379Y1189606D02*
X1873121D01*
X2442701Y1342700D02*
X2461201Y1324200D01*
X4394834Y3374834D02*
X4400000Y3380000D01*
X4299343Y3289343D02*
X4567700Y3020985D01*
X4530000Y3184998D02*
X4657700Y3057297D01*
Y2884188D02*
Y3057297D01*
X4530000Y3184998D02*
Y3360000D01*
X4517750Y3117650D02*
X4595700Y3039700D01*
X4463370Y3248027D02*
Y3252901D01*
Y3248027D02*
X4495700Y3215697D01*
X4339700Y3296102D02*
X4517750Y3118052D01*
X4567700Y2855394D02*
Y3020985D01*
X4595700Y2866992D02*
Y3039700D01*
X4495700Y3179700D02*
Y3215697D01*
X4623700Y2878590D02*
Y3051700D01*
X4495700Y3179700D02*
X4623700Y3051700D01*
X4517750Y3117650D02*
Y3118052D01*
X3385901Y3325897D02*
X4143995D01*
X4149490Y3360000D02*
X4509745Y2999745D01*
X4481745Y2822556D02*
Y2988147D01*
X4509745Y2834154D02*
Y2999745D01*
X4143995Y3325897D02*
X4481745Y2988147D01*
X4453745Y2810958D02*
Y2976549D01*
X4589300Y2548315D02*
Y2675403D01*
X4453745Y2810958D02*
X4589300Y2675403D01*
X4481745Y2822556D02*
X4617300Y2687001D01*
X4500255Y2497699D02*
X4538685D01*
X4589300Y2548315D01*
X4500255Y2457699D02*
X4500494Y2457938D01*
X4553546D01*
X4617300Y2521692D01*
Y2687001D01*
X4500255Y2417699D02*
X4500494Y2417938D01*
X4553546D01*
X4645300Y2509692D01*
Y2698599D01*
X4509745Y2834154D02*
X4645300Y2698599D01*
X1649732Y1200379D02*
X1688053Y1238700D01*
X1649732Y1187232D02*
Y1200379D01*
X1572499Y1109999D02*
X1649732Y1187232D01*
X1570107Y1109999D02*
X1572499D01*
X1688053Y1238700D02*
X1842215D01*
X1864202Y1324200D02*
X1882702Y1342700D01*
X1864202Y1260688D02*
Y1324200D01*
X1842215Y1238700D02*
X1864202Y1260688D01*
X4517701Y3725199D02*
X4777701D01*
X4810202Y3457697D02*
X5009720D01*
X4777701Y3490198D02*
X4810202Y3457697D01*
X4870033Y3585598D02*
X4897934Y3557697D01*
X5009720D01*
X4780000Y3585598D02*
X4870033D01*
X4912320Y3640000D02*
X4944620Y3607699D01*
X5009720D01*
X4777701Y3725199D02*
Y3804993D01*
X4760000Y3822694D02*
X4777701Y3804993D01*
X4760000Y3822694D02*
Y3830000D01*
X5167698Y4047698D02*
X5230199D01*
X5140000Y4020000D02*
X5167698Y4047698D01*
X4947899Y4050000D02*
X5030000D01*
X4927699Y4070201D02*
X4947899Y4050000D01*
X4850202Y1594796D02*
X4870000Y1574998D01*
X4850202Y1594796D02*
Y1690202D01*
X4857700Y1697700D01*
X4730200Y1062699D02*
X4929456Y1261954D01*
X4951500Y1521500D02*
X5020000Y1590000D01*
X4745035Y1502866D02*
X4772534D01*
X4775080Y1500320D01*
X4951500Y1372988D02*
Y1521500D01*
X4929456Y1350943D02*
X4951500Y1372988D01*
X4929456Y1261954D02*
Y1350943D01*
X4850202Y1705198D02*
Y1776449D01*
X4711522D02*
X4850202D01*
X4710671Y1777300D02*
X4711522Y1776449D01*
X4704278Y1777300D02*
X4710671D01*
X4703878Y1777700D02*
X4704278Y1777300D01*
X4500255Y1777700D02*
X4703878D01*
X3480000Y2670000D02*
X3485166Y2664834D01*
Y2647733D02*
X3540200Y2592698D01*
X3485166Y2647733D02*
Y2664834D01*
X3540200Y2587698D02*
Y2592698D01*
X3397700Y2598138D02*
X3529761D01*
X3540200Y2587698D01*
X3370000Y2802497D02*
X3382502Y2814999D01*
X3370000Y2750000D02*
Y2802497D01*
X3600000Y2730000D02*
X3600319D01*
X3623017Y2752698D01*
X3695201D01*
X3547702Y2820197D02*
X3637701D01*
X3695201Y2762698D01*
Y2752698D02*
Y2762698D01*
X3351500Y2983498D02*
X3380000Y2954998D01*
X3351500Y2983498D02*
Y3011194D01*
X3340000Y3022693D02*
X3351500Y3011194D01*
X3340000Y3022693D02*
Y3030000D01*
X3247501Y2814999D02*
Y2819999D01*
X3099998Y2776499D02*
X3214001D01*
Y2781499D01*
Y2724001D02*
Y2776499D01*
Y2781499D02*
X3247501Y2814999D01*
X3210000Y2720000D02*
X3214001Y2724001D01*
X3397700Y2455418D02*
Y2462700D01*
Y2455418D02*
X3447952Y2405166D01*
X1300000Y1672694D02*
Y1680000D01*
Y1672694D02*
X1327301Y1645393D01*
Y1642301D02*
Y1645393D01*
X1385001Y1502502D02*
Y1584600D01*
X1327301Y1642301D02*
X1385001Y1584600D01*
X1382499Y1500000D02*
X1385001Y1502502D01*
X1290000Y1500000D02*
X1382499D01*
X1400203Y2312701D02*
X1552700D01*
X1227347Y2045155D02*
X1257502Y2015001D01*
X1385000Y2022498D02*
X1392498Y2015001D01*
X1460204Y2232701D02*
X1552700D01*
X1423500Y2195998D02*
X1460204Y2232701D01*
X1423500Y2190998D02*
Y2195998D01*
X1390000Y2157498D02*
X1423500Y2190998D01*
X1385000Y2157498D02*
X1390000D01*
X1265002Y1830001D02*
X1385000D01*
X1390000Y1290000D02*
Y1362502D01*
X1385001Y1367501D02*
X1390000Y1362502D01*
X1552700Y1592697D02*
X1571201Y1611197D01*
X1651991D01*
X1682694Y1641900D01*
X1690000D01*
X1225002Y1642301D02*
X1327301D01*
X1380000Y1695000D01*
X1385000D01*
X1407298Y1672702D02*
X1552700D01*
X1385000Y1695000D02*
X1407298Y1672702D01*
X1395197Y1512698D02*
X1552700D01*
X1385001Y1502502D02*
X1395197Y1512698D01*
X2600000Y2480000D02*
X2605166Y2474834D01*
Y2448821D02*
Y2474834D01*
Y2448821D02*
X2645487Y2408500D01*
X2541201Y2538342D02*
X2560601D01*
X2699999Y2490000D02*
Y2559500D01*
Y2485000D02*
Y2490000D01*
X2779999Y2570000D01*
X2522701Y2519842D02*
X2541201Y2538342D01*
X2522701Y2482698D02*
Y2519842D01*
X3667501Y2574998D02*
X3917124D01*
X3667501D02*
X3675201Y2582698D01*
X3641701Y2549198D02*
X3667501Y2574998D01*
X3675201Y2587698D02*
X3707503Y2620000D01*
X3810000D01*
X4317700Y2792501D02*
X4320000Y2794801D01*
X4317700Y2750200D02*
Y2792501D01*
X3917701Y2560249D02*
Y2574422D01*
X3917124Y2574998D02*
X3917701Y2574422D01*
X6415200Y347701D02*
Y352701D01*
X4561516Y1555201D02*
X4687700D01*
X4539022Y1577696D02*
X4561516Y1555201D01*
X4687700D02*
X4692700D01*
X5312500Y2422500D02*
Y2430000D01*
Y2422500D02*
X5348500Y2386500D01*
X5356000D02*
X5552500Y2190000D01*
X5810000D01*
X5348500Y2386500D02*
X5356000D01*
X5921295Y3220000D02*
X6060000D01*
X7950198Y3002699D02*
X8152700D01*
X7847657Y2760201D02*
X7919577D01*
X7931784Y2772408D01*
X7933439D01*
X8050000Y2888969D01*
Y2940000D01*
X7652700Y2920199D02*
X7672900Y2900000D01*
X7760000D01*
X8452697Y2660200D02*
X8457697D01*
X8542331Y2744834D01*
X8554834D01*
X8560000Y2750000D01*
X8310000Y3020000D02*
Y3070000D01*
X8292700Y3002699D02*
X8310000Y3020000D01*
X7805200Y2995199D02*
X7847657Y2952742D01*
Y2825200D02*
Y2952742D01*
X8297700Y377698D02*
X8367698D01*
X8440000Y450000D01*
X8452698Y470005D02*
Y585198D01*
X8440000Y457306D02*
X8452698Y470005D01*
X8440000Y450000D02*
Y457306D01*
X8257740Y620201D02*
X8259243Y618698D01*
X8419198D01*
X8452698Y585198D01*
X6860000Y210000D02*
X6991620D01*
X7129008Y347388D02*
Y363786D01*
X7172919Y407697D01*
X7185311D01*
X6991620Y210000D02*
X7129008Y347388D01*
X8450000Y2797899D02*
X8452697Y2795201D01*
X8450000Y2797899D02*
Y2920000D01*
X6422701Y477700D02*
X6425001Y480000D01*
X6422701Y360201D02*
Y477700D01*
X6415200Y352701D02*
X6422701Y360201D01*
Y352700D02*
X6567703D01*
X8452698Y720199D02*
X8457698D01*
X7730950Y533330D02*
Y707067D01*
X7761874Y737991D01*
X7730950Y533330D02*
X7805202Y459078D01*
X8110000Y2630000D02*
X8110100Y2630099D01*
X8257640D01*
X7999900D02*
X8000000Y2630000D01*
X7847756Y2630099D02*
X7999900D01*
X8007599Y557599D02*
X8010000Y560000D01*
X7850058Y557599D02*
X8007599D01*
X8257640Y2630099D02*
X8257740Y2630199D01*
X7847657D02*
X7847756Y2630099D01*
X8120000Y560000D02*
X8122401Y557599D01*
X8255339D01*
X8257740Y555198D01*
X7847657D02*
X7850058Y557599D01*
X6362788Y1827699D02*
X6421371D01*
X6342788Y1807699D02*
X6362788Y1827699D01*
X6900881Y1820149D02*
X6910931Y1830199D01*
X6900881Y1770881D02*
Y1820149D01*
X6878592Y1748592D02*
X6900881Y1770881D01*
X6829324Y1748592D02*
X6878592D01*
X6500478D02*
X6829324D01*
X6421371Y1827699D02*
X6500478Y1748592D01*
X6362785Y1652699D02*
X6446372D01*
X6342784Y1632699D02*
X6362785Y1652699D01*
X7184926Y1706806D02*
X7266531Y1625201D01*
X6500478Y1706806D02*
X7184926D01*
X6446372Y1652699D02*
X6500478Y1706806D01*
X6829323Y948590D02*
X6910931Y1030199D01*
X6924901D01*
X6431891Y948590D02*
X6829323D01*
X7940000Y367497D02*
X7950201Y377698D01*
X7940000Y290000D02*
Y367497D01*
X7805202Y377698D02*
Y459078D01*
X7775737Y750198D02*
X7847657D01*
X7763530Y737991D02*
X7775737Y750198D01*
X7761874Y737991D02*
X7763530D01*
X7950201Y377698D02*
X8157701D01*
X6416611Y866808D02*
X6456607Y906804D01*
X6366611Y866808D02*
X6416611D01*
X6327785Y827983D02*
X6366611Y866808D01*
X6327785Y827702D02*
Y827983D01*
X7266528Y825199D02*
X7280498D01*
X7184922Y906804D02*
X7266528Y825199D01*
X6456607Y906804D02*
X7184922D01*
X6416890Y963591D02*
X6431891Y948590D01*
X6366609Y963591D02*
X6416890D01*
X6327784Y1002416D02*
X6366609Y963591D01*
X6327784Y1002416D02*
Y1002698D01*
X4692700Y1555201D02*
X4745035Y1502866D01*
X5022500Y2422500D02*
X5030000Y2430000D01*
X5167500D01*
X5067699Y2067700D02*
Y2070200D01*
X5143699Y2146200D01*
Y2157212D01*
X5190046Y2203559D01*
X5248454D01*
X5294800Y2249906D01*
Y2412300D01*
X5312500Y2430000D01*
X2644998Y2755000D02*
Y2875002D01*
X2620000Y2900000D02*
X2644998Y2875002D01*
X2550000Y2900000D02*
X2620000D01*
X2412687Y2369201D02*
X3070799D01*
X2381201Y2400687D02*
Y2464198D01*
X3070799Y2369201D02*
X3190000Y2250000D01*
X2381201Y2400687D02*
X2412687Y2369201D01*
X2517299Y2152701D02*
X2692698D01*
X2390000Y2280000D02*
X2517299Y2152701D01*
X2615000Y2985000D02*
X2740000Y3110000D01*
X2390000Y2011202D02*
X2674198D01*
X2380000Y1970000D02*
X2385166Y1975166D01*
Y2006368D02*
X2390000Y2011202D01*
X2385166Y1975166D02*
Y2006368D01*
X2740000Y3110000D02*
X3180000D01*
X2453246Y2595242D02*
X2664256D01*
X2709996Y2755000D02*
Y2902690D01*
X2720000Y2912694D01*
X2279734Y2623242D02*
X2921501D01*
X2839999Y2755001D02*
Y2882694D01*
X2810000Y2912694D02*
X2839999Y2882694D01*
X3031747Y2758253D02*
X3035000Y2755000D01*
X3031747Y2758253D02*
Y2872755D01*
X2490678Y3162416D02*
X2579999Y3251737D01*
X2385000Y3162416D02*
X2490678D01*
X2227583D02*
X2385000D01*
X2907499Y2757501D02*
Y2917499D01*
X2644998Y3175000D02*
Y3334999D01*
X2436324Y2988912D02*
X2522412Y3075000D01*
X2544998D02*
X2644998Y3175000D01*
X2522412Y3075000D02*
X2544998D01*
X2904997Y2755000D02*
X2907499Y2757501D01*
X2839999Y2755000D02*
X2839999Y2755001D01*
X2579999Y3251737D02*
Y3334999D01*
X2921501Y2623242D02*
X2970001Y2671743D01*
Y2755000D01*
X2221202Y2564711D02*
X2279734Y2623242D01*
X2221202Y2501198D02*
Y2564711D01*
X2202702Y2482698D02*
X2221202Y2501198D01*
X2433910Y2988912D02*
X2436324D01*
X2394999Y2950001D02*
X2433910Y2988912D01*
X2394999Y2947587D02*
Y2950001D01*
X3095500Y2954998D02*
X3249998D01*
X3031502Y2891000D02*
X3095500Y2954998D01*
X3031502Y2873000D02*
Y2891000D01*
Y2873000D02*
X3031747Y2872755D01*
X2810000Y2912694D02*
Y2920000D01*
X2664256Y2595242D02*
X2699999Y2559500D01*
X2442701Y2584698D02*
X2453246Y2595242D01*
X2442701Y2482698D02*
Y2584698D01*
X2720000Y2912694D02*
Y2920000D01*
X2674198Y2011202D02*
X2692698Y1992702D01*
X2600000Y2070000D02*
X2689997D01*
X2692698Y2072701D01*
X4357700Y1409606D02*
Y1515146D01*
X4397939Y1449061D02*
X4441501Y1405499D01*
Y1370999D02*
Y1405499D01*
Y1370999D02*
X4475001Y1337499D01*
X4480001D01*
X4397939Y1449061D02*
Y1514907D01*
X4397700Y1515146D02*
X4397939Y1514907D01*
X4236301Y1370000D02*
X4237461Y1371160D01*
Y1514907D01*
X3935348Y1312151D02*
X3950000Y1297499D01*
X3935348Y1434692D02*
X3957462Y1456806D01*
X4157700Y1411466D02*
Y1515146D01*
X4111400Y1190131D02*
Y1393700D01*
X4179401Y1325043D02*
X4214362Y1290082D01*
X4117700Y1400000D02*
Y1515146D01*
X4151401Y1230599D02*
Y1405166D01*
X4179401Y1393568D02*
X4197700Y1411868D01*
Y1515146D01*
X4179401Y1325043D02*
Y1393568D01*
X3957462Y1456806D02*
Y1514907D01*
X3935348Y1312151D02*
Y1434692D01*
X4151401Y1405166D02*
X4157700Y1411466D01*
X4151401Y1230599D02*
X4172000Y1210000D01*
X4111400Y1393700D02*
X4117700Y1400000D01*
X4214362Y1290000D02*
Y1290082D01*
X1552700Y2152701D02*
X1555402Y2150000D01*
X1680000D01*
X2280000Y2360000D02*
Y2479997D01*
X3190000Y1130000D02*
Y2250000D01*
X3655749Y2450751D02*
X3740000D01*
X3769042D01*
X1552700Y2072701D02*
X1555402Y2070000D01*
X1680000D01*
X1552700Y1992702D02*
X1555402Y1990000D01*
X1552700Y1912702D02*
X1555402Y1910000D01*
X1680000D01*
X1552700Y1832702D02*
X1555403Y1830000D01*
X1680000D01*
X3140000Y1030000D02*
X3260000Y910000D01*
X3140000Y1030000D02*
Y2175469D01*
X3002768Y2312701D02*
X3140000Y2175469D01*
X2692698Y2312701D02*
X3002768D01*
X2362701Y2482698D02*
X2381201Y2464198D01*
X3190000Y1130000D02*
X3330000Y990000D01*
X2280000Y2479997D02*
X2282702Y2482698D01*
X2202702Y1450000D02*
Y1470256D01*
Y1342700D02*
Y1450000D01*
X2206001Y1446700D02*
X2562213D01*
X2202702Y1450000D02*
X2206001Y1446700D01*
X2202702Y1342700D02*
X2221202Y1361200D01*
X2190000Y1482957D02*
Y1510000D01*
Y1482957D02*
X2202702Y1470256D01*
X4172000Y1210000D02*
X4236301D01*
X4237461Y1514907D02*
X4237700Y1515146D01*
X3957462Y1514907D02*
X3957701Y1515146D01*
X4811698Y2084198D02*
X4929712D01*
X4740198Y2012698D02*
X4811698Y2084198D01*
X4740198Y2002698D02*
Y2012698D01*
X4706698Y1969197D02*
X4740198Y2002698D01*
X4671635Y1969197D02*
X4706698D01*
X4929712Y2084198D02*
X4946209Y2067700D01*
X4600138Y1897700D02*
X4671635Y1969197D01*
X4500255Y1897700D02*
X4600138D01*
X2120000Y3269999D02*
X2227583Y3162416D01*
X2085000Y3269999D02*
X2120000D01*
X2382412Y2935000D02*
X2394999Y2947587D01*
X2215002Y2935000D02*
X2382412D01*
X2120000Y2839998D02*
X2215002Y2935000D01*
X2085000Y2839998D02*
X2120000D01*
X2692698Y1752702D02*
X2832298D01*
X2104202Y1324200D02*
X2122702Y1342700D01*
X2104202Y1260688D02*
Y1324200D01*
X2674198Y1574197D02*
X2692698Y1592697D01*
X2610686Y1574197D02*
X2674198D01*
X2588698Y1552210D02*
X2610686Y1574197D01*
X2677696Y1737700D02*
X2692698Y1752702D01*
X2588698Y1473185D02*
Y1552210D01*
Y1473185D02*
X2649184Y1412700D01*
X2837702D01*
X2840002Y1415000D01*
X2825692Y1301607D02*
X2862298Y1265001D01*
X2707306Y1301607D02*
X2825692D01*
X2562213Y1446700D02*
X2707306Y1301607D01*
X2832298Y1752702D02*
X2862702Y1722298D01*
X3380000Y2949998D02*
Y2954998D01*
X3351500Y2921498D02*
X3380000Y2949998D01*
X3349000Y2921498D02*
X3351500D01*
X3247501Y2819999D02*
X3349000Y2921498D01*
X3801855Y1737939D02*
X3854907D01*
X3800718Y1739077D02*
X3801855Y1737939D01*
X3800718Y1739077D02*
X3800718D01*
X3788229Y1751565D02*
X3800718Y1739077D01*
X3689061Y1751565D02*
X3788229D01*
X3272700Y2377699D02*
X3327701Y2322698D01*
X3017584Y2115000D02*
X3032699Y2099885D01*
Y1947698D02*
Y2099885D01*
X3029999Y1944998D02*
X3032699Y1947698D01*
X2862702Y1574716D02*
Y1722298D01*
Y1574716D02*
X2872416Y1565002D01*
X3586347Y2283653D02*
X3614111D01*
X3538452Y2331548D02*
Y2463451D01*
Y2331548D02*
X3586347Y2283653D01*
X3646475Y2322061D02*
X3651324Y2326910D01*
X3614111Y2283653D02*
X3631541Y2266224D01*
Y2235955D02*
Y2266224D01*
Y2235955D02*
X3672899Y2194596D01*
X3693501Y2057699D02*
X3762093D01*
X3692499Y2058701D02*
X3693501Y2057699D01*
X3692499Y2058701D02*
Y2065001D01*
X3854907Y2097461D02*
X3855146Y2097700D01*
X3801855Y2097461D02*
X3854907D01*
X3762093Y2057699D02*
X3801855Y2097461D01*
X3769042Y2450751D02*
X3801855Y2417938D01*
X3854907D01*
X3855146Y2417699D01*
X3660001Y2065000D02*
X3692499D01*
X3692499Y2065001D01*
X3672899Y2194596D02*
X3781261D01*
X3854907Y2177938D02*
X3855146Y2177699D01*
X3797919Y2177938D02*
X3854907D01*
X3781261Y2194596D02*
X3797919Y2177938D01*
X3716241Y2299673D02*
X3718676Y2297238D01*
X3672498Y1735002D02*
X3689061Y1751565D01*
X4984320Y3657697D02*
X5009720D01*
X4927699Y3714318D02*
X4984320Y3657697D01*
X5387699Y3919879D02*
Y4025199D01*
X4927699Y3714318D02*
Y3925202D01*
X5354325Y3759055D02*
X5357700Y3755680D01*
X4500494Y2257938D02*
X4553546D01*
X4500494Y2217938D02*
X4553546D01*
X4500255Y2217699D02*
X4500494Y2217938D01*
X4175201Y2757700D02*
X4187300D01*
X4167700Y2750199D02*
X4175201Y2757700D01*
X4197700Y2560249D02*
Y2632855D01*
X4201076Y2636230D01*
Y2716823D01*
X4777702Y2930198D02*
X4807702D01*
X4717702Y3327698D02*
Y3335198D01*
X4784202Y3401698D01*
X3020000Y2117417D02*
Y2215000D01*
X3017584Y2115000D02*
X3020000Y2117417D01*
X3731376Y2309938D02*
X3789727D01*
X3801727Y2297938D01*
X3854907D01*
X3855146Y2297699D01*
X3854907Y2337938D02*
X3855146Y2337699D01*
X3675201Y2582698D02*
Y2587698D01*
X3636701Y2549198D02*
X3641701D01*
X3397700Y2462700D02*
X3532701D01*
X3623937Y2539951D02*
X3627454D01*
X3636701Y2549198D01*
X3595184Y2511198D02*
X3623937Y2539951D01*
X3532701Y2462700D02*
X3581199Y2511198D01*
X3595184D01*
X4500255Y1577696D02*
X4539022D01*
X3854907Y1737939D02*
X3855146Y1737700D01*
X4850202Y1776449D02*
Y1857699D01*
X5557700Y2999318D02*
X5737035Y2819982D01*
X8412700Y2695198D02*
X8447697Y2660200D01*
X8257740Y2695198D02*
X8412700D01*
X8447697Y2660200D02*
X8452697D01*
X7805200Y2995199D02*
Y3002699D01*
X7652700Y2785199D02*
X7727200D01*
X7841996Y2765862D02*
X7847657Y2760201D01*
X7746537Y2765862D02*
X7841996D01*
X7727200Y2785199D02*
X7746537Y2765862D01*
X6500478Y2548593D02*
X6829321D01*
X6910928Y2630200D01*
X6917913D01*
X4595700Y2866992D02*
X4729300Y2733392D01*
X5019982Y2827700D02*
X5027264D01*
X4807702Y2930198D02*
X4846202Y2968698D01*
X5027264Y2827700D02*
X5063870Y2864307D01*
Y2903870D01*
X4623700Y2878590D02*
X4757300Y2744990D01*
X4657700Y2884188D02*
X4785300Y2756588D01*
X5162702Y2827700D02*
X5199308Y2864307D01*
X5063870Y2903870D02*
X5157701Y2997700D01*
X5199308Y2871588D02*
X5257700Y2929980D01*
X5199308Y2864307D02*
Y2871588D01*
X5786092Y2999308D02*
X5861095D01*
X5737035Y2819982D02*
X5897702D01*
Y2955420D02*
Y2962702D01*
X5861095Y2999308D02*
X5897702Y2962702D01*
X5357700Y2890311D02*
X5399980Y2848031D01*
Y2667700D02*
Y2848031D01*
X4553546Y2257938D02*
X4757300Y2461693D01*
X4553546Y2217938D02*
X4785300Y2449693D01*
X4553546Y2297938D02*
X4729300Y2473693D01*
X4785300Y2449693D02*
Y2756588D01*
X4757300Y2461693D02*
Y2744990D01*
X4729300Y2473693D02*
Y2477440D01*
X5357700Y2890311D02*
Y3059720D01*
X5157701Y2997700D02*
Y3059720D01*
X5257700Y2929980D02*
Y3059720D01*
X4984320Y3157698D02*
X5009720D01*
X4893869Y3165199D02*
X4936370Y3207700D01*
X4846202Y3019580D02*
X4984320Y3157698D01*
X4846202Y2968698D02*
Y3019580D01*
X4777702Y3165199D02*
X4893869D01*
X4940320Y3401698D02*
X4984320Y3357697D01*
X4936370Y3207700D02*
X5009720D01*
X4900202Y3257698D02*
X5009720D01*
X4837702Y3320198D02*
X4900202Y3257698D01*
X4984320Y3357697D02*
X5009720D01*
X4837702Y3320198D02*
Y3327698D01*
X4784202Y3401698D02*
X4940320D01*
X5705680Y3079720D02*
X5786092Y2999308D01*
X5557700Y2999318D02*
Y3059720D01*
X4865201Y1057699D02*
X4865202Y1057700D01*
X4882700Y757700D02*
X4987700D01*
X4877699Y762701D02*
X4882700Y757700D01*
X4877698Y912698D02*
X4877699Y912698D01*
X4727702Y912698D02*
X4877698D01*
X4730200Y1057699D02*
Y1062699D01*
Y915197D02*
Y1057699D01*
X4727702Y912698D02*
X4730200Y915197D01*
X4701300Y2485693D02*
Y2721794D01*
X4567700Y2855394D02*
X4701300Y2721794D01*
X4553546Y2337938D02*
X4701300Y2485693D01*
X4500255Y2257699D02*
X4500494Y2257938D01*
X4500255Y2297699D02*
X4500494Y2297938D01*
X4500255Y2337699D02*
X4500494Y2337938D01*
X4553546D01*
X4500494Y2297938D02*
X4553546D01*
X4167700Y2750199D02*
X4201076Y2716823D01*
X4274326Y2636232D02*
Y2716827D01*
X4307700Y2750200D01*
X4274326Y2636232D02*
X4277700Y2632858D01*
Y2560249D02*
Y2632858D01*
X7199100Y608820D02*
X7220478Y630198D01*
X7177723Y581540D02*
X7199100Y602916D01*
Y608820D01*
X7220478Y630198D02*
X7280498D01*
X7220481Y1430200D02*
X7280501D01*
X5705680Y3079720D02*
Y3157698D01*
X6327700Y2427700D02*
X6421371D01*
X6500478Y2506807D01*
X6446372Y2602698D02*
X6500478Y2548593D01*
X6327784Y2602698D02*
X6446372D01*
X5705680Y3307700D02*
X5709056Y3304324D01*
D69*
X1065003Y3530002D02*
X1125003D01*
X899998Y3404604D02*
X920605Y3425210D01*
X974302D01*
X1040002Y3505002D02*
X1065003Y3530002D01*
X974302Y3425210D02*
X1040002Y3490911D01*
Y3505002D01*
X899998Y3400003D02*
Y3404604D01*
X610000Y3230001D02*
X759395Y3379396D01*
X879392D01*
X899998Y3400003D01*
X5600000Y4300000D02*
X5641882D01*
X4750000D02*
X5590000D01*
Y4330000D02*
X5600000Y4320000D01*
X5671882Y4330000D02*
X5680000D01*
X5641882Y4300000D02*
X5671882Y4330000D01*
X4395202Y3945201D02*
X4750000Y4300000D01*
X4395202Y3582698D02*
Y3945201D01*
Y3582698D02*
X4487701Y3490198D01*
X4517701D01*
X4777701D01*
X3767499Y1297499D02*
X3950000D01*
X3747700Y1277700D02*
X3767499Y1297499D01*
D70*
X3588033Y2365732D02*
X3595352Y2373051D01*
X5612092Y3810601D02*
X5630451Y3828959D01*
Y3837700D01*
X5728952Y3748953D02*
X5730000Y3750000D01*
X5728952Y3663805D02*
Y3748953D01*
X5770738Y3582698D02*
X5774486Y3578950D01*
X5699330Y3582698D02*
X5770738D01*
X5699330D02*
Y3601591D01*
X5705680Y3657697D02*
X5722844D01*
X5728952Y3663805D01*
X5705438Y3607699D02*
X5705680D01*
X5699330Y3601591D02*
X5705438Y3607699D01*
X5048687Y3871313D02*
X5054867Y3865133D01*
Y3830046D02*
X5081093Y3803820D01*
X5054867Y3830046D02*
Y3865133D01*
X5147700Y3862350D02*
X5153311Y3856739D01*
Y3760070D02*
Y3856739D01*
X5409027Y3836376D02*
X5410350Y3837700D01*
X5409027Y3757004D02*
Y3836376D01*
X5457700Y3867071D02*
X5464600Y3860171D01*
X5457700Y3867071D02*
Y3917700D01*
X5407703Y3755680D02*
X5409027Y3757004D01*
X5457700Y3917700D02*
X5457700Y3917700D01*
X5464600Y3815229D02*
Y3860171D01*
X5457700Y3755680D02*
Y3808329D01*
X5464600Y3815229D01*
X5203450Y3759928D02*
X5207698Y3755680D01*
X5203450Y3913450D02*
X5207700Y3917700D01*
X5257700Y3837700D02*
X5257700Y3837699D01*
X5153311Y3760070D02*
X5157701Y3755680D01*
X5257700D02*
Y3837699D01*
X5203450Y3759928D02*
Y3913450D01*
X5311950Y3759927D02*
Y3869799D01*
X5305600Y3876150D02*
Y3917150D01*
Y3876150D02*
X5311950Y3869799D01*
X3327699Y1197698D02*
X3344414D01*
X3803164Y1656448D01*
X3557702Y2945198D02*
X3747700D01*
X3547702Y2955198D02*
X3557702Y2945198D01*
X4729300Y2477440D02*
X4731950Y2480090D01*
X4550812Y2298952D02*
X4729300Y2477440D01*
X4731950Y2480090D02*
Y2547700D01*
X5081093Y3803820D02*
X5083677D01*
X5107698Y3779799D01*
Y3755680D02*
Y3779799D01*
X4762300Y1638341D02*
Y1644879D01*
X4677700Y1697700D02*
X4677700Y1697700D01*
X4731950Y1675229D02*
Y1720171D01*
X4700171Y1751951D02*
X4731950Y1720171D01*
X4603043Y1751951D02*
X4700171D01*
X4718960Y1834347D02*
X4727700D01*
X4702313Y1817700D02*
X4718960Y1834347D01*
X4500255Y1817700D02*
X4702313D01*
X4385476Y2690171D02*
X4427700Y2732395D01*
Y2737700D01*
X4468960Y1467700D02*
X4477700D01*
X4461196Y1475463D02*
X4468960Y1467700D01*
X4501508Y1616448D02*
X4587953D01*
X4592300Y1612101D01*
X4561178Y1657701D02*
X4569829Y1666352D01*
X4629049D02*
X4657700Y1637700D01*
X4569829Y1666352D02*
X4629049D01*
X4437700Y1478488D02*
X4440724Y1475463D01*
X4461196D01*
X4731950Y1675229D02*
X4762300Y1644879D01*
X4904396Y2304396D02*
X5022500Y2422500D01*
X4892150Y2304396D02*
X4904396D01*
X3327698Y1322702D02*
X3466027Y1461031D01*
X3484088Y1808852D02*
X3725913D01*
X3468731Y1857700D02*
X3855146D01*
X3471977Y1893049D02*
X3766227D01*
X3414852Y1803821D02*
X3468731Y1857700D01*
X3478134Y1835000D02*
X3767700D01*
X3327699Y1572698D02*
X3414852Y1659851D01*
Y1803821D01*
X3327699Y1697701D02*
X3392152Y1762154D01*
Y1813223D01*
X3327699Y1447702D02*
X3437552Y1557554D01*
Y1794418D01*
X3478134Y1835000D01*
X3466027Y1461031D02*
Y1790791D01*
X3484088Y1808852D01*
X3392152Y1813223D02*
X3471977Y1893049D01*
X3997701Y1415452D02*
Y1515146D01*
X3992248Y1410000D02*
X3997701Y1415452D01*
X2042702Y1342700D02*
X2047700Y1347699D01*
Y1462700D01*
X2713848Y1933852D02*
X2773613D01*
X2787459Y1947698D01*
X2692698Y1832702D02*
X2937695D01*
X2692698Y1912702D02*
X2713848Y1933852D01*
X3029999Y1724999D02*
Y1734999D01*
X2954738Y1810260D02*
X3029999Y1734999D01*
X2954738Y1810260D02*
Y1815660D01*
X2937695Y1832702D02*
X2954738Y1815660D01*
X2857302Y1947698D02*
X2860002Y1944998D01*
X2787459Y1947698D02*
X2857302D01*
X2860002Y1944998D02*
X2862702Y1947698D01*
X3785000Y1817700D02*
X3855146D01*
X3767700Y1835000D02*
X3785000Y1817700D01*
X3337700Y2072697D02*
X3449248Y1961149D01*
X3327699Y2072697D02*
X3337700D01*
X3794570Y2017700D02*
X3855146D01*
X3738019Y1961149D02*
X3794570Y2017700D01*
X3449248Y1961149D02*
X3738019D01*
X3725913Y1808852D02*
X3757064Y1777700D01*
X3855146D01*
X3803164Y1656448D02*
X3844235D01*
X3770878Y1897700D02*
X3855146D01*
X3766227Y1893049D02*
X3770878Y1897700D01*
X3420753Y1915749D02*
X3756824D01*
X3327702Y1822698D02*
X3420753Y1915749D01*
X3778775Y1937700D02*
X3855146D01*
X3756824Y1915749D02*
X3778775Y1937700D01*
X3336950Y1938449D02*
X3747422D01*
X3327702Y1947697D02*
X3336950Y1938449D01*
X3786672Y1977700D02*
X3855146D01*
X3747422Y1938449D02*
X3786672Y1977700D01*
X3478887Y1983849D02*
X3728616D01*
X3409369Y2053367D02*
X3478887Y1983849D01*
X3409369Y2053367D02*
Y2116031D01*
X3327700Y2197699D02*
X3409369Y2116031D01*
X3853893Y2056447D02*
X3855146Y2057700D01*
X3801214Y2056447D02*
X3853893D01*
X3728616Y1983849D02*
X3801214Y2056447D01*
X2862702Y1947698D02*
Y2105290D01*
X2872413Y2115000D01*
X3017587Y1565002D02*
X3032699Y1580114D01*
Y1722298D01*
X3029999Y1724999D02*
X3032699Y1722298D01*
X3815956Y2498952D02*
X3817209Y2497699D01*
X3793855Y2505394D02*
X3800298Y2498952D01*
X3785115Y2505394D02*
X3793855D01*
X3800298Y2498952D02*
X3815956D01*
X5576200Y3824581D02*
Y3869792D01*
X5569850Y3876143D02*
Y3915532D01*
X5567689Y3917693D02*
X5569850Y3915532D01*
X5562090Y3760070D02*
Y3810471D01*
X5576200Y3824581D01*
X5507702Y3755680D02*
Y3824064D01*
X5557700Y3755680D02*
X5562090Y3760070D01*
X5569850Y3876143D02*
X5576200Y3869792D01*
X5507702Y3824064D02*
X5521950Y3838312D01*
Y3847052D01*
X5305050Y3917700D02*
X5305600Y3917150D01*
X5307703Y3755680D02*
X5311950Y3759927D01*
X4588960Y2007833D02*
X4597700D01*
X4550812Y2138952D02*
X4658886Y2247026D01*
X4671348Y2004761D02*
Y2068054D01*
X4579093Y2017700D02*
X4588960Y2007833D01*
X4501508Y2138952D02*
X4550812D01*
X4500255Y2017700D02*
X4579093D01*
X4500255Y2137700D02*
X4501508Y2138952D01*
X4500255Y2097700D02*
X4577540D01*
X4500255Y2177699D02*
X4501508Y2178952D01*
X4550812D01*
X4237700Y2560249D02*
Y2692934D01*
X4144176Y2651058D02*
X4157700Y2637534D01*
X4144176Y2651058D02*
Y2659799D01*
X4157700Y2560249D02*
Y2637534D01*
X4237700Y2692934D02*
X4241550Y2696785D01*
X4076448Y2561502D02*
X4077701Y2560249D01*
X4116448Y2561502D02*
Y2602232D01*
Y2561502D02*
X4117700Y2560249D01*
X4113674Y2605005D02*
X4116448Y2602232D01*
X4113674Y2605005D02*
Y2613579D01*
X4072300Y2654954D02*
Y2757700D01*
X4018050Y2677101D02*
X4076448Y2618703D01*
X3995350Y2667698D02*
X4037701Y2625348D01*
X3967700Y2663246D02*
X3997701Y2633245D01*
X4018050Y2780171D02*
X4065579Y2827700D01*
X4018050Y2677101D02*
Y2780171D01*
X4076448Y2561502D02*
Y2618703D01*
X3957701Y2560249D02*
Y2641143D01*
X4072300Y2654954D02*
X4113674Y2613579D01*
X4037701Y2560249D02*
Y2625348D01*
X3997701Y2560249D02*
Y2633245D01*
X3933275Y2665568D02*
X3957701Y2641143D01*
X3933275Y2665568D02*
Y2669622D01*
X3860200Y2742698D02*
X3933275Y2669622D01*
X3860200Y2742698D02*
Y2752698D01*
X3850201Y3137701D02*
X3860200Y3127702D01*
Y2962700D02*
Y3127702D01*
X3995350Y3005350D02*
X4107700Y3117700D01*
X3967700Y3087700D02*
X4107700Y3227700D01*
X3967700Y2663246D02*
Y3087700D01*
X4065579Y2827700D02*
Y2965579D01*
X4107700Y3007700D01*
X3767739Y1696448D02*
X3853893D01*
X3757694Y2137698D02*
X3855144D01*
X3794078Y2217699D02*
X3855146D01*
X3757693Y2137696D02*
X3757694Y2137698D01*
X3855144D02*
X3855146Y2137700D01*
Y2457699D02*
Y2497699D01*
X3817209D02*
X3855146D01*
Y2217699D02*
Y2257699D01*
X3767700Y2244077D02*
X3794078Y2217699D01*
X3767700Y2244077D02*
Y2251496D01*
X4437700Y1478488D02*
Y1515146D01*
X4500255Y1737700D02*
X4588793D01*
X4500255Y1617701D02*
X4501508Y1616448D01*
X4500255Y1657701D02*
X4561178D01*
X4500255Y1697700D02*
X4500255Y1697700D01*
X4677700D01*
X3853893Y1656448D02*
X3855146Y1657701D01*
X3853893Y1696448D02*
X3855146Y1697700D01*
X4588793Y1737700D02*
X4603043Y1751951D01*
X7847657Y620201D02*
X8122914D01*
X8187912Y685200D01*
X8362567Y720199D02*
X8452698D01*
X8327568Y685200D02*
X8362567Y720199D01*
X8257740Y685200D02*
X8327568D01*
X8187912D02*
X8257740D01*
X8122913Y2695198D02*
X8187917Y2760201D01*
X7847657Y2695198D02*
X8122913D01*
X8327567Y2760201D02*
X8362567Y2795201D01*
X8187917Y2760201D02*
X8257740D01*
X8327567D01*
X8362567Y2795201D02*
X8452697D01*
X6917913Y2630200D02*
X6924898D01*
X4924224Y2216326D02*
X4966326D01*
X4875000Y2167102D02*
X4924224Y2216326D01*
X5137700Y2187700D02*
X5227700Y2277700D01*
X4927701Y2187700D02*
X5137700D01*
X4784965Y2247026D02*
X4815639Y2277700D01*
X4658886Y2247026D02*
X4784965D01*
X4815639Y2277700D02*
X4827700D01*
X4657700Y2285840D02*
X4744695D01*
X4801004Y2342150D01*
X4697700Y2135596D02*
X4706505Y2144402D01*
X3747700Y2945198D02*
X3765201Y2962700D01*
X4277700Y1937700D02*
X4500255D01*
X4177700Y2037700D02*
X4277700Y1937700D01*
X3765201Y2962700D02*
X3860200D01*
X3995350Y2667698D02*
Y3005350D01*
X4640607Y1857700D02*
X4674153Y1891247D01*
X4620171Y1953583D02*
X4671348Y2004761D01*
X4552366Y1976447D02*
X4575229Y1953583D01*
X4620171D01*
X4500255Y1977700D02*
X4501508Y1976447D01*
X4552366D01*
X4657700Y1637700D02*
X4694421D01*
X4731950Y1675229D01*
X4830948Y2189802D02*
X4892150Y2251004D01*
Y2304396D01*
X4706505Y2144402D02*
X4884402D01*
X4678383Y2189802D02*
X4830948D01*
X4697103Y2167102D02*
X4875000D01*
X4884402Y2144402D02*
X4927701Y2187700D01*
X4966326Y2216326D02*
X5027700Y2277700D01*
X4801004Y2342150D02*
X4854396D01*
X4892150Y2304396D01*
X4500255Y1857700D02*
X4640607D01*
X4570846Y2057700D02*
X4575229Y2062084D01*
X4697700Y2094406D02*
Y2135596D01*
X4675000Y2144999D02*
X4697103Y2167102D01*
X4602070Y2122229D02*
X4612461D01*
X4616991Y2128410D02*
X4678383Y2189802D01*
X4616991Y2117700D02*
Y2128410D01*
X4612461Y2122229D02*
X4616991Y2117700D01*
X4577540Y2097700D02*
X4602070Y2122229D01*
X4627385Y2062084D02*
X4675000Y2109698D01*
X4671348Y2068054D02*
X4697700Y2094406D01*
X4675000Y2109698D02*
Y2144999D01*
X4575229Y2062084D02*
X4627385D01*
X4550812Y2178952D02*
X4657700Y2285840D01*
X4500255Y2057700D02*
X4570846D01*
X4385476Y2637329D02*
Y2690171D01*
X4358953Y2610806D02*
X4385476Y2637329D01*
X4397700Y2560249D02*
X4398953Y2561502D01*
Y2610806D02*
X4435846Y2647700D01*
X4477700D01*
X4234111Y2857700D02*
Y2894110D01*
X4398953Y2561502D02*
Y2610806D01*
X4234111Y2857700D02*
X4241550Y2850260D01*
Y2696785D02*
Y2850260D01*
X4282758D02*
X4317700Y2885201D01*
X4241550Y2850260D02*
X4282758D01*
X4234111Y2894110D02*
X4237700Y2897700D01*
X4357700Y2560249D02*
X4358953Y2561502D01*
X4331226Y2651060D02*
Y2659800D01*
X4317700Y2560249D02*
Y2637534D01*
X4331226Y2651060D01*
X4358953Y2561502D02*
Y2610806D01*
X4440724Y2563273D02*
Y2563450D01*
X4499959D01*
X4529959Y2593450D02*
X4532400D01*
X4437700Y2560249D02*
X4440724Y2563273D01*
X4499959Y2563450D02*
X4529959Y2593450D01*
X7266531Y1625201D02*
X7280501D01*
X5612092Y3787188D02*
Y3810601D01*
X5607702Y3782798D02*
X5612092Y3787188D01*
X5607702Y3755680D02*
Y3782798D01*
X5705438Y3557697D02*
X5705680D01*
X5699330Y3563805D02*
X5705438Y3557697D01*
X5699330Y3563805D02*
Y3582698D01*
D71*
X9481520Y3740000D02*
D03*
X8750000D02*
D03*
D72*
X3754000Y510000D02*
D03*
X2166000Y756000D02*
D03*
X4840000Y4500000D02*
D03*
X1072000Y4480000D02*
D03*
X4644000Y260000D02*
D03*
X4640000Y550000D02*
D03*
D73*
X2992000Y256000D02*
D03*
X3754000D02*
D03*
X3500000Y510000D02*
D03*
Y256000D02*
D03*
X3246000Y510000D02*
D03*
Y256000D02*
D03*
X2992000Y510000D02*
D03*
X2420000Y756000D02*
D03*
Y1010000D02*
D03*
X2674000Y756000D02*
D03*
Y1010000D02*
D03*
X2166000D02*
D03*
X1326000Y4480000D02*
D03*
X1580000D02*
D03*
X4390000Y260000D02*
D03*
X4136000D02*
D03*
X5094000Y4500000D02*
D03*
X4386000Y550000D02*
D03*
D74*
X2200000Y300000D02*
D03*
X1950000D02*
D03*
X1700000D02*
D03*
X1450000D02*
D03*
X2450000D02*
D03*
X4410000Y4490000D02*
D03*
X4160000D02*
D03*
X3910000D02*
D03*
X3660000D02*
D03*
X2960000D02*
D03*
X2710000D02*
D03*
X2460000D02*
D03*
X2210000D02*
D03*
X610000Y3730000D02*
D03*
Y3479998D02*
D03*
Y3230001D02*
D03*
D75*
X1200000Y300000D02*
D03*
X3410000Y4490000D02*
D03*
X1960000D02*
D03*
D76*
X9490000Y1750000D02*
D03*
Y1200000D02*
D03*
Y2300000D02*
D03*
X8960000Y1665000D02*
D03*
Y2385000D02*
D03*
D77*
X610000Y3980002D02*
D03*
D78*
X395002Y1337500D02*
D03*
Y922500D02*
D03*
D79*
X1080000Y2330000D02*
D03*
X1089766Y1620235D02*
D03*
X1070000Y1800000D02*
D03*
X1100000Y1960000D02*
D03*
X1090000Y2100000D02*
D03*
X8870000Y2795000D02*
D03*
X9870000Y2295000D02*
D03*
X9745000Y545000D02*
D03*
X8995000Y4545000D02*
D03*
X7870000Y3295000D02*
D03*
X8620000D02*
D03*
X7245000Y3545000D02*
D03*
X8745000Y4545000D02*
D03*
X7245000Y3045000D02*
D03*
X7120000Y4295000D02*
D03*
X9495000Y545000D02*
D03*
X8620000Y295000D02*
D03*
X6995000Y3045000D02*
D03*
X6870000Y3795000D02*
D03*
X8120000Y3295000D02*
D03*
X6370000Y3795000D02*
D03*
X6245000Y3545000D02*
D03*
X7495000D02*
D03*
X6995000D02*
D03*
X6745000Y3045000D02*
D03*
X6120000Y4295000D02*
D03*
Y3795000D02*
D03*
X5620000Y795000D02*
D03*
X8245000Y3545000D02*
D03*
X8495000Y3045000D02*
D03*
X9495000D02*
D03*
X7120000Y3795000D02*
D03*
X7620000Y3295000D02*
D03*
X8620000Y4295000D02*
D03*
X8120000D02*
D03*
X7245000Y4545000D02*
D03*
X8120000Y3795000D02*
D03*
X9870000Y1795000D02*
D03*
Y1295000D02*
D03*
X8370000Y3295000D02*
D03*
X9245000Y4545000D02*
D03*
X7495000Y4045000D02*
D03*
X9120000Y3295000D02*
D03*
X6995000Y4045000D02*
D03*
X6245000D02*
D03*
X5995000D02*
D03*
X9620000Y2795000D02*
D03*
X8745000Y3045000D02*
D03*
X9245000D02*
D03*
X8245000Y4045000D02*
D03*
X9745000Y3045000D02*
D03*
X6495000D02*
D03*
X7370000Y4295000D02*
D03*
X9120000Y2795000D02*
D03*
X5870000Y295000D02*
D03*
X6495000Y3545000D02*
D03*
X7495000Y4545000D02*
D03*
X8370000Y4295000D02*
D03*
X8870000Y3295000D02*
D03*
X8745000Y545000D02*
D03*
X7370000Y3795000D02*
D03*
X8495000Y4545000D02*
D03*
X6370000Y4295000D02*
D03*
X9370000Y295000D02*
D03*
X9120000D02*
D03*
X9620000Y3295000D02*
D03*
X9245000Y545000D02*
D03*
X8120000Y2795000D02*
D03*
X6120000Y1295000D02*
D03*
X8370000Y3795000D02*
D03*
X8995000Y545000D02*
D03*
X6245000Y4545000D02*
D03*
X9870000Y4295000D02*
D03*
X8870000Y295000D02*
D03*
X5995000Y1045000D02*
D03*
X9870000Y3295000D02*
D03*
Y2795000D02*
D03*
Y795000D02*
D03*
X9370000Y2795000D02*
D03*
X6745000Y4045000D02*
D03*
X9370000Y3295000D02*
D03*
X7245000Y4045000D02*
D03*
X6495000D02*
D03*
X6995000Y4545000D02*
D03*
X5995000D02*
D03*
X8620000Y2795000D02*
D03*
X7620000Y3795000D02*
D03*
X8995000Y3045000D02*
D03*
X8245000Y4545000D02*
D03*
X7495000Y3045000D02*
D03*
X7745000Y4045000D02*
D03*
X9707516Y3515007D02*
D03*
X9782516D02*
D03*
Y3590007D02*
D03*
Y4040008D02*
D03*
Y3965008D02*
D03*
Y3890007D02*
D03*
Y3815007D02*
D03*
Y3740007D02*
D03*
Y3665007D02*
D03*
Y3440007D02*
D03*
X9707516Y4040008D02*
D03*
Y3965008D02*
D03*
Y3440007D02*
D03*
X9632516Y4040008D02*
D03*
Y3440007D02*
D03*
X9557516Y4040008D02*
D03*
Y3440007D02*
D03*
X9482516Y4040008D02*
D03*
Y3440007D02*
D03*
X9407516Y4040008D02*
D03*
Y3440007D02*
D03*
X9332515Y4040008D02*
D03*
Y3440007D02*
D03*
X9257515Y4040008D02*
D03*
Y3965008D02*
D03*
Y3515007D02*
D03*
Y3440007D02*
D03*
X9182515Y4040008D02*
D03*
Y3965008D02*
D03*
Y3890007D02*
D03*
Y3815007D02*
D03*
Y3740007D02*
D03*
Y3665007D02*
D03*
Y3590007D02*
D03*
Y3515007D02*
D03*
Y3440007D02*
D03*
X7125003Y2365001D02*
D03*
Y2255001D02*
D03*
Y1595001D02*
D03*
Y1485001D02*
D03*
Y825001D02*
D03*
Y715001D02*
D03*
X7015003Y2365001D02*
D03*
Y2255001D02*
D03*
Y1595001D02*
D03*
Y1485001D02*
D03*
Y825001D02*
D03*
Y715001D02*
D03*
X6905003Y2365001D02*
D03*
Y2255001D02*
D03*
Y1595001D02*
D03*
Y1485001D02*
D03*
Y825001D02*
D03*
Y715001D02*
D03*
X6795003Y2365001D02*
D03*
Y2255001D02*
D03*
Y1595001D02*
D03*
Y1485001D02*
D03*
Y825001D02*
D03*
Y715001D02*
D03*
X6685003Y2365001D02*
D03*
Y2255001D02*
D03*
Y1595001D02*
D03*
Y1485001D02*
D03*
Y825001D02*
D03*
Y715001D02*
D03*
X6575003Y2365001D02*
D03*
Y2255001D02*
D03*
Y1595001D02*
D03*
Y1485001D02*
D03*
Y825001D02*
D03*
Y715001D02*
D03*
X6465003Y2365001D02*
D03*
Y2255001D02*
D03*
Y1485001D02*
D03*
Y715001D02*
D03*
X9169996Y1144999D02*
D03*
X9094997Y994999D02*
D03*
X9019996Y1144999D02*
D03*
X8944997Y994999D02*
D03*
X8869996Y1144999D02*
D03*
X8794997Y994999D02*
D03*
X8719997Y1144999D02*
D03*
X8644997Y994999D02*
D03*
X8569997Y1144999D02*
D03*
X8494997Y994999D02*
D03*
X8419997Y1144999D02*
D03*
X8344997Y994999D02*
D03*
X8269997Y1144999D02*
D03*
X8194997Y994999D02*
D03*
X7929997Y1154999D02*
D03*
X7854997Y1004999D02*
D03*
X7779997Y1154999D02*
D03*
X7704997Y1004999D02*
D03*
X7629997Y1154999D02*
D03*
X7554997Y1004999D02*
D03*
X7629997Y854999D02*
D03*
X7479997Y1154999D02*
D03*
X7404997Y1004999D02*
D03*
X7479997Y854999D02*
D03*
X7404997Y704999D02*
D03*
X7329997Y1154999D02*
D03*
X7254997Y1004999D02*
D03*
X7179997Y1154999D02*
D03*
X8569997Y1894999D02*
D03*
X8494997Y1744999D02*
D03*
X8569997Y1594999D02*
D03*
X8494997Y1444999D02*
D03*
X8419997Y1894999D02*
D03*
X8344997Y1744999D02*
D03*
X8419997Y1594999D02*
D03*
X8344997Y1444999D02*
D03*
X8269997Y1894999D02*
D03*
X8194997Y1744999D02*
D03*
X8269997Y1594999D02*
D03*
X8194997Y1444999D02*
D03*
X8119997Y1894999D02*
D03*
X8044997Y1744999D02*
D03*
X8119997Y1594999D02*
D03*
X8044997Y1444999D02*
D03*
X7969997Y1894999D02*
D03*
X7894997Y1744999D02*
D03*
X7969997Y1594999D02*
D03*
X7894997Y1444999D02*
D03*
X7819997Y1894999D02*
D03*
X7744997Y1744999D02*
D03*
X7819997Y1594999D02*
D03*
X7744997Y1444999D02*
D03*
X7669997Y1894999D02*
D03*
X7594997Y1744999D02*
D03*
X7669997Y1594999D02*
D03*
X7594997Y1444999D02*
D03*
X7519997Y1894999D02*
D03*
X7444997Y1744999D02*
D03*
X7519997Y1594999D02*
D03*
X7444997Y1444999D02*
D03*
X7369997Y1894999D02*
D03*
X7219997D02*
D03*
X8644997Y2494999D02*
D03*
Y2194999D02*
D03*
X8494997Y2494999D02*
D03*
X8569997Y2344999D02*
D03*
X8494997Y2194999D02*
D03*
X8344997Y2494999D02*
D03*
X8419997Y2344999D02*
D03*
X8344997Y2194999D02*
D03*
X8194997Y2494999D02*
D03*
X8269997Y2344999D02*
D03*
X8194997Y2194999D02*
D03*
X7894997Y2494999D02*
D03*
Y2194999D02*
D03*
X7744997Y2494999D02*
D03*
X7819997Y2344999D02*
D03*
X7744997Y2194999D02*
D03*
X7594997Y2494999D02*
D03*
X7669997Y2344999D02*
D03*
X7594997Y2194999D02*
D03*
X7444997Y2794998D02*
D03*
X7519997Y2644999D02*
D03*
X7444997Y2494999D02*
D03*
X7519997Y2344999D02*
D03*
X7444997Y2194999D02*
D03*
X7294997Y2794998D02*
D03*
X7369997Y2644999D02*
D03*
Y2344999D02*
D03*
X7294997Y2194999D02*
D03*
X7144997Y2794998D02*
D03*
X7219997Y2644999D02*
D03*
X6844997Y2794998D02*
D03*
X6919997Y2044999D02*
D03*
X6844997Y1894999D02*
D03*
Y1294999D02*
D03*
X6919997Y1144999D02*
D03*
X6694997Y2794998D02*
D03*
X6769997Y2644999D02*
D03*
Y2044999D02*
D03*
X6694997Y1894999D02*
D03*
Y1294999D02*
D03*
X6769997Y1144999D02*
D03*
X6544997Y2794998D02*
D03*
X6619997Y2644999D02*
D03*
Y2044999D02*
D03*
X6544997Y1894999D02*
D03*
Y1294999D02*
D03*
X6619997Y1144999D02*
D03*
X6394997Y2794998D02*
D03*
X6469997Y2044999D02*
D03*
X6394997Y1294999D02*
D03*
X6469997Y1144999D02*
D03*
X1770000Y3970000D02*
D03*
X740000Y4130000D02*
D03*
X1230000Y2210000D02*
D03*
X1134763Y1755231D02*
D03*
X1300000Y2150000D02*
D03*
X1090000Y2200000D02*
D03*
X1010000Y2910000D02*
D03*
X1085235Y2835235D02*
D03*
X860235Y3060235D02*
D03*
X935235Y2985235D02*
D03*
X925000Y2825000D02*
D03*
X850000Y2900000D02*
D03*
X1680000Y1990000D02*
D03*
X1450000Y4160000D02*
D03*
X1910000Y3640000D02*
D03*
X1150000Y3050000D02*
D03*
X1075000Y2975000D02*
D03*
X1269999Y2865000D02*
D03*
X1150000Y2900000D02*
D03*
X1225000Y2975000D02*
D03*
X1000000Y3050000D02*
D03*
X1680000Y3590000D02*
D03*
X3595352Y2373051D02*
D03*
X4325003Y2375002D02*
D03*
Y2275002D02*
D03*
Y2175002D02*
D03*
Y2075002D02*
D03*
Y1975002D02*
D03*
Y1875002D02*
D03*
Y1775002D02*
D03*
Y1675002D02*
D03*
X4225003Y2375002D02*
D03*
Y2275002D02*
D03*
Y2175002D02*
D03*
Y2075002D02*
D03*
Y1975002D02*
D03*
Y1875002D02*
D03*
Y1775002D02*
D03*
Y1675002D02*
D03*
X4125003Y2375002D02*
D03*
Y2275002D02*
D03*
Y2175002D02*
D03*
Y2075002D02*
D03*
Y1975002D02*
D03*
Y1875002D02*
D03*
Y1775002D02*
D03*
Y1675002D02*
D03*
X4025003Y2375002D02*
D03*
Y2275002D02*
D03*
Y2175002D02*
D03*
Y2075002D02*
D03*
Y1975002D02*
D03*
Y1875002D02*
D03*
Y1775002D02*
D03*
Y1675002D02*
D03*
X5465004Y3505003D02*
D03*
Y3405003D02*
D03*
Y3305003D02*
D03*
X5365004Y3505003D02*
D03*
Y3405003D02*
D03*
Y3305003D02*
D03*
X5265004Y3505003D02*
D03*
Y3405003D02*
D03*
Y3305003D02*
D03*
X5614985Y1294994D02*
D03*
Y1174994D02*
D03*
X5554985Y1294994D02*
D03*
X5584985Y1234994D02*
D03*
X5554985Y1174994D02*
D03*
X5584985Y1114994D02*
D03*
X5494985Y1294994D02*
D03*
X5524985Y1234994D02*
D03*
X5494985Y1174994D02*
D03*
X5524985Y1114994D02*
D03*
X5434985Y1294994D02*
D03*
X5464985Y1234994D02*
D03*
X5434985Y1174994D02*
D03*
X5464985Y1114994D02*
D03*
X7834980Y4534987D02*
D03*
X7864980Y4474987D02*
D03*
X7834980Y4414988D02*
D03*
X7864980Y4354988D02*
D03*
X7774980Y4534987D02*
D03*
X7804980Y4474987D02*
D03*
X7774980Y4414988D02*
D03*
X7804980Y4354988D02*
D03*
X7714981Y4534987D02*
D03*
X7744980Y4474987D02*
D03*
X7714981Y4414988D02*
D03*
X7744980Y4354988D02*
D03*
X6754982Y4534987D02*
D03*
Y4414988D02*
D03*
X6694983Y4534987D02*
D03*
X6724982Y4474987D02*
D03*
X6694983Y4414988D02*
D03*
X6724982Y4354988D02*
D03*
X6634983Y4534987D02*
D03*
X6664983Y4474987D02*
D03*
X6634983Y4414988D02*
D03*
X6664983Y4354988D02*
D03*
X4989484Y1330503D02*
D03*
X5770000Y1570000D02*
D03*
X5630000Y1590000D02*
D03*
X5290000Y1660000D02*
D03*
X5180000Y1630000D02*
D03*
X5460000Y2780000D02*
D03*
X5550000Y2870000D02*
D03*
X5250000Y2700000D02*
D03*
X4641906Y3174122D02*
D03*
X3900000Y320000D02*
D03*
X3580000Y990000D02*
D03*
X1170000Y1180000D02*
D03*
X2070000Y2250000D02*
D03*
X6200000Y470000D02*
D03*
X7650000Y400000D02*
D03*
X2960000Y2570000D02*
D03*
X3272700Y2512700D02*
D03*
X3470000Y2401051D02*
D03*
X5630451Y3837700D02*
D03*
X5799988Y3249994D02*
D03*
X5730000Y3750000D02*
D03*
X5774486Y3578950D02*
D03*
X5048687Y3871313D02*
D03*
X5147700Y3862350D02*
D03*
X4906950Y3640000D02*
D03*
X5410350Y3837700D02*
D03*
X5257700D02*
D03*
X5207700Y3917700D02*
D03*
X5200000Y970000D02*
D03*
X4977700Y1043450D02*
D03*
X5760000Y900000D02*
D03*
X6100000Y2190000D02*
D03*
X7950000Y3090000D02*
D03*
X4390000Y1310000D02*
D03*
X4380000Y1380000D02*
D03*
X4420000Y1080000D02*
D03*
X2940000Y913300D02*
D03*
X2900000Y1120000D02*
D03*
X5260000Y1820000D02*
D03*
X4890000Y2520000D02*
D03*
X5360000Y2030000D02*
D03*
Y2120000D02*
D03*
X5000000Y1930000D02*
D03*
X3890000Y1390000D02*
D03*
X3830000D02*
D03*
X3760000D02*
D03*
X3660000Y1660000D02*
D03*
X4370000Y3460000D02*
D03*
X4300000Y3690000D02*
D03*
X3670000Y3190000D02*
D03*
X3040000Y1420000D02*
D03*
X2540000Y1670000D02*
D03*
X2572700Y1737700D02*
D03*
X2900000Y2490000D02*
D03*
X7947961Y685200D02*
D03*
X2500405Y3690613D02*
D03*
X2040000Y4010000D02*
D03*
X2340000D02*
D03*
X2640000D02*
D03*
X3530000D02*
D03*
X3830000D02*
D03*
X4130000D02*
D03*
X1020000Y1480000D02*
D03*
X900000Y1230000D02*
D03*
X1730000Y1060000D02*
D03*
X4490000Y870000D02*
D03*
X4670000Y1460000D02*
D03*
X4580000D02*
D03*
X5000000Y2090000D02*
D03*
X2940000Y710000D02*
D03*
X3440000Y940000D02*
D03*
X5360000Y4000000D02*
D03*
X3240000Y3360000D02*
D03*
X3350000D02*
D03*
X3450000Y3480000D02*
D03*
X3459670Y3747969D02*
D03*
X3389407Y3566230D02*
D03*
X3120000Y4130000D02*
D03*
X3000000Y4100000D02*
D03*
X2690000Y3860000D02*
D03*
X2380000D02*
D03*
X2060000D02*
D03*
X3270000Y4150000D02*
D03*
X3699993Y3439994D02*
D03*
X3930000Y3490000D02*
D03*
X4249991Y3389800D02*
D03*
X3579993Y3859993D02*
D03*
X3879992D02*
D03*
X4400000Y3380000D02*
D03*
X4463370Y3252901D02*
D03*
X4530000Y3360000D02*
D03*
X4780000Y3585598D02*
D03*
X4760000Y3830000D02*
D03*
X5140000Y4020000D02*
D03*
X5030000Y4050000D02*
D03*
X4775080Y1500320D02*
D03*
X4762300Y1638341D02*
D03*
X4677700Y1697700D02*
D03*
X4727700Y1834347D02*
D03*
X3480000Y2670000D02*
D03*
X3370000Y2750000D02*
D03*
X3600000Y2730000D02*
D03*
X3340000Y3030000D02*
D03*
X3210000Y2720000D02*
D03*
X1300000Y1680000D02*
D03*
X1290000Y1500000D02*
D03*
X1390000Y1290000D02*
D03*
X1690000Y1641900D02*
D03*
X2600000Y2480000D02*
D03*
X2560601Y2538342D02*
D03*
X3810000Y2620000D02*
D03*
X4320000Y2794801D02*
D03*
X4427700Y2737700D02*
D03*
X5020000Y1590000D02*
D03*
X5010000Y1440000D02*
D03*
X5950000Y1850000D02*
D03*
X4477700Y1467700D02*
D03*
X4592300Y1612101D02*
D03*
X5810000Y2190000D02*
D03*
X6060000Y3220000D02*
D03*
X8050000Y2940000D02*
D03*
X7760000Y2900000D02*
D03*
X8560000Y2750000D02*
D03*
X8310000Y3070000D02*
D03*
X8440000Y450000D02*
D03*
X6860000Y210000D02*
D03*
X8450000Y2920000D02*
D03*
X7670000Y630000D02*
D03*
X8110000Y2630000D02*
D03*
X8000000D02*
D03*
X8110000Y2300000D02*
D03*
X8000000D02*
D03*
X8010000Y560000D02*
D03*
X8120000Y1100000D02*
D03*
X8010000D02*
D03*
X8120000Y560000D02*
D03*
X7940000Y290000D02*
D03*
X2550000Y2900000D02*
D03*
X2390000Y2280000D02*
D03*
X2610000Y2990000D02*
D03*
X2380000Y1970000D02*
D03*
X3180000Y3110000D02*
D03*
X3220000Y2600000D02*
D03*
X2600000Y2070000D02*
D03*
X4236301Y1370000D02*
D03*
X3992248Y1410000D02*
D03*
X1680000Y2150000D02*
D03*
X2280000Y2360000D02*
D03*
X3740000Y2450751D02*
D03*
X1680000Y2070000D02*
D03*
Y1910000D02*
D03*
Y1830000D02*
D03*
X3260000Y910000D02*
D03*
X3330000Y990000D02*
D03*
X2190000Y1510000D02*
D03*
X4111400Y1190131D02*
D03*
X4214362Y1290000D02*
D03*
X4236301Y1210000D02*
D03*
X2720000Y2920000D02*
D03*
X2907499Y2917499D02*
D03*
X2810000Y2920000D02*
D03*
X3651324Y2326910D02*
D03*
X3785115Y2505394D02*
D03*
X3692499Y2065001D02*
D03*
X3716241Y2299673D02*
D03*
X3764660Y1694665D02*
D03*
X3020000Y2215000D02*
D03*
X3757693Y2137696D02*
D03*
X5457700Y3917700D02*
D03*
X5305050D02*
D03*
X4987700Y757700D02*
D03*
X2047700Y1462700D02*
D03*
X4674153Y1891247D02*
D03*
X4616991Y2128410D02*
D03*
X4532400Y2593450D02*
D03*
X4597700Y2007833D02*
D03*
X5567689Y3917693D02*
D03*
X4477700Y2647700D02*
D03*
X4331226Y2659800D02*
D03*
X3767700Y2251496D02*
D03*
X4144176Y2659799D02*
D03*
X4072300Y2757700D02*
D03*
X4187300Y2757700D02*
D03*
X5521950Y3847052D02*
D03*
X4237700Y2897700D02*
D03*
D80*
X5680000Y4330000D02*
D03*
X5590000D02*
D03*
D81*
X9700000Y300000D02*
D03*
Y4500000D02*
D03*
X300000D02*
D03*
Y300000D02*
D03*
%TF.MD5,bb00e8f42ef312a7ab3bddeded1dfa8b*%
M02*
