%TF.GenerationSoftware,Altium Limited,Altium Designer,23.3.1 (30)*%
G04 Layer_Color=65535*
%FSLAX45Y45*%
%MOMM*%
%TF.SameCoordinates,CD13F5F2-8DFB-4D4D-A102-87722C93DE69*%
%TF.FilePolarity,Positive*%
%TF.FileFunction,Legend,Top*%
%TF.Part,Single*%
G01*
G75*
%TA.AperFunction,NonConductor*%
%ADD93C,0.25400*%
%ADD95C,0.25000*%
%ADD96C,0.20000*%
%ADD97C,0.60000*%
%ADD98C,0.40000*%
%ADD99C,0.15240*%
%ADD100C,0.07620*%
G36*
X4941140Y3288648D02*
X4915740D01*
Y3326748D01*
X4941140D01*
Y3288648D01*
D02*
G37*
G36*
X5188651Y3824258D02*
X5226751D01*
Y3849658D01*
X5188651D01*
Y3824258D01*
D02*
G37*
G36*
X5388650Y2991138D02*
X5426750D01*
Y2965738D01*
X5388650D01*
Y2991138D01*
D02*
G37*
G36*
X5774260Y3588648D02*
X5799660D01*
Y3626748D01*
X5774260D01*
Y3588648D01*
D02*
G37*
D93*
X9480000Y730000D02*
G03*
X9950000Y1190000I5000J465000D01*
G01*
X9030000Y1200000D02*
G03*
X9490000Y730000I465000J-5000D01*
G01*
X9480000Y2770000D02*
G03*
X9369528Y2757908I-5000J-465000D01*
G01*
X9950000Y2300000D02*
G03*
X9490000Y2770000I-465000J5000D01*
G01*
X9365000Y2755000D02*
Y2810000D01*
X8555000Y1240000D02*
X9030000D01*
Y1200000D02*
Y1240000D01*
X8555000D02*
Y2810000D01*
X9365000D01*
X9950000Y1190000D02*
Y2300000D01*
D95*
X3184999Y3335000D02*
G03*
X3184999Y3335000I-12500J0D01*
G01*
X489500Y2680000D02*
G03*
X489500Y2680000I-12500J0D01*
G01*
X482500Y2360000D02*
G03*
X482500Y2360000I-12500J0D01*
G01*
X489500Y2520000D02*
G03*
X489500Y2520000I-12500J0D01*
G01*
X482500Y2200000D02*
G03*
X482500Y2200000I-12500J0D01*
G01*
X1137500Y3635000D02*
G03*
X1137500Y3635000I-12500J0D01*
G01*
X3142500Y3509751D02*
G03*
X3142500Y3509751I-12500J0D01*
G01*
X3609952Y3647700D02*
G03*
X3609952Y3647700I-12500J0D01*
G01*
X5542500Y87500D02*
G03*
X5542500Y87500I-12500J0D01*
G01*
X7792500Y3287500D02*
G03*
X7792500Y3287500I-12500J0D01*
G01*
X6692500D02*
G03*
X6692500Y3287500I-12500J0D01*
G01*
X1735200Y1207700D02*
G03*
X1735200Y1207700I-12500J0D01*
G01*
X3930200Y1387091D02*
G03*
X3930200Y1387091I-12500J0D01*
G01*
D96*
X813797Y833000D02*
G03*
X813797Y833000I-25400J0D01*
G01*
X990000Y50000D02*
Y490000D01*
X3082499Y3862336D02*
X3377499D01*
X990000Y50000D02*
X2660000Y50000D01*
X2600000Y550000D02*
X2660000Y490000D01*
X2314168Y629000D02*
X2801000D01*
X3082499Y3777668D02*
Y3862336D01*
X3377499Y3777668D02*
Y3862336D01*
X1260603Y2602091D02*
Y2802500D01*
X3082499Y3777668D02*
X3377499D01*
X3865367Y3695199D02*
X3950036D01*
X1050000Y550000D02*
X2600000Y550000D01*
X2660000Y50000D02*
Y490000D01*
X4713000Y4373000D02*
Y4627000D01*
Y4373000D02*
X5221000D01*
X770000Y1300000D02*
X950000D01*
X985607Y3354394D02*
Y3595607D01*
X564999Y2445000D02*
X735001D01*
X5221000Y4373000D02*
Y4627000D01*
X3110000Y4740000D02*
X3170000Y4680000D01*
X990000Y490000D02*
X1050000Y550000D01*
X4713000Y4627000D02*
X5221000D01*
X4009000Y133000D02*
Y387000D01*
X4771000D01*
X1707000Y4353000D02*
Y4607000D01*
X945000Y4353000D02*
X1707000D01*
X3260000Y4740000D02*
X4560000D01*
X3200000Y4240000D02*
X4620000D01*
X3200000D02*
Y4680000D01*
X4620000Y4240000D02*
Y4680000D01*
X4560000Y4740000D02*
X4620000Y4680000D01*
X3200000D02*
X3260000Y4740000D01*
X1810000D02*
X3110000D01*
X1750000Y4240000D02*
X3170000D01*
X1750000D02*
Y4680000D01*
X3950036Y3400198D02*
Y3695199D01*
X567501Y2597497D02*
X732499D01*
X1089392Y2602091D02*
Y2843304D01*
X567501Y2762501D02*
X732499D01*
X2865000Y129000D02*
Y637000D01*
X3881000Y129000D02*
Y637000D01*
X2039000Y629000D02*
Y1137000D01*
X2865000Y637000D02*
X3881000D01*
X2801000Y629000D02*
Y1137000D01*
X2865000Y129000D02*
X3881000D01*
X2039000Y1137000D02*
X2801000D01*
X2039000Y629000D02*
X2801000D01*
X6129791Y1090805D02*
X6375612D01*
X6129787Y739594D02*
X6375614D01*
X3137499Y2895000D02*
Y3194999D01*
X2477500D02*
X3137499D01*
X2477500Y2895000D02*
X3137499D01*
X6129787Y915804D02*
X6375614D01*
X1750000Y4680000D02*
X1810000Y4740000D01*
X4009000Y133000D02*
X4771000D01*
X965002Y3047503D02*
Y3092502D01*
X4450198Y3577701D02*
Y3637701D01*
X4585199Y3577701D02*
Y3637701D01*
X8790001Y4200498D02*
X9250000D01*
X6129791Y914595D02*
X6375612D01*
X724900Y1302903D02*
X1055100D01*
X8790001Y4479501D02*
X9250000D01*
X4845199Y3577701D02*
Y3637701D01*
X4259000Y423000D02*
X4767000D01*
Y677000D01*
X-169998Y3019999D02*
X-10004D01*
X724900Y871103D02*
Y1302903D01*
X10004Y3019999D02*
X580003D01*
X4771000Y133000D02*
Y387000D01*
X275002Y1499999D02*
X435002D01*
X4259000Y423000D02*
Y677000D01*
X4767000D01*
X564999Y2274997D02*
X735001D01*
X770000Y1460000D02*
X950000D01*
X784998Y3047503D02*
Y3092502D01*
X814395Y3354394D02*
Y3595607D01*
X875000Y2780001D02*
Y2830003D01*
X4710198Y3577701D02*
Y3637701D01*
X-169998Y3019999D02*
Y4189999D01*
X10004D02*
X610000D01*
X-169998D02*
X-10004D01*
X2252502Y3365000D02*
X2269998D01*
X724900Y871103D02*
X1055100D01*
X850001Y2804999D02*
X899999D01*
X435002Y760001D02*
Y869998D01*
X1055100Y871103D02*
Y1302903D01*
X435002Y1390002D02*
Y1499999D01*
X2477500Y2895000D02*
Y3194999D01*
X275002Y760001D02*
X435002D01*
X1900001Y2745002D02*
Y3365000D01*
X2252502Y2745002D02*
X2269998D01*
X1900001Y3365000D02*
X1917502D01*
X2269998Y2745002D02*
Y3365000D01*
X3170000Y4240000D02*
Y4680000D01*
X567501Y2437498D02*
X732499D01*
X1265002Y2964999D02*
X1585002D01*
X1379592Y882087D02*
X1620409D01*
X1170000Y4225001D02*
X1480002D01*
X1170000Y3725002D02*
X1480002D01*
X1379592Y1197908D02*
X1620409D01*
X1972204Y3724788D02*
X2218025D01*
X4690199Y3242699D02*
X4865200D01*
X2597375Y3724788D02*
X2843196D01*
X4119665Y3882999D02*
X4294666D01*
X6144791Y1544591D02*
X6390613D01*
X1900001Y2745002D02*
X1917502D01*
X3032500Y1477087D02*
X3067910D01*
X2822090Y2202910D02*
X3067911D01*
X564999Y2115000D02*
X735001D01*
X567501Y2602501D02*
X732499D01*
X564999Y2285002D02*
X735001D01*
X2814394Y1179392D02*
X3055608D01*
X1585002Y2964999D02*
Y3635000D01*
X1265002D02*
X1585002D01*
X1265002Y2964999D02*
Y3635000D01*
X1724394Y1200608D02*
X1965607D01*
X1724394Y1029392D02*
X1965607D01*
X3677700Y3057701D02*
X3857699D01*
X6964788Y500610D02*
X7250609D01*
X6964788Y314789D02*
X7250609D01*
X2284790Y3724788D02*
X2530611D01*
X3642699Y3065199D02*
X3912701D01*
X4689665Y3413001D02*
X4864666D01*
X6129791Y2690806D02*
X6375613D01*
X6144791Y1720806D02*
X6390613D01*
X4710199Y3017701D02*
Y3077701D01*
X2307090Y2752088D02*
Y2997909D01*
X2482913Y2865370D02*
Y2997909D01*
X3677700Y3217700D02*
X3857699D01*
X2297090Y3112088D02*
Y3357909D01*
X3127499Y1675001D02*
Y1995001D01*
X2472909Y3112088D02*
Y3246619D01*
X4845200Y3017701D02*
Y3077701D01*
X945000Y4353000D02*
Y4607000D01*
X6792906Y2507809D02*
Y2547590D01*
X6129702Y2339592D02*
X6375523D01*
X6512495Y2507809D02*
Y2547590D01*
X945000Y4607000D02*
X1707000D01*
X3819665Y3882999D02*
X3994666D01*
X5812094Y2767095D02*
Y3008308D01*
X6144790Y1719591D02*
X6390611D01*
X4120199Y3712702D02*
X4295199D01*
X6144790Y1895806D02*
X6390611D01*
X6512492Y907806D02*
Y947593D01*
X3865367Y3400198D02*
X3950036D01*
X5983305Y2767095D02*
Y3008308D01*
X6129702Y2515807D02*
X6375523D01*
X6512490Y1707808D02*
Y1747595D01*
X6792906Y1707808D02*
Y1747595D01*
X3820198Y3712702D02*
X3995199D01*
X5347092Y2753308D02*
X5588306D01*
X3519664Y3882998D02*
X3694665D01*
X8120036Y2577697D02*
Y2877697D01*
X7985365D02*
X8120036D01*
X4967094Y2742092D02*
X5208308D01*
X7985366Y802700D02*
X8120036D01*
X7985366Y502701D02*
Y802700D01*
X5824396Y3700608D02*
X6075607D01*
X1310605Y1594391D02*
Y1835605D01*
X3032500Y1350609D02*
X3055608D01*
X1139393Y1594391D02*
Y1835605D01*
X3312097Y2409812D02*
Y2651025D01*
X4967094Y2913308D02*
X5208308D01*
X8120036Y502701D02*
Y802700D01*
X6792908Y907806D02*
Y947593D01*
X3865367Y3400198D02*
Y3695199D01*
X3742701Y2650198D02*
X3912701D01*
X3520197Y3712701D02*
X3695198D01*
X7985365Y2577697D02*
X8120036D01*
X5347092Y2582092D02*
X5588306D01*
X5821677Y3359393D02*
X6072888D01*
X7985366Y502701D02*
X8120036D01*
X7985365Y2577697D02*
Y2877697D01*
X6129791Y2514591D02*
X6375613D01*
X5680000Y1300000D02*
X5940000D01*
X5120000D02*
X5380000D01*
X5940000D02*
X6040000Y1200000D01*
X5020000D02*
X5120000Y1300000D01*
X5020000Y280000D02*
Y1200000D01*
X6040000Y280000D02*
Y1200000D01*
X5020000Y280000D02*
X5392500D01*
X5667500D02*
X6040000D01*
X7930000Y4500000D02*
X8190000D01*
X7370000D02*
X7630000D01*
X8190000D02*
X8290000Y4400000D01*
X7270000D02*
X7370000Y4500000D01*
X7270000Y3480000D02*
Y4400000D01*
X8290000Y3480000D02*
Y4400000D01*
X7270000Y3480000D02*
X7642500D01*
X7917500D02*
X8290000D01*
X6830000Y4500000D02*
X7090000D01*
X6270000D02*
X6530000D01*
X7090000D02*
X7190000Y4400000D01*
X6170000D02*
X6270000Y4500000D01*
X6170000Y3480000D02*
Y4400000D01*
X7190000Y3480000D02*
Y4400000D01*
X6170000Y3480000D02*
X6542500D01*
X6817500D02*
X7190000D01*
X1617699Y1407699D02*
X1657699D01*
X2587700D02*
X2627700D01*
Y2377700D02*
Y2417700D01*
Y1407699D02*
Y1447699D01*
X1617699Y2417700D02*
X1657699D01*
X2587700D02*
X2627700D01*
X1617699Y2377700D02*
Y2417700D01*
Y1407699D02*
Y1447699D01*
X3852697Y1512697D02*
X3877701D01*
X3852697D02*
Y1537696D01*
X4477700Y1512697D02*
X4502698D01*
Y1537696D01*
X3852697Y2562697D02*
X3877701D01*
X3852697Y2537699D02*
Y2562697D01*
X4477700D02*
X4502698D01*
Y2537699D02*
Y2562697D01*
X8005444Y1278010D02*
X8125083D01*
X8005444Y927389D02*
X8125083D01*
X7992879Y2478007D02*
X8112518D01*
X7992879Y2127390D02*
X8112518D01*
X100103Y2360000D02*
X180078D01*
X140090Y2399987D02*
Y2320013D01*
X300039Y2419981D02*
X220065D01*
Y2360000D01*
X260052Y2379994D01*
X280045D01*
X300039Y2360000D01*
Y2320013D01*
X280045Y2300020D01*
X240058D01*
X220065Y2320013D01*
X340026Y2419981D02*
Y2340006D01*
X380013Y2300020D01*
X420000Y2340006D01*
Y2419981D01*
X330000Y1639987D02*
X349994Y1659981D01*
X389981D01*
X409974Y1639987D01*
Y1619994D01*
X389981Y1600000D01*
X369987D01*
X389981D01*
X409974Y1580006D01*
Y1560013D01*
X389981Y1540020D01*
X349994D01*
X330000Y1560013D01*
X409974Y1690019D02*
X330000D01*
X409974Y1769994D01*
Y1789987D01*
X389981Y1809981D01*
X349994D01*
X330000Y1789987D01*
X369987Y1840019D02*
X409974D01*
X389981D01*
Y1959981D01*
X369987Y1939987D01*
X330000Y2089987D02*
X349994Y2109981D01*
X389981D01*
X409974Y2089987D01*
Y2010013D01*
X389981Y1990019D01*
X349994D01*
X330000Y2010013D01*
Y2089987D01*
X100052Y2200000D02*
X180026D01*
X140039Y2239987D02*
Y2160013D01*
X220013Y2239987D02*
X240007Y2259980D01*
X279994D01*
X299987Y2239987D01*
Y2219994D01*
X279994Y2200000D01*
X260000D01*
X279994D01*
X299987Y2180006D01*
Y2160013D01*
X279994Y2140019D01*
X240007D01*
X220013Y2160013D01*
X339974Y2259980D02*
Y2180006D01*
X379961Y2140019D01*
X419948Y2180006D01*
Y2259980D01*
X180026Y2579981D02*
X100052D01*
Y2520000D01*
X140039D01*
X100052D01*
Y2460019D01*
X220013Y2579981D02*
Y2460019D01*
X299987D01*
X339974Y2579981D02*
X419948D01*
X379961D01*
Y2460019D01*
X299987Y2719987D02*
X279994Y2739981D01*
X240007D01*
X220013Y2719987D01*
Y2699994D01*
X240007Y2680000D01*
X279994D01*
X299987Y2660006D01*
Y2640013D01*
X279994Y2620019D01*
X240007D01*
X220013Y2640013D01*
X339974Y2739981D02*
X419948D01*
X379961D01*
Y2620019D01*
D97*
X3067499Y3095000D02*
G03*
X3067499Y3095000I-30000J0D01*
G01*
D98*
X485000Y1860000D02*
Y1940000D01*
Y1710000D02*
Y1790000D01*
Y2010000D02*
Y2090000D01*
Y1560000D02*
Y1640000D01*
D99*
X5653676Y3044480D02*
X5720920D01*
X5653676Y3770920D02*
X5720920D01*
X4994480Y3703671D02*
Y3770920D01*
Y3044480D02*
X5111727D01*
X5720920D02*
Y3111724D01*
Y3703671D02*
Y3770920D01*
X4994480D02*
X5061724D01*
X4994480Y3044480D02*
Y3111724D01*
X7270341Y960059D02*
Y977875D01*
X6935061Y960059D02*
X7166201D01*
X6935061Y1277523D02*
Y1295339D01*
X7155025Y960059D02*
X7270341D01*
X6935061D02*
Y977875D01*
Y1295339D02*
X7050377D01*
X7270341Y1277523D02*
Y1295339D01*
X7050377D02*
X7270341D01*
X6935058Y560058D02*
X7155022D01*
X6935058D02*
Y577874D01*
X7155022Y560058D02*
X7270338D01*
Y877523D02*
Y895338D01*
X6935058D02*
X7050374D01*
X7270338Y560058D02*
Y577874D01*
X7039198Y895338D02*
X7270338D01*
X6935058Y877523D02*
Y895338D01*
X7270341Y1760059D02*
Y1777875D01*
X6935061Y1760059D02*
X7166201D01*
X6935061Y2077523D02*
Y2095339D01*
X7155025Y1760059D02*
X7270341D01*
X6935061D02*
Y1777875D01*
Y2095339D02*
X7050377D01*
X7270341Y2077523D02*
Y2095339D01*
X7050377D02*
X7270341D01*
X6935061Y1677525D02*
Y1695341D01*
X7039201D02*
X7270341D01*
Y1360061D02*
Y1377876D01*
X6935061Y1695341D02*
X7050377D01*
X7270341Y1677525D02*
Y1695341D01*
X7155025Y1360061D02*
X7270341D01*
X6935061D02*
Y1377876D01*
Y1360061D02*
X7155025D01*
X7270338Y2560060D02*
Y2577876D01*
X6935058Y2560060D02*
X7166198D01*
X6935058Y2877525D02*
Y2895340D01*
X7155022Y2560060D02*
X7270338D01*
X6935058D02*
Y2577876D01*
Y2895340D02*
X7050374D01*
X7270338Y2877525D02*
Y2895340D01*
X7050374D02*
X7270338D01*
X6935059Y2477526D02*
Y2495341D01*
X7039199D02*
X7270339D01*
Y2160061D02*
Y2177877D01*
X6935059Y2495341D02*
X7050375D01*
X7270339Y2477526D02*
Y2495341D01*
X7155023Y2160061D02*
X7270339D01*
X6935059D02*
Y2177877D01*
Y2160061D02*
X7155023D01*
D100*
X5900000Y3084201D02*
X5815360Y3168840D01*
X5900000D02*
X5815360Y3084201D01*
X5900000Y3126521D02*
X5815360D01*
X5857680Y3168840D02*
Y3084201D01*
%TF.MD5,cca7f21645b996cf11cfc02fe15a99f3*%
M02*
