%TF.GenerationSoftware,Altium Limited,Altium Designer,23.3.1 (30)*%
G04 Layer_Color=16711935*
%FSLAX45Y45*%
%MOMM*%
%TF.SameCoordinates,CD13F5F2-8DFB-4D4D-A102-87722C93DE69*%
%TF.FilePolarity,Negative*%
%TF.FileFunction,Soldermask,Bot*%
%TF.Part,Single*%
G01*
G75*
%TA.AperFunction,ComponentPad*%
%ADD122R,7.00000X7.00000*%
%ADD123R,1.70000X1.70000*%
%ADD124C,1.70000*%
%ADD125C,1.77500*%
%ADD126R,1.77500X1.77500*%
G04:AMPARAMS|DCode=127|XSize=5.2mm|YSize=5.2mm|CornerRadius=1.35mm|HoleSize=0mm|Usage=FLASHONLY|Rotation=270.000|XOffset=0mm|YOffset=0mm|HoleType=Round|Shape=RoundedRectangle|*
%AMROUNDEDRECTD127*
21,1,5.20000,2.50000,0,0,270.0*
21,1,2.50000,5.20000,0,0,270.0*
1,1,2.70000,-1.25000,-1.25000*
1,1,2.70000,-1.25000,1.25000*
1,1,2.70000,1.25000,1.25000*
1,1,2.70000,1.25000,-1.25000*
%
%ADD127ROUNDEDRECTD127*%
%ADD128R,1.77500X1.77500*%
%ADD129C,0.70000*%
%TA.AperFunction,ViaPad*%
%ADD130C,0.65000*%
%ADD131C,4.20320*%
D122*
X9481520Y3740000D02*
D03*
X8750000D02*
D03*
D123*
X3754000Y510000D02*
D03*
X2166000Y756000D02*
D03*
X4840000Y4500000D02*
D03*
X1072000Y4480000D02*
D03*
X4644000Y260000D02*
D03*
X4640000Y550000D02*
D03*
D124*
X2992000Y256000D02*
D03*
X3754000D02*
D03*
X3500000Y510000D02*
D03*
Y256000D02*
D03*
X3246000Y510000D02*
D03*
Y256000D02*
D03*
X2992000Y510000D02*
D03*
X2420000Y756000D02*
D03*
Y1010000D02*
D03*
X2674000Y756000D02*
D03*
Y1010000D02*
D03*
X2166000D02*
D03*
X1326000Y4480000D02*
D03*
X1580000D02*
D03*
X4390000Y260000D02*
D03*
X4136000D02*
D03*
X5094000Y4500000D02*
D03*
X4386000Y550000D02*
D03*
D125*
X2200000Y300000D02*
D03*
X1950000D02*
D03*
X1700000D02*
D03*
X1450000D02*
D03*
X2450000D02*
D03*
X4410000Y4490000D02*
D03*
X4160000D02*
D03*
X3910000D02*
D03*
X3660000D02*
D03*
X2960000D02*
D03*
X2710000D02*
D03*
X2460000D02*
D03*
X2210000D02*
D03*
X610000Y3730000D02*
D03*
Y3479998D02*
D03*
Y3230001D02*
D03*
D126*
X1200000Y300000D02*
D03*
X3410000Y4490000D02*
D03*
X1960000D02*
D03*
D127*
X9490000Y1750000D02*
D03*
Y1200000D02*
D03*
Y2300000D02*
D03*
X8960000Y1665000D02*
D03*
Y2385000D02*
D03*
D128*
X610000Y3980002D02*
D03*
D129*
X395002Y1337500D02*
D03*
Y922500D02*
D03*
D130*
X9707516Y3515007D02*
D03*
X9782516D02*
D03*
Y3590007D02*
D03*
Y4040008D02*
D03*
Y3965008D02*
D03*
Y3890007D02*
D03*
Y3815007D02*
D03*
Y3740007D02*
D03*
Y3665007D02*
D03*
Y3440007D02*
D03*
X9707516Y4040008D02*
D03*
Y3965008D02*
D03*
Y3440007D02*
D03*
X9632516Y4040008D02*
D03*
Y3440007D02*
D03*
X9557516Y4040008D02*
D03*
Y3440007D02*
D03*
X9482516Y4040008D02*
D03*
Y3440007D02*
D03*
X9407516Y4040008D02*
D03*
Y3440007D02*
D03*
X9332515Y4040008D02*
D03*
Y3440007D02*
D03*
X9257515Y4040008D02*
D03*
Y3965008D02*
D03*
Y3515007D02*
D03*
Y3440007D02*
D03*
X9182515Y4040008D02*
D03*
Y3965008D02*
D03*
Y3890007D02*
D03*
Y3815007D02*
D03*
Y3740007D02*
D03*
Y3665007D02*
D03*
Y3590007D02*
D03*
Y3515007D02*
D03*
Y3440007D02*
D03*
X4325003Y2375002D02*
D03*
Y2275002D02*
D03*
Y2175002D02*
D03*
Y2075002D02*
D03*
Y1975002D02*
D03*
Y1875002D02*
D03*
Y1775002D02*
D03*
Y1675002D02*
D03*
X4225003Y2375002D02*
D03*
Y2275002D02*
D03*
Y2175002D02*
D03*
Y2075002D02*
D03*
Y1975002D02*
D03*
Y1875002D02*
D03*
Y1775002D02*
D03*
Y1675002D02*
D03*
X4125003Y2375002D02*
D03*
Y2275002D02*
D03*
Y2175002D02*
D03*
Y2075002D02*
D03*
Y1975002D02*
D03*
Y1875002D02*
D03*
Y1775002D02*
D03*
Y1675002D02*
D03*
X4025003Y2375002D02*
D03*
Y2275002D02*
D03*
Y2175002D02*
D03*
Y2075002D02*
D03*
Y1975002D02*
D03*
Y1875002D02*
D03*
Y1775002D02*
D03*
Y1675002D02*
D03*
X5465004Y3505003D02*
D03*
Y3405003D02*
D03*
Y3305003D02*
D03*
X5365004Y3505003D02*
D03*
Y3405003D02*
D03*
Y3305003D02*
D03*
X5265004Y3505003D02*
D03*
Y3405003D02*
D03*
Y3305003D02*
D03*
D131*
X9700000Y300000D02*
D03*
Y4500000D02*
D03*
X300000D02*
D03*
Y300000D02*
D03*
%TF.MD5,ff0ccb3fb2bf91d68d95335db6f4cadf*%
M02*
