%TF.GenerationSoftware,Altium Limited,Altium Designer,23.3.1 (30)*%
G04 Layer_Physical_Order=2*
G04 Layer_Color=32768*
%FSLAX45Y45*%
%MOMM*%
%TF.SameCoordinates,CD13F5F2-8DFB-4D4D-A102-87722C93DE69*%
%TF.FilePolarity,Negative*%
%TF.FileFunction,Copper,L2,Inr,Plane*%
%TF.Part,Single*%
G01*
G75*
%TA.AperFunction,NonConductor*%
%ADD82C,1.01600*%
%ADD83R,6.90000X7.00000*%
%TA.AperFunction,ComponentPad*%
%ADD84C,5.35000*%
%ADD85C,1.30000*%
%ADD86C,1.45000*%
%ADD87C,4.70000*%
%ADD88C,0.90000*%
%TA.AperFunction,ViaPad*%
%ADD89C,0.70000*%
%ADD90C,0.90000*%
D82*
X0Y0D02*
X10000000D01*
Y4800000D01*
X0D02*
X10000000D01*
X0Y0D02*
Y4800000D01*
D83*
X9485000Y3740000D02*
D03*
D84*
X9481520D02*
D03*
D85*
X3754000Y510000D02*
D03*
Y256000D02*
D03*
X3500000Y510000D02*
D03*
Y256000D02*
D03*
X3246000Y510000D02*
D03*
Y256000D02*
D03*
X2992000Y510000D02*
D03*
X2166000Y756000D02*
D03*
X2420000D02*
D03*
Y1010000D02*
D03*
X2674000Y756000D02*
D03*
X2166000Y1010000D02*
D03*
X4840000Y4500000D02*
D03*
X1326000Y4480000D02*
D03*
X1072000D02*
D03*
X4390000Y260000D02*
D03*
X4644000D02*
D03*
X4386000Y550000D02*
D03*
X4640000D02*
D03*
D86*
X2200000Y300000D02*
D03*
X1950000D02*
D03*
X1700000D02*
D03*
X1450000D02*
D03*
X2450000D02*
D03*
X4410000Y4490000D02*
D03*
X4160000D02*
D03*
X3910000D02*
D03*
X3660000D02*
D03*
X2960000D02*
D03*
X2710000D02*
D03*
X2460000D02*
D03*
X2210000D02*
D03*
X610000Y3730000D02*
D03*
Y3479998D02*
D03*
Y3230001D02*
D03*
D87*
X9490000Y1750000D02*
D03*
Y1200000D02*
D03*
Y2300000D02*
D03*
X8960000Y1665000D02*
D03*
Y2385000D02*
D03*
D88*
X395002Y1337500D02*
D03*
Y922500D02*
D03*
D89*
X1080000Y2330000D02*
D03*
X1089766Y1620235D02*
D03*
X1070000Y1800000D02*
D03*
X1100000Y1960000D02*
D03*
X1090000Y2100000D02*
D03*
X9707516Y3515007D02*
D03*
X9782516D02*
D03*
Y3590007D02*
D03*
Y4040008D02*
D03*
Y3965008D02*
D03*
Y3890007D02*
D03*
Y3815007D02*
D03*
Y3740007D02*
D03*
Y3665007D02*
D03*
Y3440007D02*
D03*
X9707516Y4040008D02*
D03*
Y3965008D02*
D03*
Y3440007D02*
D03*
X9632516Y4040008D02*
D03*
Y3440007D02*
D03*
X9557516Y4040008D02*
D03*
Y3440007D02*
D03*
X9482516Y4040008D02*
D03*
Y3440007D02*
D03*
X9407516Y4040008D02*
D03*
Y3440007D02*
D03*
X9332515Y4040008D02*
D03*
Y3440007D02*
D03*
X9257515Y4040008D02*
D03*
Y3965008D02*
D03*
Y3515007D02*
D03*
Y3440007D02*
D03*
X9182515Y4040008D02*
D03*
Y3965008D02*
D03*
Y3890007D02*
D03*
Y3815007D02*
D03*
Y3740007D02*
D03*
Y3665007D02*
D03*
Y3590007D02*
D03*
Y3515007D02*
D03*
Y3440007D02*
D03*
X7125003Y2365001D02*
D03*
Y2255001D02*
D03*
Y1595001D02*
D03*
Y1485001D02*
D03*
Y825001D02*
D03*
Y715001D02*
D03*
X7015003Y2365001D02*
D03*
Y2255001D02*
D03*
Y1595001D02*
D03*
Y1485001D02*
D03*
Y825001D02*
D03*
Y715001D02*
D03*
X6905003Y2365001D02*
D03*
Y2255001D02*
D03*
Y1595001D02*
D03*
Y1485001D02*
D03*
Y825001D02*
D03*
Y715001D02*
D03*
X6795003Y2365001D02*
D03*
Y2255001D02*
D03*
Y1595001D02*
D03*
Y1485001D02*
D03*
Y825001D02*
D03*
Y715001D02*
D03*
X6685003Y2365001D02*
D03*
Y2255001D02*
D03*
Y1595001D02*
D03*
Y1485001D02*
D03*
Y825001D02*
D03*
Y715001D02*
D03*
X6575003Y2365001D02*
D03*
Y2255001D02*
D03*
Y1595001D02*
D03*
Y1485001D02*
D03*
Y825001D02*
D03*
Y715001D02*
D03*
X6465003Y2365001D02*
D03*
Y2255001D02*
D03*
Y1485001D02*
D03*
Y715001D02*
D03*
X9169996Y1144999D02*
D03*
X9094997Y994999D02*
D03*
X9019996Y1144999D02*
D03*
X8944997Y994999D02*
D03*
X8869996Y1144999D02*
D03*
X8794997Y994999D02*
D03*
X8719997Y1144999D02*
D03*
X8644997Y994999D02*
D03*
X8569997Y1144999D02*
D03*
X8494997Y994999D02*
D03*
X8419997Y1144999D02*
D03*
X8344997Y994999D02*
D03*
X8269997Y1144999D02*
D03*
X8194997Y994999D02*
D03*
X7929997Y1154999D02*
D03*
X7854997Y1004999D02*
D03*
X7779997Y1154999D02*
D03*
X7704997Y1004999D02*
D03*
X7629997Y1154999D02*
D03*
X7554997Y1004999D02*
D03*
X7629997Y854999D02*
D03*
X7479997Y1154999D02*
D03*
X7404997Y1004999D02*
D03*
X7479997Y854999D02*
D03*
X7404997Y704999D02*
D03*
X7329997Y1154999D02*
D03*
X7254997Y1004999D02*
D03*
X7179997Y1154999D02*
D03*
X8569997Y1894999D02*
D03*
X8494997Y1744999D02*
D03*
X8569997Y1594999D02*
D03*
X8494997Y1444999D02*
D03*
X8419997Y1894999D02*
D03*
X8344997Y1744999D02*
D03*
X8419997Y1594999D02*
D03*
X8344997Y1444999D02*
D03*
X8269997Y1894999D02*
D03*
X8194997Y1744999D02*
D03*
X8269997Y1594999D02*
D03*
X8194997Y1444999D02*
D03*
X8119997Y1894999D02*
D03*
X8044997Y1744999D02*
D03*
X8119997Y1594999D02*
D03*
X8044997Y1444999D02*
D03*
X7969997Y1894999D02*
D03*
X7894997Y1744999D02*
D03*
X7969997Y1594999D02*
D03*
X7894997Y1444999D02*
D03*
X7819997Y1894999D02*
D03*
X7744997Y1744999D02*
D03*
X7819997Y1594999D02*
D03*
X7744997Y1444999D02*
D03*
X7669997Y1894999D02*
D03*
X7594997Y1744999D02*
D03*
X7669997Y1594999D02*
D03*
X7594997Y1444999D02*
D03*
X7519997Y1894999D02*
D03*
X7444997Y1744999D02*
D03*
X7519997Y1594999D02*
D03*
X7444997Y1444999D02*
D03*
X7369997Y1894999D02*
D03*
X7219997D02*
D03*
X8644997Y2494999D02*
D03*
Y2194999D02*
D03*
X8494997Y2494999D02*
D03*
X8569997Y2344999D02*
D03*
X8494997Y2194999D02*
D03*
X8344997Y2494999D02*
D03*
X8419997Y2344999D02*
D03*
X8344997Y2194999D02*
D03*
X8194997Y2494999D02*
D03*
X8269997Y2344999D02*
D03*
X8194997Y2194999D02*
D03*
X7894997Y2494999D02*
D03*
Y2194999D02*
D03*
X7744997Y2494999D02*
D03*
X7819997Y2344999D02*
D03*
X7744997Y2194999D02*
D03*
X7594997Y2494999D02*
D03*
X7669997Y2344999D02*
D03*
X7594997Y2194999D02*
D03*
X7444997Y2794998D02*
D03*
X7519997Y2644999D02*
D03*
X7444997Y2494999D02*
D03*
X7519997Y2344999D02*
D03*
X7444997Y2194999D02*
D03*
X7294997Y2794998D02*
D03*
X7369997Y2644999D02*
D03*
Y2344999D02*
D03*
X7294997Y2194999D02*
D03*
X7144997Y2794998D02*
D03*
X7219997Y2644999D02*
D03*
X1770000Y3970000D02*
D03*
X740000Y4130000D02*
D03*
X1230000Y2210000D02*
D03*
X1090000Y2200000D02*
D03*
X1010000Y2910000D02*
D03*
X1085235Y2835235D02*
D03*
X860235Y3060235D02*
D03*
X935235Y2985235D02*
D03*
X925000Y2825000D02*
D03*
X850000Y2900000D02*
D03*
X1680000Y1990000D02*
D03*
X1450000Y4160000D02*
D03*
X1910000Y3640000D02*
D03*
X1150000Y3050000D02*
D03*
X1075000Y2975000D02*
D03*
X1269999Y2865000D02*
D03*
X1150000Y2900000D02*
D03*
X1225000Y2975000D02*
D03*
X1000000Y3050000D02*
D03*
X3595352Y2373051D02*
D03*
X5614985Y1294994D02*
D03*
Y1174994D02*
D03*
X5554985Y1294994D02*
D03*
X5584985Y1234994D02*
D03*
X5554985Y1174994D02*
D03*
X5584985Y1114994D02*
D03*
X5494985Y1294994D02*
D03*
X5524985Y1234994D02*
D03*
X5494985Y1174994D02*
D03*
X5524985Y1114994D02*
D03*
X5434985Y1294994D02*
D03*
X5464985Y1234994D02*
D03*
X5434985Y1174994D02*
D03*
X5464985Y1114994D02*
D03*
X7834980Y4534987D02*
D03*
X7864980Y4474987D02*
D03*
X7834980Y4414988D02*
D03*
X7864980Y4354988D02*
D03*
X7774980Y4534987D02*
D03*
X7804980Y4474987D02*
D03*
X7774980Y4414988D02*
D03*
X7804980Y4354988D02*
D03*
X7714981Y4534987D02*
D03*
X7744980Y4474987D02*
D03*
X7714981Y4414988D02*
D03*
X7744980Y4354988D02*
D03*
X6754982Y4534987D02*
D03*
Y4414988D02*
D03*
X6694983Y4534987D02*
D03*
X6724982Y4474987D02*
D03*
X6694983Y4414988D02*
D03*
X6724982Y4354988D02*
D03*
X6634983Y4534987D02*
D03*
X6664983Y4474987D02*
D03*
X6634983Y4414988D02*
D03*
X6664983Y4354988D02*
D03*
X4989484Y1330503D02*
D03*
X5770000Y1570000D02*
D03*
X5290000Y1660000D02*
D03*
X5180000Y1630000D02*
D03*
X2960000Y2570000D02*
D03*
X3272700Y2512700D02*
D03*
X3470000Y2401051D02*
D03*
X5630451Y3837700D02*
D03*
X5799988Y3249994D02*
D03*
X5730000Y3750000D02*
D03*
X5147700Y3862350D02*
D03*
X4906950Y3640000D02*
D03*
X5410350Y3837700D02*
D03*
X5257700D02*
D03*
X5207700Y3917700D02*
D03*
X5200000Y970000D02*
D03*
X5760000Y900000D02*
D03*
X6100000Y2190000D02*
D03*
X7950000Y3090000D02*
D03*
X4390000Y1310000D02*
D03*
X4380000Y1380000D02*
D03*
X2940000Y913300D02*
D03*
X2900000Y1120000D02*
D03*
X5260000Y1820000D02*
D03*
X3890000Y1390000D02*
D03*
X3830000D02*
D03*
X3760000D02*
D03*
X3660000Y1660000D02*
D03*
X4300000Y3690000D02*
D03*
X3670000Y3190000D02*
D03*
X3040000Y1420000D02*
D03*
X2540000Y1670000D02*
D03*
X7947961Y685200D02*
D03*
X2500405Y3690613D02*
D03*
X2040000Y4010000D02*
D03*
X2340000D02*
D03*
X2640000D02*
D03*
X3530000D02*
D03*
X3830000D02*
D03*
X4130000D02*
D03*
X1020000Y1480000D02*
D03*
X900000Y1230000D02*
D03*
X4490000Y870000D02*
D03*
X4580000Y1460000D02*
D03*
X5000000Y2090000D02*
D03*
X2940000Y710000D02*
D03*
X3440000Y940000D02*
D03*
X5360000Y4000000D02*
D03*
X3240000Y3360000D02*
D03*
X3350000D02*
D03*
X3450000Y3480000D02*
D03*
X3459670Y3747969D02*
D03*
X3389407Y3566230D02*
D03*
X3120000Y4130000D02*
D03*
X3270000Y4150000D02*
D03*
X3930000Y3490000D02*
D03*
X4249991Y3389800D02*
D03*
X4400000Y3380000D02*
D03*
X4463370Y3252901D02*
D03*
X4530000Y3360000D02*
D03*
X4780000Y3585598D02*
D03*
X5030000Y4050000D02*
D03*
X4775080Y1500320D02*
D03*
X4762300Y1638341D02*
D03*
X4677700Y1697700D02*
D03*
X4727700Y1834347D02*
D03*
X3340000Y3030000D02*
D03*
X3210000Y2720000D02*
D03*
X1300000Y1680000D02*
D03*
X1290000Y1500000D02*
D03*
X2600000Y2480000D02*
D03*
X3810000Y2620000D02*
D03*
X4320000Y2794801D02*
D03*
X4427700Y2737700D02*
D03*
X5020000Y1590000D02*
D03*
X5010000Y1440000D02*
D03*
X5950000Y1850000D02*
D03*
X4592300Y1612101D02*
D03*
X5810000Y2190000D02*
D03*
X6060000Y3220000D02*
D03*
X8050000Y2940000D02*
D03*
X6860000Y210000D02*
D03*
X8450000Y2920000D02*
D03*
X7670000Y630000D02*
D03*
X8110000Y2630000D02*
D03*
X8000000D02*
D03*
X8110000Y2300000D02*
D03*
X8000000D02*
D03*
X8010000Y560000D02*
D03*
X8120000Y1100000D02*
D03*
X8010000D02*
D03*
X8120000Y560000D02*
D03*
X7940000Y290000D02*
D03*
X2550000Y2900000D02*
D03*
X2390000Y2280000D02*
D03*
X2610000Y2990000D02*
D03*
X2380000Y1970000D02*
D03*
X3180000Y3110000D02*
D03*
X3220000Y2600000D02*
D03*
X2600000Y2070000D02*
D03*
X4236301Y1370000D02*
D03*
X1680000Y2150000D02*
D03*
X2280000Y2360000D02*
D03*
X3740000Y2450751D02*
D03*
X1680000Y2070000D02*
D03*
Y1910000D02*
D03*
Y1830000D02*
D03*
X3260000Y910000D02*
D03*
X3330000Y990000D02*
D03*
X2190000Y1510000D02*
D03*
X4111400Y1190131D02*
D03*
X4214362Y1290000D02*
D03*
X4236301Y1210000D02*
D03*
X2720000Y2920000D02*
D03*
X2907499Y2917499D02*
D03*
X2810000Y2920000D02*
D03*
X3651324Y2326910D02*
D03*
X3692499Y2065001D02*
D03*
X3716241Y2299673D02*
D03*
X5457700Y3917700D02*
D03*
X5305050D02*
D03*
X4674153Y1891247D02*
D03*
X4616991Y2128410D02*
D03*
X4532400Y2593450D02*
D03*
X4597700Y2007833D02*
D03*
X5567689Y3917693D02*
D03*
X4477700Y2647700D02*
D03*
X4331226Y2659800D02*
D03*
X4144176Y2659799D02*
D03*
X4072300Y2757700D02*
D03*
X4187300Y2757700D02*
D03*
X5521950Y3847052D02*
D03*
D90*
X5680000Y4330000D02*
D03*
X5590000D02*
D03*
%TF.MD5,85b6603d119993637c657cc3685b9894*%
M02*
