%TF.GenerationSoftware,Altium Limited,Altium Designer,23.3.1 (30)*%
G04 Layer_Physical_Order=4*
G04 Layer_Color=16711680*
%FSLAX45Y45*%
%MOMM*%
%TF.SameCoordinates,CD13F5F2-8DFB-4D4D-A102-87722C93DE69*%
%TF.FilePolarity,Positive*%
%TF.FileFunction,Copper,L4,Bot,Signal*%
%TF.Part,Single*%
G01*
G75*
%TA.AperFunction,Conductor*%
%ADD68C,0.18000*%
%ADD70C,0.12700*%
%TA.AperFunction,ComponentPad*%
%ADD71R,6.80000X6.80000*%
%ADD72R,1.50000X1.50000*%
%ADD73C,1.50000*%
%ADD74C,1.57500*%
%ADD75R,1.57500X1.57500*%
G04:AMPARAMS|DCode=76|XSize=5mm|YSize=5mm|CornerRadius=1.25mm|HoleSize=0mm|Usage=FLASHONLY|Rotation=270.000|XOffset=0mm|YOffset=0mm|HoleType=Round|Shape=RoundedRectangle|*
%AMROUNDEDRECTD76*
21,1,5.00000,2.50000,0,0,270.0*
21,1,2.50000,5.00000,0,0,270.0*
1,1,2.50000,-1.25000,-1.25000*
1,1,2.50000,-1.25000,1.25000*
1,1,2.50000,1.25000,1.25000*
1,1,2.50000,1.25000,-1.25000*
%
%ADD76ROUNDEDRECTD76*%
%ADD77R,1.57500X1.57500*%
%ADD78C,0.50000*%
%TA.AperFunction,ViaPad*%
%ADD79C,0.45000*%
%ADD80C,0.80000*%
%ADD81C,4.00000*%
G36*
X10000000Y0D02*
X0D01*
Y4800000D01*
X10000000D01*
Y0D01*
D02*
G37*
%LPC*%
G36*
X7960000Y4722125D02*
X4620000D01*
X4611533Y4720441D01*
X4604355Y4715645D01*
X4462453Y4573743D01*
X4448116Y4582020D01*
X4423001Y4588750D01*
X4396999D01*
X4371884Y4582020D01*
X4349366Y4569020D01*
X4330980Y4550634D01*
X4317980Y4528116D01*
X4311250Y4503001D01*
Y4476999D01*
X4317980Y4451884D01*
X4330980Y4429366D01*
X4349366Y4410980D01*
X4371884Y4397980D01*
X4387875Y4393695D01*
Y4299165D01*
X4140403Y4051693D01*
X4138454Y4052500D01*
X4121546D01*
X4105926Y4046030D01*
X4093970Y4034074D01*
X4093163Y4032125D01*
X3866837D01*
X3866030Y4034074D01*
X3854074Y4046030D01*
X3838454Y4052500D01*
X3821546D01*
X3805926Y4046030D01*
X3793970Y4034074D01*
X3793163Y4032125D01*
X3566837D01*
X3566030Y4034074D01*
X3554074Y4046030D01*
X3538454Y4052500D01*
X3521546D01*
X3519597Y4051693D01*
X3081395Y4489895D01*
X3074217Y4494691D01*
X3065750Y4496375D01*
X3058750D01*
Y4503001D01*
X3052020Y4528116D01*
X3039020Y4550634D01*
X3020634Y4569020D01*
X2998116Y4582020D01*
X2973001Y4588750D01*
X2946999D01*
X2921884Y4582020D01*
X2899366Y4569020D01*
X2880980Y4550634D01*
X2867980Y4528116D01*
X2861250Y4503001D01*
Y4476999D01*
X2867980Y4451884D01*
X2880980Y4429366D01*
X2899366Y4410980D01*
X2921884Y4397980D01*
X2937875Y4393695D01*
Y4339165D01*
X2650403Y4051693D01*
X2648454Y4052500D01*
X2631546D01*
X2615926Y4046030D01*
X2603970Y4034074D01*
X2603163Y4032125D01*
X2376837D01*
X2376030Y4034074D01*
X2364074Y4046030D01*
X2348454Y4052500D01*
X2331546D01*
X2315926Y4046030D01*
X2303970Y4034074D01*
X2303163Y4032125D01*
X2076837D01*
X2076030Y4034074D01*
X2064074Y4046030D01*
X2048454Y4052500D01*
X2031546D01*
X2015926Y4046030D01*
X2003970Y4034074D01*
X2003163Y4032125D01*
X1810335D01*
X1801869Y4030441D01*
X1794691Y4025645D01*
X1780640Y4011594D01*
X1778454Y4012500D01*
X1761546D01*
X1745926Y4006030D01*
X1733970Y3994074D01*
X1727500Y3978454D01*
Y3961546D01*
X1733970Y3945926D01*
X1745926Y3933970D01*
X1761546Y3927500D01*
X1778454D01*
X1794074Y3933970D01*
X1806030Y3945926D01*
X1812500Y3961546D01*
Y3978453D01*
X1820675Y3987875D01*
X2003163D01*
X2003970Y3985926D01*
X2015926Y3973970D01*
X2031546Y3967500D01*
X2048454D01*
X2064074Y3973970D01*
X2076030Y3985926D01*
X2076837Y3987875D01*
X2303163D01*
X2303970Y3985926D01*
X2315926Y3973970D01*
X2331546Y3967500D01*
X2348454D01*
X2364074Y3973970D01*
X2376030Y3985926D01*
X2376837Y3987875D01*
X2603163D01*
X2603970Y3985926D01*
X2615926Y3973970D01*
X2631546Y3967500D01*
X2648454D01*
X2664074Y3973970D01*
X2676030Y3985926D01*
X2682500Y4001546D01*
Y4018454D01*
X2681693Y4020403D01*
X2975645Y4314355D01*
X2980441Y4321533D01*
X2982125Y4330000D01*
Y4393695D01*
X2998116Y4397980D01*
X3020634Y4410980D01*
X3039020Y4429366D01*
X3047342Y4443781D01*
X3063037Y4445673D01*
X3488307Y4020403D01*
X3487500Y4018454D01*
Y4001546D01*
X3493970Y3985926D01*
X3505926Y3973970D01*
X3521546Y3967500D01*
X3538454D01*
X3554074Y3973970D01*
X3566030Y3985926D01*
X3566837Y3987875D01*
X3793163D01*
X3793970Y3985926D01*
X3805926Y3973970D01*
X3821546Y3967500D01*
X3838454D01*
X3854074Y3973970D01*
X3866030Y3985926D01*
X3866837Y3987875D01*
X4093163D01*
X4093970Y3985926D01*
X4105926Y3973970D01*
X4121546Y3967500D01*
X4138454D01*
X4154074Y3973970D01*
X4166030Y3985926D01*
X4172500Y4001546D01*
Y4018454D01*
X4171693Y4020403D01*
X4425645Y4274355D01*
X4430441Y4281533D01*
X4432125Y4290000D01*
Y4393695D01*
X4448116Y4397980D01*
X4470634Y4410980D01*
X4489020Y4429366D01*
X4502020Y4451884D01*
X4508750Y4476999D01*
Y4503001D01*
X4502020Y4528116D01*
X4493743Y4542453D01*
X4629165Y4677875D01*
X5021590D01*
X5937875Y3761590D01*
Y2229164D01*
X5920836Y2212125D01*
X5846837D01*
X5846030Y2214074D01*
X5834074Y2226030D01*
X5820401Y2231693D01*
X5817338Y2236868D01*
X5815209Y2245200D01*
X5817933Y2249276D01*
X5819412Y2256709D01*
Y3212037D01*
X5824063Y3213964D01*
X5836018Y3225919D01*
X5842488Y3241540D01*
Y3258447D01*
X5836018Y3274068D01*
X5824063Y3286023D01*
X5808442Y3292493D01*
X5791535D01*
X5775914Y3286023D01*
X5763959Y3274068D01*
X5757489Y3258447D01*
Y3241540D01*
X5763959Y3225919D01*
X5775914Y3213964D01*
X5780565Y3212037D01*
Y2264755D01*
X5752123Y2236313D01*
X5739423Y2241573D01*
Y3632585D01*
X5743733Y3636895D01*
X5743734Y3636895D01*
X5747945Y3643197D01*
X5749423Y3650630D01*
X5749423Y3650631D01*
Y3712044D01*
X5754074Y3713970D01*
X5766030Y3725926D01*
X5772500Y3741546D01*
Y3758454D01*
X5766030Y3774074D01*
X5754074Y3786030D01*
X5738454Y3792500D01*
X5721546D01*
X5705926Y3786030D01*
X5693970Y3774074D01*
X5687500Y3758454D01*
Y3747929D01*
X5674800Y3742668D01*
X5649874Y3767595D01*
Y3799743D01*
X5654525Y3801670D01*
X5666480Y3813626D01*
X5672950Y3829246D01*
Y3846153D01*
X5666480Y3861774D01*
X5654525Y3873729D01*
X5638904Y3880200D01*
X5621997D01*
X5610060Y3875255D01*
X5599708Y3882919D01*
X5599586Y3889486D01*
X5603719Y3893619D01*
X5610189Y3909239D01*
Y3926146D01*
X5603719Y3941767D01*
X5591763Y3953722D01*
X5576143Y3960192D01*
X5559235D01*
X5543615Y3953722D01*
X5531659Y3941767D01*
X5525189Y3926146D01*
Y3909239D01*
X5528083Y3902252D01*
X5519597Y3889552D01*
X5513497D01*
X5502930Y3885175D01*
X5497847Y3889844D01*
X5494473Y3895418D01*
X5500200Y3909246D01*
Y3926153D01*
X5493730Y3941774D01*
X5481774Y3953729D01*
X5466154Y3960200D01*
X5449247D01*
X5433626Y3953729D01*
X5421671Y3941774D01*
X5415200Y3926153D01*
Y3909246D01*
X5421671Y3893626D01*
X5423364Y3891933D01*
X5420512Y3884596D01*
X5417136Y3880200D01*
X5401896D01*
X5386276Y3873729D01*
X5374320Y3861774D01*
X5367850Y3846153D01*
Y3829246D01*
X5369777Y3824595D01*
X5343625Y3798443D01*
X5336638Y3800443D01*
X5331373Y3804152D01*
Y3883919D01*
X5341080Y3893626D01*
X5347550Y3909246D01*
Y3926153D01*
X5341080Y3941774D01*
X5329124Y3953729D01*
X5313504Y3960200D01*
X5296597D01*
X5280976Y3953729D01*
X5269021Y3941774D01*
X5262551Y3926154D01*
X5250200D01*
X5243730Y3941774D01*
X5231774Y3953729D01*
X5216154Y3960200D01*
X5199247D01*
X5183626Y3953729D01*
X5171671Y3941774D01*
X5165200Y3926153D01*
Y3914849D01*
X5157531Y3906373D01*
X5153467Y3904850D01*
X5139247D01*
X5123626Y3898380D01*
X5111670Y3886424D01*
X5105200Y3870804D01*
Y3858446D01*
X5102329Y3855575D01*
X5091292D01*
X5082825Y3853891D01*
X5075647Y3849095D01*
X5055434Y3828881D01*
X5051712Y3826395D01*
X4948205Y3722888D01*
X4943409Y3715710D01*
X4941725Y3707243D01*
Y3681922D01*
X4929025Y3676858D01*
X4915404Y3682500D01*
X4898496D01*
X4882876Y3676029D01*
X4870920Y3664074D01*
X4870113Y3662125D01*
X4835416D01*
X4834197Y3662939D01*
X4825730Y3664623D01*
X4682498D01*
X4674032Y3662939D01*
X4666854Y3658143D01*
X4634355Y3625645D01*
X4629559Y3618467D01*
X4627875Y3610000D01*
Y3309165D01*
X4618835Y3300125D01*
X4546079D01*
X4541217Y3306595D01*
X4545507Y3320422D01*
X4554074Y3323970D01*
X4566030Y3335926D01*
X4572500Y3351546D01*
Y3368454D01*
X4566030Y3384074D01*
X4554074Y3396030D01*
X4552125Y3396837D01*
Y3832552D01*
X4553345Y3833772D01*
X4558141Y3840949D01*
X4559826Y3849416D01*
Y4356472D01*
X4701229Y4497875D01*
X4745000D01*
Y4405000D01*
X4935000D01*
Y4595000D01*
X4745000D01*
Y4542125D01*
X4692064D01*
X4683597Y4540441D01*
X4676419Y4535645D01*
X4522055Y4381281D01*
X4517259Y4374103D01*
X4515575Y4365636D01*
Y3858581D01*
X4514355Y3857361D01*
X4509559Y3850183D01*
X4507875Y3841716D01*
Y3396837D01*
X4505926Y3396030D01*
X4493970Y3384074D01*
X4487500Y3368454D01*
Y3351547D01*
X4477656Y3342125D01*
X4450000D01*
X4441533Y3340441D01*
X4434355Y3335645D01*
X4294355Y3195645D01*
X4289559Y3188467D01*
X4287875Y3180000D01*
Y3132125D01*
X3216837D01*
X3216030Y3134074D01*
X3204074Y3146030D01*
X3188454Y3152500D01*
X3171546D01*
X3155926Y3146030D01*
X3143970Y3134074D01*
X3137500Y3118454D01*
Y3101546D01*
X3143970Y3085926D01*
X3155926Y3073970D01*
X3171546Y3067500D01*
X3188454D01*
X3204074Y3073970D01*
X3216030Y3085926D01*
X3216837Y3087875D01*
X4299456D01*
X4307923Y3089559D01*
X4315101Y3094355D01*
X4325645Y3104899D01*
X4330441Y3112077D01*
X4332125Y3120544D01*
Y3170835D01*
X4409136Y3247847D01*
X4421698Y3242447D01*
X4427340Y3228827D01*
X4439295Y3216871D01*
X4454916Y3210401D01*
X4471823D01*
X4487444Y3216871D01*
X4498447Y3227875D01*
X4680000D01*
X4688467Y3229559D01*
X4695645Y3234355D01*
X4795645Y3334355D01*
X4800441Y3341533D01*
X4802125Y3350000D01*
Y3548761D01*
X4804074Y3549568D01*
X4816030Y3561524D01*
X4822500Y3577144D01*
Y3594052D01*
X4817021Y3607278D01*
X4821163Y3614685D01*
X4825072Y3618503D01*
X4828229Y3617875D01*
X4870113D01*
X4870920Y3615926D01*
X4882876Y3603970D01*
X4898496Y3597500D01*
X4915404D01*
X4929025Y3603142D01*
X4941725Y3598077D01*
Y2982472D01*
X4203049D01*
X4195616Y2980993D01*
X4189315Y2976783D01*
X4058566Y2846034D01*
X4054356Y2839733D01*
X4052877Y2832300D01*
Y2795656D01*
X4048226Y2793729D01*
X4036271Y2781774D01*
X4029800Y2766153D01*
Y2749246D01*
X4036271Y2733626D01*
X4048226Y2721670D01*
X4063847Y2715200D01*
X4080754D01*
X4096374Y2721670D01*
X4096544Y2721840D01*
X4108277Y2716979D01*
Y2684004D01*
X4108146Y2683873D01*
X4101676Y2668252D01*
Y2651345D01*
X4108146Y2635725D01*
X4120102Y2623769D01*
X4135722Y2617299D01*
X4152629D01*
X4166251Y2622941D01*
X4178951Y2617876D01*
Y2600784D01*
X4177991Y2599825D01*
X3946865D01*
X3931345Y2615345D01*
X3924167Y2620141D01*
X3915700Y2621825D01*
X3900789D01*
X3892322Y2620141D01*
X3885144Y2615345D01*
X3874600Y2604800D01*
X3869804Y2597622D01*
X3869683Y2597017D01*
X3869078Y2596897D01*
X3861900Y2592100D01*
X3857104Y2584922D01*
X3855420Y2576456D01*
Y2156709D01*
X3778535Y2079825D01*
X3760164D01*
X3759344Y2080646D01*
X3752166Y2085442D01*
X3743699Y2087126D01*
X3729336D01*
X3728529Y2089075D01*
X3716573Y2101030D01*
X3700953Y2107500D01*
X3684046D01*
X3668425Y2101030D01*
X3656470Y2089075D01*
X3650000Y2073454D01*
Y2056547D01*
X3656470Y2040927D01*
X3668425Y2028971D01*
X3684046Y2022501D01*
X3700953D01*
X3708488Y2025622D01*
X3835575Y1898535D01*
Y1588244D01*
X3837260Y1579777D01*
X3842056Y1572599D01*
X3863241Y1551414D01*
X3858381Y1539680D01*
X3641609D01*
X3135645Y2045645D01*
X3128467Y2050441D01*
X3120000Y2052125D01*
X2650814D01*
X2642500Y2061547D01*
Y2078454D01*
X2636030Y2094074D01*
X2624074Y2106030D01*
X2608454Y2112500D01*
X2591546D01*
X2577925Y2106858D01*
X2565225Y2111922D01*
Y2175075D01*
X2853645Y2463495D01*
X2858441Y2470673D01*
X2860125Y2479140D01*
Y2499304D01*
X2909206Y2548385D01*
X2923971Y2545926D01*
X2935926Y2533970D01*
X2951546Y2527500D01*
X2968454D01*
X2984074Y2533970D01*
X2996030Y2545926D01*
X3002500Y2561546D01*
Y2578454D01*
X2996030Y2594074D01*
X2984074Y2606030D01*
X2968454Y2612500D01*
X2951546D01*
X2937925Y2606858D01*
X2925225Y2611922D01*
Y2714303D01*
X2927940Y2718365D01*
X2929624Y2726832D01*
Y2880662D01*
X2931573Y2881469D01*
X2943528Y2893424D01*
X2949998Y2909045D01*
Y2925952D01*
X2943528Y2941573D01*
X2931573Y2953528D01*
X2915952Y2959998D01*
X2899045D01*
X2883425Y2953528D01*
X2871469Y2941573D01*
X2864999Y2925952D01*
X2852500Y2926437D01*
Y2928454D01*
X2846030Y2944074D01*
X2834074Y2956030D01*
X2818454Y2962500D01*
X2801546D01*
X2785926Y2956030D01*
X2773970Y2944074D01*
X2771873Y2939011D01*
X2758127D01*
X2756030Y2944074D01*
X2744074Y2956030D01*
X2728454Y2962500D01*
X2711546D01*
X2695926Y2956030D01*
X2690485Y2950588D01*
X2685674Y2950947D01*
X2675803Y2953868D01*
X2672545Y2958745D01*
X2651693Y2979597D01*
X2652500Y2981546D01*
Y2998453D01*
X2646030Y3014074D01*
X2634074Y3026030D01*
X2618454Y3032500D01*
X2601546D01*
X2585926Y3026030D01*
X2573970Y3014074D01*
X2567500Y2998453D01*
Y2981546D01*
X2573970Y2965926D01*
X2585926Y2953970D01*
X2601546Y2947500D01*
X2618454D01*
X2620403Y2948307D01*
X2634775Y2933935D01*
Y2707967D01*
X2636459Y2699500D01*
X2641255Y2692322D01*
X2658723Y2674854D01*
X2657943Y2669320D01*
X2644484Y2664819D01*
X2572125Y2737177D01*
Y2863163D01*
X2574074Y2863970D01*
X2586030Y2875926D01*
X2592500Y2891546D01*
Y2908453D01*
X2586030Y2924074D01*
X2574074Y2936029D01*
X2558454Y2942500D01*
X2541546D01*
X2525926Y2936029D01*
X2513970Y2924074D01*
X2507500Y2908453D01*
Y2891546D01*
X2513970Y2875926D01*
X2525926Y2863970D01*
X2527875Y2863163D01*
Y2728013D01*
X2529559Y2719546D01*
X2534355Y2712368D01*
X2634775Y2611948D01*
Y2521922D01*
X2622075Y2516858D01*
X2608454Y2522500D01*
X2591546D01*
X2575926Y2516030D01*
X2563970Y2504074D01*
X2563163Y2502125D01*
X1980000D01*
X1971533Y2500441D01*
X1964355Y2495645D01*
X1669521Y2200811D01*
X1664725Y2193633D01*
X1663867Y2189319D01*
X1655926Y2186030D01*
X1643970Y2174074D01*
X1637500Y2158454D01*
Y2141546D01*
X1643970Y2125926D01*
X1651821Y2118076D01*
X1654573Y2110000D01*
X1651821Y2101924D01*
X1643970Y2094074D01*
X1643163Y2092125D01*
X1308696D01*
X1285176Y2115645D01*
X1277998Y2120441D01*
X1269531Y2122125D01*
X1126837D01*
X1126030Y2124074D01*
X1114074Y2136030D01*
X1098454Y2142500D01*
X1081546D01*
X1065926Y2136030D01*
X1053970Y2124074D01*
X1047500Y2108454D01*
Y2091546D01*
X1053970Y2075926D01*
X1065926Y2063970D01*
X1081546Y2057500D01*
X1098454D01*
X1114074Y2063970D01*
X1126030Y2075926D01*
X1126837Y2077875D01*
X1260367D01*
X1283886Y2054355D01*
X1291064Y2049559D01*
X1299531Y2047875D01*
X1643163D01*
X1643970Y2045926D01*
X1651821Y2038075D01*
X1654573Y2030000D01*
X1651821Y2021924D01*
X1643970Y2014074D01*
X1643163Y2012125D01*
X1387417D01*
X1378950Y2010441D01*
X1371772Y2005645D01*
X1348253Y1982125D01*
X1136837D01*
X1136030Y1984074D01*
X1124074Y1996030D01*
X1108454Y2002500D01*
X1091546D01*
X1075926Y1996030D01*
X1063970Y1984074D01*
X1057500Y1968454D01*
Y1951546D01*
X1063970Y1935926D01*
X1075926Y1923970D01*
X1091546Y1917500D01*
X1108454D01*
X1124074Y1923970D01*
X1136030Y1935926D01*
X1136837Y1937875D01*
X1159799D01*
X1163779Y1927190D01*
X1163885Y1925175D01*
X1080403Y1841693D01*
X1078454Y1842500D01*
X1061546D01*
X1045926Y1836030D01*
X1033970Y1824074D01*
X1027500Y1808454D01*
Y1791546D01*
X1033970Y1775926D01*
X1045926Y1763970D01*
X1061546Y1757500D01*
X1078454D01*
X1094074Y1763970D01*
X1106030Y1775926D01*
X1112500Y1791546D01*
Y1808454D01*
X1111692Y1810403D01*
X1189165Y1887875D01*
X1643163D01*
X1643970Y1885926D01*
X1651821Y1878075D01*
X1654573Y1870000D01*
X1651821Y1861924D01*
X1643970Y1854074D01*
X1643163Y1852125D01*
X1290000D01*
X1281533Y1850441D01*
X1274355Y1845645D01*
X1110721Y1682011D01*
X1105925Y1674833D01*
X1105582Y1673107D01*
X1098219Y1662734D01*
X1081312D01*
X1065692Y1656264D01*
X1053736Y1644309D01*
X1047266Y1628688D01*
Y1611781D01*
X1053736Y1596160D01*
X1065692Y1584205D01*
X1081312Y1577735D01*
X1098219D01*
X1113840Y1584205D01*
X1125795Y1596160D01*
X1132265Y1611781D01*
Y1628688D01*
X1131458Y1630637D01*
X1142011Y1641190D01*
X1146807Y1648368D01*
X1148491Y1656835D01*
Y1657201D01*
X1299165Y1807875D01*
X1643163D01*
X1643970Y1805926D01*
X1655926Y1793970D01*
X1671546Y1787500D01*
X1688454D01*
X1704074Y1793970D01*
X1716030Y1805926D01*
X1722500Y1821546D01*
Y1838454D01*
X1716030Y1854074D01*
X1708179Y1861924D01*
X1705427Y1870000D01*
X1708179Y1878075D01*
X1716030Y1885926D01*
X1722500Y1901546D01*
Y1918454D01*
X1716030Y1934074D01*
X1708179Y1941924D01*
X1705427Y1950000D01*
X1708179Y1958076D01*
X1716030Y1965926D01*
X1722500Y1981546D01*
Y1998453D01*
X1716030Y2014074D01*
X1708179Y2021924D01*
X1705427Y2030000D01*
X1708179Y2038075D01*
X1716030Y2045926D01*
X1722500Y2061546D01*
Y2078454D01*
X1716030Y2094074D01*
X1708179Y2101924D01*
X1705427Y2110000D01*
X1708179Y2118076D01*
X1716030Y2125926D01*
X1722500Y2141546D01*
Y2158454D01*
X1716030Y2174074D01*
X1710697Y2179407D01*
X1989164Y2457875D01*
X2563163D01*
X2563970Y2455926D01*
X2575926Y2443970D01*
X2589547Y2438328D01*
X2594946Y2425767D01*
X2562103Y2392924D01*
X2480799D01*
X2472332Y2391240D01*
X2465154Y2386444D01*
X2400403Y2321693D01*
X2398454Y2322500D01*
X2381546D01*
X2365926Y2316030D01*
X2353970Y2304074D01*
X2347500Y2288454D01*
Y2271546D01*
X2353970Y2255926D01*
X2365926Y2243970D01*
X2381546Y2237500D01*
X2398454D01*
X2414074Y2243970D01*
X2426030Y2255926D01*
X2432500Y2271546D01*
Y2288454D01*
X2431693Y2290403D01*
X2489964Y2348674D01*
X2540857D01*
X2545717Y2336940D01*
X2364355Y2155578D01*
X2359559Y2148400D01*
X2357875Y2139933D01*
Y2006837D01*
X2355926Y2006030D01*
X2343970Y1994074D01*
X2337500Y1978453D01*
Y1961546D01*
X2343970Y1945926D01*
X2355926Y1933970D01*
X2371546Y1927500D01*
X2388454D01*
X2404074Y1933970D01*
X2416030Y1945926D01*
X2422500Y1961546D01*
Y1978453D01*
X2416030Y1994074D01*
X2404074Y2006030D01*
X2402125Y2006837D01*
Y2130769D01*
X2453241Y2181885D01*
X2464975Y2177025D01*
Y1903769D01*
X2466659Y1895302D01*
X2471455Y1888124D01*
X2607475Y1752104D01*
Y1245725D01*
X2496845D01*
X2488379Y1244041D01*
X2481201Y1239245D01*
X2432458Y1190502D01*
X2158377D01*
X2149910Y1188818D01*
X2142732Y1184022D01*
X2031811Y1073100D01*
X2027015Y1065922D01*
X2025330Y1057456D01*
Y1042544D01*
X2027015Y1034077D01*
X2027875Y1032790D01*
Y900544D01*
X2029559Y892077D01*
X2034355Y884899D01*
X2071000Y848254D01*
Y661000D01*
X2261000D01*
Y830575D01*
X2314135D01*
X2339003Y805708D01*
X2331474Y792668D01*
X2325000Y768507D01*
Y743493D01*
X2331474Y719332D01*
X2339003Y706292D01*
X2183553Y550843D01*
X1988718D01*
X1980251Y549159D01*
X1973073Y544363D01*
X1804355Y375645D01*
X1799559Y368467D01*
X1797875Y360000D01*
Y353376D01*
X1785175Y349973D01*
X1779020Y360634D01*
X1760634Y379020D01*
X1738116Y392020D01*
X1722125Y396305D01*
Y930367D01*
X2295645Y1503887D01*
X2300441Y1511064D01*
X2302125Y1519531D01*
Y2323163D01*
X2304074Y2323970D01*
X2316030Y2335926D01*
X2322500Y2351546D01*
Y2368453D01*
X2316030Y2384074D01*
X2304074Y2396029D01*
X2288454Y2402500D01*
X2271546D01*
X2255926Y2396029D01*
X2243970Y2384074D01*
X2237500Y2368453D01*
Y2351546D01*
X2243970Y2335926D01*
X2255926Y2323970D01*
X2257875Y2323163D01*
Y1528696D01*
X2244233Y1515054D01*
X2231671Y1520453D01*
X2226030Y1534074D01*
X2214074Y1546030D01*
X2198454Y1552500D01*
X2181546D01*
X2179597Y1551693D01*
X2130645Y1600645D01*
X2123467Y1605441D01*
X2115000Y1607125D01*
X1294531D01*
X1286064Y1605441D01*
X1278886Y1600645D01*
X1180367Y1502125D01*
X1056837D01*
X1056030Y1504074D01*
X1044074Y1516030D01*
X1028454Y1522500D01*
X1011546D01*
X995926Y1516030D01*
X983970Y1504074D01*
X977500Y1488454D01*
Y1471546D01*
X978307Y1469597D01*
X884355Y1375645D01*
X879559Y1368467D01*
X877875Y1360000D01*
Y1266837D01*
X875926Y1266030D01*
X863970Y1254074D01*
X857500Y1238454D01*
Y1221546D01*
X863970Y1205926D01*
X875926Y1193970D01*
X891546Y1187500D01*
X908454D01*
X924074Y1193970D01*
X936030Y1205926D01*
X942500Y1221546D01*
Y1238454D01*
X936030Y1254074D01*
X924074Y1266030D01*
X922125Y1266837D01*
Y1350835D01*
X1009597Y1438308D01*
X1011546Y1437500D01*
X1028454D01*
X1044074Y1443970D01*
X1056030Y1455926D01*
X1056837Y1457875D01*
X1189532D01*
X1197998Y1459559D01*
X1205176Y1464355D01*
X1235767Y1494946D01*
X1248328Y1489546D01*
X1253970Y1475926D01*
X1265926Y1463970D01*
X1281546Y1457500D01*
X1298454D01*
X1314074Y1463970D01*
X1326030Y1475926D01*
X1332500Y1491546D01*
Y1508453D01*
X1326030Y1524074D01*
X1314074Y1536029D01*
X1300453Y1541671D01*
X1295054Y1554233D01*
X1303696Y1562875D01*
X2105836D01*
X2148307Y1520403D01*
X2147500Y1518454D01*
Y1501546D01*
X2153970Y1485926D01*
X2165926Y1473970D01*
X2179547Y1468329D01*
X2184946Y1455767D01*
X1684355Y955176D01*
X1679559Y947998D01*
X1677875Y939531D01*
Y396305D01*
X1661884Y392020D01*
X1639366Y379020D01*
X1620980Y360634D01*
X1607980Y338116D01*
X1601250Y313001D01*
Y286999D01*
X1607980Y261884D01*
X1620980Y239366D01*
X1639366Y220980D01*
X1661884Y207980D01*
X1686999Y201250D01*
X1713001D01*
X1738116Y207980D01*
X1760634Y220980D01*
X1779020Y239366D01*
X1785175Y250027D01*
X1797875Y246624D01*
Y199164D01*
X1770835Y172125D01*
X1609164D01*
X1533743Y247547D01*
X1542020Y261884D01*
X1548750Y286999D01*
Y313001D01*
X1542020Y338116D01*
X1529020Y360634D01*
X1510634Y379020D01*
X1488116Y392020D01*
X1463001Y398750D01*
X1436999D01*
X1411884Y392020D01*
X1389366Y379020D01*
X1370980Y360634D01*
X1357980Y338116D01*
X1351250Y313001D01*
Y286999D01*
X1357980Y261884D01*
X1370980Y239366D01*
X1389366Y220980D01*
X1411884Y207980D01*
X1436999Y201250D01*
X1463001D01*
X1488116Y207980D01*
X1502453Y216257D01*
X1584355Y134355D01*
X1591533Y129559D01*
X1600000Y127875D01*
X1780000D01*
X1788467Y129559D01*
X1795645Y134355D01*
X1835645Y174355D01*
X1840441Y181533D01*
X1842125Y190000D01*
Y271984D01*
X1854825Y273657D01*
X1857980Y261884D01*
X1870980Y239366D01*
X1889366Y220980D01*
X1911884Y207980D01*
X1936999Y201250D01*
X1963001D01*
X1988116Y207980D01*
X2010634Y220980D01*
X2014182Y224528D01*
X2094355Y144355D01*
X2101533Y139559D01*
X2110000Y137875D01*
X2300000D01*
X2308467Y139559D01*
X2315645Y144355D01*
X2335645Y164355D01*
X2340441Y171533D01*
X2342125Y180000D01*
Y271984D01*
X2354825Y273657D01*
X2357980Y261884D01*
X2370980Y239366D01*
X2389366Y220980D01*
X2411884Y207980D01*
X2436999Y201250D01*
X2463001D01*
X2488116Y207980D01*
X2502453Y216257D01*
X2624355Y94355D01*
X2631533Y89559D01*
X2640000Y87875D01*
X3940000D01*
X3948467Y89559D01*
X3955645Y94355D01*
X3985645Y124355D01*
X3990441Y131533D01*
X3992125Y140000D01*
Y640835D01*
X4199165Y847875D01*
X4453163D01*
X4453970Y845926D01*
X4465926Y833970D01*
X4481546Y827500D01*
X4498454D01*
X4514074Y833970D01*
X4526030Y845926D01*
X4532500Y861546D01*
Y878454D01*
X4526030Y894074D01*
X4514074Y906030D01*
X4498454Y912500D01*
X4481546D01*
X4465926Y906030D01*
X4453970Y894074D01*
X4453163Y892125D01*
X4190000D01*
X4181533Y890441D01*
X4174355Y885645D01*
X3954355Y665645D01*
X3949559Y658467D01*
X3947875Y650000D01*
Y149165D01*
X3930835Y132125D01*
X2649164D01*
X2533743Y247547D01*
X2542020Y261884D01*
X2548750Y286999D01*
Y313001D01*
X2542020Y338116D01*
X2529020Y360634D01*
X2510634Y379020D01*
X2488116Y392020D01*
X2463001Y398750D01*
X2436999D01*
X2411884Y392020D01*
X2389366Y379020D01*
X2370980Y360634D01*
X2357980Y338116D01*
X2354825Y326343D01*
X2342125Y328015D01*
Y380835D01*
X2411190Y449900D01*
X2702025D01*
X2710492Y451584D01*
X2717670Y456380D01*
X2929597Y668308D01*
X2931546Y667500D01*
X2948454D01*
X2964074Y673970D01*
X2976030Y685926D01*
X2982500Y701546D01*
Y718454D01*
X2976030Y734074D01*
X2964074Y746030D01*
X2948454Y752500D01*
X2931546D01*
X2915926Y746030D01*
X2903970Y734074D01*
X2897500Y718454D01*
Y701546D01*
X2898307Y699597D01*
X2692861Y494150D01*
X2402025D01*
X2393558Y492466D01*
X2386380Y487670D01*
X2304355Y405645D01*
X2299559Y398467D01*
X2297875Y390000D01*
Y353376D01*
X2285175Y349973D01*
X2279020Y360634D01*
X2260634Y379020D01*
X2238116Y392020D01*
X2213001Y398750D01*
X2186999D01*
X2161884Y392020D01*
X2139366Y379020D01*
X2120980Y360634D01*
X2107980Y338116D01*
X2101250Y313001D01*
Y286999D01*
X2107980Y261884D01*
X2120980Y239366D01*
X2139366Y220980D01*
X2161884Y207980D01*
X2186999Y201250D01*
X2213001D01*
X2238116Y207980D01*
X2260634Y220980D01*
X2279020Y239366D01*
X2285175Y250027D01*
X2297875Y246624D01*
Y189164D01*
X2290835Y182125D01*
X2119165D01*
X2041063Y260227D01*
X2042020Y261884D01*
X2048750Y286999D01*
Y313001D01*
X2042020Y338116D01*
X2029020Y360634D01*
X2010634Y379020D01*
X1988116Y392020D01*
X1963001Y398750D01*
X1936999D01*
X1911884Y392020D01*
X1889366Y379020D01*
X1870980Y360634D01*
X1857980Y338116D01*
X1854825Y326343D01*
X1842125Y328015D01*
Y350835D01*
X1997882Y506593D01*
X2192718D01*
X2201185Y508277D01*
X2208363Y513073D01*
X2370292Y675003D01*
X2383332Y667474D01*
X2407493Y661000D01*
X2432507D01*
X2456668Y667474D01*
X2478331Y679981D01*
X2496019Y697669D01*
X2508526Y719332D01*
X2515000Y743493D01*
Y768507D01*
X2508526Y792668D01*
X2500997Y805708D01*
X2525865Y830575D01*
X2597632D01*
X2602492Y818842D01*
X2597981Y814331D01*
X2585474Y792668D01*
X2579000Y768507D01*
Y743493D01*
X2585474Y719332D01*
X2597981Y697669D01*
X2615669Y679981D01*
X2637332Y667474D01*
X2661493Y661000D01*
X2686507D01*
X2710668Y667474D01*
X2732331Y679981D01*
X2750019Y697669D01*
X2762526Y719332D01*
X2769000Y743493D01*
Y768507D01*
X2762526Y792668D01*
X2750019Y814331D01*
X2745508Y818842D01*
X2750368Y830575D01*
X3072634D01*
X3081101Y832259D01*
X3088279Y837055D01*
X3226142Y974918D01*
X3237875Y970058D01*
Y946837D01*
X3235926Y946030D01*
X3223970Y934074D01*
X3217500Y918454D01*
Y901546D01*
X3223970Y885926D01*
X3235926Y873970D01*
X3251546Y867500D01*
X3268454D01*
X3284074Y873970D01*
X3296030Y885926D01*
X3302500Y901546D01*
Y918454D01*
X3296030Y934074D01*
X3284074Y946030D01*
X3282125Y946837D01*
Y961335D01*
X3290767Y964684D01*
X3294825Y965071D01*
X3305926Y953970D01*
X3321546Y947500D01*
X3338454D01*
X3354074Y953970D01*
X3366030Y965926D01*
X3372500Y981546D01*
Y998453D01*
X3370573Y1003104D01*
X3502296Y1134827D01*
X4062515D01*
X4075195Y1122147D01*
X4081497Y1117936D01*
X4088930Y1116458D01*
X4965881D01*
X4973314Y1117936D01*
X4979615Y1122147D01*
X5047841Y1190372D01*
X5053897Y1194419D01*
X5125569Y1266090D01*
X5129615Y1272147D01*
X5286321Y1428852D01*
X5299021Y1423592D01*
Y1020000D01*
X5302901Y1000491D01*
X5313952Y983952D01*
X5330491Y972901D01*
X5350000Y969021D01*
X5677640D01*
Y840234D01*
X5679325Y831767D01*
X5684121Y824589D01*
X5954355Y554355D01*
X5961533Y549559D01*
X5970000Y547875D01*
X6280836D01*
X6334355Y494355D01*
X6341533Y489559D01*
X6350000Y487875D01*
X7550000D01*
X7558467Y489559D01*
X7565645Y494355D01*
X7659597Y588307D01*
X7661546Y587500D01*
X7678454D01*
X7694074Y593970D01*
X7706030Y605926D01*
X7712500Y621546D01*
Y638453D01*
X7711692Y640403D01*
X7734365Y663075D01*
X7911124D01*
X7911931Y661126D01*
X7923887Y649170D01*
X7939507Y642700D01*
X7956414D01*
X7972035Y649170D01*
X7983990Y661126D01*
X7990461Y676746D01*
Y693653D01*
X7983990Y709274D01*
X7972035Y721229D01*
X7956414Y727700D01*
X7939507D01*
X7923887Y721229D01*
X7911931Y709274D01*
X7911124Y707325D01*
X7756014D01*
X7751154Y719058D01*
X7756048Y723952D01*
X7767099Y740491D01*
X7770979Y760000D01*
Y796377D01*
X7783623Y809020D01*
X7990000Y809020D01*
X8009509Y812901D01*
X8015175Y816686D01*
X8027875Y809898D01*
Y618189D01*
X8019528Y607900D01*
X8000472D01*
X7982867Y600607D01*
X7969392Y587133D01*
X7962100Y569528D01*
Y550472D01*
X7969392Y532867D01*
X7982867Y519392D01*
X8000472Y512100D01*
X8019528D01*
X8037133Y519392D01*
X8050607Y532867D01*
X8057900Y550472D01*
Y569528D01*
X8055825Y574536D01*
X8065000Y583710D01*
X8074175Y574536D01*
X8072100Y569528D01*
Y550472D01*
X8079393Y532867D01*
X8092867Y519392D01*
X8110472Y512100D01*
X8129528D01*
X8147133Y519392D01*
X8160608Y532867D01*
X8167900Y550472D01*
Y569528D01*
X8160608Y587133D01*
X8147133Y600607D01*
X8129528Y607900D01*
X8110472D01*
X8102125Y618189D01*
Y809898D01*
X8114825Y816687D01*
X8120491Y812901D01*
X8140000Y809020D01*
X9700000D01*
X9719509Y812901D01*
X9736048Y823952D01*
X9796048Y883952D01*
X9807099Y900491D01*
X9810979Y920000D01*
Y1370000D01*
X9807099Y1389509D01*
X9796048Y1406048D01*
X9725210Y1476886D01*
X9725833Y1489571D01*
X9739342Y1500658D01*
X9761211Y1527305D01*
X9777461Y1557706D01*
X9787468Y1590694D01*
X9790847Y1625000D01*
Y1875000D01*
X9787468Y1909306D01*
X9777461Y1942294D01*
X9761211Y1972695D01*
X9739342Y1999342D01*
X9717730Y2017079D01*
X9716862Y2019097D01*
Y2030903D01*
X9717730Y2032921D01*
X9739342Y2050658D01*
X9761211Y2077305D01*
X9777461Y2107706D01*
X9787468Y2140694D01*
X9790847Y2175000D01*
Y2425000D01*
X9787468Y2459306D01*
X9777461Y2492294D01*
X9770979Y2504421D01*
Y2610000D01*
X9767099Y2629509D01*
X9756048Y2646048D01*
X9706048Y2696048D01*
X9689509Y2707099D01*
X9670000Y2710980D01*
X8580000D01*
X8560491Y2707099D01*
X8543952Y2696048D01*
X8468883Y2620980D01*
X8157900D01*
Y2639528D01*
X8150608Y2657133D01*
X8137133Y2670607D01*
X8119528Y2677900D01*
X8100472D01*
X8082867Y2670607D01*
X8069393Y2657133D01*
X8062100Y2639528D01*
Y2620472D01*
X8064441Y2614820D01*
X8064436Y2614814D01*
X8047046Y2614244D01*
X8045825Y2615464D01*
X8047900Y2620472D01*
Y2639528D01*
X8040607Y2657133D01*
X8027133Y2670607D01*
X8009528Y2677900D01*
X7990472D01*
X7972867Y2670607D01*
X7959393Y2657133D01*
X7952100Y2639528D01*
Y2620980D01*
X7751116D01*
X7590979Y2781116D01*
Y2880000D01*
X7587099Y2899509D01*
X7576048Y2916048D01*
X7556048Y2936048D01*
X7539509Y2947099D01*
X7520000Y2950980D01*
X7036665D01*
X7017156Y2947099D01*
X7000617Y2936048D01*
X6989566Y2919509D01*
X6985685Y2900000D01*
Y2583335D01*
X6989566Y2563826D01*
X7000617Y2547287D01*
X7005191Y2542713D01*
X7000330Y2530980D01*
X6510000D01*
X6490491Y2527099D01*
X6473952Y2516048D01*
X6333952Y2376048D01*
X6322900Y2359509D01*
X6319020Y2340000D01*
X6319020Y2250000D01*
X6322901Y2230491D01*
X6333952Y2213952D01*
X6380712Y2167192D01*
X6397251Y2156141D01*
X6416760Y2152260D01*
X7028236D01*
X7040000Y2150000D01*
Y2118094D01*
X7034996Y2117099D01*
X7018457Y2106048D01*
X7000617Y2088208D01*
X6989566Y2071669D01*
X6985685Y2052160D01*
Y1773335D01*
X6989566Y1753826D01*
X6996345Y1743680D01*
X6989557Y1730980D01*
X6520000D01*
X6500491Y1727099D01*
X6483952Y1716048D01*
X6343951Y1576048D01*
X6332900Y1559509D01*
X6329020Y1540000D01*
X6329020Y1450000D01*
X6332901Y1430491D01*
X6343952Y1413952D01*
X6390712Y1367192D01*
X6407251Y1356141D01*
X6426760Y1352260D01*
X7002203D01*
X7007464Y1339560D01*
X7000617Y1332713D01*
X6989566Y1316174D01*
X6985685Y1296665D01*
Y953335D01*
X6987606Y943680D01*
X6977356Y930980D01*
X6510000D01*
X6490491Y927099D01*
X6473952Y916048D01*
X6333952Y776048D01*
X6322900Y759509D01*
X6319020Y740000D01*
X6319020Y650000D01*
X6322901Y630491D01*
X6333952Y613952D01*
X6380712Y567192D01*
X6397251Y556141D01*
X6416760Y552260D01*
X7168735D01*
X7188244Y556141D01*
X7204782Y567191D01*
X7210181Y567723D01*
X7223952Y553952D01*
X7237611Y544825D01*
X7234522Y532125D01*
X6359165D01*
X6305645Y585645D01*
X6298467Y590441D01*
X6290000Y592125D01*
X5979165D01*
X5722978Y848311D01*
X5724219Y859684D01*
X5735674Y864222D01*
X5735926Y863970D01*
X5751546Y857500D01*
X5768454D01*
X5784074Y863970D01*
X5796030Y875926D01*
X5802500Y891546D01*
Y908454D01*
X5796030Y924074D01*
X5784074Y936030D01*
X5782125Y936837D01*
Y985162D01*
X5895645Y1098682D01*
X5900441Y1105860D01*
X5902125Y1114327D01*
Y1350835D01*
X6245645Y1694355D01*
X6250441Y1701533D01*
X6252125Y1710000D01*
Y3210835D01*
X6319165Y3277875D01*
X7331237D01*
X7667857Y2941255D01*
X7675035Y2936459D01*
X7683502Y2934775D01*
X7774404D01*
X7841724Y2867455D01*
X7848902Y2862659D01*
X7857369Y2860974D01*
X8082535D01*
X8091002Y2862659D01*
X8098180Y2867455D01*
X8178600Y2947875D01*
X8390835D01*
X8408307Y2930403D01*
X8407500Y2928453D01*
Y2911546D01*
X8413970Y2895926D01*
X8425926Y2883970D01*
X8441546Y2877500D01*
X8458453D01*
X8474074Y2883970D01*
X8486030Y2895926D01*
X8492500Y2911546D01*
Y2928453D01*
X8486030Y2944074D01*
X8474074Y2956029D01*
X8458453Y2962500D01*
X8441546D01*
X8439597Y2961692D01*
X8415645Y2985645D01*
X8408467Y2990441D01*
X8400000Y2992125D01*
X8169436D01*
X8160969Y2990441D01*
X8153791Y2985645D01*
X8105200Y2937054D01*
X8092500Y2942314D01*
Y2948453D01*
X8086030Y2964074D01*
X8074074Y2976029D01*
X8072125Y2976837D01*
Y4610000D01*
X8070441Y4618467D01*
X8065645Y4625645D01*
X7975645Y4715645D01*
X7968467Y4720441D01*
X7960000Y4722125D01*
D02*
G37*
G36*
X4173001Y4588750D02*
X4146999D01*
X4121884Y4582020D01*
X4099366Y4569020D01*
X4080980Y4550634D01*
X4067980Y4528116D01*
X4061250Y4503001D01*
Y4476999D01*
X4067980Y4451884D01*
X4080980Y4429366D01*
X4099366Y4410980D01*
X4121884Y4397980D01*
X4146999Y4391250D01*
X4173001D01*
X4198116Y4397980D01*
X4220634Y4410980D01*
X4239020Y4429366D01*
X4252020Y4451884D01*
X4258750Y4476999D01*
Y4503001D01*
X4252020Y4528116D01*
X4239020Y4550634D01*
X4220634Y4569020D01*
X4198116Y4582020D01*
X4173001Y4588750D01*
D02*
G37*
G36*
X3923001D02*
X3896999D01*
X3871884Y4582020D01*
X3849366Y4569020D01*
X3830980Y4550634D01*
X3817980Y4528116D01*
X3811250Y4503001D01*
Y4476999D01*
X3817980Y4451884D01*
X3830980Y4429366D01*
X3849366Y4410980D01*
X3871884Y4397980D01*
X3896999Y4391250D01*
X3923001D01*
X3948116Y4397980D01*
X3970634Y4410980D01*
X3989020Y4429366D01*
X4002020Y4451884D01*
X4008750Y4476999D01*
Y4503001D01*
X4002020Y4528116D01*
X3989020Y4550634D01*
X3970634Y4569020D01*
X3948116Y4582020D01*
X3923001Y4588750D01*
D02*
G37*
G36*
X3673001D02*
X3646999D01*
X3621884Y4582020D01*
X3599366Y4569020D01*
X3580980Y4550634D01*
X3567980Y4528116D01*
X3561250Y4503001D01*
Y4476999D01*
X3567980Y4451884D01*
X3580980Y4429366D01*
X3599366Y4410980D01*
X3621884Y4397980D01*
X3646999Y4391250D01*
X3673001D01*
X3698116Y4397980D01*
X3720634Y4410980D01*
X3739020Y4429366D01*
X3752020Y4451884D01*
X3758750Y4476999D01*
Y4503001D01*
X3752020Y4528116D01*
X3739020Y4550634D01*
X3720634Y4569020D01*
X3698116Y4582020D01*
X3673001Y4588750D01*
D02*
G37*
G36*
X2723001D02*
X2696999D01*
X2671884Y4582020D01*
X2649366Y4569020D01*
X2630980Y4550634D01*
X2617980Y4528116D01*
X2611250Y4503001D01*
Y4476999D01*
X2617980Y4451884D01*
X2630980Y4429366D01*
X2649366Y4410980D01*
X2671884Y4397980D01*
X2696999Y4391250D01*
X2723001D01*
X2748116Y4397980D01*
X2770634Y4410980D01*
X2789020Y4429366D01*
X2802020Y4451884D01*
X2808750Y4476999D01*
Y4503001D01*
X2802020Y4528116D01*
X2789020Y4550634D01*
X2770634Y4569020D01*
X2748116Y4582020D01*
X2723001Y4588750D01*
D02*
G37*
G36*
X2473001D02*
X2446999D01*
X2421884Y4582020D01*
X2399366Y4569020D01*
X2380980Y4550634D01*
X2367980Y4528116D01*
X2361250Y4503001D01*
Y4476999D01*
X2367980Y4451884D01*
X2380980Y4429366D01*
X2399366Y4410980D01*
X2421884Y4397980D01*
X2446999Y4391250D01*
X2473001D01*
X2498116Y4397980D01*
X2520634Y4410980D01*
X2539020Y4429366D01*
X2552020Y4451884D01*
X2558750Y4476999D01*
Y4503001D01*
X2552020Y4528116D01*
X2539020Y4550634D01*
X2520634Y4569020D01*
X2498116Y4582020D01*
X2473001Y4588750D01*
D02*
G37*
G36*
X2223001D02*
X2196999D01*
X2171884Y4582020D01*
X2149366Y4569020D01*
X2130980Y4550634D01*
X2117980Y4528116D01*
X2111250Y4503001D01*
Y4476999D01*
X2117980Y4451884D01*
X2130980Y4429366D01*
X2149366Y4410980D01*
X2171884Y4397980D01*
X2196999Y4391250D01*
X2223001D01*
X2248116Y4397980D01*
X2270634Y4410980D01*
X2289020Y4429366D01*
X2302020Y4451884D01*
X2308750Y4476999D01*
Y4503001D01*
X2302020Y4528116D01*
X2289020Y4550634D01*
X2270634Y4569020D01*
X2248116Y4582020D01*
X2223001Y4588750D01*
D02*
G37*
G36*
X1338507Y4575000D02*
X1313493D01*
X1289331Y4568526D01*
X1267669Y4556019D01*
X1249981Y4538331D01*
X1237474Y4516668D01*
X1231000Y4492507D01*
Y4467493D01*
X1237474Y4443331D01*
X1249981Y4421669D01*
X1267669Y4403981D01*
X1289331Y4391474D01*
X1303875Y4387577D01*
Y4353613D01*
X1215884Y4265622D01*
X1215645Y4265645D01*
X1108023Y4373267D01*
X1112883Y4385000D01*
X1167000D01*
Y4575000D01*
X977000D01*
Y4385000D01*
X1049875D01*
Y4378000D01*
X1051559Y4369534D01*
X1056355Y4362356D01*
X1177875Y4240836D01*
Y3520000D01*
X1179559Y3511533D01*
X1184355Y3504355D01*
X1432354Y3256356D01*
X1439532Y3251560D01*
X1447999Y3249876D01*
X2680835D01*
X3033886Y2896825D01*
Y2531037D01*
X3035571Y2522570D01*
X3040367Y2515392D01*
X3259028Y2296731D01*
X3266206Y2291935D01*
X3274672Y2290251D01*
X3344604D01*
X3353071Y2291935D01*
X3356199Y2294026D01*
X3624104D01*
X3627250Y2290880D01*
X3642870Y2284410D01*
X3659777D01*
X3674104Y2290344D01*
X3680212Y2275599D01*
X3692167Y2263643D01*
X3707788Y2257173D01*
X3724695D01*
X3740315Y2263643D01*
X3752271Y2275599D01*
X3758741Y2291219D01*
Y2308126D01*
X3752271Y2323747D01*
X3749757Y2326261D01*
X3749382Y2328146D01*
X3744586Y2335324D01*
X3733208Y2346702D01*
Y2347751D01*
X3731524Y2356218D01*
X3726728Y2363396D01*
X3561779Y2528344D01*
X3554601Y2533140D01*
X3546134Y2534825D01*
X3309537D01*
X3308730Y2536774D01*
X3296774Y2548729D01*
X3281154Y2555199D01*
X3264247D01*
X3248626Y2548729D01*
X3236671Y2536774D01*
X3230201Y2521153D01*
Y2504246D01*
X3236671Y2488625D01*
X3248626Y2476670D01*
X3264247Y2470200D01*
X3281154D01*
X3296774Y2476670D01*
X3308730Y2488625D01*
X3309537Y2490574D01*
X3536969D01*
X3599293Y2428251D01*
X3594032Y2415551D01*
X3586898D01*
X3571278Y2409081D01*
X3559322Y2397125D01*
X3552852Y2381505D01*
Y2366276D01*
X3511922D01*
X3506858Y2378976D01*
X3512500Y2392597D01*
Y2409504D01*
X3506030Y2425125D01*
X3494074Y2437080D01*
X3478454Y2443551D01*
X3461546D01*
X3445926Y2437080D01*
X3433970Y2425125D01*
X3427500Y2409504D01*
Y2392597D01*
X3433142Y2378976D01*
X3428077Y2366276D01*
X3336780D01*
X3328313Y2364592D01*
X3325185Y2362501D01*
X3295435D01*
X3106137Y2551800D01*
Y2919342D01*
X3104453Y2927809D01*
X3099656Y2934987D01*
X2718997Y3315646D01*
X2711819Y3320442D01*
X2703352Y3322126D01*
X1468761D01*
X1250125Y3540763D01*
Y4237283D01*
X1341645Y4328803D01*
X1346441Y4335981D01*
X1348125Y4344448D01*
Y4387577D01*
X1362668Y4391474D01*
X1384331Y4403981D01*
X1402019Y4421669D01*
X1414525Y4443331D01*
X1421000Y4467493D01*
Y4492507D01*
X1414525Y4516668D01*
X1402019Y4538331D01*
X1384331Y4556019D01*
X1362668Y4568526D01*
X1338507Y4575000D01*
D02*
G37*
G36*
X3278454Y4192500D02*
X3261546D01*
X3245926Y4186029D01*
X3233970Y4174074D01*
X3227500Y4158453D01*
Y4141546D01*
X3228307Y4139597D01*
X2800836Y3712125D01*
X2537496D01*
X2536435Y3714687D01*
X2524479Y3726643D01*
X2508859Y3733113D01*
X2491952D01*
X2476331Y3726643D01*
X2464376Y3714687D01*
X2457905Y3699067D01*
Y3682160D01*
X2464376Y3666539D01*
X2476331Y3654583D01*
X2491952Y3648113D01*
X2508859D01*
X2524479Y3654583D01*
X2536435Y3666539D01*
X2536988Y3667875D01*
X2810000D01*
X2818467Y3669559D01*
X2825645Y3674355D01*
X3259597Y4108307D01*
X3261546Y4107500D01*
X3278454D01*
X3294074Y4113970D01*
X3306030Y4125926D01*
X3312500Y4141546D01*
Y4158453D01*
X3306030Y4174074D01*
X3294074Y4186029D01*
X3278454Y4192500D01*
D02*
G37*
G36*
X748454Y4172500D02*
X731546D01*
X715926Y4166030D01*
X703970Y4154074D01*
X697500Y4138454D01*
Y4121546D01*
X703970Y4105926D01*
X715926Y4093970D01*
X731546Y4087500D01*
X748454D01*
X764074Y4093970D01*
X776030Y4105926D01*
X782500Y4121546D01*
Y4138454D01*
X776030Y4154074D01*
X764074Y4166030D01*
X748454Y4172500D01*
D02*
G37*
G36*
X3128454Y4172500D02*
X3111546D01*
X3095926Y4166030D01*
X3083970Y4154074D01*
X3077500Y4138453D01*
Y4121546D01*
X3083970Y4105926D01*
X3095926Y4093970D01*
X3111546Y4087500D01*
X3128454D01*
X3144074Y4093970D01*
X3156030Y4105926D01*
X3162500Y4121546D01*
Y4138453D01*
X3156030Y4154074D01*
X3144074Y4166030D01*
X3128454Y4172500D01*
D02*
G37*
G36*
X5038454Y4092500D02*
X5021546D01*
X5005926Y4086030D01*
X4993970Y4074074D01*
X4987500Y4058454D01*
Y4041546D01*
X4993970Y4025926D01*
X5005926Y4013970D01*
X5021546Y4007500D01*
X5038454D01*
X5054074Y4013970D01*
X5066030Y4025926D01*
X5072500Y4041546D01*
Y4058454D01*
X5066030Y4074074D01*
X5054074Y4086030D01*
X5038454Y4092500D01*
D02*
G37*
G36*
X5368454Y4042500D02*
X5351546D01*
X5335926Y4036030D01*
X5323970Y4024074D01*
X5317500Y4008454D01*
Y3991546D01*
X5323970Y3975926D01*
X5335926Y3963970D01*
X5351546Y3957500D01*
X5368454D01*
X5384074Y3963970D01*
X5396030Y3975926D01*
X5402500Y3991546D01*
Y4008454D01*
X5396030Y4024074D01*
X5384074Y4036030D01*
X5368454Y4042500D01*
D02*
G37*
G36*
X4308454Y3732500D02*
X4291546D01*
X4275926Y3726030D01*
X4263970Y3714074D01*
X4257500Y3698454D01*
Y3681546D01*
X4263970Y3665926D01*
X4275926Y3653970D01*
X4291546Y3647500D01*
X4308454D01*
X4324074Y3653970D01*
X4336030Y3665926D01*
X4342500Y3681546D01*
Y3698454D01*
X4336030Y3714074D01*
X4324074Y3726030D01*
X4308454Y3732500D01*
D02*
G37*
G36*
X623001Y3828750D02*
X596999D01*
X571884Y3822020D01*
X549366Y3809020D01*
X530980Y3790634D01*
X517980Y3768116D01*
X511250Y3743001D01*
Y3716999D01*
X517980Y3691884D01*
X530980Y3669366D01*
X549366Y3650980D01*
X571884Y3637980D01*
X596999Y3631250D01*
X623001D01*
X648116Y3637980D01*
X670634Y3650980D01*
X689020Y3669366D01*
X702020Y3691884D01*
X708750Y3716999D01*
Y3743001D01*
X702020Y3768116D01*
X689020Y3790634D01*
X670634Y3809020D01*
X648116Y3822020D01*
X623001Y3828750D01*
D02*
G37*
G36*
X1458454Y4202500D02*
X1441546D01*
X1425926Y4196030D01*
X1413970Y4184074D01*
X1407500Y4168454D01*
Y4151546D01*
X1413970Y4135926D01*
X1425926Y4123970D01*
X1427875Y4123163D01*
Y3800000D01*
X1429559Y3791533D01*
X1434355Y3784355D01*
X1494355Y3724355D01*
X1501533Y3719559D01*
X1510000Y3717875D01*
X1620356D01*
X1713875Y3624355D01*
X1721053Y3619559D01*
X1729520Y3617875D01*
X1873163D01*
X1873970Y3615926D01*
X1885926Y3603970D01*
X1901546Y3597500D01*
X1918454D01*
X1934074Y3603970D01*
X1946030Y3615926D01*
X1952500Y3631546D01*
Y3648454D01*
X1946030Y3664074D01*
X1934074Y3676030D01*
X1918454Y3682500D01*
X1901546D01*
X1885926Y3676030D01*
X1873970Y3664074D01*
X1873163Y3662125D01*
X1738685D01*
X1645165Y3755645D01*
X1637987Y3760441D01*
X1629520Y3762125D01*
X1519165D01*
X1472125Y3809165D01*
Y4123163D01*
X1474074Y4123970D01*
X1486030Y4135926D01*
X1492500Y4151546D01*
Y4168454D01*
X1486030Y4184074D01*
X1474074Y4196030D01*
X1458454Y4202500D01*
D02*
G37*
G36*
X3468123Y3790468D02*
X3451216D01*
X3435596Y3783998D01*
X3423640Y3772043D01*
X3417170Y3756422D01*
Y3739515D01*
X3423640Y3723895D01*
X3435575Y3711960D01*
Y3596759D01*
X3434804Y3596267D01*
X3422875Y3592865D01*
X3413481Y3602259D01*
X3397860Y3608729D01*
X3380953D01*
X3365333Y3602259D01*
X3353377Y3590304D01*
X3346907Y3574683D01*
Y3557776D01*
X3353377Y3542155D01*
X3365332Y3530200D01*
X3366370Y3517659D01*
X3250403Y3401692D01*
X3248454Y3402500D01*
X3231546D01*
X3215926Y3396030D01*
X3203970Y3384074D01*
X3197500Y3368454D01*
Y3351546D01*
X3203970Y3335926D01*
X3215926Y3323970D01*
X3231546Y3317500D01*
X3248454D01*
X3264074Y3323970D01*
X3276030Y3335926D01*
X3282500Y3351546D01*
Y3368454D01*
X3281693Y3370403D01*
X3390829Y3479539D01*
X3403883Y3474779D01*
X3405226Y3466516D01*
X3386181Y3447471D01*
X3381385Y3440293D01*
X3379701Y3431826D01*
Y3420991D01*
X3360403Y3401692D01*
X3358454Y3402500D01*
X3341546D01*
X3325926Y3396030D01*
X3313970Y3384074D01*
X3307500Y3368454D01*
Y3351546D01*
X3313970Y3335926D01*
X3325926Y3323970D01*
X3341546Y3317500D01*
X3358454D01*
X3374074Y3323970D01*
X3386030Y3335926D01*
X3392500Y3351546D01*
Y3368454D01*
X3391692Y3370403D01*
X3417471Y3396181D01*
X3422267Y3403359D01*
X3423951Y3411826D01*
Y3422662D01*
X3439597Y3438307D01*
X3441546Y3437500D01*
X3458454D01*
X3474074Y3443970D01*
X3486030Y3455926D01*
X3492500Y3471546D01*
Y3488454D01*
X3486030Y3504074D01*
X3474074Y3516030D01*
X3458454Y3522500D01*
X3441546D01*
X3427991Y3516885D01*
X3418674Y3520608D01*
X3415072Y3522883D01*
X3414851Y3523901D01*
X3414611Y3531330D01*
X3425436Y3542155D01*
X3431907Y3557776D01*
Y3569325D01*
X3434579Y3571255D01*
X3444607Y3574104D01*
X3734355Y3284355D01*
X3741533Y3279559D01*
X3750000Y3277875D01*
X4320000D01*
X4328467Y3279559D01*
X4335645Y3284355D01*
X4389597Y3338307D01*
X4391546Y3337500D01*
X4408454D01*
X4424074Y3343970D01*
X4436030Y3355926D01*
X4442500Y3371546D01*
Y3388453D01*
X4436030Y3404074D01*
X4424074Y3416029D01*
X4408454Y3422500D01*
X4391546D01*
X4375926Y3416029D01*
X4363970Y3404074D01*
X4357500Y3388453D01*
Y3371546D01*
X4358308Y3369597D01*
X4310836Y3322125D01*
X3759164D01*
X3479825Y3601464D01*
Y3710316D01*
X3483744Y3711939D01*
X3495699Y3723895D01*
X3502170Y3739515D01*
Y3756422D01*
X3495699Y3772043D01*
X3483744Y3783998D01*
X3468123Y3790468D01*
D02*
G37*
G36*
X623001Y3578748D02*
X596999D01*
X571884Y3572018D01*
X549366Y3559018D01*
X530980Y3540632D01*
X517980Y3518114D01*
X511250Y3492999D01*
Y3466997D01*
X517980Y3441882D01*
X530980Y3419364D01*
X549366Y3400978D01*
X571884Y3387977D01*
X596999Y3381248D01*
X623001D01*
X648116Y3387977D01*
X670634Y3400978D01*
X689020Y3419364D01*
X702020Y3441882D01*
X708750Y3466997D01*
Y3492999D01*
X702020Y3518114D01*
X689020Y3540632D01*
X670634Y3559018D01*
X648116Y3572018D01*
X623001Y3578748D01*
D02*
G37*
G36*
X9871520Y4130000D02*
X9091520D01*
Y3350000D01*
X9871520D01*
Y4130000D01*
D02*
G37*
G36*
X3938454Y3532500D02*
X3921546D01*
X3905926Y3526030D01*
X3893970Y3514074D01*
X3887500Y3498454D01*
Y3481546D01*
X3893970Y3465926D01*
X3905926Y3453970D01*
X3921546Y3447500D01*
X3938454D01*
X3942335Y3449108D01*
X3957087Y3434355D01*
X3964265Y3429559D01*
X3972732Y3427875D01*
X4130016D01*
X4183735Y3374156D01*
X4190913Y3369360D01*
X4199380Y3367675D01*
X4213155D01*
X4213962Y3365726D01*
X4225917Y3353771D01*
X4241538Y3347301D01*
X4258445D01*
X4274066Y3353771D01*
X4286021Y3365726D01*
X4292491Y3381347D01*
Y3398254D01*
X4286021Y3413875D01*
X4274066Y3425830D01*
X4258445Y3432300D01*
X4241538D01*
X4225917Y3425830D01*
X4213962Y3413875D01*
X4202084Y3418386D01*
X4154825Y3465645D01*
X4147647Y3470441D01*
X4139180Y3472125D01*
X3981897D01*
X3972493Y3481529D01*
X3972500Y3481546D01*
Y3498454D01*
X3966030Y3514074D01*
X3954074Y3526030D01*
X3938454Y3532500D01*
D02*
G37*
G36*
X3678454Y3232500D02*
X3661546D01*
X3645926Y3226030D01*
X3633970Y3214074D01*
X3627500Y3198454D01*
Y3181546D01*
X3633970Y3165926D01*
X3645926Y3153970D01*
X3661546Y3147500D01*
X3678454D01*
X3694074Y3153970D01*
X3706030Y3165926D01*
X3712500Y3181546D01*
Y3198454D01*
X3706030Y3214074D01*
X3694074Y3226030D01*
X3678454Y3232500D01*
D02*
G37*
G36*
X1008454Y3092500D02*
X991546D01*
X975926Y3086030D01*
X963970Y3074074D01*
X957500Y3058454D01*
Y3041546D01*
X960393Y3034562D01*
X950673Y3024842D01*
X943688Y3027735D01*
X926781D01*
X911161Y3021264D01*
X899205Y3009309D01*
X892735Y2993688D01*
Y2976781D01*
X899205Y2961161D01*
X911161Y2949205D01*
X926781Y2942735D01*
X943688D01*
X959309Y2949205D01*
X971265Y2961161D01*
X977735Y2976781D01*
Y2993688D01*
X974842Y3000673D01*
X984562Y3010393D01*
X991546Y3007500D01*
X1008454D01*
X1024074Y3013970D01*
X1036030Y3025926D01*
X1042500Y3041546D01*
Y3058454D01*
X1036030Y3074074D01*
X1024074Y3086030D01*
X1008454Y3092500D01*
D02*
G37*
G36*
X868688Y3102734D02*
X851781D01*
X836161Y3096264D01*
X824205Y3084309D01*
X817735Y3068688D01*
Y3051781D01*
X824205Y3036161D01*
X836161Y3024205D01*
X851781Y3017735D01*
X868688D01*
X884309Y3024205D01*
X896264Y3036161D01*
X902735Y3051781D01*
Y3068688D01*
X896264Y3084309D01*
X884309Y3096264D01*
X868688Y3102734D01*
D02*
G37*
G36*
X1158454Y3092500D02*
X1141546D01*
X1125926Y3086030D01*
X1113970Y3074074D01*
X1107500Y3058454D01*
Y3041546D01*
X1113970Y3025926D01*
X1125926Y3013970D01*
X1141546Y3007500D01*
X1158454D01*
X1174074Y3013970D01*
X1186030Y3025926D01*
X1192500Y3041546D01*
Y3058454D01*
X1186030Y3074074D01*
X1174074Y3086030D01*
X1158454Y3092500D01*
D02*
G37*
G36*
X3348454Y3072500D02*
X3331546D01*
X3315926Y3066029D01*
X3303970Y3054074D01*
X3297500Y3038453D01*
Y3021546D01*
X3303970Y3005926D01*
X3315926Y2993970D01*
X3331546Y2987500D01*
X3348454D01*
X3364074Y2993970D01*
X3376030Y3005926D01*
X3382500Y3021546D01*
Y3038453D01*
X3376030Y3054074D01*
X3364074Y3066029D01*
X3348454Y3072500D01*
D02*
G37*
G36*
X1083454Y3017500D02*
X1066546D01*
X1050926Y3011030D01*
X1038970Y2999074D01*
X1032500Y2983454D01*
Y2966546D01*
X1035559Y2959161D01*
X1025839Y2949441D01*
X1018454Y2952500D01*
X1001546D01*
X985926Y2946030D01*
X973970Y2934074D01*
X967500Y2918454D01*
Y2901546D01*
X973970Y2885926D01*
X985926Y2873970D01*
X1001546Y2867500D01*
X1018454D01*
X1034074Y2873970D01*
X1046030Y2885926D01*
X1052500Y2901546D01*
Y2918454D01*
X1049441Y2925839D01*
X1059161Y2935559D01*
X1066546Y2932500D01*
X1083454D01*
X1099074Y2938970D01*
X1111030Y2950926D01*
X1117500Y2966546D01*
Y2983454D01*
X1111030Y2999074D01*
X1099074Y3011030D01*
X1083454Y3017500D01*
D02*
G37*
G36*
X1233454D02*
X1216546D01*
X1200926Y3011030D01*
X1188970Y2999074D01*
X1182500Y2983454D01*
Y2966546D01*
X1188970Y2950926D01*
X1200926Y2938970D01*
X1216546Y2932500D01*
X1233454D01*
X1249074Y2938970D01*
X1261030Y2950926D01*
X1267500Y2966546D01*
Y2983454D01*
X1261030Y2999074D01*
X1249074Y3011030D01*
X1233454Y3017500D01*
D02*
G37*
G36*
X1158454Y2942500D02*
X1141546D01*
X1125926Y2936030D01*
X1113970Y2924074D01*
X1107500Y2908454D01*
Y2891546D01*
X1110393Y2884562D01*
X1100673Y2874842D01*
X1093688Y2877735D01*
X1076781D01*
X1061161Y2871265D01*
X1049205Y2859309D01*
X1042735Y2843688D01*
Y2826781D01*
X1049205Y2811161D01*
X1061161Y2799205D01*
X1076781Y2792735D01*
X1093688D01*
X1109309Y2799205D01*
X1121264Y2811161D01*
X1127735Y2826781D01*
Y2843688D01*
X1124842Y2850673D01*
X1134562Y2860393D01*
X1141546Y2857500D01*
X1158454D01*
X1174074Y2863970D01*
X1186030Y2875926D01*
X1192500Y2891546D01*
Y2908454D01*
X1186030Y2924074D01*
X1174074Y2936030D01*
X1158454Y2942500D01*
D02*
G37*
G36*
X858454D02*
X841546D01*
X825926Y2936030D01*
X813970Y2924074D01*
X807500Y2908454D01*
Y2891546D01*
X813970Y2875926D01*
X825926Y2863970D01*
X841546Y2857500D01*
X858454D01*
X874074Y2863970D01*
X886030Y2875926D01*
X892500Y2891546D01*
Y2908454D01*
X886030Y2924074D01*
X874074Y2936030D01*
X858454Y2942500D01*
D02*
G37*
G36*
X1278453Y2907500D02*
X1261545D01*
X1245925Y2901030D01*
X1233969Y2889074D01*
X1227499Y2873454D01*
Y2856546D01*
X1233969Y2840926D01*
X1245925Y2828970D01*
X1261545Y2822500D01*
X1278453D01*
X1294073Y2828970D01*
X1306029Y2840926D01*
X1312499Y2856546D01*
Y2873454D01*
X1306029Y2889074D01*
X1294073Y2901030D01*
X1278453Y2907500D01*
D02*
G37*
G36*
X933454Y2867500D02*
X916546D01*
X900926Y2861030D01*
X888970Y2849074D01*
X882500Y2833454D01*
Y2816546D01*
X888970Y2800926D01*
X900926Y2788970D01*
X916546Y2782500D01*
X933454D01*
X949074Y2788970D01*
X961030Y2800926D01*
X967500Y2816546D01*
Y2833454D01*
X961030Y2849074D01*
X949074Y2861030D01*
X933454Y2867500D01*
D02*
G37*
G36*
X3218454Y2762500D02*
X3201546D01*
X3185926Y2756030D01*
X3173970Y2744074D01*
X3167500Y2728454D01*
Y2711546D01*
X3173970Y2695926D01*
X3185926Y2683970D01*
X3201546Y2677500D01*
X3218454D01*
X3234074Y2683970D01*
X3246030Y2695926D01*
X3252500Y2711546D01*
Y2728454D01*
X3246030Y2744074D01*
X3234074Y2756030D01*
X3218454Y2762500D01*
D02*
G37*
G36*
X3818454Y2662500D02*
X3801546D01*
X3785926Y2656029D01*
X3773970Y2644074D01*
X3767500Y2628453D01*
Y2611546D01*
X3773970Y2595926D01*
X3785926Y2583970D01*
X3801546Y2577500D01*
X3818454D01*
X3834074Y2583970D01*
X3846030Y2595926D01*
X3852500Y2611546D01*
Y2628453D01*
X3846030Y2644074D01*
X3834074Y2656029D01*
X3818454Y2662500D01*
D02*
G37*
G36*
X3228454Y2642500D02*
X3211546D01*
X3195926Y2636030D01*
X3183970Y2624074D01*
X3177500Y2608454D01*
Y2591546D01*
X3183970Y2575926D01*
X3195926Y2563970D01*
X3211546Y2557500D01*
X3228454D01*
X3244074Y2563970D01*
X3256030Y2575926D01*
X3256837Y2577875D01*
X3581586D01*
X3698307Y2461154D01*
X3697500Y2459205D01*
Y2442297D01*
X3703970Y2426677D01*
X3715926Y2414721D01*
X3731546Y2408251D01*
X3748454D01*
X3764074Y2414721D01*
X3776030Y2426677D01*
X3782500Y2442297D01*
Y2459205D01*
X3776030Y2474825D01*
X3764074Y2486781D01*
X3748454Y2493251D01*
X3731546D01*
X3729597Y2492444D01*
X3606396Y2615645D01*
X3599218Y2620441D01*
X3590751Y2622125D01*
X3256837D01*
X3256030Y2624074D01*
X3244074Y2636030D01*
X3228454Y2642500D01*
D02*
G37*
G36*
X623001Y3328751D02*
X596999D01*
X571884Y3322021D01*
X549366Y3309021D01*
X530980Y3290635D01*
X517980Y3268117D01*
X511250Y3243002D01*
Y3217000D01*
X517980Y3191885D01*
X530980Y3169367D01*
X549366Y3150981D01*
X571884Y3137981D01*
X587875Y3133696D01*
Y2800000D01*
X589559Y2791533D01*
X594355Y2784355D01*
X1038308Y2340403D01*
X1037500Y2338454D01*
Y2321546D01*
X1043970Y2305926D01*
X1055926Y2293970D01*
X1071546Y2287500D01*
X1088454D01*
X1104074Y2293970D01*
X1116030Y2305926D01*
X1122500Y2321546D01*
Y2338454D01*
X1116030Y2354074D01*
X1104074Y2366030D01*
X1088454Y2372500D01*
X1071546D01*
X1069597Y2371692D01*
X632125Y2809165D01*
Y3133696D01*
X648116Y3137981D01*
X670634Y3150981D01*
X689020Y3169367D01*
X702020Y3191885D01*
X708750Y3217000D01*
Y3243002D01*
X702020Y3268117D01*
X689020Y3290635D01*
X670634Y3309021D01*
X648116Y3322021D01*
X623001Y3328751D01*
D02*
G37*
G36*
X1238454Y2252500D02*
X1221546D01*
X1205926Y2246030D01*
X1193970Y2234074D01*
X1187500Y2218454D01*
Y2201546D01*
X1193970Y2185926D01*
X1205926Y2173970D01*
X1221546Y2167500D01*
X1238454D01*
X1254074Y2173970D01*
X1266030Y2185926D01*
X1272500Y2201546D01*
Y2218454D01*
X1266030Y2234074D01*
X1254074Y2246030D01*
X1238454Y2252500D01*
D02*
G37*
G36*
X1098454Y2242500D02*
X1081546D01*
X1065926Y2236030D01*
X1053970Y2224074D01*
X1047500Y2208454D01*
Y2191546D01*
X1053970Y2175926D01*
X1065926Y2163970D01*
X1081546Y2157500D01*
X1098454D01*
X1114074Y2163970D01*
X1126030Y2175926D01*
X1132500Y2191546D01*
Y2208454D01*
X1126030Y2224074D01*
X1114074Y2236030D01*
X1098454Y2242500D01*
D02*
G37*
G36*
X1308454Y1722500D02*
X1291546D01*
X1275926Y1716030D01*
X1263970Y1704074D01*
X1257500Y1688454D01*
Y1671546D01*
X1263970Y1655926D01*
X1275926Y1643970D01*
X1291546Y1637500D01*
X1308454D01*
X1324074Y1643970D01*
X1336030Y1655926D01*
X1342500Y1671546D01*
Y1688454D01*
X1336030Y1704074D01*
X1324074Y1716030D01*
X1308454Y1722500D01*
D02*
G37*
G36*
X2548454Y1712500D02*
X2531546D01*
X2515926Y1706030D01*
X2503970Y1694074D01*
X2497500Y1678454D01*
Y1661546D01*
X2503970Y1645926D01*
X2515926Y1633970D01*
X2531546Y1627500D01*
X2548454D01*
X2564074Y1633970D01*
X2576030Y1645926D01*
X2582500Y1661546D01*
Y1678454D01*
X2576030Y1694074D01*
X2564074Y1706030D01*
X2548454Y1712500D01*
D02*
G37*
G36*
X3668454Y1702500D02*
X3651546D01*
X3635926Y1696030D01*
X3623970Y1684074D01*
X3617500Y1668454D01*
Y1651546D01*
X3623970Y1635926D01*
X3635926Y1623970D01*
X3651546Y1617500D01*
X3668454D01*
X3684074Y1623970D01*
X3696030Y1635926D01*
X3702500Y1651546D01*
Y1668454D01*
X3696030Y1684074D01*
X3684074Y1696030D01*
X3668454Y1702500D01*
D02*
G37*
G36*
X403953Y1382500D02*
X386051D01*
X369512Y1375649D01*
X356853Y1362990D01*
X350002Y1346451D01*
Y1328549D01*
X356853Y1312010D01*
X369512Y1299351D01*
X386051Y1292500D01*
X403953D01*
X420493Y1299351D01*
X433151Y1312010D01*
X440002Y1328549D01*
Y1346451D01*
X433151Y1362990D01*
X420493Y1375649D01*
X403953Y1382500D01*
D02*
G37*
G36*
Y967499D02*
X386051D01*
X369512Y960649D01*
X356853Y947990D01*
X350002Y931451D01*
Y913549D01*
X356853Y897009D01*
X369512Y884351D01*
X386051Y877500D01*
X403953D01*
X420493Y884351D01*
X433151Y897009D01*
X440002Y913549D01*
Y931451D01*
X433151Y947990D01*
X420493Y960649D01*
X403953Y967499D01*
D02*
G37*
G36*
X4735000Y645000D02*
X4545000D01*
Y455000D01*
X4735000D01*
Y645000D01*
D02*
G37*
G36*
X3849000Y605000D02*
X3659000D01*
Y415000D01*
X3849000D01*
Y605000D01*
D02*
G37*
G36*
X3448454Y982500D02*
X3431546D01*
X3415926Y976030D01*
X3403970Y964074D01*
X3397500Y948454D01*
Y931546D01*
X3403970Y915926D01*
X3415926Y903970D01*
X3417875Y903163D01*
Y604582D01*
X3419559Y596115D01*
X3424355Y588937D01*
X3434471Y578821D01*
X3423981Y568331D01*
X3411475Y546668D01*
X3405000Y522507D01*
Y497493D01*
X3411475Y473332D01*
X3423981Y451669D01*
X3441669Y433981D01*
X3463332Y421474D01*
X3487493Y415000D01*
X3512507D01*
X3536669Y421474D01*
X3558331Y433981D01*
X3576019Y451669D01*
X3588526Y473332D01*
X3595000Y497493D01*
Y522507D01*
X3588526Y546668D01*
X3576019Y568331D01*
X3558331Y586019D01*
X3536669Y598526D01*
X3512507Y605000D01*
X3487493D01*
X3474384Y601487D01*
X3462125Y613746D01*
Y903163D01*
X3464074Y903970D01*
X3476030Y915926D01*
X3482500Y931546D01*
Y948454D01*
X3476030Y964074D01*
X3464074Y976030D01*
X3448454Y982500D01*
D02*
G37*
G36*
X3258507Y605000D02*
X3233493D01*
X3209332Y598526D01*
X3187669Y586019D01*
X3169981Y568331D01*
X3157475Y546668D01*
X3151000Y522507D01*
Y497493D01*
X3157475Y473332D01*
X3169981Y451669D01*
X3187669Y433981D01*
X3209332Y421474D01*
X3233493Y415000D01*
X3258507D01*
X3282669Y421474D01*
X3304331Y433981D01*
X3322019Y451669D01*
X3334526Y473332D01*
X3341000Y497493D01*
Y522507D01*
X3334526Y546668D01*
X3322019Y568331D01*
X3304331Y586019D01*
X3282669Y598526D01*
X3258507Y605000D01*
D02*
G37*
G36*
X3004507D02*
X2979493D01*
X2955332Y598526D01*
X2933669Y586019D01*
X2915981Y568331D01*
X2903475Y546668D01*
X2897000Y522507D01*
Y497493D01*
X2903475Y473332D01*
X2915981Y451669D01*
X2933669Y433981D01*
X2955332Y421474D01*
X2979493Y415000D01*
X3004507D01*
X3028669Y421474D01*
X3050331Y433981D01*
X3068019Y451669D01*
X3080526Y473332D01*
X3087000Y497493D01*
Y522507D01*
X3080526Y546668D01*
X3068019Y568331D01*
X3050331Y586019D01*
X3028669Y598526D01*
X3004507Y605000D01*
D02*
G37*
G36*
X5208454Y1012500D02*
X5191546D01*
X5175926Y1006030D01*
X5163970Y994074D01*
X5157500Y978454D01*
Y961546D01*
X5163970Y945926D01*
X5175926Y933970D01*
X5177875Y933163D01*
Y910000D01*
X5179559Y901533D01*
X5184355Y894355D01*
X5314355Y764355D01*
X5321533Y759559D01*
X5330000Y757875D01*
X5480836D01*
X5964355Y274355D01*
X5971533Y269559D01*
X5980000Y267875D01*
X7903163D01*
X7903970Y265926D01*
X7915926Y253970D01*
X7931546Y247500D01*
X7948453D01*
X7964074Y253970D01*
X7976030Y265926D01*
X7982500Y281546D01*
Y298454D01*
X7976030Y314074D01*
X7964074Y326030D01*
X7948453Y332500D01*
X7931546D01*
X7915926Y326030D01*
X7903970Y314074D01*
X7903163Y312125D01*
X5989165D01*
X5505645Y795645D01*
X5498467Y800441D01*
X5490000Y802125D01*
X5339165D01*
X5222125Y919165D01*
Y933163D01*
X5224074Y933970D01*
X5236030Y945926D01*
X5242500Y961546D01*
Y978454D01*
X5236030Y994074D01*
X5224074Y1006030D01*
X5208454Y1012500D01*
D02*
G37*
G36*
X4398507Y645000D02*
X4373493D01*
X4349332Y638526D01*
X4327669Y626019D01*
X4309981Y608331D01*
X4297475Y586668D01*
X4291000Y562507D01*
Y537493D01*
X4297475Y513331D01*
X4309981Y491669D01*
X4327669Y473981D01*
X4349332Y461474D01*
X4373493Y455000D01*
X4398507D01*
X4411022Y458354D01*
X4414760Y456098D01*
X4422782Y449412D01*
X4424048Y443044D01*
X4428844Y435866D01*
X4500355Y364355D01*
X4507533Y359559D01*
X4516000Y357875D01*
X4537491D01*
X4549000Y355000D01*
Y165000D01*
X4739000D01*
Y313117D01*
X4750733Y317977D01*
X4782875Y285835D01*
Y225000D01*
X4784559Y216533D01*
X4789355Y209355D01*
X4904355Y94355D01*
X4911533Y89559D01*
X4920000Y87875D01*
X6760000D01*
X6768467Y89559D01*
X6775645Y94355D01*
X6849597Y168307D01*
X6851546Y167500D01*
X6868454D01*
X6884074Y173970D01*
X6896030Y185926D01*
X6902500Y201546D01*
Y218453D01*
X6896030Y234074D01*
X6884074Y246029D01*
X6868454Y252500D01*
X6851546D01*
X6835926Y246029D01*
X6823970Y234074D01*
X6817500Y218453D01*
Y201546D01*
X6818307Y199597D01*
X6750836Y132125D01*
X4929165D01*
X4827125Y234165D01*
Y295000D01*
X4825441Y303467D01*
X4820645Y310645D01*
X4735645Y395645D01*
X4728467Y400441D01*
X4720000Y402125D01*
X4525165D01*
X4466614Y460675D01*
Y464239D01*
X4464930Y472706D01*
X4460134Y479884D01*
X4455184Y484834D01*
X4462019Y491669D01*
X4474526Y513331D01*
X4481000Y537493D01*
Y562507D01*
X4474526Y586668D01*
X4462019Y608331D01*
X4444331Y626019D01*
X4422669Y638526D01*
X4398507Y645000D01*
D02*
G37*
G36*
X4402507Y355000D02*
X4377493D01*
X4353332Y348526D01*
X4331669Y336019D01*
X4313981Y318331D01*
X4301475Y296668D01*
X4295000Y272507D01*
Y247493D01*
X4301475Y223332D01*
X4313981Y201669D01*
X4331669Y183981D01*
X4353332Y171474D01*
X4377493Y165000D01*
X4402507D01*
X4426669Y171474D01*
X4448331Y183981D01*
X4466019Y201669D01*
X4478526Y223332D01*
X4485000Y247493D01*
Y272507D01*
X4478526Y296668D01*
X4466019Y318331D01*
X4448331Y336019D01*
X4426669Y348526D01*
X4402507Y355000D01*
D02*
G37*
G36*
X3766507Y351000D02*
X3741493D01*
X3717332Y344526D01*
X3695669Y332019D01*
X3677981Y314331D01*
X3665475Y292668D01*
X3659000Y268507D01*
Y243493D01*
X3665475Y219332D01*
X3677981Y197669D01*
X3695669Y179981D01*
X3717332Y167474D01*
X3741493Y161000D01*
X3766507D01*
X3790669Y167474D01*
X3812331Y179981D01*
X3830019Y197669D01*
X3842526Y219332D01*
X3849000Y243493D01*
Y268507D01*
X3842526Y292668D01*
X3830019Y314331D01*
X3812331Y332019D01*
X3790669Y344526D01*
X3766507Y351000D01*
D02*
G37*
G36*
X3512507D02*
X3487493D01*
X3463332Y344526D01*
X3441669Y332019D01*
X3423981Y314331D01*
X3411475Y292668D01*
X3405000Y268507D01*
Y243493D01*
X3411475Y219332D01*
X3423981Y197669D01*
X3441669Y179981D01*
X3463332Y167474D01*
X3487493Y161000D01*
X3512507D01*
X3536669Y167474D01*
X3558331Y179981D01*
X3576019Y197669D01*
X3588526Y219332D01*
X3595000Y243493D01*
Y268507D01*
X3588526Y292668D01*
X3576019Y314331D01*
X3558331Y332019D01*
X3536669Y344526D01*
X3512507Y351000D01*
D02*
G37*
G36*
X3258507D02*
X3233493D01*
X3209332Y344526D01*
X3187669Y332019D01*
X3169981Y314331D01*
X3157475Y292668D01*
X3151000Y268507D01*
Y243493D01*
X3157475Y219332D01*
X3169981Y197669D01*
X3187669Y179981D01*
X3209332Y167474D01*
X3233493Y161000D01*
X3258507D01*
X3282669Y167474D01*
X3304331Y179981D01*
X3322019Y197669D01*
X3334526Y219332D01*
X3341000Y243493D01*
Y268507D01*
X3334526Y292668D01*
X3322019Y314331D01*
X3304331Y332019D01*
X3282669Y344526D01*
X3258507Y351000D01*
D02*
G37*
%LPD*%
G36*
X7960000Y4220000D02*
X7600000D01*
Y4630000D01*
X7960000D01*
Y4220000D01*
D02*
G37*
G36*
X6860000D02*
X6500000D01*
Y4630000D01*
X6860000D01*
Y4220000D01*
D02*
G37*
G36*
X7562357Y4669703D02*
X7563369Y4665175D01*
X7552901Y4649509D01*
X7549021Y4630000D01*
Y4220000D01*
X7552901Y4200491D01*
X7563952Y4183952D01*
X7580491Y4172901D01*
X7600000Y4169021D01*
X7960000D01*
X7979509Y4172901D01*
X7996048Y4183952D01*
X8007099Y4200491D01*
X8010980Y4220000D01*
Y4591338D01*
X8023680Y4597701D01*
X8027875Y4594565D01*
Y2976837D01*
X8025926Y2976029D01*
X8013970Y2964074D01*
X8007500Y2948453D01*
Y2931546D01*
X8013142Y2917925D01*
X8008077Y2905225D01*
X7866533D01*
X7799214Y2972545D01*
X7792035Y2977341D01*
X7783569Y2979025D01*
X7692666D01*
X7356047Y3315645D01*
X7348868Y3320441D01*
X7340402Y3322125D01*
X6310000D01*
X6301533Y3320441D01*
X6295983Y3316733D01*
X6287887Y3326597D01*
X6309165Y3347875D01*
X7660836D01*
X7908308Y3100403D01*
X7907500Y3098454D01*
Y3081546D01*
X7913970Y3065926D01*
X7925926Y3053970D01*
X7941546Y3047500D01*
X7958454D01*
X7974074Y3053970D01*
X7986030Y3065926D01*
X7992500Y3081546D01*
Y3098454D01*
X7986030Y3114074D01*
X7974074Y3126030D01*
X7958454Y3132500D01*
X7941546D01*
X7939597Y3131692D01*
X7685645Y3385645D01*
X7678467Y3390441D01*
X7670000Y3392125D01*
X6300000D01*
X6291533Y3390441D01*
X6284355Y3385645D01*
X6164355Y3265645D01*
X6159559Y3258467D01*
X6157875Y3250000D01*
Y3167554D01*
X6145175Y3162294D01*
X6100573Y3206895D01*
X6102500Y3211546D01*
Y3228454D01*
X6096030Y3244074D01*
X6084074Y3256030D01*
X6068454Y3262500D01*
X6051546D01*
X6035926Y3256030D01*
X6023970Y3244074D01*
X6017500Y3228454D01*
Y3211546D01*
X6023970Y3195926D01*
X6035926Y3183970D01*
X6051546Y3177500D01*
X6068454D01*
X6073105Y3179427D01*
X6123277Y3129254D01*
Y2479317D01*
X6083966Y2440006D01*
X6079756Y2433704D01*
X6078277Y2426271D01*
Y2227003D01*
X6075926Y2226030D01*
X6063970Y2214074D01*
X6057500Y2198454D01*
Y2181546D01*
X6063970Y2165926D01*
X6075926Y2153970D01*
X6091546Y2147500D01*
X6108454D01*
X6124074Y2153970D01*
X6136030Y2165926D01*
X6142500Y2181546D01*
Y2198454D01*
X6136030Y2214074D01*
X6124074Y2226030D01*
X6117123Y2228909D01*
Y2418226D01*
X6145175Y2446277D01*
X6157875Y2441017D01*
Y1858695D01*
X5891305Y1592125D01*
X5806837D01*
X5806030Y1594074D01*
X5794074Y1606030D01*
X5778454Y1612500D01*
X5761546D01*
X5747925Y1606858D01*
X5735225Y1611922D01*
Y1703935D01*
X5789165Y1757875D01*
X5969690D01*
X5978157Y1759559D01*
X5985335Y1764355D01*
X6022545Y1801565D01*
X6027341Y1808743D01*
X6029025Y1817210D01*
Y1893100D01*
X6027341Y1901567D01*
X6022545Y1908745D01*
X5832125Y2099164D01*
Y2153163D01*
X5834074Y2153970D01*
X5846030Y2165926D01*
X5846837Y2167875D01*
X5930000D01*
X5938467Y2169559D01*
X5945645Y2174355D01*
X5975645Y2204355D01*
X5980441Y2211533D01*
X5982125Y2220000D01*
Y3770754D01*
X5980441Y3779221D01*
X5975645Y3786399D01*
X5095902Y4666142D01*
X5100763Y4677875D01*
X6458793D01*
X6462357Y4669703D01*
X6463369Y4665175D01*
X6452901Y4649509D01*
X6449021Y4630000D01*
Y4220000D01*
X6452901Y4200491D01*
X6463952Y4183952D01*
X6480491Y4172901D01*
X6500000Y4169021D01*
X6860000D01*
X6879509Y4172901D01*
X6896048Y4183952D01*
X6907099Y4200491D01*
X6910980Y4220000D01*
Y4630000D01*
X6907099Y4649509D01*
X6896632Y4665175D01*
X6897643Y4669703D01*
X6901208Y4677875D01*
X7558793D01*
X7562357Y4669703D01*
D02*
G37*
G36*
X4743142Y3607673D02*
X4737500Y3594052D01*
Y3577144D01*
X4743970Y3561524D01*
X4755926Y3549568D01*
X4757875Y3548761D01*
Y3359164D01*
X4676597Y3277887D01*
X4666732Y3285983D01*
X4670441Y3291533D01*
X4672125Y3300000D01*
Y3600835D01*
X4691663Y3620373D01*
X4738078D01*
X4743142Y3607673D01*
D02*
G37*
G36*
X4953457Y2930925D02*
X4891006Y2868475D01*
X4297529D01*
X4290096Y2866996D01*
X4283925Y2862873D01*
X4148302D01*
X4143042Y2875573D01*
X4211094Y2943625D01*
X4948196D01*
X4953457Y2930925D01*
D02*
G37*
G36*
X5502527Y3797626D02*
Y3795947D01*
X5504006Y3788514D01*
X5508216Y3782213D01*
X5632477Y3657952D01*
Y1926253D01*
X5338098Y1631874D01*
X5327331Y1639068D01*
X5332500Y1651546D01*
Y1668454D01*
X5326030Y1684074D01*
X5314074Y1696030D01*
X5298454Y1702500D01*
X5281546D01*
X5265926Y1696030D01*
X5253970Y1684074D01*
X5247500Y1668454D01*
Y1651546D01*
X5248445Y1649266D01*
X5234233Y1635054D01*
X5221672Y1640453D01*
X5216030Y1654074D01*
X5204074Y1666030D01*
X5188454Y1672500D01*
X5171546D01*
X5155926Y1666030D01*
X5143970Y1654074D01*
X5137500Y1638454D01*
Y1621546D01*
X5138307Y1619597D01*
X5073935Y1555225D01*
X5061923D01*
X5056858Y1567925D01*
X5062500Y1581546D01*
Y1598453D01*
X5056030Y1614074D01*
X5044074Y1626030D01*
X5042125Y1626837D01*
Y1690000D01*
X5040441Y1698467D01*
X5035645Y1705645D01*
X4834398Y1906892D01*
X4827220Y1911688D01*
X4818753Y1913372D01*
X4710990D01*
X4710183Y1915321D01*
X4698227Y1927276D01*
X4682607Y1933746D01*
X4665700D01*
X4650079Y1927276D01*
X4638124Y1915321D01*
X4631653Y1899701D01*
X4619825Y1901806D01*
Y1970997D01*
X4621774Y1971804D01*
X4633730Y1983759D01*
X4640200Y1999380D01*
Y2016287D01*
X4636666Y2024818D01*
X4637431Y2025963D01*
X4639116Y2034430D01*
Y2091573D01*
X4641065Y2092380D01*
X4653020Y2104336D01*
X4659490Y2119956D01*
Y2136863D01*
X4655438Y2146645D01*
X4660899Y2159731D01*
X4662216Y2160943D01*
X4666847Y2161864D01*
X4724355Y2104355D01*
X4731533Y2099559D01*
X4740000Y2097875D01*
X4957500D01*
Y2081546D01*
X4963970Y2065926D01*
X4975926Y2053970D01*
X4991546Y2047500D01*
X5008454D01*
X5024074Y2053970D01*
X5036030Y2065926D01*
X5042500Y2081546D01*
Y2098454D01*
X5036030Y2114074D01*
X5024074Y2126030D01*
X5008454Y2132500D01*
X4991546D01*
X4989597Y2131692D01*
X4985645Y2135645D01*
X4978467Y2140441D01*
X4970000Y2142125D01*
X4749165D01*
X4685645Y2205645D01*
X4678467Y2210441D01*
X4670000Y2212125D01*
X4590000D01*
X4581533Y2210441D01*
X4574355Y2205645D01*
X4519755Y2151044D01*
X4514959Y2143866D01*
X4513274Y2135400D01*
Y1588533D01*
X4514959Y1580066D01*
X4519755Y1572888D01*
X4557875Y1534768D01*
Y1496837D01*
X4555926Y1496030D01*
X4543970Y1484074D01*
X4537500Y1468454D01*
Y1451546D01*
X4543970Y1435926D01*
X4555926Y1423970D01*
X4571546Y1417500D01*
X4570520Y1405225D01*
X4490996D01*
X4335021Y1561200D01*
X4327843Y1565996D01*
X4319376Y1567680D01*
X3909554D01*
X3879826Y1597409D01*
Y1907700D01*
X3878141Y1916166D01*
X3873345Y1923344D01*
X3772848Y2023841D01*
X3777709Y2035575D01*
X3787700D01*
X3796167Y2037259D01*
X3803345Y2042055D01*
X3893190Y2131899D01*
X3897986Y2139077D01*
X3899670Y2147544D01*
Y2566480D01*
X3910683Y2573427D01*
X3922055Y2562055D01*
X3929233Y2557259D01*
X3937700Y2555575D01*
X4187156D01*
X4195623Y2557259D01*
X4202801Y2562055D01*
X4216721Y2575975D01*
X4221517Y2583153D01*
X4223201Y2591620D01*
Y2683368D01*
X4221517Y2691834D01*
X4216721Y2699012D01*
X4209825Y2705908D01*
Y2721028D01*
X4211374Y2721670D01*
X4223330Y2733625D01*
X4229800Y2749246D01*
Y2766153D01*
X4223330Y2781774D01*
X4211374Y2793729D01*
X4195754Y2800199D01*
X4178847D01*
X4163226Y2793729D01*
X4159823Y2790326D01*
X4147123Y2795587D01*
Y2824026D01*
X4272528D01*
X4280843Y2811326D01*
X4277500Y2803255D01*
Y2786348D01*
X4283970Y2770727D01*
X4295926Y2758772D01*
X4309599Y2753108D01*
X4311634Y2750512D01*
X4312962Y2747372D01*
X4315194Y2739602D01*
X4313281Y2736740D01*
X4311803Y2729306D01*
Y2697757D01*
X4307152Y2695830D01*
X4295196Y2683874D01*
X4288726Y2668254D01*
Y2651347D01*
X4295196Y2635726D01*
X4307152Y2623771D01*
X4322772Y2617301D01*
X4339680D01*
X4355300Y2623771D01*
X4367256Y2635726D01*
X4373726Y2651347D01*
Y2668254D01*
X4367256Y2683874D01*
X4355300Y2695830D01*
X4350649Y2697757D01*
Y2721261D01*
X4372501Y2743112D01*
X4385201Y2737852D01*
Y2729246D01*
X4391671Y2713626D01*
X4403626Y2701670D01*
X4419247Y2695200D01*
X4436154D01*
X4451774Y2701670D01*
X4463730Y2713626D01*
X4465188Y2717146D01*
X4833084D01*
X4837944Y2705412D01*
X4799654Y2667123D01*
X4515656D01*
X4513730Y2671774D01*
X4501774Y2683729D01*
X4486154Y2690200D01*
X4469247D01*
X4453626Y2683729D01*
X4441671Y2671774D01*
X4435200Y2656153D01*
Y2639246D01*
X4441671Y2623626D01*
X4453626Y2611670D01*
X4469247Y2605200D01*
X4478167D01*
X4486941Y2602735D01*
X4489901Y2593466D01*
Y2584996D01*
X4496371Y2569376D01*
X4508326Y2557420D01*
X4523947Y2550950D01*
X4540854D01*
X4556475Y2557420D01*
X4568430Y2569376D01*
X4572117Y2578277D01*
X5030000D01*
X5037433Y2579755D01*
X5043734Y2583965D01*
X5093734Y2633965D01*
X5097945Y2640266D01*
X5099423Y2647700D01*
Y3641955D01*
X5148045Y3690577D01*
X5387700D01*
X5395133Y3692055D01*
X5401434Y3696266D01*
X5481435Y3776266D01*
X5485645Y3782567D01*
X5487123Y3790000D01*
Y3792737D01*
X5499823Y3799463D01*
X5502527Y3797626D01*
D02*
G37*
G36*
X5060577Y2856515D02*
Y2655745D01*
X5021955Y2617123D01*
X4816724D01*
X4815133Y2629755D01*
X4821434Y2633966D01*
X5048844Y2861375D01*
X5060577Y2856515D01*
D02*
G37*
G36*
X2864999Y2911061D02*
Y2909045D01*
X2871469Y2893424D01*
X2883425Y2881469D01*
X2885373Y2880662D01*
Y2734963D01*
X2882659Y2730900D01*
X2880975Y2722433D01*
Y2582733D01*
X2843858Y2545617D01*
X2832125Y2550477D01*
Y2883163D01*
X2834074Y2883970D01*
X2846030Y2895926D01*
X2852500Y2911546D01*
X2864999Y2911061D01*
D02*
G37*
G36*
X2773970Y2895926D02*
X2785926Y2883970D01*
X2787875Y2883163D01*
Y2499902D01*
X2753858Y2465886D01*
X2742125Y2470746D01*
Y2883163D01*
X2744074Y2883970D01*
X2756030Y2895926D01*
X2758127Y2900989D01*
X2771873D01*
X2773970Y2895926D01*
D02*
G37*
G36*
X7090000Y2479020D02*
X7168735Y2479020D01*
Y2203240D01*
X6416760D01*
X6370000Y2250000D01*
X6369999Y2340000D01*
X6510000Y2480000D01*
X7085075D01*
X7090000Y2479020D01*
D02*
G37*
G36*
X9720000Y2610000D02*
Y2130000D01*
X9649999Y2060000D01*
X8100000D01*
X8087498Y2072501D01*
X8090979Y2090000D01*
Y2270000D01*
X8087498Y2287499D01*
X8110000Y2310000D01*
Y2550000D01*
X8130000Y2570000D01*
X8490000D01*
X8580000Y2660000D01*
X9670000D01*
X9720000Y2610000D01*
D02*
G37*
G36*
X7540000Y2880000D02*
Y2760000D01*
X7730000Y2570000D01*
X7980000D01*
X8000000Y2550000D01*
Y2310000D01*
X8040000Y2270000D01*
Y2090000D01*
X8009999Y2060000D01*
X7460000D01*
X7380000Y2140000D01*
X7250000D01*
Y2200000D01*
X7240000Y2210000D01*
Y2380000D01*
X7330000D01*
Y2450000D01*
X7250000Y2530000D01*
X7090000Y2530000D01*
X7036665Y2583335D01*
Y2900000D01*
X7520000D01*
X7540000Y2880000D01*
D02*
G37*
G36*
X5787875Y2139503D02*
Y2090000D01*
X5789559Y2081533D01*
X5794355Y2074355D01*
X5965300Y1903410D01*
X5958828Y1893097D01*
X5958250Y1892500D01*
X5941546D01*
X5925926Y1886030D01*
X5913970Y1874074D01*
X5912044Y1869423D01*
X5873446D01*
X5775173Y1967696D01*
Y2132778D01*
X5787873Y2139504D01*
X5787875Y2139503D01*
D02*
G37*
G36*
X5318126Y1611902D02*
X5043717Y1337494D01*
X5030589Y1342326D01*
X5025514Y1354577D01*
X5013558Y1366533D01*
X4997938Y1373003D01*
X4981031D01*
X4979081Y1372196D01*
X4907925Y1443352D01*
X4909100Y1450053D01*
X4918642Y1459875D01*
X4959228D01*
X4961863Y1458114D01*
X4968679Y1451299D01*
X4967500Y1448454D01*
Y1431546D01*
X4973970Y1415926D01*
X4985926Y1403970D01*
X5001546Y1397500D01*
X5018454D01*
X5034074Y1403970D01*
X5046030Y1415926D01*
X5052500Y1431546D01*
Y1448454D01*
X5046030Y1464074D01*
X5039829Y1470275D01*
X5045089Y1482975D01*
X5155100D01*
X5163567Y1484659D01*
X5170745Y1489455D01*
X5235612Y1554322D01*
X5240408Y1561500D01*
X5242092Y1569967D01*
Y1580333D01*
X5279929Y1618170D01*
X5281546Y1617500D01*
X5298454D01*
X5310932Y1622669D01*
X5318126Y1611902D01*
D02*
G37*
G36*
X4997875Y1680835D02*
Y1626837D01*
X4995926Y1626030D01*
X4983970Y1614074D01*
X4978329Y1600453D01*
X4965767Y1595054D01*
X4886774Y1674047D01*
Y1697398D01*
X4885090Y1705865D01*
X4880294Y1713043D01*
X4769393Y1823944D01*
X4770200Y1825893D01*
Y1842800D01*
X4764558Y1856421D01*
X4769623Y1869121D01*
X4809589D01*
X4997875Y1680835D01*
D02*
G37*
G36*
X5851666Y1836266D02*
X5857967Y1832055D01*
X5865401Y1830577D01*
X5912044D01*
X5913970Y1825926D01*
X5925071Y1814825D01*
X5924684Y1810767D01*
X5921336Y1802125D01*
X5780000D01*
X5771533Y1800441D01*
X5764355Y1795645D01*
X5697455Y1728745D01*
X5692659Y1721567D01*
X5690975Y1713100D01*
Y1526900D01*
X5692659Y1518433D01*
X5697455Y1511255D01*
X5715969Y1492741D01*
X5710256Y1481484D01*
X5709770Y1480980D01*
X5356409D01*
X5351148Y1493680D01*
X5733734Y1876265D01*
X5733734Y1876266D01*
X5737945Y1882567D01*
X5739423Y1890000D01*
Y1930548D01*
X5752123Y1935809D01*
X5851666Y1836266D01*
D02*
G37*
G36*
X9760000Y1370000D02*
Y920000D01*
X9700000Y860000D01*
X8140000D01*
X8120000Y880000D01*
X8120000Y1090000D01*
X8097498Y1112501D01*
X8100979Y1130000D01*
Y1290000D01*
Y1290000D01*
Y1290001D01*
X8098663Y1301643D01*
X8097499Y1307498D01*
X8100000Y1309999D01*
X9169999Y1310000D01*
X9310000Y1450000D01*
X9356402D01*
X9365000Y1449153D01*
X9615000D01*
X9623598Y1450000D01*
X9680000D01*
X9760000Y1370000D01*
D02*
G37*
G36*
X4743386Y1545324D02*
X4746991Y1541078D01*
X4743431Y1528776D01*
X4739050Y1524394D01*
X4732580Y1508774D01*
Y1491867D01*
X4739050Y1476246D01*
X4751005Y1464291D01*
X4747575Y1451965D01*
X4700835Y1405225D01*
X4589480D01*
X4588454Y1417500D01*
X4604074Y1423970D01*
X4616030Y1435926D01*
X4622500Y1451546D01*
Y1468454D01*
X4616030Y1484074D01*
X4604074Y1496030D01*
X4602125Y1496837D01*
Y1543932D01*
X4600441Y1552399D01*
X4597433Y1556902D01*
X4599624Y1565281D01*
X4599965Y1566174D01*
X4602753Y1570430D01*
X4616374Y1576072D01*
X4628329Y1588027D01*
X4628408Y1588216D01*
X4700494D01*
X4743386Y1545324D01*
D02*
G37*
G36*
X7178735Y1403240D02*
X6426760D01*
X6380000Y1450000D01*
X6379999Y1540000D01*
X6520000Y1680000D01*
X7178735D01*
Y1403240D01*
D02*
G37*
G36*
X7439999Y2000000D02*
X9356402D01*
X9365000Y1999153D01*
X9615000D01*
X9623598Y2000000D01*
X9630000D01*
X9720000Y1910000D01*
Y1580000D01*
X9660000Y1520000D01*
X9240000D01*
X9090000Y1370000D01*
X7290000D01*
X7250000Y1410000D01*
Y1580000D01*
X7320000D01*
X7330000Y1590000D01*
Y1650000D01*
X7239999Y1740000D01*
X7070000D01*
X7036665Y1773335D01*
Y2052160D01*
X7054505Y2070000D01*
X7370000D01*
X7439999Y2000000D01*
D02*
G37*
G36*
X4857248Y1467331D02*
Y1440615D01*
X4858932Y1432148D01*
X4863728Y1424970D01*
X4947792Y1340906D01*
X4946985Y1338957D01*
Y1322050D01*
X4952858Y1307871D01*
X4948119Y1295171D01*
X4793151D01*
X4785718Y1293692D01*
X4779416Y1289482D01*
X4765107Y1275173D01*
X4431870D01*
X4426836Y1287873D01*
X4432500Y1301546D01*
Y1318454D01*
X4426030Y1334074D01*
X4414074Y1346029D01*
X4412757Y1352653D01*
X4416030Y1355926D01*
X4422500Y1371546D01*
Y1388454D01*
X4419157Y1396524D01*
X4429924Y1403718D01*
X4466186Y1367455D01*
X4473364Y1362659D01*
X4481831Y1360975D01*
X4710000D01*
X4718467Y1362659D01*
X4725645Y1367455D01*
X4790724Y1432535D01*
X4795521Y1439712D01*
X4797205Y1448179D01*
Y1463483D01*
X4799154Y1464291D01*
X4811109Y1476246D01*
X4816751Y1489867D01*
X4829313Y1495266D01*
X4857248Y1467331D01*
D02*
G37*
G36*
X2591546Y2027500D02*
X2608454D01*
X2610403Y2028307D01*
X2624355Y2014355D01*
X2631533Y2009559D01*
X2640000Y2007875D01*
X3110836D01*
X3616800Y1501910D01*
X3623978Y1497114D01*
X3632445Y1495430D01*
X4160050D01*
X4231247Y1424233D01*
X4225848Y1411671D01*
X4212227Y1406029D01*
X4200272Y1394074D01*
X4199464Y1392125D01*
X4032717D01*
X4024250Y1390441D01*
X4017072Y1385645D01*
X3983552Y1352125D01*
X3930189D01*
X3924929Y1364825D01*
X3926030Y1365926D01*
X3932500Y1381546D01*
Y1398454D01*
X3926030Y1414074D01*
X3914074Y1426030D01*
X3898454Y1432500D01*
X3881546D01*
X3865926Y1426030D01*
X3860000Y1420104D01*
X3854074Y1426030D01*
X3838454Y1432500D01*
X3821546D01*
X3805926Y1426030D01*
X3795000Y1415104D01*
X3784074Y1426030D01*
X3768454Y1432500D01*
X3751546D01*
X3735926Y1426030D01*
X3723970Y1414074D01*
X3717500Y1398454D01*
Y1381546D01*
X3723970Y1365926D01*
X3725071Y1364825D01*
X3719811Y1352125D01*
X3469165D01*
X3442545Y1378745D01*
X3435367Y1383541D01*
X3426900Y1385225D01*
X3081922D01*
X3076858Y1397925D01*
X3082500Y1411546D01*
Y1428454D01*
X3076030Y1444074D01*
X3064074Y1456030D01*
X3048454Y1462500D01*
X3031546D01*
X3015926Y1456030D01*
X3003970Y1444074D01*
X2997500Y1428454D01*
Y1411546D01*
X3003142Y1397925D01*
X2998078Y1385225D01*
X2958595D01*
X2929624Y1414197D01*
Y1562566D01*
X2927940Y1571032D01*
X2923144Y1578210D01*
X2565225Y1936129D01*
Y2028077D01*
X2577925Y2033142D01*
X2591546Y2027500D01*
D02*
G37*
G36*
X4338616Y1219316D02*
X4344917Y1215105D01*
X4352350Y1213627D01*
X4967462D01*
X4972322Y1201893D01*
X4957552Y1187123D01*
X4286646D01*
X4276874Y1196895D01*
X4278801Y1201546D01*
Y1218453D01*
X4272331Y1234074D01*
X4278029Y1246337D01*
X4311595D01*
X4338616Y1219316D01*
D02*
G37*
G36*
X6197190Y1833310D02*
X6207875Y1829330D01*
Y1719164D01*
X5864355Y1375645D01*
X5859559Y1368467D01*
X5857875Y1360000D01*
Y1123492D01*
X5833859Y1099475D01*
X5822125Y1104336D01*
Y1440000D01*
X5820441Y1448467D01*
X5815645Y1455645D01*
X5754700Y1516589D01*
X5761171Y1526902D01*
X5761750Y1527500D01*
X5778454D01*
X5794074Y1533970D01*
X5806030Y1545926D01*
X5806837Y1547875D01*
X5900469D01*
X5908936Y1549559D01*
X5916114Y1554355D01*
X6195175Y1833416D01*
X6197190Y1833310D01*
D02*
G37*
G36*
X2604050Y1189741D02*
X2489329Y1075021D01*
X2478331Y1086019D01*
X2456668Y1098526D01*
X2432507Y1105000D01*
X2407493D01*
X2383332Y1098526D01*
X2361669Y1086019D01*
X2343981Y1068331D01*
X2331474Y1046668D01*
X2325000Y1022507D01*
Y997493D01*
X2331474Y973332D01*
X2343981Y951669D01*
X2361669Y933981D01*
X2383332Y921474D01*
X2407493Y915000D01*
X2432507D01*
X2456668Y921474D01*
X2469708Y929003D01*
X2501055Y897655D01*
X2508233Y892859D01*
X2516700Y891175D01*
X2893436D01*
X2895874Y887525D01*
X2889086Y874825D01*
X2516700D01*
X2508233Y873141D01*
X2501055Y868345D01*
X2469708Y836997D01*
X2456668Y844526D01*
X2432507Y851000D01*
X2407493D01*
X2383332Y844526D01*
X2370292Y836997D01*
X2338945Y868345D01*
X2331767Y873141D01*
X2323300Y874825D01*
X2107009D01*
X2072125Y909709D01*
Y957196D01*
X2084825Y960600D01*
X2089981Y951669D01*
X2107669Y933981D01*
X2129332Y921474D01*
X2153493Y915000D01*
X2178507D01*
X2202668Y921474D01*
X2224331Y933981D01*
X2242019Y951669D01*
X2254526Y973332D01*
X2261000Y997493D01*
Y1022507D01*
X2254526Y1046668D01*
X2242019Y1068331D01*
X2224331Y1086019D01*
X2202668Y1098526D01*
X2178507Y1105000D01*
X2153493D01*
X2140867Y1101617D01*
X2134293Y1113003D01*
X2167542Y1146252D01*
X2441623D01*
X2450090Y1147936D01*
X2457268Y1152732D01*
X2506010Y1201475D01*
X2599190D01*
X2604050Y1189741D01*
D02*
G37*
G36*
X5710000Y1021290D02*
X5708710Y1020000D01*
X5350000D01*
Y1430000D01*
X5710000D01*
Y1021290D01*
D02*
G37*
G36*
X2885373Y1553401D02*
Y1405032D01*
X2887058Y1396565D01*
X2891854Y1389387D01*
X2933786Y1347455D01*
X2940964Y1342659D01*
X2949431Y1340975D01*
X3273091D01*
X3277952Y1329241D01*
X3090835Y1142125D01*
X2936837D01*
X2936030Y1144074D01*
X2924074Y1156030D01*
X2908454Y1162500D01*
X2891546D01*
X2875926Y1156030D01*
X2863970Y1144074D01*
X2857500Y1128454D01*
Y1111546D01*
X2863970Y1095926D01*
X2875926Y1083970D01*
X2891546Y1077500D01*
X2908454D01*
X2924074Y1083970D01*
X2936030Y1095926D01*
X2936837Y1097875D01*
X3100000D01*
X3108467Y1099559D01*
X3115645Y1104355D01*
X3352264Y1340975D01*
X3417735D01*
X3444355Y1314355D01*
X3445006Y1313920D01*
X3447427Y1298572D01*
X3447313Y1298267D01*
X3084471Y935425D01*
X2976837D01*
X2976030Y937374D01*
X2964074Y949330D01*
X2948454Y955800D01*
X2931546D01*
X2915926Y949330D01*
X2903970Y937374D01*
X2903163Y935425D01*
X2525865D01*
X2500997Y960292D01*
X2508526Y973332D01*
X2515000Y997493D01*
Y1022507D01*
X2511702Y1034814D01*
X2673245Y1196357D01*
X2678041Y1203535D01*
X2679725Y1212002D01*
Y1742455D01*
X2691459Y1747316D01*
X2885373Y1553401D01*
D02*
G37*
G36*
X8030000Y1309999D02*
X8050000Y1290000D01*
Y1130000D01*
X8010000Y1090000D01*
Y880000D01*
X7990000Y860000D01*
X7750000Y860000D01*
X7720000Y830000D01*
Y760000D01*
X7660000Y700000D01*
X7590000D01*
X7570000Y680000D01*
Y610000D01*
X7550000Y590000D01*
X7260000D01*
X7240000Y610000D01*
Y780000D01*
X7320000D01*
X7330000Y790000D01*
Y850000D01*
X7239999Y940000D01*
X7050000D01*
X7036665Y953335D01*
Y1296665D01*
X7050000Y1310000D01*
X7290000D01*
X8030000Y1309999D01*
D02*
G37*
G36*
X7168735Y603240D02*
X6416760D01*
X6370000Y650000D01*
X6369999Y740000D01*
X6510000Y880000D01*
X7168735D01*
Y603240D01*
D02*
G37*
%LPC*%
G36*
X5688610Y4395400D02*
X5671390D01*
X5654756Y4390943D01*
X5639843Y4382333D01*
X5635000Y4377490D01*
X5630157Y4382333D01*
X5615244Y4390943D01*
X5598610Y4395400D01*
X5581390D01*
X5564756Y4390943D01*
X5549843Y4382333D01*
X5537667Y4370157D01*
X5529057Y4355244D01*
X5524600Y4338610D01*
Y4321390D01*
X5529057Y4304756D01*
X5537667Y4289843D01*
X5549843Y4277667D01*
X5564756Y4269057D01*
X5581390Y4264600D01*
X5598610D01*
X5615244Y4269057D01*
X5630157Y4277667D01*
X5635000Y4282510D01*
X5639843Y4277667D01*
X5654756Y4269057D01*
X5671390Y4264600D01*
X5688610D01*
X5705243Y4269057D01*
X5720156Y4277667D01*
X5732333Y4289843D01*
X5740943Y4304756D01*
X5745400Y4321390D01*
Y4338610D01*
X5740943Y4355244D01*
X5732333Y4370157D01*
X5720156Y4382333D01*
X5705243Y4390943D01*
X5688610Y4395400D01*
D02*
G37*
G36*
X5269528Y1867900D02*
X5250472D01*
X5232867Y1860607D01*
X5219392Y1847133D01*
X5212100Y1829528D01*
Y1810472D01*
X5219392Y1792867D01*
X5232867Y1779392D01*
X5250472Y1772100D01*
X5269528D01*
X5287133Y1779392D01*
X5300607Y1792867D01*
X5307900Y1810472D01*
Y1829528D01*
X5300607Y1847133D01*
X5287133Y1860607D01*
X5269528Y1867900D01*
D02*
G37*
%LPD*%
D68*
X610000Y2800000D02*
X1080000Y2330000D01*
X1126366Y1656835D02*
Y1666366D01*
X1089766Y1620235D02*
X1126366Y1656835D01*
Y1666366D02*
X1290000Y1830000D01*
X1680000D01*
X1294531Y1585000D02*
X2115000D01*
X1189532Y1480000D02*
X1294531Y1585000D01*
X1020000Y1480000D02*
X1189532D01*
X1070000Y1800000D02*
X1180000Y1910000D01*
X1100000Y1960000D02*
X1357417D01*
X1090000Y2100000D02*
X1269531D01*
X1299531Y2070000D02*
X1680000D01*
X1269531Y2100000D02*
X1299531Y2070000D01*
X1387417Y1990000D02*
X1680000D01*
X1357417Y1960000D02*
X1387417Y1990000D01*
X1180000Y1910000D02*
X1680000D01*
X1770000Y3970000D02*
X1770335D01*
X1810335Y4010000D02*
X2340000D01*
X1770335Y3970000D02*
X1810335Y4010000D01*
X1629520Y3740000D02*
X1729520Y3640000D01*
X1510000Y3740000D02*
X1629520D01*
X1729520Y3640000D02*
X1910000D01*
X900000Y1360000D02*
X1020000Y1480000D01*
X610000Y2800000D02*
Y3230001D01*
X1450000Y3800000D02*
Y4160000D01*
Y3800000D02*
X1510000Y3740000D01*
X3566452Y2344151D02*
X3595352Y2373051D01*
X3595352D01*
X3348378Y2316151D02*
X3633258D01*
X3644017Y2326910D01*
X3651324D01*
X3344604Y2312376D02*
X3348378Y2316151D01*
X4709659Y1610341D02*
X4762779Y1557220D01*
X4594060Y1610341D02*
X4709659D01*
X4879373Y1440615D02*
X4989484Y1330503D01*
X4879373Y1440615D02*
Y1476496D01*
X4762779Y1557220D02*
X4798648D01*
X4879373Y1476496D01*
X5770000Y1570000D02*
X5900469D01*
X5290000Y1659531D02*
Y1660000D01*
X5219967Y1589498D02*
X5290000Y1659531D01*
X5219967Y1569967D02*
Y1589498D01*
X5155100Y1505100D02*
X5219967Y1569967D01*
X4996431Y1533100D02*
X5083100D01*
X5180000Y1630000D01*
X4984834Y1505100D02*
X5155100D01*
X4979933Y1510000D02*
X4984834Y1505100D01*
X8050000Y2940000D02*
Y4610000D01*
X5030754Y4700000D02*
X7960000D01*
X8050000Y4610000D01*
X3260000Y1000469D02*
X3449662Y1190131D01*
X4111400D01*
X3466965Y1247031D02*
X4134969D01*
X4172000Y1210000D01*
X3072634Y852700D02*
X3466965Y1247031D01*
X5699766Y840234D02*
X5970000Y570000D01*
X5699766Y840234D02*
Y979766D01*
X6290000Y570000D02*
X6350000Y510000D01*
X5970000Y570000D02*
X6290000D01*
X6350000Y510000D02*
X7550000D01*
X7670000Y630000D01*
X4444489Y451511D02*
Y464239D01*
X4386000Y522728D02*
X4444489Y464239D01*
X4386000Y522728D02*
Y550000D01*
X4444489Y451511D02*
X4516000Y380000D01*
X6760000Y110000D02*
X6860000Y210000D01*
X4920000Y110000D02*
X6760000D01*
X4805000Y225000D02*
X4920000Y110000D01*
X4805000Y225000D02*
Y295000D01*
X4720000Y380000D02*
X4805000Y295000D01*
X4516000Y380000D02*
X4720000D01*
X5490000Y780000D02*
X5980000Y290000D01*
X7940000D01*
X5330000Y780000D02*
X5490000D01*
X5699766Y979766D02*
X5800000Y1080000D01*
X1820000Y190000D02*
Y360000D01*
X1988718Y528718D02*
X2192718D01*
X1820000Y360000D02*
X1988718Y528718D01*
X1200000Y3520000D02*
Y4250000D01*
X1072000Y4378000D02*
Y4480000D01*
Y4378000D02*
X1200000Y4250000D01*
X1228000Y4246448D02*
X1326000Y4344448D01*
X1228000Y3531598D02*
X1459597Y3300001D01*
X1228000Y3531598D02*
Y4246448D01*
X1200000Y3520000D02*
X1447999Y3272001D01*
X1459597Y3300001D02*
X2703352D01*
X1447999Y3272001D02*
X2690000D01*
X2703352Y3300001D02*
X3084012Y2919342D01*
Y2542635D02*
Y2919342D01*
X2690000Y3272001D02*
X3056012Y2905990D01*
Y2531037D02*
Y2905990D01*
X3274672Y2312376D02*
X3344604D01*
X3056012Y2531037D02*
X3274672Y2312376D01*
X3084012Y2542635D02*
X3286270Y2340376D01*
X3333006D01*
X3272700Y2512700D02*
X3546134D01*
X3336780Y2344151D02*
X3566452D01*
X3546134Y2512700D02*
X3711083Y2347751D01*
X3333006Y2340376D02*
X3336780Y2344151D01*
X1326000Y4344448D02*
Y4480000D01*
X5713100Y1526900D02*
X5800000Y1440000D01*
X5713100Y1713100D02*
X5780000Y1780000D01*
X5713100Y1526900D02*
Y1713100D01*
X5068592Y3810750D02*
X5091292Y3833450D01*
X4963850Y3707243D02*
X5067357Y3810750D01*
X5068592D01*
X4963850Y2963048D02*
Y3707243D01*
X5140394Y3862350D02*
X5147700D01*
X5111494Y3833450D02*
X5140394Y3862350D01*
X5091292Y3833450D02*
X5111494D01*
X4828229Y3640000D02*
X4906950D01*
X5200000Y910000D02*
X5330000Y780000D01*
X5200000Y910000D02*
Y970000D01*
X4783410Y1697700D02*
X4971110Y1510000D01*
X4979933D01*
X5800000Y1080000D02*
Y1440000D01*
X5760000Y994327D02*
X5880000Y1114327D01*
Y1360000D01*
X5760000Y900000D02*
Y994327D01*
X6300000Y3370000D02*
X7670000D01*
X7950000Y3090000D01*
X6180000Y3250000D02*
X6300000Y3370000D01*
X4319376Y1545555D02*
X4481831Y1383100D01*
X4710000D01*
X4775080Y1448179D01*
X4306770Y1380000D02*
X4380000D01*
X2900000Y1120000D02*
X3100000D01*
X3343100Y1363100D01*
X2949431D02*
X3343100D01*
X3426900D01*
X2907499Y1405032D02*
Y1562566D01*
X3426900Y1363100D02*
X3460000Y1330000D01*
X4032717Y1370000D02*
X4236301D01*
X3992717Y1330000D02*
X4032717Y1370000D01*
X2907499Y1405032D02*
X2949431Y1363100D01*
X3460000Y1330000D02*
X3992717D01*
X3120000Y2030000D02*
X3632445Y1517555D01*
X4169214D01*
X4299456Y3110000D02*
X4310000Y3120544D01*
X3180000Y3110000D02*
X4299456D01*
X2657600Y1212002D02*
Y1772866D01*
X2487100Y1903769D02*
X2629600Y1761268D01*
Y1223600D02*
Y1761268D01*
X2496845Y1223600D02*
X2629600D01*
X2515100Y1915367D02*
X2657600Y1772866D01*
X2455598Y1010000D02*
X2657600Y1212002D01*
X2441623Y1168377D02*
X2496845Y1223600D01*
X2838000Y2508469D02*
X2903100Y2573569D01*
X2543100Y2184240D02*
X2838000Y2479140D01*
X2903100Y2573569D02*
Y2722433D01*
X2838000Y2479140D02*
Y2508469D01*
X2810000Y2490738D02*
Y2920000D01*
X2515100Y2195838D02*
X2810000Y2490738D01*
X4620000Y4700000D02*
X5030754D01*
X5960000Y3770754D01*
Y2220000D02*
Y3770754D01*
X4410000Y4490000D02*
X4620000Y4700000D01*
X5930000Y2190000D02*
X5960000Y2220000D01*
X5810000Y2190000D02*
X5930000D01*
X6180000Y1849531D02*
Y3250000D01*
X5900469Y1570000D02*
X6180000Y1849531D01*
X5810000Y2090000D02*
Y2190000D01*
Y2090000D02*
X6006900Y1893100D01*
Y1817210D02*
Y1893100D01*
X5969690Y1780000D02*
X6006900Y1817210D01*
X5780000Y1780000D02*
X5969690D01*
X6310000Y3300000D02*
X7340402D01*
X8169436Y2970000D02*
X8400000D01*
X8082535Y2883100D02*
X8169436Y2970000D01*
X7857369Y2883100D02*
X8082535D01*
X7783569Y2956900D02*
X7857369Y2883100D01*
X7683502Y2956900D02*
X7783569D01*
X7340402Y3300000D02*
X7683502Y2956900D01*
X6230000Y3220000D02*
X6310000Y3300000D01*
X6230000Y1710000D02*
Y3220000D01*
X5880000Y1360000D02*
X6230000Y1710000D01*
X7725200Y685200D02*
X7947961D01*
X7670000Y630000D02*
X7725200Y685200D01*
X2500405Y3690613D02*
X2501018Y3690000D01*
X2810000D01*
X2340000Y4010000D02*
X2640000D01*
X2960000Y4330000D02*
Y4490000D01*
X2640000Y4010000D02*
X2960000Y4330000D01*
X3065750Y4474250D02*
X3530000Y4010000D01*
X2960000Y4490000D02*
X2975750Y4474250D01*
X3065750D01*
X3530000Y4010000D02*
X3830000D01*
X4130000D01*
X4410000Y4290000D02*
Y4490000D01*
X4130000Y4010000D02*
X4410000Y4290000D01*
X900000Y1230000D02*
Y1360000D01*
X3970000Y140000D02*
Y650000D01*
X2450000Y300000D02*
X2640000Y110000D01*
X3940000D02*
X3970000Y140000D01*
X2640000Y110000D02*
X3940000D01*
X2110000Y160000D02*
X2300000D01*
X2320000Y180000D02*
Y390000D01*
X2702025Y472025D02*
X2940000Y710000D01*
X2300000Y160000D02*
X2320000Y180000D01*
X2402025Y472025D02*
X2702025D01*
X2320000Y390000D02*
X2402025Y472025D01*
X4190000Y870000D02*
X4490000D01*
X3970000Y650000D02*
X4190000Y870000D01*
X4775080Y1448179D02*
Y1500320D01*
X4580000Y1460000D02*
Y1543932D01*
X4970000Y2120000D02*
X5000000Y2090000D01*
X4535400Y1588533D02*
X4580000Y1543932D01*
X4535400Y1588533D02*
Y2135400D01*
X4590000Y2190000D01*
X4670000D01*
X4740000Y2120000D01*
X4970000D01*
X2940000Y913300D02*
X3093636D01*
X2516700D02*
X2940000D01*
X2420000Y756000D02*
X2516700Y852700D01*
X3072634D01*
X3093636Y913300D02*
X3470336Y1290000D01*
X1950000Y300000D02*
X1970000D01*
X2110000Y160000D01*
X1600000Y150000D02*
X1780000D01*
X1820000Y190000D01*
X2192718Y528718D02*
X2420000Y756000D01*
X2050000Y900544D02*
Y1040000D01*
X2323300Y852700D02*
X2420000Y756000D01*
X2097844Y852700D02*
X2323300D01*
X2050000Y900544D02*
X2097844Y852700D01*
X2047456Y1057456D02*
X2158377Y1168377D01*
X2047456Y1042544D02*
Y1057456D01*
Y1042544D02*
X2050000Y1040000D01*
X2158377Y1168377D02*
X2441623D01*
X1450000Y300000D02*
X1600000Y150000D01*
X1700000Y300000D02*
Y939531D01*
X2420000Y1010000D02*
X2516700Y913300D01*
X2420000Y1010000D02*
X2455598D01*
X3500000Y510000D02*
Y544582D01*
X3440000Y604582D02*
X3500000Y544582D01*
X3440000Y604582D02*
Y940000D01*
X4692064Y4520000D02*
X4820000D01*
X4840000Y4500000D01*
X4537700Y4365636D02*
X4692064Y4520000D01*
X4537700Y3849416D02*
Y4365636D01*
X4530000Y3841716D02*
X4537700Y3849416D01*
X4530000Y3360000D02*
Y3841716D01*
X3401826Y3431826D02*
X3450000Y3480000D01*
X3401826Y3411826D02*
Y3431826D01*
X3350000Y3360000D02*
X3401826Y3411826D01*
X3389407Y3509406D02*
Y3566230D01*
X3240000Y3360000D02*
X3389407Y3509406D01*
X3457700Y3592300D02*
Y3745999D01*
X3459670Y3747969D01*
X2810000Y3690000D02*
X3270000Y4150000D01*
X4320000Y3300000D02*
X4400000Y3380000D01*
X3457700Y3592300D02*
X3750000Y3300000D01*
X4320000D01*
X4139180Y3450000D02*
X4199380Y3389800D01*
X4249991D01*
X3930000Y3490000D02*
X3932732D01*
X3972732Y3450000D01*
X2487100Y1903769D02*
Y2207436D01*
X2720000Y2440335D02*
Y2920000D01*
X2487100Y2207436D02*
X2720000Y2440335D01*
X4172000Y1210000D02*
X4236301D01*
X3470336Y1290000D02*
X4214362D01*
X2515100Y1915367D02*
Y2195838D01*
X3972732Y3450000D02*
X4139180D01*
X4463370Y3252901D02*
X4466270Y3250000D01*
X4628000Y3278000D02*
X4650000Y3300000D01*
X4531531Y3278000D02*
X4628000D01*
X4489531Y3320000D02*
X4531531Y3278000D01*
X4310000Y3180000D02*
X4450000Y3320000D01*
X4466270Y3250000D02*
X4680000D01*
X4650000Y3300000D02*
Y3610000D01*
X4450000Y3320000D02*
X4489531D01*
X4310000Y3120544D02*
Y3180000D01*
X4780000Y3350000D02*
Y3585598D01*
X4680000Y3250000D02*
X4780000Y3350000D01*
X4825730Y3642498D02*
X4828229Y3640000D01*
X4682498Y3642498D02*
X4825730D01*
X4650000Y3610000D02*
X4682498Y3642498D01*
X4762300Y1638341D02*
X4918641Y1482000D01*
X4656590Y1638341D02*
X4762300D01*
X4677700Y1697700D02*
X4783410D01*
X4727700Y1834347D02*
X4864649Y1697398D01*
X4674153Y1891247D02*
X4818753D01*
X2280000Y1519531D02*
Y2360000D01*
X1700000Y939531D02*
X2280000Y1519531D01*
X2115000Y1585000D02*
X2190000Y1510000D01*
X1980000Y2480000D02*
X2600000D01*
X2903100Y2722433D02*
X2907499Y2726832D01*
Y2917499D01*
X2656900Y2456431D02*
Y2621113D01*
X2684900Y2444833D02*
Y2679967D01*
X2550000Y2728013D02*
X2656900Y2621113D01*
Y2707967D02*
X2684900Y2679967D01*
X2380000Y2139933D02*
X2684900Y2444833D01*
X2571268Y2370799D02*
X2656900Y2456431D01*
X4864649Y1664882D02*
X4996431Y1533100D01*
X4918641Y1482000D02*
X4968336D01*
X5010000Y1440000D02*
Y1441268D01*
X4975632Y1475636D02*
X5010000Y1441268D01*
X4974700Y1475636D02*
X4975632D01*
X4968336Y1482000D02*
X4974700Y1475636D01*
X4864649Y1664882D02*
Y1697398D01*
X5020000Y1590000D02*
Y1690000D01*
X4818753Y1891247D02*
X5020000Y1690000D01*
X3900389Y1545555D02*
X4319376D01*
X3857700Y1588244D02*
Y1907700D01*
Y1588244D02*
X3900389Y1545555D01*
X4592300Y1612101D02*
X4594060Y1610341D01*
X8400000Y2970000D02*
X8450000Y2920000D01*
X8000000Y2300000D02*
X8040000Y2340000D01*
X8000000Y2630000D02*
X8040000Y2590000D01*
Y2340000D02*
Y2590000D01*
X8070000Y2587268D02*
X8110000Y2627268D01*
X8070000Y2340000D02*
Y2587268D01*
X8110000Y2627268D02*
Y2630000D01*
X8070000Y2340000D02*
X8110000Y2300000D01*
X8010000Y560000D02*
X8050000Y600000D01*
Y1060000D01*
X8080000Y600000D02*
Y1060000D01*
Y600000D02*
X8120000Y560000D01*
X8080000Y1060000D02*
X8120000Y1100000D01*
X8010000D02*
X8050000Y1060000D01*
X4597700Y1697231D02*
X4656590Y1638341D01*
X4616991Y2034430D02*
Y2128410D01*
X4597700Y2015140D02*
X4616991Y2034430D01*
X4597700Y2007833D02*
Y2015140D01*
Y1697231D02*
Y2007833D01*
X2543100Y1926964D02*
Y2184240D01*
X2480799Y2370799D02*
X2571268D01*
X2656900Y2707967D02*
Y2943100D01*
X2390000Y2280000D02*
X2480799Y2370799D01*
X2550000Y2728013D02*
Y2900000D01*
X2380000Y1970000D02*
Y2139933D01*
X2610000Y2990000D02*
X2656900Y2943100D01*
X1685166Y2185166D02*
X1980000Y2480000D01*
X3220000Y2600000D02*
X3590751D01*
X2600000Y2070000D02*
X2640000Y2030000D01*
X2543100Y1926964D02*
X2907499Y1562566D01*
X2640000Y2030000D02*
X3120000D01*
X4169214Y1517555D02*
X4306770Y1380000D01*
X1680000Y2150000D02*
X1685166Y2155166D01*
Y2185166D01*
X3590751Y2600000D02*
X3740000Y2450751D01*
X3260000Y910000D02*
Y1000469D01*
X3707700Y2057700D02*
X3857700Y1907700D01*
X3692499Y2065001D02*
X3707700D01*
X3743699D01*
X3707700Y2057700D02*
Y2065001D01*
X3743699D02*
X3751000Y2057700D01*
X3787700D01*
X3877545Y2147544D01*
X3711083Y2337538D02*
Y2347751D01*
X3716241Y2299673D02*
Y2306979D01*
X3877545Y2147544D02*
Y2576456D01*
X4187300Y2757700D02*
X4187700Y2757300D01*
Y2696743D02*
Y2757300D01*
X3711083Y2337538D02*
X3728941Y2319679D01*
X3900789Y2599700D02*
X3915700D01*
X3937700Y2577700D02*
X4187156D01*
X4201076Y2591620D01*
X3915700Y2599700D02*
X3937700Y2577700D01*
X3890245Y2589156D02*
X3900789Y2599700D01*
X4201076Y2591620D02*
Y2683368D01*
X4187700Y2696743D02*
X4201076Y2683368D01*
D70*
X5043734Y1308032D02*
Y1310042D01*
X5030760Y1230853D02*
X5089134Y1289227D01*
X4965597Y1167700D02*
X5028751Y1230853D01*
X5111834Y1279825D02*
Y1281834D01*
X4793151Y1275748D02*
X5011450D01*
X4278601Y1167700D02*
X4965597D01*
X5066434Y1300640D02*
X5674600Y1908805D01*
X5028751Y1230853D02*
X5030760D01*
X4998845Y1233050D02*
X5019348Y1253553D01*
X5674600Y1908805D02*
Y3675400D01*
X4088930Y1135881D02*
X4965881D01*
X5021358Y1253553D02*
X5066434Y1298630D01*
X4965881Y1135881D02*
X5038153Y1208153D01*
X5111834Y1281834D02*
X5720000Y1890000D01*
X4352350Y1233050D02*
X4998845D01*
X5720000Y1890000D02*
Y3640630D01*
X5066434Y1298630D02*
Y1300640D01*
X5038153Y1208153D02*
X5040163D01*
X5019348Y1253553D02*
X5021358D01*
X5040163Y1208153D02*
X5111834Y1279825D01*
X5697300Y1899403D02*
Y3692700D01*
X5011450Y1275748D02*
X5043734Y1308032D01*
X5089134Y1291237D02*
X5697300Y1899403D01*
X5089134Y1289227D02*
Y1291237D01*
X5043734Y1310042D02*
X5651900Y1918208D01*
Y3665997D01*
X3330000Y990000D02*
X3494250Y1154250D01*
X4070560D02*
X4088930Y1135881D01*
X3494250Y1154250D02*
X4070560D01*
X5755750Y1959650D02*
Y2212471D01*
X5799988Y2256709D02*
Y3249994D01*
X5755750Y2212471D02*
X5799988Y2256709D01*
X5521950Y3795947D02*
Y3847052D01*
Y3795947D02*
X5651900Y3665997D01*
X5576200Y3773799D02*
Y3869523D01*
Y3773799D02*
X5674600Y3675400D01*
X5630451Y3759550D02*
Y3837700D01*
X5569581Y3876143D02*
X5576200Y3869523D01*
X5720000Y3640630D02*
X5730000Y3650630D01*
X5630451Y3759550D02*
X5697300Y3692700D01*
X5567689Y3917693D02*
X5569581Y3915801D01*
Y3876143D02*
Y3915801D01*
X5755750Y1959650D02*
X5865401Y1850000D01*
X5730000Y3650630D02*
Y3750000D01*
X5080000Y2647700D02*
Y3650000D01*
X5140000Y3710000D02*
X5387700D01*
X5080000Y3650000D02*
X5140000Y3710000D01*
X4989200Y2939200D02*
Y3696743D01*
X5034600Y3677938D02*
X5096662Y3740000D01*
X5011900Y2921900D02*
Y3687340D01*
X5057300Y2897300D02*
Y3667300D01*
X5130000Y3740000D01*
X5079092Y3785400D02*
X5101792Y3808100D01*
X5077857Y3785400D02*
X5079092D01*
X5087260Y3762700D02*
X5088495D01*
X4989200Y3696743D02*
X5077857Y3785400D01*
X5034600Y2906703D02*
Y3677938D01*
X5096662Y3740000D02*
X5097897D01*
X5088495Y3762700D02*
X5111195Y3785400D01*
X5011900Y3687340D02*
X5087260Y3762700D01*
X5097897Y3740000D02*
X5120597Y3762700D01*
X5387700Y3710000D02*
X5467700Y3790000D01*
X5130000Y3740000D02*
X5312650D01*
X5410350Y3837700D01*
X5120597Y3762700D02*
X5272700D01*
X5311950Y3801950D01*
X5111195Y3785400D02*
X5205400D01*
X5174821Y3808100D02*
X5203450Y3836729D01*
X5101792Y3808100D02*
X5174821D01*
X5205400Y3785400D02*
X5257700Y3837700D01*
X5311950Y3801950D02*
Y3902060D01*
X5467700Y3790000D02*
Y3857071D01*
X5457700Y3867070D02*
X5467700Y3857071D01*
X5457700Y3867070D02*
Y3917700D01*
X5203450Y3913450D02*
X5207700Y3917700D01*
X5203450Y3836729D02*
Y3913450D01*
X4864466Y2736569D02*
X5034600Y2906703D01*
X5030000Y2597700D02*
X5080000Y2647700D01*
X4899051Y2849051D02*
X4989200Y2939200D01*
X4203049Y2963048D02*
X4963850D01*
X4807700Y2647700D02*
X5057300Y2897300D01*
X4897700Y2807700D02*
X5011900Y2921900D01*
X4536650Y2597700D02*
X5030000D01*
X5305050Y3908959D02*
X5311950Y3902060D01*
X5305050Y3908959D02*
Y3917700D01*
X4477700Y2647700D02*
X4807700D01*
X4428831Y2736569D02*
X4864466D01*
X4409619Y2807700D02*
X4897700D01*
X4297529Y2849051D02*
X4899051D01*
X4072300Y2832300D02*
X4203049Y2963048D01*
X6097700Y2192300D02*
Y2426271D01*
Y2192300D02*
X6100000Y2190000D01*
X6097700Y2426271D02*
X6142700Y2471271D01*
X4773153Y1255750D02*
X4793151Y1275748D01*
X4317841Y1288460D02*
X4334819D01*
X4319640Y1265760D02*
X4352350Y1233050D01*
X4367529Y1255750D02*
X4773153D01*
X4334819Y1288460D02*
X4367529Y1255750D01*
X4236301Y1210000D02*
X4278601Y1167700D01*
X4223102Y1290000D02*
X4247342Y1265760D01*
X4236301Y1370000D02*
X4317841Y1288460D01*
X4214362Y1290000D02*
X4223102D01*
X4247342Y1265760D02*
X4319640D01*
X4291927Y2843449D02*
X4297529Y2849051D01*
X4331226Y2659800D02*
Y2729306D01*
X4135140Y2843449D02*
X4291927D01*
X4331226Y2729306D02*
X4409619Y2807700D01*
X4427700Y2737700D02*
X4428831Y2736569D01*
X5865401Y1850000D02*
X5950000D01*
X6142700Y2471271D02*
Y3137300D01*
X6060000Y3220000D02*
X6142700Y3137300D01*
X4127700Y2836010D02*
X4135140Y2843449D01*
X4532400Y2593450D02*
X4536650Y2597700D01*
X4127700Y2683389D02*
X4144176Y2666913D01*
X4127700Y2683389D02*
Y2836010D01*
X4072300Y2757700D02*
Y2832300D01*
X4144176Y2659799D02*
Y2666913D01*
D71*
X9481520Y3740000D02*
D03*
X8750000D02*
D03*
D72*
X3754000Y510000D02*
D03*
X2166000Y756000D02*
D03*
X4840000Y4500000D02*
D03*
X1072000Y4480000D02*
D03*
X4644000Y260000D02*
D03*
X4640000Y550000D02*
D03*
D73*
X2992000Y256000D02*
D03*
X3754000D02*
D03*
X3500000Y510000D02*
D03*
Y256000D02*
D03*
X3246000Y510000D02*
D03*
Y256000D02*
D03*
X2992000Y510000D02*
D03*
X2420000Y756000D02*
D03*
Y1010000D02*
D03*
X2674000Y756000D02*
D03*
Y1010000D02*
D03*
X2166000D02*
D03*
X1326000Y4480000D02*
D03*
X1580000D02*
D03*
X4390000Y260000D02*
D03*
X4136000D02*
D03*
X5094000Y4500000D02*
D03*
X4386000Y550000D02*
D03*
D74*
X2200000Y300000D02*
D03*
X1950000D02*
D03*
X1700000D02*
D03*
X1450000D02*
D03*
X2450000D02*
D03*
X4410000Y4490000D02*
D03*
X4160000D02*
D03*
X3910000D02*
D03*
X3660000D02*
D03*
X2960000D02*
D03*
X2710000D02*
D03*
X2460000D02*
D03*
X2210000D02*
D03*
X610000Y3730000D02*
D03*
Y3479998D02*
D03*
Y3230001D02*
D03*
D75*
X1200000Y300000D02*
D03*
X3410000Y4490000D02*
D03*
X1960000D02*
D03*
D76*
X9490000Y1750000D02*
D03*
Y1200000D02*
D03*
Y2300000D02*
D03*
X8960000Y1665000D02*
D03*
Y2385000D02*
D03*
D77*
X610000Y3980002D02*
D03*
D78*
X395002Y1337500D02*
D03*
Y922500D02*
D03*
D79*
X1080000Y2330000D02*
D03*
X1089766Y1620235D02*
D03*
X1070000Y1800000D02*
D03*
X1100000Y1960000D02*
D03*
X1090000Y2100000D02*
D03*
X8870000Y2795000D02*
D03*
X9870000Y2295000D02*
D03*
X9745000Y545000D02*
D03*
X8995000Y4545000D02*
D03*
X7870000Y3295000D02*
D03*
X8620000D02*
D03*
X7245000Y3545000D02*
D03*
X8745000Y4545000D02*
D03*
X7245000Y3045000D02*
D03*
X7120000Y4295000D02*
D03*
X9495000Y545000D02*
D03*
X8620000Y295000D02*
D03*
X6995000Y3045000D02*
D03*
X6870000Y3795000D02*
D03*
X8120000Y3295000D02*
D03*
X6370000Y3795000D02*
D03*
X6245000Y3545000D02*
D03*
X7495000D02*
D03*
X6995000D02*
D03*
X6745000Y3045000D02*
D03*
X6120000Y4295000D02*
D03*
Y3795000D02*
D03*
X5620000Y795000D02*
D03*
X8245000Y3545000D02*
D03*
X8495000Y3045000D02*
D03*
X9495000D02*
D03*
X7120000Y3795000D02*
D03*
X7620000Y3295000D02*
D03*
X8620000Y4295000D02*
D03*
X8120000D02*
D03*
X7245000Y4545000D02*
D03*
X8120000Y3795000D02*
D03*
X9870000Y1795000D02*
D03*
Y1295000D02*
D03*
X8370000Y3295000D02*
D03*
X9245000Y4545000D02*
D03*
X7495000Y4045000D02*
D03*
X9120000Y3295000D02*
D03*
X6995000Y4045000D02*
D03*
X6245000D02*
D03*
X5995000D02*
D03*
X9620000Y2795000D02*
D03*
X8745000Y3045000D02*
D03*
X9245000D02*
D03*
X8245000Y4045000D02*
D03*
X9745000Y3045000D02*
D03*
X6495000D02*
D03*
X7370000Y4295000D02*
D03*
X9120000Y2795000D02*
D03*
X5870000Y295000D02*
D03*
X6495000Y3545000D02*
D03*
X7495000Y4545000D02*
D03*
X8370000Y4295000D02*
D03*
X8870000Y3295000D02*
D03*
X8745000Y545000D02*
D03*
X7370000Y3795000D02*
D03*
X8495000Y4545000D02*
D03*
X6370000Y4295000D02*
D03*
X9370000Y295000D02*
D03*
X9120000D02*
D03*
X9620000Y3295000D02*
D03*
X9245000Y545000D02*
D03*
X8120000Y2795000D02*
D03*
X6120000Y1295000D02*
D03*
X8370000Y3795000D02*
D03*
X8995000Y545000D02*
D03*
X6245000Y4545000D02*
D03*
X9870000Y4295000D02*
D03*
X8870000Y295000D02*
D03*
X5995000Y1045000D02*
D03*
X9870000Y3295000D02*
D03*
Y2795000D02*
D03*
Y795000D02*
D03*
X9370000Y2795000D02*
D03*
X6745000Y4045000D02*
D03*
X9370000Y3295000D02*
D03*
X7245000Y4045000D02*
D03*
X6495000D02*
D03*
X6995000Y4545000D02*
D03*
X5995000D02*
D03*
X8620000Y2795000D02*
D03*
X7620000Y3795000D02*
D03*
X8995000Y3045000D02*
D03*
X8245000Y4545000D02*
D03*
X7495000Y3045000D02*
D03*
X7745000Y4045000D02*
D03*
X9707516Y3515007D02*
D03*
X9782516D02*
D03*
Y3590007D02*
D03*
Y4040008D02*
D03*
Y3965008D02*
D03*
Y3890007D02*
D03*
Y3815007D02*
D03*
Y3740007D02*
D03*
Y3665007D02*
D03*
Y3440007D02*
D03*
X9707516Y4040008D02*
D03*
Y3965008D02*
D03*
Y3440007D02*
D03*
X9632516Y4040008D02*
D03*
Y3440007D02*
D03*
X9557516Y4040008D02*
D03*
Y3440007D02*
D03*
X9482516Y4040008D02*
D03*
Y3440007D02*
D03*
X9407516Y4040008D02*
D03*
Y3440007D02*
D03*
X9332515Y4040008D02*
D03*
Y3440007D02*
D03*
X9257515Y4040008D02*
D03*
Y3965008D02*
D03*
Y3515007D02*
D03*
Y3440007D02*
D03*
X9182515Y4040008D02*
D03*
Y3965008D02*
D03*
Y3890007D02*
D03*
Y3815007D02*
D03*
Y3740007D02*
D03*
Y3665007D02*
D03*
Y3590007D02*
D03*
Y3515007D02*
D03*
Y3440007D02*
D03*
X7125003Y2365001D02*
D03*
Y2255001D02*
D03*
Y1595001D02*
D03*
Y1485001D02*
D03*
Y825001D02*
D03*
Y715001D02*
D03*
X7015003Y2365001D02*
D03*
Y2255001D02*
D03*
Y1595001D02*
D03*
Y1485001D02*
D03*
Y825001D02*
D03*
Y715001D02*
D03*
X6905003Y2365001D02*
D03*
Y2255001D02*
D03*
Y1595001D02*
D03*
Y1485001D02*
D03*
Y825001D02*
D03*
Y715001D02*
D03*
X6795003Y2365001D02*
D03*
Y2255001D02*
D03*
Y1595001D02*
D03*
Y1485001D02*
D03*
Y825001D02*
D03*
Y715001D02*
D03*
X6685003Y2365001D02*
D03*
Y2255001D02*
D03*
Y1595001D02*
D03*
Y1485001D02*
D03*
Y825001D02*
D03*
Y715001D02*
D03*
X6575003Y2365001D02*
D03*
Y2255001D02*
D03*
Y1595001D02*
D03*
Y1485001D02*
D03*
Y825001D02*
D03*
Y715001D02*
D03*
X6465003Y2365001D02*
D03*
Y2255001D02*
D03*
Y1485001D02*
D03*
Y715001D02*
D03*
X9169996Y1144999D02*
D03*
X9094997Y994999D02*
D03*
X9019996Y1144999D02*
D03*
X8944997Y994999D02*
D03*
X8869996Y1144999D02*
D03*
X8794997Y994999D02*
D03*
X8719997Y1144999D02*
D03*
X8644997Y994999D02*
D03*
X8569997Y1144999D02*
D03*
X8494997Y994999D02*
D03*
X8419997Y1144999D02*
D03*
X8344997Y994999D02*
D03*
X8269997Y1144999D02*
D03*
X8194997Y994999D02*
D03*
X7929997Y1154999D02*
D03*
X7854997Y1004999D02*
D03*
X7779997Y1154999D02*
D03*
X7704997Y1004999D02*
D03*
X7629997Y1154999D02*
D03*
X7554997Y1004999D02*
D03*
X7629997Y854999D02*
D03*
X7479997Y1154999D02*
D03*
X7404997Y1004999D02*
D03*
X7479997Y854999D02*
D03*
X7404997Y704999D02*
D03*
X7329997Y1154999D02*
D03*
X7254997Y1004999D02*
D03*
X7179997Y1154999D02*
D03*
X8569997Y1894999D02*
D03*
X8494997Y1744999D02*
D03*
X8569997Y1594999D02*
D03*
X8494997Y1444999D02*
D03*
X8419997Y1894999D02*
D03*
X8344997Y1744999D02*
D03*
X8419997Y1594999D02*
D03*
X8344997Y1444999D02*
D03*
X8269997Y1894999D02*
D03*
X8194997Y1744999D02*
D03*
X8269997Y1594999D02*
D03*
X8194997Y1444999D02*
D03*
X8119997Y1894999D02*
D03*
X8044997Y1744999D02*
D03*
X8119997Y1594999D02*
D03*
X8044997Y1444999D02*
D03*
X7969997Y1894999D02*
D03*
X7894997Y1744999D02*
D03*
X7969997Y1594999D02*
D03*
X7894997Y1444999D02*
D03*
X7819997Y1894999D02*
D03*
X7744997Y1744999D02*
D03*
X7819997Y1594999D02*
D03*
X7744997Y1444999D02*
D03*
X7669997Y1894999D02*
D03*
X7594997Y1744999D02*
D03*
X7669997Y1594999D02*
D03*
X7594997Y1444999D02*
D03*
X7519997Y1894999D02*
D03*
X7444997Y1744999D02*
D03*
X7519997Y1594999D02*
D03*
X7444997Y1444999D02*
D03*
X7369997Y1894999D02*
D03*
X7219997D02*
D03*
X8644997Y2494999D02*
D03*
Y2194999D02*
D03*
X8494997Y2494999D02*
D03*
X8569997Y2344999D02*
D03*
X8494997Y2194999D02*
D03*
X8344997Y2494999D02*
D03*
X8419997Y2344999D02*
D03*
X8344997Y2194999D02*
D03*
X8194997Y2494999D02*
D03*
X8269997Y2344999D02*
D03*
X8194997Y2194999D02*
D03*
X7894997Y2494999D02*
D03*
Y2194999D02*
D03*
X7744997Y2494999D02*
D03*
X7819997Y2344999D02*
D03*
X7744997Y2194999D02*
D03*
X7594997Y2494999D02*
D03*
X7669997Y2344999D02*
D03*
X7594997Y2194999D02*
D03*
X7444997Y2794998D02*
D03*
X7519997Y2644999D02*
D03*
X7444997Y2494999D02*
D03*
X7519997Y2344999D02*
D03*
X7444997Y2194999D02*
D03*
X7294997Y2794998D02*
D03*
X7369997Y2644999D02*
D03*
Y2344999D02*
D03*
X7294997Y2194999D02*
D03*
X7144997Y2794998D02*
D03*
X7219997Y2644999D02*
D03*
X6844997Y2794998D02*
D03*
X6919997Y2044999D02*
D03*
X6844997Y1894999D02*
D03*
Y1294999D02*
D03*
X6919997Y1144999D02*
D03*
X6694997Y2794998D02*
D03*
X6769997Y2644999D02*
D03*
Y2044999D02*
D03*
X6694997Y1894999D02*
D03*
Y1294999D02*
D03*
X6769997Y1144999D02*
D03*
X6544997Y2794998D02*
D03*
X6619997Y2644999D02*
D03*
Y2044999D02*
D03*
X6544997Y1894999D02*
D03*
Y1294999D02*
D03*
X6619997Y1144999D02*
D03*
X6394997Y2794998D02*
D03*
X6469997Y2044999D02*
D03*
X6394997Y1294999D02*
D03*
X6469997Y1144999D02*
D03*
X1770000Y3970000D02*
D03*
X740000Y4130000D02*
D03*
X1230000Y2210000D02*
D03*
X1134763Y1755231D02*
D03*
X1300000Y2150000D02*
D03*
X1090000Y2200000D02*
D03*
X1010000Y2910000D02*
D03*
X1085235Y2835235D02*
D03*
X860235Y3060235D02*
D03*
X935235Y2985235D02*
D03*
X925000Y2825000D02*
D03*
X850000Y2900000D02*
D03*
X1680000Y1990000D02*
D03*
X1450000Y4160000D02*
D03*
X1910000Y3640000D02*
D03*
X1150000Y3050000D02*
D03*
X1075000Y2975000D02*
D03*
X1269999Y2865000D02*
D03*
X1150000Y2900000D02*
D03*
X1225000Y2975000D02*
D03*
X1000000Y3050000D02*
D03*
X1680000Y3590000D02*
D03*
X3595352Y2373051D02*
D03*
X4325003Y2375002D02*
D03*
Y2275002D02*
D03*
Y2175002D02*
D03*
Y2075002D02*
D03*
Y1975002D02*
D03*
Y1875002D02*
D03*
Y1775002D02*
D03*
Y1675002D02*
D03*
X4225003Y2375002D02*
D03*
Y2275002D02*
D03*
Y2175002D02*
D03*
Y2075002D02*
D03*
Y1975002D02*
D03*
Y1875002D02*
D03*
Y1775002D02*
D03*
Y1675002D02*
D03*
X4125003Y2375002D02*
D03*
Y2275002D02*
D03*
Y2175002D02*
D03*
Y2075002D02*
D03*
Y1975002D02*
D03*
Y1875002D02*
D03*
Y1775002D02*
D03*
Y1675002D02*
D03*
X4025003Y2375002D02*
D03*
Y2275002D02*
D03*
Y2175002D02*
D03*
Y2075002D02*
D03*
Y1975002D02*
D03*
Y1875002D02*
D03*
Y1775002D02*
D03*
Y1675002D02*
D03*
X5465004Y3505003D02*
D03*
Y3405003D02*
D03*
Y3305003D02*
D03*
X5365004Y3505003D02*
D03*
Y3405003D02*
D03*
Y3305003D02*
D03*
X5265004Y3505003D02*
D03*
Y3405003D02*
D03*
Y3305003D02*
D03*
X5614985Y1294994D02*
D03*
Y1174994D02*
D03*
X5554985Y1294994D02*
D03*
X5584985Y1234994D02*
D03*
X5554985Y1174994D02*
D03*
X5584985Y1114994D02*
D03*
X5494985Y1294994D02*
D03*
X5524985Y1234994D02*
D03*
X5494985Y1174994D02*
D03*
X5524985Y1114994D02*
D03*
X5434985Y1294994D02*
D03*
X5464985Y1234994D02*
D03*
X5434985Y1174994D02*
D03*
X5464985Y1114994D02*
D03*
X7834980Y4534987D02*
D03*
X7864980Y4474987D02*
D03*
X7834980Y4414988D02*
D03*
X7864980Y4354988D02*
D03*
X7774980Y4534987D02*
D03*
X7804980Y4474987D02*
D03*
X7774980Y4414988D02*
D03*
X7804980Y4354988D02*
D03*
X7714981Y4534987D02*
D03*
X7744980Y4474987D02*
D03*
X7714981Y4414988D02*
D03*
X7744980Y4354988D02*
D03*
X6754982Y4534987D02*
D03*
Y4414988D02*
D03*
X6694983Y4534987D02*
D03*
X6724982Y4474987D02*
D03*
X6694983Y4414988D02*
D03*
X6724982Y4354988D02*
D03*
X6634983Y4534987D02*
D03*
X6664983Y4474987D02*
D03*
X6634983Y4414988D02*
D03*
X6664983Y4354988D02*
D03*
X4989484Y1330503D02*
D03*
X5770000Y1570000D02*
D03*
X5630000Y1590000D02*
D03*
X5290000Y1660000D02*
D03*
X5180000Y1630000D02*
D03*
X5460000Y2780000D02*
D03*
X5550000Y2870000D02*
D03*
X5250000Y2700000D02*
D03*
X4641906Y3174122D02*
D03*
X3900000Y320000D02*
D03*
X3580000Y990000D02*
D03*
X1170000Y1180000D02*
D03*
X2070000Y2250000D02*
D03*
X6200000Y470000D02*
D03*
X7650000Y400000D02*
D03*
X2960000Y2570000D02*
D03*
X3272700Y2512700D02*
D03*
X3470000Y2401051D02*
D03*
X5630451Y3837700D02*
D03*
X5799988Y3249994D02*
D03*
X5730000Y3750000D02*
D03*
X5774486Y3578950D02*
D03*
X5048687Y3871313D02*
D03*
X5147700Y3862350D02*
D03*
X4906950Y3640000D02*
D03*
X5410350Y3837700D02*
D03*
X5257700D02*
D03*
X5207700Y3917700D02*
D03*
X5200000Y970000D02*
D03*
X4977700Y1043450D02*
D03*
X5760000Y900000D02*
D03*
X6100000Y2190000D02*
D03*
X7950000Y3090000D02*
D03*
X4390000Y1310000D02*
D03*
X4380000Y1380000D02*
D03*
X4420000Y1080000D02*
D03*
X2940000Y913300D02*
D03*
X2900000Y1120000D02*
D03*
X5260000Y1820000D02*
D03*
X4890000Y2520000D02*
D03*
X5360000Y2030000D02*
D03*
Y2120000D02*
D03*
X5000000Y1930000D02*
D03*
X3890000Y1390000D02*
D03*
X3830000D02*
D03*
X3760000D02*
D03*
X3660000Y1660000D02*
D03*
X4370000Y3460000D02*
D03*
X4300000Y3690000D02*
D03*
X3670000Y3190000D02*
D03*
X3040000Y1420000D02*
D03*
X2540000Y1670000D02*
D03*
X2572700Y1737700D02*
D03*
X2900000Y2490000D02*
D03*
X7947961Y685200D02*
D03*
X2500405Y3690613D02*
D03*
X2040000Y4010000D02*
D03*
X2340000D02*
D03*
X2640000D02*
D03*
X3530000D02*
D03*
X3830000D02*
D03*
X4130000D02*
D03*
X1020000Y1480000D02*
D03*
X900000Y1230000D02*
D03*
X1730000Y1060000D02*
D03*
X4490000Y870000D02*
D03*
X4670000Y1460000D02*
D03*
X4580000D02*
D03*
X5000000Y2090000D02*
D03*
X2940000Y710000D02*
D03*
X3440000Y940000D02*
D03*
X5360000Y4000000D02*
D03*
X3240000Y3360000D02*
D03*
X3350000D02*
D03*
X3450000Y3480000D02*
D03*
X3459670Y3747969D02*
D03*
X3389407Y3566230D02*
D03*
X3120000Y4130000D02*
D03*
X3000000Y4100000D02*
D03*
X2690000Y3860000D02*
D03*
X2380000D02*
D03*
X2060000D02*
D03*
X3270000Y4150000D02*
D03*
X3699993Y3439994D02*
D03*
X3930000Y3490000D02*
D03*
X4249991Y3389800D02*
D03*
X3579993Y3859993D02*
D03*
X3879992D02*
D03*
X4400000Y3380000D02*
D03*
X4463370Y3252901D02*
D03*
X4530000Y3360000D02*
D03*
X4780000Y3585598D02*
D03*
X4760000Y3830000D02*
D03*
X5140000Y4020000D02*
D03*
X5030000Y4050000D02*
D03*
X4775080Y1500320D02*
D03*
X4762300Y1638341D02*
D03*
X4677700Y1697700D02*
D03*
X4727700Y1834347D02*
D03*
X3480000Y2670000D02*
D03*
X3370000Y2750000D02*
D03*
X3600000Y2730000D02*
D03*
X3340000Y3030000D02*
D03*
X3210000Y2720000D02*
D03*
X1300000Y1680000D02*
D03*
X1290000Y1500000D02*
D03*
X1390000Y1290000D02*
D03*
X1690000Y1641900D02*
D03*
X2600000Y2480000D02*
D03*
X2560601Y2538342D02*
D03*
X3810000Y2620000D02*
D03*
X4320000Y2794801D02*
D03*
X4427700Y2737700D02*
D03*
X5020000Y1590000D02*
D03*
X5010000Y1440000D02*
D03*
X5950000Y1850000D02*
D03*
X4477700Y1467700D02*
D03*
X4592300Y1612101D02*
D03*
X5810000Y2190000D02*
D03*
X6060000Y3220000D02*
D03*
X8050000Y2940000D02*
D03*
X7760000Y2900000D02*
D03*
X8560000Y2750000D02*
D03*
X8310000Y3070000D02*
D03*
X8440000Y450000D02*
D03*
X6860000Y210000D02*
D03*
X8450000Y2920000D02*
D03*
X7670000Y630000D02*
D03*
X8110000Y2630000D02*
D03*
X8000000D02*
D03*
X8110000Y2300000D02*
D03*
X8000000D02*
D03*
X8010000Y560000D02*
D03*
X8120000Y1100000D02*
D03*
X8010000D02*
D03*
X8120000Y560000D02*
D03*
X7940000Y290000D02*
D03*
X2550000Y2900000D02*
D03*
X2390000Y2280000D02*
D03*
X2610000Y2990000D02*
D03*
X2380000Y1970000D02*
D03*
X3180000Y3110000D02*
D03*
X3220000Y2600000D02*
D03*
X2600000Y2070000D02*
D03*
X4236301Y1370000D02*
D03*
X3992248Y1410000D02*
D03*
X1680000Y2150000D02*
D03*
X2280000Y2360000D02*
D03*
X3740000Y2450751D02*
D03*
X1680000Y2070000D02*
D03*
Y1910000D02*
D03*
Y1830000D02*
D03*
X3260000Y910000D02*
D03*
X3330000Y990000D02*
D03*
X2190000Y1510000D02*
D03*
X4111400Y1190131D02*
D03*
X4214362Y1290000D02*
D03*
X4236301Y1210000D02*
D03*
X2720000Y2920000D02*
D03*
X2907499Y2917499D02*
D03*
X2810000Y2920000D02*
D03*
X3651324Y2326910D02*
D03*
X3785115Y2505394D02*
D03*
X3692499Y2065001D02*
D03*
X3716241Y2299673D02*
D03*
X3764660Y1694665D02*
D03*
X3020000Y2215000D02*
D03*
X3757693Y2137696D02*
D03*
X5457700Y3917700D02*
D03*
X5305050D02*
D03*
X4987700Y757700D02*
D03*
X2047700Y1462700D02*
D03*
X4674153Y1891247D02*
D03*
X4616991Y2128410D02*
D03*
X4532400Y2593450D02*
D03*
X4597700Y2007833D02*
D03*
X5567689Y3917693D02*
D03*
X4477700Y2647700D02*
D03*
X4331226Y2659800D02*
D03*
X3767700Y2251496D02*
D03*
X4144176Y2659799D02*
D03*
X4072300Y2757700D02*
D03*
X4187300Y2757700D02*
D03*
X5521950Y3847052D02*
D03*
X4237700Y2897700D02*
D03*
D80*
X5680000Y4330000D02*
D03*
X5590000D02*
D03*
D81*
X9700000Y300000D02*
D03*
Y4500000D02*
D03*
X300000D02*
D03*
Y300000D02*
D03*
%TF.MD5,b8732adcef7915a0737f8ff8618ac90d*%
M02*
