%TF.GenerationSoftware,Altium Limited,Altium Designer,23.4.1 (23)*%
G04 Layer_Color=65535*
%FSLAX43Y43*%
%MOMM*%
%TF.SameCoordinates,F1D85D2B-AD7B-4026-9487-DA5914AD0DFB*%
%TF.FilePolarity,Positive*%
%TF.FileFunction,Legend,Top*%
%TF.Part,Single*%
G01*
G75*
%TA.AperFunction,NonConductor*%
%ADD93C,0.254*%
%ADD128C,0.200*%
%ADD129C,0.250*%
%ADD130C,0.600*%
%ADD131C,0.400*%
%ADD132C,0.152*%
%ADD133C,0.076*%
G36*
X49411Y32886D02*
X49157D01*
Y33267D01*
X49411D01*
Y32886D01*
D02*
G37*
G36*
X51887Y38243D02*
X52268D01*
Y38497D01*
X51887D01*
Y38243D01*
D02*
G37*
G36*
X53887Y29911D02*
X54268D01*
Y29657D01*
X53887D01*
Y29911D01*
D02*
G37*
G36*
X57743Y35886D02*
X57997D01*
Y36267D01*
X57743D01*
Y35886D01*
D02*
G37*
D93*
X94800Y7300D02*
G03*
X99500Y11900I50J4650D01*
G01*
X90300Y12000D02*
G03*
X94900Y7300I4650J-50D01*
G01*
X94800Y27700D02*
G03*
X93695Y27579I-50J-4650D01*
G01*
X99500Y23000D02*
G03*
X94900Y27700I-4650J50D01*
G01*
X93650Y27550D02*
Y28100D01*
X85550Y12400D02*
X90300D01*
Y12000D02*
Y12400D01*
X85550D02*
Y28100D01*
X93650D01*
X99500Y11900D02*
Y23000D01*
D128*
X8138Y8330D02*
G03*
X8138Y8330I-254J0D01*
G01*
X9900Y500D02*
Y4900D01*
X30825Y38623D02*
X33775D01*
X9900Y500D02*
X26600Y500D01*
X26000Y5500D02*
X26600Y4900D01*
X23142Y6290D02*
X28010D01*
X30825Y37777D02*
Y38623D01*
X33775Y37777D02*
Y38623D01*
X12606Y26021D02*
Y28025D01*
X30825Y37777D02*
X33775D01*
X38654Y36952D02*
X39500D01*
X10500Y5500D02*
X26000Y5500D01*
X26600Y500D02*
Y4900D01*
X47130Y43730D02*
Y46270D01*
Y43730D02*
X52210D01*
X7700Y13000D02*
X9500D01*
X9856Y33544D02*
Y35956D01*
X5650Y24450D02*
X7350D01*
X52210Y43730D02*
Y46270D01*
X31100Y47400D02*
X31700Y46800D01*
X9900Y4900D02*
X10500Y5500D01*
X47130Y46270D02*
X52210D01*
X40090Y1330D02*
Y3870D01*
X47710D01*
X17070Y43530D02*
Y46070D01*
X9450Y43530D02*
X17070D01*
X32600Y47400D02*
X45600D01*
X32000Y42400D02*
X46200D01*
X32000D02*
Y46800D01*
X46200Y42400D02*
Y46800D01*
X45600Y47400D02*
X46200Y46800D01*
X32000D02*
X32600Y47400D01*
X18100D02*
X31100D01*
X17500Y42400D02*
X31700D01*
X17500D02*
Y46800D01*
X39500Y34002D02*
Y36952D01*
X5675Y25975D02*
X7325D01*
X10894Y26021D02*
Y28433D01*
X5675Y27625D02*
X7325D01*
X28650Y1290D02*
Y6370D01*
X38810Y1290D02*
Y6370D01*
X20390Y6290D02*
Y11370D01*
X28650Y6370D02*
X38810D01*
X28010Y6290D02*
Y11370D01*
X28650Y1290D02*
X38810D01*
X20390Y11370D02*
X28010D01*
X20390Y6290D02*
X28010D01*
X61298Y10908D02*
X63756D01*
X61298Y7396D02*
X63756D01*
X31375Y28950D02*
Y31950D01*
X24775D02*
X31375D01*
X24775Y28950D02*
X31375D01*
X61298Y9158D02*
X63756D01*
X17500Y46800D02*
X18100Y47400D01*
X40090Y1330D02*
X47710D01*
X9650Y30475D02*
Y30925D01*
X44502Y35777D02*
Y36377D01*
X45852Y35777D02*
Y36377D01*
X87900Y42005D02*
X92500D01*
X61298Y9146D02*
X63756D01*
X7249Y13029D02*
X10551D01*
X87900Y44795D02*
X92500D01*
X48452Y35777D02*
Y36377D01*
X42590Y4230D02*
X47670D01*
Y6770D01*
X-1700Y30200D02*
X-100D01*
X7249Y8711D02*
Y13029D01*
X100Y30200D02*
X5800D01*
X47710Y1330D02*
Y3870D01*
X2750Y15000D02*
X4350D01*
X42590Y4230D02*
Y6770D01*
X47670D01*
X5650Y22750D02*
X7350D01*
X7700Y14600D02*
X9500D01*
X7850Y30475D02*
Y30925D01*
X8144Y33544D02*
Y35956D01*
X8750Y27800D02*
Y28300D01*
X47102Y35777D02*
Y36377D01*
X-1700Y30200D02*
Y41900D01*
X100D02*
X6100D01*
X-1700D02*
X-100D01*
X22525Y33650D02*
X22700D01*
X7249Y8711D02*
X10551D01*
X8500Y28050D02*
X9000D01*
X4350Y7600D02*
Y8700D01*
X10551Y8711D02*
Y13029D01*
X4350Y13900D02*
Y15000D01*
X24775Y28950D02*
Y31950D01*
X2750Y7600D02*
X4350D01*
X19000Y27450D02*
Y33650D01*
X22525Y27450D02*
X22700D01*
X19000Y33650D02*
X19175D01*
X22700Y27450D02*
Y33650D01*
X31700Y42400D02*
Y46800D01*
X5675Y24375D02*
X7325D01*
X12650Y29650D02*
X15850D01*
X13796Y8821D02*
X16204D01*
X11700Y42250D02*
X14800D01*
X11700Y37250D02*
X14800D01*
X13796Y11979D02*
X16204D01*
X19722Y37248D02*
X22180D01*
X46902Y32427D02*
X48652D01*
X25974Y37248D02*
X28432D01*
X41197Y38830D02*
X42947D01*
X61448Y15446D02*
X63906D01*
X19000Y27450D02*
X19175D01*
X30325Y14771D02*
X30679D01*
X28221Y22029D02*
X30679D01*
X5650Y21150D02*
X7350D01*
X5675Y26025D02*
X7325D01*
X5650Y22850D02*
X7350D01*
X28144Y11794D02*
X30556D01*
X15850Y29650D02*
Y36350D01*
X12650D02*
X15850D01*
X12650Y29650D02*
Y36350D01*
X17244Y12006D02*
X19656D01*
X17244Y10294D02*
X19656D01*
X36777Y30577D02*
X38577D01*
X69648Y5006D02*
X72506D01*
X69648Y3148D02*
X72506D01*
X22848Y37248D02*
X25306D01*
X36427Y30652D02*
X39127D01*
X46897Y34130D02*
X48647D01*
X61298Y26908D02*
X63756D01*
X61448Y17208D02*
X63906D01*
X47102Y30177D02*
Y30777D01*
X23071Y27521D02*
Y29979D01*
X24829Y28654D02*
Y29979D01*
X36777Y32177D02*
X38577D01*
X22971Y31121D02*
Y33579D01*
X31275Y16750D02*
Y19950D01*
X24729Y31121D02*
Y32466D01*
X48452Y30177D02*
Y30777D01*
X9450Y43530D02*
Y46070D01*
X67929Y25078D02*
Y25476D01*
X61297Y23396D02*
X63755D01*
X65125Y25078D02*
Y25476D01*
X9450Y46070D02*
X17070D01*
X38197Y38830D02*
X39947D01*
X58121Y27671D02*
Y30083D01*
X61448Y17196D02*
X63906D01*
X41202Y37127D02*
X42952D01*
X61448Y18958D02*
X63906D01*
X65125Y9078D02*
Y9476D01*
X38654Y34002D02*
X39500D01*
X59833Y27671D02*
Y30083D01*
X61297Y25158D02*
X63755D01*
X65125Y17078D02*
Y17476D01*
X67929Y17078D02*
Y17476D01*
X38202Y37127D02*
X39952D01*
X53471Y27533D02*
X55883D01*
X35197Y38830D02*
X36947D01*
X81200Y25777D02*
Y28777D01*
X79854D02*
X81200D01*
X49671Y27421D02*
X52083D01*
X79854Y8027D02*
X81200D01*
X79854Y5027D02*
Y8027D01*
X58244Y37006D02*
X60756D01*
X13106Y15944D02*
Y18356D01*
X30325Y13506D02*
X30556D01*
X11394Y15944D02*
Y18356D01*
X33121Y24098D02*
Y26510D01*
X49671Y29133D02*
X52083D01*
X81200Y5027D02*
Y8027D01*
X67929Y9078D02*
Y9476D01*
X38654Y34002D02*
Y36952D01*
X37427Y26502D02*
X39127D01*
X35202Y37127D02*
X36952D01*
X79854Y25777D02*
X81200D01*
X53471Y25821D02*
X55883D01*
X58217Y33594D02*
X60729D01*
X79854Y5027D02*
X81200D01*
X79854Y25777D02*
Y28777D01*
X61298Y25146D02*
X63756D01*
X56800Y13000D02*
X59400D01*
X51200D02*
X53800D01*
X59400D02*
X60400Y12000D01*
X50200D02*
X51200Y13000D01*
X50200Y2800D02*
Y12000D01*
X60400Y2800D02*
Y12000D01*
X50200Y2800D02*
X53925D01*
X56675D02*
X60400D01*
X79300Y45000D02*
X81900D01*
X73700D02*
X76300D01*
X81900D02*
X82900Y44000D01*
X72700D02*
X73700Y45000D01*
X72700Y34800D02*
Y44000D01*
X82900Y34800D02*
Y44000D01*
X72700Y34800D02*
X76425D01*
X79175D02*
X82900D01*
X68300Y45000D02*
X70900D01*
X62700D02*
X65300D01*
X70900D02*
X71900Y44000D01*
X61700D02*
X62700Y45000D01*
X61700Y34800D02*
Y44000D01*
X71900Y34800D02*
Y44000D01*
X61700Y34800D02*
X65425D01*
X68175D02*
X71900D01*
X16177Y14077D02*
X16577D01*
X25877D02*
X26277D01*
Y23777D02*
Y24177D01*
Y14077D02*
Y14477D01*
X16177Y24177D02*
X16577D01*
X25877D02*
X26277D01*
X16177Y23777D02*
Y24177D01*
Y14077D02*
Y14477D01*
X38527Y15127D02*
X38777D01*
X38527D02*
Y15377D01*
X44777Y15127D02*
X45027D01*
Y15377D01*
X38527Y25627D02*
X38777D01*
X38527Y25377D02*
Y25627D01*
X44777D02*
X45027D01*
Y25377D02*
Y25627D01*
X80054Y12780D02*
X81251D01*
X80054Y9274D02*
X81251D01*
X79929Y24780D02*
X81125D01*
X79929Y21274D02*
X81125D01*
X1001Y23600D02*
X1801D01*
X1401Y24000D02*
Y23200D01*
X3000Y24200D02*
X2201D01*
Y23600D01*
X2601Y23800D01*
X2800D01*
X3000Y23600D01*
Y23200D01*
X2800Y23000D01*
X2401D01*
X2201Y23200D01*
X3400Y24200D02*
Y23400D01*
X3800Y23000D01*
X4200Y23400D01*
Y24200D01*
X3300Y16400D02*
X3500Y16600D01*
X3900D01*
X4100Y16400D01*
Y16200D01*
X3900Y16000D01*
X3700D01*
X3900D01*
X4100Y15800D01*
Y15600D01*
X3900Y15400D01*
X3500D01*
X3300Y15600D01*
X4100Y16900D02*
X3300D01*
X4100Y17700D01*
Y17900D01*
X3900Y18100D01*
X3500D01*
X3300Y17900D01*
X3700Y18400D02*
X4100D01*
X3900D01*
Y19600D01*
X3700Y19400D01*
X3300Y20900D02*
X3500Y21100D01*
X3900D01*
X4100Y20900D01*
Y20100D01*
X3900Y19900D01*
X3500D01*
X3300Y20100D01*
Y20900D01*
X1001Y22000D02*
X1800D01*
X1400Y22400D02*
Y21600D01*
X2200Y22400D02*
X2400Y22600D01*
X2800D01*
X3000Y22400D01*
Y22200D01*
X2800Y22000D01*
X2600D01*
X2800D01*
X3000Y21800D01*
Y21600D01*
X2800Y21400D01*
X2400D01*
X2200Y21600D01*
X3400Y22600D02*
Y21800D01*
X3800Y21400D01*
X4199Y21800D01*
Y22600D01*
X1800Y25800D02*
X1001D01*
Y25200D01*
X1400D01*
X1001D01*
Y24600D01*
X2200Y25800D02*
Y24600D01*
X3000D01*
X3400Y25800D02*
X4199D01*
X3800D01*
Y24600D01*
X3000Y27200D02*
X2800Y27400D01*
X2400D01*
X2200Y27200D01*
Y27000D01*
X2400Y26800D01*
X2800D01*
X3000Y26600D01*
Y26400D01*
X2800Y26200D01*
X2400D01*
X2200Y26400D01*
X3400Y27400D02*
X4199D01*
X3800D01*
Y26200D01*
D129*
X31850Y33350D02*
G03*
X31850Y33350I-125J0D01*
G01*
X4895Y26800D02*
G03*
X4895Y26800I-125J0D01*
G01*
X4825Y23600D02*
G03*
X4825Y23600I-125J0D01*
G01*
X4895Y25200D02*
G03*
X4895Y25200I-125J0D01*
G01*
X4825Y22000D02*
G03*
X4825Y22000I-125J0D01*
G01*
X11375Y36350D02*
G03*
X11375Y36350I-125J0D01*
G01*
X31425Y35098D02*
G03*
X31425Y35098I-125J0D01*
G01*
X36100Y36477D02*
G03*
X36100Y36477I-125J0D01*
G01*
X55425Y875D02*
G03*
X55425Y875I-125J0D01*
G01*
X77925Y32875D02*
G03*
X77925Y32875I-125J0D01*
G01*
X66925D02*
G03*
X66925Y32875I-125J0D01*
G01*
X17352Y12077D02*
G03*
X17352Y12077I-125J0D01*
G01*
X39302Y13871D02*
G03*
X39302Y13871I-125J0D01*
G01*
D130*
X30675Y30950D02*
G03*
X30675Y30950I-300J0D01*
G01*
D131*
X4850Y18600D02*
Y19400D01*
Y17100D02*
Y17900D01*
Y20100D02*
Y20900D01*
Y15600D02*
Y16400D01*
D132*
X56537Y30445D02*
X57209D01*
X56537Y37709D02*
X57209D01*
X49945Y37037D02*
Y37709D01*
Y30445D02*
X51117D01*
X57209D02*
Y31117D01*
Y37037D02*
Y37709D01*
X49945D02*
X50617D01*
X49945Y30445D02*
Y31117D01*
X72703Y9601D02*
Y9779D01*
X69351Y9601D02*
X71662D01*
X69351Y12775D02*
Y12953D01*
X71550Y9601D02*
X72703D01*
X69351D02*
Y9779D01*
Y12953D02*
X70504D01*
X72703Y12775D02*
Y12953D01*
X70504D02*
X72703D01*
X69351Y5601D02*
X71550D01*
X69351D02*
Y5779D01*
X71550Y5601D02*
X72703D01*
Y8775D02*
Y8953D01*
X69351D02*
X70504D01*
X72703Y5601D02*
Y5779D01*
X70392Y8953D02*
X72703D01*
X69351Y8775D02*
Y8953D01*
X72703Y17601D02*
Y17779D01*
X69351Y17601D02*
X71662D01*
X69351Y20775D02*
Y20953D01*
X71550Y17601D02*
X72703D01*
X69351D02*
Y17779D01*
Y20953D02*
X70504D01*
X72703Y20775D02*
Y20953D01*
X70504D02*
X72703D01*
X69351Y16775D02*
Y16953D01*
X70392D02*
X72703D01*
Y13601D02*
Y13779D01*
X69351Y16953D02*
X70504D01*
X72703Y16775D02*
Y16953D01*
X71550Y13601D02*
X72703D01*
X69351D02*
Y13779D01*
Y13601D02*
X71550D01*
X72703Y25601D02*
Y25779D01*
X69351Y25601D02*
X71662D01*
X69351Y28775D02*
Y28953D01*
X71550Y25601D02*
X72703D01*
X69351D02*
Y25779D01*
Y28953D02*
X70504D01*
X72703Y28775D02*
Y28953D01*
X70504D02*
X72703D01*
X69351Y24775D02*
Y24953D01*
X70392D02*
X72703D01*
Y21601D02*
Y21779D01*
X69351Y24953D02*
X70504D01*
X72703Y24775D02*
Y24953D01*
X71550Y21601D02*
X72703D01*
X69351D02*
Y21779D01*
Y21601D02*
X71550D01*
D133*
X59000Y30842D02*
X58154Y31688D01*
X59000D02*
X58154Y30842D01*
X59000Y31265D02*
X58154D01*
X58577Y31688D02*
Y30842D01*
%TF.MD5,a0ca8d76fe439f1ada32ddefc1524e31*%
M02*
