%TF.GenerationSoftware,Altium Limited,Altium Designer,23.4.1 (23)*%
G04 Layer_Color=32896*
%FSLAX43Y43*%
%MOMM*%
%TF.SameCoordinates,F1D85D2B-AD7B-4026-9487-DA5914AD0DFB*%
%TF.FilePolarity,Positive*%
%TF.FileFunction,Legend,Bot*%
%TF.Part,Single*%
G01*
G75*
%TA.AperFunction,NonConductor*%
%ADD128C,0.200*%
G36*
X56783Y30338D02*
X56976D01*
Y30274D01*
X57105D01*
Y30209D01*
X57169D01*
Y30145D01*
X57298D01*
Y30080D01*
X57362D01*
Y30016D01*
X57426D01*
Y29952D01*
X57491D01*
Y29823D01*
X57555D01*
Y29694D01*
X57620D01*
Y29566D01*
X57684D01*
Y29244D01*
X57813D01*
Y29179D01*
X57877D01*
Y29115D01*
X57941D01*
Y29051D01*
X58006D01*
Y28986D01*
X58070D01*
Y28922D01*
X58199D01*
Y28857D01*
X58263D01*
Y28793D01*
X58328D01*
Y28729D01*
X58392D01*
Y28664D01*
X58456D01*
Y28600D01*
X58521D01*
Y28536D01*
X58585D01*
Y28471D01*
X58649D01*
Y28407D01*
X58714D01*
Y28343D01*
X58778D01*
Y28278D01*
X58843D01*
Y28214D01*
X58907D01*
Y28149D01*
X58971D01*
Y28085D01*
X59036D01*
Y28021D01*
X59100D01*
Y27956D01*
X59164D01*
Y27892D01*
X59229D01*
Y27828D01*
X59293D01*
Y27763D01*
X59357D01*
Y27699D01*
X59422D01*
Y27634D01*
X59486D01*
Y27570D01*
X59551D01*
Y27506D01*
X59615D01*
Y27441D01*
X59679D01*
Y27377D01*
X59744D01*
Y27313D01*
X59808D01*
Y27248D01*
X59937D01*
Y27184D01*
X60001D01*
Y27120D01*
X60066D01*
Y27055D01*
X60130D01*
Y26991D01*
X60194D01*
Y26926D01*
X60259D01*
Y26862D01*
X60323D01*
Y26798D01*
X60387D01*
Y26733D01*
X60452D01*
Y26669D01*
X60516D01*
Y26605D01*
X60580D01*
Y26540D01*
X60645D01*
Y26476D01*
X60709D01*
Y26411D01*
X60774D01*
Y26347D01*
X60902D01*
Y26283D01*
X61095D01*
Y26218D01*
X61160D01*
Y26154D01*
X61224D01*
Y26090D01*
X61353D01*
Y26025D01*
X61417D01*
Y25961D01*
X61482D01*
Y25832D01*
X61546D01*
Y25768D01*
X61610D01*
Y25703D01*
X61675D01*
Y25575D01*
X61739D01*
Y25382D01*
X61803D01*
Y25188D01*
X61868D01*
Y24480D01*
X61803D01*
Y24223D01*
X61739D01*
Y23966D01*
X61675D01*
Y23579D01*
X61610D01*
Y23193D01*
X61546D01*
Y22871D01*
X61482D01*
Y22485D01*
X61417D01*
Y22099D01*
X61353D01*
Y21777D01*
X61289D01*
Y21391D01*
X61224D01*
Y21005D01*
X61160D01*
Y20683D01*
X61095D01*
Y20297D01*
X61031D01*
Y19910D01*
X60967D01*
Y19524D01*
X60902D01*
Y19202D01*
X60838D01*
Y18816D01*
X60774D01*
Y18623D01*
X60838D01*
Y18559D01*
X60967D01*
Y18494D01*
X61031D01*
Y18430D01*
X61095D01*
Y18366D01*
X61031D01*
Y18301D01*
X60967D01*
Y18237D01*
X60902D01*
Y18172D01*
X60838D01*
Y18108D01*
X60774D01*
Y18044D01*
X60709D01*
Y17979D01*
X60645D01*
Y17915D01*
X60580D01*
Y17851D01*
X60516D01*
Y17786D01*
X60452D01*
Y17657D01*
X60387D01*
Y17593D01*
X60323D01*
Y17529D01*
X60259D01*
Y17464D01*
X60194D01*
Y17400D01*
X60130D01*
Y17336D01*
X60066D01*
Y17271D01*
X60001D01*
Y17207D01*
X59937D01*
Y17143D01*
X59872D01*
Y17078D01*
X59808D01*
Y17014D01*
X59744D01*
Y16949D01*
X59679D01*
Y16885D01*
X59615D01*
Y16756D01*
X59551D01*
Y16692D01*
X59486D01*
Y16628D01*
X59422D01*
Y16563D01*
X59357D01*
Y16499D01*
X59293D01*
Y16434D01*
X59229D01*
Y16370D01*
X59164D01*
Y16306D01*
X59100D01*
Y16241D01*
X59036D01*
Y16177D01*
X58971D01*
Y16113D01*
X58907D01*
Y16048D01*
X58843D01*
Y15984D01*
X58778D01*
Y15855D01*
X58714D01*
Y15791D01*
X58649D01*
Y15726D01*
X58585D01*
Y15662D01*
X58521D01*
Y15598D01*
X58456D01*
Y15533D01*
X58392D01*
Y15469D01*
X58328D01*
Y15405D01*
X58263D01*
Y15340D01*
X58199D01*
Y15276D01*
X58134D01*
Y15211D01*
X58070D01*
Y15147D01*
X58006D01*
Y15083D01*
X57941D01*
Y14954D01*
X57877D01*
Y14890D01*
X57813D01*
Y14825D01*
X57684D01*
Y14954D01*
X57620D01*
Y15083D01*
X57555D01*
Y15147D01*
X57362D01*
Y15083D01*
X57105D01*
Y15018D01*
X56847D01*
Y14954D01*
X56590D01*
Y14890D01*
X56332D01*
Y14825D01*
X56075D01*
Y14761D01*
X55753D01*
Y14697D01*
X55495D01*
Y14632D01*
X55238D01*
Y14568D01*
X54980D01*
Y14503D01*
X54723D01*
Y14439D01*
X54466D01*
Y14375D01*
X54208D01*
Y14310D01*
X53951D01*
Y14246D01*
X53629D01*
Y14182D01*
X53371D01*
Y14117D01*
X53114D01*
Y14053D01*
X52856D01*
Y13988D01*
X52599D01*
Y13924D01*
X52341D01*
Y13860D01*
X52084D01*
Y13795D01*
X51891D01*
Y13731D01*
X51698D01*
Y13667D01*
X50925D01*
Y13731D01*
X50668D01*
Y13795D01*
X50539D01*
Y13860D01*
X50410D01*
Y13924D01*
X50346D01*
Y13988D01*
X50282D01*
Y14053D01*
X50153D01*
Y14182D01*
X50089D01*
Y14246D01*
X50024D01*
Y14310D01*
X49960D01*
Y14375D01*
X49895D01*
Y14503D01*
X49831D01*
Y14632D01*
X49767D01*
Y14697D01*
X49702D01*
Y14761D01*
X49638D01*
Y14825D01*
X49574D01*
Y14890D01*
X49509D01*
Y14954D01*
X49445D01*
Y15018D01*
X49380D01*
Y15083D01*
X49316D01*
Y15147D01*
X49187D01*
Y15211D01*
X49123D01*
Y15276D01*
X49059D01*
Y15340D01*
X48994D01*
Y15405D01*
X48930D01*
Y15469D01*
X48866D01*
Y15533D01*
X48801D01*
Y15598D01*
X48737D01*
Y15662D01*
X48672D01*
Y15726D01*
X48608D01*
Y15791D01*
X48544D01*
Y15855D01*
X48415D01*
Y15920D01*
X48351D01*
Y15984D01*
X48286D01*
Y16048D01*
X48222D01*
Y16113D01*
X48157D01*
Y16177D01*
X48093D01*
Y16241D01*
X48029D01*
Y16306D01*
X47964D01*
Y16370D01*
X47900D01*
Y16434D01*
X47836D01*
Y16499D01*
X47771D01*
Y16563D01*
X47643D01*
Y16628D01*
X47578D01*
Y16692D01*
X47514D01*
Y16756D01*
X47449D01*
Y16821D01*
X47385D01*
Y16885D01*
X47321D01*
Y16949D01*
X47256D01*
Y17014D01*
X47192D01*
Y17078D01*
X47128D01*
Y17143D01*
X47063D01*
Y17207D01*
X46999D01*
Y17271D01*
X46870D01*
Y17336D01*
X46806D01*
Y17400D01*
X46741D01*
Y17529D01*
X46484D01*
Y17593D01*
X46226D01*
Y17657D01*
X46098D01*
Y17722D01*
X46033D01*
Y17786D01*
X45969D01*
Y17851D01*
X45840D01*
Y17915D01*
X45776D01*
Y18044D01*
X45711D01*
Y18108D01*
X45647D01*
Y18237D01*
X45583D01*
Y18430D01*
X45518D01*
Y19138D01*
X45583D01*
Y19267D01*
X45647D01*
Y19717D01*
X45711D01*
Y19782D01*
Y19846D01*
Y21005D01*
X45776D01*
Y22292D01*
X45840D01*
Y23579D01*
X45905D01*
Y24867D01*
X45969D01*
Y25253D01*
X46033D01*
Y25317D01*
X46162D01*
Y25382D01*
X46291D01*
Y25446D01*
X46484D01*
Y25124D01*
X46548D01*
Y25253D01*
X46613D01*
Y25382D01*
X46677D01*
Y25510D01*
X46741D01*
Y25639D01*
X46806D01*
Y25768D01*
X46870D01*
Y25897D01*
X46934D01*
Y25961D01*
X46999D01*
Y26090D01*
X47063D01*
Y26218D01*
X47128D01*
Y26347D01*
X47192D01*
Y26540D01*
X47128D01*
Y26798D01*
X47192D01*
Y26862D01*
X47256D01*
Y26926D01*
X47321D01*
Y27055D01*
X47385D01*
Y27120D01*
X47449D01*
Y27184D01*
X47514D01*
Y27248D01*
X47578D01*
Y27313D01*
X47643D01*
Y27377D01*
X47707D01*
Y27441D01*
X47771D01*
Y27506D01*
X47836D01*
Y27570D01*
X47900D01*
Y27699D01*
X47964D01*
Y27763D01*
X48029D01*
Y27828D01*
X48093D01*
Y27892D01*
X48157D01*
Y27956D01*
X48222D01*
Y28021D01*
X48286D01*
Y28085D01*
X48351D01*
Y28149D01*
X48415D01*
Y28214D01*
X48479D01*
Y28278D01*
X48544D01*
Y28343D01*
X48608D01*
Y28407D01*
X48672D01*
Y28471D01*
X48737D01*
Y28536D01*
X48801D01*
Y28600D01*
X48866D01*
Y28664D01*
X48994D01*
Y28729D01*
X49123D01*
Y28793D01*
X49252D01*
Y28857D01*
X49445D01*
Y28793D01*
X49574D01*
Y28729D01*
X49960D01*
Y28793D01*
X50217D01*
Y28857D01*
X50346D01*
Y28922D01*
X50539D01*
Y28986D01*
X49831D01*
Y29051D01*
X49767D01*
Y29115D01*
X49831D01*
Y29244D01*
X49895D01*
Y29372D01*
X49960D01*
Y29501D01*
X50024D01*
Y29566D01*
X50539D01*
Y29630D01*
X51118D01*
Y29694D01*
X51633D01*
Y29759D01*
X52213D01*
Y29823D01*
X52792D01*
Y29887D01*
X53371D01*
Y29952D01*
X53886D01*
Y30016D01*
X54466D01*
Y30080D01*
X55045D01*
Y30145D01*
X55624D01*
Y30209D01*
X55882D01*
Y30274D01*
X56010D01*
Y30338D01*
X56139D01*
Y30402D01*
X56783D01*
Y30338D01*
D02*
G37*
G36*
X6640Y19386D02*
X5743Y21562D01*
X6426D01*
X6634Y20918D01*
X6822Y21562D01*
X7528D01*
X6640Y19386D01*
D02*
G37*
G36*
X10559Y19503D02*
X9947D01*
Y21008D01*
X9801D01*
X9765Y21002D01*
X9736Y20995D01*
X9707Y20986D01*
X9688Y20973D01*
X9668Y20960D01*
X9652Y20947D01*
X9642Y20934D01*
X9626Y20908D01*
X9616Y20882D01*
X9613Y20866D01*
Y20863D01*
Y20859D01*
X9616Y20830D01*
X9623Y20804D01*
X9633Y20782D01*
X9642Y20766D01*
X9675Y20733D01*
X9710Y20714D01*
X9749Y20704D01*
X9778Y20698D01*
X9791Y20694D01*
X9856D01*
Y20163D01*
X9561Y19503D01*
X8917D01*
X9270Y20348D01*
X9221Y20390D01*
X9179Y20432D01*
X9144Y20477D01*
X9111Y20523D01*
X9085Y20568D01*
X9063Y20610D01*
X9043Y20652D01*
X9030Y20694D01*
X9017Y20730D01*
X9008Y20766D01*
X9004Y20798D01*
X8998Y20824D01*
Y20847D01*
X8995Y20863D01*
Y20872D01*
Y20876D01*
X8998Y20931D01*
X9004Y20986D01*
X9014Y21038D01*
X9030Y21083D01*
X9046Y21128D01*
X9066Y21170D01*
X9085Y21209D01*
X9105Y21245D01*
X9127Y21274D01*
X9147Y21303D01*
X9166Y21326D01*
X9182Y21345D01*
X9199Y21361D01*
X9208Y21371D01*
X9215Y21378D01*
X9218Y21381D01*
X9257Y21413D01*
X9299Y21442D01*
X9341Y21465D01*
X9390Y21485D01*
X9480Y21517D01*
X9571Y21540D01*
X9613Y21546D01*
X9652Y21553D01*
X9684Y21556D01*
X9717Y21559D01*
X9739Y21562D01*
X10559D01*
Y19503D01*
D02*
G37*
G36*
X8159Y21559D02*
X8214Y21556D01*
X8263Y21546D01*
X8311Y21536D01*
X8353Y21523D01*
X8392Y21510D01*
X8428Y21494D01*
X8460Y21481D01*
X8489Y21465D01*
X8512Y21449D01*
X8535Y21436D01*
X8551Y21423D01*
X8567Y21413D01*
X8577Y21404D01*
X8580Y21400D01*
X8583Y21397D01*
X8612Y21365D01*
X8638Y21332D01*
X8661Y21293D01*
X8680Y21258D01*
X8710Y21180D01*
X8729Y21106D01*
X8742Y21041D01*
X8745Y21012D01*
X8748Y20986D01*
X8752Y20966D01*
Y20950D01*
Y20940D01*
Y20937D01*
Y20134D01*
X8748Y20079D01*
X8745Y20027D01*
X8736Y19975D01*
X8723Y19930D01*
X8710Y19888D01*
X8697Y19849D01*
X8680Y19817D01*
X8661Y19784D01*
X8645Y19755D01*
X8629Y19732D01*
X8616Y19713D01*
X8603Y19694D01*
X8590Y19681D01*
X8580Y19671D01*
X8577Y19668D01*
X8574Y19664D01*
X8538Y19635D01*
X8499Y19613D01*
X8457Y19590D01*
X8415Y19571D01*
X8331Y19541D01*
X8246Y19522D01*
X8208Y19515D01*
X8172Y19512D01*
X8140Y19509D01*
X8110Y19506D01*
X8088Y19503D01*
X7573D01*
Y20092D01*
X8020D01*
X8052Y20095D01*
X8075Y20098D01*
X8094Y20102D01*
X8110Y20105D01*
X8120Y20108D01*
X8123Y20111D01*
X8127D01*
X8136Y20121D01*
X8146Y20134D01*
X8156Y20160D01*
Y20173D01*
X8159Y20186D01*
Y20192D01*
Y20196D01*
Y20215D01*
X8153Y20234D01*
X8143Y20257D01*
X8133Y20273D01*
X8127Y20277D01*
X8114Y20286D01*
X8094Y20293D01*
X8059Y20299D01*
X8039Y20302D01*
X7612D01*
Y20762D01*
X7981D01*
X8010Y20766D01*
X8033Y20769D01*
X8052Y20775D01*
X8068Y20779D01*
X8078Y20782D01*
X8081Y20785D01*
X8085D01*
X8098Y20795D01*
X8104Y20808D01*
X8117Y20834D01*
Y20847D01*
X8120Y20856D01*
Y20863D01*
Y20866D01*
X8117Y20885D01*
X8114Y20902D01*
X8094Y20927D01*
X8072Y20944D01*
X8042Y20957D01*
X8013Y20963D01*
X7987Y20970D01*
X7573D01*
Y21562D01*
X8104D01*
X8159Y21559D01*
D02*
G37*
G36*
X4451Y19503D02*
X3868D01*
Y21562D01*
X4451D01*
Y19503D01*
D02*
G37*
G36*
X2754Y20173D02*
X2803Y20160D01*
X2845Y20144D01*
X2880Y20124D01*
X2909Y20102D01*
X2932Y20085D01*
X2948Y20073D01*
X2952Y20069D01*
X2987Y20027D01*
X3010Y19985D01*
X3029Y19943D01*
X3042Y19904D01*
X3049Y19868D01*
X3052Y19839D01*
X3055Y19820D01*
Y19817D01*
Y19813D01*
X3052Y19758D01*
X3039Y19707D01*
X3023Y19664D01*
X3007Y19629D01*
X2987Y19596D01*
X2974Y19577D01*
X2961Y19561D01*
X2958Y19558D01*
X2919Y19525D01*
X2877Y19503D01*
X2832Y19483D01*
X2793Y19473D01*
X2757Y19467D01*
X2728Y19464D01*
X2709Y19460D01*
X2702D01*
X2647Y19464D01*
X2599Y19477D01*
X2556Y19493D01*
X2518Y19512D01*
X2488Y19528D01*
X2466Y19545D01*
X2450Y19558D01*
X2446Y19561D01*
X2411Y19603D01*
X2385Y19645D01*
X2365Y19687D01*
X2352Y19726D01*
X2346Y19762D01*
X2339Y19788D01*
Y19807D01*
Y19813D01*
X2343Y19865D01*
X2356Y19914D01*
X2372Y19956D01*
X2391Y19995D01*
X2414Y20024D01*
X2430Y20047D01*
X2443Y20063D01*
X2446Y20066D01*
X2488Y20102D01*
X2531Y20131D01*
X2573Y20150D01*
X2615Y20163D01*
X2650Y20170D01*
X2676Y20176D01*
X2702D01*
X2754Y20173D01*
D02*
G37*
G36*
X1300Y21611D02*
X1358Y21604D01*
X1413Y21591D01*
X1465Y21578D01*
X1514Y21562D01*
X1559Y21543D01*
X1598Y21520D01*
X1633Y21501D01*
X1666Y21478D01*
X1695Y21455D01*
X1721Y21436D01*
X1740Y21420D01*
X1757Y21407D01*
X1766Y21394D01*
X1773Y21387D01*
X1776Y21384D01*
X1812Y21339D01*
X1841Y21290D01*
X1867Y21242D01*
X1889Y21190D01*
X1906Y21138D01*
X1922Y21083D01*
X1944Y20983D01*
X1954Y20937D01*
X1961Y20895D01*
X1964Y20856D01*
X1967Y20821D01*
X1970Y20795D01*
Y20772D01*
Y20759D01*
Y20756D01*
Y20306D01*
X1967Y20234D01*
X1961Y20166D01*
X1951Y20102D01*
X1941Y20040D01*
X1925Y19985D01*
X1909Y19933D01*
X1893Y19888D01*
X1873Y19846D01*
X1854Y19807D01*
X1837Y19775D01*
X1821Y19745D01*
X1805Y19723D01*
X1795Y19703D01*
X1786Y19690D01*
X1779Y19684D01*
X1776Y19681D01*
X1737Y19642D01*
X1695Y19606D01*
X1653Y19574D01*
X1608Y19548D01*
X1562Y19525D01*
X1520Y19506D01*
X1475Y19493D01*
X1433Y19480D01*
X1394Y19470D01*
X1355Y19464D01*
X1323Y19457D01*
X1293Y19454D01*
X1271Y19451D01*
X1238D01*
X1177Y19454D01*
X1119Y19460D01*
X1064Y19473D01*
X1012Y19486D01*
X963Y19503D01*
X918Y19522D01*
X879Y19545D01*
X843Y19567D01*
X811Y19587D01*
X782Y19609D01*
X756Y19629D01*
X736Y19645D01*
X720Y19658D01*
X711Y19671D01*
X704Y19677D01*
X701Y19681D01*
X665Y19726D01*
X636Y19775D01*
X607Y19823D01*
X584Y19875D01*
X565Y19927D01*
X549Y19979D01*
X526Y20079D01*
X516Y20124D01*
X510Y20170D01*
X506Y20209D01*
X503Y20241D01*
X500Y20267D01*
Y20289D01*
Y20302D01*
Y20306D01*
Y20756D01*
X503Y20827D01*
X510Y20898D01*
X519Y20963D01*
X532Y21021D01*
X545Y21080D01*
X565Y21128D01*
X581Y21177D01*
X600Y21219D01*
X620Y21258D01*
X636Y21290D01*
X655Y21319D01*
X668Y21342D01*
X681Y21361D01*
X691Y21374D01*
X698Y21381D01*
X701Y21384D01*
X740Y21426D01*
X782Y21459D01*
X824Y21491D01*
X869Y21517D01*
X911Y21540D01*
X957Y21559D01*
X1002Y21572D01*
X1044Y21585D01*
X1083Y21595D01*
X1122Y21601D01*
X1154Y21608D01*
X1183Y21611D01*
X1206Y21614D01*
X1238D01*
X1300Y21611D01*
D02*
G37*
G36*
X6262Y28092D02*
X6318Y28078D01*
X6364Y28060D01*
X6406Y28041D01*
X6443Y28018D01*
X6466Y27999D01*
X6484Y27986D01*
X6489Y27981D01*
X6526Y27935D01*
X6554Y27888D01*
X6577Y27842D01*
X6591Y27800D01*
X6600Y27763D01*
X6605Y27736D01*
Y27717D01*
Y27708D01*
X6600Y27648D01*
X6586Y27592D01*
X6568Y27546D01*
X6549Y27504D01*
X6531Y27472D01*
X6512Y27449D01*
X6498Y27435D01*
X6493Y27430D01*
X6447Y27393D01*
X6401Y27370D01*
X6350Y27352D01*
X6304Y27338D01*
X6262Y27328D01*
X6230Y27324D01*
X6202D01*
X6137Y27328D01*
X6082Y27342D01*
X6031Y27356D01*
X5989Y27379D01*
X5957Y27398D01*
X5929Y27412D01*
X5915Y27426D01*
X5910Y27430D01*
X5873Y27472D01*
X5846Y27518D01*
X5822Y27564D01*
X5809Y27611D01*
X5799Y27648D01*
X5795Y27680D01*
Y27699D01*
Y27708D01*
X5799Y27763D01*
X5813Y27819D01*
X5832Y27865D01*
X5855Y27902D01*
X5878Y27935D01*
X5896Y27962D01*
X5910Y27976D01*
X5915Y27981D01*
X5961Y28018D01*
X6012Y28046D01*
X6058Y28069D01*
X6105Y28083D01*
X6142Y28092D01*
X6174Y28097D01*
X6202D01*
X6262Y28092D01*
D02*
G37*
G36*
X17475Y24987D02*
X16666D01*
Y26153D01*
Y26190D01*
X16661Y26222D01*
X16647Y26269D01*
X16624Y26306D01*
X16601Y26333D01*
X16578Y26347D01*
X16554Y26352D01*
X16541Y26357D01*
X16508D01*
X16485Y26347D01*
X16453Y26333D01*
X16434Y26315D01*
X16430Y26310D01*
Y26306D01*
X16420Y26282D01*
X16411Y26259D01*
X16402Y26195D01*
X16397Y26167D01*
Y26144D01*
Y26125D01*
Y26121D01*
Y24987D01*
X15587D01*
Y26347D01*
X15597Y26481D01*
X15615Y26602D01*
X15647Y26708D01*
X15680Y26792D01*
X15698Y26829D01*
X15712Y26861D01*
X15731Y26889D01*
X15745Y26912D01*
X15754Y26930D01*
X15763Y26944D01*
X15772Y26949D01*
Y26954D01*
X15809Y26995D01*
X15846Y27028D01*
X15883Y27060D01*
X15925Y27083D01*
X16004Y27125D01*
X16082Y27153D01*
X16152Y27166D01*
X16180Y27176D01*
X16207D01*
X16231Y27180D01*
X16258D01*
X16332Y27176D01*
X16406Y27157D01*
X16476Y27134D01*
X16536Y27106D01*
X16592Y27074D01*
X16629Y27051D01*
X16656Y27032D01*
X16661Y27028D01*
X16666D01*
Y27930D01*
X17475D01*
Y24987D01*
D02*
G37*
G36*
X4716Y24903D02*
X3712Y27134D01*
X4457D01*
X4707Y26551D01*
X4939Y27134D01*
X5702D01*
X4716Y24903D01*
D02*
G37*
G36*
X20636Y27176D02*
X20715Y27166D01*
X20794Y27148D01*
X20868Y27129D01*
X20942Y27106D01*
X21007Y27078D01*
X21067Y27046D01*
X21122Y27018D01*
X21173Y26986D01*
X21215Y26954D01*
X21252Y26926D01*
X21284Y26903D01*
X21312Y26884D01*
X21330Y26866D01*
X21340Y26856D01*
X21344Y26852D01*
X21400Y26792D01*
X21451Y26727D01*
X21492Y26657D01*
X21529Y26593D01*
X21562Y26523D01*
X21590Y26458D01*
X21613Y26394D01*
X21627Y26333D01*
X21641Y26278D01*
X21650Y26227D01*
X21659Y26181D01*
X21664Y26139D01*
X21668Y26107D01*
Y26083D01*
Y26065D01*
Y26060D01*
X21664Y25972D01*
X21654Y25889D01*
X21641Y25806D01*
X21617Y25732D01*
X21594Y25662D01*
X21566Y25598D01*
X21539Y25533D01*
X21506Y25482D01*
X21479Y25431D01*
X21451Y25385D01*
X21423Y25348D01*
X21400Y25315D01*
X21377Y25292D01*
X21363Y25274D01*
X21354Y25264D01*
X21349Y25260D01*
X21284Y25204D01*
X21219Y25153D01*
X21155Y25112D01*
X21085Y25075D01*
X21016Y25042D01*
X20951Y25019D01*
X20886Y24996D01*
X20821Y24982D01*
X20766Y24968D01*
X20710Y24959D01*
X20659Y24950D01*
X20618Y24945D01*
X20585Y24940D01*
X20539D01*
X20474Y24945D01*
X20414Y24950D01*
X20391Y24954D01*
X20372D01*
X20359Y24959D01*
X20354D01*
Y25792D01*
X20391Y25773D01*
X20423Y25760D01*
X20488Y25746D01*
X20516Y25741D01*
X20534Y25736D01*
X20553D01*
X20599Y25741D01*
X20641Y25750D01*
X20678Y25764D01*
X20706Y25778D01*
X20733Y25792D01*
X20752Y25806D01*
X20761Y25815D01*
X20766Y25820D01*
X20794Y25857D01*
X20812Y25894D01*
X20831Y25931D01*
X20840Y25963D01*
X20845Y25996D01*
X20849Y26019D01*
Y26037D01*
Y26042D01*
X20845Y26088D01*
X20835Y26130D01*
X20821Y26167D01*
X20803Y26199D01*
X20789Y26222D01*
X20775Y26241D01*
X20766Y26255D01*
X20761Y26259D01*
X20724Y26292D01*
X20687Y26315D01*
X20650Y26333D01*
X20613Y26343D01*
X20585Y26352D01*
X20562Y26357D01*
X20539D01*
X20488Y26352D01*
X20447Y26338D01*
X20410Y26324D01*
X20377Y26306D01*
X20349Y26282D01*
X20331Y26269D01*
X20322Y26255D01*
X20317Y26250D01*
X20289Y26208D01*
X20271Y26167D01*
X20252Y26121D01*
X20243Y26079D01*
X20238Y26042D01*
X20234Y26009D01*
Y25991D01*
Y25982D01*
Y24987D01*
X19424D01*
Y26037D01*
X19428Y26134D01*
X19438Y26222D01*
X19452Y26310D01*
X19470Y26389D01*
X19493Y26463D01*
X19521Y26532D01*
X19544Y26597D01*
X19572Y26653D01*
X19604Y26704D01*
X19627Y26745D01*
X19655Y26782D01*
X19678Y26815D01*
X19697Y26838D01*
X19711Y26856D01*
X19720Y26866D01*
X19725Y26870D01*
X19785Y26926D01*
X19845Y26972D01*
X19914Y27014D01*
X19979Y27051D01*
X20049Y27078D01*
X20118Y27106D01*
X20248Y27143D01*
X20312Y27153D01*
X20368Y27162D01*
X20419Y27171D01*
X20460Y27176D01*
X20497Y27180D01*
X20548D01*
X20636Y27176D01*
D02*
G37*
G36*
X23071Y27180D02*
X23154Y27171D01*
X23233Y27153D01*
X23311Y27134D01*
X23381Y27111D01*
X23445Y27083D01*
X23510Y27051D01*
X23566Y27023D01*
X23612Y26991D01*
X23658Y26958D01*
X23695Y26930D01*
X23728Y26907D01*
X23755Y26889D01*
X23774Y26870D01*
X23783Y26861D01*
X23788Y26856D01*
X23843Y26796D01*
X23894Y26731D01*
X23941Y26662D01*
X23978Y26597D01*
X24010Y26528D01*
X24038Y26463D01*
X24056Y26398D01*
X24075Y26338D01*
X24089Y26278D01*
X24098Y26227D01*
X24107Y26181D01*
X24112Y26139D01*
X24116Y26107D01*
Y26083D01*
Y26065D01*
Y26060D01*
X24112Y25972D01*
X24103Y25889D01*
X24089Y25810D01*
X24066Y25736D01*
X24042Y25662D01*
X24015Y25598D01*
X23982Y25537D01*
X23954Y25482D01*
X23922Y25436D01*
X23894Y25389D01*
X23867Y25352D01*
X23843Y25320D01*
X23820Y25297D01*
X23806Y25278D01*
X23797Y25269D01*
X23792Y25264D01*
X23728Y25209D01*
X23663Y25158D01*
X23598Y25116D01*
X23529Y25079D01*
X23464Y25047D01*
X23395Y25024D01*
X23330Y25001D01*
X23270Y24987D01*
X23209Y24973D01*
X23158Y24964D01*
X23108Y24954D01*
X23066Y24950D01*
X23034Y24945D01*
X22987D01*
X22913Y24950D01*
X22844Y24954D01*
X22710Y24982D01*
X22589Y25024D01*
X22483Y25070D01*
X22437Y25093D01*
X22395Y25116D01*
X22362Y25139D01*
X22330Y25158D01*
X22307Y25172D01*
X22288Y25186D01*
X22279Y25190D01*
X22275Y25195D01*
X22733Y25746D01*
X22774Y25709D01*
X22816Y25681D01*
X22858Y25658D01*
X22895Y25644D01*
X22922Y25635D01*
X22950Y25630D01*
X22969D01*
X23020Y25635D01*
X23071Y25648D01*
X23108Y25672D01*
X23145Y25695D01*
X23172Y25713D01*
X23191Y25736D01*
X23205Y25750D01*
X23209Y25755D01*
X23237Y25806D01*
X23260Y25861D01*
X23274Y25922D01*
X23288Y25977D01*
X23293Y26023D01*
X23297Y26060D01*
Y26088D01*
Y26097D01*
X23293Y26167D01*
X23283Y26232D01*
X23270Y26287D01*
X23251Y26338D01*
X23233Y26375D01*
X23219Y26403D01*
X23209Y26421D01*
X23205Y26426D01*
X23168Y26468D01*
X23126Y26500D01*
X23084Y26523D01*
X23047Y26542D01*
X23010Y26551D01*
X22983Y26556D01*
X22959D01*
X22918Y26551D01*
X22881Y26546D01*
X22821Y26519D01*
X22774Y26477D01*
X22737Y26435D01*
X22714Y26389D01*
X22696Y26347D01*
X22686Y26320D01*
Y26315D01*
Y26310D01*
X23098D01*
X23121Y26232D01*
X23126Y26195D01*
X23131Y26162D01*
X23135Y26139D01*
Y26116D01*
Y26102D01*
Y26097D01*
X23131Y26037D01*
X23121Y25986D01*
X23117Y25963D01*
X23112Y25945D01*
X23108Y25935D01*
Y25931D01*
X21886D01*
X21881Y25968D01*
Y25996D01*
X21877Y26023D01*
Y26042D01*
Y26060D01*
Y26070D01*
Y26079D01*
X21881Y26167D01*
X21890Y26245D01*
X21904Y26324D01*
X21927Y26398D01*
X21951Y26468D01*
X21978Y26532D01*
X22006Y26593D01*
X22034Y26648D01*
X22066Y26699D01*
X22094Y26741D01*
X22122Y26778D01*
X22145Y26810D01*
X22168Y26833D01*
X22182Y26852D01*
X22191Y26861D01*
X22196Y26866D01*
X22256Y26921D01*
X22321Y26972D01*
X22386Y27014D01*
X22455Y27051D01*
X22520Y27083D01*
X22585Y27106D01*
X22649Y27129D01*
X22710Y27143D01*
X22765Y27157D01*
X22816Y27166D01*
X22862Y27176D01*
X22904Y27180D01*
X22936Y27185D01*
X22983D01*
X23071Y27180D01*
D02*
G37*
G36*
X14190D02*
X14273Y27171D01*
X14352Y27153D01*
X14430Y27134D01*
X14500Y27111D01*
X14564Y27083D01*
X14629Y27051D01*
X14685Y27023D01*
X14731Y26991D01*
X14777Y26958D01*
X14814Y26930D01*
X14847Y26907D01*
X14875Y26889D01*
X14893Y26870D01*
X14902Y26861D01*
X14907Y26856D01*
X14962Y26796D01*
X15013Y26731D01*
X15060Y26662D01*
X15097Y26597D01*
X15129Y26528D01*
X15157Y26463D01*
X15175Y26398D01*
X15194Y26338D01*
X15208Y26278D01*
X15217Y26227D01*
X15226Y26181D01*
X15231Y26139D01*
X15236Y26107D01*
Y26083D01*
Y26065D01*
Y26060D01*
X15231Y25972D01*
X15222Y25889D01*
X15208Y25810D01*
X15185Y25736D01*
X15161Y25662D01*
X15134Y25598D01*
X15101Y25537D01*
X15074Y25482D01*
X15041Y25436D01*
X15013Y25389D01*
X14986Y25352D01*
X14962Y25320D01*
X14939Y25297D01*
X14925Y25278D01*
X14916Y25269D01*
X14912Y25264D01*
X14847Y25209D01*
X14782Y25158D01*
X14717Y25116D01*
X14648Y25079D01*
X14583Y25047D01*
X14514Y25024D01*
X14449Y25001D01*
X14389Y24987D01*
X14328Y24973D01*
X14278Y24964D01*
X14227Y24954D01*
X14185Y24950D01*
X14153Y24945D01*
X14106D01*
X14032Y24950D01*
X13963Y24954D01*
X13829Y24982D01*
X13708Y25024D01*
X13602Y25070D01*
X13556Y25093D01*
X13514Y25116D01*
X13482Y25139D01*
X13449Y25158D01*
X13426Y25172D01*
X13408Y25186D01*
X13398Y25190D01*
X13394Y25195D01*
X13852Y25746D01*
X13893Y25709D01*
X13935Y25681D01*
X13977Y25658D01*
X14014Y25644D01*
X14042Y25635D01*
X14069Y25630D01*
X14088D01*
X14139Y25635D01*
X14190Y25648D01*
X14227Y25672D01*
X14264Y25695D01*
X14291Y25713D01*
X14310Y25736D01*
X14324Y25750D01*
X14328Y25755D01*
X14356Y25806D01*
X14379Y25861D01*
X14393Y25922D01*
X14407Y25977D01*
X14412Y26023D01*
X14416Y26060D01*
Y26088D01*
Y26097D01*
X14412Y26167D01*
X14403Y26232D01*
X14389Y26287D01*
X14370Y26338D01*
X14352Y26375D01*
X14338Y26403D01*
X14328Y26421D01*
X14324Y26426D01*
X14287Y26468D01*
X14245Y26500D01*
X14204Y26523D01*
X14167Y26542D01*
X14129Y26551D01*
X14102Y26556D01*
X14079D01*
X14037Y26551D01*
X14000Y26546D01*
X13940Y26519D01*
X13893Y26477D01*
X13856Y26435D01*
X13833Y26389D01*
X13815Y26347D01*
X13806Y26320D01*
Y26315D01*
Y26310D01*
X14217D01*
X14241Y26232D01*
X14245Y26195D01*
X14250Y26162D01*
X14254Y26139D01*
Y26116D01*
Y26102D01*
Y26097D01*
X14250Y26037D01*
X14241Y25986D01*
X14236Y25963D01*
X14231Y25945D01*
X14227Y25935D01*
Y25931D01*
X13005D01*
X13000Y25968D01*
Y25996D01*
X12996Y26023D01*
Y26042D01*
Y26060D01*
Y26070D01*
Y26079D01*
X13000Y26167D01*
X13010Y26245D01*
X13023Y26324D01*
X13047Y26398D01*
X13070Y26468D01*
X13097Y26532D01*
X13125Y26593D01*
X13153Y26648D01*
X13185Y26699D01*
X13213Y26741D01*
X13241Y26778D01*
X13264Y26810D01*
X13287Y26833D01*
X13301Y26852D01*
X13310Y26861D01*
X13315Y26866D01*
X13375Y26921D01*
X13440Y26972D01*
X13505Y27014D01*
X13574Y27051D01*
X13639Y27083D01*
X13704Y27106D01*
X13769Y27129D01*
X13829Y27143D01*
X13884Y27157D01*
X13935Y27166D01*
X13981Y27176D01*
X14023Y27180D01*
X14055Y27185D01*
X14102D01*
X14190Y27180D01*
D02*
G37*
G36*
X2694D02*
X2777Y27171D01*
X2856Y27153D01*
X2935Y27134D01*
X3004Y27111D01*
X3069Y27083D01*
X3134Y27051D01*
X3189Y27023D01*
X3235Y26991D01*
X3282Y26958D01*
X3319Y26930D01*
X3351Y26907D01*
X3379Y26889D01*
X3397Y26870D01*
X3407Y26861D01*
X3411Y26856D01*
X3467Y26796D01*
X3518Y26731D01*
X3564Y26662D01*
X3601Y26597D01*
X3633Y26528D01*
X3661Y26463D01*
X3680Y26398D01*
X3698Y26338D01*
X3712Y26278D01*
X3721Y26227D01*
X3731Y26181D01*
X3735Y26139D01*
X3740Y26107D01*
Y26083D01*
Y26065D01*
Y26060D01*
X3735Y25972D01*
X3726Y25889D01*
X3712Y25810D01*
X3689Y25736D01*
X3666Y25662D01*
X3638Y25598D01*
X3606Y25537D01*
X3578Y25482D01*
X3546Y25436D01*
X3518Y25389D01*
X3490Y25352D01*
X3467Y25320D01*
X3444Y25297D01*
X3430Y25278D01*
X3421Y25269D01*
X3416Y25264D01*
X3351Y25209D01*
X3286Y25158D01*
X3222Y25116D01*
X3152Y25079D01*
X3087Y25047D01*
X3018Y25024D01*
X2953Y25001D01*
X2893Y24987D01*
X2833Y24973D01*
X2782Y24964D01*
X2731Y24954D01*
X2689Y24950D01*
X2657Y24945D01*
X2611D01*
X2537Y24950D01*
X2467Y24954D01*
X2333Y24982D01*
X2213Y25024D01*
X2106Y25070D01*
X2060Y25093D01*
X2018Y25116D01*
X1986Y25139D01*
X1954Y25158D01*
X1930Y25172D01*
X1912Y25186D01*
X1903Y25190D01*
X1898Y25195D01*
X2356Y25746D01*
X2398Y25709D01*
X2439Y25681D01*
X2481Y25658D01*
X2518Y25644D01*
X2546Y25635D01*
X2574Y25630D01*
X2592D01*
X2643Y25635D01*
X2694Y25648D01*
X2731Y25672D01*
X2768Y25695D01*
X2796Y25713D01*
X2814Y25736D01*
X2828Y25750D01*
X2833Y25755D01*
X2861Y25806D01*
X2884Y25861D01*
X2898Y25922D01*
X2911Y25977D01*
X2916Y26023D01*
X2921Y26060D01*
Y26088D01*
Y26097D01*
X2916Y26167D01*
X2907Y26232D01*
X2893Y26287D01*
X2874Y26338D01*
X2856Y26375D01*
X2842Y26403D01*
X2833Y26421D01*
X2828Y26426D01*
X2791Y26468D01*
X2750Y26500D01*
X2708Y26523D01*
X2671Y26542D01*
X2634Y26551D01*
X2606Y26556D01*
X2583D01*
X2541Y26551D01*
X2504Y26546D01*
X2444Y26519D01*
X2398Y26477D01*
X2361Y26435D01*
X2338Y26389D01*
X2319Y26347D01*
X2310Y26320D01*
Y26315D01*
Y26310D01*
X2722D01*
X2745Y26232D01*
X2750Y26195D01*
X2754Y26162D01*
X2759Y26139D01*
Y26116D01*
Y26102D01*
Y26097D01*
X2754Y26037D01*
X2745Y25986D01*
X2740Y25963D01*
X2736Y25945D01*
X2731Y25935D01*
Y25931D01*
X1509D01*
X1505Y25968D01*
Y25996D01*
X1500Y26023D01*
Y26042D01*
Y26060D01*
Y26070D01*
Y26079D01*
X1505Y26167D01*
X1514Y26245D01*
X1528Y26324D01*
X1551Y26398D01*
X1574Y26468D01*
X1602Y26532D01*
X1630Y26593D01*
X1657Y26648D01*
X1690Y26699D01*
X1718Y26741D01*
X1745Y26778D01*
X1768Y26810D01*
X1792Y26833D01*
X1805Y26852D01*
X1815Y26861D01*
X1819Y26866D01*
X1879Y26921D01*
X1944Y26972D01*
X2009Y27014D01*
X2078Y27051D01*
X2143Y27083D01*
X2208Y27106D01*
X2273Y27129D01*
X2333Y27143D01*
X2389Y27157D01*
X2439Y27166D01*
X2486Y27176D01*
X2527Y27180D01*
X2560Y27185D01*
X2606D01*
X2694Y27180D01*
D02*
G37*
G36*
X25093Y27999D02*
X25176Y27990D01*
X25260Y27972D01*
X25334Y27953D01*
X25403Y27925D01*
X25468Y27898D01*
X25533Y27865D01*
X25583Y27837D01*
X25634Y27805D01*
X25681Y27773D01*
X25718Y27745D01*
X25750Y27717D01*
X25773Y27699D01*
X25792Y27680D01*
X25801Y27671D01*
X25806Y27666D01*
X25861Y27601D01*
X25907Y27532D01*
X25949Y27463D01*
X25986Y27389D01*
X26019Y27319D01*
X26042Y27245D01*
X26079Y27111D01*
X26093Y27051D01*
X26102Y26991D01*
X26111Y26940D01*
X26116Y26898D01*
X26120Y26861D01*
Y26833D01*
Y26815D01*
Y26810D01*
Y24987D01*
X25246D01*
Y25755D01*
X24954D01*
Y26546D01*
X25246D01*
Y26907D01*
X25241Y26958D01*
X25236Y27000D01*
X25227Y27037D01*
X25213Y27069D01*
X25199Y27097D01*
X25181Y27120D01*
X25144Y27153D01*
X25111Y27176D01*
X25079Y27185D01*
X25056Y27190D01*
X25047D01*
X24991Y27180D01*
X24949Y27162D01*
X24912Y27134D01*
X24880Y27106D01*
X24857Y27074D01*
X24843Y27046D01*
X24834Y27028D01*
X24829Y27018D01*
X24112Y27541D01*
X24181Y27625D01*
X24255Y27694D01*
X24329Y27754D01*
X24403Y27810D01*
X24477Y27856D01*
X24551Y27893D01*
X24626Y27921D01*
X24695Y27949D01*
X24760Y27967D01*
X24815Y27981D01*
X24871Y27990D01*
X24917Y27995D01*
X24954Y27999D01*
X24982Y28004D01*
X25005D01*
X25093Y27999D01*
D02*
G37*
G36*
X11816Y27176D02*
X11885Y27166D01*
X11954Y27153D01*
X12019Y27139D01*
X12079Y27116D01*
X12135Y27092D01*
X12186Y27069D01*
X12232Y27041D01*
X12274Y27014D01*
X12311Y26991D01*
X12338Y26967D01*
X12366Y26944D01*
X12385Y26930D01*
X12399Y26917D01*
X12408Y26907D01*
X12413Y26903D01*
X12459Y26847D01*
X12496Y26792D01*
X12528Y26731D01*
X12561Y26671D01*
X12607Y26546D01*
X12635Y26426D01*
X12644Y26370D01*
X12653Y26320D01*
X12658Y26273D01*
X12662Y26236D01*
X12667Y26204D01*
Y26176D01*
Y26162D01*
Y26158D01*
Y24987D01*
X11857D01*
Y26005D01*
X11853Y26065D01*
X11848Y26116D01*
X11839Y26162D01*
X11825Y26199D01*
X11806Y26232D01*
X11788Y26259D01*
X11769Y26282D01*
X11746Y26301D01*
X11709Y26324D01*
X11672Y26338D01*
X11649Y26343D01*
X11617D01*
X11589Y26333D01*
X11538Y26320D01*
X11519Y26310D01*
X11501Y26301D01*
X11492Y26296D01*
X11487Y26292D01*
Y27153D01*
X11542Y27162D01*
X11589Y27171D01*
X11635Y27176D01*
X11667D01*
X11700Y27180D01*
X11737D01*
X11816Y27176D01*
D02*
G37*
G36*
X11191Y24987D02*
X10316D01*
Y27083D01*
X10020D01*
X9886Y27078D01*
X9770Y27055D01*
X9673Y27028D01*
X9585Y26991D01*
X9515Y26944D01*
X9455Y26893D01*
X9404Y26838D01*
X9363Y26782D01*
X9335Y26727D01*
X9312Y26671D01*
X9293Y26620D01*
X9279Y26574D01*
X9275Y26537D01*
X9270Y26509D01*
Y26486D01*
Y26481D01*
X9279Y26370D01*
X9303Y26269D01*
X9340Y26185D01*
X9391Y26111D01*
X9446Y26051D01*
X9511Y26000D01*
X9580Y25959D01*
X9650Y25922D01*
X9724Y25898D01*
X9793Y25875D01*
X9858Y25861D01*
X9913Y25852D01*
X9964Y25847D01*
X10001Y25843D01*
X10173D01*
Y24982D01*
X10108Y24977D01*
X10057Y24973D01*
X10011D01*
X9974Y24968D01*
X9913D01*
X9789Y24973D01*
X9673Y24987D01*
X9562Y25005D01*
X9455Y25033D01*
X9358Y25065D01*
X9266Y25102D01*
X9182Y25139D01*
X9108Y25181D01*
X9039Y25218D01*
X8979Y25255D01*
X8928Y25292D01*
X8886Y25325D01*
X8854Y25352D01*
X8826Y25371D01*
X8812Y25385D01*
X8807Y25389D01*
X8729Y25473D01*
X8664Y25556D01*
X8604Y25648D01*
X8558Y25736D01*
X8516Y25829D01*
X8479Y25922D01*
X8451Y26009D01*
X8428Y26093D01*
X8409Y26171D01*
X8396Y26245D01*
X8386Y26315D01*
X8377Y26370D01*
Y26417D01*
X8372Y26454D01*
Y26472D01*
Y26481D01*
X8377Y26611D01*
X8396Y26731D01*
X8419Y26842D01*
X8451Y26949D01*
X8488Y27046D01*
X8530Y27139D01*
X8576Y27222D01*
X8622Y27296D01*
X8673Y27365D01*
X8715Y27421D01*
X8761Y27472D01*
X8798Y27514D01*
X8831Y27546D01*
X8854Y27569D01*
X8872Y27583D01*
X8877Y27588D01*
X8960Y27648D01*
X9048Y27699D01*
X9145Y27745D01*
X9238Y27787D01*
X9340Y27819D01*
X9437Y27847D01*
X9529Y27870D01*
X9622Y27888D01*
X9710Y27902D01*
X9793Y27912D01*
X9867Y27921D01*
X9927Y27925D01*
X9978Y27930D01*
X11191D01*
Y24987D01*
D02*
G37*
G36*
X7169Y27176D02*
X7239Y27166D01*
X7308Y27153D01*
X7373Y27139D01*
X7433Y27116D01*
X7488Y27092D01*
X7539Y27069D01*
X7586Y27041D01*
X7627Y27014D01*
X7664Y26991D01*
X7692Y26967D01*
X7720Y26944D01*
X7738Y26930D01*
X7752Y26917D01*
X7762Y26907D01*
X7766Y26903D01*
X7812Y26847D01*
X7849Y26792D01*
X7882Y26731D01*
X7914Y26671D01*
X7961Y26546D01*
X7988Y26426D01*
X7998Y26370D01*
X8007Y26320D01*
X8011Y26273D01*
X8016Y26236D01*
X8021Y26204D01*
Y26176D01*
Y26162D01*
Y26158D01*
Y24987D01*
X7211D01*
Y26005D01*
X7206Y26065D01*
X7202Y26116D01*
X7192Y26162D01*
X7178Y26199D01*
X7160Y26232D01*
X7141Y26259D01*
X7123Y26282D01*
X7100Y26301D01*
X7063Y26324D01*
X7026Y26338D01*
X7003Y26343D01*
X6970D01*
X6942Y26333D01*
X6891Y26320D01*
X6873Y26310D01*
X6854Y26301D01*
X6845Y26296D01*
X6841Y26292D01*
Y27153D01*
X6896Y27162D01*
X6942Y27171D01*
X6989Y27176D01*
X7021D01*
X7053Y27180D01*
X7090D01*
X7169Y27176D01*
D02*
G37*
G36*
X6605Y24987D02*
X5795D01*
Y27134D01*
X6605D01*
Y24987D01*
D02*
G37*
G36*
X19040Y26162D02*
X19030Y26000D01*
X19021Y25926D01*
X19012Y25852D01*
X18998Y25787D01*
X18984Y25727D01*
X18966Y25672D01*
X18947Y25621D01*
X18933Y25579D01*
X18915Y25537D01*
X18901Y25505D01*
X18887Y25477D01*
X18878Y25454D01*
X18868Y25440D01*
X18859Y25431D01*
Y25426D01*
X18799Y25348D01*
X18734Y25278D01*
X18669Y25218D01*
X18609Y25172D01*
X18554Y25130D01*
X18512Y25102D01*
X18494Y25093D01*
X18480Y25084D01*
X18475Y25079D01*
X18470D01*
X18378Y25038D01*
X18285Y25005D01*
X18197Y24987D01*
X18119Y24968D01*
X18049Y24959D01*
X18022D01*
X17998Y24954D01*
X17924D01*
X17897Y24959D01*
X17860D01*
Y25801D01*
X17934Y25806D01*
X17994Y25815D01*
X18045Y25834D01*
X18086Y25852D01*
X18114Y25866D01*
X18137Y25884D01*
X18146Y25894D01*
X18151Y25898D01*
X18179Y25940D01*
X18197Y25996D01*
X18211Y26056D01*
X18221Y26111D01*
X18225Y26167D01*
X18230Y26213D01*
Y26232D01*
Y26245D01*
Y26250D01*
Y26255D01*
X17873D01*
Y27106D01*
X18230D01*
Y27930D01*
X19040D01*
Y26162D01*
D02*
G37*
%LPC*%
G36*
X55495Y29952D02*
X55045D01*
Y29887D01*
X54466D01*
Y29823D01*
X53951D01*
Y29759D01*
X53371D01*
Y29694D01*
X52792D01*
Y29630D01*
X52213D01*
Y29566D01*
X51698D01*
Y29501D01*
X51118D01*
Y29437D01*
X50539D01*
Y29372D01*
X50089D01*
Y29244D01*
X50024D01*
Y29179D01*
X50797D01*
Y29115D01*
X51891D01*
Y29051D01*
X52985D01*
Y28986D01*
X54015D01*
Y28922D01*
X55109D01*
Y28857D01*
X55302D01*
Y29051D01*
X55238D01*
Y29372D01*
X55302D01*
Y29630D01*
X55367D01*
Y29759D01*
X55431D01*
Y29887D01*
X55495D01*
Y29952D01*
D02*
G37*
G36*
X56783Y30209D02*
X56203D01*
Y30145D01*
X56010D01*
Y30080D01*
X55882D01*
Y30016D01*
X55817D01*
Y29952D01*
X55753D01*
Y29887D01*
X55689D01*
Y29823D01*
X55624D01*
Y29694D01*
X55560D01*
Y29566D01*
X55495D01*
Y29372D01*
X55431D01*
Y29051D01*
X55495D01*
Y28793D01*
X55560D01*
Y28664D01*
X55624D01*
Y28536D01*
X55689D01*
Y28471D01*
X55753D01*
Y28407D01*
X55817D01*
Y28343D01*
X55946D01*
Y28278D01*
X56075D01*
Y28214D01*
X56268D01*
Y28149D01*
X56718D01*
Y28214D01*
X56911D01*
Y28278D01*
X57040D01*
Y28343D01*
X57105D01*
Y28407D01*
X57233D01*
Y28471D01*
X57298D01*
Y28600D01*
X57362D01*
Y28664D01*
X57426D01*
Y28729D01*
Y28793D01*
X57491D01*
Y29566D01*
X57426D01*
Y29694D01*
X57362D01*
Y29823D01*
X57298D01*
Y29887D01*
X57233D01*
Y29952D01*
X57169D01*
Y30016D01*
X57040D01*
Y30080D01*
X56976D01*
Y30145D01*
X56783D01*
Y30209D01*
D02*
G37*
G36*
X49380Y28664D02*
X49316D01*
Y28600D01*
X49123D01*
Y28536D01*
X49059D01*
Y28471D01*
X48930D01*
Y28407D01*
X48866D01*
Y28343D01*
X48801D01*
Y28278D01*
X48737D01*
Y28214D01*
X48672D01*
Y28149D01*
X48608D01*
Y28085D01*
X48544D01*
Y28021D01*
X48479D01*
Y27956D01*
X48415D01*
Y27892D01*
X48351D01*
Y27828D01*
X48286D01*
Y27763D01*
X48222D01*
Y27699D01*
X48157D01*
Y27634D01*
X48093D01*
Y27506D01*
X48029D01*
Y27441D01*
X47964D01*
Y27377D01*
X47900D01*
Y27313D01*
X47836D01*
Y27248D01*
X47771D01*
Y27184D01*
X47707D01*
Y27120D01*
X47643D01*
Y27055D01*
X47578D01*
Y26991D01*
X47514D01*
Y26862D01*
X47449D01*
Y26798D01*
X47385D01*
Y26733D01*
X47643D01*
Y26798D01*
X47771D01*
Y26862D01*
X47900D01*
Y26926D01*
X48029D01*
Y26991D01*
X48093D01*
Y27055D01*
X48157D01*
Y27120D01*
X48222D01*
Y27184D01*
X48286D01*
Y27248D01*
X48351D01*
Y27313D01*
X48415D01*
Y27377D01*
X48479D01*
Y27441D01*
X48608D01*
Y27506D01*
X48672D01*
Y27570D01*
X48737D01*
Y27634D01*
X48866D01*
Y27699D01*
X48930D01*
Y27763D01*
X48994D01*
Y27828D01*
X49059D01*
Y27892D01*
X49123D01*
Y27956D01*
X49187D01*
Y28021D01*
X49252D01*
Y28085D01*
X49316D01*
Y28214D01*
X49380D01*
Y28343D01*
X49445D01*
Y28600D01*
X49380D01*
Y28664D01*
D02*
G37*
G36*
X57748Y29051D02*
X57684D01*
Y28793D01*
X57620D01*
Y28664D01*
X57555D01*
Y28536D01*
X57491D01*
Y28471D01*
X57426D01*
Y28343D01*
X57362D01*
Y28278D01*
X57298D01*
Y28214D01*
X57169D01*
Y28149D01*
X57105D01*
Y28085D01*
X56976D01*
Y28021D01*
X56718D01*
Y27956D01*
X56654D01*
Y27892D01*
X56718D01*
Y27828D01*
X56783D01*
Y27699D01*
X56847D01*
Y27634D01*
X56911D01*
Y27570D01*
X56976D01*
Y27441D01*
X57040D01*
Y27377D01*
X57105D01*
Y27248D01*
X57169D01*
Y27184D01*
X57233D01*
Y27120D01*
X57298D01*
Y26991D01*
X57362D01*
Y26926D01*
X57426D01*
Y26798D01*
X57491D01*
Y26733D01*
X57555D01*
Y26669D01*
X57620D01*
Y26540D01*
X57684D01*
Y26476D01*
X57748D01*
Y26347D01*
X57813D01*
Y26283D01*
X57877D01*
Y26154D01*
X57941D01*
Y26090D01*
X58006D01*
Y26025D01*
X58070D01*
Y25897D01*
X58134D01*
Y25832D01*
X58199D01*
Y25703D01*
X58263D01*
Y25639D01*
X58328D01*
Y25575D01*
X58392D01*
Y25446D01*
X58456D01*
Y25382D01*
X58521D01*
Y25253D01*
X58649D01*
Y25446D01*
X58714D01*
Y25575D01*
X58778D01*
Y25703D01*
X58843D01*
Y25832D01*
X58907D01*
Y25897D01*
X58971D01*
Y25961D01*
X59036D01*
Y26025D01*
X59100D01*
Y26090D01*
X59164D01*
Y26154D01*
X59293D01*
Y26218D01*
X59357D01*
Y26283D01*
X59486D01*
Y26347D01*
X59615D01*
Y26411D01*
X59872D01*
Y26476D01*
X60387D01*
Y26540D01*
X60323D01*
Y26605D01*
X60259D01*
Y26669D01*
X60194D01*
Y26733D01*
X60130D01*
Y26798D01*
X60066D01*
Y26862D01*
X59937D01*
Y26926D01*
X59872D01*
Y26991D01*
X59808D01*
Y27055D01*
X59744D01*
Y27120D01*
X59679D01*
Y27184D01*
X59615D01*
Y27248D01*
X59551D01*
Y27313D01*
X59486D01*
Y27377D01*
X59422D01*
Y27441D01*
X59357D01*
Y27506D01*
X59293D01*
Y27570D01*
X59229D01*
Y27634D01*
X59164D01*
Y27699D01*
X59100D01*
Y27763D01*
X59036D01*
Y27828D01*
X58971D01*
Y27892D01*
X58907D01*
Y27956D01*
X58843D01*
Y28021D01*
X58778D01*
Y28085D01*
X58714D01*
Y28149D01*
X58649D01*
Y28214D01*
X58585D01*
Y28278D01*
X58521D01*
Y28343D01*
X58456D01*
Y28407D01*
X58392D01*
Y28471D01*
X58328D01*
Y28536D01*
X58199D01*
Y28600D01*
X58134D01*
Y28664D01*
X58070D01*
Y28729D01*
X58006D01*
Y28793D01*
X57941D01*
Y28857D01*
X57877D01*
Y28922D01*
X57813D01*
Y28986D01*
X57748D01*
Y29051D01*
D02*
G37*
G36*
X60580Y26283D02*
X59872D01*
Y26218D01*
X59679D01*
Y26154D01*
X59551D01*
Y26090D01*
X59422D01*
Y26025D01*
X59293D01*
Y25961D01*
X59229D01*
Y25897D01*
X59164D01*
Y25832D01*
X59100D01*
Y25768D01*
X59036D01*
Y25639D01*
X58971D01*
Y25575D01*
X58907D01*
Y25446D01*
X58843D01*
Y25253D01*
X58778D01*
Y24867D01*
X58714D01*
Y24738D01*
X58778D01*
Y24352D01*
X58843D01*
Y24223D01*
X58907D01*
Y24094D01*
X58971D01*
Y23966D01*
X59036D01*
Y23901D01*
X59100D01*
Y23837D01*
X59164D01*
Y23772D01*
X59229D01*
Y23708D01*
X59293D01*
Y23644D01*
X59357D01*
Y23579D01*
X59486D01*
Y23515D01*
X59615D01*
Y23451D01*
X59744D01*
Y23386D01*
X60066D01*
Y23322D01*
X60387D01*
Y23386D01*
X60645D01*
Y23451D01*
X60838D01*
Y23515D01*
X60967D01*
Y23579D01*
X61095D01*
Y23644D01*
X61160D01*
Y23708D01*
X61224D01*
Y23772D01*
X61289D01*
Y23837D01*
X61353D01*
Y23901D01*
X61417D01*
Y24030D01*
X61482D01*
Y24094D01*
X61546D01*
Y24223D01*
X61610D01*
Y24480D01*
X61675D01*
Y25188D01*
X61610D01*
Y25382D01*
X61546D01*
Y25510D01*
X61482D01*
Y25639D01*
X61417D01*
Y25703D01*
X61353D01*
Y25768D01*
X61289D01*
Y25897D01*
X61224D01*
Y25961D01*
X61095D01*
Y26025D01*
X61031D01*
Y26090D01*
X60902D01*
Y26154D01*
X60774D01*
Y26218D01*
X60580D01*
Y26283D01*
D02*
G37*
G36*
X61482Y23708D02*
X61417D01*
Y23644D01*
X61353D01*
Y23579D01*
X61289D01*
Y23515D01*
X61224D01*
Y23451D01*
X61095D01*
Y23386D01*
X61031D01*
Y23322D01*
X60902D01*
Y23257D01*
X60709D01*
Y23193D01*
X60387D01*
Y23129D01*
X60066D01*
Y23193D01*
X59744D01*
Y23257D01*
X59551D01*
Y23322D01*
X59422D01*
Y23386D01*
X59293D01*
Y23451D01*
X59229D01*
Y23515D01*
X59164D01*
Y23579D01*
X59100D01*
Y23451D01*
X59036D01*
Y23064D01*
X58971D01*
Y22743D01*
X58907D01*
Y22356D01*
X58843D01*
Y22034D01*
X58778D01*
Y21648D01*
X58714D01*
Y21262D01*
X58649D01*
Y20940D01*
X58585D01*
Y20554D01*
X58521D01*
Y20232D01*
X58456D01*
Y19910D01*
X58585D01*
Y19846D01*
X58714D01*
Y19782D01*
X58843D01*
Y19717D01*
X58907D01*
Y19653D01*
X59036D01*
Y19589D01*
X59164D01*
Y19524D01*
X59293D01*
Y19460D01*
X59357D01*
Y19395D01*
X59486D01*
Y19331D01*
X59615D01*
Y19267D01*
X59679D01*
Y19202D01*
X59808D01*
Y19138D01*
X59937D01*
Y19074D01*
X60066D01*
Y19009D01*
X60130D01*
Y18945D01*
X60259D01*
Y18880D01*
X60387D01*
Y18816D01*
X60516D01*
Y18752D01*
X60580D01*
Y18816D01*
X60645D01*
Y19202D01*
X60709D01*
Y19589D01*
X60774D01*
Y19910D01*
X60838D01*
Y20297D01*
X60902D01*
Y20683D01*
X60967D01*
Y21005D01*
X61031D01*
Y21391D01*
X61095D01*
Y21777D01*
X61160D01*
Y22099D01*
X61224D01*
Y22485D01*
X61289D01*
Y22871D01*
X61353D01*
Y23257D01*
X61417D01*
Y23579D01*
X61482D01*
Y23708D01*
D02*
G37*
G36*
X51891Y28922D02*
X50925D01*
Y28857D01*
X50732D01*
Y28793D01*
X50539D01*
Y28729D01*
X50346D01*
Y28664D01*
X50217D01*
Y28600D01*
X50024D01*
Y28536D01*
X49638D01*
Y28343D01*
X49574D01*
Y28149D01*
X49509D01*
Y28085D01*
X49445D01*
Y27956D01*
X49380D01*
Y27892D01*
X49316D01*
Y27828D01*
X49252D01*
Y27763D01*
X49187D01*
Y27699D01*
X49123D01*
Y27634D01*
X49059D01*
Y27570D01*
X48994D01*
Y27506D01*
X48866D01*
Y27441D01*
X48801D01*
Y27377D01*
X48737D01*
Y27313D01*
X48672D01*
Y27248D01*
X48544D01*
Y27184D01*
X48479D01*
Y27120D01*
X48415D01*
Y27055D01*
X48351D01*
Y26926D01*
X48222D01*
Y26862D01*
X48157D01*
Y26798D01*
X48093D01*
Y26733D01*
X47964D01*
Y26669D01*
X47836D01*
Y26605D01*
X47643D01*
Y26540D01*
X47385D01*
Y26347D01*
X47321D01*
Y26218D01*
X47256D01*
Y26025D01*
X47192D01*
Y25961D01*
X47128D01*
Y25832D01*
X47063D01*
Y25703D01*
X46999D01*
Y25639D01*
X46934D01*
Y25510D01*
X46870D01*
Y25382D01*
X46806D01*
Y25188D01*
X46741D01*
Y25060D01*
X46677D01*
Y24931D01*
X46613D01*
Y24738D01*
X46548D01*
Y24480D01*
X46613D01*
Y23966D01*
X46677D01*
Y23451D01*
X46741D01*
Y22936D01*
X46806D01*
Y22421D01*
X46870D01*
Y21906D01*
X46934D01*
Y21391D01*
X46999D01*
Y20876D01*
X47063D01*
Y20361D01*
X47128D01*
Y19910D01*
X47192D01*
Y19846D01*
X47321D01*
Y19782D01*
X47449D01*
Y19717D01*
X47514D01*
Y19653D01*
X47578D01*
Y19589D01*
X47643D01*
Y19524D01*
X47707D01*
Y19460D01*
X47771D01*
Y19331D01*
X47836D01*
Y19202D01*
X47900D01*
Y18945D01*
X47964D01*
Y18880D01*
X48029D01*
Y18816D01*
X48157D01*
Y18752D01*
X48222D01*
Y18687D01*
X48351D01*
Y18623D01*
X48415D01*
Y18559D01*
X48544D01*
Y18494D01*
X48672D01*
Y18430D01*
X48737D01*
Y18366D01*
X48866D01*
Y18301D01*
X48994D01*
Y18237D01*
X49059D01*
Y18172D01*
X49187D01*
Y18108D01*
X49252D01*
Y18044D01*
X49380D01*
Y17979D01*
X49509D01*
Y17915D01*
X49574D01*
Y17851D01*
X49702D01*
Y17786D01*
X49767D01*
Y17722D01*
X49895D01*
Y17657D01*
X50024D01*
Y17593D01*
X50089D01*
Y17529D01*
X50217D01*
Y17464D01*
X50346D01*
Y17400D01*
X50410D01*
Y17336D01*
X50539D01*
Y17271D01*
X50603D01*
Y17207D01*
X50732D01*
Y17143D01*
X50861D01*
Y17078D01*
X50925D01*
Y17014D01*
X51054D01*
Y16949D01*
X51762D01*
Y16885D01*
X51955D01*
Y16821D01*
X52084D01*
Y16756D01*
X52148D01*
Y16692D01*
X52534D01*
Y16756D01*
X52792D01*
Y16821D01*
X53049D01*
Y16885D01*
X53307D01*
Y16949D01*
X53564D01*
Y17014D01*
X53822D01*
Y17078D01*
X54079D01*
Y17143D01*
X54337D01*
Y17207D01*
X54659D01*
Y17271D01*
X54916D01*
Y17336D01*
X55174D01*
Y17400D01*
X55431D01*
Y17464D01*
X55689D01*
Y17529D01*
X55946D01*
Y17593D01*
X56010D01*
Y17657D01*
X55946D01*
Y17786D01*
X55882D01*
Y17851D01*
X55946D01*
Y17979D01*
X56010D01*
Y18044D01*
X56075D01*
Y18108D01*
X56139D01*
Y18172D01*
X56203D01*
Y18237D01*
X56268D01*
Y18301D01*
X56332D01*
Y18366D01*
X56397D01*
Y18430D01*
X56461D01*
Y18494D01*
X56525D01*
Y18559D01*
X56590D01*
Y18623D01*
X56654D01*
Y18687D01*
X56718D01*
Y18752D01*
X56783D01*
Y18880D01*
X56847D01*
Y18945D01*
X56911D01*
Y19009D01*
X56976D01*
Y19074D01*
X57040D01*
Y19138D01*
X57105D01*
Y19202D01*
X57169D01*
Y19267D01*
X57233D01*
Y19331D01*
X57298D01*
Y19395D01*
X57362D01*
Y19460D01*
X57426D01*
Y19524D01*
X57491D01*
Y19589D01*
X57555D01*
Y19653D01*
X57620D01*
Y19782D01*
X57684D01*
Y19846D01*
X57748D01*
Y19910D01*
X57813D01*
Y19975D01*
X57877D01*
Y20039D01*
X57941D01*
Y20103D01*
X58006D01*
Y20168D01*
X58134D01*
Y20103D01*
X58263D01*
Y20168D01*
X58328D01*
Y20554D01*
X58392D01*
Y20876D01*
X58456D01*
Y21262D01*
X58521D01*
Y21648D01*
X58585D01*
Y21970D01*
X58649D01*
Y22356D01*
X58714D01*
Y22743D01*
X58778D01*
Y23064D01*
X58843D01*
Y23451D01*
X58907D01*
Y23837D01*
X58843D01*
Y23901D01*
X58778D01*
Y24030D01*
X58714D01*
Y24159D01*
X58649D01*
Y24352D01*
X58585D01*
Y24738D01*
X58521D01*
Y25060D01*
X58456D01*
Y25124D01*
X58392D01*
Y25188D01*
X58328D01*
Y25317D01*
X58263D01*
Y25382D01*
X58199D01*
Y25510D01*
X58134D01*
Y25575D01*
X58070D01*
Y25703D01*
X58006D01*
Y25768D01*
X57941D01*
Y25832D01*
X57877D01*
Y25961D01*
X57813D01*
Y26025D01*
X57748D01*
Y26154D01*
X57684D01*
Y26218D01*
X57620D01*
Y26283D01*
X57555D01*
Y26411D01*
X57491D01*
Y26476D01*
X57426D01*
Y26605D01*
X57362D01*
Y26669D01*
X57298D01*
Y26733D01*
X57233D01*
Y26862D01*
X57169D01*
Y26926D01*
X57105D01*
Y27055D01*
X57040D01*
Y27120D01*
X56976D01*
Y27248D01*
X56911D01*
Y27313D01*
X56847D01*
Y27377D01*
X56783D01*
Y27506D01*
X56718D01*
Y27570D01*
X56654D01*
Y27699D01*
X56590D01*
Y27763D01*
X56525D01*
Y27828D01*
X56461D01*
Y27956D01*
X56203D01*
Y28021D01*
X56010D01*
Y28085D01*
X55882D01*
Y28149D01*
X55753D01*
Y28214D01*
X55689D01*
Y28278D01*
X55624D01*
Y28343D01*
X55560D01*
Y28407D01*
X55495D01*
Y28536D01*
X55431D01*
Y28600D01*
X55367D01*
Y28664D01*
X55045D01*
Y28729D01*
X54015D01*
Y28793D01*
X52921D01*
Y28857D01*
X51891D01*
Y28922D01*
D02*
G37*
G36*
X46291Y25188D02*
X46226D01*
Y25124D01*
X46162D01*
Y24802D01*
X46098D01*
Y23515D01*
X46033D01*
Y22228D01*
X45969D01*
Y20940D01*
X45905D01*
Y19717D01*
X45969D01*
Y19782D01*
X46098D01*
Y19846D01*
X46226D01*
Y19910D01*
X46420D01*
Y19975D01*
X46934D01*
Y20361D01*
X46870D01*
Y20876D01*
X46806D01*
Y21069D01*
Y21133D01*
Y21391D01*
X46741D01*
Y21906D01*
X46677D01*
Y22421D01*
X46613D01*
Y22936D01*
X46548D01*
Y23451D01*
X46484D01*
Y23966D01*
X46420D01*
Y24480D01*
X46355D01*
Y24995D01*
X46291D01*
Y25188D01*
D02*
G37*
G36*
X46999Y19782D02*
X46420D01*
Y19717D01*
X46226D01*
Y19653D01*
X46162D01*
Y19589D01*
X46033D01*
Y19524D01*
X45969D01*
Y19460D01*
X45905D01*
Y19331D01*
X45840D01*
Y19267D01*
X45776D01*
Y19074D01*
X45711D01*
Y19009D01*
Y18430D01*
X45776D01*
Y18301D01*
X45840D01*
Y18172D01*
X45905D01*
Y18108D01*
X45969D01*
Y17979D01*
X46098D01*
Y17915D01*
X46162D01*
Y17851D01*
X46291D01*
Y17786D01*
X46484D01*
Y17722D01*
X46999D01*
Y17786D01*
X47128D01*
Y17851D01*
X47256D01*
Y17915D01*
X47385D01*
Y17979D01*
X47449D01*
Y18044D01*
X47514D01*
Y18108D01*
X47578D01*
Y18237D01*
X47643D01*
Y18366D01*
X47707D01*
Y18559D01*
X47771D01*
Y18945D01*
X47707D01*
Y19138D01*
X47643D01*
Y19267D01*
X47578D01*
Y19395D01*
X47514D01*
Y19460D01*
X47449D01*
Y19524D01*
X47385D01*
Y19589D01*
X47321D01*
Y19653D01*
X47192D01*
Y19717D01*
X46999D01*
Y19782D01*
D02*
G37*
G36*
X58134Y19975D02*
X58070D01*
Y19910D01*
X58006D01*
Y19846D01*
X57941D01*
Y19782D01*
X57877D01*
Y19717D01*
X57813D01*
Y19589D01*
X57748D01*
Y19524D01*
X57684D01*
Y19460D01*
X57620D01*
Y19395D01*
X57555D01*
Y19331D01*
X57491D01*
Y19267D01*
X57426D01*
Y19202D01*
X57362D01*
Y19138D01*
X57298D01*
Y19074D01*
X57233D01*
Y19009D01*
X57169D01*
Y18945D01*
X57105D01*
Y18880D01*
X57040D01*
Y18816D01*
X56976D01*
Y18687D01*
X56911D01*
Y18623D01*
X56847D01*
Y18559D01*
X56783D01*
Y18494D01*
X56718D01*
Y18430D01*
X56654D01*
Y18366D01*
X56590D01*
Y18301D01*
X56525D01*
Y18237D01*
X56461D01*
Y18172D01*
X56397D01*
Y18108D01*
X56332D01*
Y18044D01*
X56268D01*
Y17979D01*
X56203D01*
Y17851D01*
X56139D01*
Y17722D01*
X56203D01*
Y17593D01*
X56268D01*
Y17529D01*
X56332D01*
Y17400D01*
X56397D01*
Y17271D01*
X56461D01*
Y17207D01*
X56525D01*
Y17078D01*
X56590D01*
Y17014D01*
X56654D01*
Y16885D01*
X56718D01*
Y16756D01*
X56783D01*
Y16692D01*
X56847D01*
Y16563D01*
X56911D01*
Y16499D01*
X56976D01*
Y16370D01*
X57040D01*
Y16241D01*
X57105D01*
Y16177D01*
X57169D01*
Y16048D01*
X57233D01*
Y15920D01*
X57298D01*
Y15855D01*
X57362D01*
Y15726D01*
X57426D01*
Y15662D01*
X57491D01*
Y15533D01*
X57555D01*
Y15405D01*
X57620D01*
Y15340D01*
X57684D01*
Y15211D01*
X57748D01*
Y15147D01*
X57813D01*
Y15211D01*
X57877D01*
Y15276D01*
X57941D01*
Y15340D01*
X58006D01*
Y15405D01*
X58070D01*
Y15469D01*
X58134D01*
Y15533D01*
X58199D01*
Y15598D01*
X58263D01*
Y15662D01*
X58328D01*
Y15726D01*
X58392D01*
Y15791D01*
X58456D01*
Y15855D01*
X58521D01*
Y15920D01*
X58585D01*
Y16048D01*
X58649D01*
Y16113D01*
X58714D01*
Y16177D01*
X58778D01*
Y16241D01*
X58843D01*
Y16306D01*
X58907D01*
Y16370D01*
X58971D01*
Y16434D01*
X59036D01*
Y16499D01*
X59100D01*
Y16563D01*
X59164D01*
Y16628D01*
X59229D01*
Y16692D01*
X59293D01*
Y16756D01*
X59357D01*
Y16821D01*
X59422D01*
Y16949D01*
X59486D01*
Y17014D01*
X59551D01*
Y17078D01*
X59615D01*
Y17143D01*
X59679D01*
Y17207D01*
X59744D01*
Y17271D01*
X59808D01*
Y17336D01*
X59872D01*
Y17400D01*
X59937D01*
Y17464D01*
X60001D01*
Y17529D01*
X60066D01*
Y17593D01*
X60130D01*
Y17657D01*
X60194D01*
Y17786D01*
X60259D01*
Y17851D01*
X60323D01*
Y17915D01*
X60387D01*
Y17979D01*
X60452D01*
Y18044D01*
X60516D01*
Y18108D01*
X60580D01*
Y18172D01*
X60645D01*
Y18237D01*
X60709D01*
Y18301D01*
X60774D01*
Y18430D01*
X60709D01*
Y18494D01*
X60580D01*
Y18559D01*
X60452D01*
Y18623D01*
X60323D01*
Y18687D01*
X60259D01*
Y18752D01*
X60130D01*
Y18816D01*
X60001D01*
Y18880D01*
X59872D01*
Y18945D01*
X59808D01*
Y19009D01*
X59679D01*
Y19074D01*
X59551D01*
Y19138D01*
X59422D01*
Y19202D01*
X59357D01*
Y19267D01*
X59229D01*
Y19331D01*
X59100D01*
Y19395D01*
X58971D01*
Y19460D01*
X58907D01*
Y19524D01*
X58778D01*
Y19589D01*
X58649D01*
Y19653D01*
X58585D01*
Y19717D01*
X58456D01*
Y19782D01*
X58328D01*
Y19846D01*
X58199D01*
Y19910D01*
X58134D01*
Y19975D01*
D02*
G37*
G36*
X48093Y18623D02*
X47900D01*
Y18366D01*
X47836D01*
Y18172D01*
X47771D01*
Y18108D01*
X47707D01*
Y17979D01*
X47643D01*
Y17915D01*
X47578D01*
Y17851D01*
X47514D01*
Y17786D01*
X47385D01*
Y17722D01*
X47321D01*
Y17657D01*
X47192D01*
Y17593D01*
X46999D01*
Y17529D01*
X46934D01*
Y17464D01*
X47063D01*
Y17400D01*
X47128D01*
Y17336D01*
X47192D01*
Y17271D01*
X47256D01*
Y17207D01*
X47321D01*
Y17143D01*
X47385D01*
Y17078D01*
X47449D01*
Y17014D01*
X47514D01*
Y16949D01*
X47578D01*
Y16885D01*
X47643D01*
Y16821D01*
X47707D01*
Y16756D01*
X47836D01*
Y16692D01*
X47900D01*
Y16628D01*
X47964D01*
Y16563D01*
X48029D01*
Y16499D01*
X48093D01*
Y16434D01*
X48157D01*
Y16370D01*
X48222D01*
Y16306D01*
X48286D01*
Y16241D01*
X48351D01*
Y16177D01*
X48415D01*
Y16113D01*
X48479D01*
Y16048D01*
X48608D01*
Y15984D01*
X48672D01*
Y15920D01*
X48737D01*
Y15855D01*
X48801D01*
Y15791D01*
X48866D01*
Y15726D01*
X48930D01*
Y15662D01*
X48994D01*
Y15598D01*
X49059D01*
Y15533D01*
X49123D01*
Y15469D01*
X49187D01*
Y15405D01*
X49252D01*
Y15340D01*
X49380D01*
Y15276D01*
X49445D01*
Y15211D01*
X49509D01*
Y15147D01*
X49574D01*
Y15083D01*
X49638D01*
Y15018D01*
X49702D01*
Y15083D01*
X49638D01*
Y15533D01*
X49702D01*
Y15855D01*
X49767D01*
Y15984D01*
X49831D01*
Y16113D01*
X49895D01*
Y16241D01*
X49960D01*
Y16306D01*
X50024D01*
Y16370D01*
X50089D01*
Y16499D01*
X50153D01*
Y16563D01*
X50217D01*
Y16628D01*
X50346D01*
Y16692D01*
X50410D01*
Y16756D01*
X50539D01*
Y16821D01*
X50668D01*
Y16885D01*
X50797D01*
Y16949D01*
X50668D01*
Y17014D01*
X50603D01*
Y17078D01*
X50475D01*
Y17143D01*
X50410D01*
Y17207D01*
X50282D01*
Y17271D01*
X50153D01*
Y17336D01*
X50089D01*
Y17400D01*
X49960D01*
Y17464D01*
X49895D01*
Y17529D01*
X49767D01*
Y17593D01*
X49638D01*
Y17657D01*
X49574D01*
Y17722D01*
X49445D01*
Y17786D01*
X49316D01*
Y17851D01*
X49252D01*
Y17915D01*
X49123D01*
Y17979D01*
X49059D01*
Y18044D01*
X48930D01*
Y18108D01*
X48801D01*
Y18172D01*
X48737D01*
Y18237D01*
X48608D01*
Y18301D01*
X48479D01*
Y18366D01*
X48415D01*
Y18430D01*
X48286D01*
Y18494D01*
X48222D01*
Y18559D01*
X48093D01*
Y18623D01*
D02*
G37*
G36*
X56139Y17400D02*
X55946D01*
Y17336D01*
X55689D01*
Y17271D01*
X55431D01*
Y17207D01*
X55174D01*
Y17143D01*
X54916D01*
Y17078D01*
X54659D01*
Y17014D01*
X54401D01*
Y16949D01*
X54144D01*
Y16885D01*
X53822D01*
Y16821D01*
X53564D01*
Y16756D01*
X53307D01*
Y16692D01*
X53049D01*
Y16628D01*
X52792D01*
Y16563D01*
X52534D01*
Y16370D01*
X52599D01*
Y16306D01*
X52663D01*
Y16241D01*
X52728D01*
Y16113D01*
X52792D01*
Y15984D01*
X52856D01*
Y15855D01*
X52921D01*
Y15598D01*
X52985D01*
Y15018D01*
X52921D01*
Y14761D01*
X52856D01*
Y14632D01*
X52792D01*
Y14503D01*
X52728D01*
Y14375D01*
X52663D01*
Y14310D01*
X52599D01*
Y14246D01*
X52534D01*
Y14117D01*
X52599D01*
Y14182D01*
X52856D01*
Y14246D01*
X53114D01*
Y14310D01*
X53371D01*
Y14375D01*
X53629D01*
Y14439D01*
X53886D01*
Y14503D01*
X54144D01*
Y14568D01*
X54401D01*
Y14632D01*
X54723D01*
Y14697D01*
X54980D01*
Y14761D01*
X55238D01*
Y14825D01*
X55495D01*
Y14890D01*
X55753D01*
Y14954D01*
X56010D01*
Y15018D01*
X56268D01*
Y15083D01*
X56525D01*
Y15147D01*
X56783D01*
Y15211D01*
X57105D01*
Y15276D01*
X57362D01*
Y15340D01*
X57426D01*
Y15405D01*
X57362D01*
Y15469D01*
X57298D01*
Y15598D01*
X57233D01*
Y15726D01*
X57169D01*
Y15791D01*
X57105D01*
Y15920D01*
X57040D01*
Y15984D01*
X56976D01*
Y16113D01*
X56911D01*
Y16241D01*
X56847D01*
Y16306D01*
X56783D01*
Y16434D01*
X56718D01*
Y16499D01*
X56654D01*
Y16628D01*
X56590D01*
Y16756D01*
X56525D01*
Y16821D01*
X56461D01*
Y16949D01*
X56397D01*
Y17078D01*
X56332D01*
Y17143D01*
X56268D01*
Y17271D01*
X56203D01*
Y17336D01*
X56139D01*
Y17400D01*
D02*
G37*
G36*
X51762Y16756D02*
X50861D01*
Y16692D01*
X50732D01*
Y16628D01*
X50603D01*
Y16563D01*
X50475D01*
Y16499D01*
X50410D01*
Y16434D01*
X50346D01*
Y16370D01*
X50217D01*
Y16241D01*
X50153D01*
Y16177D01*
X50089D01*
Y16113D01*
X50024D01*
Y15984D01*
X49960D01*
Y15855D01*
X49895D01*
Y15598D01*
X49831D01*
Y15083D01*
X49895D01*
Y14825D01*
X49960D01*
Y14632D01*
X50024D01*
Y14568D01*
X50089D01*
Y14439D01*
X50153D01*
Y14375D01*
X50217D01*
Y14310D01*
X50282D01*
Y14246D01*
X50346D01*
Y14182D01*
X50410D01*
Y14117D01*
X50475D01*
Y14053D01*
X50603D01*
Y13988D01*
X50732D01*
Y13924D01*
X50925D01*
Y13860D01*
X51698D01*
Y13924D01*
X51891D01*
Y13988D01*
X52020D01*
Y14053D01*
X52148D01*
Y14117D01*
X52213D01*
Y14182D01*
X52277D01*
Y14246D01*
X52341D01*
Y14310D01*
X52406D01*
Y14375D01*
X52470D01*
Y14439D01*
X52534D01*
Y14503D01*
X52599D01*
Y14632D01*
X52663D01*
Y14825D01*
X52728D01*
Y15018D01*
X52792D01*
Y15598D01*
X52728D01*
Y15791D01*
X52663D01*
Y15984D01*
X52599D01*
Y16113D01*
X52534D01*
Y16177D01*
X52470D01*
Y16241D01*
X52406D01*
Y16370D01*
X52341D01*
Y16434D01*
X52213D01*
Y16499D01*
X52148D01*
Y16563D01*
X52020D01*
Y16628D01*
X51891D01*
Y16692D01*
X51762D01*
Y16756D01*
D02*
G37*
%LPD*%
G36*
X56783Y29887D02*
X56911D01*
Y29823D01*
X56976D01*
Y29759D01*
X57040D01*
Y29694D01*
X57105D01*
Y29630D01*
X57169D01*
Y29501D01*
X57233D01*
Y29308D01*
X57298D01*
Y29051D01*
X57233D01*
Y28857D01*
X57169D01*
Y28729D01*
X57105D01*
Y28664D01*
X57040D01*
Y28600D01*
X56976D01*
Y28536D01*
X56911D01*
Y28471D01*
X56718D01*
Y28407D01*
X56203D01*
Y28471D01*
X56075D01*
Y28536D01*
X56010D01*
Y28600D01*
X55946D01*
Y28664D01*
X55882D01*
Y28729D01*
X55817D01*
Y28857D01*
X55753D01*
Y28986D01*
X55689D01*
Y29372D01*
X55753D01*
Y29566D01*
X55817D01*
Y29630D01*
X55882D01*
Y29759D01*
X56010D01*
Y29823D01*
X56075D01*
Y29887D01*
X56203D01*
Y29952D01*
X56783D01*
Y29887D01*
D02*
G37*
%LPC*%
G36*
X56718Y29759D02*
X56203D01*
Y29694D01*
X56139D01*
Y29630D01*
X56075D01*
Y29566D01*
X56010D01*
Y29501D01*
X55946D01*
Y29437D01*
Y29372D01*
X55882D01*
Y29051D01*
X55946D01*
Y28857D01*
X56010D01*
Y28793D01*
X56075D01*
Y28729D01*
X56139D01*
Y28664D01*
X56268D01*
Y28600D01*
X56718D01*
Y28664D01*
X56847D01*
Y28729D01*
X56911D01*
Y28793D01*
X56976D01*
Y28922D01*
X57040D01*
Y29115D01*
X57105D01*
Y29244D01*
X57040D01*
Y29501D01*
X56976D01*
Y29566D01*
X56911D01*
Y29630D01*
X56847D01*
Y29694D01*
X56718D01*
Y29759D01*
D02*
G37*
%LPD*%
G36*
X60516Y25768D02*
X60709D01*
Y25703D01*
X60774D01*
Y25639D01*
X60902D01*
Y25575D01*
X60967D01*
Y25510D01*
X61031D01*
Y25382D01*
X61095D01*
Y25317D01*
X61160D01*
Y25188D01*
Y25124D01*
X61224D01*
Y24480D01*
X61160D01*
Y24352D01*
X61095D01*
Y24223D01*
X61031D01*
Y24159D01*
X60967D01*
Y24094D01*
X60902D01*
Y24030D01*
X60838D01*
Y23966D01*
X60774D01*
Y23901D01*
X60645D01*
Y23837D01*
X60452D01*
Y23772D01*
X60001D01*
Y23837D01*
X59808D01*
Y23901D01*
X59679D01*
Y23966D01*
X59615D01*
Y24030D01*
X59486D01*
Y24094D01*
X59422D01*
Y24223D01*
X59357D01*
Y24287D01*
X59293D01*
Y24416D01*
X59229D01*
Y24674D01*
X59164D01*
Y24995D01*
X59229D01*
Y25188D01*
X59293D01*
Y25317D01*
X59357D01*
Y25446D01*
X59422D01*
Y25510D01*
X59486D01*
Y25575D01*
X59551D01*
Y25639D01*
X59615D01*
Y25703D01*
X59744D01*
Y25768D01*
X59872D01*
Y25832D01*
X60516D01*
Y25768D01*
D02*
G37*
%LPC*%
G36*
Y25639D02*
X59937D01*
Y25575D01*
X59808D01*
Y25510D01*
X59679D01*
Y25446D01*
X59615D01*
Y25382D01*
X59551D01*
Y25317D01*
X59486D01*
Y25188D01*
X59422D01*
Y24995D01*
X59357D01*
Y24674D01*
X59422D01*
Y24480D01*
X59486D01*
Y24352D01*
X59551D01*
Y24287D01*
X59615D01*
Y24223D01*
X59679D01*
Y24159D01*
X59744D01*
Y24094D01*
X59872D01*
Y24030D01*
X60066D01*
Y23966D01*
X60387D01*
Y24030D01*
X60580D01*
Y24094D01*
X60709D01*
Y24159D01*
X60774D01*
Y24223D01*
X60838D01*
Y24287D01*
X60902D01*
Y24352D01*
X60967D01*
Y24480D01*
X61031D01*
Y25124D01*
X60967D01*
Y25253D01*
X60902D01*
Y25382D01*
X60838D01*
Y25446D01*
X60774D01*
Y25510D01*
X60645D01*
Y25575D01*
X60516D01*
Y25639D01*
D02*
G37*
%LPD*%
G36*
X53114Y28536D02*
X53307D01*
Y28471D01*
X53436D01*
Y28407D01*
X53500D01*
Y28214D01*
X53436D01*
Y28149D01*
X53307D01*
Y28085D01*
X52728D01*
Y28149D01*
X52534D01*
Y28214D01*
X52470D01*
Y28278D01*
X52406D01*
Y28471D01*
X52470D01*
Y28536D01*
X52599D01*
Y28600D01*
X53114D01*
Y28536D01*
D02*
G37*
G36*
X50346Y27055D02*
X50475D01*
Y26862D01*
Y26798D01*
X50410D01*
Y26733D01*
X50346D01*
Y26669D01*
X50282D01*
Y26605D01*
X49831D01*
Y26669D01*
X49767D01*
Y26862D01*
X49831D01*
Y26991D01*
X49895D01*
Y27055D01*
X50024D01*
Y27120D01*
X50346D01*
Y27055D01*
D02*
G37*
G36*
X54466Y27570D02*
X54659D01*
Y27506D01*
X54787D01*
Y27441D01*
X54852D01*
Y27377D01*
X54980D01*
Y27313D01*
X55045D01*
Y27248D01*
X55109D01*
Y27184D01*
X55238D01*
Y27120D01*
X55302D01*
Y26991D01*
X55367D01*
Y26926D01*
X55431D01*
Y26862D01*
X55495D01*
Y26733D01*
X55560D01*
Y26605D01*
X55624D01*
Y26540D01*
Y26411D01*
X55689D01*
Y26218D01*
X55753D01*
Y26090D01*
X55689D01*
Y25703D01*
X55624D01*
Y25446D01*
X55431D01*
Y25639D01*
X55495D01*
Y25768D01*
X55367D01*
Y25703D01*
X55174D01*
Y25639D01*
X54144D01*
Y25703D01*
X53951D01*
Y25768D01*
X53822D01*
Y25832D01*
X53693D01*
Y25897D01*
X53564D01*
Y25961D01*
X53436D01*
Y26025D01*
X53371D01*
Y26090D01*
X53243D01*
Y26154D01*
X53178D01*
Y26218D01*
X53114D01*
Y26283D01*
X53049D01*
Y26347D01*
X52985D01*
Y26476D01*
X52921D01*
Y26605D01*
X52856D01*
Y26733D01*
X52792D01*
Y26669D01*
X52663D01*
Y26605D01*
X52599D01*
Y26669D01*
X52534D01*
Y26798D01*
X52663D01*
Y26862D01*
X52728D01*
Y26926D01*
X52792D01*
Y26991D01*
X52856D01*
Y27055D01*
X52921D01*
Y27120D01*
X52985D01*
Y27184D01*
X53049D01*
Y27248D01*
X53114D01*
Y27313D01*
X53243D01*
Y27377D01*
X53371D01*
Y27441D01*
X53564D01*
Y27506D01*
X53757D01*
Y27570D01*
X54015D01*
Y27634D01*
X54466D01*
Y27570D01*
D02*
G37*
G36*
X50346Y25768D02*
X50475D01*
Y25639D01*
X50539D01*
Y25446D01*
X50475D01*
Y25317D01*
X50410D01*
Y25253D01*
X50346D01*
Y25188D01*
X50282D01*
Y25124D01*
X50217D01*
Y25060D01*
X50153D01*
Y24995D01*
X50089D01*
Y24931D01*
X50024D01*
Y24867D01*
X49895D01*
Y24802D01*
X49767D01*
Y24738D01*
X49574D01*
Y24674D01*
X49316D01*
Y24738D01*
X49187D01*
Y24867D01*
X49123D01*
Y24931D01*
Y25060D01*
X49187D01*
Y25188D01*
X49252D01*
Y25253D01*
X49316D01*
Y25317D01*
X49380D01*
Y25446D01*
X49509D01*
Y25510D01*
X49574D01*
Y25575D01*
X49638D01*
Y25639D01*
X49767D01*
Y25703D01*
X49895D01*
Y25768D01*
X50089D01*
Y25832D01*
X50346D01*
Y25768D01*
D02*
G37*
G36*
X57169Y24931D02*
X57298D01*
Y24867D01*
X57426D01*
Y24802D01*
X57491D01*
Y24674D01*
X57555D01*
Y24545D01*
Y24480D01*
Y24416D01*
X57491D01*
Y24352D01*
X57233D01*
Y24416D01*
X57105D01*
Y24480D01*
X57040D01*
Y24545D01*
X56976D01*
Y24609D01*
X56911D01*
Y24867D01*
X56976D01*
Y24931D01*
X57105D01*
Y24995D01*
X57169D01*
Y24931D01*
D02*
G37*
G36*
X55174Y21133D02*
X54659D01*
Y21198D01*
X54594D01*
Y21326D01*
X54530D01*
Y21391D01*
X54466D01*
Y21520D01*
X54401D01*
Y21584D01*
X54337D01*
Y21713D01*
X54272D01*
Y21777D01*
X54208D01*
Y21906D01*
X54144D01*
Y21970D01*
X54079D01*
Y21906D01*
X54015D01*
Y21777D01*
X53951D01*
Y21713D01*
X53886D01*
Y21584D01*
X53822D01*
Y21520D01*
X53757D01*
Y21455D01*
X53693D01*
Y21326D01*
X53629D01*
Y21262D01*
X53564D01*
Y21133D01*
X52792D01*
Y21198D01*
X52856D01*
Y21262D01*
X52921D01*
Y21391D01*
X52985D01*
Y21455D01*
X53049D01*
Y21584D01*
X53114D01*
Y21648D01*
X53178D01*
Y21777D01*
X53243D01*
Y21841D01*
X53307D01*
Y21970D01*
X53371D01*
Y22034D01*
X53436D01*
Y22099D01*
Y22163D01*
X53500D01*
Y22228D01*
X53564D01*
Y22292D01*
X53629D01*
Y22421D01*
X53693D01*
Y22485D01*
X53757D01*
Y22614D01*
X53693D01*
Y22678D01*
X53629D01*
Y22807D01*
X53564D01*
Y22871D01*
X53500D01*
Y23000D01*
X53436D01*
Y23129D01*
X53371D01*
Y23193D01*
X53307D01*
Y23322D01*
X53243D01*
Y23386D01*
X53178D01*
Y23515D01*
X53114D01*
Y23579D01*
X53049D01*
Y23708D01*
X52985D01*
Y23837D01*
X52921D01*
Y23901D01*
X53629D01*
Y23772D01*
X53693D01*
Y23644D01*
X53757D01*
Y23579D01*
X53822D01*
Y23451D01*
X53886D01*
Y23322D01*
X53951D01*
Y23193D01*
X54015D01*
Y23129D01*
X54079D01*
Y23000D01*
X54144D01*
Y22871D01*
X54208D01*
Y22807D01*
X54272D01*
Y22678D01*
X54337D01*
Y22549D01*
X54401D01*
Y22485D01*
X54466D01*
Y22356D01*
X54530D01*
Y23901D01*
X55174D01*
Y21133D01*
D02*
G37*
G36*
X56911Y23837D02*
X57040D01*
Y23772D01*
X57169D01*
Y23708D01*
X57233D01*
Y23644D01*
X57298D01*
Y23579D01*
X57362D01*
Y23515D01*
X57426D01*
Y23451D01*
X57491D01*
Y23257D01*
X57555D01*
Y22936D01*
X57491D01*
Y22743D01*
X57426D01*
Y22614D01*
X57362D01*
Y22549D01*
X57298D01*
Y22485D01*
X57169D01*
Y22421D01*
X57040D01*
Y22356D01*
X56911D01*
Y22292D01*
X56718D01*
Y22228D01*
X56397D01*
Y22163D01*
X56139D01*
Y22099D01*
X56075D01*
Y22034D01*
X56010D01*
Y21970D01*
X55946D01*
Y21841D01*
X56010D01*
Y21713D01*
X56139D01*
Y21648D01*
X56783D01*
Y21713D01*
X56976D01*
Y21777D01*
X57105D01*
Y21841D01*
X57169D01*
Y21906D01*
X57362D01*
Y21777D01*
X57426D01*
Y21713D01*
X57491D01*
Y21584D01*
X57555D01*
Y21520D01*
X57620D01*
Y21391D01*
X57491D01*
Y21326D01*
X57362D01*
Y21262D01*
X57298D01*
Y21198D01*
X57105D01*
Y21133D01*
X56783D01*
Y21069D01*
X56139D01*
Y21133D01*
X55882D01*
Y21198D01*
X55753D01*
Y21262D01*
X55624D01*
Y21326D01*
X55560D01*
Y21391D01*
X55495D01*
Y21455D01*
X55431D01*
Y21584D01*
X55367D01*
Y21713D01*
X55302D01*
Y22228D01*
X55367D01*
Y22292D01*
Y22356D01*
X55431D01*
Y22421D01*
X55495D01*
Y22485D01*
X55560D01*
Y22549D01*
X55624D01*
Y22614D01*
X55753D01*
Y22678D01*
X55946D01*
Y22743D01*
X56203D01*
Y22807D01*
X56461D01*
Y22871D01*
X56718D01*
Y22936D01*
X56847D01*
Y23257D01*
X56783D01*
Y23322D01*
X56654D01*
Y23386D01*
X56268D01*
Y23322D01*
X56010D01*
Y23257D01*
X55882D01*
Y23193D01*
X55689D01*
Y23257D01*
X55624D01*
Y23322D01*
X55560D01*
Y23451D01*
X55495D01*
Y23515D01*
X55431D01*
Y23708D01*
X55560D01*
Y23772D01*
X55753D01*
Y23837D01*
X55946D01*
Y23901D01*
X56911D01*
Y23837D01*
D02*
G37*
G36*
X51440D02*
X51505D01*
Y23708D01*
X51569D01*
Y23579D01*
X51633D01*
Y23386D01*
X51698D01*
Y23257D01*
X51762D01*
Y23129D01*
X51826D01*
Y23000D01*
X51891D01*
Y22871D01*
X51955D01*
Y22743D01*
X52020D01*
Y22614D01*
X52084D01*
Y22485D01*
X52148D01*
Y22356D01*
X52213D01*
Y22228D01*
X52277D01*
Y22099D01*
X52341D01*
Y21906D01*
X52406D01*
Y21777D01*
X52470D01*
Y21648D01*
X52534D01*
Y21520D01*
X52599D01*
Y21391D01*
X52663D01*
Y21262D01*
X52728D01*
Y21069D01*
X52084D01*
Y21198D01*
X52020D01*
Y21326D01*
X51955D01*
Y21455D01*
X51891D01*
Y21584D01*
X50925D01*
Y21520D01*
X50861D01*
Y21391D01*
X50797D01*
Y21198D01*
X50732D01*
Y21069D01*
X50089D01*
Y21262D01*
X50153D01*
Y21391D01*
X50217D01*
Y21520D01*
X50282D01*
Y21584D01*
Y21648D01*
X50346D01*
Y21777D01*
X50410D01*
Y21970D01*
X50475D01*
Y22099D01*
X50539D01*
Y22228D01*
X50603D01*
Y22356D01*
X50668D01*
Y22485D01*
X50732D01*
Y22614D01*
X50797D01*
Y22743D01*
X50861D01*
Y22871D01*
X50925D01*
Y23000D01*
X50990D01*
Y23193D01*
X51054D01*
Y23322D01*
X51118D01*
Y23451D01*
X51183D01*
Y23579D01*
X51247D01*
Y23708D01*
X51312D01*
Y23837D01*
X51376D01*
Y23901D01*
X51440D01*
Y23837D01*
D02*
G37*
G36*
X49895Y23901D02*
X49960D01*
Y21069D01*
X49316D01*
Y22099D01*
X48930D01*
Y22034D01*
X48866D01*
Y21970D01*
X48801D01*
Y21841D01*
X48737D01*
Y21777D01*
X48672D01*
Y21648D01*
X48608D01*
Y21584D01*
X48544D01*
Y21455D01*
X48479D01*
Y21391D01*
X48415D01*
Y21262D01*
X48351D01*
Y21198D01*
X48286D01*
Y21133D01*
X48222D01*
Y21069D01*
X47514D01*
Y21198D01*
X47578D01*
Y21326D01*
X47643D01*
Y21391D01*
X47707D01*
Y21520D01*
X47771D01*
Y21584D01*
X47836D01*
Y21713D01*
X47900D01*
Y21777D01*
X47964D01*
Y21906D01*
X48029D01*
Y21970D01*
X48093D01*
Y22099D01*
X48157D01*
Y22228D01*
X48093D01*
Y22292D01*
X47964D01*
Y22356D01*
X47900D01*
Y22421D01*
X47836D01*
Y22485D01*
X47771D01*
Y22614D01*
X47707D01*
Y22743D01*
X47643D01*
Y23257D01*
X47707D01*
Y23451D01*
X47771D01*
Y23515D01*
X47836D01*
Y23579D01*
X47900D01*
Y23644D01*
X47964D01*
Y23708D01*
X48029D01*
Y23772D01*
X48157D01*
Y23837D01*
X48286D01*
Y23901D01*
X48672D01*
Y23966D01*
X49895D01*
Y23901D01*
D02*
G37*
G36*
X56139Y20039D02*
X56268D01*
Y19717D01*
X56203D01*
Y19653D01*
Y19589D01*
X56139D01*
Y19524D01*
X56075D01*
Y19460D01*
X55946D01*
Y19395D01*
X55817D01*
Y19331D01*
X55624D01*
Y19395D01*
X55495D01*
Y19717D01*
X55560D01*
Y19782D01*
X55624D01*
Y19846D01*
X55689D01*
Y19910D01*
X55753D01*
Y19975D01*
X55817D01*
Y20039D01*
X55946D01*
Y20103D01*
X56139D01*
Y20039D01*
D02*
G37*
G36*
X49638Y19910D02*
X49831D01*
Y19846D01*
X49895D01*
Y19782D01*
X49960D01*
Y19717D01*
X50024D01*
Y19653D01*
X50089D01*
Y19589D01*
X50153D01*
Y19331D01*
X50089D01*
Y19267D01*
X50024D01*
Y19202D01*
X49831D01*
Y19138D01*
X49767D01*
Y19202D01*
X49509D01*
Y19267D01*
X49380D01*
Y19331D01*
X49252D01*
Y19395D01*
X49187D01*
Y19460D01*
X49123D01*
Y19589D01*
X49059D01*
Y19846D01*
X49123D01*
Y19910D01*
X49187D01*
Y19975D01*
X49638D01*
Y19910D01*
D02*
G37*
G36*
X54530Y18623D02*
X54594D01*
Y18559D01*
X54530D01*
Y18494D01*
X54466D01*
Y18044D01*
X54401D01*
Y17915D01*
X54337D01*
Y17786D01*
X54272D01*
Y17722D01*
X54144D01*
Y17657D01*
X54015D01*
Y17593D01*
X53886D01*
Y17529D01*
X53693D01*
Y17464D01*
X53564D01*
Y17400D01*
X53371D01*
Y17336D01*
X53114D01*
Y17271D01*
X52728D01*
Y17207D01*
X52663D01*
Y17271D01*
X52277D01*
Y17336D01*
X52084D01*
Y17400D01*
X51955D01*
Y17464D01*
X51826D01*
Y17529D01*
X51698D01*
Y17593D01*
X51633D01*
Y17786D01*
X51569D01*
Y17979D01*
X51505D01*
Y18172D01*
X51569D01*
Y18108D01*
X51762D01*
Y18172D01*
X51826D01*
Y18237D01*
X51891D01*
Y18301D01*
X52020D01*
Y18366D01*
X52084D01*
Y18430D01*
X52277D01*
Y18494D01*
X52406D01*
Y18559D01*
X52663D01*
Y18623D01*
X52921D01*
Y18687D01*
X53629D01*
Y18623D01*
X53822D01*
Y18559D01*
X54079D01*
Y18494D01*
X54208D01*
Y18430D01*
X54272D01*
Y18559D01*
X54337D01*
Y18623D01*
X54401D01*
Y18687D01*
X54530D01*
Y18623D01*
D02*
G37*
%LPC*%
G36*
X53114Y28407D02*
X52663D01*
Y28343D01*
X52728D01*
Y28278D01*
X53307D01*
Y28343D01*
X53114D01*
Y28407D01*
D02*
G37*
G36*
X50282Y26926D02*
X50089D01*
Y26862D01*
X49960D01*
Y26798D01*
X50217D01*
Y26862D01*
X50282D01*
Y26926D01*
D02*
G37*
G36*
X54466Y27441D02*
X54015D01*
Y27377D01*
X53822D01*
Y27313D01*
X53629D01*
Y27248D01*
X53436D01*
Y27184D01*
X53307D01*
Y27120D01*
X53178D01*
Y27055D01*
X53114D01*
Y26926D01*
X53049D01*
Y26669D01*
X53114D01*
Y26540D01*
X53178D01*
Y26411D01*
X53243D01*
Y26347D01*
X53307D01*
Y26283D01*
X53436D01*
Y26218D01*
X53500D01*
Y26154D01*
X53564D01*
Y26090D01*
X53693D01*
Y26025D01*
X53822D01*
Y25961D01*
X53951D01*
Y25897D01*
X54144D01*
Y25832D01*
X55174D01*
Y25897D01*
X55367D01*
Y25961D01*
X55431D01*
Y26025D01*
X55495D01*
Y26154D01*
X55560D01*
Y26218D01*
X55495D01*
Y26411D01*
X55431D01*
Y26540D01*
X55367D01*
Y26669D01*
X55302D01*
Y26798D01*
X55238D01*
Y26862D01*
X55174D01*
Y26926D01*
X55109D01*
Y26991D01*
X55045D01*
Y27055D01*
X54980D01*
Y27120D01*
X54916D01*
Y27184D01*
X54852D01*
Y27248D01*
X54723D01*
Y27313D01*
X54594D01*
Y27377D01*
X54466D01*
Y27441D01*
D02*
G37*
G36*
X50346Y25639D02*
X50089D01*
Y25575D01*
X49895D01*
Y25510D01*
X49831D01*
Y25446D01*
X49702D01*
Y25382D01*
X49638D01*
Y25317D01*
X49574D01*
Y25253D01*
X49509D01*
Y25188D01*
X49445D01*
Y25124D01*
X49380D01*
Y24995D01*
X49316D01*
Y24931D01*
X49380D01*
Y24867D01*
X49509D01*
Y24931D01*
X49702D01*
Y24995D01*
X49831D01*
Y25060D01*
X49960D01*
Y25124D01*
X50024D01*
Y25188D01*
X50089D01*
Y25253D01*
X50153D01*
Y25317D01*
X50217D01*
Y25382D01*
X50282D01*
Y25510D01*
X50346D01*
Y25639D01*
D02*
G37*
G36*
X57298Y24738D02*
X57105D01*
Y24674D01*
X57169D01*
Y24609D01*
X57233D01*
Y24545D01*
X57362D01*
Y24674D01*
X57298D01*
Y24738D01*
D02*
G37*
G36*
X51440Y22614D02*
X51312D01*
Y22421D01*
X51247D01*
Y22292D01*
X51183D01*
Y22163D01*
X51118D01*
Y22034D01*
X51633D01*
Y22163D01*
X51569D01*
Y22356D01*
X51505D01*
Y22485D01*
X51440D01*
Y22549D01*
Y22614D01*
D02*
G37*
G36*
X49316Y23386D02*
X48608D01*
Y23322D01*
X48479D01*
Y23257D01*
X48415D01*
Y23193D01*
X48351D01*
Y22807D01*
X48415D01*
Y22743D01*
X48479D01*
Y22678D01*
X48608D01*
Y22614D01*
X49316D01*
Y23386D01*
D02*
G37*
G36*
X56075Y19910D02*
X56010D01*
Y19846D01*
X55882D01*
Y19782D01*
X55817D01*
Y19717D01*
X55753D01*
Y19653D01*
X55689D01*
Y19524D01*
X55817D01*
Y19589D01*
X55946D01*
Y19653D01*
X56010D01*
Y19717D01*
X56075D01*
Y19910D01*
D02*
G37*
G36*
X49638Y19782D02*
X49252D01*
Y19653D01*
X49316D01*
Y19524D01*
X49445D01*
Y19460D01*
X49509D01*
Y19395D01*
X49767D01*
Y19331D01*
X49831D01*
Y19395D01*
X49960D01*
Y19524D01*
X49895D01*
Y19589D01*
X49831D01*
Y19653D01*
X49767D01*
Y19717D01*
X49638D01*
Y19782D01*
D02*
G37*
G36*
X53564Y18494D02*
X52921D01*
Y18430D01*
X52663D01*
Y18366D01*
X52470D01*
Y18301D01*
X52277D01*
Y18237D01*
X52148D01*
Y18172D01*
X52020D01*
Y18108D01*
X51955D01*
Y18044D01*
X51891D01*
Y17979D01*
X51826D01*
Y17851D01*
X51762D01*
Y17722D01*
X51826D01*
Y17657D01*
X51955D01*
Y17593D01*
X52084D01*
Y17529D01*
X52277D01*
Y17464D01*
X53114D01*
Y17529D01*
X53307D01*
Y17593D01*
X53500D01*
Y17657D01*
X53693D01*
Y17722D01*
X53886D01*
Y17786D01*
X54015D01*
Y17851D01*
X54144D01*
Y17915D01*
X54208D01*
Y18044D01*
X54272D01*
Y18237D01*
X54208D01*
Y18301D01*
X54079D01*
Y18366D01*
X53822D01*
Y18430D01*
X53564D01*
Y18494D01*
D02*
G37*
%LPD*%
G36*
X46999Y19460D02*
X47128D01*
Y19395D01*
X47256D01*
Y19331D01*
X47321D01*
Y19267D01*
X47385D01*
Y19138D01*
X47449D01*
Y18945D01*
X47514D01*
Y18559D01*
X47449D01*
Y18366D01*
X47385D01*
Y18301D01*
X47321D01*
Y18237D01*
X47256D01*
Y18172D01*
X47192D01*
Y18108D01*
X47128D01*
Y18044D01*
X46999D01*
Y17979D01*
X46484D01*
Y18044D01*
X46355D01*
Y18108D01*
X46226D01*
Y18172D01*
X46162D01*
Y18237D01*
X46098D01*
Y18301D01*
X46033D01*
Y18430D01*
X45969D01*
Y18494D01*
Y18559D01*
Y18687D01*
X45905D01*
Y18880D01*
X45969D01*
Y19074D01*
X46033D01*
Y19202D01*
X46098D01*
Y19267D01*
X46162D01*
Y19331D01*
X46226D01*
Y19395D01*
X46291D01*
Y19460D01*
X46420D01*
Y19524D01*
X46999D01*
Y19460D01*
D02*
G37*
%LPC*%
G36*
Y19331D02*
X46484D01*
Y19267D01*
X46355D01*
Y19202D01*
X46291D01*
Y19138D01*
X46226D01*
Y19074D01*
Y19009D01*
X46162D01*
Y18816D01*
X46098D01*
Y18687D01*
X46162D01*
Y18494D01*
X46226D01*
Y18366D01*
X46291D01*
Y18301D01*
X46355D01*
Y18237D01*
X46484D01*
Y18172D01*
X46934D01*
Y18237D01*
X47063D01*
Y18301D01*
X47128D01*
Y18366D01*
X47192D01*
Y18430D01*
X47256D01*
Y18559D01*
X47321D01*
Y18945D01*
X47256D01*
Y19074D01*
X47192D01*
Y19138D01*
X47128D01*
Y19202D01*
X47063D01*
Y19267D01*
X46999D01*
Y19331D01*
D02*
G37*
%LPD*%
G36*
X51440Y16306D02*
X51698D01*
Y16241D01*
X51826D01*
Y16177D01*
X51891D01*
Y16113D01*
X52020D01*
Y16048D01*
X52084D01*
Y15984D01*
X52148D01*
Y15855D01*
X52213D01*
Y15726D01*
X52277D01*
Y15598D01*
X52341D01*
Y15018D01*
X52277D01*
Y14890D01*
X52213D01*
Y14761D01*
X52148D01*
Y14697D01*
X52084D01*
Y14568D01*
X51955D01*
Y14503D01*
X51891D01*
Y14439D01*
X51826D01*
Y14375D01*
X51633D01*
Y14310D01*
X50990D01*
Y14375D01*
X50797D01*
Y14439D01*
X50732D01*
Y14503D01*
X50668D01*
Y14568D01*
X50539D01*
Y14697D01*
X50475D01*
Y14761D01*
X50410D01*
Y14890D01*
X50346D01*
Y15018D01*
X50282D01*
Y15598D01*
X50346D01*
Y15726D01*
X50410D01*
Y15855D01*
X50475D01*
Y15920D01*
X50539D01*
Y16048D01*
X50603D01*
Y16113D01*
X50732D01*
Y16177D01*
X50797D01*
Y16241D01*
X50925D01*
Y16306D01*
X51183D01*
Y16370D01*
X51440D01*
Y16306D01*
D02*
G37*
%LPC*%
G36*
Y16177D02*
X51183D01*
Y16113D01*
X50990D01*
Y16048D01*
X50861D01*
Y15984D01*
X50732D01*
Y15920D01*
X50668D01*
Y15791D01*
X50603D01*
Y15726D01*
X50539D01*
Y15533D01*
X50475D01*
Y15083D01*
X50539D01*
Y14890D01*
X50603D01*
Y14825D01*
X50668D01*
Y14761D01*
X50732D01*
Y14697D01*
X50797D01*
Y14632D01*
X50861D01*
Y14568D01*
X50990D01*
Y14503D01*
X51633D01*
Y14568D01*
X51762D01*
Y14632D01*
X51826D01*
Y14697D01*
X51955D01*
Y14825D01*
X52020D01*
Y14890D01*
X52084D01*
Y15083D01*
X52148D01*
Y15533D01*
X52084D01*
Y15726D01*
X52020D01*
Y15791D01*
X51955D01*
Y15920D01*
X51891D01*
Y15984D01*
X51762D01*
Y16048D01*
X51698D01*
Y16113D01*
X51440D01*
Y16177D01*
D02*
G37*
G36*
X1245Y21070D02*
X1238D01*
X1212Y21067D01*
X1187Y21060D01*
X1167Y21051D01*
X1151Y21041D01*
X1122Y21008D01*
X1106Y20973D01*
X1093Y20937D01*
X1089Y20905D01*
X1086Y20895D01*
Y20885D01*
Y20879D01*
Y20876D01*
Y20183D01*
Y20150D01*
X1093Y20121D01*
X1099Y20098D01*
X1109Y20076D01*
X1122Y20060D01*
X1135Y20043D01*
X1161Y20021D01*
X1190Y20008D01*
X1216Y20001D01*
X1232Y19998D01*
X1238D01*
X1264Y20001D01*
X1287Y20005D01*
X1306Y20014D01*
X1323Y20027D01*
X1348Y20056D01*
X1365Y20092D01*
X1378Y20124D01*
X1381Y20153D01*
X1384Y20166D01*
Y20176D01*
Y20179D01*
Y20183D01*
Y20876D01*
X1381Y20911D01*
X1378Y20940D01*
X1371Y20966D01*
X1361Y20989D01*
X1352Y21008D01*
X1339Y21021D01*
X1310Y21047D01*
X1284Y21060D01*
X1261Y21067D01*
X1245Y21070D01*
D02*
G37*
%LPD*%
D128*
X28750Y1500D02*
X38750D01*
X28750Y6250D02*
X38750D01*
X20500Y11250D02*
X27750D01*
X28750Y1500D02*
Y6250D01*
X20500Y6500D02*
X27750D01*
X38750Y1500D02*
Y6250D01*
X27750Y6500D02*
Y11250D01*
X20500Y6500D02*
Y11250D01*
X86332Y1500D02*
Y2500D01*
X85999Y2167D01*
X85666Y2500D01*
Y1500D01*
X84666Y2333D02*
X84833Y2500D01*
X85166D01*
X85333Y2333D01*
Y1667D01*
X85166Y1500D01*
X84833D01*
X84666Y1667D01*
Y2000D01*
X84999D01*
X82667Y1500D02*
X83333D01*
X82667Y2167D01*
Y2333D01*
X82833Y2500D01*
X83167D01*
X83333Y2333D01*
X82334D02*
X82167Y2500D01*
X81834D01*
X81667Y2333D01*
Y1667D01*
X81834Y1500D01*
X82167D01*
X82334Y1667D01*
Y2333D01*
X80667Y1500D02*
X81334D01*
X80667Y2167D01*
Y2333D01*
X80834Y2500D01*
X81167D01*
X81334Y2333D01*
X80334D02*
X80168Y2500D01*
X79834D01*
X79668Y2333D01*
Y2167D01*
X79834Y2000D01*
X80001D01*
X79834D01*
X79668Y1833D01*
Y1667D01*
X79834Y1500D01*
X80168D01*
X80334Y1667D01*
X10200Y43000D02*
X10000Y43200D01*
Y43600D01*
X10200Y43800D01*
X10400D01*
X10600Y43600D01*
Y43200D01*
X10800Y43000D01*
X11000D01*
X11200Y43200D01*
Y43600D01*
X11000Y43800D01*
X10000Y42600D02*
Y41801D01*
Y42201D01*
X11200D01*
X10000Y40601D02*
Y41401D01*
X11200D01*
Y40601D01*
X10600Y41401D02*
Y41001D01*
X11200Y40201D02*
X10000D01*
Y39601D01*
X10200Y39401D01*
X10600D01*
X10800Y39601D01*
Y40201D01*
X45900Y10949D02*
Y10150D01*
Y10549D01*
X47100D01*
X45900Y8950D02*
Y9750D01*
X47100D01*
Y8950D01*
X46500Y9750D02*
Y9350D01*
X47100Y8550D02*
X45900D01*
X46300Y8150D01*
X45900Y7750D01*
X47100D01*
Y7350D02*
X45900D01*
Y6751D01*
X46100Y6551D01*
X46500D01*
X46700Y6751D01*
Y7350D01*
X43900Y11999D02*
Y11199D01*
X43500Y11599D02*
X44300D01*
X43500Y10800D02*
X43300Y10600D01*
Y10200D01*
X43500Y10000D01*
X43700D01*
X43900Y10200D01*
Y10400D01*
Y10200D01*
X44100Y10000D01*
X44300D01*
X44500Y10200D01*
Y10600D01*
X44300Y10800D01*
X44500Y9600D02*
X44300D01*
Y9400D01*
X44500D01*
Y9600D01*
X43500Y8600D02*
X43300Y8400D01*
Y8000D01*
X43500Y7800D01*
X43700D01*
X43900Y8000D01*
Y8200D01*
Y8000D01*
X44100Y7800D01*
X44300D01*
X44500Y8000D01*
Y8400D01*
X44300Y8600D01*
X43300Y7401D02*
X44100D01*
X44500Y7001D01*
X44100Y6601D01*
X43300D01*
X41000Y6199D02*
X40800Y6399D01*
Y6799D01*
X41000Y6999D01*
X41800D01*
X42000Y6799D01*
Y6399D01*
X41800Y6199D01*
X41400D01*
Y6599D01*
X42000Y5799D02*
X40800D01*
X42000Y5000D01*
X40800D01*
Y4600D02*
X42000D01*
Y4000D01*
X41800Y3800D01*
X41000D01*
X40800Y4000D01*
Y4600D01*
X47500Y1600D02*
X46700D01*
X47100D01*
Y400D01*
X46300Y1600D02*
X45500Y400D01*
Y1600D02*
X46300Y400D01*
X44700D02*
Y1600D01*
X44100D01*
X43900Y1400D01*
Y1000D01*
X44100Y800D01*
X44700D01*
X44300D02*
X43900Y400D01*
X43500Y1600D02*
X42700Y400D01*
Y1600D02*
X43500Y400D01*
X26349Y12850D02*
X25949D01*
X26149D01*
Y11650D01*
X26349D01*
X25949D01*
X24550Y12650D02*
X24750Y12850D01*
X25150D01*
X25350Y12650D01*
Y11850D01*
X25150Y11650D01*
X24750D01*
X24550Y11850D01*
X23350Y12650D02*
X23550Y12850D01*
X23950D01*
X24150Y12650D01*
Y12450D01*
X23950Y12250D01*
X23550D01*
X23350Y12050D01*
Y11850D01*
X23550Y11650D01*
X23950D01*
X24150Y11850D01*
X22950Y11650D02*
Y12850D01*
X22351D01*
X22151Y12650D01*
Y12250D01*
X22351Y12050D01*
X22950D01*
X35749Y6650D02*
Y7850D01*
X35150D01*
X34950Y7650D01*
Y7250D01*
X35150Y7050D01*
X35749D01*
X35349D02*
X34950Y6650D01*
X34550Y7850D02*
X33750D01*
X34150D01*
Y6650D01*
X33350D02*
Y7850D01*
X32950Y7450D01*
X32550Y7850D01*
Y6650D01*
X32151Y7850D02*
X31751D01*
X31951D01*
Y6650D01*
X32151D01*
X31751D01*
X26200Y4699D02*
Y3900D01*
X25800Y4300D02*
X26600D01*
X25600Y2700D02*
Y3500D01*
X26200D01*
X26000Y3100D01*
Y2900D01*
X26200Y2700D01*
X26600D01*
X26800Y2900D01*
Y3300D01*
X26600Y3500D01*
X25600Y2300D02*
X26400D01*
X26800Y1900D01*
X26400Y1501D01*
X25600D01*
X24599Y4500D02*
Y5700D01*
X24199Y5300D01*
X23800Y5700D01*
Y4500D01*
X23400Y5700D02*
X23000D01*
X23200D01*
Y4500D01*
X23400D01*
X23000D01*
X21600Y5500D02*
X21800Y5700D01*
X22200D01*
X22400Y5500D01*
Y5300D01*
X22200Y5100D01*
X21800D01*
X21600Y4900D01*
Y4700D01*
X21800Y4500D01*
X22200D01*
X22400Y4700D01*
X20601Y5700D02*
X21000D01*
X21200Y5500D01*
Y4700D01*
X21000Y4500D01*
X20601D01*
X20401Y4700D01*
Y5500D01*
X20601Y5700D01*
X20100Y8199D02*
X18900D01*
X19300Y7799D01*
X18900Y7399D01*
X20100D01*
X18900Y6399D02*
Y6799D01*
X19100Y6999D01*
X19900D01*
X20100Y6799D01*
Y6399D01*
X19900Y6199D01*
X19100D01*
X18900Y6399D01*
X19100Y5000D02*
X18900Y5200D01*
Y5600D01*
X19100Y5799D01*
X19300D01*
X19500Y5600D01*
Y5200D01*
X19700Y5000D01*
X19900D01*
X20100Y5200D01*
Y5600D01*
X19900Y5799D01*
X18900Y4600D02*
Y4200D01*
Y4400D01*
X20100D01*
Y4600D01*
Y4200D01*
X16400Y10198D02*
Y10998D01*
X17600D01*
Y10198D01*
X17000Y10998D02*
Y10598D01*
X17600Y9798D02*
X16400D01*
X17600Y8998D01*
X16400D01*
X16600Y7799D02*
X16400Y7999D01*
Y8399D01*
X16600Y8599D01*
X17400D01*
X17600Y8399D01*
Y7999D01*
X17400Y7799D01*
X16600Y5400D02*
X16400Y5600D01*
Y5999D01*
X16600Y6199D01*
X17400D01*
X17600Y5999D01*
Y5600D01*
X17400Y5400D01*
X16600Y4200D02*
X16400Y4400D01*
Y4800D01*
X16600Y5000D01*
X16800D01*
X17000Y4800D01*
Y4400D01*
X17200Y4200D01*
X17400D01*
X17600Y4400D01*
Y4800D01*
X17400Y5000D01*
X14100Y6499D02*
X13900Y6699D01*
Y7099D01*
X14100Y7299D01*
X14300D01*
X14500Y7099D01*
Y6699D01*
X14700Y6499D01*
X14900D01*
X15100Y6699D01*
Y7099D01*
X14900Y7299D01*
X14100Y5300D02*
X13900Y5500D01*
Y5899D01*
X14100Y6099D01*
X14900D01*
X15100Y5899D01*
Y5500D01*
X14900Y5300D01*
X13900Y4900D02*
X15100D01*
X14700D01*
X13900Y4100D01*
X14500Y4700D01*
X15100Y4100D01*
X11600Y6499D02*
X11400Y6699D01*
Y7099D01*
X11600Y7299D01*
X12400D01*
X12600Y7099D01*
Y6699D01*
X12400Y6499D01*
X12000D01*
Y6899D01*
X12600Y6099D02*
X11400D01*
X12600Y5300D01*
X11400D01*
Y4900D02*
X12600D01*
Y4300D01*
X12400Y4100D01*
X11600D01*
X11400Y4300D01*
Y4900D01*
X50600Y43000D02*
X50400Y43200D01*
Y43600D01*
X50600Y43800D01*
X51400D01*
X51600Y43600D01*
Y43200D01*
X51400Y43000D01*
X51000D01*
Y43400D01*
X51600Y42600D02*
X50400D01*
X51600Y41801D01*
X50400D01*
Y41401D02*
X51600D01*
Y40801D01*
X51400Y40601D01*
X50600D01*
X50400Y40801D01*
Y41401D01*
X47800Y43800D02*
X49000D01*
Y43200D01*
X48800Y43000D01*
X48600D01*
X48400Y43200D01*
Y43800D01*
Y43200D01*
X48200Y43000D01*
X48000D01*
X47800Y43200D01*
Y43800D01*
X49000Y42600D02*
X47800D01*
Y42001D01*
X48000Y41801D01*
X48400D01*
X48600Y42001D01*
Y42600D01*
Y42201D02*
X49000Y41801D01*
Y41401D02*
X48200D01*
X47800Y41001D01*
X48200Y40601D01*
X49000D01*
X48400D01*
Y41401D01*
X47800Y40201D02*
X49000D01*
X48600D01*
X47800Y39401D01*
X48400Y40001D01*
X49000Y39401D01*
X47800Y38202D02*
Y39002D01*
X49000D01*
Y38202D01*
X48400Y39002D02*
Y38602D01*
X44100Y43700D02*
Y42900D01*
X43700Y43300D02*
X44500D01*
X43500Y41701D02*
Y42500D01*
X44100D01*
X43900Y42101D01*
Y41901D01*
X44100Y41701D01*
X44500D01*
X44700Y41901D01*
Y42300D01*
X44500Y42500D01*
X43500Y41301D02*
X44300D01*
X44700Y40901D01*
X44300Y40501D01*
X43500D01*
X41000Y42900D02*
Y43700D01*
X42200D01*
Y42900D01*
X41600Y43700D02*
Y43300D01*
X42200Y42500D02*
X41000D01*
X42200Y41701D01*
X41000D01*
X41200Y40501D02*
X41000Y40701D01*
Y41101D01*
X41200Y41301D01*
X42000D01*
X42200Y41101D01*
Y40701D01*
X42000Y40501D01*
X42200Y38902D02*
X41000D01*
X42200Y38102D01*
X41000D01*
X38500Y42900D02*
Y43700D01*
X39700D01*
Y42900D01*
X39100Y43700D02*
Y43300D01*
X39700Y42500D02*
X38500D01*
X39700Y41701D01*
X38500D01*
X38700Y40501D02*
X38500Y40701D01*
Y41101D01*
X38700Y41301D01*
X39500D01*
X39700Y41101D01*
Y40701D01*
X39500Y40501D01*
X38500Y38902D02*
X39700D01*
Y38302D01*
X39500Y38102D01*
X39300D01*
X39100Y38302D01*
Y38902D01*
Y38302D01*
X38900Y38102D01*
X38700D01*
X38500Y38302D01*
Y38902D01*
X36000Y42900D02*
Y43700D01*
X37200D01*
Y42900D01*
X36600Y43700D02*
Y43300D01*
X37200Y42500D02*
X36000D01*
X37200Y41701D01*
X36000D01*
X36200Y40501D02*
X36000Y40701D01*
Y41101D01*
X36200Y41301D01*
X37000D01*
X37200Y41101D01*
Y40701D01*
X37000Y40501D01*
X37200Y38902D02*
X36400D01*
X36000Y38502D01*
X36400Y38102D01*
X37200D01*
X36600D01*
Y38902D01*
X33700Y42900D02*
X33500Y43100D01*
Y43500D01*
X33700Y43700D01*
X34500D01*
X34700Y43500D01*
Y43100D01*
X34500Y42900D01*
X34100D01*
Y43300D01*
X34700Y42500D02*
X33500D01*
X34700Y41701D01*
X33500D01*
Y41301D02*
X34700D01*
Y40701D01*
X34500Y40501D01*
X33700D01*
X33500Y40701D01*
Y41301D01*
X29600Y43700D02*
Y42900D01*
X29200Y43300D02*
X30000D01*
X29000Y41701D02*
Y42500D01*
X29600D01*
X29400Y42101D01*
Y41901D01*
X29600Y41701D01*
X30000D01*
X30200Y41901D01*
Y42300D01*
X30000Y42500D01*
X29000Y41301D02*
X29800D01*
X30200Y40901D01*
X29800Y40501D01*
X29000D01*
X26500Y43700D02*
X27700D01*
X27100D01*
Y42900D01*
X26500D01*
X27700D01*
Y42500D02*
X26900D01*
X26500Y42101D01*
X26900Y41701D01*
X27700D01*
X27100D01*
Y42500D01*
X26500Y41301D02*
X27700D01*
Y40501D01*
X26500Y40101D02*
X27700D01*
Y39301D01*
X27900Y38902D02*
Y38102D01*
X26500Y37702D02*
X27700D01*
X27300Y37302D01*
X27700Y36902D01*
X26500D01*
Y36502D02*
X26700D01*
X27100Y36102D01*
X26700Y35703D01*
X26500D01*
X27100Y36102D02*
X27700D01*
X24000Y43700D02*
X25200D01*
X24600D01*
Y42900D01*
X24000D01*
X25200D01*
Y42500D02*
X24400D01*
X24000Y42101D01*
X24400Y41701D01*
X25200D01*
X24600D01*
Y42500D01*
X24000Y41301D02*
X25200D01*
Y40501D01*
X24000Y40101D02*
X25200D01*
Y39301D01*
X25400Y38902D02*
Y38102D01*
X24000Y37702D02*
X24800D01*
X25200Y37302D01*
X24800Y36902D01*
X24000D01*
X21500Y43700D02*
X22700D01*
X22100D01*
Y42900D01*
X21500D01*
X22700D01*
Y42500D02*
X21900D01*
X21500Y42101D01*
X21900Y41701D01*
X22700D01*
X22100D01*
Y42500D01*
X21500Y41301D02*
X22700D01*
Y40501D01*
X21500Y40101D02*
X22700D01*
Y39301D01*
X22900Y38902D02*
Y38102D01*
X21500Y37702D02*
X22500D01*
X22700Y37502D01*
Y37102D01*
X22500Y36902D01*
X21500D01*
Y36502D02*
X22700Y35703D01*
X21500D02*
X22700Y36502D01*
X19200Y42900D02*
X19000Y43100D01*
Y43500D01*
X19200Y43700D01*
X20000D01*
X20200Y43500D01*
Y43100D01*
X20000Y42900D01*
X19600D01*
Y43300D01*
X20200Y42500D02*
X19000D01*
X20200Y41701D01*
X19000D01*
Y41301D02*
X20200D01*
Y40701D01*
X20000Y40501D01*
X19200D01*
X19000Y40701D01*
Y41301D01*
X15400Y42900D02*
X15200Y43100D01*
Y43500D01*
X15400Y43700D01*
X16200D01*
X16400Y43500D01*
Y43100D01*
X16200Y42900D01*
X15800D01*
Y43300D01*
X16400Y42500D02*
X15200D01*
X16400Y41701D01*
X15200D01*
Y41301D02*
X16400D01*
Y40701D01*
X16200Y40501D01*
X15400D01*
X15200Y40701D01*
Y41301D01*
X12700Y43700D02*
X13900D01*
Y43100D01*
X13700Y42900D01*
X12900D01*
X12700Y43100D01*
Y43700D01*
Y42500D02*
Y42101D01*
Y42300D01*
X13900D01*
Y42500D01*
Y42101D01*
Y41501D02*
X12700D01*
Y40901D01*
X12900Y40701D01*
X13300D01*
X13500Y40901D01*
Y41501D01*
Y41101D02*
X13900Y40701D01*
%TF.MD5,feb6325f88de57b8de1437866a4f7c15*%
M02*
