%TF.GenerationSoftware,Altium Limited,Altium Designer,23.4.1 (23)*%
G04 Layer_Physical_Order=1*
G04 Layer_Color=255*
%FSLAX43Y43*%
%MOMM*%
%TF.SameCoordinates,F1D85D2B-AD7B-4026-9487-DA5914AD0DFB*%
%TF.FilePolarity,Positive*%
%TF.FileFunction,Copper,L1,Top,Signal*%
%TF.Part,Single*%
G01*
G75*
%TA.AperFunction,SMDPad,CuDef*%
%ADD10R,0.900X1.050*%
%ADD11R,0.800X0.800*%
%ADD12R,0.912X0.958*%
%ADD13R,0.850X0.950*%
%ADD14R,2.000X4.100*%
G04:AMPARAMS|DCode=15|XSize=1.554mm|YSize=0.376mm|CornerRadius=0.188mm|HoleSize=0mm|Usage=FLASHONLY|Rotation=90.000|XOffset=0mm|YOffset=0mm|HoleType=Round|Shape=RoundedRectangle|*
%AMROUNDEDRECTD15*
21,1,1.554,0.000,0,0,90.0*
21,1,1.178,0.376,0,0,90.0*
1,1,0.376,0.000,0.589*
1,1,0.376,0.000,-0.589*
1,1,0.376,0.000,-0.589*
1,1,0.376,0.000,0.589*
%
%ADD15ROUNDEDRECTD15*%
%ADD16R,0.376X1.554*%
G04:AMPARAMS|DCode=17|XSize=1.554mm|YSize=0.376mm|CornerRadius=0.188mm|HoleSize=0mm|Usage=FLASHONLY|Rotation=0.000|XOffset=0mm|YOffset=0mm|HoleType=Round|Shape=RoundedRectangle|*
%AMROUNDEDRECTD17*
21,1,1.554,0.000,0,0,0.0*
21,1,1.178,0.376,0,0,0.0*
1,1,0.376,0.589,0.000*
1,1,0.376,-0.589,0.000*
1,1,0.376,-0.589,0.000*
1,1,0.376,0.589,0.000*
%
%ADD17ROUNDEDRECTD17*%
%ADD18R,1.554X0.376*%
%ADD19R,1.050X0.900*%
%ADD20R,0.950X0.950*%
%ADD21R,0.750X0.900*%
%ADD22R,1.550X0.950*%
%ADD23R,1.800X1.400*%
%ADD24R,2.100X1.800*%
%ADD25R,0.957X0.962*%
%ADD26O,0.350X2.000*%
%TA.AperFunction,TestPad*%
%ADD27C,0.762*%
%TA.AperFunction,SMDPad,CuDef*%
%ADD28R,0.950X0.850*%
%ADD29R,0.950X0.700*%
%ADD30R,0.610X1.118*%
%ADD31R,1.350X0.400*%
%ADD32R,1.900X1.900*%
%ADD33R,1.900X1.800*%
%ADD34R,2.600X1.900*%
%ADD35R,1.550X0.600*%
%ADD36R,2.200X1.000*%
%ADD37R,2.200X3.300*%
%ADD38R,1.006X0.958*%
%ADD39R,0.750X0.850*%
%ADD40R,0.958X0.912*%
%ADD41R,1.007X0.958*%
%ADD42R,0.958X1.007*%
%ADD43R,1.200X1.400*%
%ADD44R,1.500X0.550*%
%ADD45R,0.550X1.500*%
G04:AMPARAMS|DCode=46|XSize=0.254mm|YSize=0.889mm|CornerRadius=0.095mm|HoleSize=0mm|Usage=FLASHONLY|Rotation=90.000|XOffset=0mm|YOffset=0mm|HoleType=Round|Shape=RoundedRectangle|*
%AMROUNDEDRECTD46*
21,1,0.254,0.699,0,0,90.0*
21,1,0.064,0.889,0,0,90.0*
1,1,0.191,0.349,0.032*
1,1,0.191,0.349,-0.032*
1,1,0.191,-0.349,-0.032*
1,1,0.191,-0.349,0.032*
%
%ADD46ROUNDEDRECTD46*%
G04:AMPARAMS|DCode=47|XSize=0.254mm|YSize=0.889mm|CornerRadius=0.095mm|HoleSize=0mm|Usage=FLASHONLY|Rotation=0.000|XOffset=0mm|YOffset=0mm|HoleType=Round|Shape=RoundedRectangle|*
%AMROUNDEDRECTD47*
21,1,0.254,0.699,0,0,0.0*
21,1,0.064,0.889,0,0,0.0*
1,1,0.191,0.032,-0.349*
1,1,0.191,-0.032,-0.349*
1,1,0.191,-0.032,0.349*
1,1,0.191,0.032,0.349*
%
%ADD47ROUNDEDRECTD47*%
%ADD48R,4.089X4.089*%
G04:AMPARAMS|DCode=49|XSize=0.192mm|YSize=0.96mm|CornerRadius=0.096mm|HoleSize=0mm|Usage=FLASHONLY|Rotation=90.000|XOffset=0mm|YOffset=0mm|HoleType=Round|Shape=RoundedRectangle|*
%AMROUNDEDRECTD49*
21,1,0.192,0.768,0,0,90.0*
21,1,0.000,0.960,0,0,90.0*
1,1,0.192,0.384,0.000*
1,1,0.192,0.384,0.000*
1,1,0.192,-0.384,0.000*
1,1,0.192,-0.384,0.000*
%
%ADD49ROUNDEDRECTD49*%
G04:AMPARAMS|DCode=50|XSize=0.192mm|YSize=0.961mm|CornerRadius=0.096mm|HoleSize=0mm|Usage=FLASHONLY|Rotation=90.000|XOffset=0mm|YOffset=0mm|HoleType=Round|Shape=RoundedRectangle|*
%AMROUNDEDRECTD50*
21,1,0.192,0.769,0,0,90.0*
21,1,0.000,0.961,0,0,90.0*
1,1,0.192,0.384,0.000*
1,1,0.192,0.384,0.000*
1,1,0.192,-0.384,0.000*
1,1,0.192,-0.384,0.000*
%
%ADD50ROUNDEDRECTD50*%
G04:AMPARAMS|DCode=51|XSize=0.961mm|YSize=0.192mm|CornerRadius=0.096mm|HoleSize=0mm|Usage=FLASHONLY|Rotation=90.000|XOffset=0mm|YOffset=0mm|HoleType=Round|Shape=RoundedRectangle|*
%AMROUNDEDRECTD51*
21,1,0.961,0.000,0,0,90.0*
21,1,0.769,0.192,0,0,90.0*
1,1,0.192,0.000,0.384*
1,1,0.192,0.000,-0.384*
1,1,0.192,0.000,-0.384*
1,1,0.192,0.000,0.384*
%
%ADD51ROUNDEDRECTD51*%
%ADD52C,0.173*%
%ADD53R,5.100X9.100*%
%ADD54R,0.950X0.950*%
%ADD55R,1.306X1.058*%
%ADD56R,0.912X1.058*%
%ADD57R,1.550X1.500*%
%ADD58R,1.500X1.550*%
%ADD59R,1.050X1.100*%
%ADD60R,1.058X1.012*%
%ADD61R,1.058X0.912*%
%ADD62R,1.100X1.300*%
%ADD63R,2.955X3.506*%
%ADD64R,0.660X0.381*%
%ADD65R,2.804X1.653*%
G04:AMPARAMS|DCode=66|XSize=1.754mm|YSize=0.476mm|CornerRadius=0.238mm|HoleSize=0mm|Usage=FLASHONLY|Rotation=180.000|XOffset=0mm|YOffset=0mm|HoleType=Round|Shape=RoundedRectangle|*
%AMROUNDEDRECTD66*
21,1,1.754,0.000,0,0,180.0*
21,1,1.278,0.476,0,0,180.0*
1,1,0.476,-0.639,0.000*
1,1,0.476,0.639,0.000*
1,1,0.476,0.639,0.000*
1,1,0.476,-0.639,0.000*
%
%ADD66ROUNDEDRECTD66*%
%ADD67R,1.754X0.476*%
%TA.AperFunction,Conductor*%
%ADD68C,0.180*%
%ADD69C,0.500*%
%ADD70C,0.127*%
%TA.AperFunction,ComponentPad*%
%ADD71R,6.800X6.800*%
%ADD72R,1.500X1.500*%
%ADD73C,1.500*%
%ADD74C,1.575*%
%ADD75R,1.575X1.575*%
G04:AMPARAMS|DCode=76|XSize=5mm|YSize=5mm|CornerRadius=1.25mm|HoleSize=0mm|Usage=FLASHONLY|Rotation=270.000|XOffset=0mm|YOffset=0mm|HoleType=Round|Shape=RoundedRectangle|*
%AMROUNDEDRECTD76*
21,1,5.000,2.500,0,0,270.0*
21,1,2.500,5.000,0,0,270.0*
1,1,2.500,-1.250,-1.250*
1,1,2.500,-1.250,1.250*
1,1,2.500,1.250,1.250*
1,1,2.500,1.250,-1.250*
%
%ADD76ROUNDEDRECTD76*%
%ADD77R,1.575X1.575*%
%ADD78C,0.500*%
%TA.AperFunction,ViaPad*%
%ADD79C,0.450*%
%ADD80C,0.800*%
%ADD81C,4.000*%
G36*
X100000Y0D02*
X0D01*
Y48000D01*
X100000D01*
Y0D01*
D02*
G37*
%LPC*%
G36*
X49350Y45950D02*
X47450D01*
Y44050D01*
X49350D01*
Y45950D01*
D02*
G37*
G36*
X44230Y45888D02*
X43970D01*
X43719Y45820D01*
X43494Y45690D01*
X43310Y45506D01*
X43180Y45281D01*
X43112Y45030D01*
Y44770D01*
X43180Y44519D01*
X43310Y44294D01*
X43494Y44110D01*
X43719Y43980D01*
X43970Y43912D01*
X44230D01*
X44481Y43980D01*
X44706Y44110D01*
X44890Y44294D01*
X45020Y44519D01*
X45088Y44770D01*
Y45030D01*
X45020Y45281D01*
X44890Y45506D01*
X44706Y45690D01*
X44481Y45820D01*
X44230Y45888D01*
D02*
G37*
G36*
X29730D02*
X29470D01*
X29219Y45820D01*
X28994Y45690D01*
X28810Y45506D01*
X28680Y45281D01*
X28612Y45030D01*
Y44770D01*
X28680Y44519D01*
X28810Y44294D01*
X28994Y44110D01*
X29219Y43980D01*
X29470Y43912D01*
X29730D01*
X29981Y43980D01*
X30206Y44110D01*
X30390Y44294D01*
X30520Y44519D01*
X30587Y44770D01*
Y45030D01*
X30520Y45281D01*
X30390Y45506D01*
X30206Y45690D01*
X29981Y45820D01*
X29730Y45888D01*
D02*
G37*
G36*
X13385Y45750D02*
X13135D01*
X12893Y45685D01*
X12677Y45560D01*
X12500Y45383D01*
X12375Y45167D01*
X12310Y44925D01*
Y44675D01*
X12375Y44433D01*
X12500Y44217D01*
X12677Y44040D01*
X12893Y43915D01*
X13135Y43850D01*
X13385D01*
X13627Y43915D01*
X13843Y44040D01*
X14020Y44217D01*
X14145Y44433D01*
X14210Y44675D01*
Y44925D01*
X14145Y45167D01*
X14020Y45383D01*
X13843Y45560D01*
X13627Y45685D01*
X13385Y45750D01*
D02*
G37*
G36*
X11670D02*
X9770D01*
Y43850D01*
X11670D01*
Y45750D01*
D02*
G37*
G36*
X56886Y43954D02*
X56714D01*
X56548Y43909D01*
X56398Y43823D01*
X56350Y43775D01*
X56302Y43823D01*
X56152Y43909D01*
X55986Y43954D01*
X55814D01*
X55648Y43909D01*
X55498Y43823D01*
X55377Y43702D01*
X55291Y43552D01*
X55246Y43386D01*
Y43384D01*
X47500D01*
X47500Y43384D01*
X47353Y43355D01*
X47228Y43272D01*
X47228Y43272D01*
X43680Y39724D01*
X43597Y39599D01*
X43568Y39452D01*
X43568Y39452D01*
Y36821D01*
X43552Y36816D01*
X43425Y36911D01*
Y36985D01*
X43360Y37141D01*
X43241Y37260D01*
X43195Y37279D01*
X43179Y37400D01*
X43179Y37400D01*
Y38554D01*
X42798D01*
Y39075D01*
X43429D01*
Y40229D01*
X42125D01*
Y39075D01*
X42356D01*
Y38554D01*
X42175D01*
Y38554D01*
X42052Y38564D01*
Y38627D01*
X41577D01*
Y37977D01*
X41477D01*
Y37877D01*
X40902D01*
Y37355D01*
X40287D01*
X40189Y37396D01*
X40179Y37477D01*
Y38554D01*
X39798D01*
Y39075D01*
X40429D01*
Y40229D01*
X39125D01*
Y39075D01*
X39356D01*
Y38554D01*
X39179D01*
X39175Y38554D01*
X39052Y38564D01*
Y38627D01*
X38577D01*
Y37977D01*
Y37327D01*
X39044D01*
X39052Y37327D01*
X39171Y37307D01*
Y36297D01*
X38305Y35431D01*
X38288Y35423D01*
X38240Y35454D01*
X38229Y35481D01*
X38218Y35613D01*
X38262Y35679D01*
X38287Y35802D01*
X38262Y35925D01*
X38205Y36010D01*
X38227Y36084D01*
X38260Y36137D01*
X38281D01*
Y36767D01*
X37498D01*
Y37302D01*
X37481Y37387D01*
X37433Y37459D01*
X37179Y37713D01*
Y38554D01*
X36798D01*
Y39050D01*
X37429D01*
Y40204D01*
X36125D01*
Y39050D01*
X36356D01*
Y38554D01*
X36179D01*
X36175Y38554D01*
X36052Y38564D01*
Y38627D01*
X35577D01*
Y37977D01*
X35377D01*
Y38627D01*
X34902D01*
Y37941D01*
X34775Y37866D01*
X34681Y37905D01*
X34512D01*
X34356Y37840D01*
X34236Y37720D01*
X34219Y37679D01*
X34095Y37654D01*
X33496Y38252D01*
Y39080D01*
X33502Y39084D01*
X33572Y39188D01*
X33596Y39311D01*
Y40490D01*
X33572Y40612D01*
X33502Y40717D01*
X33398Y40786D01*
X33275Y40811D01*
X33152Y40786D01*
X33048Y40717D01*
X32920Y40750D01*
X32884Y40779D01*
Y41116D01*
X32941Y41140D01*
X33060Y41259D01*
X33125Y41415D01*
Y41585D01*
X33060Y41741D01*
X32941Y41860D01*
X32785Y41925D01*
X32615D01*
X32459Y41860D01*
X32340Y41741D01*
X32275Y41585D01*
Y41415D01*
X32340Y41259D01*
X32441Y41158D01*
Y40746D01*
X32398Y40717D01*
X32376Y40684D01*
X32224D01*
X32202Y40717D01*
X32098Y40786D01*
X31975Y40811D01*
X31852Y40786D01*
X31748Y40717D01*
X31616Y40728D01*
X31546Y40800D01*
Y41045D01*
X31560Y41059D01*
X31625Y41215D01*
Y41385D01*
X31560Y41541D01*
X31441Y41660D01*
X31285Y41725D01*
X31115D01*
X30959Y41660D01*
X30840Y41541D01*
X30775Y41385D01*
Y41215D01*
X30840Y41059D01*
X30959Y40940D01*
X31104Y40880D01*
Y40720D01*
X31098Y40717D01*
X31028Y40612D01*
X31004Y40490D01*
Y39356D01*
X30894Y39246D01*
X30302D01*
Y39577D01*
X29098D01*
Y38475D01*
X29098Y38473D01*
X29093Y38348D01*
X28559D01*
Y38733D01*
X28098D01*
Y39075D01*
X28479D01*
Y40279D01*
X27275D01*
Y39075D01*
X27656D01*
Y38733D01*
X27307D01*
X27298Y38733D01*
X27180Y38754D01*
Y38806D01*
X26577D01*
Y38127D01*
Y37448D01*
X27180D01*
Y37500D01*
X27298Y37521D01*
X27307Y37521D01*
X28559D01*
Y37906D01*
X31521D01*
X31902Y37525D01*
X31860Y37387D01*
X31852Y37385D01*
X31767Y37328D01*
X31693Y37350D01*
X31640Y37383D01*
Y37404D01*
X31010D01*
Y36721D01*
X26546D01*
X25936Y37331D01*
X25985Y37448D01*
X26377D01*
Y38027D01*
X25774D01*
Y37659D01*
X25656Y37610D01*
X25433Y37834D01*
Y38733D01*
X25024D01*
Y39075D01*
X25479D01*
Y40279D01*
X24275D01*
Y39075D01*
X24582D01*
Y38733D01*
X24173D01*
Y38733D01*
X24054Y38754D01*
Y38806D01*
X23451D01*
Y38127D01*
X23351D01*
Y38027D01*
X22648D01*
Y37673D01*
X22521Y37620D01*
X22307Y37834D01*
Y38733D01*
X21898D01*
Y39075D01*
X22479D01*
Y40279D01*
X21275D01*
Y39075D01*
X21456D01*
Y38733D01*
X21056D01*
X21047Y38733D01*
X20929Y38754D01*
Y38806D01*
X20325D01*
Y38127D01*
Y37448D01*
X20929D01*
Y37500D01*
X21047Y37521D01*
X21056Y37521D01*
X21994D01*
X22314Y37201D01*
X22386Y37153D01*
X22470Y37137D01*
X24450D01*
X24584Y37003D01*
X24579Y36991D01*
Y36822D01*
X24644Y36665D01*
X24763Y36546D01*
X24920Y36481D01*
X25089D01*
X25245Y36546D01*
X25364Y36665D01*
X25429Y36822D01*
Y36991D01*
X25399Y37062D01*
X25507Y37134D01*
X26298Y36343D01*
X26370Y36295D01*
X26454Y36278D01*
X31010D01*
Y35596D01*
X31640D01*
Y35616D01*
X31693Y35649D01*
X31767Y35671D01*
X31852Y35614D01*
X31953Y35594D01*
X32986Y34560D01*
X33058Y34512D01*
X33085Y34507D01*
X33449Y34142D01*
X33395Y34017D01*
X33259Y33960D01*
X33140Y33841D01*
X33075Y33685D01*
Y33515D01*
X33121Y33405D01*
X33075Y33285D01*
X33056Y33263D01*
X33051Y33262D01*
X32817Y33496D01*
X32825Y33515D01*
Y33685D01*
X32760Y33841D01*
X32641Y33960D01*
X32485Y34025D01*
X32315D01*
X32159Y33960D01*
X32040Y33841D01*
X31975Y33685D01*
Y33515D01*
X32040Y33359D01*
X32159Y33240D01*
X32315Y33175D01*
X32485D01*
X32504Y33183D01*
X32896Y32792D01*
X32967Y32744D01*
X33052Y32727D01*
X40629D01*
X40681Y32600D01*
X40646Y32565D01*
X40569Y32378D01*
Y32176D01*
X40608Y32082D01*
X39540Y31014D01*
X39498Y30951D01*
X39483Y30877D01*
Y27010D01*
X39372Y26962D01*
X39279Y27037D01*
Y28304D01*
X37925D01*
Y26750D01*
X38011D01*
X38015Y26625D01*
X37859Y26560D01*
X37740Y26441D01*
X37732Y26421D01*
X37304D01*
Y26479D01*
X36200D01*
Y25723D01*
X36154Y25695D01*
X36027Y25767D01*
Y25777D01*
X35402D01*
X34777D01*
Y25202D01*
X34883Y25187D01*
Y24848D01*
X34560D01*
Y25252D01*
X34633D01*
Y25881D01*
X33977D01*
X33321D01*
Y25252D01*
X33394D01*
Y23971D01*
X34247D01*
X34275Y23943D01*
Y23926D01*
X34340Y23770D01*
X34459Y23650D01*
X34615Y23586D01*
X34785D01*
X34941Y23650D01*
X35036Y23746D01*
X35149Y23716D01*
X35163Y23707D01*
Y23315D01*
X35180Y23231D01*
X35228Y23159D01*
X35545Y22842D01*
X35496Y22725D01*
X35375D01*
Y22050D01*
X35275D01*
Y21950D01*
X34650D01*
Y21375D01*
X34625Y21325D01*
X34625D01*
Y20750D01*
X35250D01*
Y20550D01*
X34625D01*
Y20443D01*
X34508Y20394D01*
X34288Y20614D01*
Y21160D01*
X34288Y21160D01*
X34273Y21235D01*
X34231Y21298D01*
X33746Y21782D01*
X33785Y21876D01*
Y22078D01*
X33708Y22265D01*
X33565Y22408D01*
X33378Y22485D01*
X33176D01*
X32989Y22408D01*
X32846Y22265D01*
X32769Y22078D01*
Y21876D01*
X32846Y21689D01*
X32989Y21546D01*
X33176Y21469D01*
X33378D01*
X33472Y21508D01*
X33899Y21080D01*
Y20884D01*
X33772Y20858D01*
X33708Y21015D01*
X33565Y21158D01*
X33378Y21235D01*
X33176D01*
X32989Y21158D01*
X32846Y21015D01*
X32769Y20828D01*
Y20626D01*
X32846Y20439D01*
X32989Y20296D01*
X33176Y20219D01*
X33378D01*
X33542Y20287D01*
X34133Y19696D01*
X34085Y19579D01*
X33785D01*
X33708Y19765D01*
X33565Y19908D01*
X33378Y19985D01*
X33176D01*
X32989Y19908D01*
X32846Y19765D01*
X32769Y19578D01*
Y19376D01*
X32846Y19189D01*
X32989Y19046D01*
X33176Y18969D01*
X33378D01*
X33565Y19046D01*
X33682Y19164D01*
X33751Y19156D01*
X33795Y19062D01*
X33796Y19021D01*
X33472Y18696D01*
X33378Y18735D01*
X33176D01*
X32989Y18658D01*
X32846Y18515D01*
X32769Y18328D01*
Y18126D01*
X32846Y17939D01*
X32989Y17796D01*
X33176Y17719D01*
X33378D01*
X33542Y17787D01*
X33633Y17756D01*
X33678Y17730D01*
X33687Y17662D01*
X33472Y17446D01*
X33378Y17485D01*
X33176D01*
X32989Y17408D01*
X32846Y17265D01*
X32769Y17078D01*
Y16876D01*
X32846Y16689D01*
X32989Y16546D01*
X33176Y16469D01*
X33378D01*
X33565Y16546D01*
X33708Y16689D01*
X33785Y16876D01*
Y17078D01*
X33746Y17172D01*
X33837Y17262D01*
X33954Y17214D01*
Y16679D01*
X33472Y16196D01*
X33378Y16235D01*
X33176D01*
X32989Y16158D01*
X32846Y16015D01*
X32769Y15828D01*
Y15626D01*
X32846Y15439D01*
X32989Y15296D01*
X33176Y15219D01*
X33378D01*
X33565Y15296D01*
X33708Y15439D01*
X33785Y15626D01*
Y15828D01*
X33746Y15922D01*
X34064Y16239D01*
X34181Y16191D01*
Y15656D01*
X33472Y14946D01*
X33378Y14985D01*
X33176D01*
X32989Y14908D01*
X32846Y14765D01*
X32769Y14578D01*
Y14376D01*
X32846Y14189D01*
X32989Y14046D01*
X33176Y13969D01*
X33378D01*
X33565Y14046D01*
X33708Y14189D01*
X33785Y14376D01*
Y14578D01*
X33746Y14672D01*
X34349Y15274D01*
X34466Y15225D01*
Y14691D01*
X33472Y13696D01*
X33378Y13735D01*
X33176D01*
X32989Y13658D01*
X32846Y13515D01*
X32769Y13328D01*
Y13126D01*
X32846Y12939D01*
X32989Y12796D01*
X33176Y12719D01*
X33378D01*
X33565Y12796D01*
X33708Y12939D01*
X33785Y13126D01*
Y13328D01*
X33746Y13422D01*
X34798Y14473D01*
X34798Y14473D01*
X34840Y14536D01*
X34854Y14610D01*
X34854Y14610D01*
Y16675D01*
X35275D01*
Y17350D01*
X35375D01*
Y17450D01*
X36000D01*
Y17894D01*
X36173D01*
Y16748D01*
X36173D01*
X36190Y16722D01*
X36175Y16685D01*
Y16515D01*
X36240Y16359D01*
X36359Y16240D01*
X36515Y16175D01*
X36685D01*
X36841Y16240D01*
X36960Y16359D01*
X37025Y16515D01*
Y16685D01*
X37067Y16748D01*
X37277D01*
Y17294D01*
X37791D01*
X37851Y17234D01*
X37863Y17217D01*
X37888Y17093D01*
X37885Y17077D01*
X38551D01*
Y16877D01*
X37885D01*
X37888Y16861D01*
X37895Y16851D01*
X37894Y16702D01*
X37870Y16677D01*
X33582Y12390D01*
X33565Y12408D01*
X33378Y12485D01*
X33176D01*
X32989Y12408D01*
X32846Y12265D01*
X32769Y12078D01*
Y11876D01*
X32846Y11689D01*
X32989Y11546D01*
X33176Y11469D01*
X33378D01*
X33565Y11546D01*
X33708Y11689D01*
X33785Y11876D01*
Y12043D01*
X34387Y12645D01*
X34505Y12597D01*
Y9866D01*
X34464Y9825D01*
X34315D01*
X34159Y9760D01*
X34040Y9641D01*
X33975Y9485D01*
Y9315D01*
X34040Y9159D01*
X34159Y9040D01*
X34315Y8975D01*
X34482D01*
X34488Y8969D01*
X34553Y8866D01*
X32304Y6616D01*
X32256Y6545D01*
X32239Y6460D01*
Y6024D01*
X32093Y5985D01*
X31877Y5860D01*
X31700Y5683D01*
X31575Y5467D01*
X31510Y5225D01*
Y4975D01*
X31575Y4733D01*
X31700Y4517D01*
X31877Y4340D01*
X32035Y4248D01*
X32001Y4121D01*
X31092D01*
X30686Y4527D01*
X30805Y4733D01*
X30870Y4975D01*
Y5225D01*
X30805Y5467D01*
X30680Y5683D01*
X30503Y5860D01*
X30287Y5985D01*
X30045Y6050D01*
X29795D01*
X29553Y5985D01*
X29337Y5860D01*
X29160Y5683D01*
X29035Y5467D01*
X28970Y5225D01*
Y4975D01*
X29035Y4733D01*
X29160Y4517D01*
X29337Y4340D01*
X29553Y4215D01*
X29795Y4150D01*
X30045D01*
X30287Y4215D01*
X30341Y4246D01*
X30844Y3744D01*
X30915Y3696D01*
X31000Y3679D01*
X33300D01*
X33385Y3696D01*
X33456Y3744D01*
X33956Y4244D01*
X34004Y4315D01*
X34021Y4400D01*
Y4641D01*
X34148Y4675D01*
X34240Y4517D01*
X34417Y4340D01*
X34633Y4215D01*
X34875Y4150D01*
X35125D01*
X35367Y4215D01*
X35583Y4340D01*
X35760Y4517D01*
X35885Y4733D01*
X35950Y4975D01*
Y5225D01*
X35885Y5467D01*
X35760Y5683D01*
X35583Y5860D01*
X35367Y5985D01*
X35125Y6050D01*
X34875D01*
X34633Y5985D01*
X34417Y5860D01*
X34240Y5683D01*
X34148Y5525D01*
X34021Y5559D01*
Y6093D01*
X36568Y8640D01*
X36616Y8712D01*
X36633Y8797D01*
Y10027D01*
X37377D01*
Y10977D01*
X37477D01*
Y11077D01*
X38452D01*
Y11927D01*
X38379D01*
Y12163D01*
X38825D01*
Y11725D01*
X39500D01*
Y11625D01*
X39600D01*
Y11000D01*
X40044D01*
Y6590D01*
X38744Y5290D01*
X38696Y5218D01*
X38679Y5133D01*
Y4334D01*
X38617Y4287D01*
X38490Y4347D01*
Y6050D01*
X36590D01*
Y4150D01*
X38357D01*
X38410Y4023D01*
X38208Y3821D01*
X36040D01*
X35955Y3804D01*
X35884Y3756D01*
X35497Y3370D01*
X35367Y3445D01*
X35125Y3510D01*
X34875D01*
X34633Y3445D01*
X34417Y3320D01*
X34240Y3143D01*
X34115Y2927D01*
X34050Y2685D01*
Y2435D01*
X34115Y2193D01*
X34240Y1977D01*
X34368Y1848D01*
X34316Y1721D01*
X33612D01*
X33270Y2063D01*
X33345Y2193D01*
X33410Y2435D01*
Y2685D01*
X33345Y2927D01*
X33220Y3143D01*
X33043Y3320D01*
X32827Y3445D01*
X32585Y3510D01*
X32335D01*
X32093Y3445D01*
X31877Y3320D01*
X31700Y3143D01*
X31575Y2927D01*
X31510Y2685D01*
Y2435D01*
X31575Y2193D01*
X31700Y1977D01*
X31877Y1800D01*
X32093Y1675D01*
X32335Y1610D01*
X32585D01*
X32827Y1675D01*
X32957Y1750D01*
X33364Y1344D01*
X33435Y1296D01*
X33520Y1279D01*
X38400D01*
X38485Y1296D01*
X38556Y1344D01*
X39956Y2744D01*
X40004Y2815D01*
X40021Y2900D01*
Y3908D01*
X40701Y4589D01*
X40749Y4660D01*
X40766Y4745D01*
Y11482D01*
X40893Y11533D01*
X41029Y11476D01*
X41199D01*
X41355Y11541D01*
X41474Y11661D01*
X41536Y11809D01*
X41544Y11821D01*
X41547Y11823D01*
X41666Y11889D01*
X41720Y11879D01*
X41995D01*
X42003Y11859D01*
X42122Y11740D01*
X42278Y11675D01*
X42448D01*
X42584Y11731D01*
X42711Y11681D01*
Y10676D01*
X42225Y10190D01*
X42177Y10118D01*
X42160Y10034D01*
Y4118D01*
X42177Y4034D01*
X42225Y3962D01*
X43090Y3097D01*
X43015Y2967D01*
X42950Y2725D01*
Y2475D01*
X43015Y2233D01*
X43140Y2017D01*
X43317Y1840D01*
X43533Y1715D01*
X43775Y1650D01*
X44025D01*
X44267Y1715D01*
X44483Y1840D01*
X44660Y2017D01*
X44785Y2233D01*
X44850Y2475D01*
Y2725D01*
X44785Y2967D01*
X44660Y3183D01*
X44483Y3360D01*
X44267Y3485D01*
X44025Y3550D01*
X43775D01*
X43533Y3485D01*
X43403Y3410D01*
X42603Y4210D01*
Y9942D01*
X43088Y10428D01*
X43112Y10463D01*
X43232Y10493D01*
X43264Y10490D01*
X43854Y9900D01*
Y6979D01*
X43871Y6894D01*
X43919Y6822D01*
X44224Y6518D01*
X44158Y6404D01*
X43985Y6450D01*
X43735D01*
X43493Y6385D01*
X43277Y6260D01*
X43100Y6083D01*
X42975Y5867D01*
X42910Y5625D01*
Y5375D01*
X42975Y5133D01*
X43100Y4917D01*
X43277Y4740D01*
X43493Y4615D01*
X43735Y4550D01*
X43985D01*
X44227Y4615D01*
X44443Y4740D01*
X44579Y4876D01*
X44706Y4823D01*
Y4765D01*
X44723Y4681D01*
X44771Y4609D01*
X45559Y3821D01*
Y3550D01*
X45490D01*
Y1650D01*
X47390D01*
Y3550D01*
X46001D01*
Y3913D01*
X45984Y3998D01*
X45936Y4070D01*
X45573Y4433D01*
X45622Y4550D01*
X47350D01*
Y5737D01*
X47818Y6206D01*
X47866Y6277D01*
X47883Y6362D01*
Y7242D01*
X47879Y7263D01*
Y8229D01*
X46675D01*
Y7025D01*
X47441D01*
Y6537D01*
X47350Y6450D01*
X45450D01*
Y4722D01*
X45333Y4673D01*
X45149Y4857D01*
Y6126D01*
X45132Y6211D01*
X45084Y6283D01*
X44297Y7070D01*
Y9992D01*
X44280Y10077D01*
X44232Y10149D01*
X43433Y10947D01*
Y12800D01*
X43463Y12816D01*
X43560Y12839D01*
X43659Y12740D01*
X43815Y12675D01*
X43985D01*
X44013Y12687D01*
X44125Y12596D01*
Y12125D01*
X44700D01*
Y12650D01*
X44328D01*
X44263Y12777D01*
X44296Y12823D01*
X45402D01*
Y13927D01*
X44636D01*
Y14055D01*
X44619Y14140D01*
X44571Y14211D01*
X44436Y14347D01*
X44477Y14485D01*
X44493Y14488D01*
X44591Y14554D01*
X44656Y14652D01*
X44679Y14767D01*
Y15051D01*
X44377D01*
Y15251D01*
X44679D01*
Y15536D01*
X44690Y15549D01*
X45305D01*
X45459Y15396D01*
X45530Y15348D01*
X45615Y15331D01*
X46275D01*
Y15000D01*
X47094D01*
X47127Y14954D01*
X47062Y14827D01*
X46977D01*
Y14302D01*
X47552D01*
Y14511D01*
X47658Y14582D01*
X47666Y14578D01*
X47835D01*
X47869Y14592D01*
X47975Y14522D01*
Y14400D01*
X48700D01*
Y14300D01*
X48800D01*
Y13650D01*
X48986D01*
X49076Y13523D01*
X49073Y13509D01*
Y12711D01*
X47541Y11179D01*
X46750D01*
Y9975D01*
X47081D01*
Y9729D01*
X46675D01*
Y8525D01*
X47879D01*
Y8906D01*
X48175D01*
Y8525D01*
X49379D01*
Y9729D01*
X48175D01*
Y9348D01*
X47879D01*
Y9729D01*
X47523D01*
Y9975D01*
X47854D01*
Y10812D01*
X47900Y10846D01*
X48027Y10783D01*
Y10677D01*
X48552D01*
Y11252D01*
X48406D01*
X48357Y11369D01*
X49451Y12463D01*
X49499Y12535D01*
X49516Y12620D01*
Y12789D01*
X49643Y12857D01*
X49679Y12833D01*
Y11800D01*
X49695Y11715D01*
X49743Y11644D01*
X51583Y9804D01*
X51575Y9785D01*
Y9615D01*
X51640Y9459D01*
X51759Y9340D01*
X51915Y9275D01*
X52085D01*
X52241Y9340D01*
X52360Y9459D01*
X52425Y9615D01*
Y9785D01*
X52360Y9941D01*
X52241Y10060D01*
X52085Y10125D01*
X51915D01*
X51896Y10117D01*
X50121Y11892D01*
Y12939D01*
X50136Y12945D01*
X50255Y13064D01*
X50312Y13200D01*
X50437Y13254D01*
X50779Y12913D01*
Y11900D01*
X50796Y11815D01*
X50844Y11744D01*
X53744Y8844D01*
X53815Y8796D01*
X53900Y8779D01*
X57232D01*
X57240Y8759D01*
X57359Y8640D01*
X57379Y8632D01*
Y7023D01*
X57396Y6938D01*
X57444Y6866D01*
X62935Y1375D01*
X63007Y1327D01*
X63092Y1310D01*
X82236D01*
X82320Y1327D01*
X82392Y1375D01*
X85448Y4431D01*
X85496Y4503D01*
X85513Y4587D01*
Y6487D01*
X85496Y6572D01*
X85448Y6643D01*
X85129Y6963D01*
Y7754D01*
X83925D01*
Y7396D01*
X83697D01*
X83592Y7499D01*
X83585Y7518D01*
X83560Y7644D01*
X83480Y7765D01*
X83359Y7846D01*
X83217Y7874D01*
X81938D01*
X81796Y7846D01*
X81675Y7765D01*
X81594Y7644D01*
X81566Y7502D01*
X81594Y7360D01*
X81662Y7259D01*
X81675Y7177D01*
X81662Y7095D01*
X81594Y6994D01*
X81566Y6852D01*
X81573Y6820D01*
X81149Y6396D01*
X79797D01*
X79752Y6523D01*
X79840Y6611D01*
X79905Y6767D01*
Y6937D01*
X79840Y7093D01*
X79720Y7212D01*
X79564Y7277D01*
X79545D01*
X79468Y7404D01*
X79488Y7502D01*
X79459Y7644D01*
X79379Y7765D01*
X79258Y7846D01*
X79116Y7874D01*
X77837D01*
X77808Y7868D01*
X77710Y7949D01*
Y8089D01*
X77711Y8090D01*
X80300D01*
X80495Y8129D01*
X80650Y8233D01*
X80681Y8212D01*
X80692Y8201D01*
X80705Y8195D01*
X80805Y8129D01*
X81000Y8090D01*
X97000D01*
X97195Y8129D01*
X97360Y8240D01*
X97960Y8840D01*
X98071Y9005D01*
X98110Y9200D01*
Y13700D01*
X98071Y13895D01*
X97960Y14060D01*
X97252Y14769D01*
X97258Y14896D01*
X97393Y15007D01*
X97612Y15273D01*
X97775Y15577D01*
X97875Y15907D01*
X97908Y16250D01*
Y18750D01*
X97875Y19093D01*
X97775Y19423D01*
X97612Y19727D01*
X97393Y19993D01*
X97177Y20171D01*
X97169Y20191D01*
Y20309D01*
X97177Y20329D01*
X97393Y20507D01*
X97612Y20773D01*
X97775Y21077D01*
X97821Y21230D01*
X97871Y21305D01*
X97910Y21500D01*
Y25900D01*
X97871Y26095D01*
X97760Y26260D01*
X97060Y26960D01*
X96895Y27071D01*
X96700Y27110D01*
X85800D01*
X85605Y27071D01*
X85440Y26960D01*
X85319Y26840D01*
X85202Y26889D01*
Y27227D01*
X84627D01*
Y26602D01*
X84527D01*
Y26502D01*
X83852D01*
Y26210D01*
X83708D01*
Y26794D01*
X83708D01*
X83661Y26852D01*
X82577D01*
Y27052D01*
X83643D01*
X83629Y27123D01*
X83532Y27268D01*
X83534Y27420D01*
X83560Y27460D01*
X83589Y27602D01*
X83582Y27634D01*
X83706Y27758D01*
X83925D01*
Y27400D01*
X85129D01*
Y28504D01*
X84721D01*
Y28832D01*
X84741Y28840D01*
X84860Y28959D01*
X84925Y29115D01*
Y29285D01*
X84860Y29441D01*
X84741Y29560D01*
X84585Y29625D01*
X84415D01*
X84259Y29560D01*
X84140Y29441D01*
X84075Y29285D01*
Y29115D01*
X84140Y28959D01*
X84259Y28840D01*
X84279Y28832D01*
Y28504D01*
X83925D01*
Y28146D01*
X83697D01*
X83592Y28249D01*
X83585Y28268D01*
X83560Y28394D01*
X83480Y28515D01*
X83359Y28596D01*
X83217Y28624D01*
X81938D01*
X81796Y28596D01*
X81675Y28515D01*
X81594Y28394D01*
X81566Y28252D01*
X81594Y28110D01*
X81662Y28009D01*
X81675Y27927D01*
X81662Y27845D01*
X81594Y27744D01*
X81566Y27602D01*
X81573Y27570D01*
X81149Y27146D01*
X79425D01*
X79379Y27215D01*
Y27339D01*
X79459Y27460D01*
X79479Y27560D01*
X79491Y27568D01*
X80656Y28733D01*
X80704Y28805D01*
X80721Y28890D01*
Y29032D01*
X80741Y29040D01*
X80860Y29159D01*
X80925Y29315D01*
Y29350D01*
X82105D01*
X82202Y29277D01*
X82276Y29277D01*
X82827D01*
Y30027D01*
Y30777D01*
X82276D01*
X82202Y30777D01*
X82105Y30704D01*
X82075D01*
X80875D01*
Y30248D01*
X80079D01*
Y30679D01*
X79983D01*
X79912Y30785D01*
X79925Y30815D01*
Y30985D01*
X79860Y31141D01*
X79741Y31260D01*
X79585Y31325D01*
X79415D01*
X79259Y31260D01*
X79140Y31141D01*
X79075Y30985D01*
Y30815D01*
X79088Y30785D01*
X79017Y30679D01*
X78925D01*
Y29375D01*
X80075D01*
Y29315D01*
X80140Y29159D01*
X80216Y29083D01*
X80224Y28939D01*
X80217Y28920D01*
X79606Y28309D01*
X79468Y28350D01*
X79459Y28394D01*
X79379Y28515D01*
X79258Y28596D01*
X79116Y28624D01*
X78698D01*
Y29527D01*
X78681Y29612D01*
X78633Y29684D01*
X78629Y29688D01*
Y30679D01*
X77475D01*
Y29375D01*
X78255D01*
Y28624D01*
X77837D01*
X77695Y28596D01*
X77574Y28515D01*
X77494Y28394D01*
X77465Y28252D01*
X77492Y28119D01*
X77471Y28093D01*
X77392Y28032D01*
X77357Y28056D01*
X77272Y28073D01*
X77129D01*
Y28404D01*
X76044D01*
X75980Y28531D01*
X76015Y28577D01*
X76427D01*
Y29202D01*
Y29827D01*
X75852D01*
Y29246D01*
X75725Y29196D01*
X75560Y29360D01*
X75395Y29471D01*
X75200Y29510D01*
X70367D01*
X70172Y29471D01*
X70006Y29360D01*
X69896Y29195D01*
X69857Y29000D01*
Y28522D01*
Y26032D01*
Y25833D01*
X69896Y25638D01*
X70006Y25473D01*
X70052Y25427D01*
X70003Y25310D01*
X68610D01*
X68557Y25437D01*
X69105Y25985D01*
X69706D01*
Y26619D01*
X68792D01*
Y26297D01*
X68202Y25707D01*
X65096D01*
X64620Y26183D01*
X64548Y26231D01*
X64464Y26248D01*
X63883D01*
Y26635D01*
X62673D01*
Y25419D01*
X63883D01*
Y25806D01*
X64372D01*
X64814Y25363D01*
X64819Y25243D01*
X64806Y25205D01*
X64740Y25160D01*
X64077Y24498D01*
X63882D01*
Y24885D01*
X62672D01*
Y23669D01*
X63137D01*
X63218Y23542D01*
X63190Y23400D01*
X63190Y22500D01*
X63229Y22305D01*
X63340Y22140D01*
X63435Y22044D01*
X63387Y21926D01*
X63070D01*
X61444Y23552D01*
X61493Y23669D01*
X62381D01*
Y24885D01*
X61408D01*
X61387Y24889D01*
X60924D01*
X60521Y25292D01*
Y30100D01*
X60504Y30185D01*
X60456Y30256D01*
X59856Y30856D01*
X59785Y30904D01*
X59700Y30921D01*
X58944D01*
X57917Y31948D01*
X57969Y32075D01*
X58084D01*
X58241Y32140D01*
X58360Y32259D01*
X58425Y32415D01*
Y32496D01*
X58552Y32548D01*
X59056Y32044D01*
X59128Y31996D01*
X59213Y31979D01*
X60232D01*
X60240Y31959D01*
X60359Y31840D01*
X60515Y31775D01*
X60685D01*
X60841Y31840D01*
X60960Y31959D01*
X61025Y32115D01*
Y32132D01*
X61152Y32184D01*
X61555Y31781D01*
Y26635D01*
X61171D01*
Y25419D01*
X62381D01*
Y26635D01*
X61997D01*
Y31873D01*
X61981Y31958D01*
X61933Y32029D01*
X60756Y33206D01*
X60685Y33254D01*
X60600Y33270D01*
X58851D01*
X58402Y33720D01*
X58377Y33736D01*
X58364Y33750D01*
X58412Y33867D01*
X59374Y33867D01*
X59471Y33794D01*
X59498Y33794D01*
X60100D01*
Y34500D01*
Y35206D01*
X59471Y35206D01*
X59374Y35133D01*
X59344Y35133D01*
X58372D01*
X58323Y35250D01*
X58490Y35417D01*
X58523Y35467D01*
X59402Y35467D01*
X59498Y35394D01*
X59525Y35394D01*
X60127D01*
Y36100D01*
Y36806D01*
X59498Y36806D01*
X59402Y36733D01*
X59371Y36733D01*
X58117D01*
Y35705D01*
X58113Y35684D01*
Y35666D01*
X57798Y35351D01*
X57726Y35359D01*
X57708Y35371D01*
X57632Y35486D01*
X57644Y35545D01*
Y35609D01*
X57621Y35724D01*
X57559Y35827D01*
X57621Y35930D01*
X57644Y36045D01*
Y36109D01*
X57621Y36224D01*
X57555Y36322D01*
X57552Y36458D01*
X57569Y36545D01*
Y36609D01*
X57552Y36695D01*
X57503Y36769D01*
X57484Y36782D01*
Y37116D01*
X57541Y37140D01*
X57660Y37259D01*
X57725Y37415D01*
Y37585D01*
X57660Y37741D01*
X57541Y37860D01*
X57385Y37925D01*
X57215D01*
X57059Y37860D01*
X56940Y37741D01*
X56881Y37600D01*
X56335D01*
Y37843D01*
X56389Y37952D01*
X56545Y38017D01*
X56665Y38136D01*
X56729Y38292D01*
Y38462D01*
X56665Y38618D01*
X56545Y38737D01*
X56389Y38802D01*
X56220D01*
X56147Y38772D01*
X55999Y38831D01*
X55991Y38855D01*
X55996Y38895D01*
X56037Y38936D01*
X56102Y39092D01*
Y39261D01*
X56037Y39418D01*
X55918Y39537D01*
X55761Y39602D01*
X55592D01*
X55436Y39537D01*
X55317Y39418D01*
X55252Y39261D01*
Y39092D01*
X55281Y39023D01*
X55196Y38896D01*
X55135D01*
X55029Y38852D01*
X54978Y38898D01*
X54945Y38954D01*
X55002Y39092D01*
Y39262D01*
X54937Y39418D01*
X54818Y39537D01*
X54662Y39602D01*
X54492D01*
X54336Y39537D01*
X54225Y39426D01*
X54185Y39430D01*
X54098Y39464D01*
Y39875D01*
X54204D01*
Y41079D01*
X53100D01*
Y39875D01*
X53192D01*
X53240Y39759D01*
X53359Y39640D01*
X53515Y39575D01*
X53656D01*
Y39331D01*
X53585Y39277D01*
X53452Y39318D01*
X53411Y39418D01*
X53291Y39537D01*
X53135Y39602D01*
X52966D01*
X52810Y39537D01*
X52690Y39418D01*
X52626Y39262D01*
X52502D01*
X52437Y39418D01*
X52318Y39537D01*
X52162Y39602D01*
X51992D01*
X51836Y39537D01*
X51717Y39418D01*
X51652Y39262D01*
Y39148D01*
X51575Y39064D01*
X51535Y39049D01*
X51392D01*
X51236Y38984D01*
X51117Y38864D01*
X51052Y38708D01*
Y38539D01*
X51117Y38383D01*
X51226Y38274D01*
X51234Y38248D01*
X51228Y38236D01*
X51109Y38144D01*
X51045D01*
X50930Y38121D01*
X50832Y38055D01*
X50767Y37958D01*
X50744Y37843D01*
Y37600D01*
X50100D01*
Y36835D01*
X49898D01*
X49498Y37235D01*
Y38675D01*
X49929D01*
Y39829D01*
X48625D01*
Y38675D01*
X49056D01*
Y37143D01*
X49073Y37059D01*
X49121Y36987D01*
X49156Y36951D01*
X49103Y36825D01*
X48985D01*
X48879Y36781D01*
X48752Y36849D01*
Y37152D01*
X47877D01*
Y36577D01*
X48583D01*
X48645Y36485D01*
Y36315D01*
X48691Y36204D01*
X48633Y36092D01*
X48616Y36077D01*
X48168D01*
X48160Y36097D01*
X48041Y36216D01*
X47885Y36281D01*
X47715D01*
X47559Y36216D01*
X47440Y36097D01*
X47375Y35941D01*
Y35771D01*
X47389Y35737D01*
X47319Y35631D01*
X46748D01*
Y35286D01*
X46206D01*
Y35631D01*
X44692D01*
X44336Y35986D01*
Y36577D01*
X45077D01*
Y37252D01*
Y37927D01*
X44336D01*
Y39293D01*
X47659Y42616D01*
X55900D01*
X55950Y42626D01*
X56000Y42616D01*
X56419D01*
X56419Y42616D01*
X56566Y42645D01*
X56609Y42674D01*
X56714Y42646D01*
X56886D01*
X57052Y42691D01*
X57202Y42777D01*
X57323Y42898D01*
X57409Y43048D01*
X57454Y43214D01*
Y43386D01*
X57409Y43552D01*
X57323Y43702D01*
X57202Y43823D01*
X57052Y43909D01*
X56886Y43954D01*
D02*
G37*
G36*
X9175Y43300D02*
X8600D01*
Y42775D01*
X9175D01*
Y43300D01*
D02*
G37*
G36*
X8400D02*
X7825D01*
Y42775D01*
X8400D01*
Y43300D01*
D02*
G37*
G36*
X9175Y42575D02*
X8600D01*
Y42050D01*
X9175D01*
Y42575D01*
D02*
G37*
G36*
X8400D02*
X7825D01*
Y42050D01*
X8400D01*
Y42575D01*
D02*
G37*
G36*
X16852Y42082D02*
X15048D01*
Y41821D01*
X14868D01*
X14860Y41841D01*
X14741Y41960D01*
X14585Y42025D01*
X14415D01*
X14259Y41960D01*
X14140Y41841D01*
X14075Y41685D01*
Y41515D01*
X14140Y41359D01*
X14259Y41240D01*
X14415Y41175D01*
X14585D01*
X14741Y41240D01*
X14845Y41344D01*
X14975Y41352D01*
X14986Y41351D01*
X15019Y41318D01*
X15033Y41252D01*
X14970Y41179D01*
X14947Y41164D01*
X14898Y41131D01*
X14729Y40962D01*
X14681Y40890D01*
X14664Y40805D01*
Y37950D01*
X14681Y37866D01*
X14729Y37794D01*
X14834Y37689D01*
X14906Y37641D01*
X14990Y37624D01*
X15048D01*
Y37418D01*
X16852D01*
Y37433D01*
X16875Y37550D01*
X17450D01*
Y38175D01*
X17650D01*
Y37550D01*
X18094D01*
Y36702D01*
X16913Y35521D01*
X12477D01*
Y35927D01*
X10023D01*
Y35087D01*
X10020Y35073D01*
X9783Y34836D01*
X9656Y34888D01*
Y35377D01*
X9100D01*
Y34798D01*
X9450D01*
X9518Y34671D01*
X9495Y34636D01*
X9206D01*
X9206Y34636D01*
X9169Y34629D01*
X8417D01*
Y34178D01*
X7594D01*
X7594Y34178D01*
X7447Y34149D01*
X7322Y34066D01*
X7322Y34066D01*
X6478Y33221D01*
X6230Y33288D01*
X5970D01*
X5719Y33220D01*
X5494Y33090D01*
X5310Y32906D01*
X5180Y32681D01*
X5113Y32430D01*
Y32170D01*
X5180Y31919D01*
X5310Y31694D01*
X5494Y31510D01*
X5719Y31380D01*
X5970Y31313D01*
X6230D01*
X6481Y31380D01*
X6706Y31510D01*
X6890Y31694D01*
X7020Y31919D01*
X7088Y32170D01*
Y32430D01*
X7021Y32678D01*
X7753Y33410D01*
X8794D01*
X8794Y33410D01*
X8831Y33417D01*
X9583D01*
Y33868D01*
X9743D01*
X9743Y33868D01*
X9890Y33897D01*
X10015Y33980D01*
X10672Y34637D01*
X10672Y34637D01*
X10696Y34673D01*
X12477D01*
Y35079D01*
X17005D01*
X17089Y35096D01*
X17161Y35144D01*
X18471Y36454D01*
X18519Y36526D01*
X18536Y36610D01*
Y39356D01*
X18663Y39409D01*
X19211Y38861D01*
Y37528D01*
X19228Y37443D01*
X19276Y37371D01*
X21368Y35279D01*
X21320Y35161D01*
X20652D01*
X19517Y36296D01*
X19525Y36315D01*
Y36485D01*
X19460Y36641D01*
X19341Y36760D01*
X19185Y36825D01*
X19015D01*
X18859Y36760D01*
X18740Y36641D01*
X18675Y36485D01*
Y36315D01*
X18740Y36159D01*
X18859Y36040D01*
X19015Y35975D01*
X19185D01*
X19204Y35983D01*
X20404Y34784D01*
X20475Y34736D01*
X20560Y34719D01*
X21532D01*
X21587Y34664D01*
X21659Y34616D01*
X21744Y34599D01*
X24881D01*
X24919Y34472D01*
X24880Y34445D01*
X24797Y34321D01*
X24768Y34175D01*
Y33450D01*
X25150D01*
Y33250D01*
X24768D01*
Y32525D01*
X24797Y32379D01*
X24880Y32255D01*
X24979Y32188D01*
X25019Y32049D01*
X24815Y31845D01*
X24456D01*
Y32246D01*
X24456Y32254D01*
X24477Y32373D01*
X24529D01*
Y32976D01*
X23850D01*
X23171D01*
Y32373D01*
X23223D01*
X23244Y32254D01*
X23244Y32246D01*
Y31845D01*
X22367D01*
X22277Y31936D01*
Y33777D01*
X19423D01*
Y31623D01*
X21964D01*
X22119Y31468D01*
X22191Y31420D01*
X22276Y31403D01*
X23244D01*
Y30994D01*
X24456D01*
Y31403D01*
X24907D01*
X24991Y31420D01*
X25063Y31468D01*
X25816Y32220D01*
X25918Y32241D01*
X26018Y32307D01*
X26018Y32308D01*
X26165Y32317D01*
X26229Y32250D01*
Y31842D01*
X25358Y30971D01*
X25224D01*
X25139Y30954D01*
X25068Y30906D01*
X24267Y30106D01*
X23344D01*
Y29571D01*
X22150D01*
X22065Y29554D01*
X21994Y29506D01*
X21964Y29477D01*
X19423D01*
Y27323D01*
X22277D01*
Y29129D01*
X23344D01*
Y28854D01*
X23344Y28846D01*
X23323Y28727D01*
X23271D01*
Y28124D01*
X23950D01*
X24629D01*
Y28727D01*
X24577D01*
X24556Y28846D01*
X24556Y28854D01*
Y29769D01*
X25316Y30529D01*
X25450D01*
X25535Y30546D01*
X25606Y30594D01*
X26606Y31594D01*
X26654Y31665D01*
X26671Y31750D01*
Y32313D01*
X26704Y32362D01*
X26706Y32363D01*
X26844D01*
X26846Y32362D01*
X26882Y32307D01*
X26982Y32241D01*
X27100Y32217D01*
X27218Y32241D01*
X27318Y32307D01*
X27354Y32362D01*
X27356Y32363D01*
X27494D01*
X27496Y32362D01*
X27532Y32307D01*
X27632Y32241D01*
X27750Y32217D01*
X27868Y32241D01*
X27968Y32307D01*
X28004Y32362D01*
X28006Y32363D01*
X28144D01*
X28146Y32362D01*
X28182Y32307D01*
X28282Y32241D01*
X28400Y32217D01*
X28518Y32241D01*
X28618Y32307D01*
X28654Y32362D01*
X28656Y32363D01*
X28794D01*
X28796Y32362D01*
X28832Y32307D01*
X28932Y32241D01*
X29050Y32217D01*
X29168Y32241D01*
X29268Y32307D01*
X29304Y32362D01*
X29306Y32363D01*
X29444D01*
X29446Y32362D01*
X29482Y32307D01*
X29582Y32241D01*
X29700Y32217D01*
X29818Y32241D01*
X29918Y32307D01*
X29954Y32362D01*
X29956Y32363D01*
X30094D01*
X30096Y32362D01*
X30132Y32307D01*
X30232Y32241D01*
X30350Y32217D01*
X30468Y32241D01*
X30568Y32307D01*
X30604Y32362D01*
X30606Y32363D01*
X30744D01*
X30746Y32362D01*
X30782Y32307D01*
X30882Y32241D01*
X31000Y32217D01*
X31118Y32241D01*
X31218Y32307D01*
X31284Y32407D01*
X31308Y32525D01*
Y34175D01*
X31284Y34293D01*
X31218Y34393D01*
X31118Y34459D01*
X31016Y34480D01*
X30239Y35256D01*
X30167Y35304D01*
X30083Y35321D01*
X21951D01*
X19942Y37331D01*
X19991Y37448D01*
X20125D01*
Y38127D01*
Y38806D01*
X19653D01*
Y38953D01*
X19636Y39038D01*
X19589Y39110D01*
X17567Y41131D01*
X17495Y41179D01*
X17410Y41196D01*
X16966D01*
X16852Y41228D01*
X16852Y41323D01*
Y42082D01*
D02*
G37*
G36*
X79600Y46810D02*
X76000D01*
X75805Y46771D01*
X75640Y46660D01*
X75529Y46495D01*
X75490Y46300D01*
Y42200D01*
X75529Y42005D01*
X75640Y41840D01*
X75805Y41729D01*
X76000Y41690D01*
X79600D01*
X79795Y41729D01*
X79960Y41840D01*
X80071Y42005D01*
X80110Y42200D01*
Y46300D01*
X80071Y46495D01*
X79960Y46660D01*
X79795Y46771D01*
X79600Y46810D01*
D02*
G37*
G36*
X68587Y46810D02*
X64987D01*
X64791Y46771D01*
X64626Y46660D01*
X64516Y46495D01*
X64477Y46300D01*
Y42200D01*
X64516Y42005D01*
X64626Y41840D01*
X64791Y41729D01*
X64987Y41690D01*
X68587D01*
X68782Y41729D01*
X68947Y41840D01*
X69057Y42005D01*
X69096Y42200D01*
Y46300D01*
X69057Y46495D01*
X68947Y46660D01*
X68782Y46771D01*
X68587Y46810D01*
D02*
G37*
G36*
X11452Y42082D02*
X9648D01*
Y41666D01*
X9448D01*
X9363Y41649D01*
X9291Y41601D01*
X9229Y41539D01*
X9102Y41565D01*
Y41877D01*
X7898D01*
Y41521D01*
X7768D01*
X7760Y41541D01*
X7641Y41660D01*
X7485Y41725D01*
X7315D01*
X7159Y41660D01*
X7040Y41541D01*
X6975Y41385D01*
Y41215D01*
X7040Y41059D01*
X7159Y40940D01*
X7315Y40875D01*
X7485D01*
X7641Y40940D01*
X7760Y41059D01*
X7768Y41079D01*
X7898D01*
Y40773D01*
X9102D01*
Y41079D01*
X9303D01*
X9387Y41096D01*
X9459Y41144D01*
X9539Y41224D01*
X10340D01*
X10361Y41228D01*
X11452D01*
Y42082D01*
D02*
G37*
G36*
X24730Y45888D02*
X24470D01*
X24219Y45820D01*
X23994Y45690D01*
X23810Y45506D01*
X23680Y45281D01*
X23612Y45030D01*
Y44770D01*
X23680Y44519D01*
X23810Y44294D01*
X23994Y44110D01*
X24219Y43980D01*
X24470Y43912D01*
X24479D01*
Y41779D01*
X24275D01*
Y41398D01*
X23979D01*
Y41779D01*
X22775D01*
Y40575D01*
X23108D01*
X23139Y40505D01*
X23147Y40448D01*
X23040Y40341D01*
X23014Y40279D01*
X22775D01*
Y39075D01*
X23979D01*
Y40279D01*
X23786D01*
X23760Y40341D01*
X23653Y40448D01*
X23661Y40505D01*
X23692Y40575D01*
X23979D01*
Y40956D01*
X24275D01*
Y40575D01*
X25479D01*
Y41779D01*
X24921D01*
Y43964D01*
X24981Y43980D01*
X25206Y44110D01*
X25390Y44294D01*
X25520Y44519D01*
X25587Y44770D01*
Y45030D01*
X25520Y45281D01*
X25390Y45506D01*
X25206Y45690D01*
X24981Y45820D01*
X24730Y45888D01*
D02*
G37*
G36*
X22230D02*
X21970D01*
X21719Y45820D01*
X21494Y45690D01*
X21310Y45506D01*
X21180Y45281D01*
X21112Y45030D01*
Y44770D01*
X21180Y44519D01*
X21310Y44294D01*
X21494Y44110D01*
X21719Y43980D01*
X21970Y43912D01*
X22020D01*
Y42513D01*
Y41779D01*
X21275D01*
Y41398D01*
X20979D01*
Y41779D01*
X19775D01*
Y40575D01*
X20108D01*
X20139Y40506D01*
X20147Y40448D01*
X20040Y40341D01*
X20014Y40279D01*
X19775D01*
Y39075D01*
X20979D01*
Y40279D01*
X20786D01*
X20760Y40341D01*
X20653Y40448D01*
X20661Y40506D01*
X20692Y40575D01*
X20979D01*
Y40956D01*
X21275D01*
Y40575D01*
X22479D01*
Y41779D01*
X22462D01*
Y42513D01*
Y43975D01*
X22481Y43980D01*
X22706Y44110D01*
X22890Y44294D01*
X23020Y44519D01*
X23087Y44770D01*
Y45030D01*
X23020Y45281D01*
X22890Y45506D01*
X22706Y45690D01*
X22481Y45820D01*
X22230Y45888D01*
D02*
G37*
G36*
X52927Y41152D02*
X52402D01*
Y40577D01*
X52927D01*
Y41152D01*
D02*
G37*
G36*
X52202D02*
X51677D01*
Y40577D01*
X52202D01*
Y41152D01*
D02*
G37*
G36*
X27230Y45888D02*
X26970D01*
X26719Y45820D01*
X26494Y45690D01*
X26310Y45506D01*
X26180Y45281D01*
X26112Y45030D01*
Y44770D01*
X26180Y44519D01*
X26310Y44294D01*
X26494Y44110D01*
X26719Y43980D01*
X26970Y43912D01*
X26979D01*
Y41906D01*
X26979Y41854D01*
X26864Y41779D01*
X25775D01*
Y40575D01*
X26108D01*
X26139Y40506D01*
X26147Y40448D01*
X26040Y40341D01*
X26014Y40279D01*
X25775D01*
Y39075D01*
X26979D01*
Y40279D01*
X26786D01*
X26760Y40341D01*
X26653Y40448D01*
X26661Y40506D01*
X26692Y40575D01*
X26979D01*
Y40956D01*
X27275D01*
Y40575D01*
X28479D01*
Y41779D01*
X27588D01*
X27421Y41946D01*
Y43964D01*
X27481Y43980D01*
X27706Y44110D01*
X27890Y44294D01*
X28020Y44519D01*
X28087Y44770D01*
Y45030D01*
X28020Y45281D01*
X27890Y45506D01*
X27706Y45690D01*
X27481Y45820D01*
X27230Y45888D01*
D02*
G37*
G36*
X39230D02*
X38970D01*
X38719Y45820D01*
X38494Y45690D01*
X38310Y45506D01*
X38180Y45281D01*
X38112Y45030D01*
Y44770D01*
X38180Y44519D01*
X38310Y44294D01*
X38494Y44110D01*
X38719Y43980D01*
X38970Y43912D01*
X39230D01*
X39352Y43945D01*
X39456Y43858D01*
Y42123D01*
X38382D01*
X38298Y42106D01*
X38226Y42058D01*
X38121Y41953D01*
X38073Y41881D01*
X38056Y41797D01*
Y41729D01*
X37675D01*
Y40525D01*
X37944D01*
X37997Y40398D01*
X37940Y40341D01*
X37893Y40229D01*
X37675D01*
Y39025D01*
X38879D01*
Y40229D01*
X38707D01*
X38660Y40341D01*
X38603Y40398D01*
X38656Y40525D01*
X38879D01*
Y41664D01*
X38998Y41680D01*
X39125Y41671D01*
Y40525D01*
X40429D01*
Y41679D01*
X39898D01*
Y41902D01*
Y43981D01*
X39881Y44066D01*
X39833Y44138D01*
X39784Y44187D01*
X39890Y44294D01*
X40020Y44519D01*
X40088Y44770D01*
Y45030D01*
X40020Y45281D01*
X39890Y45506D01*
X39706Y45690D01*
X39481Y45820D01*
X39230Y45888D01*
D02*
G37*
G36*
X41730D02*
X41470D01*
X41219Y45820D01*
X40994Y45690D01*
X40810Y45506D01*
X40680Y45281D01*
X40612Y45030D01*
Y44770D01*
X40680Y44519D01*
X40810Y44294D01*
X40994Y44110D01*
X41219Y43980D01*
X41341Y43947D01*
Y41729D01*
X40675D01*
Y40525D01*
X40944D01*
X40997Y40398D01*
X40940Y40341D01*
X40893Y40229D01*
X40675D01*
Y39025D01*
X41879D01*
Y40229D01*
X41707D01*
X41660Y40341D01*
X41603Y40398D01*
X41656Y40525D01*
X41879D01*
Y41446D01*
X41996Y41495D01*
X42125Y41366D01*
Y40525D01*
X43429D01*
Y41679D01*
X42438D01*
X42058Y42058D01*
X41987Y42106D01*
X41902Y42123D01*
X41783D01*
Y43927D01*
X41981Y43980D01*
X42206Y44110D01*
X42390Y44294D01*
X42520Y44519D01*
X42588Y44770D01*
Y45030D01*
X42520Y45281D01*
X42390Y45506D01*
X42206Y45690D01*
X41981Y45820D01*
X41730Y45888D01*
D02*
G37*
G36*
X36730D02*
X36470D01*
X36219Y45820D01*
X35994Y45690D01*
X35810Y45506D01*
X35680Y45281D01*
X35612Y45030D01*
Y44770D01*
X35680Y44519D01*
X35810Y44294D01*
X35994Y44110D01*
X36219Y43980D01*
X36379Y43937D01*
Y42098D01*
X35382D01*
X35298Y42081D01*
X35226Y42033D01*
X35121Y41928D01*
X35073Y41856D01*
X35056Y41772D01*
Y41729D01*
X34675D01*
Y40525D01*
X34944D01*
X34997Y40398D01*
X34940Y40341D01*
X34893Y40229D01*
X34675D01*
Y39025D01*
X35879D01*
Y40229D01*
X35707D01*
X35660Y40341D01*
X35603Y40398D01*
X35656Y40525D01*
X35879D01*
Y41639D01*
X35998Y41655D01*
X36125Y41646D01*
Y40500D01*
X37429D01*
Y41654D01*
X36821D01*
Y41877D01*
Y43937D01*
X36981Y43980D01*
X37206Y44110D01*
X37390Y44294D01*
X37520Y44519D01*
X37588Y44770D01*
Y45030D01*
X37520Y45281D01*
X37390Y45506D01*
X37206Y45690D01*
X36981Y45820D01*
X36730Y45888D01*
D02*
G37*
G36*
X30375Y41000D02*
X29800D01*
Y40475D01*
X30375D01*
Y41000D01*
D02*
G37*
G36*
X29600D02*
X29025D01*
Y40475D01*
X29600D01*
Y41000D01*
D02*
G37*
G36*
X49929Y41279D02*
X48625D01*
Y40125D01*
X49929D01*
X49929Y40125D01*
Y40125D01*
X50056Y40143D01*
X50059Y40140D01*
X50215Y40075D01*
X50385D01*
X50541Y40140D01*
X50660Y40259D01*
X50725Y40415D01*
Y40585D01*
X50660Y40741D01*
X50541Y40860D01*
X50385Y40925D01*
X50215D01*
X50059Y40860D01*
X50056Y40857D01*
X49929Y40910D01*
Y41279D01*
D02*
G37*
G36*
X11452Y40812D02*
X9648D01*
Y40606D01*
X9185D01*
X9100Y40589D01*
X9029Y40541D01*
X6625Y38137D01*
X6481Y38220D01*
X6230Y38287D01*
X5970D01*
X5719Y38220D01*
X5494Y38090D01*
X5310Y37906D01*
X5180Y37681D01*
X5113Y37430D01*
Y37170D01*
X5180Y36919D01*
X5310Y36694D01*
X5494Y36510D01*
X5719Y36380D01*
X5970Y36312D01*
X6230D01*
X6481Y36380D01*
X6706Y36510D01*
X6890Y36694D01*
X7020Y36919D01*
X7088Y37170D01*
Y37430D01*
X7020Y37681D01*
X6937Y37825D01*
X9277Y40164D01*
X9648D01*
Y39958D01*
X11452D01*
Y40812D01*
D02*
G37*
G36*
X52927Y40377D02*
X52402D01*
Y39802D01*
X52927D01*
Y40377D01*
D02*
G37*
G36*
X52202D02*
X51677D01*
Y39802D01*
X52202D01*
Y40377D01*
D02*
G37*
G36*
X30375Y40275D02*
X29800D01*
Y39750D01*
X30375D01*
Y40275D01*
D02*
G37*
G36*
X29600D02*
X29025D01*
Y39750D01*
X29600D01*
Y40275D01*
D02*
G37*
G36*
X26377Y38806D02*
X25774D01*
Y38227D01*
X26377D01*
Y38806D01*
D02*
G37*
G36*
X23251Y38806D02*
X22648D01*
Y38227D01*
X23251D01*
Y38806D01*
D02*
G37*
G36*
X38377Y38627D02*
X37902D01*
Y38077D01*
X38377D01*
Y38627D01*
D02*
G37*
G36*
X41377D02*
X40902D01*
Y38077D01*
X41377D01*
Y38627D01*
D02*
G37*
G36*
X11452Y39542D02*
X9648D01*
Y38688D01*
X9540Y38642D01*
X9526Y38639D01*
X9454Y38591D01*
X6546Y35683D01*
X6481Y35720D01*
X6230Y35787D01*
X5970D01*
X5719Y35720D01*
X5494Y35590D01*
X5310Y35406D01*
X5180Y35181D01*
X5113Y34930D01*
Y34670D01*
X5180Y34419D01*
X5310Y34194D01*
X5494Y34010D01*
X5719Y33880D01*
X5970Y33812D01*
X6230D01*
X6481Y33880D01*
X6706Y34010D01*
X6890Y34194D01*
X7020Y34419D01*
X7088Y34670D01*
Y34930D01*
X7020Y35181D01*
X6892Y35403D01*
X9531Y38042D01*
X9648Y37994D01*
Y37418D01*
X11452D01*
Y38272D01*
X10669D01*
X10623Y38358D01*
X10613Y38399D01*
X10654Y38460D01*
X10671Y38545D01*
Y38688D01*
X11452D01*
Y39542D01*
D02*
G37*
G36*
X48752Y37927D02*
X47877D01*
Y37352D01*
X48752D01*
Y37927D01*
D02*
G37*
G36*
X46152D02*
X45277D01*
Y37352D01*
X46152D01*
Y37927D01*
D02*
G37*
G36*
X47677D02*
X46802D01*
Y37352D01*
X47677D01*
Y37927D01*
D02*
G37*
G36*
X38377Y37877D02*
X37902D01*
Y37327D01*
X38377D01*
Y37877D01*
D02*
G37*
G36*
X47677Y37152D02*
X46802D01*
Y36577D01*
X47677D01*
Y37152D01*
D02*
G37*
G36*
X46152D02*
X45277D01*
Y36577D01*
X46152D01*
Y37152D01*
D02*
G37*
G36*
X60327Y36806D02*
Y36200D01*
X60956D01*
Y36806D01*
X60327D01*
D02*
G37*
G36*
X9656Y36156D02*
X9100D01*
Y35577D01*
X9656D01*
Y36156D01*
D02*
G37*
G36*
X8900D02*
X8344D01*
Y35577D01*
X8900D01*
Y36156D01*
D02*
G37*
G36*
X60956Y36000D02*
X60327D01*
Y35394D01*
X60956D01*
Y36000D01*
D02*
G37*
G36*
X8900Y35377D02*
X8344D01*
Y34798D01*
X8900D01*
Y35377D01*
D02*
G37*
G36*
X60300Y35206D02*
Y34600D01*
X60929D01*
Y35206D01*
X60300D01*
D02*
G37*
G36*
X60929Y34400D02*
X60300D01*
Y33794D01*
X60929D01*
Y34400D01*
D02*
G37*
G36*
X91400Y44810D02*
X91205Y44771D01*
X91040Y44660D01*
X90929Y44495D01*
X90890Y44300D01*
Y34000D01*
X90915Y33874D01*
Y33500D01*
X91351D01*
X91400Y33490D01*
X98200D01*
X98249Y33500D01*
X98715D01*
Y41300D01*
X98321D01*
X96460Y43160D01*
X96295Y43271D01*
X96100Y43310D01*
X95111D01*
X93760Y44660D01*
X93595Y44771D01*
X93400Y44810D01*
X91400Y44810D01*
D02*
G37*
G36*
X24529Y33779D02*
X23950D01*
Y33176D01*
X24529D01*
Y33779D01*
D02*
G37*
G36*
X23750D02*
X23171D01*
Y33176D01*
X23750D01*
Y33779D01*
D02*
G37*
G36*
X18550Y34850D02*
X17350D01*
Y33100D01*
X18550D01*
Y34850D01*
D02*
G37*
G36*
X12550Y33700D02*
X11350D01*
Y33100D01*
X12550D01*
Y33700D01*
D02*
G37*
G36*
X17150Y34850D02*
X15950D01*
Y33100D01*
X17150D01*
Y34850D01*
D02*
G37*
G36*
X12550Y32900D02*
X11350D01*
Y32300D01*
X12550D01*
Y32900D01*
D02*
G37*
G36*
X11150Y33700D02*
X9950D01*
Y32965D01*
X9850Y32900D01*
X9823Y32900D01*
X8850D01*
Y32100D01*
X9850D01*
Y32235D01*
X9950Y32300D01*
X9977Y32300D01*
X11150D01*
Y33000D01*
Y33700D01*
D02*
G37*
G36*
X8650Y32900D02*
X7650D01*
Y32100D01*
X8650D01*
Y32900D01*
D02*
G37*
G36*
X18550D02*
X17350D01*
Y31150D01*
X18550D01*
Y32900D01*
D02*
G37*
G36*
X17150D02*
X15950D01*
Y31150D01*
X17150D01*
Y32900D01*
D02*
G37*
G36*
X36785Y32325D02*
X36615D01*
X36459Y32260D01*
X36340Y32141D01*
X36275Y31985D01*
Y31854D01*
X36250D01*
Y30900D01*
X37454D01*
Y31854D01*
X37125D01*
Y31985D01*
X37060Y32141D01*
X36941Y32260D01*
X36785Y32325D01*
D02*
G37*
G36*
X31885Y31525D02*
X31715D01*
X31559Y31460D01*
X31440Y31341D01*
X31432Y31321D01*
X27400D01*
X27315Y31304D01*
X27244Y31256D01*
X26275Y30288D01*
X26185Y30325D01*
X26015D01*
X25859Y30260D01*
X25740Y30141D01*
X25675Y29985D01*
Y29815D01*
X25740Y29659D01*
X25859Y29540D01*
X26015Y29475D01*
X26185D01*
X26341Y29540D01*
X26460Y29659D01*
X26525Y29815D01*
Y29912D01*
X27492Y30879D01*
X31432D01*
X31440Y30859D01*
X31559Y30740D01*
X31715Y30675D01*
X31885D01*
X32041Y30740D01*
X32160Y30859D01*
X32225Y31015D01*
Y31185D01*
X32160Y31341D01*
X32041Y31460D01*
X31885Y31525D01*
D02*
G37*
G36*
X83027Y30777D02*
Y30127D01*
X83652D01*
Y30777D01*
X83027D01*
D02*
G37*
G36*
X39104Y31854D02*
X37900D01*
Y30900D01*
X38408D01*
Y30404D01*
X37925D01*
Y29821D01*
X37652D01*
X37652Y29821D01*
X37629Y29840D01*
Y30404D01*
X36275D01*
Y29646D01*
X36079D01*
Y30104D01*
X34875D01*
Y29000D01*
X36079D01*
Y29258D01*
X36275D01*
Y28850D01*
X37629D01*
Y29329D01*
X37732Y29433D01*
X37925D01*
Y28850D01*
X39279D01*
Y30404D01*
X38796D01*
Y30900D01*
X39104D01*
Y31854D01*
D02*
G37*
G36*
X77202Y29827D02*
X76627D01*
Y29302D01*
X77202D01*
Y29827D01*
D02*
G37*
G36*
X83652Y29927D02*
X83027D01*
Y29277D01*
X83652D01*
Y29927D01*
D02*
G37*
G36*
X14875Y29425D02*
X14350D01*
Y28850D01*
X14875D01*
Y29425D01*
D02*
G37*
G36*
X14150D02*
X13625D01*
Y28850D01*
X14150D01*
Y29425D01*
D02*
G37*
G36*
X77202Y29102D02*
X76627D01*
Y28577D01*
X77202D01*
Y29102D01*
D02*
G37*
G36*
X35377Y28827D02*
X34802D01*
Y28302D01*
X35377D01*
Y28827D01*
D02*
G37*
G36*
X34450Y28825D02*
X33925D01*
Y28250D01*
X34450D01*
Y28825D01*
D02*
G37*
G36*
X9850Y31900D02*
X8750D01*
X7650D01*
Y31100D01*
X7763D01*
X7763Y31100D01*
Y30227D01*
X7723D01*
Y28573D01*
X8233D01*
X9267Y27539D01*
X9348Y27452D01*
X9348D01*
X9348Y27452D01*
Y26148D01*
X10502D01*
Y26364D01*
X10619Y26413D01*
X10783Y26249D01*
Y25901D01*
X10800Y25816D01*
X10847Y25744D01*
X12288Y24303D01*
X12360Y24255D01*
X12445Y24239D01*
X15934D01*
X16134Y24039D01*
X16085Y23921D01*
X11442D01*
X10502Y24861D01*
Y25852D01*
X9348D01*
Y24548D01*
X10189D01*
X10368Y24369D01*
X10319Y24252D01*
X9348D01*
Y22948D01*
X10502D01*
X10502Y22948D01*
X10616Y22916D01*
X10715Y22875D01*
X10885D01*
X11041Y22940D01*
X11160Y23059D01*
X11225Y23215D01*
Y23385D01*
X11321Y23485D01*
X11350Y23479D01*
X13122D01*
X13248Y23477D01*
Y22804D01*
X13201Y22794D01*
X13129Y22746D01*
X13054Y22672D01*
X13054Y22672D01*
X12713Y22330D01*
X12660Y22341D01*
X12541Y22460D01*
X12385Y22525D01*
X12215D01*
X12059Y22460D01*
X11940Y22341D01*
X11875Y22185D01*
Y22015D01*
X11940Y21859D01*
X12059Y21740D01*
X12078Y21677D01*
X12069Y21663D01*
X12052Y21578D01*
Y20752D01*
X12023D01*
Y19548D01*
X13127D01*
Y20752D01*
X12495D01*
Y21487D01*
X12668Y21659D01*
X12668Y21659D01*
X12668Y21659D01*
X13058Y22049D01*
X13175Y22001D01*
Y21675D01*
X13850D01*
Y21475D01*
X13175D01*
Y20950D01*
X13295D01*
X13300Y20825D01*
X13300Y20823D01*
Y20250D01*
X13925D01*
Y20150D01*
X14025D01*
Y19475D01*
X14523D01*
X14550Y19475D01*
X14650Y19410D01*
Y18930D01*
X14525Y18925D01*
X14523Y18925D01*
X13950D01*
Y18300D01*
Y17675D01*
X14523D01*
X14525Y17675D01*
X14650Y17670D01*
Y16948D01*
X14452D01*
Y17502D01*
X13248D01*
Y17295D01*
X13121Y17210D01*
X13085Y17225D01*
X12966D01*
X12915Y17225D01*
X12906Y17231D01*
X12906Y17308D01*
Y17777D01*
X12350D01*
Y17198D01*
X12510D01*
X12578Y17071D01*
X12550Y17029D01*
X11667D01*
Y15817D01*
X12833D01*
Y16202D01*
X13181D01*
X13629Y15754D01*
Y15577D01*
X13248D01*
Y15419D01*
X13121Y15368D01*
X12985Y15425D01*
X12815D01*
X12659Y15360D01*
X12540Y15241D01*
X12475Y15085D01*
Y14915D01*
X12540Y14759D01*
X12659Y14640D01*
X12815Y14575D01*
X12985D01*
X13121Y14632D01*
X13248Y14581D01*
Y14473D01*
X14452D01*
Y14906D01*
X14650D01*
Y14725D01*
X16404D01*
Y15452D01*
X16477D01*
Y15827D01*
X15527D01*
Y16027D01*
X16477D01*
Y16402D01*
X16404D01*
Y17125D01*
Y17915D01*
X16423Y17931D01*
X16531Y17968D01*
X16559Y17940D01*
X16715Y17875D01*
X16885D01*
X17041Y17940D01*
X17160Y18059D01*
X17225Y18215D01*
Y18385D01*
X17160Y18541D01*
X17082Y18619D01*
X17054Y18700D01*
X17082Y18781D01*
X17160Y18859D01*
X17225Y19015D01*
Y19185D01*
X17160Y19341D01*
X17082Y19419D01*
X17054Y19500D01*
X17082Y19581D01*
X17160Y19659D01*
X17225Y19815D01*
Y19985D01*
X17160Y20141D01*
X17082Y20219D01*
X17054Y20300D01*
X17082Y20381D01*
X17160Y20459D01*
X17225Y20615D01*
Y20785D01*
X17160Y20941D01*
X17082Y21019D01*
X17054Y21100D01*
X17082Y21181D01*
X17160Y21259D01*
X17225Y21415D01*
Y21585D01*
X17160Y21741D01*
X17041Y21860D01*
X16885Y21925D01*
X16715D01*
X16604Y21879D01*
X16492Y21936D01*
X16477Y21953D01*
Y22227D01*
X15527D01*
Y22427D01*
X16477D01*
Y22802D01*
X16404D01*
Y23193D01*
X16531Y23245D01*
X19821Y19956D01*
X19892Y19908D01*
X19977Y19891D01*
X23305D01*
X23375Y19785D01*
X23375Y19785D01*
Y19615D01*
X23440Y19459D01*
X23559Y19340D01*
X23715Y19275D01*
X23885D01*
X24041Y19340D01*
X24160Y19459D01*
X24225Y19615D01*
Y19785D01*
X24225Y19785D01*
X24295Y19891D01*
X26050D01*
Y18725D01*
Y18002D01*
X25977D01*
Y17627D01*
X26927D01*
Y17427D01*
X25977D01*
Y17052D01*
X26050D01*
Y16921D01*
X25768D01*
X25760Y16941D01*
X25641Y17060D01*
X25485Y17125D01*
X25315D01*
X25159Y17060D01*
X25040Y16941D01*
X24975Y16785D01*
Y16615D01*
X25040Y16459D01*
X25159Y16340D01*
X25315Y16275D01*
X25485D01*
X25641Y16340D01*
X25760Y16459D01*
X25768Y16479D01*
X26050D01*
Y15952D01*
X26022Y15946D01*
X25950Y15898D01*
X25731Y15679D01*
X25683Y15607D01*
X25666Y15522D01*
Y14809D01*
X25634Y14720D01*
X25545Y14688D01*
X22248D01*
Y14703D01*
X22231Y14787D01*
X22214Y14813D01*
X22260Y14859D01*
X22325Y15015D01*
Y15185D01*
X22260Y15341D01*
X22141Y15460D01*
X21985Y15525D01*
X21815D01*
X21659Y15460D01*
X21540Y15341D01*
X21475Y15185D01*
Y15015D01*
X21540Y14859D01*
X21659Y14740D01*
X21714Y14717D01*
X21744Y14673D01*
X21806Y14611D01*
Y14304D01*
X20902D01*
Y14377D01*
X20527D01*
Y13427D01*
X20327D01*
Y14377D01*
X19952D01*
Y14304D01*
X16825D01*
Y12597D01*
X16796Y12591D01*
X16724Y12543D01*
X16341Y12160D01*
X16293Y12088D01*
X16276Y12004D01*
Y11964D01*
X16018Y11706D01*
X15071D01*
Y10494D01*
X15985D01*
X16042Y10368D01*
X15993Y10306D01*
X15071D01*
Y9094D01*
X16331D01*
Y9993D01*
X16871Y10533D01*
X16919Y10604D01*
X17044Y10584D01*
Y10494D01*
X17623D01*
Y11150D01*
X17723D01*
Y11250D01*
X18402D01*
Y11675D01*
X18571D01*
Y10567D01*
X19783D01*
Y11295D01*
X19951D01*
X20036Y11312D01*
X20108Y11360D01*
X21198Y12450D01*
X21246Y12522D01*
X21252Y12550D01*
X22606D01*
Y10616D01*
X22479Y10582D01*
X22420Y10683D01*
X22243Y10860D01*
X22027Y10985D01*
X21785Y11050D01*
X21535D01*
X21293Y10985D01*
X21077Y10860D01*
X20900Y10683D01*
X20775Y10467D01*
X20710Y10225D01*
Y9975D01*
X20775Y9733D01*
X20900Y9517D01*
X21077Y9340D01*
X21293Y9215D01*
X21535Y9150D01*
X21785D01*
X22027Y9215D01*
X22243Y9340D01*
X22420Y9517D01*
X22479Y9618D01*
X22606Y9584D01*
Y8510D01*
X20710D01*
Y6610D01*
X22297D01*
X22913Y5995D01*
X21844Y4926D01*
X21796Y4854D01*
X21779Y4769D01*
Y3963D01*
X21619Y3920D01*
X21394Y3790D01*
X21210Y3606D01*
X21080Y3381D01*
X21013Y3130D01*
Y2870D01*
X21080Y2619D01*
X21210Y2394D01*
X21394Y2210D01*
X21619Y2080D01*
X21870Y2013D01*
X22130D01*
X22381Y2080D01*
X22606Y2210D01*
X22790Y2394D01*
X22920Y2619D01*
X22987Y2870D01*
Y3130D01*
X22920Y3381D01*
X22790Y3606D01*
X22606Y3790D01*
X22381Y3920D01*
X22221Y3963D01*
Y4677D01*
X23317Y5773D01*
X27295D01*
X27379Y5790D01*
X27451Y5838D01*
X28556Y6944D01*
X28604Y7015D01*
X28621Y7100D01*
Y10400D01*
X28604Y10485D01*
X28691Y10583D01*
X28706Y10594D01*
X28896Y10783D01*
X28915Y10775D01*
X29085D01*
X29241Y10840D01*
X29360Y10959D01*
X29425Y11115D01*
Y11285D01*
X29360Y11441D01*
X29241Y11560D01*
X29085Y11625D01*
X28915D01*
X28759Y11560D01*
X28640Y11441D01*
X28575Y11285D01*
Y11115D01*
X28583Y11096D01*
X28458Y10971D01*
X28142D01*
X26189Y12923D01*
X26118Y12971D01*
X26033Y12988D01*
X25629D01*
Y13981D01*
X25746Y14030D01*
X26917Y12860D01*
X26988Y12812D01*
X27073Y12795D01*
X28017D01*
Y12067D01*
X29229D01*
Y13233D01*
X28278D01*
X28257Y13237D01*
X27165D01*
X26614Y13788D01*
X26662Y13906D01*
X27898D01*
Y13598D01*
X28902D01*
Y14702D01*
X28002D01*
X27934Y14702D01*
X27891Y14708D01*
X27808Y14778D01*
X27804Y14844D01*
X27804Y14844D01*
X27804Y14848D01*
Y15525D01*
Y16274D01*
X27894Y16324D01*
X28021Y16270D01*
Y15750D01*
X28724D01*
Y15650D01*
X28824D01*
Y14971D01*
X29427D01*
Y15023D01*
X29546Y15044D01*
X29554Y15044D01*
X30806D01*
Y16256D01*
X30521D01*
Y16423D01*
X31027D01*
Y18077D01*
X29848D01*
X29735Y18190D01*
X29727Y18231D01*
X29685Y18294D01*
X29556Y18423D01*
X29608Y18550D01*
X30200D01*
Y19450D01*
X30400D01*
Y18550D01*
X31052D01*
X31100Y18550D01*
X31179Y18456D01*
Y10300D01*
X31196Y10215D01*
X31244Y10144D01*
X32183Y9204D01*
X32175Y9185D01*
Y9015D01*
X32240Y8859D01*
X32359Y8740D01*
X32515Y8675D01*
X32685D01*
X32841Y8740D01*
X32960Y8859D01*
X33025Y9015D01*
Y9185D01*
X32960Y9341D01*
X32841Y9460D01*
X32685Y9525D01*
X32515D01*
X32496Y9517D01*
X31621Y10392D01*
Y11098D01*
X31728Y11138D01*
X31748Y11139D01*
X32883Y10004D01*
X32875Y9985D01*
Y9815D01*
X32940Y9659D01*
X33059Y9540D01*
X33215Y9475D01*
X33385D01*
X33541Y9540D01*
X33660Y9659D01*
X33725Y9815D01*
Y9985D01*
X33660Y10141D01*
X33541Y10260D01*
X33385Y10325D01*
X33215D01*
X33196Y10317D01*
X32121Y11392D01*
Y22500D01*
X32104Y22585D01*
X32056Y22656D01*
X30864Y23848D01*
X30793Y23896D01*
X30708Y23913D01*
X29310D01*
X29258Y24040D01*
X30996Y25779D01*
X31832D01*
X31840Y25759D01*
X31959Y25640D01*
X32115Y25575D01*
X32285D01*
X32441Y25640D01*
X32560Y25759D01*
X32625Y25915D01*
Y26085D01*
X32560Y26241D01*
X32441Y26360D01*
X32285Y26425D01*
X32115D01*
X31959Y26360D01*
X31840Y26241D01*
X31832Y26221D01*
X30905D01*
X30820Y26204D01*
X30748Y26156D01*
X30131Y25539D01*
X30023Y25611D01*
X30025Y25615D01*
Y25785D01*
X29960Y25941D01*
X29841Y26060D01*
X29685Y26125D01*
X29600D01*
X29547Y26252D01*
X29716Y26420D01*
X29818Y26441D01*
X29918Y26507D01*
X29954Y26562D01*
X29956Y26563D01*
X30094D01*
X30096Y26562D01*
X30132Y26507D01*
X30232Y26441D01*
X30350Y26417D01*
X30468Y26441D01*
X30568Y26507D01*
X30604Y26562D01*
X30606Y26563D01*
X30744D01*
X30746Y26562D01*
X30782Y26507D01*
X30882Y26441D01*
X31000Y26417D01*
X31118Y26441D01*
X31218Y26507D01*
X31284Y26607D01*
X31308Y26725D01*
Y27544D01*
X31677D01*
X31730Y27417D01*
X31675Y27285D01*
Y27115D01*
X31740Y26959D01*
X31859Y26840D01*
X32015Y26775D01*
X32185D01*
X32341Y26840D01*
X32460Y26959D01*
X32525Y27115D01*
Y27285D01*
X32468Y27421D01*
X32499Y27499D01*
X32533Y27548D01*
X33027D01*
Y28385D01*
X33073Y28419D01*
X33200Y28356D01*
Y28250D01*
X33725D01*
Y28825D01*
X33669D01*
X33606Y28952D01*
X33641Y28998D01*
X34302D01*
Y30102D01*
X33892D01*
X33822Y30208D01*
X33825Y30215D01*
Y30385D01*
X33760Y30541D01*
X33641Y30660D01*
X33485Y30725D01*
X33315D01*
X33159Y30660D01*
X33040Y30541D01*
X32975Y30385D01*
Y30218D01*
X32975Y30215D01*
X32885Y30102D01*
X31998D01*
Y29771D01*
X30955D01*
X30870Y29754D01*
X30799Y29706D01*
X30159Y29066D01*
X30111Y28995D01*
X30094Y28910D01*
Y28730D01*
X30096Y28718D01*
Y28539D01*
X30096Y28538D01*
X30094Y28537D01*
X29956D01*
X29954Y28538D01*
X29918Y28593D01*
X29818Y28659D01*
X29700Y28683D01*
X29582Y28659D01*
X29482Y28593D01*
X29343Y28613D01*
X29296Y28660D01*
Y28807D01*
X29316Y28815D01*
X29435Y28934D01*
X29500Y29090D01*
Y29260D01*
X29435Y29416D01*
X29316Y29535D01*
X29160Y29600D01*
X28990D01*
X28834Y29535D01*
X28715Y29416D01*
X28650Y29260D01*
X28525Y29264D01*
Y29285D01*
X28460Y29441D01*
X28341Y29560D01*
X28185Y29625D01*
X28015D01*
X27859Y29560D01*
X27740Y29441D01*
X27719Y29390D01*
X27581D01*
X27560Y29441D01*
X27441Y29560D01*
X27285Y29625D01*
X27115D01*
X26959Y29560D01*
X26840Y29441D01*
X26775Y29285D01*
Y29115D01*
X26840Y28959D01*
X26879Y28920D01*
Y28601D01*
X26849Y28586D01*
X26735Y28583D01*
X26671Y28650D01*
Y28750D01*
X26654Y28835D01*
X26606Y28906D01*
X26356Y29156D01*
X26285Y29204D01*
X26200Y29221D01*
X25868D01*
X25860Y29241D01*
X25741Y29360D01*
X25585Y29425D01*
X25415D01*
X25259Y29360D01*
X25140Y29241D01*
X25075Y29085D01*
Y28915D01*
X25120Y28806D01*
X25074Y28685D01*
X25055Y28664D01*
X25032Y28659D01*
X24932Y28593D01*
X24866Y28493D01*
X24842Y28375D01*
Y26725D01*
X24866Y26607D01*
X24883Y26581D01*
X24815Y26454D01*
X22797D01*
X22713Y26437D01*
X22641Y26389D01*
X22056Y25804D01*
X22008Y25732D01*
X22002Y25704D01*
X16825D01*
Y24139D01*
X16708Y24090D01*
X16182Y24616D01*
X16110Y24664D01*
X16025Y24681D01*
X12537D01*
X11514Y25704D01*
X11563Y25821D01*
X11650D01*
Y26500D01*
Y27179D01*
X11094D01*
Y26730D01*
X10977Y26681D01*
X10701Y26956D01*
X10630Y27004D01*
X10545Y27021D01*
X10502D01*
Y27363D01*
X11167D01*
Y27348D01*
X12333D01*
Y27363D01*
X12500D01*
X12597Y27403D01*
X12597Y27403D01*
X12897Y27703D01*
X12937Y27800D01*
X12937Y27800D01*
Y28148D01*
X13452D01*
Y29352D01*
X12937D01*
X12937Y31100D01*
X12897Y31197D01*
X12800Y31237D01*
X12477D01*
Y31327D01*
X10023D01*
Y31237D01*
X9850D01*
Y31900D01*
D02*
G37*
G36*
X14875Y28650D02*
X14350D01*
Y28075D01*
X14875D01*
Y28650D01*
D02*
G37*
G36*
X14150D02*
X13625D01*
Y28075D01*
X14150D01*
Y28650D01*
D02*
G37*
G36*
X37052Y28377D02*
Y27627D01*
X37702D01*
Y28377D01*
X37052D01*
D02*
G37*
G36*
X35377Y28102D02*
X34802D01*
Y27577D01*
X35377D01*
Y28102D01*
D02*
G37*
G36*
X34450Y28050D02*
X33925D01*
Y27475D01*
X34450D01*
Y28050D01*
D02*
G37*
G36*
X33725D02*
X33200D01*
Y27475D01*
X33725D01*
Y28050D01*
D02*
G37*
G36*
X24629Y27924D02*
X24050D01*
Y27321D01*
X24629D01*
Y27924D01*
D02*
G37*
G36*
X23850D02*
X23271D01*
Y27321D01*
X23850D01*
Y27924D01*
D02*
G37*
G36*
X6350Y27400D02*
X5850D01*
Y26900D01*
X6350D01*
Y27400D01*
D02*
G37*
G36*
X5650D02*
X5150D01*
Y26900D01*
X5650D01*
Y27400D01*
D02*
G37*
G36*
X84427Y27227D02*
X83852D01*
Y26702D01*
X84427D01*
Y27227D01*
D02*
G37*
G36*
X37702Y27427D02*
X37052D01*
Y26677D01*
X37702D01*
Y27427D01*
D02*
G37*
G36*
X36152Y28827D02*
X35577D01*
Y28202D01*
Y27577D01*
X36075D01*
X36152Y27577D01*
X36202Y27471D01*
Y26677D01*
X36852D01*
Y27527D01*
Y28377D01*
X36279D01*
X36202Y28377D01*
X36152Y28483D01*
Y28827D01*
D02*
G37*
G36*
X12406Y27179D02*
X11850D01*
Y26600D01*
X12406D01*
Y27179D01*
D02*
G37*
G36*
X6350Y26700D02*
X5850D01*
Y26200D01*
X6350D01*
Y26700D01*
D02*
G37*
G36*
X5650D02*
X5150D01*
Y26200D01*
X5650D01*
Y26700D01*
D02*
G37*
G36*
X9052Y27452D02*
X7898D01*
Y27341D01*
X7777Y27327D01*
Y27327D01*
X6723D01*
Y26273D01*
X7777D01*
Y26273D01*
X7898Y26259D01*
Y26148D01*
X9052D01*
Y27452D01*
D02*
G37*
G36*
X34633Y26710D02*
X34077D01*
Y26081D01*
X34633D01*
Y26710D01*
D02*
G37*
G36*
X33877D02*
X33321D01*
Y26081D01*
X33877D01*
Y26710D01*
D02*
G37*
G36*
X36027Y26552D02*
X35502D01*
Y25977D01*
X36027D01*
Y26552D01*
D02*
G37*
G36*
X35302D02*
X34777D01*
Y25977D01*
X35302D01*
Y26552D01*
D02*
G37*
G36*
X12406Y26400D02*
X11850D01*
Y25821D01*
X12406D01*
Y26400D01*
D02*
G37*
G36*
X6350Y25800D02*
X5850D01*
Y25300D01*
X6350D01*
Y25800D01*
D02*
G37*
G36*
X5650D02*
X5150D01*
Y25300D01*
X5650D01*
Y25800D01*
D02*
G37*
G36*
X6350Y25100D02*
X5850D01*
Y24600D01*
X6350D01*
Y25100D01*
D02*
G37*
G36*
X5650D02*
X5150D01*
Y24600D01*
X5650D01*
Y25100D01*
D02*
G37*
G36*
X9052Y25852D02*
X7898D01*
Y25742D01*
X7777Y25727D01*
Y25727D01*
X6723D01*
Y24673D01*
X7777D01*
Y24673D01*
X7898Y24659D01*
Y24548D01*
X9052D01*
Y25852D01*
D02*
G37*
G36*
X6350Y24200D02*
X5850D01*
Y23700D01*
X6350D01*
Y24200D01*
D02*
G37*
G36*
X5650D02*
X5150D01*
Y23700D01*
X5650D01*
Y24200D01*
D02*
G37*
G36*
X6350Y23500D02*
X5850D01*
Y23000D01*
X6350D01*
Y23500D01*
D02*
G37*
G36*
X5650D02*
X5150D01*
Y23000D01*
X5650D01*
Y23500D01*
D02*
G37*
G36*
X9052Y24252D02*
X7898D01*
Y24142D01*
X7777Y24127D01*
Y24127D01*
X6723D01*
Y23073D01*
X7777D01*
Y23073D01*
X7898Y23059D01*
Y22948D01*
X9052D01*
Y24252D01*
D02*
G37*
G36*
X32812Y25552D02*
X32642D01*
X32486Y25487D01*
X32367Y25368D01*
X32302Y25212D01*
Y25042D01*
X32367Y24886D01*
X32486Y24767D01*
X32506Y24759D01*
Y23777D01*
X32523Y23692D01*
X32571Y23621D01*
X32797Y23395D01*
X32769Y23328D01*
Y23126D01*
X32846Y22939D01*
X32989Y22796D01*
X33176Y22719D01*
X33378D01*
X33565Y22796D01*
X33708Y22939D01*
X33785Y23126D01*
Y23328D01*
X33708Y23515D01*
X33565Y23658D01*
X33378Y23735D01*
X33176D01*
X33109Y23707D01*
X32948Y23869D01*
Y24759D01*
X32968Y24767D01*
X33087Y24886D01*
X33152Y25042D01*
Y25212D01*
X33087Y25368D01*
X32968Y25487D01*
X32812Y25552D01*
D02*
G37*
G36*
X35175Y22725D02*
X34650D01*
Y22150D01*
X35175D01*
Y22725D01*
D02*
G37*
G36*
X6350Y22600D02*
X5850D01*
Y22100D01*
X6350D01*
Y22600D01*
D02*
G37*
G36*
X5650D02*
X5150D01*
Y22100D01*
X5650D01*
Y22600D01*
D02*
G37*
G36*
X10502Y22652D02*
X9348D01*
Y21348D01*
X10380D01*
X10424Y21348D01*
X10466Y21308D01*
X10503Y21236D01*
X10455Y21152D01*
X9348D01*
Y19848D01*
X10502D01*
Y20279D01*
X10700D01*
X10785Y20296D01*
X10856Y20344D01*
X11056Y20544D01*
X11104Y20615D01*
X11106Y20625D01*
X11141Y20640D01*
X11260Y20759D01*
X11325Y20915D01*
Y21085D01*
X11260Y21241D01*
X11141Y21360D01*
X10985Y21425D01*
X10815D01*
X10659Y21360D01*
X10616Y21317D01*
X10503Y21382D01*
X10502Y21392D01*
X10502Y21461D01*
Y21617D01*
X10629Y21670D01*
X10659Y21640D01*
X10815Y21575D01*
X10985D01*
X11141Y21640D01*
X11260Y21759D01*
X11325Y21915D01*
Y22085D01*
X11260Y22241D01*
X11141Y22360D01*
X10985Y22425D01*
X10815D01*
X10659Y22360D01*
X10629Y22330D01*
X10502Y22383D01*
Y22652D01*
D02*
G37*
G36*
X6350Y21900D02*
X5850D01*
Y21400D01*
X6350D01*
Y21900D01*
D02*
G37*
G36*
X5650D02*
X5150D01*
Y21400D01*
X5650D01*
Y21900D01*
D02*
G37*
G36*
X9052Y22652D02*
X7898D01*
Y22541D01*
X7777Y22527D01*
Y22527D01*
X6723D01*
Y21473D01*
X7777D01*
Y21473D01*
X7898Y21459D01*
Y21348D01*
X9052D01*
Y22652D01*
D02*
G37*
G36*
X6350Y21100D02*
X5850D01*
Y20600D01*
X6350D01*
Y21100D01*
D02*
G37*
G36*
X5650D02*
X5150D01*
Y20600D01*
X5650D01*
Y21100D01*
D02*
G37*
G36*
X6350Y20400D02*
X5850D01*
Y19900D01*
X6350D01*
Y20400D01*
D02*
G37*
G36*
X5650D02*
X5150D01*
Y19900D01*
X5650D01*
Y20400D01*
D02*
G37*
G36*
X9052Y21152D02*
X7898D01*
Y21041D01*
X7777Y21027D01*
Y21027D01*
X6723D01*
Y19973D01*
X7777D01*
Y19973D01*
X7898Y19959D01*
Y19848D01*
X9052D01*
Y21152D01*
D02*
G37*
G36*
X13825Y20050D02*
X13300D01*
Y19475D01*
X13825D01*
Y20050D01*
D02*
G37*
G36*
X6350Y19600D02*
X5850D01*
Y19100D01*
X6350D01*
Y19600D01*
D02*
G37*
G36*
X5650D02*
X5150D01*
Y19100D01*
X5650D01*
Y19600D01*
D02*
G37*
G36*
X13750Y18925D02*
X13175D01*
Y18400D01*
X13750D01*
Y18925D01*
D02*
G37*
G36*
X6350Y18900D02*
X5850D01*
Y18400D01*
X6350D01*
Y18900D01*
D02*
G37*
G36*
X5650D02*
X5150D01*
Y18400D01*
X5650D01*
Y18900D01*
D02*
G37*
G36*
X9052Y19652D02*
X7898D01*
Y19541D01*
X7777Y19527D01*
Y19527D01*
X6723D01*
Y18473D01*
X7777D01*
Y18473D01*
X7898Y18459D01*
Y18348D01*
X9052D01*
Y19652D01*
D02*
G37*
G36*
X12906Y18556D02*
X12350D01*
Y17977D01*
X12906D01*
Y18556D01*
D02*
G37*
G36*
X12150D02*
X11594D01*
Y17977D01*
X12150D01*
Y18556D01*
D02*
G37*
G36*
X13750Y18200D02*
X13175D01*
Y17675D01*
X13750D01*
Y18200D01*
D02*
G37*
G36*
X6350Y18100D02*
X5850D01*
Y17600D01*
X6350D01*
Y18100D01*
D02*
G37*
G36*
X5650D02*
X5150D01*
Y17600D01*
X5650D01*
Y18100D01*
D02*
G37*
G36*
X11085Y20025D02*
X10915D01*
X10759Y19960D01*
X10640Y19841D01*
X10595Y19733D01*
X10502Y19652D01*
X9348D01*
Y18348D01*
X10210D01*
X10275Y18272D01*
X10292Y18234D01*
X10293Y18226D01*
X10235Y18152D01*
X9348D01*
Y16848D01*
X10502D01*
Y17508D01*
X10608Y17578D01*
X10615Y17575D01*
X10785D01*
X10941Y17640D01*
X11060Y17759D01*
X11125Y17915D01*
Y18085D01*
X11060Y18241D01*
X10941Y18360D01*
X10785Y18425D01*
X10615D01*
X10608Y18422D01*
X10502Y18492D01*
Y18779D01*
X10700D01*
X10785Y18796D01*
X10856Y18844D01*
X11105Y19092D01*
X11153Y19164D01*
X11161Y19207D01*
X11241Y19240D01*
X11360Y19359D01*
X11425Y19515D01*
Y19685D01*
X11360Y19841D01*
X11241Y19960D01*
X11085Y20025D01*
D02*
G37*
G36*
X12150Y17777D02*
X11594D01*
Y17198D01*
X12150D01*
Y17777D01*
D02*
G37*
G36*
X6350Y17400D02*
X5850D01*
Y16900D01*
X6350D01*
Y17400D01*
D02*
G37*
G36*
X5650D02*
X5150D01*
Y16900D01*
X5650D01*
Y17400D01*
D02*
G37*
G36*
X9052Y18152D02*
X7898D01*
Y18041D01*
X7777Y18027D01*
Y18027D01*
X6723D01*
Y16973D01*
X7777D01*
Y16973D01*
X7898Y16959D01*
Y16848D01*
X9052D01*
Y18152D01*
D02*
G37*
G36*
X36000Y17250D02*
X35475D01*
Y16675D01*
X36000D01*
Y17250D01*
D02*
G37*
G36*
X6350Y16600D02*
X5850D01*
Y16100D01*
X6350D01*
Y16600D01*
D02*
G37*
G36*
X5650D02*
X5150D01*
Y16100D01*
X5650D01*
Y16600D01*
D02*
G37*
G36*
X10502Y16652D02*
X9348D01*
Y15348D01*
X10106D01*
X10115Y15225D01*
X9959Y15160D01*
X9840Y15041D01*
X9775Y14885D01*
Y14715D01*
X9840Y14559D01*
X9918Y14481D01*
X9714Y14277D01*
X8823D01*
Y13348D01*
X8823Y13323D01*
X8762Y13221D01*
X8526D01*
X8442Y13204D01*
X8370Y13156D01*
X8149Y12935D01*
X8101Y12864D01*
X8089Y12806D01*
X8069Y12786D01*
X7518D01*
Y12171D01*
X4977D01*
Y12614D01*
X5942Y13579D01*
X7173D01*
Y13323D01*
X8377D01*
Y14277D01*
X7173D01*
Y14021D01*
X5850D01*
X5765Y14004D01*
X5694Y13956D01*
X4664Y12927D01*
X4318D01*
X4265Y13054D01*
X4332Y13120D01*
X4400Y13285D01*
Y13465D01*
X4332Y13630D01*
X4205Y13756D01*
X4040Y13825D01*
X3861D01*
X3695Y13756D01*
X3569Y13630D01*
X3500Y13465D01*
Y13285D01*
X3569Y13120D01*
X3635Y13054D01*
X3582Y12927D01*
X3373D01*
Y12270D01*
X3345Y12264D01*
X3273Y12216D01*
X3225Y12145D01*
X3209Y12060D01*
X3225Y11975D01*
X3273Y11904D01*
X3345Y11856D01*
X3373Y11850D01*
Y11050D01*
X3300D01*
Y10750D01*
X4175D01*
X5050D01*
Y11050D01*
X5165Y11079D01*
X7196D01*
X7232Y11044D01*
X7303Y10996D01*
X7388Y10979D01*
X9395D01*
X9479Y10996D01*
X9551Y11044D01*
X9792Y11284D01*
X9840Y11356D01*
X9851Y11414D01*
X10043D01*
X10065Y11410D01*
X10432D01*
X11244Y10599D01*
X11315Y10551D01*
X11400Y10534D01*
X13128D01*
X13669Y9993D01*
Y9094D01*
X14929D01*
Y10306D01*
X14007D01*
X13958Y10368D01*
X14015Y10494D01*
X14929D01*
Y11706D01*
X13982D01*
X12531Y13156D01*
X12460Y13204D01*
X12375Y13221D01*
X10088D01*
X10027Y13323D01*
X10027Y13348D01*
Y13964D01*
X10305Y14242D01*
X10353Y14314D01*
X10370Y14398D01*
Y14410D01*
X10441Y14440D01*
X10560Y14559D01*
X10625Y14715D01*
Y14885D01*
X10560Y15041D01*
X10441Y15160D01*
X10285Y15225D01*
X10294Y15348D01*
X10502D01*
Y15779D01*
X10645D01*
X10730Y15796D01*
X10745Y15806D01*
X10813Y15777D01*
X10982D01*
X11138Y15842D01*
X11258Y15962D01*
X11323Y16118D01*
Y16287D01*
X11258Y16443D01*
X11138Y16563D01*
X10982Y16627D01*
X10813D01*
X10657Y16563D01*
X10629Y16535D01*
X10502Y16587D01*
Y16652D01*
D02*
G37*
G36*
X2650Y16400D02*
X1600D01*
Y15400D01*
X2650D01*
Y16400D01*
D02*
G37*
G36*
X1400D02*
X350D01*
Y15400D01*
X1400D01*
Y16400D01*
D02*
G37*
G36*
X6350Y15900D02*
X5850D01*
Y15400D01*
X6350D01*
Y15900D01*
D02*
G37*
G36*
X5650D02*
X5150D01*
Y15400D01*
X5650D01*
Y15900D01*
D02*
G37*
G36*
X9052Y16652D02*
X7898D01*
Y16541D01*
X7777Y16527D01*
Y16527D01*
X6723D01*
Y15473D01*
X7777D01*
Y15473D01*
X7898Y15459D01*
Y15348D01*
X9052D01*
Y16652D01*
D02*
G37*
G36*
X28624Y15550D02*
X28021D01*
Y14971D01*
X28624D01*
Y15550D01*
D02*
G37*
G36*
X2650Y15200D02*
X1600D01*
Y14200D01*
X2650D01*
Y15200D01*
D02*
G37*
G36*
X1400D02*
X350D01*
Y14200D01*
X1400D01*
Y15200D01*
D02*
G37*
G36*
X14525Y14300D02*
X13950D01*
Y13775D01*
X14525D01*
Y14300D01*
D02*
G37*
G36*
X13750D02*
X13175D01*
Y13775D01*
X13750D01*
Y14300D01*
D02*
G37*
G36*
X30202Y14702D02*
X29198D01*
Y13598D01*
X30202D01*
Y13708D01*
X30308Y13778D01*
X30315Y13775D01*
X30485D01*
X30641Y13840D01*
X30760Y13959D01*
X30825Y14115D01*
Y14285D01*
X30760Y14441D01*
X30641Y14560D01*
X30485Y14625D01*
X30315D01*
X30308Y14622D01*
X30202Y14692D01*
Y14702D01*
D02*
G37*
G36*
X48600Y14200D02*
X47975D01*
Y13650D01*
X48600D01*
Y14200D01*
D02*
G37*
G36*
X47552Y14102D02*
X46977D01*
Y13577D01*
X47552D01*
Y14102D01*
D02*
G37*
G36*
X45885Y15025D02*
X45715D01*
X45559Y14960D01*
X45440Y14841D01*
X45375Y14685D01*
Y14515D01*
X45440Y14359D01*
X45559Y14240D01*
X45579Y14232D01*
Y12706D01*
X45475Y12650D01*
X44900D01*
Y12025D01*
Y11400D01*
X45006D01*
X45055Y11283D01*
X44744Y10971D01*
X44696Y10900D01*
X44679Y10815D01*
Y9068D01*
X44659Y9060D01*
X44540Y8941D01*
X44475Y8785D01*
Y8615D01*
X44540Y8459D01*
X44659Y8340D01*
X44815Y8275D01*
X44985D01*
X45141Y8340D01*
X45260Y8459D01*
X45325Y8615D01*
Y8785D01*
X45260Y8941D01*
X45141Y9060D01*
X45121Y9068D01*
Y10723D01*
X45956Y11558D01*
X46004Y11630D01*
X46021Y11715D01*
Y14162D01*
X46075Y14199D01*
X46202Y14133D01*
Y13577D01*
X46777D01*
Y14202D01*
Y14827D01*
X46202D01*
X46104Y14897D01*
X46041Y14960D01*
X45885Y15025D01*
D02*
G37*
G36*
X14525Y13575D02*
X13950D01*
Y13050D01*
X14525D01*
Y13575D01*
D02*
G37*
G36*
X13750D02*
X13175D01*
Y13050D01*
X13750D01*
Y13575D01*
D02*
G37*
G36*
X30756Y13306D02*
X30177D01*
Y12750D01*
X30756D01*
Y13306D01*
D02*
G37*
G36*
X29977D02*
X29398D01*
Y12750D01*
X29977D01*
Y13306D01*
D02*
G37*
G36*
X2650Y13650D02*
X1600D01*
Y12600D01*
X2650D01*
Y13650D01*
D02*
G37*
G36*
X1400D02*
X350D01*
Y12600D01*
X1400D01*
Y13650D01*
D02*
G37*
G36*
X30756Y12550D02*
X30177D01*
Y11994D01*
X30756D01*
Y12550D01*
D02*
G37*
G36*
X29977D02*
X29398D01*
Y11994D01*
X29977D01*
Y12550D01*
D02*
G37*
G36*
X44700Y11925D02*
X44125D01*
Y11400D01*
X44700D01*
Y11925D01*
D02*
G37*
G36*
X39400Y11525D02*
X38825D01*
Y11000D01*
X39400D01*
Y11525D01*
D02*
G37*
G36*
X49277Y11252D02*
X48752D01*
Y10677D01*
X49277D01*
Y11252D01*
D02*
G37*
G36*
X18402Y11050D02*
X17823D01*
Y10494D01*
X18402D01*
Y11050D01*
D02*
G37*
G36*
X9405Y10359D02*
X9321Y10359D01*
X9000D01*
Y9600D01*
Y8841D01*
X9405D01*
X9502Y8914D01*
X10282D01*
Y10286D01*
X9502D01*
X9405Y10359D01*
D02*
G37*
G36*
X2650Y12400D02*
X1500D01*
X350D01*
Y11377D01*
X350Y11350D01*
Y11250D01*
X350Y11223D01*
Y10200D01*
X1500D01*
X2650D01*
Y11223D01*
X2650Y11250D01*
Y11350D01*
X2650Y11377D01*
Y12400D01*
D02*
G37*
G36*
X5050Y10550D02*
X4175D01*
X3300D01*
Y10250D01*
Y10100D01*
X4175D01*
X5050D01*
Y10250D01*
Y10550D01*
D02*
G37*
G36*
X38452Y10877D02*
X37577D01*
Y10027D01*
X38452D01*
Y10877D01*
D02*
G37*
G36*
X49277Y10477D02*
X48752D01*
Y9902D01*
X49277D01*
Y10477D01*
D02*
G37*
G36*
X48552D02*
X48027D01*
Y9902D01*
X48552D01*
Y10477D01*
D02*
G37*
G36*
X2650Y10000D02*
X1600D01*
Y8950D01*
X2650D01*
Y10000D01*
D02*
G37*
G36*
X1400D02*
X350D01*
Y8950D01*
X1400D01*
Y10000D01*
D02*
G37*
G36*
X8395Y10359D02*
X8298Y10286D01*
X7518D01*
Y8914D01*
X8298D01*
X8395Y8841D01*
X8479Y8841D01*
X8800D01*
Y9600D01*
Y10359D01*
X8395D01*
D02*
G37*
G36*
X5050Y9900D02*
X4175D01*
X3300D01*
Y9600D01*
X3523D01*
X3571Y9483D01*
X3569Y9480D01*
X3500Y9315D01*
Y9135D01*
X3569Y8970D01*
X3695Y8844D01*
X3861Y8775D01*
X4040D01*
X4205Y8844D01*
X4332Y8970D01*
X4400Y9135D01*
Y9315D01*
X4332Y9480D01*
X4329Y9483D01*
X4377Y9600D01*
X5050D01*
Y9900D01*
D02*
G37*
G36*
X49452Y8302D02*
X48877D01*
Y7727D01*
X49452D01*
Y8302D01*
D02*
G37*
G36*
X48677D02*
X48102D01*
Y7727D01*
X48677D01*
Y8302D01*
D02*
G37*
G36*
X2650Y8400D02*
X1600D01*
Y7400D01*
X2650D01*
Y8400D01*
D02*
G37*
G36*
X1400D02*
X350D01*
Y7400D01*
X1400D01*
Y8400D01*
D02*
G37*
G36*
X49452Y7527D02*
X48877D01*
Y6952D01*
X49452D01*
Y7527D01*
D02*
G37*
G36*
X48677D02*
X48102D01*
Y6952D01*
X48677D01*
Y7527D01*
D02*
G37*
G36*
X29485Y9558D02*
X29315D01*
X29159Y9493D01*
X29040Y9374D01*
X28975Y9218D01*
Y9048D01*
X29040Y8892D01*
X29159Y8773D01*
X29179Y8765D01*
Y7468D01*
X29159Y7460D01*
X29040Y7341D01*
X28975Y7185D01*
Y7015D01*
X29040Y6859D01*
X29159Y6740D01*
X29315Y6675D01*
X29485D01*
X29641Y6740D01*
X29760Y6859D01*
X29825Y7015D01*
Y7185D01*
X29760Y7341D01*
X29641Y7460D01*
X29621Y7468D01*
Y8765D01*
X29641Y8773D01*
X29760Y8892D01*
X29825Y9048D01*
Y9218D01*
X29760Y9374D01*
X29641Y9493D01*
X29485Y9558D01*
D02*
G37*
G36*
X2650Y7200D02*
X1600D01*
Y6200D01*
X2650D01*
Y7200D01*
D02*
G37*
G36*
X1400D02*
X350D01*
Y6200D01*
X1400D01*
Y7200D01*
D02*
G37*
G36*
X24630Y3987D02*
X24370D01*
X24119Y3920D01*
X23894Y3790D01*
X23710Y3606D01*
X23580Y3381D01*
X23513Y3130D01*
Y2870D01*
X23580Y2619D01*
X23710Y2394D01*
X23894Y2210D01*
X24119Y2080D01*
X24370Y2013D01*
X24630D01*
X24881Y2080D01*
X25106Y2210D01*
X25290Y2394D01*
X25420Y2619D01*
X25487Y2870D01*
Y3130D01*
X25420Y3381D01*
X25290Y3606D01*
X25106Y3790D01*
X24881Y3920D01*
X24630Y3987D01*
D02*
G37*
G36*
X19630D02*
X19370D01*
X19119Y3920D01*
X18894Y3790D01*
X18710Y3606D01*
X18580Y3381D01*
X18513Y3130D01*
Y2870D01*
X18580Y2619D01*
X18710Y2394D01*
X18894Y2210D01*
X19119Y2080D01*
X19370Y2013D01*
X19630D01*
X19881Y2080D01*
X20106Y2210D01*
X20290Y2394D01*
X20420Y2619D01*
X20487Y2870D01*
Y3130D01*
X20420Y3381D01*
X20290Y3606D01*
X20106Y3790D01*
X19881Y3920D01*
X19630Y3987D01*
D02*
G37*
G36*
X17130D02*
X16870D01*
X16619Y3920D01*
X16394Y3790D01*
X16210Y3606D01*
X16080Y3381D01*
X16013Y3130D01*
Y2870D01*
X16080Y2619D01*
X16210Y2394D01*
X16394Y2210D01*
X16619Y2080D01*
X16870Y2013D01*
X17130D01*
X17381Y2080D01*
X17606Y2210D01*
X17790Y2394D01*
X17920Y2619D01*
X17987Y2870D01*
Y3130D01*
X17920Y3381D01*
X17790Y3606D01*
X17606Y3790D01*
X17381Y3920D01*
X17130Y3987D01*
D02*
G37*
G36*
X14630D02*
X14370D01*
X14119Y3920D01*
X13894Y3790D01*
X13710Y3606D01*
X13580Y3381D01*
X13512Y3130D01*
Y2870D01*
X13580Y2619D01*
X13710Y2394D01*
X13894Y2210D01*
X14119Y2080D01*
X14370Y2013D01*
X14630D01*
X14881Y2080D01*
X15106Y2210D01*
X15290Y2394D01*
X15420Y2619D01*
X15488Y2870D01*
Y3130D01*
X15420Y3381D01*
X15290Y3606D01*
X15106Y3790D01*
X14881Y3920D01*
X14630Y3987D01*
D02*
G37*
%LPD*%
G36*
X34512Y37055D02*
X34681D01*
X34685Y37056D01*
X36096Y35646D01*
X36167Y35598D01*
X36252Y35581D01*
X36557D01*
X36560Y35575D01*
X36593Y35553D01*
Y35401D01*
X36560Y35379D01*
X36491Y35275D01*
X36466Y35152D01*
X36491Y35029D01*
X36545Y34948D01*
X36560Y34925D01*
X36527Y34795D01*
X36508Y34782D01*
X36422Y34653D01*
X36412Y34602D01*
X38341D01*
X38331Y34653D01*
X38245Y34782D01*
X38226Y34795D01*
X38221Y34816D01*
X38285Y34931D01*
X38338D01*
X38423Y34948D01*
X38495Y34996D01*
X39372Y35873D01*
X39489Y35824D01*
Y35604D01*
X39506Y35519D01*
X39554Y35448D01*
X39872Y35130D01*
X39892Y35029D01*
X39961Y34925D01*
X39949Y34793D01*
X39920Y34764D01*
X39769Y34768D01*
X39725Y34815D01*
Y34985D01*
X39660Y35141D01*
X39541Y35260D01*
X39385Y35325D01*
X39215D01*
X39059Y35260D01*
X38940Y35141D01*
X38875Y34985D01*
Y34815D01*
X38940Y34659D01*
X39059Y34540D01*
X39215Y34475D01*
X39385D01*
X39404Y34483D01*
X39542Y34346D01*
X39613Y34298D01*
X39698Y34281D01*
X39957D01*
X39961Y34275D01*
X40065Y34205D01*
X40188Y34181D01*
X41367D01*
X41489Y34205D01*
X41583Y34268D01*
X41636Y34255D01*
X41710Y34220D01*
Y33870D01*
X41583Y33802D01*
X41580Y33804D01*
X41495Y33821D01*
X34396D01*
X33344Y34873D01*
X33273Y34921D01*
X33246Y34926D01*
X32698Y35474D01*
X32740Y35612D01*
X32748Y35614D01*
X32829Y35668D01*
X32852Y35683D01*
X32982Y35650D01*
X32995Y35631D01*
X33124Y35545D01*
X33175Y35535D01*
Y36500D01*
X33375D01*
Y35535D01*
X33426Y35545D01*
X33491Y35525D01*
X33534Y35422D01*
X33653Y35302D01*
X33810Y35237D01*
X33979D01*
X34114Y35293D01*
X34207Y35256D01*
X34243Y35233D01*
X34246Y35223D01*
X34248Y35149D01*
X34140Y35041D01*
X34075Y34885D01*
Y34715D01*
X34140Y34559D01*
X34259Y34440D01*
X34415Y34375D01*
X34585D01*
X34741Y34440D01*
X34860Y34559D01*
X34925Y34715D01*
Y34885D01*
X34860Y35041D01*
X34741Y35160D01*
X34721Y35168D01*
Y36442D01*
X34704Y36526D01*
X34656Y36598D01*
X34313Y36942D01*
X34324Y37001D01*
X34464Y37075D01*
X34512Y37055D01*
D02*
G37*
G36*
X46748Y34173D02*
X47519D01*
X47568Y34056D01*
X47366Y33854D01*
X46675D01*
Y32700D01*
X47679D01*
Y33532D01*
X47759Y33597D01*
X47875Y33547D01*
Y32700D01*
X48566D01*
X48846Y32421D01*
X48917Y32373D01*
X49002Y32356D01*
X49162D01*
X49201Y32249D01*
X49203Y32229D01*
X48847Y31873D01*
X48679D01*
Y32254D01*
X46875D01*
Y31050D01*
X48679D01*
Y31431D01*
X48939D01*
X49023Y31448D01*
X49095Y31496D01*
X49446Y31846D01*
X49503Y31849D01*
X49576Y31841D01*
X49624Y31729D01*
X49602Y31695D01*
X49591Y31637D01*
X48306Y30352D01*
X48258Y30280D01*
X48241Y30196D01*
Y29904D01*
X46875D01*
X46798Y29999D01*
Y30573D01*
X46781Y30658D01*
X46733Y30729D01*
X45521Y31942D01*
Y33232D01*
X45541Y33240D01*
X45660Y33359D01*
X45725Y33515D01*
Y33685D01*
X45660Y33841D01*
X45541Y33960D01*
X45385Y34025D01*
X45215D01*
X45059Y33960D01*
X44940Y33841D01*
X44875Y33685D01*
Y33515D01*
X44940Y33359D01*
X45059Y33240D01*
X45079Y33232D01*
Y32865D01*
X44952Y32812D01*
X44874Y32889D01*
X44718Y32954D01*
X44549D01*
X44393Y32889D01*
X44273Y32770D01*
X44217Y32634D01*
X44091Y32580D01*
X43618Y33053D01*
Y33401D01*
X43745Y33454D01*
X43759Y33440D01*
X43915Y33375D01*
X44085D01*
X44241Y33440D01*
X44360Y33559D01*
X44425Y33715D01*
Y33885D01*
X44360Y34041D01*
X44355Y34046D01*
X44408Y34173D01*
X46206D01*
Y34518D01*
X46748D01*
Y34173D01*
D02*
G37*
G36*
X44316Y29674D02*
Y28110D01*
X44333Y28025D01*
X44381Y27953D01*
X44418Y27916D01*
X44374Y27826D01*
X44353Y27802D01*
X44192D01*
X44036Y27737D01*
X43917Y27618D01*
X43906Y27592D01*
X43779Y27617D01*
Y28054D01*
X43719D01*
X43694Y28100D01*
X43771Y28227D01*
X43852D01*
Y28752D01*
X42502D01*
Y28227D01*
X42629D01*
X42706Y28100D01*
X42681Y28054D01*
X42575D01*
Y27307D01*
X42539Y27253D01*
X42522Y27168D01*
Y26387D01*
X42477Y26334D01*
Y25602D01*
X42277D01*
Y26334D01*
X42232Y26387D01*
Y26950D01*
X42279D01*
Y27447D01*
X42298Y27492D01*
Y27662D01*
X42279Y27707D01*
Y28054D01*
X41075D01*
Y27992D01*
X40948Y27944D01*
X40827Y27994D01*
X40773Y28119D01*
X40793Y28140D01*
X40835Y28203D01*
X40850Y28277D01*
Y29373D01*
X40945Y29450D01*
X40977Y29455D01*
X41002Y29433D01*
Y28952D01*
X41577D01*
Y29477D01*
X41288D01*
X41263Y29604D01*
X41365Y29646D01*
X41508Y29789D01*
X41585Y29976D01*
Y30178D01*
X41508Y30365D01*
X41365Y30508D01*
X41243Y30558D01*
Y30696D01*
X41365Y30746D01*
X41508Y30889D01*
X41585Y31076D01*
Y31278D01*
X41508Y31465D01*
X41365Y31608D01*
X41243Y31658D01*
Y31796D01*
X41365Y31846D01*
X41508Y31989D01*
X41585Y32176D01*
Y32225D01*
X41712Y32278D01*
X44316Y29674D01*
D02*
G37*
G36*
X54939Y30051D02*
Y30014D01*
X54956Y29930D01*
X55004Y29858D01*
X56123Y28738D01*
Y27294D01*
X56010Y27260D01*
Y27260D01*
X55621D01*
Y27860D01*
X55604Y27945D01*
X55556Y28016D01*
X54798Y28775D01*
Y30096D01*
X54821Y30110D01*
X54939Y30051D01*
D02*
G37*
G36*
X53959Y30102D02*
X54045Y30085D01*
X54109D01*
X54195Y30102D01*
X54229Y30124D01*
X54352Y30071D01*
X54356Y30068D01*
Y28683D01*
X54373Y28598D01*
X54421Y28527D01*
X55179Y27768D01*
Y27260D01*
X54783D01*
Y27387D01*
X54221D01*
Y28480D01*
X54204Y28565D01*
X54156Y28637D01*
X53798Y28995D01*
Y30018D01*
X53861Y30060D01*
X53910Y30134D01*
X53959Y30102D01*
D02*
G37*
G36*
X52939Y29831D02*
Y26140D01*
X52821Y26091D01*
X52356Y26556D01*
X52356Y26556D01*
X51775Y27137D01*
Y27567D01*
X52337D01*
Y28747D01*
X52733Y29143D01*
X52781Y29215D01*
X52798Y29300D01*
Y29892D01*
X52812Y29901D01*
X52939Y29831D01*
D02*
G37*
G36*
X50100Y30600D02*
X51319D01*
Y30311D01*
X51336Y30225D01*
X51356Y30195D01*
Y30069D01*
X50482Y29195D01*
X50434Y29123D01*
X50417Y29039D01*
Y28860D01*
X49544D01*
Y27694D01*
X50771D01*
Y27567D01*
X51333D01*
Y27046D01*
X51350Y26961D01*
X51398Y26889D01*
X52044Y26244D01*
X52044Y26244D01*
X53132Y25156D01*
X53203Y25108D01*
X53288Y25091D01*
X54441D01*
X56461Y23071D01*
X56532Y23023D01*
X56617Y23006D01*
X57486D01*
X58049Y22442D01*
X57995Y22317D01*
X57859Y22260D01*
X57740Y22141D01*
X57732Y22121D01*
X55617D01*
X53716Y24021D01*
X53702Y24031D01*
Y24952D01*
X52548D01*
Y23648D01*
X52727D01*
Y23225D01*
X52600Y23173D01*
X52565Y23208D01*
X52378Y23285D01*
X52176D01*
X51989Y23208D01*
X51846Y23065D01*
X51769Y22878D01*
Y22676D01*
X51808Y22582D01*
X51297Y22071D01*
X50012D01*
X49963Y22189D01*
X50082Y22308D01*
X50176Y22269D01*
X50378D01*
X50565Y22346D01*
X50708Y22489D01*
X50785Y22676D01*
Y22878D01*
X50708Y23065D01*
X50565Y23208D01*
X50378Y23285D01*
X50176D01*
X49989Y23208D01*
X49846Y23065D01*
X49769Y22878D01*
Y22676D01*
X49808Y22582D01*
X49583Y22357D01*
X49242D01*
X49242Y22357D01*
X49195Y22348D01*
X49126Y22412D01*
X49104Y22450D01*
X49116Y22510D01*
Y22864D01*
X49118Y22865D01*
X49181Y22907D01*
X49923Y23648D01*
X50802D01*
Y24079D01*
X51098D01*
Y23648D01*
X52252D01*
Y24952D01*
X51098D01*
Y24521D01*
X50802D01*
Y24952D01*
X49648D01*
Y23923D01*
X49542Y23817D01*
X49425Y23866D01*
Y24200D01*
X48775D01*
Y24300D01*
X48675D01*
Y25025D01*
X48125D01*
X48074Y25131D01*
Y27566D01*
X48057Y27651D01*
X48009Y27722D01*
X47149Y28583D01*
X47198Y28700D01*
X48679D01*
Y29666D01*
X48683Y29687D01*
Y30104D01*
X49898Y31319D01*
X50100D01*
Y30600D01*
D02*
G37*
G36*
X70900Y24790D02*
X71687Y24790D01*
Y22032D01*
X64168D01*
X63700Y22500D01*
X63700Y23400D01*
X63842Y23542D01*
X64009D01*
Y23709D01*
X65100Y24800D01*
X70851D01*
X70900Y24790D01*
D02*
G37*
G36*
X97400Y25900D02*
Y21500D01*
X96500Y20600D01*
X81000D01*
X80875Y20725D01*
X80910Y20900D01*
Y25400D01*
X80875Y25575D01*
X81000Y25700D01*
X84900D01*
X85123Y25923D01*
X85256D01*
Y26056D01*
X85800Y26600D01*
X96700D01*
X97400Y25900D01*
D02*
G37*
G36*
X75400Y28800D02*
Y27600D01*
X75798Y27202D01*
Y27173D01*
X75827D01*
X77300Y25700D01*
X80100D01*
X80400Y25400D01*
Y20900D01*
X80100Y20600D01*
X74600D01*
X73800Y21400D01*
X72500D01*
Y22000D01*
X72400Y22100D01*
Y23800D01*
X73300D01*
Y23808D01*
X73389D01*
Y24697D01*
X73103D01*
X72500Y25300D01*
X70900Y25300D01*
X70367Y25833D01*
Y26032D01*
Y28522D01*
Y29000D01*
X75200D01*
X75400Y28800D01*
D02*
G37*
G36*
X53464Y23648D02*
X55369Y21744D01*
X55440Y21696D01*
X55525Y21679D01*
X57732D01*
X57740Y21659D01*
X57859Y21540D01*
X58015Y21475D01*
X58185D01*
X58321Y21531D01*
X58448Y21481D01*
Y19878D01*
X58372Y19801D01*
X58324Y19730D01*
X58307Y19645D01*
Y14972D01*
X58189Y14923D01*
X58156Y14956D01*
X58085Y15004D01*
X58000Y15021D01*
X53392D01*
X52756Y15656D01*
X52756Y15656D01*
X52217Y16196D01*
X52225Y16215D01*
Y16385D01*
X52160Y16541D01*
X52041Y16660D01*
X51885Y16725D01*
X51715D01*
X51559Y16660D01*
X51440Y16541D01*
X51375Y16385D01*
Y16215D01*
X51440Y16059D01*
X51559Y15940D01*
X51715Y15875D01*
X51885D01*
X51904Y15883D01*
X52444Y15344D01*
X52444Y15344D01*
X53134Y14653D01*
X53029Y14495D01*
X52990Y14300D01*
Y10389D01*
X52873Y10340D01*
X51221Y11992D01*
Y13005D01*
X51204Y13089D01*
X51156Y13161D01*
X50392Y13925D01*
X50341Y14040D01*
X50460Y14159D01*
X50525Y14315D01*
Y14485D01*
X50460Y14641D01*
X50341Y14760D01*
X50185Y14825D01*
X50015D01*
X49859Y14760D01*
X49736Y14817D01*
Y15123D01*
X50096Y15483D01*
X50115Y15475D01*
X50285D01*
X50441Y15540D01*
X50560Y15659D01*
X50625Y15815D01*
Y15985D01*
X50568Y16121D01*
X50619Y16248D01*
X50806D01*
Y16756D01*
X51377D01*
X51462Y16773D01*
X51533Y16821D01*
X52455Y17742D01*
X52505Y17721D01*
X52695D01*
X52871Y17794D01*
X53006Y17929D01*
X53079Y18105D01*
Y18295D01*
X53006Y18471D01*
X52871Y18606D01*
X52695Y18679D01*
X52505D01*
X52329Y18606D01*
X52194Y18471D01*
X52121Y18295D01*
Y18105D01*
X52142Y18055D01*
X51285Y17198D01*
X50806D01*
Y17706D01*
X49348D01*
Y16432D01*
X49306Y16407D01*
X49179Y16479D01*
Y17579D01*
X48723D01*
Y17975D01*
X49054D01*
Y19179D01*
X47950D01*
Y17986D01*
X47686D01*
X47641Y18113D01*
X47702Y18259D01*
Y18428D01*
X47637Y18584D01*
X47518Y18704D01*
X47362Y18768D01*
X47279D01*
X47181Y18820D01*
X47167Y18886D01*
Y18997D01*
X47102Y19153D01*
X46982Y19273D01*
X46953Y19285D01*
X46905Y19442D01*
X46923Y19471D01*
X47067D01*
X47088Y19475D01*
X47954D01*
Y20311D01*
X48000Y20346D01*
X48127Y20283D01*
Y20177D01*
X48752D01*
X49377D01*
Y20343D01*
X49462Y20456D01*
X49800D01*
Y19775D01*
X51527D01*
Y19702D01*
X52377D01*
Y20677D01*
Y21652D01*
X52106D01*
X52041Y21779D01*
X52066Y21814D01*
X52485D01*
X52569Y21831D01*
X52641Y21879D01*
X53104Y22343D01*
X53152Y22414D01*
X53169Y22499D01*
Y23648D01*
X53464D01*
X53464Y23648D01*
D02*
G37*
G36*
X57214Y28043D02*
X57286Y27995D01*
X57370Y27979D01*
X58267D01*
Y27417D01*
X58756D01*
Y25706D01*
X58773Y25621D01*
X58821Y25549D01*
X62821Y21549D01*
X62893Y21501D01*
X62978Y21484D01*
X70400D01*
Y21181D01*
X70350Y21171D01*
X70185Y21060D01*
X70006Y20882D01*
X69896Y20717D01*
X69857Y20522D01*
Y18032D01*
Y17733D01*
X69896Y17538D01*
X69963Y17437D01*
X69896Y17310D01*
X69102D01*
X69050Y17437D01*
X69165Y17552D01*
X69213Y17624D01*
X69230Y17709D01*
Y17984D01*
X69706D01*
Y18619D01*
X68792D01*
Y18223D01*
X68788Y18201D01*
Y17800D01*
X68694Y17707D01*
X65096D01*
X64370Y18433D01*
X64298Y18481D01*
X64214Y18498D01*
X64033D01*
Y18685D01*
X62823D01*
Y17469D01*
X64033D01*
Y17965D01*
X64160Y18018D01*
X64820Y17358D01*
X64837Y17277D01*
X64820Y17196D01*
X64372Y16748D01*
X64033D01*
Y16935D01*
X62823D01*
Y15719D01*
X63259D01*
X63332Y15615D01*
X63328Y15592D01*
X63290Y15400D01*
X63290Y14500D01*
X63329Y14305D01*
X63423Y14164D01*
X63382Y14037D01*
X63160D01*
X61595Y15602D01*
X61644Y15719D01*
X62531D01*
Y16935D01*
X61321D01*
Y16748D01*
X61204Y16700D01*
X60629Y17274D01*
Y19028D01*
X60756Y19029D01*
X60773Y18944D01*
X60821Y18872D01*
X61321Y18372D01*
Y17469D01*
X62531D01*
Y18685D01*
X61634D01*
X61198Y19121D01*
Y21522D01*
X61241Y21540D01*
X61360Y21659D01*
X61425Y21815D01*
Y21985D01*
X61360Y22141D01*
X61241Y22260D01*
X61085Y22325D01*
X60915D01*
X60759Y22260D01*
X60756Y22257D01*
X60629Y22310D01*
Y23292D01*
X60612Y23377D01*
X60564Y23448D01*
X58811Y25202D01*
X58739Y25250D01*
X58654Y25267D01*
X57390D01*
X56565Y26092D01*
Y28526D01*
X56683Y28575D01*
X57214Y28043D01*
D02*
G37*
G36*
X39232Y15616D02*
X39259Y15589D01*
X39273Y15554D01*
Y15535D01*
Y14671D01*
X39081D01*
Y15535D01*
Y15554D01*
X39095Y15589D01*
X39122Y15616D01*
X39158Y15631D01*
X39196D01*
X39232Y15616D01*
D02*
G37*
G36*
X97600Y13700D02*
Y9200D01*
X97000Y8600D01*
X81000D01*
X80975Y8625D01*
X81010Y8800D01*
X81010Y12900D01*
X80975Y13075D01*
X81000Y13100D01*
X91700Y13100D01*
X93100Y14500D01*
X93564D01*
X93650Y14492D01*
X96150D01*
X96236Y14500D01*
X96800D01*
X97600Y13700D01*
D02*
G37*
G36*
X71787Y14174D02*
X71787Y14173D01*
X71778Y14129D01*
X71687Y14038D01*
Y14032D01*
X69579D01*
Y14037D01*
X64263D01*
X63800Y14500D01*
X63800Y15400D01*
X63992Y15592D01*
X64160D01*
Y15760D01*
X65200Y16800D01*
X71787D01*
Y14174D01*
D02*
G37*
G36*
X74400Y20000D02*
X93564D01*
X93650Y19992D01*
X96150D01*
X96236Y20000D01*
X96300D01*
X97200Y19100D01*
Y15800D01*
X96600Y15200D01*
X92400D01*
X90900Y13700D01*
X72900D01*
X72500Y14100D01*
Y15800D01*
X73200D01*
X73208Y15808D01*
X73389D01*
Y16697D01*
X73103D01*
X72400Y17400D01*
X70700D01*
X70367Y17733D01*
Y18032D01*
Y20522D01*
X70545Y20700D01*
X73700D01*
X74400Y20000D01*
D02*
G37*
G36*
X39427Y14274D02*
Y12300D01*
X36800D01*
Y13600D01*
X37600Y14400D01*
X39300D01*
X39427Y14274D01*
D02*
G37*
G36*
X57100Y10200D02*
X53500D01*
Y14300D01*
X57100D01*
Y10200D01*
D02*
G37*
G36*
X59259Y18140D02*
X59279Y18132D01*
Y12306D01*
X59296Y12221D01*
X59344Y12149D01*
X61171Y10322D01*
Y9419D01*
X62381D01*
Y10635D01*
X61484D01*
X59721Y12398D01*
Y18071D01*
X59780Y18113D01*
X59907Y18047D01*
Y16756D01*
X59924Y16671D01*
X59972Y16599D01*
X62912Y13659D01*
X62984Y13611D01*
X63068Y13594D01*
X64026D01*
X64068Y13566D01*
X64263Y13527D01*
X69558D01*
X69579Y13523D01*
X70022D01*
X70075Y13396D01*
X70006Y13327D01*
X69896Y13162D01*
X69857Y12967D01*
Y12522D01*
Y10032D01*
Y9533D01*
X69876Y9437D01*
X69774Y9310D01*
X68610D01*
X68557Y9437D01*
X69105Y9984D01*
X69706D01*
Y10619D01*
X68792D01*
Y10297D01*
X68202Y9707D01*
X64411D01*
X64325Y9792D01*
X64254Y9840D01*
X64169Y9857D01*
X63883D01*
Y10635D01*
X62673D01*
Y9419D01*
X63645D01*
X63666Y9415D01*
X64077D01*
X64162Y9329D01*
X64234Y9281D01*
X64278Y9273D01*
X64322Y9174D01*
X64323Y9138D01*
X64074Y8889D01*
X63666D01*
X63645Y8885D01*
X62673D01*
Y7669D01*
X63137D01*
X63218Y7542D01*
X63190Y7400D01*
X63190Y6500D01*
X63229Y6305D01*
X63323Y6164D01*
X63282Y6037D01*
X62960D01*
X61445Y7552D01*
X61494Y7669D01*
X62381D01*
Y8885D01*
X61171D01*
Y8698D01*
X61054Y8650D01*
X59029Y10674D01*
Y18204D01*
X59078Y18228D01*
X59156Y18243D01*
X59259Y18140D01*
D02*
G37*
G36*
X71687Y8522D02*
Y6032D01*
X69579D01*
Y6037D01*
X64163D01*
X63700Y6500D01*
X63700Y7400D01*
X63842Y7542D01*
X64010D01*
Y7710D01*
X65100Y8800D01*
X71687D01*
Y8522D01*
D02*
G37*
G36*
X80300Y13100D02*
X80500Y12900D01*
X80500Y8800D01*
X80300Y8600D01*
X77500D01*
X77200Y8300D01*
Y7600D01*
X76600Y7000D01*
X75900D01*
X75700Y6800D01*
Y6100D01*
X75500Y5900D01*
X72600D01*
X72400Y6100D01*
Y7800D01*
X73200D01*
X73207Y7807D01*
X73389D01*
Y8696D01*
X73104D01*
X72400Y9400D01*
X70500D01*
X70367Y9533D01*
Y10032D01*
Y12522D01*
Y12967D01*
X70500Y13100D01*
X72900D01*
X80300Y13100D01*
D02*
G37*
G36*
X83925Y6650D02*
X84761D01*
X84796Y6604D01*
X84733Y6477D01*
X84627D01*
Y5852D01*
Y5227D01*
X85071D01*
Y4679D01*
X83819Y3428D01*
X83702Y3476D01*
Y3677D01*
X83077D01*
Y3027D01*
X83253D01*
X83301Y2910D01*
X82144Y1752D01*
X69917D01*
X69916Y1879D01*
X70001Y1896D01*
X70073Y1944D01*
X71447Y3317D01*
X71494Y3389D01*
X71501Y3421D01*
X72633D01*
Y4733D01*
X69521D01*
Y3748D01*
X67779D01*
Y4129D01*
X66575D01*
Y2925D01*
X67779D01*
Y3306D01*
X69627D01*
X69712Y3323D01*
X69783Y3371D01*
X69834Y3421D01*
X70758D01*
X70807Y3304D01*
X69825Y2321D01*
X68968D01*
X68960Y2341D01*
X68841Y2460D01*
X68685Y2525D01*
X68515D01*
X68359Y2460D01*
X68240Y2341D01*
X68175Y2185D01*
Y2015D01*
X68231Y1879D01*
X68181Y1752D01*
X63184D01*
X62512Y2423D01*
X62561Y2541D01*
X63437D01*
X63522Y2558D01*
X63593Y2606D01*
X63913Y2925D01*
X64704D01*
Y3306D01*
X65075D01*
Y2925D01*
X66279D01*
Y4129D01*
X65075D01*
Y3748D01*
X64704D01*
Y4129D01*
X64802Y4198D01*
X64852D01*
Y5402D01*
X64852D01*
X64857Y5527D01*
X69558D01*
X69579Y5523D01*
X71687D01*
X71882Y5561D01*
X72048Y5672D01*
X72102Y5677D01*
X72240Y5540D01*
X72405Y5429D01*
X72600Y5390D01*
X75500D01*
X75695Y5429D01*
X75725Y5449D01*
X75852Y5381D01*
Y4952D01*
X77202D01*
Y4962D01*
X77319Y5011D01*
X77774Y4556D01*
X77721Y4429D01*
X77475D01*
Y3125D01*
X78629D01*
Y4429D01*
X78273D01*
Y4591D01*
X78256Y4675D01*
X78208Y4747D01*
X78023Y4933D01*
X78071Y5050D01*
X79116D01*
X79308Y5089D01*
X79470Y5197D01*
X79566Y5340D01*
X79691Y5335D01*
X79694Y5329D01*
X79829Y5194D01*
X80005Y5121D01*
X80195D01*
X80371Y5194D01*
X80506Y5329D01*
X80579Y5505D01*
Y5695D01*
X80506Y5871D01*
X80497Y5881D01*
X80549Y6008D01*
X80751D01*
X80803Y5881D01*
X80794Y5871D01*
X80721Y5695D01*
Y5505D01*
X80794Y5329D01*
X80929Y5194D01*
X81105Y5121D01*
X81295D01*
X81341Y5140D01*
X81446Y5069D01*
Y5060D01*
X83708D01*
Y6044D01*
X83708D01*
X83661Y6102D01*
X82577D01*
Y6302D01*
X83643D01*
X83629Y6373D01*
X83532Y6518D01*
X83534Y6670D01*
X83560Y6710D01*
X83589Y6852D01*
X83582Y6884D01*
X83706Y7008D01*
X83925D01*
Y6650D01*
D02*
G37*
G36*
X36191Y13343D02*
Y8889D01*
X33644Y6341D01*
X33596Y6270D01*
X33579Y6185D01*
Y4492D01*
X33208Y4121D01*
X32919D01*
X32885Y4248D01*
X33043Y4340D01*
X33220Y4517D01*
X33345Y4733D01*
X33410Y4975D01*
Y5225D01*
X33345Y5467D01*
X33220Y5683D01*
X33043Y5860D01*
X32827Y5985D01*
X32681Y6024D01*
Y6368D01*
X35356Y9044D01*
X35404Y9115D01*
X35421Y9200D01*
Y12739D01*
X36073Y13392D01*
X36191Y13343D01*
D02*
G37*
G36*
X62712Y5659D02*
X62784Y5611D01*
X62829Y5602D01*
X62816Y5475D01*
X62075D01*
Y4900D01*
X62750D01*
Y4700D01*
X62075D01*
Y4125D01*
X62177D01*
Y3627D01*
X62802D01*
Y3427D01*
X62177D01*
Y3321D01*
X62060Y3272D01*
X58469Y6863D01*
Y9736D01*
X58587Y9784D01*
X62712Y5659D01*
D02*
G37*
G36*
X40324Y6078D02*
Y4837D01*
X39644Y4156D01*
X39596Y4085D01*
X39579Y4000D01*
Y2992D01*
X38342Y1755D01*
X38268Y1765D01*
X38222Y1899D01*
X38300Y1977D01*
X38425Y2193D01*
X38490Y2435D01*
Y2685D01*
X38425Y2927D01*
X38300Y3143D01*
X38192Y3252D01*
X38244Y3379D01*
X38300D01*
X38385Y3396D01*
X38456Y3444D01*
X39056Y4044D01*
X39104Y4115D01*
X39121Y4200D01*
Y5041D01*
X40206Y6127D01*
X40324Y6078D01*
D02*
G37*
%LPC*%
G36*
X38341Y34402D02*
X37477D01*
Y34106D01*
X37966D01*
X38117Y34137D01*
X38245Y34222D01*
X38331Y34351D01*
X38341Y34402D01*
D02*
G37*
G36*
X37277D02*
X36412D01*
X36422Y34351D01*
X36508Y34222D01*
X36636Y34137D01*
X36787Y34106D01*
X37277D01*
Y34402D01*
D02*
G37*
G36*
X43852Y29477D02*
X43277D01*
Y28952D01*
X43852D01*
Y29477D01*
D02*
G37*
G36*
X43077D02*
X42502D01*
Y28952D01*
X43077D01*
Y29477D01*
D02*
G37*
G36*
X42352Y29477D02*
X41777D01*
Y28952D01*
X42352D01*
Y29477D01*
D02*
G37*
G36*
Y28752D02*
X41777D01*
Y28227D01*
X42352D01*
Y28752D01*
D02*
G37*
G36*
X41577D02*
X41002D01*
Y28227D01*
X41577D01*
Y28752D01*
D02*
G37*
G36*
X48875Y25025D02*
Y24400D01*
X49425D01*
Y25025D01*
X48875D01*
D02*
G37*
G36*
X53427Y21652D02*
X52577D01*
Y20777D01*
X53427D01*
Y21652D01*
D02*
G37*
G36*
Y20577D02*
X52577D01*
Y19702D01*
X53427D01*
Y20577D01*
D02*
G37*
G36*
X49377Y19977D02*
X48852D01*
Y19402D01*
X49377D01*
Y19977D01*
D02*
G37*
G36*
X48652D02*
X48127D01*
Y19402D01*
X48652D01*
Y19977D01*
D02*
G37*
G36*
X50477Y19252D02*
X49952D01*
Y18677D01*
X50477D01*
Y19252D01*
D02*
G37*
G36*
X49752D02*
X49227D01*
Y18677D01*
X49752D01*
Y19252D01*
D02*
G37*
G36*
X50477Y18477D02*
X49952D01*
Y17902D01*
X50477D01*
Y18477D01*
D02*
G37*
G36*
X49752D02*
X49227D01*
Y17902D01*
X49752D01*
Y18477D01*
D02*
G37*
G36*
X57100Y17221D02*
X53327D01*
X53243Y17204D01*
X53171Y17156D01*
X53023Y17009D01*
X52985Y17025D01*
X52815D01*
X52659Y16960D01*
X52540Y16841D01*
X52475Y16685D01*
Y16515D01*
X52540Y16359D01*
X52659Y16240D01*
X52815Y16175D01*
X52985D01*
X53141Y16240D01*
X53260Y16359D01*
X53325Y16515D01*
Y16685D01*
X53325Y16685D01*
X53419Y16779D01*
X57008D01*
X57479Y16308D01*
Y16068D01*
X57459Y16060D01*
X57340Y15941D01*
X57275Y15785D01*
Y15615D01*
X57340Y15459D01*
X57459Y15340D01*
X57615Y15275D01*
X57785D01*
X57941Y15340D01*
X58060Y15459D01*
X58125Y15615D01*
Y15785D01*
X58060Y15941D01*
X57941Y16060D01*
X57921Y16068D01*
Y16400D01*
X57904Y16485D01*
X57856Y16556D01*
X57256Y17156D01*
X57185Y17204D01*
X57100Y17221D01*
D02*
G37*
G36*
X84427Y6477D02*
X83852D01*
Y5952D01*
X84427D01*
Y6477D01*
D02*
G37*
G36*
Y5752D02*
X83852D01*
Y5227D01*
X84427D01*
Y5752D01*
D02*
G37*
G36*
X77202Y4752D02*
X76627D01*
Y4227D01*
X77202D01*
Y4752D01*
D02*
G37*
G36*
X76427D02*
X75852D01*
Y4227D01*
X76427D01*
Y4752D01*
D02*
G37*
G36*
X82252Y4527D02*
X82155Y4454D01*
X82125D01*
X80925D01*
Y3998D01*
X80079D01*
Y4429D01*
X78925D01*
Y3125D01*
X78925D01*
X78992Y3025D01*
X78975Y2985D01*
Y2815D01*
X79040Y2659D01*
X79159Y2540D01*
X79315Y2475D01*
X79485D01*
X79641Y2540D01*
X79760Y2659D01*
X79825Y2815D01*
Y2985D01*
X79811Y3019D01*
X79881Y3125D01*
X80079D01*
Y3556D01*
X80925D01*
Y3100D01*
X82155D01*
X82252Y3027D01*
X82326Y3027D01*
X82877D01*
Y3777D01*
Y4527D01*
X82326D01*
X82252Y4527D01*
D02*
G37*
G36*
X83077Y4527D02*
Y3877D01*
X83702D01*
Y4527D01*
X83077D01*
D02*
G37*
%LPD*%
G36*
X79600Y42200D02*
X76000D01*
Y46300D01*
X79600D01*
Y42200D01*
D02*
G37*
G36*
X68587Y42200D02*
X64987D01*
Y46300D01*
X68587D01*
Y42200D01*
D02*
G37*
G36*
X93400Y44300D02*
X94900Y42800D01*
X96100D01*
X98200Y40700D01*
Y34000D01*
X91400D01*
Y44300D01*
X93400Y44300D01*
D02*
G37*
G36*
X12800Y28971D02*
X12800D01*
X12715Y28954D01*
X12644Y28906D01*
X12544Y28806D01*
X12496Y28735D01*
X12479Y28650D01*
X12496Y28565D01*
X12544Y28494D01*
X12615Y28446D01*
X12700Y28429D01*
X12800Y28319D01*
Y27800D01*
X12500Y27500D01*
X9500D01*
X7900Y29100D01*
Y31100D01*
X12800D01*
X12800Y28971D01*
D02*
G37*
G36*
X23608Y23922D02*
X23656Y23850D01*
X23970Y23536D01*
X24042Y23488D01*
X24127Y23471D01*
X26050D01*
Y22725D01*
Y21748D01*
X25265D01*
X24317Y22696D01*
X24325Y22715D01*
Y22885D01*
X24260Y23041D01*
X24141Y23160D01*
X23985Y23225D01*
X23815D01*
X23659Y23160D01*
X23540Y23041D01*
X23475Y22885D01*
Y22715D01*
X23540Y22559D01*
X23659Y22440D01*
X23815Y22375D01*
X23985D01*
X24004Y22383D01*
X25017Y21371D01*
X25088Y21323D01*
X25173Y21306D01*
X26050D01*
Y21125D01*
X25915D01*
X25759Y21060D01*
X25640Y20941D01*
X25632Y20921D01*
X19877D01*
X16965Y23833D01*
X17014Y23950D01*
X22383D01*
X22432Y23823D01*
X22375Y23685D01*
Y23515D01*
X22440Y23359D01*
X22559Y23240D01*
X22715Y23175D01*
X22885D01*
X23041Y23240D01*
X23160Y23359D01*
X23225Y23515D01*
Y23685D01*
X23168Y23823D01*
X23217Y23950D01*
X23602D01*
X23608Y23922D01*
D02*
G37*
G36*
X30890Y21951D02*
X30833Y21829D01*
X30276D01*
Y21150D01*
X30076D01*
Y21829D01*
X29473D01*
Y21777D01*
X29354Y21756D01*
X29346Y21756D01*
X28094D01*
Y20544D01*
X28433D01*
Y20277D01*
X27873D01*
X27804Y20375D01*
Y21125D01*
Y21925D01*
Y22906D01*
X29936D01*
X30890Y21951D01*
D02*
G37*
G36*
X25412Y12546D02*
X25941D01*
X27894Y10594D01*
X28179Y10308D01*
Y7192D01*
X27203Y6216D01*
X24881D01*
X24833Y6333D01*
X25717Y7217D01*
X25840Y7196D01*
X25861Y7182D01*
X25980Y6977D01*
X26157Y6800D01*
X26373Y6675D01*
X26615Y6610D01*
X26865D01*
X27107Y6675D01*
X27323Y6800D01*
X27500Y6977D01*
X27625Y7193D01*
X27690Y7435D01*
Y7685D01*
X27625Y7927D01*
X27500Y8143D01*
X27323Y8320D01*
X27107Y8445D01*
X26865Y8510D01*
X26615D01*
X26373Y8445D01*
X26157Y8320D01*
X25980Y8143D01*
X25855Y7927D01*
X25809Y7754D01*
X25720D01*
X25635Y7738D01*
X25564Y7690D01*
X25254Y7381D01*
X25150Y7456D01*
Y7685D01*
X25085Y7927D01*
X24960Y8143D01*
X24783Y8320D01*
X24567Y8445D01*
X24325Y8510D01*
X24075D01*
X23833Y8445D01*
X23703Y8370D01*
X23454Y8619D01*
Y9336D01*
X23572Y9385D01*
X23617Y9340D01*
X23833Y9215D01*
X24075Y9150D01*
X24325D01*
X24567Y9215D01*
X24783Y9340D01*
X24960Y9517D01*
X25085Y9733D01*
X25150Y9975D01*
Y10225D01*
X25085Y10467D01*
X24960Y10683D01*
X24783Y10860D01*
X24567Y10985D01*
X24463Y11013D01*
Y12550D01*
X25391D01*
X25412Y12546D01*
D02*
G37*
%LPC*%
G36*
X11500Y30724D02*
X11415Y30707D01*
X11344Y30659D01*
X11341Y30656D01*
X11293Y30585D01*
X11276Y30500D01*
X11293Y30415D01*
X11341Y30344D01*
X11412Y30296D01*
X11497Y30279D01*
X11582Y30296D01*
X11653Y30344D01*
X11656Y30347D01*
X11704Y30418D01*
X11721Y30503D01*
X11704Y30588D01*
X11656Y30659D01*
X11585Y30707D01*
X11500Y30724D01*
D02*
G37*
G36*
X12250Y29971D02*
X12165Y29954D01*
X12094Y29906D01*
X12046Y29835D01*
X12029Y29750D01*
X12046Y29665D01*
X12094Y29594D01*
X12165Y29546D01*
X12250Y29529D01*
X12335Y29546D01*
X12406Y29594D01*
X12454Y29665D01*
X12471Y29750D01*
X12454Y29835D01*
X12406Y29906D01*
X12335Y29954D01*
X12250Y29971D01*
D02*
G37*
G36*
X8750D02*
X8665Y29954D01*
X8594Y29906D01*
X8546Y29835D01*
X8529Y29750D01*
Y29400D01*
X8546Y29315D01*
X8594Y29244D01*
X8665Y29196D01*
X8750Y29179D01*
X8835Y29196D01*
X8906Y29244D01*
X8954Y29315D01*
X8971Y29400D01*
Y29750D01*
X8954Y29835D01*
X8906Y29906D01*
X8835Y29954D01*
X8750Y29971D01*
D02*
G37*
G36*
X11500Y29221D02*
X11415Y29204D01*
X11344Y29156D01*
X11296Y29085D01*
X11279Y29000D01*
Y29000D01*
X11296Y28915D01*
X11344Y28844D01*
X11415Y28796D01*
X11500Y28779D01*
X11585Y28796D01*
X11656Y28844D01*
X11704Y28915D01*
X11721Y29000D01*
Y29000D01*
X11704Y29085D01*
X11656Y29156D01*
X11585Y29204D01*
X11500Y29221D01*
D02*
G37*
%LPD*%
G36*
X13669Y11393D02*
Y10785D01*
X13552Y10736D01*
X13376Y10912D01*
X13305Y10960D01*
X13220Y10976D01*
X11492D01*
X10680Y11788D01*
X10609Y11836D01*
X10524Y11852D01*
X10282D01*
Y12779D01*
X12283D01*
X13669Y11393D01*
D02*
G37*
G36*
G01X57438Y31704D02*
G01Y31450D01*
G01X56644D01*
G02X56549Y31545I0J95D01*
G01Y31609D01*
G02X56644Y31704I95J0D01*
G01X57438D01*
D02*
G37*
D10*
X8475Y16000D02*
D03*
X9925D02*
D03*
X8475Y17500D02*
D03*
X9925D02*
D03*
X8475Y19000D02*
D03*
X9925D02*
D03*
X8475Y20500D02*
D03*
X9925D02*
D03*
X8475Y25200D02*
D03*
X9925D02*
D03*
X48775Y24300D02*
D03*
X50225D02*
D03*
X51675D02*
D03*
X53125D02*
D03*
X9925Y26800D02*
D03*
X8475D02*
D03*
X9925Y22000D02*
D03*
X8475D02*
D03*
X9925Y23600D02*
D03*
X8475D02*
D03*
X78052Y3777D02*
D03*
X79502D02*
D03*
X78052Y30027D02*
D03*
X79502D02*
D03*
D11*
X5750Y26800D02*
D03*
X7250D02*
D03*
X7250Y16000D02*
D03*
X5750D02*
D03*
X7250Y17500D02*
D03*
X5750D02*
D03*
X7250Y20500D02*
D03*
X5750D02*
D03*
X7250Y19000D02*
D03*
X5750D02*
D03*
X7250Y23600D02*
D03*
X5750D02*
D03*
X7250Y25200D02*
D03*
X5750D02*
D03*
X5750Y22000D02*
D03*
X7250D02*
D03*
D12*
X11750Y27954D02*
D03*
Y26500D02*
D03*
X9000Y34023D02*
D03*
Y35477D02*
D03*
X12250Y17877D02*
D03*
Y16423D02*
D03*
D13*
X12900Y28750D02*
D03*
X14250D02*
D03*
X32475Y28150D02*
D03*
X33825D02*
D03*
X28350Y24850D02*
D03*
X27000D02*
D03*
X13925Y20150D02*
D03*
X12575D02*
D03*
X64152Y3527D02*
D03*
X62802D02*
D03*
X47302Y10577D02*
D03*
X48652D02*
D03*
X48502Y18577D02*
D03*
X49852D02*
D03*
X52302Y40477D02*
D03*
X53652D02*
D03*
X35402Y25877D02*
D03*
X36752D02*
D03*
X35275Y22050D02*
D03*
X36625D02*
D03*
X35375Y17350D02*
D03*
X36725D02*
D03*
X48752Y20077D02*
D03*
X47402D02*
D03*
X36600Y20650D02*
D03*
X35250D02*
D03*
D14*
X55300Y12250D02*
D03*
Y3550D02*
D03*
X77800Y44250D02*
D03*
Y35550D02*
D03*
X66800Y44250D02*
D03*
Y35550D02*
D03*
D15*
X31975Y39900D02*
D03*
X32625D02*
D03*
X33275D02*
D03*
X32625Y36500D02*
D03*
X31975D02*
D03*
X33275D02*
D03*
X31325Y39900D02*
D03*
D16*
Y36500D02*
D03*
D17*
X40777Y36452D02*
D03*
X37377Y34502D02*
D03*
Y35802D02*
D03*
Y35152D02*
D03*
X40777Y34502D02*
D03*
Y35152D02*
D03*
Y35802D02*
D03*
D18*
X37377Y36452D02*
D03*
D19*
X42777Y39652D02*
D03*
Y41102D02*
D03*
X39777Y39652D02*
D03*
Y41102D02*
D03*
X36777Y39627D02*
D03*
Y41077D02*
D03*
X49277Y39252D02*
D03*
Y40702D02*
D03*
X48700Y15750D02*
D03*
Y14300D02*
D03*
D20*
X41277Y39627D02*
D03*
Y41127D02*
D03*
X38277Y39627D02*
D03*
Y41127D02*
D03*
X35277Y39627D02*
D03*
Y41127D02*
D03*
X23377Y41177D02*
D03*
Y39677D02*
D03*
X47277Y7627D02*
D03*
Y9127D02*
D03*
X48777Y9127D02*
D03*
Y7627D02*
D03*
X21877Y41177D02*
D03*
Y39677D02*
D03*
X27877Y41177D02*
D03*
Y39677D02*
D03*
X24877Y41177D02*
D03*
Y39677D02*
D03*
X26377Y41177D02*
D03*
Y39677D02*
D03*
X20377Y41177D02*
D03*
Y39677D02*
D03*
D21*
X35477Y37977D02*
D03*
X36677D02*
D03*
X38477Y37977D02*
D03*
X39677D02*
D03*
X42677D02*
D03*
X41477D02*
D03*
X47177Y33277D02*
D03*
X48377D02*
D03*
D22*
X47777Y37252D02*
D03*
Y34902D02*
D03*
X45177Y37252D02*
D03*
Y34902D02*
D03*
X47777Y31652D02*
D03*
Y29302D02*
D03*
D23*
X8750Y29400D02*
D03*
Y32000D02*
D03*
D24*
X88000Y43400D02*
D03*
X92400D02*
D03*
D25*
X61776Y10027D02*
D03*
X63278D02*
D03*
X61776Y8277D02*
D03*
X63278D02*
D03*
X63428Y18077D02*
D03*
X61926D02*
D03*
X63428Y16327D02*
D03*
X61926D02*
D03*
X63278Y26027D02*
D03*
X61776D02*
D03*
X63277Y24277D02*
D03*
X61775D02*
D03*
D26*
X31000Y27550D02*
D03*
X25150Y33350D02*
D03*
X31000D02*
D03*
X30350D02*
D03*
X29700D02*
D03*
X29050D02*
D03*
X28400D02*
D03*
X27750D02*
D03*
X27100D02*
D03*
X26450D02*
D03*
X25800D02*
D03*
X30350Y27550D02*
D03*
X29700D02*
D03*
X29050D02*
D03*
X28400D02*
D03*
X27750D02*
D03*
X27100D02*
D03*
X26450D02*
D03*
X25800D02*
D03*
X25150D02*
D03*
D27*
X41077Y31177D02*
D03*
Y30077D02*
D03*
X52277Y22777D02*
D03*
X50277D02*
D03*
X48277D02*
D03*
X33277Y11977D02*
D03*
X33277Y15727D02*
D03*
X33277Y13227D02*
D03*
X33277Y18227D02*
D03*
X33277Y14477D02*
D03*
X33277Y16977D02*
D03*
X33277Y21977D02*
D03*
X33277Y20727D02*
D03*
X33277Y19477D02*
D03*
X33277Y23227D02*
D03*
X41077Y32277D02*
D03*
D28*
X76527Y4852D02*
D03*
Y6202D02*
D03*
Y29202D02*
D03*
Y27852D02*
D03*
X17550Y38175D02*
D03*
Y39525D02*
D03*
X8500Y42675D02*
D03*
Y41325D02*
D03*
X13850Y18300D02*
D03*
Y16950D02*
D03*
X13850Y21575D02*
D03*
Y22925D02*
D03*
X29700Y40375D02*
D03*
Y39025D02*
D03*
X42977Y34802D02*
D03*
Y36152D02*
D03*
X35477Y29552D02*
D03*
Y28202D02*
D03*
X43177Y28852D02*
D03*
Y27502D02*
D03*
X39500Y11625D02*
D03*
Y12975D02*
D03*
X44800Y12025D02*
D03*
Y13375D02*
D03*
X46877Y15552D02*
D03*
Y14202D02*
D03*
X41677Y27502D02*
D03*
Y28852D02*
D03*
X84527Y7202D02*
D03*
Y5852D02*
D03*
X84527Y27952D02*
D03*
Y26602D02*
D03*
X13850Y13675D02*
D03*
Y15025D02*
D03*
D29*
X9425Y13800D02*
D03*
X7775D02*
D03*
X38502Y31377D02*
D03*
X36852D02*
D03*
D30*
X8900Y12100D02*
D03*
X7950D02*
D03*
X9850D02*
D03*
Y9600D02*
D03*
X7950D02*
D03*
X8900D02*
D03*
D31*
X4175Y12600D02*
D03*
Y11950D02*
D03*
Y11300D02*
D03*
Y10000D02*
D03*
Y10650D02*
D03*
D32*
X1500Y12500D02*
D03*
Y10100D02*
D03*
D33*
Y15300D02*
D03*
Y7300D02*
D03*
D34*
X20850Y28400D02*
D03*
Y32700D02*
D03*
D35*
X10550Y37845D02*
D03*
Y39115D02*
D03*
Y40385D02*
D03*
X15950Y41655D02*
D03*
Y37845D02*
D03*
Y39115D02*
D03*
X10550Y41655D02*
D03*
X15950Y40385D02*
D03*
D36*
X11250Y33000D02*
D03*
Y30700D02*
D03*
Y35300D02*
D03*
D37*
X17250Y33000D02*
D03*
D38*
X15701Y11100D02*
D03*
X14299D02*
D03*
X15701Y9700D02*
D03*
X14299D02*
D03*
D39*
X33800Y29550D02*
D03*
X32500D02*
D03*
X36684Y24635D02*
D03*
X35385D02*
D03*
X28400Y14150D02*
D03*
X29700D02*
D03*
D40*
X28623Y12650D02*
D03*
X30077D02*
D03*
X19177Y11150D02*
D03*
X17723D02*
D03*
D41*
X30176Y15650D02*
D03*
X28724D02*
D03*
X28724Y21150D02*
D03*
X30176D02*
D03*
X24803Y38127D02*
D03*
X23351D02*
D03*
X27929Y38127D02*
D03*
X26477D02*
D03*
X21677D02*
D03*
X20225D02*
D03*
D42*
X23850Y31624D02*
D03*
Y33076D02*
D03*
X23950Y28024D02*
D03*
Y29476D02*
D03*
D43*
X30300Y17250D02*
D03*
X28600Y19450D02*
D03*
X30300D02*
D03*
X28600Y17250D02*
D03*
D44*
X15527Y17527D02*
D03*
Y18327D02*
D03*
Y19127D02*
D03*
Y19927D02*
D03*
Y20727D02*
D03*
Y21527D02*
D03*
X26927Y23127D02*
D03*
Y22327D02*
D03*
Y21527D02*
D03*
Y20727D02*
D03*
Y19927D02*
D03*
Y19127D02*
D03*
Y18327D02*
D03*
Y15927D02*
D03*
Y15127D02*
D03*
X15527Y15927D02*
D03*
Y22327D02*
D03*
X26927Y17527D02*
D03*
X15527Y15127D02*
D03*
Y16727D02*
D03*
Y23127D02*
D03*
X26927Y16727D02*
D03*
D45*
X17227Y24827D02*
D03*
X18027D02*
D03*
X18827D02*
D03*
X19627D02*
D03*
X20427D02*
D03*
X21227D02*
D03*
X22027D02*
D03*
X22827D02*
D03*
X23627D02*
D03*
X25227Y13427D02*
D03*
X24427D02*
D03*
X23627D02*
D03*
X22827D02*
D03*
X22027D02*
D03*
X21227D02*
D03*
X19627D02*
D03*
X18827D02*
D03*
X18027D02*
D03*
X17227D02*
D03*
X25227Y24827D02*
D03*
X20427Y13427D02*
D03*
X24427Y24827D02*
D03*
D46*
X56993Y33077D02*
D03*
Y33577D02*
D03*
Y34077D02*
D03*
Y34577D02*
D03*
Y35077D02*
D03*
Y36577D02*
D03*
X50161D02*
D03*
Y36077D02*
D03*
Y35577D02*
D03*
Y34577D02*
D03*
Y33577D02*
D03*
Y32577D02*
D03*
Y32077D02*
D03*
Y31577D02*
D03*
X56993Y32577D02*
D03*
Y35577D02*
D03*
Y36077D02*
D03*
D47*
X56077Y37493D02*
D03*
X55577D02*
D03*
X55077D02*
D03*
X54577D02*
D03*
X54077D02*
D03*
X53077D02*
D03*
X52577D02*
D03*
X52077D02*
D03*
X51577D02*
D03*
Y30661D02*
D03*
X52077D02*
D03*
X52577D02*
D03*
X53577D02*
D03*
X54077D02*
D03*
X54577D02*
D03*
X55577D02*
D03*
X56077D02*
D03*
X51077Y37493D02*
D03*
X53577D02*
D03*
D48*
Y34077D02*
D03*
D49*
X38551Y15777D02*
D03*
D50*
X38551Y16177D02*
D03*
Y16577D02*
D03*
Y17777D02*
D03*
Y18177D02*
D03*
Y18577D02*
D03*
Y18977D02*
D03*
Y19377D02*
D03*
Y19777D02*
D03*
Y20177D02*
D03*
Y20577D02*
D03*
Y20977D02*
D03*
Y22977D02*
D03*
Y23377D02*
D03*
Y23777D02*
D03*
Y24177D02*
D03*
X45003Y24977D02*
D03*
Y24577D02*
D03*
Y24177D02*
D03*
Y23777D02*
D03*
Y23377D02*
D03*
Y22977D02*
D03*
Y22577D02*
D03*
Y22177D02*
D03*
Y21777D02*
D03*
Y21377D02*
D03*
Y20977D02*
D03*
Y20577D02*
D03*
Y20177D02*
D03*
Y19777D02*
D03*
Y18577D02*
D03*
Y18177D02*
D03*
Y17777D02*
D03*
Y17377D02*
D03*
Y16977D02*
D03*
Y16577D02*
D03*
Y16177D02*
D03*
Y15777D02*
D03*
X38551Y16977D02*
D03*
Y21377D02*
D03*
Y22177D02*
D03*
Y22577D02*
D03*
Y24577D02*
D03*
Y24977D02*
D03*
X45003Y19377D02*
D03*
X38551Y17377D02*
D03*
Y21777D02*
D03*
X45003Y18977D02*
D03*
D51*
X39577Y25602D02*
D03*
X39977D02*
D03*
X40377D02*
D03*
X40777D02*
D03*
X41177D02*
D03*
X41577D02*
D03*
X41977D02*
D03*
X43177D02*
D03*
X43577D02*
D03*
X43977D02*
D03*
X44377D02*
D03*
X43577Y15151D02*
D03*
X43177D02*
D03*
X42777D02*
D03*
X42377D02*
D03*
X41977D02*
D03*
X41577D02*
D03*
X41177D02*
D03*
X40777D02*
D03*
X40377D02*
D03*
X42377Y25602D02*
D03*
X44377Y15151D02*
D03*
X39977D02*
D03*
X39177Y25602D02*
D03*
X42777D02*
D03*
X43977Y15151D02*
D03*
X39577D02*
D03*
D52*
X39177Y15141D02*
D03*
D53*
X41777Y20377D02*
D03*
D54*
X64250Y4800D02*
D03*
X62750D02*
D03*
X67177Y3527D02*
D03*
X65677D02*
D03*
X50077Y16977D02*
D03*
X48577D02*
D03*
D55*
X70301Y4077D02*
D03*
X71853D02*
D03*
D56*
X33977Y25981D02*
D03*
Y24627D02*
D03*
X58977Y28200D02*
D03*
Y29554D02*
D03*
D57*
X37477Y10977D02*
D03*
Y12777D02*
D03*
D58*
X52477Y20677D02*
D03*
X50677D02*
D03*
D59*
X81577Y3777D02*
D03*
X82977D02*
D03*
X81527Y30027D02*
D03*
X82927D02*
D03*
D60*
X58746Y34500D02*
D03*
X60200D02*
D03*
X58773Y36100D02*
D03*
X60227D02*
D03*
D61*
X51554Y28277D02*
D03*
X50200D02*
D03*
X54000Y26677D02*
D03*
X55354D02*
D03*
D62*
X38602Y29627D02*
D03*
Y27527D02*
D03*
X36952Y29627D02*
D03*
Y27527D02*
D03*
D63*
X83028Y11027D02*
D03*
X78277D02*
D03*
X82903Y23027D02*
D03*
X78151D02*
D03*
D64*
X69249Y10302D02*
D03*
X72805Y12252D02*
D03*
Y11602D02*
D03*
Y10952D02*
D03*
Y10302D02*
D03*
X69249Y10952D02*
D03*
Y11602D02*
D03*
Y12252D02*
D03*
X69249Y8252D02*
D03*
Y7602D02*
D03*
Y6952D02*
D03*
Y6302D02*
D03*
X72805D02*
D03*
Y6952D02*
D03*
Y7602D02*
D03*
Y8252D02*
D03*
X69249Y18302D02*
D03*
X72805Y20252D02*
D03*
Y19602D02*
D03*
Y18952D02*
D03*
Y18302D02*
D03*
X69249Y18952D02*
D03*
Y19602D02*
D03*
Y20252D02*
D03*
X72805Y16252D02*
D03*
Y15602D02*
D03*
Y14952D02*
D03*
Y14302D02*
D03*
X69249D02*
D03*
Y14952D02*
D03*
Y15602D02*
D03*
Y16252D02*
D03*
X69249Y26302D02*
D03*
X72805Y28252D02*
D03*
Y27602D02*
D03*
Y26952D02*
D03*
Y26302D02*
D03*
X69249Y26952D02*
D03*
Y27602D02*
D03*
Y28252D02*
D03*
X72805Y24252D02*
D03*
Y23602D02*
D03*
Y22952D02*
D03*
Y22302D02*
D03*
X69249D02*
D03*
Y22952D02*
D03*
Y23602D02*
D03*
Y24252D02*
D03*
D65*
X66527Y23952D02*
D03*
Y26602D02*
D03*
X66527Y15952D02*
D03*
Y18602D02*
D03*
X66527Y7952D02*
D03*
Y10602D02*
D03*
D66*
X78477Y5552D02*
D03*
Y6202D02*
D03*
Y7502D02*
D03*
X82577D02*
D03*
Y6852D02*
D03*
Y6202D02*
D03*
X78477Y6852D02*
D03*
X78477Y26302D02*
D03*
Y26952D02*
D03*
Y28252D02*
D03*
X82577D02*
D03*
Y27602D02*
D03*
Y26952D02*
D03*
X78477Y27602D02*
D03*
D67*
X82577Y5552D02*
D03*
X82577Y26302D02*
D03*
D68*
X10000Y26800D02*
X10545D01*
X11004Y26341D01*
X11350Y23700D02*
X16389D01*
X16567Y23522D01*
X9800Y23600D02*
X10100Y23300D01*
X9925Y23600D02*
X9925Y23600D01*
X9925Y23600D02*
Y23675D01*
X10100Y23300D02*
X10800D01*
X10000Y25050D02*
X11350Y23700D01*
X10000Y25050D02*
Y25300D01*
Y22000D02*
X10900D01*
Y20700D02*
Y21000D01*
X9925Y20500D02*
X10700D01*
X10900Y20700D01*
X9925Y19000D02*
X10700D01*
X9800D02*
X9925D01*
X10948Y19548D02*
X11000Y19600D01*
X10948Y19248D02*
Y19548D01*
X10700Y19000D02*
X10948Y19248D01*
X9900Y17500D02*
Y17550D01*
X10285Y17935D01*
X10562D01*
X10627Y18000D01*
X10700D01*
X10000Y16000D02*
X10645D01*
X10847Y16202D01*
X10898D01*
X7250Y16000D02*
X8475D01*
X7250Y17500D02*
X8475D01*
X7250Y19000D02*
X8475D01*
X7250Y20500D02*
X8475D01*
X8475Y22000D02*
X8475Y22000D01*
X7250Y22000D02*
X8475D01*
X8475Y23600D02*
X8475Y23600D01*
X7250Y23600D02*
X8475D01*
X8475Y25200D02*
X8475Y25200D01*
X7250Y25200D02*
X8475D01*
X7250Y26800D02*
X8475D01*
X11000Y19527D02*
Y19600D01*
X10848Y20948D02*
X10900Y21000D01*
X7400Y41300D02*
X9303D01*
X10340Y41445D02*
X10550Y41655D01*
X9448Y41445D02*
X10340D01*
X9303Y41300D02*
X9448Y41445D01*
X12273Y21578D02*
X13211Y22515D01*
X12300Y22027D02*
Y22100D01*
Y22027D02*
X12511Y21816D01*
X11884Y17500D02*
Y17552D01*
X11348D02*
X11884D01*
X12250Y17866D02*
Y17900D01*
X12650Y18300D01*
X11884Y17500D02*
X12250Y17866D01*
X13285Y22590D02*
X13465D01*
X13000Y21500D02*
X13775D01*
X13850Y20225D02*
Y21575D01*
X13465Y22590D02*
X14002Y23127D01*
X13211Y22515D02*
X13211D01*
X13285Y22590D01*
X12273Y20452D02*
Y21578D01*
X13775Y21500D02*
X13850Y21575D01*
X15554Y19900D02*
X16800D01*
X16025Y24460D02*
X19785Y20700D01*
X12445Y24460D02*
X16025D01*
X11004Y25901D02*
X12445Y24460D01*
X11004Y25901D02*
Y26341D01*
X19785Y20700D02*
X26000D01*
X19977Y20112D02*
X23900D01*
X16567Y23522D02*
X19977Y20112D01*
X16567Y23522D02*
Y23522D01*
X14500Y41600D02*
X15900D01*
X19100Y36400D02*
X20560Y34940D01*
X21624D01*
X21860Y35100D02*
X30083D01*
X19432Y37528D02*
X21860Y35100D01*
X19432Y37528D02*
Y38953D01*
X21624Y34940D02*
X21744Y34820D01*
X29713D01*
X9610Y38435D02*
X10340D01*
X6100Y34800D02*
Y34925D01*
X9610Y38435D01*
X11497Y30500D02*
X11500Y30503D01*
X12700Y28650D02*
X12800Y28750D01*
X12900D01*
X8750Y29400D02*
Y29750D01*
X12250D02*
X12250D01*
X11500Y29000D02*
Y29000D01*
X16800Y35900D02*
X17819Y36919D01*
X11250Y35300D02*
X17005D01*
X18315Y36610D01*
X17500Y39525D02*
X18210D01*
X18315Y39420D01*
Y36610D02*
Y39420D01*
X29713Y34820D02*
X30298Y34234D01*
X15950Y39115D02*
X16160Y38905D01*
X16770D01*
X17500Y38175D01*
X17550D01*
X15950Y40385D02*
X16910D01*
X17165Y40130D01*
Y39860D02*
Y40130D01*
Y39860D02*
X17500Y39525D01*
X30298Y33402D02*
Y34234D01*
Y33402D02*
X30350Y33350D01*
X17410Y40975D02*
X19432Y38953D01*
X15055Y40975D02*
X17410D01*
X14885Y37950D02*
Y40805D01*
Y37950D02*
X14990Y37845D01*
X15950D01*
X14885Y40805D02*
X15055Y40975D01*
X30948Y34000D02*
Y34234D01*
X30083Y35100D02*
X30948Y34234D01*
X10340Y38435D02*
X10450Y38545D01*
Y39015D01*
X10550Y39115D01*
X9185Y40385D02*
X10550D01*
X6100Y37300D02*
X9185Y40385D01*
X17819Y36919D02*
Y38029D01*
X17611Y38236D02*
X17819Y38029D01*
X35954Y23731D02*
X36027D01*
X36142Y23846D01*
X49895Y13305D02*
X49900Y13300D01*
Y11800D02*
Y13300D01*
X53300Y14800D02*
X58000D01*
X51800Y16300D02*
X52600Y15500D01*
Y15500D02*
X53300Y14800D01*
X58000D02*
X58248Y14552D01*
X57700Y15700D02*
Y16400D01*
X57100Y17000D02*
X57700Y16400D01*
X52900Y16600D02*
X52927D01*
X53327Y17000D01*
X57100D01*
X50077Y16977D02*
X51377D01*
X52600Y18200D01*
X39500Y11000D02*
Y11625D01*
X39500Y11625D01*
X55354Y26677D02*
Y26700D01*
X54577Y28683D02*
Y30597D01*
Y28683D02*
X55400Y27860D01*
Y26700D02*
Y27860D01*
X52200Y26400D02*
X53288Y25312D01*
X51554Y27046D02*
Y28277D01*
Y27046D02*
X52200Y26400D01*
X38400Y1500D02*
X39800Y2900D01*
Y4000D01*
X40545Y4745D01*
X62000Y4700D02*
X62650D01*
X62750Y4800D01*
X46400Y5500D02*
X46600Y5300D01*
X47277Y7627D02*
X47662Y7242D01*
Y6362D02*
Y7242D01*
X46600Y5300D02*
X47662Y6362D01*
X71849Y25068D02*
X72665Y24252D01*
X72805D01*
X65005Y25068D02*
X71849D01*
X58977Y25706D02*
X62978Y21705D01*
X72805Y21810D02*
Y22302D01*
X72700Y21705D02*
X72805Y21810D01*
X62978Y21705D02*
X72700D01*
X67177Y3527D02*
X69627D01*
X70177Y4077D01*
X70301D01*
X76500Y4000D02*
Y4825D01*
X76527Y4852D01*
X62750Y4800D02*
X62802Y4748D01*
X27800Y25700D02*
X29600D01*
X32727Y23777D02*
Y25127D01*
X34659Y24052D02*
X34700Y24011D01*
X34480Y24052D02*
X34659D01*
X38135Y23379D02*
X38549D01*
X37613Y23391D02*
X38123D01*
X36883Y23566D02*
X37438D01*
X38123Y23391D02*
X38135Y23379D01*
X37438Y23566D02*
X37613Y23391D01*
X36586Y23269D02*
X36883Y23566D01*
X36513Y23269D02*
X36586D01*
X36142Y23846D02*
X37650D01*
X37719Y23777D01*
X38551D01*
X57457Y33043D02*
X58000Y32500D01*
X57057Y35077D02*
X57837D01*
X58334Y35574D01*
Y35684D01*
X58750Y36100D01*
X49069Y36400D02*
X49123D01*
X53543Y37591D02*
Y38133D01*
X53535Y38141D02*
X53543Y38133D01*
X53535Y38141D02*
Y38856D01*
X53877Y39199D01*
X51000Y11900D02*
X53900Y9000D01*
X51000Y11900D02*
Y13005D01*
X53900Y9000D02*
X57600D01*
X50100Y13905D02*
Y14400D01*
Y13905D02*
X51000Y13005D01*
X49900Y11800D02*
X52000Y9700D01*
X49746Y10434D02*
X49777D01*
X49604Y10577D02*
X49746Y10434D01*
X58248Y6771D02*
Y14552D01*
X57600Y7023D02*
X63092Y1531D01*
X57600Y7023D02*
Y9000D01*
X58977Y25706D02*
Y28200D01*
X58654Y25046D02*
X60408Y23292D01*
Y17182D02*
Y23292D01*
X57298Y25046D02*
X58654D01*
X60977Y19029D02*
Y21877D01*
X61000Y21900D01*
X60977Y19029D02*
X61926Y18080D01*
X60128Y16756D02*
Y22568D01*
X58216Y24480D02*
X60128Y22568D01*
X58760Y33049D02*
X60600D01*
X61776Y26027D02*
Y31873D01*
X60600Y33049D02*
X61776Y31873D01*
X57558Y31994D02*
X58852Y30700D01*
X61775Y24277D02*
Y24280D01*
X61387Y24668D02*
X61775Y24280D01*
X60832Y24668D02*
X61387D01*
X60300Y25200D02*
X60832Y24668D01*
X59700Y30700D02*
X60300Y30100D01*
Y25200D02*
Y30100D01*
X56484Y31994D02*
X57558D01*
X58852Y30700D02*
X59700D01*
X57057Y34077D02*
X57724D01*
X58246Y33563D02*
X58760Y33049D01*
X57724Y34077D02*
X58237Y33563D01*
X58246D01*
X57057Y34577D02*
X58669D01*
X58746Y34500D01*
X58750Y36100D02*
X58773D01*
X57091Y33043D02*
X57457D01*
X58344Y33069D02*
X59213Y32200D01*
X58063Y33069D02*
X58344D01*
X57589Y33543D02*
X58063Y33069D01*
X57091Y33543D02*
X57589D01*
X57057Y33577D02*
X57091Y33543D01*
X79500Y30029D02*
Y30900D01*
Y30029D02*
X79502Y30027D01*
X62802Y3527D02*
Y4748D01*
X43900Y13100D02*
X44525D01*
X44800Y13375D01*
X45800Y11715D02*
Y14600D01*
X44900Y10815D02*
X45800Y11715D01*
X43800Y13800D02*
Y13873D01*
X43577Y14096D02*
X43800Y13873D01*
X44800Y11400D02*
Y12025D01*
X44200Y10800D02*
X44800Y11400D01*
X44900Y8700D02*
Y10815D01*
X29400Y7100D02*
Y9133D01*
X28050Y10750D02*
X28400Y10400D01*
X26033Y12767D02*
X28050Y10750D01*
X28550D02*
X29000Y11200D01*
X28050Y10750D02*
X28550D01*
X48775Y24300D02*
X48900Y24425D01*
Y25200D01*
X52477Y20677D02*
X52854Y20300D01*
X53600D01*
X52477Y20677D02*
X53000Y21200D01*
X53600D01*
X50000Y18725D02*
Y19300D01*
X49852Y18577D02*
X50000Y18725D01*
X48752Y20027D02*
Y20077D01*
Y20027D02*
X49517Y19262D01*
Y18912D02*
Y19262D01*
Y18912D02*
X49852Y18577D01*
X36412Y8797D02*
Y13647D01*
X33800Y6185D02*
X36412Y8797D01*
X35200Y12831D02*
X37790Y15421D01*
X36412Y13647D02*
X37906Y15141D01*
X35200Y9200D02*
Y12831D01*
X37790Y15421D02*
X37811D01*
X37906Y15141D02*
X39177D01*
X34726Y9774D02*
Y12882D01*
X38019Y16175D02*
X38549D01*
X34726Y12882D02*
X38019Y16175D01*
X36600Y16600D02*
Y17225D01*
X36725Y17350D01*
X42977Y34802D02*
X43179Y34600D01*
X43700D01*
X43000Y36175D02*
Y36900D01*
X42977Y36152D02*
X43000Y36175D01*
X36700Y31529D02*
X36852Y31377D01*
X36700Y31529D02*
Y31900D01*
X29750Y14200D02*
X30400D01*
X29700Y14150D02*
X29750Y14200D01*
X25400Y16700D02*
X26900D01*
X26927Y16727D01*
X25727Y17377D02*
X26777D01*
X28400Y24900D02*
X29000D01*
X28990Y24085D02*
X30905Y26000D01*
X32200D01*
X28350Y24850D02*
X28400Y24900D01*
X26455Y24085D02*
X28990D01*
X63092Y1531D02*
X82236D01*
X85292Y4587D01*
Y6487D01*
X84577Y7202D02*
X85292Y6487D01*
X54532Y25312D02*
X56617Y23227D01*
X58248Y6771D02*
X62257Y2762D01*
X63437D01*
X56617Y23227D02*
X57578D01*
X58669Y22136D01*
Y19786D02*
Y22136D01*
X58528Y10156D02*
Y19645D01*
Y10156D02*
X62868Y5815D01*
X71777D01*
X58528Y19645D02*
X58669Y19786D01*
X53288Y25312D02*
X54532D01*
X51627Y28277D02*
X51993Y27911D01*
X61926Y18077D02*
Y18080D01*
X61775Y24274D02*
Y24277D01*
X56077Y31587D02*
X56484Y31994D01*
X56077Y30597D02*
Y31587D01*
X54535Y26101D02*
X56156Y24480D01*
X58216D01*
X60128Y16756D02*
X63068Y13815D01*
X71777D01*
X71991Y14029D01*
Y14088D01*
X72205Y14302D01*
X54535Y26101D02*
Y26214D01*
X54073Y26677D02*
X54535Y26214D01*
X54000Y26677D02*
X54073D01*
X63437Y2762D02*
X64152Y3477D01*
X60408Y17182D02*
X61263Y16327D01*
X61926D01*
X56344Y26000D02*
X57298Y25046D01*
X56344Y26000D02*
Y28830D01*
X55160Y30014D02*
X56344Y28830D01*
X55160Y30014D02*
Y31004D01*
X54768Y31395D02*
X55160Y31004D01*
X54386Y31395D02*
X54768D01*
X54111Y31120D02*
X54386Y31395D01*
X54111Y30631D02*
Y31120D01*
X54077Y30597D02*
X54111Y30631D01*
X59500Y12306D02*
Y18500D01*
Y12306D02*
X61776Y10030D01*
Y10027D02*
Y10030D01*
X58808Y10582D02*
Y19529D01*
Y10582D02*
X61113Y8277D01*
X61776D01*
X58808Y19529D02*
X58949Y19670D01*
Y23351D01*
X58100Y24200D02*
X58949Y23351D01*
X56040Y24200D02*
X58100D01*
X54648Y25592D02*
X56040Y24200D01*
X53404Y25592D02*
X54648D01*
X53160Y25836D02*
X53404Y25592D01*
X53160Y25836D02*
Y31004D01*
X52768Y31395D02*
X53160Y31004D01*
X52386Y31395D02*
X52768D01*
X52111Y31120D02*
X52386Y31395D01*
X52111Y30631D02*
Y31120D01*
X52077Y30597D02*
X52111Y30631D01*
X24994Y36906D02*
X25004D01*
X24542Y37358D02*
X24994Y36906D01*
X20377Y39677D02*
Y40077D01*
X20400Y40100D01*
X23377Y39677D02*
Y40077D01*
X23400Y40100D01*
X26377Y39677D02*
Y40077D01*
X26400Y40100D01*
X35277Y39627D02*
Y40077D01*
X35300Y40100D01*
X38277Y40077D02*
X38300Y40100D01*
X38277Y39627D02*
Y40077D01*
X41277Y40077D02*
X41300Y40100D01*
X41277Y39627D02*
Y40077D01*
X9925Y25125D02*
Y25200D01*
X9425Y13800D02*
X9550D01*
X10148Y14398D01*
Y14748D01*
X10200Y14800D01*
X8900Y12100D02*
Y12200D01*
X9000Y12300D01*
X14275Y11100D02*
X14299D01*
X12375Y13000D02*
X14275Y11100D01*
X7950Y12100D02*
Y12354D01*
X8305Y12709D01*
Y12779D01*
X8526Y13000D01*
X12375D01*
X4175Y11950D02*
X7800D01*
X7950Y12100D01*
X9850D02*
Y12354D01*
Y11846D02*
Y12100D01*
X11400Y10755D02*
X13220D01*
X9850Y11846D02*
X10065Y11631D01*
X10524D01*
X11400Y10755D01*
X7388Y11200D02*
X9395D01*
X9635Y11885D02*
X9850Y12100D01*
X9635Y11441D02*
Y11885D01*
X9395Y11200D02*
X9635Y11441D01*
X7288Y11300D02*
X7388Y11200D01*
X5526Y10464D02*
X8630D01*
X8900Y9600D02*
Y10195D01*
X8630Y10464D02*
X8900Y10195D01*
X8900Y9600D02*
X8900Y9600D01*
X4175Y11300D02*
X7288D01*
X48652Y10577D02*
X49604D01*
X19951Y11516D02*
X21042Y12607D01*
X19177Y11150D02*
X19543Y11516D01*
X19951D01*
X17700Y11150D02*
X17723D01*
X17334Y10784D02*
X17700Y11150D01*
X17334Y10634D02*
Y10784D01*
X17300Y10600D02*
X17334Y10634D01*
X15725Y9700D02*
X16714Y10689D01*
Y11486D01*
X17124Y11896D01*
X44928Y4765D02*
Y6126D01*
X44075Y6979D02*
X44928Y6126D01*
X44075Y6979D02*
Y9992D01*
X46877Y14202D02*
X48602D01*
X48700Y14300D01*
X46700Y14379D02*
X46877Y14202D01*
X46700Y14379D02*
Y14600D01*
X49462Y20677D02*
X50677D01*
X22000Y3000D02*
Y4769D01*
X23225Y5995D01*
X21660Y7560D02*
X23225Y5995D01*
X27295D01*
X28400Y7100D02*
Y10400D01*
X27295Y5995D02*
X28400Y7100D01*
X25227Y12952D02*
Y13427D01*
Y12952D02*
X25412Y12767D01*
X26033D01*
X24242Y13242D02*
X24427Y13427D01*
X24242Y10142D02*
Y13242D01*
X24200Y10100D02*
X24242Y10142D01*
X23233Y8527D02*
X24200Y7560D01*
X23233Y10629D02*
X23627Y11023D01*
X23233Y8527D02*
Y10629D01*
X23627Y11023D02*
Y13427D01*
X22827Y7273D02*
X23825Y6275D01*
X26713Y7533D02*
X26740Y7560D01*
X25720Y7533D02*
X26713D01*
X24461Y6275D02*
X25720Y7533D01*
X23825Y6275D02*
X24461D01*
X22827Y7273D02*
Y13427D01*
X33800Y4400D02*
Y6185D01*
X33300Y3900D02*
X33800Y4400D01*
X31000Y3900D02*
X33300D01*
X29920Y4980D02*
Y5100D01*
Y4980D02*
X31000Y3900D01*
X32460Y6460D02*
X35200Y9200D01*
X32460Y5100D02*
Y6460D01*
X34400Y9400D02*
Y9448D01*
X34726Y9774D01*
X32460Y2560D02*
X33520Y1500D01*
X38400D01*
X40545Y4745D02*
Y12137D01*
X40265Y12253D02*
X40491Y12479D01*
X40265Y6498D02*
Y12253D01*
X40491Y12479D02*
Y14336D01*
X40545Y12137D02*
X40777Y12369D01*
X40377Y14450D02*
X40491Y14336D01*
X38900Y5133D02*
X40265Y6498D01*
X36040Y3600D02*
X38300D01*
X38900Y4200D02*
Y5133D01*
X38300Y3600D02*
X38900Y4200D01*
X35000Y2560D02*
X36040Y3600D01*
X42382Y4118D02*
X43900Y2600D01*
X45780Y3260D02*
X46440Y2600D01*
X45780Y3260D02*
Y3913D01*
X44928Y4765D02*
X45780Y3913D01*
X5341Y10650D02*
X5526Y10464D01*
X4175Y10650D02*
X5341D01*
X5850Y13800D02*
X7775D01*
X4650Y12600D02*
X5850Y13800D01*
X4175Y12600D02*
X4650D01*
X3430Y12060D02*
X4065D01*
X4175Y11950D01*
X13220Y10755D02*
X14275Y9700D01*
X14299D01*
X42777Y15151D02*
X42779Y15149D01*
Y14501D02*
Y15149D01*
Y14501D02*
X42939Y14341D01*
Y14021D02*
Y14341D01*
X42932Y14013D02*
X42939Y14021D01*
X42932Y10584D02*
Y14013D01*
X42382Y10034D02*
X42932Y10584D01*
X42382Y4118D02*
Y10034D01*
X43212Y10855D02*
X44075Y9992D01*
X43212Y10855D02*
Y13897D01*
X43219Y13905D01*
Y14456D01*
X43179Y14497D02*
X43219Y14456D01*
X43179Y14497D02*
Y15149D01*
X43177Y15151D02*
X43179Y15149D01*
X53652Y40052D02*
Y40477D01*
X53600Y40000D02*
X53652Y40052D01*
Y40477D02*
X53877Y40252D01*
X33052Y32948D02*
X41355D01*
X32400Y33600D02*
X33052Y32948D01*
X41355D02*
X44537Y29765D01*
X34305Y33600D02*
X41495D01*
X31975Y35885D02*
X33143Y34717D01*
X33188D01*
X34305Y33600D01*
X33500D02*
X33518D01*
X33859Y33259D01*
X34500Y34800D02*
Y36442D01*
X33894Y35662D02*
Y36652D01*
X33753Y36793D02*
X33894Y36652D01*
X33753Y36793D02*
Y37287D01*
X34033Y36909D02*
X34500Y36442D01*
X36252Y35802D02*
X37377D01*
X32970Y38070D02*
X33753Y37287D01*
X33275Y38161D02*
Y39900D01*
X34597Y37457D02*
X36252Y35802D01*
X34597Y37457D02*
Y37480D01*
X33275Y38161D02*
X34033Y37403D01*
Y36909D02*
Y37403D01*
X32758Y38070D02*
X32970D01*
X31975Y35885D02*
Y36500D01*
Y38853D02*
X32758Y38070D01*
X31975Y38853D02*
Y39900D01*
X31200Y41227D02*
Y41300D01*
Y41227D02*
X31325Y41102D01*
Y39900D02*
Y41102D01*
X29700Y40375D02*
X30000Y40675D01*
Y41000D01*
X29700Y39025D02*
X30986D01*
X31325Y39364D01*
Y39900D01*
X26477Y38127D02*
Y38177D01*
X26900Y38600D01*
X23351Y38127D02*
Y38151D01*
X23800Y38600D01*
X20225Y38225D02*
X20600Y38600D01*
X20225Y38127D02*
Y38225D01*
X32625Y39900D02*
X32662Y39938D01*
Y41462D01*
X32700Y41500D01*
X24827Y38127D02*
X26454Y36500D01*
X31325D01*
X27929Y38127D02*
X31613D01*
X32625Y37115D01*
Y36500D02*
Y37115D01*
X22470Y37358D02*
X24542D01*
X24803Y38127D02*
X24827D01*
X21701Y38127D02*
X22470Y37358D01*
X32625Y39285D02*
Y39900D01*
X21677Y38127D02*
X21701D01*
X23377Y41177D02*
X24877D01*
X23377Y41177D02*
X23377Y41177D01*
X21677Y39477D02*
X21877Y39677D01*
X21677Y38127D02*
Y39477D01*
X20377Y41177D02*
X21877D01*
X20377Y41177D02*
X20377Y41177D01*
X26377Y41177D02*
X27877D01*
X26377Y41177D02*
X26377Y41177D01*
X24803Y39603D02*
X24877Y39677D01*
X24803Y38127D02*
Y39603D01*
X27877Y38179D02*
X27929Y38127D01*
X27877Y38179D02*
Y39677D01*
X22241Y41541D02*
Y42513D01*
X21877Y41177D02*
X22241Y41541D01*
X22100Y44900D02*
X22241Y44759D01*
Y42513D02*
Y44759D01*
X27200Y41854D02*
Y44800D01*
Y41854D02*
X27877Y41177D01*
X27100Y44900D02*
X27200Y44800D01*
X24700Y41354D02*
Y44800D01*
Y41354D02*
X24877Y41177D01*
X24600Y44900D02*
X24700Y44800D01*
X35192Y38337D02*
X35477Y38052D01*
X39677Y41902D02*
Y43981D01*
X39100Y44558D02*
X39677Y43981D01*
X39100Y44558D02*
Y44900D01*
X41562Y41902D02*
Y44862D01*
X41600Y44900D01*
X36600Y41877D02*
Y44900D01*
X39710Y35604D02*
Y36650D01*
X41909Y37133D02*
X42677Y37902D01*
X40194Y37133D02*
X41909D01*
X39710Y36650D02*
X40194Y37133D01*
X37377Y35152D02*
X38338D01*
X39392Y36206D01*
X41931Y33560D02*
Y35696D01*
X39392Y36206D02*
Y37692D01*
X41931Y33560D02*
X45377Y30113D01*
X39392Y37692D02*
X39627Y37927D01*
X39677Y37977D01*
X37277Y36550D02*
Y37302D01*
X37279Y36550D02*
X37377Y36452D01*
X37277Y36550D02*
X37279D01*
X39698Y34502D02*
X40777D01*
X39300Y34900D02*
X39698Y34502D01*
X41714Y36152D02*
X42977D01*
X40777Y36452D02*
X41414D01*
X41714Y36152D01*
X40162Y35152D02*
X40777D01*
X39710Y35604D02*
X40162Y35152D01*
X40777Y35802D02*
X41824D01*
X41931Y35696D01*
X36677Y37902D02*
X37277Y37302D01*
X36677Y37902D02*
Y37977D01*
X45003Y23777D02*
X45005Y23779D01*
X45535D01*
X46733Y24977D01*
Y27102D01*
X45377Y28458D02*
X46733Y27102D01*
X45377Y28458D02*
Y30113D01*
X42677Y37902D02*
Y37977D01*
X42993Y32893D02*
Y33404D01*
X42500Y33898D02*
X42993Y33404D01*
X43553Y33748D02*
X43948D01*
X43397Y33592D02*
X43553Y33748D01*
X47293Y24774D02*
Y27334D01*
X43397Y32961D02*
Y33592D01*
X36577Y39427D02*
X36777Y39627D01*
X41562Y41902D02*
X41902D01*
X42702Y41102D01*
X42777D01*
X41562Y41412D02*
Y41902D01*
X39577Y38077D02*
X39677Y37977D01*
X39577Y38077D02*
Y39452D01*
X39777Y39652D01*
X42577Y38077D02*
X42677Y37977D01*
X42577Y38077D02*
Y39452D01*
X42777Y39652D01*
X38382Y41902D02*
X39677D01*
Y41202D02*
X39777Y41102D01*
X38277Y41797D02*
X38382Y41902D01*
X38277Y41127D02*
Y41797D01*
X39677Y41202D02*
Y41902D01*
X36577Y38077D02*
X36677Y37977D01*
X36577Y38077D02*
Y39427D01*
X36777Y39627D01*
X35382Y41877D02*
X36600D01*
Y41254D02*
Y41877D01*
Y41254D02*
X36777Y41077D01*
X35277Y41772D02*
X35382Y41877D01*
X35277Y41127D02*
Y41772D01*
X35477Y37977D02*
Y38052D01*
X41277Y41127D02*
X41562Y41412D01*
X38547Y15773D02*
X38551Y15777D01*
X38163Y15773D02*
X38547D01*
X37811Y15421D02*
X38163Y15773D01*
X40377Y14450D02*
Y15151D01*
X38549Y16175D02*
X38551Y16177D01*
X40777Y12369D02*
Y15151D01*
X15701Y9700D02*
X15725D01*
X19442Y13242D02*
X19627Y13427D01*
X19442Y12607D02*
Y13242D01*
X18731Y11896D02*
X19442Y12607D01*
X17124Y11896D02*
X18731D01*
X24427Y13427D02*
X24612Y13242D01*
X43948Y33748D02*
X44000Y33800D01*
X42993Y32893D02*
X45677Y30210D01*
X45300Y31850D02*
X46577Y30573D01*
Y28842D02*
Y30573D01*
X45300Y31850D02*
Y33600D01*
X45178Y31177D02*
X45957Y30397D01*
X44634Y32480D02*
Y32529D01*
Y32480D02*
X44957Y32157D01*
X43397Y32961D02*
X45178Y31181D01*
X45677Y28554D02*
Y30210D01*
X45957Y28670D02*
Y30397D01*
X44957Y31797D02*
Y32157D01*
X46237Y28786D02*
Y30517D01*
X44957Y31797D02*
X46237Y30517D01*
X45178Y31177D02*
Y31181D01*
X33859Y33259D02*
X41440D01*
X41495Y33600D02*
X45097Y29997D01*
X44817Y28226D02*
Y29881D01*
X45097Y28342D02*
Y29997D01*
X41440Y33259D02*
X44817Y29881D01*
X44537Y28110D02*
Y29765D01*
X45893Y25483D02*
Y26754D01*
X44537Y28110D02*
X45893Y26754D01*
X44817Y28226D02*
X46173Y26870D01*
X45003Y24977D02*
X45387D01*
X45893Y25483D01*
X45003Y24577D02*
X45005Y24579D01*
X45535D01*
X46173Y25217D01*
Y26870D01*
X45003Y24177D02*
X45005Y24179D01*
X45535D01*
X46453Y25097D01*
Y26986D01*
X45097Y28342D02*
X46453Y26986D01*
X16497Y12004D02*
X16881Y12387D01*
X16497Y11872D02*
Y12004D01*
X15725Y11100D02*
X16497Y11872D01*
X15701Y11100D02*
X15725D01*
X16881Y12387D02*
X18422D01*
X18642Y13242D02*
X18827Y13427D01*
X18642Y12607D02*
Y13242D01*
X18422Y12387D02*
X18642Y12607D01*
X45177Y37252D02*
X47777D01*
X48102Y34577D02*
X50097D01*
X47777Y34902D02*
X48102Y34577D01*
X48700Y35856D02*
X48979Y35577D01*
X50097D01*
X47800Y35856D02*
X48700D01*
X49123Y36400D02*
X49446Y36077D01*
X50097D01*
X47777Y37252D02*
Y38050D01*
X47600Y38227D02*
X47777Y38050D01*
X47600Y38227D02*
Y38300D01*
X51677Y40477D02*
X52302D01*
X51400Y40200D02*
X51677Y40477D01*
X49479Y40500D02*
X50300D01*
X49277Y40702D02*
X49479Y40500D01*
X48502Y15948D02*
X48700Y15750D01*
X48502Y15948D02*
Y16902D01*
X48577Y16977D01*
X47302Y10627D02*
X49295Y12620D01*
X49515Y15215D02*
X50200Y15900D01*
X47450Y15029D02*
X47725D01*
X47751Y15003D01*
X49515Y13730D02*
Y15215D01*
X49295Y13509D02*
X49515Y13730D01*
X49295Y12620D02*
Y13509D01*
X48502Y17052D02*
Y17764D01*
X47115D02*
X48502D01*
X47107Y17773D02*
X47115Y17764D01*
X47043Y17773D02*
X47107D01*
X47039Y17777D02*
X47043Y17773D01*
X45003Y17777D02*
X47039D01*
X34800Y26700D02*
X34852Y26648D01*
Y26477D02*
X35402Y25927D01*
X34852Y26477D02*
Y26648D01*
X35402Y25877D02*
Y25927D01*
X33977Y25981D02*
X35298D01*
X35402Y25877D01*
X33700Y28025D02*
X33825Y28150D01*
X33700Y27500D02*
Y28025D01*
X36000Y27300D02*
X36003D01*
X36230Y27527D01*
X36952D01*
X35477Y28202D02*
X36377D01*
X36952Y27627D01*
Y27527D02*
Y27627D01*
X33515Y29835D02*
X33800Y29550D01*
X33515Y29835D02*
Y30112D01*
X33400Y30227D02*
X33515Y30112D01*
X33400Y30227D02*
Y30300D01*
X32475Y28150D02*
Y28200D01*
X31000Y27765D02*
X32140D01*
Y27815D01*
Y27240D02*
Y27765D01*
Y27815D02*
X32475Y28150D01*
X32100Y27200D02*
X32140Y27240D01*
X33977Y24554D02*
Y24627D01*
Y24554D02*
X34480Y24052D01*
X13000Y16727D02*
Y16800D01*
Y16727D02*
X13273Y16454D01*
Y16423D02*
Y16454D01*
X13850Y15025D02*
Y15846D01*
X13273Y16423D02*
X13850Y15846D01*
X13825Y15000D02*
X13850Y15025D01*
X12900Y15000D02*
X13825D01*
X14002Y23127D02*
X15527D01*
X12273Y20452D02*
X12575Y20150D01*
X13850Y20225D02*
X13925Y20150D01*
X14602Y22327D02*
X15527D01*
X14235Y21960D02*
X14602Y22327D01*
X14235Y21910D02*
Y21960D01*
X13900Y21575D02*
X14235Y21910D01*
X13850Y21575D02*
X13900D01*
X12650Y18300D02*
X13850D01*
X13900Y12900D02*
Y13625D01*
X13850Y13675D02*
X13900Y13625D01*
X15527Y15927D02*
X15712Y16112D01*
X16520D01*
X16827Y16419D01*
X16900D01*
X12250Y16423D02*
X13273D01*
X13800Y16950D01*
X13850D01*
X14073Y16727D02*
X15527D01*
X13850Y16950D02*
X14073Y16727D01*
X13952Y15127D02*
X15527D01*
X13850Y15025D02*
X13952Y15127D01*
X26000Y24800D02*
X26052Y24748D01*
Y24488D02*
Y24748D01*
Y24488D02*
X26455Y24085D01*
X25412Y25383D02*
X25606D01*
X27000Y24900D02*
Y25595D01*
Y24850D02*
Y24900D01*
X27800Y25700D01*
X25227Y25198D02*
X25412Y25383D01*
X25227Y24827D02*
Y25198D01*
X36675Y25750D02*
X39171D01*
X36675D02*
X36752Y25827D01*
X36417Y25492D02*
X36675Y25750D01*
X36752Y25877D02*
X37075Y26200D01*
X38100D01*
X43177Y27925D02*
X43200Y27948D01*
X43177Y27502D02*
Y27925D01*
X39177Y25602D02*
Y25744D01*
X39171Y25750D02*
X39177Y25744D01*
X64152Y3477D02*
Y3527D01*
X45615Y15552D02*
X46877D01*
X45390Y15777D02*
X45615Y15552D01*
X46877D02*
X46927D01*
X53125Y24225D02*
Y24300D01*
Y24225D02*
X53485Y23865D01*
X53560D02*
X55525Y21900D01*
X58100D01*
X53485Y23865D02*
X53560D01*
X59213Y32200D02*
X60600D01*
X79502Y30027D02*
X81527D01*
X78477Y27602D02*
X79196D01*
X79318Y27724D01*
X79334D01*
X80500Y28890D01*
Y29400D01*
X76527Y29202D02*
X76729Y29000D01*
X77600D01*
X84527Y26602D02*
X84577D01*
X85423Y27448D01*
X85548D01*
X85600Y27500D01*
X83100Y30200D02*
Y30700D01*
X82927Y30027D02*
X83100Y30200D01*
X78052Y29952D02*
X78477Y29527D01*
Y28252D02*
Y29527D01*
X82977Y3777D02*
X83677D01*
X84400Y4500D01*
X84527Y4700D02*
Y5852D01*
X84400Y4573D02*
X84527Y4700D01*
X84400Y4500D02*
Y4573D01*
X82577Y6202D02*
X82592Y6187D01*
X84192D01*
X84527Y5852D01*
X68600Y2100D02*
X69916D01*
X71290Y3474D02*
Y3638D01*
X71729Y4077D01*
X71853D01*
X69916Y2100D02*
X71290Y3474D01*
X84500Y27979D02*
X84527Y27952D01*
X84500Y27979D02*
Y29200D01*
X64227Y4777D02*
X64250Y4800D01*
X64227Y3602D02*
Y4777D01*
X64152Y3527D02*
X64227Y3602D01*
Y3527D02*
X65677D01*
X84527Y7202D02*
X84577D01*
X77310Y5333D02*
Y7071D01*
X77619Y7380D01*
X77310Y5333D02*
X78052Y4591D01*
X81100Y26300D02*
X81101Y26301D01*
X82576D01*
X79999D02*
X80000Y26300D01*
X78478Y26301D02*
X79999D01*
X80076Y5576D02*
X80100Y5600D01*
X78501Y5576D02*
X80076D01*
X82576Y26301D02*
X82577Y26302D01*
X78477D02*
X78478Y26301D01*
X81200Y5600D02*
X81224Y5576D01*
X82553D01*
X82577Y5552D01*
X78477D02*
X78501Y5576D01*
X63628Y18277D02*
X64214D01*
X63428Y18077D02*
X63628Y18277D01*
X69009Y18201D02*
X69109Y18302D01*
X69009Y17709D02*
Y18201D01*
X68786Y17486D02*
X69009Y17709D01*
X68293Y17486D02*
X68786D01*
X65005D02*
X68293D01*
X64214Y18277D02*
X65005Y17486D01*
X63628Y16527D02*
X64464D01*
X63428Y16327D02*
X63628Y16527D01*
X71849Y17068D02*
X72665Y16252D01*
X65005Y17068D02*
X71849D01*
X64464Y16527D02*
X65005Y17068D01*
X68293Y9486D02*
X69109Y10302D01*
X69249D01*
X64319Y9486D02*
X68293D01*
X79400Y3675D02*
X79502Y3777D01*
X79400Y2900D02*
Y3675D01*
X78052Y3777D02*
Y4591D01*
X77757Y7502D02*
X78477D01*
X77635Y7380D02*
X77757Y7502D01*
X77619Y7380D02*
X77635D01*
X79502Y3777D02*
X81577D01*
X64166Y8668D02*
X64566Y9068D01*
X63666Y8668D02*
X64166D01*
X63278Y8280D02*
X63666Y8668D01*
X63278Y8277D02*
Y8280D01*
X72665Y8252D02*
X72805D01*
X71849Y9068D02*
X72665Y8252D01*
X64566Y9068D02*
X71849D01*
X64169Y9636D02*
X64319Y9486D01*
X63666Y9636D02*
X64169D01*
X63278Y10024D02*
X63666Y9636D01*
X63278Y10024D02*
Y10027D01*
X46927Y15552D02*
X47450Y15029D01*
X50225Y24225D02*
X50300Y24300D01*
X51675D01*
X50677Y20677D02*
Y20702D01*
X51437Y21462D01*
Y21572D01*
X51900Y22036D01*
X52485D01*
X52948Y22499D01*
Y24123D01*
X53125Y24300D01*
X26450Y27550D02*
Y28750D01*
X26200Y29000D02*
X26450Y28750D01*
X25500Y29000D02*
X26200D01*
X24127Y23692D02*
X30708D01*
X23812Y24007D02*
Y24642D01*
X30708Y23692D02*
X31900Y22500D01*
X23812Y24007D02*
X24127Y23692D01*
X25173Y21527D02*
X26927D01*
X23900Y22800D02*
X25173Y21527D01*
X26150Y29850D02*
X27400Y31100D01*
X23900Y20112D02*
X26742D01*
X23800Y19700D02*
X23852Y19752D01*
Y20064D02*
X23900Y20112D01*
X23852Y19752D02*
Y20064D01*
X27400Y31100D02*
X31800D01*
X24532Y25952D02*
X26643D01*
X27100Y27550D02*
Y29027D01*
X27200Y29127D01*
X22797Y26232D02*
X29215D01*
X28400Y27550D02*
Y28827D01*
X28100Y29127D02*
X28400Y28827D01*
X30317Y27583D02*
X30350Y27550D01*
X30317Y27583D02*
Y28728D01*
X24907Y31624D02*
X25800Y32517D01*
X23850Y31624D02*
X24907D01*
X22276D02*
X23850D01*
X29075Y27575D02*
Y29175D01*
X26450Y31750D02*
Y33350D01*
X24363Y29889D02*
X25224Y30750D01*
X25450D02*
X26450Y31750D01*
X25224Y30750D02*
X25450D01*
X29050Y27550D02*
X29075Y27575D01*
X28400Y27550D02*
X28400Y27550D01*
X25800Y32517D02*
Y33350D01*
X29215Y26232D02*
X29700Y26717D01*
Y27550D01*
X22212Y25647D02*
X22797Y26232D01*
X22212Y25012D02*
Y25647D01*
X22027Y24827D02*
X22212Y25012D01*
X24339Y29889D02*
X24363D01*
X23950Y29500D02*
X24339Y29889D01*
X23950Y29476D02*
Y29500D01*
X30955Y29550D02*
X32500D01*
X30315Y28910D02*
X30955Y29550D01*
X30315Y28730D02*
Y28910D01*
Y28730D02*
X30317Y28728D01*
X28100Y29127D02*
Y29200D01*
X26643Y25952D02*
X27000Y25595D01*
X24427Y25847D02*
X24532Y25952D01*
X24427Y24827D02*
Y25847D01*
X27200Y29127D02*
Y29200D01*
X26742Y20112D02*
X26927Y19927D01*
X26000Y20700D02*
X26900D01*
X26927Y20727D01*
X43577Y14096D02*
Y15151D01*
X43979Y14491D02*
X44415Y14055D01*
Y13710D02*
Y14055D01*
Y13710D02*
X44750Y13375D01*
X44800D01*
X43979Y14491D02*
Y15149D01*
X43977Y15151D02*
X43979Y15149D01*
X42363Y13700D02*
X42375Y13712D01*
Y15149D01*
X39353Y13122D02*
X39500Y12975D01*
X39353Y14347D02*
X39575Y14568D01*
X41577Y14115D02*
Y15151D01*
X41114Y11901D02*
Y13937D01*
X41794Y13250D02*
X42144Y12901D01*
X41177Y14000D02*
Y15151D01*
X41514Y12306D02*
Y14052D01*
X41794Y13936D02*
X41977Y14119D01*
Y15151D01*
X41794Y13250D02*
Y13936D01*
X39575Y14568D02*
Y15149D01*
X39353Y13122D02*
Y14347D01*
X41514Y14052D02*
X41577Y14115D01*
X41514Y12306D02*
X41720Y12100D01*
X41114Y13937D02*
X41177Y14000D01*
X42144Y12900D02*
Y12901D01*
X15527Y21527D02*
X15554Y21500D01*
X16800D01*
X22800Y23600D02*
Y24800D01*
X31900Y11300D02*
Y22500D01*
X36557Y24508D02*
X37400D01*
X37690D01*
X15527Y20727D02*
X15554Y20700D01*
X16800D01*
X15527Y19927D02*
X15554Y19900D01*
X15527Y19127D02*
X15554Y19100D01*
X16800D01*
X15527Y18327D02*
X15554Y18300D01*
X16800D01*
X31400Y10300D02*
X32600Y9100D01*
X31400Y10300D02*
Y21755D01*
X30028Y23127D02*
X31400Y21755D01*
X26927Y23127D02*
X30028D01*
X23627Y24827D02*
X23812Y24642D01*
X31900Y11300D02*
X33300Y9900D01*
X22800Y24800D02*
X22827Y24827D01*
X22027Y14500D02*
Y14703D01*
Y13427D02*
Y14500D01*
X22060Y14467D02*
X25622D01*
X22027Y14500D02*
X22060Y14467D01*
X22027Y13427D02*
X22212Y13612D01*
X21900Y14830D02*
Y15100D01*
Y14830D02*
X22027Y14703D01*
X41720Y12100D02*
X42363D01*
X42375Y15149D02*
X42377Y15151D01*
X39575Y15149D02*
X39577Y15151D01*
X48117Y20842D02*
X49297D01*
X47402Y20127D02*
X48117Y20842D01*
X47402Y20027D02*
Y20127D01*
X47067Y19692D02*
X47402Y20027D01*
X46716Y19692D02*
X47067D01*
X49297Y20842D02*
X49462Y20677D01*
X46001Y18977D02*
X46716Y19692D01*
X45003Y18977D02*
X46001D01*
X21200Y32700D02*
X22276Y31624D01*
X20850Y32700D02*
X21200D01*
X23824Y29350D02*
X23950Y29476D01*
X22150Y29350D02*
X23824D01*
X21200Y28400D02*
X22150Y29350D01*
X20850Y28400D02*
X21200D01*
X26927Y17527D02*
X28323D01*
X21042Y13242D02*
X21227Y13427D01*
X21042Y12607D02*
Y13242D01*
X26742Y15742D02*
X26927Y15927D01*
X26107Y15742D02*
X26742D01*
X25887Y15522D02*
X26107Y15742D01*
X26777Y17377D02*
X26927Y17527D01*
X25887Y14732D02*
Y15522D01*
Y14732D02*
X26492Y14127D01*
X28377D01*
X28400Y14150D01*
X28257Y13016D02*
X28623Y12650D01*
X27073Y13016D02*
X28257D01*
X25622Y14467D02*
X27073Y13016D01*
X28323Y17527D02*
X28627Y17223D01*
X33800Y29500D02*
Y29550D01*
X33515Y29215D02*
X33800Y29500D01*
X33490Y29215D02*
X33515D01*
X32475Y28200D02*
X33490Y29215D01*
X38019Y17379D02*
X38549D01*
X38007Y17391D02*
X38019Y17379D01*
X38007Y17391D02*
X38007D01*
X37882Y17516D02*
X38007Y17391D01*
X36891Y17516D02*
X37882D01*
X32727Y23777D02*
X33277Y23227D01*
X30176Y21150D02*
X30327Y20999D01*
Y19477D02*
Y20999D01*
X30300Y19450D02*
X30327Y19477D01*
X28627Y15747D02*
Y17223D01*
Y15747D02*
X28724Y15650D01*
X35863Y22837D02*
X36141D01*
X35385Y23315D02*
Y24635D01*
Y23315D02*
X35863Y22837D01*
X36465Y23221D02*
X36513Y23269D01*
X36141Y22837D02*
X36315Y22662D01*
Y22360D02*
Y22662D01*
Y22360D02*
X36729Y21946D01*
X36935Y20577D02*
X37621D01*
X36925Y20587D02*
X36935Y20577D01*
X36925Y20587D02*
Y20650D01*
X38549Y20975D02*
X38551Y20977D01*
X38019Y20975D02*
X38549D01*
X37621Y20577D02*
X38019Y20975D01*
X37690Y24508D02*
X38019Y24179D01*
X38549D01*
X38551Y24177D01*
X36600Y20650D02*
X36925D01*
X36925Y20650D01*
X36729Y21946D02*
X37813D01*
X38549Y21779D02*
X38551Y21777D01*
X37979Y21779D02*
X38549D01*
X37813Y21946D02*
X37979Y21779D01*
X37162Y22997D02*
X37187Y22972D01*
X36725Y17350D02*
X36891Y17516D01*
X49843Y36577D02*
X50097D01*
X49277Y37143D02*
X49843Y36577D01*
X53877Y39199D02*
Y40252D01*
X49277Y37143D02*
Y39252D01*
X53543Y37591D02*
X53577Y37557D01*
X45005Y22579D02*
X45535D01*
X45005Y22179D02*
X45535D01*
X45003Y22177D02*
X45005Y22179D01*
X41752Y27577D02*
X41873D01*
X41677Y27502D02*
X41752Y27577D01*
X41977Y25602D02*
Y26329D01*
X42011Y26362D01*
Y27168D01*
X47777Y29302D02*
X48077D01*
X47177Y33277D02*
Y33352D01*
X47842Y34017D01*
X30200Y21174D02*
Y22150D01*
X30176Y21150D02*
X30200Y21174D01*
X37314Y23099D02*
X37897D01*
X38017Y22979D01*
X38549D01*
X38551Y22977D01*
X38549Y23379D02*
X38551Y23377D01*
X36752Y25827D02*
Y25877D01*
X36367Y25492D02*
X36417D01*
X33977Y24627D02*
X35327D01*
X36239Y25400D02*
X36275D01*
X36367Y25492D01*
X35952Y25112D02*
X36239Y25400D01*
X35327Y24627D02*
X35812Y25112D01*
X35952D01*
X45003Y15777D02*
X45390D01*
X38549Y17379D02*
X38551Y17377D01*
X48502Y17764D02*
Y18577D01*
X55577Y29993D02*
X57370Y28200D01*
X84127Y26952D02*
X84477Y26602D01*
X82577Y26952D02*
X84127D01*
X84477Y26602D02*
X84527D01*
X78052Y29952D02*
Y30027D01*
X76527Y27852D02*
X77272D01*
X78420Y27659D02*
X78477Y27602D01*
X77465Y27659D02*
X78420D01*
X77272Y27852D02*
X77465Y27659D01*
X65005Y25486D02*
X68293D01*
X69109Y26302D01*
X69179D01*
X45957Y28670D02*
X47293Y27334D01*
X50200Y28277D02*
X50273D01*
X48077Y29302D02*
X48462Y29687D01*
X50273Y28277D02*
X50639Y28643D01*
Y29039D01*
X46237Y28786D02*
X47573Y27450D01*
X46577Y28842D02*
X47853Y27566D01*
X51627Y28277D02*
X51993Y28643D01*
X50639Y29039D02*
X51577Y29977D01*
X51993Y28716D02*
X52577Y29300D01*
X51993Y28643D02*
Y28716D01*
X57861Y29993D02*
X58611D01*
X57370Y28200D02*
X58977D01*
Y29554D02*
Y29627D01*
X58611Y29993D02*
X58977Y29627D01*
X53577Y28903D02*
X54000Y28480D01*
Y26677D02*
Y28480D01*
X45535Y22579D02*
X47573Y24617D01*
X45535Y22179D02*
X47853Y24497D01*
X45535Y22979D02*
X47293Y24737D01*
X47853Y24497D02*
Y27566D01*
X47573Y24617D02*
Y27450D01*
X47293Y24737D02*
Y24774D01*
X53577Y28903D02*
Y30597D01*
X51577Y29977D02*
Y30597D01*
X52577Y29300D02*
Y30597D01*
X49843Y31577D02*
X50097D01*
X48939Y31652D02*
X49364Y32077D01*
X48462Y30196D02*
X49843Y31577D01*
X48462Y29687D02*
Y30196D01*
X47777Y31652D02*
X48939D01*
X49403Y34017D02*
X49843Y33577D01*
X49364Y32077D02*
X50097D01*
X49002Y32577D02*
X50097D01*
X48377Y33202D02*
X49002Y32577D01*
X49843Y33577D02*
X50097D01*
X48377Y33202D02*
Y33277D01*
X47842Y34017D02*
X49403D01*
X57057Y30797D02*
X57861Y29993D01*
X55577Y29993D02*
Y30597D01*
X48652Y10577D02*
X48652Y10577D01*
X48827Y7577D02*
X49877D01*
X48777Y7627D02*
X48827Y7577D01*
X48777Y9127D02*
X48777Y9127D01*
X47277Y9127D02*
X48777D01*
X47302Y10577D02*
Y10627D01*
Y9152D02*
Y10577D01*
X47277Y9127D02*
X47302Y9152D01*
X47013Y24857D02*
Y27218D01*
X45677Y28554D02*
X47013Y27218D01*
X45535Y23379D02*
X47013Y24857D01*
X45003Y22577D02*
X45005Y22579D01*
X45003Y22977D02*
X45005Y22979D01*
X45003Y23377D02*
X45005Y23379D01*
X45535D01*
X45005Y22979D02*
X45535D01*
X41677Y27502D02*
X42011Y27168D01*
X42743Y26362D02*
Y27168D01*
X43077Y27502D01*
X42743Y26362D02*
X42777Y26329D01*
Y25602D02*
Y26329D01*
X71991Y6088D02*
X72205Y6302D01*
X71777Y5815D02*
X71991Y6029D01*
Y6088D01*
X72205Y6302D02*
X72805D01*
X72205Y14302D02*
X72805D01*
X57057Y30797D02*
Y31577D01*
X63277Y24277D02*
X64214D01*
X65005Y25068D01*
X64464Y26027D02*
X65005Y25486D01*
X63278Y26027D02*
X64464D01*
X57057Y33077D02*
X57091Y33043D01*
D69*
X10650Y35300D02*
X11250D01*
X9000Y34046D02*
X9206Y34252D01*
X9743D01*
X10400Y35050D02*
X10650Y35300D01*
X9743Y34252D02*
X10400Y34909D01*
Y35050D01*
X9000Y34000D02*
Y34046D01*
X6100Y32300D02*
X7594Y33794D01*
X8794D01*
X9000Y34000D01*
X56000Y43000D02*
X56419D01*
X47500D02*
X55900D01*
Y43300D02*
X56000Y43200D01*
X56719Y43300D02*
X56800D01*
X56419Y43000D02*
X56719Y43300D01*
X43952Y39452D02*
X47500Y43000D01*
X43952Y35827D02*
Y39452D01*
Y35827D02*
X44877Y34902D01*
X45177D01*
X47777D01*
X37675Y12975D02*
X39500D01*
X37477Y12777D02*
X37675Y12975D01*
D70*
X35880Y23657D02*
X35954Y23731D01*
X56121Y38106D02*
X56305Y38290D01*
Y38377D01*
X57290Y37490D02*
X57300Y37500D01*
X57290Y36638D02*
Y37490D01*
X57707Y35827D02*
X57745Y35790D01*
X56993Y35827D02*
X57707D01*
X56993D02*
Y36016D01*
X57057Y36577D02*
X57228D01*
X57290Y36638D01*
X57054Y36077D02*
X57057D01*
X56993Y36016D02*
X57054Y36077D01*
X50487Y38713D02*
X50549Y38651D01*
Y38300D02*
X50811Y38038D01*
X50549Y38300D02*
Y38651D01*
X51477Y38624D02*
X51533Y38567D01*
Y37601D02*
Y38567D01*
X54090Y38364D02*
X54104Y38377D01*
X54090Y37570D02*
Y38364D01*
X54577Y38671D02*
X54646Y38602D01*
X54577Y38671D02*
Y39177D01*
X54077Y37557D02*
X54090Y37570D01*
X54577Y39177D02*
X54577Y39177D01*
X54646Y38152D02*
Y38602D01*
X54577Y37557D02*
Y38083D01*
X54646Y38152D01*
X52035Y37599D02*
X52077Y37557D01*
X52035Y39134D02*
X52077Y39177D01*
X52577Y38377D02*
X52577Y38377D01*
X51533Y37601D02*
X51577Y37557D01*
X52577D02*
Y38377D01*
X52035Y37599D02*
Y39134D01*
X53119Y37599D02*
Y38698D01*
X53056Y38762D02*
Y39172D01*
Y38762D02*
X53119Y38698D01*
X33277Y11977D02*
X33444D01*
X38032Y16564D01*
X35577Y29452D02*
X37477D01*
X35477Y29552D02*
X35577Y29452D01*
X47293Y24774D02*
X47319Y24801D01*
X45508Y22990D02*
X47293Y24774D01*
X47319Y24801D02*
Y25477D01*
X50811Y38038D02*
X50837D01*
X51077Y37798D01*
Y37557D02*
Y37798D01*
X47623Y16383D02*
Y16449D01*
X46777Y16977D02*
X46777Y16977D01*
X47319Y16752D02*
Y17202D01*
X47002Y17520D02*
X47319Y17202D01*
X46030Y17520D02*
X47002D01*
X47190Y18343D02*
X47277D01*
X47023Y18177D02*
X47190Y18343D01*
X45003Y18177D02*
X47023D01*
X43855Y26902D02*
X44277Y27324D01*
Y27377D01*
X44690Y14677D02*
X44777D01*
X44612Y14755D02*
X44690Y14677D01*
X45015Y16164D02*
X45880D01*
X45923Y16121D01*
X45612Y16577D02*
X45698Y16664D01*
X46290D02*
X46577Y16377D01*
X45698Y16664D02*
X46290D01*
X44377Y14785D02*
X44407Y14755D01*
X44612D01*
X47319Y16752D02*
X47623Y16449D01*
X49044Y23044D02*
X50225Y24225D01*
X48922Y23044D02*
X49044D01*
X33277Y13227D02*
X34660Y14610D01*
X34841Y18089D02*
X37259D01*
X34687Y18577D02*
X38551D01*
X34720Y18930D02*
X37662D01*
X34149Y18038D02*
X34687Y18577D01*
X34781Y18350D02*
X37677D01*
X33277Y15727D02*
X34149Y16599D01*
Y18038D01*
X33277Y16977D02*
X33922Y17622D01*
Y18132D01*
X33277Y14477D02*
X34376Y15576D01*
Y17944D01*
X34781Y18350D01*
X34660Y14610D02*
Y17908D01*
X34841Y18089D01*
X33922Y18132D02*
X34720Y18930D01*
X39977Y14155D02*
Y15151D01*
X39922Y14100D02*
X39977Y14155D01*
X20427Y13427D02*
X20477Y13477D01*
Y14627D01*
X27138Y19339D02*
X27736D01*
X27875Y19477D01*
X26927Y18327D02*
X29377D01*
X26927Y19127D02*
X27138Y19339D01*
X30300Y17250D02*
Y17350D01*
X29547Y18103D02*
X30300Y17350D01*
X29547Y18103D02*
Y18157D01*
X29377Y18327D02*
X29547Y18157D01*
X28573Y19477D02*
X28600Y19450D01*
X27875Y19477D02*
X28573D01*
X28600Y19450D02*
X28627Y19477D01*
X37850Y18177D02*
X38551D01*
X37677Y18350D02*
X37850Y18177D01*
X33377Y20727D02*
X34492Y19611D01*
X33277Y20727D02*
X33377D01*
X37946Y20177D02*
X38551D01*
X37380Y19611D02*
X37946Y20177D01*
X34492Y19611D02*
X37380D01*
X37259Y18089D02*
X37571Y17777D01*
X38551D01*
X38032Y16564D02*
X38442D01*
X37709Y18977D02*
X38551D01*
X37662Y18930D02*
X37709Y18977D01*
X34208Y19157D02*
X37568D01*
X33277Y18227D02*
X34208Y19157D01*
X37788Y19377D02*
X38551D01*
X37568Y19157D02*
X37788Y19377D01*
X33369Y19384D02*
X37474D01*
X33277Y19477D02*
X33369Y19384D01*
X37867Y19777D02*
X38551D01*
X37474Y19384D02*
X37867Y19777D01*
X34789Y19838D02*
X37286D01*
X34094Y20534D02*
X34789Y19838D01*
X34094Y20534D02*
Y21160D01*
X33277Y21977D02*
X34094Y21160D01*
X38539Y20564D02*
X38551Y20577D01*
X38012Y20564D02*
X38539D01*
X37286Y19838D02*
X38012Y20564D01*
X28627Y19477D02*
Y21053D01*
X28724Y21150D01*
X30176Y15650D02*
X30327Y15801D01*
Y17223D01*
X30300Y17250D02*
X30327Y17223D01*
X38160Y24990D02*
X38172Y24977D01*
X37939Y25054D02*
X38003Y24990D01*
X37851Y25054D02*
X37939D01*
X38003Y24990D02*
X38160D01*
X55762Y38246D02*
Y38698D01*
X55699Y38761D02*
Y39155D01*
X55677Y39177D02*
X55699Y39155D01*
X55621Y37601D02*
Y38105D01*
X55762Y38246D01*
X55077Y37557D02*
Y38241D01*
X55577Y37557D02*
X55621Y37601D01*
X55699Y38761D02*
X55762Y38698D01*
X55077Y38241D02*
X55220Y38383D01*
Y38471D01*
X53050Y39177D02*
X53056Y39172D01*
X53077Y37557D02*
X53119Y37599D01*
X45890Y20078D02*
X45977D01*
X45508Y21390D02*
X46589Y22470D01*
X46713Y20048D02*
Y20681D01*
X45791Y20177D02*
X45890Y20078D01*
X45015Y21390D02*
X45508D01*
X45003Y20177D02*
X45791D01*
X45003Y21377D02*
X45015Y21390D01*
X45003Y20977D02*
X45775D01*
X45003Y21777D02*
X45015Y21790D01*
X45508D01*
X42377Y25602D02*
Y26929D01*
X41442Y26511D02*
X41577Y26375D01*
X41442Y26511D02*
Y26598D01*
X41577Y25602D02*
Y26375D01*
X42377Y26929D02*
X42416Y26968D01*
X40764Y25615D02*
X40777Y25602D01*
X41164Y25615D02*
Y26022D01*
Y25615D02*
X41177Y25602D01*
X41137Y26050D02*
X41164Y26022D01*
X41137Y26050D02*
Y26136D01*
X40723Y26550D02*
Y27577D01*
X40181Y26771D02*
X40764Y26187D01*
X39953Y26677D02*
X40377Y26253D01*
X39677Y26632D02*
X39977Y26332D01*
X40181Y27802D02*
X40656Y28277D01*
X40181Y26771D02*
Y27802D01*
X40764Y25615D02*
Y26187D01*
X39577Y25602D02*
Y26411D01*
X40723Y26550D02*
X41137Y26136D01*
X40377Y25602D02*
Y26253D01*
X39977Y25602D02*
Y26332D01*
X39333Y26656D02*
X39577Y26411D01*
X39333Y26656D02*
Y26696D01*
X38602Y27427D02*
X39333Y26696D01*
X38602Y27427D02*
Y27527D01*
X38502Y31377D02*
X38602Y31277D01*
Y29627D02*
Y31277D01*
X39953Y30053D02*
X41077Y31177D01*
X39677Y30877D02*
X41077Y32277D01*
X39677Y26632D02*
Y30877D01*
X40656Y28277D02*
Y29656D01*
X41077Y30077D01*
X37677Y16964D02*
X38539D01*
X37577Y21377D02*
X38551D01*
X37941Y22177D02*
X38551D01*
X37577Y21377D02*
X37577Y21377D01*
X38551D02*
X38551Y21377D01*
Y24577D02*
Y24977D01*
X38172D02*
X38551D01*
Y22177D02*
Y22577D01*
X37677Y22441D02*
X37941Y22177D01*
X37677Y22441D02*
Y22515D01*
X44377Y14785D02*
Y15151D01*
X45003Y17377D02*
X45888D01*
X45003Y16177D02*
X45015Y16164D01*
X45003Y16577D02*
X45612D01*
X45003Y16977D02*
X45003Y16977D01*
X46777D01*
X38539Y16564D02*
X38551Y16577D01*
X38539Y16964D02*
X38551Y16977D01*
X45888Y17377D02*
X46030Y17520D01*
X78477Y6202D02*
X81229D01*
X81879Y6852D01*
X83626Y7202D02*
X84527D01*
X83276Y6852D02*
X83626Y7202D01*
X82577Y6852D02*
X83276D01*
X81879D02*
X82577D01*
X81229Y26952D02*
X81879Y27602D01*
X78477Y26952D02*
X81229D01*
X83276Y27602D02*
X83626Y27952D01*
X81879Y27602D02*
X82577D01*
X83276D01*
X83626Y27952D02*
X84527D01*
X69179Y26302D02*
X69249D01*
X49242Y22163D02*
X49663D01*
X48750Y21671D02*
X49242Y22163D01*
X51377Y21877D02*
X52277Y22777D01*
X49277Y21877D02*
X51377D01*
X47850Y22470D02*
X48156Y22777D01*
X46589Y22470D02*
X47850D01*
X48156Y22777D02*
X48277D01*
X46577Y22858D02*
X47447D01*
X48010Y23421D01*
X46977Y21356D02*
X47065Y21444D01*
X37477Y29452D02*
X37652Y29627D01*
X42777Y19377D02*
X45003D01*
X41777Y20377D02*
X42777Y19377D01*
X37652Y29627D02*
X38602D01*
X39953Y26677D02*
Y30053D01*
X46406Y18577D02*
X46742Y18912D01*
X46202Y19536D02*
X46713Y20048D01*
X45524Y19764D02*
X45752Y19536D01*
X46202D01*
X45003Y19777D02*
X45015Y19764D01*
X45524D01*
X46577Y16377D02*
X46944D01*
X47319Y16752D01*
X48309Y21898D02*
X48922Y22510D01*
Y23044D01*
X47065Y21444D02*
X48844D01*
X46784Y21898D02*
X48309D01*
X46971Y21671D02*
X48750D01*
X48844Y21444D02*
X49277Y21877D01*
X49663Y22163D02*
X50277Y22777D01*
X48010Y23421D02*
X48544D01*
X48922Y23044D01*
X45003Y18577D02*
X46406D01*
X45708Y20577D02*
X45752Y20621D01*
X46977Y20944D02*
Y21356D01*
X46750Y21450D02*
X46971Y21671D01*
X46021Y21222D02*
X46125D01*
X46170Y21284D02*
X46784Y21898D01*
X46170Y21177D02*
Y21284D01*
X46125Y21222D02*
X46170Y21177D01*
X45775Y20977D02*
X46021Y21222D01*
X46274Y20621D02*
X46750Y21097D01*
X46713Y20681D02*
X46977Y20944D01*
X46750Y21097D02*
Y21450D01*
X45752Y20621D02*
X46274D01*
X45508Y21790D02*
X46577Y22858D01*
X45003Y20577D02*
X45708D01*
X43855Y26373D02*
Y26902D01*
X43590Y26108D02*
X43855Y26373D01*
X43977Y25602D02*
X43990Y25615D01*
Y26108D02*
X44358Y26477D01*
X44777D01*
X42341Y28577D02*
Y28941D01*
X43990Y25615D02*
Y26108D01*
X42341Y28577D02*
X42416Y28503D01*
Y26968D02*
Y28503D01*
X42828D02*
X43177Y28852D01*
X42416Y28503D02*
X42828D01*
X42341Y28941D02*
X42377Y28977D01*
X43577Y25602D02*
X43590Y25615D01*
X43312Y26511D02*
Y26598D01*
X43177Y25602D02*
Y26375D01*
X43312Y26511D01*
X43590Y25615D02*
Y26108D01*
X44407Y25633D02*
Y25635D01*
X45000D01*
X45300Y25934D02*
X45324D01*
X44377Y25602D02*
X44407Y25633D01*
X45000Y25635D02*
X45300Y25934D01*
X72665Y16252D02*
X72805D01*
X56121Y37872D02*
Y38106D01*
X56077Y37828D02*
X56121Y37872D01*
X56077Y37557D02*
Y37828D01*
X57054Y35577D02*
X57057D01*
X56993Y35638D02*
X57054Y35577D01*
X56993Y35638D02*
Y35827D01*
D71*
X94815Y37400D02*
D03*
X87500D02*
D03*
D72*
X37540Y5100D02*
D03*
X21660Y7560D02*
D03*
X48400Y45000D02*
D03*
X10720Y44800D02*
D03*
X46440Y2600D02*
D03*
X46400Y5500D02*
D03*
D73*
X29920Y2560D02*
D03*
X37540D02*
D03*
X35000Y5100D02*
D03*
Y2560D02*
D03*
X32460Y5100D02*
D03*
Y2560D02*
D03*
X29920Y5100D02*
D03*
X24200Y7560D02*
D03*
Y10100D02*
D03*
X26740Y7560D02*
D03*
Y10100D02*
D03*
X21660D02*
D03*
X13260Y44800D02*
D03*
X15800D02*
D03*
X43900Y2600D02*
D03*
X41360D02*
D03*
X50940Y45000D02*
D03*
X43860Y5500D02*
D03*
D74*
X22000Y3000D02*
D03*
X19500D02*
D03*
X17000D02*
D03*
X14500D02*
D03*
X24500D02*
D03*
X44100Y44900D02*
D03*
X41600D02*
D03*
X39100D02*
D03*
X36600D02*
D03*
X29600D02*
D03*
X27100D02*
D03*
X24600D02*
D03*
X22100D02*
D03*
X6100Y37300D02*
D03*
Y34800D02*
D03*
Y32300D02*
D03*
D75*
X12000Y3000D02*
D03*
X34100Y44900D02*
D03*
X19600D02*
D03*
D76*
X94900Y17500D02*
D03*
Y12000D02*
D03*
Y23000D02*
D03*
X89600Y16650D02*
D03*
Y23850D02*
D03*
D77*
X6100Y39800D02*
D03*
D78*
X3950Y13375D02*
D03*
Y9225D02*
D03*
D79*
X10800Y23300D02*
D03*
X10898Y16202D02*
D03*
X10700Y18000D02*
D03*
X11000Y19600D02*
D03*
X10900Y21000D02*
D03*
X88700Y27950D02*
D03*
X98700Y22950D02*
D03*
X97450Y5450D02*
D03*
X89950Y45450D02*
D03*
X78700Y32950D02*
D03*
X86200D02*
D03*
X72450Y35450D02*
D03*
X87450Y45450D02*
D03*
X72450Y30450D02*
D03*
X71200Y42950D02*
D03*
X94950Y5450D02*
D03*
X86200Y2950D02*
D03*
X69950Y30450D02*
D03*
X68700Y37950D02*
D03*
X81200Y32950D02*
D03*
X63700Y37950D02*
D03*
X62450Y35450D02*
D03*
X74950D02*
D03*
X69950D02*
D03*
X67450Y30450D02*
D03*
X61200Y42950D02*
D03*
Y37950D02*
D03*
X56200Y7950D02*
D03*
X82450Y35450D02*
D03*
X84950Y30450D02*
D03*
X94950D02*
D03*
X71200Y37950D02*
D03*
X76200Y32950D02*
D03*
X86200Y42950D02*
D03*
X81200D02*
D03*
X72450Y45450D02*
D03*
X81200Y37950D02*
D03*
X98700Y17950D02*
D03*
Y12950D02*
D03*
X83700Y32950D02*
D03*
X92450Y45450D02*
D03*
X74950Y40450D02*
D03*
X91200Y32950D02*
D03*
X69950Y40450D02*
D03*
X62450D02*
D03*
X59950D02*
D03*
X96200Y27950D02*
D03*
X87450Y30450D02*
D03*
X92450D02*
D03*
X82450Y40450D02*
D03*
X97450Y30450D02*
D03*
X64950D02*
D03*
X73700Y42950D02*
D03*
X91200Y27950D02*
D03*
X58700Y2950D02*
D03*
X64950Y35450D02*
D03*
X74950Y45450D02*
D03*
X83700Y42950D02*
D03*
X88700Y32950D02*
D03*
X87450Y5450D02*
D03*
X73700Y37950D02*
D03*
X84950Y45450D02*
D03*
X63700Y42950D02*
D03*
X93700Y2950D02*
D03*
X91200D02*
D03*
X96200Y32950D02*
D03*
X92450Y5450D02*
D03*
X81200Y27950D02*
D03*
X61200Y12950D02*
D03*
X83700Y37950D02*
D03*
X89950Y5450D02*
D03*
X62450Y45450D02*
D03*
X98700Y42950D02*
D03*
X88700Y2950D02*
D03*
X59950Y10450D02*
D03*
X98700Y32950D02*
D03*
Y27950D02*
D03*
Y7950D02*
D03*
X93700Y27950D02*
D03*
X67450Y40450D02*
D03*
X93700Y32950D02*
D03*
X72450Y40450D02*
D03*
X64950D02*
D03*
X69950Y45450D02*
D03*
X59950D02*
D03*
X86200Y27950D02*
D03*
X76200Y37950D02*
D03*
X89950Y30450D02*
D03*
X82450Y45450D02*
D03*
X74950Y30450D02*
D03*
X77450Y40450D02*
D03*
X97075Y35150D02*
D03*
X97825D02*
D03*
Y35900D02*
D03*
Y40400D02*
D03*
Y39650D02*
D03*
Y38900D02*
D03*
Y38150D02*
D03*
Y37400D02*
D03*
Y36650D02*
D03*
Y34400D02*
D03*
X97075Y40400D02*
D03*
Y39650D02*
D03*
Y34400D02*
D03*
X96325Y40400D02*
D03*
Y34400D02*
D03*
X95575Y40400D02*
D03*
Y34400D02*
D03*
X94825Y40400D02*
D03*
Y34400D02*
D03*
X94075Y40400D02*
D03*
Y34400D02*
D03*
X93325Y40400D02*
D03*
Y34400D02*
D03*
X92575Y40400D02*
D03*
Y39650D02*
D03*
Y35150D02*
D03*
Y34400D02*
D03*
X91825Y40400D02*
D03*
Y39650D02*
D03*
Y38900D02*
D03*
Y38150D02*
D03*
Y37400D02*
D03*
Y36650D02*
D03*
Y35900D02*
D03*
Y35150D02*
D03*
Y34400D02*
D03*
X71250Y23650D02*
D03*
Y22550D02*
D03*
Y15950D02*
D03*
Y14850D02*
D03*
Y8250D02*
D03*
Y7150D02*
D03*
X70150Y23650D02*
D03*
Y22550D02*
D03*
Y15950D02*
D03*
Y14850D02*
D03*
Y8250D02*
D03*
Y7150D02*
D03*
X69050Y23650D02*
D03*
Y22550D02*
D03*
Y15950D02*
D03*
Y14850D02*
D03*
Y8250D02*
D03*
Y7150D02*
D03*
X67950Y23650D02*
D03*
Y22550D02*
D03*
Y15950D02*
D03*
Y14850D02*
D03*
Y8250D02*
D03*
Y7150D02*
D03*
X66850Y23650D02*
D03*
Y22550D02*
D03*
Y15950D02*
D03*
Y14850D02*
D03*
Y8250D02*
D03*
Y7150D02*
D03*
X65750Y23650D02*
D03*
Y22550D02*
D03*
Y15950D02*
D03*
Y14850D02*
D03*
Y8250D02*
D03*
Y7150D02*
D03*
X64650Y23650D02*
D03*
Y22550D02*
D03*
Y14850D02*
D03*
Y7150D02*
D03*
X91700Y11450D02*
D03*
X90950Y9950D02*
D03*
X90200Y11450D02*
D03*
X89450Y9950D02*
D03*
X88700Y11450D02*
D03*
X87950Y9950D02*
D03*
X87200Y11450D02*
D03*
X86450Y9950D02*
D03*
X85700Y11450D02*
D03*
X84950Y9950D02*
D03*
X84200Y11450D02*
D03*
X83450Y9950D02*
D03*
X82700Y11450D02*
D03*
X81950Y9950D02*
D03*
X79300Y11550D02*
D03*
X78550Y10050D02*
D03*
X77800Y11550D02*
D03*
X77050Y10050D02*
D03*
X76300Y11550D02*
D03*
X75550Y10050D02*
D03*
X76300Y8550D02*
D03*
X74800Y11550D02*
D03*
X74050Y10050D02*
D03*
X74800Y8550D02*
D03*
X74050Y7050D02*
D03*
X73300Y11550D02*
D03*
X72550Y10050D02*
D03*
X71800Y11550D02*
D03*
X85700Y18950D02*
D03*
X84950Y17450D02*
D03*
X85700Y15950D02*
D03*
X84950Y14450D02*
D03*
X84200Y18950D02*
D03*
X83450Y17450D02*
D03*
X84200Y15950D02*
D03*
X83450Y14450D02*
D03*
X82700Y18950D02*
D03*
X81950Y17450D02*
D03*
X82700Y15950D02*
D03*
X81950Y14450D02*
D03*
X81200Y18950D02*
D03*
X80450Y17450D02*
D03*
X81200Y15950D02*
D03*
X80450Y14450D02*
D03*
X79700Y18950D02*
D03*
X78950Y17450D02*
D03*
X79700Y15950D02*
D03*
X78950Y14450D02*
D03*
X78200Y18950D02*
D03*
X77450Y17450D02*
D03*
X78200Y15950D02*
D03*
X77450Y14450D02*
D03*
X76700Y18950D02*
D03*
X75950Y17450D02*
D03*
X76700Y15950D02*
D03*
X75950Y14450D02*
D03*
X75200Y18950D02*
D03*
X74450Y17450D02*
D03*
X75200Y15950D02*
D03*
X74450Y14450D02*
D03*
X73700Y18950D02*
D03*
X72200D02*
D03*
X86450Y24950D02*
D03*
Y21950D02*
D03*
X84950Y24950D02*
D03*
X85700Y23450D02*
D03*
X84950Y21950D02*
D03*
X83450Y24950D02*
D03*
X84200Y23450D02*
D03*
X83450Y21950D02*
D03*
X81950Y24950D02*
D03*
X82700Y23450D02*
D03*
X81950Y21950D02*
D03*
X78950Y24950D02*
D03*
Y21950D02*
D03*
X77450Y24950D02*
D03*
X78200Y23450D02*
D03*
X77450Y21950D02*
D03*
X75950Y24950D02*
D03*
X76700Y23450D02*
D03*
X75950Y21950D02*
D03*
X74450Y27950D02*
D03*
X75200Y26450D02*
D03*
X74450Y24950D02*
D03*
X75200Y23450D02*
D03*
X74450Y21950D02*
D03*
X72950Y27950D02*
D03*
X73700Y26450D02*
D03*
Y23450D02*
D03*
X72950Y21950D02*
D03*
X71450Y27950D02*
D03*
X72200Y26450D02*
D03*
X68450Y27950D02*
D03*
X69200Y20450D02*
D03*
X68450Y18950D02*
D03*
Y12950D02*
D03*
X69200Y11450D02*
D03*
X66950Y27950D02*
D03*
X67700Y26450D02*
D03*
Y20450D02*
D03*
X66950Y18950D02*
D03*
Y12950D02*
D03*
X67700Y11450D02*
D03*
X65450Y27950D02*
D03*
X66200Y26450D02*
D03*
Y20450D02*
D03*
X65450Y18950D02*
D03*
Y12950D02*
D03*
X66200Y11450D02*
D03*
X63950Y27950D02*
D03*
X64700Y20450D02*
D03*
X63950Y12950D02*
D03*
X64700Y11450D02*
D03*
X17700Y39700D02*
D03*
X7400Y41300D02*
D03*
X12300Y22100D02*
D03*
X11348Y17552D02*
D03*
X13000Y21500D02*
D03*
X10900Y22000D02*
D03*
X10100Y29100D02*
D03*
X10852Y28352D02*
D03*
X8602Y30602D02*
D03*
X9352Y29852D02*
D03*
X9250Y28250D02*
D03*
X8500Y29000D02*
D03*
X16800Y19900D02*
D03*
X14500Y41600D02*
D03*
X19100Y36400D02*
D03*
X11500Y30500D02*
D03*
X10750Y29750D02*
D03*
X12700Y28650D02*
D03*
X11500Y29000D02*
D03*
X12250Y29750D02*
D03*
X10000Y30500D02*
D03*
X16800Y35900D02*
D03*
X35954Y23731D02*
D03*
X43250Y23750D02*
D03*
Y22750D02*
D03*
Y21750D02*
D03*
Y20750D02*
D03*
Y19750D02*
D03*
Y18750D02*
D03*
Y17750D02*
D03*
Y16750D02*
D03*
X42250Y23750D02*
D03*
Y22750D02*
D03*
Y21750D02*
D03*
Y20750D02*
D03*
Y19750D02*
D03*
Y18750D02*
D03*
Y17750D02*
D03*
Y16750D02*
D03*
X41250Y23750D02*
D03*
Y22750D02*
D03*
Y21750D02*
D03*
Y20750D02*
D03*
Y19750D02*
D03*
Y18750D02*
D03*
Y17750D02*
D03*
Y16750D02*
D03*
X40250Y23750D02*
D03*
Y22750D02*
D03*
Y21750D02*
D03*
Y20750D02*
D03*
Y19750D02*
D03*
Y18750D02*
D03*
Y17750D02*
D03*
Y16750D02*
D03*
X54650Y35050D02*
D03*
Y34050D02*
D03*
Y33050D02*
D03*
X53650Y35050D02*
D03*
Y34050D02*
D03*
Y33050D02*
D03*
X52650Y35050D02*
D03*
Y34050D02*
D03*
Y33050D02*
D03*
X56150Y12950D02*
D03*
Y11750D02*
D03*
X55550Y12950D02*
D03*
X55850Y12350D02*
D03*
X55550Y11750D02*
D03*
X55850Y11150D02*
D03*
X54950Y12950D02*
D03*
X55250Y12350D02*
D03*
X54950Y11750D02*
D03*
X55250Y11150D02*
D03*
X54350Y12950D02*
D03*
X54650Y12350D02*
D03*
X54350Y11750D02*
D03*
X54650Y11150D02*
D03*
X78350Y45350D02*
D03*
X78650Y44750D02*
D03*
X78350Y44150D02*
D03*
X78650Y43550D02*
D03*
X77750Y45350D02*
D03*
X78050Y44750D02*
D03*
X77750Y44150D02*
D03*
X78050Y43550D02*
D03*
X77150Y45350D02*
D03*
X77450Y44750D02*
D03*
X77150Y44150D02*
D03*
X77450Y43550D02*
D03*
X67550Y45350D02*
D03*
Y44150D02*
D03*
X66950Y45350D02*
D03*
X67250Y44750D02*
D03*
X66950Y44150D02*
D03*
X67250Y43550D02*
D03*
X66350Y45350D02*
D03*
X66650Y44750D02*
D03*
X66350Y44150D02*
D03*
X66650Y43550D02*
D03*
X49895Y13305D02*
D03*
X57700Y15700D02*
D03*
X56300Y15900D02*
D03*
X52900Y16600D02*
D03*
X51800Y16300D02*
D03*
X54600Y27800D02*
D03*
X55500Y28700D02*
D03*
X52500Y27000D02*
D03*
X46419Y31741D02*
D03*
X39000Y3200D02*
D03*
X35800Y9900D02*
D03*
X11700Y11800D02*
D03*
X20700Y22500D02*
D03*
X62000Y4700D02*
D03*
X76500Y4000D02*
D03*
X29600Y25700D02*
D03*
X32727Y25127D02*
D03*
X34700Y24011D02*
D03*
X56305Y38377D02*
D03*
X58000Y32500D02*
D03*
X57300Y37500D02*
D03*
X57745Y35790D02*
D03*
X50487Y38713D02*
D03*
X51477Y38624D02*
D03*
X49069Y36400D02*
D03*
X54104Y38377D02*
D03*
X52577D02*
D03*
X52077Y39177D02*
D03*
X52000Y9700D02*
D03*
X49777Y10434D02*
D03*
X57600Y9000D02*
D03*
X61000Y21900D02*
D03*
X79500Y30900D02*
D03*
X43900Y13100D02*
D03*
X43800Y13800D02*
D03*
X44200Y10800D02*
D03*
X29400Y9133D02*
D03*
X29000Y11200D02*
D03*
X52600Y18200D02*
D03*
X48900Y25200D02*
D03*
X53600Y20300D02*
D03*
Y21200D02*
D03*
X50000Y19300D02*
D03*
X38900Y13900D02*
D03*
X38300D02*
D03*
X37600D02*
D03*
X36600Y16600D02*
D03*
X43700Y34600D02*
D03*
X43000Y36900D02*
D03*
X36700Y31900D02*
D03*
X30400Y14200D02*
D03*
X25400Y16700D02*
D03*
X25727Y17377D02*
D03*
X29000Y24900D02*
D03*
X79480Y6852D02*
D03*
X25004Y36906D02*
D03*
X20400Y40100D02*
D03*
X23400D02*
D03*
X26400D02*
D03*
X35300D02*
D03*
X38300D02*
D03*
X41300D02*
D03*
X10200Y14800D02*
D03*
X9000Y12300D02*
D03*
X17300Y10600D02*
D03*
X44900Y8700D02*
D03*
X46700Y14600D02*
D03*
X45800D02*
D03*
X50000Y20900D02*
D03*
X29400Y7100D02*
D03*
X34400Y9400D02*
D03*
X53600Y40000D02*
D03*
X32400Y33600D02*
D03*
X33500D02*
D03*
X34500Y34800D02*
D03*
X34597Y37480D02*
D03*
X33894Y35662D02*
D03*
X31200Y41300D02*
D03*
X30000Y41000D02*
D03*
X26900Y38600D02*
D03*
X23800D02*
D03*
X20600D02*
D03*
X32700Y41500D02*
D03*
X37000Y34400D02*
D03*
X39300Y34900D02*
D03*
X42500Y33898D02*
D03*
X35800Y38600D02*
D03*
X38800D02*
D03*
X44000Y33800D02*
D03*
X44634Y32529D02*
D03*
X45300Y33600D02*
D03*
X47800Y35856D02*
D03*
X47600Y38300D02*
D03*
X51400Y40200D02*
D03*
X50300Y40500D02*
D03*
X47751Y15003D02*
D03*
X47623Y16383D02*
D03*
X46777Y16977D02*
D03*
X47277Y18343D02*
D03*
X34800Y26700D02*
D03*
X33700Y27500D02*
D03*
X36000Y27300D02*
D03*
X33400Y30300D02*
D03*
X32100Y27200D02*
D03*
X13000Y16800D02*
D03*
X12900Y15000D02*
D03*
X13900Y12900D02*
D03*
X16900Y16419D02*
D03*
X26000Y24800D02*
D03*
X25606Y25383D02*
D03*
X38100Y26200D02*
D03*
X43200Y27948D02*
D03*
X44277Y27377D02*
D03*
X50200Y15900D02*
D03*
X50100Y14400D02*
D03*
X59500Y18500D02*
D03*
X44777Y14677D02*
D03*
X45923Y16121D02*
D03*
X58100Y21900D02*
D03*
X60600Y32200D02*
D03*
X80500Y29400D02*
D03*
X77600Y29000D02*
D03*
X85600Y27500D02*
D03*
X83100Y30700D02*
D03*
X84400Y4500D02*
D03*
X68600Y2100D02*
D03*
X84500Y29200D02*
D03*
X76700Y6300D02*
D03*
X81100Y26300D02*
D03*
X80000D02*
D03*
X81100Y23000D02*
D03*
X80000D02*
D03*
X80100Y5600D02*
D03*
X81200Y11000D02*
D03*
X80100D02*
D03*
X81200Y5600D02*
D03*
X79400Y2900D02*
D03*
X25500Y29000D02*
D03*
X23900Y22800D02*
D03*
X26100Y29900D02*
D03*
X23800Y19700D02*
D03*
X31800Y31100D02*
D03*
X32200Y26000D02*
D03*
X26000Y20700D02*
D03*
X42363Y13700D02*
D03*
X39922Y14100D02*
D03*
X16800Y21500D02*
D03*
X22800Y23600D02*
D03*
X37400Y24508D02*
D03*
X16800Y20700D02*
D03*
Y19100D02*
D03*
Y18300D02*
D03*
X32600Y9100D02*
D03*
X33300Y9900D02*
D03*
X21900Y15100D02*
D03*
X41114Y11901D02*
D03*
X42144Y12900D02*
D03*
X42363Y12100D02*
D03*
X27200Y29200D02*
D03*
X29075Y29175D02*
D03*
X28100Y29200D02*
D03*
X36513Y23269D02*
D03*
X37851Y25054D02*
D03*
X36925Y20650D02*
D03*
X37162Y22997D02*
D03*
X37647Y16947D02*
D03*
X30200Y22150D02*
D03*
X37577Y21377D02*
D03*
X54577Y39177D02*
D03*
X53050D02*
D03*
X49877Y7577D02*
D03*
X20477Y14627D02*
D03*
X46742Y18912D02*
D03*
X46170Y21284D02*
D03*
X45324Y25934D02*
D03*
X45977Y20078D02*
D03*
X55677Y39177D02*
D03*
X44777Y26477D02*
D03*
X43312Y26598D02*
D03*
X37677Y22515D02*
D03*
X41442Y26598D02*
D03*
X40723Y27577D02*
D03*
X41873Y27577D02*
D03*
X55220Y38471D02*
D03*
X42377Y28977D02*
D03*
D80*
X56800Y43300D02*
D03*
X55900D02*
D03*
D81*
X97000Y3000D02*
D03*
Y45000D02*
D03*
X3000D02*
D03*
Y3000D02*
D03*
%TF.MD5,cdf3cca08cd35ebe49d7cc7942314a4b*%
M02*
