%TF.GenerationSoftware,Altium Limited,Altium Designer,23.4.1 (23)*%
G04 Layer_Physical_Order=3*
G04 Layer_Color=128*
%FSLAX43Y43*%
%MOMM*%
%TF.SameCoordinates,F1D85D2B-AD7B-4026-9487-DA5914AD0DFB*%
%TF.FilePolarity,Negative*%
%TF.FileFunction,Copper,L3,Inr,Plane*%
%TF.Part,Single*%
G01*
G75*
%TA.AperFunction,NonConductor*%
%ADD82C,1.016*%
%TA.AperFunction,ComponentPad*%
%ADD84C,5.350*%
%ADD85C,1.300*%
%ADD86C,1.450*%
%ADD87C,4.700*%
%ADD88C,0.900*%
%TA.AperFunction,ViaPad*%
%ADD89C,0.700*%
%TA.AperFunction,NonConductor*%
%ADD91C,0.500*%
%ADD92C,1.000*%
%ADD93C,0.254*%
%TA.AperFunction,ViaPad*%
%ADD94C,3.400*%
D82*
X0Y0D02*
X100000D01*
Y48000D01*
X0D02*
X100000D01*
X0Y0D02*
Y48000D01*
D84*
X87500Y37400D02*
D03*
D85*
X29920Y2560D02*
D03*
X37540D02*
D03*
X35000Y5100D02*
D03*
Y2560D02*
D03*
X32460Y5100D02*
D03*
Y2560D02*
D03*
X29920Y5100D02*
D03*
X21660Y7560D02*
D03*
X24200D02*
D03*
Y10100D02*
D03*
X26740Y7560D02*
D03*
Y10100D02*
D03*
X48400Y45000D02*
D03*
X13260Y44800D02*
D03*
X10720D02*
D03*
X15800D02*
D03*
X43900Y2600D02*
D03*
X46440D02*
D03*
X41360D02*
D03*
X50940Y45000D02*
D03*
X46400Y5500D02*
D03*
D86*
X22000Y3000D02*
D03*
X19500D02*
D03*
X17000D02*
D03*
X14500D02*
D03*
X12000D02*
D03*
X24500D02*
D03*
X44100Y44900D02*
D03*
X41600D02*
D03*
X39100D02*
D03*
X36600D02*
D03*
X34100D02*
D03*
X29600D02*
D03*
X27100D02*
D03*
X24600D02*
D03*
X22100D02*
D03*
X19600D02*
D03*
X6100Y37300D02*
D03*
Y34800D02*
D03*
Y39800D02*
D03*
Y32300D02*
D03*
D87*
X94900Y17500D02*
D03*
Y12000D02*
D03*
Y23000D02*
D03*
X89600Y16650D02*
D03*
Y23850D02*
D03*
D88*
X3950Y13375D02*
D03*
Y9225D02*
D03*
D89*
X10800Y23300D02*
D03*
X10898Y16202D02*
D03*
X10700Y18000D02*
D03*
X11000Y19600D02*
D03*
X10900Y21000D02*
D03*
X88700Y27950D02*
D03*
X98700Y22950D02*
D03*
X97450Y5450D02*
D03*
X89950Y45450D02*
D03*
X78700Y32950D02*
D03*
X86200D02*
D03*
X72450Y35450D02*
D03*
X87450Y45450D02*
D03*
X72450Y30450D02*
D03*
X71200Y42950D02*
D03*
X94950Y5450D02*
D03*
X86200Y2950D02*
D03*
X69950Y30450D02*
D03*
X68700Y37950D02*
D03*
X81200Y32950D02*
D03*
X63700Y37950D02*
D03*
X62450Y35450D02*
D03*
X74950D02*
D03*
X69950D02*
D03*
X67450Y30450D02*
D03*
X61200Y42950D02*
D03*
Y37950D02*
D03*
X56200Y7950D02*
D03*
X82450Y35450D02*
D03*
X84950Y30450D02*
D03*
X94950D02*
D03*
X71200Y37950D02*
D03*
X76200Y32950D02*
D03*
X86200Y42950D02*
D03*
X81200D02*
D03*
X72450Y45450D02*
D03*
X81200Y37950D02*
D03*
X98700Y17950D02*
D03*
Y12950D02*
D03*
X83700Y32950D02*
D03*
X92450Y45450D02*
D03*
X74950Y40450D02*
D03*
X91200Y32950D02*
D03*
X69950Y40450D02*
D03*
X62450D02*
D03*
X59950D02*
D03*
X96200Y27950D02*
D03*
X87450Y30450D02*
D03*
X92450D02*
D03*
X82450Y40450D02*
D03*
X97450Y30450D02*
D03*
X64950D02*
D03*
X73700Y42950D02*
D03*
X91200Y27950D02*
D03*
X58700Y2950D02*
D03*
X64950Y35450D02*
D03*
X74950Y45450D02*
D03*
X83700Y42950D02*
D03*
X88700Y32950D02*
D03*
X87450Y5450D02*
D03*
X73700Y37950D02*
D03*
X84950Y45450D02*
D03*
X63700Y42950D02*
D03*
X93700Y2950D02*
D03*
X91200D02*
D03*
X96200Y32950D02*
D03*
X92450Y5450D02*
D03*
X81200Y27950D02*
D03*
X61200Y12950D02*
D03*
X83700Y37950D02*
D03*
X89950Y5450D02*
D03*
X62450Y45450D02*
D03*
X98700Y42950D02*
D03*
X88700Y2950D02*
D03*
X59950Y10450D02*
D03*
X98700Y32950D02*
D03*
Y27950D02*
D03*
Y7950D02*
D03*
X93700Y27950D02*
D03*
X67450Y40450D02*
D03*
X93700Y32950D02*
D03*
X72450Y40450D02*
D03*
X64950D02*
D03*
X69950Y45450D02*
D03*
X59950D02*
D03*
X86200Y27950D02*
D03*
X76200Y37950D02*
D03*
X89950Y30450D02*
D03*
X82450Y45450D02*
D03*
X74950Y30450D02*
D03*
X77450Y40450D02*
D03*
X91700Y11450D02*
D03*
X90950Y9950D02*
D03*
X90200Y11450D02*
D03*
X89450Y9950D02*
D03*
X88700Y11450D02*
D03*
X87950Y9950D02*
D03*
X87200Y11450D02*
D03*
X86450Y9950D02*
D03*
X85700Y11450D02*
D03*
X84950Y9950D02*
D03*
X84200Y11450D02*
D03*
X83450Y9950D02*
D03*
X82700Y11450D02*
D03*
X81950Y9950D02*
D03*
X79300Y11550D02*
D03*
X78550Y10050D02*
D03*
X77800Y11550D02*
D03*
X77050Y10050D02*
D03*
X76300Y11550D02*
D03*
X75550Y10050D02*
D03*
X76300Y8550D02*
D03*
X74800Y11550D02*
D03*
X74050Y10050D02*
D03*
X74800Y8550D02*
D03*
X74050Y7050D02*
D03*
X73300Y11550D02*
D03*
X72550Y10050D02*
D03*
X71800Y11550D02*
D03*
X85700Y18950D02*
D03*
X84950Y17450D02*
D03*
X85700Y15950D02*
D03*
X84950Y14450D02*
D03*
X84200Y18950D02*
D03*
X83450Y17450D02*
D03*
X84200Y15950D02*
D03*
X83450Y14450D02*
D03*
X82700Y18950D02*
D03*
X81950Y17450D02*
D03*
X82700Y15950D02*
D03*
X81950Y14450D02*
D03*
X81200Y18950D02*
D03*
X80450Y17450D02*
D03*
X81200Y15950D02*
D03*
X80450Y14450D02*
D03*
X79700Y18950D02*
D03*
X78950Y17450D02*
D03*
X79700Y15950D02*
D03*
X78950Y14450D02*
D03*
X78200Y18950D02*
D03*
X77450Y17450D02*
D03*
X78200Y15950D02*
D03*
X77450Y14450D02*
D03*
X76700Y18950D02*
D03*
X75950Y17450D02*
D03*
X76700Y15950D02*
D03*
X75950Y14450D02*
D03*
X75200Y18950D02*
D03*
X74450Y17450D02*
D03*
X75200Y15950D02*
D03*
X74450Y14450D02*
D03*
X73700Y18950D02*
D03*
X72200D02*
D03*
X86450Y24950D02*
D03*
Y21950D02*
D03*
X84950Y24950D02*
D03*
X85700Y23450D02*
D03*
X84950Y21950D02*
D03*
X83450Y24950D02*
D03*
X84200Y23450D02*
D03*
X83450Y21950D02*
D03*
X81950Y24950D02*
D03*
X82700Y23450D02*
D03*
X81950Y21950D02*
D03*
X78950Y24950D02*
D03*
Y21950D02*
D03*
X77450Y24950D02*
D03*
X78200Y23450D02*
D03*
X77450Y21950D02*
D03*
X75950Y24950D02*
D03*
X76700Y23450D02*
D03*
X75950Y21950D02*
D03*
X74450Y27950D02*
D03*
X75200Y26450D02*
D03*
X74450Y24950D02*
D03*
X75200Y23450D02*
D03*
X74450Y21950D02*
D03*
X72950Y27950D02*
D03*
X73700Y26450D02*
D03*
Y23450D02*
D03*
X72950Y21950D02*
D03*
X71450Y27950D02*
D03*
X72200Y26450D02*
D03*
X68450Y27950D02*
D03*
X69200Y20450D02*
D03*
X68450Y18950D02*
D03*
Y12950D02*
D03*
X69200Y11450D02*
D03*
X66950Y27950D02*
D03*
X67700Y26450D02*
D03*
Y20450D02*
D03*
X66950Y18950D02*
D03*
Y12950D02*
D03*
X67700Y11450D02*
D03*
X65450Y27950D02*
D03*
X66200Y26450D02*
D03*
Y20450D02*
D03*
X65450Y18950D02*
D03*
Y12950D02*
D03*
X66200Y11450D02*
D03*
X63950Y27950D02*
D03*
X64700Y20450D02*
D03*
X63950Y12950D02*
D03*
X64700Y11450D02*
D03*
X17700Y39700D02*
D03*
X11348Y17552D02*
D03*
X13000Y21500D02*
D03*
X16800Y19900D02*
D03*
X14500Y41600D02*
D03*
X19100Y36400D02*
D03*
X16800Y35900D02*
D03*
X35954Y23731D02*
D03*
X43250Y23750D02*
D03*
Y22750D02*
D03*
Y21750D02*
D03*
Y20750D02*
D03*
Y19750D02*
D03*
Y18750D02*
D03*
Y17750D02*
D03*
Y16750D02*
D03*
X42250Y23750D02*
D03*
Y22750D02*
D03*
Y21750D02*
D03*
Y20750D02*
D03*
Y19750D02*
D03*
Y18750D02*
D03*
Y17750D02*
D03*
Y16750D02*
D03*
X41250Y23750D02*
D03*
Y22750D02*
D03*
Y21750D02*
D03*
Y20750D02*
D03*
Y19750D02*
D03*
Y18750D02*
D03*
Y17750D02*
D03*
Y16750D02*
D03*
X40250Y23750D02*
D03*
Y22750D02*
D03*
Y21750D02*
D03*
Y20750D02*
D03*
Y19750D02*
D03*
Y18750D02*
D03*
Y17750D02*
D03*
Y16750D02*
D03*
X49895Y13305D02*
D03*
X57700Y15700D02*
D03*
X56300Y15900D02*
D03*
X52900Y16600D02*
D03*
X51800Y16300D02*
D03*
X54600Y27800D02*
D03*
X55500Y28700D02*
D03*
X52500Y27000D02*
D03*
X46419Y31741D02*
D03*
X39000Y3200D02*
D03*
X35800Y9900D02*
D03*
X11700Y11800D02*
D03*
X20700Y22500D02*
D03*
X62000Y4700D02*
D03*
X76500Y4000D02*
D03*
X32727Y25127D02*
D03*
X56305Y38377D02*
D03*
X58000Y32500D02*
D03*
X57300Y37500D02*
D03*
X57745Y35790D02*
D03*
X50487Y38713D02*
D03*
X51477Y38624D02*
D03*
X49069Y36400D02*
D03*
X54104Y38377D02*
D03*
X52577D02*
D03*
X52077Y39177D02*
D03*
X52000Y9700D02*
D03*
X49777Y10434D02*
D03*
X57600Y9000D02*
D03*
X61000Y21900D02*
D03*
X79500Y30900D02*
D03*
X43800Y13800D02*
D03*
X44200Y10800D02*
D03*
X29400Y9133D02*
D03*
X29000Y11200D02*
D03*
X48900Y25200D02*
D03*
X53600Y20300D02*
D03*
Y21200D02*
D03*
X50000Y19300D02*
D03*
X43700Y34600D02*
D03*
X25727Y17377D02*
D03*
X29000Y24900D02*
D03*
X79480Y6852D02*
D03*
X25004Y36906D02*
D03*
X20400Y40100D02*
D03*
X23400D02*
D03*
X26400D02*
D03*
X35300D02*
D03*
X38300D02*
D03*
X41300D02*
D03*
X10200Y14800D02*
D03*
X9000Y12300D02*
D03*
X17300Y10600D02*
D03*
X44900Y8700D02*
D03*
X46700Y14600D02*
D03*
X45800D02*
D03*
X50000Y20900D02*
D03*
X29400Y7100D02*
D03*
X34400Y9400D02*
D03*
X32400Y33600D02*
D03*
X33500D02*
D03*
X34500Y34800D02*
D03*
X34597Y37480D02*
D03*
X33894Y35662D02*
D03*
X30000Y41000D02*
D03*
X26900Y38600D02*
D03*
X23800D02*
D03*
X20600D02*
D03*
X32700Y41500D02*
D03*
X37000Y34400D02*
D03*
X39300Y34900D02*
D03*
X42500Y33898D02*
D03*
X35800Y38600D02*
D03*
X38800D02*
D03*
X44000Y33800D02*
D03*
X44634Y32529D02*
D03*
X45300Y33600D02*
D03*
X47800Y35856D02*
D03*
X47600Y38300D02*
D03*
X51400Y40200D02*
D03*
X47751Y15003D02*
D03*
X47623Y16383D02*
D03*
X46777Y16977D02*
D03*
X47277Y18343D02*
D03*
X34800Y26700D02*
D03*
X33700Y27500D02*
D03*
X36000Y27300D02*
D03*
X13900Y12900D02*
D03*
X16900Y16419D02*
D03*
X26000Y24800D02*
D03*
X25606Y25383D02*
D03*
X44277Y27377D02*
D03*
X50200Y15900D02*
D03*
X50100Y14400D02*
D03*
X59500Y18500D02*
D03*
X44777Y14677D02*
D03*
X45923Y16121D02*
D03*
X58100Y21900D02*
D03*
X60600Y32200D02*
D03*
X80500Y29400D02*
D03*
X77600Y29000D02*
D03*
X85600Y27500D02*
D03*
X83100Y30700D02*
D03*
X84400Y4500D02*
D03*
X68600Y2100D02*
D03*
X84500Y29200D02*
D03*
X76700Y6300D02*
D03*
X81100Y26300D02*
D03*
X80000D02*
D03*
X81100Y23000D02*
D03*
X80000D02*
D03*
X80100Y5600D02*
D03*
X81200Y11000D02*
D03*
X80100D02*
D03*
X81200Y5600D02*
D03*
X79400Y2900D02*
D03*
X25500Y29000D02*
D03*
X23900Y22800D02*
D03*
X26100Y29900D02*
D03*
X23800Y19700D02*
D03*
X31800Y31100D02*
D03*
X32200Y26000D02*
D03*
X26000Y20700D02*
D03*
X42363Y13700D02*
D03*
X39922Y14100D02*
D03*
X16800Y21500D02*
D03*
X22800Y23600D02*
D03*
X37400Y24508D02*
D03*
X16800Y20700D02*
D03*
Y19100D02*
D03*
Y18300D02*
D03*
X32600Y9100D02*
D03*
X33300Y9900D02*
D03*
X21900Y15100D02*
D03*
X41114Y11901D02*
D03*
X42144Y12900D02*
D03*
X42363Y12100D02*
D03*
X27200Y29200D02*
D03*
X29075Y29175D02*
D03*
X28100Y29200D02*
D03*
X36513Y23269D02*
D03*
X37851Y25054D02*
D03*
X36925Y20650D02*
D03*
X37162Y22997D02*
D03*
X37647Y16947D02*
D03*
X30200Y22150D02*
D03*
X37577Y21377D02*
D03*
X54577Y39177D02*
D03*
X53050D02*
D03*
X49877Y7577D02*
D03*
X20477Y14627D02*
D03*
X46742Y18912D02*
D03*
X46170Y21284D02*
D03*
X45324Y25934D02*
D03*
X45977Y20078D02*
D03*
X55677Y39177D02*
D03*
X44777Y26477D02*
D03*
X43312Y26598D02*
D03*
X37677Y22515D02*
D03*
X41442Y26598D02*
D03*
X40723Y27577D02*
D03*
X41873Y27577D02*
D03*
X55220Y38471D02*
D03*
X42377Y28977D02*
D03*
D91*
X57100Y37346D02*
G03*
X56846Y37600I-254J0D01*
G01*
Y30600D02*
G03*
X57100Y30854I0J254D01*
G01*
X50354Y37600D02*
G03*
X50100Y37346I0J-254D01*
G01*
Y30854D02*
G03*
X50354Y30600I254J0D01*
G01*
X56846D01*
X50354Y37600D02*
X56846D01*
X57100Y30854D02*
Y37346D01*
X50100Y30854D02*
Y37346D01*
D92*
X51000Y0D02*
Y22600D01*
X59100Y30700D01*
Y37900D01*
X55100Y41900D02*
X59100Y37900D01*
X49000Y48000D02*
X55100Y41900D01*
D93*
X0Y0D02*
X51000D01*
X0Y48000D02*
X49000D01*
X0Y0D02*
Y48000D01*
D94*
X97000Y3000D02*
D03*
Y45000D02*
D03*
X3000D02*
D03*
Y3000D02*
D03*
%TF.MD5,6019ca40a9feb52a72d73db7c1b67d73*%
M02*
