%TF.GenerationSoftware,Altium Limited,Altium Designer,23.4.1 (23)*%
G04 Layer_Color=8421504*
%FSLAX43Y43*%
%MOMM*%
%TF.SameCoordinates,F1D85D2B-AD7B-4026-9487-DA5914AD0DFB*%
%TF.FilePolarity,Positive*%
%TF.FileFunction,Paste,Top*%
%TF.Part,Single*%
G01*
G75*
%TA.AperFunction,SMDPad,CuDef*%
%ADD10R,0.900X1.050*%
%ADD11R,0.800X0.800*%
%ADD12R,0.912X0.958*%
%ADD13R,0.850X0.950*%
%ADD14R,2.000X4.100*%
G04:AMPARAMS|DCode=15|XSize=1.554mm|YSize=0.376mm|CornerRadius=0.188mm|HoleSize=0mm|Usage=FLASHONLY|Rotation=90.000|XOffset=0mm|YOffset=0mm|HoleType=Round|Shape=RoundedRectangle|*
%AMROUNDEDRECTD15*
21,1,1.554,0.000,0,0,90.0*
21,1,1.178,0.376,0,0,90.0*
1,1,0.376,0.000,0.589*
1,1,0.376,0.000,-0.589*
1,1,0.376,0.000,-0.589*
1,1,0.376,0.000,0.589*
%
%ADD15ROUNDEDRECTD15*%
%ADD16R,0.376X1.554*%
G04:AMPARAMS|DCode=17|XSize=1.554mm|YSize=0.376mm|CornerRadius=0.188mm|HoleSize=0mm|Usage=FLASHONLY|Rotation=0.000|XOffset=0mm|YOffset=0mm|HoleType=Round|Shape=RoundedRectangle|*
%AMROUNDEDRECTD17*
21,1,1.554,0.000,0,0,0.0*
21,1,1.178,0.376,0,0,0.0*
1,1,0.376,0.589,0.000*
1,1,0.376,-0.589,0.000*
1,1,0.376,-0.589,0.000*
1,1,0.376,0.589,0.000*
%
%ADD17ROUNDEDRECTD17*%
%ADD18R,1.554X0.376*%
%ADD19R,1.050X0.900*%
%ADD20R,0.950X0.950*%
%ADD21R,0.750X0.900*%
%ADD22R,1.550X0.950*%
%ADD23R,1.800X1.400*%
%ADD24R,2.100X1.800*%
%ADD25R,0.957X0.962*%
%ADD26O,0.350X2.000*%
%ADD28R,0.950X0.850*%
%ADD29R,0.950X0.700*%
%ADD30R,0.610X1.118*%
%ADD31R,1.350X0.400*%
%ADD32R,1.900X1.900*%
%ADD33R,1.900X1.800*%
%ADD34R,2.600X1.900*%
%ADD35R,1.550X0.600*%
%ADD36R,2.200X1.000*%
%ADD37R,2.200X3.300*%
%ADD38R,1.006X0.958*%
%ADD39R,0.750X0.850*%
%ADD40R,0.958X0.912*%
%ADD41R,1.007X0.958*%
%ADD42R,0.958X1.007*%
%ADD43R,1.200X1.400*%
%ADD44R,1.500X0.550*%
%ADD45R,0.550X1.500*%
G04:AMPARAMS|DCode=46|XSize=0.254mm|YSize=0.889mm|CornerRadius=0.095mm|HoleSize=0mm|Usage=FLASHONLY|Rotation=90.000|XOffset=0mm|YOffset=0mm|HoleType=Round|Shape=RoundedRectangle|*
%AMROUNDEDRECTD46*
21,1,0.254,0.699,0,0,90.0*
21,1,0.064,0.889,0,0,90.0*
1,1,0.191,0.349,0.032*
1,1,0.191,0.349,-0.032*
1,1,0.191,-0.349,-0.032*
1,1,0.191,-0.349,0.032*
%
%ADD46ROUNDEDRECTD46*%
G04:AMPARAMS|DCode=47|XSize=0.254mm|YSize=0.889mm|CornerRadius=0.095mm|HoleSize=0mm|Usage=FLASHONLY|Rotation=0.000|XOffset=0mm|YOffset=0mm|HoleType=Round|Shape=RoundedRectangle|*
%AMROUNDEDRECTD47*
21,1,0.254,0.699,0,0,0.0*
21,1,0.064,0.889,0,0,0.0*
1,1,0.191,0.032,-0.349*
1,1,0.191,-0.032,-0.349*
1,1,0.191,-0.032,0.349*
1,1,0.191,0.032,0.349*
%
%ADD47ROUNDEDRECTD47*%
G04:AMPARAMS|DCode=49|XSize=0.192mm|YSize=0.96mm|CornerRadius=0.096mm|HoleSize=0mm|Usage=FLASHONLY|Rotation=90.000|XOffset=0mm|YOffset=0mm|HoleType=Round|Shape=RoundedRectangle|*
%AMROUNDEDRECTD49*
21,1,0.192,0.768,0,0,90.0*
21,1,0.000,0.960,0,0,90.0*
1,1,0.192,0.384,0.000*
1,1,0.192,0.384,0.000*
1,1,0.192,-0.384,0.000*
1,1,0.192,-0.384,0.000*
%
%ADD49ROUNDEDRECTD49*%
G04:AMPARAMS|DCode=50|XSize=0.192mm|YSize=0.961mm|CornerRadius=0.096mm|HoleSize=0mm|Usage=FLASHONLY|Rotation=90.000|XOffset=0mm|YOffset=0mm|HoleType=Round|Shape=RoundedRectangle|*
%AMROUNDEDRECTD50*
21,1,0.192,0.769,0,0,90.0*
21,1,0.000,0.961,0,0,90.0*
1,1,0.192,0.384,0.000*
1,1,0.192,0.384,0.000*
1,1,0.192,-0.384,0.000*
1,1,0.192,-0.384,0.000*
%
%ADD50ROUNDEDRECTD50*%
G04:AMPARAMS|DCode=51|XSize=0.961mm|YSize=0.192mm|CornerRadius=0.096mm|HoleSize=0mm|Usage=FLASHONLY|Rotation=90.000|XOffset=0mm|YOffset=0mm|HoleType=Round|Shape=RoundedRectangle|*
%AMROUNDEDRECTD51*
21,1,0.961,0.000,0,0,90.0*
21,1,0.769,0.192,0,0,90.0*
1,1,0.192,0.000,0.384*
1,1,0.192,0.000,-0.384*
1,1,0.192,0.000,-0.384*
1,1,0.192,0.000,0.384*
%
%ADD51ROUNDEDRECTD51*%
%ADD52C,0.173*%
%ADD54R,0.950X0.950*%
%ADD55R,1.306X1.058*%
%ADD56R,0.912X1.058*%
%ADD57R,1.550X1.500*%
%ADD58R,1.500X1.550*%
%ADD59R,1.050X1.100*%
%ADD60R,1.058X1.012*%
%ADD61R,1.058X0.912*%
%ADD62R,1.100X1.300*%
%ADD63R,2.955X3.506*%
%ADD64R,0.660X0.381*%
%ADD65R,2.804X1.653*%
G04:AMPARAMS|DCode=66|XSize=1.754mm|YSize=0.476mm|CornerRadius=0.238mm|HoleSize=0mm|Usage=FLASHONLY|Rotation=180.000|XOffset=0mm|YOffset=0mm|HoleType=Round|Shape=RoundedRectangle|*
%AMROUNDEDRECTD66*
21,1,1.754,0.000,0,0,180.0*
21,1,1.278,0.476,0,0,180.0*
1,1,0.476,-0.639,0.000*
1,1,0.476,0.639,0.000*
1,1,0.476,0.639,0.000*
1,1,0.476,-0.639,0.000*
%
%ADD66ROUNDEDRECTD66*%
%ADD67R,1.754X0.476*%
%TA.AperFunction,NonConductor*%
%ADD105R,1.760X1.617*%
%TA.AperFunction,SMDPad,CuDef*%
%ADD106R,0.025X0.025*%
G36*
X55522Y34859D02*
X54359D01*
Y36022D01*
X55522D01*
Y34859D01*
D02*
G37*
G36*
X54159D02*
X52995D01*
Y36022D01*
X54159D01*
Y34859D01*
D02*
G37*
G36*
X52795D02*
X51632D01*
Y36022D01*
X52795D01*
Y34859D01*
D02*
G37*
G36*
X55522Y33495D02*
X54359D01*
Y34659D01*
X55522D01*
Y33495D01*
D02*
G37*
G36*
X54159D02*
X52995D01*
Y34659D01*
X54159D01*
Y33495D01*
D02*
G37*
G36*
X52795D02*
X51632D01*
Y34659D01*
X52795D01*
Y33495D01*
D02*
G37*
G36*
X55522Y32132D02*
X54359D01*
Y33295D01*
X55522D01*
Y32132D01*
D02*
G37*
G36*
X54159D02*
X52995D01*
Y33295D01*
X54159D01*
Y32132D01*
D02*
G37*
G36*
X52795D02*
X51632D01*
Y33295D01*
X52795D01*
Y32132D01*
D02*
G37*
G36*
X57438Y31450D02*
X56644D01*
X56625Y31450D01*
X56590Y31464D01*
X56563Y31491D01*
X56549Y31526D01*
Y31545D01*
Y31545D01*
Y31609D01*
Y31628D01*
X56563Y31663D01*
X56590Y31689D01*
X56625Y31704D01*
X57438D01*
Y31450D01*
D02*
G37*
G36*
X72475Y26032D02*
X70367D01*
Y28522D01*
X72475D01*
Y26032D01*
D02*
G37*
G36*
X71687Y22032D02*
X69579D01*
Y24522D01*
X71687D01*
Y22032D01*
D02*
G37*
G36*
X72475Y18032D02*
X70367D01*
Y20522D01*
X72475D01*
Y18032D01*
D02*
G37*
G36*
X39232Y15616D02*
X39259Y15589D01*
X39273Y15554D01*
Y15535D01*
Y14671D01*
X39081D01*
Y15535D01*
Y15554D01*
X39095Y15589D01*
X39122Y15616D01*
X39158Y15631D01*
X39196D01*
X39232Y15616D01*
D02*
G37*
G36*
X71687Y14032D02*
X69579D01*
Y16522D01*
X71687D01*
Y14032D01*
D02*
G37*
G36*
X72475Y10032D02*
X70367D01*
Y12522D01*
X72475D01*
Y10032D01*
D02*
G37*
G36*
X71687Y6032D02*
X69579D01*
Y8522D01*
X71687D01*
Y6032D01*
D02*
G37*
D10*
X8475Y16000D02*
D03*
X9925D02*
D03*
X8475Y17500D02*
D03*
X9925D02*
D03*
X8475Y19000D02*
D03*
X9925D02*
D03*
X8475Y20500D02*
D03*
X9925D02*
D03*
X8475Y25200D02*
D03*
X9925D02*
D03*
X48775Y24300D02*
D03*
X50225D02*
D03*
X51675D02*
D03*
X53125D02*
D03*
X9925Y26800D02*
D03*
X8475D02*
D03*
X9925Y22000D02*
D03*
X8475D02*
D03*
X9925Y23600D02*
D03*
X8475D02*
D03*
X78052Y3777D02*
D03*
X79502D02*
D03*
X78052Y30027D02*
D03*
X79502D02*
D03*
D11*
X5750Y26800D02*
D03*
X7250D02*
D03*
X7250Y16000D02*
D03*
X5750D02*
D03*
X7250Y17500D02*
D03*
X5750D02*
D03*
X7250Y20500D02*
D03*
X5750D02*
D03*
X7250Y19000D02*
D03*
X5750D02*
D03*
X7250Y23600D02*
D03*
X5750D02*
D03*
X7250Y25200D02*
D03*
X5750D02*
D03*
X5750Y22000D02*
D03*
X7250D02*
D03*
D12*
X11750Y27954D02*
D03*
Y26500D02*
D03*
X9000Y34023D02*
D03*
Y35477D02*
D03*
X12250Y17877D02*
D03*
Y16423D02*
D03*
D13*
X12900Y28750D02*
D03*
X14250D02*
D03*
X32475Y28150D02*
D03*
X33825D02*
D03*
X28350Y24850D02*
D03*
X27000D02*
D03*
X13925Y20150D02*
D03*
X12575D02*
D03*
X64152Y3527D02*
D03*
X62802D02*
D03*
X47302Y10577D02*
D03*
X48652D02*
D03*
X48502Y18577D02*
D03*
X49852D02*
D03*
X52302Y40477D02*
D03*
X53652D02*
D03*
X35402Y25877D02*
D03*
X36752D02*
D03*
X35275Y22050D02*
D03*
X36625D02*
D03*
X35375Y17350D02*
D03*
X36725D02*
D03*
X48752Y20077D02*
D03*
X47402D02*
D03*
X36600Y20650D02*
D03*
X35250D02*
D03*
D14*
X55300Y12250D02*
D03*
Y3550D02*
D03*
X77800Y44250D02*
D03*
Y35550D02*
D03*
X66800Y44250D02*
D03*
Y35550D02*
D03*
D15*
X31975Y39900D02*
D03*
X32625D02*
D03*
X33275D02*
D03*
X32625Y36500D02*
D03*
X31975D02*
D03*
X33275D02*
D03*
X31325Y39900D02*
D03*
D16*
Y36500D02*
D03*
D17*
X40777Y36452D02*
D03*
X37377Y34502D02*
D03*
Y35802D02*
D03*
Y35152D02*
D03*
X40777Y34502D02*
D03*
Y35152D02*
D03*
Y35802D02*
D03*
D18*
X37377Y36452D02*
D03*
D19*
X42777Y39652D02*
D03*
Y41102D02*
D03*
X39777Y39652D02*
D03*
Y41102D02*
D03*
X36777Y39627D02*
D03*
Y41077D02*
D03*
X49277Y39252D02*
D03*
Y40702D02*
D03*
X48700Y15750D02*
D03*
Y14300D02*
D03*
D20*
X41277Y39627D02*
D03*
Y41127D02*
D03*
X38277Y39627D02*
D03*
Y41127D02*
D03*
X35277Y39627D02*
D03*
Y41127D02*
D03*
X23377Y41177D02*
D03*
Y39677D02*
D03*
X47277Y7627D02*
D03*
Y9127D02*
D03*
X48777Y9127D02*
D03*
Y7627D02*
D03*
X21877Y41177D02*
D03*
Y39677D02*
D03*
X27877Y41177D02*
D03*
Y39677D02*
D03*
X24877Y41177D02*
D03*
Y39677D02*
D03*
X26377Y41177D02*
D03*
Y39677D02*
D03*
X20377Y41177D02*
D03*
Y39677D02*
D03*
D21*
X35477Y37977D02*
D03*
X36677D02*
D03*
X38477Y37977D02*
D03*
X39677D02*
D03*
X42677D02*
D03*
X41477D02*
D03*
X47177Y33277D02*
D03*
X48377D02*
D03*
D22*
X47777Y37252D02*
D03*
Y34902D02*
D03*
X45177Y37252D02*
D03*
Y34902D02*
D03*
X47777Y31652D02*
D03*
Y29302D02*
D03*
D23*
X8750Y29400D02*
D03*
Y32000D02*
D03*
D24*
X88000Y43400D02*
D03*
X92400D02*
D03*
D25*
X61776Y10027D02*
D03*
X63278D02*
D03*
X61776Y8277D02*
D03*
X63278D02*
D03*
X63428Y18077D02*
D03*
X61926D02*
D03*
X63428Y16327D02*
D03*
X61926D02*
D03*
X63278Y26027D02*
D03*
X61776D02*
D03*
X63277Y24277D02*
D03*
X61775D02*
D03*
D26*
X31000Y27550D02*
D03*
X25150Y33350D02*
D03*
X31000D02*
D03*
X30350D02*
D03*
X29700D02*
D03*
X29050D02*
D03*
X28400D02*
D03*
X27750D02*
D03*
X27100D02*
D03*
X26450D02*
D03*
X25800D02*
D03*
X30350Y27550D02*
D03*
X29700D02*
D03*
X29050D02*
D03*
X28400D02*
D03*
X27750D02*
D03*
X27100D02*
D03*
X26450D02*
D03*
X25800D02*
D03*
X25150D02*
D03*
D28*
X76527Y4852D02*
D03*
Y6202D02*
D03*
Y29202D02*
D03*
Y27852D02*
D03*
X17550Y38175D02*
D03*
Y39525D02*
D03*
X8500Y42675D02*
D03*
Y41325D02*
D03*
X13850Y18300D02*
D03*
Y16950D02*
D03*
X13850Y21575D02*
D03*
Y22925D02*
D03*
X29700Y40375D02*
D03*
Y39025D02*
D03*
X42977Y34802D02*
D03*
Y36152D02*
D03*
X35477Y29552D02*
D03*
Y28202D02*
D03*
X43177Y28852D02*
D03*
Y27502D02*
D03*
X39500Y11625D02*
D03*
Y12975D02*
D03*
X44800Y12025D02*
D03*
Y13375D02*
D03*
X46877Y15552D02*
D03*
Y14202D02*
D03*
X41677Y27502D02*
D03*
Y28852D02*
D03*
X84527Y7202D02*
D03*
Y5852D02*
D03*
X84527Y27952D02*
D03*
Y26602D02*
D03*
X13850Y13675D02*
D03*
Y15025D02*
D03*
D29*
X9425Y13800D02*
D03*
X7775D02*
D03*
X38502Y31377D02*
D03*
X36852D02*
D03*
D30*
X8900Y12100D02*
D03*
X7950D02*
D03*
X9850D02*
D03*
Y9600D02*
D03*
X7950D02*
D03*
X8900D02*
D03*
D31*
X4175Y12600D02*
D03*
Y11950D02*
D03*
Y11300D02*
D03*
Y10000D02*
D03*
Y10650D02*
D03*
D32*
X1500Y12500D02*
D03*
Y10100D02*
D03*
D33*
Y15300D02*
D03*
Y7300D02*
D03*
D34*
X20850Y28400D02*
D03*
Y32700D02*
D03*
D35*
X10550Y37845D02*
D03*
Y39115D02*
D03*
Y40385D02*
D03*
X15950Y41655D02*
D03*
Y37845D02*
D03*
Y39115D02*
D03*
X10550Y41655D02*
D03*
X15950Y40385D02*
D03*
D36*
X11250Y33000D02*
D03*
Y30700D02*
D03*
Y35300D02*
D03*
D37*
X17250Y33000D02*
D03*
D38*
X15701Y11100D02*
D03*
X14299D02*
D03*
X15701Y9700D02*
D03*
X14299D02*
D03*
D39*
X33800Y29550D02*
D03*
X32500D02*
D03*
X36684Y24635D02*
D03*
X35385D02*
D03*
X28400Y14150D02*
D03*
X29700D02*
D03*
D40*
X28623Y12650D02*
D03*
X30077D02*
D03*
X19177Y11150D02*
D03*
X17723D02*
D03*
D41*
X30176Y15650D02*
D03*
X28724D02*
D03*
X28724Y21150D02*
D03*
X30176D02*
D03*
X24803Y38127D02*
D03*
X23351D02*
D03*
X27929Y38127D02*
D03*
X26477D02*
D03*
X21677D02*
D03*
X20225D02*
D03*
D42*
X23850Y31624D02*
D03*
Y33076D02*
D03*
X23950Y28024D02*
D03*
Y29476D02*
D03*
D43*
X30300Y17250D02*
D03*
X28600Y19450D02*
D03*
X30300D02*
D03*
X28600Y17250D02*
D03*
D44*
X15527Y17527D02*
D03*
Y18327D02*
D03*
Y19127D02*
D03*
Y19927D02*
D03*
Y20727D02*
D03*
Y21527D02*
D03*
X26927Y23127D02*
D03*
Y22327D02*
D03*
Y21527D02*
D03*
Y20727D02*
D03*
Y19927D02*
D03*
Y19127D02*
D03*
Y18327D02*
D03*
Y15927D02*
D03*
Y15127D02*
D03*
X15527Y15927D02*
D03*
Y22327D02*
D03*
X26927Y17527D02*
D03*
X15527Y15127D02*
D03*
Y16727D02*
D03*
Y23127D02*
D03*
X26927Y16727D02*
D03*
D45*
X17227Y24827D02*
D03*
X18027D02*
D03*
X18827D02*
D03*
X19627D02*
D03*
X20427D02*
D03*
X21227D02*
D03*
X22027D02*
D03*
X22827D02*
D03*
X23627D02*
D03*
X25227Y13427D02*
D03*
X24427D02*
D03*
X23627D02*
D03*
X22827D02*
D03*
X22027D02*
D03*
X21227D02*
D03*
X19627D02*
D03*
X18827D02*
D03*
X18027D02*
D03*
X17227D02*
D03*
X25227Y24827D02*
D03*
X20427Y13427D02*
D03*
X24427Y24827D02*
D03*
D46*
X56993Y33077D02*
D03*
Y33577D02*
D03*
Y34077D02*
D03*
Y34577D02*
D03*
Y35077D02*
D03*
Y36577D02*
D03*
X50161D02*
D03*
Y36077D02*
D03*
Y35577D02*
D03*
Y34577D02*
D03*
Y33577D02*
D03*
Y32577D02*
D03*
Y32077D02*
D03*
Y31577D02*
D03*
X56993Y32577D02*
D03*
Y35577D02*
D03*
Y36077D02*
D03*
D47*
X56077Y37493D02*
D03*
X55577D02*
D03*
X55077D02*
D03*
X54577D02*
D03*
X54077D02*
D03*
X53077D02*
D03*
X52577D02*
D03*
X52077D02*
D03*
X51577D02*
D03*
Y30661D02*
D03*
X52077D02*
D03*
X52577D02*
D03*
X53577D02*
D03*
X54077D02*
D03*
X54577D02*
D03*
X55577D02*
D03*
X56077D02*
D03*
X51077Y37493D02*
D03*
X53577D02*
D03*
D49*
X38551Y15777D02*
D03*
D50*
X38551Y16177D02*
D03*
Y16577D02*
D03*
Y17777D02*
D03*
Y18177D02*
D03*
Y18577D02*
D03*
Y18977D02*
D03*
Y19377D02*
D03*
Y19777D02*
D03*
Y20177D02*
D03*
Y20577D02*
D03*
Y20977D02*
D03*
Y22977D02*
D03*
Y23377D02*
D03*
Y23777D02*
D03*
Y24177D02*
D03*
X45003Y24977D02*
D03*
Y24577D02*
D03*
Y24177D02*
D03*
Y23777D02*
D03*
Y23377D02*
D03*
Y22977D02*
D03*
Y22577D02*
D03*
Y22177D02*
D03*
Y21777D02*
D03*
Y21377D02*
D03*
Y20977D02*
D03*
Y20577D02*
D03*
Y20177D02*
D03*
Y19777D02*
D03*
Y18577D02*
D03*
Y18177D02*
D03*
Y17777D02*
D03*
Y17377D02*
D03*
Y16977D02*
D03*
Y16577D02*
D03*
Y16177D02*
D03*
Y15777D02*
D03*
X38551Y16977D02*
D03*
Y21377D02*
D03*
Y22177D02*
D03*
Y22577D02*
D03*
Y24577D02*
D03*
Y24977D02*
D03*
X45003Y19377D02*
D03*
X38551Y17377D02*
D03*
Y21777D02*
D03*
X45003Y18977D02*
D03*
D51*
X39577Y25602D02*
D03*
X39977D02*
D03*
X40377D02*
D03*
X40777D02*
D03*
X41177D02*
D03*
X41577D02*
D03*
X41977D02*
D03*
X43177D02*
D03*
X43577D02*
D03*
X43977D02*
D03*
X44377D02*
D03*
X43577Y15151D02*
D03*
X43177D02*
D03*
X42777D02*
D03*
X42377D02*
D03*
X41977D02*
D03*
X41577D02*
D03*
X41177D02*
D03*
X40777D02*
D03*
X40377D02*
D03*
X42377Y25602D02*
D03*
X44377Y15151D02*
D03*
X39977D02*
D03*
X39177Y25602D02*
D03*
X42777D02*
D03*
X43977Y15151D02*
D03*
X39577D02*
D03*
D52*
X39177Y15141D02*
D03*
D54*
X64250Y4800D02*
D03*
X62750D02*
D03*
X67177Y3527D02*
D03*
X65677D02*
D03*
X50077Y16977D02*
D03*
X48577D02*
D03*
D55*
X70301Y4077D02*
D03*
X71853D02*
D03*
D56*
X33977Y25981D02*
D03*
Y24627D02*
D03*
X58977Y28200D02*
D03*
Y29554D02*
D03*
D57*
X37477Y10977D02*
D03*
Y12777D02*
D03*
D58*
X52477Y20677D02*
D03*
X50677D02*
D03*
D59*
X81577Y3777D02*
D03*
X82977D02*
D03*
X81527Y30027D02*
D03*
X82927D02*
D03*
D60*
X58746Y34500D02*
D03*
X60200D02*
D03*
X58773Y36100D02*
D03*
X60227D02*
D03*
D61*
X51554Y28277D02*
D03*
X50200D02*
D03*
X54000Y26677D02*
D03*
X55354D02*
D03*
D62*
X38602Y29627D02*
D03*
Y27527D02*
D03*
X36952Y29627D02*
D03*
Y27527D02*
D03*
D63*
X83028Y11027D02*
D03*
X78277D02*
D03*
X82903Y23027D02*
D03*
X78151D02*
D03*
D64*
X69249Y10302D02*
D03*
X72805Y12252D02*
D03*
Y11602D02*
D03*
Y10952D02*
D03*
Y10302D02*
D03*
X69249Y10952D02*
D03*
Y11602D02*
D03*
Y12252D02*
D03*
X69249Y8252D02*
D03*
Y7602D02*
D03*
Y6952D02*
D03*
Y6302D02*
D03*
X72805D02*
D03*
Y6952D02*
D03*
Y7602D02*
D03*
Y8252D02*
D03*
X69249Y18302D02*
D03*
X72805Y20252D02*
D03*
Y19602D02*
D03*
Y18952D02*
D03*
Y18302D02*
D03*
X69249Y18952D02*
D03*
Y19602D02*
D03*
Y20252D02*
D03*
X72805Y16252D02*
D03*
Y15602D02*
D03*
Y14952D02*
D03*
Y14302D02*
D03*
X69249D02*
D03*
Y14952D02*
D03*
Y15602D02*
D03*
Y16252D02*
D03*
X69249Y26302D02*
D03*
X72805Y28252D02*
D03*
Y27602D02*
D03*
Y26952D02*
D03*
Y26302D02*
D03*
X69249Y26952D02*
D03*
Y27602D02*
D03*
Y28252D02*
D03*
X72805Y24252D02*
D03*
Y23602D02*
D03*
Y22952D02*
D03*
Y22302D02*
D03*
X69249D02*
D03*
Y22952D02*
D03*
Y23602D02*
D03*
Y24252D02*
D03*
D65*
X66527Y23952D02*
D03*
Y26602D02*
D03*
X66527Y15952D02*
D03*
Y18602D02*
D03*
X66527Y7952D02*
D03*
Y10602D02*
D03*
D66*
X78477Y5552D02*
D03*
Y6202D02*
D03*
Y7502D02*
D03*
X82577D02*
D03*
Y6852D02*
D03*
Y6202D02*
D03*
X78477Y6852D02*
D03*
X78477Y26302D02*
D03*
Y26952D02*
D03*
Y28252D02*
D03*
X82577D02*
D03*
Y27602D02*
D03*
Y26952D02*
D03*
X78477Y27602D02*
D03*
D67*
X82577Y5552D02*
D03*
X82577Y26302D02*
D03*
D105*
X42921Y23592D02*
D03*
Y21448D02*
D03*
X42921Y19305D02*
D03*
Y17162D02*
D03*
X40634Y23592D02*
D03*
Y21448D02*
D03*
X40634Y19305D02*
D03*
Y17162D02*
D03*
D106*
X53577Y34077D02*
D03*
%TF.MD5,92432879be9123255146d439a70b0e23*%
M02*
