%TF.GenerationSoftware,Altium Limited,Altium Designer,23.7.1 (13)*%
G04 Layer_Physical_Order=1*
G04 Layer_Color=255*
%FSLAX45Y45*%
%MOMM*%
%TF.SameCoordinates,30466DDA-3D0C-41F1-AC50-7AA24E5CAA7F*%
%TF.FilePolarity,Positive*%
%TF.FileFunction,Copper,L1,Top,Signal*%
%TF.Part,Single*%
G01*
G75*
%TA.AperFunction,Conductor*%
%ADD10C,1.50000*%
%TA.AperFunction,ComponentPad*%
%ADD11R,5.50000X5.50000*%
%ADD12C,2.00000*%
%TA.AperFunction,ViaPad*%
%ADD13C,1.27000*%
G36*
X6100000Y1550000D02*
X0D01*
Y3000000D01*
X6100000D01*
Y1550000D01*
D02*
G37*
G36*
Y0D02*
X0D01*
Y1450000D01*
X6100000D01*
Y0D01*
D02*
G37*
%LPC*%
G36*
X3667275Y2875400D02*
X3632725D01*
X3598838Y2868659D01*
X3566917Y2855437D01*
X3538189Y2836242D01*
X3513758Y2811811D01*
X3494563Y2783083D01*
X3481341Y2751162D01*
X3474600Y2717275D01*
Y2682725D01*
X3481341Y2648838D01*
X3494563Y2616917D01*
X3513758Y2588189D01*
X3538189Y2563758D01*
X3566917Y2544563D01*
X3598838Y2531341D01*
X3632725Y2524600D01*
X3667275D01*
X3701162Y2531341D01*
X3733083Y2544563D01*
X3761811Y2563758D01*
X3786242Y2588189D01*
X3805437Y2616917D01*
X3818659Y2648838D01*
X3825400Y2682725D01*
Y2717275D01*
X3818659Y2751162D01*
X3805437Y2783083D01*
X3786242Y2811811D01*
X3761811Y2836242D01*
X3733083Y2855437D01*
X3701162Y2868659D01*
X3667275Y2875400D01*
D02*
G37*
G36*
X1342275D02*
X1307725D01*
X1273838Y2868659D01*
X1241917Y2855437D01*
X1213189Y2836242D01*
X1188758Y2811811D01*
X1169563Y2783083D01*
X1156341Y2751162D01*
X1149600Y2717275D01*
Y2682725D01*
X1156341Y2648838D01*
X1169563Y2616917D01*
X1188758Y2588189D01*
X1213189Y2563758D01*
X1241917Y2544563D01*
X1273838Y2531341D01*
X1307725Y2524600D01*
X1342275D01*
X1376162Y2531341D01*
X1408083Y2544563D01*
X1436811Y2563758D01*
X1461242Y2588189D01*
X1480437Y2616917D01*
X1493659Y2648838D01*
X1500400Y2682725D01*
Y2717275D01*
X1493659Y2751162D01*
X1480437Y2783083D01*
X1461242Y2811811D01*
X1436811Y2836242D01*
X1408083Y2855437D01*
X1376162Y2868659D01*
X1342275Y2875400D01*
D02*
G37*
G36*
X3667275Y475400D02*
X3632725D01*
X3598838Y468659D01*
X3566917Y455437D01*
X3538189Y436242D01*
X3513758Y411811D01*
X3494563Y383083D01*
X3481341Y351162D01*
X3474600Y317275D01*
Y282725D01*
X3481341Y248838D01*
X3494563Y216917D01*
X3513758Y188189D01*
X3538189Y163758D01*
X3566917Y144563D01*
X3598838Y131341D01*
X3632725Y124600D01*
X3667275D01*
X3701162Y131341D01*
X3733083Y144563D01*
X3761811Y163758D01*
X3786242Y188189D01*
X3805437Y216917D01*
X3818659Y248838D01*
X3825400Y282725D01*
Y317275D01*
X3818659Y351162D01*
X3805437Y383083D01*
X3786242Y411811D01*
X3761811Y436242D01*
X3733083Y455437D01*
X3701162Y468659D01*
X3667275Y475400D01*
D02*
G37*
G36*
X1342275D02*
X1307725D01*
X1273838Y468659D01*
X1241917Y455437D01*
X1213189Y436242D01*
X1188758Y411811D01*
X1169563Y383083D01*
X1156341Y351162D01*
X1149600Y317275D01*
Y282725D01*
X1156341Y248838D01*
X1169563Y216917D01*
X1188758Y188189D01*
X1213189Y163758D01*
X1241917Y144563D01*
X1273838Y131341D01*
X1307725Y124600D01*
X1342275D01*
X1376162Y131341D01*
X1408083Y144563D01*
X1436811Y163758D01*
X1461242Y188189D01*
X1480437Y216917D01*
X1493659Y248838D01*
X1500400Y282725D01*
Y317275D01*
X1493659Y351162D01*
X1480437Y383083D01*
X1461242Y411811D01*
X1436811Y436242D01*
X1408083Y455437D01*
X1376162Y468659D01*
X1342275Y475400D01*
D02*
G37*
%LPD*%
D10*
X4100000Y1250000D02*
X4290000D01*
X4100000Y1750000D02*
X4280000D01*
X1325000Y1250000D02*
X2525000D01*
X3650000D01*
X2525000Y1750000D02*
X3650000D01*
X4100000D01*
X1325000D02*
X2525000D01*
X4390000Y1860000D02*
X5400000D01*
X4280000Y1750000D02*
X4390000Y1860000D01*
X4400000Y1140000D02*
X5400000D01*
X4290000Y1250000D02*
X4400000Y1140000D01*
X3650000Y1250000D02*
X4100000D01*
D11*
X5401170Y1140000D02*
D03*
Y1860000D02*
D03*
D12*
X500000Y1750000D02*
D03*
Y1250000D02*
D03*
X4100000Y1750000D02*
D03*
Y1250000D02*
D03*
X2300000Y1750000D02*
D03*
Y1250000D02*
D03*
D13*
X5900000Y2750000D02*
D03*
X5750000Y2450000D02*
D03*
X5900000Y2150000D02*
D03*
X5750000Y1850000D02*
D03*
X5600000Y2750000D02*
D03*
X5450000Y2450000D02*
D03*
X5600000Y2150000D02*
D03*
X5450000Y1850000D02*
D03*
X5300000Y2750000D02*
D03*
X5150000Y2450000D02*
D03*
X5300000Y2150000D02*
D03*
X5150000Y1850000D02*
D03*
X5000000Y2750000D02*
D03*
X4850000Y2450000D02*
D03*
X5000000Y2150000D02*
D03*
X4850000Y1850000D02*
D03*
X4700000Y2750000D02*
D03*
X4550000Y2450000D02*
D03*
X4700000Y2150000D02*
D03*
X4550000Y1850000D02*
D03*
X4400000Y2750000D02*
D03*
X4250000Y2450000D02*
D03*
X4400000Y2150000D02*
D03*
X4250000Y1850000D02*
D03*
X4100000Y2750000D02*
D03*
X3950000Y2450000D02*
D03*
X4100000Y2150000D02*
D03*
X3950000Y1850000D02*
D03*
X3650001Y2450000D02*
D03*
X3800001Y2150000D02*
D03*
X3650001Y1850000D02*
D03*
X3350001Y2450000D02*
D03*
X3500001Y2150000D02*
D03*
X3350001Y1850000D02*
D03*
X3200001Y2750000D02*
D03*
X3050001Y2450000D02*
D03*
X3200001Y2150000D02*
D03*
X3050001Y1850000D02*
D03*
X2900001Y2750000D02*
D03*
X2750001Y2450000D02*
D03*
X2900001Y2150000D02*
D03*
X2750001Y1850000D02*
D03*
X2600001Y2750000D02*
D03*
X2450001Y2450000D02*
D03*
X2600001Y2150000D02*
D03*
X2450001Y1850000D02*
D03*
X2300001Y2750000D02*
D03*
X2150001Y2450000D02*
D03*
X2300001Y2150000D02*
D03*
X2150001Y1850000D02*
D03*
X2000001Y2750000D02*
D03*
X1850001Y2450000D02*
D03*
X2000001Y2150000D02*
D03*
X1850001Y1850000D02*
D03*
X1700001Y2750000D02*
D03*
X1550001Y2450000D02*
D03*
X1700001Y2150000D02*
D03*
X1550001Y1850000D02*
D03*
X1250001Y2450000D02*
D03*
X1400001Y2150000D02*
D03*
X1250001Y1850000D02*
D03*
X950001Y2450000D02*
D03*
X1100001Y2150000D02*
D03*
X950001Y1850000D02*
D03*
X800001Y2750000D02*
D03*
X650001Y2450000D02*
D03*
X800001Y2150000D02*
D03*
X650001Y1850000D02*
D03*
X500002Y2750000D02*
D03*
X350002Y2450000D02*
D03*
X500002Y2150000D02*
D03*
X350002Y1850000D02*
D03*
X200002Y2750000D02*
D03*
Y2150000D02*
D03*
X5749999Y1175000D02*
D03*
X5899999Y875000D02*
D03*
X5749999Y575000D02*
D03*
X5899999Y275000D02*
D03*
X5450000Y1175000D02*
D03*
X5599999Y875000D02*
D03*
X5450000Y575000D02*
D03*
X5599999Y275000D02*
D03*
X5150000Y1175000D02*
D03*
X5300000Y875000D02*
D03*
X5150000Y575000D02*
D03*
X5300000Y275000D02*
D03*
X4850000Y1175000D02*
D03*
X5000000Y875000D02*
D03*
X4850000Y575000D02*
D03*
X5000000Y275000D02*
D03*
X4550000Y1175000D02*
D03*
X4700000Y875000D02*
D03*
X4550000Y575000D02*
D03*
X4700000Y275000D02*
D03*
X4250000Y1175000D02*
D03*
X4400000Y875000D02*
D03*
X4250000Y575000D02*
D03*
X4400000Y275000D02*
D03*
X3950000Y1175000D02*
D03*
X4100000Y875000D02*
D03*
X3950000Y575000D02*
D03*
X4100000Y275000D02*
D03*
X3650000Y1175000D02*
D03*
X3800000Y875000D02*
D03*
X3650000Y575000D02*
D03*
X3350000Y1175000D02*
D03*
X3500000Y875000D02*
D03*
X3350000Y575000D02*
D03*
X3050000Y1175000D02*
D03*
X3200000Y875000D02*
D03*
X3050000Y575000D02*
D03*
X3200000Y275000D02*
D03*
X2750000Y1175000D02*
D03*
X2900000Y875000D02*
D03*
X2750000Y575000D02*
D03*
X2900000Y275000D02*
D03*
X2450000Y1175000D02*
D03*
X2600000Y875000D02*
D03*
X2450000Y575000D02*
D03*
X2600000Y275000D02*
D03*
X2150001Y1175000D02*
D03*
X2300000Y875000D02*
D03*
X2150001Y575000D02*
D03*
X2300000Y275000D02*
D03*
X1850001Y1175000D02*
D03*
X2000001Y875000D02*
D03*
X1850001Y575000D02*
D03*
X2000001Y275000D02*
D03*
X1550001Y1175000D02*
D03*
X1700001Y875000D02*
D03*
X1550001Y575000D02*
D03*
X1700001Y275000D02*
D03*
X1250001Y1175000D02*
D03*
X1400001Y875000D02*
D03*
X1250001Y575000D02*
D03*
X950001Y1175000D02*
D03*
X1100001Y875000D02*
D03*
X950001Y575000D02*
D03*
X650001Y1175000D02*
D03*
X800001Y875000D02*
D03*
X650001Y575000D02*
D03*
X800001Y275000D02*
D03*
X350001Y1175000D02*
D03*
X500001Y875000D02*
D03*
X350001Y575000D02*
D03*
X500001Y275000D02*
D03*
%TF.MD5,b2432d10d127f29bd62905d9cea39878*%
M02*
