%TF.GenerationSoftware,Altium Limited,Altium Designer,25.4.2 (15)*%
G04 Layer_Color=32896*
%FSLAX45Y45*%
%MOMM*%
%TF.SameCoordinates,7A81EC90-EEC5-4681-87D9-92CB7B0FDDE2*%
%TF.FilePolarity,Positive*%
%TF.FileFunction,Legend,Bot*%
%TF.Part,Single*%
G01*
G75*
%TA.AperFunction,NonConductor*%
%ADD58C,0.25000*%
%ADD59C,0.10000*%
%ADD61C,0.20000*%
%ADD62C,0.60000*%
%ADD63C,0.15240*%
G36*
X4020673Y11459819D02*
X4029444Y11456311D01*
X4032952Y11454556D01*
X4041723Y11451048D01*
X4218016Y11451925D01*
X4237312Y11450171D01*
X4244329Y11448417D01*
X4253099Y11444909D01*
X4259239Y11440523D01*
X4268887Y11432629D01*
X4317126Y11384390D01*
X4324143Y11382636D01*
X4340808Y11371234D01*
X4351333Y11360709D01*
X4353087Y11357200D01*
X4363612Y11334396D01*
X4365366Y11316855D01*
X4363612Y11280017D01*
X4352210Y11263353D01*
X4348701Y11261599D01*
X4345193Y11258090D01*
X4341685Y11256336D01*
X4333791Y11241426D01*
X4325020Y11229146D01*
X4323266Y11223884D01*
X4326774Y11215113D01*
X4328529Y11208096D01*
X4326774Y11183538D01*
X4323266Y11174767D01*
X4319758Y11167751D01*
X4325897Y11166874D01*
X4331160Y11168628D01*
X4369751Y11166874D01*
X4375014Y11165119D01*
X4391679Y11158980D01*
X4406589Y11149332D01*
X4410097Y11145824D01*
X4413606Y11144070D01*
X4421499Y11136176D01*
X4423253Y11132668D01*
X4428516Y11120388D01*
X4430270Y11113372D01*
X4428516Y11095830D01*
X4424131Y11086182D01*
X4426762Y11083551D01*
X4435533Y11064255D01*
X4439041Y11051976D01*
X4440795Y11039697D01*
X4439041Y10974793D01*
X4435533Y10966022D01*
X4425008Y10946726D01*
X4417114Y10937078D01*
X4414483Y10934447D01*
X4412729Y10930939D01*
X4403081Y10921291D01*
X4399572Y10919537D01*
X4391679Y10913397D01*
X4400449Y10904626D01*
X4402204Y10901118D01*
X4405712Y10892347D01*
X4407466Y10885331D01*
X4405712Y10867789D01*
X4403958Y10862526D01*
X4405712Y10859018D01*
X4414483Y10850247D01*
X4416237Y10846739D01*
X4425008Y10832706D01*
X4432024Y10816918D01*
X4435533Y10804639D01*
X4437287Y10797622D01*
X4435533Y10762539D01*
X4432024Y10753768D01*
X4426762Y10744997D01*
X4420622Y10737104D01*
X4417114Y10735349D01*
X4401326Y10728333D01*
X4390801Y10726579D01*
X4382031Y10712545D01*
X4377645Y10706406D01*
X4360981Y10689741D01*
X4357472Y10687987D01*
X4346947Y10680971D01*
X4335545Y10676585D01*
X4331160Y10672200D01*
X4327651Y10670446D01*
X4304847Y10659921D01*
X4297831Y10658166D01*
X4285551Y10656412D01*
X4277658Y10655535D01*
X4286429Y10632731D01*
X4289060Y10623083D01*
X4290814Y10617821D01*
X4308356Y10616066D01*
X4327651Y10605541D01*
X4331160Y10602033D01*
X4333791Y10601156D01*
X4335545Y10597648D01*
X4339054Y10594139D01*
X4344316Y10581860D01*
X4346070Y10569581D01*
X4344316Y10508185D01*
X4337299Y10495906D01*
X4333791Y10492398D01*
X4332914Y10489767D01*
X4329406Y10488013D01*
X4324143Y10482750D01*
X4311864Y10477488D01*
X4297831Y10473979D01*
X4288183Y10473102D01*
X4285551Y10463454D01*
X4272395Y10439773D01*
X4264502Y10430125D01*
X4260116Y10423986D01*
X4245206Y10409075D01*
X4241697Y10407321D01*
X4229418Y10398550D01*
X4217139Y10393288D01*
X4208369Y10389779D01*
X4187319Y10384517D01*
X4153989Y10382763D01*
X4082069Y10384517D01*
X4076806Y10386271D01*
X4056633Y10388902D01*
X4047862Y10390656D01*
X4026812Y10395919D01*
X4017165Y10398550D01*
X4011902Y10400304D01*
X3990852Y10379254D01*
X3987344Y10377500D01*
X3983836Y10373992D01*
X3975065Y10370483D01*
X3968048Y10368729D01*
X3932965Y10365221D01*
X3920686Y10359958D01*
X3913669Y10358204D01*
X3855781Y10359958D01*
X3839117Y10371361D01*
X3835609Y10374869D01*
X3830346Y10387148D01*
X3828592Y10394165D01*
X3827715Y10402058D01*
X3816313Y10406444D01*
X3813682Y10409075D01*
X3703169Y10465208D01*
X3687382Y10472225D01*
X3673349Y10473979D01*
X3666332Y10477488D01*
X3654053Y10472225D01*
X3640896Y10471348D01*
X3624232Y10473979D01*
X3607567Y10485381D01*
X3605813Y10488890D01*
X3602305Y10492398D01*
X3594411Y10510817D01*
X3576870Y10512571D01*
X3561082Y10521342D01*
X3551434Y10529235D01*
X3547926Y10532744D01*
X3546172Y10536252D01*
X3537401Y10555548D01*
X3535647Y10567827D01*
X3537401Y10585368D01*
X3546172Y10604664D01*
X3547926Y10622206D01*
X3553188Y10634485D01*
X3539155Y10643256D01*
X3533893Y10646764D01*
X3532138Y10650273D01*
X3528630Y10653781D01*
X3526876Y10657289D01*
X3521613Y10669568D01*
X3519859Y10681848D01*
Y10748506D01*
Y10750260D01*
X3521613Y10816918D01*
X3530384Y10832706D01*
X3538278Y10842353D01*
X3541786Y10844108D01*
X3545295Y10847616D01*
X3554066Y10851124D01*
X3568099Y10854633D01*
X3600551Y10855510D01*
X3605813Y10866035D01*
X3591780Y10874806D01*
X3581255Y10885331D01*
X3572484Y10904626D01*
X3570730Y10922168D01*
X3572484Y10930939D01*
X3569853Y10933570D01*
X3566345Y10935324D01*
X3562836Y10938832D01*
X3560205Y10939710D01*
X3558451Y10943218D01*
X3553188Y10948480D01*
X3547926Y10960759D01*
X3546172Y10973039D01*
X3547926Y11016893D01*
X3553188Y11025663D01*
X3552311Y11028295D01*
X3540032Y11035311D01*
X3536524Y11038820D01*
X3533893Y11039697D01*
X3532138Y11043205D01*
X3528630Y11046713D01*
X3526876Y11050222D01*
X3521613Y11062501D01*
X3519859Y11074780D01*
X3521613Y11211605D01*
X3528630Y11223884D01*
X3536524Y11233532D01*
X3540032Y11237040D01*
X3543541Y11238794D01*
X3559328Y11245811D01*
X3571607Y11247565D01*
X3600551Y11248442D01*
X3602305Y11251951D01*
X3617215Y11273878D01*
X3619847Y11276509D01*
X3621601Y11280017D01*
X3641774Y11300190D01*
X3645282Y11301944D01*
X3648790Y11305453D01*
X3652299Y11307207D01*
X3655807Y11310715D01*
X3659315Y11312469D01*
X3675103Y11321240D01*
X3690890Y11328257D01*
X3708432Y11333519D01*
X3715449Y11335273D01*
X3727728Y11337028D01*
X3745269Y11338782D01*
X3749655Y11339659D01*
X3742638Y11346675D01*
X3733867Y11365971D01*
X3732113Y11372988D01*
X3730359Y11385267D01*
X3732990Y11400177D01*
X3738253Y11414211D01*
X3745269Y11424736D01*
X3749655Y11429121D01*
X3751409Y11432629D01*
X3764565Y11442277D01*
X3776844Y11447540D01*
X3790878Y11451048D01*
X3815436Y11449294D01*
X3834731Y11440523D01*
X3962786Y11442277D01*
X3969802Y11449294D01*
X3992606Y11459819D01*
X4004886Y11461573D01*
X4020673Y11459819D01*
D02*
G37*
G36*
X7526448Y12176876D02*
X7293551D01*
Y12603126D01*
X7526448D01*
Y12176876D01*
D02*
G37*
G36*
X4626447Y11858751D02*
X4393550D01*
Y12656251D01*
X4626447D01*
Y11858751D01*
D02*
G37*
G36*
X2823949Y9423751D02*
X2591052D01*
Y10221251D01*
X2823949D01*
Y9423751D01*
D02*
G37*
G36*
X2823949Y12068126D02*
Y11586876D01*
X2591051D01*
Y12068126D01*
X2823949D01*
D02*
G37*
%LPC*%
G36*
X4003131Y11419473D02*
X3994361Y11414211D01*
X3991729Y11411579D01*
X3989975Y11404563D01*
X3991729Y11394038D01*
X3996115Y11389652D01*
X4006640Y11386144D01*
X4018919Y11393161D01*
X4020673Y11396669D01*
X4185564Y11394915D01*
X4253099Y11327380D01*
X4127677Y11326503D01*
X4125046Y11343167D01*
X4116275Y11358955D01*
X4108381Y11366848D01*
X4099610Y11370357D01*
X4092594Y11372111D01*
X4080314Y11373865D01*
X4015410Y11372111D01*
X4010148Y11370357D01*
X4003131Y11368602D01*
X3990852Y11363340D01*
X3987344Y11361586D01*
X3976819Y11354569D01*
X3973311Y11356323D01*
X3932965Y11396669D01*
X3817190Y11398423D01*
X3813682Y11403686D01*
X3810173Y11405440D01*
X3801403Y11408948D01*
X3787369Y11407194D01*
X3777721Y11399300D01*
X3774213Y11390529D01*
X3773336Y11382636D01*
X3775090Y11375619D01*
X3781230Y11365971D01*
X3783861Y11363340D01*
X3796140Y11359832D01*
X3808419Y11361586D01*
X3811927Y11365094D01*
X3815436Y11366848D01*
X3818067Y11369479D01*
X3818944Y11372111D01*
X3922440Y11370357D01*
X3956646Y11336151D01*
X3875954Y11334396D01*
X3877709Y11304576D01*
X3879463Y11299313D01*
X3881217Y11292296D01*
X3887356Y11275632D01*
X3890865Y11266861D01*
X3898759Y11251951D01*
X3910161Y11235286D01*
X3912792Y11232655D01*
X3914546Y11229146D01*
X3934719Y11208974D01*
X3938227Y11207219D01*
X3941736Y11203711D01*
X3945244Y11201957D01*
X3957523Y11193186D01*
X3976819Y11184415D01*
X3985590Y11180907D01*
X3992606Y11179153D01*
X4004886Y11175644D01*
X4025935Y11172136D01*
X4269764Y11173890D01*
X4279412Y11181784D01*
X4282920Y11185292D01*
X4285551Y11194940D01*
X4286429Y11202834D01*
X4270641Y11204588D01*
X4254854Y11234409D01*
X4252222Y11235286D01*
X4250468Y11224761D01*
X4248714Y11215990D01*
X4244329Y11204588D01*
X4222402Y11203711D01*
X4219771Y11206342D01*
X4209246Y11225638D01*
X4204860Y11231778D01*
X4202229Y11222130D01*
X4199598Y11210728D01*
X4196966Y11204588D01*
X4185564Y11203711D01*
X4164514Y11224761D01*
X4161006Y11226515D01*
X4155744Y11231778D01*
X4152235Y11233532D01*
X4148727Y11237040D01*
X4145219Y11238794D01*
X4131185Y11247565D01*
X4119783Y11251951D01*
X4104873Y11256336D01*
X4097856Y11258090D01*
X4080314Y11259844D01*
X4074175Y11260721D01*
X4081191Y11278263D01*
X4084700Y11290542D01*
X4085577Y11294928D01*
X4170654Y11294051D01*
X4175916Y11281771D01*
X4179425Y11267738D01*
X4182056Y11256336D01*
X4184687Y11258967D01*
X4186441Y11262476D01*
X4195212Y11276509D01*
X4201352Y11294928D01*
X4223279Y11294051D01*
X4228541Y11281771D01*
X4232050Y11269492D01*
X4233804Y11262476D01*
X4236435Y11252828D01*
X4240820Y11258967D01*
X4254854Y11288788D01*
X4256608Y11294051D01*
X4275027Y11294928D01*
X4284674Y11273001D01*
X4288183Y11258967D01*
X4289060Y11251074D01*
X4293445Y11255459D01*
X4295199Y11258967D01*
X4302216Y11271246D01*
X4307479Y11283526D01*
X4310110Y11294928D01*
X4323266Y11295805D01*
X4321512Y11329134D01*
X4313618Y11340536D01*
X4310110Y11342290D01*
X4297831Y11347553D01*
X4292568Y11349307D01*
X4232927Y11408948D01*
X4225910Y11407194D01*
X4223279Y11404563D01*
X4225033Y11399300D01*
X4279412Y11344921D01*
X4276781Y11342290D01*
X4273272Y11340536D01*
X4268887Y11336151D01*
X4267133Y11332642D01*
X4266256Y11331765D01*
X4216262Y11381759D01*
X4215385Y11382636D01*
X4189073Y11408948D01*
X4020673Y11410702D01*
X4013656Y11417719D01*
X4003131Y11419473D01*
D02*
G37*
G36*
X3855781Y11296682D02*
X3724219Y11294928D01*
X3718957Y11293174D01*
X3697030Y11285280D01*
X3682119Y11277386D01*
X3666332Y11265107D01*
X3659315Y11258090D01*
X3656684Y11257213D01*
X3654930Y11253705D01*
X3649667Y11248442D01*
X3647913Y11244934D01*
X3644405Y11241426D01*
X3642651Y11237917D01*
X3628617Y11208096D01*
X3627740Y11205465D01*
X3566345Y11203711D01*
X3561959Y11199326D01*
X3563713Y11188801D01*
X3571607Y11186169D01*
X3623355Y11185292D01*
X3622478Y11165119D01*
X3566345Y11163365D01*
X3561959Y11158980D01*
X3563713Y11150209D01*
X3568099Y11145824D01*
X3623355Y11144947D01*
X3622478Y11124774D01*
X3566345Y11123020D01*
X3561959Y11118634D01*
X3563713Y11109863D01*
X3566345Y11107232D01*
X3573361Y11105478D01*
X3623355Y11104601D01*
X3622478Y11084428D01*
X3564591Y11082674D01*
X3561959Y11074780D01*
X3566345Y11066886D01*
X3578624Y11065132D01*
X3628617Y11064255D01*
X3633003Y11052853D01*
X3633880Y11046713D01*
X3588272Y11001105D01*
X3590026Y10971284D01*
X3592657Y10968653D01*
X3597920Y10970407D01*
X3600551Y10973039D01*
X3602305Y10997597D01*
X3640019Y11035311D01*
X3642651Y11034434D01*
X3644405Y11030926D01*
X3653176Y11018647D01*
X3623355Y10988826D01*
X3621601Y10932693D01*
X3616338Y10929185D01*
X3612830Y10916905D01*
X3618092Y10908135D01*
X3622478Y10903749D01*
X3631249Y10901995D01*
X3640019Y10907258D01*
X3644405Y10911643D01*
X3646159Y10920414D01*
X3640019Y10931816D01*
X3636511Y10933570D01*
X3635634Y10981809D01*
X3662824Y11008999D01*
X3668086Y11003736D01*
X3671594Y11001982D01*
X3675103Y10998474D01*
X3678611Y10996720D01*
X3689136Y10989703D01*
X3701415Y10984441D01*
X3718957Y10979178D01*
X3725973Y10977424D01*
X3738253Y10975670D01*
X3988221Y10976547D01*
X3957523Y11007245D01*
X3799648Y11005491D01*
X3797017Y11002859D01*
X3796140Y11000228D01*
X3792632Y10998474D01*
X3783861Y10994966D01*
X3771582Y10996720D01*
X3768073Y11000228D01*
X3764565Y11001982D01*
X3760180Y11011630D01*
X3761934Y11027418D01*
X3769828Y11035311D01*
X3782107Y11038820D01*
X3787369Y11037066D01*
X3796140Y11031803D01*
X3801403Y11026541D01*
X3968048Y11024786D01*
X3974188Y11018647D01*
X3975942Y11015138D01*
X4015410Y10975670D01*
X4042600Y10976547D01*
X4007517Y11011630D01*
X4009271Y11022155D01*
X4011902Y11024786D01*
X4017165Y11026541D01*
X4029444Y11017770D01*
X4071544Y10975670D01*
X4126800Y10974793D01*
X4125923Y10903749D01*
X4092594Y10905503D01*
X4090839Y10914274D01*
X4084700Y10923922D01*
X4080314Y10928308D01*
X4071544Y10931816D01*
X4061896Y10932693D01*
X4053125Y10930939D01*
X4042600Y10923922D01*
X4035583Y10908135D01*
X4034706Y10903749D01*
X4000500Y10904626D01*
X3998746Y10915151D01*
X3990852Y10924799D01*
X3985590Y10930062D01*
X3974188Y10932693D01*
X3971556Y10933570D01*
X3966294Y10931816D01*
X3959277Y10930062D01*
X3949629Y10922168D01*
X3944367Y10909889D01*
X3942613Y10904626D01*
X3910161Y10903749D01*
X3907529Y10906381D01*
X3905775Y10916905D01*
X3897881Y10926553D01*
X3885602Y10931816D01*
X3877709Y10932693D01*
X3868938Y10930939D01*
X3858413Y10923922D01*
X3856659Y10920414D01*
X3851396Y10908135D01*
X3850519Y10903749D01*
X3816313Y10904626D01*
X3814559Y10915151D01*
X3806665Y10926553D01*
X3803157Y10928308D01*
X3794386Y10931816D01*
X3786492Y10932693D01*
X3777721Y10930939D01*
X3768073Y10924799D01*
X3763688Y10920414D01*
X3760180Y10911643D01*
X3758426Y10904626D01*
X3737376Y10902872D01*
X3716326Y10899364D01*
X3697030Y10892347D01*
X3682119Y10884453D01*
X3666332Y10872174D01*
X3649667Y10855510D01*
X3647913Y10852001D01*
X3644405Y10848493D01*
X3642651Y10844985D01*
X3628617Y10815164D01*
X3627740Y10812533D01*
X3566345Y10810778D01*
X3561959Y10806393D01*
X3563713Y10797622D01*
X3568099Y10793237D01*
X3623355Y10792360D01*
X3622478Y10772187D01*
X3566345Y10770433D01*
X3563713Y10767801D01*
X3561959Y10760785D01*
X3563713Y10757276D01*
X3568099Y10752891D01*
X3623355Y10752014D01*
X3622478Y10731841D01*
X3566345Y10730087D01*
X3561959Y10725702D01*
X3563713Y10716931D01*
X3568099Y10712545D01*
X3623355Y10711668D01*
X3622478Y10691496D01*
X3564591Y10689741D01*
X3561959Y10681848D01*
X3566345Y10673954D01*
X3578624Y10672200D01*
X3628617Y10671323D01*
X3633880Y10653781D01*
X3588272Y10608173D01*
X3586518Y10583614D01*
X3579501Y10576598D01*
X3577747Y10569581D01*
X3579501Y10560810D01*
X3585640Y10554671D01*
X3592657Y10552916D01*
X3601428Y10554671D01*
X3607567Y10559056D01*
X3609322Y10566073D01*
X3607567Y10578352D01*
X3603182Y10582737D01*
X3600551Y10583614D01*
X3602305Y10604664D01*
X3640019Y10642379D01*
X3644405Y10637993D01*
X3646159Y10634485D01*
X3649667Y10630977D01*
X3651421Y10627468D01*
X3654930Y10623960D01*
X3635634Y10604664D01*
X3637388Y10515202D01*
X3645282Y10514325D01*
X3647913Y10516956D01*
X3649667Y10601156D01*
X3662824Y10614312D01*
X3666332Y10612558D01*
X3669840Y10609050D01*
X3673349Y10607296D01*
X3676857Y10603787D01*
X3680365Y10602033D01*
X3684751Y10599402D01*
X3683874Y10544146D01*
X3680365Y10542391D01*
X3677734Y10539760D01*
X3674226Y10530989D01*
X3676857Y10521342D01*
X3682119Y10516079D01*
X3689136Y10514325D01*
X3699661Y10516079D01*
X3705801Y10522219D01*
X3707555Y10532744D01*
X3699661Y10544146D01*
X3697030Y10545023D01*
X3697907Y10591508D01*
X3717203Y10586246D01*
X3724219Y10584491D01*
X3736498Y10582737D01*
X3941736Y10584491D01*
X3996115Y10638871D01*
X4003131Y10640625D01*
X4010148Y10638871D01*
X4012779Y10630977D01*
X4007517Y10622206D01*
X3968925Y10583614D01*
X3994361Y10582737D01*
X4052248Y10640625D01*
X4062773Y10638871D01*
X4065404Y10636239D01*
X4066281Y10630100D01*
X4061896Y10623960D01*
X4021550Y10583614D01*
X4048739Y10582737D01*
X4108381Y10642379D01*
X4146973Y10644133D01*
X4153989Y10651150D01*
X4161006Y10652904D01*
X4175039Y10651150D01*
X4182933Y10645010D01*
X4186441Y10636239D01*
X4184687Y10622206D01*
X4181179Y10618698D01*
X4180302Y10616066D01*
X4176794Y10614312D01*
X4168023Y10610804D01*
X4155744Y10612558D01*
X4147850Y10618698D01*
X4146096Y10622206D01*
X4117152Y10623083D01*
X4077683Y10583614D01*
X4126800Y10581860D01*
X4125923Y10510817D01*
X4086454Y10508185D01*
X4072421Y10506431D01*
X4061896Y10504677D01*
X4044354Y10501169D01*
X4030321Y10497660D01*
X4017165Y10493275D01*
X3976819Y10533621D01*
X3938227Y10535375D01*
X3929456Y10545900D01*
X3920686Y10549408D01*
X3904898Y10547654D01*
X3895250Y10539760D01*
X3891742Y10527481D01*
X3893496Y10516956D01*
X3901390Y10507308D01*
X3904898Y10503800D01*
X3917177Y10502046D01*
X3925948Y10503800D01*
X3935596Y10511694D01*
X3937350Y10515202D01*
X3969802Y10516079D01*
X3996992Y10488890D01*
X3995238Y10485381D01*
X3986467Y10481873D01*
X3839994Y10480996D01*
X3838240Y10502046D01*
X3824207Y10493275D01*
X3784738Y10473102D01*
X3785615Y10470471D01*
X3825961Y10449421D01*
X3839117Y10443281D01*
X3839994Y10463454D01*
X3976819Y10461700D01*
X3982959Y10457315D01*
X3982081Y10456438D01*
X3981204Y10455560D01*
X3954015Y10428371D01*
X3909284Y10429248D01*
X3908406Y10438896D01*
X3870692Y10438019D01*
X3871569Y10400304D01*
X3909284Y10401181D01*
X3910161Y10410829D01*
X3964540Y10412583D01*
X4001377Y10449421D01*
X4010148Y10445913D01*
X4021550Y10441527D01*
X4031198Y10438896D01*
X4043477Y10435388D01*
X4057510Y10431879D01*
X4069789Y10430125D01*
X4076806Y10428371D01*
X4099610Y10426617D01*
X4132939Y10424863D01*
X4185564Y10426617D01*
X4190827Y10428371D01*
X4207491Y10434510D01*
X4218016Y10441527D01*
X4224156Y10447667D01*
X4227664Y10449421D01*
X4232050Y10453806D01*
X4233804Y10457315D01*
X4237312Y10460823D01*
X4239066Y10464331D01*
X4247837Y10483627D01*
X4251345Y10497660D01*
X4253099Y10515202D01*
X4298708Y10516956D01*
X4303970Y10522219D01*
X4302216Y10532744D01*
X4294322Y10535375D01*
X4253099Y10536252D01*
X4253977Y10556425D01*
X4301339Y10558179D01*
X4303970Y10566073D01*
X4302216Y10571335D01*
X4297831Y10575721D01*
X4253099Y10576598D01*
X4250468Y10603787D01*
X4246960Y10617821D01*
X4241697Y10631854D01*
X4228541Y10655535D01*
X4225033Y10659043D01*
X4223279Y10662552D01*
X4206614Y10679216D01*
X4203106Y10680971D01*
X4199598Y10684479D01*
X4196089Y10686233D01*
X4183810Y10693250D01*
X4171531Y10698512D01*
X4162760Y10702021D01*
X4151358Y10704652D01*
X4135571Y10706406D01*
X4116275Y10708160D01*
X4114521Y10718685D01*
X4106627Y10730087D01*
X4103119Y10731841D01*
X4094348Y10735349D01*
X4075052Y10733595D01*
X4065404Y10725702D01*
X4060141Y10713423D01*
X4058387Y10708160D01*
X4025935Y10707283D01*
X4023304Y10715177D01*
X4016288Y10727456D01*
X4011902Y10731841D01*
X4003131Y10735349D01*
X3983836Y10733595D01*
X3974188Y10725702D01*
X3970679Y10722193D01*
X3967171Y10709914D01*
X3966294Y10707283D01*
X3932088Y10708160D01*
X3930334Y10718685D01*
X3922440Y10730087D01*
X3918931Y10731841D01*
X3910161Y10735349D01*
X3890865Y10733595D01*
X3881217Y10725702D01*
X3875954Y10713423D01*
X3875077Y10707283D01*
X3840871Y10708160D01*
X3839117Y10715177D01*
X3832100Y10727456D01*
X3827715Y10731841D01*
X3818944Y10735349D01*
X3799648Y10733595D01*
X3790001Y10725702D01*
X3786492Y10722193D01*
X3782984Y10709914D01*
X3782107Y10707283D01*
X3747901Y10708160D01*
X3749655Y10778326D01*
X3832100Y10780081D01*
X3833854Y10823935D01*
X3836486Y10826566D01*
X3842625Y10827443D01*
X3848765Y10824812D01*
X3851396Y10822181D01*
X3853150Y10815164D01*
X3854027Y10779203D01*
X3870692Y10780081D01*
X3872446Y10822181D01*
X3876831Y10826566D01*
X3883848Y10828320D01*
X3891742Y10822181D01*
X3893496Y10809901D01*
X3894373Y10779203D01*
X3911038Y10780081D01*
X3912792Y10822181D01*
X3917177Y10826566D01*
X3923317Y10827443D01*
X3929456Y10824812D01*
X3932088Y10822181D01*
X3932965Y10779203D01*
X3951384Y10780081D01*
X3953138Y10822181D01*
X3957523Y10826566D01*
X3963663Y10827443D01*
X3969802Y10824812D01*
X3972434Y10822181D01*
X3973311Y10779203D01*
X4153989Y10780958D01*
X4159252Y10782712D01*
X4181179Y10790606D01*
X4198721Y10801131D01*
X4201352Y10803762D01*
X4204860Y10805516D01*
X4211877Y10812533D01*
X4215385Y10814287D01*
X4218016Y10816918D01*
X4219771Y10820426D01*
X4226787Y10827443D01*
X4228541Y10830951D01*
X4232050Y10834460D01*
X4233804Y10837968D01*
X4246083Y10864281D01*
X4251345Y10885331D01*
X4253099Y10918660D01*
X4251345Y10994089D01*
X4249591Y10999351D01*
X4246960Y11010753D01*
X4241697Y11024786D01*
X4228541Y11048468D01*
X4225033Y11051976D01*
X4223279Y11055484D01*
X4206614Y11072149D01*
X4203106Y11073903D01*
X4199598Y11077411D01*
X4196089Y11079166D01*
X4182056Y11087936D01*
X4170654Y11092322D01*
X4161006Y11094953D01*
X4146973Y11098461D01*
X4129431Y11100216D01*
X4116275Y11101093D01*
X4114521Y11111618D01*
X4106627Y11123020D01*
X4103119Y11124774D01*
X4094348Y11128282D01*
X4086454Y11129159D01*
X4077683Y11127405D01*
X4068035Y11121266D01*
X4063650Y11116880D01*
X4060141Y11108109D01*
X4058387Y11101093D01*
X4025935Y11100216D01*
X4023304Y11108109D01*
X4016288Y11120388D01*
X4011902Y11124774D01*
X4003131Y11128282D01*
X3995238Y11129159D01*
X3986467Y11127405D01*
X3980327Y11124774D01*
X3970679Y11115126D01*
X3967171Y11102847D01*
X3966294Y11100216D01*
X3932088Y11101093D01*
X3930334Y11111618D01*
X3922440Y11123020D01*
X3918931Y11124774D01*
X3910161Y11128282D01*
X3902267Y11129159D01*
X3893496Y11127405D01*
X3883848Y11121266D01*
X3879463Y11116880D01*
X3875954Y11108109D01*
X3874200Y11101093D01*
X3841748Y11100216D01*
X3839117Y11108109D01*
X3832100Y11120388D01*
X3827715Y11124774D01*
X3818944Y11128282D01*
X3811050Y11129159D01*
X3802280Y11127405D01*
X3796140Y11124774D01*
X3786492Y11115126D01*
X3782984Y11102847D01*
X3782107Y11100216D01*
X3747901Y11101093D01*
X3749655Y11171259D01*
X3947875Y11173013D01*
X3933842Y11181784D01*
X3927702Y11186169D01*
X3918054Y11194063D01*
X3915423Y11196694D01*
X3911915Y11198449D01*
X3901390Y11208974D01*
X3796140Y11207219D01*
X3790878Y11201957D01*
X3787369Y11200203D01*
X3778598Y11196694D01*
X3764565Y11198449D01*
X3754917Y11206342D01*
X3749655Y11218621D01*
X3751409Y11232655D01*
X3759303Y11242303D01*
X3771582Y11247565D01*
X3785615Y11245811D01*
X3789123Y11242303D01*
X3792632Y11240549D01*
X3796140Y11237040D01*
X3879463Y11237917D01*
X3865429Y11267738D01*
X3858413Y11290542D01*
X3855781Y11296682D01*
D02*
G37*
G36*
X3773336Y11230024D02*
X3769828Y11228269D01*
X3767196Y11225638D01*
X3768951Y11216867D01*
X3771582Y11214236D01*
X3780353Y11215990D01*
X3781230Y11216867D01*
Y11218621D01*
X3782984Y11223884D01*
X3780353Y11228269D01*
X3773336Y11230024D01*
D02*
G37*
G36*
X4276781Y11138807D02*
X4268887Y11130913D01*
X4261870Y11115126D01*
X4263624Y11064255D01*
X4269764Y11056361D01*
X4273272Y11054607D01*
X4292568Y11045836D01*
X4303970Y11041451D01*
X4307479Y11039697D01*
X4305724Y10994089D01*
X4290814Y10987949D01*
X4282043Y10984441D01*
X4275904Y10981809D01*
X4276781Y10947603D01*
X4283797Y10949357D01*
X4327651Y10966899D01*
X4331160Y10965145D01*
X4334668Y10961636D01*
X4338176Y10959882D01*
X4343439Y10954620D01*
X4355718Y10949357D01*
X4371506Y10951112D01*
X4381154Y10959005D01*
X4389047Y10968653D01*
X4391679Y10971284D01*
X4393433Y10974793D01*
X4396941Y10983564D01*
X4398695Y10995843D01*
X4397818Y11001982D01*
X4375014Y10989703D01*
X4368874Y10983564D01*
X4367120Y10980055D01*
X4360981Y10973916D01*
X4352210Y10979178D01*
X4348701Y10982686D01*
X4345193Y10984441D01*
X4340808Y10988826D01*
X4342562Y11041451D01*
X4345193Y11044082D01*
X4365366Y11053730D01*
X4370629Y11048468D01*
X4372383Y11044959D01*
X4391679Y11025663D01*
X4393433Y11022155D01*
X4396941Y11016893D01*
X4398695Y11022155D01*
X4396941Y11050222D01*
X4382031Y11072149D01*
X4378522Y11075657D01*
X4366243Y11079166D01*
X4355718Y11077411D01*
X4343439Y11070395D01*
X4332914Y11065132D01*
X4332037Y11099338D01*
X4334668Y11101970D01*
X4360981Y11103724D01*
X4373260Y11108986D01*
X4385539Y11110741D01*
X4386416Y11111618D01*
X4382031Y11116003D01*
X4378522Y11117757D01*
X4362735Y11124774D01*
X4345193Y11126528D01*
X4324143Y11124774D01*
X4314495Y11116880D01*
X4309233Y11104601D01*
X4308356Y11066886D01*
X4298708Y11069518D01*
X4285551Y11075657D01*
X4283797Y11114249D01*
X4281166Y11122143D01*
X4280289Y11123020D01*
X4278535Y11130036D01*
X4276781Y11138807D01*
D02*
G37*
G36*
X4355718Y10882699D02*
X4331160Y10880945D01*
X4317126Y10872174D01*
X4301339Y10863403D01*
X4291691Y10855510D01*
X4288183Y10846739D01*
X4289937Y10818672D01*
X4291691Y10813410D01*
X4289937Y10802885D01*
X4260116Y10785343D01*
X4252222Y10782712D01*
X4246960Y10787974D01*
X4243452Y10789728D01*
X4239943Y10793237D01*
X4236435Y10794991D01*
X4232927Y10798499D01*
X4229418Y10796745D01*
X4220648Y10787974D01*
X4217139Y10786220D01*
X4213631Y10782712D01*
X4210123Y10780958D01*
X4205737Y10778326D01*
X4213631Y10770433D01*
X4217139Y10768678D01*
X4222402Y10763416D01*
X4225910Y10761662D01*
X4229418Y10758153D01*
X4232927Y10756399D01*
X4238189Y10751137D01*
X4239066Y10750260D01*
X4237312Y10718685D01*
X4242575Y10709914D01*
X4248714Y10703775D01*
X4262747Y10700266D01*
X4280289Y10698512D01*
X4292568Y10700266D01*
X4304847Y10707283D01*
X4301339Y10709037D01*
X4294322Y10716054D01*
X4290814Y10717808D01*
X4282043Y10721316D01*
X4269764Y10723070D01*
X4261870Y10725702D01*
X4263624Y10748506D01*
X4266256Y10751137D01*
X4269764Y10752891D01*
X4283797Y10761662D01*
X4299585Y10770433D01*
X4311864Y10775695D01*
X4325897Y10766924D01*
X4333791Y10762539D01*
X4329406Y10751137D01*
X4326774Y10743243D01*
X4325020Y10736227D01*
X4323266Y10727456D01*
X4316249Y10716931D01*
X4322389Y10716054D01*
X4334668Y10723070D01*
X4344316Y10730964D01*
X4353087Y10743243D01*
X4354841Y10750260D01*
X4358349Y10759031D01*
X4356595Y10773064D01*
X4353087Y10776572D01*
X4351333Y10780081D01*
X4348701Y10782712D01*
X4329406Y10793237D01*
X4326774Y10795868D01*
X4357472Y10812533D01*
X4360981Y10810778D01*
X4369751Y10796745D01*
X4373260Y10791483D01*
X4376768Y10789728D01*
X4389924Y10776572D01*
X4391679Y10773064D01*
X4392556Y10772187D01*
X4395187Y10774818D01*
X4393433Y10801131D01*
X4382908Y10820426D01*
X4374137Y10832706D01*
X4364489Y10837091D01*
X4346947Y10835337D01*
X4336422Y10828320D01*
X4315372Y10817795D01*
X4313618Y10828320D01*
X4312741Y10841476D01*
X4315372Y10844108D01*
X4318881Y10845862D01*
X4331160Y10852878D01*
X4346070Y10862526D01*
X4347824Y10866035D01*
X4360981Y10879191D01*
X4363612Y10880068D01*
X4355718Y10882699D01*
D02*
G37*
%LPD*%
G36*
X4083119Y11359307D02*
X4085750Y11356676D01*
X4089258Y11347905D01*
X4087504Y11333871D01*
X4079610Y11324224D01*
X4070839Y11320715D01*
X4056806Y11322469D01*
X4047158Y11332117D01*
X4043650Y11344396D01*
X4048035Y11355798D01*
X4055052Y11362815D01*
X4067331Y11366323D01*
X4070839D01*
X4083119Y11359307D01*
D02*
G37*
G36*
X4303970Y11329134D02*
X4307479Y11320363D01*
Y11318609D01*
Y11316855D01*
X4301339Y11308961D01*
X4294322Y11307207D01*
X4287306Y11308961D01*
X4282920Y11313346D01*
X4281166Y11320363D01*
X4285551Y11330011D01*
X4294322Y11333519D01*
X4303970Y11329134D01*
D02*
G37*
%LPC*%
G36*
X7488522Y12545586D02*
Y12506221D01*
X7488313Y12508512D01*
Y12508929D01*
X7488105Y12510178D01*
X7487897Y12511636D01*
X7487689Y12512886D01*
Y12513094D01*
X7487480Y12513719D01*
X7487064Y12514344D01*
X7486439Y12514761D01*
X7486231Y12514969D01*
X7486022Y12515177D01*
X7485398Y12515385D01*
X7484773D01*
X7356472D01*
Y12541420D01*
X7356056Y12542045D01*
X7355639Y12542670D01*
X7355431Y12542878D01*
X7355223Y12543087D01*
X7354598Y12543712D01*
X7353556Y12544128D01*
X7353348Y12544336D01*
X7352515Y12544545D01*
X7351265Y12544961D01*
X7349807Y12545169D01*
X7349391D01*
X7348141Y12545378D01*
X7346475Y12545586D01*
X7342101D01*
X7340226Y12545378D01*
X7338352Y12545169D01*
X7337935D01*
X7337102Y12544961D01*
X7335852Y12544545D01*
X7334603Y12544128D01*
X7334395D01*
X7333770Y12543712D01*
X7333145Y12543295D01*
X7332520Y12542670D01*
Y12542462D01*
X7332312Y12542045D01*
X7332103Y12541420D01*
D01*
Y12454359D01*
X7332520Y12453110D01*
X7332728Y12452901D01*
X7332937Y12452693D01*
X7333770Y12452068D01*
X7334603Y12451652D01*
X7334811D01*
X7335644Y12451235D01*
X7336894Y12451027D01*
X7338352Y12450610D01*
X7338560D01*
X7338768D01*
X7340018D01*
X7341684Y12450402D01*
X7343975D01*
X7344184D01*
X7344600D01*
X7345225D01*
X7346058D01*
X7347933D01*
X7349807Y12450610D01*
X7350016D01*
X7350224D01*
X7351057Y12450819D01*
X7352307Y12451027D01*
X7353556Y12451443D01*
X7353765Y12451652D01*
X7354389Y12452068D01*
X7355014Y12452485D01*
X7355639Y12453110D01*
X7355847Y12453318D01*
X7356056Y12453735D01*
X7356264Y12454359D01*
X7356472Y12454984D01*
Y12483935D01*
X7457488D01*
X7443742Y12458942D01*
Y12458733D01*
X7443533Y12458525D01*
X7442908Y12457275D01*
X7442284Y12455817D01*
X7441867Y12454359D01*
Y12453318D01*
X7442075Y12452485D01*
X7442700Y12451652D01*
X7442908Y12451443D01*
X7443533Y12451027D01*
X7444575Y12450610D01*
X7446241Y12450194D01*
X7446449D01*
X7446657D01*
X7447282D01*
X7448115D01*
X7449157Y12449986D01*
X7332103D01*
X7488522D01*
Y12545586D01*
D02*
G37*
G36*
X7487480Y12415411D02*
D01*
Y12403539D01*
X7487272Y12404789D01*
X7487064Y12406455D01*
X7486439Y12408330D01*
Y12408538D01*
X7486231Y12408746D01*
X7485814Y12409787D01*
X7484981Y12411037D01*
X7483940Y12412287D01*
X7483731Y12412495D01*
X7482898Y12413120D01*
X7481648Y12413953D01*
X7479982Y12414578D01*
X7479566Y12414786D01*
X7478524Y12414994D01*
X7476858Y12415203D01*
X7474775Y12415411D01*
X7335644D01*
X7335019Y12414994D01*
X7334186Y12414578D01*
X7333978Y12414370D01*
X7333770Y12414161D01*
X7333145Y12413328D01*
X7332728Y12412287D01*
Y12412079D01*
X7332312Y12411037D01*
X7332103Y12409579D01*
X7331895Y12407705D01*
Y12407288D01*
X7331687Y12406455D01*
Y12405622D01*
X7331479Y12403331D01*
Y12397916D01*
X7331687Y12395416D01*
X7331895Y12393125D01*
Y12392709D01*
X7332103Y12391459D01*
X7332312Y12390001D01*
X7332728Y12388543D01*
X7332937Y12388335D01*
X7333145Y12387710D01*
X7333561Y12386877D01*
X7334186Y12386252D01*
X7334395D01*
X7334811Y12386044D01*
X7335644Y12385835D01*
X7336477Y12385627D01*
X7462903D01*
Y12385210D01*
X7336477Y12340222D01*
X7336269Y12340014D01*
X7335644Y12339805D01*
X7333978Y12338556D01*
X7333770Y12338347D01*
X7333353Y12337723D01*
X7332937Y12336889D01*
X7332312Y12335640D01*
Y12335223D01*
X7332103Y12334390D01*
X7331895Y12332932D01*
X7331687Y12330849D01*
Y12328975D01*
X7331479Y12326684D01*
Y12321477D01*
X7331687Y12319186D01*
X7331895Y12316895D01*
Y12316478D01*
X7332103Y12315228D01*
X7332312Y12313770D01*
X7332728Y12312312D01*
X7332937Y12312104D01*
X7333145Y12311271D01*
X7333561Y12310230D01*
X7334186Y12309188D01*
X7334395Y12308980D01*
X7334811Y12308563D01*
X7335644Y12308147D01*
X7336477Y12307939D01*
X7462903Y12264408D01*
Y12264200D01*
X7336477D01*
X7336269D01*
X7335644D01*
X7335019Y12263783D01*
X7334186Y12263367D01*
X7333978Y12263158D01*
X7333770Y12262742D01*
X7333145Y12262117D01*
X7332728Y12260867D01*
Y12260659D01*
X7332312Y12259618D01*
X7332103Y12258160D01*
X7331895Y12256285D01*
Y12255869D01*
X7331687Y12255244D01*
Y12254411D01*
X7331479Y12252120D01*
Y12246704D01*
X7331687Y12244205D01*
X7331895Y12241914D01*
Y12241497D01*
X7332103Y12240248D01*
X7332312Y12238790D01*
X7332728Y12237332D01*
X7332937Y12237123D01*
X7333145Y12236499D01*
X7333561Y12235665D01*
X7334186Y12235041D01*
X7334395D01*
X7334811Y12234832D01*
X7335644Y12234624D01*
X7336477Y12234416D01*
X7331479D01*
D01*
X7487480D01*
Y12415411D01*
D02*
G37*
%LPD*%
G36*
X7488522Y12449986D02*
X7458529D01*
X7459154Y12450194D01*
X7460196Y12450402D01*
X7461237Y12450610D01*
X7461445D01*
X7462070Y12451027D01*
X7462903Y12451235D01*
X7463528Y12451860D01*
X7463736Y12452068D01*
X7464153Y12452485D01*
X7464570Y12453110D01*
X7465194Y12454151D01*
X7486855Y12487476D01*
Y12487684D01*
X7487064Y12487892D01*
X7487480Y12488934D01*
Y12489142D01*
X7487689Y12489559D01*
X7487897Y12490392D01*
X7488105Y12491433D01*
Y12491642D01*
X7488313Y12492475D01*
Y12495599D01*
X7488522Y12496849D01*
Y12449986D01*
D02*
G37*
G36*
X7487480Y12268782D02*
X7487272Y12270032D01*
X7487064Y12273156D01*
X7486439Y12276280D01*
Y12276488D01*
X7486231Y12276905D01*
X7486022Y12277738D01*
X7485814Y12278571D01*
X7484773Y12280862D01*
X7483523Y12282945D01*
Y12283153D01*
X7483106Y12283362D01*
X7482065Y12284611D01*
X7480191Y12286277D01*
X7477899Y12287735D01*
X7477691D01*
X7477275Y12288152D01*
X7476650Y12288569D01*
X7475608Y12288985D01*
X7474359Y12289610D01*
X7472901Y12290026D01*
X7469568Y12291276D01*
X7376884Y12325018D01*
Y12325434D01*
X7469360Y12360425D01*
X7469568D01*
X7470193Y12360633D01*
X7471026Y12361050D01*
X7472276Y12361467D01*
X7474984Y12362508D01*
X7477691Y12363758D01*
X7477899D01*
X7478316Y12364174D01*
X7478941Y12364382D01*
X7479774Y12365007D01*
X7481648Y12366257D01*
X7483315Y12367923D01*
X7483523Y12368131D01*
X7483731Y12368340D01*
X7484564Y12369589D01*
X7485606Y12371464D01*
X7486439Y12373755D01*
Y12373963D01*
X7486647Y12374380D01*
X7486855Y12375213D01*
X7487064Y12376046D01*
X7487272Y12378545D01*
X7487480Y12381670D01*
Y12268782D01*
D02*
G37*
G36*
Y12234416D02*
X7475817D01*
X7476858Y12234624D01*
X7478316Y12234832D01*
X7479774Y12235249D01*
X7481232Y12235665D01*
X7482898Y12236499D01*
X7484148Y12237540D01*
X7484356Y12237748D01*
X7484773Y12238165D01*
X7485189Y12238790D01*
X7485814Y12239831D01*
X7486439Y12241081D01*
X7487064Y12242539D01*
X7487272Y12244205D01*
X7487480Y12246079D01*
Y12234416D01*
D02*
G37*
%LPC*%
G36*
X4588729Y12539512D02*
X4442308D01*
X4440433Y12539304D01*
X4438559Y12539095D01*
X4438142D01*
X4437309Y12538887D01*
X4436059Y12538470D01*
X4434810Y12538054D01*
X4434601D01*
X4433977Y12537637D01*
X4433352Y12537221D01*
X4432727Y12536596D01*
Y12536388D01*
X4432519Y12535971D01*
X4432310Y12535346D01*
D01*
Y12443911D01*
Y12448285D01*
X4432727Y12447036D01*
X4432935Y12446827D01*
X4433144Y12446619D01*
X4433977Y12445994D01*
X4434810Y12445578D01*
X4435018D01*
X4435851Y12445161D01*
X4437101Y12444953D01*
X4438559Y12444536D01*
X4438767D01*
X4438975D01*
X4440225D01*
X4441891Y12444328D01*
X4444182D01*
X4444391D01*
X4444807D01*
X4445432D01*
X4446265D01*
X4448140D01*
X4450014Y12444536D01*
X4450222D01*
X4450431D01*
X4451264Y12444744D01*
X4452514Y12444953D01*
X4453763Y12445369D01*
X4453972Y12445578D01*
X4454596Y12445994D01*
X4455221Y12446411D01*
X4455846Y12447036D01*
X4456054Y12447244D01*
X4456263Y12447660D01*
X4456471Y12448285D01*
X4456679Y12448910D01*
Y12477861D01*
X4557695D01*
X4543948Y12452867D01*
Y12452659D01*
X4543740Y12452451D01*
X4543115Y12451201D01*
X4542491Y12449743D01*
X4542074Y12448285D01*
Y12447244D01*
X4542282Y12446411D01*
X4542907Y12445578D01*
X4543115Y12445369D01*
X4543740Y12444953D01*
X4544782Y12444536D01*
X4546448Y12444120D01*
X4546656D01*
X4546864D01*
X4547489D01*
X4548322D01*
X4549364Y12443911D01*
X4558736D01*
X4559361Y12444120D01*
X4560403Y12444328D01*
X4561444Y12444536D01*
X4561652D01*
X4562277Y12444953D01*
X4563110Y12445161D01*
X4563735Y12445786D01*
X4563943Y12445994D01*
X4564360Y12446411D01*
X4564776Y12447036D01*
X4565401Y12448077D01*
X4587062Y12481402D01*
Y12481610D01*
X4587271Y12481818D01*
X4587687Y12482860D01*
Y12483068D01*
X4587896Y12483485D01*
X4588104Y12484318D01*
X4588312Y12485359D01*
Y12485567D01*
X4588520Y12486400D01*
Y12489525D01*
X4588729Y12490774D01*
Y12477861D01*
Y12500147D01*
X4588520Y12502438D01*
Y12502855D01*
X4588312Y12504104D01*
X4588104Y12505562D01*
X4587896Y12506812D01*
Y12507020D01*
X4587687Y12507645D01*
X4587271Y12508270D01*
X4586646Y12508686D01*
X4586438Y12508895D01*
X4586229Y12509103D01*
X4585604Y12509311D01*
X4584980D01*
X4456679D01*
Y12535346D01*
X4456263Y12535971D01*
X4455846Y12536596D01*
X4455638Y12536804D01*
X4455429Y12537013D01*
X4454805Y12537637D01*
X4453763Y12538054D01*
X4453555Y12538262D01*
X4452722Y12538470D01*
X4451472Y12538887D01*
X4450014Y12539095D01*
X4449598D01*
X4448348Y12539304D01*
X4446682Y12539512D01*
X4588729D01*
D02*
G37*
G36*
X4590187Y12364765D02*
X4452305D01*
X4450639Y12364557D01*
X4450222D01*
X4449389Y12364348D01*
X4448348Y12364140D01*
X4447098Y12363932D01*
X4446890D01*
X4446265Y12363724D01*
X4444599Y12362890D01*
X4444391D01*
X4443974Y12362474D01*
X4443141Y12361849D01*
X4442100Y12361016D01*
X4441891Y12360808D01*
X4441058Y12359975D01*
X4439808Y12358308D01*
X4439184Y12357267D01*
X4438351Y12356017D01*
Y12355809D01*
X4437934Y12355392D01*
X4437517Y12354559D01*
X4437101Y12353518D01*
X4436476Y12352060D01*
X4435643Y12350394D01*
X4435018Y12348727D01*
X4434185Y12346645D01*
Y12346436D01*
X4433977Y12345603D01*
X4433560Y12344562D01*
X4433144Y12343104D01*
X4432519Y12341229D01*
X4432102Y12339147D01*
X4431477Y12336647D01*
X4431061Y12334148D01*
Y12333940D01*
X4430852Y12332898D01*
X4430644Y12331648D01*
X4430436Y12329774D01*
X4430228Y12327483D01*
X4430019Y12324983D01*
X4429811Y12322068D01*
Y12364765D01*
D01*
Y12250003D01*
Y12316444D01*
X4430019Y12314986D01*
Y12313320D01*
X4430436Y12309571D01*
X4431061Y12304989D01*
X4431894Y12300198D01*
X4432935Y12295199D01*
X4434601Y12290201D01*
Y12289992D01*
X4434810Y12289576D01*
X4435226Y12288951D01*
X4435643Y12288118D01*
X4436684Y12285619D01*
X4438351Y12282703D01*
X4440433Y12279370D01*
X4442933Y12275621D01*
X4445849Y12272080D01*
X4449389Y12268540D01*
X4449598D01*
X4449806Y12268123D01*
X4450431Y12267706D01*
X4451056Y12267082D01*
X4453347Y12265415D01*
X4456054Y12263541D01*
X4459595Y12261250D01*
X4463761Y12258959D01*
X4468551Y12256668D01*
X4473758Y12254793D01*
X4473966D01*
X4474383Y12254585D01*
X4475216Y12254377D01*
X4476257Y12253960D01*
X4477715Y12253752D01*
X4479382Y12253335D01*
X4481256Y12252919D01*
X4483547Y12252502D01*
X4485838Y12251877D01*
X4488546Y12251461D01*
X4494378Y12250836D01*
X4500835Y12250211D01*
X4507916Y12250003D01*
X4511249D01*
X4512915Y12250211D01*
X4514998D01*
X4517289Y12250419D01*
X4519788Y12250628D01*
X4525203Y12251252D01*
X4531035Y12252294D01*
X4537075Y12253543D01*
X4542907Y12255210D01*
X4543115D01*
X4543532Y12255418D01*
X4544365Y12255835D01*
X4545406Y12256251D01*
X4546864Y12256668D01*
X4548322Y12257292D01*
X4551863Y12258959D01*
X4556029Y12261042D01*
X4560403Y12263541D01*
X4564568Y12266457D01*
X4568734Y12269789D01*
X4568942Y12269998D01*
X4569150Y12270206D01*
X4570400Y12271456D01*
X4572483Y12273538D01*
X4574774Y12276246D01*
X4577273Y12279578D01*
X4579981Y12283536D01*
X4582480Y12287910D01*
X4584771Y12292700D01*
Y12292908D01*
X4584980Y12293325D01*
X4585188Y12293950D01*
X4585604Y12294991D01*
X4586021Y12296241D01*
X4586438Y12297699D01*
X4587062Y12299365D01*
X4587479Y12301448D01*
X4588520Y12305613D01*
X4589354Y12310612D01*
X4589978Y12316027D01*
X4590187Y12321859D01*
Y12324150D01*
X4589978Y12325817D01*
Y12327691D01*
X4589770Y12329774D01*
X4588937Y12334356D01*
Y12334564D01*
X4588729Y12335397D01*
X4588520Y12336439D01*
X4588312Y12338105D01*
X4587896Y12339771D01*
X4587271Y12341646D01*
X4586229Y12345395D01*
Y12345603D01*
X4586021Y12346228D01*
X4585604Y12347269D01*
X4585188Y12348519D01*
X4583938Y12351435D01*
X4582272Y12354559D01*
Y12354768D01*
X4581855Y12355184D01*
X4581439Y12356017D01*
X4581022Y12356850D01*
X4579564Y12358725D01*
X4578940Y12359766D01*
X4578315Y12360391D01*
X4578106Y12360599D01*
X4577482Y12361224D01*
X4576648Y12362057D01*
X4575607Y12362474D01*
X4575399Y12362682D01*
X4574982Y12362890D01*
X4573941Y12363099D01*
X4572899Y12363515D01*
X4572691D01*
X4571858Y12363724D01*
X4570608Y12363932D01*
X4568942Y12364140D01*
X4568526D01*
X4567484Y12364348D01*
X4565610D01*
X4563319D01*
X4563110D01*
X4562694D01*
X4562069D01*
X4561236D01*
X4559153Y12364140D01*
X4557070Y12363932D01*
X4556654D01*
X4555612Y12363724D01*
X4554362Y12363515D01*
X4552905Y12363099D01*
X4552696D01*
X4552071Y12362682D01*
X4551447Y12362266D01*
X4550822Y12361641D01*
Y12361432D01*
X4550613Y12361016D01*
X4550405Y12360599D01*
X4550197Y12359766D01*
Y12359558D01*
X4550405Y12358517D01*
X4551030Y12357059D01*
X4552280Y12355184D01*
Y12354976D01*
X4552696Y12354768D01*
X4553113Y12354143D01*
X4553738Y12353310D01*
X4555196Y12351018D01*
X4556862Y12348103D01*
X4557070Y12347894D01*
X4557278Y12347269D01*
X4557695Y12346436D01*
X4558320Y12345187D01*
X4559153Y12343729D01*
X4559778Y12341854D01*
X4560611Y12339980D01*
X4561444Y12337689D01*
X4561652Y12337480D01*
X4561861Y12336647D01*
X4562277Y12335397D01*
X4562694Y12333731D01*
X4563110Y12331440D01*
X4563319Y12329149D01*
X4563735Y12326233D01*
Y12321651D01*
X4563527Y12319985D01*
X4563319Y12317694D01*
X4562694Y12315194D01*
X4562069Y12312278D01*
X4561027Y12309571D01*
X4559778Y12306655D01*
X4559569Y12306447D01*
X4559153Y12305405D01*
X4558320Y12304155D01*
X4557070Y12302489D01*
X4555404Y12300615D01*
X4553738Y12298532D01*
X4551447Y12296449D01*
X4548947Y12294366D01*
X4548739Y12294158D01*
X4547698Y12293533D01*
X4546240Y12292700D01*
X4544365Y12291450D01*
X4541866Y12290201D01*
X4538950Y12288951D01*
X4535617Y12287701D01*
X4532077Y12286660D01*
X4531868D01*
X4531660D01*
X4531035Y12286452D01*
X4530410Y12286243D01*
X4528327Y12285827D01*
X4525620Y12285410D01*
X4522287Y12284994D01*
X4518330Y12284577D01*
X4514164Y12284369D01*
X4509582Y12284161D01*
X4509374D01*
X4508957D01*
X4508333D01*
X4507291D01*
X4506042D01*
X4504792Y12284369D01*
X4501459Y12284577D01*
X4497710Y12284785D01*
X4493753Y12285410D01*
X4489587Y12286035D01*
X4485630Y12286868D01*
X4485422D01*
X4485214Y12287077D01*
X4483964Y12287493D01*
X4482089Y12288118D01*
X4479798Y12288951D01*
X4477299Y12290201D01*
X4474383Y12291450D01*
X4471675Y12293117D01*
X4469176Y12294991D01*
X4468968Y12295199D01*
X4468135Y12295824D01*
X4466885Y12297074D01*
X4465635Y12298532D01*
X4463969Y12300406D01*
X4462511Y12302489D01*
X4460845Y12304780D01*
X4459595Y12307488D01*
X4459387Y12307905D01*
X4459179Y12308738D01*
X4458554Y12310196D01*
X4458137Y12312278D01*
X4457512Y12314778D01*
X4456887Y12317694D01*
X4456679Y12320818D01*
X4456471Y12324150D01*
Y12325608D01*
X4456679Y12327066D01*
Y12329149D01*
X4456887Y12331232D01*
X4457304Y12333731D01*
X4457721Y12336231D01*
X4458345Y12338522D01*
Y12338730D01*
X4458762Y12339563D01*
X4459179Y12340604D01*
X4459595Y12342062D01*
X4461053Y12345395D01*
X4462719Y12348936D01*
X4462928Y12349144D01*
X4463136Y12349769D01*
X4463552Y12350394D01*
X4464177Y12351435D01*
X4465635Y12353726D01*
X4467093Y12356017D01*
Y12356225D01*
X4467510Y12356434D01*
X4468135Y12357683D01*
X4468759Y12359141D01*
X4469176Y12360599D01*
Y12361224D01*
X4468968Y12361849D01*
X4468551Y12362474D01*
Y12362682D01*
X4468135Y12362890D01*
X4467510Y12363307D01*
X4466677Y12363724D01*
X4466468D01*
X4465635Y12363932D01*
X4464386Y12364140D01*
X4462511Y12364348D01*
X4462303D01*
X4462094D01*
X4461470Y12364557D01*
X4460845D01*
X4458554Y12364765D01*
X4590187D01*
D02*
G37*
G36*
X4583730Y12223551D02*
X4431686D01*
Y12095459D01*
D01*
Y12106914D01*
X4431894Y12104623D01*
X4432102Y12102332D01*
Y12101916D01*
X4432310Y12100874D01*
X4432519Y12099416D01*
X4432935Y12097958D01*
X4433144Y12097750D01*
X4433352Y12097125D01*
X4433977Y12096500D01*
X4434601Y12095875D01*
X4434810D01*
X4435226Y12095667D01*
X4436684Y12095459D01*
X4577065D01*
D01*
X4588104D01*
X4577065D01*
X4578106Y12095667D01*
X4579356Y12095875D01*
X4580814Y12096292D01*
X4582272Y12096709D01*
X4583522Y12097542D01*
X4584771Y12098583D01*
X4584980Y12098791D01*
X4585188Y12099208D01*
X4585604Y12099833D01*
X4586229Y12100874D01*
X4586854Y12102124D01*
X4587271Y12103374D01*
X4587479Y12105040D01*
X4587687Y12106706D01*
Y12126493D01*
X4587271Y12128992D01*
X4586854Y12131491D01*
Y12131700D01*
X4586646Y12132116D01*
X4586229Y12133366D01*
X4585396Y12135240D01*
X4584147Y12137115D01*
Y12137323D01*
X4583938Y12137531D01*
X4582897Y12138573D01*
X4581439Y12140031D01*
X4579148Y12141697D01*
X4578940Y12141905D01*
X4578523Y12142114D01*
X4577898Y12142530D01*
X4577065Y12143155D01*
X4575815Y12143780D01*
X4574566Y12144613D01*
X4571441Y12146071D01*
X4514581Y12176272D01*
X4514373Y12176480D01*
X4513748Y12176688D01*
X4512706Y12177313D01*
X4511457Y12177938D01*
X4509791Y12178771D01*
X4508124Y12179604D01*
X4504375Y12181479D01*
X4504167Y12181687D01*
X4503542Y12181895D01*
X4502501Y12182312D01*
X4501459Y12182937D01*
X4499793Y12183770D01*
X4498335Y12184603D01*
X4494586Y12186269D01*
X4494378Y12186477D01*
X4493753Y12186686D01*
X4492712Y12187102D01*
X4491462Y12187727D01*
X4490004Y12188560D01*
X4488338Y12189393D01*
X4484797Y12191059D01*
X4484589Y12191268D01*
X4483964Y12191476D01*
X4483131Y12191893D01*
X4481881Y12192517D01*
X4480423Y12193142D01*
X4478757Y12193975D01*
X4475216Y12195433D01*
Y12195642D01*
X4475633D01*
X4476674D01*
X4478340Y12195433D01*
X4480423D01*
X4483131Y12195225D01*
X4486047D01*
X4489171Y12195017D01*
X4492503D01*
X4492712D01*
X4492920D01*
X4494170D01*
X4495836D01*
X4498127D01*
X4500835D01*
X4503750D01*
X4509999D01*
X4582897D01*
X4583105D01*
X4583730D01*
X4584355Y12195225D01*
X4584980Y12195642D01*
X4585188Y12195850D01*
X4585604Y12196266D01*
X4586229Y12196891D01*
X4586646Y12197933D01*
X4586854Y12198349D01*
X4587062Y12199182D01*
X4587479Y12200640D01*
X4587687Y12202515D01*
Y12202931D01*
X4587896Y12203556D01*
Y12204389D01*
X4588104Y12206680D01*
Y12212096D01*
X4587896Y12214179D01*
X4587687Y12216470D01*
Y12216886D01*
X4587479Y12217928D01*
X4587271Y12219386D01*
X4586646Y12220635D01*
X4586438Y12220843D01*
X4586229Y12221468D01*
X4585604Y12222301D01*
X4584980Y12222926D01*
X4584771Y12223135D01*
X4584355Y12223343D01*
X4583730Y12223551D01*
D02*
G37*
G36*
X4587687Y12067549D02*
X4456094D01*
X4587687D01*
D01*
D02*
G37*
G36*
X4447098D02*
X4432310D01*
Y11975490D01*
D01*
Y11984029D01*
X4432519Y11983196D01*
Y11982363D01*
X4433352Y11980280D01*
X4433768Y11979030D01*
X4434601Y11977989D01*
X4434810D01*
X4435018Y11977572D01*
X4435643Y11977156D01*
X4436476Y11976739D01*
X4437517Y11976323D01*
X4438767Y11975906D01*
X4440225Y11975698D01*
X4442100Y11975490D01*
X4578523D01*
X4579564Y11975698D01*
X4580606Y11975906D01*
X4583105Y11976531D01*
X4584147Y11977156D01*
X4585188Y11977989D01*
X4585396Y11978197D01*
X4585604Y11978406D01*
X4586021Y11979030D01*
X4586438Y11979864D01*
X4587271Y11981946D01*
X4587687Y11983196D01*
Y12062967D01*
X4587479Y12063592D01*
X4587062Y12064217D01*
X4586854Y12064425D01*
X4586646Y12064633D01*
X4585813Y12065258D01*
X4584771Y12065675D01*
X4584563Y12065883D01*
X4583730Y12066091D01*
X4582480Y12066300D01*
X4581022Y12066508D01*
X4580606D01*
X4579356Y12066716D01*
X4577482Y12066925D01*
X4574982D01*
X4574774D01*
X4574357D01*
X4573733D01*
X4573108D01*
X4571233Y12066716D01*
X4569359Y12066508D01*
X4568942D01*
X4568109Y12066300D01*
X4566859Y12066091D01*
X4565610Y12065675D01*
X4565401D01*
X4564776Y12065258D01*
X4564152Y12064842D01*
X4563527Y12064217D01*
Y12064009D01*
X4563319Y12063592D01*
X4563110Y12063176D01*
X4562902Y12062342D01*
Y12006940D01*
X4524995D01*
Y12054428D01*
X4524578Y12055053D01*
X4524162Y12055677D01*
X4523954Y12055886D01*
X4523745Y12056302D01*
X4523120Y12056927D01*
X4522079Y12057344D01*
X4521871Y12057552D01*
X4521246Y12057760D01*
X4519996Y12057969D01*
X4518330Y12058177D01*
X4517913D01*
X4516872Y12058385D01*
X4514998Y12058593D01*
X4512706D01*
X4512498D01*
X4512082D01*
X4511457D01*
X4510624D01*
X4508749Y12058385D01*
X4506875Y12058177D01*
X4506458D01*
X4505625Y12057969D01*
X4504584Y12057760D01*
X4503334Y12057344D01*
X4503126Y12057135D01*
X4502501Y12056927D01*
X4501876Y12056302D01*
X4501251Y12055677D01*
Y12055469D01*
X4501043Y12055053D01*
X4500835Y12053803D01*
Y12006940D01*
X4457096D01*
Y12063384D01*
X4456679Y12064009D01*
X4456263Y12064633D01*
X4456054Y12064842D01*
X4455846Y12065258D01*
X4455221Y12065883D01*
X4454180Y12066300D01*
X4453972Y12066508D01*
X4453138Y12066716D01*
X4451889Y12066925D01*
X4450431Y12067133D01*
X4450014D01*
X4448765Y12067341D01*
X4447098Y12067549D01*
D02*
G37*
%LPD*%
G36*
X4441683Y12223343D02*
X4440017Y12223135D01*
X4438351Y12222510D01*
X4437934Y12222301D01*
X4437101Y12221885D01*
X4436059Y12220843D01*
X4434810Y12219802D01*
X4434601Y12219594D01*
X4433977Y12218761D01*
X4433352Y12217511D01*
X4432727Y12216053D01*
Y12215636D01*
X4432519Y12214595D01*
X4432310Y12213137D01*
X4432102Y12211471D01*
Y12196683D01*
X4432310Y12195642D01*
X4432519Y12193142D01*
X4432935Y12190643D01*
Y12190435D01*
X4433144Y12190226D01*
X4433560Y12188768D01*
X4434601Y12187102D01*
X4435851Y12185019D01*
X4436059Y12184811D01*
X4436268Y12184603D01*
X4437517Y12183561D01*
X4439392Y12181895D01*
X4441891Y12180021D01*
X4442100D01*
X4442516Y12179604D01*
X4443349Y12179187D01*
X4444599Y12178563D01*
X4445849Y12177730D01*
X4447515Y12176896D01*
X4449598Y12175855D01*
X4451680Y12174814D01*
X4524162Y12136282D01*
X4524370Y12136074D01*
X4525412Y12135657D01*
X4526661Y12135032D01*
X4528536Y12134199D01*
X4530619Y12133158D01*
X4532910Y12131908D01*
X4535617Y12130658D01*
X4538325Y12129409D01*
X4538741Y12129200D01*
X4539575Y12128784D01*
X4541033Y12128159D01*
X4542907Y12127326D01*
X4545198Y12126493D01*
X4547698Y12125451D01*
X4552905Y12123368D01*
Y12122952D01*
X4552488D01*
X4551447Y12123160D01*
X4549780D01*
X4547489Y12123368D01*
X4544782D01*
X4541866Y12123577D01*
X4535617Y12123785D01*
X4535201D01*
X4534159D01*
X4532493D01*
X4530202Y12123993D01*
X4527494D01*
X4524578D01*
X4521246D01*
X4517913D01*
X4436684D01*
X4436476D01*
X4436059D01*
X4435435Y12123577D01*
X4434601Y12123160D01*
X4434393Y12122952D01*
X4433977Y12122744D01*
X4433560Y12121910D01*
X4432935Y12120869D01*
Y12120661D01*
X4432519Y12119828D01*
X4432310Y12118370D01*
X4432102Y12116495D01*
Y12116079D01*
X4431894Y12115454D01*
Y12114621D01*
X4431686Y12112330D01*
Y12223551D01*
X4442933D01*
X4441683Y12223343D01*
D02*
G37*
G36*
X4440642Y12067341D02*
X4438767Y12067133D01*
X4438351D01*
X4437517Y12066925D01*
X4436268Y12066716D01*
X4435018Y12066300D01*
X4434810Y12066091D01*
X4434185Y12065883D01*
X4433560Y12065258D01*
X4432935Y12064633D01*
Y12064425D01*
X4432727Y12064009D01*
X4432519Y12063592D01*
X4432310Y12062759D01*
Y12067549D01*
X4442516D01*
X4440642Y12067341D01*
D02*
G37*
%LPC*%
G36*
X2785189Y10200008D02*
D01*
Y10155644D01*
Y10200008D01*
D02*
G37*
G36*
X2634811D02*
X2633145D01*
X2632311Y10199800D01*
X2631687Y10199383D01*
X2631478D01*
X2631270Y10198967D01*
X2630645Y10198342D01*
X2630229Y10197092D01*
Y10196884D01*
X2630020Y10195842D01*
X2629812Y10194176D01*
X2629604Y10191885D01*
Y10191260D01*
X2629396Y10190427D01*
Y10187928D01*
X2629187Y10186262D01*
Y10097534D01*
X2629396Y10095035D01*
X2629604Y10092536D01*
Y10092119D01*
X2629812Y10090869D01*
X2630020Y10089203D01*
X2630437Y10087745D01*
X2630645Y10087537D01*
X2630854Y10086704D01*
X2631270Y10085871D01*
X2631895Y10085246D01*
X2632103D01*
X2632520Y10085037D01*
X2633353Y10084829D01*
X2634186Y10084621D01*
X2629187D01*
D01*
X2785189D01*
X2776025D01*
X2777066Y10084829D01*
X2778107Y10085037D01*
X2780607Y10085662D01*
X2781648Y10086287D01*
X2782690Y10087120D01*
X2782898Y10087329D01*
X2783106Y10087537D01*
X2783523Y10088162D01*
X2783939Y10088995D01*
X2784772Y10091078D01*
X2785189Y10092327D01*
Y10137732D01*
X2784981Y10141065D01*
X2784772Y10144189D01*
Y10145647D01*
X2784564Y10146688D01*
X2784356Y10148979D01*
X2784148Y10151479D01*
Y10151895D01*
X2783939Y10153145D01*
X2783523Y10154811D01*
X2783106Y10157102D01*
X2782481Y10159810D01*
X2781648Y10162518D01*
X2779565Y10168349D01*
X2779357Y10168766D01*
X2778941Y10169599D01*
X2778316Y10171057D01*
X2777274Y10172723D01*
X2776233Y10174806D01*
X2774775Y10176889D01*
X2773109Y10178972D01*
X2771234Y10181055D01*
X2771026Y10181263D01*
X2770401Y10181888D01*
X2769151Y10182929D01*
X2767693Y10183970D01*
X2765819Y10185220D01*
X2763736Y10186678D01*
X2761445Y10187928D01*
X2758737Y10188969D01*
X2758321Y10189177D01*
X2757488Y10189386D01*
X2756030Y10189802D01*
X2754155Y10190427D01*
X2751656Y10191052D01*
X2748948Y10191469D01*
X2745824Y10191677D01*
X2742492Y10191885D01*
X2742075D01*
X2741242D01*
X2739576D01*
X2737701Y10191677D01*
X2735410Y10191469D01*
X2733119Y10191052D01*
X2728120Y10189802D01*
X2727912D01*
X2727079Y10189386D01*
X2725829Y10188969D01*
X2724371Y10188344D01*
X2722497Y10187511D01*
X2720622Y10186470D01*
X2716665Y10183970D01*
X2716457Y10183762D01*
X2715832Y10183346D01*
X2714790Y10182513D01*
X2713749Y10181471D01*
X2712291Y10180013D01*
X2710833Y10178347D01*
X2709375Y10176472D01*
X2707917Y10174390D01*
X2707709Y10174181D01*
X2707292Y10173348D01*
X2706667Y10172307D01*
X2705834Y10170641D01*
X2705001Y10168766D01*
X2703960Y10166683D01*
X2702918Y10164184D01*
X2702085Y10161685D01*
Y10161893D01*
X2701877Y10162309D01*
X2701460Y10162934D01*
X2701044Y10163767D01*
X2699586Y10165850D01*
X2697920Y10168141D01*
Y10168349D01*
X2697503Y10168766D01*
X2697087Y10169183D01*
X2696253Y10170016D01*
X2694587Y10171890D01*
X2692088Y10173973D01*
X2691880Y10174181D01*
X2691463Y10174390D01*
X2690838Y10175014D01*
X2689797Y10175639D01*
X2687506Y10177306D01*
X2684381Y10178972D01*
X2684173Y10179180D01*
X2683548Y10179388D01*
X2682715Y10179805D01*
X2681466Y10180430D01*
X2680008Y10181263D01*
X2678341Y10182096D01*
X2674384Y10183762D01*
X2643767Y10196884D01*
X2643559D01*
X2642934Y10197092D01*
X2642309Y10197509D01*
X2641268Y10197925D01*
X2638976Y10198758D01*
X2637935Y10199175D01*
X2637102Y10199383D01*
X2636685Y10199591D01*
X2635852Y10199800D01*
X2634811Y10200008D01*
D02*
G37*
G36*
X2785189Y10056711D02*
D01*
Y10052129D01*
X2784981Y10052754D01*
X2784564Y10053379D01*
X2784356Y10053587D01*
X2784148Y10053795D01*
X2783314Y10054420D01*
X2782273Y10054837D01*
X2782065Y10055045D01*
X2781232Y10055253D01*
X2779982Y10055462D01*
X2778524Y10055670D01*
X2778107D01*
X2776858Y10055878D01*
X2774983Y10056087D01*
X2772484D01*
X2772276D01*
X2771859D01*
X2771234D01*
X2770609D01*
X2768735Y10055878D01*
X2766860Y10055670D01*
X2766444D01*
X2765611Y10055462D01*
X2764361Y10055253D01*
X2763111Y10054837D01*
X2762903D01*
X2762278Y10054420D01*
X2761653Y10054004D01*
X2761029Y10053379D01*
Y10053171D01*
X2760820Y10052754D01*
X2760612Y10052338D01*
X2760404Y10051504D01*
Y9996102D01*
X2722497D01*
Y10043590D01*
X2722080Y10044215D01*
X2721664Y10044839D01*
X2721455Y10045048D01*
X2721247Y10045464D01*
X2720622Y10046089D01*
X2719581Y10046506D01*
X2719373Y10046714D01*
X2718748Y10046922D01*
X2717498Y10047131D01*
X2715832Y10047339D01*
X2715415D01*
X2714374Y10047547D01*
X2712499Y10047755D01*
X2710208D01*
X2710000D01*
X2709583D01*
X2708959D01*
X2708125D01*
X2706251Y10047547D01*
X2704376Y10047339D01*
X2703960D01*
X2703127Y10047131D01*
X2702085Y10046922D01*
X2700836Y10046506D01*
X2700627Y10046297D01*
X2700002Y10046089D01*
X2699378Y10045464D01*
X2698753Y10044839D01*
Y10044631D01*
X2698545Y10044215D01*
X2698336Y10042965D01*
Y9996102D01*
X2654597D01*
Y10052546D01*
X2654181Y10053171D01*
X2653764Y10053795D01*
X2653556Y10054004D01*
X2653348Y10054420D01*
X2652723Y10055045D01*
X2651682Y10055462D01*
X2651473Y10055670D01*
X2650640Y10055878D01*
X2649390Y10056087D01*
X2647932Y10056295D01*
X2647516D01*
X2646266Y10056503D01*
X2644600Y10056711D01*
X2629812D01*
X2640018D01*
X2638143Y10056503D01*
X2636269Y10056295D01*
X2635852D01*
X2635019Y10056087D01*
X2633769Y10055878D01*
X2632520Y10055462D01*
X2632311Y10055253D01*
X2631687Y10055045D01*
X2631062Y10054420D01*
X2630437Y10053795D01*
Y10053587D01*
X2630229Y10053171D01*
X2630020Y10052754D01*
X2629812Y10051921D01*
Y9973191D01*
X2630020Y9972358D01*
Y9971525D01*
X2630854Y9969442D01*
X2631270Y9968192D01*
X2632103Y9967151D01*
X2632311D01*
X2632520Y9966734D01*
X2633145Y9966318D01*
X2633978Y9965901D01*
X2635019Y9965485D01*
X2636269Y9965068D01*
X2637727Y9964860D01*
X2639601Y9964652D01*
X2785189D01*
Y10056711D01*
D02*
G37*
G36*
X2785814Y9942366D02*
D01*
Y9931743D01*
X2785606Y9934451D01*
Y9935701D01*
X2785397Y9936950D01*
Y9937367D01*
X2785189Y9938617D01*
X2784564Y9939866D01*
X2783731Y9941116D01*
X2783523Y9941324D01*
X2782690Y9941741D01*
X2781440Y9942366D01*
X2779357D01*
X2778732Y9942157D01*
X2777899D01*
X2775816Y9941741D01*
X2772900Y9941116D01*
X2637935Y9905500D01*
X2637727D01*
X2637518Y9905292D01*
X2636269Y9904875D01*
X2634603Y9904250D01*
X2633145Y9903417D01*
X2632936Y9903209D01*
X2632311Y9902584D01*
X2631478Y9901335D01*
X2630645Y9899668D01*
Y9899460D01*
X2630437Y9899252D01*
Y9898627D01*
X2630229Y9898002D01*
X2629812Y9895919D01*
X2629604Y9893212D01*
Y9892587D01*
X2629396Y9891545D01*
Y9889046D01*
X2629187Y9887380D01*
Y9879257D01*
X2629396Y9875716D01*
Y9873842D01*
X2629604Y9872175D01*
Y9871550D01*
X2629812Y9870717D01*
Y9869884D01*
X2630229Y9867593D01*
X2630645Y9865510D01*
X2630854Y9865094D01*
X2631270Y9864261D01*
X2632103Y9863011D01*
X2633145Y9861970D01*
X2633561Y9861761D01*
X2634394Y9861345D01*
X2636061Y9860928D01*
X2637935Y9860512D01*
X2736243Y9835518D01*
Y9835310D01*
X2637935Y9811774D01*
X2637727D01*
X2637518Y9811566D01*
X2636269Y9811358D01*
X2634811Y9810733D01*
X2633353Y9810108D01*
X2633145Y9809900D01*
X2632311Y9809275D01*
X2631478Y9808233D01*
X2630645Y9806567D01*
X2630437Y9806151D01*
X2630229Y9804901D01*
X2629812Y9803026D01*
X2629604Y9800319D01*
Y9799694D01*
X2629396Y9798652D01*
Y9795945D01*
X2629187Y9794279D01*
Y9785739D01*
X2629396Y9782198D01*
Y9780324D01*
X2629604Y9778658D01*
Y9778033D01*
X2629812Y9777200D01*
Y9776367D01*
X2630229Y9774075D01*
X2630645Y9771993D01*
X2630854Y9771576D01*
X2631270Y9770743D01*
X2632103Y9769702D01*
X2633145Y9768660D01*
X2633561Y9768452D01*
X2634394Y9768035D01*
X2636061Y9767410D01*
X2637935Y9766786D01*
X2773317Y9731586D01*
X2773525D01*
X2773942Y9731378D01*
X2774775Y9731170D01*
X2775816Y9730961D01*
X2777899Y9730545D01*
X2779982Y9730337D01*
X2629187D01*
D01*
X2785814D01*
Y9942366D01*
D02*
G37*
G36*
X2787897Y9715549D02*
D01*
Y9646400D01*
X2787688Y9647858D01*
Y9649732D01*
X2787480Y9651815D01*
X2787272Y9653898D01*
X2786647Y9658688D01*
X2785814Y9663895D01*
X2784772Y9669311D01*
X2783106Y9674518D01*
Y9674726D01*
X2782898Y9675142D01*
X2782690Y9675767D01*
X2782273Y9676809D01*
X2781648Y9677850D01*
X2781232Y9679308D01*
X2779565Y9682432D01*
X2777691Y9685973D01*
X2775192Y9689722D01*
X2772067Y9693471D01*
X2768735Y9697012D01*
X2768527Y9697220D01*
X2768318Y9697428D01*
X2767693Y9697845D01*
X2767069Y9698470D01*
X2764778Y9700136D01*
X2762070Y9702219D01*
X2758529Y9704302D01*
X2754155Y9706593D01*
X2749365Y9708884D01*
X2744158Y9710758D01*
X2743950D01*
X2743533Y9710967D01*
X2742700Y9711175D01*
X2741450Y9711591D01*
X2740201Y9711800D01*
X2738326Y9712216D01*
X2736451Y9712633D01*
X2734160Y9713258D01*
X2731869Y9713674D01*
X2729162Y9714091D01*
X2726246Y9714507D01*
X2723122Y9714716D01*
X2716457Y9715340D01*
X2709167Y9715549D01*
X2705834D01*
X2704168Y9715340D01*
X2702294D01*
X2700002Y9715132D01*
X2697503Y9714924D01*
X2692296Y9714299D01*
X2686464Y9713466D01*
X2680424Y9712216D01*
X2674592Y9710550D01*
X2674384D01*
X2673967Y9710342D01*
X2673134Y9710133D01*
X2672093Y9709717D01*
X2670843Y9709092D01*
X2669177Y9708467D01*
X2665636Y9707009D01*
X2661679Y9704926D01*
X2657305Y9702427D01*
X2652931Y9699511D01*
X2648766Y9696179D01*
X2648557D01*
X2648349Y9695762D01*
X2647099Y9694512D01*
X2645017Y9692430D01*
X2642725Y9689722D01*
X2640226Y9686390D01*
X2637518Y9682432D01*
X2634811Y9677850D01*
X2632520Y9672851D01*
Y9672643D01*
X2632311Y9672227D01*
X2632103Y9671393D01*
X2631687Y9670352D01*
X2631270Y9669102D01*
X2630854Y9667436D01*
X2630229Y9665562D01*
X2629812Y9663687D01*
X2629396Y9661396D01*
X2628771Y9658897D01*
X2627938Y9653273D01*
X2627313Y9647233D01*
X2627104Y9640568D01*
Y9637444D01*
X2627313Y9635986D01*
Y9634111D01*
X2627521Y9632028D01*
X2627729Y9629737D01*
X2628146Y9624947D01*
X2628979Y9619532D01*
X2630229Y9614116D01*
X2631687Y9608909D01*
Y9608701D01*
X2631895Y9608285D01*
X2632103Y9607660D01*
X2632520Y9606618D01*
X2633145Y9605577D01*
X2633769Y9604119D01*
X2635227Y9600995D01*
X2637310Y9597454D01*
X2639810Y9593705D01*
X2642725Y9589956D01*
X2646058Y9586415D01*
X2646266D01*
X2646475Y9585999D01*
X2647099Y9585582D01*
X2647932Y9584957D01*
X2650015Y9583291D01*
X2652931Y9581416D01*
X2656472Y9579125D01*
X2660638Y9576834D01*
X2665428Y9574751D01*
X2670843Y9572877D01*
X2671052D01*
X2671468Y9572669D01*
X2672301Y9572460D01*
X2673551Y9572252D01*
X2675009Y9571836D01*
X2676675Y9571419D01*
X2678758Y9571002D01*
X2680841Y9570794D01*
X2683340Y9570378D01*
X2686048Y9569961D01*
X2689172Y9569544D01*
X2692296Y9569128D01*
X2698961Y9568711D01*
X2706459Y9568503D01*
X2627104D01*
X2787897D01*
Y9715549D01*
D02*
G37*
G36*
X2785189Y9551216D02*
D01*
Y9495605D01*
X2784981Y9497063D01*
Y9498938D01*
X2784564Y9502687D01*
Y9503520D01*
X2784356Y9504561D01*
X2784148Y9506019D01*
X2783939Y9507685D01*
X2783523Y9509768D01*
X2783106Y9512059D01*
X2782690Y9514559D01*
Y9514975D01*
X2782481Y9515808D01*
X2782065Y9517058D01*
X2781648Y9518932D01*
X2781023Y9521015D01*
X2779982Y9523306D01*
X2778941Y9525806D01*
X2777691Y9528513D01*
X2777483Y9528930D01*
X2777066Y9529763D01*
X2776233Y9531013D01*
X2775192Y9532887D01*
X2773734Y9534762D01*
X2772067Y9536845D01*
X2770401Y9538927D01*
X2768318Y9540802D01*
X2768110Y9541010D01*
X2767277Y9541635D01*
X2766236Y9542468D01*
X2764569Y9543718D01*
X2762695Y9544967D01*
X2760404Y9546217D01*
X2757696Y9547467D01*
X2754988Y9548508D01*
X2754572Y9548716D01*
X2753739Y9548925D01*
X2752072Y9549341D01*
X2749990Y9549966D01*
X2747490Y9550383D01*
X2744574Y9550799D01*
X2741450Y9551008D01*
X2737909Y9551216D01*
X2735618D01*
X2734577Y9551008D01*
X2733327D01*
X2729995Y9550799D01*
X2726454Y9550174D01*
X2722497Y9549550D01*
X2718539Y9548508D01*
X2714582Y9547050D01*
X2714374D01*
X2714166Y9546842D01*
X2712916Y9546217D01*
X2711041Y9545384D01*
X2708750Y9543926D01*
X2706043Y9542260D01*
X2703335Y9540385D01*
X2700419Y9537886D01*
X2697711Y9535178D01*
X2697503Y9534762D01*
X2696670Y9533720D01*
X2695420Y9532054D01*
X2693754Y9529971D01*
X2692088Y9527055D01*
X2690422Y9523931D01*
X2688755Y9520182D01*
X2687297Y9516017D01*
Y9515808D01*
X2687089Y9515600D01*
X2686881Y9514975D01*
X2686673Y9513934D01*
X2686464Y9512892D01*
X2686256Y9511643D01*
X2685631Y9508518D01*
X2684798Y9504561D01*
X2684381Y9500187D01*
X2683965Y9494980D01*
X2683757Y9489565D01*
Y9476652D01*
X2634186D01*
X2633978D01*
X2633353D01*
X2632728Y9476235D01*
X2631895Y9475818D01*
X2631687Y9475610D01*
X2631478Y9475194D01*
X2630854Y9474361D01*
X2630437Y9473111D01*
Y9472903D01*
X2630020Y9471861D01*
X2629812Y9470403D01*
X2629604Y9468320D01*
Y9467696D01*
X2629396Y9467071D01*
Y9465196D01*
X2629187Y9463947D01*
Y9457906D01*
X2629396Y9455407D01*
X2629604Y9452908D01*
Y9452491D01*
X2629812Y9451241D01*
X2630020Y9449575D01*
X2630437Y9448117D01*
X2630645Y9447909D01*
X2630854Y9447076D01*
X2631270Y9446243D01*
X2631895Y9445618D01*
X2632103D01*
X2632520Y9445410D01*
X2633353Y9445201D01*
X2634186Y9444993D01*
X2629187D01*
D01*
X2785189D01*
Y9551216D01*
D02*
G37*
%LPD*%
G36*
X2741867Y10158977D02*
X2743741Y10158769D01*
X2745616Y10158352D01*
X2747907Y10157727D01*
X2749990Y10156894D01*
X2752072Y10155644D01*
X2752281Y10155436D01*
X2752906Y10155020D01*
X2753947Y10154186D01*
X2754988Y10152937D01*
X2756238Y10151271D01*
X2757488Y10149396D01*
X2758737Y10146897D01*
X2759571Y10144189D01*
X2759779Y10143772D01*
X2759987Y10142731D01*
X2760195Y10140857D01*
X2760612Y10138774D01*
Y10138149D01*
X2760820Y10137524D01*
Y10135233D01*
X2761029Y10133775D01*
Y10116279D01*
X2717081D01*
Y10134608D01*
X2717290Y10136274D01*
X2717498Y10138149D01*
X2717706Y10140023D01*
X2718539Y10143981D01*
Y10144189D01*
X2718956Y10144814D01*
X2719164Y10145647D01*
X2719789Y10146897D01*
X2721247Y10149604D01*
X2723122Y10152312D01*
X2723330Y10152520D01*
X2723746Y10152937D01*
X2724163Y10153562D01*
X2724996Y10154186D01*
X2727287Y10155853D01*
X2729995Y10157311D01*
X2730203D01*
X2730828Y10157519D01*
X2731661Y10157935D01*
X2732702Y10158352D01*
X2734160Y10158560D01*
X2735618Y10158977D01*
X2739159Y10159185D01*
X2739576D01*
X2740409D01*
X2741867Y10158977D01*
D02*
G37*
G36*
X2629396Y10176681D02*
X2629604Y10174181D01*
Y10173765D01*
X2629812Y10172515D01*
X2630020Y10171057D01*
X2630229Y10169599D01*
X2630437Y10169391D01*
X2630645Y10168766D01*
X2631270Y10167933D01*
X2631895Y10167100D01*
X2632103D01*
X2632520Y10166683D01*
X2633353Y10166475D01*
X2634394Y10166058D01*
X2668969Y10152104D01*
X2669177Y10151895D01*
X2670010Y10151687D01*
X2671052Y10151062D01*
X2672510Y10150437D01*
X2674176Y10149604D01*
X2675842Y10148771D01*
X2679383Y10146897D01*
X2679591D01*
X2680216Y10146480D01*
X2681049Y10146064D01*
X2682090Y10145439D01*
X2684590Y10143772D01*
X2687089Y10141690D01*
X2687297Y10141481D01*
X2687506Y10141273D01*
X2688131Y10140648D01*
X2688755Y10139815D01*
X2690422Y10137524D01*
X2691671Y10134816D01*
Y10134608D01*
X2691880Y10134192D01*
X2692296Y10133358D01*
X2692504Y10132317D01*
X2692921Y10131067D01*
X2693129Y10129609D01*
X2693338Y10126069D01*
Y10116279D01*
X2634186D01*
X2633978D01*
X2633353D01*
X2632728Y10115863D01*
X2631895Y10115446D01*
X2631687Y10115238D01*
X2631478Y10114822D01*
X2630854Y10113988D01*
X2630437Y10112739D01*
Y10112530D01*
X2630020Y10111489D01*
X2629812Y10110031D01*
X2629604Y10107948D01*
Y10107323D01*
X2629396Y10106699D01*
Y10104824D01*
X2629187Y10103574D01*
Y10179388D01*
X2629396Y10176681D01*
D02*
G37*
G36*
X2785189Y9964652D02*
X2776025D01*
X2777066Y9964860D01*
X2778107Y9965068D01*
X2780607Y9965693D01*
X2781648Y9966318D01*
X2782690Y9967151D01*
X2782898Y9967359D01*
X2783106Y9967568D01*
X2783523Y9968192D01*
X2783939Y9969026D01*
X2784772Y9971108D01*
X2785189Y9972358D01*
Y9964652D01*
D02*
G37*
G36*
X2785814Y9839892D02*
X2785606Y9842808D01*
Y9844474D01*
X2785397Y9845724D01*
Y9846973D01*
X2785189Y9847807D01*
X2784981Y9849473D01*
X2784356Y9851139D01*
X2784148Y9851556D01*
X2783939Y9852180D01*
X2783314Y9853014D01*
X2782273Y9853847D01*
X2782065Y9854055D01*
X2781232Y9854263D01*
X2779982Y9854680D01*
X2778316Y9855096D01*
X2660429Y9884464D01*
Y9884672D01*
X2778941Y9911957D01*
X2779357D01*
X2779982Y9912165D01*
X2781023Y9912582D01*
X2782065Y9912790D01*
X2782273Y9912998D01*
X2782898Y9913415D01*
X2783731Y9914040D01*
X2784356Y9915081D01*
X2784564Y9915498D01*
X2784772Y9916331D01*
X2785189Y9917997D01*
X2785397Y9920080D01*
Y9920705D01*
X2785606Y9921329D01*
Y9923620D01*
X2785814Y9925078D01*
Y9839892D01*
D02*
G37*
G36*
Y9752414D02*
X2785606Y9753872D01*
Y9755747D01*
X2785397Y9756996D01*
X2785189Y9758663D01*
X2784564Y9760121D01*
X2784356Y9760329D01*
X2784148Y9761162D01*
X2783523Y9761787D01*
X2782690Y9762412D01*
X2782481Y9762620D01*
X2781857Y9762828D01*
X2780607Y9763037D01*
X2779149Y9763453D01*
X2660429Y9790530D01*
Y9790738D01*
X2778316Y9819064D01*
X2778524D01*
X2778732D01*
X2779565Y9819272D01*
X2780815Y9819689D01*
X2782065Y9820105D01*
X2782273Y9820314D01*
X2782898Y9820730D01*
X2783731Y9821563D01*
X2784356Y9822813D01*
X2784564Y9823230D01*
X2784772Y9824063D01*
X2785189Y9825729D01*
X2785397Y9827812D01*
Y9828437D01*
X2785606Y9829061D01*
Y9831352D01*
X2785814Y9833019D01*
Y9752414D01*
D02*
G37*
G36*
Y9730337D02*
X2780399D01*
X2781440Y9730545D01*
X2782690Y9730961D01*
X2783731Y9731795D01*
X2783939Y9732003D01*
X2784564Y9733044D01*
X2784981Y9734502D01*
X2785397Y9736585D01*
Y9737210D01*
X2785606Y9738043D01*
Y9740542D01*
X2785814Y9742209D01*
Y9730337D01*
D02*
G37*
G36*
X2714999Y9682224D02*
X2718331Y9682016D01*
X2722080Y9681599D01*
X2726037Y9680974D01*
X2729787Y9680349D01*
X2729995D01*
X2730203D01*
X2731453Y9679933D01*
X2733327Y9679516D01*
X2735618Y9678891D01*
X2738326Y9678058D01*
X2741242Y9676809D01*
X2744158Y9675559D01*
X2746865Y9673893D01*
X2747282Y9673684D01*
X2748115Y9673060D01*
X2749365Y9672018D01*
X2751031Y9670560D01*
X2752906Y9668894D01*
X2754780Y9666811D01*
X2756446Y9664312D01*
X2758113Y9661604D01*
X2758321Y9661188D01*
X2758737Y9660146D01*
X2759362Y9658480D01*
X2760195Y9656397D01*
X2760820Y9653481D01*
X2761445Y9650357D01*
X2761862Y9646608D01*
X2762070Y9642442D01*
Y9640568D01*
X2761862Y9638277D01*
X2761445Y9635569D01*
X2761029Y9632445D01*
X2760195Y9629321D01*
X2758946Y9625988D01*
X2757488Y9622864D01*
X2757279Y9622448D01*
X2756655Y9621614D01*
X2755822Y9620157D01*
X2754364Y9618490D01*
X2752697Y9616407D01*
X2750823Y9614325D01*
X2748323Y9612242D01*
X2745824Y9610367D01*
X2745408Y9610159D01*
X2744574Y9609534D01*
X2742908Y9608701D01*
X2741034Y9607660D01*
X2738534Y9606618D01*
X2735618Y9605369D01*
X2732286Y9604327D01*
X2728745Y9603494D01*
X2728537D01*
X2728329D01*
X2727079Y9603286D01*
X2724996Y9602869D01*
X2722497Y9602661D01*
X2719373Y9602244D01*
X2715832Y9601828D01*
X2712083Y9601620D01*
X2708125D01*
X2707917D01*
X2707501D01*
X2706876D01*
X2706043D01*
X2704793D01*
X2703543Y9601828D01*
X2700419D01*
X2696878Y9602036D01*
X2692921Y9602453D01*
X2688964Y9602869D01*
X2685006Y9603494D01*
X2684798D01*
X2684590D01*
X2683340Y9603911D01*
X2681466Y9604327D01*
X2679174Y9604952D01*
X2676467Y9605993D01*
X2673551Y9607035D01*
X2670635Y9608285D01*
X2667719Y9609951D01*
X2667511Y9610159D01*
X2666469Y9610784D01*
X2665220Y9611825D01*
X2663762Y9613283D01*
X2661887Y9614950D01*
X2660221Y9617032D01*
X2658346Y9619532D01*
X2656889Y9622239D01*
X2656680Y9622656D01*
X2656264Y9623697D01*
X2655639Y9625364D01*
X2655014Y9627446D01*
X2654389Y9630362D01*
X2653764Y9633486D01*
X2653348Y9637235D01*
X2653139Y9641401D01*
Y9643276D01*
X2653348Y9645567D01*
X2653764Y9648274D01*
X2654181Y9651190D01*
X2654806Y9654523D01*
X2655847Y9657647D01*
X2657305Y9660771D01*
X2657513Y9661188D01*
X2658138Y9662021D01*
X2659180Y9663479D01*
X2660429Y9665353D01*
X2662096Y9667436D01*
X2664178Y9669519D01*
X2666469Y9671602D01*
X2669177Y9673476D01*
X2669594Y9673684D01*
X2670427Y9674309D01*
X2672093Y9675142D01*
X2674176Y9676184D01*
X2676675Y9677225D01*
X2679591Y9678475D01*
X2682924Y9679516D01*
X2686464Y9680349D01*
X2686673D01*
X2686881D01*
X2688131Y9680766D01*
X2690213Y9680974D01*
X2692921Y9681391D01*
X2696045Y9681807D01*
X2699586Y9682016D01*
X2703335Y9682432D01*
X2707501D01*
X2707709D01*
X2708125D01*
X2708750D01*
X2709583D01*
X2711874D01*
X2714999Y9682224D01*
D02*
G37*
G36*
X2787897Y9568503D02*
X2709583D01*
X2711250Y9568711D01*
X2713124D01*
X2715415Y9568920D01*
X2717706Y9569128D01*
X2722913Y9569753D01*
X2728537Y9570586D01*
X2734369Y9571627D01*
X2740201Y9573294D01*
X2740409D01*
X2740825Y9573502D01*
X2741658Y9573710D01*
X2742700Y9574127D01*
X2743950Y9574751D01*
X2745616Y9575376D01*
X2749157Y9576834D01*
X2753114Y9578917D01*
X2757488Y9581208D01*
X2761653Y9584124D01*
X2765819Y9587457D01*
X2766027Y9587665D01*
X2766236Y9587873D01*
X2766860Y9588498D01*
X2767485Y9589123D01*
X2769568Y9591206D01*
X2771859Y9593913D01*
X2774358Y9597454D01*
X2777066Y9601411D01*
X2779774Y9605993D01*
X2782065Y9610992D01*
Y9611200D01*
X2782273Y9611617D01*
X2782690Y9612450D01*
X2782898Y9613492D01*
X2783523Y9614741D01*
X2783939Y9616407D01*
X2784356Y9618282D01*
X2784981Y9620365D01*
X2785606Y9622656D01*
X2786022Y9625155D01*
X2787064Y9630571D01*
X2787688Y9636819D01*
X2787897Y9643484D01*
Y9568503D01*
D02*
G37*
G36*
X2738534Y9518099D02*
X2740409Y9517891D01*
X2742492Y9517683D01*
X2744574Y9517058D01*
X2746865Y9516433D01*
X2748948Y9515392D01*
X2749157Y9515183D01*
X2749781Y9514975D01*
X2750823Y9514350D01*
X2752072Y9513517D01*
X2754572Y9511226D01*
X2755822Y9509768D01*
X2756863Y9508310D01*
X2757071Y9508102D01*
X2757279Y9507685D01*
X2757696Y9506644D01*
X2758113Y9505603D01*
X2758737Y9504353D01*
X2759154Y9502687D01*
X2759987Y9499354D01*
Y9499146D01*
X2760195Y9498521D01*
Y9497688D01*
X2760404Y9496438D01*
X2760612Y9494980D01*
Y9493522D01*
X2760820Y9489982D01*
Y9476652D01*
X2708125D01*
Y9491856D01*
X2708334Y9493314D01*
Y9495189D01*
X2708542Y9497063D01*
X2708959Y9499146D01*
X2709375Y9501437D01*
X2710000Y9503311D01*
Y9503520D01*
X2710416Y9504145D01*
X2710833Y9504978D01*
X2711458Y9506227D01*
X2713332Y9508935D01*
X2715623Y9511434D01*
X2715832Y9511643D01*
X2716248Y9512059D01*
X2717081Y9512684D01*
X2718123Y9513309D01*
X2719373Y9514142D01*
X2720830Y9514975D01*
X2724371Y9516433D01*
X2724580D01*
X2725204Y9516641D01*
X2726246Y9517058D01*
X2727704Y9517474D01*
X2729370Y9517683D01*
X2731244Y9518099D01*
X2735618Y9518308D01*
X2736035D01*
X2737076D01*
X2738534Y9518099D01*
D02*
G37*
G36*
X2785189Y9444993D02*
X2774567D01*
X2775608Y9445201D01*
X2776858Y9445410D01*
X2779774Y9446243D01*
X2781023Y9446868D01*
X2782273Y9447909D01*
X2782481Y9448117D01*
X2782690Y9448534D01*
X2783106Y9449159D01*
X2783731Y9449992D01*
X2784356Y9451033D01*
X2784772Y9452491D01*
X2784981Y9453949D01*
X2785189Y9455615D01*
Y9444993D01*
D02*
G37*
%LPC*%
G36*
X2781231Y12034740D02*
X2629187D01*
Y11906648D01*
D01*
Y11918103D01*
X2629395Y11915812D01*
X2629603Y11913521D01*
Y11913104D01*
X2629812Y11912063D01*
X2630020Y11910605D01*
X2630436Y11909147D01*
X2630645Y11908939D01*
X2630853Y11908314D01*
X2631478Y11907689D01*
X2632103Y11907064D01*
X2632311D01*
X2632728Y11906856D01*
X2634185Y11906648D01*
X2785605D01*
X2774566D01*
X2775608Y11906856D01*
X2776857Y11907064D01*
X2778315Y11907481D01*
X2779773Y11907897D01*
X2781023Y11908730D01*
X2782273Y11909772D01*
X2782481Y11909980D01*
X2782689Y11910397D01*
X2783106Y11911021D01*
X2783731Y11912063D01*
X2784355Y11913312D01*
X2784772Y11914562D01*
X2784980Y11916228D01*
X2785188Y11917895D01*
Y11937681D01*
X2784772Y11940181D01*
X2784355Y11942680D01*
Y11942888D01*
X2784147Y11943305D01*
X2783731Y11944554D01*
X2782897Y11946429D01*
X2781648Y11948304D01*
Y11948512D01*
X2781439Y11948720D01*
X2780398Y11949761D01*
X2778940Y11951219D01*
X2776649Y11952886D01*
X2776441Y11953094D01*
X2776024Y11953302D01*
X2775399Y11953719D01*
X2774566Y11954344D01*
X2773317Y11954968D01*
X2772067Y11955802D01*
X2768943Y11957260D01*
X2712082Y11987460D01*
X2711874Y11987668D01*
X2711249Y11987877D01*
X2710208Y11988502D01*
X2708958Y11989126D01*
X2707292Y11989960D01*
X2705626Y11990793D01*
X2701876Y11992667D01*
X2701668Y11992875D01*
X2701043Y11993084D01*
X2700002Y11993500D01*
X2698961Y11994125D01*
X2697294Y11994958D01*
X2695836Y11995791D01*
X2692087Y11997458D01*
X2691879Y11997666D01*
X2691254Y11997874D01*
X2690213Y11998291D01*
X2688963Y11998916D01*
X2687505Y11999749D01*
X2685839Y12000582D01*
X2682298Y12002248D01*
X2682090Y12002456D01*
X2681465Y12002665D01*
X2680632Y12003081D01*
X2679382Y12003706D01*
X2677924Y12004331D01*
X2676258Y12005164D01*
X2672717Y12006622D01*
Y12006830D01*
X2673134D01*
X2674175D01*
X2675841Y12006622D01*
X2677924D01*
X2680632Y12006414D01*
X2683548D01*
X2686672Y12006205D01*
X2690005D01*
X2690213D01*
X2690421D01*
X2691671D01*
X2693337D01*
X2695628D01*
X2698336D01*
X2701252D01*
X2707500D01*
X2780398D01*
X2780606D01*
X2781231D01*
X2781856Y12006414D01*
X2782481Y12006830D01*
X2782689Y12007038D01*
X2783106Y12007455D01*
X2783731Y12008080D01*
X2784147Y12009121D01*
X2784355Y12009538D01*
X2784564Y12010371D01*
X2784980Y12011829D01*
X2785188Y12013703D01*
Y12014120D01*
X2785397Y12014745D01*
Y12015578D01*
X2785605Y12017869D01*
Y12023284D01*
X2785397Y12025367D01*
X2785188Y12027658D01*
Y12028075D01*
X2784980Y12029116D01*
X2784772Y12030574D01*
X2784147Y12031824D01*
X2783939Y12032032D01*
X2783731Y12032657D01*
X2783106Y12033490D01*
X2782481Y12034115D01*
X2782273Y12034323D01*
X2781856Y12034531D01*
X2781231Y12034740D01*
D02*
G37*
G36*
X2785813Y11886444D02*
X2629187D01*
Y11743773D01*
D01*
Y11754603D01*
X2629395Y11751687D01*
Y11750229D01*
X2629603Y11748980D01*
Y11748563D01*
X2629812Y11747313D01*
X2630228Y11745855D01*
X2631061Y11744606D01*
X2631270Y11744397D01*
X2632103Y11744189D01*
X2633352Y11743773D01*
X2635435D01*
X2636060Y11743981D01*
X2636893Y11744189D01*
X2638976Y11744814D01*
X2641892Y11745647D01*
X2779565Y11793551D01*
X2779981Y11793760D01*
X2780606Y11793968D01*
X2781648Y11794385D01*
X2782689Y11795009D01*
X2782897Y11795218D01*
X2783314Y11795843D01*
X2783939Y11796676D01*
X2784564Y11798134D01*
Y11798342D01*
X2784772Y11798550D01*
X2784980Y11799800D01*
X2785397Y11801466D01*
X2785605Y11803965D01*
Y11805423D01*
X2785813Y11806673D01*
Y11821669D01*
X2785605Y11823544D01*
Y11826668D01*
X2785397Y11827501D01*
X2785188Y11829792D01*
X2784564Y11831667D01*
Y11831875D01*
X2784355Y11832083D01*
X2784147Y11833125D01*
X2783522Y11834166D01*
X2782689Y11834999D01*
X2782481Y11835207D01*
X2781856Y11835624D01*
X2780606Y11836249D01*
X2779148Y11836874D01*
X2641475Y11884778D01*
X2641267D01*
X2640850Y11884986D01*
X2640017Y11885195D01*
X2638976Y11885611D01*
X2636893Y11886028D01*
X2634602Y11886444D01*
X2785813D01*
D02*
G37*
G36*
X2787688Y11735025D02*
X2649806D01*
X2648140Y11734817D01*
X2647724D01*
X2646891Y11734608D01*
X2645849Y11734400D01*
X2644599Y11734192D01*
X2644391D01*
X2643766Y11733983D01*
X2642100Y11733150D01*
X2641892D01*
X2641475Y11732734D01*
X2640642Y11732109D01*
X2639601Y11731276D01*
X2639392Y11731067D01*
X2638559Y11730234D01*
X2637310Y11728568D01*
X2636685Y11727527D01*
X2635852Y11726277D01*
Y11726069D01*
X2635435Y11725652D01*
X2635019Y11724819D01*
X2634602Y11723778D01*
X2633977Y11722320D01*
X2633144Y11720653D01*
X2632519Y11718987D01*
X2631686Y11716904D01*
Y11716696D01*
X2631478Y11715863D01*
X2631061Y11714822D01*
X2630645Y11713364D01*
X2630020Y11711489D01*
X2629603Y11709406D01*
X2628978Y11706907D01*
X2628562Y11704408D01*
Y11704199D01*
X2628354Y11703158D01*
X2628145Y11701908D01*
X2627937Y11700034D01*
X2627729Y11697743D01*
X2627521Y11695243D01*
X2627312Y11692327D01*
Y11735025D01*
D01*
Y11620263D01*
D01*
Y11686704D01*
X2627521Y11685246D01*
Y11683580D01*
X2627937Y11679831D01*
X2628562Y11675248D01*
X2629395Y11670458D01*
X2630436Y11665459D01*
X2632103Y11660461D01*
Y11660252D01*
X2632311Y11659836D01*
X2632728Y11659211D01*
X2633144Y11658378D01*
X2634185Y11655878D01*
X2635852Y11652962D01*
X2637935Y11649630D01*
X2640434Y11645881D01*
X2643350Y11642340D01*
X2646891Y11638799D01*
X2647099D01*
X2647307Y11638383D01*
X2647932Y11637966D01*
X2648557Y11637341D01*
X2650848Y11635675D01*
X2653556Y11633801D01*
X2657096Y11631510D01*
X2661262Y11629219D01*
X2666052Y11626927D01*
X2671259Y11625053D01*
X2671468D01*
X2671884Y11624845D01*
X2672717Y11624636D01*
X2673759Y11624220D01*
X2675217Y11624012D01*
X2676883Y11623595D01*
X2678757Y11623178D01*
X2681048Y11622762D01*
X2683340Y11622137D01*
X2686047Y11621720D01*
X2691879Y11621096D01*
X2698336Y11620471D01*
X2705417Y11620263D01*
X2708750D01*
X2710416Y11620471D01*
X2712499D01*
X2714790Y11620679D01*
X2717289Y11620887D01*
X2722704Y11621512D01*
X2728536Y11622554D01*
X2734576Y11623803D01*
X2740408Y11625470D01*
X2740617D01*
X2741033Y11625678D01*
X2741866Y11626094D01*
X2742908Y11626511D01*
X2744366Y11626927D01*
X2745824Y11627552D01*
X2749364Y11629219D01*
X2753530Y11631301D01*
X2757904Y11633801D01*
X2762069Y11636717D01*
X2766235Y11640049D01*
X2766443Y11640257D01*
X2766652Y11640466D01*
X2767901Y11641715D01*
X2769984Y11643798D01*
X2772275Y11646506D01*
X2774774Y11649838D01*
X2777482Y11653796D01*
X2779981Y11658169D01*
X2782273Y11662960D01*
Y11663168D01*
X2782481Y11663585D01*
X2782689Y11664210D01*
X2783106Y11665251D01*
X2783522Y11666501D01*
X2783939Y11667959D01*
X2784564Y11669625D01*
X2784980Y11671708D01*
X2786022Y11675873D01*
X2786855Y11680872D01*
X2787480Y11686287D01*
X2787688Y11692119D01*
Y11694410D01*
X2787480Y11696076D01*
Y11697951D01*
X2787271Y11700034D01*
X2786438Y11704616D01*
Y11704824D01*
X2786230Y11705657D01*
X2786022Y11706699D01*
X2785813Y11708365D01*
X2785397Y11710031D01*
X2784772Y11711906D01*
X2783731Y11715655D01*
Y11715863D01*
X2783522Y11716488D01*
X2783106Y11717529D01*
X2782689Y11718779D01*
X2781439Y11721695D01*
X2779773Y11724819D01*
Y11725027D01*
X2779357Y11725444D01*
X2778940Y11726277D01*
X2778524Y11727110D01*
X2777066Y11728985D01*
X2776441Y11730026D01*
X2775816Y11730651D01*
X2775608Y11730859D01*
X2774983Y11731484D01*
X2774150Y11732317D01*
X2773108Y11732734D01*
X2772900Y11732942D01*
X2772483Y11733150D01*
X2771442Y11733359D01*
X2770401Y11733775D01*
X2770192D01*
X2769359Y11733983D01*
X2768110Y11734192D01*
X2766443Y11734400D01*
X2766027D01*
X2764985Y11734608D01*
X2763111D01*
X2760820D01*
X2760611D01*
X2760195D01*
X2759570D01*
X2758737D01*
X2756654Y11734400D01*
X2754571Y11734192D01*
X2754155D01*
X2753113Y11733983D01*
X2751864Y11733775D01*
X2750406Y11733359D01*
X2750197D01*
X2749573Y11732942D01*
X2748948Y11732525D01*
X2748323Y11731901D01*
Y11731692D01*
X2748115Y11731276D01*
X2747906Y11730859D01*
X2747698Y11730026D01*
Y11729818D01*
X2747906Y11728776D01*
X2748531Y11727318D01*
X2749781Y11725444D01*
Y11725236D01*
X2750197Y11725027D01*
X2750614Y11724403D01*
X2751239Y11723569D01*
X2752697Y11721278D01*
X2754363Y11718362D01*
X2754571Y11718154D01*
X2754780Y11717529D01*
X2755196Y11716696D01*
X2755821Y11715446D01*
X2756654Y11713989D01*
X2757279Y11712114D01*
X2758112Y11710239D01*
X2758945Y11707948D01*
X2759153Y11707740D01*
X2759362Y11706907D01*
X2759778Y11705657D01*
X2760195Y11703991D01*
X2760611Y11701700D01*
X2760820Y11699409D01*
X2761236Y11696493D01*
Y11691911D01*
X2761028Y11690245D01*
X2760820Y11687954D01*
X2760195Y11685454D01*
X2759570Y11682538D01*
X2758529Y11679831D01*
X2757279Y11676915D01*
X2757071Y11676706D01*
X2756654Y11675665D01*
X2755821Y11674415D01*
X2754571Y11672749D01*
X2752905Y11670875D01*
X2751239Y11668792D01*
X2748948Y11666709D01*
X2746448Y11664626D01*
X2746240Y11664418D01*
X2745199Y11663793D01*
X2743741Y11662960D01*
X2741866Y11661710D01*
X2739367Y11660461D01*
X2736451Y11659211D01*
X2733118Y11657961D01*
X2729578Y11656920D01*
X2729369D01*
X2729161D01*
X2728536Y11656712D01*
X2727911Y11656503D01*
X2725829Y11656087D01*
X2723121Y11655670D01*
X2719789Y11655254D01*
X2715831Y11654837D01*
X2711666Y11654629D01*
X2707083Y11654420D01*
X2706875D01*
X2706459D01*
X2705834D01*
X2704792D01*
X2703543D01*
X2702293Y11654629D01*
X2698961Y11654837D01*
X2695212Y11655045D01*
X2691254Y11655670D01*
X2687089Y11656295D01*
X2683131Y11657128D01*
X2682923D01*
X2682715Y11657336D01*
X2681465Y11657753D01*
X2679591Y11658378D01*
X2677299Y11659211D01*
X2674800Y11660461D01*
X2671884Y11661710D01*
X2669177Y11663376D01*
X2666677Y11665251D01*
X2666469Y11665459D01*
X2665636Y11666084D01*
X2664386Y11667334D01*
X2663136Y11668792D01*
X2661470Y11670666D01*
X2660012Y11672749D01*
X2658346Y11675040D01*
X2657096Y11677748D01*
X2656888Y11678164D01*
X2656680Y11678997D01*
X2656055Y11680455D01*
X2655638Y11682538D01*
X2655013Y11685038D01*
X2654389Y11687954D01*
X2654180Y11691078D01*
X2653972Y11694410D01*
Y11695868D01*
X2654180Y11697326D01*
Y11699409D01*
X2654389Y11701492D01*
X2654805Y11703991D01*
X2655222Y11706490D01*
X2655847Y11708782D01*
Y11708990D01*
X2656263Y11709823D01*
X2656680Y11710864D01*
X2657096Y11712322D01*
X2658554Y11715655D01*
X2660220Y11719196D01*
X2660429Y11719404D01*
X2660637Y11720029D01*
X2661054Y11720653D01*
X2661678Y11721695D01*
X2663136Y11723986D01*
X2664594Y11726277D01*
Y11726485D01*
X2665011Y11726694D01*
X2665636Y11727943D01*
X2666261Y11729401D01*
X2666677Y11730859D01*
Y11731484D01*
X2666469Y11732109D01*
X2666052Y11732734D01*
Y11732942D01*
X2665636Y11733150D01*
X2665011Y11733567D01*
X2664178Y11733983D01*
X2663970D01*
X2663136Y11734192D01*
X2661887Y11734400D01*
X2660012Y11734608D01*
X2659804D01*
X2659596D01*
X2658971Y11734817D01*
X2658346D01*
X2656055Y11735025D01*
X2787688D01*
D02*
G37*
%LPD*%
G36*
X2639184Y12034531D02*
X2637518Y12034323D01*
X2635852Y12033698D01*
X2635435Y12033490D01*
X2634602Y12033073D01*
X2633561Y12032032D01*
X2632311Y12030991D01*
X2632103Y12030782D01*
X2631478Y12029949D01*
X2630853Y12028700D01*
X2630228Y12027242D01*
Y12026825D01*
X2630020Y12025784D01*
X2629812Y12024326D01*
X2629603Y12022659D01*
Y12007872D01*
X2629812Y12006830D01*
X2630020Y12004331D01*
X2630436Y12001831D01*
Y12001623D01*
X2630645Y12001415D01*
X2631061Y11999957D01*
X2632103Y11998291D01*
X2633352Y11996208D01*
X2633561Y11996000D01*
X2633769Y11995791D01*
X2635019Y11994750D01*
X2636893Y11993084D01*
X2639392Y11991209D01*
X2639601D01*
X2640017Y11990793D01*
X2640850Y11990376D01*
X2642100Y11989751D01*
X2643350Y11988918D01*
X2645016Y11988085D01*
X2647099Y11987044D01*
X2649182Y11986002D01*
X2721663Y11947470D01*
X2721871Y11947262D01*
X2722913Y11946846D01*
X2724162Y11946221D01*
X2726037Y11945388D01*
X2728120Y11944346D01*
X2730411Y11943097D01*
X2733118Y11941847D01*
X2735826Y11940597D01*
X2736243Y11940389D01*
X2737076Y11939972D01*
X2738534Y11939347D01*
X2740408Y11938514D01*
X2742699Y11937681D01*
X2745199Y11936640D01*
X2750406Y11934557D01*
Y11934140D01*
X2749989D01*
X2748948Y11934349D01*
X2747282D01*
X2744990Y11934557D01*
X2742283D01*
X2739367Y11934765D01*
X2733118Y11934974D01*
X2732702D01*
X2731661D01*
X2729994D01*
X2727703Y11935182D01*
X2724996D01*
X2722080D01*
X2718747D01*
X2715415D01*
X2634185D01*
X2633977D01*
X2633561D01*
X2632936Y11934765D01*
X2632103Y11934349D01*
X2631894Y11934140D01*
X2631478Y11933932D01*
X2631061Y11933099D01*
X2630436Y11932058D01*
Y11931849D01*
X2630020Y11931016D01*
X2629812Y11929558D01*
X2629603Y11927684D01*
Y11927267D01*
X2629395Y11926642D01*
Y11925809D01*
X2629187Y11923518D01*
Y12034740D01*
X2640434D01*
X2639184Y12034531D01*
D02*
G37*
G36*
X2631894Y11886236D02*
X2630853Y11885611D01*
X2630645Y11885403D01*
X2630228Y11884570D01*
X2629812Y11883112D01*
Y11882070D01*
X2629603Y11880821D01*
Y11880196D01*
X2629395Y11879363D01*
Y11877072D01*
X2629187Y11875614D01*
Y11886444D01*
X2633144D01*
X2631894Y11886236D01*
D02*
G37*
G36*
X2755404Y11813546D02*
Y11813338D01*
X2689380Y11791469D01*
Y11835416D01*
X2755404Y11813546D01*
D02*
G37*
G36*
X2629395Y11863534D02*
Y11861451D01*
X2629603Y11860201D01*
X2629812Y11858535D01*
X2630020Y11856869D01*
Y11856660D01*
X2630436Y11856035D01*
X2630853Y11855202D01*
X2631478Y11854369D01*
X2631686D01*
X2632103Y11853953D01*
X2632936Y11853536D01*
X2633977Y11853120D01*
X2665219Y11842914D01*
Y11784387D01*
X2634810Y11774598D01*
X2634602D01*
X2633769Y11774390D01*
X2632936Y11773973D01*
X2631894Y11773348D01*
X2631686Y11773140D01*
X2631270Y11772723D01*
X2630853Y11772099D01*
X2630228Y11770849D01*
Y11770641D01*
X2630020Y11769599D01*
X2629812Y11768141D01*
X2629603Y11765850D01*
Y11765225D01*
X2629395Y11764601D01*
Y11762518D01*
X2629187Y11761060D01*
Y11864992D01*
X2629395Y11863534D01*
D02*
G37*
D58*
X2837500Y11030000D02*
G03*
X2837500Y11030000I-12500J0D01*
G01*
X8645000Y9857500D02*
G03*
X8645000Y9857500I-12500J0D01*
G01*
X6692500Y10500000D02*
G03*
X6692500Y10500000I-12500J0D01*
G01*
X3433000Y11430182D02*
G03*
X3433000Y11430182I-12500J0D01*
G01*
X5137500Y10305000D02*
G03*
X5137500Y10305000I-12500J0D01*
G01*
D59*
X5125000Y11625000D02*
G03*
X5125000Y11615000I0J-5000D01*
G01*
D02*
G03*
X5125000Y11625000I0J5000D01*
G01*
X8150000Y11710000D02*
G03*
X8150000Y11700000I0J-5000D01*
G01*
D02*
G03*
X8150000Y11710000I0J5000D01*
G01*
X6500000Y11935000D02*
X6690000D01*
X4810000D02*
X5000000D01*
X4810000Y12685000D02*
X6690000D01*
D61*
X7325000Y11550000D02*
X7750000D01*
X7325000Y11750000D02*
X7750000D01*
Y11550000D02*
Y11750000D01*
X7325000Y11550000D02*
Y11750000D01*
X5740400Y9245600D02*
X5969000D01*
X5740400Y9829800D02*
X5969000D01*
Y9245600D02*
Y9829800D01*
X5740400Y9245600D02*
Y9829800D01*
X7325000Y11350000D02*
X7750000D01*
X7325000Y11550000D02*
X7750000D01*
Y11350000D02*
Y11550000D01*
X7325000Y11350000D02*
Y11550000D01*
X6223000Y9245600D02*
X6477000D01*
X6223000Y9829800D02*
X6477000D01*
Y9245600D02*
Y9829800D01*
X6223000Y9245600D02*
Y9829800D01*
X6477000Y9245600D02*
X6731000D01*
X6477000Y9829800D02*
X6731000D01*
Y9245600D02*
Y9829800D01*
X6477000Y9245600D02*
Y9829800D01*
X7325000Y11150000D02*
X7750000D01*
X7325000Y11350000D02*
X7750000D01*
Y11150000D02*
Y11350000D01*
X7325000Y11150000D02*
Y11350000D01*
X5969000Y9245600D02*
X6223000D01*
X5969000Y9829800D02*
X6223000D01*
Y9245600D02*
Y9829800D01*
X5969000Y9245600D02*
Y9829800D01*
X7100000Y11950000D02*
X7125000D01*
X6872999Y11949000D02*
Y12711000D01*
X7126999D01*
Y11949000D02*
Y12711000D01*
X6872999Y11949000D02*
X7126999D01*
X7125000Y11950000D02*
X7325000Y11750000D01*
X6597500Y11440000D02*
Y11460000D01*
X6482500Y11440000D02*
Y11460000D01*
X7832911Y10097089D02*
Y10382911D01*
X7647089Y10097089D02*
Y10382911D01*
X2925000Y10400000D02*
Y10565000D01*
Y10715000D02*
Y10880000D01*
X2455000D02*
X2567500D01*
X2912500D02*
X2925000D01*
X2455000Y10400000D02*
Y10880000D01*
Y10400000D02*
X2567500D01*
X2912500D02*
X2925000D01*
X7845000Y10050000D02*
Y10500000D01*
X8705000Y10050000D02*
Y10500000D01*
X6810000Y9867500D02*
Y10090000D01*
Y9410000D02*
Y9632500D01*
X7390000Y9410000D02*
X7490000Y9510000D01*
X7390000Y10090000D02*
X7490000Y9990000D01*
X6810000Y10090000D02*
X7390000D01*
X7490000Y9870000D02*
Y9990000D01*
Y9510000D02*
Y9630000D01*
X6810000Y9410000D02*
X7390000D01*
X6810000Y10617500D02*
Y10840000D01*
Y10160000D02*
Y10382500D01*
X7390000Y10160000D02*
X7490000Y10260000D01*
X7390000Y10840000D02*
X7490000Y10740000D01*
X6810000Y10840000D02*
X7390000D01*
X7490000Y10620000D02*
Y10740000D01*
Y10260000D02*
Y10380000D01*
X6810000Y10160000D02*
X7390000D01*
X3475250Y11782098D02*
Y11917902D01*
X2984750D02*
X3475250D01*
X2984750Y11782098D02*
Y11917902D01*
Y11782098D02*
X3475250D01*
X5144190Y11417190D02*
X5435810D01*
X5144190Y11642810D02*
X5435810D01*
X6387189Y10354190D02*
Y10645810D01*
X6612809Y10354190D02*
Y10645810D01*
X5225000Y11225000D02*
X6175000D01*
X5225000Y10275000D02*
X6175000D01*
Y11225000D01*
X5225000Y10275000D02*
Y11225000D01*
X6054190Y11662810D02*
X6345810D01*
X6054190Y11437190D02*
X6345810D01*
X8629690Y10672190D02*
X8960310D01*
X8629690Y10907810D02*
X8960310D01*
X8550000Y12680000D02*
Y13200000D01*
X8000000D02*
X8550000D01*
X8000000Y12680000D02*
Y13200000D01*
X8709500Y10990000D02*
X8930500D01*
X8709500Y11190000D02*
X8930500D01*
X2597390Y11263410D02*
X2889010D01*
X2597390Y11037790D02*
X2889010D01*
X3109500Y11460000D02*
X3330500D01*
X3109500Y11260000D02*
X3330500D01*
X4874190Y9767190D02*
X5165810D01*
X4874190Y9992810D02*
X5165810D01*
X5450000Y9817500D02*
X5470000D01*
X5450000Y9942500D02*
X5470000D01*
X7790000Y10619500D02*
Y10840500D01*
X7590000Y10619500D02*
Y10840500D01*
X8502500Y9680000D02*
Y9700000D01*
X8617500Y9680000D02*
Y9700000D01*
X8937810Y10129190D02*
Y10420810D01*
X8712190Y10129190D02*
Y10420810D01*
X4862810Y10064190D02*
Y10355810D01*
X4637190Y10064190D02*
Y10355810D01*
X7634639Y11692320D02*
X7655799Y11713479D01*
X7698119D01*
X7719279Y11692320D01*
Y11607680D01*
X7698119Y11586521D01*
X7655799D01*
X7634639Y11607680D01*
Y11650000D01*
X7676959D01*
X7592320Y11586521D02*
Y11713479D01*
X7507680Y11586521D01*
Y11713479D01*
X7465361D02*
Y11586521D01*
X7401882D01*
X7380722Y11607680D01*
Y11692320D01*
X7401882Y11713479D01*
X7465361D01*
X7655799Y11186521D02*
Y11313480D01*
X7592320D01*
X7571160Y11292320D01*
Y11250000D01*
X7592320Y11228840D01*
X7655799D01*
X7613480D02*
X7571160Y11186521D01*
X7528840Y11271160D02*
X7444201Y11186521D01*
X7486521Y11228840D01*
X7444201Y11271160D01*
X7528840Y11186521D01*
X7655799Y11513480D02*
X7571160D01*
X7613480D01*
Y11386521D01*
X7528840Y11471160D02*
X7444201Y11386521D01*
X7486521Y11428840D01*
X7444201Y11471160D01*
X7528840Y11386521D01*
X7995185Y10704985D02*
X8016345Y10683825D01*
Y10641505D01*
X7995185Y10620345D01*
X7910546D01*
X7889386Y10641505D01*
Y10683825D01*
X7910546Y10704985D01*
X7889386Y10831944D02*
Y10747304D01*
X7974026Y10831944D01*
X7995185D01*
X8016345Y10810784D01*
Y10768464D01*
X7995185Y10747304D01*
Y10874263D02*
X8016345Y10895423D01*
Y10937742D01*
X7995185Y10958902D01*
X7910546D01*
X7889386Y10937742D01*
Y10895423D01*
X7910546Y10874263D01*
X7995185D01*
X3334059Y11192320D02*
X3355219Y11213479D01*
X3397539D01*
X3418699Y11192320D01*
Y11107680D01*
X3397539Y11086521D01*
X3355219D01*
X3334059Y11107680D01*
X3291740Y11086521D02*
X3249420D01*
X3270580D01*
Y11213479D01*
X3291740Y11192320D01*
X3185941Y11213479D02*
X3101301D01*
Y11192320D01*
X3185941Y11107680D01*
Y11086521D01*
X7815799Y9906521D02*
Y10033480D01*
X7752320D01*
X7731160Y10012320D01*
Y9970000D01*
X7752320Y9948840D01*
X7815799D01*
X7773479D02*
X7731160Y9906521D01*
X7625361D02*
Y10033480D01*
X7688840Y9970000D01*
X7604201D01*
X8954059Y11352320D02*
X8975219Y11373479D01*
X9017539D01*
X9038699Y11352320D01*
Y11267680D01*
X9017539Y11246521D01*
X8975219D01*
X8954059Y11267680D01*
X8911740Y11246521D02*
X8869420D01*
X8890580D01*
Y11373479D01*
X8911740Y11352320D01*
X8805941D02*
X8784781Y11373479D01*
X8742461D01*
X8721301Y11352320D01*
Y11331160D01*
X8742461Y11310000D01*
X8721301Y11288840D01*
Y11267680D01*
X8742461Y11246521D01*
X8784781D01*
X8805941Y11267680D01*
Y11288840D01*
X8784781Y11310000D01*
X8805941Y11331160D01*
Y11352320D01*
X8784781Y11310000D02*
X8742461D01*
X7141160Y9332320D02*
X7162320Y9353479D01*
X7204639D01*
X7225799Y9332320D01*
Y9247680D01*
X7204639Y9226521D01*
X7162320D01*
X7141160Y9247680D01*
X7035361Y9226521D02*
Y9353479D01*
X7098840Y9290000D01*
X7014201D01*
X6861160Y10972320D02*
X6882320Y10993479D01*
X6924639D01*
X6945799Y10972320D01*
Y10887680D01*
X6924639Y10866521D01*
X6882320D01*
X6861160Y10887680D01*
X6818840Y10972320D02*
X6797681Y10993479D01*
X6755361D01*
X6734201Y10972320D01*
Y10951160D01*
X6755361Y10930000D01*
X6776521D01*
X6755361D01*
X6734201Y10908840D01*
Y10887680D01*
X6755361Y10866521D01*
X6797681D01*
X6818840Y10887680D01*
X3285799Y12413479D02*
Y12307680D01*
X3264639Y12286520D01*
X3222320D01*
X3201160Y12307680D01*
Y12413479D01*
X3095361Y12286520D02*
Y12413479D01*
X3158840Y12350000D01*
X3074201D01*
X8833479Y9824201D02*
X8727680D01*
X8706521Y9845361D01*
Y9887680D01*
X8727680Y9908840D01*
X8833479D01*
X8812320Y9951160D02*
X8833479Y9972319D01*
Y10014639D01*
X8812320Y10035799D01*
X8791160D01*
X8770000Y10014639D01*
Y9993479D01*
Y10014639D01*
X8748840Y10035799D01*
X8727680D01*
X8706521Y10014639D01*
Y9972319D01*
X8727680Y9951160D01*
X5154639Y10223479D02*
Y10117680D01*
X5133479Y10096521D01*
X5091160D01*
X5070000Y10117680D01*
Y10223479D01*
X5027680Y10096521D02*
X4985361D01*
X5006521D01*
Y10223479D01*
X5027680Y10202320D01*
X3092320Y10596521D02*
X3113479Y10575361D01*
Y10533041D01*
X3092320Y10511881D01*
X3071160D01*
X3050000Y10533041D01*
Y10575361D01*
X3028840Y10596521D01*
X3007680D01*
X2986521Y10575361D01*
Y10533041D01*
X3007680Y10511881D01*
X3113479Y10638840D02*
X2986521D01*
X3028840Y10681160D01*
X2986521Y10723480D01*
X3113479D01*
X2986521Y10765799D02*
Y10808119D01*
Y10786959D01*
X3113479D01*
X3092320Y10765799D01*
X5545799Y9646520D02*
Y9773479D01*
X5482320D01*
X5461160Y9752320D01*
Y9710000D01*
X5482320Y9688840D01*
X5545799D01*
X5503479D02*
X5461160Y9646520D01*
X5334201Y9773479D02*
X5376521Y9752320D01*
X5418840Y9710000D01*
Y9667680D01*
X5397681Y9646520D01*
X5355361D01*
X5334201Y9667680D01*
Y9688840D01*
X5355361Y9710000D01*
X5418840D01*
X8675799Y9356521D02*
Y9483479D01*
X8612320D01*
X8591160Y9462320D01*
Y9420000D01*
X8612320Y9398840D01*
X8675799D01*
X8633479D02*
X8591160Y9356521D01*
X8464201Y9483479D02*
X8548840D01*
Y9420000D01*
X8506520Y9441160D01*
X8485361D01*
X8464201Y9420000D01*
Y9377680D01*
X8485361Y9356521D01*
X8527680D01*
X8548840Y9377680D01*
X6726686Y11325958D02*
X6853645D01*
Y11389437D01*
X6832485Y11410597D01*
X6790165D01*
X6769006Y11389437D01*
Y11325958D01*
Y11368277D02*
X6726686Y11410597D01*
Y11452916D02*
Y11495236D01*
Y11474076D01*
X6853645D01*
X6832485Y11452916D01*
X4884639Y11372320D02*
X4905799Y11393479D01*
X4948119D01*
X4969279Y11372320D01*
Y11287680D01*
X4948119Y11266521D01*
X4905799D01*
X4884639Y11287680D01*
X4757680Y11266521D02*
X4842320D01*
X4757680Y11351160D01*
Y11372320D01*
X4778840Y11393479D01*
X4821160D01*
X4842320Y11372320D01*
X4630721Y11393479D02*
X4673041Y11372320D01*
X4715361Y11330000D01*
Y11287680D01*
X4694201Y11266521D01*
X4651881D01*
X4630721Y11287680D01*
Y11308840D01*
X4651881Y11330000D01*
X4715361D01*
X5924639Y11582320D02*
X5945799Y11603479D01*
X5988119D01*
X6009279Y11582320D01*
Y11497680D01*
X5988119Y11476521D01*
X5945799D01*
X5924639Y11497680D01*
X5797680Y11476521D02*
X5882320D01*
X5797680Y11561160D01*
Y11582320D01*
X5818840Y11603479D01*
X5861160D01*
X5882320Y11582320D01*
X5670721Y11603479D02*
X5755361D01*
Y11540000D01*
X5713041Y11561160D01*
X5691881D01*
X5670721Y11540000D01*
Y11497680D01*
X5691881Y11476521D01*
X5734201D01*
X5755361Y11497680D01*
X5044639Y11562320D02*
X5065799Y11583479D01*
X5108119D01*
X5129279Y11562320D01*
Y11477680D01*
X5108119Y11456521D01*
X5065799D01*
X5044639Y11477680D01*
X4917680Y11456521D02*
X5002320D01*
X4917680Y11541160D01*
Y11562320D01*
X4938840Y11583479D01*
X4981160D01*
X5002320Y11562320D01*
X4811881Y11456521D02*
Y11583479D01*
X4875361Y11520000D01*
X4790721D01*
X6542320Y10765361D02*
X6563479Y10744201D01*
Y10701881D01*
X6542320Y10680721D01*
X6457680D01*
X6436521Y10701881D01*
Y10744201D01*
X6457680Y10765361D01*
X6436521Y10892320D02*
Y10807680D01*
X6521160Y10892320D01*
X6542320D01*
X6563479Y10871160D01*
Y10828840D01*
X6542320Y10807680D01*
Y10934639D02*
X6563479Y10955799D01*
Y10998118D01*
X6542320Y11019278D01*
X6521160D01*
X6500000Y10998118D01*
Y10976959D01*
Y10998118D01*
X6478840Y11019278D01*
X6457680D01*
X6436521Y10998118D01*
Y10955799D01*
X6457680Y10934639D01*
X5064639Y9692320D02*
X5085799Y9713479D01*
X5128119D01*
X5149278Y9692320D01*
Y9607680D01*
X5128119Y9586521D01*
X5085799D01*
X5064639Y9607680D01*
X4937680Y9586521D02*
X5022320D01*
X4937680Y9671160D01*
Y9692320D01*
X4958840Y9713479D01*
X5001160D01*
X5022320Y9692320D01*
X4810721Y9586521D02*
X4895361D01*
X4810721Y9671160D01*
Y9692320D01*
X4831881Y9713479D01*
X4874201D01*
X4895361Y9692320D01*
X4572320Y10136521D02*
X4593480Y10115361D01*
Y10073041D01*
X4572320Y10051881D01*
X4487680D01*
X4466521Y10073041D01*
Y10115361D01*
X4487680Y10136521D01*
X4466521Y10263480D02*
Y10178840D01*
X4551160Y10263480D01*
X4572320D01*
X4593480Y10242320D01*
Y10200000D01*
X4572320Y10178840D01*
X4466521Y10305799D02*
Y10348119D01*
Y10326959D01*
X4593480D01*
X4572320Y10305799D01*
X3052320Y11025940D02*
X3073480Y11004780D01*
Y10962460D01*
X3052320Y10941301D01*
X2967680D01*
X2946521Y10962460D01*
Y11004780D01*
X2967680Y11025940D01*
X2946521Y11068260D02*
Y11110579D01*
Y11089419D01*
X3073480D01*
X3052320Y11068260D01*
X3073480Y11258698D02*
X3052320Y11216378D01*
X3010000Y11174059D01*
X2967680D01*
X2946521Y11195218D01*
Y11237538D01*
X2967680Y11258698D01*
X2988840D01*
X3010000Y11237538D01*
Y11174059D01*
X8552319Y11265940D02*
X8573479Y11244780D01*
Y11202461D01*
X8552319Y11181301D01*
X8467680D01*
X8446520Y11202461D01*
Y11244780D01*
X8467680Y11265940D01*
X8446520Y11308260D02*
Y11350580D01*
Y11329420D01*
X8573479D01*
X8552319Y11308260D01*
X8573479Y11498698D02*
Y11414059D01*
X8510000D01*
X8531160Y11456379D01*
Y11477538D01*
X8510000Y11498698D01*
X8467680D01*
X8446520Y11477538D01*
Y11435219D01*
X8467680Y11414059D01*
X8964059Y10602320D02*
X8985219Y10623479D01*
X9027539D01*
X9048699Y10602320D01*
Y10517680D01*
X9027539Y10496521D01*
X8985219D01*
X8964059Y10517680D01*
X8921740Y10496521D02*
X8879420D01*
X8900580D01*
Y10623479D01*
X8921740Y10602320D01*
X8752461Y10496521D02*
Y10623479D01*
X8815941Y10560000D01*
X8731301D01*
X9082319Y10175941D02*
X9103479Y10154781D01*
Y10112461D01*
X9082319Y10091301D01*
X8997680D01*
X8976520Y10112461D01*
Y10154781D01*
X8997680Y10175941D01*
X8976520Y10218260D02*
Y10260580D01*
Y10239420D01*
X9103479D01*
X9082319Y10218260D01*
Y10324059D02*
X9103479Y10345219D01*
Y10387539D01*
X9082319Y10408699D01*
X9061160D01*
X9040000Y10387539D01*
Y10366379D01*
Y10387539D01*
X9018840Y10408699D01*
X8997680D01*
X8976520Y10387539D01*
Y10345219D01*
X8997680Y10324059D01*
D62*
X5355000Y10375000D02*
G03*
X5355000Y10375000I-30000J0D01*
G01*
D63*
X5880088Y9462753D02*
X5899132Y9443710D01*
Y9405622D01*
X5880088Y9386578D01*
X5803912D01*
X5784869Y9405622D01*
Y9443710D01*
X5803912Y9462753D01*
X5842000D01*
Y9424666D01*
X5784869Y9500841D02*
X5899132D01*
X5784869Y9577017D01*
X5899132D01*
Y9615104D02*
X5784869D01*
Y9672236D01*
X5803912Y9691280D01*
X5880088D01*
X5899132Y9672236D01*
Y9615104D01*
X6134088Y9348490D02*
X6153132Y9329446D01*
Y9291359D01*
X6134088Y9272315D01*
X6115044D01*
X6096000Y9291359D01*
Y9329446D01*
X6076956Y9348490D01*
X6057912D01*
X6038869Y9329446D01*
Y9291359D01*
X6057912Y9272315D01*
X6153132Y9386578D02*
X6038869D01*
X6076956Y9424666D01*
X6038869Y9462753D01*
X6153132D01*
X6134088Y9577017D02*
X6153132Y9557973D01*
Y9519885D01*
X6134088Y9500841D01*
X6057912D01*
X6038869Y9519885D01*
Y9557973D01*
X6057912Y9577017D01*
X6153132Y9615104D02*
X6038869D01*
Y9691280D01*
X6153132Y9729368D02*
X6038869D01*
X6076956D01*
X6153132Y9805543D01*
X6096000Y9748412D01*
X6038869Y9805543D01*
X6388088Y9358012D02*
X6407132Y9338968D01*
Y9300881D01*
X6388088Y9281837D01*
X6369044D01*
X6350000Y9300881D01*
Y9338968D01*
X6330956Y9358012D01*
X6311912D01*
X6292869Y9338968D01*
Y9300881D01*
X6311912Y9281837D01*
X6407132Y9396100D02*
X6292869D01*
X6330956Y9434188D01*
X6292869Y9472275D01*
X6407132D01*
Y9510363D02*
X6292869D01*
Y9567495D01*
X6311912Y9586539D01*
X6388088D01*
X6407132Y9567495D01*
Y9510363D01*
Y9624626D02*
Y9662714D01*
Y9643670D01*
X6292869D01*
Y9624626D01*
Y9662714D01*
X6407132Y9776977D02*
Y9738890D01*
X6388088Y9719846D01*
X6311912D01*
X6292869Y9738890D01*
Y9776977D01*
X6311912Y9796021D01*
X6388088D01*
X6407132Y9776977D01*
X6642088Y9338968D02*
X6661132Y9358012D01*
Y9396100D01*
X6642088Y9415144D01*
X6623044D01*
X6604000Y9396100D01*
Y9377056D01*
Y9396100D01*
X6584956Y9415144D01*
X6565912D01*
X6546869Y9396100D01*
Y9358012D01*
X6565912Y9338968D01*
X6546869Y9453232D02*
X6565912D01*
Y9472275D01*
X6546869D01*
Y9453232D01*
X6642088Y9548451D02*
X6661132Y9567495D01*
Y9605582D01*
X6642088Y9624626D01*
X6623044D01*
X6604000Y9605582D01*
Y9586539D01*
Y9605582D01*
X6584956Y9624626D01*
X6565912D01*
X6546869Y9605582D01*
Y9567495D01*
X6565912Y9548451D01*
X6661132Y9662714D02*
X6584956D01*
X6546869Y9700802D01*
X6584956Y9738889D01*
X6661132D01*
%TF.MD5,35462fc3935ec6413f681642af199942*%
M02*
