%TF.GenerationSoftware,Altium Limited,Altium Designer,25.4.2 (15)*%
G04 Layer_Color=0*
%FSLAX45Y45*%
%MOMM*%
%TF.SameCoordinates,7A81EC90-EEC5-4681-87D9-92CB7B0FDDE2*%
%TF.FilePolarity,Positive*%
%TF.FileFunction,Plated,1,2,PTH,Drill*%
%TF.Part,Single*%
G01*
G75*
%TA.AperFunction,ComponentDrill*%
%ADD93C,0.90000*%
%ADD94C,0.90000*%
%ADD95C,1.05000*%
%TA.AperFunction,ViaDrill,NotFilled*%
%ADD96C,0.30000*%
%ADD97C,0.35000*%
%ADD98C,3.60000*%
D93*
X6999999Y12076000D02*
D03*
Y12330000D02*
D03*
Y12584000D02*
D03*
D94*
X6608000Y9975000D02*
D03*
X6354000D02*
D03*
X6100000D02*
D03*
X5846000D02*
D03*
D95*
X9290000Y11603000D02*
D03*
Y11857000D02*
D03*
X9280000Y11083000D02*
D03*
Y11337000D02*
D03*
Y10563000D02*
D03*
Y10817000D02*
D03*
X9280000Y10043000D02*
D03*
Y10297000D02*
D03*
D96*
X9449997Y11999996D02*
D03*
Y11399997D02*
D03*
Y10799997D02*
D03*
Y10199997D02*
D03*
X9299997Y9899997D02*
D03*
Y9299997D02*
D03*
X8999997Y11699996D02*
D03*
Y10499997D02*
D03*
X9149997Y10199997D02*
D03*
X8999997Y9899997D02*
D03*
Y9299997D02*
D03*
X8849997Y11999996D02*
D03*
X8699997Y11699996D02*
D03*
X8849997Y11399997D02*
D03*
X8399997Y12299996D02*
D03*
X8549997Y11999996D02*
D03*
Y11399997D02*
D03*
X8099998Y12299996D02*
D03*
X7499998D02*
D03*
X7199998D02*
D03*
X7349998Y11999996D02*
D03*
X7049998Y10799997D02*
D03*
Y10199997D02*
D03*
X6899998Y9899997D02*
D03*
X6599998Y11699996D02*
D03*
X6749998Y10799997D02*
D03*
X6299998Y12299996D02*
D03*
X5999998D02*
D03*
Y9299997D02*
D03*
X5699998Y12299996D02*
D03*
Y10499997D02*
D03*
X5399998Y12299996D02*
D03*
Y9299997D02*
D03*
X5099998Y12299996D02*
D03*
X5249998Y11999996D02*
D03*
X5099998Y9299997D02*
D03*
X4949998Y11999996D02*
D03*
Y11399997D02*
D03*
Y10799997D02*
D03*
Y10199997D02*
D03*
Y9599997D02*
D03*
X4799999Y9299997D02*
D03*
X4499999Y12299996D02*
D03*
X4649999Y11999996D02*
D03*
Y11399997D02*
D03*
X4499999Y9299997D02*
D03*
X4349999Y11999996D02*
D03*
X4199999Y11099997D02*
D03*
Y9899997D02*
D03*
Y9299997D02*
D03*
X3899999Y11099997D02*
D03*
Y9899997D02*
D03*
Y9299997D02*
D03*
X3599999Y12299996D02*
D03*
X3749999Y11999996D02*
D03*
X3599999Y11099997D02*
D03*
X3749999Y10799997D02*
D03*
Y10199997D02*
D03*
X3599999Y9299997D02*
D03*
X3299999Y12299996D02*
D03*
X3449999Y10199997D02*
D03*
Y9599997D02*
D03*
X2999999Y10499997D02*
D03*
Y9899997D02*
D03*
X3149999Y9599997D02*
D03*
X2699999Y12299996D02*
D03*
X2849999Y11999996D02*
D03*
X2699999Y11699996D02*
D03*
X2849999Y11399997D02*
D03*
X2699999Y10499997D02*
D03*
Y9899997D02*
D03*
Y9299997D02*
D03*
X3700000Y11640000D02*
D03*
Y11750000D02*
D03*
X3260000Y11840000D02*
D03*
X3200000Y11920000D02*
D03*
X3210000Y11480000D02*
D03*
X3230000Y10810000D02*
D03*
X5550000Y10770000D02*
D03*
X5010000Y10910000D02*
D03*
X5580000Y12072900D02*
D03*
X7710000Y10930000D02*
D03*
X5900000Y9564950D02*
D03*
X5830000Y9450000D02*
D03*
X5700000Y9300000D02*
D03*
X5760000Y9380000D02*
D03*
X6271255Y9883956D02*
D03*
X6402100Y9852400D02*
D03*
X6169535Y10444922D02*
D03*
X6485941Y10295941D02*
D03*
X5960000Y10320000D02*
D03*
X5240000Y11390000D02*
D03*
X5890000Y10417900D02*
D03*
X6130000Y10600000D02*
D03*
X6127100Y10520000D02*
D03*
X6700000Y11200000D02*
D03*
X6680000Y11280000D02*
D03*
X6389159Y11160396D02*
D03*
X6540000Y11640000D02*
D03*
X6670000Y11620000D02*
D03*
X5995209Y10043084D02*
D03*
X8130000Y9470000D02*
D03*
X6720941Y11030941D02*
D03*
X7125000Y11000000D02*
D03*
Y11130000D02*
D03*
Y11260000D02*
D03*
Y11390000D02*
D03*
Y11520000D02*
D03*
Y11650000D02*
D03*
X7255000Y11000000D02*
D03*
Y11130000D02*
D03*
Y11260000D02*
D03*
Y11390000D02*
D03*
Y11520000D02*
D03*
Y11650000D02*
D03*
X6995000Y11000000D02*
D03*
Y11130000D02*
D03*
Y11260000D02*
D03*
Y11390000D02*
D03*
Y11520000D02*
D03*
Y11650000D02*
D03*
X5910000Y11170000D02*
D03*
X7910000Y9840000D02*
D03*
X5830941Y11170941D02*
D03*
X5730000Y11190000D02*
D03*
X6740000Y10240000D02*
D03*
X7750000Y10340000D02*
D03*
X6670000Y10180000D02*
D03*
X7910000Y9720000D02*
D03*
X8050000Y9850000D02*
D03*
X5750000Y11760000D02*
D03*
X6124590Y12092100D02*
D03*
X5488658Y11661570D02*
D03*
X6030000Y11570000D02*
D03*
X4870000Y10790000D02*
D03*
X6379289Y10470000D02*
D03*
X5320000Y10570000D02*
D03*
X5240000Y10630000D02*
D03*
X5750389Y11847620D02*
D03*
X4750000Y10310000D02*
D03*
X7950000Y10275000D02*
D03*
X8080000D02*
D03*
X8210000D02*
D03*
X8340000D02*
D03*
X8470000D02*
D03*
X8600000D02*
D03*
X7950000Y10405000D02*
D03*
X8080000D02*
D03*
X8210000D02*
D03*
X8340000D02*
D03*
X8470000D02*
D03*
X8600000D02*
D03*
X7950000Y10145000D02*
D03*
X8080000D02*
D03*
X8210000D02*
D03*
X8340000D02*
D03*
X8470000D02*
D03*
X8600000D02*
D03*
D97*
X7500000Y9700000D02*
D03*
Y9800000D02*
D03*
Y9900000D02*
D03*
X7850000Y11670000D02*
D03*
X7920000D02*
D03*
X7850000Y11600000D02*
D03*
X7920000D02*
D03*
X7850000Y11530000D02*
D03*
X7920000D02*
D03*
X7600000Y10550000D02*
D03*
X7500000D02*
D03*
Y10450000D02*
D03*
X7400000D02*
D03*
X7300000Y9700000D02*
D03*
Y9800000D02*
D03*
Y9900000D02*
D03*
Y10000000D02*
D03*
X7400000Y9700000D02*
D03*
Y9800000D02*
D03*
Y9900000D02*
D03*
Y10000000D02*
D03*
X7500000D02*
D03*
Y10200000D02*
D03*
Y10100000D02*
D03*
X7400000D02*
D03*
Y10200000D02*
D03*
X7300000Y10100000D02*
D03*
Y10200000D02*
D03*
X8610000Y10960000D02*
D03*
X8540000D02*
D03*
X8610000Y11030000D02*
D03*
X8540000D02*
D03*
X8610000Y11100000D02*
D03*
X8540000D02*
D03*
D98*
X9150000Y12300000D02*
D03*
Y9600000D02*
D03*
X4050000Y9600000D02*
D03*
Y12300000D02*
D03*
%TF.MD5,9b951a1169f6e6a0fcca122f4477aa63*%
M02*
