%TF.GenerationSoftware,Altium Limited,Altium Designer,25.4.2 (15)*%
G04 Layer_Color=128*
%FSLAX45Y45*%
%MOMM*%
%TF.SameCoordinates,7A81EC90-EEC5-4681-87D9-92CB7B0FDDE2*%
%TF.FilePolarity,Positive*%
%TF.FileFunction,Paste,Bot*%
%TF.Part,Single*%
G01*
G75*
%TA.AperFunction,SMDPad,CuDef*%
%ADD12R,1.35000X1.00000*%
%ADD13R,1.45620X1.30464*%
%ADD17R,3.20000X1.60000*%
%ADD18R,1.20000X3.20000*%
%ADD19R,2.20000X5.60000*%
%ADD23R,1.25000X1.00000*%
%ADD24R,1.20000X1.45000*%
%ADD25R,1.00000X1.25000*%
%TA.AperFunction,ConnectorPad*%
%ADD29R,2.20000X5.60000*%
%ADD30R,1.20000X3.20000*%
%TA.AperFunction,SMDPad,CuDef*%
%ADD32R,1.30464X1.45620*%
%ADD48R,1.05822X1.30606*%
%ADD49R,1.00000X1.45000*%
%ADD52R,0.62213X2.46916*%
G04:AMPARAMS|DCode=53|XSize=2.46916mm|YSize=0.62213mm|CornerRadius=0.31107mm|HoleSize=0mm|Usage=FLASHONLY|Rotation=90.000|XOffset=0mm|YOffset=0mm|HoleType=Round|Shape=RoundedRectangle|*
%AMROUNDEDRECTD53*
21,1,2.46916,0.00000,0,0,90.0*
21,1,1.84702,0.62213,0,0,90.0*
1,1,0.62213,0.00000,0.92351*
1,1,0.62213,0.00000,-0.92351*
1,1,0.62213,0.00000,-0.92351*
1,1,0.62213,0.00000,0.92351*
%
%ADD53ROUNDEDRECTD53*%
%ADD54R,1.55000X1.50000*%
%ADD55R,0.30000X1.20000*%
%ADD56R,1.20000X0.30000*%
%ADD57R,1.50464X1.55620*%
%TA.AperFunction,NonConductor*%
%ADD83R,5.26000X3.20000*%
%ADD88R,0.25000X1.55000*%
D12*
X6540000Y11360000D02*
D03*
Y11540000D02*
D03*
X8560000Y9780000D02*
D03*
Y9600000D02*
D03*
D13*
X6499999Y10419422D02*
D03*
Y10580578D02*
D03*
X8825000Y10355578D02*
D03*
Y10194422D02*
D03*
X4750000Y10290578D02*
D03*
Y10129422D02*
D03*
D17*
X6900000Y9750000D02*
D03*
X7400000D02*
D03*
X6900000Y10500000D02*
D03*
X7400000D02*
D03*
D18*
X6375000Y11865000D02*
D03*
X5125000D02*
D03*
X5375000D02*
D03*
X6125000D02*
D03*
X5875000D02*
D03*
X5625000D02*
D03*
D19*
X4805000Y12285000D02*
D03*
X6695000D02*
D03*
D23*
X7690000Y10630002D02*
D03*
Y10829998D02*
D03*
D24*
X5360000Y9880000D02*
D03*
X5560000D02*
D03*
D25*
X8720002Y11090000D02*
D03*
X8919998D02*
D03*
X3319998Y11360000D02*
D03*
X3120002D02*
D03*
D29*
X8675000Y12360000D02*
D03*
X7875000D02*
D03*
D30*
X8400000Y11930000D02*
D03*
X8150000D02*
D03*
D32*
X5370578Y11530000D02*
D03*
X5209422D02*
D03*
X6119422Y11550000D02*
D03*
X6280578D02*
D03*
X2662622Y11150600D02*
D03*
X2823778D02*
D03*
X5100578Y9880000D02*
D03*
X4939422D02*
D03*
D48*
X7740000Y10317608D02*
D03*
Y10162392D02*
D03*
D49*
X2825000Y10897500D02*
D03*
Y10382500D02*
D03*
X2655000D02*
D03*
Y10897500D02*
D03*
D52*
X3420500Y11608640D02*
D03*
D53*
X3293500D02*
D03*
X3166500D02*
D03*
X3039500D02*
D03*
Y12091360D02*
D03*
X3166500D02*
D03*
X3293500D02*
D03*
X3420500D02*
D03*
D54*
X4760000Y11150000D02*
D03*
Y10970000D02*
D03*
X8495000Y10825000D02*
D03*
Y11005000D02*
D03*
D55*
X5325000Y10175000D02*
D03*
X5375000D02*
D03*
X5425000D02*
D03*
X5475000D02*
D03*
X5525000D02*
D03*
X5575000D02*
D03*
X5625000D02*
D03*
X5675000D02*
D03*
X5725000D02*
D03*
X5775000D02*
D03*
X5825000D02*
D03*
X5875000D02*
D03*
X5925000D02*
D03*
X5975000D02*
D03*
X6025000D02*
D03*
X6075000D02*
D03*
Y11325000D02*
D03*
X6025000D02*
D03*
X5975000D02*
D03*
X5925000D02*
D03*
X5875000D02*
D03*
X5825000D02*
D03*
X5775000D02*
D03*
X5725000D02*
D03*
X5675000D02*
D03*
X5625000D02*
D03*
X5575000D02*
D03*
X5525000D02*
D03*
X5475000D02*
D03*
X5425000D02*
D03*
X5375000D02*
D03*
X5325000D02*
D03*
D56*
X6275000Y10375000D02*
D03*
Y10425000D02*
D03*
Y10475000D02*
D03*
Y10525000D02*
D03*
Y10575000D02*
D03*
Y10625000D02*
D03*
Y10675000D02*
D03*
Y10725000D02*
D03*
Y10775000D02*
D03*
Y10825000D02*
D03*
Y10875000D02*
D03*
Y10925000D02*
D03*
Y10975000D02*
D03*
Y11025000D02*
D03*
Y11075000D02*
D03*
Y11125000D02*
D03*
X5125000D02*
D03*
Y11075000D02*
D03*
Y11025000D02*
D03*
Y10975000D02*
D03*
Y10925000D02*
D03*
Y10875000D02*
D03*
Y10825000D02*
D03*
Y10775000D02*
D03*
Y10725000D02*
D03*
Y10675000D02*
D03*
Y10625000D02*
D03*
Y10575000D02*
D03*
Y10525000D02*
D03*
Y10475000D02*
D03*
Y10425000D02*
D03*
Y10375000D02*
D03*
D57*
X8885078Y10790000D02*
D03*
X8704922D02*
D03*
D83*
X8275003Y10275039D02*
D03*
D88*
X8632438Y10555082D02*
D03*
X8567438D02*
D03*
X8502562Y10554918D02*
D03*
X8437562D02*
D03*
X8372438Y10555082D02*
D03*
X8307438D02*
D03*
X8242562Y10554918D02*
D03*
X8177562D02*
D03*
X8112438Y10555082D02*
D03*
X8047438D02*
D03*
X7982562Y10554918D02*
D03*
X7917562D02*
D03*
Y9994918D02*
D03*
X7982562D02*
D03*
X8047438Y9995082D02*
D03*
X8112438D02*
D03*
X8177562Y9994918D02*
D03*
X8242562D02*
D03*
X8307438Y9995082D02*
D03*
X8372438D02*
D03*
X8437562Y9994918D02*
D03*
X8502562D02*
D03*
X8567438Y9995082D02*
D03*
X8632438D02*
D03*
%TF.MD5,5240c4f406c00e5d00ff734d11eba146*%
M02*
