%TF.GenerationSoftware,Altium Limited,Altium Designer,25.4.2 (15)*%
G04 Layer_Physical_Order=1*
G04 Layer_Color=255*
%FSLAX45Y45*%
%MOMM*%
%TF.SameCoordinates,7A81EC90-EEC5-4681-87D9-92CB7B0FDDE2*%
%TF.FilePolarity,Positive*%
%TF.FileFunction,Copper,L1,Top,Signal*%
%TF.Part,Single*%
G01*
G75*
%TA.AperFunction,SMDPad,CuDef*%
%ADD10R,1.00000X2.40000*%
%ADD11R,5.55000X6.80000*%
%ADD12R,1.35000X1.00000*%
%ADD13R,1.45620X1.30464*%
%TA.AperFunction,SMDPad,SMDef*%
%ADD14R,3.40000X7.80000*%
%TA.AperFunction,SMDPad,CuDef*%
%ADD15R,1.60000X0.30000*%
%ADD16R,1.45000X1.20000*%
%ADD17R,3.20000X1.60000*%
%ADD18R,1.20000X3.20000*%
%ADD19R,2.20000X5.60000*%
%ADD20R,3.20000X1.20000*%
%ADD21R,5.60000X2.20000*%
%ADD22R,1.50000X1.55000*%
%ADD23R,1.25000X1.00000*%
%ADD24R,1.20000X1.45000*%
%ADD25R,1.00000X1.25000*%
%ADD26R,1.20000X2.00000*%
%ADD27R,0.75000X0.90000*%
%ADD28R,2.18000X1.71550*%
%TA.AperFunction,ConnectorPad*%
%ADD29R,2.20000X5.60000*%
%ADD30R,1.20000X3.20000*%
%TA.AperFunction,SMDPad,CuDef*%
%ADD31R,1.55620X1.50464*%
%ADD32R,1.30464X1.45620*%
%ADD33R,4.24000X3.81000*%
%TA.AperFunction,Conductor*%
%ADD34C,0.20000*%
%ADD35C,0.50000*%
%ADD36C,0.38100*%
%TA.AperFunction,ComponentPad*%
%ADD37R,1.50000X1.50000*%
%ADD38C,1.50000*%
%ADD39C,0.55000*%
%ADD40R,1.50000X1.50000*%
%ADD41C,0.75000*%
%ADD42R,1.60000X1.60000*%
%ADD43C,1.60000*%
%TA.AperFunction,ViaPad*%
%ADD44C,0.45000*%
%ADD45C,0.60000*%
%ADD46C,0.50000*%
%ADD47C,5.50000*%
G36*
X9550000Y9200000D02*
X2550000D01*
Y12700000D01*
X9550000D01*
Y9200000D01*
D02*
G37*
%LPC*%
G36*
X6495940Y12455000D02*
X6474060D01*
X6453845Y12446627D01*
X6438373Y12431155D01*
X6430000Y12410940D01*
Y12389060D01*
X6438373Y12368845D01*
X6453845Y12353374D01*
X6474060Y12345000D01*
X6495940D01*
X6516155Y12353374D01*
X6531627Y12368845D01*
X6540000Y12389060D01*
Y12410940D01*
X6531627Y12431155D01*
X6516155Y12446627D01*
X6495940Y12455000D01*
D02*
G37*
G36*
X5025940D02*
X5004060D01*
X4983845Y12446627D01*
X4968373Y12431155D01*
X4960000Y12410940D01*
Y12389060D01*
X4968373Y12368845D01*
X4983845Y12353374D01*
X5004060Y12345000D01*
X5025940D01*
X5046155Y12353374D01*
X5061626Y12368845D01*
X5070000Y12389060D01*
Y12410940D01*
X5061626Y12431155D01*
X5046155Y12446627D01*
X5025940Y12455000D01*
D02*
G37*
G36*
X2935940Y12360000D02*
X2914060D01*
X2893845Y12351627D01*
X2878373Y12336155D01*
X2870000Y12315940D01*
Y12294060D01*
X2878373Y12273845D01*
X2893845Y12258374D01*
X2914060Y12250000D01*
X2935940D01*
X2956155Y12258374D01*
X2971627Y12273845D01*
X2980000Y12294060D01*
Y12315940D01*
X2971627Y12336155D01*
X2956155Y12351627D01*
X2935940Y12360000D01*
D02*
G37*
G36*
X7012506Y12425000D02*
X6987493D01*
X6963331Y12418526D01*
X6941668Y12406019D01*
X6923981Y12388331D01*
X6911474Y12366668D01*
X6905000Y12342507D01*
Y12317493D01*
X6911474Y12293332D01*
X6923981Y12271669D01*
X6941668Y12253981D01*
X6963331Y12241474D01*
X6987493Y12235000D01*
X7012506D01*
X7036668Y12241474D01*
X7058331Y12253981D01*
X7076018Y12271669D01*
X7088525Y12293332D01*
X7094999Y12317493D01*
Y12342507D01*
X7088525Y12366668D01*
X7076018Y12388331D01*
X7058331Y12406019D01*
X7036668Y12418526D01*
X7012506Y12425000D01*
D02*
G37*
G36*
X4073217Y12595000D02*
X4026783D01*
X3980921Y12587736D01*
X3936759Y12573387D01*
X3895386Y12552307D01*
X3857821Y12525013D01*
X3824987Y12492179D01*
X3797693Y12454614D01*
X3776613Y12413241D01*
X3762264Y12369079D01*
X3755000Y12323217D01*
Y12276783D01*
X3762264Y12230921D01*
X3776613Y12186759D01*
X3797693Y12145386D01*
X3824987Y12107821D01*
X3857821Y12074987D01*
X3895386Y12047693D01*
X3936759Y12026613D01*
X3980921Y12012264D01*
X4026783Y12005000D01*
X4073217D01*
X4119079Y12012264D01*
X4163241Y12026613D01*
X4204614Y12047693D01*
X4242179Y12074987D01*
X4275013Y12107821D01*
X4302307Y12145386D01*
X4323387Y12186759D01*
X4337736Y12230921D01*
X4345000Y12276783D01*
Y12323217D01*
X4337736Y12369079D01*
X4323387Y12413241D01*
X4302307Y12454614D01*
X4275013Y12492179D01*
X4242179Y12525013D01*
X4204614Y12552307D01*
X4163241Y12573387D01*
X4119079Y12587736D01*
X4073217Y12595000D01*
D02*
G37*
G36*
X9173217Y12595000D02*
X9126783D01*
X9080921Y12587736D01*
X9036759Y12573387D01*
X8995386Y12552306D01*
X8957821Y12525013D01*
X8924987Y12492179D01*
X8897693Y12454613D01*
X8876613Y12413240D01*
X8862264Y12369079D01*
X8855000Y12323217D01*
Y12276783D01*
X8862264Y12230920D01*
X8876613Y12186759D01*
X8897693Y12145386D01*
X8924987Y12107820D01*
X8957821Y12074987D01*
X8995386Y12047693D01*
X9036759Y12026613D01*
X9080921Y12012264D01*
X9126783Y12005000D01*
X9173217D01*
X9219079Y12012264D01*
X9263241Y12026613D01*
X9304614Y12047693D01*
X9342179Y12074987D01*
X9375013Y12107820D01*
X9402307Y12145386D01*
X9423387Y12186759D01*
X9437736Y12230920D01*
X9445000Y12276783D01*
Y12323217D01*
X9437736Y12369079D01*
X9423387Y12413240D01*
X9402307Y12454613D01*
X9375013Y12492179D01*
X9342179Y12525013D01*
X9304614Y12552306D01*
X9263241Y12573387D01*
X9219079Y12587736D01*
X9173217Y12595000D01*
D02*
G37*
G36*
X7094999Y12171000D02*
X6905000D01*
Y11981000D01*
X7094999D01*
Y12171000D01*
D02*
G37*
G36*
X3632700Y12017700D02*
X3287300D01*
Y11968145D01*
X3231765D01*
X3222908Y11966383D01*
X3215399Y11961366D01*
X3214167Y11960133D01*
X3208454Y11962500D01*
X3191546D01*
X3175926Y11956030D01*
X3163970Y11944074D01*
X3157500Y11928454D01*
Y11911546D01*
X3163970Y11895926D01*
X3175926Y11883970D01*
X3191546Y11877500D01*
X3208454D01*
X3224074Y11883970D01*
X3236030Y11895926D01*
X3242500Y11911546D01*
Y11921855D01*
X3287300D01*
Y11888440D01*
X3274600Y11879954D01*
X3268454Y11882500D01*
X3251546D01*
X3235926Y11876030D01*
X3223970Y11864074D01*
X3217500Y11848454D01*
Y11831546D01*
X3223970Y11815926D01*
X3235926Y11803970D01*
X3241639Y11801604D01*
Y11790216D01*
X3243400Y11781359D01*
X3248418Y11773851D01*
X3287300Y11734968D01*
Y11622300D01*
X3632700D01*
Y11767700D01*
X3320031D01*
X3291237Y11796495D01*
Y11811133D01*
X3296030Y11815926D01*
X3302500Y11831546D01*
Y11848454D01*
X3297883Y11859600D01*
X3304397Y11872300D01*
X3632700D01*
Y12017700D01*
D02*
G37*
G36*
X9303165Y11957000D02*
X9276835D01*
X9251402Y11950185D01*
X9228599Y11937020D01*
X9209980Y11918401D01*
X9196815Y11895598D01*
X9190000Y11870165D01*
Y11864519D01*
X9182858Y11863099D01*
X9175350Y11858082D01*
X9100934Y11783666D01*
X9095917Y11776157D01*
X9094155Y11767300D01*
Y10471739D01*
X8703634Y10081218D01*
X8698617Y10073710D01*
X8696855Y10064852D01*
Y9969908D01*
X8695400Y9968936D01*
X8682700Y9975724D01*
Y10005200D01*
X8537300D01*
Y9834800D01*
X8682700D01*
Y9896855D01*
X8690000D01*
X8698857Y9898617D01*
X8706366Y9903634D01*
X8715122Y9912391D01*
X8726855Y9907530D01*
Y9769587D01*
X8710413Y9753145D01*
X8682700D01*
Y9815200D01*
X8537300D01*
Y9644800D01*
X8682700D01*
Y9706855D01*
X8720000D01*
X8728857Y9708617D01*
X8736366Y9713634D01*
X8745122Y9722391D01*
X8756855Y9717530D01*
Y9629587D01*
X8695400Y9568131D01*
X8682700Y9573392D01*
Y9625200D01*
X8537300D01*
Y9454800D01*
X8682700D01*
Y9516855D01*
X8700000D01*
X8708857Y9518617D01*
X8716366Y9523634D01*
X8775122Y9582390D01*
X8786855Y9577530D01*
Y9459587D01*
X8700413Y9373145D01*
X8682700D01*
Y9435200D01*
X8537300D01*
Y9264800D01*
X8682700D01*
Y9326855D01*
X8710000D01*
X8718857Y9328617D01*
X8726366Y9333634D01*
X8826366Y9433634D01*
X8831383Y9441143D01*
X8833145Y9450000D01*
Y10017987D01*
X9089013Y10273855D01*
X9182674D01*
X9186815Y10258402D01*
X9199980Y10235599D01*
X9218599Y10216980D01*
X9241402Y10203815D01*
X9266835Y10197000D01*
X9293165D01*
X9318598Y10203815D01*
X9341401Y10216980D01*
X9360020Y10235599D01*
X9373185Y10258402D01*
X9380000Y10283835D01*
Y10310165D01*
X9373185Y10335598D01*
X9360020Y10358401D01*
X9341401Y10377020D01*
X9318598Y10390185D01*
X9293165Y10397000D01*
X9266835D01*
X9241402Y10390185D01*
X9218599Y10377020D01*
X9199980Y10358401D01*
X9186815Y10335598D01*
X9182674Y10320145D01*
X9109470D01*
X9104609Y10331878D01*
X9193665Y10420934D01*
X9198683Y10428443D01*
X9200444Y10437300D01*
Y10738541D01*
X9212178Y10743401D01*
X9218599Y10736980D01*
X9241401Y10723815D01*
X9266834Y10717000D01*
X9293165D01*
X9318598Y10723815D01*
X9341401Y10736980D01*
X9360019Y10755599D01*
X9373185Y10778402D01*
X9380000Y10803835D01*
Y10830165D01*
X9373185Y10855598D01*
X9360019Y10878401D01*
X9341401Y10897020D01*
X9318598Y10910185D01*
X9293165Y10917000D01*
X9266834D01*
X9241401Y10910185D01*
X9218599Y10897020D01*
X9199980Y10878401D01*
X9186815Y10855598D01*
X9183144Y10841901D01*
X9170444Y10843573D01*
Y11282430D01*
X9179491Y11290490D01*
X9192570Y11288433D01*
X9199980Y11275599D01*
X9218599Y11256980D01*
X9241401Y11243815D01*
X9266834Y11237000D01*
X9293165D01*
X9318598Y11243815D01*
X9341401Y11256980D01*
X9360019Y11275599D01*
X9373185Y11298402D01*
X9380000Y11323835D01*
Y11350165D01*
X9373185Y11375598D01*
X9360019Y11398401D01*
X9341401Y11417020D01*
X9318598Y11430185D01*
X9293165Y11437000D01*
X9266834D01*
X9241401Y11430185D01*
X9218599Y11417020D01*
X9199980Y11398401D01*
X9186815Y11375598D01*
X9181232Y11354764D01*
X9172858Y11353098D01*
X9165350Y11348081D01*
X9152178Y11334909D01*
X9140445Y11339770D01*
Y11757713D01*
X9191020Y11808288D01*
X9203611Y11806630D01*
X9209980Y11795599D01*
X9228599Y11776980D01*
X9251402Y11763815D01*
X9276835Y11757000D01*
X9303165D01*
X9328598Y11763815D01*
X9351401Y11776980D01*
X9370020Y11795599D01*
X9383185Y11818402D01*
X9390000Y11843835D01*
Y11870165D01*
X9383185Y11895598D01*
X9370020Y11918401D01*
X9351401Y11937020D01*
X9328598Y11950185D01*
X9303165Y11957000D01*
D02*
G37*
G36*
X6085889Y12153945D02*
X5540800D01*
X5531943Y12152183D01*
X5524434Y12147166D01*
X5414968Y12037700D01*
X5302300D01*
Y11692300D01*
X5414968D01*
X5446158Y11661110D01*
Y11653116D01*
X5452628Y11637496D01*
X5464584Y11625540D01*
X5480204Y11619070D01*
X5497112D01*
X5498041Y11619455D01*
X5756913Y11360583D01*
X5764422Y11355566D01*
X5773279Y11353804D01*
X6533243D01*
X6538103Y11342071D01*
X6398542Y11202510D01*
X6397613Y11202895D01*
X6380705D01*
X6365085Y11196425D01*
X6353129Y11184470D01*
X6347326Y11170458D01*
X6346659Y11168849D01*
X6346657Y11168831D01*
X6345510Y11158510D01*
X6336634Y11158510D01*
X6174490D01*
Y11103723D01*
X6009009D01*
X5952115Y11160617D01*
X5952500Y11161546D01*
Y11178454D01*
X5946030Y11194074D01*
X5934074Y11206030D01*
X5918454Y11212500D01*
X5901546D01*
X5885926Y11206030D01*
X5879017Y11199121D01*
X5869842Y11195994D01*
X5862645Y11199342D01*
X5855015Y11206971D01*
X5839395Y11213441D01*
X5822488D01*
X5806867Y11206971D01*
X5794912Y11195015D01*
X5788442Y11179395D01*
Y11162488D01*
X5794912Y11146867D01*
X5806867Y11134912D01*
X5807797Y11134527D01*
Y11129059D01*
X5809558Y11120202D01*
X5814576Y11112693D01*
X6119444Y10807824D01*
X6126953Y10802807D01*
X6135810Y10801045D01*
X6162840D01*
X6174490Y10798510D01*
Y10743723D01*
X6159009D01*
X5755645Y11147087D01*
Y11155541D01*
X5766030Y11165926D01*
X5772500Y11181546D01*
Y11198454D01*
X5766030Y11214074D01*
X5754074Y11226030D01*
X5738454Y11232500D01*
X5721546D01*
X5705926Y11226030D01*
X5693970Y11214074D01*
X5687500Y11198454D01*
Y11181546D01*
X5693970Y11165926D01*
X5705926Y11153970D01*
X5709355Y11152550D01*
Y11137500D01*
X5711117Y11128643D01*
X5716134Y11121134D01*
X6133056Y10704213D01*
X6140565Y10699195D01*
X6149422Y10697434D01*
X6174490D01*
Y10642646D01*
X6345510D01*
Y10706855D01*
X6419800D01*
Y10667300D01*
X6580200D01*
Y10689108D01*
X6592900Y10694369D01*
X6646855Y10640413D01*
Y10216415D01*
X6645926Y10216030D01*
X6633970Y10204074D01*
X6627500Y10188454D01*
Y10171546D01*
X6633970Y10155926D01*
X6645926Y10143970D01*
X6661546Y10137500D01*
X6678454D01*
X6694074Y10143970D01*
X6706030Y10155926D01*
X6712500Y10171546D01*
Y10188454D01*
X6710839Y10192464D01*
X6720625Y10202024D01*
X6731546Y10197500D01*
X6748454D01*
X6764074Y10203970D01*
X6776030Y10215926D01*
X6782500Y10231546D01*
Y10248454D01*
X6776030Y10264074D01*
X6764074Y10276030D01*
X6748454Y10282500D01*
X6731547D01*
X6723145Y10291236D01*
Y10730000D01*
X6721383Y10738857D01*
X6716366Y10746366D01*
X6622176Y10840556D01*
X6614667Y10845573D01*
X6605810Y10847335D01*
X6145397D01*
X5862720Y11130012D01*
X5864324Y11134977D01*
X5876439Y11140719D01*
X5879101Y11140795D01*
X5885926Y11133970D01*
X5901546Y11127500D01*
X5918454D01*
X5919383Y11127885D01*
X5983056Y11064212D01*
X5990565Y11059195D01*
X5999422Y11057434D01*
X6174490D01*
Y11002647D01*
X6345510D01*
Y11057434D01*
X6419800D01*
Y11027300D01*
X6537763D01*
X6540000Y11026855D01*
X6587913D01*
X6663634Y10951134D01*
X6671143Y10946117D01*
X6680000Y10944355D01*
X6752300D01*
Y10939800D01*
X6937700D01*
Y10995199D01*
X6937700Y10995200D01*
Y11004800D01*
X6937700D01*
X6937700Y11007900D01*
Y11060199D01*
X6937700D01*
Y11069801D01*
X6937700D01*
Y11125200D01*
X6752300D01*
Y11120645D01*
X6580200D01*
Y11152700D01*
X6431659D01*
Y11168849D01*
X6431274Y11169779D01*
X6578350Y11316855D01*
X6638791D01*
X6644051Y11304155D01*
X6643970Y11304074D01*
X6637500Y11288454D01*
Y11271546D01*
X6643970Y11255926D01*
X6655926Y11243970D01*
X6662983Y11241047D01*
X6665963Y11226066D01*
X6663970Y11224074D01*
X6657500Y11208454D01*
Y11191546D01*
X6663970Y11175926D01*
X6675926Y11163970D01*
X6691546Y11157500D01*
X6708454D01*
X6724074Y11163970D01*
X6736030Y11175926D01*
X6742500Y11191546D01*
Y11192800D01*
X6752300Y11199800D01*
X6937700D01*
Y11255199D01*
X6937700D01*
Y11264800D01*
X6937700D01*
Y11320199D01*
X6937700D01*
Y11329801D01*
X6937700D01*
Y11385199D01*
X6937700D01*
Y11394800D01*
X6937700D01*
Y11450199D01*
X6937700D01*
Y11459801D01*
X6937700D01*
Y11515199D01*
X6937700D01*
Y11524800D01*
X6937700D01*
Y11577100D01*
X6937700Y11580200D01*
Y11589800D01*
X6937700Y11592900D01*
Y11642100D01*
X6937700Y11645200D01*
Y11654800D01*
X6937700Y11657900D01*
Y11710200D01*
X6874148D01*
X6870631Y11722900D01*
X6944587Y11796855D01*
X6966490D01*
Y11764490D01*
X7122354D01*
Y11935510D01*
X6966490D01*
Y11843145D01*
X6935000D01*
X6926143Y11841383D01*
X6918634Y11836366D01*
X6828634Y11746366D01*
X6823617Y11738857D01*
X6821855Y11730000D01*
Y11710200D01*
X6752300D01*
Y11657900D01*
X6752300Y11654800D01*
Y11645200D01*
X6748995Y11641895D01*
X6706932D01*
X6706030Y11644074D01*
X6694074Y11656030D01*
X6678454Y11662500D01*
X6661546D01*
X6645926Y11656030D01*
X6633970Y11644074D01*
X6627500Y11628454D01*
Y11611546D01*
X6633970Y11595926D01*
X6645926Y11583970D01*
X6661546Y11577500D01*
X6678454D01*
X6694074Y11583970D01*
X6705709Y11595605D01*
X6746495D01*
X6752300Y11589800D01*
Y11580200D01*
X6747745Y11575645D01*
X6723750D01*
X6714892Y11573883D01*
X6707384Y11568866D01*
X6598612Y11460094D01*
X5952638D01*
X5898145Y11514587D01*
Y11692300D01*
X5947700D01*
Y12037700D01*
X5947700D01*
X5949256Y12049756D01*
X6007513D01*
X6052300Y12004969D01*
Y11692300D01*
X6101855D01*
Y11645000D01*
X6103617Y11636143D01*
X6107540Y11630271D01*
X6072913Y11595644D01*
X6064459D01*
X6054074Y11606030D01*
X6038454Y11612500D01*
X6021546D01*
X6005926Y11606030D01*
X5993970Y11594074D01*
X5987500Y11578454D01*
Y11561546D01*
X5993970Y11545926D01*
X6005926Y11533970D01*
X6021546Y11527500D01*
X6038454D01*
X6054074Y11533970D01*
X6066030Y11545926D01*
X6067450Y11549355D01*
X6082500D01*
X6091357Y11551117D01*
X6098866Y11556134D01*
X6140272Y11597540D01*
X6146143Y11593617D01*
X6155000Y11591855D01*
X6430000D01*
X6438857Y11593617D01*
X6446366Y11598634D01*
X6464587Y11616855D01*
X6503585D01*
X6503970Y11615926D01*
X6515926Y11603970D01*
X6531546Y11597500D01*
X6548454D01*
X6564074Y11603970D01*
X6576030Y11615926D01*
X6582500Y11631546D01*
Y11648454D01*
X6576030Y11664074D01*
X6564074Y11676030D01*
X6548454Y11682500D01*
X6531546D01*
X6515926Y11676030D01*
X6503970Y11664074D01*
X6503585Y11663145D01*
X6455000D01*
X6446143Y11661383D01*
X6438634Y11656366D01*
X6420413Y11638145D01*
X6164587D01*
X6148145Y11654587D01*
Y11692300D01*
X6197700D01*
Y12037700D01*
X6134975D01*
X6133044Y12049600D01*
X6148664Y12056070D01*
X6160619Y12068026D01*
X6167090Y12083646D01*
Y12100554D01*
X6160619Y12116174D01*
X6148664Y12128130D01*
X6133043Y12134600D01*
X6116136D01*
X6115206Y12134215D01*
X6102255Y12147166D01*
X6094747Y12152183D01*
X6085889Y12153945D01*
D02*
G37*
G36*
X8210000Y12120588D02*
X8090000D01*
X8078295Y12118259D01*
X8074015Y12115400D01*
X8064600D01*
Y12105985D01*
X8061741Y12101705D01*
X8059412Y12090000D01*
Y11427670D01*
X8037330Y11405588D01*
X7986806D01*
X7981545Y11418288D01*
X8021629Y11458371D01*
X8028259Y11468295D01*
X8030588Y11480000D01*
X8030588Y11480001D01*
Y11790000D01*
X8028259Y11801705D01*
X8021629Y11811629D01*
X8011705Y11818259D01*
X8000000Y11820588D01*
X7860000D01*
X7848295Y11818259D01*
X7838371Y11811629D01*
X7838371Y11811628D01*
X7752243Y11725501D01*
X7740510Y11730361D01*
Y11882775D01*
X7740511Y11882775D01*
Y11887069D01*
X7740510D01*
X7740510Y11895475D01*
Y12062932D01*
X7559490D01*
Y11930410D01*
X7553091Y11926134D01*
X7498634Y11871677D01*
X7493617Y11864169D01*
X7491855Y11855312D01*
Y11702270D01*
Y11664661D01*
X7487303Y11660108D01*
X7481143Y11658883D01*
X7473634Y11653866D01*
X7465413Y11645645D01*
X7410000D01*
X7407764Y11645200D01*
X7312300D01*
Y11589801D01*
X7312300Y11589800D01*
Y11580199D01*
X7312300D01*
X7312300Y11577100D01*
Y11524800D01*
X7312300D01*
Y11515199D01*
X7312300D01*
Y11462900D01*
X7299600D01*
Y11375944D01*
X7299412Y11375000D01*
Y11275000D01*
X7299600Y11274056D01*
Y11252100D01*
X7310274D01*
X7318295Y11246741D01*
X7330000Y11244412D01*
X8124999D01*
X8136705Y11246741D01*
X8146628Y11253371D01*
X8146629Y11253372D01*
X8231629Y11338372D01*
X8238259Y11348295D01*
X8240588Y11360000D01*
X8240588Y11360002D01*
Y12090000D01*
X8238259Y12101705D01*
X8235400Y12105985D01*
Y12115400D01*
X8225985D01*
X8221705Y12118259D01*
X8210000Y12120588D01*
D02*
G37*
G36*
X5197700Y12037700D02*
X5052300D01*
Y11692300D01*
X5101855D01*
Y11505000D01*
X5103617Y11496143D01*
X5108634Y11488634D01*
X5192430Y11404839D01*
X5191450Y11399242D01*
X5177802Y11394929D01*
X4846366Y11726366D01*
X4838857Y11731383D01*
X4830000Y11733145D01*
X3751236D01*
X3742500Y11741547D01*
Y11758454D01*
X3736030Y11774074D01*
X3724074Y11786030D01*
X3708454Y11792500D01*
X3691546D01*
X3675926Y11786030D01*
X3663970Y11774074D01*
X3657500Y11758454D01*
Y11741546D01*
X3663970Y11725926D01*
X3675926Y11713970D01*
X3691546Y11707500D01*
X3708454D01*
X3709383Y11707885D01*
X3722268Y11695000D01*
X3709383Y11682115D01*
X3708454Y11682500D01*
X3691546D01*
X3675926Y11676030D01*
X3663970Y11664074D01*
X3657500Y11648454D01*
Y11631546D01*
X3663970Y11615926D01*
X3675926Y11603970D01*
X3691546Y11597500D01*
X3708454D01*
X3724074Y11603970D01*
X3736030Y11615926D01*
X3742500Y11631546D01*
Y11648453D01*
X3751236Y11656855D01*
X4807987D01*
X5956425Y10508418D01*
X5963934Y10503400D01*
X5972791Y10501639D01*
X6088704D01*
X6091070Y10495926D01*
X6103026Y10483970D01*
X6118646Y10477500D01*
X6135554D01*
X6151174Y10483970D01*
X6163130Y10495926D01*
X6169600Y10511546D01*
Y10528454D01*
X6163130Y10544074D01*
X6156129Y10551075D01*
X6154382Y10562037D01*
X6156951Y10566847D01*
X6166030Y10575926D01*
X6172500Y10591546D01*
Y10608454D01*
X6166030Y10624074D01*
X6154074Y10636030D01*
X6138454Y10642500D01*
X6121546D01*
X6105926Y10636030D01*
X6093970Y10624074D01*
X6093585Y10623145D01*
X5949587D01*
X5237931Y11334800D01*
X5243192Y11347500D01*
X5248454D01*
X5264074Y11353970D01*
X5276030Y11365926D01*
X5282500Y11381546D01*
Y11398454D01*
X5276030Y11414074D01*
X5264074Y11426030D01*
X5248454Y11432500D01*
X5231546D01*
X5230617Y11432115D01*
X5148145Y11514587D01*
Y11692300D01*
X5197700D01*
Y12037700D01*
D02*
G37*
G36*
X4189854Y11565510D02*
X4033990D01*
Y11437598D01*
X4033251Y11433884D01*
X4033252Y11433883D01*
Y11357612D01*
X4019820Y11344180D01*
X4011488Y11331710D01*
X4010015Y11324306D01*
X3996234Y11320126D01*
X3844180Y11472180D01*
X3831710Y11480512D01*
X3817000Y11483439D01*
X3816998Y11483439D01*
X3632700D01*
Y11517700D01*
X3287300D01*
Y11384677D01*
X3287299Y11375022D01*
X3276395Y11367966D01*
X3248432Y11395929D01*
Y11461726D01*
X3252500Y11471546D01*
Y11488454D01*
X3246030Y11504074D01*
X3234074Y11516030D01*
X3218454Y11522500D01*
X3201546D01*
X3185926Y11516030D01*
X3173970Y11504074D01*
X3167500Y11488454D01*
Y11471546D01*
X3171555Y11461757D01*
Y11380008D01*
X3171555Y11380007D01*
X3174481Y11365297D01*
X3182813Y11352826D01*
X3282820Y11252820D01*
X3295290Y11244488D01*
X3310000Y11241561D01*
X3310002Y11241561D01*
X3322718D01*
X3326561Y11237718D01*
Y11012282D01*
X3270995Y10956717D01*
X3235182D01*
X3220472Y10953791D01*
X3208002Y10945458D01*
X3208001Y10945458D01*
X3129920Y10867376D01*
X3121587Y10854906D01*
X3118661Y10840196D01*
X3118661Y10840195D01*
Y10635402D01*
X3118661Y10635400D01*
X3121587Y10620690D01*
X3129920Y10608220D01*
X3235320Y10502820D01*
X3247790Y10494488D01*
X3262500Y10491561D01*
X3262501Y10491561D01*
X3959800D01*
Y10177300D01*
X4540200D01*
Y10431483D01*
X4664490D01*
Y10391990D01*
X4711561D01*
Y10328258D01*
X4707500Y10318454D01*
Y10301546D01*
X4713970Y10285926D01*
X4725926Y10273970D01*
X4741546Y10267500D01*
X4758454D01*
X4774074Y10273970D01*
X4786030Y10285926D01*
X4792500Y10301546D01*
Y10318454D01*
X4788438Y10328258D01*
Y10391990D01*
X4835510D01*
Y10547853D01*
X4664490D01*
Y10508360D01*
X4540200D01*
Y10882700D01*
X3959800D01*
Y10568439D01*
X3278422D01*
X3195538Y10651322D01*
Y10767764D01*
X3208238Y10773012D01*
X3221546Y10767500D01*
X3238454D01*
X3244167Y10769867D01*
X3250399Y10763634D01*
X3257908Y10758617D01*
X3266765Y10756855D01*
X3450000D01*
X3458857Y10758617D01*
X3466366Y10763634D01*
X3609587Y10906855D01*
X4550413D01*
X4683634Y10773634D01*
X4691143Y10768617D01*
X4700000Y10766855D01*
X4833585D01*
X4833970Y10765926D01*
X4845926Y10753970D01*
X4861546Y10747500D01*
X4878454D01*
X4894074Y10753970D01*
X4906030Y10765926D01*
X4912500Y10781546D01*
Y10798454D01*
X4906030Y10814074D01*
X4894074Y10826030D01*
X4878454Y10832500D01*
X4861546D01*
X4845926Y10826030D01*
X4833970Y10814074D01*
X4833585Y10813145D01*
X4709587D01*
X4576366Y10946366D01*
X4568857Y10951383D01*
X4560000Y10953145D01*
X3600000D01*
X3591143Y10951383D01*
X3583634Y10946366D01*
X3440413Y10803145D01*
X3276352D01*
X3272500Y10806997D01*
Y10818454D01*
X3266030Y10834074D01*
X3254074Y10846030D01*
X3240767Y10851542D01*
X3235497Y10864233D01*
X3251104Y10879840D01*
X3286916D01*
X3286917Y10879839D01*
X3301627Y10882766D01*
X3314098Y10891098D01*
X3392179Y10969180D01*
X3392180Y10969180D01*
X3400513Y10981651D01*
X3403439Y10996361D01*
X3403438Y10996362D01*
Y11253640D01*
X3400512Y11268350D01*
X3392180Y11280820D01*
X3392179Y11280820D01*
X3365820Y11307180D01*
X3353349Y11315513D01*
X3338640Y11318439D01*
X3338638Y11318439D01*
X3325922D01*
X3282965Y11361395D01*
X3290022Y11372300D01*
X3298873Y11372300D01*
X3632700D01*
Y11406561D01*
X3801078D01*
X3959300Y11248339D01*
Y11037300D01*
X4084700D01*
Y11261286D01*
X4085439Y11265000D01*
Y11301078D01*
X4098870Y11314509D01*
X4098870Y11314510D01*
X4107203Y11326980D01*
X4110129Y11341690D01*
X4110129Y11341691D01*
Y11394490D01*
X4189854D01*
Y11565510D01*
D02*
G37*
G36*
X2935940Y11390000D02*
X2914060D01*
X2893845Y11381626D01*
X2878373Y11366155D01*
X2870000Y11345940D01*
Y11324060D01*
X2878373Y11303845D01*
X2893845Y11288373D01*
X2914060Y11280000D01*
X2935940D01*
X2956155Y11288373D01*
X2971627Y11303845D01*
X2980000Y11324060D01*
Y11345940D01*
X2971627Y11366155D01*
X2956155Y11381626D01*
X2935940Y11390000D01*
D02*
G37*
G36*
X6965000Y11185645D02*
X6956143Y11183883D01*
X6948634Y11178866D01*
X6943617Y11171357D01*
X6941855Y11162500D01*
X6943617Y11153643D01*
X6948634Y11146134D01*
X6973615Y11121153D01*
X6973617Y11121143D01*
X6978634Y11113634D01*
X6986143Y11108617D01*
X6995000Y11106855D01*
X7003857Y11108617D01*
X7011366Y11113634D01*
X7016383Y11121143D01*
X7018145Y11130000D01*
Y11132500D01*
X7016383Y11141357D01*
X7011366Y11148865D01*
X6981366Y11178866D01*
X6973857Y11183883D01*
X6965000Y11185645D01*
D02*
G37*
G36*
X5385000Y10998145D02*
X5376143Y10996383D01*
X5368634Y10991366D01*
X5363617Y10983857D01*
X5361855Y10975000D01*
Y10835000D01*
X5363617Y10826143D01*
X5368634Y10818634D01*
X5418634Y10768634D01*
X5426143Y10763617D01*
X5435000Y10761855D01*
X5518649D01*
X5526869Y10753634D01*
X5534378Y10748617D01*
X5543235Y10746855D01*
X5550000D01*
X5558857Y10748617D01*
X5566366Y10753634D01*
X5571383Y10761143D01*
X5573145Y10770000D01*
X5571383Y10778857D01*
X5566366Y10786366D01*
X5558857Y10791383D01*
X5553522Y10792444D01*
X5544601Y10801365D01*
X5537093Y10806383D01*
X5528235Y10808145D01*
X5444587D01*
X5408145Y10844587D01*
Y10975000D01*
X5406383Y10983857D01*
X5401366Y10991366D01*
X5393857Y10996383D01*
X5385000Y10998145D01*
D02*
G37*
G36*
X2884959Y10677500D02*
X2870041D01*
X2856258Y10671791D01*
X2845709Y10661242D01*
X2840000Y10647459D01*
Y10632541D01*
X2845709Y10618758D01*
X2856258Y10608209D01*
X2870041Y10602500D01*
X2884959D01*
X2898742Y10608209D01*
X2909291Y10618758D01*
X2915000Y10632541D01*
Y10647459D01*
X2909291Y10661242D01*
X2898742Y10671791D01*
X2884959Y10677500D01*
D02*
G37*
G36*
X2609959D02*
X2595041D01*
X2581258Y10671791D01*
X2570709Y10661242D01*
X2565000Y10647459D01*
Y10632541D01*
X2570709Y10618758D01*
X2581258Y10608209D01*
X2595041Y10602500D01*
X2609959D01*
X2623742Y10608209D01*
X2634291Y10618758D01*
X2640000Y10632541D01*
Y10647459D01*
X2634291Y10661242D01*
X2623742Y10671791D01*
X2609959Y10677500D01*
D02*
G37*
G36*
X5315200Y11032700D02*
X5214800D01*
Y10917300D01*
X5241855D01*
Y10897700D01*
X5142300D01*
Y10672300D01*
X5191855D01*
Y10655000D01*
X5193617Y10646143D01*
X5197980Y10639613D01*
X5197500Y10638454D01*
Y10621546D01*
X5203970Y10605926D01*
X5215926Y10593970D01*
X5231546Y10587500D01*
X5248454D01*
X5264074Y10593970D01*
X5276030Y10605926D01*
X5282500Y10621546D01*
Y10638454D01*
X5276030Y10654074D01*
X5270504Y10659600D01*
X5275765Y10672300D01*
X5287700D01*
Y10832763D01*
X5288145Y10835000D01*
Y10917300D01*
X5315200D01*
Y11032700D01*
D02*
G37*
G36*
X6260000Y10582567D02*
X6252422D01*
X6243565Y10580805D01*
X6236056Y10575788D01*
X6231039Y10568279D01*
X6229277Y10559422D01*
X6231039Y10550565D01*
X6236056Y10543056D01*
X6243565Y10538039D01*
X6252422Y10536277D01*
X6260000D01*
X6268857Y10538039D01*
X6276366Y10543056D01*
X6281383Y10550565D01*
X6283145Y10559422D01*
X6281383Y10568279D01*
X6276366Y10575788D01*
X6268857Y10580805D01*
X6260000Y10582567D01*
D02*
G37*
G36*
X5328454Y10612500D02*
X5311546D01*
X5295926Y10606030D01*
X5283970Y10594074D01*
X5277500Y10578454D01*
Y10561546D01*
X5283970Y10545926D01*
X5295926Y10533970D01*
X5311546Y10527500D01*
X5328454D01*
X5329383Y10527885D01*
X5362300Y10494968D01*
Y10367237D01*
X5361855Y10365000D01*
Y10282700D01*
X5334800D01*
Y10167300D01*
X5435200D01*
Y10282700D01*
X5408145D01*
Y10302300D01*
X5507700D01*
Y10527700D01*
X5395032D01*
X5362115Y10560617D01*
X5362500Y10561546D01*
Y10578454D01*
X5356030Y10594074D01*
X5344074Y10606030D01*
X5328454Y10612500D01*
D02*
G37*
G36*
X4620000Y10130588D02*
X4619999Y10130588D01*
X3720001D01*
X3720000Y10130588D01*
X3708295Y10128259D01*
X3698371Y10121629D01*
X3698371Y10121628D01*
X3637330Y10060588D01*
X3300000D01*
X3288295Y10058259D01*
X3284015Y10055400D01*
X3269600D01*
Y10030944D01*
X3269412Y10030000D01*
Y9910000D01*
X3269600Y9909056D01*
Y9884600D01*
X3284015D01*
X3288295Y9881741D01*
X3300000Y9879412D01*
X3709999D01*
X3710000Y9879412D01*
X3721705Y9881741D01*
X3731629Y9888371D01*
X3731629Y9888372D01*
X3792670Y9949412D01*
X4227330D01*
X4389412Y9787330D01*
Y9360000D01*
X4391741Y9348295D01*
X4394100Y9344763D01*
Y9334100D01*
X4404764D01*
X4408295Y9331741D01*
X4420000Y9329412D01*
X4840000D01*
X4851705Y9331741D01*
X4855236Y9334100D01*
X4868900D01*
Y9351515D01*
X4870588Y9360000D01*
Y9879999D01*
X4870588Y9880000D01*
X4868259Y9891705D01*
X4861629Y9901629D01*
X4861628Y9901629D01*
X4641629Y10121629D01*
X4631705Y10128259D01*
X4620000Y10130588D01*
D02*
G37*
G36*
X2930940Y10135000D02*
X2909060D01*
X2888845Y10126627D01*
X2873373Y10111155D01*
X2865000Y10090940D01*
Y10069060D01*
X2873373Y10048845D01*
X2888845Y10033374D01*
X2909060Y10025000D01*
X2930940D01*
X2951155Y10033374D01*
X2966627Y10048845D01*
X2975000Y10069060D01*
Y10090940D01*
X2966627Y10111155D01*
X2951155Y10126627D01*
X2930940Y10135000D01*
D02*
G37*
G36*
X6703000Y10070000D02*
X6513000D01*
Y9880000D01*
X6703000D01*
Y10070000D01*
D02*
G37*
G36*
X8058454Y9892500D02*
X8041546D01*
X8025926Y9886030D01*
X8013970Y9874074D01*
X8013585Y9873145D01*
X7982608D01*
X7973751Y9871383D01*
X7966243Y9866366D01*
X7963021Y9863145D01*
X7946415D01*
X7946030Y9864074D01*
X7934074Y9876030D01*
X7918454Y9882500D01*
X7901546D01*
X7885926Y9876030D01*
X7873970Y9864074D01*
X7867500Y9848454D01*
Y9831546D01*
X7873970Y9815926D01*
X7885926Y9803970D01*
X7901546Y9797500D01*
X7918454D01*
X7934074Y9803970D01*
X7946030Y9815926D01*
X7946415Y9816855D01*
X7972608D01*
X7981465Y9818617D01*
X7988974Y9823634D01*
X7992195Y9826855D01*
X8013585D01*
X8013970Y9825926D01*
X8025926Y9813970D01*
X8041546Y9807500D01*
X8058454D01*
X8074074Y9813970D01*
X8086030Y9825926D01*
X8092500Y9841546D01*
Y9858454D01*
X8086030Y9874074D01*
X8074074Y9886030D01*
X8058454Y9892500D01*
D02*
G37*
G36*
X8460000Y12120588D02*
X8340000D01*
X8328294Y12118259D01*
X8324015Y12115400D01*
X8314600D01*
Y12105985D01*
X8311741Y12101705D01*
X8309412Y12090000D01*
Y11959999D01*
X8309411Y11222669D01*
X8227330Y11140588D01*
X7330000D01*
X7318295Y11138259D01*
X7317757Y11137900D01*
X7299600D01*
Y11110944D01*
X7299412Y11110000D01*
Y11020000D01*
X7299600Y11019056D01*
Y10970944D01*
X7299412Y10970000D01*
Y10912670D01*
X7218371Y10831629D01*
X7211741Y10821705D01*
X7209412Y10810000D01*
X7209412Y10809999D01*
Y9962670D01*
X7103371Y9856629D01*
X7096740Y9846705D01*
X7094412Y9835000D01*
X7094412Y9834999D01*
Y9667670D01*
X7077330Y9650588D01*
X6762669Y9650588D01*
X6747028Y9666229D01*
X6740554Y9670555D01*
X6736229Y9677028D01*
X6736228Y9677029D01*
X6601628Y9811629D01*
X6591705Y9818259D01*
X6580000Y9820588D01*
X6579998Y9820588D01*
X6446985D01*
X6440185Y9833288D01*
X6444600Y9843947D01*
Y9860854D01*
X6438130Y9876474D01*
X6426174Y9888430D01*
X6421625Y9890314D01*
X6418645Y9905295D01*
X6430019Y9916669D01*
X6442526Y9938332D01*
X6449000Y9962493D01*
Y9987507D01*
X6442526Y10011669D01*
X6430019Y10033331D01*
X6412331Y10051019D01*
X6390668Y10063526D01*
X6377145Y10067150D01*
Y10124413D01*
X6459587Y10206855D01*
X6550000D01*
X6558857Y10208617D01*
X6566366Y10213634D01*
X6571383Y10221143D01*
X6573145Y10230000D01*
Y10400000D01*
X6571383Y10408857D01*
X6566366Y10416366D01*
X6536366Y10446366D01*
X6528857Y10451383D01*
X6520000Y10453145D01*
X6430525D01*
X6421789Y10461547D01*
Y10478454D01*
X6415319Y10494074D01*
X6403363Y10506030D01*
X6387743Y10512500D01*
X6370836D01*
X6355215Y10506030D01*
X6343260Y10494074D01*
X6336789Y10478454D01*
Y10461546D01*
X6343260Y10445926D01*
X6355215Y10433970D01*
X6370836Y10427500D01*
X6387743D01*
X6388673Y10427885D01*
X6402923Y10413634D01*
X6410432Y10408617D01*
X6419289Y10406855D01*
X6510413D01*
X6526855Y10390413D01*
Y10333092D01*
X6514155Y10327831D01*
X6510015Y10331971D01*
X6494395Y10338441D01*
X6477488D01*
X6471774Y10336075D01*
X6471483Y10336366D01*
X6463975Y10341383D01*
X6455118Y10343145D01*
X5996415D01*
X5996030Y10344074D01*
X5984074Y10356030D01*
X5968454Y10362500D01*
X5951546D01*
X5935926Y10356030D01*
X5925845Y10345948D01*
X5916980Y10347799D01*
X5913145Y10349842D01*
Y10381485D01*
X5914074Y10381871D01*
X5926030Y10393826D01*
X5932500Y10409447D01*
Y10426354D01*
X5926030Y10441974D01*
X5914074Y10453930D01*
X5898454Y10460400D01*
X5881546D01*
X5865926Y10453930D01*
X5853970Y10441974D01*
X5847500Y10426354D01*
Y10409447D01*
X5853970Y10393826D01*
X5865926Y10381871D01*
X5866855Y10381485D01*
Y10270000D01*
X5868617Y10261143D01*
X5873634Y10253634D01*
X6033634Y10093634D01*
X6041143Y10088617D01*
X6050000Y10086855D01*
X6119469D01*
X6125069Y10079782D01*
X6118708Y10068338D01*
X6112507Y10070000D01*
X6087493D01*
X6063332Y10063526D01*
X6049442Y10055506D01*
X6034141Y10060338D01*
X6033982Y10060535D01*
X6031238Y10067158D01*
X6019283Y10079113D01*
X6003662Y10085584D01*
X5986755D01*
X5971135Y10079113D01*
X5959179Y10067158D01*
X5952709Y10051537D01*
Y10034630D01*
X5956855Y10024620D01*
Y9940000D01*
X5958617Y9931143D01*
X5963634Y9923635D01*
X6054948Y9832321D01*
X6050088Y9820588D01*
X5530001D01*
X5530000Y9820588D01*
X5518295Y9818259D01*
X5508371Y9811629D01*
X5467330Y9770588D01*
X5060000D01*
X5048295Y9768259D01*
X5044763Y9765900D01*
X5031100D01*
Y9748485D01*
X5029412Y9740000D01*
Y9360000D01*
X5031100Y9351515D01*
Y9334100D01*
X5044764D01*
X5048295Y9331741D01*
X5060000Y9329412D01*
X5590000D01*
X5601706Y9331741D01*
X5611629Y9338371D01*
X5844800Y9571542D01*
X5857500Y9566282D01*
Y9556496D01*
X5863970Y9540876D01*
X5875926Y9528920D01*
X5891546Y9522450D01*
X5908454D01*
X5909628Y9522937D01*
X5916093Y9518617D01*
X5924950Y9516855D01*
X5937530D01*
X5942390Y9505122D01*
X5910413Y9473145D01*
X5866415D01*
X5866030Y9474074D01*
X5854074Y9486030D01*
X5838454Y9492500D01*
X5821546D01*
X5805926Y9486030D01*
X5793970Y9474074D01*
X5787500Y9458454D01*
Y9441546D01*
X5793970Y9425926D01*
X5794938Y9424958D01*
X5791312Y9410624D01*
X5790206Y9410294D01*
X5789658Y9410445D01*
X5784074Y9416029D01*
X5768454Y9422500D01*
X5751546D01*
X5735926Y9416029D01*
X5723970Y9404074D01*
X5717500Y9388453D01*
Y9371546D01*
X5723970Y9355926D01*
X5735926Y9343970D01*
X5751546Y9337500D01*
X5768454D01*
X5784074Y9343970D01*
X5796030Y9355926D01*
X5796415Y9356855D01*
X5862382D01*
X5867242Y9345122D01*
X5845265Y9323145D01*
X5736415D01*
X5736030Y9324074D01*
X5724074Y9336030D01*
X5708454Y9342500D01*
X5691546D01*
X5675926Y9336030D01*
X5663970Y9324074D01*
X5657500Y9308454D01*
Y9291546D01*
X5663970Y9275926D01*
X5675926Y9263970D01*
X5691546Y9257500D01*
X5708454D01*
X5724074Y9263970D01*
X5736030Y9275926D01*
X5736415Y9276855D01*
X5854852D01*
X5863709Y9278617D01*
X5871218Y9283634D01*
X6011489Y9423905D01*
X6411840D01*
X6582110Y9253634D01*
X6589619Y9248617D01*
X6598476Y9246855D01*
X8230000D01*
X8238857Y9248617D01*
X8246366Y9253634D01*
X8319587Y9326855D01*
X8337300D01*
Y9264800D01*
X8482700D01*
Y9435200D01*
X8337300D01*
Y9373145D01*
X8310000D01*
X8305845Y9372318D01*
X8295006Y9379003D01*
X8293145Y9381313D01*
Y9480413D01*
X8324600Y9511868D01*
X8337300Y9506608D01*
Y9454800D01*
X8482700D01*
Y9625200D01*
X8337300D01*
Y9563145D01*
X8320000D01*
X8311143Y9561383D01*
X8303634Y9556366D01*
X8274878Y9527610D01*
X8263145Y9532470D01*
Y9680413D01*
X8279587Y9696855D01*
X8337300D01*
Y9644800D01*
X8482700D01*
Y9815200D01*
X8337300D01*
Y9743145D01*
X8270000D01*
X8261143Y9741383D01*
X8253634Y9736366D01*
X8244878Y9727610D01*
X8233145Y9732470D01*
Y9860413D01*
X8269587Y9896855D01*
X8337300D01*
Y9859737D01*
X8336855Y9857500D01*
X8337300Y9855263D01*
Y9834800D01*
X8357764D01*
X8360000Y9834355D01*
X8362236Y9834800D01*
X8482700D01*
Y10005200D01*
X8337300D01*
Y9943145D01*
X8260000D01*
X8251143Y9941383D01*
X8243634Y9936366D01*
X8193634Y9886366D01*
X8188617Y9878857D01*
X8186855Y9870000D01*
Y9399587D01*
X8170413Y9383145D01*
X6645342D01*
X6600807Y9427679D01*
X6605667Y9439412D01*
X7190000D01*
X7201706Y9441741D01*
X7211629Y9448371D01*
X7211629Y9448372D01*
X7372670Y9609412D01*
X7560000D01*
X7571705Y9611741D01*
X7581629Y9618371D01*
X7588259Y9628295D01*
X7590588Y9640000D01*
Y10357330D01*
X7642100Y10408842D01*
X7654800Y10403582D01*
Y10267300D01*
X7825200D01*
Y10412700D01*
X7663918D01*
X7658658Y10425400D01*
X7672670Y10439412D01*
X8630000D01*
X8641705Y10441741D01*
X8651629Y10448371D01*
X8671629Y10468371D01*
X8678259Y10478295D01*
X8680588Y10490000D01*
X8680588Y10490001D01*
Y11109999D01*
X8680588Y11110000D01*
X8678259Y11121705D01*
X8671629Y11131629D01*
X8671628Y11131629D01*
X8651629Y11151629D01*
X8641705Y11158259D01*
X8630000Y11160588D01*
X8629998Y11160588D01*
X8510002Y11160588D01*
X8510000Y11160588D01*
X8501321Y11158861D01*
X8493126Y11164579D01*
X8490217Y11168136D01*
X8490588Y11170000D01*
X8490588Y11170002D01*
Y12090000D01*
X8488259Y12101705D01*
X8485400Y12105985D01*
Y12115400D01*
X8475985D01*
X8471705Y12118259D01*
X8460000Y12120588D01*
D02*
G37*
G36*
X2930940Y9665000D02*
X2909060D01*
X2888845Y9656627D01*
X2873373Y9641155D01*
X2865000Y9620940D01*
Y9599060D01*
X2873373Y9578845D01*
X2888845Y9563374D01*
X2909060Y9555000D01*
X2930940D01*
X2951155Y9563374D01*
X2966627Y9578845D01*
X2975000Y9599060D01*
Y9620940D01*
X2966627Y9641155D01*
X2951155Y9656627D01*
X2930940Y9665000D01*
D02*
G37*
G36*
X7825200Y10212700D02*
X7654800D01*
Y10067300D01*
X7726855D01*
Y9800000D01*
X7728617Y9791143D01*
X7733634Y9783634D01*
X7783634Y9733634D01*
X7791143Y9728617D01*
X7800000Y9726855D01*
X7863648D01*
X7867500Y9723003D01*
Y9711546D01*
X7873970Y9695926D01*
X7885926Y9683970D01*
X7892422Y9681280D01*
X7893400Y9676360D01*
X7898418Y9668851D01*
X8087885Y9479383D01*
X8087500Y9478454D01*
Y9461546D01*
X8093970Y9445926D01*
X8105926Y9433970D01*
X8121546Y9427500D01*
X8138454D01*
X8154074Y9433970D01*
X8166030Y9445926D01*
X8172500Y9461546D01*
Y9478454D01*
X8166030Y9494074D01*
X8154074Y9506030D01*
X8138454Y9512500D01*
X8121546D01*
X8120617Y9512115D01*
X7941418Y9691314D01*
X7946030Y9695926D01*
X7952500Y9711546D01*
Y9728454D01*
X7946030Y9744074D01*
X7934074Y9756030D01*
X7918454Y9762500D01*
X7901546D01*
X7895833Y9760133D01*
X7889601Y9766366D01*
X7882092Y9771383D01*
X7873235Y9773145D01*
X7809587D01*
X7773145Y9809587D01*
Y10067300D01*
X7825200D01*
Y10212700D01*
D02*
G37*
G36*
X9173217Y9895000D02*
X9126783D01*
X9080921Y9887736D01*
X9036759Y9873387D01*
X8995386Y9852307D01*
X8957821Y9825013D01*
X8924987Y9792180D01*
X8897693Y9754614D01*
X8876613Y9713241D01*
X8862264Y9669079D01*
X8855000Y9623217D01*
Y9576783D01*
X8862264Y9530921D01*
X8876613Y9486760D01*
X8897693Y9445386D01*
X8924987Y9407821D01*
X8957821Y9374987D01*
X8995386Y9347694D01*
X9036759Y9326613D01*
X9080921Y9312264D01*
X9126783Y9305000D01*
X9173217D01*
X9219079Y9312264D01*
X9263241Y9326613D01*
X9304614Y9347694D01*
X9342179Y9374987D01*
X9375013Y9407821D01*
X9402307Y9445386D01*
X9423387Y9486760D01*
X9437736Y9530921D01*
X9445000Y9576783D01*
Y9623217D01*
X9437736Y9669079D01*
X9423387Y9713241D01*
X9402307Y9754614D01*
X9375013Y9792180D01*
X9342179Y9825013D01*
X9304614Y9852307D01*
X9263241Y9873387D01*
X9219079Y9887736D01*
X9173217Y9895000D01*
D02*
G37*
G36*
X4073217Y9895000D02*
X4026783D01*
X3980921Y9887736D01*
X3936759Y9873387D01*
X3895386Y9852306D01*
X3857821Y9825013D01*
X3824987Y9792179D01*
X3797693Y9754613D01*
X3776613Y9713240D01*
X3762264Y9669079D01*
X3755000Y9623217D01*
Y9576783D01*
X3762264Y9530920D01*
X3776613Y9486759D01*
X3797693Y9445386D01*
X3824987Y9407820D01*
X3857821Y9374987D01*
X3895386Y9347693D01*
X3936759Y9326613D01*
X3980921Y9312264D01*
X4026783Y9305000D01*
X4073217D01*
X4119079Y9312264D01*
X4163241Y9326613D01*
X4204614Y9347693D01*
X4242179Y9374987D01*
X4275013Y9407820D01*
X4302307Y9445386D01*
X4323387Y9486759D01*
X4337736Y9530920D01*
X4345000Y9576783D01*
Y9623217D01*
X4337736Y9669079D01*
X4323387Y9713240D01*
X4302307Y9754613D01*
X4275013Y9792179D01*
X4242179Y9825013D01*
X4204614Y9852306D01*
X4163241Y9873387D01*
X4119079Y9887736D01*
X4073217Y9895000D01*
D02*
G37*
%LPD*%
G36*
X5802300Y12037700D02*
X5802300D01*
Y11870764D01*
X5786804D01*
X5786418Y11871694D01*
X5774463Y11883649D01*
X5758842Y11890119D01*
X5741935D01*
X5726315Y11883649D01*
X5714359Y11871694D01*
X5710400Y11862135D01*
X5697700Y11864661D01*
Y12037700D01*
X5697700D01*
X5699256Y12049756D01*
X5800744D01*
X5802300Y12037700D01*
D02*
G37*
G36*
X5802300Y11742020D02*
Y11692300D01*
X5851855D01*
Y11505000D01*
X5853617Y11496143D01*
X5858634Y11488634D01*
X5905442Y11441827D01*
X5900581Y11430094D01*
X5802638D01*
X5698145Y11534587D01*
Y11736855D01*
X5713585D01*
X5713970Y11735926D01*
X5725926Y11723970D01*
X5741546Y11717500D01*
X5758454D01*
X5774074Y11723970D01*
X5786030Y11735926D01*
X5789600Y11744546D01*
X5802300Y11742020D01*
D02*
G37*
G36*
X5537500Y12076808D02*
Y12064447D01*
X5543970Y12048826D01*
X5545519Y12047278D01*
X5552300Y12037700D01*
X5552300D01*
X5552300Y12037700D01*
Y11692300D01*
X5651855D01*
Y11547698D01*
X5640122Y11542837D01*
X5530773Y11652186D01*
X5531158Y11653116D01*
Y11670023D01*
X5524688Y11685644D01*
X5512732Y11697599D01*
X5497112Y11704070D01*
X5480204D01*
X5472043Y11700689D01*
X5447700Y11725032D01*
Y12004969D01*
X5525306Y12082575D01*
X5537500Y12076808D01*
D02*
G37*
G36*
X8000000Y11480000D02*
X7950000Y11430000D01*
Y11430000D01*
X7770000D01*
X7760000Y11440000D01*
Y11690000D01*
X7860000Y11790000D01*
X8000000D01*
Y11480000D01*
D02*
G37*
G36*
X8210000Y11360000D02*
X8124999Y11275000D01*
X7330000D01*
Y11375000D01*
X8050000D01*
X8090000Y11415000D01*
Y12090000D01*
X8210000D01*
Y11360000D01*
D02*
G37*
G36*
X4840000Y9880000D02*
Y9360000D01*
X4420000D01*
Y9800000D01*
X4240000Y9980000D01*
X3780000D01*
X3710000Y9910000D01*
X3300000D01*
Y10030000D01*
X3650000D01*
X3720000Y10100000D01*
X4620000D01*
X4840000Y9880000D01*
D02*
G37*
G36*
X8460000Y11170000D02*
X8310000Y11020000D01*
X7330000D01*
Y11110000D01*
X8240000D01*
X8339999Y11209999D01*
X8340000Y11959999D01*
Y12090000D01*
X8460000D01*
Y11170000D01*
D02*
G37*
G36*
X8455133Y11111408D02*
X8459412Y11108194D01*
Y10905000D01*
X8459412Y10712670D01*
X8397330Y10650588D01*
X7875400D01*
X7863694Y10648259D01*
X7855355Y10642688D01*
X7744644D01*
X7736305Y10648259D01*
X7724600Y10650588D01*
X7682670D01*
X7680588Y10652670D01*
Y10860000D01*
X7678259Y10871706D01*
X7671629Y10881629D01*
X7671628Y10881629D01*
X7575578Y10977679D01*
X7580439Y10989412D01*
X8309999D01*
X8310000Y10989412D01*
X8321705Y10991741D01*
X8331629Y10998371D01*
X8331629Y10998372D01*
X8447259Y11114002D01*
X8455133Y11111408D01*
D02*
G37*
G36*
X8650000Y11110000D02*
Y10490000D01*
X8630000Y10470000D01*
X7660000D01*
X7560000Y10370000D01*
Y9640000D01*
X7360000D01*
X7190000Y9470000D01*
X6560000D01*
X6410000Y9620000D01*
X5850000D01*
X5590000Y9360000D01*
X5060000D01*
Y9740000D01*
X5480000D01*
X5530000Y9790000D01*
X6580000D01*
X6714600Y9655400D01*
Y9644600D01*
X6725399D01*
X6750000Y9620000D01*
X7090000Y9620000D01*
X7125000Y9655000D01*
Y9835000D01*
X7240000Y9950000D01*
Y10810000D01*
X7330000Y10900000D01*
Y10970000D01*
X7540000D01*
X7650000Y10860000D01*
Y10640000D01*
X7670000Y10620000D01*
X7724600D01*
Y10612100D01*
X7875400D01*
Y10620000D01*
X8410000D01*
X8490000Y10700000D01*
X8490000Y10905000D01*
Y11109999D01*
X8510000Y11130000D01*
X8630000Y11130000D01*
X8650000Y11110000D01*
D02*
G37*
G36*
X6443442Y10287488D02*
X6449912Y10271867D01*
X6455934Y10265845D01*
X6450673Y10253145D01*
X6450000D01*
X6441143Y10251383D01*
X6433634Y10246366D01*
X6337634Y10150366D01*
X6332617Y10142857D01*
X6330855Y10134000D01*
Y10067150D01*
X6317332Y10063526D01*
X6295669Y10051019D01*
X6277981Y10033331D01*
X6265474Y10011669D01*
X6259000Y9987507D01*
Y9962493D01*
X6265253Y9939156D01*
X6265314Y9937716D01*
X6258657Y9924739D01*
X6247181Y9919986D01*
X6238944Y9911749D01*
X6235845Y9911321D01*
X6223145Y9922387D01*
Y10040000D01*
X6221383Y10048857D01*
X6216366Y10056366D01*
X6146366Y10126366D01*
X6138857Y10131383D01*
X6130000Y10133145D01*
X6059587D01*
X5914254Y10278477D01*
X5915194Y10289105D01*
X5927303Y10292593D01*
X5935926Y10283970D01*
X5951546Y10277500D01*
X5968454D01*
X5984074Y10283970D01*
X5996030Y10295926D01*
X5996415Y10296855D01*
X6443442D01*
Y10287488D01*
D02*
G37*
D10*
X4478000Y11170000D02*
D03*
X4022000D02*
D03*
D11*
X4250000Y10530000D02*
D03*
D12*
X6500000Y10730000D02*
D03*
Y10550000D02*
D03*
Y11090000D02*
D03*
Y10910000D02*
D03*
D13*
X6260000Y10559422D02*
D03*
Y10720578D02*
D03*
Y11080578D02*
D03*
Y10919422D02*
D03*
X4750000Y10469922D02*
D03*
Y10630078D02*
D03*
D14*
X7125000Y11325000D02*
D03*
D15*
X7405000Y11682500D02*
D03*
Y11617500D02*
D03*
Y11552500D02*
D03*
Y11487500D02*
D03*
Y11422500D02*
D03*
Y11357500D02*
D03*
Y11292500D02*
D03*
Y11227500D02*
D03*
Y11162500D02*
D03*
Y11097500D02*
D03*
Y11032500D02*
D03*
Y10967500D02*
D03*
X6845000D02*
D03*
Y11032500D02*
D03*
Y11097500D02*
D03*
Y11162500D02*
D03*
Y11227500D02*
D03*
Y11292500D02*
D03*
Y11357500D02*
D03*
Y11422500D02*
D03*
Y11487500D02*
D03*
Y11552500D02*
D03*
Y11617500D02*
D03*
Y11682500D02*
D03*
D16*
X7740000Y10140000D02*
D03*
Y10340000D02*
D03*
D17*
X7400000Y10500000D02*
D03*
X6900000D02*
D03*
Y9750000D02*
D03*
X7400000D02*
D03*
D18*
X5125000Y11865000D02*
D03*
X6375000D02*
D03*
X6125000D02*
D03*
X5375000D02*
D03*
X5625000D02*
D03*
X5875000D02*
D03*
D19*
X6695000Y12285000D02*
D03*
X4805000D02*
D03*
D20*
X3455000Y9970000D02*
D03*
Y9720000D02*
D03*
X3460000Y11945000D02*
D03*
Y11695000D02*
D03*
Y11445000D02*
D03*
Y12195000D02*
D03*
D21*
X3035000Y10290000D02*
D03*
Y9400000D02*
D03*
X3040000Y11125000D02*
D03*
Y12515000D02*
D03*
D22*
X7650000Y11540000D02*
D03*
X7830000D02*
D03*
D23*
X7925000Y11725003D02*
D03*
Y11925000D02*
D03*
D24*
X8410000Y9350000D02*
D03*
X8610000D02*
D03*
X8410000Y9540000D02*
D03*
X8610000D02*
D03*
X8410000Y9730000D02*
D03*
X8610000D02*
D03*
X8410000Y9920000D02*
D03*
X8610000D02*
D03*
D25*
X7600003Y10700000D02*
D03*
X7800000D02*
D03*
D26*
X5435000Y10785000D02*
D03*
Y10415000D02*
D03*
X5215000D02*
D03*
Y10785000D02*
D03*
D27*
X5385000Y10225000D02*
D03*
X5265000D02*
D03*
Y10975000D02*
D03*
X5385000D02*
D03*
D28*
X6300000Y9703725D02*
D03*
Y9316275D02*
D03*
D29*
X7875000Y12360000D02*
D03*
X8675000D02*
D03*
D30*
X8150000Y11930000D02*
D03*
X8400000D02*
D03*
D31*
X7650000Y11975000D02*
D03*
Y11794844D02*
D03*
D32*
X7044422Y11850000D02*
D03*
X7205578D02*
D03*
X4111922Y11480000D02*
D03*
X4273078D02*
D03*
D33*
X4631500Y9550000D02*
D03*
X5268500D02*
D03*
D34*
X3740000Y11680000D02*
X4817574D01*
X3700000Y11640000D02*
X3740000Y11680000D01*
X3740000Y11710000D02*
X4830000D01*
X3700000Y11750000D02*
X3740000Y11710000D01*
X4830000D02*
X5940000Y10600000D01*
X3264783Y11790216D02*
X3360000Y11695000D01*
X3260000Y11840000D02*
X3264783Y11835217D01*
Y11790216D02*
Y11835217D01*
X3360000Y11695000D02*
X3460000D01*
X3231765Y11945000D02*
X3460000D01*
X3200000Y11920000D02*
X3206765D01*
X3231765Y11945000D01*
X3266765Y10780000D02*
X3450000D01*
X3230000Y10810000D02*
X3236765D01*
X3266765Y10780000D01*
X3450000D02*
X3600000Y10930000D01*
X4560000D02*
X4700000Y10790000D01*
X3600000Y10930000D02*
X4560000D01*
X6093944Y9826056D02*
X6327939D01*
X5980000Y9940000D02*
X6093944Y9826056D01*
X5980000Y9940000D02*
Y10030000D01*
X5528235Y10785000D02*
X5543235Y10770000D01*
X5550000D01*
X5435000Y10785000D02*
X5528235D01*
X6017100Y12072900D02*
X6125000Y11965000D01*
X5580000Y12072900D02*
X6017100D01*
X6125000Y11865000D02*
Y11965000D01*
X5375000D02*
X5540800Y12130800D01*
X6085889D01*
X6124590Y12092100D01*
X6995000Y11130000D02*
Y11132500D01*
X6965000Y11162500D02*
X6995000Y11132500D01*
X5989476Y9477050D02*
X6433853D01*
X5892426Y9380000D02*
X5989476Y9477050D01*
X5977050Y9507050D02*
X6446279D01*
X5920000Y9450000D02*
X5977050Y9507050D01*
X5854852Y9300000D02*
X6001902Y9447050D01*
X5830000Y9450000D02*
X5920000D01*
X5700000Y9300000D02*
X5854852D01*
X5760000Y9380000D02*
X5892426D01*
X6001902Y9447050D02*
X6421426D01*
X5924950Y9540000D02*
X6455755D01*
X5900000Y9564950D02*
X5924950Y9540000D01*
X8360000Y9857500D02*
X8410000Y9907500D01*
Y9920000D01*
X6455755Y9540000D02*
X6635755Y9360000D01*
X8407500Y9720000D02*
X8410000Y9717500D01*
X6446279Y9507050D02*
X6623329Y9330000D01*
X6433853Y9477050D02*
X6610902Y9300000D01*
X6421426Y9447050D02*
X6598476Y9270000D01*
X6234172Y9879173D02*
X6266472D01*
X6227500Y9872500D02*
X6234172Y9879173D01*
X6266472D02*
X6271255Y9883956D01*
X6354000Y10134000D02*
X6450000Y10230000D01*
X6354000Y9975000D02*
Y10134000D01*
X6450000Y10230000D02*
X6550000D01*
Y10400000D01*
X6200000Y9900000D02*
Y10040000D01*
X6130000Y10110000D02*
X6200000Y10040000D01*
Y9900000D02*
X6227500Y9872500D01*
X6050000Y10110000D02*
X6130000D01*
X6397417Y9847717D02*
X6402100Y9852400D01*
X6349600Y9847717D02*
X6397417D01*
X6327939Y9826056D02*
X6349600Y9847717D01*
X5385000Y10835000D02*
Y10975000D01*
Y10835000D02*
X5435000Y10785000D01*
X6252422Y10559422D02*
X6260000D01*
X5960000Y10320000D02*
X6455118D01*
X6479176Y10295941D01*
X6485941D01*
X6520000Y10430000D02*
X6550000Y10400000D01*
X6419289Y10430000D02*
X6520000D01*
X6379289Y10470000D02*
X6419289Y10430000D01*
X5890000Y10270000D02*
X6050000Y10110000D01*
X5890000Y10270000D02*
Y10417900D01*
X5125000Y11505000D02*
Y11865000D01*
Y11505000D02*
X5240000Y11390000D01*
X4817574Y11680000D02*
X5972791Y10524783D01*
X5940000Y10600000D02*
X6130000D01*
X5972791Y10524783D02*
X6122317D01*
X6127100Y10520000D01*
X5730000Y11187574D02*
Y11190000D01*
X6149422Y10720578D02*
X6260000D01*
X5732500Y11137500D02*
X6149422Y10720578D01*
X5730000Y11190000D02*
X5732500Y11187500D01*
Y11137500D02*
Y11187500D01*
X6706765Y11200000D02*
X6734265Y11227500D01*
X6700000Y11200000D02*
X6706765D01*
X6734265Y11227500D02*
X6845000D01*
X6686765Y11280000D02*
X6699265Y11292500D01*
X6845000D01*
X6680000Y11280000D02*
X6686765D01*
X6389159Y11160396D02*
X6568763Y11340000D01*
X6673750D01*
X6691250Y11357500D02*
X6845000D01*
X6673750Y11340000D02*
X6691250Y11357500D01*
X6430000Y11615000D02*
X6455000Y11640000D01*
X6540000D01*
X6155000Y11615000D02*
X6430000D01*
X7014422Y11820000D02*
X7044422Y11850000D01*
X6935000Y11820000D02*
X7014422D01*
X6845000Y11730000D02*
X6935000Y11820000D01*
X6845000Y11682500D02*
Y11730000D01*
X6843750Y11618750D02*
X6845000Y11617500D01*
X6670000Y11620000D02*
X6671250Y11618750D01*
X6843750D01*
X5982125Y10030000D02*
X5995209Y10043084D01*
X5980000Y10030000D02*
X5982125D01*
X7914783Y9685217D02*
Y9715217D01*
X7910000Y9720000D02*
X7914783Y9715217D01*
Y9685217D02*
X8130000Y9470000D01*
X7553750Y11487500D02*
X7597500D01*
X7405000Y11487500D02*
X7553750D01*
X7553750Y11487500D01*
X7499926Y11555000D02*
X7545000Y11600074D01*
Y11692422D01*
X7407500Y11555000D02*
X7499926D01*
X7405000Y11552500D02*
X7407500Y11555000D01*
X7490000Y11637500D02*
X7497426D01*
X7515000Y11655074D01*
Y11702270D01*
X7410000Y11622500D02*
X7475000D01*
X7490000Y11637500D01*
X7405000Y11617500D02*
X7410000Y11622500D01*
X7515000Y11702270D02*
Y11855312D01*
X7569457Y11909768D01*
X7545000Y11692422D02*
X7647422Y11794844D01*
X7650000D01*
X5830941Y11129059D02*
X6135810Y10824190D01*
X5830941Y11129059D02*
Y11170941D01*
X6135810Y10824190D02*
X6605810D01*
X6269422Y10730000D02*
X6500000D01*
X6260000Y10720578D02*
X6269422Y10730000D01*
X6500000D02*
X6590000D01*
X6670000Y10180000D02*
Y10650000D01*
X6590000Y10730000D02*
X6670000Y10650000D01*
X6700000Y10280000D02*
Y10730000D01*
X6605810Y10824190D02*
X6700000Y10730000D01*
X9274715Y11331715D02*
X9280000Y11337000D01*
X9181715Y11331715D02*
X9274715D01*
X9147300Y11297300D02*
X9181715Y11331715D01*
X9147300Y10449726D02*
Y11297300D01*
X9117300Y11767300D02*
X9191716Y11841716D01*
X9117300Y10462152D02*
Y11767300D01*
X9191716Y11841716D02*
X9274716D01*
X9290000Y11857000D01*
X9273000Y10810000D02*
X9280000Y10817000D01*
X9190000Y10810000D02*
X9273000D01*
X9177300Y10797300D02*
X9190000Y10810000D01*
X9177300Y10437300D02*
Y10797300D01*
X8690000Y9920000D02*
X8720000Y9950000D01*
X8610000Y9920000D02*
X8690000D01*
X8720000Y10064852D02*
X9117300Y10462152D01*
X8720000Y9950000D02*
Y10064852D01*
X8750000Y10052426D02*
X9147300Y10449726D01*
X8750000Y9760000D02*
Y10052426D01*
X8780000Y9620000D02*
Y10040000D01*
X9177300Y10437300D01*
X8810000Y10027574D02*
X9079426Y10297000D01*
X8810000Y9450000D02*
Y10027574D01*
X9079426Y10297000D02*
X9280000D01*
X8610000Y9730000D02*
X8720000D01*
X8750000Y9760000D01*
X8710000Y9350000D02*
X8810000Y9450000D01*
X8700000Y9540000D02*
X8780000Y9620000D01*
X8610000Y9540000D02*
X8700000D01*
X8610000Y9350000D02*
X8710000D01*
X8210000Y9390000D02*
Y9870000D01*
X8180000Y9360000D02*
X8210000Y9390000D01*
Y9870000D02*
X8260000Y9920000D01*
X8410000D01*
X8270000Y9720000D02*
X8407500D01*
X8240000Y9690000D02*
X8270000Y9720000D01*
X8240000Y9370000D02*
Y9690000D01*
X8200000Y9330000D02*
X8240000Y9370000D01*
X8270000Y9490000D02*
X8320000Y9540000D01*
X8270000Y9352426D02*
Y9490000D01*
X8217574Y9300000D02*
X8270000Y9352426D01*
X6623329Y9330000D02*
X8200000D01*
X6598476Y9270000D02*
X8230000D01*
X8310000Y9350000D02*
X8410000D01*
X8230000Y9270000D02*
X8310000Y9350000D01*
X6610902Y9300000D02*
X8217574D01*
X8320000Y9540000D02*
X8410000D01*
X6680000Y10967500D02*
X6845000D01*
X6597500Y11050000D02*
X6680000Y10967500D01*
X6500000Y11090000D02*
X6507500Y11097500D01*
X6490578Y11080578D02*
X6500000Y11090000D01*
X6540000Y11050000D01*
X6507500Y11097500D02*
X6845000D01*
X6720941Y11030941D02*
X6721250Y11031250D01*
X6540000Y11050000D02*
X6597500D01*
X6721250Y11031250D02*
X6843750D01*
X6845000Y11032500D01*
X6260000Y11080578D02*
X6490578D01*
X5910000Y11170000D02*
X5999422Y11080578D01*
X6260000D01*
X7910000Y9840000D02*
X7972608D01*
X7982608Y9850000D01*
X8050000D01*
X6700000Y10280000D02*
X6740000Y10240000D01*
X7750000Y10340000D02*
X7750000Y10340000D01*
X7740000Y10340000D02*
X7750000D01*
X7750000Y9800000D02*
Y10130000D01*
X7740000Y10140000D02*
X7750000Y10130000D01*
X5488658Y11661570D02*
X5773279Y11376949D01*
X5793051Y11406949D02*
X6620625D01*
X5675000Y11525000D02*
X5793051Y11406949D01*
X5675000Y11525000D02*
Y11760000D01*
X5773279Y11376949D02*
X6633051D01*
X5483875Y11666353D02*
X5488658Y11661570D01*
X6633051Y11376949D02*
X6678602Y11422500D01*
X7903235Y9720000D02*
X7910000D01*
X7873235Y9750000D02*
X7903235Y9720000D01*
X6635755Y9360000D02*
X8180000D01*
X5675000Y11760000D02*
X5750000D01*
X5625000Y11810000D02*
X5675000Y11760000D01*
X5625000Y11810000D02*
Y11865000D01*
X5875000Y11505000D02*
Y11865000D01*
Y11505000D02*
X5943051Y11436949D01*
X6608199D01*
X6620625Y11406949D02*
X6701176Y11487500D01*
X6608199Y11436949D02*
X6723750Y11552500D01*
X6678602Y11422500D02*
X6845000D01*
X6701176Y11487500D02*
X6845000D01*
X6723750Y11552500D02*
X6845000D01*
X5473647Y11666353D02*
X5483875D01*
X5375000Y11865000D02*
Y11965000D01*
Y11765000D02*
X5473647Y11666353D01*
X5375000Y11765000D02*
Y11865000D01*
X6082500Y11572500D02*
X6140000Y11630000D01*
X6030000Y11570000D02*
X6032499Y11572500D01*
X6082500D01*
X4700000Y10790000D02*
X4870000D01*
X5265000Y10835000D02*
Y10975000D01*
X5215000Y10785000D02*
X5265000Y10835000D01*
X5385000Y10365000D02*
X5435000Y10415000D01*
X5385000Y10225000D02*
Y10365000D01*
X5435000Y10415000D02*
Y10455000D01*
X5320000Y10570000D02*
X5435000Y10455000D01*
X5215000Y10655000D02*
X5240000Y10630000D01*
X5215000Y10655000D02*
Y10785000D01*
X7597500Y11487500D02*
X7650000Y11540000D01*
X5750389Y11847620D02*
X5857619D01*
X5875000Y11865000D01*
X6140000Y11630000D02*
X6155000Y11615000D01*
X6125000Y11645000D02*
X6140000Y11630000D01*
X6125000Y11645000D02*
Y11865000D01*
X7800000Y9750000D02*
X7873235D01*
X7750000Y9800000D02*
X7800000Y9750000D01*
D35*
X3209994Y11380007D02*
Y11479994D01*
X3210000Y11480000D01*
X3338640Y11280000D02*
X3365000Y11253640D01*
X3310000Y11280000D02*
X3338640D01*
X3365000Y10996361D02*
Y11253640D01*
X3209994Y11380007D02*
X3310000Y11280000D01*
X3157100Y10635400D02*
X3262500Y10530000D01*
X3157100Y10635400D02*
Y10840196D01*
X3235182Y10918278D01*
X3286917D01*
X3365000Y10996361D01*
X3262500Y10530000D02*
X4250000D01*
X4047000Y11317000D02*
X4071690Y11341690D01*
Y11433884D02*
X4111922Y11474116D01*
X4071690Y11341690D02*
Y11433884D01*
X4111922Y11474116D02*
X4113980Y11472058D01*
X4047000Y11265000D02*
Y11317000D01*
X4022000Y11240000D02*
X4047000Y11265000D01*
X4022000Y11170000D02*
Y11240000D01*
X3817000Y11445000D02*
X4022000Y11240000D01*
X3460000Y11445000D02*
X3817000D01*
X4750000Y10310000D02*
Y10469922D01*
X4250000Y10530000D02*
X4310078Y10469922D01*
X4750000D01*
D36*
X7405000Y11422500D02*
X7405000Y11422500D01*
X7797682Y11507682D02*
X7830000Y11540000D01*
X7405000Y11422500D02*
X7797682D01*
Y11507682D01*
D37*
X6999999Y12076000D02*
D03*
D38*
Y12330000D02*
D03*
Y12584000D02*
D03*
X6354000Y9975000D02*
D03*
X6100000D02*
D03*
X5846000D02*
D03*
D39*
X6485000Y12400000D02*
D03*
X5015000D02*
D03*
D03*
X6485000D02*
D03*
X2920000Y9610000D02*
D03*
Y10080000D02*
D03*
X2925000Y11335000D02*
D03*
Y12305000D02*
D03*
D40*
X6608000Y9975000D02*
D03*
D41*
X2877500Y10640000D02*
D03*
X2602500D02*
D03*
D42*
X9290000Y11603000D02*
D03*
X9280000Y11083000D02*
D03*
Y10563000D02*
D03*
X9280000Y10043000D02*
D03*
D43*
X9290000Y11857000D02*
D03*
X9280000Y11337000D02*
D03*
Y10817000D02*
D03*
X9280000Y10297000D02*
D03*
D44*
X9449997Y11999996D02*
D03*
Y11399997D02*
D03*
Y10799997D02*
D03*
Y10199997D02*
D03*
X9299997Y9899997D02*
D03*
Y9299997D02*
D03*
X8999997Y11699996D02*
D03*
Y10499997D02*
D03*
X9149997Y10199997D02*
D03*
X8999997Y9899997D02*
D03*
Y9299997D02*
D03*
X8849997Y11999996D02*
D03*
X8699997Y11699996D02*
D03*
X8849997Y11399997D02*
D03*
X8399997Y12299996D02*
D03*
X8549997Y11999996D02*
D03*
Y11399997D02*
D03*
X8099998Y12299996D02*
D03*
X7499998D02*
D03*
X7199998D02*
D03*
X7349998Y11999996D02*
D03*
X7049998Y10799997D02*
D03*
Y10199997D02*
D03*
X6899998Y9899997D02*
D03*
X6599998Y11699996D02*
D03*
X6749998Y10799997D02*
D03*
X6299998Y12299996D02*
D03*
X5999998D02*
D03*
Y9299997D02*
D03*
X5699998Y12299996D02*
D03*
Y10499997D02*
D03*
X5399998Y12299996D02*
D03*
Y9299997D02*
D03*
X5099998Y12299996D02*
D03*
X5249998Y11999996D02*
D03*
X5099998Y9299997D02*
D03*
X4949998Y11999996D02*
D03*
Y11399997D02*
D03*
Y10799997D02*
D03*
Y10199997D02*
D03*
Y9599997D02*
D03*
X4799999Y9299997D02*
D03*
X4499999Y12299996D02*
D03*
X4649999Y11999996D02*
D03*
Y11399997D02*
D03*
X4499999Y9299997D02*
D03*
X4349999Y11999996D02*
D03*
X4199999Y11099997D02*
D03*
Y9899997D02*
D03*
Y9299997D02*
D03*
X3899999Y11099997D02*
D03*
Y9899997D02*
D03*
Y9299997D02*
D03*
X3599999Y12299996D02*
D03*
X3749999Y11999996D02*
D03*
X3599999Y11099997D02*
D03*
X3749999Y10799997D02*
D03*
Y10199997D02*
D03*
X3599999Y9299997D02*
D03*
X3299999Y12299996D02*
D03*
X3449999Y10199997D02*
D03*
Y9599997D02*
D03*
X2999999Y10499997D02*
D03*
Y9899997D02*
D03*
X3149999Y9599997D02*
D03*
X2699999Y12299996D02*
D03*
X2849999Y11999996D02*
D03*
X2699999Y11699996D02*
D03*
X2849999Y11399997D02*
D03*
X2699999Y10499997D02*
D03*
Y9899997D02*
D03*
Y9299997D02*
D03*
X3700000Y11640000D02*
D03*
Y11750000D02*
D03*
X3260000Y11840000D02*
D03*
X3200000Y11920000D02*
D03*
X3210000Y11480000D02*
D03*
X3230000Y10810000D02*
D03*
X5550000Y10770000D02*
D03*
X5010000Y10910000D02*
D03*
X5580000Y12072900D02*
D03*
X7710000Y10930000D02*
D03*
X5900000Y9564950D02*
D03*
X5830000Y9450000D02*
D03*
X5700000Y9300000D02*
D03*
X5760000Y9380000D02*
D03*
X6271255Y9883956D02*
D03*
X6402100Y9852400D02*
D03*
X6169535Y10444922D02*
D03*
X6485941Y10295941D02*
D03*
X5960000Y10320000D02*
D03*
X5240000Y11390000D02*
D03*
X5890000Y10417900D02*
D03*
X6130000Y10600000D02*
D03*
X6127100Y10520000D02*
D03*
X6700000Y11200000D02*
D03*
X6680000Y11280000D02*
D03*
X6389159Y11160396D02*
D03*
X6540000Y11640000D02*
D03*
X6670000Y11620000D02*
D03*
X5995209Y10043084D02*
D03*
X8130000Y9470000D02*
D03*
X6720941Y11030941D02*
D03*
X5910000Y11170000D02*
D03*
X7910000Y9840000D02*
D03*
X5830941Y11170941D02*
D03*
X5730000Y11190000D02*
D03*
X6740000Y10240000D02*
D03*
X7750000Y10340000D02*
D03*
X6670000Y10180000D02*
D03*
X7910000Y9720000D02*
D03*
X8050000Y9850000D02*
D03*
X5750000Y11760000D02*
D03*
X6124590Y12092100D02*
D03*
X5488658Y11661570D02*
D03*
X6030000Y11570000D02*
D03*
X4870000Y10790000D02*
D03*
X6379289Y10470000D02*
D03*
X5320000Y10570000D02*
D03*
X5240000Y10630000D02*
D03*
X5750389Y11847620D02*
D03*
X4750000Y10310000D02*
D03*
D45*
X7125000Y11000000D02*
D03*
Y11130000D02*
D03*
Y11260000D02*
D03*
Y11390000D02*
D03*
Y11520000D02*
D03*
Y11650000D02*
D03*
X7255000Y11000000D02*
D03*
Y11130000D02*
D03*
Y11260000D02*
D03*
Y11390000D02*
D03*
Y11520000D02*
D03*
Y11650000D02*
D03*
X6995000Y11000000D02*
D03*
Y11130000D02*
D03*
Y11260000D02*
D03*
Y11390000D02*
D03*
Y11520000D02*
D03*
Y11650000D02*
D03*
X7950000Y10275000D02*
D03*
X8080000D02*
D03*
X8210000D02*
D03*
X8340000D02*
D03*
X8470000D02*
D03*
X8600000D02*
D03*
X7950000Y10405000D02*
D03*
X8080000D02*
D03*
X8210000D02*
D03*
X8340000D02*
D03*
X8470000D02*
D03*
X8600000D02*
D03*
X7950000Y10145000D02*
D03*
X8080000D02*
D03*
X8210000D02*
D03*
X8340000D02*
D03*
X8470000D02*
D03*
X8600000D02*
D03*
D46*
X7500000Y9700000D02*
D03*
Y9800000D02*
D03*
Y9900000D02*
D03*
X7850000Y11670000D02*
D03*
X7920000D02*
D03*
X7850000Y11600000D02*
D03*
X7920000D02*
D03*
X7850000Y11530000D02*
D03*
X7920000D02*
D03*
X7600000Y10550000D02*
D03*
X7500000D02*
D03*
Y10450000D02*
D03*
X7400000D02*
D03*
X7300000Y9700000D02*
D03*
Y9800000D02*
D03*
Y9900000D02*
D03*
Y10000000D02*
D03*
X7400000Y9700000D02*
D03*
Y9800000D02*
D03*
Y9900000D02*
D03*
Y10000000D02*
D03*
X7500000D02*
D03*
Y10200000D02*
D03*
Y10100000D02*
D03*
X7400000D02*
D03*
Y10200000D02*
D03*
X7300000Y10100000D02*
D03*
Y10200000D02*
D03*
X8610000Y10960000D02*
D03*
X8540000D02*
D03*
X8610000Y11030000D02*
D03*
X8540000D02*
D03*
X8610000Y11100000D02*
D03*
X8540000D02*
D03*
D47*
X9150000Y12300000D02*
D03*
Y9600000D02*
D03*
X4050000Y9600000D02*
D03*
Y12300000D02*
D03*
%TF.MD5,f8cf5fa9b32ac9254718c49b501d7992*%
M02*
